<svg width="587" height="530" viewBox="0 0 587 530" fill="none" xmlns="http://www.w3.org/2000/svg">
<path d="M74.9701 7.1803C74.9701 7.1803 77.4426 7.52978 78.5448 9.21366C78.5448 9.21366 75.8638 10.8975 75.3276 12.0731C75.3276 12.0731 74.6126 7.52978 74.9701 7.1803Z" fill="#210303"/>
<path d="M57.1263 13.2803L57.6029 18.5225C57.6029 18.5225 74.4637 23.7648 75.268 12.9626C75.417 11.1198 75.6851 9.21355 74.9701 7.14842C74.0764 4.57495 71.8422 2.54159 68.059 3.5265C64.3651 4.54318 57.1263 13.2803 57.1263 13.2803Z" fill="#F87A26"/>
<path d="M57.1263 13.2803L61.5947 17.5694C64.3055 14.011 65.8546 6.60831 70.4123 5.87757C72.8253 5.49632 74.1956 6.22705 74.9701 7.14842C74.0764 4.57495 71.8422 2.54159 68.059 3.5265C64.3651 4.54318 57.1263 13.2803 57.1263 13.2803Z" fill="#FF9046"/>
<path d="M70.8294 8.29227C70.8294 8.95946 71.3358 9.49958 71.9316 9.49958C72.5274 9.49958 73.0338 8.95946 73.0338 8.29227C73.0338 7.62507 72.5274 7.08496 71.9316 7.08496C71.3358 7.08496 70.8294 7.62507 70.8294 8.29227Z" fill="#210303"/>
<path d="M49.947 33.2328C50.3343 33.1057 50.7811 33.2328 51.1386 33.5823C51.4067 33.8365 51.645 34.1542 51.794 34.5672C53.492 33.7729 54.6836 32.4068 54.7133 32.375L55.2793 32.9469C55.2198 33.0104 54.0878 34.3448 52.3898 35.2026C52.8068 35.7745 53.5516 37.0454 53.2835 38.5704C53.1643 39.2376 52.8962 39.6506 52.5089 39.873C52.3004 40.0001 52.0621 40.0001 51.8536 40.0001C51.4961 39.9683 51.1982 39.7777 51.1386 39.7777C50.9599 39.6506 50.9003 39.3964 50.9897 39.2058C51.079 39.0152 51.3174 38.9199 51.4961 39.047C51.5855 39.1105 51.9131 39.2694 52.1515 39.1423C52.36 39.047 52.4494 38.6975 52.5089 38.4433C52.6579 37.649 52.3898 36.8865 52.1217 36.3464C52.1217 36.4417 52.1217 36.537 52.1217 36.6641C52.0621 37.8714 51.6152 38.4751 51.2876 38.761C50.9897 39.0152 50.6024 39.1423 50.2449 39.1105C50.1854 39.1105 50.1258 39.1105 50.096 39.0787C49.4406 38.9199 49.3215 38.1256 49.3513 37.6808C49.381 37.4584 49.5598 37.2678 49.7683 37.2995C49.9768 37.3313 50.1258 37.5219 50.1258 37.7443C50.1258 37.8714 50.1556 38.2209 50.2747 38.2527C50.4237 38.2845 50.6322 38.2527 50.8407 38.0938C51.1386 37.8397 51.3471 37.2995 51.3769 36.6006C51.4365 35.5204 51.0493 34.6308 50.6322 34.2813C50.513 34.186 50.3045 34.0271 50.096 34.0906C49.6492 34.2177 49.7683 34.8214 49.7981 34.9485C49.8577 35.1709 49.7087 35.3933 49.53 35.4568C49.3215 35.5204 49.1129 35.3615 49.0832 35.1391C48.9938 34.5672 49.0236 33.5188 49.947 33.2328Z" fill="#210303"/>
<path d="M73.8083 16.9658C73.8083 16.9658 73.8083 35.3296 53.9686 32.8197C44.7041 31.6441 41.8443 27.355 41.8443 27.355L61.5947 17.5695C61.5947 17.5695 69.2505 20.0794 73.8083 16.9658Z" fill="#F5DDD0"/>
<path d="M33.3246 35.107C33.1458 35.2023 30.435 36.9498 30.435 38.3795C30.435 39.8727 34.0693 40.0951 36.4227 38.3795L37.793 37.2992L40.4442 35.2023L42.0231 33.9633L43.9892 32.4065L45.9255 30.8815C45.9255 30.8815 46.0744 27.0054 49.7087 25.1309C49.7087 25.1309 45.4191 24.4001 43.3636 26.5288C43.3636 26.5288 40.4144 27.7361 37.0184 29.1976C36.3631 29.4835 35.6779 29.7695 35.0226 30.0554C34.0693 30.4684 33.116 30.8815 32.2224 31.2627C31.4776 31.6122 30.7329 31.9299 30.0775 32.2476C28.6476 32.9148 27.5454 33.4549 27.0688 33.8044C25.7879 34.694 28.5285 37.2357 33.3246 35.107Z" fill="#F87A26"/>
<path d="M61.7436 17.4425C61.7436 17.4425 52.5387 24.9723 46.7 26.1479C40.8315 27.3552 38.6568 25.29 38.6568 25.29L44.4062 21.128L52.9855 15.8857L61.3564 17.1248L61.7436 17.4425Z" fill="#C75911"/>
<path d="M52.4494 17.2199C52.4494 17.2199 42.1422 24.6544 33.8906 24.9085C25.6687 25.1627 24.9836 23.5424 24.9836 23.5424L34.3076 18.0777L45.0616 13.5662C45.0914 13.5662 51.5557 12.2 52.4494 17.2199Z" fill="#F87A26"/>
<path d="M45.4488 13.2487C45.4488 13.2487 35.7375 19.031 26.5624 19.5394C17.3872 20.0159 17 18.1097 17 18.1097L33.3246 9.37256C33.3246 9.37256 44.7339 10.5799 45.2403 11.5012C45.7467 12.3908 45.4488 13.2487 45.4488 13.2487Z" fill="#FF9046"/>
<path d="M33.3544 9.37267C33.5033 9.46798 38.5675 13.3123 43.6913 11.8826C43.6913 11.8826 44.0488 14.9009 46.9681 15.1233C49.9173 15.3457 50.8407 15.0597 50.8407 15.0597C50.8407 15.0597 52.0919 17.6332 54.3857 18.491C56.322 19.19 60.1946 17.9827 61.3862 17.5696C61.4755 17.5379 61.5351 17.5061 61.5649 17.5061C61.6543 17.4743 61.7139 17.4426 61.7139 17.4426L61.5649 17.2519L58.8839 13.916C58.8839 13.916 54.2367 6.51325 47.5639 5.56012C40.8911 4.60698 33.3544 9.37267 33.3544 9.37267Z" fill="#E6640E"/>
<path d="M59.2115 30.8815C59.2115 30.8815 56.9475 34.2175 54.7729 34.567C52.5685 34.9165 53.1047 32.5972 53.7005 31.9935C54.2963 31.3899 60.4329 26.8783 59.2115 30.8815Z" fill="#F5DDD0"/>
<path d="M30.1371 32.2159C30.4648 32.6924 31.1202 33.2643 32.4011 33.6138C34.7247 34.2175 35.6779 33.3596 35.6779 33.3596C35.6779 33.3596 34.7842 34.2492 35.1715 36.1555C35.38 37.2357 36.7206 37.3628 37.793 37.2675L40.4442 35.1706C40.4442 35.1706 38.5377 36.0602 37.4057 34.7893C36.2737 33.5185 37.8228 31.6758 37.8228 31.6758C34.8736 32.5653 33.116 31.8346 32.2521 31.231C31.5074 31.6122 30.7925 31.9299 30.1371 32.2159Z" fill="#FF9046"/>
<path d="M35.0524 30.0238C35.946 31.3264 39.342 30.2462 39.342 30.2462C39.342 30.2462 38.8356 31.7395 39.5506 32.8514C40.057 33.5822 41.2783 33.8681 42.0529 33.9634L44.019 32.4066C43.1551 32.4066 41.5762 32.3749 40.9804 31.9301C40.3549 31.4535 40.3251 29.2613 40.3251 29.2613C38.925 29.7696 37.7632 29.4837 37.078 29.1978C36.4227 29.4519 35.7375 29.7379 35.0524 30.0238Z" fill="#FF9046"/>
<path d="M33.3543 9.37267C39.1335 11.692 44.0487 7.08514 44image-1.0487 7.08514C44.0487 7.08514 45.2999 8.95964 47.266 9.37267C49.2321 9.78569 51.1088 8.61016 51.1088 8.61016C51.1088 8.61016 51.1684 9.84923 52.4791 11.4696C53.7898 13.0899 56.5603 13.4076 56.5603 13.4076C56.5603 13.4076 56.6198 14.6149 57.156 15.8858C57.6327 16.9978 60.6414 17.4426 61.4159 17.5379C61.5351 17.5379 61.5947 17.5696 61.5947 17.5696V17.4743V17.2519L58.8838 13.916C58.8838 13.916 54.2367 6.51325 47.5639 5.56012C40.891 4.60698 33.3543 9.37267 33.3543 9.37267Z" fill="#F87A26"/>
<path d="M73.5402 4.79746C73.5402 4.79746 73.0338 1.96982 69.042 1.62033C65.0503 1.27085 62.1309 1.46148 61.7436 0C61.7436 0 61.0287 2.3193 62.7565 3.81255C62.7565 3.81255 61.5947 4.28912 60.8798 4.32089C60.8798 4.32089 62.3692 6.32248 64.3055 5.87768C66.2418 5.46465 68.4463 2.47816 73.5402 4.79746Z" fill="#F87A26"/>
<path d="M71.872 21.541C71.872 21.541 71.2464 24.7181 70.0847 25.0041C68.8931 25.29 70.4719 22.2082 71.872 21.541Z" fill="#EACBBA"/>
<path d="M69.3399 21.4141C69.3399 21.4141 68.2675 24.4323 67.0759 24.5276C65.8844 24.623 67.8802 21.8271 69.3399 21.4141Z" fill="#EACBBA"/>
<path d="M66.5993 20.9692C66.5993 20.9692 64.8417 23.5744 63.68 23.2885C62.5182 23.0025 65.0801 20.9056 66.5993 20.9692Z" fill="#EACBBA"/>
<path d="M68.5058 26.4971C68.5058 26.4971 67.5228 29.5471 66.3312 29.6742C65.1396 29.8013 67.0461 26.9419 68.5058 26.4971Z" fill="#EACBBA"/>
<path d="M66.0035 26.0205C66.0035 26.0205 64.6034 28.8799 63.4118 28.7846C62.2203 28.7211 64.514 26.2111 66.0035 26.0205Z" fill="#EACBBA"/>
<path d="M63.2629 24.75C63.2629 24.75 61.7138 27.4823 60.5223 27.3235C59.3307 27.1328 61.7436 24.8135 63.2629 24.75Z" fill="#EACBBA"/>
<path d="M63.948 30.3735C63.948 30.3735 61.9522 32.1526 60.9989 31.6443C60.0754 31.136 62.6671 29.9604 63.948 30.3735Z" fill="#EACBBA"/>
<path d="M61.4159 28.8163C61.4159 28.8163 59.5392 30.7544 58.5562 30.3413C57.6029 29.8965 60.1052 28.5304 61.4159 28.8163Z" fill="#EACBBA"/>
<mask id="mask0" mask-type="alpha" maskUnits="userSpaceOnUse" x="47" y="0" width="540" height="530">
<path fill-rule="evenodd" clip-rule="evenodd" d="M157.679 0C97.6582 0 48.5067 51.7373 48.5067 114.915C48.5067 258.451 47.299 234.275 47.299 337.034C47.299 367.924 71.2106 393.093 100.557 393.093C125.917 393.093 146.568 414.957 146.568 441.525C146.568 490.212 184.368 530 230.621 530H255.74H378.559H476.62C536.641 530 585.792 478.263 585.792 415.085C585.792 274.231 587 0.127121 587 0.127121C587 0.127121 355.151 0.127113 351.87 0.127113C269.87 -5.28991e-06 239.678 0 157.679 0Z" fill="#D7F7F1"/>
</mask>
<g mask="url(#mask0)">
<path fill-rule="evenodd" clip-rule="evenodd" d="M157.679 0C97.6582 0 48.5067 51.7373 48.5067 114.915C48.5067 178.093 97.6582 234.83 157.679 234.83C169.755 234.83 179.537 245.254 179.537 257.839C179.537 270.551 169.634 280.847 157.679 280.847H100.557C71.2106 280.975 47.299 306.144 47.299 337.034C47.299 367.924 71.2106 393.093 100.557 393.093C125.917 393.093 146.568 414.958 146.568 441.525C146.568 490.212 184.368 530 230.621 530H255.74H378.559H476.62C536.641 530 585.792 478.263 585.792 415.085C585.792 351.907 536.641 300.169 476.62 300.169C464.544 300.169 454.762 289.746 454.762 277.161C454.762 264.449 464.665 254.153 476.62 254.153H533.742C563.088 254.153 587 228.983 587 198.093C587 167.33 563.088 142.034 533.863 142.034H481.934C456.573 142.034 435.922 115.169 435.922 88.6017C435.922 39.9152 398.123 0.127119 351.87 0.127119C269.87 1.49012e-08 239.678 0 157.679 0Z" fill="#F3EFEF"/>
<path fill-rule="evenodd" clip-rule="evenodd" d="M64.3041 179.407C81.068 208.39 109.651 228.983 142.938 233.814V228.729C142.938 228.22 142.817 227.839 142.455 227.585C142.214 227.331 141.732 227.076 141.37 227.076H134.375L134.254 171.653C134.254 170.763 133.531 170 132.686 170H125.812C125.33 170 124.968 170.127 124.726 170.508C124.365 170.763 124.244 171.271 124.244 171.653V178.008H116.525V164.28C116.525 163.39 115.802 162.627 114.958 162.627H95.9022C95.058 162.627 94.3344 163.39 94.3344 164.153L94.2138 170H76.3645V166.059C76.3645 165.169 75.6408 164.407 74.7966 164.407L69.49 164.28C69.0076 164.28 68.6458 164.407 68.4046 164.788C68.0428 165.042 67.9222 165.551 67.9222 165.932V178.898H65.5101V173.432C65.5101 172.542 64.9071 171.907 64.1835 171.78V179.407H64.3041ZM154.877 234.831V230.763V182.331C154.877 181.568 155.239 181.059 155.963 180.805L157.651 180.17C157.772 180.17 157.892 180.042 158.013 180.042C158.013 179.661 158.013 178.771 158.013 178.517C158.013 176.864 158.013 175.085 158.134 173.432C158.134 172.542 158.857 171.907 159.581 171.907L162.114 171.78L162.234 140.127C162.234 139.237 162.837 138.602 163.681 138.475L166.335 138.347V126.144C166.335 125.254 167.058 124.492 167.903 124.492C168.264 124.492 168.747 124.492 169.109 124.492C169.109 124.492 169.109 124.492 169.229 124.492C169.35 123.729 169.229 122.076 169.229 121.695C169.229 118.39 169.109 115.085 168.988 111.78C168.988 111.271 169.109 110.89 169.47 110.636C169.712 110.254 170.194 110.127 170.556 110.127H193.35C194.194 110.127 194.918 110.89 194.918 111.78L195.038 124.364C195.641 124.364 196.003 124.492 197.089 125.254C197.571 125.508 197.812 126.017 197.812 126.653V138.347L200.586 138.475C201.43 138.475 202.033 139.237 202.033 140.127V171.78L204.807 171.907C205.651 171.907 206.255 172.67 206.255 173.559L206.375 180.17H207.702C208.546 180.17 209.27 180.932 209.27 181.822L209.39 305H220.848V208.771C220.848 208.008 220.848 207.373 220.848 206.61C220.848 205.847 220.968 205.212 221.571 204.703C222.054 204.322 222.536 204.195 223.139 204.195C223.26 204.195 223.38 204.195 223.38 204.195V197.712C223.38 196.822 224.104 196.059 224.827 196.059C225.43 196.059 226.154 196.059 226.757 196.059C226.878 196.059 227.119 196.059 227.36 196.059C227.481 195.297 227.481 193.517 227.481 193.008C227.481 189.703 227.36 186.398 227.36 183.093C227.36 181.949 227.36 180.678 227.481 179.661C227.601 178.771 227.843 178.008 228.687 177.627H228.807C228.807 177.5 228.928 177.373 228.928 177.246C229.049 176.737 229.049 175.085 229.049 174.449C229.049 173.559 229.049 172.542 229.169 171.653C229.29 170.763 229.893 170.127 230.737 170.254L242.074 170.508C242.677 170.508 243.159 170.89 243.4 171.271C243.4 168.983 243.28 166.695 243.521 164.407C243.521 163.517 244.245 162.881 245.089 162.881L257.27 162.754C258.114 162.754 258.838 163.517 258.838 164.407L258.958 177.373C259.079 177.373 259.079 177.373 259.199 177.373C259.923 177.5 260.526 177.881 261.129 178.39C261.491 178.644 261.732 179.153 261.732 179.661L261.853 196.186L264.265 196.441C264.988 196.568 265.591 197.076 265.712 197.839L266.436 204.322C266.677 204.449 266.918 204.576 267.159 204.703C267.883 205.212 268.124 206.102 268.245 206.864C268.245 206.992 268.245 206.992 268.245 207.119V290.763H277.893V278.051C277.893 277.542 278.014 277.161 278.375 276.907C278.737 276.653 279.099 276.398 279.461 276.398L283.32 276.525C284.164 276.525 284.888 277.288 284.888 278.178L285.009 290.763L292.607 290.89C293.451 290.89 294.054 291.525 294.175 292.415L294.416 296.356H295.019L295.139 287.331C295.139 286.441 295.863 285.678 296.707 285.678H307.441C308.285 285.678 308.888 286.314 309.009 287.203C309.129 288.602 309.129 289.873 309.129 291.271C309.371 291.144 309.612 291.017 309.974 291.017H320.345C321.19 291.017 321.793 291.653 321.913 292.542L322.034 295.593C322.034 295.466 322.155 295.466 322.155 295.339C322.396 294.831 322.637 294.195 322.758 293.686C322.999 292.542 322.999 291.271 322.999 290C322.999 288.347 322.878 286.568 322.878 284.915C322.878 284.025 323.602 283.39 324.325 283.263L332.768 283.008V57.1187C332.768 56.6102 332.888 56.2288 333.25 55.9746C333.491 55.7204 333.974 55.4661 334.336 55.4661H338.557L338.677 45.9322C338.677 45.1695 339.16 44.661 339.763 44.4068L342.054 43.6441V40.8475C342.054 39.9577 342.778 39.1949 343.622 39.1949H384.265C384.748 39.1949 385.11 39.3221 385.351 39.7034C385.713 40.0848 385.833 40.4661 385.833 40.8475L385.713 43.7712C385.833 43.7712 385.954 43.7712 386.074 43.8983C386.798 44.0255 387.522 44.1526 388.125 44.7882C388.487 45.1695 388.848 45.678 388.969 46.1865C388.969 46.3136 388.969 46.4407 388.969 46.5678V55.4661L393.069 55.5932C393.793 55.5932 394.517 56.2288 394.517 56.9916C394.637 57.7543 394.637 58.517 394.637 59.1526C394.637 60.5509 394.637 61.9492 394.758 63.3475C394.758 67.9238 394.879 72.5 394.879 76.9492C394.879 90.1695 394.879 174.195 394.879 187.415C394.879 200 394.879 212.585 394.758 225.17C394.758 232.161 394.758 239.28 394.758 246.271C394.758 248.559 394.637 250.72 394.637 253.009C394.517 257.203 394.517 261.271 394.517 265.466C394.517 268.644 394.517 271.949 394.637 275.254C394.758 275.254 394.878 275.254 394.999 275.254H407.783C407.783 274.492 407.783 273.856 407.783 273.093C407.783 271.059 407.662 195.424 407.662 193.39C407.662 191.864 407.542 190.339 407.542 188.814C407.542 187.924 408.265 187.161 409.11 187.161L429.854 187.288C430.698 187.288 431.421 188.051 431.421 188.941C431.421 192.754 431.421 196.568 431.421 200.381C431.421 200.89 431.421 201.271 431.421 201.78H440.828C441.673 201.78 442.276 202.415 442.396 203.178C442.517 204.322 442.517 205.339 442.517 206.483C442.517 206.483 442.517 206.483 442.638 206.483C443.964 206.483 445.291 206.483 446.617 206.483C447.582 206.483 448.547 206.737 449.15 207.627C449.512 208.136 449.633 208.898 449.633 209.534C450.356 209.534 450.959 209.661 452.045 210.551C452.406 210.805 452.648 211.314 452.648 211.822V237.5H469.532C470.376 237.5 470.979 238.136 471.1 238.898L471.462 242.458H473.512L473.753 232.542C473.753 231.653 474.477 230.89 475.321 230.89L494.859 231.017C495.703 231.017 496.306 231.653 496.427 232.542C496.547 233.305 496.547 234.195 496.547 234.958C496.668 234.831 496.668 234.703 496.789 234.576C497.15 234.322 497.512 234.068 497.874 234.068L507.884 234.322C508.728 234.322 509.331 235.085 509.331 235.975C509.331 236.356 509.211 237.373 509.211 238.39C509.331 238.136 509.452 238.008 509.573 237.881C509.934 237.5 510.296 237.373 510.658 237.373H518.377C518.859 237.373 519.221 237.5 519.462 237.881C519.703 238.263 519.944 238.644 519.944 239.025C519.944 239.534 519.944 240.042 519.944 240.551C519.944 240.932 519.944 241.441 519.944 241.822C519.944 241.949 519.944 242.203 520.065 242.331C520.186 242.331 520.186 242.331 520.306 242.331C520.427 242.331 520.547 242.331 520.668 242.331C520.668 180.673 587 120.421 587 197.458C587 228.347 563.12 253.517 533.814 253.517H476.768C464.708 253.517 454.939 263.941 454.939 276.525C454.939 289.237 464.829 299.534 476.768 299.534C536.708 299.534 585.794 351.271 585.794 414.449C585.794 477.627 536.708 529.364 476.768 529.364H378.838H255.461H230.375C184.184 529.364 146.435 489.576 146.435 440.89C146.435 414.195 125.691 392.458 100.485 392.458C86.6158 392.458 73.8318 386.737 64.3041 377.458V295.466C73.8318 286.186 86.4952 280.466 100.485 280.466H157.531C169.591 280.466 179.36 270.042 179.36 257.458C179.36 244.746 169.47 234.449 157.531 234.449C156.686 234.831 155.842 234.831 154.877 234.831ZM495.824 240.297C495.824 241.186 495.824 242.203 495.824 242.712C495.824 242.203 495.824 241.186 495.824 240.932C495.824 240.678 495.824 240.424 495.824 240.297Z" fill="#EBE2E2"/>
<path fill-rule="evenodd" clip-rule="evenodd" d="M534.899 62.0762C543.341 62.0762 550.216 69.3219 550.216 78.2202V144.322V147.5C551.181 173.432 576.869 174.703 576.869 221.229V439.873C570.115 445.466 529.351 435.551 520.186 435.551C503.422 435.551 521.633 321.144 518.618 338.051H512.829C501.974 338.051 493.05 328.644 493.05 317.203C493.05 234.703 493.05 224.661 493.05 142.161C493.05 117.754 498.356 116.102 509.211 109.491C518.738 103.644 519.583 93.3474 519.583 90.9321V90.4236V78.2202C519.583 69.449 526.457 62.0762 534.899 62.0762Z" fill="#035450"/>
<path fill-rule="evenodd" clip-rule="evenodd" d="M533.09 110.89C533.09 109.746 533.934 108.983 534.899 108.983C535.985 108.983 536.708 109.873 536.708 110.89V155.763L545.512 150.424C545.995 150.042 546.718 150.296 547.08 150.805C547.442 151.313 547.201 152.076 546.718 152.457L536.829 158.432V222.627L562.759 206.864C563.241 206.483 563.965 206.737 564.326 207.246C564.688 207.754 564.447 208.517 563.965 208.898L536.949 225.424V286.949L562.879 271.186C563.362 270.805 564.085 271.059 564.447 271.568C564.809 272.076 564.568 272.839 564.085 273.22L537.07 289.746V312.754C535.743 313.517 534.537 314.279 533.331 315.042V306.144L511.14 292.669C510.658 292.288 510.417 291.652 510.778 291.017C511.14 290.508 511.743 290.254 512.346 290.635L533.452 303.474V251.991L511.261 238.517C510.779 238.135 510.537 237.5 510.899 236.864C511.261 236.356 511.864 236.102 512.467 236.483L533.573 249.322V197.839L511.381 184.364C510.899 183.983 510.658 183.347 511.02 182.712C511.382 182.203 511.985 181.949 512.588 182.33L533.693 195.169V143.559L511.502 130.085C511.02 129.703 510.779 129.068 511.14 128.432C511.502 127.924 512.105 127.669 512.708 128.051L533.814 140.89V110.89H533.09Z" fill="#034946"/>
<path d="M523.184 410.32C519.18 403.242 525.853 381.903 533.828 384.557C538.174 386.008 530.371 400.906 530.371 400.906" fill="#F87A26"/>
<path d="M561.105 420.158C567.744 413.682 571.167 404.764 569.558 401.968C568.976 400.977 567.881 400.128 565.485 400.552C567.539 397.615 570.824 392.13 568.976 389.37C566.649 385.901 561.721 388.449 561.721 388.449C561.721 388.449 564.014 382.787 560.352 380.699C555.184 377.727 547.894 385.194 547.894 385.194C548.476 378.045 540.638 380.31 532.801 388.449C530.987 390.502 522.842 399.031 524.382 412.443L553.815 426.492" fill="#F87A26"/>
<path d="M553.986 395.422C555.423 396.519 550.358 403.101 548.852 402.146C547.107 401.049 552.446 394.219 553.986 395.422Z" fill="#FACE24"/>
<path d="M553.507 398.039C554.225 396.872 554.465 395.775 553.986 395.385C553.507 395.031 552.72 395.385 551.864 396.128C551.043 398.252 553.028 398.818 553.507 398.039Z" fill="#FCEFC0"/>
<path d="M561.515 393.828C562.884 394.996 557.579 401.331 556.108 400.305C554.397 399.137 560.009 392.554 561.515 393.828Z" fill="#FACE24"/>
<path d="M559.188 396.589C559.359 397.155 559.667 397.474 560.112 397.615C561.344 396.093 562.165 394.359 561.515 393.829C561.07 393.439 560.249 393.793 559.359 394.466C559.085 395.209 558.983 395.916 559.188 396.589Z" fill="#FCEFC0"/>
<path d="M557.614 384.698C559.393 385.937 555.458 391.988 553.541 390.891C551.419 389.688 555.697 383.353 557.614 384.698Z" fill="#FACE24"/>
<path d="M555.115 388.273C555.355 388.945 555.8 389.264 556.313 389.37C557.614 387.388 558.435 385.265 557.614 384.699C557.032 384.309 556.074 384.805 555.081 385.69C554.841 386.574 554.807 387.459 555.115 388.273Z" fill="#FCEFC0"/>
<path d="M559.565 403.065C560.831 404.233 557.169 408.515 555.8 407.489C554.226 406.321 558.196 401.826 559.565 403.065Z" fill="#FACE24"/>
<path d="M557.237 405.613C557.374 406.144 557.648 406.462 558.059 406.604C559.256 405.188 560.112 403.631 559.53 403.101C559.12 402.711 558.332 402.994 557.443 403.631C557.203 404.268 557.1 404.976 557.237 405.613Z" fill="#FCEFC0"/>
<path d="M549.058 388.591C551.179 389.936 545.567 397.827 543.342 396.695C540.81 395.385 546.799 387.14 549.058 388.591Z" fill="#FACE24"/>
<path d="M548.578 392.378C549.468 390.608 549.81 389.087 549.092 388.591C548.407 388.166 547.278 388.803 546.08 389.936C544.916 391.741 548.27 392.944 548.578 392.378Z" fill="#FCEFC0"/>
<path d="M562.508 414.283C559.154 413.222 554.944 418.671 554.944 418.671C554.944 418.671 552.104 415.239 546.73 420.441L530.234 409.895C530.234 409.895 535.265 396.872 532.527 395.81C529.823 394.749 523.458 404.374 521.404 413.292C519.351 422.21 521.986 428.651 528.489 433.145C538.037 439.763 551.316 433.853 558.709 425.82C563.192 421.007 565.862 415.345 562.508 414.283Z" fill="#F87A26"/>
<path d="M563.911 417.327C561.755 420.441 558.572 421.892 557.34 421.007C556.108 420.122 556.826 416.937 558.709 415.203C556.621 416.548 554.944 418.707 554.944 418.707C554.944 418.707 553.336 416.76 550.221 418.034C545.601 422.918 548.442 427.837 553.438 421.609C553.438 421.609 551.796 424.829 554.397 425.395C556.998 425.961 560.317 424.086 562.987 419.91C563.466 418.955 563.774 418.07 563.911 417.327Z" fill="#FF9E12"/>
<path d="M562.508 414.283C561.276 413.894 559.941 414.389 558.709 415.168C556.826 416.937 556.108 420.122 557.34 420.972C558.572 421.856 561.789 420.405 563.911 417.291C564.219 415.84 563.808 414.708 562.508 414.283Z" fill="#FEAD14"/>
<path d="M532.048 404.516C532.322 403.525 532.596 402.534 532.835 401.543C530.645 403.985 528.283 402.994 528.626 398.252C528.146 398.818 527.667 399.455 527.154 400.198C521.37 409.789 527.188 412.054 532.048 404.516Z" fill="#FF9E12"/>
<path d="M532.527 395.81C531.569 395.456 530.131 396.412 528.626 398.217C528.283 402.959 530.611 403.985 532.835 401.508C533.451 398.747 533.657 396.27 532.527 395.81Z" fill="#FEAD14"/>
<path d="M540.81 413.292C542.863 407.559 543.171 402.676 541.015 401.932C539.338 401.366 536.429 404.339 533.588 408.727C530.269 417.999 535.539 421.467 540.81 413.292Z" fill="#FF9E12"/>
<path d="M551.898 407.807C550.255 406.426 547.86 407.7 545.601 409.682V409.718C538.619 418.494 544.403 423.165 548.955 417.22C551.761 412.726 553.233 408.904 551.898 407.807Z" fill="#FF9E12"/>
<path d="M540.981 401.968C540.125 401.685 538.961 402.287 537.627 403.561C536.737 408.551 538.927 410.922 542.007 409.046C542.829 405.295 542.589 402.499 540.981 401.968Z" fill="#FEAD14"/>
<path d="M551.898 407.807C550.871 406.922 549.502 407.134 548.099 407.877C545.567 412.796 547.586 415.663 550.426 414.672C552.24 411.346 552.959 408.691 551.898 407.807Z" fill="#FEAD14"/>
<path d="M568.976 389.37C568.429 388.556 567.778 388.096 567.06 387.812C563.432 388.662 561.618 397.191 568.292 395.81C569.421 393.439 570.037 390.962 568.976 389.37Z" fill="#FF9E12"/>
<path d="M543.856 381.018C541.665 384.875 545.841 386.928 547.928 385.194C548.202 381.761 546.525 380.487 543.856 381.018Z" fill="#FF9E12"/>
<path d="M569.558 401.968C569.216 401.331 568.634 400.765 567.676 400.552C564.185 404.091 564.869 408.939 568.771 408.55C568.805 408.55 568.839 408.55 568.908 408.515C570.003 405.648 570.277 403.206 569.558 401.968Z" fill="#FF9E12"/>
<path d="M533.828 384.557C532.561 384.132 531.329 384.309 530.166 384.946C523.937 391.033 527.804 401.331 534.718 390.007C535.402 387.317 535.402 385.052 533.828 384.557Z" fill="#FF9E12"/>
<path d="M533.828 384.558C532.698 384.204 531.637 384.274 530.576 384.77C529.071 389.052 531.124 392.909 534.854 389.477C535.402 386.999 535.299 385.018 533.828 384.558Z" fill="#FEAD14"/>
<path fill-rule="evenodd" clip-rule="evenodd" d="M460.589 337.796C429.112 337.796 403.665 364.618 403.665 397.796C403.665 399.195 403.665 400.593 403.785 401.864C383.886 405.042 367.845 420.551 362.659 440.635C357.232 441.144 352.167 443.305 348.066 446.61C341.554 439.237 332.267 434.534 321.895 434.534C302.237 434.534 286.317 451.313 286.317 472.034C286.317 477.627 288.35 485.839 290.4 490.542H558.332C570.151 475.415 581.193 453.983 584.449 433.898C575.283 424.491 562.861 418.771 549.233 418.771C547.183 418.771 545.012 418.898 543.082 419.152C538.741 408.22 529.092 400.212 517.635 398.686C517.635 398.305 517.635 397.924 517.635 397.415C517.635 364.618 492.067 337.796 460.589 337.796Z" fill="#00AA8A"/>
<path fill-rule="evenodd" clip-rule="evenodd" d="M485.693 136.695C475.924 136.695 467.964 145.085 467.964 155.381V231.78V235.466C466.879 265.339 437.211 266.864 437.211 320.508C437.211 385.339 437.211 366.398 437.211 431.229C437.211 444.449 447.462 455.254 460.005 455.254H511.141C523.683 455.254 533.935 444.449 533.935 431.229C533.935 335.89 533.935 324.449 533.935 229.11C533.935 200.89 527.784 198.983 515.241 191.356C504.146 184.619 503.301 172.797 503.181 170V169.364V155.254C503.422 145.212 495.462 136.695 485.693 136.695Z" fill="#2FD3B9"/>
<path fill-rule="evenodd" clip-rule="evenodd" d="M487.864 193.008C487.864 191.737 486.899 190.72 485.693 190.72C484.487 190.72 483.522 191.737 483.522 193.008V244.746L473.391 238.644C472.788 238.263 471.944 238.517 471.582 239.152C471.22 239.788 471.462 240.678 472.065 241.059L483.522 248.051V322.161L453.612 303.729C453.009 303.347 452.165 303.602 451.803 304.237C451.442 304.873 451.683 305.763 452.286 306.144L483.522 325.212V396.271L453.612 378.093C453.009 377.712 452.165 377.966 451.803 378.602C451.442 379.237 451.683 380.127 452.286 380.508L483.522 399.576V481.186C483.522 482.457 484.487 483.474 485.693 483.474C486.899 483.474 487.864 482.457 487.864 481.186V418.39L513.552 402.754C514.155 402.373 514.397 401.61 514.035 400.847C513.673 400.085 512.949 399.957 512.226 400.339L487.864 415.212V355.847L513.552 340.212C514.155 339.83 514.397 339.068 514.035 338.305C513.673 337.669 512.949 337.415 512.226 337.796L487.864 352.669V293.305L513.552 277.669C514.155 277.288 514.397 276.525 514.035 275.763C513.673 275.127 512.949 274.873 512.226 275.254L487.864 290.127V230.763L513.552 215.127C514.155 214.746 514.397 213.983 514.035 213.22C513.673 212.585 512.949 212.33 512.226 212.712L487.864 227.585V193.008V193.008Z" fill="#26BBA3"/>
<path fill-rule="evenodd" clip-rule="evenodd" d="M123.882 64.4917C112.666 64.4917 103.38 74.1527 103.38 86.1019V174.322V178.644C102.053 213.22 67.9221 214.873 67.9221 276.907V381.271C76.9674 388.644 88.1835 393.093 100.485 393.093C122.917 393.093 141.611 410.127 145.711 432.627H153.43C167.903 432.627 179.842 420.17 179.842 404.788C179.842 294.704 179.842 281.483 179.842 171.398C179.842 138.856 172.727 136.568 158.254 127.797C145.47 120.043 144.505 106.314 144.385 103.136V102.5V85.9747C144.385 74.1527 135.098 64.4917 123.882 64.4917Z" fill="#33CEB5"/>
<path fill-rule="evenodd" clip-rule="evenodd" d="M126.294 129.449C126.294 128.051 125.209 126.78 123.762 126.78C122.314 126.78 121.229 127.924 121.229 129.449V189.322L109.53 182.203C108.807 181.822 107.963 182.076 107.48 182.839C107.118 183.602 107.36 184.492 108.083 185L121.229 193.009V278.559L86.6157 257.458C85.8921 257.076 85.0479 257.331 84.5655 258.093C84.2036 258.856 84.4448 259.746 85.1685 260.254L121.229 282.246V364.237L86.6157 343.136C85.8921 342.754 85.0479 343.009 84.5655 343.771C84.2036 344.534 84.4448 345.424 85.1685 345.932L121.229 367.924V398.559C122.917 399.449 124.606 400.593 126.174 401.737V389.788L155.842 371.737C156.566 371.356 156.807 370.339 156.445 369.576C156.083 368.814 155.119 368.559 154.395 368.941L126.174 386.102V317.458L155.842 299.407C156.566 299.026 156.807 298.009 156.445 297.246C156.083 296.483 155.119 296.229 154.395 296.61L126.174 313.771V245.127L155.842 227.076C156.566 226.695 156.807 225.678 156.445 224.915C156.083 224.153 155.119 223.898 154.395 224.28L126.174 241.441V172.797L155.842 154.746C156.566 154.365 156.807 153.348 156.445 152.585C156.083 151.822 155.119 151.568 154.395 151.949L126.174 169.11V129.449H126.294Z" fill="#2AC0A8"/>
<path fill-rule="evenodd" clip-rule="evenodd" d="M211.199 173.813C220.968 173.813 228.928 182.203 228.928 192.5V268.898V272.585C230.013 302.458 259.682 303.983 259.682 357.627C259.682 422.457 259.682 403.517 259.682 468.347C259.682 481.568 249.431 492.373 236.888 492.373H185.752C173.209 492.373 162.958 481.568 162.958 468.347C162.958 373.008 162.958 361.568 162.958 266.229C162.958 238.008 169.109 236.102 181.651 228.474C192.747 221.737 193.591 209.915 193.712 207.119V206.483V192.373C193.471 182.203 201.43 173.813 211.199 173.813Z" fill="#035450"/>
<path fill-rule="evenodd" clip-rule="evenodd" d="M209.028 230.127C209.028 228.856 209.993 227.839 211.199 227.839C212.405 227.839 213.37 228.856 213.37 230.127V281.864L223.501 275.763C224.104 275.381 224.948 275.635 225.31 276.271C225.672 276.907 225.43 277.796 224.827 278.178L213.491 285.169V359.28L243.4 341.102C244.003 340.72 244.848 340.974 245.209 341.61C245.571 342.246 245.33 343.135 244.727 343.517L213.491 362.585V433.644L243.4 415.466C244.003 415.085 244.848 415.339 245.209 415.974C245.571 416.61 245.33 417.5 244.727 417.881L213.491 436.949V518.559C213.491 519.83 212.526 520.847 211.32 520.847C210.114 520.847 209.149 519.83 209.149 518.559V455.763L183.46 439.746C182.857 439.364 182.616 438.602 182.978 437.839C183.34 437.203 184.063 436.949 184.787 437.33L209.149 452.203V392.839L183.46 377.203C182.857 376.822 182.616 376.059 182.978 375.296C183.34 374.661 184.063 374.407 184.787 374.788L209.149 389.661V330.296L183.46 314.661C182.857 314.28 182.616 313.517 182.978 312.754C183.34 312.119 184.063 311.864 184.787 312.246L209.149 327.118V267.754L183.46 252.119C182.857 251.737 182.616 250.974 182.978 250.212C183.34 249.576 184.063 249.322 184.787 249.703L209.149 264.576V230.127H209.028Z" fill="#034946"/>
<path d="M186.863 400.32C190.867 393.242 184.193 371.903 176.219 374.557C171.872 376.008 179.675 390.906 179.675 390.906" fill="#F87A26"/>
<path d="M148.942 410.158C142.302 403.682 138.88 394.764 140.488 391.968C141.07 390.977 142.165 390.128 144.561 390.552C142.508 387.615 139.222 382.13 141.07 379.37C143.398 375.901 148.326 378.449 148.326 378.449C148.326 378.449 146.033 372.787 149.695 370.699C154.863 367.727 162.152 375.194 162.152 375.194C161.571 368.045 169.408 370.31 177.245 378.449C179.059 380.502 187.205 389.031 185.665 402.443L156.232 416.492" fill="#F87A26"/>
<path d="M156.061 385.422C154.623 386.519 159.688 393.101 161.194 392.146C162.94 391.049 157.601 384.219 156.061 385.422Z" fill="#FACE24"/>
<path d="M156.54 388.039C155.821 386.872 155.581 385.775 156.061 385.385C156.54 385.031 157.327 385.385 158.183 386.128C159.004 388.252 157.019 388.818 156.54 388.039Z" fill="#FCEFC0"/>
<path d="M148.531 383.828C147.162 384.996 152.467 391.331 153.939 390.305C155.65 389.137 150.037 382.554 148.531 383.828Z" fill="#FACE24"/>
<path d="M150.858 386.589C150.687 387.155 150.379 387.474 149.934 387.615C148.702 386.093 147.881 384.359 148.531 383.829C148.976 383.439 149.798 383.793 150.687 384.466C150.961 385.209 151.064 385.916 150.858 386.589Z" fill="#FCEFC0"/>
<path d="M152.433 374.698C150.653 375.937 154.589 381.988 156.505 380.891C158.627 379.688 154.349 373.353 152.433 374.698Z" fill="#FACE24"/>
<path d="M154.931 378.273C154.692 378.945 154.247 379.264 153.733 379.37C152.433 377.388 151.611 375.265 152.433 374.699C153.015 374.309 153.973 374.805 154.965 375.69C155.205 376.574 155.239 377.459 154.931 378.273Z" fill="#FCEFC0"/>
<path d="M150.482 393.065C149.216 394.233 152.878 398.515 154.247 397.489C155.821 396.321 151.851 391.826 150.482 393.065Z" fill="#FACE24"/>
<path d="M152.809 395.613C152.672 396.144 152.399 396.462 151.988 396.604C150.79 395.188 149.934 393.631 150.516 393.101C150.927 392.711 151.714 392.994 152.604 393.631C152.843 394.268 152.946 394.976 152.809 395.613Z" fill="#FCEFC0"/>
<path d="M160.989 378.591C158.867 379.936 164.48 387.827 166.704 386.695C169.237 385.385 163.248 377.14 160.989 378.591Z" fill="#FACE24"/>
<path d="M161.468 382.378C160.578 380.608 160.236 379.087 160.955 378.591C161.639 378.166 162.769 378.803 163.966 379.936C165.13 381.741 161.776 382.944 161.468 382.378Z" fill="#FCEFC0"/>
<path d="M147.539 404.283C150.893 403.222 155.102 408.672 155.102 408.672C155.102 408.672 157.943 405.239 163.316 410.441L179.812 399.895C179.812 399.895 174.781 386.872 177.519 385.81C180.223 384.749 186.589 394.375 188.642 403.293C190.696 412.21 188.06 418.651 181.558 423.146C172.009 429.763 158.73 423.853 151.338 415.82C146.854 411.007 144.185 405.345 147.539 404.283Z" fill="#F87A26"/>
<path d="M146.136 407.327C148.292 410.441 151.475 411.892 152.707 411.007C153.939 410.122 153.22 406.937 151.338 405.203C153.425 406.548 155.102 408.707 155.102 408.707C155.102 408.707 156.711 406.76 159.825 408.034C164.446 412.918 161.605 417.837 156.608 411.609C156.608 411.609 158.251 414.829 155.65 415.395C153.049 415.961 149.729 414.086 147.06 409.91C146.581 408.955 146.273 408.07 146.136 407.327Z" fill="#FF9E12"/>
<path d="M147.539 404.283C148.771 403.894 150.106 404.389 151.338 405.168C153.22 406.937 153.939 410.122 152.707 410.972C151.475 411.856 148.258 410.405 146.136 407.291C145.828 405.84 146.238 404.708 147.539 404.283Z" fill="#FEAD14"/>
<path d="M177.998 394.516C177.725 393.525 177.451 392.535 177.211 391.544C179.402 393.985 181.763 392.995 181.421 388.253C181.9 388.819 182.379 389.456 182.893 390.199C188.676 399.789 182.858 402.054 177.998 394.516Z" fill="#FF9E12"/>
<path d="M177.519 385.811C178.478 385.457 179.915 386.412 181.421 388.217C181.763 392.959 179.436 393.986 177.211 391.508C176.595 388.748 176.39 386.271 177.519 385.811Z" fill="#FEAD14"/>
<path d="M169.237 403.292C167.183 397.559 166.875 392.676 169.032 391.932C170.709 391.366 173.618 394.339 176.458 398.727C179.778 407.999 174.507 411.467 169.237 403.292Z" fill="#FF9E12"/>
<path d="M158.148 397.807C159.791 396.426 162.187 397.7 164.446 399.682V399.718C171.427 408.494 165.643 413.165 161.092 407.22C158.285 402.726 156.814 398.904 158.148 397.807Z" fill="#FF9E12"/>
<path d="M169.066 391.968C169.922 391.685 171.085 392.287 172.42 393.561C173.31 398.551 171.12 400.922 168.039 399.046C167.218 395.295 167.458 392.499 169.066 391.968Z" fill="#FEAD14"/>
<path d="M158.148 397.807C159.175 396.922 160.544 397.134 161.947 397.877C164.48 402.796 162.461 405.663 159.62 404.672C157.806 401.346 157.088 398.691 158.148 397.807Z" fill="#FEAD14"/>
<path d="M141.071 379.37C141.618 378.556 142.268 378.096 142.987 377.812C146.615 378.662 148.429 387.191 141.755 385.81C140.626 383.439 140.01 380.962 141.071 379.37Z" fill="#FF9E12"/>
<path d="M166.191 371.018C168.381 374.875 164.206 376.928 162.118 375.194C161.844 371.761 163.521 370.487 166.191 371.018Z" fill="#FF9E12"/>
<path d="M140.489 391.968C140.831 391.331 141.413 390.765 142.371 390.552C145.862 394.091 145.177 398.939 141.276 398.55C141.241 398.55 141.207 398.55 141.139 398.515C140.044 395.648 139.77 393.206 140.489 391.968Z" fill="#FF9E12"/>
<path d="M176.219 374.557C177.485 374.132 178.717 374.309 179.881 374.946C186.11 381.033 182.242 391.331 175.329 380.007C174.644 377.317 174.644 375.052 176.219 374.557Z" fill="#FF9E12"/>
<path d="M176.219 374.558C177.348 374.204 178.409 374.274 179.47 374.77C180.976 379.052 178.922 382.909 175.192 379.477C174.644 376.999 174.747 375.018 176.219 374.558Z" fill="#FEAD14"/>
<ellipse cx="132.515" cy="71.6667" rx="20.5149" ry="21.6667" fill="url(#paint0_linear)"/>
<ellipse cx="160.131" cy="90.8332" rx="8.6794" ry="9.16667" fill="url(#paint1_linear)"/>
<ellipse cx="194.849" cy="79.1667" rx="8.6794" ry="9.16667" fill="url(#paint2_linear)"/>
<ellipse cx="155.397" cy="60.8333" rx="24.4601" ry="25.8333" fill="url(#paint3_linear)"/>
<ellipse cx="175.123" cy="81.6668" rx="17.3588" ry="18.3333" fill="url(#paint4_linear)"/>
<ellipse cx="112" cy="73.3333" rx="12.6246" ry="13.3333" fill="url(#paint5_linear)"/>
<ellipse cx="255.605" cy="126.667" rx="20.5149" ry="21.6667" fill="url(#paint6_linear)"/>
<ellipse cx="283.221" cy="145.833" rx="8.6794" ry="9.16667" fill="url(#paint7_linear)"/>
<ellipse cx="317.939" cy="134.167" rx="8.6794" ry="9.16667" fill="url(#paint8_linear)"/>
<ellipse cx="278.487" cy="115.833" rx="24.4601" ry="25.8333" fill="url(#paint9_linear)"/>
<ellipse cx="298.213" cy="136.667" rx="17.3588" ry="18.3333" fill="url(#paint10_linear)"/>
<ellipse cx="235.09" cy="128.333" rx="12.6246" ry="13.3333" fill="url(#paint11_linear)"/>
<path fill-rule="evenodd" clip-rule="evenodd" d="M231.099 349.11C260.164 349.11 283.682 373.898 283.682 404.534C283.682 405.805 283.682 407.076 283.561 408.348C302.014 411.271 316.848 425.509 321.552 444.195C326.617 444.704 331.2 446.737 335.059 449.788C341.089 442.924 349.652 438.729 359.18 438.729C377.391 438.729 392.105 454.237 392.105 473.432C392.105 478.517 390.072 486.475 388.263 490.797H158.978C151.018 477.322 146.435 458.432 146.435 441.526C146.435 435.551 145.35 429.831 143.541 424.619C145.35 424.365 147.279 424.237 149.209 424.237C151.139 424.237 153.068 424.365 154.998 424.619C158.978 414.576 167.903 407.076 178.516 405.678C178.516 405.297 178.516 404.915 178.516 404.534C178.516 374.026 202.033 349.11 231.099 349.11Z" fill="#00AA8A"/>
<path fill-rule="evenodd" clip-rule="evenodd" d="M361.632 341.375C330.352 341.375 305.064 368.019 305.064 400.976C305.064 402.365 305.064 403.754 305.184 405.017C285.409 408.174 269.469 423.579 264.316 443.53C258.922 444.035 253.889 446.182 249.814 449.465C243.342 442.141 234.114 437.469 223.807 437.469C204.272 437.469 188.452 454.137 188.452 474.72C188.452 480.276 189.53 485.453 191.568 490.125H497.66C499.098 485.2 499.817 480.023 499.817 474.72C499.817 445.424 477.286 421.811 449.601 421.811C447.564 421.811 445.406 421.937 443.489 422.19C439.174 411.33 429.586 403.375 418.201 401.86C418.201 401.481 418.201 401.102 418.201 400.597C418.321 368.019 392.913 341.375 361.632 341.375Z" fill="#0ABE9C"/>
<path fill-rule="evenodd" clip-rule="evenodd" d="M299.673 101.064C299.673 101.697 299.191 102.204 298.588 102.204C297.985 102.204 297.503 101.697 297.503 101.064V85.6141C297.503 77.8891 300.518 70.7972 305.342 65.7316C310.166 60.666 316.919 57.5 324.276 57.5C331.632 57.5 338.386 60.666 343.21 65.7316C348.034 70.7972 351.049 77.8891 351.049 85.6141V113.855C351.049 114.488 350.566 114.995 349.963 114.995C349.36 114.995 348.878 114.488 348.878 113.855V85.6141C348.878 78.5223 346.104 72.0636 341.642 67.3779C337.18 62.6923 331.029 59.7795 324.276 59.7795C317.522 59.7795 311.372 62.6923 306.909 67.3779C302.447 72.0636 299.673 78.5223 299.673 85.6141V101.064V101.064Z" fill="#641C2F"/>
<path fill-rule="evenodd" clip-rule="evenodd" d="M360.335 121.58C364.436 124.873 366.968 130.065 366.968 135.764C366.968 145.642 359.37 153.747 349.843 153.747C340.436 153.747 332.718 145.768 332.718 135.764C332.718 129.938 335.371 124.873 339.351 121.58H360.335Z" fill="#FF6B00"/>
<path d="M344.054 144.502C349.516 144.502 353.943 139.853 353.943 134.117C353.943 128.382 349.516 123.733 344.054 123.733C338.592 123.733 334.165 128.382 334.165 134.117C334.165 139.853 338.592 144.502 344.054 144.502Z" fill="#FF8900"/>
<path fill-rule="evenodd" clip-rule="evenodd" d="M359.491 119.301V118.287C359.491 112.715 355.149 108.156 349.843 108.156C344.537 108.156 340.195 112.715 340.195 118.287V119.301H359.491Z" fill="#641C2F"/>
<path fill-rule="evenodd" clip-rule="evenodd" d="M340.315 121.707H359.611C360.576 121.707 361.3 120.947 361.3 119.934C361.3 118.92 360.576 118.161 359.611 118.161H340.315C339.351 118.161 338.627 118.92 338.627 119.934C338.627 120.947 339.351 121.707 340.315 121.707Z" fill="#540D1C"/>
<path fill-rule="evenodd" clip-rule="evenodd" d="M298.588 385.625C297.382 385.625 296.297 384.612 296.297 383.219V90.5531C296.297 89.2867 297.262 88.147 298.588 88.147C299.794 88.147 300.88 89.1601 300.88 90.5531V383.219C300.88 384.612 299.794 385.625 298.588 385.625Z" fill="#210303"/>
<path fill-rule="evenodd" clip-rule="evenodd" d="M342.366 138.676C345.26 138.676 347.552 136.27 347.552 133.231C347.552 130.191 345.26 127.785 342.366 127.785C339.471 127.785 337.18 130.191 337.18 133.231C337.18 136.27 339.592 138.676 342.366 138.676Z" fill="#FFFDF8"/>
<path fill-rule="evenodd" clip-rule="evenodd" d="M338.145 122.593H361.662C362.385 122.593 362.988 121.96 362.988 121.2C362.988 120.44 362.385 119.807 361.662 119.807H338.145C337.421 119.807 336.818 120.44 336.818 121.2C336.818 121.96 337.421 122.593 338.145 122.593Z" fill="#641C2F"/>
<path fill-rule="evenodd" clip-rule="evenodd" d="M299.674 101.064C299.674 101.697 299.191 102.204 298.588 102.204C297.985 102.204 297.503 101.697 297.503 101.064V85.6141C297.503 78.5223 294.729 72.0636 290.267 67.3779C285.805 62.6923 279.654 59.7795 272.9 59.7795C266.147 59.7795 259.996 62.6923 255.534 67.3779C251.072 72.0636 248.298 78.5223 248.298 85.6141V113.855C248.298 114.488 247.816 114.995 247.213 114.995C246.61 114.995 246.127 114.488 246.127 113.855V85.6141C246.127 77.8891 249.142 70.7972 253.966 65.7316C258.79 60.666 265.544 57.5 272.9 57.5C280.257 57.5 287.011 60.666 291.835 65.7316C296.659 70.7972 299.674 77.8891 299.674 85.6141V101.064V101.064Z" fill="#641C2F"/>
<path fill-rule="evenodd" clip-rule="evenodd" d="M257.584 121.58C261.685 124.873 264.217 130.065 264.217 135.764C264.217 145.642 256.619 153.747 247.092 153.747C237.685 153.747 229.967 145.768 229.967 135.764C229.967 129.938 232.62 124.873 236.6 121.58H257.584Z" fill="#FF6B00"/>
<path fill-rule="evenodd" clip-rule="evenodd" d="M241.304 144.502C246.731 144.502 251.193 139.816 251.193 134.117C251.193 128.419 246.731 123.733 241.304 123.733C235.877 123.733 231.415 128.419 231.415 134.117C231.415 139.816 235.877 144.502 241.304 144.502Z" fill="#FF8900"/>
<path fill-rule="evenodd" clip-rule="evenodd" d="M237.565 119.301V118.287C237.565 112.715 241.906 108.156 247.213 108.156C252.519 108.156 256.861 112.715 256.861 118.287V119.301H237.565Z" fill="#641C2F"/>
<path fill-rule="evenodd" clip-rule="evenodd" d="M256.861 121.707H237.565C236.6 121.707 235.877 120.947 235.877 119.934C235.877 118.92 236.6 118.161 237.565 118.161H256.861C257.826 118.161 258.549 118.92 258.549 119.934C258.549 120.947 257.705 121.707 256.861 121.707Z" fill="#540D1C"/>
<path fill-rule="evenodd" clip-rule="evenodd" d="M239.495 138.676C242.389 138.676 244.68 136.27 244.68 133.231C244.68 130.191 242.389 127.785 239.495 127.785C236.6 127.785 234.309 130.191 234.309 133.231C234.429 136.27 236.721 138.676 239.495 138.676Z" fill="#FFFDF8"/>
<path fill-rule="evenodd" clip-rule="evenodd" d="M258.912 122.593H235.395C234.671 122.593 234.068 121.96 234.068 121.2C234.068 120.44 234.671 119.807 235.395 119.807H258.912C259.635 119.807 260.238 120.44 260.238 121.2C260.238 121.96 259.635 122.593 258.912 122.593Z" fill="#641C2F"/>
<path fill-rule="evenodd" clip-rule="evenodd" d="M294.126 86.6274H303.05C303.774 86.6274 304.498 87.2606 304.498 88.1471V115.881C304.498 116.641 303.895 117.401 303.05 117.401H294.126C293.402 117.401 292.679 116.768 292.679 115.881V88.0205C292.679 87.2606 293.282 86.6274 294.126 86.6274Z" fill="#210303"/>
<path fill-rule="evenodd" clip-rule="evenodd" d="M292.558 85.6143H304.497C305.583 85.6143 306.427 86.5007 306.427 87.6405C306.427 88.7803 305.583 89.6667 304.497 89.6667H292.558C291.473 89.6667 290.629 88.7803 290.629 87.6405C290.629 86.5007 291.473 85.6143 292.558 85.6143Z" fill="#540D1C"/>
<path fill-rule="evenodd" clip-rule="evenodd" d="M292.558 114.742H304.497C305.583 114.742 306.427 115.628 306.427 116.768C306.427 117.908 305.583 118.794 304.497 118.794H292.558C291.473 118.794 290.629 117.908 290.629 116.768C290.629 115.628 291.473 114.742 292.558 114.742Z" fill="#540D1C"/>
<path fill-rule="evenodd" clip-rule="evenodd" d="M396.836 439.875C396.433 439.875 396.029 439.438 396.029 439C396.029 438.563 396.433 438.125 396.836 438.125H420.761C421.165 438.125 421.569 438.563 421.569 439C421.569 439.438 421.165 439.875 420.761 439.875H396.836ZM425.304 439.875C424.9 439.875 424.497 439.438 424.497 439C424.497 438.563 424.9 438.125 425.304 438.125H428.434C428.837 438.125 429.241 438.563 429.241 439C429.241 439.438 428.837 439.875 428.434 439.875H425.304Z" fill="#FDFDFF"/>
<path fill-rule="evenodd" clip-rule="evenodd" d="M278.837 84.75C278.837 84.25 279.311 83.75 279.786 83.75C280.26 83.75 280.734 84.25 280.734 84.75V87.125H282.988C283.463 87.125 283.937 87.625 283.937 88.125C283.937 88.625 283.463 89.125 282.988 89.125H280.734V91.5C280.734 92 280.26 92.5 279.786 92.5C279.311 92.5 278.837 92 278.837 91.5V89.125H276.583C276.108 89.125 275.634 88.625 275.634 88.125C275.634 87.625 276.108 87.125 276.583 87.125H278.837V84.75Z" fill="#FDFDFF"/>
<path fill-rule="evenodd" clip-rule="evenodd" d="M498.869 202.875C498.869 202.375 499.343 201.875 499.818 201.875C500.292 201.875 500.766 202.375 500.766 202.875V205.25H503.02C503.495 205.25 503.969 205.75 503.969 206.25C503.969 206.75 503.495 207.25 503.02 207.25H500.766V209.625C500.766 210.125 500.292 210.625 499.818 210.625C499.343 210.625 498.869 210.125 498.869 209.625V207.25H496.615C496.14 207.25 495.666 206.75 495.666 206.25C495.666 205.75 496.14 205.25 496.615 205.25H498.869V202.875Z" fill="#FDFDFF"/>
<path fill-rule="evenodd" clip-rule="evenodd" d="M71.2594 128.5C71.2594 128 71.7338 127.5 72.2083 127.5C72.6827 127.5 73.1572 128 73.1572 128.5V130.875H75.4109C75.8854 130.875 76.3598 131.375 76.3598 131.875C76.3598 132.375 75.8854 132.875 75.4109 132.875H73.1572V135.25C73.1572 135.75 72.6827 136.25 72.2083 136.25C71.7338 136.25 71.2594 135.75 71.2594 135.25V132.875H69.0057C68.5312 132.875 68.0567 132.375 68.0567 131.875C68.0567 131.375 68.5312 130.875 69.0057 130.875H71.2594V128.5Z" fill="#FDFDFF"/>
<path fill-rule="evenodd" clip-rule="evenodd" d="M312.048 23.5C312.048 23 312.523 22.5 312.997 22.5C313.471 22.5 313.946 23 313.946 23.5V25.875H316.199C316.674 25.875 317.148 26.375 317.148 26.875C317.148 27.375 316.674 27.875 316.199 27.875H313.946V30.25C313.946 30.75 313.471 31.25 312.997 31.25C312.523 31.25 312.048 30.75 312.048 30.25V27.875H309.795C309.321 27.875 308.846 27.375 308.846 26.875C308.846 26.375 309.321 25.875 309.795 25.875H312.048V23.5Z" fill="#FDFDFF"/>
<path fill-rule="evenodd" clip-rule="evenodd" d="M202.882 99.875C202.477 99.875 202.072 99.4375 202.072 99C202.072 98.5625 202.477 98.125 202.882 98.125H226.88C227.285 98.125 227.69 98.5625 227.69 99C227.69 99.4375 227.285 99.875 226.88 99.875H202.882ZM231.335 99.875C230.93 99.875 230.525 99.4375 230.525 99C230.525 98.5625 230.93 98.125 231.335 98.125H234.474C234.879 98.125 235.284 98.5625 235.284 99C235.284 99.4375 234.879 99.875 234.474 99.875H231.335Z" fill="#FDFDFF"/>
<path fill-rule="evenodd" clip-rule="evenodd" d="M317.96 208C317.555 208 317.149 207.562 317.149 207.125C317.149 206.688 317.555 206.25 317.96 206.25H341.957C342.363 206.25 342.768 206.688 342.768 207.125C342.768 207.562 342.363 208 341.957 208H317.96ZM346.413 208C346.008 208 345.603 207.562 345.603 207.125C345.603 206.688 346.008 206.25 346.413 206.25H349.552C349.957 206.25 350.362 206.688 350.362 207.125C350.362 207.562 349.957 208 349.552 208H346.413Z" fill="#FDFDFF"/>
<path fill-rule="evenodd" clip-rule="evenodd" d="M532.885 244.602C533.126 242.313 530.955 240.407 528.061 240.152C525.166 240.025 522.634 241.678 522.392 243.966L508.282 375.534C508.041 377.822 510.212 379.729 513.106 379.983C516 380.11 518.533 378.457 518.774 376.169L532.885 244.602Z" fill="#540D1C"/>
<path fill-rule="evenodd" clip-rule="evenodd" d="M244.039 244.602C244.281 242.313 242.11 240.407 239.215 240.152C236.321 240.025 233.788 241.678 233.547 243.966L219.436 375.534C219.195 377.822 221.366 379.729 224.26 379.983C227.155 380.11 229.688 378.457 229.929 376.169L244.039 244.602Z" fill="#540D1C"/>
<path fill-rule="evenodd" clip-rule="evenodd" d="M535.176 248.161H220.763C217.024 248.161 213.647 251.466 213.406 255.407C213.165 259.348 216.059 262.653 219.798 262.653H534.212C537.95 262.653 541.327 259.348 541.568 255.407C541.81 251.466 538.915 248.161 535.176 248.161Z" fill="#83463B"/>
<path fill-rule="evenodd" clip-rule="evenodd" d="M541.086 248.161H534.091C530.352 248.161 526.975 251.466 526.734 255.407C526.493 259.348 529.387 262.653 533.126 262.653H540.121C543.86 262.653 547.237 259.348 547.478 255.407C547.719 251.466 544.825 248.161 541.086 248.161Z" fill="#723632"/>
<path fill-rule="evenodd" clip-rule="evenodd" d="M533.367 277.144H218.954C215.215 277.144 211.838 280.449 211.597 284.39C211.356 288.33 214.25 291.636 217.989 291.636H532.403C536.141 291.636 539.518 288.33 539.759 284.39C540.001 280.449 537.106 277.144 533.367 277.144Z" fill="#83463B"/>
<path fill-rule="evenodd" clip-rule="evenodd" d="M539.277 277.144H532.282C528.543 277.144 525.166 280.449 524.925 284.39C524.684 288.33 527.579 291.636 531.317 291.636H538.312C542.051 291.636 545.428 288.33 545.669 284.39C546.031 280.449 543.136 277.144 539.277 277.144Z" fill="#723632"/>
<path fill-rule="evenodd" clip-rule="evenodd" d="M531.558 306.127H217.145C213.406 306.127 210.029 309.432 209.788 313.373C209.547 317.313 212.441 320.618 216.18 320.618H530.594C534.332 320.618 537.709 317.313 537.95 313.373C538.192 309.432 535.297 306.127 531.558 306.127Z" fill="#83463B"/>
<path fill-rule="evenodd" clip-rule="evenodd" d="M537.588 306.127H530.593C526.855 306.127 523.478 309.432 523.237 313.373C522.995 317.313 525.89 320.618 529.629 320.618H536.624C540.362 320.618 543.739 317.313 543.98 313.373C544.222 309.432 541.327 306.127 537.588 306.127Z" fill="#723632"/>
<path fill-rule="evenodd" clip-rule="evenodd" d="M531.679 375.279L557.368 490.067H550.373L526.131 397.779C526.131 397.779 524.563 384.05 508.403 384.05C497.669 384.05 486.814 384.05 476.081 384.05C459.92 384.05 458.352 397.779 458.352 397.779L434.111 490.067H427.116L452.804 375.279C456.061 366.762 528.423 366.762 531.679 375.279Z" fill="#540D1C"/>
<path fill-rule="evenodd" clip-rule="evenodd" d="M267.316 375.28L293.004 490.068H286.009L261.768 397.78C261.768 397.78 260.2 384.051 244.039 384.051C233.306 384.051 222.451 384.051 211.718 384.051C195.557 384.051 193.989 397.78 193.989 397.78L169.748 490.068H162.753L188.441 375.28C191.697 366.763 264.06 366.763 267.316 375.28Z" fill="#540D1C"/>
<path fill-rule="evenodd" clip-rule="evenodd" d="M530.955 364.602H188.682C185.908 364.602 183.617 367.017 183.617 369.941C183.617 372.864 185.908 375.28 188.682 375.28H530.955C533.729 375.28 536.02 372.864 536.02 369.941C536.02 367.017 533.729 364.602 530.955 364.602Z" fill="#210303"/>
<path fill-rule="evenodd" clip-rule="evenodd" d="M471.377 353.288H183.617C179.275 353.288 175.657 357.102 175.657 361.678C175.657 366.254 179.275 370.068 183.617 370.068H471.377C475.719 370.068 479.337 366.254 479.337 361.678C479.217 356.974 475.719 353.288 471.377 353.288Z" fill="#83463B"/>
<path fill-rule="evenodd" clip-rule="evenodd" d="M534.694 353.288H455.819C451.477 353.288 447.859 357.102 447.859 361.678C447.859 366.254 451.477 370.068 455.819 370.068H534.694C539.036 370.068 542.654 366.254 542.654 361.678C542.654 356.974 539.036 353.288 534.694 353.288Z" fill="#723632"/>
<path d="M345.813 332.785C353.836 348.104 363.915 353.999 363.915 353.999H405.856C405.889 354.035 339.712 321.105 345.813 332.785Z" fill="#210303"/>
<path d="M458.049 200.997C462.071 215.547 475.013 216.908 480.31 212.889C473.221 211.107 472.89 203.999 474.136 199.188C475.799 192.933 480.376 185.852 478.134 176.832C474.207 160.806 457.52 159.308 453.605 151.734C456.763 152.478 460.55 153.22 465.807 157.464C463.567 149.817 458.7 147.438 452.042 142.214C445.383 136.99 444.604 130.992 439.326 121.669C434.047 112.346 420.7 112.7 416.359 122.452C416.359 122.452 425.113 129.802 424.081 143.341C422.991 156.9 425.937 160.738 433.683 168.078C443.287 177.14 439.442 189.822 439.442 189.822" fill="#9E5561"/>
<path d="M458.049 200.997C462.071 215.547 475.013 216.908 480.31 212.889C473.221 211.107 472.89 203.999 474.136 199.188C475.799 192.933 480.376 185.852 478.134 176.832C474.207 160.806 457.52 159.308 453.605 151.734C456.763 152.478 460.55 153.22 465.807 157.464C463.567 149.817 458.7 147.438 452.042 142.214C445.383 136.99 444.604 130.992 439.326 121.669C434.047 112.346 420.7 112.7 416.359 122.452C416.359 122.452 425.113 129.802 424.081 143.341C422.991 156.9 425.937 160.738 433.683 168.078C443.287 177.14 439.442 189.822 439.442 189.822" stroke="#9E5561" stroke-miterlimit="10"/>
<path d="M424.157 143.385C423.067 156.944 426.013 160.782 433.759 168.122C438.44 172.555 439.92 177.91 440.211 182.144C444.118 179.685 446.395 174.739 442.625 165.192C438.484 154.531 443.269 147.519 440.121 138.179C437.31 129.828 428.662 126.498 421.363 129.185C423.196 132.635 424.635 137.384 424.157 143.385Z" fill="#893A45"/>
<path d="M423.992 129.266C425.044 127.814 423.576 124.623 420.713 122.138C417.85 119.653 414.676 118.816 413.623 120.268C412.571 121.72 414.039 124.911 416.902 127.395C419.765 129.88 422.939 130.717 423.992 129.266Z" fill="#FACE24"/>
<path d="M421.129 170.164C419.597 164.621 430.736 154.685 425.46 135.599C422.465 124.765 411.522 117.451 399.144 121.541C392.409 123.766 389.197 128.058 389.197 128.058C389.197 128.058 385.385 126.087 378.592 128.331C372.317 130.405 368.371 135.902 368.745 141.346C369.101 146.728 370.625 148.149 371.949 150.667C372.782 152.317 370.952 156.152 370.966 160.066C370.988 165.146 375.258 171.503 384.22 167.785L390.309 164.811" fill="#9E5561"/>
<path d="M421.129 170.164C419.597 164.621 430.736 154.685 425.46 135.599C422.465 124.765 411.522 117.451 399.144 121.541C392.409 123.766 389.197 128.058 389.197 128.058C389.197 128.058 385.385 126.087 378.592 128.331C372.317 130.405 368.371 135.902 368.745 141.346C369.101 146.728 370.625 148.149 371.949 150.667C372.782 152.317 370.952 156.152 370.966 160.066C370.988 165.146 375.258 171.503 384.22 167.785L390.309 164.811" stroke="#9E5561" stroke-miterlimit="10"/>
<path d="M377.325 153.978C369.868 158.367 372.274 171.389 381.879 172.271C391.484 173.153 385.544 153.256 385.544 153.256L377.325 153.978Z" fill="#893A45"/>
<path d="M392.179 146.802C400.425 130.948 417.671 132.88 413.297 152.06C408.924 171.24 391.892 155.764 391.892 155.764L392.179 146.802Z" fill="#893A45"/>
<path d="M403.474 154.481C401.736 152.512 399.5 146.239 398.827 141.305C399.794 146.623 407.29 155.557 409.578 156.107C411.866 156.657 410.029 151.146 413.368 150.043C416.592 148.978 418.047 150.834 418.9 153.921C419.684 156.755 417.817 162.047 412.899 163.121C412.899 163.121 416.173 169.739 421.146 170.227C421.146 170.227 424.969 180.649 428.818 183.434C428.818 183.434 431.62 190.619 427.977 200.622C423.841 212.025 413.932 211.862 413.699 207.608C413.284 202.246 401.791 185.214 401.015 182.859C399.692 183.983 398.127 184.913 396.267 185.458C387.079 188.357 382.486 170.833 377.325 153.978C377.325 153.978 389.126 150.079 388.943 133.504C391.722 146.059 400.846 153.837 403.474 154.481Z" fill="#F6BFB3"/>
<path d="M387.484 171.863C390.247 170.95 387.084 168.145 385.924 169.629C384.763 171.112 386.044 172.338 387.484 171.863Z" fill="#F0A895"/>
<path d="M392.896 178.942C393.5 178.742 393.842 178.045 393.659 177.384C393.477 176.723 392.839 176.349 392.235 176.548C391.631 176.748 391.289 177.445 391.472 178.106C391.654 178.767 392.292 179.141 392.896 178.942Z" fill="#F0A895"/>
<path d="M392.336 161.46C392.83 161.246 393.012 160.47 392.742 159.727C392.472 158.983 391.853 158.554 391.359 158.769C390.865 158.983 390.684 159.759 390.953 160.502C391.223 161.246 391.842 161.675 392.336 161.46Z" fill="#210303"/>
<path d="M388.483 153.66C388.533 153.162 388.764 153.086 388.959 152.884C389.172 152.745 389.443 152.587 389.673 152.511C390.173 152.276 390.651 152.187 391.204 152.142C391.757 152.097 392.27 152.134 392.76 152.315C393.025 152.365 393.25 152.497 393.493 152.692C393.718 152.824 394.017 153 393.967 153.498L393.926 153.58C393.483 153.795 393.374 153.625 393.126 153.638C392.918 153.569 392.671 153.582 392.48 153.576C392.025 153.521 391.645 153.509 391.207 153.516C390.769 153.523 390.349 153.593 389.871 153.682C389.641 153.758 389.451 153.753 389.22 153.829C388.973 153.842 388.835 154.025 388.442 153.742L388.483 153.66Z" fill="#893A45"/>
<path d="M382.943 164.083C383.437 163.869 383.619 163.093 383.349 162.35C383.079 161.606 382.46 161.178 381.966 161.392C381.472 161.606 381.29 162.382 381.56 163.125C381.83 163.869 382.449 164.298 382.943 164.083Z" fill="#210303"/>
<path d="M388.337 174.949C388.549 174.81 388.59 174.728 388.762 174.671C388.877 174.633 388.993 174.595 389.125 174.62C389.355 174.544 389.586 174.468 389.816 174.392C390.277 174.239 390.795 174.068 391.238 173.853C391.681 173.638 392.124 173.423 392.567 173.208C392.78 173.069 393.01 172.992 393.206 172.79C393.419 172.651 393.557 172.468 394.012 172.524L394.087 172.568C394.226 173.072 393.973 173.293 393.778 173.495C393.6 173.76 393.404 173.962 393.151 174.183C392.703 174.606 392.144 174.86 391.644 175.094C391.143 175.328 390.55 175.455 390.014 175.563C389.709 175.596 389.461 175.609 389.139 175.578C389.006 175.553 388.816 175.547 388.683 175.522C388.516 175.371 388.366 175.283 388.337 174.949Z" fill="#F85314"/>
<path d="M376.3 159.816C376.173 159.583 376.195 159.438 376.161 159.312C376.183 159.167 376.281 159.066 376.304 158.921C376.424 158.675 376.545 158.429 376.74 158.227C377.056 157.779 377.465 157.437 377.89 157.159C378.316 156.881 378.742 156.603 379.202 156.451C379.433 156.375 379.663 156.299 379.911 156.286C380.158 156.272 380.429 156.114 380.723 156.498L380.741 156.561C380.557 157.034 380.367 157.028 380.212 157.148L379.613 157.484C379.245 157.743 378.86 157.939 378.491 158.198C378.123 158.457 377.813 158.697 377.462 159.019C377.307 159.139 377.169 159.322 376.956 159.461C376.876 159.626 376.813 159.853 376.3 159.816Z" fill="#893A45"/>
<path d="M405.207 176.662C404.146 178.731 402.768 181.248 400.939 182.815C401.31 183.93 403.981 188.134 406.75 192.925C413.015 183.087 406.71 173.69 405.207 176.662Z" fill="#F0A895"/>
<path d="M413.818 158.487C413.963 156.515 414.251 153.464 414.654 153.33C414.999 153.216 415.919 155.181 415.296 157.243C414.695 159.16 413.66 160.189 413.818 158.487Z" fill="#F0A895"/>
<path d="M378.037 451.296C379.131 452.679 379.264 454.207 378.734 455.845C378.734 455.845 378.734 455.845 378.734 455.881C377.739 458.901 374.423 462.322 370.578 465.706C370.08 466.142 369.649 466.543 369.284 466.906C369.185 467.016 369.086 467.088 368.986 467.197C368.92 467.27 368.82 467.343 368.754 467.416C365.173 471.054 366.533 471.855 360.101 479.205C352.773 487.574 347.701 487.72 346.275 486.956C345.048 486.301 347.535 481.861 350.254 476.876C350.386 476.622 350.519 476.403 350.651 476.149C351.016 475.494 351.381 474.802 351.746 474.147C354.962 468.144 354.133 465.305 353.37 456.391C352.74 449.113 343.059 415.783 343.059 415.783L357.117 413.127C357.117 413.127 361.36 439.653 366.002 443.764C368.489 445.948 371.274 445.984 373.694 447.585C373.86 447.694 374.026 447.803 374.191 447.949C375.551 448.895 376.943 449.914 378.037 451.296Z" fill="#F6BFB3"/>
<path d="M378.037 451.296C379.131 452.679 379.264 454.207 378.734 455.845C378.734 455.845 378.734 455.845 378.734 455.881C377.507 458.901 374.291 462.285 370.577 465.669C370.08 466.106 369.649 466.506 369.284 466.906C369.185 467.016 369.085 467.088 368.986 467.197C368.92 467.27 368.82 467.343 368.754 467.416C365.173 471.054 366.533 471.855 360.101 479.205C352.773 487.574 347.701 487.72 346.275 486.956C345.048 486.301 347.535 481.861 350.254 476.876C351.679 476.294 358.31 473.347 363.317 466.288C367.726 460.102 370.677 452.17 373.694 447.549C373.86 447.658 374.026 447.767 374.191 447.912C375.551 448.895 376.943 449.914 378.037 451.296Z" fill="#210303"/>
<path d="M264.716 441.654C263.854 446.42 257.654 445.62 250.758 443.764C243.861 441.908 245.486 444.128 235.639 442.927C225.792 441.727 222.841 437.724 222.51 436.087C222.244 434.667 227.085 434.158 232.323 433.503C232.987 433.43 233.65 433.321 234.28 433.248C240.148 432.448 244.458 428.263 249.829 424.843C254.902 421.605 262.461 408.396 262.461 408.396L275.955 409.561C275.955 409.561 268.893 421.35 266.141 426.48C264.517 429.501 264.616 433.503 264.815 436.56C264.915 438.27 265.014 439.98 264.716 441.654Z" fill="#F6BFB3"/>
<path d="M250.723 443.765C243.827 441.909 245.452 444.128 235.605 442.928C225.758 441.727 222.807 437.724 222.476 436.087C222.21 434.668 227.051 434.159 232.289 433.504L232.322 433.613C232.322 433.613 238.224 438.197 246.413 438.416C253.077 438.598 260.139 436.487 264.748 436.56C264.847 438.234 264.947 439.944 264.648 441.618C263.82 446.421 257.653 445.62 250.723 443.765Z" fill="#210303"/>
<path d="M316.404 347.012L329.003 384.236L345.447 432.849C345.447 432.849 349.923 433.322 354.2 431.975C358.146 430.738 362.655 427.463 362.655 427.463C362.655 427.463 358.079 375.248 349.558 345.302C347.37 337.624 344.917 331.402 342.231 327.873C329.003 310.735 316.404 347.012 316.404 347.012Z" fill="#210303"/>
<path d="M329.201 287.883C337.456 284.972 361.029 288.72 384.669 293.814L389.609 284.863L440.733 280.497C440.733 280.497 457.609 321.541 448.359 347.703C447 351.56 444.314 353.998 439.706 354.107C439.706 354.107 438.976 354.107 438.943 354.107C438.943 354.107 408.507 354.071 398.627 354.071C373.197 354.071 344.817 334.895 341.17 334.095C335.169 332.785 332.748 345.957 326.747 359.82C320.746 373.683 270.252 421.132 270.252 421.132C270.252 421.132 262.493 421.205 259.277 419.895C255.829 418.476 254.569 416.62 254.569 416.62C254.569 416.62 310.568 294.469 329.201 287.883Z" fill="#492C30"/>
<path d="M316.813 229.858C317.23 231.55 324.002 235.423 317.697 235.404C319.311 237.626 327.472 243.456 329.764 244.888C329.42 242.466 329.29 239.373 328.097 237.325C326.99 235.485 315.839 225.621 316.813 229.858Z" fill="#F6BFB3"/>
<rect width="3.12225" height="38.3284" rx="1.56112" transform="matrix(0.54 -0.849644 0.801665 0.586075 294.453 217.861)" fill="#492C30"/>
<path d="M330.134 244.876C336.231 254.092 329.816 244.696 336.409 254.225C325.788 250.952 328.603 252.833 325.023 247.121C321.528 241.618 316.347 241.486 312.418 237.183C309.678 234.205 308.244 230.808 306.991 226.381C306.705 225.398 305.587 222.548 307.775 224.569C309.969 226.661 309.75 229.574 311.721 232.194C311.255 228.339 312.33 218.982 313.738 221.298C315.079 223.621 313.285 230.087 314.54 231.406C315.303 227.789 316.315 220.029 317.662 222.423C319.009 224.817 316.735 229.597 316.811 232.046C317.918 231.646 320.735 229.269 322.35 228.529C324.158 227.698 323.302 229.446 322.268 230.705C320.444 232.911 318.817 233.508 317.861 234.109C319.901 238.312 323.814 236.187 326.716 237.92C328.418 238.978 328.982 243.184 330.134 244.876Z" fill="#F6BFB3"/>
<path fill-rule="evenodd" clip-rule="evenodd" d="M385.051 202.783C394.775 189.959 404.121 188.265 404.121 188.265L397.011 218.248C397.011 218.248 389.948 244.127 384.19 259.802C384.268 259.735 384.341 259.665 384.409 259.591C384.409 262.139 384.466 264.537 384.518 266.766C384.824 279.742 384.995 286.992 373.087 284.817C357.385 281.928 326.265 251.677 326.265 251.677C326.265 251.677 326.265 244.67 331.537 243.244C334.592 242.418 349.28 251.298 357.041 255.991C359.453 257.45 361.197 258.504 361.714 258.736C362.29 258.891 363.904 259.285 366.03 259.71C370.467 241.416 378.445 211.495 385.051 202.783Z" fill="url(#paint12_linear)"/>
<path d="M383.873 239.162C384.635 295.416 384.982 285.994 389.709 289.328C391.709 289.916 394.814 291.049 399.82 291.413C415.535 292.541 443.186 289.703 444.214 286.537C447.828 275.512 445.275 272.092 448.292 255.172C448.624 253.389 448.989 251.424 449.453 249.313C451.972 237.706 454.426 233.776 445.474 215.11C437.351 198.226 429.877 183.509 429.114 184.018C407.696 197.954 404.078 188.238 404.078 188.238C404.078 188.238 383.508 211.689 383.873 239.162Z" fill="white"/>
<path d="M329.002 384.235L345.446 432.848C345.446 432.848 349.922 433.321 354.199 431.975C358.145 430.738 362.654 427.463 362.654 427.463C362.654 427.463 358.078 375.248 349.558 345.302L329.002 384.235Z" fill="#492C30"/>
<path d="M399.854 291.413C415.57 292.541 443.221 289.703 444.249 286.537C447.862 275.512 445.31 272.091 448.327 255.172L440.767 231.739C440.767 231.739 442.027 257.828 434.998 264.705C428.003 271.582 406.286 277.95 402.871 283.699C401.247 286.428 400.153 289.193 399.854 291.413Z" fill="url(#paint13_linear)"/>
<path d="M417.858 280.424C417.858 280.424 402.341 276.64 399.854 278.132C397.368 279.66 391.234 285.154 390.472 287.046C389.709 288.975 396.042 285.591 398.097 284.972C399.423 284.572 402.938 285.918 404.695 286.573C412.022 289.266 416.498 287.883 416.498 287.883L417.858 280.424Z" fill="#F6BFB3"/>
<path d="M428.234 185.018C428.234 185.018 449.055 186.437 456.283 197.462C466.428 212.999 486.553 279.187 475.015 288.029C462.019 297.962 415.867 290.612 415.867 290.612C415.867 290.612 414.342 282.753 416.464 278.932C418.586 275.112 453.332 268.962 454.923 267.216C456.515 265.469 434.898 232.939 434.898 227.663C434.898 222.387 428.234 185.018 428.234 185.018Z" fill="white"/>
<path d="M399.091 282.898C399.091 282.898 395.842 287.483 394.781 288.065C393.72 288.611 393.023 288.465 393.023 288.465L395.212 284.135L399.091 282.898Z" fill="#F6BFB3"/>
<path d="M399.854 278.168L390.405 283.19C390.405 283.19 390.803 283.917 391.963 283.845C393.124 283.772 396.074 282.607 396.074 282.607L399.854 278.168Z" fill="#F6BFB3"/>
<path fill-rule="evenodd" clip-rule="evenodd" d="M230.462 530H255.561H387.933H476.262C510.049 530 538.564 514.458 558.595 490H159.027C173.869 513.976 200.416 530 230.462 530Z" fill="#210303"/>
<path d="M263.831 493.314C267.186 495.295 268.863 498.286 268.863 502.286C268.863 505.829 267.643 508.667 265.204 510.8C262.764 512.933 259.505 514 255.427 514H238.561V474H254.341C258.343 474 261.545 475.029 263.946 477.086C266.347 479.105 267.548 481.867 267.548 485.371C267.548 488.724 266.309 491.371 263.831 493.314ZM254.055 483.143H248.795V489.429H254.055C254.97 489.429 255.732 489.162 256.342 488.629C256.99 488.057 257.314 487.276 257.314 486.286C257.314 485.333 257.009 484.571 256.399 484C255.789 483.429 255.008 483.143 254.055 483.143ZM255.141 504.857C256.17 504.857 257.009 504.552 257.657 503.943C258.305 503.295 258.629 502.476 258.629 501.486C258.629 500.457 258.305 499.638 257.657 499.029C257.009 498.419 256.17 498.114 255.141 498.114H248.795V504.857H255.141Z" fill="white"/>
<path d="M282.616 504.4H298.11V514H272.382V474H297.824V483.543H282.616V489.086H296.394V498.514H282.616V504.4Z" fill="white"/>
<path d="M329.849 474V483.886H319.958V514H309.724V483.886H299.834V474H329.849Z" fill="white"/>
<path d="M354.554 514L352.839 508.229H339.518L337.802 514H326.711L339.918 474H352.381L365.588 514H354.554ZM342.147 499.429H350.209L346.15 485.829L342.147 499.429Z" fill="white"/>
<path d="M378.16 504.114H391.938V514H367.926V474H378.16V504.114Z" fill="white"/>
<path d="M395.103 474H405.337V514H395.103V474Z" fill="white"/>
<path d="M435.641 483.886H421.291V490.4H435.356V500.286H421.291V514H411.057V474H435.641V483.886Z" fill="white"/>
<path d="M450.31 504.4H465.804V514H439.292V474H465.804V483.543H450.31V489.086H464.089V498.514H450.31V504.4Z" fill="white"/>
</g>
<path d="M61.2246 185.18C61.2246 185.18 63.8359 185.53 65 187.214C65 187.214 62.1684 188.898 61.6021 190.073C61.6021 190.073 60.847 185.53 61.2246 185.18Z" fill="#210303"/>
<path d="M42.379 191.28L42.8824 196.523C42.8824 196.523 60.6897 201.765 61.5392 190.963C61.6965 189.12 61.9797 187.214 61.2246 185.149C60.2807 182.575 57.9211 180.542 53.9255 181.527C50.0242 182.543 42.379 191.28 42.379 191.28Z" fill="#F87A26"/>
<path d="M42.379 191.28L47.0982 195.57C49.9613 192.011 51.5973 184.608 56.4109 183.878C58.9593 183.496 60.4066 184.227 61.2246 185.149C60.2807 182.575 57.9211 180.542 53.9254 181.527C50.0242 182.543 42.379 191.28 42.379 191.28Z" fill="#FF9046"/>
<path d="M56.8514 186.292C56.8514 186.959 57.3862 187.5 58.0155 187.5C58.6447 187.5 59.1796 186.959 59.1796 186.292C59.1796 185.625 58.6447 185.085 58.0155 185.085C57.3862 185.085 56.8514 185.625 56.8514 186.292Z" fill="#210303"/>
<path d="M34.7967 211.233C35.2057 211.106 35.6776 211.233 36.0552 211.582C36.3383 211.836 36.59 212.154 36.7473 212.567C38.5407 211.773 39.7991 210.407 39.8306 210.375L40.4284 210.947C40.3655 211.01 39.1699 212.345 37.3766 213.203C37.817 213.774 38.6036 215.045 38.3204 216.57C38.1946 217.237 37.9114 217.65 37.5024 217.873C37.2822 218 37.0305 218 36.8103 218C36.4327 217.968 36.1181 217.778 36.0552 217.778C35.8664 217.65 35.8035 217.396 35.8979 217.206C35.9923 217.015 36.244 216.92 36.4327 217.047C36.5271 217.11 36.8732 217.269 37.1249 217.142C37.3451 217.047 37.4395 216.697 37.5024 216.443C37.6597 215.649 37.3766 214.886 37.0934 214.346C37.0934 214.442 37.0934 214.537 37.0934 214.664C37.0305 215.871 36.5586 216.475 36.2125 216.761C35.8979 217.015 35.4889 217.142 35.1113 217.11C35.0484 217.11 34.9855 217.11 34.954 217.079C34.2619 216.92 34.136 216.125 34.1675 215.681C34.1989 215.458 34.3877 215.268 34.6079 215.299C34.8282 215.331 34.9855 215.522 34.9855 215.744C34.9855 215.871 35.017 216.221 35.1428 216.253C35.3001 216.284 35.5203 216.253 35.7406 216.094C36.0552 215.84 36.2754 215.299 36.3069 214.6C36.3698 213.52 35.9608 212.631 35.5203 212.281C35.3945 212.186 35.1743 212.027 34.954 212.091C34.4821 212.218 34.6079 212.821 34.6394 212.948C34.7023 213.171 34.545 213.393 34.3563 213.457C34.136 213.52 33.9158 213.361 33.8843 213.139C33.7899 212.567 33.8214 211.519 34.7967 211.233Z" fill="#210303"/>
<path d="M59.9976 194.966C59.9976 194.966 59.9976 213.33 39.044 210.82C29.2594 209.644 26.2391 205.355 26.2391 205.355L47.0982 195.569C47.0982 195.569 55.1839 198.079 59.9976 194.966Z" fill="#F5DDD0"/>
<path d="M17.241 213.107C17.0523 213.203 14.1893 214.95 14.1893 216.38C14.1893 217.873 18.0276 218.095 20.5131 216.38L21.9603 215.299L24.7604 213.203L26.4279 211.964L28.5044 210.407L30.5494 208.882C30.5494 208.882 30.7067 205.006 34.545 203.131C34.545 203.131 30.0145 202.4 27.8437 204.529C27.8437 204.529 24.7289 205.736 21.1423 207.198C20.4501 207.484 19.7265 207.77 19.0344 208.056C18.0276 208.469 17.0208 208.882 16.077 209.263C15.2904 209.612 14.5039 209.93 13.8117 210.248C12.3016 210.915 11.1375 211.455 10.6341 211.805C9.28122 212.694 12.1757 215.236 17.241 213.107Z" fill="#F87A26"/>
<path d="M47.2556 195.442C47.2556 195.442 37.5339 202.972 31.3674 204.148C25.1694 205.355 22.8727 203.29 22.8727 203.29L28.9448 199.128L38.0058 193.886L46.8466 195.125L47.2556 195.442Z" fill="#C75911"/>
<path d="M37.4395 195.22C37.4395 195.22 26.5537 202.654 17.8388 202.909C9.15539 203.163 8.43177 201.542 8.43177 201.542L18.2793 196.078L29.637 191.566C29.6685 191.566 36.4957 190.2 37.4395 195.22Z" fill="#F87A26"/>
<path d="M30.046 191.249C30.046 191.249 19.7894 197.031 10.0992 197.539C0.409005 198.016 -5.39412e-07 196.11 -5.39412e-07 196.11L17.241 187.373C17.241 187.373 29.2909 188.58 29.8257 189.501C30.3606 190.391 30.046 191.249 30.046 191.249Z" fill="#FF9046"/>
<path d="M17.2725 187.373C17.4298 187.468 22.7783 191.312 28.1898 189.882C28.1898 189.882 28.5673 192.901 31.6505 193.123C34.7653 193.346 35.7406 193.06 35.7406 193.06C35.7406 193.06 37.062 195.633 39.4845 196.491C41.5295 197.19 45.6196 195.983 46.878 195.57C46.9724 195.538 47.0354 195.506 47.0668 195.506C47.1612 195.474 47.2241 195.442 47.2241 195.442L47.0668 195.252L44.2353 191.916C44.2353 191.916 39.3272 184.513 32.2798 183.56C25.2324 182.607 17.2725 187.373 17.2725 187.373Z" fill="#E6640E"/>
<path d="M44.5813 208.882C44.5813 208.882 42.1902 212.218 39.8935 212.567C37.5654 212.917 38.1317 210.597 38.7609 209.994C39.3901 209.39 45.8713 204.878 44.5813 208.882Z" fill="#F5DDD0"/>
<path d="M13.8746 210.216C14.2207 210.693 14.9129 211.264 16.2657 211.614C18.7198 212.218 19.7265 211.36 19.7265 211.36C19.7265 211.36 18.7827 212.249 19.1917 214.156C19.4119 215.236 20.8277 215.363 21.9603 215.268L24.7604 213.171C24.7604 213.171 22.7469 214.06 21.5513 212.79C20.3558 211.519 21.9918 209.676 21.9918 209.676C18.8771 210.566 17.0208 209.835 16.1084 209.231C15.3219 209.612 14.5668 209.93 13.8746 210.216Z" fill="#FF9046"/>
<path d="M19.0658 208.024C20.0097 209.326 23.5963 208.246 23.5963 208.246C23.5963 208.246 23.0615 209.739 23.8166 210.851C24.3514 211.582 25.6413 211.868 26.4594 211.963L28.5358 210.407C27.6234 210.407 25.956 210.375 25.3267 209.93C24.666 209.454 24.6346 207.261 24.6346 207.261C23.1559 207.77 21.9289 207.484 21.2052 207.198C20.5131 207.452 19.7895 207.738 19.0658 208.024Z" fill="#FF9046"/>
<path d="M17.2725 187.373C23.3761 189.692 28.5673 185.085 28.5673 185.085C28.5673 185.085 29.8887 186.96 31.9651 187.373C34.0416 187.786 36.0237 186.61 36.0237 186.61C36.0237 186.61 36.0866 187.849 37.4709 189.469C38.8553 191.09 41.7812 191.407 41.7812 191.407C41.7812 191.407 41.8441 192.615 42.4104 193.886C42.9138 194.998 46.0915 195.442 46.9095 195.538C47.0353 195.538 47.0982 195.57 47.0982 195.57V195.474V195.252L44.2352 191.916C44.2352 191.916 39.3272 184.513 32.2797 183.56C25.2323 182.607 17.2725 187.373 17.2725 187.373Z" fill="#F87A26"/>
<path d="M59.7144 182.797C59.7144 182.797 59.1796 179.97 54.9637 179.62C50.7478 179.271 47.6646 179.461 47.2556 178C47.2556 178 46.5005 180.319 48.3253 181.813C48.3253 181.813 47.0983 182.289 46.3432 182.321C46.3432 182.321 47.9163 184.322 49.9613 183.878C52.0063 183.465 54.3345 180.478 59.7144 182.797Z" fill="#F87A26"/>
<path d="M57.9526 199.541C57.9526 199.541 57.2919 202.718 56.0649 203.004C54.8064 203.29 56.4739 200.208 57.9526 199.541Z" fill="#EACBBA"/>
<path d="M55.2783 199.414C55.2783 199.414 54.1457 202.432 52.8872 202.527C51.6288 202.623 53.7367 199.827 55.2783 199.414Z" fill="#EACBBA"/>
<path d="M52.3839 198.969C52.3839 198.969 50.5276 201.574 49.3006 201.288C48.0736 201.002 50.7793 198.906 52.3839 198.969Z" fill="#EACBBA"/>
<path d="M54.3974 204.497C54.3974 204.497 53.3592 207.547 52.1007 207.674C50.8422 207.801 52.8558 204.942 54.3974 204.497Z" fill="#EACBBA"/>
<path d="M51.7546 204.021C51.7546 204.021 50.2759 206.88 49.0174 206.785C47.759 206.721 50.1815 204.211 51.7546 204.021Z" fill="#EACBBA"/>
<path d="M48.8601 202.75C48.8601 202.75 47.2241 205.482 45.9656 205.323C44.7072 205.133 47.2556 202.813 48.8601 202.75Z" fill="#EACBBA"/>
<path d="M49.5837 208.373C49.5837 208.373 47.4758 210.153 46.469 209.644C45.4937 209.136 48.2309 207.96 49.5837 208.373Z" fill="#EACBBA"/>
<path d="M46.9095 206.817C46.9095 206.817 44.9274 208.755 43.8892 208.342C42.8824 207.897 45.5252 206.531 46.9095 206.817Z" fill="#EACBBA"/>
<defs>
<linearGradient id="paint0_linear" x1="132.515" y1="50" x2="132.515" y2="93.3333" gradientUnits="userSpaceOnUse">
<stop stop-color="white"/>
<stop offset="1" stop-color="#F5EFEF"/>
</linearGradient>
<linearGradient id="paint1_linear" x1="160.131" y1="81.6665" x2="160.131" y2="99.9998" gradientUnits="userSpaceOnUse">
<stop stop-color="white"/>
<stop offset="1" stop-color="#F5EFEF"/>
</linearGradient>
<linearGradient id="paint2_linear" x1="194.849" y1="70" x2="194.849" y2="88.3333" gradientUnits="userSpaceOnUse">
<stop stop-color="white"/>
<stop offset="1" stop-color="#F5EFEF"/>
</linearGradient>
<linearGradient id="paint3_linear" x1="155.397" y1="35" x2="155.397" y2="86.6667" gradientUnits="userSpaceOnUse">
<stop stop-color="white"/>
<stop offset="1" stop-color="#F5EFEF"/>
</linearGradient>
<linearGradient id="paint4_linear" x1="175.123" y1="63.3335" x2="175.123" y2="100" gradientUnits="userSpaceOnUse">
<stop stop-color="white"/>
<stop offset="1" stop-color="#F5EFEF"/>
</linearGradient>
<linearGradient id="paint5_linear" x1="112" y1="60" x2="112" y2="86.6667" gradientUnits="userSpaceOnUse">
<stop stop-color="white"/>
<stop offset="1" stop-color="#F5EFEF"/>
</linearGradient>
<linearGradient id="paint6_linear" x1="255.605" y1="105" x2="255.605" y2="148.333" gradientUnits="userSpaceOnUse">
<stop stop-color="white"/>
<stop offset="1" stop-color="#F5EFEF"/>
</linearGradient>
<linearGradient id="paint7_linear" x1="283.221" y1="136.667" x2="283.221" y2="155" gradientUnits="userSpaceOnUse">
<stop stop-color="white"/>
<stop offset="1" stop-color="#F5EFEF"/>
</linearGradient>
<linearGradient id="paint8_linear" x1="317.939" y1="125" x2="317.939" y2="143.333" gradientUnits="userSpaceOnUse">
<stop stop-color="white"/>
<stop offset="1" stop-color="#F5EFEF"/>
</linearGradient>
<linearGradient id="paint9_linear" x1="278.487" y1="90" x2="278.487" y2="141.667" gradientUnits="userSpaceOnUse">
<stop stop-color="white"/>
<stop offset="1" stop-color="#F5EFEF"/>
</linearGradient>
<linearGradient id="paint10_linear" x1="298.213" y1="118.333" x2="298.213" y2="155" gradientUnits="userSpaceOnUse">
<stop stop-color="white"/>
<stop offset="1" stop-color="#F5EFEF"/>
</linearGradient>
<linearGradient id="paint11_linear" x1="235.09" y1="115" x2="235.09" y2="141.667" gradientUnits="userSpaceOnUse">
<stop stop-color="white"/>
<stop offset="1" stop-color="#F5EFEF"/>
</linearGradient>
<linearGradient id="paint12_linear" x1="338.716" y1="256.25" x2="377.535" y2="293.492" gradientUnits="userSpaceOnUse">
<stop offset="0.0258042" stop-color="white"/>
<stop offset="0.979167" stop-color="#F0F0F0"/>
</linearGradient>
<linearGradient id="paint13_linear" x1="397.707" y1="292.661" x2="456.143" y2="283.52" gradientUnits="userSpaceOnUse">
<stop offset="0.0258042" stop-color="white"/>
<stop offset="1" stop-color="#EDEDED"/>
</linearGradient>
</defs>
</svg>
