<svg xmlns="http://www.w3.org/2000/svg" viewBox="0 0 900 800" xmlns:v="https://vecta.io/nano"><style><![CDATA[.e{stroke-linejoin:round}.f{stroke-miterlimit:10}.g{stroke-linecap:round}.h{fill:none}.i{stroke-width:2}.j{fill:#f79e86}.k{fill:#f78669}.l{stroke:#f78669}.m{fill:#f7bfb1}.n{stroke:#57585a}.o{fill:#f7ae9b}.p{fill:#161719}]]></style><g fill="#ffd5b1"><path d="M629.4 685.9c14.4-36.5 61.9-126.6 61.9-126.6s-9.7 65.4-17.4 83.2c-6.6 15.4-29.8 63.6-29.8 63.6m-478.9-43.3s10.2 26.1 22.5 52.5l8-17.5c-10.4-14.2-21.7-28.1-30.5-35z"/><path d="M165.2 604.6l36.1 80.8 10.5-22.9c-24.1-32.8-46.6-57.9-46.6-57.9zm42.3 93.5c-.1.2-.2.3-.4.5l17.7 42.2s-10.4-16.8-23.5-35.2c-4.5 5.3-8.7 9.9-11.9 13.3 3.6 7.6 7.4 15.1 11.1 21.9h58.6c-9-20.9-22.9-43.4-37.2-64l-2.1 3.7c-3.7 6-8 12-12.3 17.6zm11.5-58.3c14.9 28.4 32 64.2 44.8 101h65.6L272.7 645c-22.9-38.9-48.4-71-78.3-88.4 18.1 24.5 40.7 65.7 54.6 103.6-12.7-16.4-26.3-30.2-40.9-40.6l7 12.8 3.9 7.4zm312.1 12.5L510 688.4l9.2 16.2 11.9-52.3z"/><path d="M485.5 730.2l10.2-65.3-4-5.7 16.6-68.4S491.8 602 468 654.1c-.6-41.7 10.6-91.6 23.4-122.3-20.8 26-45.4 70.8-56.3 111.1l-15.5 97.9h91.2l6.7-29.1-14.2-11.9-17.8 30.4zm-208.9-49.8c-32.7-17.6-62.4-22.9-62.4-22.9l14.4-9.6 6.8.7c7.8 1 21.4 3.4 37.1 8.9m375.3 57.9c12.5-26.6 23.9-40.4 29.1-45.6 7.7-7.8 64.1-52.8 88.7-65.8-9.6 11-36.7 56.8-36.7 56.8s21.1-14.3 33.5-20.1c0 0-29.8 53.5-35.6 69.8 18.7-9.1 31.2-13.7 38-15.5-28.3 19.4-42 45.8-42 45.8h-91.7"/></g><g class="e f g h i n"><path d="M675.6 678.8c14-16.2 59-47.7 59-47.7l-48 60.3c-3.3 5.6-27.7 49.4-27.7 49.4m-14.3-8.4c12.6-25.6 19.7-38 24.6-45.2m31.9 26.9c-2.8 4.1-5.4 7.7-7.3 10.3-3.5 4.8-6.9 10.4-10.2 16.3m28.1-42l-8.1 11.9"/><path d="M722.7 682.5l-8.1 12m-7.8 11.3s8.7.3 12.5-1.7 3.8-8 3.8-8"/><path d="M713.2 696.7s7.8.2 11.1-1.5c3.3-1.8 3.4-7.2 3.4-7.2m-13.1 21.6c1.3-2.1 1.6-4.6 1.6-4.6m-14 7.3c2.3.2 7.3.5 9.9-.6m7-23.7s6.9 0 10-1.8c3-1.8 3.2-7.2 3.2-7.2m-25.7 26.6s-3.3-8-2.8-12.3c.2-1.7 1.3-3.1 2.5-4.2m6.5 7.3s-3-7.2-2.5-10.9c.5-3.8 5.5-5.7 5.5-5.7"/><path d="M702.2 712.3c-1-2.1-3.1-6.6-3-9.5.1-3.8 4.9-6.3 4.9-6.3m14.7-8.7s-2.5-6.5-1.9-10 5.6-5.6 5.6-5.6m2.2 7.3s-1.1-2.3-1.4-4.9m.8-4.5c3-4.7 11.9-6.3 11.9-6.3s.8 8.3-2.2 12.9c-1.3 2.1-3.6 2.8-5.6 3m-268.7-25.6c-.6 2.3-3.5 29.8-4.8 44.5m9.1-66l-2.5 14.2"/><path d="M467 613.4l-2.4 14.2m-2.3 13.5s8-3.4 10.6-6.7c2.6-3.4.1-8.9.1-8.9"/><path d="M464.3 630.2s7.1-3 9.5-6c2.3-3 .1-7.9.1-7.9m-3 25c.4-2.4-.4-4.9-.4-4.9m-9.8 12.6c2.2-.8 6.9-2.6 8.8-4.6m-3.4-24.5s6.3-2.9 8.3-5.8 0-7.9 0-7.9M462 641.1s-6.4-5.9-7.7-10c-.5-1.7-.1-3.4.5-4.8m9 3.9s-5.7-5.3-6.8-8.9 2.6-7.5 2.6-7.5"/><path d="M460.7 649c-1.8-1.5-5.6-4.8-6.7-7.4-1.5-3.5 1.8-7.7 1.8-7.7m9.9-14.1s-5-4.9-5.8-8.3 2.7-7.4 2.7-7.4m5 5.7s-2-1.6-3.3-3.8m-1.2-4.5c.8-5.6 8.2-10.7 8.2-10.7s4.2 7.2 3.4 12.6c-.4 2.5-2.1 4-3.8 5m226.5 27.8s11-2.4 15-6 2.3-11.2 2.3-11.2m2.4-2.8c2.1-3.5.9-8.7.9-8.7"/><path d="M702.5 622.9s8-1.7 12.2-4.5m-6.2 19.3c.7-2.7.3-5.4.3-5.4m-15.3 13.5c3-.5 9.3-1.6 12.3-3.8m1.4-31.8s8.7-2.1 11.9-5.3 1.8-10 1.8-10M697 636.1s-6.7-9-7.3-14.4c-.7-5.4 5.7-10 5.7-10m1.2-6.5c1.5-2.5 3.9-4.2 3.9-4.2"/><path d="M701.9 622.7s-5.9-8-6.5-12.9m-4.2 33.1c-1.8-2.5-3.8-5.6-4.4-8-1.1-4.8 4.2-9.3 4.2-9.3m15.8-15.5s-5.1-7.3-5.4-11.9 5.2-8.7 5.2-8.7m2.5 4.4c-1.1-2.2-2.1-5.1-1.2-7.7 2.3-6.9 13-11.6 13-11.6s2.2 4.6 2.2 9.7m-.3 4.7c-.1.9-.3 1.7-.6 2.5-2.1 6.1-10.5 6.3-10.5 6.3m-17.5 46.8l16.3-43.7M677.1 695c2.6-11 5.9-22 9.7-31.4l5.3-13.4m-23 90c.8-8.1 3.1-23.5 6.7-39.8m-498.6-132s-11.2-.1-15.9-2.8-4.6-10.5-4.6-10.5m-2.8-2.3c-2.8-3-2.7-8.3-2.7-8.3"/><path d="M169.5 556.4s-8.2-.1-12.9-1.9m10.1 17.6c-1.2-2.5-1.4-5.2-1.4-5.2M183 577c-3 .2-9.4.3-12.8-1.2m-7.9-30.8s-8.9-.3-12.8-2.8c-3.8-2.5-3.8-9.4-3.8-9.4"/><path d="M177.6 568.1s4.7-10.2 4.2-15.6-7.6-8.6-7.6-8.6m-2.5-6.1c-2-2.2-4.7-3.4-4.7-3.4"/><path d="M170 556.1s4.2-9.1 3.8-13.9m10.8 31.4c1.3-2.8 2.6-6.3 2.7-8.7.1-4.9-6-8.3-6-8.3m-18.6-11.9s3.5-8.2 2.9-12.7-6.9-7.5-6.9-7.5m-1.6 4.9c.7-2.4 1-5.4-.4-7.7-3.7-6.2-15.1-8.7-15.1-8.7s-1.2 5-.2 10m1.3 4.4c.3.8.7 1.6 1.1 2.3 3.3 5.5 11.6 4 11.6 4m26.6 42.2l-24.9-39.4m47.3 76.6c-10.4-18.4-18-30.3-19.1-32.1m29.8 51.4l-7.3-13.3m56 121.7c-12.8-36.8-29.9-72.6-44.8-101m464.3-34.6c-3 15.2-6.4 30.1-9.5 37.3-6.6 15.4-29.8 63.6-29.8 63.6m137-2.4c-19.6 10.3-49.6 37.1-49.6 37.1m16.8-37.1c-19.6 10.3-54 37.1-54 37.1M777.5 418s-15.9 35.5-18.6 45m34.5-41.2l-15.2 26.1m38.1 8.9l-17.5 24.6m25.2-15.3l-5.4 6.1m-18.8-29.1l-2.5 3.7M188.7 426s15.9 35.5 18.6 45m-5.9-54.6l7.7 29.2m6.4-13l1.9 11.2m-40.2 12.8l7.6 23.6"/></g><path d="M756.9 200.4c-28.2-5.1-51.3 10.3-61.1 18.2-6.8-2-15.2-3.4-23.4-1.6-18.5 3.9-28.2 14.2-26 15 5.7 2 144-1.7 153.1-2.3 1.7-.2-5.1-22.5-42.6-29.3zm-404.3-23.1c-3.3.6-36.1 1.4-37.9 1s11.9-9.3 24-8.2c12 1 13.9 7.2 13.9 7.2zm-56.7 1.1c-8.4.1-38.9-.2-42.9-1.4-3.9-1.2-5.9-3.1-5.8-4.1.3-3.7 12.9-8.8 28.3-5 15.4 3.9 20.4 10.5 20.4 10.5zm43.1-49.6c.3 2.7 11.5 4.6 18.5 4.1s53.3-2.9 78.6-3.5l92.7-1.6c11.8 0 25.7-1.1 25.5-2.1-.2-1.1-8.7-10.1-24.7-12.7s-28.5 1.2-28.5 1.2-6.9-16.8-21.8-17.5c-14.9-.8-21.9 11.4-21.9 11.4s-24.8-19.3-60.8-19.3c-39-.1-59.8 15.4-57.6 40zM209.6 300.2c0-11.5-23.7-29.1-35.7-18.7-.5.4-1.5 2.9-1.9 6.3 0 0-10.5-3-17.8 2s-2.3 10.3 4.5 10.4c6.8.2 50.9 0 50.9 0zm3.2.1c9.6.1 31.1 3.5 41.6-1.5 0 0-2.5-8.8-15.2-7.5s-26.4 9-26.4 9z" fill="#fff"/><g class="e f g h i n"><path d="M258.9 293c-.3 2.2-1.3 4.1-2.7 5.1m-27.6-14c3.3-2.1 8.5-6.8 19.4-4.6 7 1.4 10.1 5.8 10.9 10m-51.8-31c10.1 4.2 13.7 15 16.1 21.5m-48.6-.4c6-17.2 21.6-23.9 30.7-21.6m19.6 26.2c.3.4.6.7.9.8m20.3-112.9c-3.1-4.8 1.1-10.7 12.9-13 13-2.6 26.6 3.9 26.6 3.9m5.8 1.1c7.9-4.9 14.7-8.7 29.4-2.6m41.6 13.9c-2 1.2-4.2 1.9-6.5 1.9m1.7-20.2c2.6.7 5.1 1.8 7.3 3.4 5.1 3.7 3.9 9 .4 12.7m-40.1-9.6c7.2-4.5 18.1-8.1 27.7-7.3m121.2-82.2c3.8 2.4 7.4 5 10.7 7.9m-48.3-21.4c4.9.8 9.7 1.8 14.4 3.2m-28.2-4.5c3.4.1 6.9.4 10.2.8m-101 41.3c5.9-11.4 19.4-23.2 40-32.4 14.9-6.6 31.1-9.8 47.1-9.8m-89.2 62.7c-1.8-4.8-1.8-10.1.1-15.7m194.5-20.6c3.8 3.8 6.9 8.4 9.1 13.3m-45.6-18.6c11.3-7.4 23.1-5.2 32.2 1.7m66.6 40.4c-8.9 1.7-24.2 2.6-24.2 2.6m-.4-36.4c9 2.1 17.6 9.1 21.3 24.1 0 0 13.1-6.8 17.1 1 1.5 3-1 5-4.7 6.4m-58.7-24.7c4.2-4.6 12-7.9 20.3-7.5m87.3 127.7c5.4-7.5 16.8-14.2 34.2-13.2m-36.4 28.9c-1.6-2.1-2-5.1-1.3-8.3M803 191.2c.4 4.1.2 8.6-.5 13.6m-9.4-35.9c1.7 1.7 3.1 3.6 4.4 5.6m-112.9 30.2c7.7-24.7 30.6-41.2 52.9-47.1 16.4-4.4 38.9-2.9 52.9 8.7m16.9 40.3c9.6-2.5 22.9 14.8-2.9 22.5M239.5 609c1.9 46.4 29.1 131.8 29.1 131.8m-107.7-62.7c36.7 9.6 77 62.7 77 62.7"/><path d="M235.4 648.6c13 1.7 42.5 7.2 70.2 24.5m-29 7.3c-32.7-17.6-62.4-22.9-62.4-22.9l14.4-9.6"/><path d="M219.8 680.4c3.9-6.5 7.1-13.1 8.9-19.4M204 679.6l-20.9 45.7s12.3-11.8 24.3-27.2m6.8-40.6l-2.4 5.1"/><path d="M259.1 740.8c-9-20.9-22.9-43.4-37.2-64l-10.1-14.1c-24.1-32.9-46.6-58-46.6-58m279.9 8.3c-4.8 39-1.3 83.2-1.3 83.2m46.5-76.8C468 666.5 454 723.7 454 723.7m8 1.4s16.9-69.7 22.4-72.7 43.5 67.9 43.5 67.9L497 694.5"/><path d="M495.6 664.9l-11.8 75.9"/></g><path d="M656.1 704.7c-.6-10 7.8-119.2 8.4-139.1s1.3-60-8.2-83c0 0-129 26.1-127.5 38.3s6 65.4 8.8 94.1 3.6 64.2 10.1 80.3c3 7.6 14 30.8 21 45.5H659l-2.9-36.1z" fill="#6c6d71"/><path d="M598.7 740.8h43c-22.1-18.7-36.2-14.3-43 0zm-.6 0c-2.5-7.3-5.5-17.7-6.8-28.8-.3-2.8-.5-8.4-.5-15.6-15.2 7.3-24.8 19.3-29.1 29.6l7.1 14.9h29.3zm-69.3-220c.4 3.2 1 9.1 1.7 16.6 1.6-.5 3.2-1.2 4.8-2.2 2.9-1.8 5.7-4.2 8-7.5 33.4.1 73.5-3.9 93.3-9.6 13.7-4 21.5-7.5 25.9-10.1-1.3-9.4-3.3-18.3-6.2-25.5 0 0-129 26.1-127.5 38.3zm63.8 66.2l-17.8-9.7s.4 43.5 16.7 57.8l1.1-48.1zm7.7-11.6c-.6-2.9 12.2-9.6 15.6-10.9s4.3 5.1.7 7.6c-3.6 2.6-15.7 5.9-16.3 3.3zm-1.6 8.8c-.2-.7 5.3-3.2 8.1-3.2s3.4 3.6.5 4.2-8 .7-8.6-1z" fill="#616265"/><path d="M582.2 581.3l-13.8-7.5m29.5 166.4c-2.5-7.2-5.3-17.4-6.6-28.2-1.8-16 1.6-122.7 1.4-124.9m-1.1-37c-5-2.8-9.3-8.4-11.8-15s-6.6-34.4-6.6-34.4m12.8 1s3.8 33 5.6 37.3m43.5-48.9c2.9 14.3 8.7 24.4 18.1 28.8m4.4 1.6c1 .3 2 .5 3 .6m-112.1-8.8c-.7 11.9-6.7 19.1-13.2 23" class="e f g h i n"/><path d="M384.8 482.5c-9.9-40-74 5.3-74 5.3-2.5 16.6-30.4 42.4-42.4 92.5-12.7 53.1-9.5 98.5 5.2 160.4h195.6c-18.6-110.8-71.1-204.1-84.4-258.2z" fill="#9b9ca2"/><path d="M406 542.7c-9.4-23.3-17.1-43.6-21.2-60.2-9.9-40-74 5.3-74 5.3-.5 3.6-2.3 7.7-4.8 12.3 32.1 33.2 77 47.5 100 42.6zm-47.2 73c-2.5-4.2-9.4-18.8-11-26.2-1.6-7.3 2.1-9.5 5.5-6.8s5.6 7.6 7.3 14.2 2.2 14.6 2.2 17.7c-.1 3.2-2.5 3.7-4 1.1zm8.7-2.8c-.8-.7-1.4-15.4 0-16.6s4.1 4 3.9 8.3-2.5 9.6-3.9 8.3zm96.7 101.8c-25.6-31.2-74.6-72.1-100.1-80.2 14.8 33.8 29.8 77.6 37 106.3h68.1c-1.5-8.8-3.2-17.5-5-26.1z" fill="#838489"/><path d="M343.9,595.5c18.8,27.3,46.6,102.8,57.2,145.3" stroke="#838489" class="e f g h i"/><g class="j"><path d="M760.4,571.2c-4.6,3.4-6.5,6.2-5.1,9.8c1.4,3.5,14.4-3,14.4-3"/><path d="M769 576.7c-7.6 1.6-16.9 5.5-17.1 9.1-.3 3.7 3.9 4.4 11.9 2.5s16.8-6.1 16.8-6.1"/></g><path d="M769 576.7c-4.2.9-8.9 2.5-12.3 4.3" class="e f g h i l"/><path d="M731.4 526.4c8 9.2 9.7 10.9 10.9 16.3 1.2 5.5 4.9 18.8 9.7 23.4s9.2 8.5 12.2 10.4 10.3-.2 6.6-6.2-9.7-14.1-10.3-16 .5-3.1 8.2 3.7c4.6 4.1 10.1 10.9 8.2 20.9-.9 4.4-8.9 4.6-14.3 8.9-3 2.4-2.2 5 2.6 5 5.5 0 12-.9 14-1.9 3.3-1.7 10-9.4 11-12.1s2.6-21.6 0-28.1-28.9-30.7-33.2-37.9c-4.4-7.2-29.6 9-25.6 13.6z" class="j"/><path d="M768.7 558c-7.7-6.8-8.8-5.7-8.2-3.7.6 1.9 6.6 10 10.3 16s-3.6 8.1-6.6 6.2c-1.5-.9-3.3-2.3-5.3-4.1a14.88 14.88 0 0 0-2.2 2.1c3.5 2 8.6 5.1 13.5 9.3 3.3-1.3 6.1-2.4 6.6-4.9 2-10-3.5-16.8-8.1-20.9z" class="k"/><path d="M779.9 565.8l2.3-1.3m-15.2 5.3c-2.4.8-3 2.9-3 2.9m11.9 5.7c-.4 2.2-1.7 3.8-4.4 4.9-2.8 1.1-6.2 2.2-9 4.4" class="e f g h i l"/><path d="M751.5 542.9c-.5-12.1 5.3-21.1 9-25.4-1.7-1.9-2.9-3.5-3.6-4.7-4.3-7.2-29.4 9-25.5 13.6 8 9.2 9.7 10.9 10.9 16.3 1.1 4.8 4.1 15.8 8 21.4 3.4-4.2 1.7-11.4 1.2-21.2zm39 33.8c.7-4.7 1.5-15.4.5-22.2-2.2 3.9-1.9 6.9-.5 22.2zm-13.2 14.7c.8-.2 1.4-.4 1.8-.6 2.6-1.3 7.2-6.3 9.6-9.7-6 1.6-11 5-11.4 10.3z" class="k"/><g class="m"><path d="M192.9 600.3s-4.3 5.1-5.5 5.8c0 0-2.5.5-2.7-1.3s1.4-5.1 4-9.6l1.6-3"/><path d="M188.8 601.4c-2.6 4.5-4.2 7.8-4 9.6s2.7 1.3 2.7 1.3c1.2-.6 5.5-5.8 5.5-5.8"/></g><path d="M187.3 597.8c-1.7 3.2-2.7 5.6-2.6 7 .1.9.8 1.2 1.5 1.3-1 2.1-1.6 3.8-1.5 4.9.2 1.8 2.7 1.3 2.7 1.3.5-.3 1.5-1.3 2.5-2.4 0 0-.8-1-1.3-4.9-.4-3.6 1.5-5.2-1.3-7.2z" class="o"/><path d="M189.9 607.9s-4.3 6.2-5.7 9.5-1.5 4.4.5 4.1 5.8-4.6 6.5-5.7 7.3-7.1 9.3-8.4c2.4-1.5 12.6-5.8 12.6-5.8-1.8 2.4-4.3 7.1-4.3 10.4 0 2.2.9 3.3 3.2.9 4.7-4.8 8.5-8.3 11.6-12.6 4.1-5.7 4.1-15 5.5-17.5 4.5-7.8 36.8-37 50.7-69.6 4.2-9.8 7.4-31.5 14.4-46.1 7.1-14.6-39.4-7.4-39.4-7.4s-3.4 31.6-6.9 38.3c-24.2 46.5-30.7 77.7-34.4 80-1.6 1-19.5 8.2-21.3 9.5-3.6 2.3-11.3 10.5-12.7 12.6s0 2.3 1.9 1.6 8.9-5.8 8.9-5.8" class="m"/><path d="M187.3 611.8c-1.2 1.9-2.5 4.1-3.2 5.7-1.4 3.3-1.5 4.4.5 4.1 1.5-.2 3.8-2.5 5.3-4.2-2.1-1.2-2.5-3.2-2.6-5.6zm-6-10c.3-.1.6-.3 1.1-.5-.1-1.3 0-2.8.2-4.7-1.5 1.6-2.6 3-3.1 3.7-1.5 2-.1 2.2 1.8 1.5zm31.8-.2c-1.8 2.4-4.3 7.1-4.3 10.4 0 2.2.8 3.3 3.1 1 1.9-4 2.3-11.4 1.2-11.4zm.4-23.4c4 1 11.8-5.7 14.8-13.7 2.4-6.5 1.1-13.1-3.3-14.6-6.5 16.8-9.4 27-11.5 28.3zm41.3-118.3s-1.5 13.7-3.5 25c6.3 10.8 16.7 21.5 31.5 19.5 3-10.9 6.1-26.1 11.5-37.1 7-14.6-39.5-7.4-39.5-7.4zm-63.1 131.8c1.6-.2 1.7-2.3-.1-2.3-1.5 0-1.1 2.4.1 2.3zm2.6 4.2c1.2-.1 1.6-2.6 0-2.5s-1.3 2.6 0 2.5zm1.8 1.6c1.4-.4 2.2 2.1.4 2.5-1.4.3-1.9-2-.4-2.5zm1.8 4.4c1-.7 2.3.9 1.2 1.7-1.2 1-2.4-.8-1.2-1.7zm15.9-2.3c-.6 0-1.1-2.7.7-2.2 1.2.5.3 2.2-.7 2.2z" class="o"/><path d="M189.5 593.9c-.6 1.1-2.1 5.7-2.6 6.6m4.4-1.4l-3.5 6.4m2.8 1.2s-2.7 2.3-4.1 4.5" stroke="#f7ae9b" class="e f g h i"/><path d="M412.5 550.8c-10.4-28.4-4.4-52.5-5.1-58.4-.4-3.7-6.5-19.9-12.2-41.4-3.1-11.7 27.3-35.7 33.8-5.2 8.2 38.8 7.8 62.1 6.8 73.2-1.8 20.3-8.1 32.6-8.1 32.6l-15.2-.8z" class="m"/><path d="M430.4 453l-1.4-7.1c-6.5-30.6-36.9-6.5-33.8 5.2 3.2 12 6.4 22.3 8.8 29.8 8.7-4.3 19.3-13.8 26.4-27.9zm4.7 31.4c-11.4 8.5-30.7 27.6-17 57.8 2.7 5.9 6.2 8.3 10.2 8.2 1.7-3.8 6-14.9 7.5-31.2.6-6.8 1-18.2-.7-34.8z" class="o"/><path d="M410.8 579.2s-11.8-4.1-11.9-12.8 13.8-19.5 19.7-24.6c2.7-2.3 3.5-3.1 7.9-12.2l22.9 12.2c0 10.7-1.5 19.1-10.9 25.4-1.1.7-3.9-3.4-10.5-3.7-5.8-.2-9.1 3.1-6 5.5 2 1.5 4.1.9 5.7 2.7s1.7 3.4 1.6 5.5c-.2 4.8-2 9.6-6 9.8s-6.3-3.2-7.2-13.2" class="j"/><path d="M415.2 573.9c-.2-9.1-1.2-13.3-1.2-13.3" class="e f g h i l"/><path d="M438.5 567.1c8.2-5.4 10.4-12.5 10.8-21.2-4.9 1.4-6.7 5.5-8.2 9-1.4 3.2-8 5.3-10 9 4.4 1.1 6.5 3.8 7.4 3.2zm-19.9-25.4c-.2.1-.3.3-.5.4 8.3-.5 15.2-2.4 19.1-6.9l-10.7-5.7c-4.4 9.1-5.3 9.8-7.9 12.2zm-3.2 26c-9.3 2-9.7 5-9.7 5l10.6 3.5-.3-2.6c-.1-2.2-.3-4.2-.6-5.9z" class="k"/><path d="M419.4 579.3a1.73 1.73 0 0 1 1.5-1.7l2.9-.3c.9-.1 1.6.5 1.9 1.3l.7 2.7M409.1 562c.5 2.7 2.3 3.6 2.3 3.6" class="e f g h i l"/><path d="M432.3 585.9c-3.2-1.1-8.9-1.5-8.9-1.5l-10 5.5c5.5 2.7 12.3 1.6 15.6.9 4.6-.9 6.5-3.8 3.3-4.9z" class="j"/><g class="k"><path d="M423.4 584.4l-10 5.5c5.5 2.7 12.3 1.6 15.6.9h.1c.8-1.5 1.5-3.4 1.8-5.3-3.2-.8-7.5-1.1-7.5-1.1z"/><path d="M424.1 592.1c-2.5-2.2-7.6-4.8-7.6-4.8l-11.4 1.1c3.9 4.7 10.7 6.3 14 7 4.6.8 7.5-1.1 5-3.3z"/></g><path d="M417.9 595.4c-2.1-2.6-6.6-6.1-6.6-6.1l-11.4-.9c3.1 5.3 9.4 8.1 12.6 9.4 4.2 1.6 7.4.2 5.4-2.4z" class="j"/><path d="M411.3 589.3l-11.4-.9c2.2 3.8 6.2 6.4 9.4 8 2.2-.6 4.3-1.8 6.1-3.6-2.1-1.9-4.1-3.5-4.1-3.5z" class="k"/><g class="m"><path d="M411.5 584.7c-3.6 1.2-5.3.8-6.3.2s-7-4.4-9.2-4.6c-2.2-.1-4.8.6-1.7 3.5s9.2 8.1 11.4 8.6 11.7-.1 15.6-1.4c9.4-3.3 15.2-9.2 18.7-19.7.7-2.2 1.1-4.3 1.2-6.2-.8.7-1.7 1.3-2.6 2-1.1.7-3.9-3.4-10.5-3.7-5.8-.2-9.1 3.1-6 5.5 2 1.5 4.1.9 5.7 2.7s1.7 3.4 1.6 5.5c-.2 4.8-2 9.6-6 9.8-3.8.2-6.1-2.9-7.1-11.8-3.1-.6-4.3-1.6-4.9-2.6-.6-1.1-4.5-7.5-6.5-8.7s-4.8-1.7-3.3 2.5 4.8 12 6.6 13.5c1.8 1.4 6.1 2.9 6.1 2.9"/><path d="M407.5 580.3c-4-.2-5.5-1.2-6.2-2.2s-5.3-7-7.4-8-5-1.2-3 2.9 8.2 12.3 10.2 13.5 6.3 2.3 6.3 2.3"/><path d="M416.5 587l-1.1-9.9-4.3-.4c-4-.6-5.3-1.7-6-2.8s-4.5-7.5-6.5-8.7-4.8-1.7-3.3 2.5c1.5 4.3 6.8 14 8.6 15.5 1.8 1.4 6.1 2.9 6.1 2.9"/></g><path d="M398.6 574.6c2 3.9 4.3 7.7 5.4 8.6 1.8 1.4 6.1 2.9 6.1 2.9m-7-19.8c.3 0 .5-.1.6-.3m-6.8 1.8c.3 0 .5-.1.6-.3m-5.3 5.5c.3 0 .5-.1.6-.3m14.6 16.1s-4.4-1-6.3-2.3c-.9-.6-2.8-2.7-4.7-5.2m7.5-9.2c1.5 3.5 3.2 6.9 4.4 7.8 1.8 1.4 6.1 2.9 6.1 2.9m10.9-17.7c0 .9-.8 1.3-.8 1.3" stroke="#f7ae9b" class="e f g h i"/><path d="M361.5 300c6-.9 13.7-7.9 12.3-17.2-1.4-9.4-14.3-18.2-33.3-18.2s-26.3 2.8-31.5 13.2c-6.9 13.8-4.4 28.1-11.3 38.7-8.2 12.7-49.5 30.9-51.1 63.4 10.9-24.8 27.3-33.5 36-37.6-10.7 7.5-32.8 42.7-19.1 67.6l148.2-9.3c8.3-25.6-5.9-52.2-24.2-63.6 3.7.7 12.8 3.8 22.6 13.5-11.8-17.1-37.8-26-51.6-26" fill="#f58321"/><path d="M353 330.2c-11.8-2.1-41.4-12.8-32.6-28.4 7.3-13-3-22-13-20.4-4.1 10.6-3.7 21.4-7.3 30.3 6.4 11.9 6.6 20.8-2.5 32.2-8.3 10.4-23 24.6-13.6 47.1 3.2 7.7 7 13.1 10.6 16.9l77.6-4.9c3.9-5.5 7.5-12.6 10.2-21.6 10.5-34.5-17.6-49.1-29.4-51.2zm7.1-42.8l2 12.4c5.2-1.1 11.3-6.5 11.7-14-3.7-1.1-8.7-1.3-13.7 1.6zm-100.8 99.9c-.8 7.8.2 15.6 4.1 22.6l16.2-1c-3.1-8.9-9.9-19.2-20.3-21.6zm154-11.1c-8.3-2.8-17.6-3.3-23.3-2.6-6.4.8-3.1 18-.5 28.4l22.1-1.4c2.7-8.2 3-16.5 1.7-24.4z" fill="#e67717"/><path d="M267.9 351.2c-1.9-.9-4-1.7-6.5-2.5-3.8 4.1-7.2 8.6-9.8 13.5 1.4.5 2.8 1 4.3 1.4 3.9-5.2 8-9.2 12-12.4zm10.1 11.1c.5-2.7-1.1-5.7-5.6-8.7-2.3 3.4-4.6 7.4-6.6 11.6 6.4.5 11.7-.5 12.2-2.9zm115.8-.9c.7 2.8 8 4.3 15.9 2.4-1.4-3.3-3.1-6.5-5-9.4-8.7 1.9-11.7 4.1-10.9 7zm-29.6-83.6c.7 1.6 4.2 2.2 8.5 1.4-1.1-2.3-2.9-4.6-5.3-6.6-3.1 1.9-4 3.5-3.2 5.2z" fill="#f9a55d"/><g fill="#e67717"><path d="M304.2 306.8c-2.2 4.2-5 8-8.4 11.2s-7.3 5.9-11.3 8.1-8.2 4.1-12.3 6.1c-2 1-4 2.1-5.9 3.3s-3.6 2.6-5 4.4h0c-.2.2-.5.3-.7.1s-.2-.5-.1-.7c1.4-1.9 3.2-3.5 5.1-4.8s3.9-2.4 5.9-3.5c4.1-2.1 8.1-4.1 12-6.4s7.5-4.9 10.7-8.1c3.2-3.1 5.7-6.8 7.7-10.8h0c.3-.6 1.1-.9 1.7-.6.7.2 1 1 .6 1.7h0z"/><path d="M303.9 308.1c-1.1 7.4-4.2 14.4-7.9 20.7-3.7 6.4-8.1 12.2-12.1 18.2s-7.7 12.3-9.5 19.3c-.9 3.5-1.3 7-1.1 10.6s.9 7.1 2 10.6h0c.1.3-.1.5-.3.6-.3.1-.5-.1-.6-.3-1.2-3.5-2-7.1-2.3-10.8-.2-3.7.1-7.4 1-11 1.7-7.2 5.5-13.8 9.4-19.9 3.9-6.2 8.2-12.1 11.7-18.4s6.3-13 7.2-20c.1-.7.7-1.2 1.4-1.1s1.1.7 1.1 1.5z"/></g><path d="M340.4 285c-8.1.3-16.4-1.5-20.7-5.4-3.8-3.5-3.6-6.5 1-5s15.4 3.8 22.9 1.3" fill="#f9a55d"/><path d="M349.1 330.9s-.5 18.8.5 21.5c1 2.6 20.4 6.9 20.4 6.9L360 397l-58.2-32.7s15.4-8.1 17.7-13.1c2.2-4.6 2.6-31.7 2.6-31.7-7.6 1-14.9-11.1-9.9-17 5-6 11.8-1 11.8-1 17.4-11.2 19.6-29.4 19.6-29.4s10 1.9 15.3 10.2c4.1 6.5 4 15 3.9 17.8s1.9 2.5 2.3 8.7-4.4 22.3-9.7 23.8c-6.8 2-20.8-6.3-24.3-8.3" class="m"/><path d="M324.1 313c-1.4 1-8-1.4-8-6.2.1-2.9 8 6.2 8 6.2zm19.4-1.8c.8-1.5-1.7-3.8-4.4-4.4s-5.4.4-5.3 2.7c.2 3.4 8.3 4.3 9.7 1.7zm-19.5-9.7c.8 1.6 4 3.5 8 .7 2.6-1.8 14.3-11.8 11-27h0c-1.5 5.7-6 18-19 26.3zm22-28.7c2.3 4.4 10.1 12.8 15.2 14.5-.6-1.7-1.3-3.4-2.3-5-3.6-5.8-9.6-8.4-12.9-9.5zm6.9 38.8c-1-.9 2.2-5.9 4.5-3.6 1.5 1.5-3.1 4.9-4.5 3.6zm-1 12.6c1-.2 1.1-3.4-.7-2.4-1.9 1-.7 2.7.7 2.4zm-2.8 8.2c-4.6-1-9.8-3.5-13.6-5.6h0c-3.2-.7-2.8 1.2-1.6 4.8 1.7 4.7 8.2 14.6 15.1 15.7-.1-4.9 0-11.8.1-14.9zm-27-12.9s-.1 6.6-.5 13.9c6.1-8.7 2.6-14 .5-13.9zm-3 32.4h0c-3.3 5-17.3 12.4-17.3 12.4l13.4 7.5c3.5-6.6 6.7-16.6 3.9-19.9zm31 1c1.6 5.1 5.5 13.9 17.3 16.2l2.6-9.9s-16.7-3.7-19.9-6.3zM326.2 378l33.8 19 3.9-14.6c-9.3-4.8-24.3-7.6-37.7-4.4zm15.9-11.8c-2.9.3-6.7-5.7-5.2-8.9 1.8-3.8 9-2.1 9.3 1.4.4 3.4-2.3 7.3-4.1 7.5z" class="o"/><g class="p"><path d="M336.8 297.8c.8-1.2 2.6-3.3 4.5-4 1.7-.6.7-1.9-.9-1.6-2.5.6-4.1 3.5-4.5 5-.1.8.5 1.2.9.6zm22.5-8.8c-1.4-.2-3.6-.3-5.3.7-1.5.9-2.1-.9-.6-1.7 2.1-1.2 4.7-.5 5.6.1.5.5.5 1 .3.9z"/><ellipse transform="matrix(.9811 -.1935 .1935 .9811 -51.971 71.8215)" cx="341.8" cy="302" rx="1.3" ry="1.8"/><path d="M340.4,301.9c0-1.5,1.3-2.9,3-2.9c0,0-1.2,1.2-1.3,2"/><ellipse transform="matrix(.9811 -.1935 .1935 .9811 -50.73 74.3545)" cx="355.4" cy="296.9" rx="1.3" ry="1.8"/><path d="M354,296.8c0-1.5,1.3-2.9,3-2.9c0,0-1.2,1.2-1.3,2"/></g><path d="M354 304.2l3.1 2.6m-41-1.1c4 1.4 7.7 6.5 8.4 7.5m-7.7-1.8s2.7-.2 3.9-1.3" class="e f g h i l"/><g stroke-width=".5" class="e f"><path d="M345.7 316.5c0 .6 2.3 3 5.7 2.9 3.7-.1 3.1-3.4 1.2-2.7" fill="#ef4d22" stroke="#ef4d22" class="g"/><path d="M351.7 316.4c-1-.8-2.7-.8-4.2-.5-1 .2-2.1.4-1.8.5.6.3 3.7 1.1 6.2.9 2-.2 3-1.1 2.8-1.5-.3-.3-1.8-.6-3 .6z" fill="#d93f16" stroke="#d93f16"/></g><g fill="#ffe0c5"><path d="M309 421s-6.8 53.7-8.1 54.6-12.6 5.7-29.8 2.5c-17.1-3.2-34.3-21.5-33.6-23 4.6-10.2 32.4-63.6 40.2-74.8 7.7-11.2 30.7-24.7 33.7-24 3 .8 47.1 37.1 47.1 37.1s6.8-22.3 8.1-35.8c.1-1.5 13.4 2.9 21.9 6s18.2 14.5 27 33.4 19.5 41.9 19.5 44.2-17.1 19.5-40.5 18.7"/><path d="M406.2 417.8c3.4 15.6-6 28.5-7.5 31.2-1.6 2.8-6 37.6-6.2 39.4-.3 1.8-22.6 15.1-54.1 10.2-31.6-4.9-41.1-14-42-15.3s.9-3.6 2.1-12.1l7.7-53.5"/></g><path d="M406.6 420.3c2 14.5-6.5 26.1-8 28.7-.5.9-1.3 5.3-2.2 10.9 13.9-.1 25.4-6.5 32.1-11.8-3.8-13.3-21.2-33.3-21.9-27.8zm-129-40l-2.5 3.9c10.7 1.4 35.2-9.7 40.1-25.3-2-1.5-3.4-2.4-3.9-2.6-2.9-.7-25.9 12.8-33.7 24zm88.9-22.7l-1 7.3c5.8 3.4 15.5 3.7 23.5-1l-.6-.3c-8.5-3.1-21.8-7.4-21.9-6zm35.9 75.3c-6.9-1.2-12.6 1.6-14.1 7.8-1.2 4.9 1.5 10.2 5.7 13.5.6-3.7 1.2-6.5 1.6-7.2 1-1.6 4.7-6.9 6.8-14.1zm-93.8-9.2c-1.4 10.9-6.6 51.1-7.8 51.9-.4.3-1.6.9-3.6 1.5-.9 3.8-1.6 5.3-1 6.2.8 1.1 7.6 7.7 28.6 12.7 4.4-45.5-14.2-87.7-16.2-72.3zm26.4 33c-.6-6.2 7.5-11.7 14.7-14.1s13.3-1.3 14.6 1.9c1.6 3.9-1 15.2-11.3 19.5-8 3.3-17.4-2.1-18-7.3zm-27.7-43.6c2.4-.5-.6-8.7-2.2-11.4-1.7-2.8-5.2-1.9-4.6 1.3.6 3.1 4.6 10.6 6.8 10.1zm3.9 2.6c.7 1.4 3.2 1.3 3.7-.6.6-1.9-.2-5.7-1.9-5.8-1.6-.1-3 3.9-1.8 6.4zm98.2-.5c-2.3-.2-.5-9.1 2.1-9 3.4.2 0 9.1-2.1 9zm-3.3-.8c-1 .4-6.4-6.4-7.9-11.2-2.2-7 4.6-9 7.3-2.2 2.1 5.3 1.9 12.9.6 13.4zm-144.2 21.5c.9-6.4-1-12.3-4.9-18.9-8.7 16.4-17.2 33-19.5 38.2-.3.6 2.2 3.7 6.2 7.4 10.1-10 16.9-17.5 18.2-26.7zm7.3 17.8c-3.2-.8-12.8 8.1-17.1 15.7 5.6 3.9 12.3 7.5 18.9 8.7h.2c2.8-11.3 1.1-23.6-2-24.4zm105.6 34.5l.3 2-.3-2c-8.9.9-18.9 3.9-28.4 11.3 25.9 1.7 44-8.4 45.9-10.8-4.9-.7-10.9-1.2-17.5-.5z" fill="#ffd5b1"/><path d="M374.1 437.7c.6 11-1.1 42.7 1 52.5m-13.7-91.6c5.1 7.6 10.8 17.5 12.4 34.8" stroke="#ffd5b1" class="e f g h i"/><path d="M604.9 214.9c-1-7.4-5.1-11-9.7-12.6-1.3-3.2-4.5-12.6-16.4-12.5s-26 7.7-36.3 8.3-19.5 3-20.9 13.4c-1 7.6 2.6 14.6 10.4 18.1 0-1.1 0-2.3-.1-3.7-.2-5.4.7-11.3 8.8-17.2 2.7 8.8 12.7 11.2 16.2 13.6 5.7 3.8 5.6 13.1 9.1 15.7 2.7 1.9 3.9.8 3.9.8s-.7-10.3 5.2-13 12 1.1 12.2 7.5-4 12.4-4 13.7 5 13.6 16.4 15.9c0 0 .3-7 1.4-14.5 1.1-6.5 5.2-23.2 3.8-33.5z" fill="#57585a"/><path d="M521.5 214.3c.1 6.5 3.7 12.4 10.6 15.4 0-1.1 0-2.3-.1-3.7-.2-5.4.7-11.3 8.8-17.2h0c-2.5-2.6-12.5-2.8-19.3 5.5zm54.9-24.3c-11.4 1-24.3 7.6-33.9 8.2-.5 0-1 .1-1.5.1 13.3 2.3 27.3-3.3 35.4-8.3zm11.3 35.2c-5.4-8.2-18.8-12.1-33.9-4.5 1.3.6 2.5 1.2 3.3 1.7 5.7 3.8 5.6 13.1 9.1 15.7 2.7 1.9 3.9.8 3.9.8s-.7-10.3 5.2-13 12 1.1 12.2 7.5-4 12.4-4 13.7c0 .8 1.6 5.1 5.1 9.1 1.8-7.5 5-22.1-.9-31zm17-11.6c-1.3-6.5-5.1-9.8-9.5-11.3-2.3 4.5 1.3 12.5 9.5 11.3z" fill="#4b4b4d"/><path d="M573.3 199.3c-4.2.9-24.3 5.4-32.5 9.5-.1.1-.2.1-.3.2.1-.1.2-.2.3-.2.9 2.9 2.6 5.1 4.5 6.8 7.3-2.5 27.2-11.9 29.3-13.1 3.2-1.8 1.6-3.9-1.3-3.2zm15.2-2.1l3.8-.9a13.71 13.71 0 0 0-3.1-3.3c-.7.4-1.3.6-1.7.8-2.7 1.5-2.6 4 1 3.4zm-61.9 5.4c-2.2 1.7-3.9 4.1-4.6 7.4 3.4-.9 5.7-4.6 4.6-7.4zm73.3 36.1c-1.5 7.6-1.8 18.6-1.5 23.9l1.4.3s.3-7 1.4-14.5c.6-4.4 2.7-13.5 3.6-22.1-2.8 2.6-3.8 6.5-4.9 12.4z" fill="#737478"/><path d="M560.1 265.7c0 6.8-.6 17-1.7 19.3s-30.1 15.3-30.1 15.3S575.7 322 623 292c-4.7-2.1-17.1-8-18.1-9.8-1.1-1.8-5-19.3-5-19.3-11.4-2.2-16.4-14.5-16.4-15.9 0-1.3 4.2-7.4 4-13.7s-6.3-10.2-12.2-7.5-5.2 13-5.2 13-1.2 1.1-3.9-.8c-3.6-2.6-3.4-11.9-9.1-15.7-3.5-2.4-13.5-4.8-16.2-13.6-8.1 5.9-9.1 11.8-8.8 17.2.2 5.4.1 7.4-1.4 10.9-1.6 3.5-6.7 8.9-6.9 10.5-.5 3.2 3.5 3.2 8.1 4.2 1.2.2 1.4 7.3 3.2 14.5 3 12.2 12.1 10.7 18.3 7.5 6.6-3.5 13.4-7.9 15.2-9.8 1.4-1.4 1.7-3.4 1.7-5.4" class="j"/><g class="k"><path d="M564.9 236.7c-2.4-3.6-2.9-11-7.9-14.3-.9-.6-2.4-1.3-4-2 .5 7 6.3 15.2 11.9 16.3zm11.1 3c-1.9-.6 2.8-9.1 4.7-8.4s-3.1 9-4.7 8.4zm-35.2 23.8c1.8-.1.6-3.6-1-2.8-1.5.8-.9 2.9 1 2.8zm31.8-6.2c-.9-1.3-2.8-1.2-2.5 1 .1 2-.3 4-1.7 5.4-1.2 1.2-4.4 3.5-8.3 5.9-.2 6.3-.7 13.6-1.6 15.4-.2.3-.9.9-2 1.6 4.7-1.3 10.1-3.7 13.7-7.9 5.8-7.2 5.6-16.6 2.4-21.4z"/><path d="M571.6 254.4a.94.94 0 0 1-1-1v-1.6a1 1 0 1 1 2 0v1.6a.94.94 0 0 1-1 1zm-30.8-45.6h0c-8.1 5.9-9.1 11.8-8.8 17.2 0 .5 0 .9.1 1.3 5.6-.9 11.8-7.6 8.7-18.5zm-17.1 38.6c-.5 3.2 3.5 3.2 8.1 4.2-.2-2.9-4.4-4.8-8.1-4.2zm81.1 34.8c-.7 4.7 2.4 11.4 8.7 15.2 3.2-1.6 6.3-3.3 9.5-5.3-4.7-2.2-17.1-8-18.2-9.9z"/></g><g class="p"><ellipse transform="matrix(.027715 -.9996 .9996 .027715 288.5883 767.6562)" cx="538.9" cy="235.5" rx="1.8" ry="1.3"/><path d="M540.2 235.1c-.2-1.9-2.2-2.2-3.6-1.3 0 0 1.7.4 2.1 1.1"/></g><path d="M538.6 254.4c1.6-.3 3.1-.8 4.4-1.7 1.4-.9 2.6-2 4-3.1h0c.4-.3 1.1-.3 1.4.2.3.3.3.8.1 1.2a12.08 12.08 0 0 1-4.1 4c-1.7 1-3.8 1.6-5.8 1.4-.6-.1-1-.5-.9-1.1.1-.5.5-.9.9-.9h0z" fill="#f76944"/><path d="M542.3 226.7c-1.6-.5-3.9-1-5.9-.6-1.7.3-2-1.8-.4-2.2 2.4-.7 5.8.6 6.9 1.8.5.4.2 1.2-.6 1z" class="p"/><path d="M650.8 383c4.1 33.3 18.8 62.1 33.7 86.5 16.4 26.9 49.5 73.2 51.7 70.7 8.5-14.3 31.4-29.9 31.4-29.9s-10.3-24.3-20.5-44c-10.2-19.8-23-36.5-27.7-46.5s-22.6-65.4-29.3-83.8c-6.7-18.3-21.2-27-34.2-33-13.1-6-40.8-18.5-42.5-18.2-1.7.4-14.1 12.2-40.2 13.5s-33.2-5.6-35.9-5.1c-2.1.4-29.3 14.5-37.6 20.6-8.3 6-9.4 12.1-13.2 27.7-3.8 15.7-16.6 85.9-18.9 93.2s-29.1 47.6-47.9 91.6c-.9 2.1 8.1 10.8 19.9 15s19.4 4.8 21.7 3.9 37.9-63.3 46.5-80.3c6.3-12.4 14.5-33.1 14.5-33.1" fill="#ffb87f"/><path d="M655.5 337.5c-6.9 13.4-6.4 28.3-5.7 34.3M586 493.9c4.6-.6 10.9-1 18.6-2.8" stroke="#ffad65" class="e f g h i"/><path d="M504.6 380.7s7.5 20.3 10.1 45.7c1.7 16.7 2.2 70.4 2.5 78.3s3.9 19.1 7.3 21.1 18.7-.7 48.8-9.6c30.2-8.8 84.9-24 85.1-30.7.1-6.6-5.2-10.9-4.9-13 0 0 4.2-1 4.6-4.5.7-5.5-4-9.1-3.5-12.4s6.9-37.7 6.9-37.7l12.5-62.4" fill="#ffb87f"/><path d="M687.6 370.3c4.2 10.9 15.8 23.3 23.5 26.9l-16.9-49.8c-7.5 7.7-9.8 14.5-6.6 22.9zm-41.9-71.9c-13.7-6.2-31-13.8-32.3-13.5-.7.1-3 2.1-7.3 4.5 7 12.9 29 11.1 39.6 9zm-101.2-2.9c-4-1.3-6-2.5-7.1-2.2-1.8.3-21.1 10.3-32.3 17.1 16.8 4.7 36.5-2.9 39.4-14.9zm-28.7 152.3c-.3-8.9-.7-16.6-1.2-21.4-1.4-13.3-4.1-25.2-6.3-33.5-8.9 14-15.6 27.3-13.7 43.6 1.3 11.5 6.3 27 9.5 35.9 1.6-2.9 2.9-5.4 3.8-7.3 2.5-5.1 5.4-11.5 7.9-17.3zm-9.9-70.7c2.9-.4 2.2-6 1.6-10-.5-4-1.8-13.9-4.2-20.1-1.6-4.2-5-5-7-2.4s.1 7.4 2.2 13 3.1 20.1 7.4 19.5zm-6.2 1.1c3-.4.5-5.8-.8-8.7s-2.6-6.5-3.9-6.4c-1.4.1-2.3 4.4 0 9.8 2 4.8 3.4 5.5 4.7 5.3zM470 451.3c2.7-4.8 3.1-9.9-2.2-17.2-.1.3-.1.5-.2.7-1.1 3.4-7.4 13.9-15.7 28.5 6.6-3.3 16.1-8.4 18.1-12zm-22.3 92.6c7.3 1.9 12 2.1 13.7 1.4 1.3-.5 12.7-19.7 24.1-39.7-12.7 10.8-31.3 17.9-37.8 38.3zm70.2-32.7c1.3 6.5 4 13.1 6.5 14.6 2.8 1.6 13.2.1 32.9-5.1-6.2-8.3-17.7-13.3-39.4-9.5zm140.4-25.7c0-1.1-.1-2.2-.4-3.2-16.1 4.6-29.6 13.4-37 19.7 20.4-6.4 37.4-12.8 37.4-16.5zm-47.6 3.7c6-.3 27.6-12.7 42.7-16.6 0 0 4.2-1 4.6-4.5.1-.7.1-1.3 0-1.9-1.6-.3-3.5-.5-5.7-.5-19.3-.1-45.1 23.7-41.6 23.5zm40.8-101.4c-6 8.1-13.2 29.1-14.7 38.4-1.3 8.8 8 21.1 17.8 29.5.4-2.6 4.4-24 6.1-33.4-4.1-10.9-7.3-22.4-9.2-34.5z" fill="#ffad65"/><path d="M702.6 413.6c3.5 3.2 11.7 8.8 11.7 8.8m-198.5 25.4c-.3-8.9-.7-16.6-1.2-21.4-2.6-25.4-10.1-45.7-10.1-45.7m146.3 2.3c1.7 13.9 5.3 27 9.9 39.3" stroke="#ffad65" class="e f g h i"/><path d="M625.3 339.5c-2-3.6-5.3-6.2-9.2-7.4-8.2-2.4-16.7 2.3-19.1 10.5s2.3 16.7 10.5 19.1c1.4.4 2.9.6 4.3.6 2.6 0 5.1-.6 7.4-1.9 3.6-2 6.2-5.3 7.4-9.2 1.1-3.9.6-8.1-1.3-11.7zm-.2 11.4c-13.4-2.3-21.2 2.2-24.3 4.7-.2-.3-.4-.5-.6-.8 2.5-2.1 11.1-8.4 25.4-7 0 1-.2 2-.5 3.1.1-.1 0 0 0 0zm-23.3 5.8c2.9-2.3 10.3-6.5 22.8-4.4-.4.9-.9 1.8-1.4 2.6-11-2.3-17.5.3-20.7 2.5l-.7-.7zm15-10.3c3.1-3.1 6.9-3.6 8.3-3.7.4 1.2.6 2.4.6 3.6-3.3-.2-6.3-.2-8.9.1zm-5-13.4a13.2 13.2 0 0 1 3.9.6c3.6 1 6.5 3.4 8.3 6.7.2.4.4.7.5 1.1-2.1.2-6.7 1.1-9.9 5.5a32.48 32.48 0 0 0-7.4 2.2c.4-1.3.9-2.4 1.5-3.4.4.1.9.1 1.3.1 2.1 0 4.1-.8 5.4-2.3 1.8-2 2.3-4.8 1.5-7.5l-.1-.4-.4-.1c-2.8-.6-5.6.1-7.4 2.1-1.8 1.9-2.3 4.7-1.5 7.5-.8 1.3-1.5 3-1.9 4.9-2.9 1.4-4.9 2.9-6 3.8-.1-.2-.2-.5-.4-.7 7.9-6.1 5.9-14.9 5.1-17.6 2.2-1.7 4.8-2.5 7.5-2.5zm-.7 8.3l-.5-.5c-.1.1-.9.8-2 2.1-.2-1.7.3-3.3 1.4-4.5 1.3-1.4 3.3-2 5.3-1.7.5 2 .1 4.1-1.2 5.5-1.1 1.2-2.8 1.9-4.6 1.8 1-1.4 1.9-2.1 1.9-2.2l-.3-.5zm-8.1-5.2c.8 2.8 2 10-4.4 15.3-.1-.3-.2-.6-.3-1 3.6-4.4 3.7-9.3 3-12.7.5-.5 1.1-1.1 1.7-1.6zm-4.6 7c.4-1.3 1-2.6 1.7-3.7.3 2.6 0 5.9-2.1 9.1-.3-1.8-.2-3.6.4-5.4zm9.5 17.2c-.4-.1-.8-.2-1.2-.4 2.5-.9 6.1-1.4 11.2-.5-3.1 1.6-6.6 1.9-10 .9zm11.9-2c-7.3-1.6-12-.6-15 .8-.4-.2-.8-.5-1.1-.7.8-.5 1.9-1.1 3.1-1.5 3.1-1.1 8.1-2.1 15.3-.7-.6.8-1.4 1.5-2.3 2.1z" fill="#545557"/><path d="M845.7 740.8H54.3" class="e f g h i n"/></svg>