<svg xmlns="http://www.w3.org/2000/svg" viewBox="0 0 900 800" xmlns:v="https://vecta.io/nano"><style><![CDATA[.T{stroke-linejoin:round}.U{stroke-miterlimit:10}.V{stroke-linecap:round}.W{fill:none}.X{stroke-width:2}.Y{stroke:#f78669}.Z{fill:#f7ae9b}.a{fill:#f7bfb1}.b{stroke:#57585a}.c{fill:#80c0b2}.d{fill:#4fa592}]]></style><g class="T U V W X b"><path d="M301.9 146.6H260m56.4 0h-7.8m191.5 0H323.8m191.2 0h-8m187 39.3v-39.3H547.3M694 532.5v-15.6m0 32.8v-8.9M623.4 692H694V556.2M582.9 692h14.3m-214.9 0h192.2m-230.2 0h6.4m-13.7 0h-93.8v-46.9m420.8-81v-23.3M652.1 662H664v-92m-385.6 92h368M320.2 176.6h-18.3m289.7 0H329.1m305.3 0h-5.7M664 385.2V176.6h-23.7m53.7 203v-84.5m-396-48.4v305.8m0-317.5v5.9m-21 408.9l21 11.6v-56.5M178.7 468.4v126.8l89.9 49.9m-89.9-222.2v13.9m0-171v148.4m0-203.4v30.1m0-71.8v12.4m109.1-12.7L178.7 108v51.7M298 210.5v-36m-98.3 370.8v21.6l77.3 42.9v-33.1m-77.3-354.1v310.7"/><path d="M199.7 203.7v11.4m77.3 31.6v-43.9l-77.3-43.1v34.8m77.3 358V258.6M154 529.4v65.8h24.7M154 493.8V506m0-200.7v182.3m0-341V235m0-118.7v15.6m24.7-23.9H154m0 487.2l121.8 67.7m384.3-456h-331m-31.1-21l22.2 21m6.9 280.7V215.1m0 291.2v-8.9m0 55.1v-11.7M599 211.6V232H490.7v-20.4"/></g><g fill="#57585a"><circle cx="592.8" cy="225.2" r="1.2"/><circle cx="496.9" cy="225.2" r="1.2"/></g><g class="W X b T"><g class="U V"><path d="M396.6 536a211.67 211.67 0 0 1-3.3 10.5m10-319.4c-52.7 82.9 2.3 147.5 2.9 241.3m5.4-253.3l-4.3 5.9m-45.1 156.9c13 79.2-33.2 138.9-33.2 138.9m60.7-299c-40.5 38.3-39.1 83.6-31.7 133.4m33.8-87.4h75.5v170h-60m53.1-86h-72.8"/><path d="M449.1 343.6v8.4m-11-8.4v8.4m-11.1-8.4v8.4m-11.1-8.4v8.4m-11-8.4v8.4m-11.1-8.4v8.4"/></g><path d="M442.7 388.9h12.5v14.3h-12.5z" class="U"/><path d="M442.7 374.6h12.5v14.3h-12.5z" class="U"/><path d="M442.7 360.3h12.5v14.3h-12.5zm-12.5 28.6h12.5v14.3h-12.5z" class="U"/><path d="M430.2 403.3h12.5v14.3h-12.5zm0-28.7h12.5v14.3h-12.5z" class="U"/><path d="M430.2 360.3h12.5v14.3h-12.5zm-12.5 28.6h12.5v14.3h-12.5z" class="U"/><path d="M417.7 403.3h12.5v14.3h-12.5zm0-28.7h12.5v14.3h-12.5z" class="U"/><path d="M417.7 360.3h12.5v14.3h-12.5z" class="U"/><path d="M405.2 399.3v-10.4h12.5v14.4m-9 0h9v14.3h-6.2" class="V U"/><path d="M405.2 374.6h12.5v14.3h-12.5z" class="U"/><path d="M405.2 360.3h12.5v14.3h-12.5z" class="U"/><g class="V U"><path d="M396.4 374.6h8.8v14.3h-5.6m-6.8-28.6h12.4v14.3m-87.3 272.7l2 5.4c2.1 5.6 7.5 9.3 13.5 9.3h6.2m-26.1-26.3l2 5.3m-24.9-66.4l22 58.5M447.4 662l-37.3-99.2c-2.1-5.6-7.5-9.3-13.5-9.3H290.9c-4 0-6.8 4-5.4 7.8l3.3 8.7m75.1-5.5l-2.4-6.3m6.1 16.1l-2.2-6"/><path d="M392.1 639.5l-22.9-61.1m-11.5-16.1h-62.6l30.3 80.5h42.3m18.6 9.9h13.3m-79.7 0h33.8M339 597.9c2.7 5.4 9.4 5 7.2-4.7-.9-4.2-2.4-7.3-4-9.5"/><path d="M338.8 593.5c.1-1.6-2.5-4.8-1.8-6.2.9-1.7 4.8-2.5 6-4.5s.8-4.8-5.6-2.8-8.7 5.8-3.6 12.4"/><path d="M335.8 597.1c-1.8-.2-2.8-2.6-2.1-4.6.5-1.3 2-1.7 4.5-.9m-2.3 6.1l1.6 7.4c.3 1.2 0 2.5-.8 3.5l-7.7 9.6c-.6.8-.9 1.7-.9 2.6v17.1m18.5-35.4l16.5 7.5c1 .5 1.8 1.3 2.2 2.3l9.4 22.3m-27.6-28.3l4.1 18.3m.3-16.2l5.7 31.1m6.9-10.5c.1 3 .7 6.5 2.2 9.9m-1.6-17.5s-.4 1.7-.6 4.4m-12.8 12.1l1 2.1m-14.6-32.4l12.6 28.1m-3.7-.2L334.3 615m1.4 19.6l1.5 4.3m-5.8-13.4c1 1.5 2 3.6 2.9 5.6m39.8-13.3l-1-2.9m-40.3-17.2h-3.1c-6.2 0-10.5 6.2-8.3 12l4.8 12.7m45.5-11.2L369 604a9.86 9.86 0 0 0-9.2-6.4h-13.1"/></g><ellipse transform="matrix(.936 -.3519 .3519 .936 -177.4986 168.3711)" cx="374.4" cy="572.5" rx="1.7" ry="3.5"/><ellipse transform="matrix(.936 -.3519 .3519 .936 -182.2208 171.1979)" cx="379.8" cy="586.9" rx="1.7" ry="3.5"/><ellipse transform="matrix(.936 -.3519 .3519 .936 -186.9431 174.0247)" cx="385.2" cy="601.3" rx="1.7" ry="3.5"/><ellipse transform="matrix(.936 -.3519 .3519 .936 -191.6653 176.8515)" cx="390.7" cy="615.7" rx="1.7" ry="3.5"/><path d="M404.7 615.7H421m-21.5 0h2.6m9.3-14.4h4.2m-21.5 0h12.7m-18.1-14.4h11.7m-7.2-14.4h11.5m-21.4 0h6.4" class="U V"/></g><path d="M525.6 439.3c.2 5.7-.8 11-2.4 15.9 7.4 18.1 25.5 23.7 31.8 25.1v-60.2l-29.4 19.2z" fill="#ffdabc"/><path d="M523.2 455.2c-5.7 17.7-18.7 31.5-10.3 46.4l42.1-18.5v-2.8c-6.3-1.4-24.4-7-31.8-25.1z" fill="#ffe0c7"/><path d="M543.8 430.5s6.5 25.4 6.5 31.9-28.9 30.9-34.7 36.4c-9.4 9-10.7 15.3-15.7 39.6s-12.2 69.7-12.2 69.7l-23.6-68.3c-1-5.3-4-34.8-9.3-40.3-3-3.1-9.6-6.5-15.2-9.6-4.3-2.4-7.9-5-8.7-4.7-1.4.6-2 7.8 3 12 5 4.3 10.8 6.8 11.7 10.5 0 0-8.2-7.1-17-6.2 0 0-9.6 24.2-6.8 28.1l5.8 2.3s2 7.3 7.1 10.8c5.2 3.5 10.5 3.6 11.8 14l14 103.8 172.5 2c1-12.4 10.9-95.4 5.5-134.2-5.5-39.6-23.3-51.8-23.3-51.8" class="a"/><path d="M445.7 507.8s-8.2-7.1-17-6.2c0 0-5.3 13.3-6.9 21.8 7.2 8.5 18 10.4 24.8 8.5-4.2-7.8-3.5-17.9-.9-24.1zm6.4 38.7c-1.5-5.5-10.7-6.8-15.5-2.6 4.5 2.6 8.8 3.7 10 12.9 0 .3.1.7.2 1.2 3.2-2.5 6.5-6.9 5.3-11.5zm31.2 90.1c-8.2-26.3-21.3-45.6-33.2-54.1l10.5 78 21.4.2c3-6.3 4.3-14.3 1.3-24.1zm46.3-14.6c-.5-2.9-1-5.1-1.6-5.7-2.7-2.9-11.4-10.7-14.6-22.1-1.3-4.7-1.8-12-.8-20.7 0 0-9.8-2-18.3-5.2l-2.8 16.2c8.5 23.6 21.2 38.8 38.1 37.5zm-99.3-135.5c-.7 2.3-.2 7.4 3.7 10.8 4.3-1.7 1.3-9.4-3.7-10.8z" class="Z"/><path d="M488.6,610.2c4.8,10.5,7.1,19.8,7.1,23.3" class="T U V W X Y"/><path d="M556.2 474c-.6-26.5 10.6-57.2-1.6-81.5-9.3-18.5-34.4-12.3-41.8-34-8.9 7.3-13.6 15.6-12.8 25.1.6 6.6 4 13.1 3.6 18.3s-1.6 11.8 5 22.5 11.5 15.8 13 17.2c2 1.7 6.9 3.6 12.4-.6 3.3-2.5 7.2-5.6 10.2-8.2 1.6 6.3 6 24.4 6 29.7 0 6.5-28.9 30.9-34.7 36.4l46.3 16.3c9.7-15.8-5.2-23.9-5.6-41.2z" class="a"/><path d="M638.7 528.3c-4.7-33.4-18.1-47.4-22.1-50.9-18.6 6.1-41.1 13.3-51.4 15.7-17.1 4-26.1-1.8-32.2-10l-17.3 15.7c-9.4 9-10.7 15.3-15.7 39.6l-5.6 29.8c8.5 3.2 18.3 5.2 18.3 5.2-1 8.7-.5 16.1.8 20.7 3.2 11.4 11.9 19.2 14.6 22.1s4.6 37.1 4.6 37.1v7.9l100.6 1.2c.9-12.3 10.8-95.3 5.4-134.1z" fill="#f76944"/><path d="M551.6 424.7c-.4 1-1.2 2.3-2.7 3.9-.9 1-2.6 2.5-4.6 4.2l4.1 17.5c7.6-12 5.5-25.6 3.2-25.6zm-21.6-12c-6.9-5.4 7.2-17.8 11.6-12.8 4.6 5.2-5.5 17.5-11.6 12.8zM516.8 366c-1.6-2.1-3-4.5-4-7.5-8.9 7.3-13.6 15.6-12.8 25.1.1 1.1.3 2.3.5 3.4 6.9-4.8 13.8-13.7 16.3-21zm43.2 47c-.6-7.1-2.2-14-5.4-20.5-.6-1.1-1.2-2.2-1.9-3.1-4.2 9.4-1.5 19.3 7.3 23.6z" class="Z"/><g stroke="#161719" class="T W X"><ellipse transform="matrix(.9841 -.1775 .1775 .9841 -62.8685 99.6271)" cx="525.4" cy="401.2" rx="9.7" ry="13.3"/><path d="M516.2 404.3c-3-2.9-6.4-1.1-7.1 1.8m25.8-6.6l19.8-10.6" class="U V"/></g><path d="M601.6 414c-23.1-16.3-11.8-43.7-23.4-60.6s-39.7-6.3-58.6-4.9c-21.2 1.5-27.1 11.3-29.8 18.7-2.6 7.2-3.6 24.3 13.9 34.8.4-5.2-3-11.7-3.6-18.3-.8-9.5 3.9-17.8 12.8-25.1 7.4 21.7 32.5 15.5 41.8 34 12.2 24.3.9 55 1.6 81.5.4 17.3 15.4 25.4 5.8 41.2-5.3 8.8-22.9 21.2-21.8 37.6 1 16.4 13.7 23.9 13.7 23.9l79.3-121.6c-1.6-15.5-8.6-25-31.7-41.2z" fill="#ffe0c7"/><path d="M591.6 403.4c-8.6-14.4-5-32.4-11.1-45.8-16.3 3.5-24.6 42 11.1 45.8zm-103.3-26.3c.3 8 3.7 17.8 15.3 24.8.4-5.2-3-11.7-3.6-18.3-.4-4.2.4-8.2 2.1-12-5.9-.2-10.5 2.4-13.8 5.5zM613 422.5c-29.4 6.2-47.9 38.5-33.7 63.2 6.5 11.2 13.9 17.3 20.5 20.4l33.3-51.1c-1.1-12.4-6-21-20.1-32.5z" fill="#ffdabc"/><g fill="#161719"><path d="M527.8 382.7c-1.5-.2-6.1-.1-8.1.7-1.8.7-1.9-1.5-.3-2.3 2.5-1.2 5.4-.7 7.4.1 1.3.4 1.8 1.6 1 1.5zm-25.6 6.2c1.2-1 2.5-1.8 4.5-2.4 1.8-.6.8-2.7-.9-2.1-2.5.8-3.3 2.1-3.8 3.1-.2.8 0 1.6.2 1.4z"/><ellipse transform="matrix(.9572 -.2895 .2895 .9572 -92.6573 169.5133)" cx="526.7" cy="398" rx="1.3" ry="1.8"/><path d="M527.8 397.2c-.7-1.3-2.5-1.9-4-1.1 0 0 1.6.5 2.1 1.2"/><ellipse transform="matrix(.9572 -.2895 .2895 .9572 -94.6763 164.12)" cx="507.5" cy="402.1" rx="1.3" ry="1.8"/><path d="M508.6 401.4c-.7-1.3-2.5-1.9-4-1.1 0 0 1.6.5 2.1 1.2"/></g><path d="M517.7 417.3c.7-1.5-5.3-5.2-6.6-1.7-.9 2.3 5.7 3.7 6.6 1.7z" class="Z"/><g class="T U V"><path d="M513.8 409.9l-2 4.3" class="W X Y"/><path d="M529.9 419.7c.3.6-.9 5-5.3 6.7-4.8 1.8-6.2-2.6-3.6-2.9" fill="#ef4d22" stroke="#ef4d22" stroke-width=".5"/></g><path d="M522.1 422.7c1-1.2 3.3-2.1 5.3-2.6 1.4-.3 2.8-.7 2.5-.4-.7.6-4.3 2.9-7.7 3.9-2.6.8-4.3.5-4.1 0 .2-.4 2-1.4 4-.9z" fill="#d93f16" stroke="#d93f16" stroke-width=".5" class="T U"/><path d="M527.7 431.1c2.3-.9.5-3.9-1.4-3.2-3.3 1.2-.8 4.1 1.4 3.2z" class="Z"/><ellipse transform="matrix(.9841 -.1775 .1775 .9841 -63.9147 95.8126)" cx="503.5" cy="405.1" rx="8.1" ry="13.3" stroke="#161719" class="T W X"/><path d="M425.5 494.7c9-1.1 9.7 8.6 9.8 13.4s-12.2-2.1-12.2-2.1" fill="#fff"/><path d="M428.5 525.8c5.8 6.2.5 9.7-5.6 5-5.1-3.8-4.2-7.3-2.1-8.9" class="a"/><path d="M428.5 525.8c5.8 6.2.5 9.7-5.6 5" class="T U V W X Y"/><path d="M425.2 524.8c5.8 6.3 9.4 2.3 5.2-4.1-3.4-5.3-6.7-5.8-8.5-3.8" class="a"/><path d="M425.2 524.8c4.2 4.5 7.2 3.7 7 .5" class="T U V W X Y"/><path d="M425.6 517.5c4.8 7 9 3.7 5.8-3.3-2.6-5.8-5.8-6.7-7.9-5" class="a"/><path d="M425.6 517.5c4.1 5.9 7.6 4.5 6.8-.3" class="T U V W X Y"/><path d="M427.6 510.5c4.8 7 9 3.7 5.8-3.3-2.6-5.8-5.8-6.7-7.9-5" class="a"/><path d="M427.6 510.5c4.8 7 9 3.7 5.8-3.3-2.6-5.8-5.8-6.7-7.9-5" class="T U V W X Y"/><g fill="#fff"><ellipse transform="matrix(.9927 -.121 .121 .9927 -60.8424 53.6835)" cx="411.6" cy="527.8" rx="15.2" ry="5.2"/><path d="M426 488.5c3.5 5.4 4.1 30.6.3 38.9l-29.2 3.6c-5.7-7.1-11.2-31.8-9-37.8"/></g><path d="M389.7 511.5c1.7 7.4 4.3 15 7.1 18.9.1.2.2.4.4.5v.1h0c1.9 1.9 7.6 2.8 15 1.9 2.8-.3 5.3-.9 7.4-1.5-1.2-5.6-4.5-11.6-9.6-16.4-6.6-6.4-14.7-9.1-20.3-3.5z" fill="#e7e8ec"/><ellipse transform="matrix(.9927 -.121 .121 .9927 -56.53 52.89)" cx="407.2" cy="491.9" rx="19.4" ry="6.1" fill="#d0d2da"/><path d="M441 500.4c0-1.9 1.1-3 1.1-3m6.4 6.6s-1.5.7-2.8 3.8c-3.1 7.3-3.5 20.2 3.8 28.1" class="T U V W X Y"/><path d="M382.6 645.2s-.7 8.9-.7 11.3 3.1 3.2 5 .5c1.8-2.8 3.6-9.3 2.9-13.1" class="Z"/><path d="M606.8 574.3l-40.4 74.8c-5.8 9.7-11.7 12.5-21.8 12.3l-84-.9c-9.9 0-23.4-1.2-40-1-14 .2-24.2-17-24.9-17.1l-12.5-2.2s-15 11.2-19.5 13.5c-4.4 2.3-8.7-.3-6.5-2.3 2.2-2.1 24-23.2 28.8-26.5 4.8-3.2 8.8-.1 8.8-.1 6.2-4.4 9.7 0 9.7 0 3.2-.5 6.1.3 13.1 5.7 8.4 6.5 12.2 11.9 28.2 10.3 13-1.4 86.7-17 86.7-17L579 520.4l27.8 53.9z" class="a"/><path d="M485.7 633.4l46.8-9.7" class="T U V W X Y"/><path d="M584.3 616.4l18.7-35c-10.5-6.9-27.7-18-40.1-25.2h0c-.5 22.6 9.1 47 21.4 60.2zm-98.6 44.3h0l58.8.8c3.7.1 6.8-.3 9.5-1.2-12.6-15.8-50.9-13.6-68.3.4zm-61.8-1.2c9.5 0 17.9.4 25.2.7-8.5-8.1-15.9-9.5-25.2-.7z" class="Z"/><path d="M430.2 657.6s3.8-2 4.8-5.5M397.4 641c1.6-1.5 2.2-3.1 2.2-3.1" class="T U V W X Y"/><path d="M363.7 653.7c1.7-.9 5.1-3.2 8.6-5.7 1.8-4.3 2.8-8.9 1.4-12.3l-16.5 15.7c-2.2 2 2.1 4.6 6.5 2.3z" class="Z"/><path d="M395.7 642.4c-.8-.1-10.1 3.6-12.6 4.9s-9.5 9.5-13.2 11c-3.8 1.6-6.2-.1-4.7-2.3 1.6-2.2 10-13.9 11.7-15.2s16.3-10.8 16.3-10.8" class="a"/><path d="M373.5 644.8c-3.1 4-7.2 9.7-8.3 11.2-1.6 2.2.9 3.9 4.7 2.3 3-1.3 8.2-6.8 11.3-9.6-.6-2.1-2.6-4.1-7.7-3.9z" class="Z"/><path d="M394.2 642.8c-2.9 1-9.2 3.5-11.1 4.6m-6.2-6.5c1.7-1.3 16.3-10.8 16.3-10.8m-7.3 0l-7.2 5.6" class="T U V W X Y"/><path d="M386.3 624.6c2.2 1.5 5.4.9 6.8-.8-1.5-.5-4-.9-6.8.8zm8.5.1c1.6 1.8 6.2 1.3 7.3-1.6-1.7-.5-4.2-.6-7.3 1.6zm9.7.1c.3 3.1 4.2 3.1 6.7 1.4-2.8-1.6-4.7-1.7-6.7-1.4z" class="Z"/><path d="M602.9 494.2c-10.7 1.9-17 11-23.8 26l-16.2 36c19 11.1 49.5 31.4 49.5 31.4 32.1-78.3 2.1-95.4-9.5-93.4z" fill="#f76944"/><path d="M512.9 501.7c-7 7.7-8.5 15.1-13 36.8-.3 1.2-.5 2.5-.8 3.9 14.2-4 21.6-21.7 13.8-40.7zm110.4 53.2c1-18.6-4.6-37.5-21.3-23-10.5 9.1-19.6 23.4-25 32.8l35.4 22.8c5-12.3 8.6-23.1 10.9-32.6zm-97.5-10.6c-2.2-3.2-4.7.3-6.7 4.8-3.7 8.9-5.7 17.6-6.5 25.2 11.4-.1 16.6-25.1 13.2-30zm113 53.8c-13.6-.7-27 11.7-40.1 41.5-4.6 10.4-7.5 17.5-9.2 22.4l43.7.5c.5-6.7 3.7-34.3 5.6-64.4z" fill="#f78162"/><path d="M614.1 441.4c-23.7-10.2-6.3-31.6 20-38.3 27.5-7.1 49-4.4 49-4.4-18.9-19.3 7.7-36.1 47.2-54.9s73.6-22.5 83.5-14.3 10.1 38.8-10.4 85.5-47.7 69.1-64.1 69.3-17.4-25.6-17.4-25.6c-6.2 23.6-25.1 47.3-44.2 63.2-13 10.8-32.3 18.8-34.1-4.8-1.7-23.6 14.1-41 14.1-41s-25.6 21.4-48.7 25.4c-51.7 9.1-46.2-19-30.6-36.9 15.8-18 35.7-23.2 35.7-23.2z" class="c"/><path d="M661.5 424.7c24.1-1.4 47-16.7 21.6-25.9 0 0-21.5-2.7-49 4.4-1.9.5-3.7 1-5.4 1.6.5 15.5 11.3 21.1 32.8 19.9zM626.8 466c-22.7 9.8-36.3 23.7-36.2 37.4 5.1.1 11.3-.5 18.5-1.8 23-4.1 48.7-25.4 48.7-25.4 11.2-11.4-4.7-21.6-31-10.2zm50.1 7.8c-10.5 22.6-5.1 38 11.2 38.8 15.2-15.1 28.8-34.4 33.8-53.7.5-23.7-33.3-10.3-45 14.9zm75.4-78.1c5.3 28.3 31.7 29.9 52.4 16.5 19.3-45.1 19-74.6 9.2-82.7-32.3-4.4-67.6 34.1-61.6 66.2z" class="d"/><g class="T U V W X b"><path d="M654.2 453.3c-20.4 10.7-39.9 18.8-57 22.9m225.6-160.8c-15.1 29.7-84.8 89.8-151.3 128.3"/><path d="M701.5,379.6c20.1-13.2,69-6.8,69-6.8s1.8,55-20,84.3"/><path d="M719.7 391.2c7.7-6.5 7.7-19.2 7.7-19.2m18.6 49.9c8.7-11 22.2-14.5 22.2-14.5m26.1 2.5c-5.5-18.6-24.3-17.7-24.3-17.7m-64.7 30.3c1.9 12.9-6.8 43.7-21.9 55.9m-49-53.5c14.4-7.8 55.2-8.2 64.5 1.9m-49 4.5c6.2-6.4 8-11.7 8-11.7"/></g><path d="M167.4 360.8c5.4 16.6 19.3 34.6 32.3 45.3 6.8 5.6 21.3 12.6 29.7 0 0 0 17.2 17.2 37.9 13.2s22.7-23.9 18.5-36.9-12.4-24.5-12.4-24.5 9.4-15.4-9.8-32.7c-21.1-19.1-48.3-29.1-93.1-32.9-30.9-2.6-58.2 1.7-63.2 15.6-3.9 10.7 2.6 30.1 16.6 47.1s29.7 22.2 38.3 18.7c7.4-3.1 5.2-12.9 5.2-12.9zm-62.1-90.7c-1.3-17.5 34-25.9 51.1-24.8s32.7 7.9 31.5 21.6-16.8 19.1-41.3 19.4-40.8-9.9-41.3-16.2z" class="c"/><path d="M143.6 291.9c-18.7 1.3-32.8 6.3-36.3 15.9-3.9 10.7 2.6 30.1 16.6 47.1 6 7.2 12.3 12.4 18.2 15.6 19.3-20.3 24.1-52.4 1.5-78.6zm8.2-46.6c-18.1.4-47.7 8.8-46.5 24.9.3 4.2 7.9 10.2 20.2 13.6 19.8-9.3 26.2-23.8 26.3-38.5zm59 143.8c-6.5-12.2-24.5-17.6-32-6.2 6.2 9 13.7 17.2 20.9 23.2 2.5 2.1 6.1 4.3 10 5.7 4.6-5.1 6.1-13.2 1.1-22.7zm62.7-31.3s9.4-15.4-9.8-32.7c-7.7-7-16.2-12.7-26-17.4-15.1 15.8 20.1 49.7 35.8 50.1zM184.1 308c-13.2 6.7-13.4 23-6.2 33.8s18.5 15.2 26.2 13.8c21.9-3.9 19.7-25.3 13.4-35.3-6.2-9.9-20.2-19-33.4-12.3z" class="d"/><g class="T U V W X b"><path d="M77.2 301.4c51.8 9 138.7 40.5 182.9 83.8M154 266.5c-15.8-3.6-41-.2-56.3 14.9"/><path d="M262.5,342.2c-34-18-67.8-18.3-85.7-9.4"/><path d="M224.5 313.4c-9.3 3.8-12.8 13.9-12.8 13.9m-21 11.9c.4 14.2 13.6 47.5 29 59.5m7.7-18.9c-13.7-7-26.2-6.6-26.2-6.6m-82.9-61.9c.1 19.2 16.1 41 25.7 48.4"/><path d="M147.2 345.6c-7.4-2.3-14.8 1.7-14.8 1.7m14.8-27c3.4-5.8 9.2-12.6 18.5-15.9"/></g><path d="M708.1 285.3s-23.6 51.4-50.5 77.8c-27 26.4-50.9 30.3-34.8-12.9 8.6-23 28.1-45.5 28.1-45.5s-26 20.1-56.1 27.2c-43.9 10.4-52.5-9.8-22.2-37.6s75-41.3 75-41.3-12.9-.6-14.3-13.8 19.9-33.4 63.7-50.3c43.8-16.8 79.2-18.2 92.6-7.9 13.5 10.4 7.7 50.4-13.1 90.3s-46.5 59.5-62.2 52.2c-15.8-7.2-6.2-38.2-6.2-38.2z" class="c"/><g class="d"><path d="M708.1 285.3L694 312.4c8.7-15.3 14.1-27.1 14.1-27.1zm31-50.3c6.8 18.3 28.5 25.5 47.6 13.5 12-31.3 13.7-59.1 2.8-67.4-3.1-2.4-7.5-4.2-12.8-5.3-28.8 7-46.6 34.9-37.6 59.2z"/><path d="M676.9 233.1c1.4-9.7-11.9-19.3-33.4-13.5-7.5 7.3-11 14.1-10.4 19.7 1.4 13.2 14.3 13.8 14.3 13.8 19.4-.1 28.6-13.6 29.5-20zm26.4 11.7c-23.6 9.7-43.2 66.2-9.3 67.6h0l14.1-27.1c9.6-20.5 10.2-46.7-4.8-40.5zm-75.8 41.8c-19.5 11.6-27.5 32.6-30.7 44.8 29.2-7.5 54-26.7 54-26.7 12.1-12.1 10-37.9-23.3-18.1z"/></g><g class="T U V W X b"><path d="M801.3 174.5c-29.8 11.1-109.8 85.2-124.4 109.9m44.1 0c10.9-14.3 26.2-21.6 26.2-21.6m-13.8 43.5c11.5-21.9 20.5-61.5 15.6-95.5m-88.9 15c31.4-17.7 60.7-15.2 74-11.8m-145.3 92.3c34.3-30.3 81.7-40.1 97.1-42.1"/><path d="M611.8,315.4c8.4-15,5.7-28.9,5.7-28.9"/></g><path d="M434.6 294.1c-2.6-4.6-6.8-8-11.9-9.5-10.5-3-21.5 3-24.6 13.5-3 10.5 3 21.5 13.5 24.6 1.8.5 3.7.8 5.6.8 3.3 0 6.6-.8 9.5-2.5 4.6-2.6 8-6.8 9.5-11.9s1-10.4-1.6-15zm-.1 14.6c-17.3-3-27.3 2.9-31.3 6.1-.3-.3-.5-.7-.7-1 3.2-2.7 14.3-10.8 32.7-9-.1 1.3-.4 2.6-.7 3.9zm-30.1 7.5c3.8-2.9 13.3-8.4 29.4-5.7a22.11 22.11 0 0 1-1.8 3.4c-14.2-3-22.5.4-26.6 3.2-.4-.3-.7-.6-1-.9zm19.3-13.2c3.9-4 8.9-4.7 10.7-4.8.5 1.5.8 3.1.8 4.7-4.2-.4-8.1-.3-11.5.1zm-6.5-17.3c1.7 0 3.3.2 5 .7 4.6 1.3 8.4 4.4 10.7 8.6.3.5.5.9.7 1.4-2.7.2-8.6 1.4-12.8 7-3.7.7-6.9 1.7-9.6 2.8.5-1.7 1.2-3.1 1.9-4.4.6.1 1.1.1 1.7.1 2.7 0 5.2-1 7-3 2.3-2.5 3-6.2 1.9-9.7l-.2-.6-.6-.1c-3.6-.8-7.2.2-9.5 2.7s-3 6.1-1.9 9.6c-1 1.7-1.9 3.8-2.5 6.3-3.7 1.8-6.3 3.7-7.7 4.9-.2-.3-.3-.6-.5-.9 10.1-7.9 7.6-19.2 6.6-22.7 3-1.7 6.4-2.7 9.8-2.7zm-.9 10.7l-.6-.7c-.1.1-1.2 1-2.6 2.8-.2-2.2.4-4.2 1.8-5.7 1.7-1.8 4.2-2.6 6.9-2.2.7 2.6.1 5.2-1.6 7.1-1.5 1.6-3.6 2.4-5.9 2.3 1.3-1.8 2.5-2.8 2.5-2.8l-.5-.8zm-10.4-6.7c1 3.6 2.5 12.9-5.7 19.7-.1-.4-.3-.8-.4-1.2 4.6-5.7 4.7-11.9 3.9-16.3a22.84 22.84 0 0 1 2.2-2.2zm-5.9 9c.5-1.7 1.2-3.3 2.2-4.7.4 3.4 0 7.6-2.8 11.7a16.7 16.7 0 0 1 .6-7zm12.2 22.2c-.5-.1-1-.3-1.5-.5 3.2-1.1 7.9-1.8 14.5-.7-4 2.1-8.6 2.5-13 1.2zm15.4-2.6c-9.3-2-15.5-.8-19.3 1-.5-.3-1-.6-1.4-.9 1.1-.7 2.4-1.4 4-2 4-1.5 10.4-2.6 19.7-.8-.8 1-1.8 1.9-3 2.7z" fill="#545557"/></svg>