<svg width="320" height="660" viewBox="0 0 320 660" fill="none" xmlns="http://www.w3.org/2000/svg">
<mask id="mask0" mask-type="alpha" maskUnits="userSpaceOnUse" x="5" y="5" width="310" height="650">
<path fill-rule="evenodd" clip-rule="evenodd" d="M268.484 5H51.5163C25.8261 5 5 25.5007 5 50.7895V609.211C5 634.499 25.8261 655 51.5163 655H268.484C294.174 655 315 634.499 315 609.211V50.7895C315 25.5007 294.174 5 268.484 5Z" fill="url(#paint0_linear)"/>
</mask>
<g mask="url(#mask0)">
<path d="M0 0H320V660H0V0Z" fill="white"/>
<rect x="10" y="15" width="300" height="610" fill="white"/>
<rect x="10" y="327.8" width="300" height="36" fill="#F9F9F9"/>
<rect x="10" y="111" width="300" height="36" fill="#F9F9F9"/>
<rect x="10" y="327" width="300" height="0.8" fill="#F0F0F0"/>
<rect x="10" y="147" width="300" height="0.8" fill="#F0F0F0"/>
<rect x="10" y="363" width="300" height="0.8" fill="#F0F0F0"/>
<rect x="30" y="291" width="268" height="0.4" fill="#E3E3E3"/>
<rect x="30.1" y="267.1" width="267.8" height="0.2" stroke="#BDBDBD" stroke-width="0.2" stroke-dasharray="1 2"/>
<rect x="30.1" y="243.1" width="267.8" height="0.2" stroke="#BDBDBD" stroke-width="0.2" stroke-dasharray="1 2"/>
<rect x="30.1" y="219.1" width="267.8" height="0.2" stroke="#BDBDBD" stroke-width="0.2" stroke-dasharray="1 2"/>
<rect x="30.1" y="195.1" width="267.8" height="0.2" stroke="#BDBDBD" stroke-width="0.2" stroke-dasharray="1 2"/>
<rect x="30.1" y="171.1" width="267.8" height="0.2" stroke="#BDBDBD" stroke-width="0.2" stroke-dasharray="1 2"/>
<rect x="38" y="163" width="0.4" height="136" fill="#E3E3E3"/>
<rect x="78.1" y="163.1" width="0.2" height="135.8" stroke="#BDBDBD" stroke-width="0.2" stroke-dasharray="1 2"/>
<rect x="118.1" y="163.1" width="0.2" height="135.8" stroke="#BDBDBD" stroke-width="0.2" stroke-dasharray="1 2"/>
<rect x="158.1" y="163.1" width="0.2" height="135.8" stroke="#BDBDBD" stroke-width="0.2" stroke-dasharray="1 2"/>
<rect x="198.1" y="163.1" width="0.2" height="135.8" stroke="#BDBDBD" stroke-width="0.2" stroke-dasharray="1 2"/>
<rect x="238.1" y="163.1" width="0.2" height="135.8" stroke="#BDBDBD" stroke-width="0.2" stroke-dasharray="1 2"/>
<rect x="278.1" y="163.1" width="0.2" height="135.8" stroke="#BDBDBD" stroke-width="0.2" stroke-dasharray="1 2"/>
<path d="M25.1152 293.932C26.8047 293.932 27.7959 292.511 27.7959 290.265C27.7959 288.033 26.7998 286.622 25.1152 286.622C23.4355 286.622 22.4248 288.038 22.4248 290.27C22.4248 292.516 23.4258 293.932 25.1152 293.932ZM25.1152 293.014C24.1094 293.014 23.5332 291.969 23.5332 290.27C23.5332 288.595 24.1191 287.54 25.1152 287.54C26.1113 287.54 26.6924 288.59 26.6924 290.27C26.6924 291.974 26.1211 293.014 25.1152 293.014Z" fill="#878787"/>
<path d="M24.3291 269.8H25.3984V262.754H24.3193L22.4639 264.073V265.147L24.3047 263.838H24.3291V269.8Z" fill="#878787"/>
<path d="M22.4883 240.82V240.829H23.5234V240.815C23.5234 240.082 24.1045 239.526 24.876 239.526C25.6084 239.526 26.1748 240.024 26.1748 240.649C26.1748 241.2 25.9502 241.572 25.0908 242.465L22.5469 245.058V245.8H27.3662V244.877H24.0215V244.853L25.7842 243.08C26.8145 242.026 27.2539 241.415 27.2539 240.595C27.2539 239.477 26.2529 238.622 24.9102 238.622C23.5088 238.622 22.4883 239.55 22.4883 240.82Z" fill="#878787"/>
<path d="M24.8801 218.612H25.759C26.6867 218.612 27.2629 219.08 27.2629 219.842C27.2629 220.531 26.6476 221.019 25.7883 221.019C24.8996 221.019 24.343 220.555 24.2746 219.881H23.2248C23.2932 221.097 24.2697 221.932 25.7883 221.932C27.258 221.932 28.3762 221.087 28.3762 219.857C28.3762 218.87 27.6926 218.221 26.633 218.148V218.128C27.507 217.972 28.0832 217.342 28.0832 216.463C28.0832 215.379 27.1115 214.622 25.7785 214.622C24.382 214.622 23.4494 215.418 23.3664 216.654H24.3967C24.4601 215.96 24.968 215.521 25.7297 215.521C26.5646 215.521 27.0139 215.955 27.0139 216.61C27.0139 217.274 26.4914 217.752 25.7297 217.752H24.8801V218.612Z" fill="#878787"/>
<path d="M26.6965 197.8H27.7463V196.408H28.7131V195.49H27.7463V190.754H26.1642C24.5773 193.049 23.7766 194.314 23.1711 195.451V196.408H26.6965V197.8ZM24.1916 195.481C24.7531 194.46 25.466 193.362 26.6867 191.599H26.7062V195.505H24.1916V195.481Z" fill="#878787"/>
<path d="M25.8713 173.932C27.3898 173.932 28.4543 172.931 28.4543 171.486C28.4543 170.118 27.4826 169.127 26.1301 169.127C25.4416 169.127 24.8654 169.396 24.5578 169.84H24.5334L24.7287 167.677H28.0441V166.754H23.8498L23.4787 170.739H24.4797C24.7531 170.275 25.2805 169.996 25.8908 169.996C26.7697 169.996 27.3849 170.631 27.3849 171.515C27.3849 172.399 26.7697 173.019 25.881 173.019C25.0949 173.019 24.4943 172.54 24.4162 171.842H23.3713C23.4348 173.073 24.465 173.932 25.8713 173.932Z" fill="#878787"/>
<path d="M37.3234 306V298.954H31.6105V306H32.7092V299.906H36.2346V306H37.3234ZM41.7621 306H42.8119V300.863H41.7621V302.934H39.4379V300.863H38.3881V306H39.4379V303.764H41.7621V306ZM44.4576 307.45L45.1217 304.872H44.0572L43.6178 307.45H44.4576ZM35.2484 316H36.3178V308.954H35.2387L33.3832 310.272V311.347L35.224 310.038H35.2484V316ZM37.7779 311.02V311.029H38.8131V311.015C38.8131 310.282 39.3941 309.726 40.1656 309.726C40.898 309.726 41.4645 310.224 41.4645 310.849C41.4645 311.4 41.2398 311.771 40.3805 312.665L37.8365 315.258V316H42.6559V315.077H39.3111V315.053L41.0738 313.28C42.1041 312.226 42.5436 311.615 42.5436 310.795C42.5436 309.677 41.5426 308.822 40.1998 308.822C38.7984 308.822 37.7779 309.75 37.7779 311.02Z" fill="#878787"/>
<path d="M75.4533 306C76.9523 306 77.8557 305.248 77.8557 304.008C77.8557 303.07 77.2111 302.392 76.2541 302.284V302.245C76.9572 302.128 77.509 301.459 77.509 300.712C77.509 299.647 76.6887 298.954 75.4387 298.954H72.6262V306H75.4533ZM73.7199 299.848H75.175C75.966 299.848 76.4152 300.209 76.4152 300.863C76.4152 301.562 75.8928 301.952 74.9455 301.952H73.7199V299.848ZM73.7199 305.106V302.787H75.1652C76.2004 302.787 76.7375 303.178 76.7375 303.939C76.7375 304.701 76.215 305.106 75.2287 305.106H73.7199ZM82.4506 300.863H78.1781V301.698H79.7895V306H80.8393V301.698H82.4506V300.863ZM83.442 307.45L84.1061 304.872H83.0416L82.6021 307.45H83.442ZM75.1166 316H76.1859V308.954H75.1068L73.2514 310.272V311.347L75.0922 310.038H75.1166V316ZM79.2379 312.812H80.1168C81.0445 312.812 81.6207 313.28 81.6207 314.042C81.6207 314.73 81.0055 315.219 80.1461 315.219C79.2574 315.219 78.7008 314.755 78.6324 314.081H77.5826C77.651 315.297 78.6275 316.132 80.1461 316.132C81.6158 316.132 82.734 315.287 82.734 314.057C82.734 313.07 82.0504 312.421 80.9908 312.348V312.328C81.8648 312.172 82.441 311.542 82.441 310.663C82.441 309.579 81.4693 308.822 80.1363 308.822C78.7398 308.822 77.8072 309.618 77.7242 310.854H78.7545C78.818 310.16 79.3258 309.721 80.0875 309.721C80.9225 309.721 81.3717 310.155 81.3717 310.81C81.3717 311.474 80.8492 311.952 80.0875 311.952H79.2379V312.812Z" fill="#878787"/>
<path d="M114.648 306.132C116.23 306.132 117.319 305.312 117.621 303.915H116.523C116.274 304.701 115.595 305.16 114.653 305.16C113.359 305.16 112.538 304.12 112.538 302.475C112.538 300.844 113.368 299.794 114.648 299.794C115.561 299.794 116.293 300.336 116.523 301.171H117.621C117.387 299.765 116.2 298.822 114.648 298.822C112.68 298.822 111.42 300.243 111.42 302.475C111.42 304.721 112.67 306.132 114.648 306.132ZM121.064 300.78C120.322 300.78 119.731 301.156 119.428 301.747H119.409V300.863H118.388V307.699H119.443V305.155H119.467C119.76 305.727 120.346 306.088 121.083 306.088C122.372 306.088 123.227 305.058 123.227 303.432C123.227 301.806 122.368 300.78 121.064 300.78ZM120.786 305.194C119.975 305.194 119.438 304.501 119.438 303.432C119.438 302.372 119.98 301.669 120.786 301.669C121.621 301.669 122.143 302.357 122.143 303.432C122.143 304.511 121.621 305.194 120.786 305.194ZM124.394 307.45L125.058 304.872H123.994L123.554 307.45H124.394ZM115.038 316H116.108V308.954H115.029L113.173 310.272V311.347L115.014 310.038H115.038V316ZM120.976 316H122.026V314.608H122.993V313.69H122.026V308.954H120.444C118.857 311.249 118.056 312.514 117.451 313.651V314.608H120.976V316ZM118.471 313.681C119.033 312.66 119.746 311.562 120.966 309.799H120.986V313.705H118.471V313.681Z" fill="#878787"/>
<path d="M157.753 306V298.954H156.659V301.874C156.352 302.182 155.79 302.475 155.024 302.475C153.925 302.475 153.329 301.845 153.329 300.814V298.954H152.236V300.854C152.236 302.318 153.163 303.451 154.926 303.451C155.683 303.451 156.264 303.188 156.591 302.934H156.659V306H157.753ZM162.724 300.863H158.452V301.698H160.063V306H161.113V301.698H162.724V300.863ZM163.715 307.45L164.379 304.872H163.315L162.876 307.45H163.715ZM155.146 316H156.215V308.954H155.136L153.281 310.272V311.347L155.121 310.038H155.146V316ZM160.258 316.132C161.777 316.132 162.841 315.131 162.841 313.686C162.841 312.318 161.87 311.327 160.517 311.327C159.829 311.327 159.253 311.596 158.945 312.04H158.921L159.116 309.877H162.431V308.954H158.237L157.866 312.938H158.867C159.14 312.475 159.668 312.196 160.278 312.196C161.157 312.196 161.772 312.831 161.772 313.715C161.772 314.599 161.157 315.219 160.268 315.219C159.482 315.219 158.881 314.74 158.803 314.042H157.758C157.822 315.272 158.852 316.132 160.258 316.132Z" fill="#878787"/>
<path d="M197.909 306V298.954H192.196V306H193.295V299.906H196.821V306H197.909ZM202.88 300.863H198.608V301.698H200.219V306H201.269V301.698H202.88V300.863ZM203.872 307.45L204.536 304.872H203.471L203.032 307.45H203.872ZM195.068 316H196.137V308.954H195.058L193.203 310.272V311.347L195.043 310.038H195.068V316ZM200.307 316.137C201.801 316.137 202.88 315.111 202.88 313.7C202.88 312.362 201.884 311.371 200.542 311.371C199.663 311.371 198.916 311.83 198.608 312.514H198.588C198.593 310.741 199.238 309.735 200.346 309.735C200.991 309.735 201.518 310.111 201.689 310.688H202.783C202.568 309.564 201.601 308.817 200.356 308.817C198.593 308.817 197.539 310.214 197.539 312.572C197.539 313.397 197.685 314.091 197.973 314.652C198.432 315.604 199.267 316.137 200.307 316.137ZM200.297 315.214C199.458 315.214 198.808 314.55 198.808 313.715C198.808 312.88 199.448 312.265 200.307 312.265C201.171 312.265 201.792 312.88 201.792 313.734C201.792 314.56 201.128 315.214 200.297 315.214Z" fill="#878787"/>
<path d="M234.701 306.132C236.283 306.132 237.372 305.312 237.675 303.915H236.576C236.327 304.701 235.649 305.16 234.706 305.16C233.412 305.16 232.592 304.12 232.592 302.475C232.592 300.844 233.422 299.794 234.701 299.794C235.614 299.794 236.347 300.336 236.576 301.171H237.675C237.441 299.765 236.254 298.822 234.701 298.822C232.734 298.822 231.474 300.243 231.474 302.475C231.474 304.721 232.724 306.132 234.701 306.132ZM240.727 306.098C242.241 306.098 243.173 305.106 243.173 303.49C243.173 301.977 242.285 301.01 240.898 301.01C240.092 301.01 239.472 301.342 239.145 301.947H239.106C239.296 300.497 239.731 299.882 241.103 299.833L241.552 299.818C242.182 299.794 242.704 299.667 242.836 299.545V298.671C242.602 298.798 242.045 298.9 241.494 298.925L241.035 298.939C239.081 299.008 238.251 300.165 238.251 303.017C238.251 305.048 239.121 306.098 240.727 306.098ZM240.717 305.214C239.838 305.214 239.33 304.599 239.33 303.505C239.33 302.465 239.843 301.869 240.717 301.869C241.586 301.869 242.094 302.465 242.094 303.505C242.094 304.599 241.586 305.214 240.717 305.214ZM244.34 307.45L245.004 304.872H243.94L243.501 307.45H244.34ZM235.361 316H236.43V308.954H235.351L233.496 310.272V311.347L235.336 310.038H235.361V316ZM238.339 316H239.487L242.548 309.901V308.954H237.754V309.877H241.469V309.901L238.339 316Z" fill="#878787"/>
<path d="M275.019 306C276.518 306 277.421 305.248 277.421 304.008C277.421 303.07 276.777 302.392 275.82 302.284V302.245C276.523 302.128 277.074 301.459 277.074 300.712C277.074 299.647 276.254 298.954 275.004 298.954H272.192V306H275.019ZM273.285 299.848H274.74C275.531 299.848 275.981 300.209 275.981 300.863C275.981 301.562 275.458 301.952 274.511 301.952H273.285V299.848ZM273.285 305.106V302.787H274.731C275.766 302.787 276.303 303.178 276.303 303.939C276.303 304.701 275.78 305.106 274.794 305.106H273.285ZM282.514 302.509C282.368 301.562 281.577 300.771 280.307 300.771C278.847 300.771 277.9 301.82 277.9 303.432C277.9 305.077 278.847 306.098 280.317 306.098C281.528 306.098 282.372 305.395 282.524 304.364H281.508C281.362 304.901 280.952 305.214 280.327 305.214C279.506 305.214 278.969 304.545 278.969 303.432C278.969 302.348 279.501 301.649 280.317 301.649C280.971 301.649 281.362 302.035 281.498 302.509H282.514ZM283.877 307.45L284.541 304.872H283.476L283.037 307.45H283.877ZM275.053 316H276.122V308.954H275.043L273.188 310.272V311.347L275.029 310.038H275.053V316ZM280.185 316.132C281.748 316.132 282.851 315.292 282.851 314.096C282.851 313.202 282.221 312.479 281.284 312.284V312.26C282.065 312.035 282.563 311.43 282.563 310.683C282.563 309.604 281.572 308.822 280.185 308.822C278.803 308.822 277.802 309.608 277.802 310.678C277.802 311.435 278.305 312.045 279.087 312.26V312.284C278.154 312.479 277.519 313.197 277.519 314.096C277.519 315.287 278.613 316.132 280.185 316.132ZM280.185 315.253C279.287 315.253 278.647 314.735 278.647 314.018C278.647 313.295 279.287 312.772 280.185 312.772C281.084 312.772 281.718 313.29 281.718 314.018C281.718 314.735 281.084 315.253 280.185 315.253ZM280.185 311.894C279.419 311.894 278.886 311.435 278.886 310.795C278.886 310.15 279.419 309.691 280.185 309.691C280.947 309.691 281.484 310.15 281.484 310.795C281.484 311.435 280.942 311.894 280.185 311.894Z" fill="#878787"/>
<path d="M38 291H278V195L238.4 243.4L198.066 195.8L158.1 171L118.133 243.4L78.0664 219.4L38 291Z" fill="url(#paint1_linear)" fill-opacity="0.15"/>
<path d="M38.4 291L78.4 219" stroke="#FE6227" stroke-width="0.5"/>
<path d="M78.3998 219L118.4 243.4" stroke="#FE6227" stroke-width="0.5"/>
<path d="M158.4 171L118.4 243.4" stroke="#FE6227" stroke-width="0.5"/>
<path d="M158.4 171L198 195.4" stroke="#FE6227" stroke-width="0.5"/>
<path d="M238.4 243.4L198 195.4" stroke="#FE6227" stroke-width="0.5"/>
<path d="M238.4 243.4L278 195" stroke="#FE6227" stroke-width="0.5"/>
<circle cx="38.2" cy="291.2" r="4.2" fill="#FF6B00"/>
<circle cx="38.2001" cy="291.2" r="1.90909" fill="white"/>
<circle cx="78.2" cy="219.2" r="4.2" fill="#FF6B00"/>
<circle cx="78.2001" cy="219.2" r="1.90909" fill="white"/>
<circle cx="118.2" cy="243.2" r="4.2" fill="#FF6B00"/>
<circle cx="118.2" cy="243.2" r="1.90909" fill="white"/>
<circle cx="158.2" cy="171.2" r="4.2" fill="#FF6B00"/>
<circle cx="158.2" cy="171.2" r="1.90909" fill="white"/>
<circle cx="198.2" cy="195.2" r="4.2" fill="#FF6B00"/>
<circle cx="198.2" cy="195.2" r="1.90909" fill="white"/>
<circle cx="238.2" cy="243.2" r="4.2" fill="#FF6B00"/>
<circle cx="238.2" cy="243.2" r="1.90909" fill="white"/>
<circle cx="278.2" cy="195.2" r="4.2" fill="#FF6B00"/>
<circle cx="278.2" cy="195.2" r="1.90909" fill="white"/>
<path d="M26.9702 134.222C25.6965 134.222 24.6893 133.793 23.9487 132.934C23.2082 132.075 22.8379 130.904 22.8379 129.423C22.8379 127.938 23.2061 126.766 23.9424 125.907C24.6829 125.048 25.6901 124.618 26.9639 124.618C27.971 124.618 28.828 124.914 29.5347 125.507C30.2456 126.095 30.6582 126.857 30.7725 127.792H29.3569C29.2215 127.229 28.938 126.781 28.5063 126.446C28.0789 126.112 27.5648 125.945 26.9639 125.945C26.1429 125.945 25.4912 126.258 25.0088 126.884C24.5306 127.506 24.2915 128.353 24.2915 129.423C24.2915 130.49 24.5306 131.336 25.0088 131.962C25.4912 132.584 26.145 132.896 26.9702 132.896C27.5754 132.896 28.0916 132.743 28.519 132.438C28.9507 132.134 29.23 131.723 29.3569 131.207H30.7725C30.6455 132.113 30.235 132.843 29.541 133.397C28.847 133.947 27.9901 134.222 26.9702 134.222ZM34.7746 132.965C35.2867 132.965 35.7119 132.821 36.0505 132.534C36.3933 132.246 36.5646 131.886 36.5646 131.455V130.877L34.8762 130.985C34.4022 131.014 34.0531 131.112 33.8288 131.277C33.6045 131.442 33.4924 131.677 33.4924 131.981C33.4924 132.286 33.6109 132.527 33.8479 132.705C34.0848 132.879 34.3938 132.965 34.7746 132.965ZM34.4255 134.114C33.7484 134.114 33.194 133.926 32.7624 133.549C32.335 133.168 32.1213 132.667 32.1213 132.045C32.1213 131.427 32.3435 130.943 32.7878 130.591C33.2321 130.236 33.8669 130.033 34.6921 129.982L36.5646 129.874V129.277C36.5646 128.909 36.444 128.628 36.2028 128.433C35.9616 128.234 35.6104 128.135 35.1491 128.135C34.7683 128.135 34.4509 128.202 34.197 128.338C33.9473 128.469 33.7844 128.657 33.7082 128.903H32.3879C32.4556 128.31 32.7455 127.839 33.2575 127.487C33.7738 127.132 34.4255 126.954 35.2126 126.954C36.0759 126.954 36.7424 127.159 37.2121 127.57C37.6861 127.976 37.923 128.545 37.923 129.277V134H36.6091V133.029H36.5012C36.2938 133.376 36.0082 133.645 35.6442 133.835C35.2845 134.021 34.8783 134.114 34.4255 134.114ZM41.1127 134H39.786V127.087H41.4999L43.7279 132.032H43.8358L46.0702 127.087H47.7396V134H46.4066V129.233H46.286L44.2611 133.721H43.2582L41.2333 129.233H41.1127V134ZM52.567 132.921C53.1552 132.921 53.6101 132.714 53.9317 132.299C54.2576 131.88 54.4205 131.294 54.4205 130.541C54.4205 129.792 54.2576 129.21 53.9317 128.795C53.6101 128.376 53.1552 128.167 52.567 128.167C51.9745 128.167 51.5175 128.374 51.1959 128.789C50.8743 129.203 50.7135 129.787 50.7135 130.541C50.7135 131.298 50.8743 131.884 51.1959 132.299C51.5175 132.714 51.9745 132.921 52.567 132.921ZM52.567 134.133C51.5514 134.133 50.7537 133.814 50.1739 133.175C49.5942 132.536 49.3043 131.658 49.3043 130.541C49.3043 129.428 49.5942 128.552 50.1739 127.913C50.7579 127.274 51.5556 126.954 52.567 126.954C53.5742 126.954 54.3676 127.274 54.9474 127.913C55.5313 128.552 55.8233 129.428 55.8233 130.541C55.8233 131.658 55.5335 132.536 54.9537 133.175C54.374 133.814 53.5784 134.133 52.567 134.133ZM62.8216 134H61.4568V130.966H61.3553C60.8729 131.431 60.2656 131.664 59.5335 131.664C58.7972 131.664 58.2153 131.438 57.7879 130.985C57.3647 130.528 57.1531 129.916 57.1531 129.15V127.087H58.5179V129.03C58.5179 129.461 58.63 129.802 58.8543 130.052C59.0786 130.297 59.3917 130.42 59.7938 130.42C60.0265 130.42 60.2423 130.392 60.4412 130.337C60.6443 130.278 60.8115 130.204 60.9427 130.115C61.0739 130.026 61.1797 129.944 61.2601 129.868C61.3405 129.787 61.4061 129.709 61.4568 129.633V127.087H62.8216V134ZM65.4209 136.507C65.1839 136.507 64.9956 136.497 64.856 136.476V135.301C64.9533 135.318 65.1014 135.327 65.3003 135.327C65.6261 135.327 65.8864 135.253 66.0811 135.104C66.2757 134.956 66.4323 134.709 66.5508 134.362L66.6523 134.025L64.1514 127.087H65.6367L67.3696 132.578H67.4775L69.2041 127.087H70.6514L68.0742 134.286C67.778 135.124 67.4373 135.703 67.0522 136.025C66.6714 136.347 66.1276 136.507 65.4209 136.507ZM74.8122 128.135H73.3205V129.925H74.6599C75.4724 129.925 75.8786 129.624 75.8786 129.023C75.8786 128.744 75.7897 128.526 75.612 128.37C75.4343 128.213 75.1677 128.135 74.8122 128.135ZM74.7551 130.928H73.3205V132.953H74.9265C75.3285 132.953 75.6353 132.866 75.8469 132.692C76.0585 132.519 76.1643 132.269 76.1643 131.943C76.1643 131.266 75.6945 130.928 74.7551 130.928ZM71.9685 134V127.087H75.0725C75.7453 127.087 76.2701 127.246 76.6467 127.563C77.0275 127.877 77.218 128.304 77.218 128.846C77.218 129.197 77.1058 129.512 76.8815 129.792C76.6615 130.071 76.3843 130.242 76.05 130.306V130.414C76.4943 130.464 76.8519 130.638 77.1228 130.934C77.3936 131.226 77.529 131.584 77.529 132.007C77.529 132.616 77.3132 133.101 76.8815 133.46C76.4499 133.82 75.8575 134 75.1042 134H71.9685ZM84.9398 129.347H83.6132C83.5285 128.996 83.3445 128.712 83.0609 128.497C82.7816 128.281 82.4219 128.173 81.9818 128.173C81.4105 128.173 80.9599 128.38 80.6298 128.795C80.3039 129.21 80.141 129.785 80.141 130.521C80.141 131.266 80.3039 131.852 80.6298 132.28C80.9599 132.703 81.4105 132.915 81.9818 132.915C82.4177 132.915 82.7753 132.817 83.0546 132.623C83.3381 132.428 83.5243 132.146 83.6132 131.778H84.9398C84.851 132.489 84.5463 133.061 84.0258 133.492C83.5053 133.92 82.8261 134.133 81.9882 134.133C80.981 134.133 80.1876 133.814 79.6078 133.175C79.0323 132.532 78.7445 131.647 78.7445 130.521C78.7445 129.413 79.0323 128.541 79.6078 127.906C80.1833 127.271 80.9747 126.954 81.9818 126.954C82.824 126.954 83.5032 127.174 84.0194 127.614C84.5399 128.054 84.8467 128.632 84.9398 129.347ZM91.2843 127.087V128.236H89.107V134H87.7423V128.236H85.565V127.087H91.2843ZM95.4642 128.135H93.9725V129.925H95.3118C96.1243 129.925 96.5306 129.624 96.5306 129.023C96.5306 128.744 96.4417 128.526 96.264 128.37C96.0862 128.213 95.8196 128.135 95.4642 128.135ZM95.407 130.928H93.9725V132.953H95.5784C95.9804 132.953 96.2872 132.866 96.4988 132.692C96.7104 132.519 96.8162 132.269 96.8162 131.943C96.8162 131.266 96.3465 130.928 95.407 130.928ZM92.6204 134V127.087H95.7244C96.3973 127.087 96.922 127.246 97.2986 127.563C97.6795 127.877 97.8699 128.304 97.8699 128.846C97.8699 129.197 97.7578 129.512 97.5335 129.792C97.3134 130.071 97.0363 130.242 96.702 130.306V130.414C97.1463 130.464 97.5039 130.638 97.7747 130.934C98.0455 131.226 98.181 131.584 98.181 132.007C98.181 132.616 97.9651 133.101 97.5335 133.46C97.1019 133.82 96.5094 134 95.7561 134H92.6204ZM101.136 134H99.7837V127.087H101.136V131.842H101.244L104.398 127.087H105.75V134H104.398V129.22H104.291L101.136 134ZM111.714 128.604C111.409 128.279 111.005 128.116 110.502 128.116C109.998 128.116 109.583 128.279 109.258 128.604C108.932 128.93 108.75 129.364 108.712 129.906H112.203C112.186 129.36 112.023 128.926 111.714 128.604ZM112.196 132.134H113.51C113.354 132.756 113.011 133.245 112.482 133.6C111.957 133.956 111.301 134.133 110.514 134.133C109.524 134.133 108.743 133.816 108.172 133.181C107.605 132.542 107.321 131.67 107.321 130.566C107.321 129.461 107.609 128.583 108.185 127.932C108.76 127.28 109.535 126.954 110.508 126.954C111.469 126.954 112.222 127.263 112.768 127.881C113.318 128.499 113.593 129.351 113.593 130.439V130.915H108.712V130.991C108.733 131.601 108.908 132.083 109.238 132.438C109.569 132.794 110.007 132.972 110.552 132.972C111.386 132.972 111.934 132.692 112.196 132.134Z" fill="black"/>
<rect x="30" y="507" width="268" height="0.4" fill="#E3E3E3"/>
<rect x="30.1" y="483.1" width="267.8" height="0.2" stroke="#BDBDBD" stroke-width="0.2" stroke-dasharray="1 2"/>
<rect x="30.1" y="459.1" width="267.8" height="0.2" stroke="#BDBDBD" stroke-width="0.2" stroke-dasharray="1 2"/>
<rect x="30.1" y="435.1" width="267.8" height="0.2" stroke="#BDBDBD" stroke-width="0.2" stroke-dasharray="1 2"/>
<rect x="30.1" y="411.1" width="267.8" height="0.2" stroke="#BDBDBD" stroke-width="0.2" stroke-dasharray="1 2"/>
<rect x="30.1" y="387.1" width="267.8" height="0.2" stroke="#BDBDBD" stroke-width="0.2" stroke-dasharray="1 2"/>
<rect x="38" y="379" width="0.4" height="136" fill="#E3E3E3"/>
<rect x="78.1" y="379.1" width="0.2" height="135.8" stroke="#BDBDBD" stroke-width="0.2" stroke-dasharray="1 2"/>
<rect x="118.1" y="379.1" width="0.2" height="135.8" stroke="#BDBDBD" stroke-width="0.2" stroke-dasharray="1 2"/>
<rect x="158.1" y="379.1" width="0.2" height="135.8" stroke="#BDBDBD" stroke-width="0.2" stroke-dasharray="1 2"/>
<rect x="198.1" y="379.1" width="0.2" height="135.8" stroke="#BDBDBD" stroke-width="0.2" stroke-dasharray="1 2"/>
<rect x="238.1" y="379.1" width="0.2" height="135.8" stroke="#BDBDBD" stroke-width="0.2" stroke-dasharray="1 2"/>
<rect x="278.1" y="379.1" width="0.2" height="135.8" stroke="#BDBDBD" stroke-width="0.2" stroke-dasharray="1 2"/>
<path d="M25.1152 509.932C26.8047 509.932 27.7959 508.511 27.7959 506.265C27.7959 504.033 26.7998 502.622 25.1152 502.622C23.4355 502.622 22.4248 504.038 22.4248 506.27C22.4248 508.516 23.4258 509.932 25.1152 509.932ZM25.1152 509.014C24.1094 509.014 23.5332 507.969 23.5332 506.27C23.5332 504.595 24.1191 503.54 25.1152 503.54C26.1113 503.54 26.6924 504.59 26.6924 506.27C26.6924 507.974 26.1211 509.014 25.1152 509.014Z" fill="#878787"/>
<path d="M24.3291 485.8H25.3984V478.754H24.3193L22.4639 480.073V481.147L24.3047 479.838H24.3291V485.8Z" fill="#878787"/>
<path d="M22.4883 456.82V456.829H23.5234V456.815C23.5234 456.082 24.1045 455.526 24.876 455.526C25.6084 455.526 26.1748 456.024 26.1748 456.649C26.1748 457.2 25.9502 457.572 25.0908 458.465L22.5469 461.058V461.8H27.3662V460.877H24.0215V460.853L25.7842 459.08C26.8145 458.026 27.2539 457.415 27.2539 456.595C27.2539 455.477 26.2529 454.622 24.9102 454.622C23.5088 454.622 22.4883 455.55 22.4883 456.82Z" fill="#878787"/>
<path d="M24.8801 434.612H25.759C26.6867 434.612 27.2629 435.08 27.2629 435.842C27.2629 436.531 26.6476 437.019 25.7883 437.019C24.8996 437.019 24.343 436.555 24.2746 435.881H23.2248C23.2932 437.097 24.2697 437.932 25.7883 437.932C27.258 437.932 28.3762 437.087 28.3762 435.857C28.3762 434.87 27.6926 434.221 26.633 434.148V434.128C27.507 433.972 28.0832 433.342 28.0832 432.463C28.0832 431.379 27.1115 430.622 25.7785 430.622C24.382 430.622 23.4494 431.418 23.3664 432.654H24.3967C24.4601 431.96 24.968 431.521 25.7297 431.521C26.5646 431.521 27.0139 431.955 27.0139 432.61C27.0139 433.274 26.4914 433.752 25.7297 433.752H24.8801V434.612Z" fill="#878787"/>
<path d="M26.6965 413.8H27.7463V412.408H28.7131V411.49H27.7463V406.754H26.1642C24.5773 409.049 23.7766 410.314 23.1711 411.451V412.408H26.6965V413.8ZM24.1916 411.481C24.7531 410.46 25.466 409.362 26.6867 407.599H26.7062V411.505H24.1916V411.481Z" fill="#878787"/>
<path d="M25.8713 389.932C27.3898 389.932 28.4543 388.931 28.4543 387.486C28.4543 386.118 27.4826 385.127 26.1301 385.127C25.4416 385.127 24.8654 385.396 24.5578 385.84H24.5334L24.7287 383.677H28.0441V382.754H23.8498L23.4787 386.739H24.4797C24.7531 386.275 25.2805 385.996 25.8908 385.996C26.7697 385.996 27.3849 386.631 27.3849 387.515C27.3849 388.399 26.7697 389.019 25.881 389.019C25.0949 389.019 24.4943 388.54 24.4162 387.842H23.3713C23.4348 389.073 24.465 389.932 25.8713 389.932Z" fill="#878787"/>
<path d="M37.3234 522V514.954H31.6105V522H32.7092V515.906H36.2346V522H37.3234ZM41.7621 522H42.8119V516.863H41.7621V518.934H39.4379V516.863H38.3881V522H39.4379V519.764H41.7621V522ZM44.4576 523.45L45.1217 520.872H44.0572L43.6178 523.45H44.4576ZM35.2484 532H36.3178V524.954H35.2387L33.3832 526.272V527.347L35.224 526.038H35.2484V532ZM37.7779 527.02V527.029H38.8131V527.015C38.8131 526.282 39.3941 525.726 40.1656 525.726C40.898 525.726 41.4645 526.224 41.4645 526.849C41.4645 527.4 41.2398 527.771 40.3805 528.665L37.8365 531.258V532H42.6559V531.077H39.3111V531.053L41.0738 529.28C42.1041 528.226 42.5436 527.615 42.5436 526.795C42.5436 525.677 41.5426 524.822 40.1998 524.822C38.7984 524.822 37.7779 525.75 37.7779 527.02Z" fill="#878787"/>
<path d="M75.4533 522C76.9523 522 77.8557 521.248 77.8557 520.008C77.8557 519.07 77.2111 518.392 76.2541 518.284V518.245C76.9572 518.128 77.509 517.459 77.509 516.712C77.509 515.647 76.6887 514.954 75.4387 514.954H72.6262V522H75.4533ZM73.7199 515.848H75.175C75.966 515.848 76.4152 516.209 76.4152 516.863C76.4152 517.562 75.8928 517.952 74.9455 517.952H73.7199V515.848ZM73.7199 521.106V518.787H75.1652C76.2004 518.787 76.7375 519.178 76.7375 519.939C76.7375 520.701 76.215 521.106 75.2287 521.106H73.7199ZM82.4506 516.863H78.1781V517.698H79.7895V522H80.8393V517.698H82.4506V516.863ZM83.442 523.45L84.1061 520.872H83.0416L82.6021 523.45H83.442ZM75.1166 532H76.1859V524.954H75.1068L73.2514 526.272V527.347L75.0922 526.038H75.1166V532ZM79.2379 528.812H80.1168C81.0445 528.812 81.6207 529.28 81.6207 530.042C81.6207 530.73 81.0055 531.219 80.1461 531.219C79.2574 531.219 78.7008 530.755 78.6324 530.081H77.5826C77.651 531.297 78.6275 532.132 80.1461 532.132C81.6158 532.132 82.734 531.287 82.734 530.057C82.734 529.07 82.0504 528.421 80.9908 528.348V528.328C81.8648 528.172 82.441 527.542 82.441 526.663C82.441 525.579 81.4693 524.822 80.1363 524.822C78.7398 524.822 77.8072 525.618 77.7242 526.854H78.7545C78.818 526.16 79.3258 525.721 80.0875 525.721C80.9225 525.721 81.3717 526.155 81.3717 526.81C81.3717 527.474 80.8492 527.952 80.0875 527.952H79.2379V528.812Z" fill="#878787"/>
<path d="M114.648 522.132C116.23 522.132 117.319 521.312 117.621 519.915H116.523C116.274 520.701 115.595 521.16 114.653 521.16C113.359 521.16 112.538 520.12 112.538 518.475C112.538 516.844 113.368 515.794 114.648 515.794C115.561 515.794 116.293 516.336 116.523 517.171H117.621C117.387 515.765 116.2 514.822 114.648 514.822C112.68 514.822 111.42 516.243 111.42 518.475C111.42 520.721 112.67 522.132 114.648 522.132ZM121.064 516.78C120.322 516.78 119.731 517.156 119.428 517.747H119.409V516.863H118.388V523.699H119.443V521.155H119.467C119.76 521.727 120.346 522.088 121.083 522.088C122.372 522.088 123.227 521.058 123.227 519.432C123.227 517.806 122.368 516.78 121.064 516.78ZM120.786 521.194C119.975 521.194 119.438 520.501 119.438 519.432C119.438 518.372 119.98 517.669 120.786 517.669C121.621 517.669 122.143 518.357 122.143 519.432C122.143 520.511 121.621 521.194 120.786 521.194ZM124.394 523.45L125.058 520.872H123.994L123.554 523.45H124.394ZM115.038 532H116.108V524.954H115.029L113.173 526.272V527.347L115.014 526.038H115.038V532ZM120.976 532H122.026V530.608H122.993V529.69H122.026V524.954H120.444C118.857 527.249 118.056 528.514 117.451 529.651V530.608H120.976V532ZM118.471 529.681C119.033 528.66 119.746 527.562 120.966 525.799H120.986V529.705H118.471V529.681Z" fill="#878787"/>
<path d="M157.753 522V514.954H156.659V517.874C156.352 518.182 155.79 518.475 155.024 518.475C153.925 518.475 153.329 517.845 153.329 516.814V514.954H152.236V516.854C152.236 518.318 153.163 519.451 154.926 519.451C155.683 519.451 156.264 519.188 156.591 518.934H156.659V522H157.753ZM162.724 516.863H158.452V517.698H160.063V522H161.113V517.698H162.724V516.863ZM163.715 523.45L164.379 520.872H163.315L162.876 523.45H163.715ZM155.146 532H156.215V524.954H155.136L153.281 526.272V527.347L155.121 526.038H155.146V532ZM160.258 532.132C161.777 532.132 162.841 531.131 162.841 529.686C162.841 528.318 161.87 527.327 160.517 527.327C159.829 527.327 159.253 527.596 158.945 528.04H158.921L159.116 525.877H162.431V524.954H158.237L157.866 528.938H158.867C159.14 528.475 159.668 528.196 160.278 528.196C161.157 528.196 161.772 528.831 161.772 529.715C161.772 530.599 161.157 531.219 160.268 531.219C159.482 531.219 158.881 530.74 158.803 530.042H157.758C157.822 531.272 158.852 532.132 160.258 532.132Z" fill="#878787"/>
<path d="M197.909 522V514.954H192.196V522H193.295V515.906H196.821V522H197.909ZM202.88 516.863H198.608V517.698H200.219V522H201.269V517.698H202.88V516.863ZM203.872 523.45L204.536 520.872H203.471L203.032 523.45H203.872ZM195.068 532H196.137V524.954H195.058L193.203 526.272V527.347L195.043 526.038H195.068V532ZM200.307 532.137C201.801 532.137 202.88 531.111 202.88 529.7C202.88 528.362 201.884 527.371 200.542 527.371C199.663 527.371 198.916 527.83 198.608 528.514H198.588C198.593 526.741 199.238 525.735 200.346 525.735C200.991 525.735 201.518 526.111 201.689 526.688H202.783C202.568 525.564 201.601 524.817 200.356 524.817C198.593 524.817 197.539 526.214 197.539 528.572C197.539 529.397 197.685 530.091 197.973 530.652C198.432 531.604 199.267 532.137 200.307 532.137ZM200.297 531.214C199.458 531.214 198.808 530.55 198.808 529.715C198.808 528.88 199.448 528.265 200.307 528.265C201.171 528.265 201.792 528.88 201.792 529.734C201.792 530.56 201.128 531.214 200.297 531.214Z" fill="#878787"/>
<path d="M234.701 522.132C236.283 522.132 237.372 521.312 237.675 519.915H236.576C236.327 520.701 235.649 521.16 234.706 521.16C233.412 521.16 232.592 520.12 232.592 518.475C232.592 516.844 233.422 515.794 234.701 515.794C235.614 515.794 236.347 516.336 236.576 517.171H237.675C237.441 515.765 236.254 514.822 234.701 514.822C232.734 514.822 231.474 516.243 231.474 518.475C231.474 520.721 232.724 522.132 234.701 522.132ZM240.727 522.098C242.241 522.098 243.173 521.106 243.173 519.49C243.173 517.977 242.285 517.01 240.898 517.01C240.092 517.01 239.472 517.342 239.145 517.947H239.106C239.296 516.497 239.731 515.882 241.103 515.833L241.552 515.818C242.182 515.794 242.704 515.667 242.836 515.545V514.671C242.602 514.798 242.045 514.9 241.494 514.925L241.035 514.939C239.081 515.008 238.251 516.165 238.251 519.017C238.251 521.048 239.121 522.098 240.727 522.098ZM240.717 521.214C239.838 521.214 239.33 520.599 239.33 519.505C239.33 518.465 239.843 517.869 240.717 517.869C241.586 517.869 242.094 518.465 242.094 519.505C242.094 520.599 241.586 521.214 240.717 521.214ZM244.34 523.45L245.004 520.872H243.94L243.501 523.45H244.34ZM235.361 532H236.43V524.954H235.351L233.496 526.272V527.347L235.336 526.038H235.361V532ZM238.339 532H239.487L242.548 525.901V524.954H237.754V525.877H241.469V525.901L238.339 532Z" fill="#878787"/>
<path d="M275.019 522C276.518 522 277.421 521.248 277.421 520.008C277.421 519.07 276.777 518.392 275.82 518.284V518.245C276.523 518.128 277.074 517.459 277.074 516.712C277.074 515.647 276.254 514.954 275.004 514.954H272.192V522H275.019ZM273.285 515.848H274.74C275.531 515.848 275.981 516.209 275.981 516.863C275.981 517.562 275.458 517.952 274.511 517.952H273.285V515.848ZM273.285 521.106V518.787H274.731C275.766 518.787 276.303 519.178 276.303 519.939C276.303 520.701 275.78 521.106 274.794 521.106H273.285ZM282.514 518.509C282.368 517.562 281.577 516.771 280.307 516.771C278.847 516.771 277.9 517.82 277.9 519.432C277.9 521.077 278.847 522.098 280.317 522.098C281.528 522.098 282.372 521.395 282.524 520.364H281.508C281.362 520.901 280.952 521.214 280.327 521.214C279.506 521.214 278.969 520.545 278.969 519.432C278.969 518.348 279.501 517.649 280.317 517.649C280.971 517.649 281.362 518.035 281.498 518.509H282.514ZM283.877 523.45L284.541 520.872H283.476L283.037 523.45H283.877ZM275.053 532H276.122V524.954H275.043L273.188 526.272V527.347L275.029 526.038H275.053V532ZM280.185 532.132C281.748 532.132 282.851 531.292 282.851 530.096C282.851 529.202 282.221 528.479 281.284 528.284V528.26C282.065 528.035 282.563 527.43 282.563 526.683C282.563 525.604 281.572 524.822 280.185 524.822C278.803 524.822 277.802 525.608 277.802 526.678C277.802 527.435 278.305 528.045 279.087 528.26V528.284C278.154 528.479 277.519 529.197 277.519 530.096C277.519 531.287 278.613 532.132 280.185 532.132ZM280.185 531.253C279.287 531.253 278.647 530.735 278.647 530.018C278.647 529.295 279.287 528.772 280.185 528.772C281.084 528.772 281.718 529.29 281.718 530.018C281.718 530.735 281.084 531.253 280.185 531.253ZM280.185 527.894C279.419 527.894 278.886 527.435 278.886 526.795C278.886 526.15 279.419 525.691 280.185 525.691C280.947 525.691 281.484 526.15 281.484 526.795C281.484 527.435 280.942 527.894 280.185 527.894Z" fill="#878787"/>
<path d="M38 507H278V411L238.4 459.4L198.066 411.8L158.1 387L118.133 459.4L78.0664 435.4L38 459V507Z" fill="url(#paint2_linear)" fill-opacity="0.15"/>
<path d="M38.4 459L78.4 435" stroke="#FE6227" stroke-width="0.5"/>
<path d="M78.3998 435L118.4 459.4" stroke="#FE6227" stroke-width="0.5"/>
<path d="M158.4 387L118.4 459.4" stroke="#FE6227" stroke-width="0.5"/>
<path d="M158.4 387L198 411.4" stroke="#FE6227" stroke-width="0.5"/>
<path d="M238.4 459.4L198 411.4" stroke="#FE6227" stroke-width="0.5"/>
<path d="M238.4 459.4L278 411" stroke="#FE6227" stroke-width="0.5"/>
<path d="M38 507H278V483L238.4 435.8L197.6 411L158.1 435.8L118.133 483L78.0664 411L38.0332 483L38 507Z" fill="url(#paint3_linear)" fill-opacity="0.15"/>
<path d="M38.4 483L78 411.4" stroke="#007AFF" stroke-width="0.5"/>
<path d="M118.4 483.4L78 411.4" stroke="#007AFF" stroke-width="0.5"/>
<path d="M118.4 483.4L158.4 435.4" stroke="#007AFF" stroke-width="0.5"/>
<path d="M198.4 411.4L158.4 435.4" stroke="#007AFF" stroke-width="0.5"/>
<path d="M198.4 411.4L238 435.4" stroke="#007AFF" stroke-width="0.5"/>
<path d="M278 483L238 435.4" stroke="#007AFF" stroke-width="0.5"/>
<rect x="20" y="558" width="8" height="8" rx="4" transform="rotate(-90 20 558)" fill="#FF6B00"/>
<path d="M35.0142 558H34.042V550.25H38.6396V551.13H35.0142V558ZM40.153 556.706C40.4502 557.082 40.8728 557.27 41.4206 557.27C41.9685 557.27 42.391 557.082 42.6882 556.706C42.9854 556.326 43.134 555.792 43.134 555.105C43.134 554.417 42.9854 553.886 42.6882 553.51C42.391 553.13 41.9685 552.94 41.4206 552.94C40.8728 552.94 40.4502 553.13 40.153 553.51C39.8558 553.886 39.7072 554.417 39.7072 555.105C39.7072 555.792 39.8558 556.326 40.153 556.706ZM43.3703 557.302C42.8941 557.835 42.2442 558.102 41.4206 558.102C40.597 558.102 39.9453 557.835 39.4655 557.302C38.9893 556.765 38.7512 556.032 38.7512 555.105C38.7512 554.174 38.9893 553.442 39.4655 552.908C39.9418 552.375 40.5935 552.108 41.4206 552.108C42.2478 552.108 42.8994 552.375 43.3757 552.908C43.8519 553.442 44.09 554.174 44.09 555.105C44.09 556.032 43.8501 556.765 43.3703 557.302ZM46.7797 555.459C46.7546 555.792 46.7188 556.086 46.6723 556.34C46.6257 556.595 46.5595 556.833 46.4735 557.055C46.3912 557.277 46.2873 557.459 46.162 557.603C46.0403 557.742 45.8881 557.851 45.7055 557.93C45.5229 558.009 45.3134 558.048 45.0771 558.048C44.9446 558.048 44.8318 558.029 44.7387 557.989V557.141C44.8246 557.169 44.9213 557.184 45.0287 557.184C45.3008 557.184 45.5032 557.037 45.6356 556.743C45.7717 556.446 45.8594 556.011 45.8988 555.438L46.1244 552.21H49.911V558H48.9872V552.983H46.9623L46.7797 555.459ZM52.6651 556.706C52.9623 557.082 53.3849 557.27 53.9327 557.27C54.4806 557.27 54.9031 557.082 55.2003 556.706C55.4975 556.326 55.6461 555.792 55.6461 555.105C55.6461 554.417 55.4975 553.886 55.2003 553.51C54.9031 553.13 54.4806 552.94 53.9327 552.94C53.3849 552.94 52.9623 553.13 52.6651 553.51C52.3679 553.886 52.2193 554.417 52.2193 555.105C52.2193 555.792 52.3679 556.326 52.6651 556.706ZM55.8824 557.302C55.4062 557.835 54.7563 558.102 53.9327 558.102C53.1091 558.102 52.4575 557.835 51.9776 557.302C51.5014 556.765 51.2633 556.032 51.2633 555.105C51.2633 554.174 51.5014 553.442 51.9776 552.908C52.4539 552.375 53.1056 552.108 53.9327 552.108C54.7599 552.108 55.4116 552.375 55.8878 552.908C56.364 553.442 56.6021 554.174 56.6021 555.105C56.6021 556.032 56.3622 556.765 55.8824 557.302ZM60.2908 552.983H58.8782V554.616H60.1404C60.8673 554.616 61.2308 554.34 61.2308 553.789C61.2308 553.538 61.152 553.341 60.9944 553.198C60.8405 553.055 60.6059 552.983 60.2908 552.983ZM60.221 555.39H58.8782V557.227H60.3982C60.7527 557.227 61.0213 557.15 61.2039 556.996C61.3901 556.838 61.4832 556.612 61.4832 556.319C61.4832 556 61.3776 555.766 61.1663 555.615C60.9586 555.465 60.6435 555.39 60.221 555.39ZM57.9544 558V552.21H60.409C60.9497 552.21 61.374 552.344 61.6819 552.613C61.9899 552.878 62.1438 553.238 62.1438 553.692C62.1438 553.979 62.0525 554.24 61.8699 554.477C61.6909 554.709 61.4671 554.854 61.1985 554.912V554.998C61.5638 555.048 61.8556 555.196 62.074 555.443C62.2924 555.687 62.4017 555.984 62.4017 556.335C62.4017 556.843 62.2262 557.248 61.8753 557.549C61.5244 557.85 61.0392 558 60.4197 558H57.9544ZM63.7808 558V552.21H64.7046V554.605H67.5942V552.21H68.5181V558H67.5942V555.379H64.7046V558H63.7808ZM75.0588 558V552.21H75.9826V558H75.0588ZM72.1691 554.842H71.0788V557.227H72.1691C72.5487 557.227 72.8513 557.119 73.0769 556.904C73.306 556.686 73.4206 556.396 73.4206 556.034C73.4206 555.673 73.306 555.384 73.0769 555.169C72.8513 554.951 72.5487 554.842 72.1691 554.842ZM70.155 558V552.21H71.0788V554.068H72.1691C72.8316 554.068 73.3597 554.246 73.7536 554.6C74.1475 554.955 74.3444 555.433 74.3444 556.034C74.3444 556.636 74.1475 557.114 73.7536 557.468C73.3597 557.823 72.8316 558 72.1691 558H70.155ZM79.9398 552.924C79.4779 552.924 79.0984 553.08 78.8012 553.392C78.504 553.703 78.3375 554.115 78.3017 554.627H81.4921C81.4813 554.115 81.3345 553.703 81.0517 553.392C80.7688 553.08 80.3982 552.924 79.9398 552.924ZM81.4652 556.501H82.3891C82.2494 557.003 81.9647 557.395 81.5351 557.678C81.109 557.961 80.5808 558.102 79.9506 558.102C79.1485 558.102 78.5129 557.833 78.0438 557.296C77.5748 556.756 77.3402 556.027 77.3402 555.11C77.3402 554.197 77.5766 553.469 78.0492 552.924C78.5219 552.38 79.1557 552.108 79.9506 552.108C80.7312 552.108 81.3453 552.368 81.7929 552.887C82.2405 553.406 82.4643 554.117 82.4643 555.019V555.374H78.3017V555.417C78.3267 555.989 78.4879 556.444 78.7851 556.781C79.0858 557.117 79.4815 557.286 79.9721 557.286C80.7204 557.286 81.2182 557.024 81.4652 556.501ZM87.8436 556.716C88.1479 557.085 88.5776 557.27 89.1326 557.27C89.6876 557.27 90.1155 557.085 90.4163 556.716C90.7207 556.347 90.8729 555.828 90.8729 555.159C90.8729 554.521 90.7207 554.029 90.4163 553.682C90.1155 553.331 89.6876 553.155 89.1326 553.155C88.5776 553.155 88.1479 553.331 87.8436 553.682C87.5428 554.029 87.3924 554.521 87.3924 555.159C87.3924 555.828 87.5428 556.347 87.8436 556.716ZM87.2259 553.397H87.3118C87.498 553.071 87.7558 552.812 88.0853 552.618C88.4147 552.425 88.8104 552.328 89.2723 552.328C90.0421 552.328 90.6598 552.582 91.1253 553.091C91.5944 553.596 91.8289 554.285 91.8289 555.159C91.8289 556.072 91.5872 556.792 91.1038 557.318C90.624 557.841 89.9669 558.102 89.1326 558.102C88.2625 558.102 87.5947 557.812 87.1292 557.232C86.6673 556.648 86.4363 555.773 86.4363 554.605C86.4363 554.05 86.4632 553.56 86.5169 553.134C86.5742 552.708 86.6691 552.312 86.8016 551.947C86.9376 551.578 87.1149 551.274 87.3333 551.034C87.5517 550.794 87.8292 550.604 88.1658 550.464C88.506 550.321 88.9035 550.239 89.3582 550.217L89.9383 550.19C90.2068 550.176 90.4664 550.144 90.7171 550.094C90.9713 550.04 91.1539 549.993 91.2649 549.954C91.3795 549.911 91.4404 549.886 91.4476 549.879V550.706C91.4225 550.728 91.3813 550.756 91.324 550.792C91.2667 550.824 91.1128 550.873 90.8621 550.937C90.6115 550.998 90.3178 551.035 89.9813 551.05L89.3904 551.077C89.0109 551.095 88.6904 551.157 88.429 551.265C88.1676 551.368 87.9563 551.524 87.7952 551.732C87.6341 551.94 87.5105 552.174 87.4246 552.436C87.3387 552.697 87.2724 553.017 87.2259 553.397ZM94.2983 556.706C94.5955 557.082 95.0181 557.27 95.5659 557.27C96.1138 557.27 96.5363 557.082 96.8335 556.706C97.1307 556.326 97.2793 555.792 97.2793 555.105C97.2793 554.417 97.1307 553.886 96.8335 553.51C96.5363 553.13 96.1138 552.94 95.5659 552.94C95.0181 552.94 94.5955 553.13 94.2983 553.51C94.0011 553.886 93.8525 554.417 93.8525 555.105C93.8525 555.792 94.0011 556.326 94.2983 556.706ZM97.5156 557.302C97.0394 557.835 96.3895 558.102 95.5659 558.102C94.7424 558.102 94.0907 557.835 93.6108 557.302C93.1346 556.765 92.8965 556.032 92.8965 555.105C92.8965 554.174 93.1346 553.442 93.6108 552.908C94.0871 552.375 94.7388 552.108 95.5659 552.108C96.3931 552.108 97.0448 552.375 97.521 552.908C97.9972 553.442 98.2354 554.174 98.2354 555.105C98.2354 556.032 97.9954 556.765 97.5156 557.302ZM100.925 555.459C100.9 555.792 100.864 556.086 100.818 556.34C100.771 556.595 100.705 556.833 100.619 557.055C100.536 557.277 100.433 557.459 100.307 557.603C100.186 557.742 100.033 557.851 99.8508 557.93C99.6682 558.009 99.4587 558.048 99.2224 558.048C99.0899 558.048 98.9771 558.029 98.884 557.989V557.141C98.9699 557.169 99.0666 557.184 99.174 557.184C99.4462 557.184 99.6485 557.037 99.781 556.743C99.917 556.446 100.005 556.011 100.044 555.438L100.27 552.21H104.056V558H103.133V552.983H101.108L100.925 555.459ZM106.617 558H105.693V552.21H106.617V556.528H106.703L109.587 552.21H110.511V558H109.587V553.682H109.501L106.617 558Z" fill="black"/>
<rect x="124" y="558" width="8" height="8" rx="4" transform="rotate(-90 124 558)" fill="#007AFF"/>
<path d="M143.343 555.674C143.343 556.358 143.111 556.917 142.645 557.35C142.183 557.783 141.589 558 140.862 558H138.042V550.25H142.57V551.12H139.009V553.338H140.851C141.582 553.338 142.18 553.556 142.645 553.993C143.111 554.426 143.343 554.987 143.343 555.674ZM139.009 557.13H140.609C141.164 557.13 141.592 557.005 141.893 556.754C142.197 556.5 142.35 556.14 142.35 555.674C142.35 555.205 142.197 554.844 141.893 554.589C141.592 554.335 141.164 554.208 140.609 554.208H139.009V557.13ZM145.829 556.706C146.126 557.082 146.549 557.27 147.096 557.27C147.644 557.27 148.067 557.082 148.364 556.706C148.661 556.326 148.81 555.792 148.81 555.105C148.81 554.417 148.661 553.886 148.364 553.51C148.067 553.13 147.644 552.94 147.096 552.94C146.549 552.94 146.126 553.13 145.829 553.51C145.532 553.886 145.383 554.417 145.383 555.105C145.383 555.792 145.532 556.326 145.829 556.706ZM149.046 557.302C148.57 557.835 147.92 558.102 147.096 558.102C146.273 558.102 145.621 557.835 145.141 557.302C144.665 556.765 144.427 556.032 144.427 555.105C144.427 554.174 144.665 553.442 145.141 552.908C145.618 552.375 146.269 552.108 147.096 552.108C147.924 552.108 148.575 552.375 149.051 552.908C149.528 553.442 149.766 554.174 149.766 555.105C149.766 556.032 149.526 556.765 149.046 557.302ZM152.455 555.459C152.43 555.792 152.395 556.086 152.348 556.34C152.301 556.595 152.235 556.833 152.149 557.055C152.067 557.277 151.963 557.459 151.838 557.603C151.716 557.742 151.564 557.851 151.381 557.93C151.199 558.009 150.989 558.048 150.753 558.048C150.62 558.048 150.508 558.029 150.414 557.989V557.141C150.5 557.169 150.597 557.184 150.704 557.184C150.977 557.184 151.179 557.037 151.311 556.743C151.447 556.446 151.535 556.011 151.575 555.438L151.8 552.21H155.587V558H154.663V552.983H152.638L152.455 555.459ZM158.148 558H157.224V552.21H158.148V556.528H158.233L161.118 552.21H162.042V558H161.118V553.682H161.032L158.148 558ZM168.925 552.983H167.512V554.616H168.774C169.501 554.616 169.865 554.34 169.865 553.789C169.865 553.538 169.786 553.341 169.628 553.198C169.474 553.055 169.24 552.983 168.925 552.983ZM168.855 555.39H167.512V557.227H169.032C169.387 557.227 169.655 557.15 169.838 556.996C170.024 556.838 170.117 556.612 170.117 556.319C170.117 556 170.012 555.766 169.8 555.615C169.593 555.465 169.278 555.39 168.855 555.39ZM166.588 558V552.21H169.043C169.584 552.21 170.008 552.344 170.316 552.613C170.624 552.878 170.778 553.238 170.778 553.692C170.778 553.979 170.687 554.24 170.504 554.477C170.325 554.709 170.101 554.854 169.833 554.912V554.998C170.198 555.048 170.49 555.196 170.708 555.443C170.926 555.687 171.036 555.984 171.036 556.335C171.036 556.843 170.86 557.248 170.509 557.549C170.158 557.85 169.673 558 169.054 558H166.588ZM180.116 553.982H179.181C179.102 553.678 178.932 553.429 178.671 553.236C178.413 553.039 178.085 552.94 177.688 552.94C177.169 552.94 176.755 553.134 176.447 553.521C176.143 553.907 175.991 554.428 175.991 555.083C175.991 555.75 176.145 556.281 176.453 556.679C176.76 557.073 177.172 557.27 177.688 557.27C178.078 557.27 178.402 557.182 178.66 557.006C178.921 556.831 179.095 556.58 179.181 556.254H180.116C180.03 556.802 179.774 557.248 179.348 557.592C178.921 557.932 178.37 558.102 177.693 558.102C176.88 558.102 176.234 557.83 175.754 557.286C175.274 556.738 175.035 556.004 175.035 555.083C175.035 554.181 175.274 553.46 175.754 552.919C176.234 552.378 176.879 552.108 177.688 552.108C178.365 552.108 178.916 552.285 179.342 552.64C179.772 552.994 180.03 553.442 180.116 553.982ZM185.142 558V552.983H182.306V558H181.382V552.21H186.066V558H185.142ZM188.626 558H187.702V552.21H188.626V556.528H188.712L191.596 552.21H192.52V558H191.596V553.682H191.511L188.626 558ZM194.163 558V552.21H195.086V554.605H197.976V552.21H198.9V558H197.976V555.379H195.086V558H194.163ZM202.852 552.924C202.39 552.924 202.01 553.08 201.713 553.392C201.416 553.703 201.249 554.115 201.214 554.627H204.404C204.393 554.115 204.246 553.703 203.964 553.392C203.681 553.08 203.31 552.924 202.852 552.924ZM204.377 556.501H205.301C205.161 557.003 204.877 557.395 204.447 557.678C204.021 557.961 203.493 558.102 202.862 558.102C202.06 558.102 201.425 557.833 200.956 557.296C200.487 556.756 200.252 556.027 200.252 555.11C200.252 554.197 200.488 553.469 200.961 552.924C201.434 552.38 202.068 552.108 202.862 552.108C203.643 552.108 204.257 552.368 204.705 552.887C205.152 553.406 205.376 554.117 205.376 555.019V555.374H201.214V555.417C201.239 555.989 201.4 556.444 201.697 556.781C201.998 557.117 202.393 557.286 202.884 557.286C203.632 557.286 204.13 557.024 204.377 556.501Z" fill="black"/>
<circle cx="38.2" cy="459.2" r="4.2" fill="#FF6B00"/>
<circle cx="38.2001" cy="459.2" r="1.90909" fill="white"/>
<circle cx="78.2" cy="435.2" r="4.2" fill="#FF6B00"/>
<circle cx="78.2001" cy="435.2" r="1.90909" fill="white"/>
<circle cx="118.2" cy="459.2" r="4.2" fill="#FF6B00"/>
<circle cx="118.2" cy="459.2" r="1.90909" fill="white"/>
<circle cx="158.2" cy="387.2" r="4.2" fill="#FF6B00"/>
<circle cx="158.2" cy="387.2" r="1.90909" fill="white"/>
<circle cx="198.2" cy="411.2" r="4.2" fill="#FF6B00"/>
<circle cx="198.2" cy="411.2" r="1.90909" fill="white"/>
<circle cx="238.2" cy="459.2" r="4.2" fill="#FF6B00"/>
<circle cx="238.2" cy="459.2" r="1.90909" fill="white"/>
<circle cx="278.2" cy="411.2" r="4.2" fill="#FF6B00"/>
<circle cx="278.2" cy="411.2" r="1.90909" fill="white"/>
<circle cx="278.2" cy="483.2" r="4.2" fill="#007AFF"/>
<circle cx="278.2" cy="483.2" r="1.90909" fill="white"/>
<circle cx="238.2" cy="435.2" r="4.2" fill="#007AFF"/>
<circle cx="238.2" cy="435.2" r="1.90909" fill="white"/>
<circle cx="198.2" cy="411.2" r="4.2" fill="url(#paint4_linear)"/>
<circle cx="198.2" cy="411.2" r="1.90909" fill="white"/>
<circle cx="158.2" cy="435.2" r="4.2" fill="#007AFF"/>
<circle cx="158.2" cy="435.2" r="1.90909" fill="white"/>
<circle cx="118.2" cy="483.2" r="4.2" fill="#007AFF"/>
<circle cx="118.2" cy="483.2" r="1.90909" fill="white"/>
<circle cx="78.2" cy="411.2" r="4.2" fill="#007AFF"/>
<circle cx="78.2001" cy="411.2" r="1.90909" fill="white"/>
<circle cx="38.2" cy="483.2" r="4.2" fill="#007AFF"/>
<circle cx="38.2001" cy="483.2" r="1.90909" fill="white"/>
<path d="M26.9702 350.222C25.6965 350.222 24.6893 349.793 23.9487 348.934C23.2082 348.075 22.8379 346.904 22.8379 345.423C22.8379 343.938 23.2061 342.766 23.9424 341.907C24.6829 341.048 25.6901 340.618 26.9639 340.618C27.971 340.618 28.828 340.914 29.5347 341.507C30.2456 342.095 30.6582 342.857 30.7725 343.792H29.3569C29.2215 343.229 28.938 342.781 28.5063 342.446C28.0789 342.112 27.5648 341.945 26.9639 341.945C26.1429 341.945 25.4912 342.258 25.0088 342.884C24.5306 343.506 24.2915 344.353 24.2915 345.423C24.2915 346.49 24.5306 347.336 25.0088 347.962C25.4912 348.584 26.145 348.896 26.9702 348.896C27.5754 348.896 28.0916 348.743 28.519 348.438C28.9507 348.134 29.23 347.723 29.3569 347.207H30.7725C30.6455 348.113 30.235 348.843 29.541 349.397C28.847 349.947 27.9901 350.222 26.9702 350.222ZM33.8605 350H32.5085V343.087H33.8605V347.842H33.9685L37.1232 343.087H38.4753V350H37.1232V345.22H37.0153L33.8605 350ZM41.7094 350H40.3827V343.087H42.0966L44.3246 348.032H44.4325L46.6669 343.087H48.3363V350H47.0033V345.233H46.8827L44.8578 349.721H43.8549L41.83 345.233H41.7094V350ZM54.6871 350V344.236H51.6021V350H50.2374V343.087H56.0519V350H54.6871ZM63.1009 343.087V344.236H60.9236V350H59.5589V344.236H57.3816V343.087H63.1009ZM67.1221 348.921C67.7103 348.921 68.1652 348.714 68.4868 348.299C68.8127 347.88 68.9756 347.294 68.9756 346.541C68.9756 345.792 68.8127 345.21 68.4868 344.795C68.1652 344.376 67.7103 344.167 67.1221 344.167C66.5296 344.167 66.0726 344.374 65.751 344.789C65.4294 345.203 65.2686 345.787 65.2686 346.541C65.2686 347.298 65.4294 347.884 65.751 348.299C66.0726 348.714 66.5296 348.921 67.1221 348.921ZM67.1221 350.133C66.1064 350.133 65.3088 349.814 64.729 349.175C64.1493 348.536 63.8594 347.658 63.8594 346.541C63.8594 345.428 64.1493 344.552 64.729 343.913C65.313 343.274 66.1107 342.954 67.1221 342.954C68.1292 342.954 68.9227 343.274 69.5024 343.913C70.0864 344.552 70.3784 345.428 70.3784 346.541C70.3784 347.658 70.0885 348.536 69.5088 349.175C68.929 349.814 68.1335 350.133 67.1221 350.133ZM73.2697 350H71.9431V343.087H73.6569L75.885 348.032H75.9929L78.2272 343.087H79.8967V350H78.5637V345.233H78.4431L76.4182 349.721H75.4152L73.3903 345.233H73.2697V350ZM87.8852 350V343.087H89.2436V350H87.8852ZM84.3749 346.35H83.1625V348.851H84.3749C84.7896 348.851 85.1197 348.737 85.3651 348.508C85.6106 348.28 85.7333 347.977 85.7333 347.601C85.7333 347.224 85.6085 346.921 85.3588 346.693C85.1133 346.464 84.7854 346.35 84.3749 346.35ZM81.7978 350V343.087H83.1625V345.208H84.4765C85.2763 345.208 85.9131 345.423 86.3871 345.855C86.8611 346.287 87.098 346.868 87.098 347.601C87.098 348.333 86.8611 348.917 86.3871 349.353C85.9131 349.784 85.2763 350 84.4765 350H81.7978Z" fill="black"/>
<rect x="10" y="111" width="300" height="0.8" fill="#F0F0F0"/>
<path d="M190.989 94H189.859V85.8813H184.958V94H183.81V84.8403H190.989V94ZM194.432 92.4702C194.784 92.9146 195.283 93.1367 195.93 93.1367C196.578 93.1367 197.077 92.9146 197.428 92.4702C197.78 92.0216 197.955 91.3911 197.955 90.5786C197.955 89.7661 197.78 89.1377 197.428 88.6934C197.077 88.2448 196.578 88.0205 195.93 88.0205C195.283 88.0205 194.784 88.2448 194.432 88.6934C194.081 89.1377 193.905 89.7661 193.905 90.5786C193.905 91.3911 194.081 92.0216 194.432 92.4702ZM198.235 93.1748C197.672 93.8053 196.904 94.1206 195.93 94.1206C194.957 94.1206 194.187 93.8053 193.62 93.1748C193.057 92.54 192.776 91.6746 192.776 90.5786C192.776 89.4784 193.057 88.613 193.62 87.9824C194.183 87.3519 194.953 87.0366 195.93 87.0366C196.908 87.0366 197.678 87.3519 198.241 87.9824C198.804 88.613 199.085 89.4784 199.085 90.5786C199.085 91.6746 198.802 92.54 198.235 93.1748ZM206.388 89.252H205.284C205.19 88.8923 204.989 88.5981 204.681 88.3696C204.376 88.1369 203.989 88.0205 203.519 88.0205C202.905 88.0205 202.417 88.249 202.053 88.7061C201.693 89.1631 201.513 89.7788 201.513 90.5532C201.513 91.3403 201.695 91.9688 202.059 92.4385C202.423 92.904 202.91 93.1367 203.519 93.1367C203.98 93.1367 204.363 93.033 204.668 92.8257C204.977 92.6183 205.182 92.3221 205.284 91.937H206.388C206.287 92.5845 205.984 93.1113 205.48 93.5176C204.977 93.9196 204.325 94.1206 203.525 94.1206C202.565 94.1206 201.801 93.799 201.234 93.1558C200.667 92.5083 200.383 91.6408 200.383 90.5532C200.383 89.4868 200.667 88.6341 201.234 87.9951C201.801 87.3561 202.563 87.0366 203.519 87.0366C204.319 87.0366 204.97 87.2461 205.474 87.665C205.982 88.084 206.287 88.613 206.388 89.252ZM209.565 90.9976C209.535 91.3911 209.493 91.7381 209.438 92.0386C209.383 92.339 209.305 92.6204 209.203 92.8828C209.106 93.1452 208.983 93.361 208.835 93.5303C208.691 93.6953 208.511 93.8244 208.296 93.9175C208.08 94.0106 207.832 94.0571 207.553 94.0571C207.396 94.0571 207.263 94.0339 207.153 93.9873V92.9844C207.254 93.0182 207.369 93.0352 207.496 93.0352C207.817 93.0352 208.056 92.8617 208.213 92.5146C208.374 92.1634 208.477 91.6493 208.524 90.9722L208.791 87.1572H213.266V94H212.174V88.0713H209.781L209.565 90.9976ZM217.972 88.0015C217.427 88.0015 216.978 88.1855 216.627 88.5537C216.276 88.9219 216.079 89.4085 216.036 90.0137H219.807C219.794 89.4085 219.621 88.9219 219.286 88.5537C218.952 88.1855 218.514 88.0015 217.972 88.0015ZM219.775 92.229H220.867C220.702 92.8215 220.366 93.2848 219.858 93.6191C219.354 93.9535 218.73 94.1206 217.985 94.1206C217.037 94.1206 216.286 93.8032 215.732 93.1685C215.177 92.5295 214.9 91.6683 214.9 90.585C214.9 89.5059 215.179 88.6447 215.738 88.0015C216.297 87.3582 217.046 87.0366 217.985 87.0366C218.908 87.0366 219.633 87.3434 220.162 87.957C220.691 88.5706 220.956 89.4106 220.956 90.4771V90.896H216.036V90.9468C216.066 91.6239 216.256 92.1613 216.608 92.5591C216.963 92.9569 217.431 93.1558 218.011 93.1558C218.895 93.1558 219.483 92.8468 219.775 92.229ZM226.945 93.0859V88.0713H224.349L224.133 90.9976C224.061 91.9201 223.873 92.5824 223.568 92.9844V93.0859H226.945ZM222.749 95.8091H221.721V93.0859H222.292C222.529 92.9294 222.715 92.6628 222.851 92.2861C222.986 91.9053 223.071 91.4673 223.104 90.9722L223.371 87.1572H228.037V93.0859H229.128V95.8091H228.1V94H222.749V95.8091ZM230.363 94V87.1572H231.455V89.9883H234.87V87.1572H235.962V94H234.87V90.9023H231.455V94H230.363ZM240.287 90.6357H241.576V88.0713H240.287C239.835 88.0713 239.475 88.1898 239.208 88.4268C238.942 88.6595 238.808 88.9832 238.808 89.3979C238.808 89.7619 238.944 90.0602 239.215 90.293C239.486 90.5215 239.843 90.6357 240.287 90.6357ZM241.576 94V91.5498H240.402L238.656 94H237.355L239.266 91.3467C238.783 91.2113 238.404 90.9743 238.129 90.6357C237.854 90.2972 237.717 89.8931 237.717 89.4233C237.717 88.7209 237.947 88.1686 238.409 87.7666C238.874 87.3604 239.5 87.1572 240.287 87.1572H242.668V94H241.576ZM246.994 90.6357H248.282V88.0713H246.994C246.541 88.0713 246.181 88.1898 245.915 88.4268C245.648 88.6595 245.515 88.9832 245.515 89.3979C245.515 89.7619 245.65 90.0602 245.921 90.293C246.192 90.5215 246.549 90.6357 246.994 90.6357ZM248.282 94V91.5498H247.108L245.362 94H244.061L245.972 91.3467C245.489 91.2113 245.111 90.9743 244.836 90.6357C244.56 90.2972 244.423 89.8931 244.423 89.4233C244.423 88.7209 244.654 88.1686 245.115 87.7666C245.58 87.3604 246.207 87.1572 246.994 87.1572H249.374V94H248.282ZM254.814 94V87.1572H255.906V89.9883H259.321V87.1572H260.413V94H259.321V90.9023H255.906V94H254.814ZM265.119 88.0015C264.573 88.0015 264.125 88.1855 263.774 88.5537C263.422 88.9219 263.226 89.4085 263.183 90.0137H266.954C266.941 89.4085 266.768 88.9219 266.433 88.5537C266.099 88.1855 265.661 88.0015 265.119 88.0015ZM266.922 92.229H268.014C267.849 92.8215 267.512 93.2848 267.005 93.6191C266.501 93.9535 265.877 94.1206 265.132 94.1206C264.184 94.1206 263.433 93.8032 262.879 93.1685C262.324 92.5295 262.047 91.6683 262.047 90.585C262.047 89.5059 262.326 88.6447 262.885 88.0015C263.444 87.3582 264.193 87.0366 265.132 87.0366C266.055 87.0366 266.78 87.3434 267.309 87.957C267.838 88.5706 268.103 89.4106 268.103 90.4771V90.896H263.183V90.9468C263.213 91.6239 263.403 92.1613 263.755 92.5591C264.11 92.9569 264.578 93.1558 265.157 93.1558C266.042 93.1558 266.63 92.8468 266.922 92.229ZM274.092 93.0859V88.0713H271.496L271.28 90.9976C271.208 91.9201 271.019 92.5824 270.715 92.9844V93.0859H274.092ZM269.896 95.8091H268.868V93.0859H269.439C269.676 92.9294 269.862 92.6628 269.997 92.2861C270.133 91.9053 270.218 91.4673 270.251 90.9722L270.518 87.1572H275.183V93.0859H276.275V95.8091H275.247V94H269.896V95.8091ZM280.246 88.0015C279.7 88.0015 279.251 88.1855 278.9 88.5537C278.549 88.9219 278.352 89.4085 278.31 90.0137H282.08C282.067 89.4085 281.894 88.9219 281.56 88.5537C281.225 88.1855 280.787 88.0015 280.246 88.0015ZM282.048 92.229H283.14C282.975 92.8215 282.639 93.2848 282.131 93.6191C281.627 93.9535 281.003 94.1206 280.258 94.1206C279.31 94.1206 278.559 93.8032 278.005 93.1685C277.451 92.5295 277.173 91.6683 277.173 90.585C277.173 89.5059 277.453 88.6447 278.011 88.0015C278.57 87.3582 279.319 87.0366 280.258 87.0366C281.181 87.0366 281.907 87.3434 282.436 87.957C282.965 88.5706 283.229 89.4106 283.229 90.4771V90.896H278.31V90.9468C278.339 91.6239 278.53 92.1613 278.881 92.5591C279.236 92.9569 279.704 93.1558 280.284 93.1558C281.168 93.1558 281.756 92.8468 282.048 92.229ZM286.508 90.9976C286.478 91.3911 286.436 91.7381 286.381 92.0386C286.326 92.339 286.247 92.6204 286.146 92.8828C286.048 93.1452 285.926 93.361 285.778 93.5303C285.634 93.6953 285.454 93.8244 285.238 93.9175C285.022 94.0106 284.775 94.0571 284.495 94.0571C284.339 94.0571 284.206 94.0339 284.096 93.9873V92.9844C284.197 93.0182 284.311 93.0352 284.438 93.0352C284.76 93.0352 284.999 92.8617 285.156 92.5146C285.316 92.1634 285.42 91.6493 285.467 90.9722L285.733 87.1572H290.208V94H289.117V88.0713H286.723L286.508 90.9976ZM294.534 90.6357H295.823V88.0713H294.534C294.081 88.0713 293.722 88.1898 293.455 88.4268C293.188 88.6595 293.055 88.9832 293.055 89.3979C293.055 89.7619 293.191 90.0602 293.461 90.293C293.732 90.5215 294.09 90.6357 294.534 90.6357ZM295.823 94V91.5498H294.648L292.903 94H291.602L293.512 91.3467C293.03 91.2113 292.651 90.9743 292.376 90.6357C292.101 90.2972 291.963 89.8931 291.963 89.4233C291.963 88.7209 292.194 88.1686 292.655 87.7666C293.121 87.3604 293.747 87.1572 294.534 87.1572H296.915V94H295.823Z" fill="black"/>
<path d="M50.6328 94H49.2236V86.1416H44.6406V94H43.2124V84.8403H50.6328V94ZM56.7551 88.6045C56.4504 88.2786 56.0463 88.1157 55.5427 88.1157C55.0391 88.1157 54.6244 88.2786 54.2985 88.6045C53.9727 88.9303 53.7907 89.3641 53.7526 89.9058H57.2438C57.2269 89.3599 57.064 88.9261 56.7551 88.6045ZM57.2375 92.1338H58.5515C58.3949 92.7559 58.0521 93.2446 57.5231 93.6001C56.9984 93.9556 56.3425 94.1333 55.5554 94.1333C54.5651 94.1333 53.7844 93.8159 53.2131 93.1812C52.646 92.5422 52.3625 91.6704 52.3625 90.5659C52.3625 89.4614 52.6503 88.5833 53.2258 87.9316C53.8013 87.2799 54.5757 86.9541 55.549 86.9541C56.5096 86.9541 57.2629 87.263 57.8088 87.8809C58.3589 88.4987 58.634 89.3514 58.634 90.439V90.915H53.7526V90.9912C53.7738 91.6006 53.9494 92.083 54.2795 92.4385C54.6096 92.7939 55.0476 92.9717 55.5935 92.9717C56.4271 92.9717 56.9751 92.6924 57.2375 92.1338ZM63.7787 86.9731C64.6589 86.9731 65.3572 87.2948 65.8734 87.938C66.3897 88.577 66.6479 89.4445 66.6479 90.5405C66.6479 91.6366 66.3897 92.5062 65.8734 93.1494C65.3614 93.7926 64.6674 94.1143 63.7914 94.1143C63.3005 94.1143 62.8689 94.0127 62.4965 93.8096C62.1241 93.6022 61.8469 93.3166 61.6649 92.9526H61.557V96.2979H60.1923V87.0874H61.5063V88.23H61.6078C61.8152 87.8364 62.1114 87.5296 62.4965 87.3096C62.8816 87.0853 63.309 86.9731 63.7787 86.9731ZM63.3915 92.8892C63.9713 92.8892 64.4241 92.6818 64.7499 92.2671C65.08 91.8481 65.245 91.2726 65.245 90.5405C65.245 89.8084 65.08 89.235 64.7499 88.8203C64.4241 88.4056 63.9734 88.1982 63.3979 88.1982C62.8223 88.1982 62.3674 88.4098 62.0331 88.833C61.6988 89.252 61.5316 89.8232 61.5316 90.5469C61.5316 91.2663 61.6988 91.8376 62.0331 92.2607C62.3674 92.6797 62.8202 92.8892 63.3915 92.8892ZM69.5709 94H68.2188V87.0874H69.5709V91.8418H69.6788L72.8336 87.0874H74.1856V94H72.8336V89.2202H72.7257L69.5709 94ZM79.0193 92.9209C79.6076 92.9209 80.0625 92.7135 80.3841 92.2988C80.7099 91.8799 80.8729 91.2938 80.8729 90.5405C80.8729 89.7915 80.7099 89.2096 80.3841 88.7949C80.0625 88.376 79.6076 88.1665 79.0193 88.1665C78.4269 88.1665 77.9699 88.3739 77.6482 88.7886C77.3266 89.2033 77.1658 89.7873 77.1658 90.5405C77.1658 91.298 77.3266 91.8841 77.6482 92.2988C77.9699 92.7135 78.4269 92.9209 79.0193 92.9209ZM79.0193 94.1333C78.0037 94.1333 77.206 93.8138 76.6263 93.1748C76.0465 92.5358 75.7566 91.6577 75.7566 90.5405C75.7566 89.4276 76.0465 88.5516 76.6263 87.9126C77.2103 87.2736 78.0079 86.9541 79.0193 86.9541C80.0265 86.9541 80.82 87.2736 81.3997 87.9126C81.9837 88.5516 82.2757 89.4276 82.2757 90.5405C82.2757 91.6577 81.9858 92.5358 81.4061 93.1748C80.8263 93.8138 80.0307 94.1333 79.0193 94.1333ZM88.1567 92.8511V88.2363H85.7383L85.5479 90.8389C85.4759 91.7064 85.2961 92.3411 85.0083 92.7432V92.8511H88.1567ZM84.2085 95.8091H82.939V92.8511H83.4976C83.9546 92.5718 84.2212 91.8778 84.2974 90.769L84.5513 87.0874H89.5215V92.8511H90.5942V95.8091H89.3311V94H84.2085V95.8091Z" fill="black"/>
<path d="M22.0022 83C22.6133 83 22.9889 83 23.6 83C23.6 83.4685 23.6 84.1291 23.6 84.6C24.3491 84.6 25.3142 84.6 26.0656 84.6C26.0656 84.1363 26.0656 83.4733 26.0656 83C27.0907 83 28.1049 83 29.1301 83C29.1301 83.4661 29.1301 84.1291 29.1301 84.6C29.8814 84.6 30.8509 84.6 31.6 84.6C31.6 84.6 31.6 83.4709 31.6 83C32.2155 83 32.5889 83.0024 33.2 83.0024C33.2 86.7309 33.2 90.4619 33.2 94.2C29.4718 94.2 25.7414 94.2 22 94.2C22.0022 90.4715 22.0022 86.7405 22.0022 83ZM31.6 86.2C28.7064 86.2 26.4827 86.2 23.6 86.2C23.6 88.5327 23.6 90.2793 23.6 92.6C26.4915 92.6 28.7129 92.6 31.6 92.6C31.6 90.2721 31.6 88.5279 31.6 86.2Z" fill="#FF6B00"/>
<path d="M24.4 82.2C24.6686 82.2 24.9315 82.2 25.2 82.2C25.2 82.732 25.2 83.262 25.2 83.8C24.9343 83.8 24.67 83.8 24.4 83.8C24.4 83.2699 24.4 82.7398 24.4 82.2Z" fill="#FF6B00"/>
<path d="M30.8 83.8C30.5324 83.8 30.269 83.8 30 83.8C30 83.2679 30 82.7379 30 82.2C30.2648 82.2 30.5296 82.2 30.8 82.2C30.8 82.728 30.8 83.2581 30.8 83.8Z" fill="#FF6B00"/>
<path d="M26.8 89.3999C26.2648 89.3999 25.738 89.3999 25.2 89.3999C25.2 88.8679 25.2 88.3378 25.2 87.7999C25.7296 87.7999 26.2592 87.7999 26.8 87.7999C26.8 88.328 26.8 88.8581 26.8 89.3999Z" fill="#FF6B00"/>
<path d="M26.8 90.9999C26.2648 90.9999 25.738 90.9999 25.2 90.9999C25.2 90.4679 25.2 89.9378 25.2 89.3999C25.7296 89.3999 26.2592 89.3999 26.8 89.3999C26.8 89.928 26.8 90.4581 26.8 90.9999Z" fill="#FF6B00"/>
<path d="M30 89.3999C29.4648 89.3999 28.938 89.3999 28.4 89.3999C28.4 88.8679 28.4 88.3378 28.4 87.7999C28.9296 87.7999 29.4592 87.7999 30 87.7999C30 88.328 30 88.8581 30 89.3999Z" fill="#FF6B00"/>
<path d="M30 90.9999C29.4648 90.9999 28.938 90.9999 28.4 90.9999C28.4 90.4679 28.4 89.9378 28.4 89.3999C28.9296 89.3999 29.4592 89.3999 30 89.3999C30 89.928 30 90.4581 30 90.9999Z" fill="#FF6B00"/>
<path d="M10 65H310V5H10V65Z" fill="#FBFBFB"/>
<path d="M128.319 55.2158C127.075 55.2158 126.089 54.7863 125.361 53.9272C124.637 53.0682 124.275 51.9002 124.275 50.4233C124.275 48.9465 124.637 47.7785 125.361 46.9194C126.084 46.0562 127.068 45.6245 128.312 45.6245C129.277 45.6245 130.103 45.8996 130.788 46.4497C131.474 46.9998 131.884 47.7171 132.02 48.6016H130.858C130.706 48.0091 130.401 47.5415 129.944 47.1987C129.487 46.8517 128.943 46.6782 128.312 46.6782C127.432 46.6782 126.734 47.0146 126.218 47.6875C125.706 48.3604 125.45 49.2723 125.45 50.4233C125.45 51.5744 125.708 52.4863 126.224 53.1592C126.74 53.8278 127.439 54.1621 128.319 54.1621C128.958 54.1621 129.504 54.0098 129.957 53.7051C130.414 53.3962 130.714 52.9772 130.858 52.4482H132.02C131.867 53.2904 131.455 53.9632 130.782 54.4668C130.113 54.9661 129.292 55.2158 128.319 55.2158ZM138.875 48.1572V49.0713H136.653V55H135.562V49.0713H133.34V48.1572H138.875ZM142.519 54.1621C143.081 54.1621 143.547 53.9992 143.915 53.6733C144.287 53.3475 144.474 52.9391 144.474 52.4482V51.8198L142.633 51.9404C142.117 51.9743 141.738 52.0822 141.497 52.2642C141.255 52.4461 141.135 52.7106 141.135 53.0576C141.135 53.4004 141.264 53.6712 141.522 53.8701C141.78 54.0648 142.112 54.1621 142.519 54.1621ZM142.315 55.1206C141.643 55.1206 141.088 54.9365 140.652 54.5684C140.221 54.196 140.005 53.7008 140.005 53.083C140.005 52.4736 140.221 51.9954 140.652 51.6484C141.084 51.3014 141.7 51.1047 142.5 51.0581L144.474 50.9375V50.3154C144.474 49.8923 144.342 49.5685 144.08 49.3442C143.818 49.12 143.433 49.0078 142.925 49.0078C142.514 49.0078 142.174 49.0819 141.903 49.23C141.632 49.3781 141.458 49.5876 141.382 49.8584H140.278C140.35 49.3125 140.631 48.8724 141.122 48.5381C141.617 48.2038 142.231 48.0366 142.963 48.0366C143.792 48.0366 144.433 48.2376 144.886 48.6396C145.339 49.0417 145.565 49.6003 145.565 50.3154V55H144.524V53.9907H144.423C144.203 54.3547 143.911 54.634 143.547 54.8286C143.183 55.0233 142.772 55.1206 142.315 55.1206ZM152.535 48.1572V49.0713H150.313V55H149.222V49.0713H147V48.1572H152.535ZM155.22 55H154.128V48.1572H155.22V53.2607H155.322L158.73 48.1572H159.822V55H158.73V49.8965H158.629L155.22 55ZM167.668 50.252H166.563C166.47 49.8923 166.269 49.5981 165.96 49.3696C165.656 49.1369 165.269 49.0205 164.799 49.0205C164.185 49.0205 163.696 49.249 163.333 49.7061C162.973 50.1631 162.793 50.7788 162.793 51.5532C162.793 52.3403 162.975 52.9688 163.339 53.4385C163.703 53.904 164.189 54.1367 164.799 54.1367C165.26 54.1367 165.643 54.033 165.948 53.8257C166.257 53.6183 166.462 53.3221 166.563 52.937H167.668C167.566 53.5845 167.264 54.1113 166.76 54.5176C166.257 54.9196 165.605 55.1206 164.805 55.1206C163.845 55.1206 163.081 54.799 162.514 54.1558C161.947 53.5083 161.663 52.6408 161.663 51.5532C161.663 50.4868 161.947 49.6341 162.514 48.9951C163.081 48.3561 163.842 48.0366 164.799 48.0366C165.599 48.0366 166.25 48.2461 166.754 48.665C167.262 49.084 167.566 49.613 167.668 50.252ZM174.041 48.1572V49.0713H171.819V55H170.728V49.0713H168.506V48.1572H174.041ZM176.726 55H175.634V48.1572H176.726V53.2607H176.828L180.236 48.1572H181.328V55H180.236V49.8965H180.135L176.726 55ZM184.597 51.02H184.896L187.606 48.1572H188.933L185.797 51.3818L189.053 55H187.638L184.896 51.8833H184.597V55H183.505V48.1572H184.597V51.02ZM192.5 54.1621C193.063 54.1621 193.528 53.9992 193.896 53.6733C194.269 53.3475 194.455 52.9391 194.455 52.4482V51.8198L192.614 51.9404C192.098 51.9743 191.719 52.0822 191.478 52.2642C191.237 52.4461 191.116 52.7106 191.116 53.0576C191.116 53.4004 191.245 53.6712 191.503 53.8701C191.762 54.0648 192.094 54.1621 192.5 54.1621ZM192.297 55.1206C191.624 55.1206 191.07 54.9365 190.634 54.5684C190.202 54.196 189.986 53.7008 189.986 53.083C189.986 52.4736 190.202 51.9954 190.634 51.6484C191.065 51.3014 191.681 51.1047 192.481 51.0581L194.455 50.9375V50.3154C194.455 49.8923 194.324 49.5685 194.062 49.3442C193.799 49.12 193.414 49.0078 192.906 49.0078C192.496 49.0078 192.155 49.0819 191.884 49.23C191.613 49.3781 191.44 49.5876 191.364 49.8584H190.259C190.331 49.3125 190.613 48.8724 191.104 48.5381C191.599 48.2038 192.212 48.0366 192.944 48.0366C193.774 48.0366 194.415 48.2376 194.868 48.6396C195.32 49.0417 195.547 49.6003 195.547 50.3154V55H194.506V53.9907H194.404C194.184 54.3547 193.892 54.634 193.528 54.8286C193.164 55.0233 192.754 55.1206 192.297 55.1206Z" fill="black"/>
<rect x="10" y="65" width="300" height="1" fill="#F0F0F0"/>
<g filter="url(#filter0_d)">
<path fill-rule="evenodd" clip-rule="evenodd" d="M0 580H320V660H0V580Z" fill="white"/>
</g>
<path d="M247 580H309V620H247V580Z" fill="white"/>
<path d="M272.091 604.554C272.609 603.305 273.524 602.619 274.953 602.648C275.872 602.666 277.034 603.24 277.492 604.554C277.567 604.554 277.649 604.554 277.728 604.554C280.214 604.554 282.701 604.554 285.187 604.554C285.57 604.554 285.904 604.805 285.979 605.146C286.057 605.502 285.881 605.868 285.536 606.008C285.397 606.065 285.232 606.087 285.082 606.087C282.622 606.09 280.158 606.09 277.698 606.087C277.533 606.087 277.465 606.13 277.405 606.281C276.989 607.336 275.954 608.004 274.761 608C273.625 607.996 272.586 607.307 272.181 606.273C272.125 606.13 272.058 606.083 271.904 606.087C271.536 606.098 271.165 606.098 270.797 606.087C270.366 606.076 270.032 605.778 270.002 605.398C269.972 604.981 270.235 604.626 270.655 604.565C270.861 604.536 271.079 604.554 271.292 604.551C271.562 604.554 271.829 604.554 272.091 604.554ZM274.803 606.464C275.47 606.464 276.01 605.943 276.003 605.315C275.995 604.691 275.455 604.177 274.806 604.17C274.143 604.167 273.606 604.68 273.606 605.319C273.603 605.961 274.128 606.464 274.803 606.464Z" fill="#999AAB"/>
<path d="M277.49 595.368C277.333 595.834 277.078 596.236 276.702 596.567C275.255 597.855 272.892 597.331 272.191 595.565C272.131 595.411 272.06 595.357 271.887 595.364C271.538 595.378 271.186 595.368 270.837 595.368C270.364 595.368 270.012 595.052 270.004 594.625C269.997 594.18 270.331 593.846 270.811 593.835C271.193 593.828 271.572 593.828 271.955 593.835C272.071 593.839 272.127 593.806 272.172 593.695C272.63 592.557 273.848 591.864 275.112 592.022C276.237 592.162 277.033 592.711 277.445 593.734C277.494 593.857 277.58 593.835 277.67 593.835C279.988 593.835 282.305 593.835 284.627 593.835C284.822 593.835 285.013 593.828 285.208 593.839C285.685 593.86 286.015 594.197 286 594.643C285.985 595.063 285.636 595.371 285.171 595.375C282.688 595.375 280.209 595.375 277.726 595.375C277.651 595.368 277.576 595.368 277.49 595.368ZM273.608 594.603C273.608 595.242 274.149 595.759 274.809 595.752C275.461 595.745 276.001 595.228 276.005 594.607C276.009 593.996 275.491 593.537 274.805 593.533C274.111 593.537 273.608 593.986 273.608 594.603Z" fill="#999AAB"/>
<path d="M274.559 599.201C275.796 599.201 277.034 599.198 278.271 599.205C278.444 599.205 278.526 599.162 278.594 599C279.006 597.963 280.053 597.274 281.2 597.277C282.37 597.281 283.417 597.977 283.822 599.032C283.874 599.172 283.946 599.208 284.092 599.205C284.456 599.194 284.816 599.198 285.179 599.201C285.66 599.208 285.997 599.521 285.997 599.959C286.001 600.404 285.66 600.719 285.172 600.727C284.797 600.73 284.422 600.73 284.047 600.727C283.942 600.727 283.886 600.745 283.841 600.852C283.391 601.947 282.55 602.568 281.324 602.64C280.147 602.712 279.018 602.037 278.575 600.888C278.523 600.755 278.459 600.723 278.324 600.723C275.837 600.727 273.351 600.727 270.861 600.727C270.354 600.727 270.006 600.418 270.006 599.969C270.002 599.531 270.339 599.205 270.812 599.201C271.592 599.198 272.376 599.201 273.156 599.201C273.621 599.201 274.09 599.201 274.559 599.201ZM282.393 599.969C282.397 599.33 281.864 598.813 281.2 598.813C280.54 598.813 279.993 599.338 279.997 599.966C280 600.587 280.54 601.107 281.189 601.111C281.853 601.114 282.389 600.605 282.393 599.969Z" fill="#999AAB"/>
<path fill-rule="evenodd" clip-rule="evenodd" d="M188 580H247V620H188V580Z" fill="white"/>
<path d="M214.715 597.273C214.413 597.343 214.128 597.396 213.851 597.479C212.71 597.817 211.982 598.555 211.723 599.676C211.471 600.777 211.812 601.725 212.668 602.487C213.004 602.788 213.025 602.871 212.778 603.254C212.655 603.448 212.536 603.642 212.408 603.831C212.268 604.033 212.084 604.062 211.88 603.918C209.73 602.409 209.364 599.342 211.093 597.384C211.586 596.823 212.17 596.395 212.876 596.118C213.013 596.065 213.072 595.991 213.093 595.855C213.43 593.653 215.375 592.017 217.674 592C219.986 591.984 221.919 593.55 222.323 595.776C222.344 595.9 222.4 595.962 222.506 596.019C224.086 596.881 224.924 598.196 224.997 599.948C225.086 602.174 223.264 604.227 220.982 604.499C220.578 604.549 220.471 604.458 220.463 604.066C220.458 603.852 220.446 603.642 220.433 603.427C220.42 603.097 220.51 602.986 220.842 602.912C222.144 602.632 222.975 601.877 223.281 600.616C223.613 599.239 222.783 597.776 221.408 597.281C221.204 597.207 220.923 597.19 220.808 597.05C220.697 596.914 220.761 596.646 220.744 596.44C220.646 594.985 219.705 593.925 218.262 593.637C216.614 593.307 214.903 594.498 214.72 596.114C214.681 596.489 214.715 596.873 214.715 597.273Z" fill="#999AAB"/>
<path d="M216.802 600.629C216.934 600.324 217.057 600.036 217.181 599.747C217.487 599.026 217.794 598.304 218.1 597.579C218.228 597.278 218.39 597.212 218.7 597.335C218.922 597.426 219.143 597.513 219.365 597.603C219.688 597.735 219.748 597.871 219.616 598.176C219.079 599.438 218.543 600.699 218.015 601.961C217.951 602.113 217.917 602.291 217.917 602.455C217.909 604.15 217.913 605.848 217.913 607.542C217.913 607.909 217.815 608 217.432 608C217.189 608 216.951 608 216.708 608C216.389 607.996 216.278 607.893 216.278 607.575C216.278 605.922 216.274 604.265 216.282 602.612C216.282 602.431 216.227 602.307 216.095 602.183C215.508 601.647 214.929 601.099 214.35 600.555C214.098 600.32 214.09 600.168 214.328 599.928C214.511 599.743 214.69 599.562 214.873 599.38C215.065 599.195 215.252 599.191 215.448 599.372C215.861 599.755 216.274 600.147 216.687 600.53C216.721 600.563 216.755 600.588 216.802 600.629Z" fill="#999AAB"/>
<path fill-rule="evenodd" clip-rule="evenodd" d="M129 580H188V620H129V580Z" fill="white"/>
<path d="M152 599.981C152 598.116 152 596.25 152 594.388C152 593.457 152.397 592.74 153.246 592.274C153.603 592.08 153.996 592.003 154.402 592C157.683 592 160.964 592 164.246 592C164.556 592 164.784 592.131 164.926 592.395C165.065 592.654 164.996 592.883 164.821 593.103C164.246 593.833 164.272 594.8 164.857 595.523C164.933 595.619 164.976 595.766 164.976 595.89C164.982 598.859 164.982 601.83 164.982 604.799C164.982 605.605 164.982 606.415 164.982 607.222C164.982 607.735 164.715 608 164.186 608C160.945 608 157.7 608 154.458 608C153.216 608 152.264 607.241 152.033 606.068C152.007 605.927 152.003 605.784 152.003 605.64C152 603.753 152 601.868 152 599.981ZM153.378 596.343C153.378 596.435 153.378 596.499 153.378 596.563C153.378 597.743 153.378 598.922 153.378 600.102C153.378 601.926 153.378 603.747 153.378 605.57C153.378 606.173 153.807 606.6 154.409 606.6C157.416 606.6 160.423 606.6 163.429 606.6C163.482 606.6 163.535 606.594 163.601 606.591C163.601 606.517 163.601 606.454 163.601 606.39C163.601 603.185 163.601 599.981 163.601 596.776C163.601 596.509 163.634 596.534 163.357 596.534C160.796 596.534 158.235 596.544 155.674 596.531C154.921 596.528 154.148 596.642 153.378 596.343ZM163.149 593.279C163.112 593.275 163.096 593.269 163.082 593.269C160.175 593.269 157.267 593.266 154.359 593.272C153.695 593.275 153.232 593.904 153.427 594.519C153.563 594.943 153.943 595.201 154.462 595.204C157.303 595.208 160.145 595.204 162.987 595.204C163.036 595.204 163.082 595.201 163.149 595.195C162.95 594.554 162.944 593.923 163.149 593.279Z" fill="#999AAB"/>
<path d="M158.48 602.034C158.966 602.034 159.448 602.031 159.934 602.034C160.353 602.037 160.667 602.318 160.671 602.691C160.674 603.067 160.367 603.364 159.947 603.364C158.962 603.37 157.978 603.37 156.99 603.364C156.603 603.361 156.319 603.106 156.283 602.758C156.246 602.442 156.471 602.136 156.798 602.053C156.867 602.037 156.94 602.034 157.009 602.034C157.502 602.034 157.991 602.037 158.48 602.034C158.48 602.034 158.48 602.037 158.48 602.034Z" fill="#999AAB"/>
<path d="M158.473 600.896C157.961 600.896 157.449 600.903 156.936 600.893C156.599 600.887 156.325 600.635 156.279 600.309C156.239 600.003 156.451 599.688 156.765 599.598C156.831 599.579 156.907 599.57 156.976 599.57C157.971 599.566 158.969 599.56 159.963 599.573C160.449 599.579 160.76 599.99 160.634 600.421C160.551 600.698 160.297 600.896 159.986 600.899C159.487 600.899 158.982 600.896 158.473 600.896Z" fill="#999AAB"/>
<path fill-rule="evenodd" clip-rule="evenodd" d="M70 580H129V620H70V580Z" fill="white"/>
<path d="M101.487 595.261H95.2637V596.601H101.487V595.261Z" fill="#999AAB"/>
<path d="M98.2323 598.508H95.2606V599.858H98.2323V598.508Z" fill="#999AAB"/>
<path d="M97.4195 601.756H95.2637V603.099H97.4195V601.756Z" fill="#999AAB"/>
<path d="M103.379 603.972L103.366 603.036C103.366 603.036 102.674 603.798 102.512 603.96C102.277 604.195 102.036 604.436 101.801 604.674C101.75 604.725 101.706 604.744 101.63 604.744C101.63 604.744 101.63 604.744 101.627 604.744C100.842 604.741 100.049 604.741 99.2771 604.741H98.5056V603.979C98.5056 603.204 98.5056 602.401 98.5024 601.61C98.5024 601.534 98.5214 601.486 98.5818 601.426C100.28 599.737 101.798 598.216 103.23 596.781C103.297 596.715 103.376 596.591 103.376 596.467C103.382 595.823 103.385 595.143 103.379 594.321C103.376 593.727 103.001 593.359 102.408 593.359C99.7247 593.359 97.0419 593.359 94.3623 593.359C93.74 593.359 93.3685 593.73 93.3685 594.349C93.3685 598.115 93.3685 601.883 93.3685 605.649C93.3685 606.252 93.7432 606.626 94.3432 606.626C96.2545 606.626 98.1627 606.626 100.074 606.626C100.845 606.626 101.617 606.626 102.389 606.626C103.017 606.626 103.379 606.265 103.382 605.636C103.382 605.083 103.379 604.518 103.379 603.972ZM107.884 596.854C108.151 597.715 107.957 598.493 107.3 599.166C106.646 599.835 105.97 600.505 105.316 601.153C105.182 601.286 105.046 601.42 104.913 601.553C104.792 601.674 104.738 601.798 104.741 601.963C104.744 602.613 104.744 603.274 104.744 603.912C104.744 604.439 104.744 604.982 104.747 605.515C104.747 606.033 104.674 606.407 104.506 606.734C104.078 607.557 103.408 607.976 102.512 607.985C100.084 608.004 97.4515 608.004 94.2289 607.988C92.9844 607.982 92.0065 606.976 92.0033 605.703C92.0001 604.649 92.0001 603.579 92.0001 602.544C92.0001 602.09 92.0001 601.636 92.0001 601.182C92.0001 600.512 92.0001 599.845 92.0001 599.175C92.0001 597.581 92.0001 595.93 92.0001 594.308C92.0001 593.175 92.7462 592.264 93.8575 592.044C93.9972 592.016 94.1527 592.003 94.321 592.003C96.0228 592.003 97.6356 592 99.1882 592C100.296 592 101.373 592 102.43 592C103.697 592 104.665 592.918 104.735 594.181C104.747 594.387 104.744 594.6 104.744 594.807C104.744 594.902 104.744 595 104.744 595.095C104.744 595.134 104.744 595.172 104.744 595.21V595.416L104.89 595.394C104.954 595.384 105.017 595.375 105.078 595.365C105.198 595.346 105.313 595.327 105.424 595.318C106.56 595.219 107.573 595.851 107.884 596.854ZM106.329 598.235C106.725 597.839 106.735 597.286 106.351 596.896C106.17 596.711 105.938 596.61 105.694 596.61H105.69C105.446 596.61 105.208 596.711 105.024 596.899C103.224 598.696 101.465 600.455 99.9819 601.94C99.9406 601.982 99.874 602.064 99.8708 602.159C99.8708 602.163 99.8708 602.166 99.8708 602.172H99.8676V603.394H100.772V603.391C101.163 603.372 101.433 603.156 101.646 602.937C102.735 601.826 103.855 600.705 104.941 599.626C105.405 599.162 105.868 598.699 106.329 598.235Z" fill="#999AAB"/>
<path d="M11 580H70V620H11V580Z" fill="white"/>
<path d="M35.494 599.9C35.3716 600 35.29 600.064 35.2085 600.127C34.8641 600.404 34.4154 600.363 34.1616 600.036C33.9033 599.705 33.9577 599.269 34.3021 598.991C35.2175 598.255 36.1375 597.519 37.0575 596.783C38.5394 595.598 40.0168 594.412 41.4987 593.226C41.8658 592.931 42.1739 592.922 42.541 593.217C44.9248 595.125 47.304 597.033 49.6832 598.946C50.0413 599.237 50.1002 599.682 49.8373 600.005C49.5654 600.336 49.1439 600.363 48.7723 600.077C48.7089 600.027 48.6454 599.982 48.5503 599.914C48.5503 600.032 48.5503 600.114 48.5503 600.191C48.5503 602.394 48.5503 604.598 48.5503 606.801C48.5503 608.037 47.5895 609 46.3523 609C43.4746 609 40.5969 609 37.7191 609C36.4593 609 35.503 608.041 35.503 606.774C35.4985 604.584 35.503 602.399 35.503 600.209C35.494 600.118 35.494 600.036 35.494 599.9ZM42.0199 594.666C41.9609 594.712 41.9156 594.739 41.8748 594.771C40.2706 596.066 38.6618 597.356 37.0575 598.655C36.994 598.705 36.9442 598.814 36.9442 598.901C36.9396 601.536 36.9396 604.171 36.9396 606.806C36.9396 607.228 37.2478 607.533 37.6693 607.542C37.9095 607.546 38.1542 607.542 38.3944 607.542C38.6346 607.542 38.8702 607.542 39.1149 607.542C39.1149 606.288 39.1104 605.07 39.1149 603.848C39.1195 602.849 39.8854 601.913 40.8733 601.781C41.476 601.699 42.0924 601.731 42.7042 601.726C43.9686 601.722 44.9157 602.685 44.9157 603.953C44.9157 605.066 44.9157 606.179 44.9157 607.292C44.9157 607.369 44.9157 607.451 44.9157 607.537C45.3961 607.537 45.8402 607.537 46.2889 607.537C46.7964 607.537 47.091 607.242 47.091 606.737C47.091 604.134 47.091 601.531 47.0955 598.923C47.0955 598.787 47.0548 598.705 46.946 598.623C46.2118 598.042 45.4867 597.451 44.7526 596.865C43.8507 596.138 42.9444 595.407 42.0199 594.666ZM43.4655 607.528C43.4655 606.297 43.4701 605.093 43.461 603.893C43.461 603.489 43.1438 603.185 42.7314 603.18C42.2782 603.176 41.825 603.176 41.3718 603.18C40.8506 603.18 40.5606 603.475 40.5606 603.998C40.5606 605.102 40.5606 606.206 40.5606 607.314C40.5606 607.387 40.5651 607.46 40.5697 607.533C41.544 607.528 42.4957 607.528 43.4655 607.528Z" fill="#999AAB"/>
</g>
<path fill-rule="evenodd" clip-rule="evenodd" d="M273.484 0C247.794 0 46.5163 0 46.5163 0C20.8261 0 0 20.5007 0 45.7895V614.211C0 639.499 20.8261 660 46.5163 660H273.484C299.174 660 320 639.499 320 614.211V45.7895C320 20.5007 299.174 0 273.484 0ZM9.62406 45.7895C9.62406 25.7329 26.1412 9.47368 46.5163 9.47368H64.8417C74.5865 9.47368 74.5865 13.4022 74.5865 20C74.5865 29.6547 82.5373 33.5526 92.3451 33.5526H226.853C236.661 33.5526 244.612 29.6547 244.612 20C244.612 13.4022 244.612 10 255 10H273.484C293.859 10 310.376 25.7329 310.376 45.7895V614.211C310.376 634.267 293.859 650.526 273.484 650.526H46.5163C26.1412 650.526 9.62406 634.267 9.62406 614.211V45.7895Z" fill="url(#paint5_linear)"/>
<rect x="130" y="14" width="40" height="5" rx="2.5" fill="#DCE0E3"/>
<circle cx="185.5" cy="16.5" r="4.5" fill="#DCE0E3"/>
<g opacity="0.6" filter="url(#filter1_f)">
<path fill-rule="evenodd" clip-rule="evenodd" d="M272.693 4.57385C295.741 4.57385 314.425 23.2467 314.425 46.2809V609.719C314.425 632.753 295.741 651.426 272.693 651.426H216V653H272.693C296.611 653 316 633.623 316 609.719V46.2809C316 22.3775 296.611 3 272.693 3H251.331V4.57385H272.693Z" fill="url(#paint6_linear)"/>
</g>
<g opacity="0.9" filter="url(#filter2_f)">
<path fill-rule="evenodd" clip-rule="evenodd" d="M48.9297 6.57385C25.5503 6.57385 6.59744 25.2467 6.59744 48.2809V611.719C6.59744 634.753 25.5502 653.426 48.9297 653.426H255V655H48.9297C24.668 655 5 635.623 5 611.719V48.2809C5 24.3775 24.668 5 48.9297 5H70.5991V6.57385H48.9297Z" fill="url(#paint7_linear)"/>
</g>
<defs>
<filter id="filter0_d" x="-30" y="540" width="380" height="140" filterUnits="userSpaceOnUse" color-interpolation-filters="sRGB">
<feFlood flood-opacity="0" result="BackgroundImageFix"/>
<feColorMatrix in="SourceAlpha" type="matrix" values="0 0 0 0 0 0 0 0 0 0 0 0 0 0 0 0 0 0 127 0"/>
<feOffset dy="-10"/>
<feGaussianBlur stdDeviation="15"/>
<feColorMatrix type="matrix" values="0 0 0 0 0 0 0 0 0 0 0 0 0 0 0 0 0 0 0.08 0"/>
<feBlend mode="normal" in2="BackgroundImageFix" result="effect1_dropShadow"/>
<feBlend mode="normal" in="SourceGraphic" in2="effect1_dropShadow" result="shape"/>
</filter>
<filter id="filter1_f" x="215" y="2" width="102" height="652" filterUnits="userSpaceOnUse" color-interpolation-filters="sRGB">
<feFlood flood-opacity="0" result="BackgroundImageFix"/>
<feBlend mode="normal" in="SourceGraphic" in2="BackgroundImageFix" result="shape"/>
<feGaussianBlur stdDeviation="0.5" result="effect1_foregroundBlur"/>
</filter>
<filter id="filter2_f" x="1" y="1" width="258" height="658" filterUnits="userSpaceOnUse" color-interpolation-filters="sRGB">
<feFlood flood-opacity="0" result="BackgroundImageFix"/>
<feBlend mode="normal" in="SourceGraphic" in2="BackgroundImageFix" result="shape"/>
<feGaussianBlur stdDeviation="2" result="effect1_foregroundBlur"/>
</filter>
<linearGradient id="paint0_linear" x1="320" y1="508.421" x2="-247.486" y2="626.812" gradientUnits="userSpaceOnUse">
<stop stop-color="#F3F3F8"/>
<stop offset="0.640115" stop-color="#F4F4F4"/>
</linearGradient>
<linearGradient id="paint1_linear" x1="158" y1="291" x2="158" y2="171" gradientUnits="userSpaceOnUse">
<stop stop-color="#FF6B00" stop-opacity="0"/>
<stop offset="1" stop-color="#FE6227"/>
<stop offset="1" stop-color="#FF6B00"/>
</linearGradient>
<linearGradient id="paint2_linear" x1="158" y1="507" x2="158" y2="387" gradientUnits="userSpaceOnUse">
<stop stop-color="#FF6B00" stop-opacity="0"/>
<stop offset="1" stop-color="#FE6227"/>
<stop offset="1" stop-color="#FF6B00"/>
</linearGradient>
<linearGradient id="paint3_linear" x1="158" y1="507" x2="158" y2="411" gradientUnits="userSpaceOnUse">
<stop stop-color="#007AFF" stop-opacity="0"/>
<stop offset="1" stop-color="#007AFF"/>
</linearGradient>
<linearGradient id="paint4_linear" x1="198.2" y1="407" x2="198.2" y2="415.4" gradientUnits="userSpaceOnUse">
<stop offset="0.5" stop-color="#FF6B00"/>
<stop offset="0.5001" stop-color="#007AFF"/>
</linearGradient>
<linearGradient id="paint5_linear" x1="320" y1="508.421" x2="-247.486" y2="626.812" gradientUnits="userSpaceOnUse">
<stop stop-color="#F3F3F8"/>
<stop offset="0.640115" stop-color="#F4F4F4"/>
</linearGradient>
<linearGradient id="paint6_linear" x1="239.228" y1="87.201" x2="438.62" y2="445.652" gradientUnits="userSpaceOnUse">
<stop stop-color="#E8E9EA"/>
<stop offset="0.546236" stop-color="#B4B7BB"/>
<stop offset="0.978499" stop-color="#B4B7BB" stop-opacity="0"/>
</linearGradient>
<linearGradient id="paint7_linear" x1="110.831" y1="184.025" x2="0.514496" y2="213.124" gradientUnits="userSpaceOnUse">
<stop stop-color="#E8E9EA"/>
<stop offset="1" stop-color="#B4B7BB"/>
</linearGradient>
</defs>
</svg>
