<svg width="320" height="660" viewBox="0 0 320 660" fill="none" xmlns="http://www.w3.org/2000/svg">
<mask id="mask0" mask-type="alpha" maskUnits="userSpaceOnUse" x="5" y="5" width="310" height="650">
<path fill-rule="evenodd" clip-rule="evenodd" d="M268.484 5H51.5163C25.8261 5 5 25.5007 5 50.7895V609.211C5 634.499 25.8261 655 51.5163 655H268.484C294.174 655 315 634.499 315 609.211V50.7895C315 25.5007 294.174 5 268.484 5Z" fill="url(#paint0_linear)"/>
</mask>
<g mask="url(#mask0)">
<path d="M0 0H320V660H0V0Z" fill="white"/>
<path d="M10 605H310V5H10V605Z" fill="white"/>
<mask id="mask1" mask-type="alpha" maskUnits="userSpaceOnUse" x="10" y="5" width="300" height="276">
<path d="M10 131C10 213.843 77.1573 281 160 281V281C242.843 281 310 213.843 310 131V5H10V131Z" fill="white"/>
</mask>
<g mask="url(#mask1)">
<path d="M-2.87992 302.68H324.64C329.6 302.68 333.68 298.68 333.68 293.64V-17.3201H-11.9199V293.64C-11.9199 298.6 -7.91992 302.68 -2.87992 302.68Z" fill="#00AA8A"/>
<path d="M92.5599 227.64C127.2 188.76 132.96 141.48 99.7599 69.0801C41.5999 123.4 28.9599 169.4 46.3199 218.52" fill="#035450"/>
<path d="M123.68 332.12C158.32 293.24 164.08 245.96 130.88 173.56C72.7198 227.88 60.0798 273.88 77.4398 323" fill="#035450"/>
<path d="M36.1599 307.4C49.2799 257 32.7999 212.28 -29.7601 163C-56.7201 237.88 -46.9601 284.52 -9.12006 320.36" fill="#035450"/>
<path d="M252.32 300.44C264.88 249.88 247.92 205.4 184.88 156.84C158.72 232.04 168.96 278.6 207.2 313.96" fill="#035450"/>
<path d="M319.6 191.08C354.24 152.2 360 104.92 326.8 32.52C268.64 86.84 256 132.84 273.36 181.96" fill="#035450"/>
<path d="M264.16 162.6C282.4 107.88 267.6 57.24 202.16 -1.80005C166.8 78.9199 174.08 131.16 213.12 173.56" fill="#035450"/>
<path d="M202.08 -1.80005C166.72 78.9199 174 131.16 213.04 173.56L241.76 167.4C224.72 120.44 213.28 51.8799 202.08 -1.80005Z" fill="#056B63"/>
<path d="M220.4 68.68C221.2 69.8 221.36 71 221.68 72.2C222 73.4 222.32 74.6 222.56 75.8C223.12 78.2 223.68 80.68 224.16 83.08C224.64 85.48 225.2 87.96 225.6 90.44C225.84 91.64 226 92.92 226.24 94.12C226.4 95.32 226.72 96.6 226.48 97.88C226.48 97.88 226.48 97.96 226.4 97.96C225.68 96.84 225.44 95.64 225.12 94.44C224.8 93.24 224.48 92.04 224.24 90.84C223.68 88.44 223.12 85.96 222.64 83.56C222.16 81.16 221.6 78.68 221.2 76.2C220.96 75 220.8 73.72 220.56 72.52C220.4 71.32 220.08 70.12 220.32 68.76C220.32 68.6 220.32 68.6 220.4 68.68C220.4 68.6 220.4 68.6 220.4 68.68Z" fill="#056B63"/>
<path d="M-25.2 255.56C0.639998 200.36 50.32 172.28 123.28 161.56C123.28 161.56 136.32 182.76 128.88 204.84C98.56 294.28 37.92 265.96 -26 279.48" fill="#048877"/>
<path d="M123.28 161.56C82.16 167.64 48.48 179.16 22.24 197.96C19.12 224.12 21.6 247.48 23.28 258.84C52.56 242.76 90.32 217.72 123.28 161.56Z" fill="#33CEB5"/>
<path d="M46.72 244.68C49.36 242.92 52 241.08 54.64 239.16C53.04 228.68 50.48 206.2 53.12 180.6C50.4 181.8 47.76 183 45.2 184.28C42.32 210.92 45.12 234.36 46.72 244.68Z" fill="#00AA8A"/>
<path d="M40.7201 248.6C42.7201 247.32 44.7201 246.04 46.7201 244.68C45.1201 234.36 42.3201 210.92 45.2001 184.28C43.2001 185.24 41.2801 186.28 39.3601 187.32C36.3201 214.12 39.0401 237.88 40.7201 248.6Z" fill="#00AA8A"/>
<path d="M33.5199 190.6C29.5999 192.92 25.8399 195.4 22.1599 197.96C19.0399 224.12 21.5199 247.48 23.1999 258.84C26.8799 256.84 30.7199 254.6 34.7199 252.28C33.0399 241.4 30.3199 217.48 33.5199 190.6Z" fill="#00AA8A"/>
<path d="M34.72 252.28C36.72 251.08 38.72 249.88 40.72 248.6C39.04 237.96 36.32 214.12 39.44 187.32C37.44 188.44 35.44 189.56 33.52 190.68C30.32 217.48 33.04 241.4 34.72 252.28Z" fill="#33CEB5"/>
<path d="M128.8 204.84C136.24 182.84 123.2 161.56 123.2 161.56C75.6799 242.52 18.0799 258.84 -9.6001 276.84C48.0799 269.96 101.12 286.52 128.8 204.84Z" fill="#056B63"/>
<path d="M282.4 113.32C250.8 85.88 248 52.92 255.52 28.12C264.96 41 328.64 45.72 331.28 105.08" fill="#048877"/>
<path d="M282.4 113.32L308 109C296.08 79 258.56 45.8 255.6 28.12C248.08 52.92 250.8 85.88 282.4 113.32Z" fill="#00AA8A"/>
<path d="M256.96 32.68C256.32 31.08 255.84 29.56 255.6 28.12C253.92 33.56 252.8 39.32 252.32 45.4C252.16 47.16 252.08 48.92 252.08 50.68C252 59.48 253.44 68.76 256.96 78.04C258 80.84 259.28 83.64 260.72 86.36C262.64 90.04 264.96 93.72 267.6 97.4C271.6 102.84 276.56 108.2 282.48 113.32L286.24 107.72C258.72 83.88 253.04 55.88 256.96 32.68Z" fill="#33CEB5"/>
<path d="M260.96 82.84C262 85.64 263.28 88.44 264.72 91.16C264.88 91.4 265.04 91.72 265.2 91.96H299.92L289.52 77.8C289.36 77.64 289.2 77.4 289.04 77.24H259.04C259.6 79.08 260.24 81 260.96 82.84Z" fill="#33CEB5"/>
<path d="M225.44 -26.12C257.92 34.92 319.44 25.8 343.92 9.72001V-26.12H225.44Z" fill="#33CEB5"/>
<path d="M312.24 -26.12L266 14.28C276.24 19 286.8 21.16 296.96 21.56L329.44 -26.12H312.24V-26.12Z" fill="#048877"/>
<path d="M159.36 -27H120.16C62.0802 -11.32 38.0002 20.52 37.6802 94.28C37.6802 94.28 38.7202 97.64 41.6002 101.48C65.9202 56.04 127.2 -1.96 159.36 -27Z" fill="#00AA8A"/>
<path d="M178.48 -27H159.36C127.2 -1.96 65.92 56.04 41.52 101.56C44.48 105.64 49.52 110.36 57.28 112.36C135.52 131.96 196.72 53.08 178.48 -27Z" fill="#048877"/>
<path d="M138.96 -27H120.16C62.4001 -11.4 38.2401 20.12 37.6001 93C46.3201 25.24 77.6001 -8.44 138.96 -27Z" fill="#33CEB5"/>
<path d="M74.3199 55.32C79.3599 49.4 84.6399 43.4 89.9999 37.64L84.64 -12.84C78.08 -9.07997 72.32 -4.67997 67.2 0.200033L73.2 56.44L74.3199 55.32Z" fill="#33CEB5"/>
<path d="M-10.2401 129.72C35.3599 104.6 56.4799 61.88 49.2799 -17.4C-23.68 14.52 -50.8 53.64 -50.8 105.72" fill="#035450"/>
<path d="M260.16 108.28C241.04 71.6401 211.36 60.7601 193.6 66.6001C193.6 66.6001 232.24 95.8001 245.28 126.52" fill="#048877"/>
<path d="M252.48 95.72C233.76 69.16 209.04 61.48 193.52 66.6C193.52 66.6 204.8 75.08 217.2 87.8C227.6 87.24 239.68 89.48 252.48 95.72Z" fill="#00AA8A"/>
<path d="M-26.3198 207.72C-26.3198 207.72 -8.79983 160.76 5.68017 146.12L10.6402 147.88C-3.83982 162.52 -21.3598 209.48 -21.3598 209.48L-26.3198 207.72Z" fill="#33CEB5"/>
<path d="M-21.3599 236.52C-21.3599 236.52 -4.71986 173 12.3201 152.04L24.8001 155C7.84013 175.96 -8.87986 239.48 -8.87986 239.48L-21.3599 236.52Z" fill="#048877"/>
<path d="M-4.71982 100.36C-14.0798 84.36 1.52018 36.1201 20.1602 42.1201C30.3202 45.4001 12.0802 79.0801 12.0802 79.0801" fill="#F87A26"/>
<path d="M83.9199 122.6C99.4399 107.96 107.44 87.8 103.68 81.48C102.32 79.24 99.7599 77.32 94.1599 78.28C98.9599 71.64 106.64 59.24 102.32 53C96.8799 45.16 85.3599 50.92 85.3599 50.92C85.3599 50.92 90.7199 38.12 82.1599 33.4C70.0799 26.68 53.0399 43.56 53.0399 43.56C54.3999 27.4 36.0799 32.52 17.7599 50.92C13.5199 55.56 -5.52007 74.84 -1.92007 105.16L66.8799 136.92" fill="#F87A26"/>
<path d="M347.76 113.64C347.76 113.64 316.48 77.9601 302.96 83.6401C289.44 89.3201 299.44 110.36 299.44 110.36C262 68.0401 254.8 112.28 254.8 112.28C236.88 97.8801 221.28 116.28 228.64 152.12C228.64 152.12 195.28 147.24 197.68 185C200.08 222.76 210.96 284.84 266.32 293.72C321.68 302.6 352.88 277.56 352.88 277.56L347.76 113.64Z" fill="#F87A26"/>
<path d="M267.92 158.36C271.84 157 277.44 175.16 273.68 176.92C269.28 178.84 263.6 159.88 267.92 158.36Z" fill="#FACE24"/>
<path d="M272.24 162.68C271.04 159.8 269.36 157.88 267.92 158.36C266.64 158.84 266.24 160.84 266.48 163.4C269.28 167.64 273.04 164.6 272.24 162.68Z" fill="#FCEFC0"/>
<path d="M281.12 119.72C284.88 117.88 292.8 135.16 289.2 137.32C285.2 139.88 277.12 121.72 281.12 119.72Z" fill="#FACE24"/>
<path d="M284.56 127.32C285.84 127.56 286.88 127.08 287.52 126.28C285.52 122.2 282.88 118.84 281.12 119.72C279.92 120.36 279.76 122.44 280.32 124.92C281.6 126.2 282.96 127.08 284.56 127.32Z" fill="#FCEFC0"/>
<path d="M262.16 124.76C266.96 123.32 272.88 145.4 268.16 147.24C262.88 149.48 256.96 126.36 262.16 124.76Z" fill="#FACE24"/>
<path d="M264.721 134.44C266.241 134.92 267.441 134.68 268.481 133.8C266.961 128.6 264.481 124.04 262.161 124.76C260.561 125.24 260.081 127.64 260.161 130.76C261.361 132.52 262.881 133.8 264.721 134.44Z" fill="#FCEFC0"/>
<path d="M253.12 144.04C258.64 142.36 264.96 169.16 259.52 171.4C253.44 173.88 247.12 145.88 253.12 144.04Z" fill="#FACE24"/>
<path d="M258.8 150.6C257.2 146.44 255.12 143.48 253.2 144.04C251.36 144.6 250.72 147.56 250.8 151.32C252.08 156.04 259.28 151.96 258.8 150.6Z" fill="#FCEFC0"/>
<path d="M284.96 163.72C278.64 165.8 272.4 145.56 275.04 144.12C277.76 142.68 281.84 151.96 281.84 151.96C281.84 151.96 280.8 142.68 284.08 142.68C287.36 142.68 288.48 162.6 284.96 163.72Z" fill="#FACE24"/>
<path d="M280.24 148.76C278.88 146.2 276.72 143.24 275.12 144.12C274.16 144.68 274.32 147.64 275.28 151.08C276.64 155.32 282.88 153.88 280.24 148.76Z" fill="#FCEFC0"/>
<path d="M286.64 147.96C286.16 144.92 285.28 142.68 284.16 142.68C283.12 142.68 282.48 143.64 282.16 144.92C281.92 151.16 286.16 150.6 286.64 147.96Z" fill="#FCEFC0"/>
<path d="M67.2801 66.6801C70.6401 69.1601 58.8001 84.0401 55.2801 81.8801C51.2001 79.4001 63.6801 63.9601 67.2801 66.6801Z" fill="#FACE24"/>
<path d="M66.1601 72.6C67.8401 69.96 68.4001 67.48 67.2801 66.6C66.1601 65.8 64.3201 66.6 62.3201 68.28C60.4001 73.08 65.0401 74.36 66.1601 72.6Z" fill="#FCEFC0"/>
<path d="M84.88 63.08C88.08 65.72 75.68 80.04 72.24 77.72C68.24 75.08 81.36 60.2 84.88 63.08Z" fill="#FACE24"/>
<path d="M79.4399 69.32C79.8399 70.6 80.5599 71.32 81.5999 71.64C84.4799 68.2 86.3999 64.28 84.8799 63.08C83.8399 62.2 81.9199 63 79.8399 64.52C79.1999 66.2 78.9599 67.8 79.4399 69.32Z" fill="#FCEFC0"/>
<path d="M75.7601 42.44C79.9201 45.24 70.7201 58.92 66.2401 56.44C61.2801 53.72 71.2801 39.4 75.7601 42.44Z" fill="#FACE24"/>
<path d="M69.9199 50.5201C70.4799 52.0401 71.5199 52.7601 72.7199 53.0001C75.7599 48.5201 77.6799 43.7201 75.7599 42.4401C74.3999 41.5601 72.1599 42.6801 69.8399 44.6801C69.2799 46.6801 69.1999 48.6801 69.9199 50.5201Z" fill="#FCEFC0"/>
<path d="M80.32 83.96C83.28 86.6 74.72 96.28 71.52 93.96C67.84 91.32 77.12 81.16 80.32 83.96Z" fill="#FACE24"/>
<path d="M74.8801 89.72C75.2001 90.92 75.8401 91.64 76.8001 91.96C79.6001 88.76 81.6001 85.24 80.2401 84.04C79.2801 83.16 77.4401 83.8 75.3601 85.24C74.8001 86.68 74.5601 88.28 74.8801 89.72Z" fill="#FCEFC0"/>
<path d="M55.7602 51.24C60.7202 54.28 47.6002 72.12 42.4002 69.56C36.4802 66.6 50.4802 47.96 55.7602 51.24Z" fill="#FACE24"/>
<path d="M54.6401 59.8C56.7201 55.8 57.5201 52.36 55.8401 51.24C54.2401 50.28 51.6001 51.72 48.8001 54.28C46.0801 58.36 53.9201 61.08 54.6401 59.8Z" fill="#FCEFC0"/>
<path d="M231.68 202.12C247.68 195.48 252.88 209.96 252.88 209.96C252.88 209.96 251.92 187.16 259.28 185C272.72 181.08 283.92 215.88 283.92 215.88C283.92 215.88 273.76 188.6 286.08 174.36C298.4 160.12 315.68 181.08 315.68 181.08C315.68 181.08 304.56 160.44 302.4 137.96C300.24 115.48 317.76 110.04 352.96 144.84V277.56" fill="#F87A26"/>
<path d="M252.88 209.96C252.88 209.96 251.92 187.16 259.28 185C272.72 181.08 283.92 215.88 283.92 215.88C294.24 259.56 259.92 254.68 252.88 209.96Z" fill="#FF9E12"/>
<path d="M271.44 191.08C267.84 186.6 263.68 183.72 259.28 185C256.48 185.8 254.96 189.56 254 193.88C254.32 221.96 275.6 213.16 271.44 191.08Z" fill="#FEAD14"/>
<path d="M283.84 215.96C283.84 215.96 273.68 188.68 286 174.44C298.32 160.2 315.6 181.16 315.6 181.16C325.76 196.12 332.4 219.8 324.88 233.4C320.08 242.2 293.84 244.36 283.84 215.96Z" fill="#FF9E12"/>
<path d="M307.6 173.8C301.52 169.48 292.96 166.36 286 174.36C278.96 182.52 279.28 195 280.88 204.12C293.44 216.6 313.44 196.6 307.6 173.8Z" fill="#FEAD14"/>
<path d="M315.6 181.08C315.6 181.08 304.48 160.44 302.32 137.96C300.16 115.48 317.68 110.04 352.88 144.84C379.04 177.32 350.24 252.04 315.6 181.08Z" fill="#FF9E12"/>
<path d="M326 123.8C308.96 114.92 300.88 122.28 302.32 138.04C302.64 141.72 303.28 145.32 304 148.84C315.52 159.16 336 143.72 326 123.8Z" fill="#FEAD14"/>
<path d="M301.92 210.2C301.92 210.2 301.52 205.08 294.32 201.8C301.6 198.52 301.92 193.4 301.92 193.4" fill="#FCEFC0"/>
<path d="M301.92 210.2C301.92 210.2 302.32 205.08 309.52 201.8C302.24 198.52 301.92 193.4 301.92 193.4" fill="#FCEFC0"/>
<path d="M238 136.04C246.32 136.28 253.2 119.4 247.84 108.2C241.2 105.88 235.36 108.28 231.52 114.52C229.52 119 228.16 123.08 228.08 123.4C228.08 123.4 228.08 123.4 228.08 123.48C228.16 130.92 232.72 135.88 238 136.04Z" fill="#FF9E12"/>
<path d="M314.08 103.8C323.68 105.48 333.68 100.28 327.6 94.2C318.8 87 309.04 81.16 302.96 83.64C299.84 84.92 298 87 296.96 89.48C297.04 94.44 305.28 102.28 314.08 103.8Z" fill="#FF9E12"/>
<path d="M87.2001 109.32C79.3601 106.92 69.5201 119.24 69.5201 119.24C69.5201 119.24 62.8801 111.48 50.3201 123.24L11.7601 99.4C11.7601 99.4 23.5201 69.96 17.1201 67.56C10.8001 65.16 -4.07989 86.92 -8.87989 107.08C-13.6799 127.24 -7.51989 141.8 7.68011 151.96C30.0001 166.92 61.0401 153.56 78.3201 135.4C88.8001 124.52 95.0401 111.72 87.2001 109.32Z" fill="#F87A26"/>
<path d="M90.48 116.2C85.44 123.24 78 126.52 75.12 124.52C72.24 122.52 73.92 115.32 78.32 111.4C73.44 114.44 69.52 119.32 69.52 119.32C69.52 119.32 65.76 114.92 58.48 117.8C47.68 128.84 54.32 139.96 66 125.88C66 125.88 62.16 133.16 68.24 134.44C74.32 135.72 82.08 131.48 88.32 122.04C89.44 119.88 90.16 117.88 90.48 116.2Z" fill="#FF9E12"/>
<path d="M87.1999 109.32C84.3199 108.44 81.1999 109.56 78.3199 111.32C73.9199 115.32 72.2399 122.52 75.1199 124.44C77.9999 126.44 85.5199 123.16 90.4799 116.12C91.1999 112.84 90.2399 110.28 87.1999 109.32Z" fill="#FEAD14"/>
<path d="M16.0002 87.24C16.6402 85 17.2802 82.76 17.8402 80.52C12.7202 86.04 7.2002 83.8 8.0002 73.08C6.8802 74.36 5.7602 75.8 4.5602 77.48C-8.9598 99.16 4.6402 104.28 16.0002 87.24Z" fill="#FF9E12"/>
<path d="M17.1201 67.56C14.8801 66.76 11.5201 68.92 8.00011 73C7.20011 83.72 12.6401 86.04 17.8401 80.44C19.2801 74.2 19.7601 68.6 17.1201 67.56Z" fill="#FEAD14"/>
<path d="M36.48 107.08C41.28 94.12 42 83.08 36.96 81.4C33.04 80.12 26.24 86.84 19.6 96.76C11.84 117.72 24.16 125.56 36.48 107.08Z" fill="#FF9E12"/>
<path d="M62.4001 94.68C58.5601 91.56 52.9601 94.44 47.6801 98.92V99C31.3601 118.84 44.8801 129.4 55.5201 115.96C62.0801 105.8 65.5201 97.16 62.4001 94.68Z" fill="#FF9E12"/>
<path d="M36.8802 81.4801C34.8802 80.8401 32.1602 82.2001 29.0402 85.0801C26.9602 96.3601 32.0802 101.72 39.2802 97.4801C41.2002 89.0001 40.6402 82.6801 36.8802 81.4801Z" fill="#FEAD14"/>
<path d="M62.4002 94.6801C60.0002 92.6801 56.8002 93.1601 53.5202 94.8401C47.6002 105.96 52.3202 112.44 58.9602 110.2C63.2002 102.68 64.8802 96.6801 62.4002 94.6801Z" fill="#FEAD14"/>
<path d="M102.32 53C101.04 51.16 99.5201 50.12 97.8401 49.48C89.3601 51.4 85.1201 70.68 100.72 67.56C103.36 62.2 104.8 56.6 102.32 53Z" fill="#FF9E12"/>
<path d="M43.6001 34.12C38.4801 42.84 48.2401 47.48 53.1201 43.56C53.7601 35.8 49.8401 32.92 43.6001 34.12Z" fill="#FF9E12"/>
<path d="M103.68 81.48C102.88 80.04 101.52 78.76 99.2802 78.28C91.1202 86.28 92.7202 97.24 101.84 96.36C101.92 96.36 102 96.36 102.16 96.28C104.72 89.8 105.36 84.28 103.68 81.48Z" fill="#FF9E12"/>
<path d="M20.16 42.1199C17.2 41.1599 14.32 41.5599 11.6 42.9999C-2.95995 56.7599 6.08005 80.0399 22.24 54.4399C23.84 48.3599 23.84 43.2399 20.16 42.1199Z" fill="#FF9E12"/>
<path d="M20.16 42.1199C17.52 41.3199 15.04 41.4799 12.56 42.5999C9.03998 52.2799 13.84 60.9999 22.56 53.2399C23.84 47.6399 23.6 43.1599 20.16 42.1199Z" fill="#FEAD14"/>
<path d="M216.24 165.72C215.04 184.04 198.88 231.72 198.88 250.36C198.88 269 203.92 284.44 203.92 318.04H113.84C113.84 284.44 118.88 269.08 118.88 250.36C118.88 231.64 102.72 183.96 101.52 165.72" fill="#FBF8F1"/>
<path d="M81.6802 175.72C84.0002 155.24 84.4002 144.12 96.0802 137.56C112.32 128.36 146.08 120.36 146.08 115.16C146.08 109.96 146.08 90.6801 146.08 90.6801H171.68C171.68 90.6801 171.68 109.96 171.68 115.16C171.68 120.36 205.44 128.36 221.68 137.56C233.36 144.2 233.76 155.24 236.08 175.72" fill="#FBF8F1"/>
<path d="M142.88 241.24C131.6 241.24 117.76 235.8 103.2 235.48L119.84 174.44L81.7599 175.72C78.7999 202.04 72.5599 233.88 72.6399 245.72C72.7199 256.92 74.7199 264.92 90.0799 264.76C105.52 264.6 146.16 258.04 146.16 258.04L142.88 241.24Z" fill="#FBF8F1"/>
<path d="M236.08 175.72L198 174.44L214.64 235.48C200.08 235.8 186.24 241.24 174.96 241.24L171.76 257.96C171.76 257.96 212.4 264.6 227.84 264.68C243.28 264.84 245.2 256.84 245.28 245.64C245.28 233.88 239.04 202.04 236.08 175.72Z" fill="#FBF8F1"/>
<path d="M143.92 258.36C144.32 258.28 144.64 258.28 144.96 258.2H145.04C145.28 258.12 145.52 258.12 145.68 258.12C145.76 258.12 145.76 258.12 145.84 258.12H145.92C145.92 258.12 145.92 258.12 146 258.12C146.08 258.12 146.16 258.12 146.16 258.12L142.96 241.4C136.96 241.4 129.28 239.88 121.28 238.36C116.48 246.76 114.56 255.96 113.92 262.76C126.24 261.08 138.96 259.16 143.92 258.36Z" fill="#F5F1E6"/>
<path d="M74.6399 257.88C76.7999 262.2 81.2799 264.76 90.0799 264.68C93.8399 264.68 99.1999 264.2 105.12 263.64C100.88 255.24 88.3199 252.04 74.6399 257.88Z" fill="#ACCDED"/>
<path d="M174.88 241.24L171.68 257.96C171.68 257.96 171.76 257.96 172 258.04C172.08 258.04 172.16 258.04 172.24 258.04C172.24 258.04 172.24 258.04 172.32 258.04C172.4 258.04 172.48 258.04 172.64 258.12H172.72C172.88 258.12 172.96 258.2 173.12 258.2C173.2 258.2 173.2 258.2 173.28 258.2C173.44 258.2 173.6 258.28 173.76 258.28C173.84 258.28 173.84 258.28 173.92 258.28C174.32 258.36 174.88 258.44 175.36 258.52C176.48 258.68 177.92 258.92 179.44 259.16C187.28 260.36 199.84 262.2 210.88 263.4C209.84 256.2 207.84 246.04 203.76 236.92C193.2 238.68 182.64 241.24 174.88 241.24Z" fill="#F5F1E6"/>
<path d="M210.16 196.04C209.12 200.04 208.08 204.2 207.04 208.36C210.56 221.4 214.56 235.48 214.56 235.48C226.08 235 226.56 215.96 210.16 196.04Z" fill="#F5F1E6"/>
<path d="M139.28 120.2L113.36 129.88C131.84 137.48 147.6 130.68 139.28 120.2Z" fill="#F5F1E6"/>
<path d="M203.92 318.04C203.92 298.84 202.32 285.64 200.88 274.28H116.88C115.44 285.56 113.84 298.84 113.84 318.04H203.92Z" fill="#FBF8F1"/>
<path d="M138.4 119.16C138.4 123.32 147.6 126.68 158.88 126.68C170.16 126.68 179.36 123.32 179.36 119.16V107.96C179.36 103.8 170.16 100.44 158.88 100.44C147.6 100.44 138.4 103.8 138.4 107.96V119.16V119.16Z" fill="#F5F1E6"/>
<path d="M143.52 84.2001V109.08C143.52 111.88 150.4 114.12 158.88 114.12C167.36 114.12 174.24 111.88 174.24 109.08V83.0801L143.52 84.2001Z" fill="#F6BFB3"/>
<path d="M135.12 72.84C133.2 63.96 124.64 47.64 134.48 38.44C140.96 32.36 165.04 27.4 168.64 35.56C175.76 31.96 185.92 39.48 185.04 47.4C183.92 57.16 181.76 65.32 181.76 68.76" fill="#893A45"/>
<path d="M143.52 89.6401C143.52 89.6401 143.52 96.0401 143.52 103C149.44 110.68 163.92 114.52 174.24 95.8801C174.24 92.2001 174.24 89.5601 174.24 89.5601H143.52V89.6401Z" fill="#F0A895"/>
<path d="M158.72 104.52C163.12 104.52 167.36 102.6 170.32 99.3201C173.28 96.0401 176.72 92.0401 177.6 90.2801C179.28 87.1601 180.72 87.4001 181.76 68.7601C181.76 68.7601 177.12 68.3601 175.92 56.5201C174.8 46.1201 168.72 44.1201 168.72 44.1201C165.44 55.7201 138.56 56.2801 138.56 56.2801C141.44 65.9601 136.16 68.7601 136.16 68.7601C137.2 87.4001 138.56 87.1601 140.32 90.2801C141.2 91.8801 144.16 95.6401 146.8 98.8401C149.68 102.44 154.08 104.52 158.72 104.52Z" fill="#F6BFB3"/>
<path d="M137.28 81.8C132.88 81.24 127.76 70.44 131.36 66.76C133.84 64.28 136.16 68.68 136.16 68.68" fill="#F6BFB3"/>
<path d="M180.64 81.8C185.04 81.24 190.16 70.44 186.56 66.76C184.08 64.28 181.76 68.68 181.76 68.68" fill="#F6BFB3"/>
<path d="M165.44 64.1201C165.76 63.5601 166.24 63.4801 166.64 63.3201C167.12 63.2401 167.52 63.0801 168 63.0801C168.96 63.0001 169.84 63.0801 170.8 63.2401C171.68 63.4801 172.64 63.8801 173.36 64.4401C173.76 64.6801 174.08 65.0801 174.4 65.4001C174.72 65.8001 175.04 66.1201 174.88 66.7601L174.8 66.8401C174.16 66.7601 173.92 66.5201 173.6 66.2801C173.28 66.0401 172.96 65.8801 172.56 65.6401C171.84 65.2401 171.12 65.0001 170.4 64.7601C169.6 64.6001 168.88 64.4401 168.08 64.4401C167.68 64.4401 167.28 64.4401 166.88 64.4401C166.48 64.4401 166.08 64.6001 165.52 64.2001L165.44 64.1201Z" fill="#893A45"/>
<path d="M152.32 64.2001C151.76 64.6001 151.36 64.4401 150.96 64.4401C150.56 64.4401 150.16 64.4401 149.76 64.4401C148.96 64.4401 148.16 64.6001 147.44 64.7601C146.72 64.9201 146 65.2401 145.28 65.6401C144.96 65.8001 144.56 66.0401 144.24 66.2801C143.92 66.5201 143.68 66.8401 143.04 66.8401L142.96 66.7601C142.8 66.1201 143.2 65.7201 143.44 65.4001C143.76 65.0801 144.08 64.6801 144.48 64.4401C145.2 63.8801 146.16 63.4801 147.04 63.2401C148 63.0001 148.88 62.9201 149.84 63.0801C150.32 63.0801 150.72 63.2401 151.2 63.3201C151.6 63.4801 152.08 63.4801 152.4 64.1201L152.32 64.2001Z" fill="#893A45"/>
<path d="M163.92 72.04C164.24 72.04 164.48 72.12 164.64 72.12C164.8 72.2 164.96 72.28 165.12 72.36C165.44 72.44 165.84 72.52 166.24 72.6C166.96 72.76 167.76 72.76 168.56 72.76C169.36 72.76 170.16 72.68 170.96 72.6C171.36 72.52 171.76 72.52 172.16 72.44C172.32 72.36 172.56 72.36 172.72 72.28C172.96 72.28 173.12 72.28 173.44 72.28L173.52 72.36C173.52 72.52 173.52 72.68 173.44 72.84C173.36 73 173.28 73.08 173.2 73.16C173.04 73.32 172.8 73.4 172.56 73.56C172.16 73.8 171.68 73.96 171.28 74.12C170.4 74.36 169.52 74.44 168.56 74.52C167.68 74.52 166.72 74.44 165.84 74.12C165.36 73.96 164.96 73.8 164.56 73.48C164.32 73.32 164.16 73.16 164 73C163.92 72.68 163.84 72.44 163.92 72.04Z" fill="#893A45"/>
<path d="M153.92 72.12C154 72.44 153.92 72.76 153.76 72.92C153.6 73.08 153.36 73.24 153.2 73.4C152.8 73.72 152.32 73.88 151.92 74.04C151.04 74.36 150.08 74.44 149.2 74.44C148.32 74.44 147.36 74.36 146.48 74.04C146.08 73.88 145.6 73.72 145.2 73.48C144.96 73.32 144.8 73.24 144.56 73.08C144.48 73 144.4 72.92 144.32 72.76C144.24 72.6 144.24 72.44 144.24 72.28L144.32 72.2C144.64 72.2 144.8 72.2 145.04 72.2C145.2 72.28 145.36 72.28 145.6 72.36C146 72.44 146.4 72.52 146.8 72.52C147.6 72.6 148.4 72.68 149.2 72.68C150 72.68 150.8 72.68 151.52 72.52C151.92 72.44 152.24 72.36 152.64 72.28C152.8 72.2 152.96 72.12 153.12 72.04C153.28 72.12 153.44 72.04 153.92 72.12Z" fill="#893A45"/>
<path d="M151.44 89.4C152.08 89.24 152.56 89.4 153.12 89.48C153.68 89.56 154.24 89.56 154.8 89.64C155.92 89.72 157.04 89.8 158.08 89.8C159.2 89.8 160.32 89.72 161.36 89.72C161.92 89.64 162.48 89.64 163.04 89.56C163.6 89.48 164.08 89.32 164.72 89.48V89.56C164.48 89.8 164.24 90.04 164 90.12C163.76 90.2 163.44 90.28 163.2 90.36L162.32 90.6L161.44 90.76C160.32 90.92 159.12 91 158 91C156.88 91 155.68 90.92 154.56 90.76C154 90.68 153.44 90.52 152.88 90.36C152.4 90.12 151.84 90.04 151.44 89.4Z" fill="#F85314"/>
<path d="M158.08 86.1201C153.36 86.1201 155.28 83.4801 158.08 83.4801C160.88 83.4801 162.8 86.1201 158.08 86.1201Z" fill="#F0A895"/>
<path d="M157.28 93.4801C162.16 92.9201 160.08 96.52 157.68 96.52C155.36 96.52 153.76 93.8801 157.28 93.4801Z" fill="#F0A895"/>
<path d="M135.52 153.88C135.52 153.88 132.48 160.12 133.04 167.4C133.52 173.56 137.68 182.04 154.4 175.72C149.36 172.52 142.24 172.28 135.52 153.88Z" fill="#00AA8A"/>
<path d="M154.4 175.72C152.16 174.28 149.44 173.48 146.64 171.32C142.48 171.88 139.76 173.96 137.92 176.44C141.12 178.36 146.24 178.84 154.4 175.72Z" fill="#048877"/>
<path d="M177.2 143.72C166.8 153.4 161.84 159.8 159.76 165.32C163.68 159 172.88 163.32 178.64 159.56C186.16 154.6 177.2 143.72 177.2 143.72Z" fill="#00AA8A"/>
<path d="M167.36 153.72C163.36 158.28 161.04 161.96 159.76 165.32C162.88 160.36 169.2 161.96 174.56 161.08C175.28 157.16 174.24 153.8 167.36 153.72Z" fill="#048877"/>
<path d="M163.68 204.44C174.4 184.68 199.84 181.16 199.84 181.16C199.84 181.16 195.12 197.24 184.56 201.88C174 206.52 163.68 204.44 163.68 204.44Z" fill="#00AA8A"/>
<path d="M176.56 190.44C171.68 193.8 166.96 198.36 163.68 204.44C163.68 204.44 170.08 205.72 177.92 203.96C183.36 198.76 185.6 190.52 176.56 190.44Z" fill="#048877"/>
<path d="M136.32 195C136.32 195 146.08 208.36 162.8 198.52C150.8 187.16 136.32 195 136.32 195Z" fill="#00AA8A"/>
<path d="M151.92 192.76C150.24 196.28 150.4 199.64 151.12 202.12C154.48 202.04 158.4 201.08 162.8 198.52C159.28 195.16 155.52 193.48 151.92 192.76Z" fill="#048877"/>
<path d="M181.68 164.68C195.04 165.56 189.68 149.4 183.6 160.76C182.64 162.44 182.88 162.68 181.68 164.68Z" fill="#F85314"/>
<path d="M179.28 167.08C179.76 171.64 180.8 174.36 182.8 175.4C187.2 177.64 190.8 171.96 188.16 169C186 166.44 179.28 167.08 179.28 167.08Z" fill="#F85314"/>
<path d="M175.2 172.36C172.64 176.92 171.76 180.2 173.04 182.44C175.6 187.24 182.8 184.44 182.32 179.96C181.92 176.2 175.2 172.36 175.2 172.36Z" fill="#F85314"/>
<path d="M154.4 152.92C153.36 147.48 155.92 136.04 160.88 124.44C160.88 124.44 168.24 127.56 165.44 136.84C163.28 144.12 154.56 145.16 154.4 152.92Z" fill="#00AA8A"/>
<path d="M156.4 136.84C154.48 143.64 153.68 149.48 154.32 152.92C154.48 146.84 159.92 144.84 163.28 140.76C162.8 138.52 161.12 135.64 156.4 136.84Z" fill="#048877"/>
<path d="M147.28 122.84C147.12 131.48 148.64 138.44 150.64 144.2C154 122.04 147.28 122.84 147.28 122.84Z" fill="#00AA8A"/>
<path d="M131.04 138.76C137.12 143.56 142.88 148.92 147.6 154.36C149.44 132.76 131.04 138.76 131.04 138.76Z" fill="#00AA8A"/>
<path d="M164.56 212.12C163.68 209.32 163.44 206.52 163.04 203.72C162.64 200.92 162.24 198.04 161.68 195.24C161.2 192.44 160.64 189.64 159.92 186.92C159.2 184.2 158.24 181.56 156.8 179.24C156.08 178.12 155.12 177.16 154.08 176.44C152.96 175.72 151.68 175.16 150.4 174.44C149.12 173.8 147.84 173 146.64 172.2C145.44 171.32 144.32 170.36 143.36 169.24C141.36 167.08 139.76 164.6 138.48 162.04C137.12 159.48 136.08 156.76 135.6 153.88H135.68C136.08 154.52 136.4 155.16 136.72 155.8C137.04 156.44 137.28 157.08 137.6 157.72C137.92 158.36 138.16 159 138.48 159.64L139.44 161.48C140.8 163.96 142.4 166.28 144.4 168.2C145.36 169.16 146.48 170.04 147.52 170.92C148.64 171.72 149.84 172.44 151.12 173.08C152.4 173.72 153.68 174.28 154.96 175.08C156.24 175.96 157.28 177.08 158.16 178.36C159.84 180.92 160.72 183.72 161.44 186.52C162.16 189.32 162.72 192.12 163.12 195C163.52 197.88 163.84 200.68 164.16 203.56C164.48 206.44 164.88 209.24 164.72 212.12H164.56Z" fill="#048877"/>
<path d="M162.88 196.2C162.16 194.52 162.32 192.6 162.56 190.84C162.8 189.08 163.28 187.24 164 185.64C165.44 182.28 167.6 179.4 169.92 176.68C172.32 174.04 174.8 171.56 177.2 169C178.4 167.72 179.6 166.44 180.64 165.08C181.68 163.72 182.48 162.2 183.52 160.76H183.6C183.52 162.6 182.56 164.28 181.6 165.72C180.64 167.24 179.44 168.6 178.32 169.96C176 172.6 173.44 175.08 171.12 177.72C168.8 180.28 166.72 183.08 165.28 186.2C164.56 187.72 164 189.4 163.68 191.08C163.36 192.76 163.36 194.44 162.96 196.28L162.88 196.2Z" fill="#048877"/>
<path d="M159.44 183C158.64 181.16 158.4 179.32 158.08 177.4C157.92 176.44 157.84 175.48 157.76 174.52C157.68 174.04 157.76 173.56 157.68 173.08C157.68 172.6 157.68 172.12 157.68 171.64L157.76 170.12C157.84 169.64 157.92 169.16 158 168.68L158.16 167.96L158.4 167.24L158.8 165.8L159.36 164.44C159.52 163.96 159.68 163.48 160 163.08C160.48 162.2 160.88 161.32 161.44 160.52C163.52 157.24 166 154.2 168.64 151.4C169.92 149.96 171.36 148.68 172.72 147.32C174.16 146.04 175.52 144.68 177.2 143.72L177.28 143.8C176.24 145.48 174.8 146.76 173.52 148.12L171.6 150.2C170.96 150.92 170.32 151.56 169.68 152.28C167.12 155.08 164.72 158.04 162.8 161.24C162.24 162.04 161.92 162.84 161.44 163.64C161.2 164.04 161.04 164.44 160.88 164.92L160.32 166.2C159.76 167.96 159.28 169.72 159.2 171.64C159.04 173.48 159.12 175.4 159.28 177.24C159.44 179.16 159.84 181 159.6 183H159.44Z" fill="#048877"/>
<path d="M158.96 167.56C158.88 166.52 158.8 165.64 158.56 164.68C158.4 163.72 158.16 162.84 157.84 161.96C157.2 160.2 156.32 158.44 155.44 156.68C153.68 153.24 151.92 149.64 150.48 145.96C149.12 142.28 148 138.44 147.44 134.52C147.28 133.56 147.2 132.6 147.04 131.56C146.96 130.6 146.88 129.56 146.88 128.6C146.8 126.6 146.72 124.68 147.28 122.68H147.36C147.84 124.6 147.84 126.6 148 128.52C148.16 130.44 148.48 132.36 148.8 134.28C149.52 138.04 150.56 141.8 151.92 145.4C153.28 149 154.96 152.52 156.64 156.04C157.44 157.8 158.24 159.64 158.8 161.56C159.12 162.52 159.36 163.48 159.44 164.52C159.52 165.56 159.36 166.6 158.96 167.48V167.56Z" fill="#048877"/>
<path d="M154.32 153C153.6 151.88 153.6 150.52 153.6 149.32C153.6 148.04 153.68 146.84 153.84 145.56C154.08 143.08 154.64 140.68 155.28 138.28C155.92 135.88 156.64 133.48 157.52 131.24C158 130.12 158.4 128.92 158.96 127.8C159.44 126.68 159.92 125.48 160.88 124.6L160.96 124.68C160.96 126.04 160.4 127.08 160.08 128.28C159.84 128.84 159.68 129.4 159.52 130.04C159.36 130.6 159.12 131.16 158.96 131.8C158.24 134.12 157.52 136.44 156.88 138.84C156.24 141.16 155.76 143.56 155.28 145.96C155.04 147.16 154.96 148.36 154.8 149.56C154.72 150.76 154.8 151.96 154.48 153.24L154.32 153Z" fill="#048877"/>
<path d="M158.32 174.68C157.52 172.84 157.12 171.08 156.4 169.32C156.24 168.92 156.08 168.44 155.84 168.04L155.2 166.76C154.8 165.88 154.32 165.08 153.84 164.28C151.92 161 149.68 157.96 147.2 155.08C144.72 152.2 142.08 149.48 139.36 146.76C138.64 146.12 138 145.4 137.28 144.76C136.56 144.12 135.92 143.4 135.2 142.84C133.76 141.56 132.32 140.36 131.12 138.76L131.2 138.68C132.08 139.08 132.96 139.64 133.68 140.2C134.48 140.76 135.2 141.4 135.92 141.96C137.44 143.16 138.88 144.44 140.32 145.72C143.2 148.28 145.92 151.08 148.4 154.04C150.88 157 153.2 160.12 155.12 163.56C155.6 164.44 156.08 165.24 156.4 166.2L156.96 167.56C157.12 168.04 157.28 168.52 157.44 168.92C158.08 170.76 158.64 172.68 158.4 174.68H158.32Z" fill="#048877"/>
<path d="M181.92 268.68L191.36 216.84C191.84 214.36 189.92 212.12 187.44 212.12H130.32C127.84 212.12 125.92 214.36 126.4 216.84L135.84 268.68C136.16 270.6 137.84 271.96 139.76 271.96H178C179.92 271.96 181.52 270.6 181.92 268.68Z" fill="#9E5561"/>
<path d="M129.12 217.88H188.64C190.24 217.88 191.52 216.6 191.52 215C191.52 213.4 190.24 212.12 188.64 212.12H129.12C127.52 212.12 126.24 213.4 126.24 215C126.24 216.6 127.52 217.88 129.12 217.88Z" fill="#C47283"/>
<path d="M169.68 220.04C168.72 216.76 167.44 214.2 166.16 212.04H139.2C136.16 233.4 139.6 264.76 158.32 271.88H172.64C172.8 259.8 172.96 230.76 169.68 220.04Z" fill="#893A45"/>
<path d="M125.6 235.48L128.96 230.12C130.64 227.48 132.96 225.4 135.68 224.04L139.76 221.96C140.64 221.48 141.76 221.72 142.4 222.52C143.12 223.32 143.04 224.6 142.32 225.4L136.32 231.88L133.04 237.96L153.52 236.12C154.88 236.04 156.08 236.92 156.24 238.2V238.28C156.48 239.64 155.68 241 154.32 241.32C149.04 242.68 136.72 245.96 136.72 245.96L154 241.32C155.44 240.92 156.96 241.8 157.28 243.32C157.52 244.52 156.96 245.72 155.92 246.2L137.76 255.4L143.84 257.24L150.56 258.12C151.68 258.28 152.56 259.16 152.72 260.28V260.36C152.96 261.88 151.76 263.32 150.24 263.4L142.88 263.8L132.48 263C130.24 262.84 128.4 261.16 128 259L124.64 240.6C124.32 238.76 124.64 236.92 125.6 235.48Z" fill="#F6BFB3"/>
<path d="M154.32 241.24C153.68 241.72 152.88 241.88 152.16 242.04C151.44 242.28 150.72 242.44 150 242.68C148.56 243.08 147.04 243.48 145.6 243.88C144.16 244.28 142.64 244.68 141.2 245C140.48 245.16 139.76 245.32 138.96 245.48C138.24 245.64 137.52 245.88 136.72 245.8V245.72C137.36 245.24 138.16 245.08 138.88 244.92C139.6 244.68 140.32 244.52 141.04 244.28C142.48 243.88 144 243.48 145.44 243.08C146.88 242.68 148.4 242.28 149.84 241.96C150.56 241.8 151.28 241.64 152.08 241.48C152.8 241.4 153.52 241.16 154.32 241.24Z" fill="#F0A895"/>
<path d="M192.16 235.48L188.8 230.12C187.12 227.48 184.8 225.4 182.08 224.04L178 221.96C177.12 221.48 176 221.72 175.36 222.52C174.64 223.32 174.72 224.6 175.44 225.4L181.44 231.88L184.72 237.96L164.24 236.12C162.88 236.04 161.68 236.92 161.52 238.2V238.28C161.28 239.64 162.08 241 163.44 241.32C168.72 242.68 181.04 245.96 181.04 245.96L163.76 241.32C162.32 240.92 160.8 241.8 160.48 243.32C160.24 244.52 160.8 245.72 161.84 246.2L180 255.4L173.92 257.24L167.2 258.12C166.08 258.28 165.2 259.16 165.04 260.28V260.36C164.8 261.88 166 263.32 167.52 263.4L174.88 263.8L185.28 263C187.52 262.84 189.36 261.16 189.76 259L193.12 240.6C193.44 238.76 193.12 236.92 192.16 235.48Z" fill="#F6BFB3"/>
<path d="M173.92 257.16L167.2 258.04C166.08 258.2 165.2 259.08 165.04 260.2V260.28C164.8 261.8 166 263.24 167.52 263.32L171.36 263.48C173.84 263.56 176 261.88 176.4 259.4C176.64 257.88 175.36 256.68 173.92 257.16Z" fill="#F0A895"/>
<path d="M163.44 241.24C163.36 241.24 163.28 241.16 163.2 241.16C162 241.16 160.8 241.96 160.56 243.24C160.32 244.44 160.88 245.64 161.92 246.12L169.6 250.04C173.52 252.04 178.16 249.64 178.96 245.4C175.2 244.36 167.36 242.28 163.44 241.24Z" fill="#F0A895"/>
<path d="M178 221.88C176.96 221.4 175.76 221.72 175.2 222.76C174.72 223.64 174.88 224.68 175.52 225.4L177.76 227.8C179.28 229.48 182.08 228.68 182.48 226.44C182.72 225.24 182.08 224.04 181.04 223.48C179.6 222.76 178 221.88 178 221.88Z" fill="#F0A895"/>
<path d="M163.76 241.24L178.96 245.32L179.12 244.52C179.84 240.76 177.12 237.16 173.28 236.84L164.32 236.04C162.96 235.96 161.76 236.84 161.6 238.12V238.2C161.36 239.48 162.08 240.68 163.28 241.16C163.36 241.16 163.52 241.16 163.76 241.24Z" fill="#F0A895"/>
<path d="M163.76 241.24C164.48 241.16 165.12 241.4 165.76 241.48C166.4 241.64 167.04 241.8 167.68 241.96C168.96 242.28 170.24 242.6 171.52 242.92C172.8 243.24 174.08 243.64 175.28 243.96C175.92 244.12 176.56 244.36 177.2 244.52C177.84 244.76 178.48 244.84 179.04 245.32V245.4C178.32 245.48 177.68 245.32 177.04 245.16C176.4 245 175.76 244.84 175.12 244.68C173.84 244.36 172.56 244.04 171.28 243.72C170 243.4 168.72 243 167.52 242.68C166.88 242.52 166.24 242.28 165.6 242.12C164.96 241.8 164.32 241.72 163.76 241.24Z" fill="#F6BFB3"/>
<path d="M10 131C10 213.843 77.1573 281 160 281V281C242.843 281 310 213.843 310 131V5H10V131Z" fill="black" fill-opacity="0.1"/>
</g>
<g filter="url(#filter0_d)">
<rect x="42" y="512" width="236" height="36" rx="8" fill="url(#paint1_linear)"/>
</g>
<path d="M140.408 530.847C140.369 531.487 140.298 532.004 140.195 532.4C140.093 532.791 139.927 533.125 139.697 533.403V533.506H144.517V525.925H140.73L140.408 530.847ZM138.518 535V537.087H137.017V533.506H137.786C138.147 533.286 138.408 532.959 138.569 532.524C138.735 532.085 138.84 531.497 138.884 530.759L139.272 524.431H146.157V533.506H147.476V537.087H145.974V535H138.518ZM151.812 533.806C152.402 533.806 152.893 533.64 153.284 533.308C153.679 532.976 153.877 532.561 153.877 532.063V531.396L151.929 531.521C151.382 531.555 150.979 531.667 150.72 531.858C150.461 532.048 150.332 532.319 150.332 532.671C150.332 533.022 150.469 533.301 150.742 533.506C151.016 533.706 151.372 533.806 151.812 533.806ZM151.409 535.132C150.627 535.132 149.988 534.915 149.49 534.48C148.997 534.041 148.75 533.462 148.75 532.744C148.75 532.031 149.006 531.472 149.519 531.067C150.032 530.657 150.764 530.422 151.716 530.364L153.877 530.239V529.551C153.877 529.126 153.738 528.801 153.459 528.577C153.181 528.347 152.776 528.232 152.244 528.232C151.804 528.232 151.438 528.311 151.145 528.467C150.857 528.618 150.669 528.835 150.581 529.119H149.058C149.136 528.435 149.47 527.891 150.061 527.485C150.657 527.075 151.409 526.87 152.317 526.87C153.313 526.87 154.082 527.107 154.624 527.581C155.171 528.049 155.444 528.706 155.444 529.551V535H153.928V533.879H153.804C153.564 534.28 153.235 534.59 152.815 534.81C152.4 535.024 151.931 535.132 151.409 535.132ZM159.985 531.353C159.946 531.953 159.878 532.471 159.78 532.905C159.683 533.335 159.539 533.721 159.348 534.062C159.163 534.399 158.916 534.653 158.608 534.824C158.301 534.995 157.932 535.081 157.502 535.081C157.292 535.081 157.112 535.051 156.96 534.993V533.521C157.092 533.56 157.234 533.579 157.385 533.579C157.751 533.579 158.02 533.381 158.191 532.986C158.367 532.59 158.481 532.019 158.535 531.272L158.813 527.024H164.307V535H162.732V528.35H160.205L159.985 531.353ZM171.411 528.774C171.06 528.398 170.593 528.21 170.012 528.21C169.431 528.21 168.953 528.398 168.577 528.774C168.201 529.15 167.991 529.651 167.947 530.276H171.975C171.956 529.646 171.768 529.146 171.411 528.774ZM171.968 532.847H173.484C173.303 533.564 172.908 534.128 172.297 534.539C171.692 534.949 170.935 535.154 170.027 535.154C168.884 535.154 167.983 534.788 167.324 534.055C166.67 533.318 166.343 532.312 166.343 531.038C166.343 529.763 166.675 528.75 167.339 527.998C168.003 527.246 168.896 526.87 170.02 526.87C171.128 526.87 171.997 527.227 172.627 527.939C173.262 528.652 173.579 529.636 173.579 530.891V531.44H167.947V531.528C167.971 532.231 168.174 532.788 168.555 533.198C168.936 533.608 169.441 533.813 170.071 533.813C171.033 533.813 171.665 533.491 171.968 532.847ZM180.288 528.774C179.937 528.398 179.47 528.21 178.889 528.21C178.308 528.21 177.83 528.398 177.454 528.774C177.078 529.15 176.868 529.651 176.824 530.276H180.852C180.833 529.646 180.645 529.146 180.288 528.774ZM180.845 532.847H182.361C182.18 533.564 181.785 534.128 181.174 534.539C180.569 534.949 179.812 535.154 178.904 535.154C177.761 535.154 176.86 534.788 176.201 534.055C175.547 533.318 175.22 532.312 175.22 531.038C175.22 529.763 175.552 528.75 176.216 527.998C176.88 527.246 177.773 526.87 178.896 526.87C180.005 526.87 180.874 527.227 181.504 527.939C182.139 528.652 182.456 529.636 182.456 530.891V531.44H176.824V531.528C176.848 532.231 177.051 532.788 177.432 533.198C177.812 533.608 178.318 533.813 178.948 533.813C179.91 533.813 180.542 533.491 180.845 532.847Z" fill="white"/>
<path d="M51.5337 324.88C46.3091 324.88 43.0376 328.383 43.0376 333.999C43.0376 339.602 46.3091 343.105 51.5337 343.105C56.7461 343.105 60.0298 339.602 60.0298 333.999C60.0298 328.383 56.7461 324.88 51.5337 324.88ZM51.5337 327.956C54.4146 327.956 56.2578 330.3 56.2578 333.999C56.2578 337.685 54.4146 340.017 51.5337 340.017C48.6406 340.017 46.7974 337.685 46.7974 333.999C46.7974 330.3 48.6528 327.956 51.5337 327.956ZM68.9897 340.297C66.8291 340.236 65.4619 338.759 65.4619 336.257C65.4619 333.767 66.8535 332.265 68.9897 332.204V340.297ZM75.9233 336.257C75.9233 338.735 74.5317 340.236 72.3955 340.297V332.204C74.5439 332.277 75.9233 333.742 75.9233 336.257ZM68.9531 342.995V347.072H72.4321V342.995C76.7168 342.898 79.5122 340.334 79.5122 336.257C79.5122 332.119 76.7534 329.616 72.4321 329.519V325.564H68.9531V329.519C64.6562 329.616 61.8608 332.168 61.8608 336.245C61.8608 340.383 64.6196 342.898 68.9531 342.995ZM87.6177 343.081C91.5728 343.081 94.0996 340.554 94.0996 336.245C94.0996 331.997 91.5361 329.433 87.6177 329.433C83.6992 329.433 81.1357 332.009 81.1357 336.245C81.1357 340.542 83.6626 343.081 87.6177 343.081ZM87.6177 340.359C85.8599 340.359 84.749 338.881 84.749 336.257C84.749 333.657 85.8843 332.155 87.6177 332.155C89.3511 332.155 90.4741 333.657 90.4741 336.257C90.4741 338.881 89.3633 340.359 87.6177 340.359ZM103.804 329.506C101.912 329.506 100.459 330.459 99.7515 331.997H99.6782V329.714H96.1626V347.072H99.7271V340.603H99.8003C100.496 342.08 101.961 343.007 103.865 343.007C107.137 343.007 109.163 340.468 109.163 336.257C109.163 332.033 107.125 329.506 103.804 329.506ZM102.608 340.139C100.862 340.139 99.7148 338.625 99.7148 336.257C99.7148 333.913 100.862 332.363 102.608 332.363C104.39 332.363 105.513 333.889 105.513 336.257C105.513 338.637 104.39 340.139 102.608 340.139ZM114.62 342.8V334.047H114.705L118.086 342.068H120.552L123.946 334.047H124.031V342.8H127.376V329.714H122.811L119.393 338.259H119.307L115.889 329.714H111.275V342.8H114.62ZM134.725 336.526L134.981 332.4H138.301V342.8H141.854V329.714H131.929L131.563 336.294C131.453 338.357 131.075 339.87 129.83 339.87C129.476 339.87 129.207 339.821 129.061 339.785V342.788C129.244 342.861 129.646 342.959 130.196 342.959C133.431 342.959 134.493 340.407 134.725 336.526ZM150.301 332.07C151.888 332.07 152.974 333.217 153.047 334.89H147.493C147.615 333.254 148.738 332.07 150.301 332.07ZM153.096 338.796C152.767 339.797 151.766 340.444 150.459 340.444C148.641 340.444 147.457 339.162 147.457 337.295V337.075H156.478V335.988C156.478 332.009 154.073 329.433 150.264 329.433C146.395 329.433 143.953 332.143 143.953 336.318C143.953 340.505 146.37 343.081 150.398 343.081C153.633 343.081 155.977 341.359 156.368 338.796H153.096ZM167.122 342.8H170.674V329.714H167.122V334.743H162.093V329.714H158.541V342.8H162.093V337.441H167.122V342.8ZM176.729 342.8L181.929 334.524H182.027V342.8H185.518V329.714H182.027L176.827 337.893H176.729V329.714H173.238V342.8H176.729ZM193.953 332.07C195.54 332.07 196.626 333.217 196.7 334.89H191.146C191.268 333.254 192.391 332.07 193.953 332.07ZM196.749 338.796C196.419 339.797 195.418 340.444 194.112 340.444C192.293 340.444 191.109 339.162 191.109 337.295V337.075H200.13V335.988C200.13 332.009 197.725 329.433 193.917 329.433C190.047 329.433 187.605 332.143 187.605 336.318C187.605 340.505 190.022 343.081 194.051 343.081C197.286 343.081 199.629 341.359 200.02 338.796H196.749ZM46.5938 367.8H43.1191V359.345H46.5176C47.3105 359.345 47.9316 359.534 48.3809 359.913C48.834 360.288 49.0605 360.802 49.0605 361.454C49.0605 361.896 48.918 362.292 48.6328 362.644C48.3477 362.991 47.9961 363.2 47.5781 363.271V363.37C48.1484 363.429 48.6074 363.646 48.9551 364.021C49.3066 364.392 49.4824 364.853 49.4824 365.403C49.4824 366.15 49.2266 366.735 48.7148 367.161C48.2031 367.587 47.4961 367.8 46.5938 367.8ZM44.4316 360.458V362.925H45.9902C46.5684 362.925 47.0059 362.821 47.3027 362.614C47.6035 362.403 47.7539 362.097 47.7539 361.694C47.7539 361.304 47.6172 361.001 47.3438 360.786C47.0742 360.568 46.6973 360.458 46.2129 360.458H44.4316ZM44.4316 366.687H46.3301C46.9199 366.687 47.3691 366.569 47.6777 366.335C47.9863 366.101 48.1406 365.759 48.1406 365.31C48.1406 364.868 47.9805 364.534 47.6602 364.308C47.3398 364.077 46.8711 363.962 46.2539 363.962H44.4316V366.687ZM56.7539 367.8V361.419H58.0078V367.8H56.7539ZM53.5137 364.431H52.3945V366.739H53.5137C53.8965 366.739 54.2012 366.634 54.4277 366.423C54.6543 366.212 54.7676 365.933 54.7676 365.585C54.7676 365.237 54.6523 364.958 54.4219 364.747C54.1953 364.536 53.8926 364.431 53.5137 364.431ZM51.1348 367.8V361.419H52.3945V363.376H53.6074C54.3457 363.376 54.9336 363.575 55.3711 363.974C55.8086 364.372 56.0273 364.909 56.0273 365.585C56.0273 366.261 55.8086 366.8 55.3711 367.202C54.9336 367.601 54.3457 367.8 53.6074 367.8H51.1348ZM62.6895 367.923C61.7051 367.923 60.9492 367.603 60.4219 366.962C59.8984 366.321 59.6367 365.364 59.6367 364.091C59.6367 363.298 59.6934 362.616 59.8066 362.046C59.9199 361.472 60.1035 360.976 60.3574 360.558C60.6113 360.14 60.9512 359.823 61.377 359.609C61.8027 359.394 62.3203 359.275 62.9297 359.251L63.6328 359.222C63.9297 359.206 64.2168 359.173 64.4941 359.122C64.7715 359.071 64.9746 359.023 65.1035 358.976L65.2969 358.911V360.025C65.2656 360.044 65.2168 360.071 65.1504 360.107C65.0879 360.138 64.9199 360.185 64.6465 360.247C64.373 360.306 64.0566 360.343 63.6973 360.359L63.0059 360.382C62.5996 360.398 62.2539 360.46 61.9688 360.569C61.6836 360.679 61.4531 360.841 61.2773 361.056C61.1055 361.271 60.9727 361.515 60.8789 361.788C60.7852 362.062 60.7129 362.396 60.6621 362.79H60.7617C60.9609 362.419 61.2402 362.128 61.5996 361.917C61.959 361.702 62.3945 361.595 62.9062 361.595C63.7539 361.595 64.4336 361.872 64.9453 362.427C65.457 362.978 65.7129 363.728 65.7129 364.677C65.7129 365.685 65.4414 366.478 64.8984 367.056C64.3594 367.634 63.623 367.923 62.6895 367.923ZM61.3887 366.253C61.6934 366.62 62.123 366.804 62.6777 366.804C63.2324 366.804 63.6602 366.62 63.9609 366.253C64.2656 365.886 64.418 365.366 64.418 364.694C64.418 364.054 64.2656 363.558 63.9609 363.206C63.6602 362.855 63.2324 362.679 62.6777 362.679C62.123 362.679 61.6934 362.855 61.3887 363.206C61.0879 363.558 60.9375 364.054 60.9375 364.694C60.9375 365.366 61.0879 365.886 61.3887 366.253ZM70.043 366.804C70.5859 366.804 71.0059 366.612 71.3027 366.23C71.6035 365.843 71.7539 365.302 71.7539 364.607C71.7539 363.915 71.6035 363.378 71.3027 362.995C71.0059 362.609 70.5859 362.415 70.043 362.415C69.4961 362.415 69.0742 362.607 68.7773 362.989C68.4805 363.372 68.332 363.911 68.332 364.607C68.332 365.306 68.4805 365.847 68.7773 366.23C69.0742 366.612 69.4961 366.804 70.043 366.804ZM70.043 367.923C69.1055 367.923 68.3691 367.628 67.834 367.038C67.2988 366.448 67.0312 365.638 67.0312 364.607C67.0312 363.579 67.2988 362.771 67.834 362.181C68.373 361.591 69.1094 361.296 70.043 361.296C70.9727 361.296 71.7051 361.591 72.2402 362.181C72.7793 362.771 73.0488 363.579 73.0488 364.607C73.0488 365.638 72.7812 366.448 72.2461 367.038C71.7109 367.628 70.9766 367.923 70.043 367.923ZM77.9883 361.314C78.8008 361.314 79.4453 361.61 79.9219 362.204C80.3984 362.794 80.6367 363.595 80.6367 364.607C80.6367 365.618 80.3984 366.421 79.9219 367.015C79.4492 367.609 78.8086 367.905 78 367.905C77.5469 367.905 77.1484 367.812 76.8047 367.624C76.4609 367.433 76.2051 367.169 76.0371 366.833H75.9375V369.921H74.6777V361.419H75.8906V362.474H75.9844C76.1758 362.11 76.4492 361.827 76.8047 361.624C77.1602 361.417 77.5547 361.314 77.9883 361.314ZM77.6309 366.775C78.166 366.775 78.584 366.583 78.8848 366.2C79.1895 365.814 79.3418 365.282 79.3418 364.607C79.3418 363.931 79.1895 363.401 78.8848 363.019C78.584 362.636 78.168 362.444 77.6367 362.444C77.1055 362.444 76.6855 362.64 76.377 363.03C76.0684 363.417 75.9141 363.944 75.9141 364.612C75.9141 365.276 76.0684 365.804 76.377 366.194C76.6855 366.581 77.1035 366.775 77.6309 366.775ZM91.8691 369.47H90.6973V367.8H85.5527V361.419H86.8125V366.739H89.6133V361.419H90.873V366.739H91.8691V369.47ZM95.7715 362.386H94.3945V364.038H95.6309C96.3809 364.038 96.7559 363.761 96.7559 363.206C96.7559 362.948 96.6738 362.747 96.5098 362.603C96.3457 362.458 96.0996 362.386 95.7715 362.386ZM95.7188 364.964H94.3945V366.833H95.877C96.248 366.833 96.5312 366.753 96.7266 366.593C96.9219 366.433 97.0195 366.202 97.0195 365.901C97.0195 365.276 96.5859 364.964 95.7188 364.964ZM93.1465 367.8V361.419H96.0117C96.6328 361.419 97.1172 361.566 97.4648 361.859C97.8164 362.148 97.9922 362.542 97.9922 363.042C97.9922 363.366 97.8887 363.657 97.6816 363.915C97.4785 364.173 97.2227 364.331 96.9141 364.39V364.489C97.3242 364.536 97.6543 364.696 97.9043 364.97C98.1543 365.239 98.2793 365.569 98.2793 365.96C98.2793 366.523 98.0801 366.97 97.6816 367.302C97.2832 367.634 96.7363 367.8 96.041 367.8H93.1465ZM103.641 362.819C103.359 362.519 102.986 362.368 102.521 362.368C102.057 362.368 101.674 362.519 101.373 362.819C101.072 363.12 100.904 363.521 100.869 364.021H104.092C104.076 363.517 103.926 363.116 103.641 362.819ZM104.086 366.077H105.299C105.154 366.651 104.838 367.103 104.35 367.431C103.865 367.759 103.26 367.923 102.533 367.923C101.619 367.923 100.898 367.63 100.371 367.044C99.8477 366.454 99.5859 365.65 99.5859 364.63C99.5859 363.61 99.8516 362.8 100.383 362.198C100.914 361.597 101.629 361.296 102.527 361.296C103.414 361.296 104.109 361.581 104.613 362.151C105.121 362.722 105.375 363.509 105.375 364.513V364.952H100.869V365.023C100.889 365.585 101.051 366.03 101.355 366.359C101.66 366.687 102.064 366.851 102.568 366.851C103.338 366.851 103.844 366.593 104.086 366.077ZM111.545 361.419V362.48H109.535V367.8H108.275V362.48H106.266V361.419H111.545ZM115.441 366.804C115.984 366.804 116.404 366.612 116.701 366.23C117.002 365.843 117.152 365.302 117.152 364.607C117.152 363.915 117.002 363.378 116.701 362.995C116.404 362.609 115.984 362.415 115.441 362.415C114.895 362.415 114.473 362.607 114.176 362.989C113.879 363.372 113.73 363.911 113.73 364.607C113.73 365.306 113.879 365.847 114.176 366.23C114.473 366.612 114.895 366.804 115.441 366.804ZM115.441 367.923C114.504 367.923 113.768 367.628 113.232 367.038C112.697 366.448 112.43 365.638 112.43 364.607C112.43 363.579 112.697 362.771 113.232 362.181C113.771 361.591 114.508 361.296 115.441 361.296C116.371 361.296 117.104 361.591 117.639 362.181C118.178 362.771 118.447 363.579 118.447 364.607C118.447 365.638 118.18 366.448 117.645 367.038C117.109 367.628 116.375 367.923 115.441 367.923ZM122.701 362.386H121.324V364.038H122.561C123.311 364.038 123.686 363.761 123.686 363.206C123.686 362.948 123.604 362.747 123.439 362.603C123.275 362.458 123.029 362.386 122.701 362.386ZM122.648 364.964H121.324V366.833H122.807C123.178 366.833 123.461 366.753 123.656 366.593C123.852 366.433 123.949 366.202 123.949 365.901C123.949 365.276 123.516 364.964 122.648 364.964ZM120.076 367.8V361.419H122.941C123.562 361.419 124.047 361.566 124.395 361.859C124.746 362.148 124.922 362.542 124.922 363.042C124.922 363.366 124.818 363.657 124.611 363.915C124.408 364.173 124.152 364.331 123.844 364.39V364.489C124.254 364.536 124.584 364.696 124.834 364.97C125.084 365.239 125.209 365.569 125.209 365.96C125.209 366.523 125.01 366.97 124.611 367.302C124.213 367.634 123.666 367.8 122.971 367.8H120.076ZM129.527 366.804C130.07 366.804 130.49 366.612 130.787 366.23C131.088 365.843 131.238 365.302 131.238 364.607C131.238 363.915 131.088 363.378 130.787 362.995C130.49 362.609 130.07 362.415 129.527 362.415C128.98 362.415 128.559 362.607 128.262 362.989C127.965 363.372 127.816 363.911 127.816 364.607C127.816 365.306 127.965 365.847 128.262 366.23C128.559 366.612 128.98 366.804 129.527 366.804ZM129.527 367.923C128.59 367.923 127.854 367.628 127.318 367.038C126.783 366.448 126.516 365.638 126.516 364.607C126.516 363.579 126.783 362.771 127.318 362.181C127.857 361.591 128.594 361.296 129.527 361.296C130.457 361.296 131.189 361.591 131.725 362.181C132.264 362.771 132.533 363.579 132.533 364.607C132.533 365.638 132.266 366.448 131.73 367.038C131.195 367.628 130.461 367.923 129.527 367.923ZM134.736 358.53H135.785C135.785 358.855 135.881 359.13 136.072 359.357C136.264 359.583 136.514 359.696 136.822 359.696C137.139 359.696 137.391 359.583 137.578 359.357C137.77 359.13 137.867 358.855 137.871 358.53H138.914C138.914 359.105 138.721 359.579 138.334 359.954C137.947 360.325 137.443 360.511 136.822 360.511C136.201 360.511 135.697 360.325 135.311 359.954C134.928 359.579 134.736 359.105 134.736 358.53ZM135.41 367.8H134.162V361.419H135.41V365.808H135.51L138.422 361.419H139.67V367.8H138.422V363.388H138.322L135.41 367.8ZM150.305 363.505H149.08C149.002 363.181 148.832 362.919 148.57 362.72C148.312 362.521 147.98 362.421 147.574 362.421C147.047 362.421 146.631 362.612 146.326 362.995C146.025 363.378 145.875 363.909 145.875 364.589C145.875 365.276 146.025 365.818 146.326 366.212C146.631 366.603 147.047 366.798 147.574 366.798C147.977 366.798 148.307 366.708 148.564 366.528C148.826 366.349 148.998 366.089 149.08 365.749H150.305C150.223 366.405 149.941 366.933 149.461 367.331C148.98 367.726 148.354 367.923 147.58 367.923C146.65 367.923 145.918 367.628 145.383 367.038C144.852 366.444 144.586 365.628 144.586 364.589C144.586 363.566 144.852 362.761 145.383 362.175C145.914 361.589 146.645 361.296 147.574 361.296C148.352 361.296 148.979 361.499 149.455 361.905C149.936 362.312 150.219 362.845 150.305 363.505ZM154.096 365.538H154.002L152.607 367.8H151.225L153.34 364.624L151.207 361.419H152.678L154.049 363.669H154.148L155.508 361.419H156.908L154.805 364.571L156.932 367.8H155.484L154.096 365.538ZM161.871 362.819C161.59 362.519 161.217 362.368 160.752 362.368C160.287 362.368 159.904 362.519 159.604 362.819C159.303 363.12 159.135 363.521 159.1 364.021H162.322C162.307 363.517 162.156 363.116 161.871 362.819ZM162.316 366.077H163.529C163.385 366.651 163.068 367.103 162.58 367.431C162.096 367.759 161.49 367.923 160.764 367.923C159.85 367.923 159.129 367.63 158.602 367.044C158.078 366.454 157.816 365.65 157.816 364.63C157.816 363.61 158.082 362.8 158.613 362.198C159.145 361.597 159.859 361.296 160.758 361.296C161.645 361.296 162.34 361.581 162.844 362.151C163.352 362.722 163.605 363.509 163.605 364.513V364.952H159.1V365.023C159.119 365.585 159.281 366.03 159.586 366.359C159.891 366.687 160.295 366.851 160.799 366.851C161.568 366.851 162.074 366.593 162.316 366.077ZM166.453 367.8H165.229V361.419H166.811L168.867 365.984H168.967L171.029 361.419H172.57V367.8H171.34V363.4H171.229L169.359 367.542H168.434L166.564 363.4H166.453V367.8ZM180.129 367.8V361.419H181.383V367.8H180.129ZM176.889 364.431H175.77V366.739H176.889C177.271 366.739 177.576 366.634 177.803 366.423C178.029 366.212 178.143 365.933 178.143 365.585C178.143 365.237 178.027 364.958 177.797 364.747C177.57 364.536 177.268 364.431 176.889 364.431ZM174.51 367.8V361.419H175.77V363.376H176.982C177.721 363.376 178.309 363.575 178.746 363.974C179.184 364.372 179.402 364.909 179.402 365.585C179.402 366.261 179.184 366.8 178.746 367.202C178.309 367.601 177.721 367.8 176.982 367.8H174.51ZM187.852 367.8H186.604V361.419H187.852V365.808H187.951L190.863 361.419H192.111V367.8H190.863V363.388H190.764L187.852 367.8ZM200.039 366.804C200.582 366.804 201.002 366.612 201.299 366.23C201.6 365.843 201.75 365.302 201.75 364.607C201.75 363.915 201.6 363.378 201.299 362.995C201.002 362.609 200.582 362.415 200.039 362.415C199.492 362.415 199.07 362.607 198.773 362.989C198.477 363.372 198.328 363.911 198.328 364.607C198.328 365.306 198.477 365.847 198.773 366.23C199.07 366.612 199.492 366.804 200.039 366.804ZM200.039 367.923C199.102 367.923 198.365 367.628 197.83 367.038C197.295 366.448 197.027 365.638 197.027 364.607C197.027 363.579 197.295 362.771 197.83 362.181C198.369 361.591 199.105 361.296 200.039 361.296C200.969 361.296 201.701 361.591 202.236 362.181C202.775 362.771 203.045 363.579 203.045 364.607C203.045 365.638 202.777 366.448 202.242 367.038C201.707 367.628 200.973 367.923 200.039 367.923ZM207.703 366.81V362.409C207.074 362.425 206.574 362.628 206.203 363.019C205.832 363.409 205.646 363.939 205.646 364.607C205.646 365.278 205.83 365.81 206.197 366.2C206.568 366.587 207.07 366.79 207.703 366.81ZM210.434 366.2C210.805 365.806 210.99 365.275 210.99 364.607C210.99 363.939 210.805 363.411 210.434 363.025C210.062 362.634 209.561 362.429 208.928 362.409V366.81C209.561 366.794 210.062 366.591 210.434 366.2ZM207.703 367.882C206.688 367.862 205.877 367.56 205.271 366.974C204.666 366.384 204.363 365.595 204.363 364.607C204.363 363.622 204.666 362.837 205.271 362.251C205.881 361.661 206.691 361.357 207.703 361.337V359.31H208.934V361.337C209.949 361.357 210.758 361.661 211.359 362.251C211.965 362.837 212.268 363.624 212.268 364.612C212.268 365.597 211.965 366.384 211.359 366.974C210.754 367.56 209.945 367.862 208.934 367.882V369.921H207.703V367.882ZM216.598 366.804C217.141 366.804 217.561 366.612 217.857 366.23C218.158 365.843 218.309 365.302 218.309 364.607C218.309 363.915 218.158 363.378 217.857 362.995C217.561 362.609 217.141 362.415 216.598 362.415C216.051 362.415 215.629 362.607 215.332 362.989C215.035 363.372 214.887 363.911 214.887 364.607C214.887 365.306 215.035 365.847 215.332 366.23C215.629 366.612 216.051 366.804 216.598 366.804ZM216.598 367.923C215.66 367.923 214.924 367.628 214.389 367.038C213.854 366.448 213.586 365.638 213.586 364.607C213.586 363.579 213.854 362.771 214.389 362.181C214.928 361.591 215.664 361.296 216.598 361.296C217.527 361.296 218.26 361.591 218.795 362.181C219.334 362.771 219.604 363.579 219.604 364.607C219.604 365.638 219.336 366.448 218.801 367.038C218.266 367.628 217.531 367.923 216.598 367.923ZM224.543 361.314C225.355 361.314 226 361.61 226.477 362.204C226.953 362.794 227.191 363.595 227.191 364.607C227.191 365.618 226.953 366.421 226.477 367.015C226.004 367.609 225.363 367.905 224.555 367.905C224.102 367.905 223.703 367.812 223.359 367.624C223.016 367.433 222.76 367.169 222.592 366.833H222.492V369.921H221.232V361.419H222.445V362.474H222.539C222.73 362.11 223.004 361.827 223.359 361.624C223.715 361.417 224.109 361.314 224.543 361.314ZM224.186 366.775C224.721 366.775 225.139 366.583 225.439 366.2C225.744 365.814 225.896 365.282 225.896 364.607C225.896 363.931 225.744 363.401 225.439 363.019C225.139 362.636 224.723 362.444 224.191 362.444C223.66 362.444 223.24 362.64 222.932 363.03C222.623 363.417 222.469 363.944 222.469 364.612C222.469 365.276 222.623 365.804 222.932 366.194C223.24 366.581 223.658 366.775 224.186 366.775ZM230.051 367.8H228.826V361.419H230.408L232.465 365.984H232.564L234.627 361.419H236.168V367.8H234.938V363.4H234.826L232.957 367.542H232.031L230.162 363.4H230.051V367.8ZM239.836 364.882C239.805 365.362 239.75 365.776 239.672 366.124C239.594 366.468 239.479 366.776 239.326 367.05C239.178 367.319 238.98 367.523 238.734 367.659C238.488 367.796 238.193 367.864 237.85 367.864C237.682 367.864 237.537 367.841 237.416 367.794V366.616C237.521 366.648 237.635 366.663 237.756 366.663C238.049 366.663 238.264 366.505 238.4 366.189C238.541 365.872 238.633 365.415 238.676 364.818L238.898 361.419H243.293V367.8H242.033V362.48H240.012L239.836 364.882ZM248.977 362.819C248.695 362.519 248.322 362.368 247.857 362.368C247.393 362.368 247.01 362.519 246.709 362.819C246.408 363.12 246.24 363.521 246.205 364.021H249.428C249.412 363.517 249.262 363.116 248.977 362.819ZM249.422 366.077H250.635C250.49 366.651 250.174 367.103 249.686 367.431C249.201 367.759 248.596 367.923 247.869 367.923C246.955 367.923 246.234 367.63 245.707 367.044C245.184 366.454 244.922 365.65 244.922 364.63C244.922 363.61 245.188 362.8 245.719 362.198C246.25 361.597 246.965 361.296 247.863 361.296C248.75 361.296 249.445 361.581 249.949 362.151C250.457 362.722 250.711 363.509 250.711 364.513V364.952H246.205V365.023C246.225 365.585 246.387 366.03 246.691 366.359C246.996 366.687 247.4 366.851 247.904 366.851C248.674 366.851 249.18 366.593 249.422 366.077ZM252.334 367.8V361.419H253.594V363.974H256.5V361.419H257.76V367.8H256.5V365.034H253.594V367.8H252.334ZM260.941 367.8H259.693V361.419H260.941V365.808H261.041L263.953 361.419H265.201V367.8H263.953V363.388H263.854L260.941 367.8ZM269.455 364.601H270.598V362.48H269.455C269.072 362.48 268.768 362.577 268.541 362.773C268.318 362.968 268.207 363.234 268.207 363.569C268.207 363.874 268.32 364.122 268.547 364.314C268.777 364.505 269.08 364.601 269.455 364.601ZM270.598 367.8V365.614H269.648L268.102 367.8H266.637L268.377 365.386C267.936 365.261 267.588 365.038 267.334 364.718C267.084 364.394 266.959 364.013 266.959 363.575C266.959 362.915 267.18 362.392 267.621 362.005C268.062 361.614 268.652 361.419 269.391 361.419H271.84V367.8H270.598Z" fill="black"/>
<g filter="url(#filter1_d)">
<rect x="42" y="269.8" width="36" height="36" rx="18" fill="url(#paint2_linear)"/>
</g>
<path d="M64.6959 289.706C63.9669 289.706 63.226 289.624 62.5088 289.724C61.2049 289.906 60.221 290.985 60.1143 292.206C60.0017 293.532 60.7426 294.682 62.0288 295.158C62.7578 295.428 63.1015 296.056 62.8941 296.76C62.7518 297.247 62.414 297.546 61.9161 297.634C60.0254 297.963 58.1703 297.816 56.3981 297.077C53.0494 295.68 50.9572 293.21 50.2044 289.683C49.0783 284.401 52.7293 279.014 58.0814 277.993C63.3742 276.984 68.3647 280.006 69.8524 285.117C70.5221 287.418 68.8329 289.642 66.4088 289.653C65.8339 289.653 65.2649 289.653 64.69 289.653C64.6959 289.677 64.6959 289.695 64.6959 289.706ZM60.1321 279.637C59.2609 279.631 58.5259 280.358 58.5259 281.215C58.5259 282.078 59.2609 282.799 60.1321 282.799C60.9856 282.799 61.7146 282.084 61.7265 281.233C61.7324 280.382 60.9975 279.642 60.1321 279.637ZM57.2398 291.919C57.2457 291.038 56.5404 290.328 55.6573 290.322C54.786 290.317 54.0748 291.015 54.0688 291.877C54.0629 292.764 54.7564 293.474 55.6336 293.485C56.5107 293.503 57.2338 292.793 57.2398 291.919ZM63.0067 283.064C63.0067 283.932 63.712 284.63 64.5892 284.63C65.4783 284.63 66.1836 283.926 66.1776 283.04C66.1717 282.172 65.4664 281.479 64.5951 281.473C63.7061 281.473 63.0067 282.177 63.0067 283.064ZM57.2398 283.058C57.2338 282.172 56.5226 281.467 55.6395 281.473C54.7682 281.485 54.0629 282.189 54.0629 283.052C54.0629 283.932 54.7682 284.63 55.6632 284.63C56.5345 284.63 57.2398 283.92 57.2398 283.058ZM52.2137 287.453C52.1959 288.321 52.8775 289.031 53.7606 289.049C54.6378 289.072 55.3728 288.386 55.3905 287.535C55.4083 286.643 54.7208 285.921 53.8436 285.904C52.9486 285.892 52.2315 286.567 52.2137 287.453Z" fill="white"/>
<path d="M68.4316 411.007H68.6836L72.0234 407.345H73.5762L69.8027 411.446L73.8809 415.8H72.2168L68.6895 412.091H68.4316V415.8H67.1191V407.345H68.4316V411.007ZM76.957 412.882C76.9258 413.362 76.8711 413.776 76.793 414.124C76.7148 414.468 76.5996 414.776 76.4473 415.05C76.2988 415.319 76.1016 415.523 75.8555 415.659C75.6094 415.796 75.3145 415.864 74.9707 415.864C74.8027 415.864 74.6582 415.841 74.5371 415.794V414.616C74.6426 414.648 74.7559 414.663 74.877 414.663C75.1699 414.663 75.3848 414.505 75.5215 414.189C75.6621 413.872 75.7539 413.415 75.7969 412.818L76.0195 409.419H80.4141V415.8H79.1543V410.48H77.1328L76.957 412.882ZM84.4453 414.845C84.918 414.845 85.3105 414.712 85.623 414.446C85.9395 414.181 86.0977 413.849 86.0977 413.45V412.917L84.5391 413.017C84.1016 413.044 83.7793 413.134 83.5723 413.286C83.3652 413.439 83.2617 413.655 83.2617 413.937C83.2617 414.218 83.3711 414.441 83.5898 414.605C83.8086 414.765 84.0938 414.845 84.4453 414.845ZM84.123 415.905C83.498 415.905 82.9863 415.732 82.5879 415.384C82.1934 415.032 81.9961 414.569 81.9961 413.995C81.9961 413.425 82.2012 412.978 82.6113 412.653C83.0215 412.325 83.6074 412.138 84.3691 412.091L86.0977 411.991V411.441C86.0977 411.101 85.9863 410.841 85.7637 410.661C85.541 410.478 85.2168 410.386 84.791 410.386C84.4395 410.386 84.1465 410.448 83.9121 410.573C83.6816 410.694 83.5312 410.868 83.4609 411.095H82.2422C82.3047 410.548 82.5723 410.112 83.0449 409.788C83.5215 409.46 84.123 409.296 84.8496 409.296C85.6465 409.296 86.2617 409.485 86.6953 409.864C87.1328 410.239 87.3516 410.765 87.3516 411.441V415.8H86.1387V414.903H86.0391C85.8477 415.224 85.584 415.472 85.248 415.648C84.916 415.819 84.541 415.905 84.123 415.905ZM94.6641 411.505H93.4395C93.3613 411.181 93.1914 410.919 92.9297 410.72C92.6719 410.521 92.3398 410.421 91.9336 410.421C91.4062 410.421 90.9902 410.612 90.6855 410.995C90.3848 411.378 90.2344 411.909 90.2344 412.589C90.2344 413.276 90.3848 413.818 90.6855 414.212C90.9902 414.603 91.4062 414.798 91.9336 414.798C92.3359 414.798 92.666 414.708 92.9238 414.528C93.1855 414.349 93.3574 414.089 93.4395 413.749H94.6641C94.582 414.405 94.3008 414.933 93.8203 415.331C93.3398 415.726 92.7129 415.923 91.9395 415.923C91.0098 415.923 90.2773 415.628 89.7422 415.038C89.2109 414.444 88.9453 413.628 88.9453 412.589C88.9453 411.566 89.2109 410.761 89.7422 410.175C90.2734 409.589 91.0039 409.296 91.9336 409.296C92.7109 409.296 93.3379 409.499 93.8145 409.905C94.2949 410.312 94.5781 410.845 94.6641 411.505ZM101.625 411.505H100.4C100.322 411.181 100.152 410.919 99.8906 410.72C99.6328 410.521 99.3008 410.421 98.8945 410.421C98.3672 410.421 97.9512 410.612 97.6465 410.995C97.3457 411.378 97.1953 411.909 97.1953 412.589C97.1953 413.276 97.3457 413.818 97.6465 414.212C97.9512 414.603 98.3672 414.798 98.8945 414.798C99.2969 414.798 99.627 414.708 99.8848 414.528C100.146 414.349 100.318 414.089 100.4 413.749H101.625C101.543 414.405 101.262 414.933 100.781 415.331C100.301 415.726 99.6738 415.923 98.9004 415.923C97.9707 415.923 97.2383 415.628 96.7031 415.038C96.1719 414.444 95.9062 413.628 95.9062 412.589C95.9062 411.566 96.1719 410.761 96.7031 410.175C97.2344 409.589 97.9648 409.296 98.8945 409.296C99.6719 409.296 100.299 409.499 100.775 409.905C101.256 410.312 101.539 410.845 101.625 411.505ZM104.426 415.8H103.178V409.419H104.426V413.808H104.525L107.438 409.419H108.686V415.8H107.438V411.388H107.338L104.426 415.8ZM115.74 415.8H114.48V412.999H114.387C113.941 413.429 113.381 413.644 112.705 413.644C112.025 413.644 111.488 413.435 111.094 413.017C110.703 412.595 110.508 412.03 110.508 411.323V409.419H111.768V411.212C111.768 411.61 111.871 411.925 112.078 412.155C112.285 412.382 112.574 412.495 112.945 412.495C113.16 412.495 113.359 412.47 113.543 412.419C113.73 412.364 113.885 412.296 114.006 412.214C114.127 412.132 114.225 412.056 114.299 411.985C114.373 411.911 114.434 411.839 114.48 411.769V409.419H115.74V415.8ZM121.43 410.819C121.148 410.519 120.775 410.368 120.311 410.368C119.846 410.368 119.463 410.519 119.162 410.819C118.861 411.12 118.693 411.521 118.658 412.021H121.881C121.865 411.517 121.715 411.116 121.43 410.819ZM121.875 414.077H123.088C122.943 414.651 122.627 415.103 122.139 415.431C121.654 415.759 121.049 415.923 120.322 415.923C119.408 415.923 118.688 415.63 118.16 415.044C117.637 414.454 117.375 413.65 117.375 412.63C117.375 411.61 117.641 410.8 118.172 410.198C118.703 409.597 119.418 409.296 120.316 409.296C121.203 409.296 121.898 409.581 122.402 410.151C122.91 410.722 123.164 411.509 123.164 412.513V412.952H118.658V413.023C118.678 413.585 118.84 414.03 119.145 414.359C119.449 414.687 119.854 414.851 120.357 414.851C121.127 414.851 121.633 414.593 121.875 414.077ZM130.195 411.505H128.971C128.893 411.181 128.723 410.919 128.461 410.72C128.203 410.521 127.871 410.421 127.465 410.421C126.938 410.421 126.521 410.612 126.217 410.995C125.916 411.378 125.766 411.909 125.766 412.589C125.766 413.276 125.916 413.818 126.217 414.212C126.521 414.603 126.938 414.798 127.465 414.798C127.867 414.798 128.197 414.708 128.455 414.528C128.717 414.349 128.889 414.089 128.971 413.749H130.195C130.113 414.405 129.832 414.933 129.352 415.331C128.871 415.726 128.244 415.923 127.471 415.923C126.541 415.923 125.809 415.628 125.273 415.038C124.742 414.444 124.477 413.628 124.477 412.589C124.477 411.566 124.742 410.761 125.273 410.175C125.805 409.589 126.535 409.296 127.465 409.296C128.242 409.296 128.869 409.499 129.346 409.905C129.826 410.312 130.109 410.845 130.195 411.505ZM133.008 412.009H133.289L135.592 409.419H137.074L134.326 412.384L137.191 415.8H135.621L133.295 413.011H133.008V415.8H131.748V409.419H133.008V412.009ZM140.426 414.845C140.898 414.845 141.291 414.712 141.604 414.446C141.92 414.181 142.078 413.849 142.078 413.45V412.917L140.52 413.017C140.082 413.044 139.76 413.134 139.553 413.286C139.346 413.439 139.242 413.655 139.242 413.937C139.242 414.218 139.352 414.441 139.57 414.605C139.789 414.765 140.074 414.845 140.426 414.845ZM140.104 415.905C139.479 415.905 138.967 415.732 138.568 415.384C138.174 415.032 137.977 414.569 137.977 413.995C137.977 413.425 138.182 412.978 138.592 412.653C139.002 412.325 139.588 412.138 140.35 412.091L142.078 411.991V411.441C142.078 411.101 141.967 410.841 141.744 410.661C141.521 410.478 141.197 410.386 140.771 410.386C140.42 410.386 140.127 410.448 139.893 410.573C139.662 410.694 139.512 410.868 139.441 411.095H138.223C138.285 410.548 138.553 410.112 139.025 409.788C139.502 409.46 140.104 409.296 140.83 409.296C141.627 409.296 142.242 409.485 142.676 409.864C143.113 410.239 143.332 410.765 143.332 411.441V415.8H142.119V414.903H142.02C141.828 415.224 141.564 415.472 141.229 415.648C140.896 415.819 140.521 415.905 140.104 415.905ZM147.545 412.601H148.688V410.48H147.545C147.162 410.48 146.857 410.577 146.631 410.773C146.408 410.968 146.297 411.234 146.297 411.569C146.297 411.874 146.41 412.122 146.637 412.314C146.867 412.505 147.17 412.601 147.545 412.601ZM148.688 415.8V413.614H147.738L146.191 415.8H144.727L146.467 413.386C146.025 413.261 145.678 413.038 145.424 412.718C145.174 412.394 145.049 412.013 145.049 411.575C145.049 410.915 145.27 410.392 145.711 410.005C146.152 409.614 146.742 409.419 147.48 409.419H149.93V415.8H148.688Z" fill="black"/>
<path d="M192.432 411.007H192.684L196.023 407.345H197.576L193.803 411.446L197.881 415.8H196.217L192.689 412.091H192.432V415.8H191.119V407.345H192.432V411.007ZM201.613 414.804C202.156 414.804 202.576 414.612 202.873 414.23C203.174 413.843 203.324 413.302 203.324 412.607C203.324 411.915 203.174 411.378 202.873 410.995C202.576 410.609 202.156 410.415 201.613 410.415C201.066 410.415 200.645 410.607 200.348 410.989C200.051 411.372 199.902 411.911 199.902 412.607C199.902 413.306 200.051 413.847 200.348 414.23C200.645 414.612 201.066 414.804 201.613 414.804ZM201.613 415.923C200.676 415.923 199.939 415.628 199.404 415.038C198.869 414.448 198.602 413.638 198.602 412.607C198.602 411.579 198.869 410.771 199.404 410.181C199.943 409.591 200.68 409.296 201.613 409.296C202.543 409.296 203.275 409.591 203.811 410.181C204.35 410.771 204.619 411.579 204.619 412.607C204.619 413.638 204.352 414.448 203.816 415.038C203.281 415.628 202.547 415.923 201.613 415.923ZM206.248 415.8V409.419H207.508V411.974H210.414V409.419H211.674V415.8H210.414V413.034H207.508V415.8H206.248ZM218.365 409.419V410.48H216.355V415.8H215.096V410.48H213.086V409.419H218.365ZM223.094 409.314C223.906 409.314 224.551 409.61 225.027 410.204C225.504 410.794 225.742 411.595 225.742 412.607C225.742 413.618 225.504 414.421 225.027 415.015C224.555 415.609 223.914 415.905 223.105 415.905C222.652 415.905 222.254 415.812 221.91 415.624C221.566 415.433 221.311 415.169 221.143 414.833H221.043V417.921H219.783V409.419H220.996V410.474H221.09C221.281 410.11 221.555 409.827 221.91 409.624C222.266 409.417 222.66 409.314 223.094 409.314ZM222.736 414.775C223.271 414.775 223.689 414.583 223.99 414.2C224.295 413.814 224.447 413.282 224.447 412.607C224.447 411.931 224.295 411.401 223.99 411.019C223.689 410.636 223.273 410.444 222.742 410.444C222.211 410.444 221.791 410.64 221.482 411.03C221.174 411.417 221.02 411.944 221.02 412.612C221.02 413.276 221.174 413.804 221.482 414.194C221.791 414.581 222.209 414.775 222.736 414.775ZM229.469 414.845C229.941 414.845 230.334 414.712 230.646 414.446C230.963 414.181 231.121 413.849 231.121 413.45V412.917L229.562 413.017C229.125 413.044 228.803 413.134 228.596 413.286C228.389 413.439 228.285 413.655 228.285 413.937C228.285 414.218 228.395 414.441 228.613 414.605C228.832 414.765 229.117 414.845 229.469 414.845ZM229.146 415.905C228.521 415.905 228.01 415.732 227.611 415.384C227.217 415.032 227.02 414.569 227.02 413.995C227.02 413.425 227.225 412.978 227.635 412.653C228.045 412.325 228.631 412.138 229.393 412.091L231.121 411.991V411.441C231.121 411.101 231.01 410.841 230.787 410.661C230.564 410.478 230.24 410.386 229.814 410.386C229.463 410.386 229.17 410.448 228.936 410.573C228.705 410.694 228.555 410.868 228.484 411.095H227.266C227.328 410.548 227.596 410.112 228.068 409.788C228.545 409.46 229.146 409.296 229.873 409.296C230.67 409.296 231.285 409.485 231.719 409.864C232.156 410.239 232.375 410.765 232.375 411.441V415.8H231.162V414.903H231.062C230.871 415.224 230.607 415.472 230.271 415.648C229.939 415.819 229.564 415.905 229.146 415.905ZM239.688 411.505H238.463C238.385 411.181 238.215 410.919 237.953 410.72C237.695 410.521 237.363 410.421 236.957 410.421C236.43 410.421 236.014 410.612 235.709 410.995C235.408 411.378 235.258 411.909 235.258 412.589C235.258 413.276 235.408 413.818 235.709 414.212C236.014 414.603 236.43 414.798 236.957 414.798C237.359 414.798 237.689 414.708 237.947 414.528C238.209 414.349 238.381 414.089 238.463 413.749H239.688C239.605 414.405 239.324 414.933 238.844 415.331C238.363 415.726 237.736 415.923 236.963 415.923C236.033 415.923 235.301 415.628 234.766 415.038C234.234 414.444 233.969 413.628 233.969 412.589C233.969 411.566 234.234 410.761 234.766 410.175C235.297 409.589 236.027 409.296 236.957 409.296C237.734 409.296 238.361 409.499 238.838 409.905C239.318 410.312 239.602 410.845 239.688 411.505ZM245.729 409.419V410.48H243.719V415.8H242.459V410.48H240.449V409.419H245.729ZM247.146 415.8V409.419H248.406V411.974H251.312V409.419H252.572V415.8H251.312V413.034H248.406V415.8H247.146ZM256.598 414.845C257.07 414.845 257.463 414.712 257.775 414.446C258.092 414.181 258.25 413.849 258.25 413.45V412.917L256.691 413.017C256.254 413.044 255.932 413.134 255.725 413.286C255.518 413.439 255.414 413.655 255.414 413.937C255.414 414.218 255.523 414.441 255.742 414.605C255.961 414.765 256.246 414.845 256.598 414.845ZM256.275 415.905C255.65 415.905 255.139 415.732 254.74 415.384C254.346 415.032 254.148 414.569 254.148 413.995C254.148 413.425 254.354 412.978 254.764 412.653C255.174 412.325 255.76 412.138 256.521 412.091L258.25 411.991V411.441C258.25 411.101 258.139 410.841 257.916 410.661C257.693 410.478 257.369 410.386 256.943 410.386C256.592 410.386 256.299 410.448 256.064 410.573C255.834 410.694 255.684 410.868 255.613 411.095H254.395C254.457 410.548 254.725 410.112 255.197 409.788C255.674 409.46 256.275 409.296 257.002 409.296C257.799 409.296 258.414 409.485 258.848 409.864C259.285 410.239 259.504 410.765 259.504 411.441V415.8H258.291V414.903H258.191C258 415.224 257.736 415.472 257.4 415.648C257.068 415.819 256.693 415.905 256.275 415.905ZM263.717 412.601H264.859V410.48H263.717C263.334 410.48 263.029 410.577 262.803 410.773C262.58 410.968 262.469 411.234 262.469 411.569C262.469 411.874 262.582 412.122 262.809 412.314C263.039 412.505 263.342 412.601 263.717 412.601ZM264.859 415.8V413.614H263.91L262.363 415.8H260.898L262.639 413.386C262.197 413.261 261.85 413.038 261.596 412.718C261.346 412.394 261.221 412.013 261.221 411.575C261.221 410.915 261.441 410.392 261.883 410.005C262.324 409.614 262.914 409.419 263.652 409.419H266.102V415.8H264.859Z" fill="#878787"/>
<rect x="42.5" y="404.3" width="15" height="15" rx="3.5" fill="white" stroke="#E5E5E5"/>
<g filter="url(#filter2_d)">
<rect x="46.8" y="408.6" width="6.4" height="6.4" rx="2" fill="url(#paint3_linear)"/>
</g>
<rect x="166.5" y="404.3" width="15" height="15" rx="3.5" fill="white" stroke="#E5E5E5"/>
<path d="M71.5371 459.819V456.145H72.8379V459.819H73.0957L76.1777 456.145H77.7012L74.1797 460.252L78.0059 464.6H76.3711L73.1016 460.879H72.8379V464.6H71.5371V460.879H71.2734L67.998 464.6H66.3867L70.1895 460.281L66.6562 456.145H68.1914L71.2734 459.819H71.5371ZM82.8047 459.619C82.5234 459.319 82.1504 459.168 81.6855 459.168C81.2207 459.168 80.8379 459.319 80.5371 459.619C80.2363 459.92 80.0684 460.321 80.0332 460.821H83.2559C83.2402 460.317 83.0898 459.916 82.8047 459.619ZM83.25 462.877H84.4629C84.3184 463.451 84.002 463.903 83.5137 464.231C83.0293 464.559 82.4238 464.723 81.6973 464.723C80.7832 464.723 80.0625 464.43 79.5352 463.844C79.0117 463.254 78.75 462.449 78.75 461.43C78.75 460.41 79.0156 459.6 79.5469 458.998C80.0781 458.397 80.793 458.096 81.6914 458.096C82.5781 458.096 83.2734 458.381 83.7773 458.951C84.2852 459.522 84.5391 460.309 84.5391 461.313V461.752H80.0332V461.823C80.0527 462.385 80.2148 462.83 80.5195 463.158C80.8242 463.487 81.2285 463.651 81.7324 463.651C82.502 463.651 83.0078 463.393 83.25 462.877ZM86.1621 464.6V458.219H87.4219V460.774H90.3281V458.219H91.5879V464.6H90.3281V461.834H87.4219V464.6H86.1621ZM102.674 466.27H101.508V464.6H93.5215V458.219H94.7812V463.539H96.9785V458.219H98.2383V463.539H100.436V458.219H101.695V463.539H102.674V466.27ZM105.199 464.6H103.951V458.219H105.199V462.608H105.299L108.211 458.219H109.459V464.6H108.211V460.188H108.111L105.199 464.6ZM111.404 464.6V458.219H112.664V460.774H115.57V458.219H116.83V464.6H115.57V461.834H112.664V464.6H111.404ZM120.855 463.645C121.328 463.645 121.721 463.512 122.033 463.246C122.35 462.981 122.508 462.649 122.508 462.25V461.717L120.949 461.817C120.512 461.844 120.189 461.934 119.982 462.086C119.775 462.239 119.672 462.455 119.672 462.737C119.672 463.018 119.781 463.24 120 463.405C120.219 463.565 120.504 463.645 120.855 463.645ZM120.533 464.705C119.908 464.705 119.396 464.531 118.998 464.184C118.604 463.832 118.406 463.369 118.406 462.795C118.406 462.225 118.611 461.778 119.021 461.453C119.432 461.125 120.018 460.938 120.779 460.891L122.508 460.791V460.24C122.508 459.901 122.396 459.641 122.174 459.461C121.951 459.278 121.627 459.186 121.201 459.186C120.85 459.186 120.557 459.248 120.322 459.373C120.092 459.494 119.941 459.668 119.871 459.895H118.652C118.715 459.348 118.982 458.912 119.455 458.588C119.932 458.26 120.533 458.096 121.26 458.096C122.057 458.096 122.672 458.285 123.105 458.664C123.543 459.039 123.762 459.565 123.762 460.24V464.6H122.549V463.703H122.449C122.258 464.024 121.994 464.272 121.658 464.448C121.326 464.619 120.951 464.705 120.533 464.705Z" fill="#878787"/>
<path d="M192.338 464.6H191.119V456.145H192.654L195.344 462.567H195.443L198.139 456.145H199.674V464.6H198.455V458.494H198.373L195.895 464.354H194.898L192.42 458.494H192.338V464.6ZM202.398 466.914C202.18 466.914 202.006 466.905 201.877 466.885V465.801C201.967 465.817 202.104 465.824 202.287 465.824C202.588 465.824 202.828 465.756 203.008 465.619C203.188 465.483 203.332 465.254 203.441 464.934L203.535 464.623L201.227 458.219H202.598L204.197 463.287H204.297L205.891 458.219H207.227L204.848 464.864C204.574 465.637 204.26 466.172 203.904 466.469C203.553 466.766 203.051 466.914 202.398 466.914ZM207.906 464.6L210.543 461.196L208.006 458.219H209.477L211.557 460.832H211.879V458.219H213.104V460.832H213.426L215.506 458.219H216.959L214.439 461.178L217.094 464.6H215.559L213.432 461.787H213.104V464.6H211.879V461.787H211.551L209.424 464.6H207.906ZM223.252 464.6H221.992V461.799H221.898C221.453 462.229 220.893 462.444 220.217 462.444C219.537 462.444 219 462.235 218.605 461.817C218.215 461.395 218.02 460.83 218.02 460.123V458.219H219.279V460.012C219.279 460.41 219.383 460.725 219.59 460.955C219.797 461.182 220.086 461.295 220.457 461.295C220.672 461.295 220.871 461.27 221.055 461.219C221.242 461.164 221.396 461.096 221.518 461.014C221.639 460.932 221.736 460.856 221.811 460.785C221.885 460.711 221.945 460.639 221.992 460.569V458.219H223.252V464.6ZM226.445 464.6H225.197V458.219H226.445V462.608H226.545L229.457 458.219H230.705V464.6H229.457V460.188H229.357L226.445 464.6ZM232.65 464.6V458.219H233.91V460.774H236.816V458.219H238.076V464.6H236.816V461.834H233.91V464.6H232.65ZM242.102 463.645C242.574 463.645 242.967 463.512 243.279 463.246C243.596 462.981 243.754 462.649 243.754 462.25V461.717L242.195 461.817C241.758 461.844 241.436 461.934 241.229 462.086C241.021 462.239 240.918 462.455 240.918 462.737C240.918 463.018 241.027 463.24 241.246 463.405C241.465 463.565 241.75 463.645 242.102 463.645ZM241.779 464.705C241.154 464.705 240.643 464.531 240.244 464.184C239.85 463.832 239.652 463.369 239.652 462.795C239.652 462.225 239.857 461.778 240.268 461.453C240.678 461.125 241.264 460.938 242.025 460.891L243.754 460.791V460.24C243.754 459.901 243.643 459.641 243.42 459.461C243.197 459.278 242.873 459.186 242.447 459.186C242.096 459.186 241.803 459.248 241.568 459.373C241.338 459.494 241.188 459.668 241.117 459.895H239.898C239.961 459.348 240.229 458.912 240.701 458.588C241.178 458.26 241.779 458.096 242.506 458.096C243.303 458.096 243.918 458.285 244.352 458.664C244.789 459.039 245.008 459.565 245.008 460.24V464.6H243.795V463.703H243.695C243.504 464.024 243.24 464.272 242.904 464.448C242.572 464.619 242.197 464.705 241.779 464.705Z" fill="black"/>
<rect x="42.5" y="453.1" width="15" height="15" rx="3.5" fill="white" stroke="#E5E5E5"/>
<rect x="166.5" y="453.1" width="15" height="15" rx="3.5" fill="white" stroke="#E5E5E5"/>
<g filter="url(#filter3_d)">
<rect x="171" y="457.4" width="6.4" height="6.4" rx="2" fill="url(#paint4_linear)"/>
</g>
<rect x="42" y="435.8" width="236" height="0.8" fill="#F0F0F0"/>
<path fill-rule="evenodd" clip-rule="evenodd" d="M0 580H320V660H0V580Z" fill="white"/>
<path d="M247 580H309V620H247V580Z" fill="white"/>
<path d="M272.091 604.554C272.609 603.305 273.524 602.619 274.953 602.648C275.872 602.666 277.034 603.24 277.492 604.554C277.567 604.554 277.649 604.554 277.728 604.554C280.214 604.554 282.701 604.554 285.187 604.554C285.57 604.554 285.904 604.805 285.979 605.146C286.057 605.502 285.881 605.868 285.536 606.008C285.397 606.065 285.232 606.087 285.082 606.087C282.622 606.09 280.158 606.09 277.698 606.087C277.533 606.087 277.465 606.13 277.405 606.281C276.989 607.336 275.954 608.004 274.761 608C273.625 607.996 272.586 607.307 272.181 606.273C272.125 606.13 272.058 606.083 271.904 606.087C271.536 606.098 271.165 606.098 270.797 606.087C270.366 606.076 270.032 605.778 270.002 605.398C269.972 604.981 270.235 604.626 270.655 604.565C270.861 604.536 271.079 604.554 271.292 604.551C271.562 604.554 271.829 604.554 272.091 604.554ZM274.803 606.464C275.47 606.464 276.01 605.943 276.003 605.315C275.995 604.691 275.455 604.177 274.806 604.17C274.143 604.167 273.606 604.68 273.606 605.319C273.603 605.961 274.128 606.464 274.803 606.464Z" fill="#999AAB"/>
<path d="M277.49 595.368C277.333 595.834 277.078 596.236 276.703 596.567C275.255 597.855 272.892 597.331 272.191 595.565C272.131 595.411 272.06 595.357 271.887 595.364C271.538 595.378 271.186 595.368 270.837 595.368C270.365 595.368 270.012 595.052 270.005 594.625C269.997 594.18 270.331 593.846 270.811 593.835C271.193 593.828 271.572 593.828 271.955 593.835C272.071 593.839 272.127 593.806 272.172 593.695C272.63 592.557 273.849 591.864 275.112 592.022C276.238 592.162 277.033 592.711 277.445 593.734C277.494 593.857 277.58 593.835 277.67 593.835C279.988 593.835 282.306 593.835 284.627 593.835C284.822 593.835 285.013 593.828 285.208 593.839C285.685 593.86 286.015 594.197 286 594.643C285.985 595.063 285.636 595.371 285.171 595.375C282.688 595.375 280.209 595.375 277.726 595.375C277.651 595.368 277.576 595.368 277.49 595.368ZM273.609 594.603C273.609 595.242 274.149 595.759 274.809 595.752C275.461 595.745 276.001 595.228 276.005 594.607C276.009 593.996 275.491 593.537 274.805 593.533C274.111 593.537 273.609 593.986 273.609 594.603Z" fill="#999AAB"/>
<path d="M274.559 599.201C275.796 599.201 277.034 599.198 278.271 599.205C278.444 599.205 278.526 599.162 278.594 599C279.006 597.963 280.053 597.274 281.2 597.277C282.37 597.281 283.417 597.977 283.822 599.032C283.874 599.172 283.946 599.208 284.092 599.205C284.456 599.194 284.816 599.198 285.179 599.201C285.66 599.208 285.997 599.521 285.997 599.959C286.001 600.404 285.66 600.719 285.172 600.727C284.797 600.73 284.422 600.73 284.047 600.727C283.942 600.727 283.886 600.745 283.841 600.852C283.391 601.947 282.55 602.568 281.324 602.64C280.147 602.712 279.018 602.037 278.575 600.888C278.523 600.755 278.459 600.723 278.324 600.723C275.837 600.727 273.351 600.727 270.861 600.727C270.354 600.727 270.006 600.418 270.006 599.969C270.002 599.531 270.339 599.205 270.812 599.201C271.592 599.198 272.376 599.201 273.156 599.201C273.621 599.201 274.09 599.201 274.559 599.201ZM282.393 599.969C282.397 599.33 281.864 598.813 281.2 598.813C280.54 598.813 279.993 599.338 279.997 599.966C280 600.587 280.54 601.107 281.189 601.111C281.853 601.114 282.389 600.605 282.393 599.969Z" fill="#999AAB"/>
<path fill-rule="evenodd" clip-rule="evenodd" d="M188 580H247V620H188V580Z" fill="white"/>
<path d="M214.716 597.273C214.413 597.343 214.128 597.396 213.851 597.479C212.71 597.817 211.982 598.555 211.723 599.676C211.472 600.777 211.812 601.725 212.668 602.487C213.004 602.788 213.025 602.871 212.779 603.254C212.655 603.448 212.536 603.642 212.408 603.831C212.268 604.033 212.085 604.062 211.88 603.918C209.73 602.409 209.364 599.342 211.093 597.384C211.586 596.823 212.17 596.395 212.876 596.118C213.013 596.065 213.072 595.991 213.094 595.855C213.43 593.653 215.375 592.017 217.674 592C219.986 591.984 221.919 593.55 222.323 595.776C222.345 595.9 222.4 595.962 222.506 596.019C224.086 596.881 224.924 598.196 224.997 599.948C225.086 602.174 223.264 604.227 220.982 604.499C220.578 604.549 220.471 604.458 220.463 604.066C220.459 603.852 220.446 603.642 220.433 603.427C220.42 603.097 220.51 602.986 220.842 602.912C222.144 602.632 222.975 601.877 223.281 600.616C223.613 599.239 222.783 597.776 221.408 597.281C221.204 597.207 220.923 597.19 220.808 597.05C220.697 596.914 220.761 596.646 220.744 596.44C220.646 594.985 219.705 593.925 218.262 593.637C216.614 593.307 214.903 594.498 214.72 596.114C214.682 596.489 214.716 596.873 214.716 597.273Z" fill="#999AAB"/>
<path d="M216.802 600.629C216.934 600.324 217.057 600.036 217.181 599.747C217.487 599.026 217.794 598.304 218.1 597.579C218.228 597.278 218.39 597.212 218.701 597.335C218.922 597.426 219.143 597.513 219.365 597.603C219.688 597.735 219.748 597.871 219.616 598.176C219.079 599.438 218.543 600.699 218.015 601.961C217.951 602.113 217.917 602.291 217.917 602.455C217.909 604.15 217.913 605.848 217.913 607.542C217.913 607.909 217.815 608 217.432 608C217.189 608 216.951 608 216.708 608C216.389 607.996 216.278 607.893 216.278 607.575C216.278 605.922 216.274 604.265 216.282 602.612C216.282 602.431 216.227 602.307 216.095 602.183C215.508 601.647 214.929 601.099 214.35 600.555C214.099 600.32 214.09 600.168 214.328 599.928C214.511 599.743 214.69 599.562 214.873 599.38C215.065 599.195 215.252 599.191 215.448 599.372C215.861 599.755 216.274 600.147 216.687 600.53C216.721 600.563 216.755 600.588 216.802 600.629Z" fill="#999AAB"/>
<path fill-rule="evenodd" clip-rule="evenodd" d="M129 580H188V620H129V580Z" fill="white"/>
<path d="M152 599.981C152 598.116 152 596.25 152 594.388C152 593.457 152.397 592.74 153.246 592.274C153.603 592.08 153.996 592.003 154.402 592C157.683 592 160.964 592 164.246 592C164.556 592 164.784 592.131 164.926 592.395C165.065 592.654 164.996 592.883 164.821 593.103C164.246 593.833 164.272 594.8 164.857 595.523C164.933 595.619 164.976 595.766 164.976 595.89C164.982 598.859 164.982 601.83 164.982 604.799C164.982 605.605 164.982 606.415 164.982 607.222C164.982 607.735 164.715 608 164.186 608C160.945 608 157.7 608 154.458 608C153.216 608 152.264 607.241 152.033 606.068C152.007 605.927 152.003 605.784 152.003 605.64C152 603.753 152 601.868 152 599.981ZM153.378 596.343C153.378 596.435 153.378 596.499 153.378 596.563C153.378 597.743 153.378 598.922 153.378 600.102C153.378 601.926 153.378 603.747 153.378 605.57C153.378 606.173 153.807 606.6 154.409 606.6C157.416 606.6 160.423 606.6 163.429 606.6C163.482 606.6 163.535 606.594 163.601 606.591C163.601 606.517 163.601 606.454 163.601 606.39C163.601 603.185 163.601 599.981 163.601 596.776C163.601 596.509 163.634 596.534 163.357 596.534C160.796 596.534 158.235 596.544 155.674 596.531C154.921 596.528 154.148 596.642 153.378 596.343ZM163.149 593.279C163.112 593.275 163.096 593.269 163.082 593.269C160.175 593.269 157.267 593.266 154.359 593.272C153.695 593.275 153.232 593.904 153.427 594.519C153.563 594.943 153.943 595.201 154.462 595.204C157.303 595.208 160.145 595.204 162.987 595.204C163.036 595.204 163.082 595.201 163.149 595.195C162.95 594.554 162.944 593.923 163.149 593.279Z" fill="#999AAB"/>
<path d="M158.48 602.034C158.965 602.034 159.448 602.031 159.934 602.034C160.353 602.037 160.667 602.318 160.67 602.691C160.674 603.067 160.366 603.364 159.947 603.364C158.962 603.37 157.977 603.37 156.99 603.364C156.603 603.361 156.319 603.106 156.282 602.758C156.246 602.442 156.471 602.136 156.798 602.053C156.867 602.037 156.94 602.034 157.009 602.034C157.502 602.034 157.991 602.037 158.48 602.034C158.48 602.034 158.48 602.037 158.48 602.034Z" fill="#999AAB"/>
<path d="M158.473 600.896C157.961 600.896 157.449 600.903 156.936 600.893C156.599 600.887 156.325 600.635 156.279 600.309C156.239 600.003 156.451 599.688 156.765 599.598C156.831 599.579 156.907 599.57 156.976 599.57C157.971 599.566 158.969 599.56 159.963 599.573C160.449 599.579 160.76 599.99 160.634 600.421C160.551 600.698 160.297 600.896 159.986 600.899C159.487 600.899 158.982 600.896 158.473 600.896Z" fill="#999AAB"/>
<path fill-rule="evenodd" clip-rule="evenodd" d="M70 580H129V620H70V580Z" fill="white"/>
<path d="M101.487 595.261H95.2637V596.601H101.487V595.261Z" fill="#999AAB"/>
<path d="M98.2322 598.508H95.2605V599.858H98.2322V598.508Z" fill="#999AAB"/>
<path d="M97.4195 601.756H95.2637V603.099H97.4195V601.756Z" fill="#999AAB"/>
<path d="M103.379 603.972L103.366 603.036C103.366 603.036 102.674 603.798 102.512 603.96C102.277 604.195 102.036 604.436 101.801 604.674C101.75 604.725 101.706 604.744 101.63 604.744C101.63 604.744 101.63 604.744 101.626 604.744C100.842 604.741 100.048 604.741 99.277 604.741H98.5054V603.979C98.5054 603.204 98.5054 602.401 98.5023 601.61C98.5023 601.534 98.5213 601.486 98.5816 601.426C100.28 599.737 101.798 598.216 103.23 596.781C103.296 596.715 103.376 596.591 103.376 596.467C103.382 595.823 103.385 595.143 103.379 594.321C103.376 593.727 103.001 593.359 102.407 593.359C99.7246 593.359 97.0418 593.359 94.3622 593.359C93.7399 593.359 93.3684 593.73 93.3684 594.349C93.3684 598.115 93.3684 601.883 93.3684 605.649C93.3684 606.252 93.743 606.626 94.3431 606.626C96.2544 606.626 98.1626 606.626 100.074 606.626C100.845 606.626 101.617 606.626 102.388 606.626C103.017 606.626 103.379 606.265 103.382 605.636C103.382 605.083 103.379 604.518 103.379 603.972ZM107.884 596.854C108.151 597.715 107.957 598.493 107.3 599.166C106.646 599.835 105.97 600.505 105.316 601.153C105.182 601.286 105.046 601.42 104.912 601.553C104.792 601.674 104.738 601.798 104.741 601.963C104.744 602.613 104.744 603.274 104.744 603.912C104.744 604.439 104.744 604.982 104.747 605.515C104.747 606.033 104.674 606.407 104.506 606.734C104.077 607.557 103.408 607.976 102.512 607.985C100.083 608.004 97.4514 608.004 94.2288 607.988C92.9842 607.982 92.0063 606.976 92.0032 605.703C92 604.649 92 603.579 92 602.544C92 602.09 92 601.636 92 601.182C92 600.512 92 599.845 92 599.175C92 597.581 92 595.93 92 594.308C92 593.175 92.7461 592.264 93.8573 592.044C93.997 592.016 94.1526 592.003 94.3209 592.003C96.0226 592.003 97.6355 592 99.1881 592C100.296 592 101.372 592 102.43 592C103.696 592 104.665 592.918 104.735 594.181C104.747 594.387 104.744 594.6 104.744 594.807C104.744 594.902 104.744 595 104.744 595.095C104.744 595.134 104.744 595.172 104.744 595.21V595.416L104.89 595.394C104.954 595.384 105.017 595.375 105.078 595.365C105.198 595.346 105.313 595.327 105.424 595.318C106.56 595.219 107.573 595.851 107.884 596.854ZM106.328 598.235C106.725 597.839 106.735 597.286 106.351 596.896C106.17 596.711 105.938 596.61 105.693 596.61H105.69C105.446 596.61 105.208 596.711 105.024 596.899C103.223 598.696 101.464 600.455 99.9818 601.94C99.9405 601.982 99.8738 602.064 99.8707 602.159C99.8707 602.163 99.8707 602.166 99.8707 602.172H99.8675V603.394H100.772V603.391C101.163 603.372 101.433 603.156 101.645 602.937C102.734 601.826 103.855 600.705 104.941 599.626C105.405 599.162 105.868 598.699 106.328 598.235Z" fill="#999AAB"/>
<path d="M11 580H70V620H11V580Z" fill="white"/>
<path d="M35.494 599.9C35.3717 600 35.2901 600.064 35.2085 600.127C34.8641 600.404 34.4155 600.363 34.1617 600.036C33.9034 599.705 33.9577 599.269 34.3022 598.991C35.2176 598.255 36.1376 597.519 37.0575 596.783C38.5395 595.598 40.0168 594.412 41.4988 593.226C41.8658 592.931 42.174 592.922 42.5411 593.217C44.9248 595.125 47.3041 597.033 49.6833 598.946C50.0413 599.237 50.1002 599.682 49.8374 600.005C49.5655 600.336 49.144 600.363 48.7724 600.077C48.7089 600.027 48.6455 599.982 48.5503 599.914C48.5503 600.032 48.5503 600.114 48.5503 600.191C48.5503 602.394 48.5503 604.598 48.5503 606.801C48.5503 608.037 47.5896 609 46.3524 609C43.4746 609 40.5969 609 37.7192 609C36.4593 609 35.5031 608.041 35.5031 606.774C35.4986 604.584 35.5031 602.399 35.5031 600.209C35.494 600.118 35.494 600.036 35.494 599.9ZM42.0199 594.666C41.961 594.712 41.9157 594.739 41.8749 594.771C40.2706 596.066 38.6618 597.356 37.0575 598.655C36.9941 598.705 36.9442 598.814 36.9442 598.901C36.9397 601.536 36.9397 604.171 36.9397 606.806C36.9397 607.228 37.2479 607.533 37.6693 607.542C37.9095 607.546 38.1542 607.542 38.3944 607.542C38.6346 607.542 38.8703 607.542 39.115 607.542C39.115 606.288 39.1105 605.07 39.115 603.848C39.1195 602.849 39.8854 601.913 40.8734 601.781C41.4761 601.699 42.0924 601.731 42.7042 601.726C43.9686 601.722 44.9158 602.685 44.9158 603.953C44.9158 605.066 44.9158 606.179 44.9158 607.292C44.9158 607.369 44.9158 607.451 44.9158 607.537C45.3962 607.537 45.8403 607.537 46.2889 607.537C46.7965 607.537 47.0911 607.242 47.0911 606.737C47.0911 604.134 47.0911 601.531 47.0956 598.923C47.0956 598.787 47.0548 598.705 46.9461 598.623C46.2119 598.042 45.4868 597.451 44.7526 596.865C43.8508 596.138 42.9444 595.407 42.0199 594.666ZM43.4656 607.528C43.4656 606.297 43.4701 605.093 43.4611 603.893C43.4611 603.489 43.1438 603.185 42.7314 603.18C42.2782 603.176 41.8251 603.176 41.3719 603.18C40.8507 603.18 40.5607 603.475 40.5607 603.998C40.5607 605.102 40.5607 606.206 40.5607 607.314C40.5607 607.387 40.5652 607.46 40.5697 607.533C41.5441 607.528 42.4958 607.528 43.4656 607.528Z" fill="#999AAB"/>
<path fill-rule="evenodd" clip-rule="evenodd" d="M0 580H320V581H0V580Z" fill="#E8E8E8"/>
</g>
<path fill-rule="evenodd" clip-rule="evenodd" d="M273.484 0C247.794 0 46.5163 0 46.5163 0C20.8261 0 0 20.5007 0 45.7895V614.211C0 639.499 20.8261 660 46.5163 660H273.484C299.174 660 320 639.499 320 614.211V45.7895C320 20.5007 299.174 0 273.484 0ZM9.62406 45.7895C9.62406 25.7329 26.1412 9.47368 46.5163 9.47368H64.8417C74.5865 9.47368 74.5865 13.4022 74.5865 20C74.5865 29.6547 82.5373 33.5526 92.3451 33.5526H226.853C236.661 33.5526 244.612 29.6547 244.612 20C244.612 13.4022 244.612 10 255 10H273.484C293.859 10 310.376 25.7329 310.376 45.7895V614.211C310.376 634.267 293.859 650.526 273.484 650.526H46.5163C26.1412 650.526 9.62406 634.267 9.62406 614.211V45.7895Z" fill="url(#paint5_linear)"/>
<rect x="130" y="14" width="40" height="5" rx="2.5" fill="#DCE0E3"/>
<circle cx="185.5" cy="16.5" r="4.5" fill="#DCE0E3"/>
<g opacity="0.6" filter="url(#filter4_f)">
<path fill-rule="evenodd" clip-rule="evenodd" d="M272.693 4.57385C295.741 4.57385 314.425 23.2467 314.425 46.2809V609.719C314.425 632.753 295.741 651.426 272.693 651.426H216V653H272.693C296.611 653 316 633.623 316 609.719V46.2809C316 22.3775 296.611 3 272.693 3H251.331V4.57385H272.693Z" fill="url(#paint6_linear)"/>
</g>
<g opacity="0.9" filter="url(#filter5_f)">
<path fill-rule="evenodd" clip-rule="evenodd" d="M48.9297 6.57385C25.5503 6.57385 6.59744 25.2467 6.59744 48.2809V611.719C6.59744 634.753 25.5502 653.426 48.9297 653.426H255V655H48.9297C24.668 655 5 635.623 5 611.719V48.2809C5 24.3775 24.668 5 48.9297 5H70.5991V6.57385H48.9297Z" fill="url(#paint7_linear)"/>
</g>
<defs>
<filter id="filter0_d" x="37" y="510" width="246" height="46" filterUnits="userSpaceOnUse" color-interpolation-filters="sRGB">
<feFlood flood-opacity="0" result="BackgroundImageFix"/>
<feColorMatrix in="SourceAlpha" type="matrix" values="0 0 0 0 0 0 0 0 0 0 0 0 0 0 0 0 0 0 127 0"/>
<feOffset dy="3"/>
<feGaussianBlur stdDeviation="2.5"/>
<feColorMatrix type="matrix" values="0 0 0 0 1 0 0 0 0 0.419608 0 0 0 0 0 0 0 0 0.3 0"/>
<feBlend mode="normal" in2="BackgroundImageFix" result="effect1_dropShadow"/>
<feBlend mode="normal" in="SourceGraphic" in2="effect1_dropShadow" result="shape"/>
</filter>
<filter id="filter1_d" x="37" y="267.8" width="46" height="46" filterUnits="userSpaceOnUse" color-interpolation-filters="sRGB">
<feFlood flood-opacity="0" result="BackgroundImageFix"/>
<feColorMatrix in="SourceAlpha" type="matrix" values="0 0 0 0 0 0 0 0 0 0 0 0 0 0 0 0 0 0 127 0"/>
<feOffset dy="3"/>
<feGaussianBlur stdDeviation="2.5"/>
<feColorMatrix type="matrix" values="0 0 0 0 1 0 0 0 0 0.419608 0 0 0 0 0 0 0 0 0.3 0"/>
<feBlend mode="normal" in2="BackgroundImageFix" result="effect1_dropShadow"/>
<feBlend mode="normal" in="SourceGraphic" in2="effect1_dropShadow" result="shape"/>
</filter>
<filter id="filter2_d" x="42.8" y="404.6" width="14.4" height="14.4" filterUnits="userSpaceOnUse" color-interpolation-filters="sRGB">
<feFlood flood-opacity="0" result="BackgroundImageFix"/>
<feColorMatrix in="SourceAlpha" type="matrix" values="0 0 0 0 0 0 0 0 0 0 0 0 0 0 0 0 0 0 127 0"/>
<feOffset/>
<feGaussianBlur stdDeviation="2"/>
<feColorMatrix type="matrix" values="0 0 0 0 1 0 0 0 0 0.419608 0 0 0 0 0 0 0 0 0.3 0"/>
<feBlend mode="normal" in2="BackgroundImageFix" result="effect1_dropShadow"/>
<feBlend mode="normal" in="SourceGraphic" in2="effect1_dropShadow" result="shape"/>
</filter>
<filter id="filter3_d" x="167" y="453.4" width="14.4" height="14.4" filterUnits="userSpaceOnUse" color-interpolation-filters="sRGB">
<feFlood flood-opacity="0" result="BackgroundImageFix"/>
<feColorMatrix in="SourceAlpha" type="matrix" values="0 0 0 0 0 0 0 0 0 0 0 0 0 0 0 0 0 0 127 0"/>
<feOffset/>
<feGaussianBlur stdDeviation="2"/>
<feColorMatrix type="matrix" values="0 0 0 0 1 0 0 0 0 0.419608 0 0 0 0 0 0 0 0 0.3 0"/>
<feBlend mode="normal" in2="BackgroundImageFix" result="effect1_dropShadow"/>
<feBlend mode="normal" in="SourceGraphic" in2="effect1_dropShadow" result="shape"/>
</filter>
<filter id="filter4_f" x="215" y="2" width="102" height="652" filterUnits="userSpaceOnUse" color-interpolation-filters="sRGB">
<feFlood flood-opacity="0" result="BackgroundImageFix"/>
<feBlend mode="normal" in="SourceGraphic" in2="BackgroundImageFix" result="shape"/>
<feGaussianBlur stdDeviation="0.5" result="effect1_foregroundBlur"/>
</filter>
<filter id="filter5_f" x="1" y="1" width="258" height="658" filterUnits="userSpaceOnUse" color-interpolation-filters="sRGB">
<feFlood flood-opacity="0" result="BackgroundImageFix"/>
<feBlend mode="normal" in="SourceGraphic" in2="BackgroundImageFix" result="shape"/>
<feGaussianBlur stdDeviation="2" result="effect1_foregroundBlur"/>
</filter>
<linearGradient id="paint0_linear" x1="320" y1="508.421" x2="-247.486" y2="626.812" gradientUnits="userSpaceOnUse">
<stop stop-color="#F3F3F8"/>
<stop offset="0.640115" stop-color="#F4F4F4"/>
</linearGradient>
<linearGradient id="paint1_linear" x1="278" y1="530.4" x2="42" y2="530.4" gradientUnits="userSpaceOnUse">
<stop stop-color="#FF8900"/>
<stop offset="1" stop-color="#FF6B00"/>
</linearGradient>
<linearGradient id="paint2_linear" x1="70.9353" y1="299.232" x2="48.5677" y2="276.865" gradientUnits="userSpaceOnUse">
<stop stop-color="#FF8900"/>
<stop offset="1" stop-color="#FF6B00"/>
</linearGradient>
<linearGradient id="paint3_linear" x1="53.2" y1="411.871" x2="46.8" y2="411.871" gradientUnits="userSpaceOnUse">
<stop stop-color="#FF8900"/>
<stop offset="1" stop-color="#FF6B00"/>
</linearGradient>
<linearGradient id="paint4_linear" x1="177.4" y1="460.671" x2="171" y2="460.671" gradientUnits="userSpaceOnUse">
<stop stop-color="#FF8900"/>
<stop offset="1" stop-color="#FF6B00"/>
</linearGradient>
<linearGradient id="paint5_linear" x1="320" y1="508.421" x2="-247.486" y2="626.812" gradientUnits="userSpaceOnUse">
<stop stop-color="#F3F3F8"/>
<stop offset="0.640115" stop-color="#F4F4F4"/>
</linearGradient>
<linearGradient id="paint6_linear" x1="239.228" y1="87.201" x2="438.62" y2="445.652" gradientUnits="userSpaceOnUse">
<stop stop-color="#E8E9EA"/>
<stop offset="0.546236" stop-color="#B4B7BB"/>
<stop offset="0.978499" stop-color="#B4B7BB" stop-opacity="0"/>
</linearGradient>
<linearGradient id="paint7_linear" x1="110.831" y1="184.025" x2="0.514496" y2="213.124" gradientUnits="userSpaceOnUse">
<stop stop-color="#E8E9EA"/>
<stop offset="1" stop-color="#B4B7BB"/>
</linearGradient>
</defs>
</svg>
