<svg xmlns="http://www.w3.org/2000/svg" viewBox="0 0 180 180"><style><![CDATA[.J{fill:#57585a}.K{fill:#999ba1}.L{fill:#f3a183}]]></style><path d="M55.44 65.14C32 60.62 8.2 77.1 8.1 101.9 8 134.33 46 175.05 113.75 155.6c68.57-19.67 65.34-92.6 49.78-113.67C151.3 25.36 133 21.37 117.6 26.85" fill="#f7bfb2"/><path d="M113.75 155.8c11.6-3.2 20.84-32.14 19.3-45.57-5.28-46.15-87.78-44.16-118.53 16.93C28 150.84 62.25 170 113.75 155.8z" class="L"/><g fill="#fff"><path d="M113.75 155.8c22.9-6.3 37.8-18.32 46.9-32.27-2.46-1.43-7.34-4.2-12.55-7-4.33-2.3-21.5-9.5-21.5-9.5-10.85 20.5-32.68 37.13-42 41.85l-.94-18.74a2.53 2.53 0 0 0-2-2.33 2.22 2.22 0 0 0-.57-.07 2.57 2.57 0 0 0-2.25 1.32c-.1.2-8.86 16.27-14.15 30.34 14.02 2.28 30.42 1.58 49.08-3.6z"/><path d="M123.18 100.56a4.32 4.32 0 0 0-4.64-.91l-1.68.7-.67.44a38.28 38.28 0 0 1-2.63-9.78l-10.84-25.1c-5.23-3.93-13.87 1-15.5 7.25l-3.9.1a3 3 0 0 1-3.11-2.63L77 46.24a3 3 0 0 0-2.52-2.58l-20.38-3.4-1 3.67a31.46 31.46 0 0 0-1.1 9.45l.27 7.4a7.54 7.54 0 0 1-1.41 4.63l-7.18 10a3.59 3.59 0 0 0 1.26 5.29l5.5 2.9 1.52 21.84a8.91 8.91 0 0 0 11.95 7.66l11.2-4c2.4 3.5 4.7 10.63 5.94 14.93l-.85.56S72.3 135 65.53 146.2l8-.8c4-8.46 7.6-15.07 7.6-15.07l1.14 22.58s20.44-8.63 37-24c6.3-5.82 12.15-15.58 13.8-18.68z"/></g><path d="M132.3 111.7l.76-1.45c-13.87 26.2-50.8 42.66-50.8 42.66l-1.14-22.58S69.28 151.93 64.87 167c0 0 20.4 11.06 56.67-3.44 28.2-11.28 39.24-37 39.24-37-1.43-.96-20.3-11.65-28.5-14.87z" fill="#ffb87f"/><path d="M132.3 111.7h-.06c-14.44 25.36-50 41.2-50 41.2l-1.14-22.58s-11.8 21.6-16.22 36.68c0 0 9.75 5.28 27.74 3.76 24.2-15.43 39.83-42.46 39.68-59.07z" fill="#ffad66"/><path d="M57.53 95.7c2.4-1.1 4.3 2.93 1.33 3.62-2.58.6-2.86-2.92-1.33-3.62zm32.15-12.85c-3.14-.75 8.68-13.17 10.62-10s-5.1 11.3-10.62 10zm-14.62 26.22c3.57 5.23 6.94 18.47 6.94 18.47a87.18 87.18 0 0 0 11.26-5.11c5.74-7.43-1.77-20.28-18.2-13.36zm6.56 31.1l.64 12.74s19.54-8.72 35.54-23.56c.37-4.12-17.8 2.38-36.18 10.82zM72 136.2c-2.06 3.06-4.3 6.5-6.42 10l8-.8 7.62-15.1zM43 77.75a3.59 3.59 0 0 0 1.91 2.91l5.5 2.9c5-3.02-5.47-6.64-7.4-5.82zm31.48-34.1l-20.38-3.4-.4 1.38c1.82 9.4 4.82 12.73 23.72 7.9l-.42-3.3a3 3 0 0 0-2.52-2.58z" fill="#fef0e5"/><g class="J"><path d="M60.32 64.44c-.8 0-1.35-.8-1.35-1.94s.55-1.94 1.35-1.94 1.35.8 1.35 1.94-.56 1.94-1.35 1.94zm1.98-11.52a.88.88 0 0 1-.59-.22 5 5 0 0 0-2.87-.42.86.86 0 1 1-.43-1.66 6.35 6.35 0 0 1 4.48.8.87.87 0 0 1 .06 1.22.92.92 0 0 1-.65.28zm-6.86 37.83a.86.86 0 0 1-.35-1.65 25 25 0 0 1 6.71-1.66.88.88 0 0 1 1 .77.85.85 0 0 1-.77.94 22.72 22.72 0 0 0-6.2 1.53.91.91 0 0 1-.39.07zm9.06-2.23a.9.9 0 0 1-.9-.87.83.83 0 0 1 .83-.85h.1a.86.86 0 1 1 0 1.72zm53.7 16.6a.91.91 0 0 1-.7-.34c-3.78-4.87-4.78-13.33-4.82-13.7a.86.86 0 0 1 .77-1 .88.88 0 0 1 1 .76c0 .08 1 8.35 4.47 12.84a.85.85 0 0 1-.16 1.2.89.89 0 0 1-.56.23z"/><path d="M82 128.4a1 1 0 0 1-.41-.1.88.88 0 0 1-.44-.56c0-.13-3.34-13.15-6.78-18.2a.86.86 0 0 1 .24-1.2.88.88 0 0 1 1.21.24c3.1 4.53 5.95 14.66 6.8 17.8 17-6.42 34.3-20.54 36.86-24.68a.88.88 0 0 1 1.2-.29.85.85 0 0 1 .3 1.18c-3.1 5.05-22 19.72-38.67 25.74a.77.77 0 0 1-.3.06zm-16.47 18.67a.87.87 0 0 1-.74-.39.85.85 0 0 1 0-.91c3.72-6.14 7.76-12.06 10.5-15.94a.89.89 0 0 1 1.22-.21.85.85 0 0 1 .22 1.19c-2.5 3.55-6.1 8.8-9.53 14.37l6.23-.62a.86.86 0 1 1 .18 1.71l-8 .8zM89.4 81.4a.93.93 0 0 1-.53-.17.85.85 0 0 1-.17-1.23c2.45-3.22 7-7.55 9.87-8.88a.87.87 0 0 1 1.16.41.84.84 0 0 1-.42 1.14c-2.6 1.2-6.94 5.37-9.2 8.36a.91.91 0 0 1-.7.37z"/><path d="M97.72 78.62a.85.85 0 0 1-.56-.21 5.62 5.62 0 0 0-3.84-1.32.85.85 0 0 1-.89-.83.88.88 0 0 1 .85-.89 7.43 7.43 0 0 1 5 1.73.85.85 0 0 1 .1 1.21.9.9 0 0 1-.66.31zM60.8 114.47a9.83 9.83 0 0 1-5.32-1.57 9.53 9.53 0 0 1-4.43-7.43l-1.18-16.83a.88.88 0 0 1 1.75-.12l1.17 16.84a7.83 7.83 0 0 0 3.64 6.1 8.09 8.09 0 0 0 7.14.8l15.3-5.47a.87.87 0 0 1 1.12.51.86.86 0 0 1-.52 1.1l-15.3 5.48a9.85 9.85 0 0 1-3.37.59zM50.4 84.43a.92.92 0 0 1-.42-.1l-5.5-2.9a4.52 4.52 0 0 1-2.28-2.93 4.45 4.45 0 0 1 .72-3.62l7.18-10a6.62 6.62 0 0 0 1.24-4.1.88.88 0 0 1 1.75-.06 8.39 8.39 0 0 1-1.57 5.16l-7.17 10a2.73 2.73 0 0 0-.45 2.23 2.78 2.78 0 0 0 1.41 1.8l5.5 2.92a.84.84 0 0 1 .36 1.18.87.87 0 0 1-.77.43zm41 5.57a.86.86 0 0 1-.86-.78.85.85 0 0 1 .78-.93 14.82 14.82 0 0 0 13-10.89c1.33-4.54.48-8.9-2.1-10.84a7 7 0 0 0-6.34-.84 11.82 11.82 0 0 0-7.59 7 .87.87 0 0 1-1.11.53.85.85 0 0 1-.54-1.09 13.66 13.66 0 0 1 8.73-8.08 8.74 8.74 0 0 1 7.91 1.12c3.15 2.37 4.25 7.47 2.73 12.7A16.52 16.52 0 0 1 91.5 90z"/></g><path d="M121.45 27.38l-.66-.62s3-12.58-22.72-12.7c-24.9-.13-49.66 6.63-57.72 23.36-3.9 8.08-.35 19.67 11.77 20.37l-.12-4.4a31.46 31.46 0 0 1 1.12-9.45l1-3.67 20.38 3.4a3 3 0 0 1 2.5 2.58l3.2 24.38a3 3 0 0 0 3.11 2.63l3.9-.1c1.63-6.23 10.27-11.18 15.5-7.25 4.53 3.4 4 12.75-1.42 18.53 0 0 1.4 4.5 12.26 6.56l14.2-26.9a30.51 30.51 0 0 0-6.32-36.71z" fill="#6b6d70"/><path d="M108.83 48.42l-34.35-4.76A3 3 0 0 1 77 46.24l3.2 24.38a3 3 0 0 0 3.11 2.63l3.9-.1c1.63-6.23 10.27-11.18 15.5-7.25 4.53 3.4 4 12.75-1.42 18.53 0 0 .67 2.1 4.54 4.08 17-18.42 6.8-38.37 3-40.1zm-65.3 6.2a14.39 14.39 0 0 0 8.59 3.16l-.12-4.4a31.46 31.46 0 0 1 1.12-9.45l1-3.67c-7.85-.7-11.98 6.42-10.6 14.37z" class="J"/><path d="M125.2 42.45c-1.2-4.87-5.2-8.85-10.65-10.74a8.58 8.58 0 0 0-3-4.12 10.6 10.6 0 0 0-6.3-2h-.7a15.55 15.55 0 0 0-3.58-2.4 18.17 18.17 0 0 0-7.6-2.08 25.48 25.48 0 0 0-2.1-.09h-.6a21.18 21.18 0 0 0-15.74 7.3 11.55 11.55 0 0 0-6.48 2.34A8.86 8.86 0 0 0 64.64 37a10.12 10.12 0 0 0-3.51 5.69A8.72 8.72 0 0 0 63.71 51a6.57 6.57 0 0 0 .95.72 1 1 0 0 0 .13.09 6 6 0 0 0 1 .5l.2.1a6.67 6.67 0 0 0 1 .3h.17l.44.07a6.31 6.31 0 0 0 2.4 2.48 9.06 9.06 0 0 0 4.66 1.11 16.58 16.58 0 0 0 2.94-.28 9 9 0 0 0 4 3.91 15.54 15.54 0 0 0 7.1 1.63A14 14 0 0 0 93 61a13.92 13.92 0 0 0 7.92 2.64 13.2 13.2 0 0 0 6.35-1.64 15.23 15.23 0 0 0 5.44 1 11.24 11.24 0 0 0 7.82-3 8.36 8.36 0 0 0 2.71-8 11.09 11.09 0 0 0 1.95-9.55z" fill="#fff"/><path d="M113.2 34l-1.2 3.16c2-5.77-2.82-10.14-9.1-8.7l.53-.28c-4.94-5.45-19-7.4-26.87 2.3l2.1 1.24c-5.38-2.8-12.26 2.36-11.3 6.5a7.63 7.63 0 0 0-3.62 5c-.9 4.3 2.5 7.88 5.76 6.9.94 6.06 10 2.92 10 2.92.45 6 10 7.26 14 5a10.73 10.73 0 0 0 13.66 1s6.6 3.7 11.7-.93a5.57 5.57 0 0 0 1.53-6.71c5.32-5.2 2.18-14.5-7.16-17.4z" class="L"/><g class="J"><path d="M100.9 61.94a12.34 12.34 0 0 1-7.63-2.87 13.76 13.76 0 0 1-10.86-.58 6.82 6.82 0 0 1-3.72-4.39c-1.74.46-5.37 1.13-7.8-.3a4.57 4.57 0 0 1-2.11-2.71 5.11 5.11 0 0 1-3.91-1.38 7.06 7.06 0 0 1-2.05-6.7 9.1 9.1 0 0 1 9.08-6.88c1.57.16 2.55 1 2.55 2.32 0 1.46-.9 2.88-1.85 4.4-1.27 2-2.72 4.3-2.3 7.1a3.12 3.12 0 0 0 1.48 2.36c2.1 1.24 6 .32 7.33-.14a.91.91 0 0 1 .77.09.88.88 0 0 1 .39.66 5.08 5.08 0 0 0 3 4c3.18 1.67 7.6 1.5 9.75.3a.88.88 0 0 1 1.05.15 9.8 9.8 0 0 0 12.55.91.89.89 0 0 1 .92 0c.25.14 6.12 3.33 10.66-.8a4.65 4.65 0 0 0 1.12-6.09c-1-1.55-3.27-2.7-6.57-1.34a.88.88 0 0 1-1.14-.46.86.86 0 0 1 .46-1.13c4.3-1.8 7.38 0 8.72 2a6.38 6.38 0 0 1-1.4 8.28c-4.66 4.25-10.5 2.07-12.22 1.3a11.67 11.67 0 0 1-6.27 1.92zM71.37 37.8c-2.16 0-6.05 1.73-6.84 5.53a5.32 5.32 0 0 0 1.52 5.08 3.44 3.44 0 0 0 2.44.95c-.16-3 1.37-5.48 2.63-7.46.85-1.35 1.6-2.5 1.6-3.48 0-.42-.54-.56-1-.6z"/><path d="M112.74 55.45c-2.48 0-5.1-.84-6.5-2.7-.87-1.14-1.9-3.62.84-7.33 3.17-4.28 6.76-4.53 8.88-3.44s3.5 3.68 2.24 7.23a.87.87 0 0 1-1.65-.56c.92-2.58 0-4.44-1.4-5.14s-4.16-.5-6.65 2.92c-1.1 1.48-2.14 3.6-.86 5.3s4.94 2.54 7.68 1.6a.89.89 0 0 1 1.12.53.87.87 0 0 1-.55 1.1 10 10 0 0 1-3.16.49z"/><path d="M100.16 56.18a8.89 8.89 0 0 1-5.38-1.88.84.84 0 0 1-.15-1.2.86.86 0 0 1 1.22-.1 6.84 6.84 0 0 0 5.87 1.31 5.71 5.71 0 0 0 3.82-3.53.87.87 0 0 1 1.13-.48.84.84 0 0 1 .49 1.11 7.38 7.38 0 0 1-5 4.56 8.05 8.05 0 0 1-2 .21zm-13.46-2.3a5.13 5.13 0 0 1-1.36-.18 3.67 3.67 0 0 1-2.71-2.83c-.34-1.8.65-3.7 2.73-5.28 4.52-3.4 7.3-2.32 10.56.7a4 4 0 0 0 4.35 1 2.31 2.31 0 0 0 1.11-2.59.872.872 0 0 1 1.73-.22 4 4 0 0 1-2 4.34 5.75 5.75 0 0 1-6.34-1.33c-2.88-2.66-4.67-3.33-8.3-.58-1.5 1.14-2.3 2.48-2.07 3.6a1.93 1.93 0 0 0 1.42 1.5c1.67.48 3.84-.47 5.8-2.54a.88.88 0 0 1 1.23-.05.85.85 0 0 1 0 1.22c-1.9 2.1-4.14 3.24-6.15 3.24z"/><path d="M113.64 42.7a.87.87 0 0 1-.87-.81 3.3 3.3 0 0 0-2.08-3.14 6.18 6.18 0 0 0-6.07 1.42.89.89 0 0 1-1.24-.05.85.85 0 0 1 .05-1.21 7.93 7.93 0 0 1 7.92-1.75 5 5 0 0 1 3.16 4.63.86.86 0 0 1-.82.91zm-9.44 2.98c-3 0-4.56-1-5.35-1.86a5.27 5.27 0 0 1-.95-5.65 9.16 9.16 0 0 1 7.8-5.52.86.86 0 1 1 .18 1.71 7.37 7.37 0 0 0-6.34 4.41 3.61 3.61 0 0 0 .57 3.86c1.57 1.62 5 1.76 9.36.4a.89.89 0 0 1 1.1.56.86.86 0 0 1-.57 1.08 19.53 19.53 0 0 1-5.8 1.02z"/><path d="M111.54 39.07a1 1 0 0 1-.37-.08.85.85 0 0 1-.42-1.14c1.4-3 .87-5.87-1.35-7.53-2.57-1.92-7.36-2-12.27 2.07a.88.88 0 0 1-1.23-.1.85.85 0 0 1 .1-1.21c5.65-4.72 11.33-4.47 14.46-2.13 2.9 2.17 3.63 5.86 1.87 9.6a.86.86 0 0 1-.79.51zM93 45a4.3 4.3 0 0 1-1.39-.22 3.76 3.76 0 0 1-2.51-3.11c-.3-2 .67-5.13 4.34-7.8a.88.88 0 0 1 1.22.18.84.84 0 0 1-.19 1.2c-3 2.2-3.87 4.63-3.64 6.15a2 2 0 0 0 1.35 1.74c1.4.48 3.5-.38 5.6-2.3a.87.87 0 0 1 1.23 0 .85.85 0 0 1 0 1.21C96.9 44 94.8 45 93 45zm-16 4.28a.86.86 0 0 1-.8-.93c.28-3.65 4.62-8.45 9.8-9.17a.88.88 0 0 1 1 .73.87.87 0 0 1-.75 1c-4.7.65-8.1 5-8.3 7.6a.88.88 0 0 1-.95.77z"/><path d="M82.9 41.9a.86.86 0 0 1-.86-.73 2.38 2.38 0 0 0-1.84-2.06c-2.07-.57-5.2.57-6.86 2.48a.87.87 0 0 1-1.23.1.85.85 0 0 1-.1-1.21c2.1-2.45 5.92-3.8 8.66-3a4.1 4.1 0 0 1 3.09 3.45.87.87 0 0 1-.72 1zm-15.6-2.83a.88.88 0 0 1-.85-.68c-.5-2.12.67-4.55 3-6.32A9.1 9.1 0 0 1 79 30.94a.85.85 0 0 1 .36 1.16.88.88 0 0 1-1.18.36c-2.78-1.45-5.87-.38-7.67 1s-2.7 3.1-2.36 4.54a.85.85 0 0 1-.66 1 .63.63 0 0 1-.19.07z"/><path d="M84.62 32.56a.86.86 0 0 1-.72-.38.85.85 0 0 1 .23-1.18c4.07-2.73 8.94-3.33 14.47-1.78a.85.85 0 0 1 .6 1.06.87.87 0 0 1-1.08.59c-5.08-1.42-9.33-.9-13 1.55a.88.88 0 0 1-.5.14zm-5.06 5.54a.9.9 0 0 1-.47-.13.85.85 0 0 1-.27-1.18l.58-1a10.51 10.51 0 0 1 1.87-2.45.87.87 0 0 1 1.23 0 .84.84 0 0 1 0 1.21 8.92 8.92 0 0 0-1.61 2.13l-.6 1a.88.88 0 0 1-.72.42zm-3.04-6.78a.88.88 0 0 1-.55-.19.84.84 0 0 1-.13-1.21 19.49 19.49 0 0 1 14.85-7.14c5.33-.14 10.58 1.76 13.36 4.82a.85.85 0 0 1-.07 1.21.89.89 0 0 1-1.24-.06c-2.45-2.7-7.15-4.37-12-4.25A17.74 17.74 0 0 0 77.2 31a.88.88 0 0 1-.68.32zM92.2 37a.78.78 0 0 1-.33-.07 8.3 8.3 0 0 0-5.47-.17.88.88 0 0 1-1.14-.47.84.84 0 0 1 .47-1.12 10 10 0 0 1 6.81.18.84.84 0 0 1 .45 1.07.87.87 0 0 1-.79.58zm28.1 15.28a.86.86 0 0 1-.62-1.47 7.74 7.74 0 0 0 2.13-7.56c-.94-3.85-4.25-7-8.87-8.45a.862.862 0 1 1 .53-1.64c5.2 1.62 9 5.24 10 9.7a9.4 9.4 0 0 1-2.6 9.18.85.85 0 0 1-.57.25z"/></g><path d="M103.4 28.17a15.76 15.76 0 0 0-11.18-4.49c-5.36 0-4.75 6.07-.32 5.57a17.67 17.67 0 0 1 6.87.91 13.86 13.86 0 0 1 4.78-1.85z" class="K"/><path d="M98.76 31a1.26 1.26 0 0 1-.27 0 16.84 16.84 0 0 0-6.5-.87 4 4 0 0 1-3.87-1.55 3.44 3.44 0 0 1-.21-3.58 4.62 4.62 0 0 1 4.3-2.14A16.68 16.68 0 0 1 104 27.55l.15.14a.83.83 0 0 1 .22.87.86.86 0 0 1-.69.59 13.19 13.19 0 0 0-4.44 1.71.87.87 0 0 1-.48.14zm-5.7-2.7a20.4 20.4 0 0 1 5.56.89 16.12 16.12 0 0 1 3.09-1.36 14.6 14.6 0 0 0-9.51-3.31 2.91 2.91 0 0 0-2.75 1.22 1.75 1.75 0 0 0 .1 1.82 2.28 2.28 0 0 0 2.23.81 10.52 10.52 0 0 1 1.28-.05z" class="J"/><path d="M73.58 38.43c0-3-8.6-1.45-9.9 4.74-.9 4.3 2.5 7.88 5.76 6.9-.8-5.25 4.14-8.63 4.14-11.64z" class="K"/><path d="M68.33 51.1a5.19 5.19 0 0 1-3.46-1.4 7.06 7.06 0 0 1-2.05-6.7 9.1 9.1 0 0 1 9.08-6.88c1.57.16 2.55 1 2.55 2.32 0 1.46-.9 2.88-1.85 4.4-1.28 2-2.73 4.3-2.3 7.12a.87.87 0 0 1-.61 1 4.6 4.6 0 0 1-1.37.15zm3-13.3c-2.16 0-6.05 1.73-6.84 5.53a5.32 5.32 0 0 0 1.52 5.08 3.44 3.44 0 0 0 2.44.95c-.16-3 1.37-5.48 2.63-7.46.85-1.35 1.6-2.5 1.6-3.48 0-.42-.54-.56-1-.6z" class="J"/><path d="M109.74 43.84C103.4 46 99 44.43 98.48 41.4c0 0-2.4 2.4-4.82 2.7a9.8 9.8 0 0 0 7 6.29 7.7 7.7 0 0 0 5.54-.64s-.2-2.63 3.57-5.9" class="K"/><path d="M102.57 51.5a8.54 8.54 0 0 1-2.16-.28 10.61 10.61 0 0 1-7.59-6.89.82.82 0 0 1 .11-.7.88.88 0 0 1 .62-.38c2.08-.27 4.3-2.43 4.3-2.46a.91.91 0 0 1 .89-.21.86.86 0 0 1 .59.68 2.8 2.8 0 0 0 1.44 1.92c1.88 1.1 5.13 1 8.67-.15a.89.89 0 0 1 1 .38.86.86 0 0 1-.17 1.08C107 47.4 107 49.7 107 49.7a.87.87 0 0 1-.41.79 8.52 8.52 0 0 1-4.02 1.01zm-7.73-6.8a9.06 9.06 0 0 0 6 4.85 6.87 6.87 0 0 0 4.47-.35 8.14 8.14 0 0 1 1.72-3.78c-2.88.52-5.4.27-7.16-.77a4.74 4.74 0 0 1-1.8-1.78 11 11 0 0 1-3.23 1.83zM64.87 167.84a1 1 0 0 1-.24 0 .87.87 0 0 1-.6-1.07l.66-2.14c1.25-3.84 3-8.33 5.2-13.36a.88.88 0 0 1 1.11-.47.85.85 0 0 1 .45 1.13c-2.18 5-3.9 9.4-5.13 13.2l-.65 2.1a.87.87 0 0 1-.8.62zm17.4-14.08a.93.93 0 0 1-.46-.12.88.88 0 0 1-.42-.7l-1-19.43c-1.43 2.7-3.7 7.16-6.1 12.24a.87.87 0 0 1-1.15.42.86.86 0 0 1-.43-1.14c4-8.38 7.6-15.05 7.63-15.12a.91.91 0 0 1 1-.43.88.88 0 0 1 .68.8l1.06 21.3c4.6-2.2 21.84-10.94 35.6-24.23a.89.89 0 0 1 1.24 0 .85.85 0 0 1 0 1.21c-16.16 15.6-37.06 25-37.26 25.12a.92.92 0 0 1-.37.09zm45-33.76a.86.86 0 0 1-.53-.17.84.84 0 0 1-.16-1.21 61.44 61.44 0 0 0 5.44-8.22l-9.42-9.23a3.41 3.41 0 0 0-3.68-.72l-1.7.7a.88.88 0 0 1-1.14-.47.86.86 0 0 1 .47-1.12l1.7-.7a5.18 5.18 0 0 1 5.58 1.09l9.88 9.68a.84.84 0 0 1 .16 1 62.92 62.92 0 0 1-5.89 9 .87.87 0 0 1-.71.37zm33.53 7.44a.85.85 0 0 1-.5-.16c-1.1-.75-14.84-8.57-24-12.9a.85.85 0 0 1-.41-1.15.89.89 0 0 1 1.16-.4c9.1 4.3 22.86 12.08 24.26 13a.86.86 0 0 1 .22 1.2.88.88 0 0 1-.73.41z" class="J"/><path d="M52.38 61.93c-24.72-4.67-49.8 12.34-49.9 38-.12 33.5 39.9 75.58 111.36 55.5 72.3-20.36 68.88-95.67 52.48-117.42-12.9-17.12-32.17-21.25-48.42-15.6" fill="#f7bfb2"/><path d="M113.85 155.38c12.22-3.43 22-34.6 20.35-49-5.56-49.73-92.53-47.58-124.95 18.17 14.18 25.45 50.3 46.1 104.6 30.83z" class="L"/><g fill="#fff"><path d="M113.85 155.38c24.15-6.8 39.84-19.7 49.44-34.73-2.6-1.55-7.74-4.5-13.23-7.5-4.57-2.5-22.68-10.2-22.68-10.2C115.94 125 92.92 142.9 83.15 148l-1-20.18a2.73 2.73 0 0 0-2.1-2.51 3.07 3.07 0 0 0-.6-.07 2.69 2.69 0 0 0-2.37 1.43c-.1.2-9.35 17.5-14.92 32.65 14.74 2.4 32.02 1.6 51.7-3.94z"/><path d="M123.8 95.9a4.45 4.45 0 0 0-4.88-1l-1.78.74-.7.47a42.12 42.12 0 0 1-2.78-10.53l-11.43-27c-5.5-4.23-14.62 1.1-16.33 7.8l-4.13.1a3.24 3.24 0 0 1-3.28-2.83l-3.36-26.22a3.25 3.25 0 0 0-2.66-2.79L51 31l-1.1 4a34.21 34.21 0 0 0-1.18 10.17l.28 8a8.16 8.16 0 0 1-1.49 5L40 68.8a3.91 3.91 0 0 0 1.33 5.69l5.8 3.14 1.6 23.5a9.41 9.41 0 0 0 12.6 8.24l11.8-4.3c2.53 3.78 4.94 11.44 6.26 16.07l-.9.6S70.17 133 63 145.05l8.4-.86c4.2-9.1 8-16.22 8-16.22l1.2 24.3s21.56-9.3 39-25.8c6.62-6.27 12.8-16.77 14.53-20.1z"/></g><path d="M133.4 107.9l.8-1.56c-14.62 28.2-53.55 45.92-53.55 45.92L79.46 128S67 151.2 62.33 167.4c0 0 21.5 11.9 59.74-3.7 29.7-12.14 41.36-39.8 41.36-39.8-1.5-1.05-21.43-12.55-30.03-16.02z" fill="#ffb87f"/><path d="M133.4 107.9h-.06c-15.22 27.28-52.7 44.35-52.7 44.35L79.46 128S67 151.2 62.33 167.4c0 0 10.27 5.7 29.24 4 25.5-16.54 42-45.63 41.83-63.5z" fill="#ffad66"/><path d="M54.6 90.7c2.54-1.2 4.52 3.15 1.4 3.9-2.72.65-3-3.14-1.4-3.9zm33.88-13.85C85.18 76 97.63 62.67 99.67 66s-5.38 12.25-11.2 10.85zm-15.4 28.22c3.76 5.63 7.3 19.93 7.3 19.93a90.71 90.71 0 0 0 11.87-5.5c6.1-8.06-1.84-21.87-19.16-14.43zM80 138.54l.67 13.7s20.6-9.4 37.47-25.36c.38-4.43-18.8 2.57-38.14 11.65zm-10.2-4.27c-2.18 3.3-4.53 7-6.77 10.78l8.4-.86 8-16.24zm-30.54-62.9a3.86 3.86 0 0 0 2 3.13l5.8 3.14c5.3-3.25-5.73-7.15-7.8-6.27zm33.2-36.7L51 31l-.4 1.48c1.9 10.1 5.07 13.7 25 8.5l-.45-3.53a3.25 3.25 0 0 0-2.69-2.79z" fill="#fef0e5"/><g class="J"><path d="M57.53 57c-.84 0-1.43-.86-1.43-2.1s.6-2.1 1.43-2.1S59 53.72 59 55s-.63 2-1.47 2zm2.07-12.37a.87.87 0 0 1-.62-.24A5.18 5.18 0 0 0 56 44a.92.92 0 0 1-1.12-.66.93.93 0 0 1 .66-1.13 6.61 6.61 0 0 1 4.73.86.94.94 0 0 1 .06 1.31.91.91 0 0 1-.72.25zm-7.22 40.73a.92.92 0 0 1-.84-.56.93.93 0 0 1 .46-1.22 25.53 25.53 0 0 1 7.07-1.79.94.94 0 0 1 1 .83.93.93 0 0 1-.82 1 23.56 23.56 0 0 0-6.54 1.65 1 1 0 0 1-.33.09zM61.94 83a1 1 0 0 1-.94-1 .88.88 0 0 1 .87-.92H62a.93.93 0 0 1 0 1.85zm56.6 17.82a.94.94 0 0 1-.73-.36c-4-5.25-5-14.36-5.08-14.74a.91.91 0 0 1 .81-1 .92.92 0 0 1 1 .81c0 .1 1 9 4.7 13.82a.92.92 0 0 1-.17 1.3.88.88 0 0 1-.54.17z"/><path d="M80.36 125.87a.87.87 0 0 1-.44-.11.92.92 0 0 1-.46-.59c0-.14-3.53-14.16-7.15-19.58a.93.93 0 1 1 1.53-1c3.26 4.9 6.27 15.78 7.15 19.17 17.94-6.9 36.18-22.1 38.86-26.57a.93.93 0 0 1 1.27-.32 1 1 0 0 1 .31 1.28c-3.28 5.43-23.2 21.23-40.76 27.7a1.12 1.12 0 0 1-.31.01zM63 146a.93.93 0 0 1-.78-.43.94.94 0 0 1 0-1c3.92-6.62 8.18-13 11.06-17.16a.92.92 0 0 1 1.51 1c-2.63 3.82-6.42 9.48-10 15.47l6.57-.67a.92.92 0 0 1 1 .83.91.91 0 0 1-.82 1l-8.4.86zm25.18-70.7a1 1 0 0 1-.55-.18.93.93 0 0 1-.18-1.3c2.58-3.46 7.37-8.12 10.4-9.56a.92.92 0 0 1 1.23.45.93.93 0 0 1-.44 1.23c-2.74 1.3-7.32 5.78-9.72 9a.93.93 0 0 1-.74.36z"/><path d="M97 72.3a.93.93 0 0 1-.6-.22 5.9 5.9 0 0 0-4-1.42.93.93 0 0 1 0-1.85 7.76 7.76 0 0 1 5.29 1.86.94.94 0 0 1 .1 1.31.92.92 0 0 1-.79.32zm-39 38.58a10.19 10.19 0 0 1-5.61-1.69 10.31 10.31 0 0 1-4.68-8l-1.2-18.1a.921.921 0 1 1 1.84-.08l1.23 18.12a8.47 8.47 0 0 0 3.84 6.57 8.38 8.38 0 0 0 7.53.87l16.14-5.9a.93.93 0 0 1 .63 1.74l-16.14 5.9a10.42 10.42 0 0 1-3.59.58zM47.07 78.55a.81.81 0 0 1-.43-.11l-5.8-3.13a4.84 4.84 0 0 1-1.64-7l7.56-10.72a7.25 7.25 0 0 0 1.32-4.41.93.93 0 0 1 .89-1 .94.94 0 0 1 1 .89 9.15 9.15 0 0 1-1.65 5.55l-7.62 10.7a3 3 0 0 0 1 4.35l5.8 3.13a.93.93 0 0 1 .37 1.26.9.9 0 0 1-.8.48zm43.23 6.03a.93.93 0 0 1-.08-1.85C98.05 82 102.42 76.2 103.9 71c1.4-4.9.5-9.58-2.23-11.67a7.26 7.26 0 0 0-6.67-.89A12.62 12.62 0 0 0 87 66a.92.92 0 1 1-1.74-.6 14.5 14.5 0 0 1 9.21-8.7 9 9 0 0 1 8.33 1.2c3.33 2.56 4.5 8 2.9 13.66s-6.53 12.23-15.27 13z"/></g><path d="M122.34 17.14l-.68-.66s3-13.54-23.1-13.7c-25.32-.14-50.5 7.14-58.7 25.15-4 8.7-.36 21.17 12 21.93l-.16-4.75A35.54 35.54 0 0 1 52.8 35l1-4 20.73 3.66a3.2 3.2 0 0 1 2.57 2.79l3.25 26.24a3.15 3.15 0 0 0 3.16 2.83l4-.1c1.66-6.7 10.44-12 15.76-7.8 4.62 3.67 4.1 13.72-1.44 19.94 0 0 1.43 4.83 12.46 7.07l14.46-29a34.23 34.23 0 0 0-6.41-39.48z" fill="#6b6d70"/><path d="M108.67 39.8l-36.2-5.13a3.25 3.25 0 0 1 2.66 2.79L78.5 63.7a3.24 3.24 0 0 0 3.28 2.83l4.13-.1c1.7-6.7 10.82-12 16.33-7.8 4.78 3.67 4.25 13.72-1.5 19.94 0 0 .7 2.25 4.8 4.4 17.9-19.84 7.17-41.3 3.15-43.16zm-68.83 6.67a15 15 0 0 0 9 3.4l-.17-4.75A34.21 34.21 0 0 1 49.9 35l1.1-4c-8.28-.75-12.64 6.9-11.16 15.47z" class="J"/><path d="M125.9 33.37c-1.25-5.24-5.43-9.53-11.22-11.56a9.24 9.24 0 0 0-3.21-4.44 11 11 0 0 0-6.64-2.11h-.73a16.07 16.07 0 0 0-3.77-2.58 19 19 0 0 0-8-2.24 24.17 24.17 0 0 0-2.22-.1h-.62a22.12 22.12 0 0 0-16.6 7.88 12 12 0 0 0-6.83 2.52 9.54 9.54 0 0 0-4 6.72 10.86 10.86 0 0 0-3.7 6.12 9.52 9.52 0 0 0 2.71 8.94 9.07 9.07 0 0 0 1 .77l.14.1a7.83 7.83 0 0 0 1 .54l.2.1a7.94 7.94 0 0 0 1.09.33h.18l.47.07a6.66 6.66 0 0 0 2.52 2.69 9.35 9.35 0 0 0 4.91 1.2 17.43 17.43 0 0 0 3.1-.3A9.64 9.64 0 0 0 80 52.25 16.12 16.12 0 0 0 87.45 54a14.59 14.59 0 0 0 4.55-.67 14.54 14.54 0 0 0 8.35 2.84 13.74 13.74 0 0 0 6.7-1.81 16 16 0 0 0 5.74 1.13 11.74 11.74 0 0 0 8.21-3.23 9.11 9.11 0 0 0 2.86-8.66 12.12 12.12 0 0 0 2.05-10.23z" fill="#fff"/><path d="M113.28 24.24L112 27.68c2.05-6.22-3-10.92-9.6-9.38l.57-.3c-5.2-5.87-20-8-28.33 2.46l2.2 1.33c-5.67-3-12.92 2.55-11.92 7a8.24 8.24 0 0 0-3.82 5.34c-1 4.64 2.65 8.48 6.08 7.43 1 6.52 10.5 3.14 10.5 3.14.48 6.48 10.6 7.82 14.77 5.43 0 0 6.35 6.6 14.4 1.1 0 0 7 4 12.32-1a6.05 6.05 0 0 0 1.57-7.24c5.7-5.62 2.4-15.6-7.47-18.76z" class="L"/><g class="J"><path d="M100.32 54.34a12.92 12.92 0 0 1-8-3.09 14.21 14.21 0 0 1-11.44-.62 7.29 7.29 0 0 1-3.92-4.73c-1.84.5-5.66 1.22-8.24-.33a4.94 4.94 0 0 1-2.22-2.92 5.31 5.31 0 0 1-4.12-1.49A7.66 7.66 0 0 1 60.17 34a9.62 9.62 0 0 1 9.56-7.41c1.67.17 2.7 1.13 2.7 2.5 0 1.57-1 3.1-2 4.72-1.35 2.17-2.87 4.64-2.42 7.66A3.32 3.32 0 0 0 69.62 44c2.23 1.35 6.33.36 7.73-.14a.9.9 0 0 1 .81.1.92.92 0 0 1 .41.71A5.43 5.43 0 0 0 81.7 49c3.35 1.8 8 1.63 10.27.34a.91.91 0 0 1 1.11.16 10.19 10.19 0 0 0 13.23 1 .92.92 0 0 1 1 0c.26.15 6.44 3.58 11.24-.88a5.07 5.07 0 0 0 1.14-6.62c-1.07-1.67-3.45-2.92-6.92-1.45a.91.91 0 0 1-1.2-.49.92.92 0 0 1 .49-1.21c4.52-1.93 7.77 0 9.18 2.14a7 7 0 0 1-1.47 8.92c-4.9 4.57-11.08 2.23-12.88 1.4a12.09 12.09 0 0 1-6.57 2.04zm-31.14-26A7.85 7.85 0 0 0 62 34.32a5.81 5.81 0 0 0 1.6 5.48 3.55 3.55 0 0 0 2.58 1c-.18-3.28 1.44-5.9 2.77-8 .9-1.45 1.67-2.7 1.67-3.74 0-.46-.57-.6-1-.66z"/><path d="M112.8 47.36c-2.62 0-5.37-.9-6.85-2.92-.9-1.23-2-3.9.9-7.9 3.33-4.6 7.12-4.87 9.36-3.7s3.68 4 2.36 7.78a.91.91 0 0 1-1.17.57.93.93 0 0 1-.57-1.18c1-2.77 0-4.78-1.48-5.53-1.58-.83-4.37-.5-7 3.15-1.16 1.6-2.25 3.88-.9 5.7s5.2 2.74 8.1 1.74a.93.93 0 0 1 1.18.57.94.94 0 0 1-.57 1.18 10.53 10.53 0 0 1-3.35.53z"/><path d="M99.53 48.14a9.25 9.25 0 0 1-5.67-2 .93.93 0 0 1-.16-1.3.92.92 0 0 1 1.3-.18 7.09 7.09 0 0 0 6.18 1.41 6 6 0 0 0 4-3.79.91.91 0 0 1 1.19-.52.93.93 0 0 1 .52 1.2 7.86 7.86 0 0 1-5.25 4.9 8 8 0 0 1-2.11.28zm-14.2-2.48a5.2 5.2 0 0 1-1.43-.2 3.91 3.91 0 0 1-2.86-3c-.36-1.93.7-4 2.87-5.68 4.77-3.67 7.7-2.5 11.14.74 1.65 1.56 3.53 1.68 4.58 1.14a2.5 2.5 0 0 0 1.17-2.79.94.94 0 0 1 .8-1 .92.92 0 0 1 1 .8 4.35 4.35 0 0 1-2.16 4.68c-2 1-4.68.45-6.68-1.44-3-2.86-4.92-3.58-8.76-.62-1.6 1.22-2.4 2.67-2.18 3.87a2.07 2.07 0 0 0 1.56 1.6c1.76.5 4-.5 6.1-2.74a.923.923 0 1 1 1.35 1.26c-2.03 2.15-4.38 3.38-6.5 3.38z"/><path d="M113.74 33.63a.92.92 0 0 1-.92-.87 3.58 3.58 0 0 0-2.19-3.38 6.43 6.43 0 0 0-6.4 1.53.92.92 0 0 1-1.31-.05.93.93 0 0 1 .06-1.31 8.22 8.22 0 0 1 8.34-1.88 5.37 5.37 0 0 1 3.34 5 .91.91 0 0 1-.87 1zm-9.94 3.2c-3.13 0-4.8-1.12-5.64-2a5.76 5.76 0 0 1-1-6.08 9.66 9.66 0 0 1 8.22-5.94.92.92 0 0 1 1 .82.93.93 0 0 1-.83 1 7.74 7.74 0 0 0-6.67 4.74 3.93 3.93 0 0 0 .6 4.16c1.65 1.74 5.25 1.9 9.87.42a.92.92 0 0 1 1.15.6.94.94 0 0 1-.6 1.17 20.32 20.32 0 0 1-6.1 1.11z"/><path d="M111.52 29.72a1 1 0 0 1-.38-.08.94.94 0 0 1-.45-1.23c1.46-3.2.92-6.32-1.42-8.1-2.7-2.07-7.76-2.18-12.94 2.23a.923.923 0 0 1-1.19-1.41c6-5.08 12-4.8 15.24-2.3 3.07 2.34 3.83 6.3 2 10.35a.92.92 0 0 1-.86.54zM92 36.12a4.44 4.44 0 0 1-1.47-.24 4 4 0 0 1-2.65-3.35c-.32-2.17.7-5.52 4.57-8.38a.923.923 0 1 1 1.09 1.49c-3.2 2.38-4.08 5-3.84 6.62a2.2 2.2 0 0 0 1.43 1.87c1.48.52 3.68-.4 5.9-2.48a.91.91 0 0 1 1.3.05.93.93 0 0 1 0 1.3c-2.22 2-4.43 3.12-6.32 3.12zM75.13 40.7h-.07a.92.92 0 0 1-.84-1c.3-3.93 4.87-9.1 10.33-9.87a.92.92 0 0 1 1 .78.93.93 0 0 1-.78 1.05c-5 .7-8.55 5.38-8.76 8.18a.92.92 0 0 1-.88.86z"/><path d="M81.32 32.78a.92.92 0 0 1-.91-.78 2.54 2.54 0 0 0-1.93-2.22c-2.18-.6-5.5.6-7.23 2.67a.923.923 0 1 1-1.41-1.19C72.07 28.6 76.08 27.18 79 28a4.36 4.36 0 0 1 3.25 3.71.92.92 0 0 1-.76 1.06zM64.9 29.72A.93.93 0 0 1 64 29c-.5-2.3.7-4.9 3.2-6.8A9.39 9.39 0 0 1 77.24 21a.921.921 0 1 1-.86 1.63c-2.93-1.56-6.2-.4-8.08 1.05s-2.86 3.32-2.5 4.9a.93.93 0 0 1-.7 1.11z"/><path d="M83.15 22.72a.92.92 0 0 1-.77-.41.93.93 0 0 1 .25-1.31c4.3-2.94 9.43-3.6 15.26-1.92a.93.93 0 0 1-.51 1.78c-5.35-1.53-9.84-1-13.72 1.67a.9.9 0 0 1-.51.19zM77.8 28.7a1 1 0 0 1-.49-.14.92.92 0 0 1-.32-1.28l.6-1a11.14 11.14 0 0 1 2-2.64.91.91 0 0 1 1.3 0 .93.93 0 0 1 0 1.31 9.12 9.12 0 0 0-1.7 2.28l-.65 1.1a.9.9 0 0 1-.75.38zm-3.2-7.3a.9.9 0 0 1-.58-.21.92.92 0 0 1-.14-1.3 20.36 20.36 0 0 1 15.65-7.68c5.62-.15 11.16 1.88 14.1 5.18a.94.94 0 0 1-.08 1.31.92.92 0 0 1-1.3-.08c-2.58-2.9-7.54-4.7-12.66-4.56a18.57 18.57 0 0 0-14.27 7 .91.91 0 0 1-.71.34zm16.55 6.04a.87.87 0 0 1-.35-.07s-3.15-1.28-5.77-.2a.91.91 0 0 1-1.2-.5.93.93 0 0 1 .5-1.21c3.33-1.38 7 .13 7.18.2a.92.92 0 0 1 .49 1.21.91.91 0 0 1-.85.57zM120.75 44a.93.93 0 0 1-.64-1.59 8.43 8.43 0 0 0 2.24-8.13c-1-4.15-4.48-7.55-9.35-9.1a.94.94 0 0 1-.6-1.17.93.93 0 0 1 1.16-.6C119 25.1 123 29 124.14 33.8a10.27 10.27 0 0 1-2.74 9.89.91.91 0 0 1-.65.32z"/></g><path d="M102.94,18a16.37,16.37,0,0,0-11.79-4.83c-5.65,0-5,6.52-.34,6a18.23,18.23,0,0,1,7.24,1,14.53,14.53,0,0,1,5-2Z" class="K"/><path d="M98.05 21.06a1.26 1.26 0 0 1-.28 0 17.49 17.49 0 0 0-6.86-.94 4.14 4.14 0 0 1-4.07-1.67 3.75 3.75 0 0 1-.22-3.86 4.83 4.83 0 0 1 4.53-2.31 17.37 17.37 0 0 1 12.43 5.09l.15.15a1 1 0 0 1 .24.95.91.91 0 0 1-.73.63 13.45 13.45 0 0 0-4.68 1.85 1 1 0 0 1-.51.11zm-6-2.9a20.89 20.89 0 0 1 5.86 1 15.87 15.87 0 0 1 3.26-1.47 15.22 15.22 0 0 0-10-3.57 3.05 3.05 0 0 0-2.9 1.32 1.89 1.89 0 0 0 .11 2 2.36 2.36 0 0 0 2.35.87 11.48 11.48 0 0 1 1.33-.15z" class="J"/><path d="M71.5 29c0-3.24-9.08-1.56-10.44 5.1-1 4.64 2.65 8.48 6.08 7.43-.85-5.6 4.36-9.25 4.36-12.53z" class="K"/><path d="M66 42.67a5.41 5.41 0 0 1-3.65-1.51A7.66 7.66 0 0 1 60.17 34a9.62 9.62 0 0 1 9.56-7.41c1.67.17 2.7 1.13 2.7 2.5 0 1.57-1 3.1-2 4.72-1.35 2.18-2.88 4.64-2.42 7.67a.93.93 0 0 1-.64 1 4.8 4.8 0 0 1-1.37.19zm3.2-14.3a7.85 7.85 0 0 0-7.2 5.95 5.81 5.81 0 0 0 1.6 5.48 3.55 3.55 0 0 0 2.58 1c-.18-3.28 1.44-5.9 2.77-8 .9-1.45 1.67-2.7 1.67-3.74 0-.46-.57-.6-1-.66z" class="J"/><path d="M109.62 34.87c-6.66 2.3-11.3.63-11.86-2.63 0 0-2.53 2.57-5.08 2.9a10.44 10.44 0 0 0 7.32 6.77 8 8 0 0 0 5.83-.68s-.2-2.84 3.76-6.36" class="K"/><path d="M102.07 43.1a8.71 8.71 0 0 1-2.28-.31 11.31 11.31 0 0 1-8-7.41.92.92 0 0 1 .12-.76 1 1 0 0 1 .65-.41c2.2-.3 4.52-2.6 4.55-2.64a.92.92 0 0 1 1.56.5 3 3 0 0 0 1.51 2.07c2 1.2 5.4 1.13 9.14-.16a.92.92 0 0 1 .91 1.57c-3.5 3.12-3.45 5.6-3.45 5.6a.93.93 0 0 1-.43.84 8.7 8.7 0 0 1-4.28 1.1zm-8.15-7.3a9.57 9.57 0 0 0 6.35 5.2 7.09 7.09 0 0 0 4.71-.37 9 9 0 0 1 1.81-4.06c-3 .55-5.7.28-7.55-.83a5.11 5.11 0 0 1-1.89-1.92 11.76 11.76 0 0 1-3.43 1.98zm-31.6 132.53a.78.78 0 0 1-.26 0 .92.92 0 0 1-.63-1.14l.7-2.3c1.3-4.13 3.15-9 5.48-14.37a.92.92 0 0 1 1.21-.49.94.94 0 0 1 .48 1.22c-2.3 5.35-4.12 10.13-5.42 14.2l-.68 2.26a.92.92 0 0 1-.88.63zm18.32-15.15a.93.93 0 0 1-.92-.88l-1-20.92a354.34 354.34 0 0 0-6.44 13.18.92.92 0 0 1-1.22.45.94.94 0 0 1-.45-1.23c4.17-9 8-16.2 8.05-16.27a.92.92 0 0 1 1-.47.94.94 0 0 1 .72.86l1.13 22.92c4.84-2.37 23-11.78 37.5-26.08a.923.923 0 0 1 1.29 1.32c-17 16.8-39.06 26.93-39.28 27a.85.85 0 0 1-.39.12zm47.43-36.35a.92.92 0 0 1-.56-.19.93.93 0 0 1-.17-1.3 65.82 65.82 0 0 0 5.72-8.84l-9.93-9.93a3.54 3.54 0 0 0-3.88-.78l-1.78.74a.92.92 0 0 1-1.2-.5.93.93 0 0 1 .5-1.21l1.77-.74a5.39 5.39 0 0 1 5.89 1.17l10.4 10.42a.93.93 0 0 1 .17 1.09 68.33 68.33 0 0 1-6.2 9.71 1 1 0 0 1-.74.36zm35.35 8a.85.85 0 0 1-.52-.17c-1.16-.8-15.65-9.22-25.32-13.88a.93.93 0 0 1 .8-1.67c9.58 4.62 24.1 13 25.57 14a.93.93 0 0 1-.53 1.69z" class="J"/></svg>