<svg xmlns="http://www.w3.org/2000/svg" viewBox="0 0 180 180"><style><![CDATA[.N{fill:#57585a}.O{fill:#999ba1}]]></style><path d="M55.44 65.14C32 60.62 8.2 77.1 8.1 101.9 8 134.33 46 175.05 113.75 155.6c68.57-19.67 65.34-92.6 49.78-113.67C151.3 25.36 133 21.37 117.6 26.85" fill="#f7bfb2"/><path d="M113.75 155.8c11.6-3.2 20.84-32.14 19.3-45.57-5.28-46.15-87.78-44.16-118.53 16.93C28 150.84 62.25 170 113.75 155.8z" fill="#f3a183"/><g fill="#fff"><path d="M113.75 155.8c22.9-6.3 37.8-18.32 46.9-32.27-2.46-1.43-7.34-4.2-12.55-7-4.33-2.3-21.5-9.5-21.5-9.5-10.85 20.5-32.68 37.13-42 41.85l-.94-18.74a2.53 2.53 0 0 0-2-2.33 2.22 2.22 0 0 0-.57-.07 2.57 2.57 0 0 0-2.25 1.32c-.1.2-8.86 16.27-14.15 30.34 14.02 2.28 30.42 1.58 49.08-3.6z"/><path d="M123.18 100.56a4.32 4.32 0 0 0-4.64-.91l-1.68.7-.67.44a38.28 38.28 0 0 1-2.63-9.78l-10.84-25.1c-5.23-3.93-13.87 1-15.5 7.25l-3.9.1a3 3 0 0 1-3.11-2.63L77 46.24a3 3 0 0 0-2.52-2.58l-20.38-3.4-1 3.67a31.46 31.46 0 0 0-1.1 9.45l.27 7.4a7.54 7.54 0 0 1-1.41 4.63l-7.18 10a3.59 3.59 0 0 0 1.26 5.29l5.5 2.9 1.52 21.84a8.91 8.91 0 0 0 11.95 7.66l11.2-4c2.4 3.5 4.7 10.63 5.94 14.93l-.85.56S72.3 135 65.53 146.2l8-.8c4-8.46 7.6-15.07 7.6-15.07l1.14 22.58s20.44-8.63 37-24c6.3-5.82 12.15-15.58 13.8-18.68z"/></g><path d="M132.3 111.7l.76-1.45c-13.87 26.2-50.8 42.66-50.8 42.66l-1.14-22.58S69.28 151.93 64.87 167c0 0 20.4 11.06 56.67-3.44 28.2-11.28 39.24-37 39.24-37-1.43-.96-20.3-11.65-28.5-14.87z" fill="#ffb87f"/><path d="M132.3 111.7h-.06c-14.44 25.36-50 41.2-50 41.2l-1.14-22.58s-11.8 21.6-16.22 36.68c0 0 9.75 5.28 27.74 3.76 24.2-15.43 39.83-42.46 39.68-59.07z" fill="#ffad66"/><path d="M57.53 95.7c2.4-1.1 4.3 2.93 1.33 3.62-2.58.6-2.86-2.92-1.33-3.62zm32.15-12.85c-3.14-.75 8.68-13.17 10.62-10s-5.1 11.3-10.62 10zm-14.62 26.22c3.57 5.23 6.94 18.47 6.94 18.47a87.18 87.18 0 0 0 11.26-5.11c5.74-7.43-1.77-20.28-18.2-13.36zm6.56 31.1l.64 12.74s19.54-8.72 35.54-23.56c.37-4.12-17.8 2.38-36.18 10.82zM72 136.2c-2.06 3.06-4.3 6.5-6.42 10l8-.8 7.62-15.1zM43 77.75a3.59 3.59 0 0 0 1.91 2.91l5.5 2.9c5-3.02-5.47-6.64-7.4-5.82zm31.48-34.1l-20.38-3.4-.4 1.38c1.82 9.4 4.82 12.73 23.72 7.9l-.42-3.3a3 3 0 0 0-2.52-2.58z" fill="#fef0e5"/><g class="N"><path d="M60.32 64.44c-.8 0-1.35-.8-1.35-1.94s.55-1.94 1.35-1.94 1.35.8 1.35 1.94-.56 1.94-1.35 1.94zm1.98-11.52a.88.88 0 0 1-.59-.22 5 5 0 0 0-2.87-.42.86.86 0 1 1-.43-1.66 6.35 6.35 0 0 1 4.48.8.87.87 0 0 1 .06 1.22.92.92 0 0 1-.65.28zm-6.86 37.83a.86.86 0 0 1-.35-1.65 25 25 0 0 1 6.71-1.66.88.88 0 0 1 1 .77.85.85 0 0 1-.77.94 22.72 22.72 0 0 0-6.2 1.53.91.91 0 0 1-.39.07zm9.06-2.23a.9.9 0 0 1-.9-.87.83.83 0 0 1 .83-.85h.1a.86.86 0 1 1 0 1.72zm53.7 16.6a.91.91 0 0 1-.7-.34c-3.78-4.87-4.78-13.33-4.82-13.7a.86.86 0 0 1 .77-1 .88.88 0 0 1 1 .76c0 .08 1 8.35 4.47 12.84a.85.85 0 0 1-.16 1.2.89.89 0 0 1-.56.23z"/><path d="M82 128.4a1 1 0 0 1-.41-.1.88.88 0 0 1-.44-.56c0-.13-3.34-13.15-6.78-18.2a.86.86 0 0 1 .24-1.2.88.88 0 0 1 1.21.24c3.1 4.53 5.95 14.66 6.8 17.8 17-6.42 34.3-20.54 36.86-24.68a.88.88 0 0 1 1.2-.29.85.85 0 0 1 .3 1.18c-3.1 5.05-22 19.72-38.67 25.74a.77.77 0 0 1-.3.06zm-16.47 18.67a.87.87 0 0 1-.74-.39.85.85 0 0 1 0-.91c3.72-6.14 7.76-12.06 10.5-15.94a.89.89 0 0 1 1.22-.21.85.85 0 0 1 .22 1.19c-2.5 3.55-6.1 8.8-9.53 14.37l6.23-.62a.86.86 0 1 1 .18 1.71l-8 .8zM89.4 81.4a.93.93 0 0 1-.53-.17.85.85 0 0 1-.17-1.23c2.45-3.22 7-7.55 9.87-8.88a.87.87 0 0 1 1.16.41.84.84 0 0 1-.42 1.14c-2.6 1.2-6.94 5.37-9.2 8.36a.91.91 0 0 1-.7.37z"/><path d="M97.72 78.62a.85.85 0 0 1-.56-.21 5.62 5.62 0 0 0-3.84-1.32.85.85 0 0 1-.89-.83.88.88 0 0 1 .85-.89 7.43 7.43 0 0 1 5 1.73.85.85 0 0 1 .1 1.21.9.9 0 0 1-.66.31zM60.8 114.47a9.83 9.83 0 0 1-5.32-1.57 9.53 9.53 0 0 1-4.43-7.43l-1.18-16.83a.88.88 0 0 1 1.75-.12l1.17 16.84a7.83 7.83 0 0 0 3.64 6.1 8.09 8.09 0 0 0 7.14.8l15.3-5.47a.87.87 0 0 1 1.12.51.86.86 0 0 1-.52 1.1l-15.3 5.48a9.85 9.85 0 0 1-3.37.59zM50.4 84.43a.92.92 0 0 1-.42-.1l-5.5-2.9a4.52 4.52 0 0 1-2.28-2.93 4.45 4.45 0 0 1 .72-3.62l7.18-10a6.62 6.62 0 0 0 1.24-4.1.88.88 0 0 1 1.75-.06 8.39 8.39 0 0 1-1.57 5.16l-7.17 10a2.73 2.73 0 0 0-.45 2.23 2.78 2.78 0 0 0 1.41 1.8l5.5 2.92a.84.84 0 0 1 .36 1.18.87.87 0 0 1-.77.43zm41 5.57a.86.86 0 0 1-.86-.78.85.85 0 0 1 .78-.93 14.82 14.82 0 0 0 13-10.89c1.33-4.54.48-8.9-2.1-10.84a7 7 0 0 0-6.34-.84 11.82 11.82 0 0 0-7.59 7 .87.87 0 0 1-1.11.53.85.85 0 0 1-.54-1.09 13.66 13.66 0 0 1 8.73-8.08 8.74 8.74 0 0 1 7.91 1.12c3.15 2.37 4.25 7.47 2.73 12.7A16.52 16.52 0 0 1 91.5 90z"/></g><path d="M121.45 27.38l-.66-.62s3-12.58-22.72-12.7c-24.9-.13-49.66 6.63-57.72 23.36-3.9 8.08-.35 19.67 11.77 20.37l-.12-4.4a31.46 31.46 0 0 1 1.12-9.45l1-3.67 20.38 3.4a3 3 0 0 1 2.5 2.58l3.2 24.38a3 3 0 0 0 3.11 2.63l3.9-.1c1.63-6.23 10.27-11.18 15.5-7.25 4.53 3.4 4 12.75-1.42 18.53 0 0 1.4 4.5 12.26 6.56l14.2-26.9a30.51 30.51 0 0 0-6.32-36.71z" fill="#6b6d70"/><path d="M108.83 48.42l-34.35-4.76A3 3 0 0 1 77 46.24l3.2 24.38a3 3 0 0 0 3.11 2.63l3.9-.1c1.63-6.23 10.27-11.18 15.5-7.25 4.53 3.4 4 12.75-1.42 18.53 0 0 .67 2.1 4.54 4.08 17-18.42 6.8-38.37 3-40.1zm-65.3 6.2a14.39 14.39 0 0 0 8.59 3.16l-.12-4.4a31.46 31.46 0 0 1 1.12-9.45l1-3.67c-7.85-.7-11.98 6.42-10.6 14.37z" class="N"/><path d="M125.2 42.45c-1.2-4.87-5.2-8.85-10.65-10.74a8.58 8.58 0 0 0-3-4.12 10.6 10.6 0 0 0-6.3-2h-.7a15.55 15.55 0 0 0-3.58-2.4 18.17 18.17 0 0 0-7.6-2.08 25.48 25.48 0 0 0-2.1-.09h-.6a21.18 21.18 0 0 0-15.74 7.3 11.55 11.55 0 0 0-6.48 2.34A8.86 8.86 0 0 0 64.64 37a10.12 10.12 0 0 0-3.51 5.69A8.72 8.72 0 0 0 63.71 51a6.57 6.57 0 0 0 .95.72 1 1 0 0 0 .13.09 6 6 0 0 0 1 .5l.2.1a6.67 6.67 0 0 0 1 .3h.17l.44.07a6.31 6.31 0 0 0 2.4 2.48 9.06 9.06 0 0 0 4.66 1.11 16.58 16.58 0 0 0 2.94-.28 9 9 0 0 0 4 3.91 15.54 15.54 0 0 0 7.1 1.63A14 14 0 0 0 93 61a13.92 13.92 0 0 0 7.92 2.64 13.2 13.2 0 0 0 6.35-1.64 15.23 15.23 0 0 0 5.44 1 11.24 11.24 0 0 0 7.82-3 8.36 8.36 0 0 0 2.71-8 11.09 11.09 0 0 0 1.95-9.55z" fill="#fff"/><path d="M113.2 34l-1.2 3.16c2-5.77-2.82-10.14-9.1-8.7l.53-.28c-4.94-5.45-19-7.4-26.87 2.3l2.1 1.24c-5.38-2.8-12.26 2.36-11.3 6.5a7.63 7.63 0 0 0-3.62 5c-.9 4.3 2.5 7.88 5.76 6.9.94 6.06 10 2.92 10 2.92.45 6 10 7.26 14 5a10.73 10.73 0 0 0 13.66 1s6.6 3.7 11.7-.93a5.57 5.57 0 0 0 1.53-6.71c5.32-5.2 2.18-14.5-7.16-17.4z" fill="#f3a183"/><g class="N"><path d="M100.9 61.94a12.34 12.34 0 0 1-7.63-2.87 13.76 13.76 0 0 1-10.86-.58 6.82 6.82 0 0 1-3.72-4.39c-1.74.46-5.37 1.13-7.8-.3a4.57 4.57 0 0 1-2.11-2.71 5.11 5.11 0 0 1-3.91-1.38 7.06 7.06 0 0 1-2.05-6.7 9.1 9.1 0 0 1 9.08-6.88c1.57.16 2.55 1 2.55 2.32 0 1.46-.9 2.88-1.85 4.4-1.27 2-2.72 4.3-2.3 7.1a3.12 3.12 0 0 0 1.48 2.36c2.1 1.24 6 .32 7.33-.14a.91.91 0 0 1 .77.09.88.88 0 0 1 .39.66 5.08 5.08 0 0 0 3 4c3.18 1.67 7.6 1.5 9.75.3a.88.88 0 0 1 1.05.15 9.8 9.8 0 0 0 12.55.91.89.89 0 0 1 .92 0c.25.14 6.12 3.33 10.66-.8a4.65 4.65 0 0 0 1.12-6.09c-1-1.55-3.27-2.7-6.57-1.34a.88.88 0 0 1-1.14-.46.86.86 0 0 1 .46-1.13c4.3-1.8 7.38 0 8.72 2a6.38 6.38 0 0 1-1.4 8.28c-4.66 4.25-10.5 2.07-12.22 1.3a11.67 11.67 0 0 1-6.27 1.92zM71.37 37.8c-2.16 0-6.05 1.73-6.84 5.53a5.32 5.32 0 0 0 1.52 5.08 3.44 3.44 0 0 0 2.44.95c-.16-3 1.37-5.48 2.63-7.46.85-1.35 1.6-2.5 1.6-3.48 0-.42-.54-.56-1-.6z"/><path d="M112.74 55.45c-2.48 0-5.1-.84-6.5-2.7-.87-1.14-1.9-3.62.84-7.33 3.17-4.28 6.76-4.53 8.88-3.44s3.5 3.68 2.24 7.23a.87.87 0 0 1-1.65-.56c.92-2.58 0-4.44-1.4-5.14s-4.16-.5-6.65 2.92c-1.1 1.48-2.14 3.6-.86 5.3s4.94 2.54 7.68 1.6a.89.89 0 0 1 1.12.53.87.87 0 0 1-.55 1.1 10 10 0 0 1-3.16.49z"/><path d="M100.16 56.18a8.89 8.89 0 0 1-5.38-1.88.84.84 0 0 1-.15-1.2.86.86 0 0 1 1.22-.1 6.84 6.84 0 0 0 5.87 1.31 5.71 5.71 0 0 0 3.82-3.53.87.87 0 0 1 1.13-.48.84.84 0 0 1 .49 1.11 7.38 7.38 0 0 1-5 4.56 8.05 8.05 0 0 1-2 .21zm-13.46-2.3a5.13 5.13 0 0 1-1.36-.18 3.67 3.67 0 0 1-2.71-2.83c-.34-1.8.65-3.7 2.73-5.28 4.52-3.4 7.3-2.32 10.56.7a4 4 0 0 0 4.35 1 2.31 2.31 0 0 0 1.11-2.59.872.872 0 0 1 1.73-.22 4 4 0 0 1-2 4.34 5.75 5.75 0 0 1-6.34-1.33c-2.88-2.66-4.67-3.33-8.3-.58-1.5 1.14-2.3 2.48-2.07 3.6a1.93 1.93 0 0 0 1.42 1.5c1.67.48 3.84-.47 5.8-2.54a.88.88 0 0 1 1.23-.05.85.85 0 0 1 0 1.22c-1.9 2.1-4.14 3.24-6.15 3.24z"/><path d="M113.64 42.7a.87.87 0 0 1-.87-.81 3.3 3.3 0 0 0-2.08-3.14 6.18 6.18 0 0 0-6.07 1.42.89.89 0 0 1-1.24-.05.85.85 0 0 1 .05-1.21 7.93 7.93 0 0 1 7.92-1.75 5 5 0 0 1 3.16 4.63.86.86 0 0 1-.82.91zm-9.44 2.98c-3 0-4.56-1-5.35-1.86a5.27 5.27 0 0 1-.95-5.65 9.16 9.16 0 0 1 7.8-5.52.86.86 0 1 1 .18 1.71 7.37 7.37 0 0 0-6.34 4.41 3.61 3.61 0 0 0 .57 3.86c1.57 1.62 5 1.76 9.36.4a.89.89 0 0 1 1.1.56.86.86 0 0 1-.57 1.08 19.53 19.53 0 0 1-5.8 1.02z"/><path d="M111.54 39.07a1 1 0 0 1-.37-.08.85.85 0 0 1-.42-1.14c1.4-3 .87-5.87-1.35-7.53-2.57-1.92-7.36-2-12.27 2.07a.88.88 0 0 1-1.23-.1.85.85 0 0 1 .1-1.21c5.65-4.72 11.33-4.47 14.46-2.13 2.9 2.17 3.63 5.86 1.87 9.6a.86.86 0 0 1-.79.51zM93 45a4.3 4.3 0 0 1-1.39-.22 3.76 3.76 0 0 1-2.51-3.11c-.3-2 .67-5.13 4.34-7.8a.88.88 0 0 1 1.22.18.84.84 0 0 1-.19 1.2c-3 2.2-3.87 4.63-3.64 6.15a2 2 0 0 0 1.35 1.74c1.4.48 3.5-.38 5.6-2.3a.87.87 0 0 1 1.23 0 .85.85 0 0 1 0 1.21C96.9 44 94.8 45 93 45zm-16 4.28a.86.86 0 0 1-.8-.93c.28-3.65 4.62-8.45 9.8-9.17a.88.88 0 0 1 1 .73.87.87 0 0 1-.75 1c-4.7.65-8.1 5-8.3 7.6a.88.88 0 0 1-.95.77z"/><path d="M82.9 41.9a.86.86 0 0 1-.86-.73 2.38 2.38 0 0 0-1.84-2.06c-2.07-.57-5.2.57-6.86 2.48a.87.87 0 0 1-1.23.1.85.85 0 0 1-.1-1.21c2.1-2.45 5.92-3.8 8.66-3a4.1 4.1 0 0 1 3.09 3.45.87.87 0 0 1-.72 1zm-15.6-2.83a.88.88 0 0 1-.85-.68c-.5-2.12.67-4.55 3-6.32A9.1 9.1 0 0 1 79 30.94a.85.85 0 0 1 .36 1.16.88.88 0 0 1-1.18.36c-2.78-1.45-5.87-.38-7.67 1s-2.7 3.1-2.36 4.54a.85.85 0 0 1-.66 1 .63.63 0 0 1-.19.07z"/><path d="M84.62 32.56a.86.86 0 0 1-.72-.38.85.85 0 0 1 .23-1.18c4.07-2.73 8.94-3.33 14.47-1.78a.85.85 0 0 1 .6 1.06.87.87 0 0 1-1.08.59c-5.08-1.42-9.33-.9-13 1.55a.88.88 0 0 1-.5.14zm-5.06 5.54a.9.9 0 0 1-.47-.13.85.85 0 0 1-.27-1.18l.58-1a10.51 10.51 0 0 1 1.87-2.45.87.87 0 0 1 1.23 0 .84.84 0 0 1 0 1.21 8.92 8.92 0 0 0-1.61 2.13l-.6 1a.88.88 0 0 1-.72.42zm-3.04-6.78a.88.88 0 0 1-.55-.19.84.84 0 0 1-.13-1.21 19.49 19.49 0 0 1 14.85-7.14c5.33-.14 10.58 1.76 13.36 4.82a.85.85 0 0 1-.07 1.21.89.89 0 0 1-1.24-.06c-2.45-2.7-7.15-4.37-12-4.25A17.74 17.74 0 0 0 77.2 31a.88.88 0 0 1-.68.32zM92.2 37a.78.78 0 0 1-.33-.07 8.3 8.3 0 0 0-5.47-.17.88.88 0 0 1-1.14-.47.84.84 0 0 1 .47-1.12 10 10 0 0 1 6.81.18.84.84 0 0 1 .45 1.07.87.87 0 0 1-.79.58zm28.1 15.28a.86.86 0 0 1-.62-1.47 7.74 7.74 0 0 0 2.13-7.56c-.94-3.85-4.25-7-8.87-8.45a.862.862 0 1 1 .53-1.64c5.2 1.62 9 5.24 10 9.7a9.4 9.4 0 0 1-2.6 9.18.85.85 0 0 1-.57.25z"/></g><path d="M103.4 28.17a15.76 15.76 0 0 0-11.18-4.49c-5.36 0-4.75 6.07-.32 5.57a17.67 17.67 0 0 1 6.87.91 13.86 13.86 0 0 1 4.78-1.85z" class="O"/><path d="M98.76 31a1.26 1.26 0 0 1-.27 0 16.84 16.84 0 0 0-6.5-.87 4 4 0 0 1-3.87-1.55 3.44 3.44 0 0 1-.21-3.58 4.62 4.62 0 0 1 4.3-2.14A16.68 16.68 0 0 1 104 27.55l.15.14a.83.83 0 0 1 .22.87.86.86 0 0 1-.69.59 13.19 13.19 0 0 0-4.44 1.71.87.87 0 0 1-.48.14zm-5.7-2.7a20.4 20.4 0 0 1 5.56.89 16.12 16.12 0 0 1 3.09-1.36 14.6 14.6 0 0 0-9.51-3.31 2.91 2.91 0 0 0-2.75 1.22 1.75 1.75 0 0 0 .1 1.82 2.28 2.28 0 0 0 2.23.81 10.52 10.52 0 0 1 1.28-.05z" class="N"/><path d="M73.58 38.43c0-3-8.6-1.45-9.9 4.74-.9 4.3 2.5 7.88 5.76 6.9-.8-5.25 4.14-8.63 4.14-11.64z" class="O"/><path d="M68.33 51.1a5.19 5.19 0 0 1-3.46-1.4 7.06 7.06 0 0 1-2.05-6.7 9.1 9.1 0 0 1 9.08-6.88c1.57.16 2.55 1 2.55 2.32 0 1.46-.9 2.88-1.85 4.4-1.28 2-2.73 4.3-2.3 7.12a.87.87 0 0 1-.61 1 4.6 4.6 0 0 1-1.37.15zm3-13.3c-2.16 0-6.05 1.73-6.84 5.53a5.32 5.32 0 0 0 1.52 5.08 3.44 3.44 0 0 0 2.44.95c-.16-3 1.37-5.48 2.63-7.46.85-1.35 1.6-2.5 1.6-3.48 0-.42-.54-.56-1-.6z" class="N"/><path d="M109.74 43.84C103.4 46 99 44.43 98.48 41.4c0 0-2.4 2.4-4.82 2.7a9.8 9.8 0 0 0 7 6.29 7.7 7.7 0 0 0 5.54-.64s-.2-2.63 3.57-5.9" class="O"/><path d="M102.57 51.5a8.54 8.54 0 0 1-2.16-.28 10.61 10.61 0 0 1-7.59-6.89.82.82 0 0 1 .11-.7.88.88 0 0 1 .62-.38c2.08-.27 4.3-2.43 4.3-2.46a.91.91 0 0 1 .89-.21.86.86 0 0 1 .59.68 2.8 2.8 0 0 0 1.44 1.92c1.88 1.1 5.13 1 8.67-.15a.89.89 0 0 1 1 .38.86.86 0 0 1-.17 1.08C107 47.4 107 49.7 107 49.7a.87.87 0 0 1-.41.79 8.52 8.52 0 0 1-4.02 1.01zm-7.73-6.8a9.06 9.06 0 0 0 6 4.85 6.87 6.87 0 0 0 4.47-.35 8.14 8.14 0 0 1 1.72-3.78c-2.88.52-5.4.27-7.16-.77a4.74 4.74 0 0 1-1.8-1.78 11 11 0 0 1-3.23 1.83zM64.87 167.84a1 1 0 0 1-.24 0 .87.87 0 0 1-.6-1.07l.66-2.14c1.25-3.84 3-8.33 5.2-13.36a.88.88 0 0 1 1.11-.47.85.85 0 0 1 .45 1.13c-2.18 5-3.9 9.4-5.13 13.2l-.65 2.1a.87.87 0 0 1-.8.62zm17.4-14.08a.93.93 0 0 1-.46-.12.88.88 0 0 1-.42-.7l-1-19.43c-1.43 2.7-3.7 7.16-6.1 12.24a.87.87 0 0 1-1.15.42.86.86 0 0 1-.43-1.14c4-8.38 7.6-15.05 7.63-15.12a.91.91 0 0 1 1-.43.88.88 0 0 1 .68.8l1.06 21.3c4.6-2.2 21.84-10.94 35.6-24.23a.89.89 0 0 1 1.24 0 .85.85 0 0 1 0 1.21c-16.16 15.6-37.06 25-37.26 25.12a.92.92 0 0 1-.37.09zm45-33.76a.86.86 0 0 1-.53-.17.84.84 0 0 1-.16-1.21 61.44 61.44 0 0 0 5.44-8.22l-9.42-9.23a3.41 3.41 0 0 0-3.68-.72l-1.7.7a.88.88 0 0 1-1.14-.47.86.86 0 0 1 .47-1.12l1.7-.7a5.18 5.18 0 0 1 5.58 1.09l9.88 9.68a.84.84 0 0 1 .16 1 62.92 62.92 0 0 1-5.89 9 .87.87 0 0 1-.71.37zm33.53 7.44a.85.85 0 0 1-.5-.16c-1.1-.75-14.84-8.57-24-12.9a.85.85 0 0 1-.41-1.15.89.89 0 0 1 1.16-.4c9.1 4.3 22.86 12.08 24.26 13a.86.86 0 0 1 .22 1.2.88.88 0 0 1-.73.41z" class="N"/><path d="M55.2 64.94c-23.5-5-47.33 13.24-47.42 40.75-.12 36 37.92 81.12 105.85 59.56 68.7-21.8 65.46-102.65 49.87-126-12.26-18.38-30.57-22.8-46-16.72" fill="#c8c9cc"/><path d="M114.8 154.73c11.6-3.42 20.9-34.44 19.35-48.85-5.3-49.46-88-47.32-118.77 18.15 13.48 25.37 47.82 45.9 99.42 30.7z" class="O"/><g fill="#fff"><path d="M114.8 154.73c23-6.76 37.87-19.63 47-34.6a447 447 0 0 0-12.58-7.46c-4.34-2.48-21.55-10.17-21.55-10.17-10.88 22-32.75 39.8-42 44.86l-.94-20.1a2.68 2.68 0 0 0-2-2.5 2.22 2.22 0 0 0-.57-.07 2.53 2.53 0 0 0-2.25 1.42c-.1.2-8.88 17.43-14.18 32.5 13.95 2.36 30.37 1.6 49.07-3.9z"/><path d="M124.24 95.5a4.13 4.13 0 0 0-4.65-1l-1.68.74-.67.47a43.65 43.65 0 0 1-2.64-10.49l-10.86-26.86c-5.24-4.2-13.9 1.1-15.53 7.77l-3.92.1a3.11 3.11 0 0 1-3.11-2.81L78 37.3a3.14 3.14 0 0 0-2.52-2.77L55 30.88l-1 3.93a35.29 35.29 0 0 0-1.12 10.13l.26 7.94a8.42 8.42 0 0 1-1.41 5L44.55 68.5a4 4 0 0 0 1.26 5.68l5.5 3.12 1.52 23.4c.4 6.25 6.4 10.34 12 8.2l11.16-4.3c2.4 3.77 4.7 11.4 6 16l-.85.6s-7.86 11.2-14.65 23.2l8-.85c4-9.06 7.62-16.15 7.62-16.15l1.14 24.2s20.5-9.25 37.08-25.7c6.3-6.24 12.17-16.7 13.82-20z"/></g><path d="M132.2 107.44l.77-1.56c-13.9 28.1-50.9 45.73-50.9 45.73L81 127.4s-11.92 23.16-16.34 39.3c0 0 20.44 11.86 56.78-3.7 28.24-12.1 39.32-39.6 39.32-39.6-1.43-1.05-20.35-12.5-28.55-15.96z" fill="#e3e5e8"/><path d="M133.37 107.44h-.06c-14.46 27.17-50.07 44.16-50.07 44.16l-1.14-24.2s-11.86 23.17-16.28 39.3c0 0 9.77 5.66 27.8 4 24.24-16.5 39.9-45.45 39.76-63.26z" fill="#d3d5da"/><path d="M58.47 90.32c2.4-1.2 4.3 3.13 1.33 3.87-2.6.65-2.87-3.12-1.33-3.87zm32.2-13.8c-3.14-.8 8.7-14.1 10.63-10.77s-5.1 12.17-10.63 10.77zM76 104.63c3.6 5.6 7 19.8 7 19.8A82.88 82.88 0 0 0 94.24 119c5.8-8-1.75-21.78-18.24-14.37zM82.6 138l.64 13.65s19.58-9.35 35.6-25.25c.38-4.4-17.85 2.5-36.25 11.6zm-9.7-4.3c-2.07 3.28-4.3 7-6.43 10.73l8-.85 7.63-16.18zm-29-62.64a3.89 3.89 0 0 0 1.91 3.13l5.5 3.12c5.03-3.24-5.47-7.12-7.42-6.25zm31.55-36.53L55 30.88l-.4 1.48c1.85 10.06 4.85 13.64 23.8 8.46L78 37.3a3.14 3.14 0 0 0-2.55-2.77z" fill="#f2f3f5"/><g class="N"><path d="M61.26 56.8c-.8 0-1.36-.86-1.36-2.08s.56-2.08 1.36-2.08 1.35.85 1.35 2.08-.55 2.08-1.35 2.08zm1.97-12.34a.82.82 0 0 1-.58-.24 4.71 4.71 0 0 0-2.88-.45.86.86 0 0 1-1.06-.66.93.93 0 0 1 .62-1.11 6 6 0 0 1 4.49.86 1 1 0 0 1 .06 1.3.86.86 0 0 1-.65.3zM56.37 85a.86.86 0 0 1-.8-.55.93.93 0 0 1 .43-1.21 23 23 0 0 1 6.73-1.78.88.88 0 0 1 1 .82.91.91 0 0 1-.78 1 21.19 21.19 0 0 0-6.21 1.64.87.87 0 0 1-.37.08zm9.08-2.4a.93.93 0 0 1-.9-.93.86.86 0 0 1 .83-.91h.1a.92.92 0 0 1 0 1.84zm53.8 17.8a.84.84 0 0 1-.69-.36c-3.8-5.22-4.8-14.3-4.84-14.68a.9.9 0 0 1 .77-1 .87.87 0 0 1 1 .81c0 .1 1 9 4.48 13.76a.94.94 0 0 1-.16 1.29.82.82 0 0 1-.56.18z"/><path d="M83 125.35a.87.87 0 0 1-.41-.11.94.94 0 0 1-.43-.59c0-.14-3.36-14.1-6.8-19.5a1 1 0 0 1 .23-1.28.85.85 0 0 1 1.22.25c3.1 4.86 6 15.7 6.8 19.08 17-6.88 34.38-22 36.94-26.46a.85.85 0 0 1 1.2-.31 1 1 0 0 1 .25 1.27c-3.1 5.4-22 21.14-38.73 27.6a.81.81 0 0 1-.27.06zm-16.52 20.02a.86.86 0 0 1-.74-.43 1 1 0 0 1 0-1c3.72-6.58 7.77-12.92 10.5-17.08a.86.86 0 0 1 1.22-.24 1 1 0 0 1 .22 1.29c-2.5 3.8-6.1 9.43-9.55 15.4l6.25-.67a.89.89 0 0 1 1 .82.91.91 0 0 1-.78 1l-8 .86zM90.4 75a.86.86 0 0 1-.52-.18 1 1 0 0 1-.18-1.29c2.46-3.45 7-8.1 9.9-9.52a.85.85 0 0 1 1.16.44.94.94 0 0 1-.42 1.23c-2.6 1.3-7 5.75-9.24 9a.86.86 0 0 1-.7.32z"/><path d="M98.74 72a.87.87 0 0 1-.57-.22 5.4 5.4 0 0 0-3.84-1.42.88.88 0 0 1-.9-.89.91.91 0 0 1 .85-1 7.12 7.12 0 0 1 5 1.85 1 1 0 0 1 .1 1.3.84.84 0 0 1-.64.38zm-37 38.42a9.42 9.42 0 0 1-5.33-1.68 10.36 10.36 0 0 1-4.44-8l-1.17-18a.89.89 0 0 1 .81-1 .88.88 0 0 1 .93.85l1.17 18a8.54 8.54 0 0 0 3.65 6.54 7.66 7.66 0 0 0 7.16.87l15.34-5.87a.86.86 0 0 1 1.12.55.94.94 0 0 1-.53 1.18l-15.34 5.87a9.44 9.44 0 0 1-3.37.69zm-10.42-32.2a.94.94 0 0 1-.42-.11L45.4 75a4.76 4.76 0 0 1-2.28-3.14 5 5 0 0 1 .72-3.86L51 57.3a7.58 7.58 0 0 0 1.25-4.4.9.9 0 0 1 .84-.95.92.92 0 0 1 .91.89 9.42 9.42 0 0 1-1.58 5.52l-7.15 10.68a3.09 3.09 0 0 0-.45 2.39 3 3 0 0 0 1.41 1.94l5.5 3.12a.94.94 0 0 1 .36 1.24.88.88 0 0 1-.77.49zm41.1 6a.89.89 0 0 1-.87-.84.9.9 0 0 1 .79-1c7.43-.73 11.58-6.5 13-11.66 1.32-4.87.47-9.54-2.12-11.63a6.63 6.63 0 0 0-6.35-.9 12.21 12.21 0 0 0-7.61 7.5.86.86 0 0 1-1.11.57.93.93 0 0 1-.54-1.17 14.06 14.06 0 0 1 8.75-8.66 8.25 8.25 0 0 1 7.92 1.2c3.16 2.54 4.26 8 2.74 13.6-1.56 5.75-6.2 12.18-14.5 13z"/></g><path d="M122.5 17.08l-.66-.66s3-13.48-22.77-13.63c-24.93-.14-49.75 7.1-57.83 25-3.9 8.66-.36 21.08 11.8 21.84l-.15-4.73A35.29 35.29 0 0 1 54 34.81l1-3.93 20.42 3.65A3.14 3.14 0 0 1 78 37.3l3.2 26.13a3.11 3.11 0 0 0 3.11 2.81l3.92-.1c1.63-6.68 10.3-12 15.53-7.77 4.54 3.65 4 13.66-1.42 19.86 0 0 1.4 4.82 12.28 7l14.24-28.84a34.35 34.35 0 0 0-6.36-39.31z" fill="#6b6d70"/><path d="M109.87 39.63l-34.42-5.1A3.14 3.14 0 0 1 78 37.3l3.2 26.13a3.11 3.11 0 0 0 3.11 2.81l3.92-.1c1.63-6.68 10.3-12 15.53-7.77 4.54 3.65 4 13.66-1.42 19.86 0 0 .67 2.25 4.55 4.38 17-19.75 6.8-41.13 2.97-42.98zm-65.43 6.65A13.91 13.91 0 0 0 53 49.67l-.15-4.73A35.29 35.29 0 0 1 54 34.81l1-3.93c-7.8-.75-12 6.87-10.56 15.4z" class="N"/><path d="M126.25 33.24a16.36 16.36 0 0 0-10.67-11.51 9.12 9.12 0 0 0-3-4.42 10.09 10.09 0 0 0-6.31-2.1h-.7a15.34 15.34 0 0 0-3.57-2.56 17.38 17.38 0 0 0-7.61-2.22l-2.1-.1h-.6a20.73 20.73 0 0 0-15.78 7.81 11.12 11.12 0 0 0-6.48 2.51 9.62 9.62 0 0 0-3.79 6.69 11 11 0 0 0-3.52 6.1 9.79 9.79 0 0 0 2.58 8.9 9.35 9.35 0 0 0 .95.77l.14.1a5.46 5.46 0 0 0 1 .54l.2.1a6.83 6.83 0 0 0 1 .33h.17a4.14 4.14 0 0 0 .45.07A6.53 6.53 0 0 0 71 47a8.66 8.66 0 0 0 4.67 1.2 15.83 15.83 0 0 0 3-.3 9.34 9.34 0 0 0 4 4.19 14.79 14.79 0 0 0 7.11 1.74 13.18 13.18 0 0 0 4.22-.71 13.46 13.46 0 0 0 7.93 2.88 12.66 12.66 0 0 0 6.37-1.81 14.53 14.53 0 0 0 5.45 1.12 10.91 10.91 0 0 0 7.84-3.21 9.31 9.31 0 0 0 2.71-8.62 12.53 12.53 0 0 0 1.95-10.24z" fill="#fff"/><path d="M114.25 24.15L113 27.57c2-6.2-2.83-10.87-9.1-9.34l.54-.3c-5-5.84-19-7.93-26.93 2.46l2.1 1.32c-5.4-3-12.3 2.53-11.34 7A8.17 8.17 0 0 0 64.62 34c-.9 4.62 2.53 8.45 5.78 7.4.94 6.5 10 3.13 10 3.13.45 6.45 10.07 7.78 14 5.4 0 0 6 6.56 13.7 1.1 0 0 6.6 4 11.7-1a6.23 6.23 0 0 0 1.53-7.19c5.42-5.62 2.3-15.57-7.08-18.7z" class="O"/><g class="N"><path d="M101.93 54.12a12 12 0 0 1-7.65-3.07 13 13 0 0 1-10.88-.62 7.23 7.23 0 0 1-3.72-4.71c-1.75.5-5.38 1.2-7.83-.33a4.91 4.91 0 0 1-2.11-2.91A4.93 4.93 0 0 1 65.82 41a7.89 7.89 0 0 1-2-7.18c1-5.07 6-7.7 9.1-7.38a2.53 2.53 0 0 1 2.56 2.48c0 1.57-.9 3.1-1.85 4.7-1.28 2.16-2.73 4.6-2.3 7.62a3.36 3.36 0 0 0 1.48 2.53c2.12 1.33 6 .35 7.34-.15a.84.84 0 0 1 .77.1.94.94 0 0 1 .4.71 5.38 5.38 0 0 0 3 4.33c3.18 1.8 7.62 1.62 9.76.34a.84.84 0 0 1 1.06.16 9.38 9.38 0 0 0 12.57 1 .81.81 0 0 1 .92 0c.25.14 6.13 3.56 10.68-.88a5.2 5.2 0 0 0 1.12-6.52c-1-1.66-3.28-2.9-6.57-1.44a.86.86 0 0 1-1.15-.49.94.94 0 0 1 .46-1.21c4.3-1.92 7.4-.05 8.73 2.14a7.16 7.16 0 0 1-1.4 8.87c-4.67 4.56-10.52 2.23-12.24 1.4a11.13 11.13 0 0 1-6.32 1.99zm-29.6-25.86a7.53 7.53 0 0 0-6.85 5.93A6 6 0 0 0 67 39.64a3.33 3.33 0 0 0 2.45 1c-.17-3.27 1.37-5.87 2.63-8 .85-1.44 1.6-2.7 1.6-3.73 0-.45-.54-.6-1-.65z"/><path d="M113.8 47.17a7.88 7.88 0 0 1-6.52-2.91c-.86-1.22-1.9-3.88.85-7.86 3.17-4.6 6.78-4.85 8.9-3.68s3.5 4 2.25 7.75a.87.87 0 0 1-1.12.57.94.94 0 0 1-.54-1.18c.92-2.76 0-4.76-1.4-5.5s-4.16-.5-6.67 3.13c-1.1 1.58-2.14 3.86-.86 5.68s4.95 2.73 7.7 1.73a.86.86 0 0 1 1.11.57.93.93 0 0 1-.54 1.17 9.48 9.48 0 0 1-3.16.53z"/><path d="M101.18 48a8.57 8.57 0 0 1-5.39-2 1 1 0 0 1-.15-1.3.84.84 0 0 1 1.22-.16 6.5 6.5 0 0 0 5.88 1.41 5.88 5.88 0 0 0 3.83-3.78.86.86 0 0 1 1.13-.52.94.94 0 0 1 .49 1.2 7.32 7.32 0 0 1-7 5.16zm-13.5-2.53a4.75 4.75 0 0 1-1.36-.19 3.85 3.85 0 0 1-2.72-3c-.34-1.92.66-4 2.73-5.66 4.54-3.65 7.32-2.5 10.6.75 1.57 1.54 3.36 1.67 4.36 1.13a2.56 2.56 0 0 0 1.11-2.78.91.91 0 0 1 .75-1 .88.88 0 0 1 1 .79 4.4 4.4 0 0 1-2 4.66c-1.9 1-4.45.45-6.35-1.43-2.9-2.85-4.68-3.56-8.33-.62-1.5 1.2-2.3 2.65-2.08 3.85a2 2 0 0 0 1.49 1.59c1.67.52 3.84-.5 5.8-2.72a.84.84 0 0 1 1.24-.05 1 1 0 0 1 0 1.3c-1.98 2.17-4.2 3.38-6.23 3.38z"/><path d="M114.68 33.5a.9.9 0 0 1-.87-.87 3.55 3.55 0 0 0-2.08-3.36 5.92 5.92 0 0 0-6.09 1.52.84.84 0 0 1-1.23-.05 1 1 0 0 1 0-1.3 7.55 7.55 0 0 1 7.93-1.88 5.36 5.36 0 0 1 3.17 5 .9.9 0 0 1-.83 1zm-9.46 3.2a6.82 6.82 0 0 1-5.35-2 5.93 5.93 0 0 1-1-6.05 9.22 9.22 0 0 1 7.81-5.92.89.89 0 0 1 1 .83.92.92 0 0 1-.79 1 7.42 7.42 0 0 0-6.34 4.72 4.07 4.07 0 0 0 .57 4.14c1.57 1.73 5 1.9 9.38.42a.87.87 0 0 1 1.1.6 1 1 0 0 1-.57 1.16 18.48 18.48 0 0 1-5.81 1.1z"/><path d="M112.58 29.6a.84.84 0 0 1-.37-.09.94.94 0 0 1-.43-1.22c1.4-3.2.88-6.3-1.34-8.07-2.58-2.06-7.38-2.17-12.3 2.22a.84.84 0 0 1-1.23-.1 1 1 0 0 1 .1-1.3c5.66-5.06 11.35-4.8 14.48-2.3 2.92 2.33 3.64 6.28 1.88 10.3a.86.86 0 0 1-.79.54zM94 36a4.08 4.08 0 0 1-1.4-.24 4 4 0 0 1-2.5-3.36c-.3-2.16.67-5.5 4.34-8.34a.85.85 0 0 1 1.23.2 1 1 0 0 1-.19 1.28c-3 2.37-3.88 5-3.65 6.6A2.18 2.18 0 0 0 93.19 34c1.4.5 3.5-.4 5.6-2.47a.85.85 0 0 1 1.24 0 1 1 0 0 1 0 1.3C97.92 34.9 95.8 36 94 36zm-16 4.55h-.06a.9.9 0 0 1-.81-1c.28-3.92 4.63-9.06 9.82-9.83a.89.89 0 0 1 1 .79.92.92 0 0 1-.75 1c-4.7.7-8.12 5.36-8.32 8.14a.89.89 0 0 1-.88.9z"/><path d="M83.87 32.65a.89.89 0 0 1-.86-.78 2.5 2.5 0 0 0-1.84-2.21c-2.07-.6-5.22.6-6.87 2.67a.86.86 0 0 1-1.24.1 1 1 0 0 1-.1-1.29c2.12-2.64 5.93-4.06 8.68-3.25a4.29 4.29 0 0 1 3.1 3.7.92.92 0 0 1-.74 1.05zM68.25 29.6a.88.88 0 0 1-.85-.72c-.5-2.28.67-4.88 3-6.78a8.61 8.61 0 0 1 9.6-1.2.94.94 0 0 1 .37 1.24.85.85 0 0 1-1.18.39c-2.8-1.55-5.9-.4-7.7 1s-2.7 3.37-2.38 4.9a.92.92 0 0 1-.66 1.1.69.69 0 0 1-.21.07z"/><path d="M85.6 22.63a.87.87 0 0 1-.73-.4A1 1 0 0 1 85.1 21c4.1-2.93 9-3.57 14.5-1.9a.94.94 0 0 1 .6 1.14.87.87 0 0 1-1.08.63c-5.1-1.52-9.36-1-13 1.66a.82.82 0 0 1-.53.11zm-5.06 5.95a.84.84 0 0 1-.47-.15 1 1 0 0 1-.27-1.27l.58-1a11.16 11.16 0 0 1 1.87-2.63.84.84 0 0 1 1.24 0 1 1 0 0 1 0 1.3 9.57 9.57 0 0 0-1.62 2.28l-.6 1.08a.86.86 0 0 1-.72.39zM77.5 21.3a.89.89 0 0 1-.55-.2 1 1 0 0 1-.13-1.3 19 19 0 0 1 14.87-7.65C97 12 102.3 14 105.07 17.32a1 1 0 0 1-.07 1.3.84.84 0 0 1-1.23-.07c-2.46-2.9-7.17-4.68-12-4.55a17.37 17.37 0 0 0-13.56 7 .85.85 0 0 1-.72.31zm15.72 6.04a.8.8 0 0 1-.34-.07s-3-1.28-5.48-.2a.86.86 0 0 1-1.15-.5.94.94 0 0 1 .48-1.2c3.17-1.4 6.68.12 6.82.2a.94.94 0 0 1 .48 1.2.89.89 0 0 1-.81.57zm28.13 16.43a.86.86 0 0 1-.62-.27 1 1 0 0 1 0-1.31 8.69 8.69 0 0 0 2.13-8.1c-.93-4.1-4.25-7.5-8.86-9.1a.92.92 0 0 1-.56-1.16.86.86 0 0 1 1.09-.6c5.22 1.75 9 5.63 10.06 10.4A10.54 10.54 0 0 1 122 43.5a.86.86 0 0 1-.65.27z"/></g><path d="M104.42,17.93a15.2,15.2,0,0,0-11.2-4.81c-5.38,0-4.77,6.5-.33,6a16.5,16.5,0,0,1,6.88,1,13.5,13.5,0,0,1,4.79-2Z" class="O"/><path d="M99.77 21a.75.75 0 0 1-.26 0A16 16 0 0 0 93 20a3.83 3.83 0 0 1-4.08-5.51 4.55 4.55 0 0 1 4.31-2.3A16.12 16.12 0 0 1 105 17.27l.14.15a1 1 0 0 1 .23.94.88.88 0 0 1-.7.63 12.63 12.63 0 0 0-4.45 1.84.83.83 0 0 1-.45.17zm-5.7-2.88a19 19 0 0 1 5.58 1 14.85 14.85 0 0 1 3.09-1.46A14.05 14.05 0 0 0 93.22 14a2.85 2.85 0 0 0-2.76 1.32 2 2 0 0 0 .1 1.95 2.19 2.19 0 0 0 2.23.86l1.28-.03z" class="N"/><path d="M74.55 28.92c0-3.22-8.63-1.55-9.93 5.08-.9 4.62 2.53 8.45 5.78 7.4-.8-5.62 4.15-9.25 4.15-12.48z" class="O"/><path d="M69.3 42.5a5 5 0 0 1-3.47-1.5 7.89 7.89 0 0 1-2-7.18c1-5.07 6-7.7 9.1-7.38a2.53 2.53 0 0 1 2.56 2.48c0 1.57-.9 3.1-1.85 4.7-1.28 2.16-2.74 4.62-2.3 7.63a.93.93 0 0 1-.61 1 4.32 4.32 0 0 1-1.42.24zm3-14.24a7.53 7.53 0 0 0-6.85 5.93A6 6 0 0 0 67 39.64a3.33 3.33 0 0 0 2.45 1c-.17-3.27 1.37-5.87 2.63-8 .85-1.44 1.6-2.68 1.6-3.73 0-.45-.54-.6-1-.65z" class="N"/><path d="M110.77 34.73C104.44 37 100 35.36 99.5 32.1c0 0-2.4 2.56-4.83 2.9a10.19 10.19 0 0 0 7 6.74 7.29 7.29 0 0 0 5.55-.68s-.2-2.82 3.57-6.33" class="O"/><path d="M103.6 42.93a7.81 7.81 0 0 1-2.17-.3 11.05 11.05 0 0 1-7.61-7.38 1 1 0 0 1 .12-.76.88.88 0 0 1 .61-.4c2.1-.3 4.3-2.6 4.32-2.63a.88.88 0 0 1 .89-.23.94.94 0 0 1 .6.73A3 3 0 0 0 101.8 34c1.9 1.18 5.14 1.12 8.7-.16a.84.84 0 0 1 1 .4 1 1 0 0 1-.18 1.16c-3.3 3.13-3.24 5.6-3.24 5.6a1 1 0 0 1-.41.84 8.15 8.15 0 0 1-4.06 1.09zm-7.76-7.27a9.29 9.29 0 0 0 6 5.19 6.5 6.5 0 0 0 4.48-.37 9.07 9.07 0 0 1 1.72-4c-2.88.56-5.4.28-7.17-.83a5 5 0 0 1-1.81-1.9 11.06 11.06 0 0 1-3.22 1.91zM65.82 167.62a1 1 0 0 1-.24 0 .93.93 0 0 1-.6-1.15l.66-2.3c1.25-4.12 3-8.93 5.2-14.3a.86.86 0 0 1 1.15-.49 1 1 0 0 1 .45 1.22c-2.18 5.33-3.9 10.08-5.14 14.14l-.65 2.25a.88.88 0 0 1-.84.63zm17.42-15.1a.84.84 0 0 1-.46-.13 1 1 0 0 1-.42-.74l-1-20.83c-1.43 2.9-3.72 7.67-6.12 13.12a.86.86 0 0 1-1.16.45.94.94 0 0 1-.42-1.23c4-9 7.6-16.12 7.64-16.2a.87.87 0 0 1 1-.47.92.92 0 0 1 .68.86l1.07 22.82c4.6-2.37 21.88-11.73 35.66-26a.84.84 0 0 1 1.23 0 1 1 0 0 1 0 1.31c-16.2 16.73-37.12 26.8-37.33 26.9a.78.78 0 0 1-.37.12zm45.08-36.2a.82.82 0 0 1-.53-.19 1 1 0 0 1-.17-1.29 65.76 65.76 0 0 0 5.44-8.8l-9.44-9.9a3.26 3.26 0 0 0-3.69-.76l-1.7.73a.85.85 0 0 1-1.14-.5.93.93 0 0 1 .47-1.2l1.7-.74a4.94 4.94 0 0 1 5.59 1.17l9.9 10.37a1 1 0 0 1 .16 1.08A67.39 67.39 0 0 1 129 116a.84.84 0 0 1-.68.34zm33.58 7.98a.83.83 0 0 1-.49-.17c-1.1-.8-14.88-9.18-24.06-13.82a1 1 0 0 1-.42-1.23.85.85 0 0 1 1.17-.43c9.1 4.6 22.9 12.94 24.3 14a1 1 0 0 1 .21 1.28.86.86 0 0 1-.72.37z" class="N"/></svg>