<svg xmlns="http://www.w3.org/2000/svg" xmlns:xlink="http://www.w3.org/1999/xlink" viewBox="0 0 180 180"><style><![CDATA[.J{fill:#57585a}]]></style><path d="M52.55 63.5c-41.76 7.07-54.5 28.2-49 48.82 8.2 30.65 45.84 53.08 101 45.82 66.2-8.7 81.9-61.28 68.2-94.83-15.6-38.38-59.75-42.9-94.2-20.8" fill="#f7bfb2"/><path d="M118.17 145.6l26.36-7.35a5.68 5.68 0 0 0 3.95-7L119.62 27.8a5.68 5.68 0 0 0-7-3.95l-88.2 24.6a5.69 5.69 0 0 0-4 7L49.3 158.9a5.71 5.71 0 0 0 7 4l42.93-12" fill="#ffb87f"/><path d="M56.33 162.87l88.2-24.6a5.68 5.68 0 0 0 3.95-7L131.12 69a210.73 210.73 0 0 0-31.25 13.25C74.7 95.35 54.25 112.14 41 129.13l8.3 29.78a5.71 5.71 0 0 0 7.02 3.96z" fill="#ffad66"/><path d="M54.8 164a6.57 6.57 0 0 1-6.33-4.8L19.6 55.7a6.59 6.59 0 0 1 4.56-8.1l52.2-14.56a.88.88 0 1 1 .47 1.69L24.64 49.3a4.83 4.83 0 0 0-3.35 5.94l28.86 103.44a4.84 4.84 0 0 0 5.94 3.32l42.93-12a.872.872 0 1 1 .47 1.68l-42.93 12a6.32 6.32 0 0 1-1.76.32zm80.34-79.7a.89.89 0 0 1-.84-.64L118.78 28a4.82 4.82 0 0 0-5.93-3.35L93 30.24a.88.88 0 0 1-.48-1.69L112.37 23a6.58 6.58 0 0 1 8.1 4.56L136 83.2a.87.87 0 0 1-.61 1.07.67.67 0 0 1-.25.04zm-16.97 62.2a.88.88 0 0 1-.23-1.72l26.35-7.35a4.82 4.82 0 0 0 2.91-2.28 4.77 4.77 0 0 0 .44-3.66l-7.78-27.9a.87.87 0 0 1 .61-1.08.86.86 0 0 1 1.07.61l7.8 27.88a6.57 6.57 0 0 1-4.57 8.09l-26.35 7.36z" class="J"/><path d="M111.12 28.1L27.9 51.33l22.95 82.27 19.9 11.23 67.66-18.88-27.3-97.84z" fill="#fff"/><path d="M30.78 62.56a.89.89 0 0 1-.85-.64l-2.88-10.35a.87.87 0 0 1 .6-1.08l83.23-23.22a.87.87 0 0 1 1.08.61.88.88 0 0 1-.61 1.08L29 51.94l2.65 9.5a.87.87 0 0 1-.65 1.07.66.66 0 0 1-.22.04zm100.52 38.8a.88.88 0 0 1-.85-.64l-17.28-62a.872.872 0 1 1 1.68-.47l17.3 62a.87.87 0 0 1-.61 1.08zM70.75 145.7a1 1 0 0 1-.43-.11l-19.9-11.23a.85.85 0 0 1-.41-.52l-17.47-62.6a.88.88 0 0 1 1.69-.47L51.6 133l19.28 10.87 66.47-18.55-3.48-12.45a.88.88 0 1 1 1.69-.47l3.7 13.3a.89.89 0 0 1-.08.66.9.9 0 0 1-.53.41L71 145.67a1 1 0 0 1-.25.03z" class="J"/><path d="M62.87 130.25l3.54-1 4.34 15.57-19.9-11.23 5-1.4" fill="#d0d3da"/><g class="J"><path d="M70.75 145.7a.86.86 0 0 1-.43-.11l-19.9-11.23a.87.87 0 0 1 .2-1.6l5-1.4a.88.88 0 0 1 .47 1.69l-3 .83L69.34 143l-3.54-12.66-2.7.75a.88.88 0 1 1-.47-1.69l3.54-1a.87.87 0 0 1 1.07.6l4.35 15.57a.9.9 0 0 1-.31.93.86.86 0 0 1-.54.2zm2.7-15.2a.88.88 0 0 1-.24-1.72l19.6-5.47a.872.872 0 1 1 .47 1.68l-19.6 5.47a.59.59 0 0 1-.23.04z"/><path d="M70.2 138.9a.88.88 0 0 1-.24-1.72l14.6-4.08a.88.88 0 1 1 .47 1.69l-14.6 4.07a.59.59 0 0 1-.23.04zm29.2-15.65a.88.88 0 0 1-.24-1.72l9.8-2.74a.88.88 0 0 1 .47 1.69l-9.8 2.73a.62.62 0 0 1-.23.04zm18.67-12.7a.86.86 0 0 1-.84-.64.88.88 0 0 1 .6-1.08l6.88-1.9a.872.872 0 1 1 .47 1.68l-6.88 1.92a.91.91 0 0 1-.23.03zM80.93 120.9a.87.87 0 0 1-.24-1.71l30.8-8.6a.88.88 0 1 1 .47 1.69l-30.8 8.6zm-23.65 6.6a.88.88 0 0 1-.23-1.72l17.3-4.78a.872.872 0 1 1 .47 1.68l-17.3 4.83a1 1 0 0 1-.24-.01zm48.57-85.83a.88.88 0 0 1-.24-1.72l3.17-.9a.88.88 0 1 1 .47 1.69l-3.17.88a.66.66 0 0 1-.23.04zM93 45.25a.89.89 0 0 1-.84-.64.87.87 0 0 1 .61-1.08l6.5-1.8a.872.872 0 1 1 .47 1.68l-6.5 1.8a.67.67 0 0 1-.24.04zM35.8 61.2a.88.88 0 0 1-.23-1.72l13.7-3.82a.87.87 0 0 1 1.08.61.86.86 0 0 1-.61 1.07L36 61.18a1 1 0 0 1-.21.03z"/></g><path d="M106.63 73.92c0-1.36-1.64-6.12-5.6-6.53A4.32 4.32 0 0 0 99.1 64a4 4 0 0 0-3.82.08c1.73-3.8-1.56-10.74-6.82-9.3 1.37-1.9-.94-4.9-4.06-4.54a4.72 4.72 0 0 0-2.5 1l.12-.17c-2.17-4.8-9.8-1.53-8.24 4.06-1.56-5.6-9.78-4.44-9.15.8l.16.1a4.72 4.72 0 0 0-2.62.43c-2.86 1.3-3.28 5.06-1.12 6-5.25 1.48-4.48 9.1-1 11.47a4.06 4.06 0 0 0-3.25 1.91 4.35 4.35 0 0 0 .11 3.91c-3.2 2.4-2.12 7.32-1.4 8.5-1.76 1.55-.52 7.1 3.9 14 3.92 6.1 8.53 8.08 13.33 6.6l-.27-1c1.72 1.9 4.5 2.82 7.8 1.9 5.58-1.53 6.9-6.84 5.6-11.54 1.3 4.7 5.2 8.56 10.76 7a7.46 7.46 0 0 0 5.69-5.68l.28 1c4.88-1.2 7.8-5.28 8-12.54.16-8.24-1.65-13.63-3.95-14.05z" fill="#f3a183"/><path d="M106.63 73.92c0-1.36-1.64-6.12-5.6-6.53A4.32 4.32 0 0 0 99.1 64a4 4 0 0 0-3.82.08c1.73-3.8-1.56-10.74-6.82-9.3 1.37-1.9-.94-4.9-4.06-4.54a4.72 4.72 0 0 0-2.5 1l.12-.17c-2.17-4.8-9.8-1.53-8.24 4.06-1.24-4.44-6.67-4.62-8.54-1.88a31.86 31.86 0 0 0 6.18 21.13c9.25 12.88 25.32 17.16 35.88 9.56a19.19 19.19 0 0 0 2.9-2.55c-.58-4.4-1.95-7.2-3.57-7.48z" fill="#f7bfb2"/><g class="J"><path d="M75.47 64.36l-2.5-9a4 4 0 0 0-4.81-3 3 3 0 0 0-2.63 3.43.88.88 0 1 1-1.74.2 4.75 4.75 0 0 1 4-5.35 5.81 5.81 0 0 1 6.84 4.23l2.5 9z"/><path d="M70.9 65.93a.88.88 0 0 1-.87-.78c-.36-3.52-2-6.66-4-7.82a3.64 3.64 0 0 0-3.47-.1 3.37 3.37 0 0 0-2 2.7 1.67 1.67 0 0 0 .59 1.59c.65.44 1.8.3 3.16-.37a.86.86 0 0 1 1.17.39.88.88 0 0 1-.39 1.18c-2.5 1.28-4.1.82-4.9.28a3.4 3.4 0 0 1-1.36-3.17 5.1 5.1 0 0 1 3-4.15 5.36 5.36 0 0 1 5.06.17c2.55 1.45 4.47 5 4.9 9.15a.87.87 0 0 1-.78 1zm1.23 5.92h-.4c-2.4-.2-4-1.2-5.92-3.54a1.88 1.88 0 0 0-1.71-.87 2.09 2.09 0 0 0-1.54 1 .87.87 0 0 1-1.57-.73 3.81 3.81 0 0 1 2.91-2 3.63 3.63 0 0 1 3.28 1.52c1.57 2 2.8 2.73 4.7 2.88a3.55 3.55 0 0 0 3-1.29 4.64 4.64 0 0 0 .61-4.44.88.88 0 0 1 1.69-.47 6.47 6.47 0 0 1-1 6 5.35 5.35 0 0 1-4.05 1.94z"/><path d="M60 74.78a.88.88 0 0 1-.49-.15c-2.23-1.52-3.53-5-3-8a6 6 0 0 1 4.31-5 .87.87 0 1 1 .47 1.68 4.27 4.27 0 0 0-3 3.61c-.4 2.4.6 5.16 2.3 6.3a.88.88 0 0 1-.5 1.6z"/><path d="M70.25 83.86h-.2a.86.86 0 0 1-.84-.9.85.85 0 0 1 .91-.85c1.42.05 3.56-.72 3.73-2.1.32-2.46-2.3-4.3-7-4.95-6.67-.9-8.55-.17-9.32 1.2-.66 1.16-.33 3.6 2 5.2a.881.881 0 0 1-1 1.45c-3-2.06-3.67-5.5-2.54-7.5 1.37-2.4 4.37-3 11.08-2.07 8.6 1.16 8.7 5.57 8.53 6.9-.34 2.52-3.32 3.64-5.36 3.64zm10.85-1.64a.89.89 0 0 1-.84-.64l-1.74-6.27a.872.872 0 0 1 1.68-.47L82 81.1a.87.87 0 0 1-.61 1.08.67.67 0 0 1-.28.04zm3.44 12.28a.85.85 0 0 1-.74-.41c-2-3.15-6.84-2.24-9.74-1.7h-.2C68.2 93.47 64 91.5 62.38 87c-1.3-3.54-.48-5.64.42-6.78a6.62 6.62 0 0 1 6.1-2 .897.897 0 0 1-.22 1.78 4.88 4.88 0 0 0-4.51 1.36c-.9 1.13-1 2.88-.15 5.08 1.7 4.68 6.13 4.9 9.53 4.27h.2c3.12-.6 8.93-1.67 11.54 2.5a.88.88 0 0 1-.28 1.16.84.84 0 0 1-.46.13zm-14.87 15.6c-3.34 0-7.33-1.66-11.06-7.46-4.5-7-6-13.1-3.74-15.1a3.67 3.67 0 0 1 3.56-.86c.92.28 2.6 1.23 3.43 4.43a.88.88 0 0 1-1.7.45c-.45-1.74-1.27-2.9-2.24-3.2a2 2 0 0 0-1.9.51c-1.07 1-.53 5.68 4.06 12.84 3.57 5.56 7.72 7.66 12.34 6.23a.86.86 0 0 1 1.09.57.88.88 0 0 1-.58 1.1 11.14 11.14 0 0 1-3.26.51z"/><path d="M65.63 105.15a.92.92 0 0 1-.51-.17.87.87 0 0 1-.19-1.22c.43-.6 1.5-2.47 1.27-3.94a3.16 3.16 0 0 0-1.26-2.23 4 4 0 0 0-3.23-.16.872.872 0 1 1-.47-1.68 5.6 5.6 0 0 1 4.64.36 4.84 4.84 0 0 1 2.05 3.43c.4 2.5-1.5 5.14-1.6 5.25a.89.89 0 0 1-.71.36zM55.45 89.07a.87.87 0 0 1-.75-.42c-1-1.6-1.9-7 1.63-9.63a.874.874 0 1 1 1.06 1.39c-2.8 2.12-1.65 6.6-1.2 7.34a.88.88 0 0 1-.3 1.2.92.92 0 0 1-.45.12zm15.95-.95a10.73 10.73 0 0 1-1.9-.19.88.88 0 1 1 .34-1.72 6.15 6.15 0 0 0 2.28.1.88.88 0 0 1 1.06.64.89.89 0 0 1-.64 1.05 5.3 5.3 0 0 1-1.14.12zm12.3 5.73L82 87.78c-.5-1.84-1.43-3.06-2.53-3.33-1.3-.33-2.62.72-3.5 1.65a.873.873 0 0 1-1.26-1.21c2.2-2.3 4-2.43 5.2-2.14 1.72.43 3.1 2.1 3.8 4.56l1.7 6.07zm-6 17.05a7.94 7.94 0 0 1-5.33-1.91 8.59 8.59 0 0 1 3.8-14.6 5.53 5.53 0 0 1 4.27.78 5 5 0 0 1 2.19 3.35.873.873 0 1 1-1.72.3 3.34 3.34 0 0 0-1.44-2.2 3.76 3.76 0 0 0-2.91-.52 6.85 6.85 0 0 0-3 11.58 6.75 6.75 0 0 0 6.44 1.15 7 7 0 0 0 4.43-3.28 9.57 9.57 0 0 0 .57-7.18.88.88 0 0 1 1.69-.47 11.35 11.35 0 0 1-.73 8.52 8.75 8.75 0 0 1-5.48 4.1 10.58 10.58 0 0 1-2.78.38zm-.05-6.13h-.2a3.44 3.44 0 0 1-2.85-1.63.88.88 0 0 1 1.49-.93 1.7 1.7 0 0 0 1.44.82 3.57 3.57 0 0 0 2.8-1.42.88.88 0 0 1 1.23-.16.86.86 0 0 1 .16 1.22 5.29 5.29 0 0 1-4.07 2.1zM72.1 76.3a4.78 4.78 0 0 1-.84-.08.88.88 0 0 1 .34-1.72c1.86.37 4-1.5 4-1.52a.874.874 0 0 1 1.17 1.3 8.05 8.05 0 0 1-4.67 2.02zm3.37-11.94l-2.5-9a5.81 5.81 0 0 1 3.67-7.16 4.74 4.74 0 0 1 6.21 2.5.88.88 0 0 1-1.6.72 3 3 0 0 0-4-1.57 4 4 0 0 0-2.57 5l2.5 9z"/><path d="M81.42 63a.87.87 0 0 1-.79-.51c-1.76-3.74-2-7.8-.56-10.36a5.36 5.36 0 0 1 4.25-2.76 5.06 5.06 0 0 1 4.7 2 3.42 3.42 0 0 1 .49 3.43c-.43.93-1.53 2.1-4.34 2.33a.879.879 0 1 1-.17-1.75c1.52-.13 2.57-.6 2.9-1.32a1.69 1.69 0 0 0-.3-1.67 3.36 3.36 0 0 0-3.09-1.28A3.62 3.62 0 0 0 81.6 53c-1.14 2.05-.9 5.57.6 8.77a.87.87 0 0 1-.42 1.16.81.81 0 0 1-.37.07zm-.27 6.32a5.28 5.28 0 0 1-1.76-.32 6.51 6.51 0 0 1-3.92-4.67.88.88 0 0 1 1.69-.47A4.65 4.65 0 0 0 80 67.38a3.59 3.59 0 0 0 3.23-.45c1.53-1.1 2.2-2.38 2.5-4.9a3.63 3.63 0 0 1 2-3 3.79 3.79 0 0 1 3.54.22.87.87 0 0 1 .26 1.21.89.89 0 0 1-1.21.26 2 2 0 0 0-1.85-.1 1.87 1.87 0 0 0-1 1.62c-.4 3-1.3 4.7-3.23 6.1a5.28 5.28 0 0 1-3.1.98z"/><path d="M95.33 64.92a.94.94 0 0 1-.37-.07.87.87 0 0 1-.43-1.16c.84-1.85.27-4.74-1.3-6.58a4.26 4.26 0 0 0-4.48-1.5.88.88 0 0 1-.47-1.69A6 6 0 0 1 94.56 56c2 2.35 2.68 6 1.56 8.43a.86.86 0 0 1-.79.49z"/><path d="M88.28 78.84a3.71 3.71 0 0 1-3-1.32c-.84-1-3-4.88 3.72-10.32 5.28-4.25 8.14-5.32 10.56-4 2 1.13 3.22 4.4 1.7 7.72a.88.88 0 0 1-1.6-.73c1.17-2.55.2-4.8-1-5.47-1.38-.77-3.37-.42-8.6 3.8-3.7 3-5 5.93-3.45 7.87.87 1.1 3.1.67 4.3-.13a.889.889 0 0 1 1 1.47 7 7 0 0 1-3.63 1.11zM84.54 94.5a.89.89 0 0 1-.87-.89c.08-4.9 5.62-7 8.6-8.1l.18-.06c3.24-1.22 6.9-3.7 5.94-8.6-.45-2.3-1.4-3.76-2.76-4.26a4.87 4.87 0 0 0-4.56 1.17.88.88 0 0 1-1.06-1.38 6.58 6.58 0 0 1 6.25-1.44c1.37.5 3.15 1.88 3.88 5.58.92 4.68-1.65 8.53-7 10.57l-.17.06c-2.77 1-7.4 2.78-7.46 6.5a.86.86 0 0 1-.96.86zm18 6.8a.88.88 0 0 1-.21-1.73c4.7-1.16 7.16-5.1 7.33-11.7.22-8.5-1.76-12.83-3.18-13.1a2 2 0 0 0-1.88.55c-.68.76-.77 2.18-.26 3.9a.88.88 0 0 1-1.68.5c-.94-3.17 0-4.85.63-5.57a3.71 3.71 0 0 1 3.5-1.1c3 .54 4.84 6.5 4.62 14.86-.25 9.33-4.85 12.42-8.66 13.36a.76.76 0 0 1-.21.03zm3.7-7.48a1 1 0 0 1-.34-.06c-.12-.06-3.12-1.33-4.07-3.67a4.85 4.85 0 0 1 0-4 5.55 5.55 0 0 1 3.77-2.71.872.872 0 1 1 .47 1.68 4 4 0 0 0-2.67 1.8 3.16 3.16 0 0 0 .07 2.57c.56 1.38 2.45 2.42 3.13 2.7a.89.89 0 0 1 .47 1.15.88.88 0 0 1-.83.53z"/><path d="M106.63 74.8a.88.88 0 0 1-.88-.88c0-.87-1.32-5.3-4.8-5.66a.86.86 0 0 1-.79-1 .88.88 0 0 1 1-.79c4.42.45 6.4 5.54 6.4 7.4a.88.88 0 0 1-.87.88zm-15 7.85a.87.87 0 0 1-.26-1.71 6.49 6.49 0 0 0 1.89-1.26.885.885 0 1 1 1.18 1.32 7.85 7.85 0 0 1-2.55 1.64.82.82 0 0 1-.26.01zm-7.94 11.2L82 87.78c-.68-2.47-.36-4.6.88-5.86.85-.85 2.5-1.7 5.56-.87a.89.89 0 0 1 .62 1.08.87.87 0 0 1-1.07.61c-1.25-.33-2.93-.53-3.86.4s-1 2.32-.44 4.16l1.7 6.07zm10.4 12.5a8.28 8.28 0 0 1-4.1-1.06 11.27 11.27 0 0 1-5-6.91.88.88 0 0 1 1.69-.47 9.49 9.49 0 0 0 4.2 5.85 7 7 0 0 0 5.48.52 6.76 6.76 0 0 0 4.91-4.34 6.85 6.85 0 0 0-8.6-8.34 3.79 3.79 0 0 0-2.21 2 3.23 3.23 0 0 0-.09 2.62.88.88 0 0 1-.5 1.13.86.86 0 0 1-1.13-.49 5 5 0 0 1 .13-4 5.55 5.55 0 0 1 3.25-2.87 8.6 8.6 0 0 1 10.82 10.52A8.56 8.56 0 0 1 96.8 106a9.9 9.9 0 0 1-2.7.35zm-.47-6.08a5.53 5.53 0 0 1-2-.37.88.88 0 0 1-.49-1.14.86.86 0 0 1 1.13-.49A3.52 3.52 0 0 0 95.4 98a1.68 1.68 0 0 0 .81-1.44.88.88 0 1 1 1.75 0 3.4 3.4 0 0 1-1.58 2.87 5 5 0 0 1-2.75.84zM82.76 73.2a9.44 9.44 0 0 1-1.59-.13.88.88 0 1 1 .33-1.72s2.8.52 4.22-.78a.88.88 0 1 1 1.19 1.29 6.19 6.19 0 0 1-4.15 1.34zm-4.4-.82a.88.88 0 0 1-.84-.64l-1.75-6.26a.88.88 0 0 1 1.69-.48l1.74 6.26a.87.87 0 0 1-.61 1.07.59.59 0 0 1-.23.05z"/></g><path d="M86.93 39.88a2 2 0 0 0 1.58-2.11c-.57-6.58-4.34-4.84-8.1-5.72-1.83-.42-2.5-4.7-4.23-6.83s-5.46-1.22-10.65.22-8.85 2.47-9.23 5.32 1.27 6.73-.08 8c-2.77 2.7-6.9 3.16-4 9.1a2 2 0 0 0 2.45 1c8.76-3.13 9.07-3.4 15.9-5.3s7.25-1.8 16.37-3.66z" fill="#999ba1"/><use xlink:href="#B" class="J"/><path d="M65.52 25.44c-5.2 1.45-8.85 2.47-9.23 5.32s1.27 6.73-.08 8c-2.77 2.7-6.9 3.16-4 9.1a2 2 0 0 0 2.45 1l8.7-3.17L75.2 24.42c-.14-2.24-6.97.27-9.67 1.02zm12.1 2.4L68.4 44.2l4.6-1.3 6.46-11.45a15.35 15.35 0 0 1-1.84-3.62z" fill="#d0d3da"/><g class="J"><use xlink:href="#B"/><path d="M62.1 34.9a.88.88 0 0 1-.27-1.71l5.4-1.6 5.45-1.43a.86.86 0 0 1 1 .64.89.89 0 0 1-.65 1.06l-5.38 1.42-5.34 1.57a.84.84 0 0 1-.22.04z"/></g><path d="M133.36 87.28L129 97.38a98.3 98.3 0 0 0-5.48 16.73l-.16.7 3.66 1.57.4-.6a98.48 98.48 0 0 0 8.36-15.5l4.33-10.1z" fill="#6b6d70"/><path d="M127.05 117.27a.89.89 0 0 1-.35-.08l-3.7-1.57a.88.88 0 0 1-.51-1l.17-.7A100.33 100.33 0 0 1 128.22 97l4.34-10.1a.87.87 0 0 1 1.14-.45l6.8 2.9a.84.84 0 0 1 .46.48.82.82 0 0 1 0 .67l-4.33 10.1a99.85 99.85 0 0 1-8.43 15.64l-.4.6a.89.89 0 0 1-.74.43zm-2.65-3l2.32 1A97.57 97.57 0 0 0 135 99.94l4-9.3-5.17-2.22-4 9.3a98.61 98.61 0 0 0-5.43 16.58z" class="J"/><path d="M143.88 62.57a85.78 85.78 0 0 0-7.28 13.51L132 86.7l9.44 4.05L146 80.13a86.75 86.75 0 0 0 4.78-14.59 3.84 3.84 0 0 0-2.22-4.39 3.83 3.83 0 0 0-4.68 1.42z" fill="#6b6d70"/><use xlink:href="#C" class="J"/><path d="M147.27 64a3.81 3.81 0 0 1 2.82-1.7 3.89 3.89 0 0 0-1.5-1.17 3.83 3.83 0 0 0-4.71 1.42 85.78 85.78 0 0 0-7.28 13.51L132 86.7l3.4 1.46 4.6-10.63A85.88 85.88 0 0 1 147.27 64z" fill="#999ba1"/><g class="J"><path d="M123.7 120a.87.87 0 0 1-.8-1.22l1.52-3.56a.886.886 0 1 1 1.59.78l-1.53 3.56a.87.87 0 0 1-.78.44zm21.6-30a.84.84 0 0 1-.3 0 .86.86 0 0 1-.46-1.14l3.38-7.88c1.35-3.15 3.05-8.68 3.94-11.7a2.4 2.4 0 0 0-1.35-2.88.88.88 0 0 1 .69-1.61 4.16 4.16 0 0 1 2.34 5c-.9 3.06-2.63 8.67-4 11.9l-3.44 7.8a.87.87 0 0 1-.8.5z"/><use xlink:href="#C"/></g><defs ><path id="B" d="M54 49.87a2.84 2.84 0 0 1-2.56-1.6c-2.57-5.2 0-7 2.2-8.56a15.08 15.08 0 0 0 2-1.54c.48-.46.23-2.17 0-3.54a15 15 0 0 1-.22-4c.46-3.43 4.4-4.53 9.87-6s9.4-2.62 11.57.07a15.48 15.48 0 0 1 1.87 3.52c.54 1.27 1.22 2.86 1.86 3a15 15 0 0 0 2.48.3c2.72.2 5.8.4 6.3 6.2a2.85 2.85 0 0 1-2.27 3.05l-4.9 1a116.36 116.36 0 0 0-11.41 2.69A116.43 116.43 0 0 0 59.67 48L55 49.7a2.89 2.89 0 0 1-1 .16zM72.92 24.8a30.93 30.93 0 0 0-7.16 1.5c-4.82 1.34-8.3 2.3-8.6 4.6a14.4 14.4 0 0 0 .22 3.5c.3 2 .56 4-.55 5a16 16 0 0 1-2.17 1.72c-2.2 1.56-3.54 2.5-1.63 6.36a1.1 1.1 0 0 0 1.36.56l4.7-1.7a118.25 118.25 0 0 1 11.27-3.64A116.8 116.8 0 0 1 81.88 40l4.88-1a1.11 1.11 0 0 0 .88-1.19c-.38-4.3-2-4.4-4.7-4.6a17 17 0 0 1-2.75-.35c-1.5-.35-2.27-2.13-3.08-4a13.93 13.93 0 0 0-1.63-3.11 3.1 3.1 0 0 0-2.57-.97zm14 15.1z"/><path id="C" d="M141.47 91.63a.87.87 0 0 1-.35-.07l-9.43-4a.9.9 0 0 1-.47-.47.91.91 0 0 1 0-.67l4.56-10.63a87.24 87.24 0 0 1 7.36-13.66 4.71 4.71 0 0 1 8.51 3.66 87 87 0 0 1-4.83 14.74l-4.55 10.57a.85.85 0 0 1-.8.53zm-8.3-5.38L141 89.6l4.22-9.82A86.77 86.77 0 0 0 150 65.35a3 3 0 0 0-5.35-2.3 85.33 85.33 0 0 0-7.21 13.38zm10.7-23.68z"/></defs></svg>