<svg xmlns="http://www.w3.org/2000/svg" xmlns:xlink="http://www.w3.org/1999/xlink" viewBox="0 0 180 180"><path d="M52.5 63.67C10.74 70.73-2 91.86 3.53 112.5c8.2 30.65 45.85 53.08 101 45.82 66.18-8.7 81.9-61.28 68.2-94.83C157.1 25.1 113 20.58 78.5 42.67" fill="#c8c9cc"/><path d="M118.13 145.8l26.35-7.35a5.7 5.7 0 0 0 4-7L119.58 28a5.69 5.69 0 0 0-7-3.95l-88.2 24.6a5.69 5.69 0 0 0-3.95 7L49.27 159.1a5.69 5.69 0 0 0 7 4l42.93-12" fill="#e3e5e8"/><path d="M56.28 163.05l88.2-24.6a5.7 5.7 0 0 0 4-7l-17.4-62.25a210.39 210.39 0 0 0-31.26 13.24C74.65 95.53 54.2 112.3 41 129.3l8.3 29.78a5.69 5.69 0 0 0 6.97 3.96z" fill="#d3d5da"/><path d="M54.75 164.13a6.58 6.58 0 0 1-6.33-4.8L19.56 55.88a6.59 6.59 0 0 1 4.57-8.09l52.2-14.56a.88.88 0 0 1 .47 1.69L24.6 49.48a4.82 4.82 0 0 0-3.35 5.93L50.1 158.86a4.82 4.82 0 0 0 5.94 3.34l42.93-12a.872.872 0 1 1 .47 1.68l-42.93 12a6.74 6.74 0 0 1-1.77.25zM135.1 84.5a.88.88 0 0 1-.84-.64l-15.52-55.63a4.84 4.84 0 0 0-5.94-3.35l-19.88 5.55a.88.88 0 0 1-.47-1.69l19.88-5.55a6.58 6.58 0 0 1 8.09 4.57l15.52 55.62a.87.87 0 0 1-.61 1.08.85.85 0 0 1-.23.04zm-16.97 62.17a.88.88 0 0 1-.24-1.72l26.36-7.35a4.84 4.84 0 0 0 3.35-5.94l-7.8-27.9a.88.88 0 1 1 1.69-.47l7.78 27.9a6.56 6.56 0 0 1-4.56 8.09l-26.36 7.36a.91.91 0 0 1-.23.03z" fill="#57585a"/><path d="M111.07 28.3L27.84 51.5l22.96 82.27L70.7 145l67.66-18.88-27.3-97.84z" fill="#fff"/><path d="M30.73 62.73a.86.86 0 0 1-.84-.64L27 51.75a.87.87 0 0 1 .61-1.08l83.23-23.22a.872.872 0 1 1 .47 1.68l-82.4 23 2.65 9.5A.87.87 0 0 1 31 62.7zm100.53 38.8a.87.87 0 0 1-.84-.64l-17.3-62a.88.88 0 0 1 1.69-.48l17.3 62a.88.88 0 0 1-.61 1.08 1 1 0 0 1-.24.04zM70.7 145.88a.92.92 0 0 1-.43-.11l-19.9-11.23A.87.87 0 0 1 50 134L32.5 71.42a.87.87 0 0 1 .61-1.08.86.86 0 0 1 1.07.61l17.37 62.25 19.28 10.87 66.47-18.55-3.47-12.45a.874.874 0 1 1 1.68-.48l3.7 13.3a.83.83 0 0 1-.08.67.85.85 0 0 1-.52.41l-67.67 18.88a.85.85 0 0 1-.23.03z" fill="#57585a"/><path d="M62.83 130.42l3.53-.98L70.7 145l-19.9-11.23 5-1.4" fill="#d0d3da"/><g fill="#57585a"><path d="M70.7 145.88a.92.92 0 0 1-.43-.11l-19.9-11.23a.87.87 0 0 1 .19-1.6l5-1.4a.88.88 0 0 1 .47 1.69l-3 .83 16.23 9.15-3.54-12.7-2.7.76a.88.88 0 0 1-.47-1.69l3.54-1a.89.89 0 0 1 1.08.61l4.34 15.57a.88.88 0 0 1-.84 1.11zm2.7-15.22a.87.87 0 0 1-.23-1.71l19.6-5.47a.86.86 0 0 1 1.07.6.87.87 0 0 1-.6 1.08l-19.6 5.47a1 1 0 0 1-.24.03z"/><path d="M70.15 139.07a.89.89 0 0 1-.84-.64.87.87 0 0 1 .61-1.08l14.6-4.08a.87.87 0 0 1 1.08.61.89.89 0 0 1-.6 1.12l-14.6 4a1 1 0 0 1-.24.07zm29.2-15.65a.87.87 0 0 1-.23-1.71l9.8-2.74a.88.88 0 1 1 .47 1.69l-9.8 2.73a1 1 0 0 1-.24.03zm18.65-12.7a.88.88 0 0 1-.23-1.72l6.87-1.92a.88.88 0 0 1 .48 1.69l-6.88 1.92a1 1 0 0 1-.24.03zm-37.12 10.36a.88.88 0 0 1-.23-1.72l30.8-8.6a.88.88 0 1 1 .47 1.69l-30.8 8.6a1 1 0 0 1-.24.03zm-23.64 6.6A.88.88 0 0 1 57 126l17.3-4.83a.88.88 0 0 1 .48 1.69l-17.3 4.83a1 1 0 0 1-.24-.01zm48.56-85.84a.87.87 0 0 1-.23-1.71l3.17-.9a.877.877 0 0 1 .47 1.69l-3.17.88zM93 45.42a.87.87 0 0 1-.24-1.71l6.5-1.8a.86.86 0 0 1 1.08.6.87.87 0 0 1-.6 1.08l-6.5 1.8a.85.85 0 0 1-.23.03zM35.75 61.4a.86.86 0 0 1-.84-.64.87.87 0 0 1 .6-1.08l13.7-3.82a.872.872 0 0 1 .47 1.68L36 61.36a.91.91 0 0 1-.25.03z"/></g><path d="M106.58 74.1c0-1.36-1.63-6.12-5.6-6.53a4.32 4.32 0 0 0-1.93-3.39 4 4 0 0 0-3.82.08c1.74-3.8-1.55-10.74-6.8-9.3 1.37-1.9-.93-4.9-4.06-4.54a4.67 4.67 0 0 0-2.5 1l.12-.17c-2.17-4.8-9.8-1.53-8.23 4.06-1.56-5.6-9.78-4.44-9.15.8l.15.1a4.73 4.73 0 0 0-2.62.43c-2.86 1.3-3.28 5.06-1.12 6-5.25 1.48-4.48 9.1-1 11.47a4 4 0 0 0-3.3 1.9 4.3 4.3 0 0 0 .11 3.9c-3.2 2.4-2.12 7.32-1.42 8.5-1.76 1.55-.5 7.1 3.9 14 3.92 6.1 8.53 8.08 13.33 6.6l-.28-1a7.46 7.46 0 0 0 7.81 1.91c5.6-1.53 6.9-6.84 5.6-11.54 1.3 4.7 5.18 8.56 10.76 7a7.46 7.46 0 0 0 5.69-5.68l.28 1c4.88-1.2 7.8-5.28 8-12.54.2-8.22-1.6-13.62-3.9-14.03z" fill="#999ba1"/><path d="M106.58 74.1c0-1.36-1.63-6.12-5.6-6.53a4.32 4.32 0 0 0-1.93-3.39 4 4 0 0 0-3.82.08c1.74-3.8-1.55-10.74-6.8-9.3 1.37-1.9-.93-4.9-4.06-4.54a4.67 4.67 0 0 0-2.5 1l.12-.17c-2.17-4.8-9.8-1.53-8.23 4.06a4.89 4.89 0 0 0-8.54-1.88 31.83 31.83 0 0 0 6.19 21.12c9.25 12.87 25.3 17.15 35.88 9.56a19.6 19.6 0 0 0 2.89-2.55c-.6-4.43-1.97-7.18-3.6-7.47z" fill="#c8c9cc"/><g fill="#57585a"><path d="M75.43 64.54l-2.5-9a4.05 4.05 0 0 0-4.82-3A3 3 0 0 0 65.48 56a.89.89 0 0 1-.77 1 .88.88 0 0 1-1-.77 4.73 4.73 0 0 1 4-5.35 5.81 5.81 0 0 1 6.84 4.23l2.5 9z"/><path d="M70.86 66.1a.88.88 0 0 1-.87-.79c-.37-3.5-2-6.65-4-7.8a3.62 3.62 0 0 0-3.46-.1 3.38 3.38 0 0 0-2 2.7 1.68 1.68 0 0 0 .6 1.59c.64.43 1.8.3 3.16-.37a.87.87 0 0 1 1.17.39.88.88 0 0 1-.4 1.18c-2.53 1.25-4.07.82-4.92.24A3.38 3.38 0 0 1 58.79 60a5.06 5.06 0 0 1 3-4.14 5.36 5.36 0 0 1 5.06.17c2.54 1.45 4.46 5 4.9 9.15a.88.88 0 0 1-.78 1zm1.22 5.9h-.4c-2.38-.2-4-1.18-5.9-3.54a1.91 1.91 0 0 0-1.72-.86 2.11 2.11 0 0 0-1.53 1 .88.88 0 0 1-1.53-.71 3.81 3.81 0 0 1 2.92-2 3.64 3.64 0 0 1 3.28 1.52c1.57 2 2.8 2.73 4.68 2.88a3.59 3.59 0 0 0 3-1.29c.63-.76 1.24-2.15.6-4.44a.872.872 0 1 1 1.68-.47 6.47 6.47 0 0 1-.94 6A5.36 5.36 0 0 1 72.08 72z"/><path d="M60 75a.82.82 0 0 1-.49-.16c-2.23-1.52-3.53-5-3-8a5.93 5.93 0 0 1 4.3-5 .87.87 0 1 1 .48 1.68 4.28 4.28 0 0 0-3.06 3.61c-.4 2.4.62 5.16 2.3 6.3A.88.88 0 0 1 60 75z"/><path d="M70.2 84H70a.88.88 0 0 1-.85-.9.85.85 0 0 1 .91-.85c1.43 0 3.56-.73 3.74-2.12.32-2.45-2.3-4.3-7-4.94-6.67-.9-8.56-.17-9.33 1.2-.65 1.16-.32 3.6 2 5.2a.877.877 0 1 1-1 1.44c-3-2-3.66-5.48-2.53-7.5 1.36-2.42 4.36-3 11.08-2.07 8.6 1.16 8.7 5.57 8.53 6.9-.32 2.56-3.3 3.64-5.34 3.64zm10.87-1.6a.86.86 0 0 1-.84-.64l-1.75-6.26a.87.87 0 0 1 .61-1.07.88.88 0 0 1 1.08.6l1.74 6.26a.87.87 0 0 1-.61 1.08.85.85 0 0 1-.23.03zm3.43 12.27a.89.89 0 0 1-.75-.41c-2-3.15-6.83-2.25-9.73-1.7h-.2c-5.67 1.06-9.86-.9-11.5-5.4-1.3-3.54-.48-5.64.43-6.78a6.6 6.6 0 0 1 6.09-2 .88.88 0 1 1-.22 1.74 4.87 4.87 0 0 0-4.5 1.35c-.9 1.13-1 2.9-.16 5.1 1.7 4.68 6.13 4.9 9.54 4.27h.2c3.12-.6 8.93-1.67 11.54 2.5a.87.87 0 0 1-.28 1.2.82.82 0 0 1-.46.14zM69.63 110.3c-3.35 0-7.34-1.66-11.07-7.47-4.5-7-6-13.1-3.74-15.1a3.72 3.72 0 0 1 3.57-.87c.92.3 2.58 1.24 3.42 4.44a.873.873 0 1 1-1.69.44c-.46-1.74-1.27-2.9-2.24-3.2A2 2 0 0 0 56 89c-1.08 1-.54 5.7 4.06 12.85 3.57 5.56 7.72 7.66 12.33 6.23a.88.88 0 0 1 1.1.57.89.89 0 0 1-.58 1.1 11.14 11.14 0 0 1-3.28.54z"/><path d="M65.6 105.33a.87.87 0 0 1-.51-.17.88.88 0 0 1-.2-1.22 6.44 6.44 0 0 0 1.28-4 3.2 3.2 0 0 0-1.27-2.23 4 4 0 0 0-3.22-.15.88.88 0 0 1-.47-1.69 5.6 5.6 0 0 1 4.64.37 4.87 4.87 0 0 1 2 3.43c.4 2.5-1.5 5.14-1.58 5.25a.89.89 0 0 1-.67.41zM55.4 89.25a.89.89 0 0 1-.75-.42c-1-1.6-1.9-7 1.64-9.64a.87.87 0 0 1 1.22.18.86.86 0 0 1-.17 1.22c-2.8 2.12-1.64 6.6-1.2 7.34a.87.87 0 0 1-.3 1.2.89.89 0 0 1-.45.12zm15.96-.95a10.62 10.62 0 0 1-1.89-.19.88.88 0 0 1 .34-1.72 6.33 6.33 0 0 0 2.27.1.88.88 0 1 1 .42 1.7 5.24 5.24 0 0 1-1.14.11zm12.3 5.7L82 88c-.52-1.85-1.44-3.06-2.53-3.33-1.3-.33-2.62.7-3.5 1.65a.88.88 0 0 1-1.27-1.21c2.2-2.3 4-2.43 5.2-2.14 1.72.43 3.1 2.1 3.78 4.56l1.7 6.07zm-6 17.1a8 8 0 0 1-5.34-1.93 8.51 8.51 0 0 1-2.59-7.64 8.4 8.4 0 0 1 6.4-7 5.53 5.53 0 0 1 4.27.78 5.06 5.06 0 0 1 2.19 3.35.88.88 0 0 1-1.73.3 3.27 3.27 0 0 0-1.44-2.2 3.74 3.74 0 0 0-2.9-.52 6.84 6.84 0 0 0-3 11.58 6.77 6.77 0 0 0 6.41 1.19 7 7 0 0 0 4.42-3.28 9.53 9.53 0 0 0 .56-7.18.88.88 0 0 1 1.69-.47 11.27 11.27 0 0 1-.73 8.51 8.77 8.77 0 0 1-5.48 4.11 10.5 10.5 0 0 1-2.73.4zm-.06-6.1h-.2a3.43 3.43 0 0 1-2.84-1.63.88.88 0 0 1 .28-1.21.86.86 0 0 1 1.2.28 1.74 1.74 0 0 0 1.45.82 3.61 3.61 0 0 0 2.8-1.42.874.874 0 1 1 1.39 1.06 5.31 5.31 0 0 1-4.08 2.1zm-5.55-28.52a4.89 4.89 0 0 1-.85-.08.89.89 0 0 1-.69-1 .87.87 0 0 1 1-.69c1.86.37 4-1.5 4-1.52a.88.88 0 1 1 1.18 1.3 8.09 8.09 0 0 1-4.64 1.99zm3.38-11.94l-2.5-9a5.81 5.81 0 0 1 3.66-7.16 4.73 4.73 0 0 1 6.21 2.5.873.873 0 0 1-1.59.72 3 3 0 0 0-4-1.57 4 4 0 0 0-2.58 5l2.5 9z"/><path d="M81.38 63.17a.88.88 0 0 1-.8-.5c-1.76-3.74-2-7.8-.55-10.36a5.34 5.34 0 0 1 4.24-2.76 5.08 5.08 0 0 1 4.71 2 3.42 3.42 0 0 1 .48 3.45c-.43.94-1.52 2.1-4.34 2.34a.897.897 0 0 1-.12-1.79c1.5-.12 2.57-.6 2.9-1.3a1.67 1.67 0 0 0-.31-1.67 3.36 3.36 0 0 0-3.09-1.28 3.59 3.59 0 0 0-2.91 1.87c-1.14 2.05-.9 5.57.6 8.77a.89.89 0 0 1-.42 1.16.83.83 0 0 1-.39.08zm-.28 6.33a5.49 5.49 0 0 1-1.75-.29 6.47 6.47 0 0 1-3.92-4.67.872.872 0 1 1 1.68-.47c.64 2.3 1.88 3.16 2.82 3.48a3.57 3.57 0 0 0 3.22-.44c1.54-1.1 2.2-2.38 2.5-4.9a3.62 3.62 0 0 1 2-3 3.79 3.79 0 0 1 3.54.22.885.885 0 1 1-1 1.46 2.1 2.1 0 0 0-1.85-.1 1.92 1.92 0 0 0-1 1.63c-.38 3-1.3 4.7-3.23 6.1a5.23 5.23 0 0 1-3.02.98z"/><path d="M95.28 65.1a.78.78 0 0 1-.36-.08.86.86 0 0 1-.43-1.15c.84-1.85.26-4.74-1.3-6.58a4.23 4.23 0 0 0-4.48-1.5.88.88 0 1 1-.46-1.69 6 6 0 0 1 6.27 2c2 2.36 2.7 6 1.57 8.44a.89.89 0 0 1-.8.56z"/><path d="M88.24 79a3.74 3.74 0 0 1-3-1.32c-.83-1-3-4.88 3.72-10.32 5.28-4.25 8.14-5.33 10.56-4 2 1.13 3.23 4.4 1.7 7.72a.875.875 0 0 1-1.59-.73c1.17-2.55.18-4.82-1-5.47-1.37-.77-3.36-.42-8.6 3.8-3.7 3-5 5.93-3.45 7.87.87 1.1 3.1.66 4.3-.13a.889.889 0 0 1 1 1.47A7 7 0 0 1 88.24 79zM84.5 94.67a.88.88 0 0 1-.86-.89c.08-4.9 5.6-7 8.6-8.1l.17-.06c3.24-1.22 6.9-3.7 5.94-8.6-.45-2.3-1.4-3.77-2.76-4.27A4.91 4.91 0 0 0 91 73.91a.88.88 0 0 1-1.09-1.37 6.58 6.58 0 0 1 6.25-1.44c1.36.5 3.15 1.88 3.87 5.58.92 4.68-1.64 8.53-7 10.56l-.18.07c-2.76 1-7.4 2.78-7.45 6.5a.88.88 0 0 1-.91.86zm18 6.83a.88.88 0 0 1-.21-1.73c4.68-1.16 7.15-5.1 7.33-11.7.22-8.5-1.77-12.84-3.18-13.1a2 2 0 0 0-1.89.55c-.67.76-.77 2.18-.26 3.9a.872.872 0 1 1-1.67.5c-1-3.17 0-4.85.63-5.57a3.69 3.69 0 0 1 3.5-1.1c3 .53 4.84 6.5 4.62 14.86-.25 9.33-4.85 12.4-8.66 13.36a.76.76 0 0 1-.21.03zm3.7-7.5a.8.8 0 0 1-.34-.07c-.13-.05-3.13-1.33-4.08-3.67a4.86 4.86 0 0 1 0-4 5.57 5.57 0 0 1 3.78-2.71.87.87 0 0 1 1.08.6.88.88 0 0 1-.61 1.08 4 4 0 0 0-2.68 1.8 3.2 3.2 0 0 0 .07 2.57c.56 1.37 2.45 2.42 3.14 2.7a.88.88 0 0 1 .46 1.15.87.87 0 0 1-.82.54z"/><path d="M106.58 75a.87.87 0 0 1-.87-.87c0-.88-1.32-5.3-4.82-5.66a.875.875 0 0 1 .18-1.74c4.42.45 6.38 5.54 6.4 7.4a.87.87 0 0 1-.88.87zM91.6 82.83a.88.88 0 0 1-.26-1.71 6.38 6.38 0 0 0 1.9-1.27.87.87 0 0 1 1.23.06.88.88 0 0 1 0 1.24 8 8 0 0 1-2.56 1.64 1.09 1.09 0 0 1-.31.04zM83.65 94L82 88c-.7-2.47-.37-4.6.88-5.86.84-.85 2.5-1.7 5.56-.87A.87.87 0 0 1 89 82.3a.86.86 0 0 1-1.07.62c-1.24-.33-2.92-.53-3.86.4-.8.8-1 2.3-.44 4.16l1.7 6.07zm10.4 12.53a8.39 8.39 0 0 1-4.11-1.06 11.31 11.31 0 0 1-5-6.91.88.88 0 0 1 1.69-.47 9.56 9.56 0 0 0 4.2 5.85 7 7 0 0 0 5.48.52 6.74 6.74 0 0 0 4.91-4.35 6.85 6.85 0 0 0-8.59-8.33 3.78 3.78 0 0 0-2.22 2 3.32 3.32 0 0 0-.09 2.62.87.87 0 0 1-.49 1.13.88.88 0 0 1-1.17-.53 5 5 0 0 1 .14-4 5.49 5.49 0 0 1 3.25-2.87 8.4 8.4 0 0 1 9.08 2.64 8.1 8.1 0 0 1-4.37 13.38 10 10 0 0 1-2.71.38zm-.45-6.08a5.5 5.5 0 0 1-2-.37.89.89 0 0 1-.5-1.14.88.88 0 0 1 1.14-.49 3.55 3.55 0 0 0 3.13-.24 1.7 1.7 0 0 0 .81-1.44.86.86 0 0 1 .88-.87.89.89 0 0 1 .87.89 3.43 3.43 0 0 1-1.59 2.87 4.94 4.94 0 0 1-2.74.79zM82.72 73.37a9.49 9.49 0 0 1-1.6-.13.88.88 0 0 1-.69-1 .87.87 0 0 1 1-.69s2.82.5 4.23-.78a.87.87 0 0 1 1.24.05.88.88 0 0 1-.04 1.18 6.14 6.14 0 0 1-4.14 1.37zm-4.4-.8a.89.89 0 0 1-.84-.64l-1.74-6.27a.872.872 0 0 1 1.68-.47l1.75 6.27a.87.87 0 0 1-.61 1.07.67.67 0 0 1-.24.04z"/></g><path d="M86.9 40.06A2 2 0 0 0 88.46 38c-.57-6.6-4.33-4.85-8.1-5.72-1.83-.42-2.5-4.7-4.22-6.84s-5.46-1.22-10.65.23-8.85 2.47-9.24 5.32 1.27 6.73-.07 8c-2.78 2.7-6.9 3.16-4 9.1a2 2 0 0 0 2.44 1c8.77-3.13 9.07-3.4 15.9-5.3s7.26-1.85 16.38-3.7z" fill="#999ba1"/><use xlink:href="#B" fill="#57585a"/><path d="M65.48 25.62c-5.2 1.45-8.85 2.47-9.24 5.32s1.27 6.73-.07 8c-2.78 2.7-6.9 3.16-4 9.1a2 2 0 0 0 2.44 1l8.7-3.18L75.15 24.6c-.15-2.24-6.97.27-9.67 1.02zM77.57 28l-9.22 16.37 2.18-.62 2.47-.67 6.46-11.45A15.24 15.24 0 0 1 77.57 28z" fill="#d0d3da"/><g fill="#57585a"><use xlink:href="#B"/><path d="M62.06 35.08a.88.88 0 0 1-.27-1.71l5.4-1.6 5.45-1.44a.88.88 0 1 1 .41 1.71l-5.4 1.42L62.32 35a.82.82 0 0 1-.26.08z"/></g><path d="M133.32 87.46L129 97.55a99.6 99.6 0 0 0-5.48 16.74l-.16.7 3.66 1.57.4-.6a97.67 97.67 0 0 0 8.36-15.5l4.34-10.1z" fill="#6b6d70"/><path d="M127 117.44a.83.83 0 0 1-.34-.07L123 115.8a.87.87 0 0 1-.51-1l.16-.7a100.37 100.37 0 0 1 5.53-16.88l4.33-10.1a.89.89 0 0 1 1.15-.46l6.78 2.9a1 1 0 0 1 .47.48.91.91 0 0 1 0 .67l-4.33 10.1a100.69 100.69 0 0 1-8.43 15.64l-.4.6a.86.86 0 0 1-.74.39zm-2.64-3l2.32 1a98.4 98.4 0 0 0 8.32-15.32l4-9.3-5.18-2.22-4 9.3a97.71 97.71 0 0 0-5.46 16.58z" fill="#57585a"/><path d="M143.83 62.74a87.16 87.16 0 0 0-7.28 13.52L132 86.9l9.43 4L146 80.3a85.89 85.89 0 0 0 4.79-14.59 3.83 3.83 0 0 0-2.23-4.39 3.83 3.83 0 0 0-4.73 1.41z" fill="#6b6d70"/><use xlink:href="#C" fill="#57585a"/><path d="M147.22 64.2a3.85 3.85 0 0 1 2.83-1.7 3.74 3.74 0 0 0-1.51-1.17 3.83 3.83 0 0 0-4.71 1.41 87.16 87.16 0 0 0-7.28 13.52L132 86.9l3.4 1.45 4.56-10.62a86.26 86.26 0 0 1 7.27-13.52z" fill="#999ba1"/><g fill="#57585a"><path d="M123.64 120.22a.83.83 0 0 1-.34-.07.88.88 0 0 1-.46-1.15l1.53-3.56a.88.88 0 0 1 1.61.69l-1.53 3.56a.88.88 0 0 1-.81.53zm21.62-30.02a.84.84 0 0 1-.35-.07.88.88 0 0 1-.46-1.15l3.38-7.88c1.35-3.14 3-8.67 3.94-11.7a2.38 2.38 0 0 0-1.35-2.88.88.88 0 1 1 .69-1.61 4.14 4.14 0 0 1 2.34 5c-.9 3.06-2.62 8.67-4 11.9l-3.38 7.88a.86.86 0 0 1-.81.51z"/><use xlink:href="#C"/></g><defs ><path id="B" d="M54 50.05a2.86 2.86 0 0 1-2.57-1.6c-2.56-5.2 0-7 2.2-8.56a16 16 0 0 0 2-1.54c.47-.46.23-2.17 0-3.55a14.54 14.54 0 0 1-.22-4c.46-3.43 4.4-4.53 9.86-6s9.4-2.62 11.57.07a14.66 14.66 0 0 1 1.87 3.51c.55 1.28 1.23 2.87 1.87 3a16.16 16.16 0 0 0 2.47.3c2.73.2 5.8.4 6.32 6.2a2.87 2.87 0 0 1-2.28 3.05l-4.9 1a116.21 116.21 0 0 0-11.4 2.69 115.76 115.76 0 0 0-11.15 3.6l-4.7 1.7a2.93 2.93 0 0 1-.96.14zM72.87 25a31.13 31.13 0 0 0-7.16 1.5c-4.8 1.34-8.3 2.3-8.6 4.6a13.46 13.46 0 0 0 .22 3.5c.3 2 .56 4-.55 5a17.56 17.56 0 0 1-2.17 1.72c-2.2 1.55-3.54 2.5-1.64 6.36a1.11 1.11 0 0 0 1.37.56L59 46.55a113.74 113.74 0 0 1 11.3-3.64c5.37-1.5 6.8-1.78 11.53-2.73l4.88-1a1.11 1.11 0 0 0 .88-1.18c-.37-4.3-2-4.4-4.7-4.6a17.25 17.25 0 0 1-2.75-.35c-1.5-.35-2.27-2.14-3.08-4a13.93 13.93 0 0 0-1.62-3.11 3.09 3.09 0 0 0-2.58-.95zm14 15.1z"/><path id="C" d="M141.42 91.8a.83.83 0 0 1-.34-.07l-9.44-4a.84.84 0 0 1-.46-.48.82.82 0 0 1 0-.67l4.56-10.62a87.18 87.18 0 0 1 7.35-13.66 4.71 4.71 0 0 1 8.52 3.66 87.92 87.92 0 0 1-4.83 14.74l-4.56 10.62a.89.89 0 0 1-.8.48zm-8.28-5.38L141 89.8l4.18-9.8a85.66 85.66 0 0 0 4.73-14.45 3 3 0 0 0-5.35-2.29 86.17 86.17 0 0 0-7.21 13.38zm10.7-23.7z"/></defs></svg>