<svg xmlns="http://www.w3.org/2000/svg" viewBox="0 0 180 180"><path d="M94.42 70.73C68.6 57 64.86 19.22 38 26.13 10.14 33.3-9.4 111.68 40.76 148.7c53.34 39.4 135-6.72 128.68-48.56-4.76-31.42-52.06-17.2-75.02-29.42z" fill="#f7bfb2"/><path d="M60.18 88.6C57.24 77 47.6 53.06 22.4 38.6 5 63.75.9 119.28 40.75 148.7c23 17 51.25 18.07 75.46 10.46-36.94-19.97-52.76-57.7-56.03-70.58z" fill="#f3a183"/><path d="M157 37.37l-3.93-3a2.64 2.64 0 0 0-1.58-.53 2.57 2.57 0 0 0-2 .91l-8 9.27-1.12-.86a2.59 2.59 0 0 0-3.63.49l-38.5 50.6-1.94-1.5a2.6 2.6 0 0 0-3.64.49l-14 18.42L68.54 104a2.63 2.63 0 0 0-1.57-.53 2.79 2.79 0 0 0-.58.07 2.61 2.61 0 0 0-1.74 1.36L60 114.12a2.59 2.59 0 0 0 .74 3.22l9.4 7.18-5.4 8.48a2.58 2.58 0 0 0 .61 3.46L81.74 149a2.59 2.59 0 0 0 3.49-.32l15.27-16.88a.52.52 0 0 0 .1-.11l.52-.7.54 8.14a2.6 2.6 0 0 0 2.58 2.42h.17l11.8-.78a2.57 2.57 0 0 0 2.41-2.75l-1.88-28.55a2.63 2.63 0 0 0-1-1.89l-1.94-1.48 38.6-50.6a2.6 2.6 0 0 0-.49-3.64l-1.13-.87 6.84-10.13a2.59 2.59 0 0 0-.62-3.5zm-86.53 56.4a1.8 1.8 0 0 0 .31-.15 1.51 1.51 0 0 0 .18-.09 2.46 2.46 0 0 0 .6-.51l.1-.13 35.15-46.1 1 .78a2.57 2.57 0 0 0 1.58.53 2.61 2.61 0 0 0 2.06-1l2.68-3.52a2.59 2.59 0 0 0-.49-3.63l-8.34-6.37 5.17-6.78 5.43 4.14a2.63 2.63 0 0 0 1.57.53 2.59 2.59 0 0 0 1.57-4.65l-15-11.42a2.59 2.59 0 1 0-3.05 4.1l5.42 4.14-5.17 6.78-8.35-6.37a2.59 2.59 0 0 0-3.63.49l-2.7 3.52a2.62 2.62 0 0 0 .42 3.64l1 .77-35.2 46.23a2.3 2.3 0 0 0-.33.71 1.46 1.46 0 0 0 0 .2 2.27 2.27 0 0 0-.05.34l-.7 9.28-8.86 13.14a2.58 2.58 0 0 0 .58 3.51l.15.12-13.28 17.34a2.593 2.593 0 1 0 4.12 3.15l13.23-17.35.16.12a2.63 2.63 0 0 0 1.57.53 2.6 2.6 0 0 0 2-.9l10.33-12z" fill="#fff"/><path d="M60.18 94.68l9.42-3.34-9.47-7.23-3.75 7.67 3.8 2.9z" fill="#57585a"/><path d="M67.526 64.29L82.27 75.532l-12.6 16.512L54.935 80.8z" fill="#d0d3da"/><path d="M56.38 91.78l3.75-7.67-5.18-3.95-.74 9.97 2.17 1.65z" fill="#6b6d70"/><path d="M46.37 104.9l3.04 2.32 6.97-8.1-3.53-2.7-6.48 8.5z" fill="#57585a"/><path d="M50.95 94.97l-5.98 8.86 1.4 1.07 6.48-8.5-1.9-1.44z" fill="#6b6d70"/><g fill="#57585a"><path d="M60.18 95.56a.85.85 0 0 1-.53-.18l-6-4.55a.9.9 0 0 1-.34-.76l.74-10a.86.86 0 0 1 .51-.74.89.89 0 0 1 .89.1l14.68 11.2a.89.89 0 0 1 .34.83.87.87 0 0 1-.58.69l-9.42 3.35a.93.93 0 0 1-.29.05zm-5.06-5.84l5.2 4 7.46-2.65-12.1-9.24z"/><path d="M49.4 108.1a.85.85 0 0 1-.53-.18l-4.44-3.4a.87.87 0 0 1-.2-1.18l9.25-13.7a.85.85 0 0 1 .58-.37.88.88 0 0 1 .67.16l6 4.56a.88.88 0 0 1 .34.6.84.84 0 0 1-.21.66l-10.8 12.54a.88.88 0 0 1-.66.31zm-3.26-4.46l3.13 2.36 9.63-11.2-4.5-3.43zM69.6 92.2a.85.85 0 0 1-.53-.18L54.42 80.86a.88.88 0 0 1-.16-1.23L91 31.47a.88.88 0 0 1 1.23-.16.88.88 0 0 1 .16 1.23L56.18 80l13.26 10.1 36.2-47.46a.88.88 0 0 1 1.23-.16.86.86 0 0 1 .16 1.22L70.3 91.87a.88.88 0 0 1-.58.33z"/><path d="M103.48 41.88a.89.89 0 0 1-.53-.18L88.07 30.35a.88.88 0 0 1-.16-1.23.86.86 0 0 1 1.22-.12L104 40.3a.87.87 0 0 1-.53 1.57zm5.94 4.52a.87.87 0 0 1-.53-.18l-3.08-2.35a.874.874 0 1 1 1.06-1.39l2.38 1.82 1.63-2.13-19.42-14.82-.26.34a.88.88 0 0 1-1.23.16.86.86 0 0 1-.16-1.22l.78-1a.89.89 0 0 1 1.23-.16l20.8 15.88a.83.83 0 0 1 .34.57.88.88 0 0 1-.17.65l-2.7 3.52a.86.86 0 0 1-.69.31zM79.72 74a.87.87 0 0 1-.53-.18l-9.86-7.52a.88.88 0 0 1-.16-1.23.86.86 0 0 1 1.22-.16l9.86 7.52a.88.88 0 0 1-.53 1.57zm37.78-44.24a.89.89 0 0 1-.53-.18L102 18.15a.87.87 0 0 1-.17-1.22.88.88 0 0 1 1.23-.17l15 11.42a.88.88 0 0 1-.53 1.58z"/><path d="M101.7 35a.85.85 0 0 1-.53-.18.88.88 0 0 1-.17-1.23l8.32-10.9a.88.88 0 0 1 1.23-.17.89.89 0 0 1 .16 1.23l-8.32 10.9a.86.86 0 0 1-.69.35zM74.8 70.22a.89.89 0 0 1-.53-.18.88.88 0 0 1-.16-1.23l21-27.47a.88.88 0 0 1 1.23-.16.86.86 0 0 1 .16 1.22l-21 27.47a.89.89 0 0 1-.7.35zm-1.1 16.6a.83.83 0 0 1-.53-.18l-4.34-3.3A.87.87 0 0 1 69.89 82l4.34 3.3a.88.88 0 0 1 .17 1.23.85.85 0 0 1-.7.29zm5.72-7.5a.89.89 0 0 1-.53-.18l-2.7-2.06a.874.874 0 1 1 1.06-1.39L80 77.76a.88.88 0 0 1-.54 1.57zm5.73-7.5a.85.85 0 0 1-.53-.18l-4.35-3.3A.88.88 0 1 1 81.34 67l4.34 3.3a.88.88 0 0 1-.53 1.57zm5.72-7.5a.87.87 0 0 1-.53-.18l-2.7-2.06a.88.88 0 0 1-.16-1.23.86.86 0 0 1 1.22-.16l2.7 2.06a.88.88 0 0 1-.53 1.57zm5.73-7.5a.89.89 0 0 1-.53-.18l-4.34-3.3A.87.87 0 1 1 92.78 52l4.34 3.3a.88.88 0 0 1 .17 1.23.91.91 0 0 1-.7.29zm5.7-7.5a.89.89 0 0 1-.53-.18l-2.7-2.06a.874.874 0 1 1 1.06-1.39l2.7 2.06a.87.87 0 0 1-.53 1.57zM32.38 125.8a.89.89 0 0 1-.53-.18.86.86 0 0 1-.16-1.22L46.5 105a.874.874 0 1 1 1.39 1.06l-14.8 19.4a.91.91 0 0 1-.7.34z"/></g><path d="M103.54 128.213l11.794-.777.708 10.747-11.794.777z" fill="#ffb87f"/><path d="M103.536 128.223l4.27-.28.708 10.747-4.27.28z" fill="#ffad66"/><path d="M94.726 94.83l19.423 14.818-15.618 20.473-19.423-14.818z" fill="#6b6d70"/><path d="M94.732 94.83l5.645 4.306-15.618 20.473-5.645-4.306z" fill="#d0d3da"/><path d="M134.176 51.42l11.417 8.7-14.418 18.898-11.417-8.7z" fill="#6b6d70"/><path d="M134.177 51.423l3.323 2.535-14.418 18.898-3.323-2.535z" fill="#d0d3da"/><path d="M85.78 120.38l-6.67-5.08-12.14-9.27-4.64 9.25 11.3 8.63-6.7 10.52L83.3 146.9l15.23-16.8-12.76-9.74z" fill="#ffb87f"/><path d="M73.64 123.9l-6.7 10.52L83.3 146.9c2.32-11.1-4.6-26-18-37.46l-2.93 5.83z" fill="#ffad66"/><g fill="#57585a"><path d="M103.53,129.1a.88.88,0,0,1-.87-.82l-.25-3.88a.87.87,0,1,1,1.74-.12l.2,3,10.05-.66-1.12-16.93a.88.88,0,0,1,1.75-.11l1.17,17.8a.88.88,0,0,1-.81.93l-11.8.77Z"/><path d="M104.24 139.84a.87.87 0 0 1-.87-.82l-.7-10.74a.9.9 0 0 1 .22-.64.86.86 0 0 1 .6-.29l11.8-.78a.87.87 0 0 1 .93.82l.7 10.74a.87.87 0 0 1-.82.93l-11.8.78zm.23-10.8l.6 9 10-.66-.6-9zm42.8-76.58a.85.85 0 0 1-.53-.18l-5.3-4a.88.88 0 0 1 1.06-1.4l4.56 3.48 7.22-10.7-2.62-2-6.66 7.72a.89.89 0 0 1-1.24.09.87.87 0 0 1-.09-1.24l7.2-8.37a.87.87 0 0 1 1.19-.12l3.94 3a.88.88 0 0 1 .2 1.19L148 52.08a.85.85 0 0 1-.58.37z"/><path d="M110.15 107.46a.83.83 0 0 1-.53-.18l-11.4-8.7a.87.87 0 0 1-.21-1.22l40.18-52.67a.88.88 0 0 1 .58-.33.83.83 0 0 1 .64.17l11.42 8.7a.88.88 0 0 1 .17 1.23l-30 39.42a.87.87 0 0 1-1.22.16l-8.58-6.54a.88.88 0 1 1 1.06-1.4l7.88 6 29-38-10-7.65L100 97.7l10 7.65 7.46-9.77a.87.87 0 1 1 1.39 1.06l-8 10.47a.85.85 0 0 1-.7.34z"/><path d="M131.18 79.9a.85.85 0 0 1-.53-.18L119.23 71a.86.86 0 0 1-.16-1.22l14.4-18.9a.86.86 0 0 1 .58-.34.89.89 0 0 1 .65.17l11.42 8.7a.88.88 0 0 1 .16 1.23l-14.4 18.9a1 1 0 0 1-.58.34zM121 70.15l10 7.65 13.36-17.5-10-7.64zM98.54 131a.87.87 0 0 1-.53-.18L78.58 116a.87.87 0 0 1-.16-1.22l7.8-10.24a.874.874 0 0 1 1.39 1.06l-7.28 9.54 18 13.76 14.56-19.08-18-13.76-5 6.52a.87.87 0 0 1-1.22.17.88.88 0 0 1-.17-1.23L94 94.3a.87.87 0 0 1 1.22-.16L114.7 109a.88.88 0 0 1 .33.58.82.82 0 0 1-.17.64l-15.62 20.43a.88.88 0 0 1-.69.35z"/><path d="M83.3 147.78a.84.84 0 0 1-.53-.17l-16.37-12.5a.86.86 0 0 1-.2-1.16l6.26-9.84L61.8 116a.88.88 0 0 1-.25-1.09l4.64-9.25a.87.87 0 0 1 1.31-.3l31.57 24.08a.88.88 0 0 1 .12 1.28L84 147.5a.88.88 0 0 1-.69.28zm-15.2-13.56l15.1 11.5 14-15.5-30-22.86-3.76 7.63 10.73 8.18a.89.89 0 0 1 .21 1.17z"/></g></svg>