<svg xmlns="http://www.w3.org/2000/svg" viewBox="0 0 180 180"><path d="M94.6 70.74C68.74 57.1 64.86 19.35 38 26.36c-27.83 7.28-47.07 85.73 3.23 122.57 53.5 39.2 135-7.24 128.5-49.05-4.87-31.4-52.12-17-75.12-29.14z" fill="#c8c9cc"/><path d="M60.44 88.74c-3-11.55-12.73-35.5-38-49.86C5.2 64.1 1.27 119.66 41.24 148.93c23.06 16.9 51.32 17.87 75.5 10.17-37.02-19.83-52.98-57.5-56.3-70.36z" fill="#999ba1"/><path d="M157.1 37.14l-4-3a2.63 2.63 0 0 0-1.58-.52 2.57 2.57 0 0 0-2 .91l-7.93 9.3-1.03-.83a2.55 2.55 0 0 0-1.57-.52 2.58 2.58 0 0 0-2.06 1l-38.4 50.77-2-1.48a2.55 2.55 0 0 0-1.53-.52 2.61 2.61 0 0 0-2.06 1L79 111.74l-10.1-7.65a2.63 2.63 0 0 0-1.57-.53 2.79 2.79 0 0 0-.58.07A2.58 2.58 0 0 0 65 105l-4.6 9.27a2.59 2.59 0 0 0 .75 3.22l9.44 7.14-5.38 8.53a2.56 2.56 0 0 0 .63 3.45l16.4 12.4a2.58 2.58 0 0 0 3.49-.33l15.3-17 .52-.7.57 8.13a2.59 2.59 0 0 0 2.6 2.41h.17l11.8-.83a2.58 2.58 0 0 0 2.4-2.76l-2-28.54a2.59 2.59 0 0 0-1-1.89l-2-1.47 38.4-50.75a2.59 2.59 0 0 0-.5-3.63l-1.12-.85 6.8-10.16a2.6 2.6 0 0 0-.55-3.48zM70.75 93.88a1.86 1.86 0 0 0 .31-.14l.18-.1a2.46 2.46 0 0 0 .6-.51L72 93l35-46.22 1 .78a2.6 2.6 0 0 0 3.63-.51l2.67-3.53a2.59 2.59 0 0 0-.5-3.63l-8.37-6.33 5.15-6.8 5.42 4.1a2.56 2.56 0 0 0 1.57.53 2.59 2.59 0 0 0 1.56-4.66l-15-11.37a2.62 2.62 0 0 0-1.57-.52A2.59 2.59 0 0 0 101 19.5l5.44 4.12-5.14 6.8-8.37-6.34a2.63 2.63 0 0 0-1.58-.52 2.59 2.59 0 0 0-2 1l-2.68 3.53a2.6 2.6 0 0 0 .51 3.63l1 .77-35.1 46.36a3.06 3.06 0 0 0-.33.71 1.77 1.77 0 0 0 0 .2 2.12 2.12 0 0 0-.06.34l-.65 9.3-8.92 13.2a2.6 2.6 0 0 0 .59 3.51l.16.12-13.17 17.4a2.65 2.65 0 0 0-.5 1.92 2.54 2.54 0 0 0 1 1.71 2.58 2.58 0 0 0 3.63-.5L48 109.35l.16.12a2.64 2.64 0 0 0 1.58.53 2.6 2.6 0 0 0 2-.91L62 97z" fill="#fff"/><path d="M60.46 94.83l9.4-3.38-9.5-7.2-3.72 7.7 3.8 2.9z" fill="#57585a"/><path d="M67.637 63.867L82.332 74.99 69.876 91.447 55.18 80.324z" fill="#d0d3da"/><path d="M56.65 91.94l3.72-7.7-5.2-3.92-.7 9.97 2.17 1.64z" fill="#6b6d70"/><path d="M46.7 105.1l3.05 2.3 6.94-8.14-3.54-2.7-6.45 8.52z" fill="#57585a"/><path d="M51.24 95.15l-5.95 8.9 1.4 1.06 6.45-8.52-1.9-1.43z" fill="#6b6d70"/><g fill="#57585a"><path d="M60.47 95.7a.9.9 0 0 1-.53-.17L54 91a.9.9 0 0 1-.34-.76l.7-10a.87.87 0 0 1 1.4-.63L70.4 90.75a.86.86 0 0 1 .34.83.88.88 0 0 1-.57.69l-9.4 3.38a.74.74 0 0 1-.29.05zm-5.1-5.8l5.23 4 7.45-2.67L55.94 82z"/><path d="M49.74 108.28a.88.88 0 0 1-.53-.17l-4.45-3.37a.88.88 0 0 1-.2-1.19l9.2-13.74a.9.9 0 0 1 .58-.37.87.87 0 0 1 .68.16l6 4.53a.89.89 0 0 1 .14 1.27L50.4 108a.85.85 0 0 1-.66.28zm-3.27-4.44l3.14 2.37L59.2 95l-4.5-3.4zm23.4-11.52a.9.9 0 0 1-.54-.18L54.65 81a.87.87 0 0 1-.17-1.22L91 31.5a.88.88 0 1 1 1.4 1.06l-36 47.6 13.3 10.06 36-47.6a.874.874 0 1 1 1.39 1.06L70.57 92a.86.86 0 0 1-.58.34z"/><path d="M103.56 41.86a.89.89 0 0 1-.53-.18L88.1 30.4a.881.881 0 0 1 1.07-1.4l14.92 11.3a.87.87 0 0 1-.53 1.57zm5.96 4.5a.84.84 0 0 1-.53-.17l-3.1-2.34a.88.88 0 0 1 1-1.4l2.4 1.8 1.7-2.13-19.5-14.72-.26.34a.874.874 0 1 1-1.39-1.06l.78-1a.89.89 0 0 1 1.23-.17l20.87 15.8a.86.86 0 0 1 .34.58.89.89 0 0 1-.17.65L110.2 46a.88.88 0 0 1-.69.36zm-29.6 27.7a.89.89 0 0 1-.53-.18l-9.9-7.47a.88.88 0 0 1 1-1.4l9.9 7.48a.89.89 0 0 1 .17 1.23.86.86 0 0 1-.65.35zm37.62-44.37a.86.86 0 0 1-.53-.17l-15-11.37a.88.88 0 0 1 1.05-1.4l15 11.37a.87.87 0 0 1-.52 1.57z"/><path d="M101.75 34.94a.89.89 0 0 1-.53-.18.88.88 0 0 1-.17-1.23l8.28-10.93a.86.86 0 0 1 1.22-.17.87.87 0 0 1 .17 1.22l-8.27 10.94a1 1 0 0 1-.7.35zM75 70.3a.89.89 0 0 1-.53-.18.88.88 0 0 1-.17-1.23l20.83-27.55a.88.88 0 1 1 1.4 1.06L75.68 70a.89.89 0 0 1-.68.31zm-1 16.63a.87.87 0 0 1-.53-.18l-4.36-3.3a.89.89 0 0 1-.17-1.23.88.88 0 0 1 1.23-.17l4.35 3.3a.88.88 0 0 1 .17 1.23.86.86 0 0 1-.69.35zm5.65-7.53a.87.87 0 0 1-.53-.18l-2.7-2.06a.87.87 0 0 1 1-1.39l2.7 2a.87.87 0 0 1 .17 1.23.92.92 0 0 1-.64.4zm5.7-7.52a.88.88 0 0 1-.53-.17l-4.35-3.3A.88.88 0 0 1 81.51 67l4.36 3.3a.87.87 0 0 1-.53 1.57zM91 64.36a.85.85 0 0 1-.53-.18l-2.72-2.05a.88.88 0 1 1 1.06-1.4l2.7 2.06a.87.87 0 0 1-.52 1.57zm5.73-7.52a.87.87 0 0 1-.53-.18l-4.36-3.3A.87.87 0 1 1 92.9 52l4.35 3.3a.87.87 0 0 1 .17 1.23.86.86 0 0 1-.69.32zm5.7-7.54a.82.82 0 0 1-.53-.17l-2.7-2.06a.87.87 0 1 1 1-1.39l2.82 2.05a.87.87 0 0 1-.53 1.57zm-69.64 76.76a.87.87 0 0 1-.7-1.4l14.74-19.47a.874.874 0 0 1 1.39 1.06l-14.73 19.47a.88.88 0 0 1-.7.34z"/></g><path d="M103.958 128.202l11.79-.822.75 10.744-11.79.822z" fill="#e3e5e8"/><path d="M103.956 128.2l4.27-.298.75 10.744-4.27.298z" fill="#d3d5da"/><path d="M95.016 94.836l19.48 14.743-15.54 20.532-19.48-14.743z" fill="#6b6d70"/><path d="M95.016 94.838l5.66 4.285-15.54 20.532-5.66-4.285z" fill="#d0d3da"/><path d="M134.294 51.288l11.45 8.666L131.4 78.908l-11.45-8.666z" fill="#6b6d70"/><path d="M134.294 51.274l3.333 2.523-14.345 18.954-3.333-2.523z" fill="#d0d3da"/><path d="M86.16 120.43l-6.68-5.06-12.18-9.22-4.6 9.27L74.03 124l-6.65 10.54 16.4 12.43 15.17-16.85-12.8-9.7z" fill="#e3e5e8"/><path d="M74 124l-6.65 10.55L83.8 147c2.27-11.1-4.72-26-18.2-37.38l-2.9 5.84z" fill="#d3d5da"/><g fill="#57585a"><path d="M104 129.07a.87.87 0 0 1-.88-.81l-.27-3.88a.87.87 0 0 1 .82-.93.86.86 0 0 1 .93.81l.2 3 10-.7-1.17-16.93a.87.87 0 0 1 1.74-.12l1.24 17.8a.87.87 0 0 1-.81.93l-11.8.82z"/><path d="M104.7 139.82a.89.89 0 0 1-.88-.82l-.75-10.74a.9.9 0 0 1 .22-.63.83.83 0 0 1 .6-.3l11.8-.83a.88.88 0 0 1 .93.82l.75 10.74a.85.85 0 0 1-.21.63.83.83 0 0 1-.6.3l-11.8.82zm.18-10.8l.63 9 10-.7-.62-9zm42.52-76.74a.85.85 0 0 1-.53-.18l-5.3-4a.88.88 0 0 1 1-1.4l4.58 3.46 7.18-10.73-2.63-2-6.63 7.77a.87.87 0 0 1-1.23.09.86.86 0 0 1-.1-1.23l7.16-8.4a.87.87 0 0 1 1.19-.13l3.95 3a.88.88 0 0 1 .2 1.19l-8.16 12.2a.85.85 0 0 1-.58.37z"/><path d="M110.5 107.42a.85.85 0 0 1-.53-.18L98.5 98.57a.86.86 0 0 1-.17-1.22l40-52.82a.86.86 0 0 1 .58-.34.87.87 0 0 1 .64.17L151 53a.87.87 0 0 1 .17 1.22L121.23 93.8A.87.87 0 0 1 120 94l-8.6-6.5a.88.88 0 0 1 1.06-1.4l7.9 6 28.87-38.2-10-7.62-38.97 51.43 10 7.6 7.42-9.8a.88.88 0 0 1 1.4 1l-7.95 10.5a.86.86 0 0 1-.64.4z"/><path d="M131.4 79.78a.85.85 0 0 1-.53-.18l-11.46-8.67a.86.86 0 0 1-.16-1.22l14.34-19a.94.94 0 0 1 .58-.34.87.87 0 0 1 .64.17l11.46 8.67a.89.89 0 0 1 .17 1.23l-14.35 19a.86.86 0 0 1-.58.34zm-10.23-9.7l10 7.6 13.3-17.56-10.05-7.6zM99 131a.89.89 0 0 1-.53-.18L79 116.07a.88.88 0 0 1-.17-1.23l7.77-10.26a.88.88 0 0 1 1.4 1l-7.3 9.62 18.1 13.7 14.48-19.14-18.08-13.7-5 6.55a.88.88 0 1 1-1.4-1.06l5.48-7.24a.89.89 0 0 1 1.23-.17l19.5 14.74a.94.94 0 0 1 .34.58.89.89 0 0 1-.17.65l-15.5 20.53a.89.89 0 0 1-.66.36z"/><path d="M83.8 147.84a.9.9 0 0 1-.54-.18l-16.4-12.42a.87.87 0 0 1-.21-1.16l6.22-9.87-10.7-8.1a.88.88 0 0 1-.26-1.09l4.6-9.27a.89.89 0 0 1 .59-.46.87.87 0 0 1 .73.16l31.66 23.96a.88.88 0 0 1 .34.61.9.9 0 0 1-.22.67l-15.17 16.85a.87.87 0 0 1-.64.29zm-15.25-13.5l15.13 11.45 14-15.54L67.6 107.5l-3.8 7.67 10.76 8.14a.88.88 0 0 1 .21 1.17z"/></g></svg>