<svg xmlns="http://www.w3.org/2000/svg" viewBox="0 0 180 180"><style><![CDATA[.I{fill:#57585a}.J{fill:#fff}.K{fill:#ffad66}.L{fill:#ffb87f}.M{fill:#fef0e5}]]></style><path d="M111.63 135.75c4.37 7.4 11.92 14.62 11.92 14.62 10.66.07 30.8-12.55 41.88-27.85s13.5-42.68 9.83-46.2c-7.2-6.94-20.17-11-35.68-11l-23.48 5.3a105.61 105.61 0 0 0-23.19 13.17C82.7 90.7 78.06 98 78.06 98" class="L"/><path d="M132.82 66.83L116.1 70.6a105.61 105.61 0 0 0-23.19 13.17C82.7 90.7 78.06 98 78.06 98l33.57 37.8c4.37 7.4 11.92 14.62 11.92 14.62 7.84 0 20.8-6.77 31.53-16.47-.08-34.2-2-53.95-22.26-67.12z" class="K"/><path d="M97.05 86.7l-4.42-2.73c-10 6.87-14.57 14-14.57 14l33.57 37.8 11.08-18.58c-9.56-15.48-17.65-25-25.66-30.5z" class="J"/><path d="M92.9 84.65a.86.86 0 0 1-.68-.33.87.87 0 0 1 .14-1.23 108.43 108.43 0 0 1 23.39-13.29.88.88 0 0 1 .67 1.62 106 106 0 0 0-23 13 .86.86 0 0 1-.52.23z" class="I"/><path d="M133.64 53.8a10.69 10.69 0 0 1-10.26-4.48c5-2.17 5.72-8 2.22-10.38-3.33-2.27-7.3 3.82-7.3 3.82a2.81 2.81 0 0 1-2.68-3.25l.6-3.82s-6.67.34-7.3-7.46l-9.66.76c-2.76 3.1-1.66 7.8-1.66 10.44 0 3.35-6.77 7-5.88 8.73.7 1.36 4.64 2.34 5.47 2.5s.12 3.76.26 8.6 5.7 5.5 10.73 3.6a21.54 21.54 0 0 0 3.5-1.74l8.8 18.92c9.56-3.8 19.1-14.74 19.1-14.74z" class="J"/><path d="M120.48 80.93a.9.9 0 0 1-.81-.52l-.36-.83-8-17.2a20.72 20.72 0 0 1-2.8 1.32c-3.76 1.42-7.47 1.38-9.68-.1a5.13 5.13 0 0 1-2.24-4.3l.1-5.08a21.8 21.8 0 0 0 0-2.76c-1.15-.26-4.9-1.24-5.75-2.9-.7-1.4.77-2.83 2.48-4.5 1.47-1.43 3.3-3.22 3.3-4.63 0-.5 0-1.1-.1-1.76-.2-2.74-.48-6.5 2-9.26a.88.88 0 0 1 .58-.29l9.67-.76a.87.87 0 0 1 .94.8c.55 6.88 6.15 6.68 6.38 6.66a.87.87 0 0 1 .7.29.9.9 0 0 1 .21.72l-.6 3.82a2 2 0 0 0 1.42 2.17c.8-1.08 2.92-3.7 5.32-4.2a3.69 3.69 0 0 1 2.87.58 5.93 5.93 0 0 1 2.51 5.54 7.78 7.78 0 0 1-3.89 5.88 9.73 9.73 0 0 0 8.8 3.36.87.87 0 0 1 .88.46l6 11.5a.87.87 0 0 1-.12 1c-.4.46-9.8 11.14-19.44 15a1 1 0 0 1-.37-.03zm-8-20.08l8.4 18.07c7.93-3.5 15.77-11.75 17.6-13.75l-5.4-10.42a11.46 11.46 0 0 1-10.49-5 .89.89 0 0 1 .39-1.27 6.09 6.09 0 0 0 3.83-4.93 4.15 4.15 0 0 0-1.75-3.93 2 2 0 0 0-1.54-.31c-1.88.37-3.9 2.93-4.53 3.9a1 1 0 0 1-.76.39 3.67 3.67 0 0 1-2.72-1.33 3.73 3.73 0 0 1-.8-2.93l.46-2.87c-2-.26-6.22-1.5-7.06-7.33l-8.45.66C98 32 98.2 35.08 98.4 37.55c0 .68.1 1.32.1 1.9 0 2.15-2 4.13-3.84 5.88-.84.83-2.12 2.07-2.13 2.5.36.67 3.1 1.64 4.85 2 1.24.25 1.17 1.66 1 4.48-.06 1.37-.14 3.07-.1 5a3.37 3.37 0 0 0 1.47 2.89c1.72 1.16 4.9 1.12 8.08-.1a19.35 19.35 0 0 0 3.35-1.67.88.88 0 0 1 1.19.28 1.14 1.14 0 0 1 .15.13z" class="I"/><path d="M117.66 56.12a15.57 15.57 0 0 1-3.42 3.22l-2.53 1.85 8.4 18 .37.83.34-.14c3.25-1.83 1.03-16.25-3.16-23.76z" class="M"/><path d="M111.68 61.13l8.43 18.1" class="J"/><path d="M120.1 80.1a.86.86 0 0 1-.79-.51l-8.43-18.1a.88.88 0 0 1 .42-1.16.89.89 0 0 1 1.17.42l8.42 18.1a.88.88 0 0 1-.42 1.17 1 1 0 0 1-.37.08z" class="I"/><path d="M79.5 23.64c-4.1-4.2-11-3-16-2L50.8 24.18c-10.94 2.16-11.32 8.75-10.55 14.73s-5.24 9.67-9.8 15.14A17.75 17.75 0 0 0 26 64.87c10.94 11.33 28.73 4.45 28.86 3.18.4-3.93-4.56-15.3-4.56-15.3-5.22.9-8.27-5.07-5.47-8.25 2.66-3 6.74 1.15 6.74 1.15l1.3-.38A1.87 1.87 0 0 0 54.13 43l-.8-2.93 7.26-9.8c2.92 1.78 15 3.43 15 3.43a21.42 21.42 0 0 0-.23 5.84l.87-.1c6.12-1.28 8.87-10.06 3.27-15.8z" class="L"/><path d="M95.5 89a72.28 72.28 0 0 0-19.39-8.92c1.67 8 2.37 18.68-5.13 21.1-12.3 3.95-29.27-9.72-38.26-19.57a139.07 139.07 0 0 0-15.53 9.77A65.78 65.78 0 0 0 5.74 102s4 37.15 46.42 51.8c48.5 16.73 81.06-12.64 81.06-12.64C120.33 117 108.1 97.6 95.5 89z" fill="#f3a183"/><path d="M32.7 119.2L23 135.73a73.13 73.13 0 0 0 29.16 18.09l1.44.47c-.33-24.67-20.9-35.08-20.9-35.08zm-5.5-34.46a138.86 138.86 0 0 0-10 6.6A65.78 65.78 0 0 0 5.74 102a40.43 40.43 0 0 0 1.06 5.2c20.7 3.6 25.58-8.42 20.4-22.46zm68.13 73.14c-.2-4.44.44-10 2.84-18.54a46.5 46.5 0 0 0 1.34-6.22c-13.76 2.44-22 15.43-18.8 25.84a83.85 83.85 0 0 0 14.63-1.08zM95.5 89l-3.3-2.07c.5 5.77 7.22 11.2 16.35 15.5-6.93 8.87-4.9 27.18 1.7 51.6 14.6-5.27 23-12.82 23-12.82C120.33 117 108.1 97.6 95.5 89z" fill="#f78668"/><g class="I"><path d="M139.58 35.25c.1-8.1-3.55-13.68-11.88-15l-16.68-3c-7.6-1.24-13.3-1.3-15.64 4C93 26.57 99.27 29 99.27 29l9.66-.76c.63 7.8 7.3 7.46 7.3 7.46l-.6 3.82a2.81 2.81 0 0 0 2.68 3.25s4-6.1 7.3-3.82c3.5 2.38 2.73 8.2-2.22 10.38 0 0 3.62 5.47 10.26 4.48-.42-8.14 5.83-10.45 5.94-18.56z"/><path d="M132 54.8a11.88 11.88 0 0 1-9.38-5 .9.9 0 0 1-.11-.73.91.91 0 0 1 .49-.56 6.09 6.09 0 0 0 3.83-4.93 4.15 4.15 0 0 0-1.75-3.93 2 2 0 0 0-1.54-.31c-1.88.37-3.9 2.93-4.53 3.9a1 1 0 0 1-.76.39 3.67 3.67 0 0 1-2.72-1.33 3.73 3.73 0 0 1-.8-2.93l.46-2.87c-2-.26-6.22-1.5-7.06-7.33l-8.82.7a1 1 0 0 1-.38-.05c-.14-.06-3.4-1.34-4.58-4.2a6 6 0 0 1 .2-4.83c2.74-6.2 9.7-5.6 16.58-4.47l16.7 3c8.37 1.37 12.73 6.88 12.6 15.93 0 4.16-1.63 6.86-3.16 9.47s-3 5.1-2.78 9a.88.88 0 0 1-.74.91 11.91 11.91 0 0 1-1.77.17zm-7.3-5.2a9.75 9.75 0 0 0 8 3.41c0-4 1.55-6.6 3-9.17s2.88-4.9 2.92-8.62c.1-8.17-3.64-12.94-11.14-14.17-1.85-.3-3.78-.67-6-1.1l-10.67-1.9c-7.78-1.28-12.67-1.13-14.7 3.45A4.2 4.2 0 0 0 96 25a6.82 6.82 0 0 0 3.42 3.15l9.45-.74a.87.87 0 0 1 .94.8c.55 6.88 6.15 6.68 6.38 6.66a.87.87 0 0 1 .7.29.9.9 0 0 1 .21.72l-.6 3.82a2 2 0 0 0 1.42 2.17c.8-1.08 2.92-3.7 5.32-4.2a3.69 3.69 0 0 1 2.87.58 5.93 5.93 0 0 1 2.51 5.54 7.75 7.75 0 0 1-3.88 5.82zm14.85-14.36zm-38.82 18.62a.87.87 0 0 1-.87-.85.86.86 0 0 1 .85-.9 9.06 9.06 0 0 0 3.78-1 .87.87 0 1 1 .81 1.54 10.64 10.64 0 0 1-4.54 1.21zm4.84-19.06a.86.86 0 0 1-.51-.16 4.55 4.55 0 0 0-1.71-.86.88.88 0 0 1 .28-1.73 6.16 6.16 0 0 1 2.44 1.16.87.87 0 0 1 .21 1.22.85.85 0 0 1-.71.37zm-2.34 6.4c-.66 0-1.13-.6-1.13-1.46s.47-1.46 1.13-1.46 1.13.6 1.13 1.46-.46 1.46-1.13 1.46zm-.58-1.46a.68.68 0 0 0 .58.29.71.71 0 0 0 .59-.29.74.74 0 0 0-.59-.29.7.7 0 0 0-.58.29zM95.92 150h-.14a.88.88 0 0 1-.72-1l1.12-5.5a.873.873 0 0 1 1.7.4l-1.1 5.4a.88.88 0 0 1-.87.71zm2.25-9.78a1 1 0 0 1-.24 0 .88.88 0 0 1-.61-1.08c2.48-8.83 2.66-15.6-3.73-24a.88.88 0 0 1 .17-1.23.87.87 0 0 1 1.22.17c6.8 8.93 6.58 16.38 4 25.5a.87.87 0 0 1-.81.63zM30.73 123a.92.92 0 0 1-.45-.12.89.89 0 0 1-.29-1.21 34.09 34.09 0 0 1 2-3 .88.88 0 0 1 1.37 1.09 31.4 31.4 0 0 0-1.92 2.8.86.86 0 0 1-.71.44z"/></g><path d="M76.74 45.26s9.47 8 10.85 11.7c.38 1-9 11.4-21 11.1l-5.23-12.4" class="L"/><path d="M84.43 60.87c-8.47-4.94-16.92-2.22-21-.3l3.2 7.5c7.6.2 14.13-3.9 17.8-7.2z" class="K"/><path d="M71 68.6a.88.88 0 0 1-.15-1.74c8.8-1.6 15.34-8.5 15.88-9.85a.9.9 0 0 1 .57-.86.88.88 0 0 1 1.13.52 1.59 1.59 0 0 1-.27 1.34c-1.4 2.45-8.26 9-17 10.58zm15.77-11.32zm-1.97-3.42a.85.85 0 0 1-.65-.3 96.79 96.79 0 0 0-8-7.63.88.88 0 1 1 1.13-1.34 97.69 97.69 0 0 1 8.14 7.81.88.88 0 0 1-.66 1.46z" class="I"/><path d="M115.15 126.38s-6.53 10.38-2.47 9.53c8.6-1.8 16.63-13 18.3-20.36" class="K"/><path d="M112.26 136.83a1.69 1.69 0 0 1-1.45-.69c-1.34-1.94 2.07-7.8 3.6-10.23a.88.88 0 0 1 1.49.93c-2.25 3.58-3.92 7.36-3.66 8.24a.76.76 0 0 0 .27 0c8.42-1.76 16.06-12.84 17.62-19.7a.88.88 0 0 1 1.71.39c-1.67 7.3-9.88 19.13-19 21a3.38 3.38 0 0 1-.57.06zm0-1.68zm42.84-26.4a.87.87 0 0 1-.88-.87V98a.895.895 0 1 1 1.79 0v9.92a.87.87 0 0 1-.91.82z" class="I"/><path d="M99.45 106c-3.43-.8-4.9 2.3-.4 5.24s11 5.23 11.5 6.55c1 2.6 1.34 10.76 13.84 11.86l8.7-3-2.08-11.1-9.67-13.44a7.77 7.77 0 0 0-3.1-2.64 64.46 64.46 0 0 0-11.23-4.2c-4.5-1-7.1 1.4-1.7 3.2" class="J"/><path d="M124.4 130.5h-.07c-11.46-1-13.33-7.9-14.23-11.2a10.08 10.08 0 0 0-.36-1.21c-.28-.47-2.6-1.6-4.45-2.5a65 65 0 0 1-6.69-3.62c-3.07-2-3.58-4.1-3-5.37s2.17-1.9 4.1-1.45a.87.87 0 0 1 .65 1 .89.89 0 0 1-1 .66c-1-.24-1.87-.07-2.08.43s.36 1.9 2.37 3.2a63 63 0 0 0 6.51 3.52c3.33 1.63 4.94 2.46 5.32 3.46a12.9 12.9 0 0 1 .41 1.37c.9 3.36 2.43 9 12.5 9.9l7.8-2.7-1.93-10.14-9.56-13.27a6.88 6.88 0 0 0-2.77-2.37 63.94 63.94 0 0 0-11-4.14c-2.2-.5-3.52 0-3.68.22a5.29 5.29 0 0 0 2.45 1.3.88.88 0 1 1-.55 1.67c-3.62-1.2-3.8-2.7-3.58-3.46.42-1.5 2.84-2.1 5.75-1.43a64.53 64.53 0 0 1 11.34 4.26 8.62 8.62 0 0 1 3.45 2.94l9.6 13.43a.73.73 0 0 1 .15.35l2.1 11.07a.88.88 0 0 1-.57 1l-8.7 3a.92.92 0 0 1-.29.07z" class="I"/><path d="M116.1 103s-9.62-4.2-14.16-5.62c-4.38-1.38-6.44 2.6-.56 4.4" class="J"/><path d="M116.1 103.9a.84.84 0 0 1-.35-.07c-.1 0-9.63-4.2-14.07-5.6a3 3 0 0 0-2.85.17.54.54 0 0 0-.19.55c.13.55 1 1.4 3 2a.88.88 0 0 1-.51 1.68c-3.2-1-4-2.48-4.18-3.3a2.29 2.29 0 0 1 .7-2.23 4.65 4.65 0 0 1 4.56-.56c4.53 1.43 13.85 5.48 14.25 5.66a.87.87 0 0 1-.35 1.67z" class="I"/><path d="M113.23 106.6c-2.7-1.24-9.35-4.22-13-5.07-3.43-.8-5.95 2.16-.8 4.45" class="J"/><path d="M113.23 107.47a1 1 0 0 1-.37-.08c-2.66-1.23-9.26-4.18-12.82-5-1.45-.34-2.48.15-2.63.6s.52 1.36 2.4 2.2a.88.88 0 0 1-.72 1.6c-3.77-1.68-3.6-3.6-3.34-4.35.5-1.5 2.53-2.27 4.7-1.75 3.72.87 10.44 3.87 13.16 5.13a.87.87 0 0 1 .4 1.18.89.89 0 0 1-.77.47z" class="I"/><path d="M112 111.1c-2.54-1.14-6.36-2.8-9.35-3.77" class="J"/><path d="M112 112a.84.84 0 0 1-.35-.07l-9.27-3.73a.89.89 0 0 1-.56-1.11.87.87 0 0 1 1.1-.56c3 1 6.8 2.6 9.44 3.8a.88.88 0 0 1 .44 1.16.87.87 0 0 1-.8.51z" class="I"/><path d="M123.55 150.37c-4.55-3.67-11.92-14.62-11.92-14.62l1.05.16c8.6-1.8 16.63-13 18.3-20.36l19.38 14.07" class="K"/><g class="I"><path d="M116.1 82.12a.872.872 0 0 1-.12-1.74c10.34-1.33 22.82-15.5 22.94-15.65a.88.88 0 0 1 1.24-.08.87.87 0 0 1 .08 1.23c-.53.6-13 14.82-24 16.23zm59.16-4.92a.85.85 0 0 1-.61-.25 26.28 26.28 0 0 0-2.87-2.38.88.88 0 0 1-.2-1.22.87.87 0 0 1 1.22-.2 27.69 27.69 0 0 1 3.06 2.54.88.88 0 0 1 0 1.24.86.86 0 0 1-.6.27z"/><path d="M169.64 73a.87.87 0 0 1-.44-.11c-7.4-4.33-17.92-6.7-29.62-6.7a.88.88 0 0 1 0-1.75c12 0 22.83 2.47 30.5 6.94a.88.88 0 0 1 .32 1.2.87.87 0 0 1-.76.43z"/></g><path d="M76.1 80.05c-4.92-1.54-8.44-2.33-8.86-3.1-.87-1.6-.6-13.26-.6-13.26a5.52 5.52 0 0 0 3-.23c1.88-.9 8.62-12.47 7.34-16.8s-2.3-7.76-1.4-13c0 0-12.1-1.65-15-3.43l-7.26 9.8.8 2.96a1.87 1.87 0 0 1-1.28 2.29l-1.3.38s-4.08-4.17-6.74-1.15c-2.8 3.18.25 9.14 5.47 8.25 0 0 5 11.36 4.56 15.3 0 .4-1.93 1.4-4.84 2.2V71a6.86 6.86 0 0 1-.42 2.15c-.6 1.1-7.2 3.24-16.87 8.48 9 9.85 26 23.52 38.26 19.57 7.5-2.47 6.8-13.2 5.13-21.15z" class="J"/><path d="M76.1 80.05l-.27-.05a36.2 36.2 0 0 0-6.14 20.12v1.4l1.24-.33c7.54-2.45 6.84-13.18 5.17-21.13zm-28.18-5.83c-2.62 1.32-8.08 3.5-15.2 7.36a89.66 89.66 0 0 0 13.12 11.78 35.87 35.87 0 0 0 2.56-13.31 35.1 35.1 0 0 0-.48-5.83zM66.67 63.7h.1a23.65 23.65 0 0 1-10-4.14s1.33 10.18 9.9 12.33l.01-8.2z" class="M"/><g class="I"><path d="M5.74 102.9a.89.89 0 0 1-.57-.21.87.87 0 0 1-.09-1.24 66.35 66.35 0 0 1 11.6-10.8 149.73 149.73 0 0 1 27.63-15.7l2.78-1.28a.86.86 0 0 1 1.16.41.88.88 0 0 1-.4 1.17l-2.82 1.3a146.53 146.53 0 0 0-27.32 15.52 64.84 64.84 0 0 0-11.3 10.53.9.9 0 0 1-.67.31zm44.1-29.74h-.17a.89.89 0 0 1-.7-1c.07-.35.12-.77.17-1.26a.87.87 0 0 1 1-.79.88.88 0 0 1 .79 1 13.35 13.35 0 0 1-.19 1.42.86.86 0 0 1-.9.63z"/><path d="M99.08 92.6a.89.89 0 0 1-.57-.21 42.1 42.1 0 0 0-3.51-2.7c-8.15-5.6-17.33-8.3-22.82-9.9-3.88-1.14-5.24-1.57-5.7-2.4-.92-1.7-.77-10.92-.7-13.7a.88.88 0 0 1 1.75 0c-.14 5.5 0 12 .48 12.82a28.2 28.2 0 0 0 4.65 1.56c5.6 1.7 14.95 4.44 23.33 10.2A45.38 45.38 0 0 1 99.64 91a.89.89 0 0 1 .11 1.24.9.9 0 0 1-.67.35zM66.3 102.73c-4.72 0-10.12-1.82-16.14-5.44a87.33 87.33 0 0 1-18.09-15.12.871.871 0 1 1 1.29-1.17c8.2 9 25.32 23.2 37.35 19.32a.88.88 0 0 1 1.1.57.87.87 0 0 1-.56 1.1 16.12 16.12 0 0 1-4.95.74z"/><path d="M75.2 98.78a.89.89 0 0 1-.47-.14.86.86 0 0 1-.26-1.21c2.73-4.23 1.93-11.7.77-17.2a.893.893 0 0 1 1.75-.36c1.8 8.48 1.44 14.7-1 18.5a.88.88 0 0 1-.79.4zM68.15 54.7a10.59 10.59 0 0 1-4.3-.91.88.88 0 0 1 .72-1.6 8.8 8.8 0 0 0 4.25.73.88.88 0 0 1 .18 1.75q-.37.03-.85.03zm1.65-3.15a.88.88 0 0 1-.43-1.64 8.79 8.79 0 0 0 1.82-1.33c-.14-.15-.36-.34-.52-.5A5.26 5.26 0 0 1 69 46a.87.87 0 0 1 .53-1.11.88.88 0 0 1 1.12.53 4 4 0 0 0 1.19 1.4c.67.6 1.68 1.47 1 2.55a8.51 8.51 0 0 1-2.58 2.11.81.81 0 0 1-.46.07zM57.82 40a.87.87 0 0 1-.68-1.42 6 6 0 0 1 2-1.78.875.875 0 1 1 .73 1.59 4.44 4.44 0 0 0-1.37 1.31.88.88 0 0 1-.68.3zm10.08-3.08a.91.91 0 0 1-.72-.37.88.88 0 0 1 .21-1.22 8.59 8.59 0 0 1 1.5-.88.88.88 0 0 1 .69 1.61 6.4 6.4 0 0 0-1.18.7.93.93 0 0 1-.5.16zm-5.6 7.92c-.66 0-1.13-.6-1.13-1.46s.47-1.46 1.13-1.46 1.13.6 1.13 1.46-.43 1.46-1.13 1.46zm-.6-1.46a.75.75 0 0 0 1.18 0 .71.71 0 0 0-.59-.29.73.73 0 0 0-.59.29zm9.02-.75c-.66 0-1.13-.6-1.13-1.46s.47-1.46 1.13-1.46 1.13.6 1.13 1.46-.46 1.46-1.13 1.46zm-.58-1.46a.72.72 0 0 0 .58.29.74.74 0 0 0 .59-.29.74.74 0 0 0-.59-.29.72.72 0 0 0-.58.29zm44.1 19.05a.88.88 0 0 1-.68-.33.87.87 0 0 1 .14-1.23 24.4 24.4 0 0 0 3.35-3.19.88.88 0 0 1 1.23-.12.86.86 0 0 1 .12 1.23 25.35 25.35 0 0 1-3.62 3.42.85.85 0 0 1-.54.22z"/></g><path d="M131 115.55c-1.17 5.15-5.5 12.23-11 16.6l15.43 15a80.94 80.94 0 0 0 20.16-13.73z" class="L"/><path d="M123.55 151.25a.89.89 0 0 1-.55-.2c-4.6-3.7-11.8-14.36-12.1-14.82a.88.88 0 0 1 .86-1.35l.9.14c8.35-1.86 15.9-12.85 17.46-19.67a.88.88 0 0 1 1.71.39c-1.64 7.18-9.6 18.73-18.5 20.92 2.14 3.06 7.34 10.25 10.78 13a.86.86 0 0 1 .13 1.23.88.88 0 0 1-.68.36z" class="I"/><path d="M27.43 58.87a15.53 15.53 0 0 0-1.44 6c10.94 11.33 28.73 4.45 28.86 3.18C46.6 60 34.5 57.1 27.43 58.87zm13.94-29.22c-1.62 2.77-1.54 6.1-1.13 9.26.48 3.77-1.72 6.63-4.55 9.6C41.65 54.3 50 59.1 53.4 61c-1.34-4.1-3.12-8.2-3.12-8.2-5.22.9-8.27-5.07-5.47-8.25 2.66-3 6.74 1.15 6.74 1.15l1.3-.38A1.87 1.87 0 0 0 54.13 43l-.8-2.93 3.45-4.66v-.35c-.23-5.44-9.73-7.44-15.42-5.4zM75.6 33.7a21.42 21.42 0 0 0-.23 5.84l.87-.1c4.83-1 7.54-6.7 5.7-11.88-1.9-.12-4.04 1.46-6.34 6.15z" class="K"/><path d="M54.85 68.93h-.1A.87.87 0 0 1 54 68c.17-1.78-1-6-3.13-11.54a.86.86 0 0 1 .49-1.13.89.89 0 0 1 1.14.5c1.6 4.17 3.5 9.65 3.22 12.3a.88.88 0 0 1-.87.79zM42 72.16a23.69 23.69 0 0 1-12.52-3.34.88.88 0 0 1-.29-1.2.89.89 0 0 1 1.21-.29c9.38 5.76 20.46 1.8 21.7 1.3a.88.88 0 1 1 .62 1.64A31.77 31.77 0 0 1 42 72.16zm-16-6.4a.88.88 0 0 1-.87-.86c0-.23-.08-5.74 4.66-11.4 1.2-1.45 2.5-2.76 3.76-4 2.3-2.35 4.5-4.56 5.42-7a.88.88 0 0 1 1.13-.5.86.86 0 0 1 .5 1.12c-1 2.77-3.36 5.12-5.8 7.6-1.23 1.24-2.5 2.52-3.66 3.92a16.93 16.93 0 0 0-4.25 10.23.89.89 0 0 1-.85.9zM40.24 39.8a.87.87 0 0 1-.87-.77c-.83-6.5-.15-13.47 11.26-15.73l7.88-1.55a.88.88 0 0 1 1 .68.87.87 0 0 1-.69 1L51 25c-10.46 2.07-10.58 8.2-9.86 13.8a.88.88 0 0 1-.76 1zM61.4 22.92a.88.88 0 0 1-.17-1.74l2.13-.43a.873.873 0 1 1 .35 1.71l-2.13.44zM79.73 38.5a.88.88 0 0 1-.6-1.52 8.24 8.24 0 0 0 2.54-5.87 9.42 9.42 0 0 0-2.78-6.85c-3.26-3.32-8.64-2.9-12.4-2.3a.89.89 0 0 1-1-.73.87.87 0 0 1 .73-1c4.15-.67 10.1-1.1 13.93 2.8a11.18 11.18 0 0 1 3.28 8.12 10 10 0 0 1-3.1 7.11.89.89 0 0 1-.59.23zM67.86 64.66c-3.53 0-8.74-2.28-11.6-4.4a.88.88 0 0 1-.19-1.22.89.89 0 0 1 1.23-.19c3.78 2.8 9.92 4.77 12 3.82a.87.87 0 1 1 .69 1.58 5 5 0 0 1-2.14.4zm4-2.83a.85.85 0 0 1-.5-.16.87.87 0 0 1-.23-1.21c2.64-3.88 5.86-10.74 5-13.54-1.3-4.47-2.34-8-1.42-13.37a.87.87 0 0 1 1-.72.87.87 0 0 1 .71 1c-.85 5 .13 8.33 1.37 12.55 1.14 3.87-3 11.8-5.26 15a.87.87 0 0 1-.67.45zm-22.64-8.1a6.32 6.32 0 0 1-5.53-3.3 5.6 5.6 0 0 1 .47-6.5A3.86 3.86 0 0 1 47 42.54c2.62-.1 5 2.4 5.16 2.5a.88.88 0 0 1 0 1.24.87.87 0 0 1-1.23 0c-.56-.57-2.35-2-3.87-2a2.17 2.17 0 0 0-1.6.8 3.88 3.88 0 0 0-.25 4.49 4.63 4.63 0 0 0 4.92 2.32.873.873 0 1 1 .3 1.72 7.47 7.47 0 0 1-1.21.12z" class="I"/><path d="M5.74 102a68.19 68.19 0 0 1 7.53-7.57l-1.84-1.68a128.59 128.59 0 0 0 9.88 8.37c2.87 2.05 6.86.38 3.14-3.53-2.7-2.83-5.54-7-7-8.6A100.45 100.45 0 0 0 26 99.25c2.54 2.45 6 1.83 3.64-3A55 55 0 0 0 23 86.41a109.72 109.72 0 0 0 7.37 8.2c2.54 2.46 6 1.83 3.64-3a54.68 54.68 0 0 0-6.68-9.83l1.48 1.82c2.26 1.7 4.9 3.66 6.77 4.9 2.93 2 6.23.7 3-3.63a32.68 32.68 0 0 0-8.34-7.41c-4.28-3.26-9.47.8-14.53 5.36a88.27 88.27 0 0 0-13.88 16" class="J"/><path d="M19.7 87.32a138.41 138.41 0 0 1 11.88-9l-1.3-.86c-4.28-3.26-9.47.8-14.53 5.36a88.27 88.27 0 0 0-13.88 16l3.9 3.18c1.5-1.77 3-3.4 4.63-4.92a63.69 63.69 0 0 1 9.32-9.76z" class="M"/><path d="M5.74 102.9a.89.89 0 0 1-.57-.21.87.87 0 0 1-.09-1.24 68.21 68.21 0 0 1 6.87-7l-1.1-1a.86.86 0 0 1-.05-1.23.89.89 0 0 1 1.24 0l1.75 1.6c2.06 1.86 5.52 4.9 8 6.7 1.3.93 2.72.84 3.13.37s.1-1.3-1.13-2.58c-.7-.73-1.4-1.55-2.1-2.4l-1.92-2.3c-3.43-4.22-3.4-4.3-3.27-4.78a.85.85 0 0 1 .63-.62 1 1 0 0 1 .91.3c.62.68 1.44 1.75 2.4 3l2.54 3.23c1.28 1.5 2.6 3 3.65 4s2.33 1.32 2.7 1 .37-1.33-.47-3a49.72 49.72 0 0 0-5.6-8.47c-.57-.68-.93-1.13-1-1.18a.88.88 0 0 1 1.34-1.13c.05.06.44.5 1 1.24 1.4 1.66 4 4.67 6.3 6.9 1.15 1.1 2.33 1.32 2.7 1s.37-1.33-.47-3a48.55 48.55 0 0 0-5.14-7.9l-1.43-1.75A.88.88 0 0 1 28 81.2c.06.07.63.73 1.44 1.76 2.87 2.17 5.1 3.78 6.63 4.8 1.33.88 2.53.88 2.85.54s.13-1.38-1-2.92a32.13 32.13 0 0 0-8.09-7.18c-3.48-2.65-7.74 0-13.5 5.26A89.44 89.44 0 0 0 2.58 99.32a.87.87 0 0 1-1.47-.94 90 90 0 0 1 14-16.22c5.27-4.76 10.8-9.1 15.65-5.4a33.27 33.27 0 0 1 8.52 7.59c2.2 3 1.5 4.5.87 5.16-1.07 1.12-3.16 1-5.1-.28l-2.37-1.65a36.28 36.28 0 0 1 2.07 3.64c1.63 3.33.65 4.7-.07 5.23-1.08.8-2.75.52-4.26-.6 1.63 3.33.65 4.7-.07 5.24a3.33 3.33 0 0 1-3.6-.18 2.45 2.45 0 0 1-.52 1c-1.12 1.3-3.57 1.25-5.47-.1-2.36-1.68-5.44-4.35-7.55-6.24a67.51 67.51 0 0 0-6.84 7 .9.9 0 0 1-.64.33z" class="I"/><g class="M"><ellipse cx="57.82" cy="46.86" rx="2.63" ry="3.27" transform="matrix(.368125 -.929776 .929776 .368125 -7.03 83.37)"/><ellipse cx="48.54" cy="48.13" rx=".93" ry="2.4" transform="matrix(.674173 -.738573 .738573 .674173 -19.73 51.53)"/><ellipse cx="108.92" cy="43.81" rx="3.27" ry="2.63" transform="matrix(.929776 -.368125 .368125 .929776 -8.48 43.17)"/><ellipse cx="122.2" cy="45" rx="2.4" ry=".93" transform="matrix(.738573 -.674173 .674173 .738573 1.61 94.16)"/></g><path d="M150.35 130.5a.9.9 0 0 1-.51-.16L134.9 119.5a.89.89 0 0 1-.2-1.23.88.88 0 0 1 1.23-.19l14.93 10.84a.87.87 0 0 1 .19 1.22.85.85 0 0 1-.71.36z" class="I"/><path d="M115.4 23.13c-1.68-.1-1.67 1.56-.33 2.4a22.65 22.65 0 0 0 11 2.78c3 0 5.1-4.23.9-4.4-6.97-.26-9.17-.65-11.58-.78zm16.4.65c-1.45.13-1 4 1.6 4 2.97 0 .6-4.2-1.6-4zm-19.24-.01c.4-.72-1.62-3-3.17-1.1-1.06 1.32 2.52 2.25 3.17 1.1z" fill="#999ba1"/></svg>