<svg xmlns="http://www.w3.org/2000/svg" viewBox="0 0 180 180"><style><![CDATA[.H{fill:#57585a}.I{fill:#fff}.J{fill:#d3d5da}.K{fill:#e3e5e8}.L{fill:#f2f3f5}]]></style><path d="M111.92 136c4.37 7.4 11.92 14.62 11.92 14.62 10.66.07 30.8-12.55 41.88-27.85s13.5-42.68 9.83-46.2c-7.2-6.94-20.17-11-35.68-11l-23.48 5.3A105.68 105.68 0 0 0 93.21 84C83 91 78.36 98.2 78.36 98.2" class="K"/><path d="M133.12 67.1l-16.73 3.77A105.68 105.68 0 0 0 93.21 84C83 91 78.36 98.2 78.36 98.2l33.56 37.8c4.37 7.4 11.92 14.62 11.92 14.62 7.85.06 20.82-6.77 31.54-16.47-.1-34.15-2-53.9-22.26-67.06z" class="J"/><path d="M97.34 87l-4.42-2.74c-10 6.87-14.56 14-14.56 14L111.92 136 123 117.43C113.44 102 105.35 92.46 97.34 87z" class="I"/><path d="M93.2 84.9a.88.88 0 0 1-.55-1.56 108.74 108.74 0 0 1 23.39-13.29.88.88 0 1 1 .67 1.62 106 106 0 0 0-23 13 .85.85 0 0 1-.51.23z" class="H"/><path d="M133.93 54.07a10.68 10.68 0 0 1-10.25-4.48c4.94-2.18 5.7-8 2.2-10.4-3.32-2.27-7.3 3.8-7.3 3.8a2.81 2.81 0 0 1-2.68-3.25l.6-3.8s-6.68.33-7.3-7.47l-9.67.76c-2.76 3.1-1.66 7.8-1.66 10.44 0 3.35-6.77 7-5.88 8.73.7 1.36 4.64 2.34 5.47 2.5s.12 3.76.26 8.6 5.7 5.5 10.73 3.6a20.76 20.76 0 0 0 3.5-1.74l8.43 18.1.37.84c9.56-3.82 19.1-14.75 19.1-14.75z" class="I"/><path d="M120.77 81.18a.86.86 0 0 1-.8-.52l-.37-.83-8-17.2a21.91 21.91 0 0 1-2.8 1.31c-3.76 1.42-7.47 1.38-9.67-.1a5.08 5.08 0 0 1-2.24-4.3l.08-5.08a21.8 21.8 0 0 0 0-2.76c-1.15-.26-4.9-1.23-5.75-2.9-.7-1.4.77-2.83 2.48-4.5C95.2 42.9 97 41.1 97 39.7c0-.5 0-1.1-.1-1.76-.2-2.74-.48-6.5 2-9.26a.88.88 0 0 1 .59-.29l9.66-.76a.87.87 0 0 1 .94.8c.55 6.88 6.15 6.68 6.38 6.66a.87.87 0 0 1 .91 1l-.6 3.82a2 2 0 0 0 .42 1.53 1.9 1.9 0 0 0 1 .64c.8-1.08 2.92-3.7 5.32-4.18a3.64 3.64 0 0 1 2.87.57A6 6 0 0 1 128.9 44a7.79 7.79 0 0 1-3.9 5.88 9.73 9.73 0 0 0 8.82 3.31.88.88 0 0 1 .89.46l5.94 11.5a.87.87 0 0 1-.12 1c-.4.45-9.8 11.13-19.44 15a.87.87 0 0 1-.32.03zm-8-20.08l8.4 18.07c7.93-3.5 15.77-11.75 17.6-13.75L133.43 55a11.48 11.48 0 0 1-10.5-5 .89.89 0 0 1 .39-1.27 6.07 6.07 0 0 0 3.83-4.93 4.15 4.15 0 0 0-1.75-3.93 2 2 0 0 0-1.54-.31c-1.87.37-3.9 2.93-4.53 3.9a.93.93 0 0 1-.76.39 3.67 3.67 0 0 1-3.51-4.26l.45-2.87c-2-.26-6.22-1.5-7.06-7.33l-8.45.72c-1.72 2.18-1.5 5.23-1.32 7.7 0 .68.1 1.32.1 1.9 0 2.15-2 4.13-3.84 5.88-.84.83-2.12 2.07-2.12 2.5.35.67 3.1 1.64 4.84 2 1.24.25 1.18 1.66 1 4.48-.06 1.37-.14 3.07-.1 5a3.37 3.37 0 0 0 1.47 2.89c1.72 1.16 4.9 1.12 8.08-.1a19.64 19.64 0 0 0 3.35-1.66.88.88 0 0 1 1.2.27.82.82 0 0 1 .14.13z" class="H"/><path d="M118 56.37a15.32 15.32 0 0 1-3.42 3.22l-2.53 1.85 8.4 18 .37.84.35-.15c3.2-1.83.97-16.25-3.17-23.76z" class="L"/><path d="M111.97 61.38l8.43 18.1" class="I"/><path d="M120.4 80.35a.87.87 0 0 1-.79-.51l-8.43-18.1a.87.87 0 1 1 1.59-.73l8.42 18.1a.87.87 0 0 1-.42 1.16 1 1 0 0 1-.37.08z" class="H"/><path d="M79.8 23.9c-4.1-4.18-11-3-16-2l-12.73 2.54c-10.94 2.16-11.3 8.75-10.54 14.73s-5.22 9.67-9.8 15.15a17.72 17.72 0 0 0-4.45 10.81C37.22 76.45 55 69.58 55.14 68.3c.4-3.92-4.56-15.3-4.56-15.3-5.22.9-8.27-5.07-5.47-8.25 2.66-3 6.74 1.15 6.74 1.15l1.3-.38a1.88 1.88 0 0 0 1.29-2.29l-.8-2.93 7.25-9.8c2.93 1.78 15 3.44 15 3.44a21.33 21.33 0 0 0-.23 5.83l.87-.1c6.12-1.26 8.87-10.04 3.27-15.77z" class="K"/><path d="M95.8 89.22a71.77 71.77 0 0 0-19.39-8.91c1.68 8 2.37 18.68-5.13 21.1C59 105.35 42 91.68 33 81.83a139 139 0 0 0-15.51 9.77A65.48 65.48 0 0 0 6 102.26s4 37.15 46.43 51.8c48.5 16.74 81-12.64 81-12.64-12.8-24.23-25.05-43.58-37.64-52.2z" fill="#999ba1"/><path d="M33 119.46L23.3 136c6.77 7 16.15 13.6 29.16 18.1l1.44.47c-.34-24.7-20.9-35.1-20.9-35.1zM27.48 85a138.86 138.86 0 0 0-10 6.6A65.48 65.48 0 0 0 6 102.26a40.43 40.43 0 0 0 1.06 5.19C27.78 111.05 32.67 99 27.48 85zm68.14 73.13c-.2-4.44.44-10 2.84-18.54a46.5 46.5 0 0 0 1.34-6.22C86 135.8 77.77 148.8 81 159.2a83.85 83.85 0 0 0 14.62-1.08zm.18-68.9l-3.3-2.07c.5 5.77 7.22 11.2 16.35 15.5-6.92 8.87-4.88 27.18 1.7 51.6 14.58-5.26 23-12.82 23-12.82-12.93-24.23-25.17-43.58-37.76-52.2z" fill="#82858f"/><g class="H"><path d="M139.87 35.5c.1-8.1-3.54-13.7-11.88-15-4.27-.7-9.07-1.76-16.68-3s-13.3-1.3-15.63 4 3.88 7.84 3.88 7.84l9.67-.76c.62 7.8 7.3 7.47 7.3 7.47l-.6 3.8A2.81 2.81 0 0 0 118.6 43s4-6.1 7.3-3.82c3.5 2.4 2.73 8.2-2.2 10.4 0 0 3.62 5.46 10.25 4.48-.42-8.13 5.84-10.44 5.94-18.54z"/><path d="M132.32 55.06a11.83 11.83 0 0 1-9.37-5 .83.83 0 0 1-.11-.73.89.89 0 0 1 .48-.56 6.07 6.07 0 0 0 3.83-4.93 4.15 4.15 0 0 0-1.75-3.93 2 2 0 0 0-1.54-.31c-1.87.37-3.9 2.93-4.53 3.9a.93.93 0 0 1-.76.39 3.67 3.67 0 0 1-3.51-4.26l.45-2.87c-2-.26-6.22-1.5-7.06-7.33l-8.82.7a.82.82 0 0 1-.38-.05c-.14-.06-3.4-1.34-4.58-4.18a6 6 0 0 1 .21-4.84c2.73-6.2 9.7-5.6 16.57-4.47l16.72 3c8.37 1.38 12.73 6.88 12.62 15.93-.06 4.17-1.64 6.86-3.16 9.47s-3 5.1-2.8 9a.87.87 0 0 1-.74.91 11.71 11.71 0 0 1-1.78.17zm-7.32-5.2a9.75 9.75 0 0 0 8 3.41c0-4 1.55-6.6 3.05-9.17s2.95-4.9 2.95-8.6c.1-8.17-3.65-12.94-11.15-14.17-1.85-.3-3.78-.67-6-1.1l-10.67-1.92c-7.78-1.3-12.68-1.12-14.7 3.45a4.21 4.21 0 0 0-.19 3.45 6.82 6.82 0 0 0 3.42 3.15l9.45-.74a.87.87 0 0 1 .94.8c.55 6.88 6.15 6.68 6.38 6.66a.87.87 0 0 1 .91 1l-.6 3.82a2 2 0 0 0 .42 1.53 1.9 1.9 0 0 0 1 .64c.8-1.08 2.92-3.7 5.32-4.18a3.64 3.64 0 0 1 2.87.57 6 6 0 0 1 2.5 5.54 7.76 7.76 0 0 1-3.9 5.87zm14.85-14.36zM101 54.1a.88.88 0 0 1 0-1.75 9 9 0 0 0 3.78-1 .87.87 0 0 1 1.18.36.89.89 0 0 1-.36 1.19 10.81 10.81 0 0 1-4.55 1.2zm4.86-19.03a.89.89 0 0 1-.51-.17 4.55 4.55 0 0 0-1.71-.86.88.88 0 0 1 .28-1.73 6.06 6.06 0 0 1 2.44 1.17.88.88 0 0 1-.5 1.59zm-2.34 6.37c-.66 0-1.13-.6-1.13-1.46s.47-1.46 1.13-1.46 1.14.6 1.14 1.46-.47 1.46-1.14 1.46zm-.58-1.44a.69.69 0 0 0 .58.29.71.71 0 0 0 .59-.29.74.74 0 0 0-.59-.29.72.72 0 0 0-.58.29zm-6.72 110.28h-.14a.88.88 0 0 1-.73-1l1.12-5.52a.89.89 0 0 1 1.06-.65.87.87 0 0 1 .65 1.05l-1.1 5.4a.87.87 0 0 1-.86.72zm2.24-9.8a1 1 0 0 1-.24 0 .89.89 0 0 1-.61-1.08c2.48-8.83 2.66-15.6-3.73-24a.88.88 0 1 1 1.4-1.06c6.8 8.93 6.58 16.38 4 25.5a.87.87 0 0 1-.82.63zM31 123.23a.94.94 0 0 1-.46-.13.89.89 0 0 1-.29-1.21 34.09 34.09 0 0 1 2-3 .909.909 0 0 1 1.44 1.11 31.4 31.4 0 0 0-1.92 2.8.86.86 0 0 1-.77.43z"/></g><path d="M77 45.5s9.47 8 10.85 11.7c.38 1-9 11.4-21 11.1l-5.2-12.38" class="K"/><path d="M84.72 61.13c-8.47-5-16.92-2.23-21-.3l3.2 7.5c7.6.2 14.1-3.9 17.8-7.18z" class="J"/><path d="M71.27 68.84a.88.88 0 0 1-.15-1.74c8.8-1.6 15.34-8.5 15.9-9.85a.87.87 0 0 1 1.69-.34 1.62 1.62 0 0 1-.24 1.33c-1.4 2.45-8.27 9-17 10.58zm15.8-11.32zm-2-3.42a.85.85 0 0 1-.65-.3 93.42 93.42 0 0 0-8-7.63.86.86 0 0 1-.1-1.23.87.87 0 0 1 1.23-.11 96 96 0 0 1 8.14 7.81.88.88 0 0 1-.07 1.24.94.94 0 0 1-.55.22z" class="H"/><path d="M115.44 126.63S108.9 137 113 136.16c8.6-1.8 16.62-13 18.3-20.36" class="J"/><path d="M112.55 137.08a1.66 1.66 0 0 1-1.44-.69c-1.35-1.94 2.06-7.8 3.6-10.23a.874.874 0 0 1 1.48.93c-2.25 3.58-3.92 7.36-3.66 8.24a.81.81 0 0 0 .28 0c8.4-1.75 16-12.84 17.6-19.7a.88.88 0 0 1 1.05-.66.86.86 0 0 1 .66 1c-1.66 7.3-9.88 19.13-19 21a3.38 3.38 0 0 1-.57.1zm0-1.68zm42.83-26.4a.88.88 0 0 1-.87-.88V98.2a.88.88 0 1 1 1.75 0v9.92a.89.89 0 0 1-.88.88z" class="H"/><path d="M99.74 106.23c-3.43-.8-4.9 2.28-.38 5.23s11 5.23 11.48 6.55c1 2.62 1.34 10.76 13.85 11.86l8.68-3-2.1-11.07-9.68-13.43a7.72 7.72 0 0 0-3.1-2.65 64.33 64.33 0 0 0-11.16-4.2c-4.52-1-7.12 1.4-1.7 3.2" class="I"/><path d="M124.7 130.74h-.08c-11.46-1-13.33-7.9-14.22-11.2a12.09 12.09 0 0 0-.37-1.21c-.28-.47-2.6-1.6-4.45-2.5a63.09 63.09 0 0 1-6.69-3.62c-3.07-2-3.58-4.1-3-5.37s2.18-1.9 4.1-1.45a.88.88 0 0 1-.4 1.71c-1-.24-1.87-.07-2.08.43s.36 1.9 2.37 3.22a66 66 0 0 0 6.51 3.51c3.33 1.63 4.94 2.46 5.32 3.46.15.38.27.84.42 1.38.9 3.35 2.42 9 12.5 9.9l7.8-2.7-1.93-10.14-9.56-13.27a6.79 6.79 0 0 0-2.76-2.37 64.39 64.39 0 0 0-11-4.14c-2.2-.5-3.52 0-3.68.22a5.35 5.35 0 0 0 2.46 1.31.87.87 0 0 1 .55 1.1.88.88 0 0 1-1.11.56c-3.62-1.2-3.8-2.7-3.58-3.46.42-1.5 2.84-2.1 5.75-1.43a64.53 64.53 0 0 1 11.34 4.26 8.55 8.55 0 0 1 3.45 2.94L132 115.3a1 1 0 0 1 .15.35l2.1 11.07a.88.88 0 0 1-.57 1l-8.7 3a.9.9 0 0 1-.3.03z" class="H"/><path d="M116.4 103.3s-9.62-4.2-14.16-5.62c-4.38-1.37-6.44 2.6-.56 4.4" class="I"/><path d="M116.4 104.16a.84.84 0 0 1-.35-.07c-.1 0-9.63-4.2-14.07-5.58-1.47-.46-2.45-.2-2.85.17a.5.5 0 0 0-.18.55c.12.54 1 1.4 3 2a.87.87 0 0 1 .59 1.09.89.89 0 0 1-1.1.58c-3.2-1-4-2.48-4.18-3.3a2.28 2.28 0 0 1 .71-2.23 4.61 4.61 0 0 1 4.55-.55c4.54 1.42 13.85 5.48 14.25 5.65a.88.88 0 0 1 .45 1.15.86.86 0 0 1-.82.53z" class="H"/><path d="M113.52 106.84c-2.68-1.24-9.34-4.22-13-5.07-3.44-.8-6 2.16-.8 4.46" class="I"/><path d="M113.52 107.72a.94.94 0 0 1-.36-.08c-2.67-1.23-9.26-4.18-12.82-5-1.45-.34-2.48.15-2.64.6s.52 1.36 2.4 2.2a.87.87 0 1 1-.71 1.59c-3.78-1.67-3.6-3.6-3.35-4.35.5-1.5 2.53-2.26 4.7-1.75 3.7.87 10.43 3.88 13.15 5.13a.87.87 0 0 1 .43 1.16.89.89 0 0 1-.8.49z" class="H"/><path d="M112.34 111.36c-2.54-1.14-6.37-2.8-9.36-3.76" class="I"/><path d="M112.34 112.23a.89.89 0 0 1-.36-.07l-9.27-3.73a.88.88 0 1 1 .55-1.67c3 1 6.78 2.6 9.43 3.8a.87.87 0 0 1-.35 1.67z" class="H"/><path d="M123.84 150.62C119.3 147 111.92 136 111.92 136l1.06.16c8.6-1.8 16.62-13 18.3-20.36l19.38 14.07" class="J"/><g class="H"><path d="M116.4 82.37a.872.872 0 0 1-.11-1.74c10.33-1.33 22.8-15.5 22.93-15.65a.88.88 0 1 1 1.32 1.16c-.53.6-13 14.8-24 16.23zm59.15-4.93a.85.85 0 0 1-.61-.25 26.28 26.28 0 0 0-2.87-2.38.88.88 0 1 1 1-1.42 31 31 0 0 1 3.06 2.54.87.87 0 0 1 0 1.24.86.86 0 0 1-.58.27z"/><path d="M169.93 73.26a.88.88 0 0 1-.44-.12c-7.4-4.32-17.92-6.7-29.62-6.7a.88.88 0 0 1 0-1.75c12 0 22.84 2.46 30.5 6.93a.88.88 0 0 1-.45 1.64z"/></g><path d="M76.4 80.3c-4.9-1.54-8.4-2.3-8.84-3.1C66.68 75.6 67 64 67 64a5.6 5.6 0 0 0 3-.24c1.9-.9 8.66-12.47 7.38-16.8S75 39.16 75.9 34c0 0-12.08-1.66-15-3.44l-7.25 9.8.8 2.93a1.88 1.88 0 0 1-1.29 2.29l-1.3.38s-4.08-4.17-6.74-1.15c-2.8 3.18.25 9.14 5.47 8.25 0 0 5 11.37 4.56 15.3 0 .4-1.93 1.4-4.84 2.2v.7a7.42 7.42 0 0 1-.41 2.16c-.6 1.1-7.22 3.23-16.88 8.47 9 9.85 26 23.52 38.26 19.57 7.5-2.45 6.8-13.16 5.12-21.14z" class="I"/><path d="M76.4 80.3l-.28-.1A36.2 36.2 0 0 0 70 100.34v1.4l1.24-.33c7.53-2.4 6.84-13.1 5.16-21.1zm-28.2-5.83C45.6 75.8 40.14 78 33 81.83a89.66 89.66 0 0 0 13.13 11.78 35.66 35.66 0 0 0 2.56-13.3 35.22 35.22 0 0 0-.48-5.84zM67 64h.1a23.64 23.64 0 0 1-10-4.14S58.4 70 67 72.15V64z" class="L"/><g class="H"><path d="M6 103.14a.89.89 0 0 1-.57-.21.88.88 0 0 1-.09-1.24A66.35 66.35 0 0 1 17 90.89a150.06 150.06 0 0 1 27.6-15.7l2.78-1.28a.88.88 0 0 1 .76 1.58l-2.82 1.3A146.13 146.13 0 0 0 18 92.31a64.77 64.77 0 0 0-11.3 10.52.9.9 0 0 1-.7.31zM50.13 73.4H50a.87.87 0 0 1-.7-1l.16-1.26a.87.87 0 0 1 1-.79.88.88 0 0 1 .79 1l-.18 1.4a.88.88 0 0 1-.94.64z"/><path d="M99.37 92.84a.85.85 0 0 1-.56-.21 43.92 43.92 0 0 0-3.51-2.69c-8.15-5.6-17.3-8.3-22.82-9.94-3.88-1.14-5.24-1.57-5.7-2.4-.92-1.7-.77-10.9-.7-13.7a.88.88 0 1 1 1.75 0c-.13 5.5 0 12 .5 12.82A27.84 27.84 0 0 0 73 78.36c5.56 1.64 14.9 4.4 23.3 10.14a45.48 45.48 0 0 1 3.65 2.79.88.88 0 0 1-.57 1.55zM66.6 103c-4.72 0-10.12-1.82-16.14-5.44a87.33 87.33 0 0 1-18.09-15.14.88.88 0 0 1 .06-1.24.87.87 0 0 1 1.23.06c8.2 9 25.32 23.2 37.35 19.32a.88.88 0 0 1 .54 1.67 16.07 16.07 0 0 1-4.95.77z"/><path d="M75.5 99a.83.83 0 0 1-.47-.14.87.87 0 0 1-.26-1.21c2.74-4.23 1.93-11.7.77-17.2a.873.873 0 0 1 1.71-.35c1.8 8.48 1.45 14.7-1 18.5a.88.88 0 0 1-.75.4zm-7.06-44.06a10.59 10.59 0 0 1-4.3-.91.88.88 0 0 1-.44-1.16.87.87 0 0 1 1.16-.43 8.88 8.88 0 0 0 4.25.72.89.89 0 0 1 1 .8.88.88 0 0 1-.8.95l-.87.03zm1.66-3.14a.88.88 0 0 1-.76-.44.87.87 0 0 1 .33-1.19 8.92 8.92 0 0 0 1.82-1.34c-.14-.15-.36-.34-.52-.48a5.29 5.29 0 0 1-1.69-2.14.874.874 0 0 1 1.65-.58A4.17 4.17 0 0 0 72.11 47c.67.6 1.68 1.48 1 2.55a8.52 8.52 0 0 1-2.59 2.11.81.81 0 0 1-.43.14zm-12-11.53a.87.87 0 0 1-.68-1.42 6.08 6.08 0 0 1 2-1.78.88.88 0 0 1 .74 1.59A4.45 4.45 0 0 0 58.79 40a.87.87 0 0 1-.68.27zm10.1-3.1a.88.88 0 0 1-.51-1.59 8.59 8.59 0 0 1 1.5-.88.88.88 0 0 1 .69 1.61 6.05 6.05 0 0 0-1.17.7.88.88 0 0 1-.51.16zm-5.6 7.93c-.66 0-1.13-.6-1.13-1.46s.47-1.46 1.13-1.46 1.13.6 1.13 1.46-.46 1.46-1.13 1.46zm-.6-1.46a.72.72 0 0 0 .58.29.74.74 0 0 0 .59-.29.74.74 0 0 0-.59-.29.69.69 0 0 0-.58.29zm9-.76c-.67 0-1.14-.6-1.14-1.46S70.35 40 71 40s1.13.6 1.13 1.46-.45 1.42-1.13 1.42zm-.6-1.46a.74.74 0 0 0 1.17 0 .74.74 0 0 0-1.17 0zm44.13 19.05a.86.86 0 0 1-.68-.33.87.87 0 0 1 .14-1.23 24.4 24.4 0 0 0 3.35-3.19.89.89 0 0 1 1.24-.12.88.88 0 0 1 .11 1.24 26.57 26.57 0 0 1-3.61 3.44.88.88 0 0 1-.55.19z"/></g><path d="M131.27 115.8c-1.18 5.15-5.5 12.23-11 16.6l15.43 15a80.8 80.8 0 0 0 20.15-13.73z" class="K"/><path d="M123.84 151.5a.91.91 0 0 1-.55-.2c-4.6-3.7-11.8-14.36-12.1-14.82a.86.86 0 0 1 0-.95.87.87 0 0 1 .87-.4l.9.14c8.36-1.86 15.9-12.85 17.46-19.66a.88.88 0 0 1 1.05-.66.86.86 0 0 1 .66 1c-1.64 7.2-9.6 18.73-18.5 20.92 2.14 3.06 7.34 10.25 10.78 13a.87.87 0 0 1 .13 1.23.85.85 0 0 1-.69.4z" class="H"/><path d="M27.72 59.12a15.57 15.57 0 0 0-1.44 6C37.22 76.45 55 69.58 55.14 68.3c-8.24-8.1-20.36-10.96-27.42-9.18zM41.67 29.9c-1.67 2.77-1.54 6.1-1.14 9.26.48 3.77-1.72 6.63-4.55 9.6 6 5.8 14.3 10.6 17.72 12.44-1.34-4.1-3.12-8.2-3.12-8.2-5.22.9-8.27-5.07-5.47-8.25 2.66-3 6.74 1.15 6.74 1.15l1.3-.38a1.88 1.88 0 0 0 1.29-2.29l-.8-2.93 3.44-4.66v-.35c-.23-5.42-9.72-7.42-15.4-5.4zM75.9 34a21.33 21.33 0 0 0-.23 5.83l.87-.1c4.83-1 7.55-6.7 5.7-11.88-1.9-.17-4.05 1.44-6.35 6.16z" class="J"/><path d="M55.14 69.18h-.1a.86.86 0 0 1-.78-1c.18-1.78-1-6-3.13-11.54a.87.87 0 0 1 .5-1.13.88.88 0 0 1 1.13.5c1.62 4.16 3.5 9.7 3.24 12.34a.88.88 0 0 1-.87.83zM42.32 72.4a23.69 23.69 0 0 1-12.52-3.34.88.88 0 0 1-.29-1.2.89.89 0 0 1 1.21-.29c9.4 5.76 20.46 1.8 21.7 1.32a.87.87 0 1 1 .59 1.63 31.91 31.91 0 0 1-10.68 1.88zM26.28 66a.88.88 0 0 1-.88-.86c0-.23-.08-5.74 4.66-11.4 1.2-1.44 2.5-2.76 3.76-4 2.3-2.35 4.5-4.56 5.42-7a.88.88 0 0 1 1.64.63c-1.06 2.76-3.37 5.1-5.82 7.6-1.22 1.24-2.5 2.52-3.66 3.92a17 17 0 0 0-4.25 10.22.89.89 0 0 1-.85.9zm14.25-26a.87.87 0 0 1-.87-.77c-.83-6.5-.14-13.47 11.26-15.73L58.8 22a.88.88 0 0 1 1 .68.86.86 0 0 1-.68 1l-7.9 1.56c-10.46 2.07-10.58 8.2-9.86 13.8a.88.88 0 0 1-.76 1zM61.7 23.17a.88.88 0 0 1-.86-.7.86.86 0 0 1 .68-1l2.13-.47a.874.874 0 1 1 .36 1.71l-2.13.44zM80 38.74a.84.84 0 0 1-.64-.28.87.87 0 0 1 .05-1.24A8.26 8.26 0 0 0 82 31.36a9.43 9.43 0 0 0-2.78-6.86c-3.26-3.32-8.64-2.9-12.4-2.3a.89.89 0 0 1-1-.73.88.88 0 0 1 .73-1c4.15-.67 10.1-1.1 13.93 2.8a11.18 11.18 0 0 1 3.28 8.12 10 10 0 0 1-3.1 7.11.88.88 0 0 1-.65.23zM68.16 64.9c-3.54 0-8.75-2.27-11.6-4.4a.87.87 0 0 1-.18-1.22.88.88 0 0 1 1.22-.19c3.78 2.8 9.92 4.77 11.95 3.82a.88.88 0 1 1 .74 1.59 5.1 5.1 0 0 1-2.13.39zm4-2.82a.87.87 0 0 1-.72-1.37c2.64-3.88 5.86-10.74 5-13.54-1.3-4.47-2.34-8-1.42-13.37a.88.88 0 0 1 1.73.29c-.86 5 .12 8.33 1.36 12.55 1.14 3.87-3 11.8-5.26 15a.87.87 0 0 1-.69.44zM49.52 54A6.29 6.29 0 0 1 44 50.68a5.6 5.6 0 0 1 .46-6.5 3.88 3.88 0 0 1 2.87-1.39c2.62-.1 5.06 2.4 5.16 2.5a.87.87 0 0 1 0 1.23.88.88 0 0 1-1.24 0c-.56-.56-2.35-2-3.87-2a2.15 2.15 0 0 0-1.59.8 3.87 3.87 0 0 0-.26 4.49 4.61 4.61 0 0 0 4.92 2.32.873.873 0 1 1 .3 1.72 7.45 7.45 0 0 1-1.23.14z" class="H"/><path d="M6 102.26a68.19 68.19 0 0 1 7.53-7.57l-1.8-1.7a128.42 128.42 0 0 0 9.87 8.36c2.88 2.05 6.87.38 3.14-3.52-2.7-2.84-5.54-7-7-8.6a101.93 101.93 0 0 0 8.59 10.27c2.54 2.45 6 1.83 3.64-3a54.41 54.41 0 0 0-6.68-9.82 108.77 108.77 0 0 0 7.38 8.2c2.53 2.46 6 1.84 3.63-3A54.68 54.68 0 0 0 27.62 82l1.48 1.82c2.26 1.7 4.9 3.66 6.77 4.9 2.93 2 6.23.72 3-3.62a32.74 32.74 0 0 0-8.35-7.42c-4.27-3.26-9.47.8-14.53 5.36a89.15 89.15 0 0 0-13.88 16" class="I"/><path d="M20 87.57a140 140 0 0 1 11.88-9l-1.3-.86c-4.27-3.26-9.47.8-14.53 5.36a89.15 89.15 0 0 0-13.88 16l3.84 3.2a70.61 70.61 0 0 1 4.64-4.92A65.06 65.06 0 0 1 20 87.57z" class="L"/><path d="M6 103.14a.89.89 0 0 1-.57-.21.88.88 0 0 1-.09-1.24 68.21 68.21 0 0 1 6.87-7l-1.1-1a.88.88 0 0 1-.05-1.23.89.89 0 0 1 1.24 0L14.07 94c2.06 1.86 5.53 4.9 8 6.7 1.3.93 2.73.84 3.13.37s.1-1.3-1.13-2.58c-.7-.73-1.4-1.55-2.1-2.4l-1.92-2.3c-3.43-4.22-3.4-4.3-3.27-4.78a.86.86 0 0 1 .64-.62 1 1 0 0 1 .9.3c.62.7 1.44 1.75 2.4 3l2.54 3.22c1.28 1.5 2.6 3 3.65 4s2.33 1.32 2.7 1 .37-1.33-.47-3a49.72 49.72 0 0 0-5.6-8.47l-1-1.18A.88.88 0 0 1 24 86.08c.05.06.44.5 1 1.24 1.4 1.66 4 4.68 6.3 6.92 1.15 1.1 2.33 1.3 2.7 1s.37-1.33-.47-3a47.34 47.34 0 0 0-5.14-7.89l-1.43-1.76a.88.88 0 0 1 1.34-1.13c.06.07.63.73 1.44 1.77 2.87 2.16 5.1 3.77 6.63 4.8 1.33.88 2.53.88 2.85.54s.13-1.38-1-2.92a32 32 0 0 0-8.09-7.18c-3.48-2.65-7.73 0-13.5 5.26A88.62 88.62 0 0 0 2.88 99.57a.88.88 0 1 1-1.48-.94 90.93 90.93 0 0 1 14-16.22c5.27-4.76 10.82-9.1 15.65-5.4a32.66 32.66 0 0 1 8.55 7.59c2.2 3 1.5 4.5.87 5.16-1.06 1.1-3.15 1-5.1-.3L33 87.82a36.36 36.36 0 0 1 2.08 3.64c1.62 3.33.65 4.7-.08 5.23-1.08.8-2.75.52-4.26-.6 1.63 3.33.65 4.7-.07 5.24a3.33 3.33 0 0 1-3.6-.18 2.34 2.34 0 0 1-.51 1c-1.13 1.3-3.58 1.25-5.48-.1-2.35-1.68-5.43-4.35-7.54-6.24a66.58 66.58 0 0 0-6.85 7 .88.88 0 0 1-.69.33z" class="H"/><g class="L"><ellipse cx="58.11" cy="47.11" rx="2.63" ry="3.27" transform="matrix(.368125 -.929776 .929776 .368125 -7.08 83.8)"/><ellipse cx="48.83" cy="48.38" rx=".93" ry="2.4" transform="matrix(.674173 -.738573 .738573 .674173 -19.82 51.83)"/><ellipse cx="109.22" cy="44.06" rx="3.27" ry="2.63" transform="matrix(.929776 -.368125 .368125 .929776 -8.55 43.3)"/><ellipse cx="122.5" cy="45.25" rx="2.4" ry=".93" transform="matrix(.738573 -.674173 .674173 .738573 1.52 94.42)"/></g><path d="M150.65,130.74a.91.91,0,0,1-.52-.16L135.2,119.74a.88.88,0,0,1,1-1.42l14.93,10.84a.87.87,0,0,1-.51,1.58Z" class="H"/><path d="M115.7 23.38c-1.7-.1-1.68 1.56-.33 2.4a22.57 22.57 0 0 0 11 2.78c3 0 5.1-4.23.9-4.4-6.94-.26-9.18-.65-11.58-.78zm16.38.62c-1.45.13-1 4 1.6 4 2.97 0 .58-4.16-1.6-4zm-19.23 0c.4-.72-1.62-3-3.16-1.1-1.07 1.32 2.5 2.27 3.16 1.1z" fill="#999ba1"/></svg>