<svg xmlns="http://www.w3.org/2000/svg" viewBox="0 0 180 180"><path d="M114.13 173.43c38.8-8.76 57.9-50.27 53.66-83.85-1.93-15.23-8.9-24.18-18-27.14C136.3 58.1 126 68.38 116.56 78c-38.56 39.2-91 13.23-101.64 34.85-9.7 19.7 26.32 77.03 99.2 60.58z" fill="#e3e5e8"/><path d="M114.14 173.43c35.88-8.1 54.9-44.18 54.2-76.12-41.16 17-62.35 41.47-100.22 35.82-24-3.58-40.7-5.9-53.5-4.55 6.78 24.23 41.45 57.96 99.52 44.85z" fill="#d3d5da"/><path d="M114.13 173.43c19.18-4.33 33.53-16.66 42.65-32.08-7.56-19.8-18.4-26.5-39.37-39.5l-3.2-2-2.65-5.22a11.06 11.06 0 0 0-5.55-5.16l-.4-2.18C94.46 95 82.7 98.56 71.42 100.37l-2.62 4.4-4.7 3.8-.2.15c-11.5 9.3-16.25 13.15-20.72 23.08-2.55 5.7-7.83 21.54-9.1 25.35 16.9 14.5 43.97 24.4 80.03 16.27z" fill="#fff"/><path d="M114.13 173.43c18-4.05 31.7-15.14 40.87-29.2v-.1c-7.7-21.56-18.88-27.5-42.8-42.4l-41.33 4.8c-15.18 12.4-20.45 15.67-25.26 26.38-2.8 6.22-9.24 25.83-9.24 25.83l-.1.2c17.03 13.5 43.3 22.3 77.86 14.5z" fill="#999ba1"/><path d="M53.3 143.9h-.17a164.84 164.84 0 0 0-1.38 24.53c12.15 5.65 27.07 8.87 44.6 7.63-16.83-18.7-32.05-32.2-43.06-32.16zm67.7 6.6c-.65 5.4-1 12.25-1.35 21.4a63 63 0 0 0 17.87-9.1c-5.4-8.68-11.76-11.73-16.52-12.3zm-48.65-23.64c2.26.3 9.27-9.57 9.27-9.57s2.43 13.1 5 12.7c1.9-.3 14.32-6.8 18.55-18l-21.7-6.9-12.66 1.47-3.62 3c.28 9.08 3.6 17.1 5.16 17.3z" fill="#82858f"/><path d="M78.1 96.73L76.6 97.9a8.34 8.34 0 0 0-2 2.26l-3.8 6.38 4.73 15.66 8.57-14.76-5.2-5.74z" fill="#999ba1"/><path d="M78.1 96.73L76.6 97.9a8.34 8.34 0 0 0-2 2.26l-3.8 6.37 1.74 5.76 6.35-10.6z" fill="#82858f"/><path d="M84.14 107.44L89 123.2s17.78-9.6 23.2-21.5l-3-5.9a8.36 8.36 0 0 0-5.53-4.34" fill="#999ba1"/><path d="M155 145a.88.88 0 0 1-.82-.58 61.08 61.08 0 0 0-7.42-14.83.87.87 0 0 1 .21-1.22.88.88 0 0 1 1.22.21 62.92 62.92 0 0 1 7.64 15.25.89.89 0 0 1-.53 1.12 1 1 0 0 1-.3.05zm-10.66-19a.88.88 0 0 1-.66-.3c-6.53-7.48-15.12-12.8-28.12-20.87l-3.85-2.4a.88.88 0 0 1 .92-1.49l3.85 2.4c12.67 7.86 21.82 13.53 28.52 21.2a.88.88 0 0 1-.08 1.24.9.9 0 0 1-.58.21zM37.26 157a1 1 0 0 1-.28 0 .88.88 0 0 1-.55-1.11c1.8-5.37 6.2-18.4 8.4-23.27 4.1-9.13 8.6-13 18.38-20.94a.87.87 0 0 1 1.23.13.88.88 0 0 1-.13 1.19c-9.56 7.74-13.95 11.53-17.9 20.3-2.16 4.8-6.54 17.77-8.32 23.12a.87.87 0 0 1-.83.59zm29.96-46.64a.85.85 0 0 1-.68-.33.87.87 0 0 1 .13-1.23l3.62-2.94a.874.874 0 0 1 1.11 1.35l-3.63 3a.89.89 0 0 1-.55.15zM120 165.78a.87.87 0 0 1-.84-.91 163 163 0 0 1 1.53-17.72.86.86 0 0 1 1-.72.87.87 0 0 1 .73 1 159.4 159.4 0 0 0-1.59 17.57.87.87 0 0 1-.83.78zm4.35-28.13a.85.85 0 0 1-.35-.08.88.88 0 0 1-.46-1.15 46.88 46.88 0 0 1 6.46-10.36.88.88 0 0 1 1.23-.16.89.89 0 0 1 .16 1.23 44.83 44.83 0 0 0-6.25 10 .88.88 0 0 1-.79.52z" fill="#57585a"/><path d="M71.56 38.7c-10.34 0-11.64 7-11.43 12.2.1 2.66 1 8.6 0 10.54s-3.6 4.26-3.47 5.37c.06.54 1.37 1.35 2.7 2.05-.5 6.57-.67 12.16.68 15.28 2 4.58 6.4 6.17 11.8 4.4a43.93 43.93 0 0 0 4.68-1.84l2.44 15 5.24 5.74a54 54 0 0 0 17.14-10.13c1-.87 2-1.8 2.93-2.8l-2.8-15.1a65.76 65.76 0 0 1 2.8-16.3c6.48-20.13-8.6-24.43-32.7-24.43z" fill="#fff"/><g fill="#f2f3f5"><path d="M60.13 50.9c-.35 2.64 1 8.6 0 10.54C65 55.7 63.27 50 70 46.7a14.15 14.15 0 0 1-2.42-4.52s-7.02 5.4-7.45 8.74z"/><ellipse cx="75.88" cy="65.29" rx="3.19" ry="2.56" transform="matrix(.929776 -.368125 .368125 .929776 -18.71 32.52)"/><path d="M79.73 85.06L76.5 87l2.4 14.7 5.24 5.74a48.27 48.27 0 0 0 8.1-3.74c-2.33-13.58-9.75-17.97-12.5-18.64z"/><circle cx="67.97" cy="79.57" r="1.26"/><path d="M62.15 78.63l.82-8-3.8-1.8.2.1c-.5 6.57-.67 12.16.68 15.28a8 8 0 0 0 5 4.71c-2.56-.9-3.4-3.85-2.88-10.28z"/><ellipse cx="92.05" cy="65.95" rx="2.33" ry=".9" transform="matrix(.560494 -.828158 .828158 .560494 -14.16 105.22)"/></g><g fill="#57585a"><path d="M67.7 90.14a8.82 8.82 0 0 1-8.48-5.65c-1.4-3.2-1.3-8.6-.75-15.7a.873.873 0 1 1 1.74.14c-.46 5.92-.7 11.82.6 14.86 1.8 4.14 5.7 5.57 10.72 3.93a38.09 38.09 0 0 0 12-6.36.89.89 0 0 1 1.23.15.87.87 0 0 1-.14 1.23 39.68 39.68 0 0 1-12.6 6.64 14.24 14.24 0 0 1-4.33.75zm-.7-13.8a9.46 9.46 0 0 1-2.77-.35.88.88 0 1 1 .53-1.67c1.55.5 3.7.4 7-.3a.875.875 0 1 1 .37 1.71 25.13 25.13 0 0 1-5.13.62zm6.36-19.95a.85.85 0 0 1-.5-.16 4.39 4.39 0 0 0-1.66-.84.87.87 0 0 1-.72-1 .89.89 0 0 1 1-.72 6 6 0 0 1 2.38 1.14.88.88 0 0 1-.51 1.59zm-12.94-.3a.87.87 0 0 1-.42-1.61 5.14 5.14 0 0 1 1.92-.83.89.89 0 0 1 1 .72.87.87 0 0 1-.72 1 3.69 3.69 0 0 0-1.27.57.81.81 0 0 1-.51.15zm10.68 6.5c-.66 0-1.1-.6-1.1-1.44s.46-1.45 1.12-1.45 1.12.6 1.12 1.45-.5 1.44-1.15 1.44zm-.6-1.44a.75.75 0 0 0 1.2 0 .74.74 0 0 0-1.2 0zm31.5-17.6c-6.83-5.2-18.8-4-25.62-7.12s-13.78-5.83-19.9-.8c-8 6.53-5 16.7 3.72 18.08v-2.8c.43-3.33 7.5-8.75 7.5-8.75s2.08 7.7 10.13 9.22c0 0-.55 7.7 4.86 8.82l.33 3.34a3.61 3.61 0 0 0 3.46 3.18s1.37-7.52 7.3-6.08c3.9 1 5.06 7.78-1.14 11.13 0 0 2.4 6.23 8.77 7.64-.1-2.66 2-8 4.67-15.5s1.48-16.12-4.06-20.35z"/><path d="M101.4 80.3h-.2c-6.75-1.5-9.3-7.92-9.4-8.2a.87.87 0 0 1 .4-1.08c3.23-1.74 4.1-4.4 3.87-6.33a3.59 3.59 0 0 0-2.52-3.18 4.11 4.11 0 0 0-3.35.46c-2.22 1.44-2.87 4.9-2.87 4.92a.89.89 0 0 1-.89.72 4.46 4.46 0 0 1-4.31-4l-.34-2.74c-4.5-1.37-4.94-6.8-5-8.82a14.09 14.09 0 0 1-9.65-8.47C65 45.44 61.33 48.87 61 51v2.7a.87.87 0 0 1-1 .87 10.46 10.46 0 0 1-8.75-7.44c-1.17-4.3.56-8.85 4.62-12.18 6.38-5.23 13.5-2.66 20.82.7 2.72 1.24 6.3 1.78 10.2 2.36 5.62.84 11.43 1.7 15.6 4.87 5.54 4.2 7.36 13 4.43 21.34l-1.36 3.83c-1.86 5.2-3.34 9.33-3.26 11.35a.86.86 0 0 1-.32.7.83.83 0 0 1-.56.2zm-7.64-8.17a12.45 12.45 0 0 0 6.83 6.16c.3-2.43 1.6-6.07 3.3-10.84l1.35-3.8c2.7-7.67 1.12-15.63-3.82-19.38-3.82-2.9-9.4-3.72-14.8-4.53-4-.58-7.72-1.14-10.66-2.48C68.9 34 62.6 31.7 57 36.3c-3.5 2.88-5 6.75-4 10.36a8.45 8.45 0 0 0 6.32 6V50.9a.49.49 0 0 1 0-.12c.47-3.58 7.08-8.74 7.83-9.32a.87.87 0 0 1 .81-.14.9.9 0 0 1 .57.6c.08.3 2 7.2 9.44 8.6a.86.86 0 0 1 .71.92c0 .07-.43 7 4.17 7.9a.87.87 0 0 1 .69.75l.4 3.33a2.72 2.72 0 0 0 1.94 2.3 9.45 9.45 0 0 1 3.44-5.25 5.87 5.87 0 0 1 4.68-.69 5.31 5.31 0 0 1 3.83 4.65 8 8 0 0 1-4.06 7.68z"/></g><path d="M77.57 148.17a.86.86 0 0 1-.84-.91c1-25.24 6.57-40 6.63-40.13a.874.874 0 1 1 1.63.63c0 .15-5.52 14.65-6.5 39.58a.88.88 0 0 1-.91.83zm35.3 10.46h-.06a.87.87 0 0 1-.81-.93 107.13 107.13 0 0 1 1.64-14.06L93 142a114.33 114.33 0 0 0-1.6 14 .89.89 0 0 1-.93.82.88.88 0 0 1-.82-.93 108.19 108.19 0 0 1 1.76-15.07.88.88 0 0 1 .93-.7l22.43 1.88a.88.88 0 0 1 .63.35.85.85 0 0 1 .15.71 99.64 99.64 0 0 0-1.81 14.77.87.87 0 0 1-.87.8zm-7.67 8.6a.87.87 0 0 1-.35-1.67l7.37-3.3a.871.871 0 1 1 .71 1.59l-7.37 3.3a.76.76 0 0 1-.36.08zm-4.95 2.23a.87.87 0 0 1-.51-.17l-10-7.35a.88.88 0 1 1 1-1.41l10 7.35a.88.88 0 0 1 .19 1.22.89.89 0 0 1-.68.36z" fill="#82858f"/><g fill="#57585a"><path d="M78 118.88a.86.86 0 0 1-.75-1.31L83.4 107a.87.87 0 0 1 1.19-.32.88.88 0 0 1 .32 1.2l-6.14 10.57a.87.87 0 0 1-.76.43zm-2.43 4.2a.88.88 0 0 1-.84-.62L70 106.8a.86.86 0 0 1 .09-.7l3.8-6.38a9.1 9.1 0 0 1 2.18-2.49L77.54 96a.88.88 0 1 1 1.09 1.37l-1.47 1.18a7.28 7.28 0 0 0-1.77 2l-3.6 6L76.4 122a.88.88 0 0 1-.59 1.09 1.07 1.07 0 0 1-.25-.02z"/><path d="M89 124.1a.86.86 0 0 1-.83-.62l-4.83-15.78a.873.873 0 1 1 1.67-.51l4.8 15.8a.87.87 0 0 1-.58 1.09.75.75 0 0 1-.23 0zm6-3.74a.87.87 0 0 1-.49-1.59c5.82-4 13.4-10.1 16.72-17l-2.8-5.5a7.48 7.48 0 0 0-5-3.89.87.87 0 0 1-.66-1 .89.89 0 0 1 1.06-.65 9.2 9.2 0 0 1 6.11 4.8l3 5.88a.88.88 0 0 1 0 .76c-3.4 7.46-11.4 14-17.5 18.13a.81.81 0 0 1-.43.06zm-43.23 45.2a.87.87 0 0 1-.87-.89l.24-8.6a.88.88 0 0 1 .92-.84.89.89 0 0 1 .83.92l-.24 8.55a.89.89 0 0 1-.88.87zm.58-13.84h-.07a.87.87 0 0 1-.8-.94c.52-6.33 1.37-11.2 2.55-14.47a.88.88 0 0 1 1.65.59c-1.13 3.13-2 7.84-2.46 14a.86.86 0 0 1-.87.82z"/><path d="M77.4 93.43a.89.89 0 0 1-.87-.73l-.94-5.8a.871.871 0 0 1 1.72-.28l1 5.8a.86.86 0 0 1-.72 1zm6.74 14.87a.88.88 0 0 1-.64-.28l-5.25-5.74a.85.85 0 0 1-.21-.45l-.8-5a.894.894 0 1 1 1.77-.25l.77 4.7 4.68 5.12a54.35 54.35 0 0 0 16.3-9.76.87.87 0 1 1 1.11 1.34 54.35 54.35 0 0 1-17.45 10.3.84.84 0 0 1-.27.01zm20.06-12.9a.89.89 0 0 1-.86-.72l-2.27-12.3a.874.874 0 1 1 1.72-.31l2.28 12.28a.88.88 0 0 1-.71 1z"/></g><path d="M85.48 45.7c-1.63-.2-1.72 1.42-.48 2.3a22.12 22.12 0 0 0 10.5 3.38c2.94.18 5.22-3.8 1.15-4.2C90 46.5 87.8 46 85.48 45.7zm15.9 1.65c-1.4 0-1.2 3.82 1.32 4 2.88.17.82-4.06-1.32-4zm-42.9-8.23c-.62-1.26-4 .52-3.08 2.87 1.04 2.7 4.02-.94 3.08-2.87zm24.24 7.02c.44-.68-1.4-3-3-1.26-1.12 1.2 2.3 2.34 3 1.26z" fill="#999ba1"/><path d="M62.17 71.07a.8.8 0 0 1-.34-.07c-3.88-1.63-5.9-3-6-4.07s.74-2.07 1.83-3.43a15.54 15.54 0 0 0 1.72-2.44c.46-.9.24-3.5.06-5.6a24.75 24.75 0 0 1-.14-4.67.87.87 0 0 1 1.7.21 25.5 25.5 0 0 0 .15 4.29c.23 2.66.45 5.18-.23 6.53A16.8 16.8 0 0 1 59 64.59a10.79 10.79 0 0 0-1.44 2.07 20.15 20.15 0 0 0 5 2.73.88.88 0 0 1 .44 1.15.87.87 0 0 1-.83.53zM57.5 66.6" fill="#57585a"/><circle cx="98.06" cy="5.09" r="2.49" fill="#e3e5e8"/><path d="M99.86 7.68a.87.87 0 0 1-.63-1.47 1.67 1.67 0 0 0 .44-1.16A1.61 1.61 0 0 0 96.89 4a.88.88 0 0 1-1.24 0 .86.86 0 0 1 0-1.23 3.36 3.36 0 1 1 4.87 4.63.86.86 0 0 1-.66.28z" fill="#57585a"/><circle cx="93.88" cy="30.45" r="3.3" fill="#d3d5da"/><path d="M93.87 34.63a4.18 4.18 0 0 1-3.41-6.57 4.17 4.17 0 0 1 5.81-1 .86.86 0 0 1 .22 1.21.87.87 0 0 1-1.22.22 2.43 2.43 0 1 0 .6 3.38.87.87 0 0 1 1.43 1 4.18 4.18 0 0 1-3.43 1.76z" fill="#57585a"/><path d="M101.1 29.08c.28-2.28-1.1-7.13-1.83-9l1.5-3.75C102.5 12 101.1 7.4 97.68 6s-7.6 1-9.33 5.27l-1.5 3.75c-1.85.87-6.2 3.42-7.58 5.26 1.37 2.92 6 6.27 9.58 7.72s9.25 2.24 12.25 1.08z" fill="#e3e5e8"/><path d="M101.1 29.08c.28-2.28-1.1-7.13-1.83-9l1.13-2.83c-6.52 0-11.6 4.25-14.68 9.23A22 22 0 0 0 88.84 28c3.6 1.48 9.25 2.24 12.25 1.08z" fill="#d3d5da"/><path d="M89.68 17l1.45-3.6a10 10 0 0 1 1.83-3 1.74 1.74 0 0 0-.14-2.4 1.75 1.75 0 0 0-2.41.09 10.17 10.17 0 0 0-2.06 3.22l-1.5 3.75-1.1.56a1.61 1.61 0 0 0-.32 2.61 1.6 1.6 0 0 0 1.89.18z" fill="#fff"/><path d="M86.84 15.92a1 1 0 0 1-.32-.06.88.88 0 0 1-.52-1.14L87.54 11a9.65 9.65 0 0 1 6.76-6.1.872.872 0 1 1 .34 1.71 7.94 7.94 0 0 0-5.48 5l-1.5 3.76a.88.88 0 0 1-.82.55zm13.56 2.18a.87.87 0 0 1-.32-.06.88.88 0 0 1-.49-1.14l.42-.9a8.56 8.56 0 0 0 .36-5.64 5.18 5.18 0 0 0-3-3.48.89.89 0 0 1 .64-1.66 6.92 6.92 0 0 1 4 4.6 10.37 10.37 0 0 1-.41 6.79l-.38.93a.87.87 0 0 1-.82.55zm-3.1 12.42a25.08 25.08 0 0 1-8.79-1.68c-3.77-1.5-8.55-5-10-8.16a.87.87 0 0 1 .09-.89c1.12-1.5 3.76-3.2 5.23-4.08a.875.875 0 1 1 .9 1.5 22.92 22.92 0 0 0-4.38 3.22c1.5 2.57 5.65 5.5 8.8 6.8s8.22 2 11.1 1.22a29.18 29.18 0 0 0-1.81-8.09.874.874 0 1 1 1.63-.63c.62 1.6 2.2 6.84 1.9 9.47a.89.89 0 0 1-.56.71 11.52 11.52 0 0 1-4.1.62zm7.64 3.25a.86.86 0 0 1-.27-.05.87.87 0 0 1-.56-1.1 15.84 15.84 0 0 0 .37-8.47.88.88 0 0 1 1.71-.4 17.61 17.61 0 0 1-.42 9.41.88.88 0 0 1-.83.61zm3.66 1.6a.92.92 0 0 1-.29 0 .88.88 0 0 1-.54-1.12 19.9 19.9 0 0 0 .68-10.64.874.874 0 0 1 1.71-.36 21.57 21.57 0 0 1-.74 11.58.86.86 0 0 1-.82.54zM70.08 19.9a.9.9 0 0 1-.36-.08.87.87 0 0 1-.43-1.16 21.61 21.61 0 0 1 7.48-8.87.881.881 0 0 1 1 1.45 19.83 19.83 0 0 0-6.87 8.15.89.89 0 0 1-.82.51zm3.77 1.37a.92.92 0 0 1-.39-.09.88.88 0 0 1-.4-1.17 17.62 17.62 0 0 1 6.21-7.07.86.86 0 0 1 1.21.25.87.87 0 0 1-.25 1.21 15.86 15.86 0 0 0-5.6 6.38.87.87 0 0 1-.78.49z" fill="#57585a"/></svg>