<svg xmlns="http://www.w3.org/2000/svg" viewBox="0 0 180 180"><path d="M114 173.92c38.8-8.76 57.9-50.27 53.66-83.85-1.93-15.24-8.9-24.18-18-27.14-13.45-4.34-23.7 5.94-33.2 15.58-38.57 39.18-91 13.2-101.63 34.83-9.75 19.7 26.27 77.03 99.16 60.58z" fill="#ffb87f"/><path d="M114 173.92c35.87-8.1 54.9-44.18 54.2-76.12-41.16 17-62.36 41.47-100.23 35.82-24-3.58-40.7-5.9-53.5-4.55C21.26 153.3 55.93 187 114 173.92z" fill="#ffad66"/><path d="M114 173.92c19.18-4.33 33.54-16.66 42.65-32.08-7.56-19.8-18.4-26.5-39.36-39.5l-3.2-2-2.66-5.22a11 11 0 0 0-5.58-5.11l-.4-2.18c-11.12 7.7-22.88 11.28-34.16 13.1l-2.62 4.4-4.88 3.96c-11.5 9.3-16.26 13.15-20.73 23.08-2.55 5.65-7.82 21.5-9.05 25.3 16.9 14.5 43.93 24.4 80 16.27z" fill="#fff"/><path d="M114 173.92c18-4 31.72-15.14 40.87-29.2v-.1C147.13 123 136 117.1 112 102.2L70.7 107c-15.14 12.4-20.42 15.67-25.23 26.38-2.8 6.22-9.23 25.83-9.23 25.83l-.12.2c17.04 13.52 43.3 22.3 77.87 14.5z" fill="#f3a183"/><path d="M53.17 144.4H53c-.84 5.38-1.4 13.2-1.4 24.53 12.16 5.65 27.07 8.87 44.6 7.63-16.83-18.7-32.05-32.2-43.06-32.16zm67.73 6.6c-.65 5.4-1 12.25-1.34 21.4a63.15 63.15 0 0 0 17.87-9.1c-5.42-8.7-11.8-11.75-16.53-12.3zm-48.68-23.65c2.25.3 9.27-9.57 9.27-9.57s2.42 13.1 5 12.7c1.9-.3 14.33-6.8 18.56-18l-21.7-6.9L70.7 107l-3.63 3c.25 9.14 3.57 17.15 5.14 17.35z" fill="#f78668"/><path d="M78 97.22l-1.48 1.17a8.7 8.7 0 0 0-2 2.26L70.7 107l4.72 15.67L84 107.93l-5.25-5.74z" fill="#f3a183"/><path d="M78 97.22l-1.48 1.17a8.7 8.7 0 0 0-2 2.26L70.7 107l1.73 5.76 6.32-10.6z" fill="#f78668"/><path d="M84 107.93l4.83 15.77s17.77-9.6 23.2-21.5l-3-5.88a8.34 8.34 0 0 0-5.51-4.32" fill="#f3a183"/><path d="M154.83 145.48a.89.89 0 0 1-.83-.58 60.72 60.72 0 0 0-7.42-14.83.88.88 0 1 1 1.43-1 62.57 62.57 0 0 1 7.64 15.25.88.88 0 0 1-.53 1.12 1 1 0 0 1-.29.04zM144.2 126.5a.85.85 0 0 1-.66-.3c-6.53-7.48-15.12-12.8-28.13-20.87l-3.85-2.34a.88.88 0 1 1 .93-1.49l3.84 2.4c12.67 7.86 21.82 13.53 28.53 21.2a.88.88 0 0 1-.09 1.24.87.87 0 0 1-.57.16zM37.12 157.46a.84.84 0 0 1-.27 0 .88.88 0 0 1-.56-1.11c1.8-5.37 6.2-18.4 8.4-23.27 4.1-9.13 8.6-13 18.38-20.94a.875.875 0 1 1 1.1 1.36c-9.55 7.7-13.94 11.5-17.88 20.25-2.16 4.8-6.54 17.77-8.33 23.1a.87.87 0 0 1-.83.6zm29.96-46.6a.86.86 0 0 1-.68-.33.88.88 0 0 1 .13-1.23l3.62-2.94a.874.874 0 0 1 1.11 1.35l-3.63 3a.87.87 0 0 1-.55.15zm52.74 55.42a.87.87 0 0 1-.83-.91 163.49 163.49 0 0 1 1.52-17.72.88.88 0 0 1 1.73.28 161.94 161.94 0 0 0-1.51 17.52.86.86 0 0 1-.91.83zm4.38-28.13a.89.89 0 0 1-.35-.08.87.87 0 0 1-.45-1.15 46.5 46.5 0 0 1 6.47-10.36.873.873 0 1 1 1.38 1.07 45.58 45.58 0 0 0-6.25 10 .87.87 0 0 1-.8.52z" fill="#57585a"/><path d="M71.43 39.2c-10.35 0-11.64 7-11.44 12.2.1 2.66 1 8.6 0 10.54s-3.6 4.26-3.47 5.37c.07.54 1.37 1.35 2.7 2-.52 6.57-.68 12.16.67 15.28 2 4.58 6.4 6.17 11.8 4.4a44.12 44.12 0 0 0 4.69-1.84h-.05l2.44 15 5.24 5.77a54 54 0 0 0 17.14-10.13c1-.87 2-1.8 2.93-2.8l-2.8-15.1a66 66 0 0 1 2.79-16.3c6.52-20.16-8.55-24.4-32.64-24.4z" fill="#fff"/><g fill="#fef0e5"><path d="M60 51.4c-.36 2.6 1 8.6 0 10.54 4.84-5.75 3.14-11.4 9.92-14.76a14.15 14.15 0 0 1-2.42-4.52s-7.07 5.4-7.5 8.74z"/><ellipse cx="75.75" cy="65.78" rx="3.19" ry="2.56" transform="matrix(.929776 -.368125 .368125 .929776 -18.9 32.5)"/><path d="M79.6 85.55l-3.23 1.94 2.4 14.7 5.24 5.74a48.69 48.69 0 0 0 8.1-3.74c-2.32-13.58-9.74-17.97-12.5-18.64z"/><circle cx="67.84" cy="80.06" r="1.26"/><path d="M62 79.12l.8-8.05-3.8-1.8.2.1c-.52 6.57-.68 12.16.67 15.28a8 8 0 0 0 5 4.71c-2.53-.82-3.35-3.8-2.86-10.23z"/><ellipse cx="91.92" cy="66.44" rx="2.33" ry=".9" transform="matrix(.560494 -.828158 .828158 .560494 -14.62 105.32)"/></g><g fill="#57585a"><path d="M67.58 90.63A8.84 8.84 0 0 1 59.09 85c-1.4-3.2-1.3-8.6-.75-15.7a.88.88 0 0 1 1.75.14c-.46 5.92-.7 11.82.6 14.86 1.8 4.14 5.7 5.57 10.7 3.93a38 38 0 0 0 12.06-6.36.89.89 0 0 1 1.23.12.88.88 0 0 1-.15 1.23A39.62 39.62 0 0 1 72 89.88a14.34 14.34 0 0 1-4.42.75zm-.68-13.8a9.43 9.43 0 0 1-2.8-.38.88.88 0 1 1 .53-1.67c1.54.5 3.7.4 7-.3A.875.875 0 1 1 72 76.2a25.13 25.13 0 0 1-5.1.65zm6.33-19.96a.86.86 0 0 1-.51-.16 4.39 4.39 0 0 0-1.66-.84.88.88 0 0 1 .29-1.73 6 6 0 0 1 2.38 1.14.88.88 0 0 1-.5 1.59zM60.3 56.6a.88.88 0 0 1-.48-1.59 5.17 5.17 0 0 1 1.93-.83.88.88 0 0 1 .26 1.71 3.58 3.58 0 0 0-1.26.57.83.83 0 0 1-.45.14zM71 63.1c-.66 0-1.12-.6-1.12-1.44s.4-1.45 1.12-1.45 1.13.6 1.13 1.45-.5 1.44-1.13 1.44zm-.6-1.44a.71.71 0 0 0 .6.34.73.73 0 0 0 .6-.3.71.71 0 0 0-.6-.31.69.69 0 0 0-.64.26zm31.42-17.6C95 38.86 83 40 76.2 36.93s-13.77-5.83-19.9-.8c-8 6.53-5 16.7 3.7 18.08v-2.8c.44-3.33 7.5-8.75 7.5-8.75s2.08 7.7 10.13 9.22c0 0-.56 7.7 4.85 8.82l.4 3.3a3.6 3.6 0 0 0 3.47 3.17s1.36-7.5 7.3-6.07c3.92.95 5.06 7.78-1.14 11.13 0 0 2.4 6.23 8.78 7.64-.1-2.66 2-8 4.67-15.5s1.46-16.1-4.13-20.32z"/><path d="M101.28 80.78h-.2c-6.76-1.5-9.3-7.92-9.4-8.2a.88.88 0 0 1 .41-1.08c3.22-1.74 4.1-4.4 3.86-6.33A3.58 3.58 0 0 0 93.44 62a4.14 4.14 0 0 0-3.36.46c-2.22 1.44-2.86 4.9-2.87 4.92a.89.89 0 0 1-.89.72 4.46 4.46 0 0 1-4.31-4l-.33-2.74c-4.5-1.37-5-6.8-5-8.82a14.1 14.1 0 0 1-9.64-8.47c-2.2 1.83-5.88 5.26-6.2 7.36v2.73a.87.87 0 0 1-.31.67.85.85 0 0 1-.7.2 10.47 10.47 0 0 1-8.76-7.44c-1.16-4.3.56-8.85 4.62-12.18 6.4-5.23 13.5-2.66 20.83.7 2.7 1.24 6.34 1.78 10.18 2.35 5.62.84 11.43 1.7 15.6 4.87 5.54 4.2 7.36 13 4.42 21.34l-1.36 3.83c-1.86 5.2-3.33 9.33-3.26 11.35a.88.88 0 0 1-.87.91zm-7.65-8.17a12.45 12.45 0 0 0 6.83 6.16c.3-2.43 1.6-6.07 3.3-10.84l1.35-3.82c2.7-7.66 1.1-15.62-3.83-19.37-3.82-2.9-9.4-3.72-14.8-4.53-4-.58-7.7-1.14-10.65-2.48-7.07-3.23-13.37-5.54-19-.93-3.5 2.88-5 6.75-4 10.36a8.45 8.45 0 0 0 6.32 6v-1.88C59.6 47.7 66.2 42.54 67 42a.88.88 0 0 1 .81-.14.9.9 0 0 1 .57.6c.08.3 2.06 7.2 9.45 8.6a.88.88 0 0 1 .71.92c0 .07-.43 7 4.16 7.9a.85.85 0 0 1 .69.75l.4 3.33a2.71 2.71 0 0 0 1.94 2.3A9.39 9.39 0 0 1 89.13 61a5.84 5.84 0 0 1 4.72-.69 5.32 5.32 0 0 1 3.84 4.65c.3 2.32-.64 5.48-4.06 7.65z"/></g><path d="M77.44 148.65a.87.87 0 0 1-.84-.91c1-25.24 6.58-40 6.63-40.13a.88.88 0 0 1 1.64.63c-.06.15-5.53 14.65-6.52 39.58a.87.87 0 0 1-.91.83zm35.3 10.47h-.06a.88.88 0 0 1-.82-.93 107.13 107.13 0 0 1 1.64-14.06l-20.66-1.7a114 114 0 0 0-1.58 14.07.89.89 0 0 1-.93.82.88.88 0 0 1-.82-.93 108.31 108.31 0 0 1 1.77-15.08.88.88 0 0 1 .93-.69l22.42 1.84a.88.88 0 0 1 .63.35.85.85 0 0 1 .15.71 101.23 101.23 0 0 0-1.8 14.77.87.87 0 0 1-.87.82zm-7.67 8.6a.88.88 0 0 1-.8-.52.86.86 0 0 1 .44-1.15l7.37-3.3a.88.88 0 0 1 1.16.44.87.87 0 0 1-.44 1.15l-7.37 3.3a.78.78 0 0 1-.36.08zm-4.95 2.22a.91.91 0 0 1-.52-.16l-10-7.35a.88.88 0 0 1 1-1.41l10 7.34a.88.88 0 0 1 .19 1.23.86.86 0 0 1-.67.35z" fill="#f78668"/><g fill="#57585a"><path d="M77.87 119.37a.87.87 0 0 1-.44-.11.88.88 0 0 1-.32-1.2l6.14-10.57a.88.88 0 0 1 1.52.88l-6.15 10.57a.86.86 0 0 1-.75.43zm-2.44 4.2a.86.86 0 0 1-.83-.62l-4.73-15.66a.9.9 0 0 1 .08-.7l3.8-6.38a9.12 9.12 0 0 1 2.18-2.49l1.48-1.18a.88.88 0 0 1 1.09 1.37L77 99.08a7.45 7.45 0 0 0-1.77 2l-3.6 6 4.62 15.3a.87.87 0 0 1-.58 1.09 1.15 1.15 0 0 1-.24.09z"/><path d="M88.84 124.58A.88.88 0 0 1 88 124l-4.83-15.78a.87.87 0 0 1 .58-1.09.89.89 0 0 1 1.1.58l4.83 15.78a.87.87 0 0 1-.59 1.09.73.73 0 0 1-.25 0zm6-3.73a.87.87 0 0 1-.49-1.59c5.82-4 13.4-10.1 16.72-17l-2.8-5.5a7.46 7.46 0 0 0-5-3.89.873.873 0 0 1 .4-1.7 9.18 9.18 0 0 1 6.11 4.8l3 5.88a.88.88 0 0 1 0 .76c-3.4 7.46-11.4 14-17.5 18.13a.84.84 0 0 1-.44.11zm-43.2 45.2a.89.89 0 0 1-.87-.89l.25-8.6a.871.871 0 1 1 1.74.08l-.24 8.55a.87.87 0 0 1-.88.87zm.58-13.85h-.08a.87.87 0 0 1-.8-.94c.52-6.33 1.38-11.2 2.56-14.47a.871.871 0 1 1 1.64.59c-1.12 3.13-1.95 7.84-2.45 14a.88.88 0 0 1-.87.82z"/><path d="M77.27 93.92a.87.87 0 0 1-.86-.73l-1-5.8a.88.88 0 0 1 1.73-.28l1 5.8a.87.87 0 0 1-.73 1zM84 108.8a.9.9 0 0 1-.65-.28l-5.24-5.74a.87.87 0 0 1-.22-.45l-.8-5a.88.88 0 1 1 1.73-.28l.77 4.7 4.67 5.12a54.23 54.23 0 0 0 16.31-9.76.86.86 0 0 1 1.23.08.87.87 0 0 1-.08 1.23 54.25 54.25 0 0 1-17.44 10.3.84.84 0 0 1-.27.07zm20.07-12.92a.88.88 0 0 1-.86-.72l-2.27-12.3a.87.87 0 0 1 .7-1 .89.89 0 0 1 1 .71l2.27 12.28a.87.87 0 0 1-.7 1z"/></g><path d="M85.35 46.18c-1.63-.2-1.73 1.4-.47 2.3a22.07 22.07 0 0 0 10.49 3.38c2.94.18 5.22-3.8 1.15-4.2-6.7-.66-8.85-1.2-11.17-1.48zm15.88 1.65c-1.4 0-1.2 3.83 1.32 4 2.9.17.83-4.05-1.32-4zm-42.9-8.23c-.62-1.26-4 .52-3.07 2.87 1.03 2.7 4-.94 3.07-2.87zm24.23 7.03c.44-.68-1.4-3-3-1.26-1.12 1.2 2.3 2.34 3 1.26z" fill="#999ba1"/><path d="M62 71.56a.83.83 0 0 1-.34-.07c-3.87-1.63-5.9-3-6-4.07s.74-2.07 1.83-3.43a15.65 15.65 0 0 0 1.73-2.44c.46-.9.23-3.5 0-5.6a25.62 25.62 0 0 1-.14-4.67.88.88 0 0 1 1.74.23A24.47 24.47 0 0 0 61 55.8c.23 2.66.44 5.18-.24 6.53a16.72 16.72 0 0 1-1.92 2.75 9.94 9.94 0 0 0-1.44 2.07 19.82 19.82 0 0 0 5 2.73.87.87 0 0 1-.4 1.68zm-4.68-4.48" fill="#57585a"/><circle cx="97.92" cy="5.58" r="2.49" fill="#ffb87f"/><path d="M99.72 8.17a.87.87 0 0 1-.63-1.48 1.58 1.58 0 0 0 .44-1.15 1.61 1.61 0 0 0-2.78-1.07.88.88 0 0 1-1.24 0 .87.87 0 0 1 0-1.23 3.36 3.36 0 0 1 5.8 2.23 3.29 3.29 0 0 1-.92 2.4.87.87 0 0 1-.67.3z" fill="#57585a"/><circle cx="93.74" cy="30.94" r="3.3" fill="#ffad66"/><path d="M93.74 35.12a4.18 4.18 0 1 1 2.4-7.6.87.87 0 0 1-1 1.43 2.44 2.44 0 0 0-3.39.6 2.42 2.42 0 0 0-.4 1.81 2.43 2.43 0 0 0 4.38 1 .88.88 0 1 1 1.44 1 4.21 4.21 0 0 1-3.43 1.76z" fill="#57585a"/><path d="M101 29.57c.28-2.28-1.1-7.13-1.83-9l1.5-3.75c1.72-4.3.34-8.88-3.1-10.26s-7.6 1-9.32 5.27l-1.5 3.75c-1.85.87-6.2 3.42-7.58 5.26 1.36 2.92 6 6.27 9.57 7.72s9.25 2.17 12.25 1z" fill="#ffb87f"/><path d="M101,29.57c.28-2.28-1.1-7.13-1.83-9l1.14-2.83c-6.52,0-11.62,4.25-14.68,9.23a21.4,21.4,0,0,0,3.12,1.59C92.32,30,98,30.73,101,29.57Z" fill="#ffad66"/><path d="M89.55 17.5L91 13.9a9.61 9.61 0 0 1 1.83-3 1.74 1.74 0 1 0-2.55-2.37 9.84 9.84 0 0 0-2.06 3.22l-1.5 3.75-1.1.56a1.61 1.61 0 0 0-.31 2.61 1.58 1.58 0 0 0 1.88.18z" fill="#fff"/><path d="M86.7 16.4a1 1 0 0 1-.33-.06.87.87 0 0 1-.48-1.14l1.5-3.75a9.63 9.63 0 0 1 6.76-6.07.871.871 0 1 1 .33 1.71 7.94 7.94 0 0 0-5.47 5l-1.5 3.75a.86.86 0 0 1-.81.56zm13.56 2.18a1 1 0 0 1-.33-.06.88.88 0 0 1-.49-1.14l.38-.93a8.62 8.62 0 0 0 .36-5.64 5.23 5.23 0 0 0-3-3.48.87.87 0 0 1-.49-1.13.88.88 0 0 1 1.14-.49 6.9 6.9 0 0 1 4 4.6 10.3 10.3 0 0 1-.41 6.79l-.37.93a.89.89 0 0 1-.79.55zM97.16 31a25.31 25.31 0 0 1-8.79-1.68c-3.76-1.5-8.55-5-10-8.16a.87.87 0 0 1 .1-.89c1.1-1.5 3.75-3.2 5.23-4.08a.872.872 0 0 1 .89 1.5 22.47 22.47 0 0 0-4.37 3.22c1.52 2.56 5.66 5.5 8.85 6.8s8.2 2 11.1 1.22a29.55 29.55 0 0 0-1.82-8.09.88.88 0 0 1 1.64-.63c.6 1.6 2.2 6.84 1.88 9.47a.88.88 0 0 1-.55.71 11.85 11.85 0 0 1-4.15.62zm7.64 3.26a.86.86 0 0 1-.27 0 .87.87 0 0 1-.57-1.1 16 16 0 0 0 .38-8.47.873.873 0 0 1 1.7-.4 17.6 17.6 0 0 1-.41 9.41.89.89 0 0 1-.83.56zm3.67 1.6a1 1 0 0 1-.29 0 .89.89 0 0 1-.54-1.12 19.8 19.8 0 0 0 .68-10.64.874.874 0 1 1 1.71-.36 21.62 21.62 0 0 1-.73 11.57.88.88 0 0 1-.83.55zM70 20.4a1 1 0 0 1-.37-.08.87.87 0 0 1-.43-1.16 21.61 21.61 0 0 1 7.48-8.87.881.881 0 1 1 1 1.45 19.91 19.91 0 0 0-6.87 8.15.87.87 0 0 1-.81.51zm3.7 1.36a.85.85 0 0 1-.38-.09.87.87 0 0 1-.41-1.17 17.57 17.57 0 0 1 6.22-7.07.86.86 0 0 1 1.21.25.87.87 0 0 1-.26 1.21 15.84 15.84 0 0 0-5.59 6.38.88.88 0 0 1-.79.49z" fill="#57585a"/></svg>