<svg xmlns="http://www.w3.org/2000/svg" viewBox="0 0 180 180"><path d="M40.6 150.47c-30.37-20.75-38.05-67.57-23.42-97C23.82 40.08 33.06 34.1 42.4 34.3c13.72.3 19.84 13 25.47 24.9C90.74 107.48 148 100.32 150 123.63c2.65 31.9-62.75 58.72-109.4 26.84z" fill="#999ba1"/><path d="M40.14 99.56A93 93 0 0 0 11.77 104c3.72 18.44 13.3 35.88 28.83 46.5 27.83 19 62.34 17.14 85.08 5.76a92.88 92.88 0 0 0-85.54-56.69z" fill="#82858f"/><path d="M110.84 36.1c19.56 6.66 39.92 40.5 36.8 50.55s-19.47-9-25.06-15.47" fill="#d3d5da"/><path d="M132.62 82.94a.86.86 0 0 1-.62-.25l-3.13-3.24a.87.87 0 0 1 1.27-1.19l3.1 3.2a.86.86 0 0 1 0 1.23.85.85 0 0 1-.61.26zm11.7 7.46c-2.43 0-5.66-1.8-9.84-5.44a.88.88 0 0 1-.08-1.24.87.87 0 0 1 1.23-.08c5.4 4.73 8.1 5.3 9.38 4.92a2.86 2.86 0 0 0 1.78-2.16.875.875 0 1 1 1.67.52 4.5 4.5 0 0 1-3 3.33 4.34 4.34 0 0 1-1.14.15z" fill="#57585a"/><path d="M128.57 19S112 36.8 107 38.6c-6.45 2.3-26.06 2.82-34.47 7.22s-26 20.4-29 22.8 4.8 7.2 10.6 6c3.14-.65 6.23-2.77 9.2-4.57-10.6 8.18-28.22 22.8-32 28.4s-.8 11 6.4 7.4a77 77 0 0 0 7-4.25c-5.67 4.1-10.46 7.88-12.25 10.52-3.8 5.6 1.17 11 8.37 7.4 3.07-1.53 8.48-4.88 13.7-8.22-4.72 3.35-9.23 6.9-10.8 9.22-3.8 5.6 1.17 11 8.38 7.4a106.26 106.26 0 0 0 12.16-7.25c-5.5 3.78-6 4.68-7.56 6.93-2.94 4.32.84 8.38 6.46 5.7s24.1-14.23 24.1-14.23c9.65-6.6 26.77-14.8 33.4-29.77s10.5-22.16 16.26-27 21.65-15.38 21.65-15.38z" fill="#fff"/><g fill="#f2f3f5"><path d="M63.32 70l-8.25 6.53c11 3.34 20.42 0 28.42-7.4-5.77-.57-10.38-2-13-2-2.25.08-4.67 1.38-7.17 2.87z"/><ellipse cx="96.86" cy="74.61" rx="8.46" ry="6.93" transform="matrix(.951057 -.309017 .309017 .951057 -18.31 33.58)"/><path d="M58.73 84.6c-7.16 5.4-10.3 17.7-6.66 28.26l2.44-1.56-2.4 1.7a25.18 25.18 0 0 0 7.28 10.8l4.84-3.12a55.17 55.17 0 0 0-4.53 3.37 28.33 28.33 0 0 0 10.45 5.41c7.47-4.35 17.1-10.37 17.1-10.37 3.57-2.45 8.18-5.1 12.9-8.26C89.17 87.85 70.4 75.77 58.73 84.6zm8.5-27.54c4.64-.55 8-4.08 7.6-7.88A6 6 0 0 0 73 45.57l-.5.24c-3.3 1.73-8 5.22-12.65 9a9 9 0 0 0 7.36 2.25zm69.68 5.2c5.76-4.9 21.65-15.38 21.65-15.38L128.57 19s-10.92 11.73-17.73 17.1c1 27.18 10.9 35.2 19 34.65a34.78 34.78 0 0 1 7.06-8.48z"/></g><g fill="#57585a"><path d="M52.22 75.67c-4.24 0-8.86-2.3-10-4.66a2.41 2.41 0 0 1 .78-3.08l3.54-3c2.25-2 5.32-4.6 8.6-7.35a.88.88 0 1 1 1.13 1.35L44.1 69.32a.68.68 0 0 0-.22 1c.9 1.92 6 4.35 10.1 3.5 2.56-.53 5.17-2.15 7.7-3.7 3.08-1.9 6-3.72 8.9-3.72a32.4 32.4 0 0 1 5.32.76c6.24 1.2 15.66 3 25.83-1.1a.875.875 0 1 1 .66 1.62C91.7 71.9 82 70 75.52 68.8a31.89 31.89 0 0 0-5-.73c-2.42 0-5.12 1.68-8 3.45-2.65 1.65-5.4 3.35-8.26 3.94a10.09 10.09 0 0 1-2.04.2zm7.83-20.17a.88.88 0 0 1-.55-1.56A89.42 89.42 0 0 1 72.07 45c2.82-1.48 7-2.66 13.22-3.7a.86.86 0 0 1 1 .71.87.87 0 0 1-.72 1c-6 1-10 2.15-12.7 3.54S66 51 60.6 55.3a.86.86 0 0 1-.54.2zM90.6 42.27a.88.88 0 0 1-.13-1.75l4-.55c5-.68 9.74-1.32 12.22-2.2 4-1.4 16.7-14.47 21.27-19.38a.87.87 0 0 1 1.23 0 .86.86 0 0 1 .05 1.23c-.68.73-16.75 18-22 19.84-2.65.94-7.25 1.57-12.57 2.3l-4 .55zm-54.24 79.28a6.19 6.19 0 0 1-4.78-2c-1.82-2.1-1.77-5.13.15-7.95 1.27-1.83 3.87-4.25 8.27-7.6a.89.89 0 0 1 1.23.16.88.88 0 0 1-.17 1.23c-4.16 3.2-6.74 5.55-7.87 7.22-1.44 2.12-1.54 4.35-.27 5.8 1.5 1.73 4.47 1.86 7.53.33a.874.874 0 1 1 .79 1.56 10.93 10.93 0 0 1-4.88 1.25z"/><path d="M50.54 98.44a.88.88 0 0 1-.5-1.59C56.88 92 63.53 87 63.6 86.93a.874.874 0 1 1 1.06 1.39 573.37 573.37 0 0 1-13.6 10 .88.88 0 0 1-.51.12zm-17.02 9.46a4.65 4.65 0 0 1-3.63-1.51c-1.73-2-1.46-5.28.7-8.44 3.45-5.1 17.22-16.57 23-21.27A.88.88 0 0 1 54.67 78C42.8 87.7 34.33 95.52 32 98.92c-1.65 2.44-2 5-.8 6.3s3.38 1.2 6.1-.18A94.08 94.08 0 0 0 47 99a.877.877 0 1 1 1 1.44 96.58 96.58 0 0 1-9.85 6.18 10.33 10.33 0 0 1-4.63 1.27zM47.6 130a6.14 6.14 0 0 1-4.77-2c-1.83-2.08-1.77-5.12.14-7.94 1-1.47 3-3.4 6.23-5.9l6.12-4.47a.87.87 0 0 1 1.22.22.86.86 0 0 1-.22 1.21l-6 4.42a30.47 30.47 0 0 0-5.86 5.5c-1.45 2.13-1.55 4.35-.28 5.8 1.52 1.73 4.47 1.85 7.53.32 2.38-1.18 6.44-3.6 12.1-7.2a.872.872 0 1 1 .94 1.47c-5.7 3.62-9.82 6.07-12.24 7.3a11 11 0 0 1-4.9 1.26zm10.95-20.6a.87.87 0 0 1-.49-1.6l6.9-4.5a.88.88 0 0 1 .94 1.48l-6.86 4.47a.87.87 0 0 1-.48.15z"/><path d="M59.7 135a5 5 0 0 1-3.91-1.63c-1.42-1.66-1.36-4.07.15-6.3a.89.89 0 0 1 1.22-.23.88.88 0 0 1 .23 1.22c-1 1.54-1.15 3.14-.27 4.17 1.08 1.27 3.3 1.37 5.63.26 5.5-2.6 23.84-14.07 24-14.18 1.8-1.23 3.88-2.53 6.1-3.9 9.67-6 21.7-13.56 27-25.47 6.54-14.8 10.48-22.25 16.5-27.37 5.73-4.87 21.08-15 21.73-15.44a.885.885 0 0 1 1 1.46c-.16.1-15.92 10.5-21.57 15.3s-9.6 12.2-16 26.74c-5.5 12.4-17.77 20.1-27.64 26.25l-6.06 3.9c-.8.5-18.62 11.65-24.23 14.3a9 9 0 0 1-3.87.93zm35.83-43.6h-.12a.89.89 0 0 1-.75-1l.1-.48a.88.88 0 0 1 1.72.33c0 .24-.07.38-.07.4a.88.88 0 0 1-.87.76zm.77-3.12a1.26 1.26 0 0 1-.27 0 .88.88 0 0 1-.56-1.11 30.22 30.22 0 0 1 7-11.65.87.87 0 0 1 1.25 1.21 28.5 28.5 0 0 0-6.57 11 .89.89 0 0 1-.85.55z"/></g><path d="M143.17 142.9c-5.78-4.34-19.67-15-20.07-17.57a79.71 79.71 0 0 0-6.79-21.67c-3.86-7.4-4.2-13.2-5.43-13.4-2.17-.36-5.5 2.88-5.27 7 .24 4.54 2.62 10.9 2.62 10.9l-22.17-21.1c-4.8-4.1-10.34-2.94-6.24 3.83l-1.55-2c-4.8-4.1-8.16-2.6-6.24 3.83a24.6 24.6 0 0 0 .76 2.18c-3.93-2.9-6.57-1.24-5.1 4.64 2.1 8.42 9.47 17.55 13.38 21.64-5.46-2.68-10.17-8.65-11.7-10-3.78-3.22-8.13-2.3-4.9 3a53.6 53.6 0 0 0 14 15c6.66 4.83 15.36 9.23 17.8 11.2 2.7 2.2 10.66 14.05 15.3 21.18 13.45-3.66 24.8-10.4 31.62-18.65z" fill="#fff"/><path d="M104 125.72c-8.7-2.08-14.7 2.16-20.75 6.77 5.5 3.48 11.1 6.45 13 8a44.47 44.47 0 0 1 5.41 6.62l1.64.83c16.43-7.56 10.88-19.77.7-22.22zm39.17 17.18c-3.1-2.33-8.54-6.48-13-10.22-1.7 5.88.34 13.85 2.38 19.55a48.44 48.44 0 0 0 10.62-9.33zM98.8 105.13c-.26-5.72-8.38-1.66-14.47 2.15a45.24 45.24 0 0 0-8.91 7.19 70.46 70.46 0 0 0 5.63 6.75 29.44 29.44 0 0 1-7-5.18 24.09 24.09 0 0 0-3.7 6 54.46 54.46 0 0 0 7.33 6.64l.06-.06c9.9-4.62 21.3-17.77 21.06-23.5z" fill="#f2f3f5"/><path d="M170 67.37c-6.94-44.08-39.38-57.82-39.38-57.82s-14.32 13.3-19.78 19.34-6 5.14-5.8 10.25a15.67 15.67 0 0 0 2.51-.81c.73-.38 3.3-2.23 3.3-2.23 19.56 6.66 39.92 40.5 36.8 50.55a5.11 5.11 0 0 1-1 1.85z" fill="#e3e5e8"/><path d="M153.9 28.94c-2.92 17.58-1.63 39.8-.36 53.34L170 67.37c-2.68-17.02-9.16-29.5-16.1-38.43z" fill="#d3d5da"/><g fill="#57585a"><path d="M151.3 85.16a.86.86 0 0 1-.65-.28.87.87 0 0 1 .06-1.24l18.7-16.92a.88.88 0 0 1 1.24.07.87.87 0 0 1-.06 1.23l-18.7 16.92a.84.84 0 0 1-.58.22zm-4.67 4.22a.89.89 0 0 1-.59-.23.87.87 0 0 1-.07-1.23 4 4 0 0 0 .82-1.53c1.9-6.1-5.8-22.17-16.4-34.4a.88.88 0 0 1 1.32-1.15c11.17 12.86 18.83 29.4 16.74 36.1a5.77 5.77 0 0 1-1.18 2.18.91.91 0 0 1-.65.26zM129.4 50.4a.87.87 0 0 1-.64-.29c-6-6.5-12.14-11-17.77-13-.77.54-2.4 1.7-3 2a16 16 0 0 1-2.7.89.88.88 0 0 1-.41-1.71 13.26 13.26 0 0 0 2.3-.73c.5-.25 2.18-1.43 3.2-2.16a.89.89 0 0 1 .79-.11c6 2 12.56 6.77 18.92 13.66a.88.88 0 0 1-.65 1.47zm14.13 93.66a.93.93 0 0 1-.53-.17c-13.45-10.08-20.43-16.28-20.77-18.4-.3-2-.72-4-1.25-6.14a.87.87 0 0 1 .64-1.06.88.88 0 0 1 1.06.64c.54 2.17 1 4.3 1.28 6.3.22 1.27 6.52 7.1 20.1 17.28a.87.87 0 0 1 .18 1.22.88.88 0 0 1-.7.35zm-22.9-28.46a.88.88 0 0 1-.84-.62 68.23 68.23 0 0 0-4.25-10.92 54.7 54.7 0 0 1-3.94-10.16 15.54 15.54 0 0 0-1-2.8 3.19 3.19 0 0 0-2 .92 6.63 6.63 0 0 0-2.12 5.21.89.89 0 0 1-.83.92.87.87 0 0 1-.92-.83 8.41 8.41 0 0 1 2.7-6.6 4.45 4.45 0 0 1 3.58-1.34c1.1.2 1.5 1.47 2.25 4a53.27 53.27 0 0 0 3.81 9.84 69.65 69.65 0 0 1 4.38 11.22.87.87 0 0 1-.59 1.09.73.73 0 0 1-.23.07zm-12.4-6.54a.9.9 0 0 1-.61-.25L85.5 87.75c-2.47-2.1-5-2.6-5.85-1.85-.58.5-.65 2 .92 4.55a95.62 95.62 0 0 0 4.7 6.83.88.88 0 0 1-1.4 1 82.06 82.06 0 0 1-4.79-7c-2.53-4.17-1.44-6-.56-6.8 1.72-1.47 5.14-.7 8.12 1.84C89.08 88.5 101 100 106.3 105.1a46.24 46.24 0 0 1-1.22-5 .873.873 0 0 1 1.72-.3 54.19 54.19 0 0 0 2.26 8.14.89.89 0 0 1-.34 1 .92.92 0 0 1-.48.13zm-13.1 1.78a.89.89 0 0 1-.61-.24 109.28 109.28 0 0 1-9.17-10.34.872.872 0 1 1 1.37-1.08 106.61 106.61 0 0 0 9 10.15.88.88 0 0 1 0 1.24.86.86 0 0 1-.59.27zM112 163.26a.87.87 0 0 1-.73-.4l-5.67-8.54a.881.881 0 0 1 1.45-1l5.68 8.57a.87.87 0 0 1-.25 1.21.85.85 0 0 1-.48.16zM104.5 152a.86.86 0 0 1-.72-.38c-5.12-7.4-7.25-9.8-8.13-10.52a67.78 67.78 0 0 0-5.91-3.69c-3.6-2.1-8-4.72-11.86-7.5a54.46 54.46 0 0 1-14.18-15.23c-2-3.4-1.13-5-.4-5.58 1.43-1.2 4.2-.6 6.62 1.45a.873.873 0 1 1-1.13 1.33c-2-1.68-3.8-1.92-4.35-1.44s-.34 1.5.76 3.33a52.74 52.74 0 0 0 13.71 14.76c3.74 2.7 8.16 5.3 11.7 7.4a65.08 65.08 0 0 1 6.13 3.84c1.43 1.16 4.2 4.72 8.47 10.9a.87.87 0 0 1-.72 1.37zm-30.77-35.4a.85.85 0 0 1-.61-.25l-2.65-2.7a.874.874 0 1 1 1.27-1.2l2.6 2.66a.87.87 0 0 1 0 1.24.89.89 0 0 1-.61.26zm12.63-1.94a.86.86 0 0 1-.6-.24 73.3 73.3 0 0 1-7.54-8.52.88.88 0 0 1 .17-1.23.89.89 0 0 1 1.23.17 71 71 0 0 0 7.38 8.31.88.88 0 0 1 0 1.24.86.86 0 0 1-.64.27zm-9.62-11.5a.86.86 0 0 1-.73-.4A37.39 37.39 0 0 1 71.19 93c-1.2-4.07-.33-5.85.63-6.62.65-.52 2.1-1.18 4.7.25a.88.88 0 0 1-.85 1.53c-1.24-.68-2.24-.83-2.76-.42s-.9 2-.06 4.76a35.86 35.86 0 0 0 4.61 9.3.88.88 0 0 1-.73 1.36zm4.32 18.93a.86.86 0 0 1-.63-.27c-5.05-5.3-11.65-14.23-13.6-22-.7-2.8-.55-4.93.43-6.12a2.82 2.82 0 0 1 2.43-1 .88.88 0 0 1-.1 1.75 1.05 1.05 0 0 0-1 .37c-.28.34-.86 1.47-.1 4.57 1.87 7.48 8.26 16.13 13.16 21.26a.87.87 0 0 1 0 1.24.89.89 0 0 1-.61.2zM102 111.6a.88.88 0 0 1-.75-.43.92.92 0 0 1 .28-1.24.84.84 0 0 1 1.18.27v.08a.88.88 0 0 1-.3 1.2.92.92 0 0 1-.41.12zm-8.85 4.9a.87.87 0 0 1-.75-.44.9.9 0 0 1 .29-1.23.83.83 0 0 1 1.17.27v.08a.88.88 0 0 1-.76 1.32zm-5.9 4.93a.88.88 0 0 1-.76-.44.91.91 0 0 1 .3-1.23.83.83 0 0 1 1.21.24v.07a.87.87 0 0 1-.75 1.32z"/><path d="M83.3 127.33a.86.86 0 0 1-.75-.43.9.9 0 0 1 .29-1.23.83.83 0 0 1 1.17.27v.08a.87.87 0 0 1-.32 1.19.79.79 0 0 1-.39.12zM105 40a.87.87 0 0 1-.87-.85c-.13-4.25.2-4.74 3.2-7.87l2.8-3c4-4.36 12.43-12.44 17.13-16.87a.88.88 0 0 1 1.2 1.28c-4.68 4.4-13.13 12.45-17 16.76a82.98 82.98 0 0 1-2.85 3c-2.73 2.84-2.83 3-2.72 6.6a.88.88 0 0 1-.85.9z"/></g></svg>