<svg xmlns="http://www.w3.org/2000/svg" viewBox="0 0 180 180"><path d="M40.77 150.53C10.4 129.77 2.72 83 17.35 53.5 24 40.14 33.23 34.16 42.58 34.37c13.72.3 19.84 13 25.46 24.9 22.87 48.27 80.17 41.12 82.12 64.43 2.66 31.9-62.75 58.72-109.4 26.84z" fill="#f3a183"/><path d="M40.3 99.62A92.69 92.69 0 0 0 11.94 104c3.7 18.44 13.3 35.87 28.83 46.5 27.83 19 62.34 17.14 85.08 5.75a92.89 92.89 0 0 0-85.54-56.62z" fill="#f78668"/><path d="M111 36.16c19.56 6.66 39.92 40.5 36.8 50.55s-19.46-9-25.06-15.48" fill="#ffad66"/><path d="M132.78 83a.85.85 0 0 1-.61-.25l-3.14-3.24a.88.88 0 0 1 0-1.24.87.87 0 0 1 1.24 0l3.1 3.18a.88.88 0 0 1 0 1.24.87.87 0 0 1-.58.31zm11.7 7.45c-2.42 0-5.66-1.8-9.83-5.44a.88.88 0 1 1 1.15-1.32c5.4 4.73 8.08 5.28 9.37 4.92a2.86 2.86 0 0 0 1.83-2.16.87.87 0 0 1 1.09-.58.89.89 0 0 1 .58 1.1 4.49 4.49 0 0 1-3 3.32 4 4 0 0 1-1.19.16z" fill="#57585a"/><path d="M128.73 19s-16.54 17.8-21.6 19.62c-6.45 2.3-26.07 2.82-34.47 7.22s-26 20.4-29 22.8 4.8 7.2 10.6 6c3.15-.65 6.24-2.77 9.2-4.58-10.6 8.18-28.2 22.8-32 28.4s-.8 11 6.4 7.4a72.68 72.68 0 0 0 7-4.25c-5.67 4.1-10.45 7.9-12.24 10.53-3.8 5.6 1.16 11 8.37 7.4 3.06-1.54 8.48-4.88 13.7-8.22-4.73 3.34-9.23 6.9-10.8 9.22-3.8 5.6 1.17 11 8.37 7.4a105 105 0 0 0 12.16-7.24c-5.5 3.78-6 4.68-7.56 6.92-2.93 4.33.85 8.38 6.47 5.72s24.1-14.23 24.1-14.23c9.65-6.6 26.78-14.8 33.4-29.77s10.5-22.16 16.26-27.06S158.72 47 158.72 47z" fill="#fff"/><g fill="#fef0e5"><path d="M63.48 70.1l-8.25 6.54c11 3.34 20.43 0 28.42-7.4-5.77-.56-10.37-2-13-2-2.25.05-4.65 1.35-7.17 2.87z"/><ellipse cx="97.03" cy="74.66" rx="8.46" ry="6.93" transform="matrix(.951057 -.309017 .309017 .951057 -18.32 33.63)"/><path d="M58.9 84.66c-7.16 5.4-10.3 17.7-6.67 28.25l2.45-1.55-2.4 1.73a25 25 0 0 0 7.27 10.76l4.84-3.1a55 55 0 0 0-4.52 3.36 28.19 28.19 0 0 0 10.45 5.42c7.47-4.36 17.08-10.37 17.08-10.37 3.58-2.45 8.18-5.12 12.9-8.26-10.97-23-29.72-35.07-41.4-26.24zm8.5-27.54c4.64-.55 8-4.08 7.58-7.88a6 6 0 0 0-1.83-3.61l-.5.24c-3.3 1.72-8 5.22-12.65 9a9 9 0 0 0 7.39 2.25zm69.67 5.2c5.76-4.9 21.65-15.32 21.65-15.32l-30-28S117.82 30.78 111 36.16c1 27.18 10.9 35.18 19 34.65a34.81 34.81 0 0 1 7.07-8.49z"/></g><g fill="#57585a"><path d="M52.38 75.73c-4.23 0-8.86-2.3-10-4.67a2.41 2.41 0 0 1 .75-3.06l3.54-3c2.24-2 5.33-4.65 8.6-7.4a.893.893 0 1 1 1.11 1.4L44.22 69.4a.69.69 0 0 0-.23 1c.9 1.92 6 4.34 10.1 3.5 2.57-.53 5.17-2.14 7.7-3.7 3.07-1.9 6-3.7 8.9-3.7a32.35 32.35 0 0 1 5.33.76c6.24 1.2 15.66 3 25.83-1.1a.88.88 0 0 1 .65 1.63c-10.64 4.2-20.37 2.3-26.8 1.08a31.82 31.82 0 0 0-5-.73c-2.4 0-5.1 1.68-8 3.45-2.65 1.64-5.4 3.34-8.26 3.94a10.19 10.19 0 0 1-2.05.2zm7.82-20.18a.87.87 0 0 1-.55-1.55c5.5-4.4 9.72-7.4 12.58-8.9s7-2.66 13.2-3.72a.88.88 0 0 1 .3 1.73c-6 1-10 2.15-12.7 3.54s-6.9 4.35-12.3 8.7a.88.88 0 0 1-.55.19zm30.55-13.23a.872.872 0 0 1-.12-1.74l4-.55c5-.68 9.75-1.33 12.23-2.2 4-1.42 16.7-14.47 21.26-19.38a.874.874 0 1 1 1.28 1.19c-.68.73-16.75 18-22 19.84-2.65.94-7.24 1.57-12.57 2.3l-4 .54zM36.53 121.6a6.15 6.15 0 0 1-4.78-2c-1.82-2.08-1.77-5.12.14-7.94 1.26-1.85 3.88-4.27 8.26-7.62a.86.86 0 0 1 1.22.16.88.88 0 0 1-.16 1.23c-4.17 3.2-6.74 5.55-7.87 7.2-1.44 2.13-1.55 4.36-.27 5.8 1.5 1.73 4.46 1.86 7.53.32a.87.87 0 0 1 1.17.39.88.88 0 0 1-.39 1.18 11.06 11.06 0 0 1-4.85 1.26z"/><path d="M50.7 98.5a.88.88 0 0 1-.51-1.59c6.85-4.83 13.5-9.9 13.56-9.9a.88.88 0 0 1 1.06 1.4l-13.6 10a.85.85 0 0 1-.5.1zm-17 9.44a4.65 4.65 0 0 1-3.63-1.5c-1.73-2-1.46-5.3.68-8.44 3.46-5.1 17.23-16.57 23-21.27a.871.871 0 1 1 1.1 1.35C43 87.77 34.5 95.58 32.2 99c-1.66 2.44-2 5-.82 6.3s3.38 1.18 6.1-.18a95.2 95.2 0 0 0 9.65-6 .86.86 0 0 1 1.21.22.87.87 0 0 1-.22 1.22 96.43 96.43 0 0 1-9.86 6.18 10.39 10.39 0 0 1-4.57 1.19zM47.78 130a6.19 6.19 0 0 1-4.78-2c-1.82-2.08-1.77-5.13.15-7.94 1-1.47 3-3.4 6.23-5.9l6.12-4.48a.89.89 0 0 1 1.22.22.88.88 0 0 1-.22 1.22l-6 4.42a30 30 0 0 0-5.87 5.5c-1.44 2.12-1.55 4.35-.27 5.8 1.5 1.72 4.47 1.85 7.53.32 2.37-1.2 6.44-3.6 12.1-7.2a.874.874 0 0 1 .93 1.48c-5.7 3.62-9.8 6.07-12.24 7.28a10.89 10.89 0 0 1-4.89 1.27zm10.92-20.55a.85.85 0 0 1-.72-.38.88.88 0 0 1 .23-1.22l6.9-4.5a.86.86 0 0 1 1.2.27.87.87 0 0 1-.27 1.21l-6.85 4.46a.81.81 0 0 1-.49.15z"/><path d="M59.88 135.1a5 5 0 0 1-3.88-1.63c-1.42-1.66-1.36-4.07.15-6.3a.87.87 0 0 1 1.21-.23.86.86 0 0 1 .23 1.21c-1 1.55-1.15 3.15-.26 4.18 1.08 1.26 3.3 1.37 5.63.26 5.5-2.6 23.84-14.07 24-14.2 1.8-1.22 3.88-2.52 6.1-3.9 9.66-6 21.7-13.56 27-25.48 6.54-14.8 10.47-22.25 16.5-27.36 5.73-4.88 21.1-15 21.74-15.44a.86.86 0 0 1 1.21.25.87.87 0 0 1-.25 1.21c-.16.1-15.9 10.5-21.56 15.3s-9.6 12.2-16 26.74c-5.58 12.43-17.87 20.1-27.7 26.3-2.2 1.37-4.26 2.66-6 3.9-.8.5-18.63 11.65-24.23 14.3a9 9 0 0 1-3.89.91zM95.7 91.46h-.12a.87.87 0 0 1-.75-1s0-.17.08-.48a.88.88 0 0 1 1.72.33c0 .24-.06.37-.07.4a.87.87 0 0 1-.86.76zm.78-3.12a.86.86 0 0 1-.27 0 .87.87 0 0 1-.56-1.1 30.33 30.33 0 0 1 7-11.66.89.89 0 0 1 1.24 0 .87.87 0 0 1 0 1.24 28.61 28.61 0 0 0-6.58 11 .88.88 0 0 1-.83.52z"/></g><path d="M143.33 143c-5.78-4.34-19.67-15-20.07-17.57a79.21 79.21 0 0 0-6.79-21.68c-3.85-7.4-4.2-13.2-5.42-13.4-2.18-.36-5.5 2.9-5.27 7 .24 4.54 2.62 10.9 2.62 10.9l-22.17-21.1C81.42 83 75.9 84.2 80 91l-1.54-2c-4.8-4.1-8.16-2.6-6.25 3.83.22.72.47 1.45.76 2.18-3.93-2.9-6.57-1.25-5.1 4.63 2.1 8.42 9.46 17.55 13.38 21.65-5.47-2.7-10.17-8.65-11.72-10-3.78-3.22-8.12-2.32-4.9 3a53.57 53.57 0 0 0 13.94 15c6.66 4.83 15.37 9.24 17.8 11.2 2.7 2.2 10.66 14.05 15.32 21.18 13.46-3.68 24.82-10.45 31.64-18.68z" fill="#fff"/><path d="M104.12 125.77c-8.68-2.08-14.68 2.17-20.75 6.77 5.52 3.5 11.1 6.45 13 8a43.81 43.81 0 0 1 5.42 6.62l1.64.83c16.46-7.55 10.92-19.76.7-22.22zm39.2 17.23c-3.1-2.33-8.54-6.48-13-10.23-1.7 5.88.34 13.85 2.38 19.56a48.38 48.38 0 0 0 10.62-9.33zM99 105.2c-.25-5.72-8.37-1.66-14.46 2.15a44.92 44.92 0 0 0-8.92 7.19 71.63 71.63 0 0 0 5.64 6.75 29.21 29.21 0 0 1-7-5.19 24.15 24.15 0 0 0-3.7 6 55.2 55.2 0 0 0 7.33 6.64v-.06c9.92-4.6 21.34-17.76 21.1-23.48z" fill="#fef0e5"/><path d="M170.17 67.43C163.23 23.35 130.8 9.6 130.8 9.6S116.47 22.9 111 28.94s-5.94 5.15-5.8 10.25a16.77 16.77 0 0 0 2.51-.8c.72-.38 3.28-2.23 3.28-2.23 19.56 6.66 39.92 40.5 36.8 50.55a4.82 4.82 0 0 1-1 1.85z" fill="#ffb87f"/><path d="M154.05 29c-2.9 17.6-1.63 39.82-.35 53.34l16.47-14.9C167.5 50.4 161 37.92 154.05 29z" fill="#ffad66"/><g fill="#57585a"><path d="M151.47 85.22a.89.89 0 0 1-.65-.29.87.87 0 0 1 .07-1.23l18.7-16.92a.874.874 0 0 1 1.17 1.3L152.06 85a.85.85 0 0 1-.59.22zm-4.67 4.2a.84.84 0 0 1-.58-.22.88.88 0 0 1-.07-1.24 3.92 3.92 0 0 0 .82-1.52c1.9-6.1-5.76-22.18-16.4-34.42a.88.88 0 1 1 1.32-1.15c11.16 12.86 18.83 29.4 16.74 36.12a5.81 5.81 0 0 1-1.19 2.17.84.84 0 0 1-.65.26zm-17.24-38.97a.84.84 0 0 1-.64-.28c-6-6.5-12.14-11-17.78-13-.76.54-2.4 1.7-3 2a14.9 14.9 0 0 1-2.71.88.86.86 0 0 1-1-.64.87.87 0 0 1 .64-1.06 14.64 14.64 0 0 0 2.31-.73c.5-.26 2.17-1.43 3.18-2.16a.91.91 0 0 1 .8-.12c6 2.05 12.56 6.78 18.9 13.67a.86.86 0 0 1 0 1.23.85.85 0 0 1-.71.21zm14.14 93.66a.86.86 0 0 1-.52-.18c-13.45-10.08-20.44-16.27-20.77-18.4-.3-2-.73-4-1.25-6.15a.87.87 0 0 1 .64-1.06.89.89 0 0 1 1.06.64c.53 2.18 1 4.3 1.28 6.3.22 1.27 6.52 7.1 20.1 17.27a.89.89 0 0 1 .17 1.23.86.86 0 0 1-.7.35zm-22.9-28.45a.88.88 0 0 1-.84-.62 67.48 67.48 0 0 0-4.25-10.92A54 54 0 0 1 111.76 94a15.55 15.55 0 0 0-1-2.81 3.23 3.23 0 0 0-2 .93 6.69 6.69 0 0 0-2.12 5.2.86.86 0 0 1-.83.92.87.87 0 0 1-.92-.82 8.45 8.45 0 0 1 2.71-6.6 4.44 4.44 0 0 1 3.58-1.34c1.1.18 1.48 1.47 2.25 4a52.59 52.59 0 0 0 3.81 9.85 69.71 69.71 0 0 1 4.37 11.22.87.87 0 0 1-.58 1.09.73.73 0 0 1-.24.03zm-12.4-6.57a.89.89 0 0 1-.61-.24c-.2-.2-19.07-18.46-22.13-21.07-2.48-2.1-5-2.6-5.85-1.84-.6.5-.65 2 .92 4.55a79 79 0 0 0 4.7 6.82.89.89 0 1 1-1.43 1.06c-1.9-2.53-3.52-4.87-4.8-7-2.52-4.18-1.43-6-.55-6.8 1.72-1.47 5.14-.7 8.1 1.84 2.45 2.1 14.35 13.55 19.67 18.68a46.17 46.17 0 0 1-1.23-5.05.88.88 0 0 1 1.73-.31 53.78 53.78 0 0 0 2.26 8.14.88.88 0 0 1-.34 1 .86.86 0 0 1-.45.21zm-13.1 1.8a.83.83 0 0 1-.6-.25 107.75 107.75 0 0 1-9.18-10.33.88.88 0 0 1 1.38-1.09 106.71 106.71 0 0 0 9 10.16.87.87 0 0 1 0 1.24.86.86 0 0 1-.6.27zm16.86 52.4a.89.89 0 0 1-.74-.39l-5.67-8.55a.881.881 0 0 1 1.45-1l5.7 8.57a.88.88 0 0 1-.25 1.21.86.86 0 0 1-.48.16zm-7.5-11.2a.87.87 0 0 1-.72-.38c-5.12-7.4-7.24-9.8-8.13-10.52a64 64 0 0 0-5.91-3.69c-3.58-2.1-8-4.73-11.85-7.5a54.49 54.49 0 0 1-14.18-15.24c-2.06-3.4-1.14-5-.4-5.57 1.42-1.2 4.2-.6 6.62 1.45A.87.87 0 0 1 69 112c-2-1.68-3.8-1.92-4.36-1.45-.4.35-.34 1.52.76 3.34a52.74 52.74 0 0 0 13.72 14.72c3.74 2.72 8.16 5.3 11.7 7.4a60.66 60.66 0 0 1 6.12 3.84c1.44 1.16 4.2 4.72 8.47 10.88a.87.87 0 0 1-.22 1.22.85.85 0 0 1-.55.14zM73.9 116.66a.85.85 0 0 1-.61-.25l-2.66-2.7a.88.88 0 0 1 0-1.24.87.87 0 0 1 1.23 0l2.6 2.66a.88.88 0 0 1 0 1.24.86.86 0 0 1-.57.3zm12.63-1.94a.89.89 0 0 1-.61-.24 73.91 73.91 0 0 1-7.53-8.48.87.87 0 1 1 1.39-1 71.92 71.92 0 0 0 7.35 8.31.88.88 0 0 1 0 1.24.86.86 0 0 1-.6.17zm-9.63-11.5a.86.86 0 0 1-.73-.39 37.71 37.71 0 0 1-4.82-9.76c-1.2-4.07-.35-5.85.65-6.62.64-.52 2.1-1.18 4.7.24a.88.88 0 1 1-.84 1.54c-1.24-.68-2.25-.84-2.76-.42s-.9 2-.06 4.76a35.9 35.9 0 0 0 4.6 9.29.88.88 0 0 1-.24 1.22.87.87 0 0 1-.5.14zm4.33 18.94a.9.9 0 0 1-.63-.27C75.54 116.6 69 107.65 67 99.84c-.7-2.8-.55-4.92.44-6.1a2.8 2.8 0 0 1 2.43-1 .87.87 0 0 1 .82.93.89.89 0 0 1-.93.82 1.05 1.05 0 0 0-1 .36c-.3.35-.86 1.48-.1 4.58 1.86 7.48 8.25 16.12 13.16 21.26a.87.87 0 0 1 0 1.23.83.83 0 0 1-.6.25zm20.95-10.52a.9.9 0 0 1-.76-.42.92.92 0 0 1 .29-1.24.83.83 0 0 1 1.17.26l.05.08a.87.87 0 0 1-.31 1.2.88.88 0 0 1-.44.12zm-8.86 4.92a.87.87 0 0 1-.76-.43.92.92 0 0 1 .3-1.24.83.83 0 0 1 1.17.28v.08a.88.88 0 0 1-.32 1.2.87.87 0 0 1-.39.11zm-5.92 4.94a.87.87 0 0 1-.75-.44.91.91 0 0 1 .29-1.24.84.84 0 0 1 1.17.28v.08a.88.88 0 0 1-.76 1.32z"/><path d="M83.48 127.4a.88.88 0 0 1-.76-.43.92.92 0 0 1 .29-1.24.85.85 0 0 1 1.18.27v.08a.87.87 0 0 1-.31 1.2.88.88 0 0 1-.4.12zm21.72-87.33a.89.89 0 0 1-.88-.85c-.12-4.26.2-4.74 3.22-7.87l2.8-3c4-4.37 12.43-12.44 17.14-16.87a.88.88 0 1 1 1.2 1.28c-4.7 4.4-13.13 12.44-17 16.76-1.15 1.28-2.1 2.25-2.84 3-2.73 2.83-2.84 2.94-2.73 6.6a.87.87 0 0 1-.85.9z"/></g></svg>