<svg xmlns="http://www.w3.org/2000/svg" width="700" height="700" fill="none" xmlns:v="https://vecta.io/nano"><path d="M656.624 181.153C611.292 99.23 537.56 39.698 447.443 14.03 262.294-40.04 67.86 67.006 13.8 252.153-39.734 437.3 67.314 631.73 252.463 685.8c32.224 9.285 64.993 14.2 97.763 14.2 58.44 0 115.787-14.746 168.218-43.692C600.37 610.977 659.9 537.246 685.57 447.13c26.762-89.57 15.84-184.054-28.946-265.977zm-2.73 257.785c-304.76-52.43-481.716 50.246-552.17 107.046l-13.108-17.477c56.255-48.06 252.874-190.062 577.295-158.385-1.64 22.94-5.462 45.33-12.016 67.724v1.092zm-529.778 132.17c66.632-51.338 234.304-147.46 518.855-100.492-8.74 21.3-19.662 40.962-32.224 59.53-249.597-52.977-397.06 7.646-469.7 56.8-6.008-4.915-12.016-10.377-16.93-15.84zm339.713-232.662c69.363-71 157.84-82.47 188.426-84.108 8.74 26.762 13.108 54.616 14.747 82.47-74.825-7.1-142.55-5.462-203.173 1.638zm-113.602-305.3c28.947 0 58.44 3.823 87.932 12.562C519.537 69.19 586.715 123.26 627.13 196.99c4.37 8.192 8.192 16.385 12.015 24.577-46.97 4.37-151.833 24.577-225.565 123.977-64.993 11.47-121.248 29.493-169.3 49.7 8.738-29.492 20.754-55.707 33.315-77.007 9.83 1.638 20.208 2.184 30.04 2.184 48.063 0 92.302-18.57 123.433-52.977C472.02 222.66 484.036 158.76 463.828 96.5l-3.277-9.83-10.377-2.185c-63.9-14.746-126.7 3.277-167.672 47.516-40.416 44.238-52.978 107.046-33.316 169.308-17.477 30.038-33.862 67.177-43.693 111.415-65.54 31.677-110.325 65.54-135.448 86.84l-8.193-15.838C241.54 343.907 197.847 144.014 179.277 83.39c50.247-32.223 109.78-50.246 170.95-50.246zm-15.84 188.424L324 209.007c-1.638 1.638-21.3 18.023-44.785 48.607-3.823-38.23 7.646-74.277 32.224-101.038 29.492-32.224 74.278-46.424 121.248-38.777 11.47 46.423 1.638 92.3-27.855 124.523-25.67 28.4-63.354 42.6-103.77 40.415 23.485-31.677 43.147-48.607 43.694-49.154l-10.378-12.015zm-183.5-117.423c17.477 62.808 44.785 227.2-100.494 346.808l-6.554-21.846c81.924-101.04 83.016-210.27 68.27-287.824 11.47-13.654 24.577-26.215 38.778-37.138zM46.013 261.437c8.74-30.584 21.847-58.438 38.23-83.56C90.8 237.953 83.7 312.23 35.636 384.322c-4.916-39.87-1.64-81.923 10.377-122.885zm215.735 392.686c-8.74-2.73-17.477-5.462-26.216-8.738 56.8-19.662 139.272-31.13 255.058-11.47-71 34.954-151.833 42.054-228.842 20.208zm271.99-46.423c-164.94-35.5-272.535-13.654-339.714 17.477-8.738-4.916-17.477-10.377-25.123-15.84 18.57-12.015 42.055-24.03 71-34.954 69.91-26.215 184.057-46.97 347.906-14.746-16.385 18.023-34.408 33.862-54.07 48.062z" fill="#fff"/></svg>