<svg xmlns="http://www.w3.org/2000/svg" width="455" height="490" fill="none" xmlns:v="https://vecta.io/nano"><style><![CDATA[.B{fill:#fa9464}.C{fill:#de6b45}.D{fill:#371300}.E{fill:#ffdabf}.F{fill:#f8c503}]]></style><ellipse cx="225" cy="452.5" rx="225" ry="37.5" fill="#f8f8f8"/><path d="M77.86 364.107c-.068-.034 1.33.882 1.465.747l-1.465-.747zm65.67-47.132c-6.61-3.1-13.257-6.078-19.97-8.897l5.418-7.13c.307-.408-.34-.917-.647-.476l-5.555 7.267-4.192-1.766c-.477-.204-.784.543-.306.747l3.987 1.664-12.984 16.57-2.25 2.784-2.352 2.887-1.397 1.73L92.65 345.26c-.75.917-1.704 2.24-2.794 3.77l-1.602 2.343-1.942 2.92-.818 1.223c-.17.27-.34.51-.51.78l-2.42 3.735c-1.568 2.41-2.794 4.278-3.272 4.856 1.67.883 3.272 1.867 4.805 2.92l.988.68.375.272c.75.543 1.465 1.086 2.18 1.697.136.102.375.102.51 0 .647-.577 1.33-1.12 1.977-1.697l.647-.544 2.93-2.546c.647-.544 1.26-1.087 1.874-1.63l2.42-2.14a50.19 50.19 0 0 0 2.01-1.799l2.42-2.14c.375-.34.75-.68 1.16-1.018.17-.17.375-.34.545-.5l1.022-.916 4.43-4.075 1.738-1.596.306-.306 5.52-5.195 3.75-3.6 4.84-4.72 2.113-2.106 15.88-16.3c.17-.238 0-.543-.204-.645z" class="B"/><path d="M123.356 334.19c-4.84-3.43-10.462-5.603-16.323-6.418l-2.352 2.887-1.397 1.732c1.84.984 3.408 2.343 4.635 4.04 1.192 1.698 1.6 4.075 3.34 5.298 1.704 1.188 3.953 1.256 5.657 2.444.07.034.137.102.205.136l3.75-3.6 4.84-4.72c-.75-.645-1.534-1.223-2.352-1.8z" class="C"/><path d="M228.012 421.697c-1.738.306-3.442.747-5.044 1.222l-1.874.578-3.442.305c-1.33.102-2.6.577-3.578 1.358l-8.418-37.42-2.283-9.44-2.828-11.036-3.783 2.105c-.443.272-.886-.442-.41-.713l3.987-2.207-2.317-8.83c-.136-.51.647-.713.784-.204l2.283 8.66c6.373-3.53 12.848-6.927 19.357-10.187.204-.102.545-.034.613.238l2.386 16.9 1.056 8.693c1.568 13.243 2.726 26.588 3.5 39.967z" class="B"/><path d="M224.332 380.17l-.137-1.257-.238-1.935-.51-4.007-2.66.645-13.836 3.294c-.647.17-1.465.237-2.215.44l-.306.102c-.41.17-.784.407-1.023.78l.75 2.988c.034.102.034.204.068.306l.545 2.207.75 3.1.205.883.545-.306c.75-.407 1.568-.747 2.42-1.018 2.045-.646 4.158-.408 6.237-.883.716-.17 1.363-.442 1.976-.78l2.795-1.732c1.533-.85 3.17-1.19 4.873-1.358-.102-.476-.17-.985-.238-1.46z" class="C"/><g class="B"><path d="M281.345 154.73c-.613-2.48-1.67-4.754-2.93-6.96.136-.102.034-.408-.17-.34-.238-.44-.51-.883-.784-1.3l-2.692-4.075-.954-1.358c-1.057-1.46-2.215-2.886-3.544-4.177-1.5-1.494-3.136-2.818-4.805-4.142l-1.023-.815c-.034-.034-.034-.034-.068-.034 0-.272-.41-.272-.41 0v.068c0 .645.102 1.3.307 1.867v.034c.204.713.545 1.358.92 2.004.204.373.477.713.716 1.052.102.102.17.238.272.34.58.713 1.227 1.392 1.875 2.07l1.295 1.324c.204.204.374.408.58.646.068.068.102.135.17.203.17.17.307.374.477.544l.307.373c.068.068.102.136.17.204l3.237 3.973c.51.61 1.056 1.426 1.806 1.732.375.135.75.17 1.16.102l.51-.102a.64.64 0 0 0 .239-.068c0 .034.034.034.034.068l.204.407c1.16 2.038 2.113 4.177 2.692 6.486.103.204.477.102.41-.136z"/><path d="M362.316 176.056L349.435 173l-2.795-.68-1.704-.407-3.203-.747c-.102.034-.307.136-.613.305-1.023.646-3.068 2.208-5.453 4.04-5.59 4.313-13.052 10.255-13.87 10.323-5.248.475-24.57-17.386-33.193-25.094-1.602-1.46-2.862-2.547-3.578-3.1l-1.636-5.195c-.375-1.155-.784-2.275-1.5-3.226-.648-.85-4.567-5.026-8.043-8.59-3.17-3.226-1.976-.61-5.282-2.31-.24-.136-.375.136-.477.543-.068.306-.102.713-.17 1.053-.102.747-.238 1.358-.647 1.052-.034-.203-.24-.916-.51-1.765-.103-.374-.24-.747-.34-1.155l-.477-1.63-.34-1.256c-.068-.238-.443-.136-.41.102 0 .034 0 .068.034.102.102.373.17.747.273 1.12l-.41-.305c-.136-.102-.273.034-.307.17v.102c0 .034.034.068.068.102l.784.577c.102.374.205.95.34 1.732l.784 4.72.102.747 2.113 12.666c.034.17.034.34.068.51s.204.17.307.102a.26.26 0 0 0 .068-.17 55.65 55.65 0 0 0 2.249 2.038c2.215 1.935 4.26 3.53 6.645 5.535.375.305.75.61 1.125.95 2.25 1.902 28.285 32.497 30.57 34.636 2.078 1.97 4.294 3.77 6.952 4.924a24.53 24.53 0 0 0 4.634 1.46c.273.068.58.102.852.17.375.068.75.136 1.09.17 1.602.237 18.81-12.496 29.717-21.427l.988-.815c.272-.204.51-.407.75-.645 3.953-3.328 6.78-5.91 7.088-6.79l.51-1.29c.034-.136-.068-.34-.273-.305z"/></g><path d="M383.09 122.86c-.75-1.868-1.635-3.803-2.658-5.603-1.022-1.834-2.215-3.565-3.646-5.06-.17-.203-.375-.373-.546-.577-.85-.815-1.738-1.494-2.692-2.07-.988-.577-2-1.053-3.135-1.426-1.465-.5-2.93-.985-4.124-1.97-.92-.78-1.6-1.732-2.283-2.682-1.26-1.834-2.453-3.803-4.396-5.026-1.772-1.12-3.885-1.528-5.964-1.256l-.34-.61c-.273-.51-.58-1.02-.92-1.494-.136-.204-.51 0-.34.204.443.645.817 1.3 1.192 1.97-.034 0-.102 0-.136.034-.204.034-.17.306 0 .373.034 0 .068.034.102 0 .068 0 .137-.034.205-.034 1.908 3.87 2.453 8.286 2.283 12.598-.034.713-.102 1.46-.17 2.173l-.103.85c-.17 1.46-.374 2.92-.647 4.38-.068.34-.102.68-.17 1.018s-.102.68-.17 1.02c-.136.85-.238 1.698-.307 2.547 0 .17-.034.305-.034.475-.034 1.087.034 2.207.307 3.294 9.357 37.935-7.663 38.734 10.02 33.93 1.772-.476 3.17 2.302 4.77 1.453.886-.475 1.84 12.15 2.83-4.815 1.227.034 1.153-3.83 2.243-3.39 1.534.612 2.965.544 4.43.17.648-.17 2.46-11.898 3.14-12.17.818-.34 1.704-.68 2.284-1.392.613-.747.852-1.766 1.022-2.716l.102-.815c.614-4.584-.443-9.17-2.147-13.38z" class="D"/><path d="M272.417 147.906c0-.034.034-.068.034-.102v-.068c0-.136-.068-.238-.17-.34-.034-.067-.034-.135-.068-.17v-.034c-.034-.102-.102-.136-.17-.17-.17-.102-.4-.034-.5.102-.852-.476-1.807-1.223-2.454-1.766l-.784-.713h-.034l-.034-.034c-.136-.102-.307-.204-.443-.272-.102-.034-.204-.068-.34-.068h-.034a1.13 1.13 0 0 0-.511.136l2.113 12.666c.034.17.034.34.068.5s.204.17.307.102a.26.26 0 0 0 .068-.169 55.59 55.59 0 0 0 2.249 2.037c.068-1.834-.647-3.735-.58-5.57.068-1.392 1.022-2.4 1.363-3.735a3.58 3.58 0 0 0 .136-1.053c-.034-.44-.102-.85-.204-1.3zm73.1 26.757l-.137-.984c-.068-.476-.238-1.087-.477-1.698l-3.203-.747c-.103.034-.307.136-.614.305-1.022.646-3.067 2.208-5.452 4.04.306 1.223 1.022 2.275.647 3.702-.34 1.256-1.124 2.444-1.43 3.667-.205.78-.205 1.596.238 2.4.07.136.137.27.24.373a.42.42 0 0 0 .648.068c1.67-1.698 3.544-2.682 5.657-3.7 1.192-.577 2.385-1.222 3.203-2.3.068-.068.102-.17.17-.238.512-.747.682-1.596.716-2.48l-.204-2.4z" class="C"/><path d="M376.118 146.445c-.034-.1-.102-.17-.238-.135l-1.704.68c.034-.102.102-.204.136-.306.102-.238-.238-.44-.34-.204l-.374.78a1.01 1.01 0 0 0-.273.136c-3.067 1.46-5.862 3.43-8.588 5.433-3.68 2.683-7.327 5.196-11.485 7.063-4.055 1.834-8.28 3.362-11.927 5.977-.852.61-3.067 1.9-1.84 3.158.204.203.51.34.75.543.614.44.818 1.052.886 1.8v.543c0 .78-.102 1.562 0 2.343.103.95.512 1.8 1.057 2.547.477.645 1.022 1.256 1.568 1.867.374.408.715.78 1.056 1.19.92 1.12 1.704 2.275 1.738 3.803 0 .204.273.27.375.102 1.33-1.732 2.692-3.464 4.09-5.128a143.21 143.21 0 0 1 3.613-4.142l.102-.102c2.624-2.887 5.487-5.57 8.077-8.49.58-.646 1.124-1.325 1.67-2.004l.75-.95c1.91-2.546 3.578-5.297 5.078-8.115.136-.238.272-.5.41-.747.102-.17.204-.34.272-.544a143.07 143.07 0 0 0 2.556-5.127c.103-.238.205-.475.34-.713.682-.306 1.363-.61 2.08-.85.136-.17.204-.306.17-.408z" fill="#f1c51b"/><path d="M267.407 159.655l-9.1 2.478c-1.26.34-2.488-.44-2.692-1.8l-4.805-29.882c-.205-1.324.647-2.683 1.908-3.056l9.1-2.48c1.26-.34 2.488.442 2.692 1.8l4.806 29.848c.238 1.358-.614 2.716-1.91 3.1z" fill="#404450"/><path d="M266.317 157.89l-7.123 1.935c-.988.272-1.942-.34-2.113-1.392l-4.464-27.505c-.17-1.052.51-2.105 1.5-2.377l7.123-1.935c.988-.272 1.942.34 2.113 1.392l4.464 27.505c.17 1.052-.51 2.105-1.5 2.377z" fill="#fff"/><path d="M408.595 452.054c-.34-1.46-1.226-4.957-2.556-9.847l-3.953-14.33-11.04-38.778-6.032-20.578c-.034-.135-.068-.237-.102-.373l-3.58-11.885-.477-1.562-2.692-8.59 4.26.44c.51.034.51-.78 0-.814l-4.533-.476-.715-2.207c-.17-.51-.954-.272-.784.204l.613 1.9c-6.1-.68-12.2-1.494-18.266-2.48-.272-.034-.613.17-.51.5l2.726 7.2 1.636 4.346c.205.577.443 1.155.648 1.732l4.43 11.715c0 .034.034.068.034.068l.307.85c1.5 4.006 4.6 11.68 8.315 20.815l21.947 53.753 3.27 8.353c.068.17.205.306.41.306.375 0 .716.034 1.09.034l5.214.238c.204-.034.374-.306.34-.544z" class="D"/><g class="B"><path d="M391.386 118.805l-1.023-2.547a72.24 72.24 0 0 0-5.009-9.677l-1.875-3.1c-.477-.748-1.022-1.495-1.635-2.106-.307-.305-.614-.61-.955-.85l-.443-.305-.613-.306c-.51-.204-1.057-.272-1.636-.17-1.26.17-2.385 1.087-3.374 2.004l-1.124 1.086c-.137.102-.24.238-.375.34a21.49 21.49 0 0 0-.92.883c-1.26 1.222-2.488 2.513-3.58 3.94-.988 1.3-1.908 2.682-2.555 4.176l-.478 1.19a14.28 14.28 0 0 0-.374 1.29c-.137.577-.24 1.155-.273 1.732-.034.238 0 .747.034 1.256l-.204-.475c-.205-.475-.92-.068-.716.407l.75 1.766c-.103.34-.307.544-.58.544-.51.033-.51.848 0 .814a1.33 1.33 0 0 0 .989-.407l1.533 3.87 3 8.83 1.534 5.874 1.226 5.535.648 2.954v.034l.102.34c.034.17.102.305.137.475.306.985.783 1.902 1.772 2.343 1.772.815 4.26-.543 5.86-1.188 3.613-1.46 7.634-3.328 10.462-6.146.137-.136.307-.306.443-.476.784-.85 1.398-1.8 1.875-2.818.545-1.19.886-2.48 1.056-3.803.682-5.705-1.806-12.462-3.68-17.318z"/><path d="M379.867 95.51a56.07 56.07 0 0 0-.613-6.757c-.716-4.448-2.045-8.83-4.056-12.903-1.806-3.6-4.123-7.504-8.11-8.897-5.077-1.766-10.7-.034-15.7 1.154-2.08.51-4.94.577-6.577 2.105a3.58 3.58 0 0 0-.92 1.596h-.17c-.102 0-.136.034-.17.102-.034 0-.034 0-.068.034a17.27 17.27 0 0 0-2.522 3.464c-2.35 4.346-2.624 9.474-2.113 14.533v.136c.068.747.205 1.528.307 2.31 0 .034 0 .102.034.136l.41 2.377c.375 2.275.613 2.07.647 4.346.034 1.936-3.1 9.88-3.067 11.308.034 2.818 4.192 2.988 6.782 2.648 0 .068.034.136.034.204.068.374.205.985.375 1.766l.34 1.596v.068l.92 4.142v.068c.204.883.51 2.31 1.022 3.735l.205.5c.715 1.867 1.738 3.7 3.27 4.482 1.568.78 4.465.747 6.714-.238 2.317-1.018 6.304-3.1 10.087-5.4 2.283-1.392 4.498-2.886 6.236-4.278 1.5-1.19 2.66-2.31 3.204-3.26a16.31 16.31 0 0 0 .681-1.324c.34-.78.648-1.596.886-2.41 1.023-3.396 1.364-7.3 1.704-10.527l.205-2.41c.034-.407.034-.85.068-1.256V98.6c0-.272.034-.543.034-.85-.034-.713-.034-1.46-.068-2.24z"/></g><path d="M365.35 255.582c-4.634-4.21-9.678-7.606-14.926-10.968-3.067-1.97-6.202-3.803-9.338-5.57l-6.918-3.94c-1.465-.815-2.862-1.698-4.294-2.615l-3.407-2.173c-.478-.305-.99-.61-1.5-.917l-8.792 9.067-2.215 2.24c-3.476 3.53-7.055 7.03-10.667 10.458-.136.136-.273.272-.443.408l-1.84 1.698c-.205.17-.41.373-.614.543-1.124.985-2.283 1.902-3.5 2.717-1.124.747-2.25 1.46-3.476 2.037-2.453-.034-7.53-.747-14.245-1.902-16.63-2.852-43.314-8.353-64.715-12.496-16.87-3.293-30.467-5.738-33.26-5.4-6.543.747-11.962 4.28-16.562 8.76-5.453 5.365-10.054 11.58-14.893 17.488l-48.12 59.356c-1.5 2.003-2.6 3.565-3.1 4.448-.136.238.034.645.34.61 2.147-.27 4.055.238 5.793 1.19 4.294 2.31 7.804 7.063 12.2 8.862 1.295.5 2.624.917 3.953 1.223 3.033.747 6.135 1.222 9.03 2.614 4.362 2.072 8.213 5.06 11.996 8.014.136.102.34.17.51.068.375-.272.784-.543 1.16-.815 6.134-4.38 12.302-8.896 17.073-14.805l.034-.034c.75-.95 1.5-1.935 2.18-2.954v.102c.512 6.044.614 12.122.716 18.2 0 1.393.034 2.75.068 4.143l.307 10.493c.034.95.102 1.867.17 2.818.273 3.905.716 7.776 1.398 11.647.034.204.238.272.408.306 5.112.475 10.122-.577 15.166-1.19 2.487-.305 5.043-.51 7.53-.305 2.794.237 5.384 1.154 8.043 1.9 2.52.713 5.01.85 7.497.645h.068c5-.373 9.883-2.003 14.926-2.546 1.67-.17 3.34-.238 5.044-.102.24 0 .477.034.716.068.204.034.41-.204.41-.408-.307-3.395-.34-6.757-.24-10.153l.102-2.852.273-4.788.307-5.705.102-2.546c.102-3.26.102-6.52-.136-9.746-.137-1.698-.375-3.395-.648-5.06-.41-2.343-.988-4.686-1.636-6.995l-3-10.63c9.1.917 18.267 1.596 27.4 2.106l17.005.78 9.304.305 16.834.442c.307 0 .614 0 .955.034 7.156.203 14.45.645 21.537-.68.784-.135 1.534-.305 2.25-.51 3.92-1.02 7.497-2.75 10.632-5.195 1.466-1.12 2.863-2.41 4.158-3.837l.204-.204c1.397-1.528 2.692-3.158 3.92-4.856 3.136-4.278 5.896-8.863 8.76-13.277l14.176-21.732 7.09-10.832c1.1-1.664 2.522-3.328 2.896-5.196l-2.147-1.867z" fill="#604b40"/><path d="M406.312 153.713c-1.193-3.566-2.897-6.962-5.078-10.052-1.84-2.614-4.02-5.06-5.418-7.91-4.26 2.716-8.7 5.195-13.223 7.436-3.953 1.936-7.838 4.11-11.893 5.908-1.227.883-2.488 1.8-3.68 2.75-7.94 6.146-14.142 14.126-21.094 21.29-3.442 3.53-7.157 6.62-10.974 9.71-3.714 3.022-6.884 6.35-9.03 10.663-4.09 8.353-4.84 17.93-7.77 26.69-3.68 10.968-9.44 21.19-16.87 30.086a.43.43 0 0 0 .273.713c4.158.373 8.145 1.698 11.69 3.94 3.374 2.14 5.896 5.025 8.28 8.15 2.045 2.65 4.1 5.332 6.816 7.335s5.964 3.226 9.2 4.075c4.056 1.086 8.213 1.8 12.303 2.648l6.372 1.29c1.67.34 19.902 1.154 21.606.985 1.057-.102 12.95-43.465 19.39-58.304 5.998-13.854 10.428-29.1 11.52-44.21.545-7.776.102-15.8-2.42-23.192z" fill="#face24"/><path d="M258.58 134.4c-.102-.578-.273-2.4-.546-2.92-.034-.068-.136-.136-.238-.136-.443.034-2.386.544-2.897.714-.375.1-.5.1-.477.373l.5 3.124c.034.136.17.238.307.17l3.1-.883c.307-.068.273-.102.24-.44zm-1.908 8.5l3.1-.883c.273-.068.273-.136.24-.476-.102-.577-.273-2.4-.545-2.92-.034-.068-.137-.136-.24-.136-.443.034-2.385.544-2.896.713-.375.102-.512.102-.478.374l.512 3.124a.24.24 0 0 0 .306.204zm.375-5.094c-.034-.238-.102-.985-.238-1.222-.034-.034-.068-.068-.103-.068-.17 0-.988.237-1.192.305-.17.034-.205.034-.205.17l.205 1.3c0 .068.068.102.136.068l1.295-.373c.136-.034.136-.034.102-.17zm.34-1.392l.204 1.3c0 .068.07.102.137.068l1.295-.373c.136-.034.102-.068.102-.204-.034-.238-.102-.985-.24-1.222-.034-.034-.068-.068-.102-.068-.17 0-.988.237-1.193.305-.17.102-.204.102-.204.204zm5.896 3.803c-.034-.034-.07-.068-.103-.068-.17 0-.988.238-1.192.306-.17.034-.205.034-.205.17l.205 1.3c0 .068.068.102.136.068l1.295-.373c.102-.034.102-.068.102-.204-.068-.238-.136-.985-.238-1.2zm.443-6.487c-.103-.68-.307-2.886-.648-3.463-.068-.102-.17-.17-.272-.17-.546.034-2.83.68-3.442.85-.443.102-.614.102-.58.44l.614 3.702c.034.17.204.27.374.237l3.68-1.052c.34-.068.34-.136.273-.544zm-2.93 9.815c-.068-.102-.17-.17-.273-.17-.545.034-2.828.68-3.442.85-.443.102-.613.102-.58.44l.613 3.702c.034.17.205.27.375.237l3.68-1.052c.34-.102.34-.17.272-.578-.102-.645-.306-2.852-.647-3.43zm.58-7.54c-1.056.408-1.465 1.63-.954 2.58a.47.47 0 0 0 .102.136c.24.44.784.713 1.397.68 1-.068 1.704-.985 1.636-1.935-.034-1.155-1.056-1.902-2.18-1.46z" fill="#ff6b00"/><path d="M367.462 209.028c0-.17-.034-.34-.068-.5v-.034c0-.1-.034-.203-.034-.305-.443-2.377-2.42-4.143-3.1-6.452l-.716-2.886-.204-.78c-.205-.815-.41-2.207-1.057-2.785-.238-.237-.443-.34-.783-.373-.75-.102-2.045.543-3.102 1.086 0-.203-.034-.407-.034-.61-.034-.543-.852-.475-.818.034l.034.985c-.17.068-.306.17-.443.204-.034 0-.068.034-.068.034-.41.17-.272.815.103.815.034 0 .102 0 .17-.034.102-.034.204-.102.307-.136l.102 1.188a22.14 22.14 0 0 0 .613 3.702c.307 1.154.716 2.275 1.363 3.327.34.61.784 1.155 1.227 1.664.886 1.053 1.84 2.004 2.522 3.192.102.17.205.34.273.51v.034c.92 1.8 1.397 3.803 1.874 5.773.034.238.273.306.477.272.17-.034.307-.136.307-.306l.272-1.494c.444-2.004.92-4.143.784-6.112z" fill="#e3963d"/><g class="B"><path d="M379.73 198.74l-6.203 4.89c-5.214-9.44-7.565-16.74-10.735-26.927-.068-.17-.102-.34-.17-.5-.034-.135-.17-.17-.307-.1 0 0-.034 0-.034.034l-19.05 14.84-1.942 1.528-18.88 14.67c-.375.305-.75.577-1.1.85l-3.238 2.48c-1.772 1.324-3.68 2.546-5.827 3.1-5 1.222-9.236-2.547-12.78-5.535-2.658-2.275-19.152-18.744-28.047-27.607l-3.407-3.396-2.216-2.173c-.034-.034-.068-.068-.102-.068-.613-.475-1.227-.747-2-.543-.41.102-.818.306-1.193.577-.648.442-1.26.985-1.84 1.392l-3.75 2.683c-.136.102-.102.306.034.374v.135c.41.85.988 1.868 1.704 3.056.954 1.63 2.215 3.532 3.612 5.67.307.476.648.985.99 1.46l2.93 4.245c.103.17.24.34.34.475 11.655 16.64 29.4 39.526 32.818 42.106a45.56 45.56 0 0 0 2.624 1.868c1.33.883 2.726 1.664 4.26 2.207a10.16 10.16 0 0 0 1.942.509c1.67.306 3.34.238 5-.1l.886-.204c.136-.034.238-.068.375-.102.852-.238 1.67-.543 2.488-.883 1.976-.815 3.885-1.868 5.76-2.852.647-.34 3.374-2.004 7.293-4.415L355.9 216.1c.034-.034.102-.068.136-.068.034-.034.102-.067.136-.067.75-.5 1.534-.985 2.25-1.46.41-.237.784-.51 1.16-.747s.75-.51 1.16-.747a5.15 5.15 0 0 0 .443-.305l.613-.408c.034-.034.102-.068.137-.102l1.942-1.3c.648-.407 1.26-.85 1.84-1.222l1.534-1.02c.102-.068.17-.136.272-.17l1.773-1.188c1.772-1.223 3.203-2.24 4.225-3.022.034.033.034.1.068.135.137.238.478.034.34-.203-.034-.068-.068-.102-.102-.17l6.305-4.958c.068-.238-.205-.51-.41-.34z"/><path d="M259.5 158.16c.238.61.34 1.3.307 1.97-.41 4.516 1.056 9.6 2.42 14.092.136.408.443 1.053.92 1.902.34-.306 4.84.917 4.84.883-.92-2.75-1.772-8.83-2.283-11.648-.715-3.905-1.363-7.8-1.5-11.782-.068-1.698-.17-3.43-.58-5.128-.238-1.053-.647-3.022-1.806-3.463-2.25-.85-1.704 5.093-1.636 6 .137 1.664-.238 4.924-.68 7.165z"/></g><path d="M361.703 194.222l-.716-1.086-3.987-5.773c-.477-.645-1.227-1.97-2.045-2.886-.51-.577-1.056-1.02-1.6-1.053-.068 0-.103 0-.17.034-.204.034-.34.238-.306.442l.306 2.037c.103.815.205 1.63.17 2.547 0 .51.034 1.02.102 1.494.068.645.204 1.256.375 1.868.51 2.037 1.227 3.7 2.658 5.297.136.17.307.305.443.475l.818.85.68.815c.955 1.222 1.295 2.445 1.534 3.87l.102.645c0 .068.034.136.034.204.137.747.443 1.935.818 3.192.545 1.732 1.227 3.565 1.806 4.38l1.023-.645 1.874-1.188.307-.204 1.227-.78.272-.17 1.704-1.087c.034-.033.034-.067.068-.135.034-1.427-5.623-10.323-7.497-13.142z" class="C"/><path d="M265.703 176.463l-.068-1.698v-.204l-.068-5.093v-1.46c.034-1.087 0-2.207-.273-3.226-.34-1.188-1.158-2.07-1.976-2.988l-.75-.85-1.363-1.664-.99-1.256-.58-.78-2.25-3.226-1.43-2.547c-1.125-2.037-2.147-4.11-2.522-6.316-.34-1.867-.273-3.77-.17-5.637.035-1.018.375-2.546-.41-3.395-.34-.34-.783-.476-1.192-.408-.307.034-.614.17-.886.374-.614.475-.886 1.256-1.057 2.037v.034l-.818 1.426c-.988 1.698-1.976 3.464-2.6 5.297-.17.544-.306 1.087-.374 1.63-.07.408-.07.815-.103 1.223l-.51 1.052c-1.056 2.377-1.772 4.856-1.295 7.54.34 2.037 1.125 3.973 1.84 5.874l.682 1.766 1.976 4.754c2.66 4.55 5.998 8.863 9.27 12.97.238.306.477.578.75.815.58.544 1.26.917 2.113 1.02a3.71 3.71 0 0 0 2.317-.577c.034.17.273.27.375.068l.306-.612.103-.1c.068-.068.068-.136.034-.204.545-1.12 1.1-2.207 1.533-3.362.307-.747.375-1.494.375-2.275z" class="B"/><path d="M388.49 168.823c-1.09-4.448-2.215-10.017-6.202-12.835-3.136-2.208-7.225-2.513-11.042-2.48-4.226 3.53-8.417 7.13-12.814 10.492-2.453 1.868-5.01 3.566-7.565 5.298-.205.882-1.738 1.595-1.67 2.14.068.61.17 1.188.24 1.8-.17.34 2.385 9.644 5.725 13.243 1.806 1.936 3.714 3.736 5.078 6.045 1.635 2.75 2.52 5.874 3.544 8.896.818 2.377 1.636 5.026 3.135 7.063.784 1.087 1.5 1.426 2.692.78s2.284-1.9 3.272-2.784c1.124-1.02 2.25-2.07 3.34-3.124 2.35-2.275 4.6-4.652 6.747-7.165 3.17-3.667 5.725-7.606 6.577-12.462.92-5.026.137-10.085-1.056-14.907z" fill="#f1c51b"/><path d="M231.76 441.154l-.103-.543-.238-.917c-.443-1.528-1.16-2.954-1.943-4.38-.545-1.02-1.056-2.004-1.363-3.1l.307-3.396v-.238c-.034-.883-.204-1.73-.34-2.58-.068-.408-.102-.85-.136-1.257-.034-.68 0-1.324.102-1.97l.375-2.58v-.102c.102-.85.545-3.124-.716-3.53-.034 0-.034 0-.068-.034-.818-.238-2 .5-2.794.78l-1.772.6c-.886.306-1.772.577-2.693.68-2.044.238-4.157-.713-6.202-.883-.58-.034-1.16-.034-1.704.102h-.034c-1.125.272-1.193 1.155-.988 2.275.136.78.545 1.358.988 1.97l.307.44c.5.747.715 1.562.818 2.377l.136 1.732.136 1.154c.068.408.17.85.34 1.257.205.475.5.917.852 1.358l.307.408c.545 2.376.68 4.82-.716 6.96-1.26 1.9-3.237 3.124-5.282 4.074-4.158 1.936-8.656 3.192-12.95 4.72 0 0-.034 0-.068.034-.24.102-.477.17-.716.272a64.16 64.16 0 0 0-5.009 2.037c-1.26.578-3.238 1.257-3.885 2.65-1.466 3.056 3.067 3.396 4.873 3.43a216.23 216.23 0 0 0 6.543 0h.818c6.475-.136 12.95-.578 19.425-.883.307 0 .613-.034.92-.034.613-.034 1.193-.034 1.806-.068 2.045-.068 4.192 0 6.236-.272 1.432-.204 2.386-.747 3.068-2.003 1.635-3.26 2-7.165 1.363-10.56zm-124.932-82.446l-2.692-2.343-.443-.408-.58-.5C99.5 352.187 96 348.79 92.65 345.26l-.102-.102c-.17-.17-.443-.17-.613 0-.784.713-1.227 1.494-1.67 2.445a11.89 11.89 0 0 1-.613 1.154 6.13 6.13 0 0 1-2.045 2.038c-.068.034-.102.068-.17.102-.852.543-1.568 1.12-2.147 1.8-.58.646-1.1 1.36-1.602 2.208-.102.17-.24.373-.34.577 0 .034-.034.068-.034.068-.443.747-.818 1.494-1.16 2.24-.102.204-.205.407-.307.645-.852 1.698-1.704 3.294-3.237 4.652a7.58 7.58 0 0 0-.92.883c-.716.747-1.363 1.528-1.874 2.4l-2.216 2.38s-.034.034-.034.068c-.102.102-.205.237-.307.34l-4.158 4.686-8.997 10.527-1.363 1.63-5.487 6.52c-.648.747-1.26 1.528-1.908 2.275-.204.238-.4.5-.613.748-.307.34-.613.713-.886 1.052-.613.747-1.295 1.494-1.977 2.24-.818.917-1.602 1.834-2.25 2.853-.613.95-1.022 2.207 0 3.056.852.713 2.18.407 3.17.237 2.08-.373 4.1-1.018 5.998-1.867 2.045-.883 3.953-2.004 5.793-3.226.24-.136.443-.306.682-.475a14.59 14.59 0 0 0 .886-.646 54.45 54.45 0 0 0 3.17-2.546c1.26-1.12 2.454-2.343 3.647-3.566 1.942-2.037 3.885-4.108 6.168-5.67.375-.27.784-.475 1.16-.68a12.04 12.04 0 0 1 2.08-.815c.852-.27 1.772-.44 2.726-.645 1.738-.373 3.203-1.018 4.26-2.445a8.8 8.8 0 0 0 1.227-2.309c.545-1.46.852-3.124 1.022-4.754 0-.135.034-.27.034-.407.136-.102.307-.17.443-.272.102-.068.204-.136.307-.237.716-.544 1.295-1.223 1.772-1.97.75-1.222.886-2.648 1.806-3.633.204-.238.477-.442.784-.645.034 0 .034-.034.068-.034.716-.408 1.465-.68 2.215-.917.852-.272 1.704-.543 2.522-.883.17-.068.307-.136.443-.204.58-.305 1.125-.68 1.636-1.154a16.45 16.45 0 0 0 .715-.781c.58-.645 1.1-1.36 1.704-1.97l.375-.373c1.26-1.12 2.897-1.562 4.362-2.343.205-.272.24-.645.034-.815z" class="E"/><path d="M246.176 283.902c-10.905-.17-21.776-1.257-32.477-3.396-4.43-.883-9.065-2.445-13.63-1.97-5 .544-8.248 4.347-10.326 8.625-2.01 4.143-3.238 8.557-5.692 12.462-2.112 3.362-4.668 6.35-7.2 9.372-5.52 6.656-9.44 13.855-12.984 21.7-.307.713-.648 1.426-.988 2.14v-.102a67.15 67.15 0 0 1-2.181 2.954l-.035.034 4.737-10.29c1.807-3.803 3.75-7.504 6.135-10.968 2.385-3.43 5.214-6.553 7.838-9.813 3.135-3.905 5.59-7.912 7.43-12.564 1.465-3.7 2.862-7.538 5.623-10.526 6.202-6.656 15.403-3.023 23.07-1.596 10.122 1.9 20.413 2.92 30.705 3.056.51.102.51.917-.034.883z" fill="#4e3b31"/><g fill="#ff6b00"><path d="M451.33 143.084c-3.135-.95-5.93-1.358-8.45-1.19-1.875.102-3.613.544-5.25 1.223-2.35.985-4.532 2.547-6.577 4.652l-1.772 1.935-2.25 2.887-.886 1.256-.375.5-2.897 4.584-2.147 3.6-1.363 2.343c-2.453 4.28-5.01 8.897-6.884 12.564l-.41.85-.102.204c-.272.543-.545 1.052-.75 1.562l-.75 1.63-1.16 2.648-2.147 5.026-1.397 3.327-1.704 4.177-3.067 7.708-.818 2.105-.818 2.14-2.215 5.908-1.67 4.516c-3.203 8.795-6.27 17.692-9.2 26.588l-.99 3.022-3.714 11.614-2.317 7.368-3.545 11.51-.954 3.192-1.806 6.01-1.568 5.297-.545 1.766-12.643 42.683-4.498.34-3.272.305-8.35.883-5.214.645-4.022.543-3.714.544c-.51.068-.307.883.204.78l2.556-.374a186.01 186.01 0 0 1 6.032-.815l4.67-.577 8.383-.883 3.204-.27 3.748-.306-2.76 9.372c-.136.51.647.747.784.238l2.862-9.678 7.566-.44 5.35-.238c4.907-.17 9.85-.238 14.756-.204 2.284 0 4.567.068 6.816.102h.17c1.057.034 2.25.102 3.17-.44.204-.136.41-.272.58-.476a2.21 2.21 0 0 0 .341-.441c.613-.985.784-2.275 1.022-3.328l1.806-7.267.307-1.154c.17-.61.307-1.223.477-1.834v-.034l6.168-23.7 1.398-5.23 1.363-5.025 1.908-6.927 4.192-14.806 1.976-6.825 3.477-11.783 1.158-3.837 4.465-14.5 1.942-6.078 2.454-7.607 3.27-9.88 1.16-3.464 3.476-10.22 2.6-7.47 2.692-7.606 2.658-7.335 1.875-5.093c.17-.5.374-.985.545-1.46l1.772-4.72 1.022-2.683c.784-2.105 1.772-4.21 2.147-6.452.477-2.92-.34-6.52-3.544-7.504z"/><path d="M401.37 320.676c-.07-1.46-.41-3.158-1.84-3.905-2.112-1.154-6.68-.815-12.404-.407-.852.068-9.78.237-22.663.44l-38.134.577-50.675.68-22.355.27c-3.51.034-4.737 1.97-5.078 2.75-.17.34-.307.68-.41 1.052-.58 1.664-.886 3.464-1.193 5.23-.136.815-.273 1.63-.443 2.41-.102.475-.204.95-.273 1.392l-.374 1.867c-.273 1.393-.478 2.65-.682 3.87l-.682 4.28a130.68 130.68 0 0 1-.613 3.599l-.307 1.698c-.51 2.615-1.43 6.418.068 8.59.103.136.205.272.307.374.58.61 1.43 1.052 2.624 1.222.648.102 7.532.136 17.892.136h15.2l14.654-.034 14.722-.068h2.078l6.17-.034 14.006-.068 8.895-.034h4.09l7.36-.034h3.476l5.35-.034h6.1l15.13-.136c2.42-.1 5.146.001 7.43-.916.443-.17.852-.408 1.226-.68 1.364-.95 2.284-2.41 3.067-3.973.682-1.36 1.807-4.55 3.034-8.625.408-1.325.817-2.75 1.226-4.245.068-.305.17-.577.24-.883.613-2.173 1.193-4.482 1.738-6.757.102-.408.204-.78.273-1.19.272-1.12.647-2.275.988-3.43.034-.136.068-.272.102-.374.17-.61.34-1.222.477-1.833v-.034c.136-.985.24-1.868.205-2.75z"/></g><path d="M253.57 330.252l5.7.95c2.25.203 4.533.033 6.782-.068 2.113-.102 4.192-.204 6.305.068 2.215.27 4.157 1.154 6.304 1.63 3.987.883 7.975-1.222 11.996-1.256 2.045 0 4.123.136 6.168-.034 1.1-.102 2.692-.136 3.442-1.087 1.43-1.833-1.1-3.2-2.692-3.022-1.943.204-3.817.917-5.76 1.155-2.284.306-4.567.373-6.85.238-4.465-.238-8.827-.985-13.325-.713-5.214.305-10.428 1.188-15.642.5-3.135-.408-6.202-1.12-9.338-1.223-.136.815-.272 1.63-.443 2.4-.102.476-.204.95-.272 1.393 2.487-.476 5-1.325 7.633-.95zm44.03 13.14c-.307-2.513-3.067-2.852-5.112-2.716-4.464.305-8.792 2.037-13.3 1.392-3.85-.543-7.122-2.343-11.143-1.834-2.215.272-4.362.95-6.543 1.393-2.66.543-5.215.44-7.873.033-1.976-.305-3.953-.68-5.963-.747a18.57 18.57 0 0 0-2.761.102c-.238.034-.477.068-.715.136a135.56 135.56 0 0 1-.614 3.6c1.363.237 2.76.95 4.1.882 1.908-.135 3.714-.984 5.623-1.3 4.77-.747 9.1.883 13.665 1.902 4.124.95 8.28.85 12.473.6l13.223-.747c1.908-.102 5.282.17 4.94-2.717zm93.4-94.57c1.1-.102 2.692-.136 3.442-1.086 1.43-1.834-1.1-3.192-2.693-3.022-1.874.203-3.714.882-5.623 1.154l-.988 3.022 5.862-.068zm-2.385 14.16c-.306-2.513-3.067-2.852-5.112-2.716-.68.034-1.397.135-2.078.237l-1.704 5.433 3.92-.237c1.942-.102 5.316.17 4.975-2.717zm-35.987 74.433c-1.227-1.494-2.658-2.75-4.055-4.04-1.806-1.698-3.17-3.53-4.362-5.67-1.534-2.785-3.238-5.943-6.407-7.13-3.1-1.155-5.76.543-7.94 2.648-2.998 2.887-6.1 5.4-9.405 7.946-3.238 2.48-5.76 5.33-8.18 8.6-3 4.075-6.543 7.097-10.6 10.12-2.76 2.07-5.486 4.2-7.736 6.825l6.544-.034.204-.203c2.42-2.717 5.862-4.2 8.554-6.622 2.93-2.648 4.94-6.044 8.008-8.557 3.136-2.58 6.305-5.06 9.133-8.014 1.364-1.392 2.66-2.852 3.92-4.346s2.965-4.177 5.18-4.245c2.08-.068 4.635 2.82 5.76 4.38 1.022 1.392 1.363 3.1 2.385 4.482 2.045 2.852 5.862 3.43 7.532 6.7 1.465 2.887 1.533 6.248 2.76 9.237 1.295 3.056 4.294 4.414 6.1 6.995l6.134-.034c-2.35-3.464-6.577-7.165-7.53-8.557-2.25-3.362-3.374-7.267-5.998-10.46zm-15.165 12.02c-3.1-1.154-5.76.544-7.94 2.65l-5.112 4.516 6.475-.034c1.124-1.426 2.522-3.022 4.226-3.056 1.533-.034 3.373 1.562 4.668 3.022h4.1c-1.534-2.784-3.204-5.908-6.407-7.097zM434.086 185.8c-3.135 2.377-5.418 5.603-8.7 7.878-3.34 2.3-6.713 4.516-9.78 7.233a101.06 101.06 0 0 0-4.26 4.006c-1.397 1.393-3.306 3.94-5.487 3.804-1.806-.102-3.75-2.445-4.907-4.1l-1.636 4.244c.954 1.562 2.147 2.955 3.885 3.77 3 1.392 5.793-.068 8.145-2.004 3.237-2.648 6.543-4.856 10.053-7.13 3.442-2.207 6.202-4.822 8.86-7.878 3.34-3.803 7.123-6.52 11.417-9.202.17-.102.34-.238.545-.34l2.692-7.607c-3.1 2.377-8.315 5.4-10.837 7.335zm-7.293-22.105l-1.226-1.358-2.727-3.396-2.147 3.6-1.363 2.343.716.883.68.916c.375.5.818 1.02.92 1.63.238 1.12-.955 1.494-1.738 1.936-.307.17-.58.34-.852.543-.648.476-1.16 1.053-1.704 1.664l-4.942 4.958-.4.85-.102.203-.75 1.562-.75 1.63-1.16 2.65c.58-.102 1.125-.272 1.704-.5 1.1-.476 2.147-1.2 3.1-1.97l3.612-2.784 1.193-.85a5.16 5.16 0 0 0 .886-.611c1.1-.85 1.977-1.902 3.1-2.717l1.977-1.46c1.43-1.12 2.76-2.343 3.714-3.87 1.398-2.105-.238-4.28-1.738-5.84zm-44.575 163.84c-5.963.237-17.72-2.106-18.198 1.697-.034.204-.17.442 0 .578 1.125.984 2.66.984 4.124 1.018 2.283.102 4.6-.034 6.884-.135 2.658-.102 5.282-.102 7.906.27 2.18.306 4.294.747 6.5.577 1.943-.135 3.85-.577 5.76-.95a21.54 21.54 0 0 1 4.09-.374c.102-.407.204-.78.273-1.188.272-1.12.647-2.275.988-3.43-2.318.034-4.635.136-6.952.408-3.783.373-7.566 1.358-11.383 1.528zm-8.45 11.104l-4.567-.305c-1.022 0-2.385-.136-3.27.577-1.057.85-.954 2.445-.17 3.463 1.227 1.562 3.476 1.3 5.146.85s3.17-.984 4.942-.883c1.67.102 3.305.544 4.975.714 2.795.27 5.555-.238 8.315-.646 1.943-.305 3.92-.577 5.896-.475.34 0 .682.068 1.022.136l1.227-4.245c-4.566.34-9.03 1.766-13.665 1.698-3.306-.034-6.577-.543-9.85-.883zm42.463-91.208c-.034.204-.17.442 0 .578 1.125.984 2.658.984 4.123 1.018.4.034.852.034 1.26.034l1.16-3.837c-3.5 0-6.304.408-6.543 2.207zm-4.193 13.854c-1.056.85-.954 2.445-.17 3.464 1.16 1.46 3.237 1.324 4.873.917l1.397-4.822-2.828-.136c-1.023 0-2.386-.136-3.272.577zm-33.772 31.784c1.057.136 1.943.713 2.965.984 6.816 1.63 8.247-8.557 9.133-12.97.75-3.7 1.398-7.47 2.693-11.07 1.363-3.77 3.68-6.893 5.7-10.322 3.782-6.384 1.226-4.924 3.203-11.953 1.227-4.313 3.408-7.912 5.52-11.783 1.84-3.43 3.17-7.063 2.453-11.002-.034-.136-.17-.238-.272-.272-4.124-1.052-8.315.068-12.507-.475-1.1-.136-2.18-.408-3.238-.6l-1.67 4.516c1.26.475 2.385 1.188 3.68 1.562 3.033.85 5.35-1.324 8.247-1.562-.988 6.825-10.496 28.422-11.484 31.715-1.023 3.396-2.863 6.452-4.192 9.712-1.227 2.954-1.636 5.874-1.806 9.032-.205 3.973-.34 11.4-5.828 10.934-2.93-.27-5.248-1.494-8.042-.917l-1.568 5.298c1.43 0 2.83-.068 4.226-.408.954-.27 1.772-.543 2.794-.407zm39.702-67.845c-.273-.034-.477.102-.5.407-.614 6.52-4.908 11.75-7.26 17.692-1.26 3.2-1.636 6.553-2.25 9.88-.614 3.396-1.67 6.62-2.965 9.813-2.522 6.18-5.214 11.987-5.827 18.7-.205 2.106-.546 3.905-1.67 5.74-.682 1.087-1.432 2.173-1.636 3.464-.205 1.528.34 3.2 1.942 3.667 1.432.44 3.033-.34 4.43-.543 2.18-.34 4.328.034 6.475.305l1.363-5.025c-.716-.034-1.432 0-2.147.068-1.466.135-2.897.475-4.362.5-1.5.034-2.386-.068-2.18-2.038.068-.848.477-1.765.68-2.58.92-3.362 2-6.622 3.442-9.814 1.193-2.614 2.215-5.195 2.624-8.08.4-2.92.34-5.9.818-8.83.545-3.328 2.215-5.908 3.885-8.76 1.43-2.48 2.386-5.127 3.17-7.878.818-2.852 1.227-6.62 3.033-9.032 1.398-1.834 4.124-1.936 6.27-2.14.613-.068 1.295-.034 2-.034l1.942-6.08c-3.783.17-7.497 1.155-11.28.578z" class="E"/><path d="M415.513 267.67l-7.497.034-4.976.034-13.8.102-7.464.034h-2.658l-18.027.102-35.204.238-74.36.543a.28.28 0 0 0-.477.102l-2.42 4.448c-1.636 3.056-3.204 6.18-4.703 9.304-.068.17-.068.306 0 .408 0 .034.034.034.034.067.068.102.204.136.307.136h2.25l27.638-.136h3.442l134.44-.51 4.192-14.805c-.24-.136-.443-.136-.716-.102z" class="D"/><path d="M375.13 103.15l-.34-1.358c-.034-.204-.102-.373-.136-.577-.34-1.392-.51-3.803-2.18-4.313-.784-.238-1.636-3.77-2.18-1.19-.034.136-.068.272-.068.44v.102c-.034.136-.034.272-.068.44v.068c-.375 3.498-2.113 10.323-6.987 9.373-.51-.102-.75.68-.204.78 2.283.44 3.715-.34 4.737-1.664 1.056-.95 2.01-1.63 3.544-1.36.34.068.682.204 1.057.17h.102c.375-.034.75-.102 1.1-.102.205 0 .375.034.614.102.443.136.954.408 1.124-.238.068-.17-.034-.475-.102-.68z" class="C"/><path d="M287.957 277.654h.034v-.102c-.068.068-.102.068-.034.102zm20.174 1.494c-5.59.883-19.084-1.053-20.14-1.494l-3.58 11.443-6.066 19.966-1.703 5.705c-.307 1.087-.648 2.173-.99 3.26l-1.567 5.195-8.895 29.814c-.17.645-.375 1.256-.545 1.902-.17.61-.34 1.222-.545 1.8l-1.193 4.04-1.568 5.23c-.238.748-.443 1.53-.68 2.276l-5.317 17.895-3 10.12-16.39 55.688s.102.544.408.5l6.305-.272.41-.306 11.757-30.934 9.95-26.112c.17-.476.34-.917.545-1.393l.92-2.377 2.76-7.266 1.26-3.294 4.67-12.292c.238-.68.51-1.325.75-2.004l3.613-9.576.715-1.833c.103-.238.17-.476.273-.713l2.863-7.573 1.806-4.787 23.616-62.175c.17-.238-.17-.475-.443-.44z" class="D"/><path d="M396.19 186.14c-1.738 3.327-4.192 6.112-7.26 8.183 2.794-4.278 5.112-8.896 6.85-13.718.17-.5-.614-.713-.784-.204a65.04 65.04 0 0 1-7.736 14.975s-.034 0-.034.034c-.136.068-.204.203-.204.305-1.364 1.936-2.83 3.77-4.397 5.535-2.52 2.82-5.248 5.433-8.247 7.776-2.93 2.31-6.51 4.11-8.553 7.335-.273.44.443.85.715.407 2.18-3.463 6.34-5.4 9.44-7.98 3.1-2.547 5.93-5.366 8.486-8.456a70.03 70.03 0 0 0 3.339-4.346c3.92-2.207 7.02-5.433 9.1-9.44.24-.44-.477-.883-.715-.407z" class="F"/><path d="M345.788 97.38c.477 1.698.205 3.26-.613 3.497s-1.84-.985-2.317-2.682-.205-3.26.613-3.498c.818-.204 1.874.985 2.317 2.683zm-1.806-9.883c-1.942.272-3.68 1.222-5.112 2.48l-.068.068.4 2.377c0 .034 0 .102.034.136.307.034.614-.136.92-.238l2.25-.747 4.158-1.02c.784-.17 1.636-.5 1.806-1.358.34-1.936-3.305-1.834-4.396-1.698zm44.848-31.172c-4.328-1.562-9.1-1.698-13.564-.645-2.35.577-4.6 1.494-6.918 2.14-2.692.747-5.282.68-8.076.6-7.668-.136-14.825 4.312-18.232 11.172-.478.985-.818 1.766-1.057 2.615-.068.034-.102.102-.17.136-.068.373-.102.747-.137 1.12l-.102.5a1.97 1.97 0 0 0 .034.34c0 .306-.034.645-.034.95 0 .204.24.34.34.204h.034c5.725-2.07 7.123.917 9.815 5.535 1.465 2.513 2.522 5.23 3.783 7.844.85 1.766 2 3.803 4.02 4.414 1.33.407 2.42.306 3.5.068 1.056-.204 2.147-.5 3.442-.44.375 0 .68.034.988.068.34.034.648.068.92.136.102.034.17.034.273.068h.034c1.022.306 1.636.985 2.454 2.513 0 .034.034.068.034.102a12.75 12.75 0 0 1 .613 1.189c.886 1.834 1.84 4.245 2.386 6.316l.204.78c.136.577.205 1.087.24 1.562.102 1.358 1.363 4.177 4.157 7.3a28.6 28.6 0 0 0 2.692 2.648c1.84 1.63 4.1 3.226 6.782 4.652.068.068.136.102.205.17.204.17.374.34.58.5a13.75 13.75 0 0 1 1.022 2.41c1.88 6.243 3.398 13.18-2.794 20.34 24.692 1.84 49.534-64.468 2.522-87.336z" class="D"/><path d="M449.933 156.734c-.818-1.324-1.295-2.75-1.874-4.176-.546-1.325-1.295-2.513-2.01-3.7-.852-1.393-1.568-2.82-2.18-4.313l-.988-2.58c-1.875.102-3.613.544-5.25 1.223.818 1.698 1.807 3.294 2.897 4.822.852 1.154 1.67 2.207 2.18 3.565.443 1.223.716 2.513 1.09 3.77.75 2.48 2.385 4.28 3.714 6.452.818 1.358 1.363 2.818 1.84 4.312l.545-1.46 1.772-4.72c-.477-1.188-1.09-2.173-1.738-3.192z" class="E"/><path d="M344.493 113.033c0-.068 0-.102.034-.17 0-.272-.4-.272-.4 0 0 .204-.068.407-.102.577-.136.476-.375.95-.58 1.426-.034.136-.102.272-.137.408-.068.204-.102.44-.034.645.137.5.886 1.02 1.432.883.068 0 .102-.034.17-.034.443-.204 1.193-1.02 1.33-1.63 0-.102.034-.17 0-.238-.102-.815-1.056-1.426-1.704-1.867zm2.692 9.27c-.102-.578-.272-1.12-.58-1.596a4.02 4.02 0 0 0-.341-.476v-.237c0-.238-.4-.238-.4 0 0 .34-.102.68-.238 1.052-.205.578-.477 1.2-.307 1.766.24.78 1.057 1.3 1.33 2.037.034.034.102.068.205.068.238 0 .613-.135.613-.237l-.273-2.377z" class="B"/><path d="M353.32 114.458c-.034-.135-.205-.203-.307-.135-.477.237-.954.407-1.43.577-1.125.407-2.284.68-3.476.985l-3.442.984.92 4.143v.068c.34-.102.647-.238.954-.374l.784-.373c.034 0 .068-.034.136-.068 1.5-.68 3.033-1.494 4.294-2.48.954-.747 1.67-1.732 1.568-2.92.068-.17.034-.272 0-.408z" fill="#fff"/><path d="M368.1 91.03c-1.33-.577-2.863-.306-4.056.44-.783.475-1.363 1.155-1.908 1.834-.477.577-.92 1.154-1.5 1.664-.205.17.102.475.306.306.58-.475 1-1.087 1.466-1.664.102.374.68.543 1.363.6l.954.068 1.193.034c.75.136 1.397.44 1.908.85.034.034.068.068.102.068.17.136.307.272.443.44.137.136.24.306.34.475.716 1.222.886 3.192.92 3.056.273-.85.477-1.698.58-2.445l.068-.442v-.102c0-.17.034-.374.034-.543.034-2.3-.75-4.007-2.215-4.652zm-83.347 67.063c-1.227-3.668-2.522-7.54-5.316-10.357-.613-.645-1.295-1.155-2-1.596-.4-.272-.852-.5-1.26-.747-.443-.272-.92-.5-1.363-.747-.102-.068-.204-.102-.306-.17-.444-.238-.887-.5-1.295-.78-.035-.034-.07-.034-.103-.068-.68-.44-1.397-.883-2.044-1.358l-.955-.645c-.204-.136-.375-.272-.58-.408-.102-.102-.24-.17-.34-.27-.238-.17-.477-.34-.715-.544-.07-.034-.137-.1-.205-.135-.102-.102-.238-.17-.375-.238l-1.158-.713c-.035-.034-.103-.034-.137-.068h-.034c-.204-.102-.4-.238-.613-.272-.273-.068-.5-.068-.75.204-.034 0-.034.034-.068.068-.784.917-.102 2.615.5 3.396.034.033.068.1.102.135.273.34.614.646.954.917.205.17.4.306.614.442.068.068.17.1.238.17.035.034.07.034.103.068.136.102.306.17.443.272.068.034.102.068.17.102 0 0 .034 0 .034.034.682.373 1.363.713 1.977 1.086.068.034.102.068.17.102l.205.102 1.363.815c.136.102.272.17.375.272.374.305.545.645.715 1.256l.103.408c.034.1.068.237.102.34a49.62 49.62 0 0 0 .647 2.377c.477 1.46 1.16 2.92 2 4.177 0 0 .034.034.034.068.273.407.545.78.852 1.154 0 0 0 .034.034.034 1.16 1.358 2.6 2.445 4.328 3.1-.034.102-.102.238-.136.34-.103.237.306.373.4.102.034-.102.102-.238.136-.34.136-.034.204-.204.102-.306.273-.6.58-1.188.954-1.765.307-.476.546-.917.614-1.494a4.06 4.06 0 0 0 .272-.544l.75 2.14c.136.237.545.135.443-.102z" class="B"/><path d="M367.224 92.5c-.375-.374-.954.204-.58.577 1.602 1.562 1.26 3.77.818 5.74-.102.5.682.713.784.204.5-2.24.818-4.754-1.022-6.52zm-2.658 2.002c.34-.373-.24-.95-.58-.577-.852.917-1.43 2.004-1.567 3.26a2.36 2.36 0 0 0 .17 1.358c.068.136.24.238.273.374.545 1.495.17 2.174-1.1 2.955-.443.27-.034.984.4.713.988-.6 1.9-1.46 1.9-2.717 0-.475-.205-.78-.375-1.188-.4-1.02-.614-1.223-.34-2.14.204-.815.647-1.46 1.193-2.037zm-86.322 53.515c-2.35-3.53-5.555-6.248-9.44-8.013-.477-.204-.886.475-.4.713 3.75 1.698 6.85 4.312 9.134 7.708.306.44 1.022.034.715-.408zm3.34 13.923l-4.02-3.973c-1.636-1.97-2.454-4.04-3.238-6.452-.443-1.358-.92-2.784-1.806-3.94-1.125-1.426-2.795-2.173-4.328-2.988-.477-.238-.886.44-.4.713 1.874 1.02 3.68 1.868 4.77 3.837.988 1.766 1.26 3.837 2.08 5.705 1.363 3.124 3.92 5.467 6.373 7.708.374.34.954-.238.58-.6zm-28.83-4.2c-.68-1.596-2.25-1.9-2.385-3.905-.102-1.562-.34-2.988-.682-4.516-.443-2.07-.204-3.905-.034-6 .136-1.698.102-3.43.102-5.162l-.817 1.427-.137 4.074c-.204 2.038-.307 3.838.102 5.84l.58 3.056c.102.815-.034 1.766.204 2.547.4 1.324 1.84 1.766 2.352 2.988.204.543.92.136.715-.34zm-4.668.814c-.4-.5-.92-.95-1.227-1.562-.477-.985-.307-1.902-.307-2.92.034-2.513-.307-5.06-.58-7.573-.068.408-.068.815-.103 1.223l-.5 1.053c.205 2.003.34 4.006.307 6 0 .95 0 1.8.443 2.648.648 1.2 1.84 1.97 2.386 3.26.204.476.988.272.783-.203-.272-.78-.68-1.325-1.192-1.936z" class="C"/><path d="M359.113 261.22c-9.576-8.76-17.278-19.288-22.662-31.07-.205-.475-.92-.067-.716.408a97.45 97.45 0 0 0 22.799 31.24c.375.373.954-.204.58-.577z" class="F"/><path d="M166.1 292.357c-.068-.5-.852-.306-.784.203a321.28 321.28 0 0 1 1.943 18.065c.034.5.852.5.818 0-.477-6.078-1.125-12.2-1.977-18.268zm-1.498 27.2a33.07 33.07 0 0 1-2.386-11.341c-.034-.5-.852-.5-.818 0a34.43 34.43 0 0 0 2.42 11.545c.204.5.988.27.784-.204zm50.572-6.384a33.24 33.24 0 0 1-13.188-14.126c-.24-.475-.954-.068-.716.408 3 6.044 7.634 11.002 13.46 14.397.477.272.886-.44.443-.68zm3.816 11.51c-3.1-2.614-6.27-5.093-9.508-7.504-.4-.306-.818.408-.4.713a197.08 197.08 0 0 1 9.338 7.369c.375.34.954-.238.58-.578z" fill="#4e3b31"/><path d="M377.516 150.826c-9.338 2.547-16.426 9.338-23.14 15.96-.375.374.205.95.58.578 6.612-6.52 13.598-13.243 22.8-15.756.477-.136.273-.95-.238-.78z" class="F"/><path d="M227.9 420.17l-2.08-.034c-1.806.068-3.476.645-5.214 1.155-2 .577-3.953.713-5.998.6-.4-.034-.818-.034-1.227 0-.34 0-.647.034-.954.102l.307.44c.5.747.716 1.562.818 2.377.17-.034.306-.102.477-.136.443-.135.92-.237 1.363-.305l1.227-.204c1.738-.204 3.5.204 5.214-.204.75-.204 1.43-.543 2.147-.78.92-.305 1.874-.407 2.828-.44h1.16l.375-2.58a.97.97 0 0 1-.443 0zm.146 5.806l-2.215-.034c-1.806.068-3.476.645-5.214 1.154-2 .578-3.953.713-5.998.646-.272 0-.545-.034-.818-.034.068.407.17.848.34 1.256.205.475.5.917.852 1.358.545-.136 1.1-.204 1.636-.27 1.738-.204 3.5.203 5.214-.204.75-.204 1.43-.544 2.147-.78.92-.306 1.874-.408 2.828-.442h1.568c-.034-.916-.204-1.765-.34-2.648zm-128-65.9l-1.908-2.037c-.716-.985-1.602-1.8-2.522-2.547l-1.363-1.086c-1.602-1.325-2.83-2.853-3.885-4.62l-.477-.747c-.068-.1-.136-.17-.205-.27-.5.815-1.1 1.426-2.045 2.037l.068.068c.204.17.4.34.58.543l.443.408c.307.272.58.577.852.883.75.85 1.26 1.867 1.908 2.784a7.77 7.77 0 0 0 1.193 1.392c.58.5 1.26.883 1.874 1.36.75.577 1.397 1.324 1.943 2.105.102.136.784.78 1.533 1.528l1.772 1.732.477.5 1.704-1.97c-.443-.578-1.227-1.36-1.943-2.072z" fill="#fff"/><path d="M271.53 180.063l-.818-.747c-.034-.034-.205-.034-.273 0-.034 0-.034.033-.068.033-3.578 2.004-6.44 5.06-8.145 8.76-.102.204-.204.408-.272.645-.682 1.664-1.364 3.94.102 5.4 1.158 1.155 3 1.12 4.362.408.068-.034.068-.102.034-.204a.83.83 0 0 0-.341-.475c-.034 0-.034-.034-.068-.034-.75 0-1.465.034-2.215-.238-1.09-.407-1.397-1.528-1.16-2.58.102-.476.307-.95.51-1.393.478-.95 1.125-1.833 1.704-2.614 1.807-2.547 4.022-4.754 6.543-6.554l.035-.034c.102-.102.17-.272.068-.373z" fill="#404450"/></svg>