<svg width="300" height="190" viewBox="0 0 300 190" fill="none" xmlns="http://www.w3.org/2000/svg">
<mask id="mask0" mask-type="alpha" maskUnits="userSpaceOnUse" x="0" y="0" width="300" height="190">
<rect width="300" height="190" rx="15" fill="#EEEEEE"/>
</mask>
<g mask="url(#mask0)">
<path d="M0 245C0 250.523 4.47715 255 10 255H290C295.523 255 300 250.523 300 245V0H0V245Z" fill="#0F827C"/>
<mask id="mask1" mask-type="alpha" maskUnits="userSpaceOnUse" x="-38" y="-85" width="375" height="390">
<path d="M-38 295C-38 300.523 -33.5228 305 -28 305H327C332.523 305 337 300.523 337 295V-85H-38V295Z" fill="white"/>
</mask>
<g mask="url(#mask1)">
<path d="M215.494 119.254C221.754 105.139 208.17 85.2436 185.154 74.8166C162.138 64.3896 138.405 67.3794 132.146 81.4945C125.886 95.6097 139.47 115.505 162.486 125.932C185.502 136.359 209.235 133.369 215.494 119.254Z" fill="#42B79B"/>
<path d="M176.213 224.45C196.313 209.049 205.113 186.571 195.867 174.244C186.622 161.917 162.833 164.409 142.732 179.81C122.632 195.211 113.832 217.689 123.078 230.016C132.323 242.343 156.112 239.851 176.213 224.45Z" fill="#145752"/>
<path d="M312.697 76.0576C332.797 60.6567 341.597 38.1789 332.351 25.8519C323.106 13.5249 299.317 16.0168 279.216 31.4177C259.116 46.8185 250.317 69.2964 259.562 81.6233C268.807 93.9503 292.597 91.4584 312.697 76.0576Z" fill="#42B79B"/>
<path d="M270.773 32.929C273.335 17.6785 255.252 1.85582 230.385 -2.41185C205.518 -6.67953 183.282 2.22383 180.72 17.4744C178.158 32.7249 196.24 48.5475 221.107 52.8152C245.975 57.0829 268.211 48.1795 270.773 32.929Z" fill="#179F98"/>
<path d="M145.697 22.6018C151.662 -2.16805 144.444 -25.2137 129.574 -28.872C114.705 -32.5303 97.8146 -15.416 91.8494 9.35381C85.8841 34.1237 93.1026 57.1693 107.972 60.8276C122.842 64.4859 139.732 47.3717 145.697 22.6018Z" fill="#189C8B"/>
<path d="M27.2012 131.532C55.7776 105.436 69.0677 73.2336 56.8856 59.6056C44.7035 45.9776 11.6622 56.085 -16.9142 82.1811C-45.4905 108.277 -58.7807 140.48 -46.5985 154.108C-34.4164 167.736 -1.37512 157.629 27.2012 131.532Z" fill="#179F98"/>
<path d="M87.8438 240.771C106.345 206.633 108.425 171.806 92.4883 162.982C76.552 154.159 48.6346 174.681 30.1331 208.819C11.6317 242.957 9.55227 277.785 25.4886 286.608C41.425 295.431 69.3423 274.909 87.8438 240.771Z" fill="#189C8B"/>
<path d="M74.7547 -6.39804C103.331 -32.4941 116.621 -64.6969 104.439 -78.3248C92.2569 -91.9528 59.2156 -81.8454 30.6393 -55.7493C2.06293 -29.6533 -11.2272 2.54947 0.954926 16.1775C13.1371 29.8054 46.1783 19.698 74.7547 -6.39804Z" fill="#42B79B"/>
<path d="M74.9502 55.7184C77.5074 54.883 80.0645 53.421 82.6908 53.2818C89.6712 52.9337 96.7207 52.9337 103.77 53.1425C108.539 53.2818 110.267 55.3703 110.267 60.2437C110.336 68.946 110.198 77.6484 110.405 86.3507C110.405 87.8127 111.373 90.3886 112.202 90.5279C113.653 90.8063 116.003 90.1101 116.971 88.9962C120.081 85.1672 123.053 81.1293 125.541 76.8129C128.651 71.3827 131.277 65.7435 133.903 60.1044C135.216 57.1804 137.221 55.8577 140.331 55.9273C147.933 55.9969 155.535 55.9969 163.138 56.2058C167.146 56.2754 168.805 58.5728 167.63 62.4715C167.146 64.0727 166.317 65.6739 165.349 67.1359C159.337 76.1864 153.324 85.2368 147.173 94.2177C143.855 99.091 143.786 99.0214 147.933 103.477C153.6 109.534 159.198 115.66 165.004 121.717C167.285 124.084 168.045 126.59 166.732 129.584C165.488 132.369 163.069 133.065 160.166 132.995C153.393 132.856 146.551 132.856 139.778 132.995C136.668 133.065 134.249 132.09 132.175 129.723C128.167 125.268 124.02 120.951 119.873 116.496C118.215 114.686 116.418 113.502 113.791 114.686C111.303 115.8 109.921 117.401 110.129 120.325C110.267 122.761 110.059 125.198 110.198 127.635C110.336 130.768 108.608 132.299 105.844 132.299C99.5543 132.369 93.1268 132.647 86.9067 131.951C75.9178 130.768 67.4169 124.502 60.2983 116.565C56.2898 112.11 52.696 107.167 49.7932 101.945C42.6055 88.857 35.8325 75.5598 28.9903 62.3322C26.917 58.2943 28.0919 56.4842 32.5842 56.4146C38.8043 56.345 45.0245 56.4146 51.2446 56.2754C54.7693 56.2058 56.9809 57.6678 58.7088 60.8006C63.8231 70.1295 69.2139 79.2496 74.5355 88.4393C75.7105 90.3886 77.1618 92.1291 79.7881 91.2937C82.4835 90.4582 82.8982 88.2304 82.8982 85.7242C82.8291 80.1547 82.7599 74.5851 82.8982 69.0156C83.0364 64.2816 81.7232 60.5918 77.0927 58.6424C76.4016 58.364 75.8487 57.6678 75.2267 57.1804C75.1576 56.6931 75.0884 56.2058 74.9502 55.7184Z" fill="#F0EEE7"/>
<path d="M-29.4971 157.678C-38.4432 141.88 -23.5331 94.247 -5.71747 100.171C3.9932 103.41 -13.4401 136.666 -13.4401 136.666" fill="#F87A26"/>
<path d="M55.2223 179.638C70.056 165.182 77.7022 145.276 74.1085 139.036C72.8086 136.824 70.3618 134.928 65.0095 135.876C69.5972 129.319 76.9375 117.076 72.8086 110.914C67.6092 103.173 56.5987 108.86 56.5987 108.86C56.5987 108.86 61.7216 96.2214 53.5402 91.5608C41.9944 84.9254 25.708 101.593 25.708 101.593C27.0079 85.6363 9.49809 90.6919 -8.01169 108.86C-12.0642 113.442 -30.2621 132.479 -26.8213 162.418L38.936 193.778" fill="#F87A26"/>
<path d="M39.3183 124.422C42.5297 126.871 31.2133 141.564 27.849 139.431C23.9494 136.982 35.8775 121.736 39.3183 124.422Z" fill="#FACE24"/>
<path d="M38.248 130.267C39.8537 127.661 40.389 125.212 39.3185 124.343C38.2481 123.553 36.4894 124.343 34.5779 126.002C32.7428 130.741 37.1776 132.005 38.248 130.267Z" fill="#FCEFC0"/>
<path d="M56.1398 120.867C59.1983 123.474 47.3467 137.613 44.0588 135.323C40.2357 132.716 52.7755 118.023 56.1398 120.867Z" fill="#FACE24"/>
<path d="M50.9404 127.028C51.3228 128.292 52.0109 129.003 53.0049 129.319C55.7575 125.922 57.5926 122.052 56.1399 120.867C55.1459 119.998 53.3108 120.788 51.3228 122.289C50.7111 123.948 50.4817 125.527 50.9404 127.028Z" fill="#FCEFC0"/>
<path d="M47.4233 100.487C51.3993 103.251 42.6062 116.759 38.3243 114.31C33.5837 111.625 43.1414 97.4849 47.4233 100.487Z" fill="#FACE24"/>
<path d="M41.8412 108.465C42.3765 109.966 43.3705 110.677 44.5174 110.914C47.423 106.49 49.2581 101.751 47.423 100.487C46.1231 99.6178 43.9822 100.724 41.7648 102.698C41.2295 104.673 41.1531 106.648 41.8412 108.465Z" fill="#FCEFC0"/>
<path d="M51.7819 141.485C54.611 144.091 46.4296 153.65 43.3711 151.359C39.8539 148.752 48.7234 138.72 51.7819 141.485Z" fill="#FACE24"/>
<path d="M46.5825 147.173C46.8884 148.358 47.5001 149.069 48.4176 149.385C51.0938 146.225 53.0054 142.749 51.7055 141.564C50.788 140.696 49.0293 141.328 47.0413 142.749C46.5061 144.171 46.2767 145.751 46.5825 147.173Z" fill="#FCEFC0"/>
<path d="M28.3078 109.176C33.0485 112.178 20.5087 129.794 15.5387 127.266C9.88051 124.343 23.2614 105.938 28.3078 109.176Z" fill="#FACE24"/>
<path d="M27.2372 117.629C29.2252 113.679 29.9898 110.282 28.3841 109.177C26.8549 108.229 24.3316 109.65 21.6555 112.178C19.0558 116.207 26.549 118.893 27.2372 117.629Z" fill="#FCEFC0"/>
<path d="M58.3576 166.525C50.8643 164.155 41.4595 176.32 41.4595 176.32C41.4595 176.32 35.1132 168.658 23.1086 180.27L-13.7461 156.73C-13.7461 156.73 -2.50614 127.66 -8.6231 125.291C-14.6636 122.921 -28.8855 144.407 -33.4732 164.313C-38.061 184.219 -32.1734 198.596 -17.6456 208.628C3.68727 223.4 33.3545 210.208 49.8703 192.277C59.8868 181.534 65.8509 168.895 58.3576 166.525Z" fill="#F87A26"/>
<path d="M61.4926 173.319C56.6755 180.27 49.5645 183.509 46.8119 181.534C44.0593 179.559 45.665 172.45 49.8704 168.579C45.2062 171.581 41.4596 176.399 41.4596 176.399C41.4596 176.399 37.8659 172.055 30.9078 174.898C20.5855 185.799 26.9318 196.779 38.0952 182.877C38.0952 182.877 34.4251 190.065 40.2362 191.329C46.0473 192.593 53.4641 188.406 59.4281 179.085C60.4986 176.952 61.1868 174.977 61.4926 173.319Z" fill="#FF9E12"/>
<path d="M58.3576 166.525C55.605 165.656 52.623 166.762 49.8704 168.499C45.665 172.449 44.0592 179.558 46.8119 181.454C49.5645 183.429 56.7519 180.19 61.4926 173.239C62.1807 170 61.2632 167.472 58.3576 166.525Z" fill="#FEAD14"/>
<path d="M9.88058 164.313C14.4683 151.516 15.1565 140.615 10.3393 138.956C6.59271 137.692 0.0934486 144.328 -6.25289 154.123C-13.6697 174.819 -1.89456 182.56 9.88058 164.313Z" fill="#FF9E12"/>
<path d="M34.6541 152.069C30.9839 148.988 25.6316 151.832 20.5851 156.256V156.335C4.98684 175.925 17.9089 186.352 28.0783 173.081C34.3482 163.049 37.6361 154.518 34.6541 152.069Z" fill="#FF9E12"/>
<path d="M10.2625 139.035C8.35098 138.403 5.75128 139.746 2.76926 142.59C0.781251 153.728 5.67481 159.021 12.5564 154.834C14.3915 146.461 13.8562 140.22 10.2625 139.035Z" fill="#FEAD14"/>
<path d="M34.6541 152.069C32.3603 150.094 29.3018 150.568 26.1668 152.227C20.5087 163.207 25.0199 169.606 31.3663 167.394C35.4187 159.968 37.0244 154.044 34.6541 152.069Z" fill="#FEAD14"/>
<path d="M72.8089 110.914C71.5855 109.097 70.1327 108.07 68.527 107.438C60.4221 109.334 56.3696 128.371 71.2797 125.29C73.8029 119.998 75.1792 114.468 72.8089 110.914Z" fill="#FF9E12"/>
<path d="M16.6859 92.272C11.7923 100.882 21.1207 105.464 25.7849 101.593C26.3966 93.9309 22.6499 91.0871 16.6859 92.272Z" fill="#FF9E12"/>
<path d="M74.1089 139.035C73.3443 137.613 72.0445 136.349 69.9035 135.875C62.1044 143.775 63.6337 154.597 72.3503 153.728C72.4268 153.728 72.5032 153.728 72.6562 153.649C75.1029 147.25 75.7147 141.8 74.1089 139.035Z" fill="#FF9E12"/>
<path d="M361.549 16.6387C361.549 16.6387 334.231 -14.4095 322.368 -9.46682C310.505 -4.52418 319.213 13.7844 319.213 13.7844C286.514 -23.0417 280.088 15.4552 280.088 15.4552C264.422 2.92458 250.702 18.9359 257.058 50.1233C257.058 50.1233 227.836 45.8768 229.839 78.7349C231.843 111.593 241.214 165.614 289.705 173.341C338.196 181.068 365.604 159.279 365.604 159.279L361.549 16.6387Z" fill="#F87A26"/>
<path d="M291.464 55.5534C294.903 54.37 299.762 70.1725 296.463 71.704C292.602 73.3748 287.674 56.8761 291.464 55.5534Z" fill="#FACE24"/>
<path d="M303.133 21.9292C306.433 20.3281 313.328 35.3649 310.168 37.2444C306.656 39.4721 299.623 23.6696 303.133 21.9292Z" fill="#FACE24"/>
<path d="M286.504 26.3152C290.715 25.0622 295.844 44.2758 291.703 45.8769C287.07 47.8262 281.943 27.7075 286.504 26.3152Z" fill="#FACE24"/>
<path d="M278.532 43.092C283.374 41.6301 288.841 64.951 284.068 66.9002C278.734 69.0583 273.269 44.6932 278.532 43.092Z" fill="#FACE24"/>
<path d="M306.382 60.2174C300.838 62.0274 295.423 44.4149 297.741 43.1618C300.128 41.9087 303.679 49.984 303.679 49.984C303.679 49.984 302.792 41.9088 305.667 41.9088C308.541 41.9088 309.47 59.2428 306.382 60.2174Z" fill="#FACE24"/>
<path d="M259.59 93.6326C273.629 87.8546 278.148 100.455 278.148 100.455C278.148 100.455 277.366 80.6147 283.822 78.7351C295.61 75.324 305.334 105.606 305.334 105.606C305.334 105.606 296.502 81.8677 307.336 69.4763C318.17 57.0849 333.258 75.324 333.258 75.324C333.258 75.324 323.568 57.3634 321.734 37.8017C319.9 18.24 335.268 13.5062 366.024 43.7886L365.674 159.279" fill="#F87A26"/>
<path d="M278.148 100.455C278.148 100.455 277.366 80.6146 283.822 78.735C295.61 75.3239 305.334 105.606 305.334 105.606C314.262 143.616 284.199 139.369 278.148 100.455Z" fill="#FF9E12"/>
<path d="M294.462 84.0255C291.319 80.1271 287.681 77.6209 283.822 78.7348C281.366 79.4309 280.024 82.7028 279.171 86.462C279.378 110.897 298.05 103.239 294.462 84.0255Z" fill="#FEAD14"/>
<path d="M305.264 105.676C305.264 105.676 296.432 81.9372 307.266 69.5458C318.1 57.1544 333.188 75.3935 333.188 75.3935C342.052 88.4114 347.809 109.017 341.183 120.852C336.953 128.509 313.952 130.389 305.264 105.676Z" fill="#FF9E12"/>
<path d="M265.303 36.1308C272.593 36.3397 278.667 21.651 273.999 11.905C268.187 9.88614 263.062 11.9746 259.681 17.4045C257.916 21.3029 256.714 24.8533 256.643 25.1317C256.643 25.1317 256.643 25.1317 256.642 25.2014C256.693 31.6755 260.676 35.9916 265.303 36.1308Z" fill="#FF9E12"/>
<path d="M258.53 89.4483C262.773 103.365 276.425 104.667 282.014 100.823C274.535 99.1184 274.185 92.3195 275.5 87.7178C277.255 81.7349 282.083 74.9628 279.718 66.335C275.575 51.0073 257.972 49.5743 253.841 42.3301C257.173 43.0414 261.168 43.7515 266.713 47.8104C264.351 40.4967 259.216 38.2214 252.192 33.2248C245.167 28.2282 244.346 22.491 238.777 13.5736C233.209 4.65626 219.128 4.99508 214.548 14.3226C214.548 14.3226 223.784 21.3526 222.695 34.3027C221.545 47.2709 224.653 50.9424 232.824 57.9623C242.957 66.6303 238.9 78.7599 238.9 78.7599" fill="#9E5561"/>
<path d="M258.53 89.4483C262.773 103.365 276.425 104.667 282.014 100.823C274.535 99.1184 274.185 92.3195 275.5 87.7178C277.255 81.7349 282.083 74.9628 279.718 66.335C275.575 51.0073 257.972 49.5743 253.841 42.3301C257.173 43.0414 261.168 43.7515 266.713 47.8104C264.351 40.4967 259.216 38.2214 252.192 33.2248C245.167 28.2282 244.346 22.491 238.777 13.5736C233.209 4.65626 219.128 4.99508 214.548 14.3226C214.548 14.3226 223.784 21.3526 222.695 34.3027C221.545 47.2709 224.653 50.9424 232.824 57.9623C242.957 66.6303 238.9 78.7599 238.9 78.7599" stroke="#9E5561" stroke-miterlimit="10"/>
<path d="M222.774 34.3444C221.624 47.3126 224.732 50.984 232.904 58.004C237.842 62.2448 239.403 67.3657 239.71 71.416C243.831 69.0637 246.233 64.3334 242.256 55.2022C237.888 45.0047 242.936 38.2986 239.615 29.3651C236.65 21.3773 227.527 18.1929 219.826 20.7626C221.76 24.0625 223.278 28.6048 222.774 34.3444Z" fill="#893A45"/>
<path d="M222.601 20.84C223.711 19.4514 222.163 16.3992 219.142 14.0227C216.122 11.6462 212.773 10.8453 211.663 12.2339C210.553 13.6224 212.101 16.6746 215.122 19.0511C218.142 21.4277 221.491 22.2286 222.601 20.84Z" fill="#FACE24"/>
<path d="M219.58 59.9575C217.964 54.6558 229.714 45.1527 224.149 26.898C220.989 16.5355 209.445 9.53978 196.387 13.4513C189.281 15.58 185.893 19.6851 185.893 19.6851C185.893 19.6851 181.872 17.7995 174.705 19.9463C168.086 21.9294 163.922 27.1873 164.317 32.3947C164.693 37.5419 166.301 38.9014 167.698 41.31C168.576 42.8878 166.646 46.5563 166.661 50.2996C166.684 55.1581 171.189 61.2382 180.643 57.6828L187.067 54.8381" fill="#9E5561"/>
<path d="M219.58 59.9575C217.964 54.6558 229.714 45.1527 224.149 26.898C220.989 16.5355 209.445 9.53978 196.387 13.4513C189.281 15.58 185.893 19.6851 185.893 19.6851C185.893 19.6851 181.872 17.7995 174.705 19.9463C168.086 21.9294 163.922 27.1873 164.317 32.3947C164.693 37.5419 166.301 38.9014 167.698 41.31C168.576 42.8878 166.646 46.5563 166.661 50.2996C166.684 55.1581 171.189 61.2382 180.643 57.6828L187.067 54.8381" stroke="#9E5561" stroke-miterlimit="10"/>
<path d="M173.369 44.4768C165.502 48.6744 168.04 61.1296 178.173 61.9734C188.306 62.8171 182.04 43.7861 182.04 43.7861L173.369 44.4768Z" fill="#893A45"/>
<path d="M189.039 37.6124C197.738 22.4484 215.932 24.2964 211.318 42.6418C206.704 60.9872 188.737 46.1847 188.737 46.1847L189.039 37.6124Z" fill="#893A45"/>
<path d="M200.956 44.9574C199.122 43.074 196.763 37.0744 196.053 32.3557C197.073 37.4415 204.981 45.987 207.395 46.5131C209.809 47.0392 207.87 41.7682 211.393 40.713C214.794 39.6942 216.33 41.4697 217.23 44.4217C218.056 47.1328 216.086 52.1939 210.899 53.2219C210.899 53.2219 214.353 59.5511 219.598 60.0179C219.598 60.0179 223.632 69.9869 227.692 72.65C227.692 72.65 230.649 79.5225 226.805 89.0898C222.442 99.9962 211.988 99.8403 211.742 95.7718C211.305 90.6428 199.18 74.353 198.361 72.1C196.965 73.1755 195.314 74.0646 193.353 74.5865C183.659 77.3588 178.814 60.5977 173.369 44.4766C173.369 44.4766 185.819 40.747 185.626 24.8938C188.558 36.9023 198.183 44.3415 200.956 44.9574Z" fill="#F6BFB3"/>
<path d="M184.086 61.5828C187.001 60.7095 183.664 58.0271 182.44 59.4458C181.216 60.8646 182.567 62.0376 184.086 61.5828Z" fill="#F0A895"/>
<path d="M189.796 68.3534C190.433 68.1625 190.793 67.4952 190.6 66.863C190.408 66.2308 189.735 65.8731 189.098 66.064C188.46 66.2549 188.1 66.9222 188.293 67.5544C188.485 68.1866 189.158 68.5443 189.796 68.3534Z" fill="#F0A895"/>
<path d="M189.205 51.6329C189.726 51.428 189.918 50.6855 189.633 49.9747C189.349 49.2638 188.696 48.8536 188.175 49.0586C187.654 49.2635 187.462 50.0059 187.746 50.7168C188.031 51.4276 188.684 51.8378 189.205 51.6329Z" fill="black"/>
<path d="M185.14 44.172C185.194 43.6957 185.437 43.6229 185.643 43.4297C185.867 43.2966 186.153 43.1454 186.396 43.0726C186.924 42.8487 187.428 42.7634 188.011 42.7201C188.595 42.6769 189.136 42.7121 189.653 42.8859C189.932 42.9337 190.17 43.0598 190.425 43.2462C190.663 43.3724 190.979 43.5406 190.925 44.0169L190.883 44.0954C190.416 44.3011 190.3 44.1386 190.038 44.1511C189.82 44.0852 189.558 44.0977 189.358 44.0921C188.877 44.0387 188.476 44.0273 188.014 44.0342C187.553 44.0411 187.109 44.1082 186.605 44.1935C186.362 44.2663 186.161 44.2606 185.918 44.3334C185.657 44.3459 185.512 44.521 185.098 44.2504L185.14 44.172Z" fill="#893A45"/>
<path d="M179.295 54.1415C179.816 53.9366 180.008 53.1942 179.724 52.4833C179.44 51.7724 178.787 51.3623 178.265 51.5672C177.744 51.7721 177.552 52.5145 177.837 53.2254C178.121 53.9363 178.774 54.3465 179.295 54.1415Z" fill="black"/>
<path d="M184.985 64.5349C185.21 64.4019 185.252 64.3235 185.435 64.2689C185.556 64.2325 185.677 64.1961 185.817 64.22C186.06 64.1472 186.303 64.0744 186.546 64.0017C187.032 63.8561 187.579 63.6924 188.046 63.4866C188.514 63.2808 188.981 63.075 189.449 62.8692C189.673 62.7362 189.916 62.6634 190.122 62.4701C190.347 62.3371 190.492 62.1621 190.972 62.2154L191.052 62.2575C191.199 62.7395 190.932 62.9509 190.725 63.1442C190.538 63.3977 190.331 63.591 190.064 63.8024C189.591 64.2072 189.002 64.4493 188.474 64.6733C187.946 64.8973 187.32 65.019 186.755 65.1225C186.433 65.1532 186.172 65.1657 185.832 65.1362C185.692 65.1123 185.491 65.1067 185.351 65.0828C185.175 64.9385 185.017 64.8544 184.985 64.5349Z" fill="#F85314"/>
<path d="M172.288 50.0603C172.154 49.8375 172.178 49.6988 172.141 49.5783C172.165 49.4397 172.268 49.343 172.292 49.2043C172.419 48.969 172.546 48.7337 172.752 48.5404C173.086 48.1119 173.516 47.7856 173.965 47.5195C174.415 47.2535 174.864 46.9875 175.35 46.8419C175.593 46.7691 175.835 46.6964 176.097 46.6838C176.358 46.6713 176.643 46.5201 176.954 46.8872L176.973 46.9475C176.779 47.3999 176.578 47.3943 176.415 47.5091L175.783 47.8297C175.395 48.0776 174.988 48.2652 174.6 48.513C174.211 48.7608 173.884 48.9905 173.514 49.2986C173.35 49.4134 173.204 49.5885 172.98 49.7215C172.895 49.8784 172.829 50.0955 172.288 50.0603Z" fill="#893A45"/>
<path d="M202.784 66.1724C201.664 68.1516 200.211 70.5594 198.282 72.0578C198.673 73.124 201.49 77.1456 204.411 81.7277C211.021 72.3182 204.37 63.3304 202.784 66.1724Z" fill="#F0A895"/>
<path d="M211.867 48.7892C212.02 46.9021 212.324 43.984 212.749 43.8567C213.113 43.7475 214.084 45.6265 213.426 47.5988C212.792 49.4325 211.7 50.417 211.867 48.7892Z" fill="#F0A895"/>
<path d="M122.601 172.553C131.31 169.769 156.178 173.353 181.117 178.226L186.328 169.664L240.262 165.488C240.262 165.488 258.065 204.745 248.307 229.768C246.873 233.458 244.04 235.789 239.178 235.894C239.178 235.894 238.408 235.894 238.373 235.894C238.373 235.894 206.265 235.859 195.842 235.859C169.015 235.859 139.075 217.518 135.227 216.752C128.897 215.499 126.343 228.098 120.012 241.358C113.682 254.618 60.4123 300 60.4123 300C60.4123 300 52.2278 300.07 48.8351 298.817C45.1975 297.46 43.8684 295.685 43.8684 295.685C43.8684 295.685 102.944 178.852 122.601 172.553Z" fill="#492C30"/>
<path d="M202.636 77.2714C202.636 77.2714 191.778 78.8921 181.519 91.1577C171.261 103.423 157.866 159.649 157.866 159.649C157.866 159.649 169.688 161.772 175.145 156.343C180.601 150.914 194.137 105.949 194.137 105.949L202.636 77.2714Z" fill="url(#paint0_linear)"/>
<path d="M180.277 125.952C181.081 179.757 180.486 168.516 186.397 173.632C187.832 174.85 191.819 175.581 197.1 175.929C213.679 177.008 242.85 174.293 243.934 171.265C247.746 160.72 245.053 157.448 248.236 141.265C248.586 139.56 248.971 137.68 249.46 135.662C252.119 124.56 254.707 120.801 245.263 102.947C236.694 86.799 227.81 73.6783 227.005 74.1656C204.41 87.495 202.592 76.2885 202.592 76.2885C202.592 76.2885 179.892 99.6759 180.277 125.952Z" fill="#F0EEE7"/>
<path d="M197.136 175.928C213.715 177.007 242.886 174.293 243.97 171.265C247.782 160.72 245.089 157.448 248.272 141.265L240.297 118.852C240.297 118.852 241.626 143.806 234.211 150.383C226.831 156.961 203.922 163.051 200.319 168.55C198.605 171.16 197.451 173.806 197.136 175.928Z" fill="#DFDCCF"/>
<path d="M216.128 165.418C216.128 165.418 199.759 161.799 197.136 163.226C194.512 164.687 188.042 169.942 187.237 171.752C186.433 173.597 193.113 170.36 195.282 169.768C196.681 169.386 200.388 170.673 202.242 171.3C209.972 173.875 214.694 172.553 214.694 172.553L216.128 165.418Z" fill="#F6BFB3"/>
<path d="M227.076 74.1656C227.076 74.1656 249.041 75.5229 256.666 86.0681C267.369 100.929 288.6 164.235 276.428 172.692C262.717 182.193 214.03 175.163 214.03 175.163C214.03 175.163 212.421 167.646 214.659 163.991C216.898 160.337 253.553 154.455 255.232 152.785C256.911 151.114 234.106 120.001 234.106 114.954C234.106 109.908 227.076 74.1656 227.076 74.1656Z" fill="#F0EEE7"/>
<path d="M196.331 167.785C196.331 167.785 192.904 172.17 191.784 172.727C190.665 173.249 189.931 173.109 189.931 173.109L192.239 168.968L196.331 167.785Z" fill="#F6BFB3"/>
<path d="M197.136 163.26L187.167 168.063C187.167 168.063 187.587 168.759 188.811 168.69C190.036 168.62 193.148 167.506 193.148 167.506L197.136 163.26Z" fill="#F6BFB3"/>
<path d="M194.22 181.053H115.382L91.6333 122.375H170.366L194.22 181.053Z" fill="#FEAD14"/>
<path d="M114.438 178.756H218.563V181.053H115.382L114.438 178.756Z" fill="white"/>
<path d="M135.285 151.714C134.69 149.661 135.879 147.99 137.978 147.99C140.042 147.99 142.21 149.661 142.805 151.714C143.399 153.767 142.21 155.438 140.112 155.438C138.013 155.438 135.879 153.767 135.285 151.714Z" fill="white"/>
</g>
</g>
<defs>
<linearGradient id="paint0_linear" x1="180.251" y1="77.2714" x2="180.251" y2="160.058" gradientUnits="userSpaceOnUse">
<stop stop-color="#F0EEE7"/>
<stop offset="0.979167" stop-color="#DFDCCF"/>
<stop offset="1" stop-color="#DFDCCF"/>
</linearGradient>
</defs>
</svg>
