<svg width="1920" height="540" viewBox="0 0 1920 540" fill="none" xmlns="http://www.w3.org/2000/svg">
<path d="M0 0C0 0 0 540 375 540C515.03 540 743.426 470 960 470C1149.71 470 1404.49 540 1545 540C1920 540 1920 0 1920 0H0Z" fill="white"/>
<path d="M0 9.99999C0 9.99999 0 530 375 530C515.03 530 743.426 462.593 960 462.593C1149.71 462.593 1404.49 530 1545 530C1920 530 1920 9.99999 1920 9.99999" stroke="#EFEFEF"/>
<path d="M0 -1.19209e-05C0 -1.19209e-05 0 520 375 520C515.03 520 743.426 452.593 960 452.593C1149.71 452.593 1404.49 520 1545 520C1920 520 1920 -1.19209e-05 1920 -1.19209e-05" stroke="#EFEFEF"/>
</svg>
