<svg xmlns="http://www.w3.org/2000/svg" width="205" height="280" fill="none" xmlns:v="https://vecta.io/nano"><path d="M10.186 138.39c2.758 1.87 4.877 7.004 6.01 9.738.197.432.345.816.493 1.104l.05.095c3.054 6.956 7.192 16.454 16.5 24.034 4.876 3.98 10.837 10.457 16.55 16.693l4.236 4.75c6.404 7.292 15.122 17.222 23.545 22.115 4.63 8.778 13.447 17.99 24.924 25.856 10.984 7.53 22.46 12.376 26.648 11.225.838-.24 1.38-.672 1.675-1.295 1.823 1.967 3.89 3.79 6.354 5.18 9.95 5.708 36.993 14.055 45.86 15.35 3.054.432 6.847 1.823 10.886 3.262 3.694 1.39 7.487 2.734 10.984 3.502v-1.487c-3.3-.768-6.945-2.063-10.49-3.3-4.138-1.487-7.98-2.878-11.23-3.358-8.768-1.247-35.515-9.498-45.317-15.16-3.547-2.014-6.354-5.037-8.522-8.01 2.414 2.543 5.42 4.94 9.064 6.524 1.23.528 2.71 1.152 4.433 1.63l13.053 4.03c7.438 2.35 15.073 4.75 20.688 6.188 2.76.72 5.222 1.295 7.093 1.63 3.35.624 7.094 2.11 10.64 3.55.985.384 1.92.815 2.857 1.2 2.66 1.15 5.172 2.207 7.733 2.974v-1.535c-2.315-.72-4.68-1.68-7.093-2.734l-2.906-1.2c-3.596-1.487-7.438-2.975-10.935-3.646-1.872-.336-4.285-.912-6.995-1.63-5.566-1.44-13.2-3.838-20.59-6.188l-13.103-4.03a34.92 34.92 0 0 1-4.285-1.583c-3.694-1.583-6.748-4.173-9.063-6.764 2.6 2.16 5.9 4.222 9.753 5.325 1.23.336 2.807.815 4.482 1.055 7.586 1.104 16.945 3.982 24.48 6.284 3.25 1.056 6.305 1.967 8.817 2.64l6.945 1.775c3.695.863 7.3 2.398 10.344 3.79 1.33.624 2.61 1.248 3.843 1.92 2.02 1.008 4.088 2.063 6.304 2.926v-1.583c-1.92-.767-3.694-1.68-5.566-2.638l-3.89-1.92c-3.103-1.44-6.798-3.022-10.64-3.885l-6.896-1.775c-2.463-.672-5.516-1.583-8.767-2.59-7.586-2.302-16.994-5.228-24.68-6.332-1.576-.24-3.004-.623-4.236-1.007-3.694-1.056-6.846-3.07-9.36-5.18 2.857 1.68 6.305 3.214 10.246 3.8 1.38.192 2.857.43 4.482.43 9.113.096 19.408 3.406 26.944 5.805l5.91 1.823 3.695 1.007c1.132.336 2.216.624 3.103.864 3.152.91 6.255 2.158 9.95 4.077a67.66 67.66 0 0 1 4.187 2.399 45.5 45.5 0 0 0 5.516 3.118v-1.63c-1.674-.864-3.25-1.775-4.728-2.687-1.33-.815-2.76-1.68-4.286-2.494-3.792-1.967-6.994-3.262-10.344-4.222l-3.103-.863c-1.133-.288-2.364-.672-3.694-1.007-1.675-.48-3.596-1.104-5.862-1.823-7.635-2.447-18.077-5.757-27.387-5.853-1.478 0-2.956-.24-4.236-.43-3.645-.528-6.847-1.92-9.556-3.502 3.054 1.2 6.7 2.1 10.6 2.158 1.43.048 2.906.048 4.433-.143 10.197-1.248 20.787 2.398 27.782 4.797 1.773.623 3.35 1.15 4.63 1.535l6.65 2.014a43.38 43.38 0 0 1 9.753 4.366c1.527.91 2.807 1.823 4.186 2.878 1.626 1.103 3.202 2.255 5.172 3.358v-1.727c-1.576-.96-2.906-1.92-4.186-2.878-1.33-1.008-2.76-2.015-4.335-2.927a47.56 47.56 0 0 0-10.098-4.509l-6.7-2.015c-1.28-.383-2.808-.91-4.58-1.487-7.093-2.398-17.88-6.092-28.42-4.845-1.43.192-2.907.144-4.237.144-3.448-.048-6.65-.815-9.408-1.823 3.202.624 6.847.912 10.69.48 1.232-.144 2.808-.336 4.433-.767 11.083-2.735 21.772 1.295 28.176 3.693a72.5 72.5 0 0 0 3.842 1.391c2.512.768 4.68 1.44 6.502 2.11 3.743 1.343 6.797 2.782 9.457 4.605 1.527 1.008 2.76 2.11 4.138 3.262 1.33 1.152 2.758 2.4 4.53 3.646.05.048.148.096.197.144v-1.823c-1.428-1.055-2.6-2.063-3.743-3.07-1.38-1.2-2.66-2.303-4.236-3.358-2.808-1.87-5.91-3.406-9.802-4.797-1.823-.672-4.04-1.343-6.6-2.11-1.034-.287-2.315-.767-3.744-1.343-6.55-2.446-17.535-6.572-29.062-3.742-1.576.384-3.103.576-4.236.72-3.103.336-6.108.192-8.768-.192 4.532.048 9.704-.67 14.68-2.494 11.23-4.174 21.082-.48 27.338 2.1 1.38.624 2.61 1.104 3.497 1.44.05.048.148.048.197.048s.05 0 .1.048c.148.048.345.096.493.144 12.954 4.222 15.713 7.004 19.555 10.9a74.92 74.92 0 0 0 3.94 3.741c.1.096.247.24.394.336v-1.967c-1.28-1.15-2.315-2.206-3.3-3.214-3.89-3.933-6.945-7.05-20.245-11.225l-.443-.144c-.74-.24-1.675-.623-2.66-1.055-.492-.24-1.084-.432-1.675-.672-7.782-3.55-19.062-10.65-22.363-19.092-1.576-3.98-1.182-7.915 1.035-11.753 4.088-6.955 3.793-12.712 3.448-18.276-.345-5.71-.64-11.56 3.645-18.997 1.33-2.35 2.955-4.557 4.482-6.668 2.266-3.166 4.483-6.236 5.862-9.594-.887 6.093-2.66 11.225-6.157 18.42-3.448 7.004-3.645 12.52-3.547 17.125v.624c.1 4.893.197 9.498-3.054 15.207-2.167 3.74-2.56 7.675-1.133 11.657 3.547 10.12 18.03 17.893 23.3 20.003 10.69 4.318 14.137 7.388 18.176 10.937 1.38 1.2 2.808 2.495 4.63 3.886v-1.87l-3.595-3.07c-4.138-3.646-7.684-6.764-18.62-11.225-5.122-2.063-19.062-9.546-22.46-19.188-1.28-3.55-.887-7.1 1.034-10.458 3.498-6.044 3.4-11.08 3.25-15.974v-.623c-.098-5.66.394-10.4 3.4-16.454 3.35-6.764 5.074-11.753 6.06-17.366.05.912.148 1.775.197 2.64.443 5.42.788 10.12-2.118 16.98-2.118 4.99-3.104 9.45-3.202 14.87v.768c-.1 4.173-.148 8.155-2.857 13-1.872 3.3-2.266 6.763-1.182 10.313 2.955 9.738 15.96 16.886 18.57 18.23 7.93 4.173 11.822 7.244 15.96 10.506 1.724 1.343 3.448 2.734 5.566 4.22v-1.823l-4.63-3.55c-4.187-3.3-8.127-6.428-16.304-10.65-1.527-.768-14.974-8.01-17.83-17.365-.985-3.167-.64-6.237 1.034-9.21 2.906-5.18 2.956-9.498 3.054-13.67v-.768c.1-5.277 1.035-9.546 3.103-14.343 3.104-7.196 2.66-12.28 2.266-17.653v-.24c.345 1.247.788 2.398 1.182 3.55 1.724 4.94 3.35 9.642.7 16.598-1.675 4.46-2.56 8.346-2.906 12.664l-.05.863c-.247 3.358-.493 6.812-2.66 10.842-5.714 10.553 5.418 20.387 12.6 25.328 4.04 2.782 7.142 5.133 10.147 7.387 3.35 2.495 6.502 4.845 10.294 7.34v-1.775c-3.398-2.255-6.304-4.46-9.358-6.716l-10.246-7.435c-6.748-4.653-17.29-13.912-12.117-23.458 2.315-4.27 2.56-7.915 2.807-11.417l.05-.863c.344-4.174 1.182-7.915 2.807-12.233 2.808-7.483 1.035-12.616-.69-17.605 0-.048-.05-.144-.05-.192l1.478 2.59c3.005 5.084 5.812 9.882 3.35 17.51-.936 2.878-1.97 6.332-2.562 10.41l-.148.912c-.394 2.686-.788 5.516-2.413 8.682-4.384 8.54 2.315 17.94 7.832 22.163 2.315 1.727 4.482 3.502 6.55 5.23 4.138 3.453 8.078 6.668 12.708 9.546v-1.727c-4.236-2.687-7.88-5.71-11.723-8.827l-6.6-5.277c-3.547-2.734-11.87-11.704-7.438-20.387 1.724-3.406 2.167-6.332 2.56-9.162l.148-.912c.59-3.98 1.625-7.34 2.512-10.17 2.414-7.388.148-12.425-2.512-17.078.197.24.345.48.542.672 4.236 5.276 8.226 10.265 6.01 18.804l-.886 3.118c-.444 1.487-.936 3.166-1.38 4.99-.098.336-.147.624-.246.96-.542 2.063-1.084 4.222-2.167 6.62-2.463 5.373-1.43 11.85 2.955 18.805 3.103 4.893 8.916 9.642 18.176 14.87v-1.68c-5.96-3.406-13.3-8.203-16.895-13.96-4.187-6.62-5.172-12.52-2.857-17.46 1.133-2.542 1.724-4.845 2.266-6.86.098-.336.148-.67.246-.96l1.38-4.99.887-3.118c1.675-6.38.05-10.985-2.512-15.015 4.088 4.605 7.3 9.546 6.55 17.557-.098.816-.788 3.118-1.92 5.71a68.8 68.8 0 0 0-1.675 4.029c-2.07 5.18-3.94 11.513-2.463 17.078v.048c.05.144.1.336.148.48.05.096.05.192.1.288s.05.144.098.24c.05.144.1.288.197.432v.048c1.28 2.734 3.94 5.564 8.03 8.49 2.66 1.918 5.566 3.645 8.423 5.132v-1.727c-10.245-5.468-14.087-9.88-15.32-12.952 0-.048-.05-.095-.05-.143-.05-.096-.05-.192-.1-.288l-.147-.432c-1.774-6.62 1.724-14.775 4.088-20.148 1.23-2.878 1.92-5.228 2.02-6.14.985-10.313-4.335-15.974-9.507-21.49-2.61-2.782-5.074-5.372-6.748-8.586-.345-.624-.64-1.296-.986-2.015-.985-2.207-1.92-4.845-2.955-7.77-.148-.336-.246-.72-.394-1.104 0-.048 0-.048-.05-.096-.1-.287-.197-.623-.345-.91-.1-.24-.148-.48-.246-.72-.05-.095-.1-.19-.1-.335-.1-.336-.246-.672-.345-.96v-.048c-.05-.144-.098-.24-.148-.383-3.694-10.026-9.21-22.595-20.786-33.388-2.956-2.782-6.354-5.47-10.197-7.915-4.925-3.166-29.505-20.004-28.52-39.767.345-7.436 4.286-14.44 11.674-20.915l.197-.144c.59-.48 1.183-.91 1.724-1.343-3.497 3.886-5.86 8.107-7.142 12.712-2.463 8.827-.59 18.804 5.418 28.878 4.483 7.53 11.477 13.48 16.55 17.126l.59.432 5.96 4.27c9.408 6.524 15.9 15.11 20.54 21.827 2.56 3.74 4.383 6.812 5.812 9.594 2.167 4.365 3.448 8.778 4.532 12.712v.048c.985 3.406 1.92 6.668 3.103 9.2.197.384.394.816.64 1.2 1.576 2.83 3.892 5.324 6.157 7.627l.838.863c3.694 3.742 7.487 7.676 8.866 12.904.542 2.063.74 4.462.59 7.1-.05 1.007-.64 3.262-1.527 5.71l-.148.383c-1.822 4.99-4.285 11.8-4.334 17.653 0 .672.05 1.296.098 1.92 0 .192.05.432.05.624.394 5.756 5.37 11.08 10.64 15.11v-1.87c-4.68-3.8-8.817-8.443-9.112-13.336 0-.192-.05-.432-.05-.624-.05-.575-.098-1.2-.098-1.775.098-5.612 2.512-12.28 4.285-17.173l.148-.384c.936-2.6 1.576-4.94 1.625-6.092.148-2.782-.098-5.325-.64-7.53-1.478-5.613-5.418-9.642-9.21-13.528l-.837-.864c-2.168-2.254-4.434-4.653-5.91-7.34l-.59-1.15c-1.183-2.447-2.07-5.613-3.054-8.97v-.048c-1.133-3.98-2.414-8.54-4.63-13-1.428-2.878-3.3-5.996-5.9-9.786-4.68-6.86-11.28-15.542-20.886-22.2-1.822-1.247-3.842-2.686-5.96-4.22l-.59-.432c-4.975-3.598-11.772-9.354-16.107-16.694-4.04-6.812-8.226-17.126-5.27-27.775 1.577-5.757 5.074-10.985 10.394-15.6-3.498 4.557-5.517 9.93-6 16.07-.69 8.73 1.773 18.565 7.192 28.446 4.187 7.627 11.23 13.336 16.403 16.8 2.364 1.583 4.63 3.262 6.403 4.605 7.832 5.853 13.497 13.672 17.634 19.332l2.02 2.735.246.287c2.266 3.023 4.384 5.853 6 8.78 2.216 4.03 3.152 8.443 3.99 12.376l.05.24c.837 3.886 1.527 6.812 2.66 9.21.197.383.394.767.64 1.2 1.576 2.638 3.94 5.085 6.256 7.387l.738.72c3.202 3.166 6.502 6.38 8.276 10.36v-3.166c-1.92-3.07-4.58-5.66-7.192-8.25l-.74-.72c-2.266-2.207-4.53-4.557-6.01-7.052a8.12 8.12 0 0 1-.591-1.103c-1.084-2.255-1.724-5.085-2.562-8.875l-.05-.24c-.887-4.03-1.822-8.54-4.138-12.76-1.674-3.022-3.792-5.9-6.107-8.97l-.247-.288c-.64-.815-1.28-1.727-2.02-2.734-4.187-5.757-9.95-13.672-17.98-19.668-1.823-1.343-4.09-3.022-6.502-4.653-5.025-3.358-11.87-8.922-15.9-16.3-4-7.292-14.63-30.51 1.477-46.1-2.6 4.46-3.842 10.218-3.645 17.03.296 9.258 3.3 19.956 8.423 30.125 3.005 5.996 8.817 11.85 16.255 16.454 2.414 1.487 4.63 3.214 6.256 4.557 6.354 5.133 11.33 12.09 14.974 17.222 1.43 2.014 2.71 3.79 3.793 5.132l1.28 1.536c2.02 2.398 3.89 4.653 5.32 7.05 2.265 3.742 2.906 8.01 3.497 12.185l.05.24c.59 3.885 1.084 6.81 2.217 9.2a29.82 29.82 0 0 0 .64 1.199c1.527 2.447 3.89 4.75 6.354 7.1l.64.575c.788.72 1.576 1.487 2.364 2.255v-2.063c-.443-.43-.887-.815-1.33-1.247l-.64-.576c-2.414-2.254-4.68-4.51-6.108-6.81-.247-.384-.444-.72-.59-1.056-1.084-2.206-1.527-5.037-2.118-8.778l-.05-.24c-.59-4.078-1.28-8.683-3.694-12.712-1.478-2.495-3.4-4.797-5.468-7.244l-1.28-1.535c-1.084-1.295-2.315-3.022-3.744-5.037-3.694-5.18-8.718-12.28-15.27-17.51-1.674-1.343-3.94-3.118-6.403-4.653-7.192-4.46-12.807-10.122-15.713-15.878-8.226-16.262-12.167-37.37-3.104-48.354-1.182 4.125-1.28 10.122-.246 17.557 1.43 10.266 4.877 21.54 9.655 31.852 2.807 6.044 8.52 11.753 16.107 16.118 1.92 1.103 3.89 2.542 6.108 4.46 5.517 4.797 9.85 11.177 13.35 16.3 1.773 2.64 3.3 4.893 4.58 6.284l1.625 1.727c2.02 2.16 3.94 4.174 5.37 6.332 2.315 3.502 2.66 7.82 3.005 12.04v.192c.246 3.3.542 6.668 1.773 9.2.197.384.394.768.7 1.15.886 1.344 2.07 2.687 3.448 4.03v-2.11c-.838-.91-1.577-1.775-2.168-2.686-.246-.384-.443-.72-.59-1.007-1.133-2.255-1.38-5.517-1.625-8.683v-.192c-.345-4.365-.74-8.875-3.25-12.712-1.478-2.255-3.448-4.317-5.517-6.524l-1.626-1.727c-1.182-1.295-2.71-3.502-4.482-6.092-3.35-4.94-7.93-11.705-13.595-16.598-2.266-1.967-4.384-3.502-6.354-4.605-7.3-4.173-12.807-9.7-15.467-15.446-9.802-21.155-12.216-42.454-8.62-50.225.394 1.44.837 3.502 1.38 6.044 2.364 10.554 6.256 28.207 13.497 45.188 2.6 6.092 8.275 11.705 15.96 15.782 1.92 1.007 3.89 2.446 5.96 4.365 4.827 4.46 8.67 10.554 11.773 15.495 2.167 3.454 3.89 6.14 5.32 7.387 3.3 2.734 5.713 5.23 7.388 7.53 1.084 1.536 1.724 3.3 2.07 5.18v-4.7c-.246-.432-.493-.91-.837-1.343-1.774-2.398-4.237-4.94-7.635-7.77-1.28-1.056-3.005-3.838-5.025-7.052-3.152-4.99-7.043-11.225-12.018-15.782-2.168-2.015-4.237-3.55-6.256-4.605-7.39-3.934-12.807-9.258-15.27-15.063-7.192-16.886-11.083-34.443-13.398-44.948l-1.478-6.332c4.827 2.926 8.768 15.16 13.25 29.166 2.265 7.148 4.876 15.207 7.88 23.074 2.364 6.14 7.98 11.657 15.762 15.447 7.34 3.454 13.3 13.576 17.3 20.243 2.118 3.55 3.645 6.14 4.827 7.1l3.004 2.35v-1.92l-2.068-1.63c-.985-.768-2.61-3.502-4.483-6.668-4.285-7.244-10.196-17.174-17.83-20.915-7.487-3.646-12.807-8.827-15.073-14.63-3.005-7.82-5.566-15.878-7.832-22.978-3.694-11.56-6.847-21.395-10.6-26.67 3.497 3.406 6.01 9.882 8.965 17.51 1.625 4.22 3.35 8.587 5.418 13.096 1.33 2.83 2.414 5.9 3.596 9.162.837 2.35 1.724 4.75 2.71 7.196 1.773 4.365 5.96 10.6 15.9 15.4 7.537 3.598 13.94 14.63 18.226 21.922l3.053 5.037v-2.83l-1.724-2.926c-4.58-7.867-10.885-18.71-18.865-22.498-9.507-4.557-13.497-10.458-15.17-14.583-.986-2.398-1.872-4.797-2.7-7.148-1.182-3.3-2.315-6.38-3.645-9.258-2.07-4.46-3.743-8.78-5.37-13-2.758-7.1-5.123-13.288-8.374-17.077 3.498 2.878 5.813 8.01 8.473 13.96 1.92 4.27 4.088 9.162 7.044 13.72 1.822 2.782 3.103 6.284 4.482 9.93.74 1.967 1.478 3.982 2.364 5.996 2.7 6.332 8.276 11.657 16.058 15.303 6.847 3.262 12.906 12.616 17.437 20.388v-2.927c-4.482-7.435-10.196-15.638-16.796-18.756-7.487-3.502-12.758-8.54-15.32-14.583-.887-2.015-1.626-4.03-2.365-5.948-1.428-3.742-2.758-7.29-4.63-10.218-2.906-4.51-5.024-9.306-6.945-13.528-2.463-5.47-4.73-10.506-8.03-13.72 3.694 2.495 5.96 6.908 8.57 11.993 2.167 4.173 4.63 8.923 8.275 13.096 2.216 2.494 3.497 5.9 5.024 9.882.7 1.87 1.43 3.8 2.315 5.756 2.906 6.476 8.374 11.61 16.206 15.255 5.024 2.255 9.654 7.77 13.693 13.816v-2.64c-3.842-5.468-8.275-10.36-13.004-12.568-7.536-3.502-12.708-8.395-15.466-14.535-.887-1.92-1.577-3.838-2.315-5.66-1.478-3.886-2.907-7.58-5.27-10.314-3.547-4.03-5.862-8.49-8.078-12.808s-4.286-8.3-7.24-11.08c-.1-.096-.246-.192-.345-.288 3.694 2.303 5.96 6.092 8.423 10.218s5.024 8.443 9.3 11.993c2.6 2.16 3.94 5.565 5.467 9.546.7 1.823 1.43 3.742 2.365 5.71 3.054 6.572 8.423 11.56 16.304 15.207 3.4 1.583 6.748 4.653 9.85 8.443v-2.255c-.985-1.103-1.97-2.16-3.004-3.118-2.02-1.87-4.09-3.406-6.207-4.365-7.585-3.502-12.66-8.203-15.614-14.487-.887-1.92-1.626-3.8-2.315-5.613-1.626-4.173-3.005-7.77-5.91-10.122-4.09-3.358-6.6-7.53-8.965-11.61-1.92-3.214-3.744-6.332-6.354-8.73-.444-.432-.936-.863-1.478-1.247 3.94 2.015 6.256 5.373 8.718 9.018 2.66 3.838 5.37 7.82 10.246 10.697 2.955 1.727 4.236 4.99 5.812 9.114.74 1.87 1.478 3.8 2.463 5.804 3.25 6.62 8.62 11.56 16.502 15.16 2.02.91 4.04 2.398 6.058 4.27v-2.015c-1.773-1.535-3.596-2.782-5.418-3.598-7.635-3.454-12.66-8.06-15.763-14.44-.985-1.967-1.724-3.886-2.413-5.708-1.626-4.22-3.054-7.867-6.453-9.834-4.63-2.686-7.24-6.524-9.802-10.266-1.675-2.398-3.3-4.797-5.37-6.764-.64-.624-1.33-1.15-2.07-1.68 3.793 1.775 6.108 4.653 8.472 7.58 2.808 3.502 5.714 7.148 11.23 9.306 3.35 1.295 4.58 4.557 6.206 8.683 2.463 6.332 5.813 15.015 19.162 21.01.74.336 1.477.767 2.265 1.2v-1.727c-.098-.048-.197-.096-.295-.192-.1-.048-.197-.096-.296-.192-.344-.192-.69-.336-1.034-.528-12.807-5.71-15.9-13.72-18.373-20.196-1.232-3.118-2.315-5.948-4.335-7.82-.74-.72-1.625-1.295-2.71-1.727-5.123-2.015-7.93-5.517-10.6-8.874-3.547-4.413-7.143-8.97-16.01-9.834 1.576-.192 3.005-.192 4.236 0 6.256.912 10.295 4.317 14.63 7.915 3.3 2.782 6.748 5.613 11.378 7.53 3.645 1.487 5.22 5.133 7.24 9.786 2.71 6.332 6.108 14.103 16.206 20.627V73.87c-9.113-6.188-12.265-13.48-14.827-19.428-1.478-3.454-2.857-6.572-5.073-8.683-.838-.767-1.774-1.44-2.906-1.87-4.384-1.823-7.734-4.605-10.985-7.29-4.482-3.742-8.72-7.244-15.368-8.25-1.232-.192-2.61-.192-4.09-.048 1.577-.432 3.104-.72 4.384-.67 7.487.192 13.448 3.8 19.802 7.627 3.152 1.87 6.403 3.838 9.802 5.325 4.04 1.727 5.96 5.948 8.472 11.273 2.315 5.23 5.172 11.32 10.738 17.125V66.77c-4.728-5.325-7.3-10.793-9.408-15.446-1.92-4.077-3.497-7.53-6.01-9.882-.936-.863-1.97-1.583-3.202-2.11-3.3-1.44-6.502-3.358-9.605-5.23-6.256-3.742-12.71-7.675-20.6-7.867-1.182-.048-2.512.192-3.89.48 1.576-.672 3.054-1.103 4.384-1.247 9.654-.768 19.604 3.98 28.42 8.203a139.39 139.39 0 0 0 4.828 2.255c5.024 2.303 7.93 7.867 11.624 14.92l3.448 6.428v-3.118l-2.118-4.03c-2.807-5.373-5.172-9.93-8.373-12.952-1.183-1.103-2.463-2.015-3.94-2.686-1.527-.672-3.103-1.44-4.827-2.255-8.522-4.077-19.16-9.2-29.2-8.347-1.084.096-2.266.384-3.497.816 1.478-.767 2.857-1.343 4.137-1.535 10.74-1.92 26.107 2.878 36.944 8.06 4.68 2.207 7.585 7.483 10.885 14.2v-3.358c-2.02-3.934-4.04-7.29-6.55-9.642-1.083-1.055-2.315-1.87-3.645-2.543-5.37-2.542-23.94-10.65-37.88-8.155-.936.192-1.97.528-3.005.96 1.33-.816 2.66-1.44 3.793-1.727 11.625-3.118 31.82 1.2 40.638 5.565 2.56 1.247 4.728 3.454 6.7 6.236v-2.447c-.7-.864-1.43-1.68-2.217-2.4-1.182-1.103-2.413-2.015-3.793-2.686-9.21-4.605-29.554-8.97-41.72-5.71-.788.24-1.675.576-2.56 1.007 1.23-.767 2.364-1.44 3.448-1.823 12.166-4.27 36.253-1.055 44.332 3.118.886.432 1.724 1.007 2.512 1.63V21.63c-.59-.384-1.182-.768-1.823-1.103-8.275-4.317-33.002-7.627-45.514-3.214-.64.24-1.33.528-1.97.91 1.034-.72 2.07-1.343 3.005-1.727 11.526-4.94 36.943-3.646 46.35-.096v-1.535c-10.147-3.55-34.973-4.845-46.942.288-5.222 2.255-12.364 9.834-15.664 13.72-.542-1.727-2.02-3.934-4.286-6.044-.985-.91-2.118-1.823-3.448-2.686-16.5-10.89-43.494-18.47-49.405-18.996-.246 0-.7-.096-1.28-.144C80.822.62 73.335-.29 65.946.092 56.4.62 32.6 10.55 27.18 20.96c-1.823-.288-3.596.048-5.37.96-5.517 2.83-9.507 11.033-11.034 17.893-1.675 7.58-.985 15.447 2.118 23.937-.148.048-.296.144-.443.192C9.25 65.332.778 69.122.827 93.01c0 2.686-.148 5.66-.345 8.78-.887 13-1.823 28.878 9.704 36.6zm119.302 112.875c.148.91-.197 1.2-.788 1.39-3.25.91-13.644-2.974-25.368-11.033-13.15-9.02-22.757-19.764-26.303-29.502-2.167-5.9-3.694-10.554-5.172-15.11l-1.28-4.03-1.92-5.95c-.246-.67-.443-1.39-.7-2.1-1.478-4.558-4.138-8.875-6.945-13.48-5.32-8.73-11.33-18.565-10.935-32.668 0-.528.05-1.007.05-1.535v-.288c.05-.48.05-.96.098-1.39v-.048c.1-1.007.197-1.967.345-2.878 1.33-8.155 4.73-13.816 9.162-20.148.05-.048.1-.096.1-.144.1-.144.246-.336.345-.48.1-.096.148-.24.246-.336.1-.144.197-.288.296-.384.1-.144.246-.336.345-.48.05-.096.148-.192.197-.288.1-.143.246-.335.345-.48.05-.096.148-.192.197-.288.197-.288.394-.576.59-.816 4.73-6.667 10-14.295 15.073-26.19 1.133-2.686 2.512-4.893 4.138-6.668.05-.048.05-.096.1-.144.7-.72 1.428-1.39 2.217-1.967l.05-.048c1.576-1.15 3.35-1.967 5.27-2.35 7.142-1.535 15.368 2.16 21.23 5.804-5.222-2.207-12.02-4.03-18.225-2.063-5.22 1.68-9.3 5.756-12.068 12.185-4.778 11.13-9.704 18.66-14.088 25.28-6.157 9.354-10.984 16.742-11.772 29.166-.7 10.554 2.906 18.71 6.01 25.904 1.38 3.118 2.71 5.853 4 8.49 2.167 4.365 4.187 8.54 5.763 13.48 2.857 8.97 4.876 15.1 8.72 24.608 3.596 8.97 12.51 18.9 24.48 27.152 10 6.908 20.097 11.273 24.087 10.41.7-.144 1.232-.48 1.576-.91.296 0 .394.144.542.336zM69.345 168.42c.7 2.014 1.33 3.933 1.872 5.9 1.084 3.838 1.773 6.716 2.512 9.498 1.034 4.126 2.07 8.06 3.89 14.008 1.92 6.236 4.04 11.465 7.98 19.284 7.536 15.158 30.835 29.406 38.568 29.693.838.048 1.478-.095 1.97-.335.197.335.394.67.64 1.007-.098.192-.296.384-.887.432-6.748.815-34.38-15.11-42.213-32.86-3.645-8.155-5.862-14.055-8.275-21.78-1.724-5.612-3.202-9.498-4.877-14.007l-3.202-8.78c-.394-1.2-.887-2.398-1.28-3.55-2.463-6.668-5.074-13.576-4.187-22.115 1.084-10.937 5.615-18.42 11.378-27.87 3.94-6.476 8.374-13.815 12.708-23.793 7.093-16.3 20.54-13.96 27.978-11.657-6.896-.24-18.472.96-25.22 16.358C84.9 106.49 81.068 113.4 77.62 119.54c-5.615 10.026-10 17.94-11.428 28.11-1.182 7.915.985 14.44 3.153 20.77zm10.443 3.933c.936 2.974 1.823 5.757 2.217 8.683.64 4.365.7 7.243.74 10.074.1 4.22.148 7.867 2.217 15.062 1.182 4.174 3.448 8.49 7.3 13.96 8.03 11.56 24.974 21.635 31.427 21.683.148.287.295.623.443.96-.492.048-1.33 0-2.56-.336-8.08-2.11-24.678-12.952-31.377-24.56-3.89-6.716-6-11.273-7.487-16.3-1.92-6.524-2.414-10.17-3.005-14.39-.394-2.83-.788-5.756-1.626-9.834-.542-2.6-1.38-5.18-2.167-7.675-1.872-5.804-3.793-11.85-2.512-18.852 1.625-9.02 5.96-17.462 11.428-28.11 2.857-5.565 6.108-11.897 9.26-18.996 6.157-13.816 15.418-17.654 21.033-19.333-4.63 3.694-12.314 10.937-18.275 24.082l-6.157 13.24c-5.812 12.376-10.886 23.025-12.955 31.9-1.626 7.004.246 13 2.07 18.756zm44.283 66.44l-.05-.048-.05-.048c0-.048-.05-.048-.05-.096-.05-.047-4.384-4.605-5.812-10.217-1.92-7.723 1.625-14.343 4.728-20.244.936-1.775 1.823-3.502 2.61-5.18 1.626-3.74 2.463-7.387.837-11.033l-.64-1.44c-3.448-7.723-9.95-22.114-5.172-33.58 5.123-12.33 12.807-19.14 17.93-23.65.985-.863 1.92-1.727 2.758-2.494 2.66-2.543 4.09-6.188 4-10.218-.05-2.063-.492-4.22-1.23-6.284 3.004 6.236 2.6 12.328-.05 16.358-.935 1.39-2.167 2.926-3.546 4.75-4 5.085-9.458 12.09-13.743 22.546-.887 2.16-1.478 4.51-1.92 7.148-1.478 9.354 1.97 18.564 4.482 25.28.444 1.152.838 2.255 1.183 3.262 1.034 2.974.54 6.188-1.527 10.458l-.542 1.103c-3.695 7.53-7.537 15.35-5.665 24.37.493 2.447 1.33 4.893 2.02 6.86.394 1.15.788 2.398.985 3.166-.64-.24-1.133-.48-1.527-.768zM84.467 92.532c-4.285 9.93-8.72 17.222-12.6 23.65-5.812 9.594-10.443 17.22-11.576 28.494-.887 8.875 1.773 15.927 4.285 22.738l1.28 3.502 3.202 8.827c1.675 4.51 3.153 8.395 4.877 13.91 2.414 7.77 4.68 13.72 8.325 21.97 4.778 10.84 15.9 19.716 22.068 24.033 8.915 6.188 17.83 10.218 21.722 9.738.74-.096 1.232-.336 1.576-.624.148.192.296.432.444.624 0 .432-.197.72-.838.863-3.054.672-12.462-2.974-22.904-10.17-11.724-8.107-20.492-17.75-23.99-26.48-3.793-9.498-5.812-15.59-8.67-24.513-1.626-5.037-3.694-9.258-5.862-13.672l-4-8.394c-3.054-7.052-6.55-15.015-5.91-25.233.788-12.04 5.517-19.284 11.575-28.446 4.384-6.668 9.408-14.248 14.236-25.52 2.61-5.996 6.354-9.834 11.132-11.37 6.748-2.16 14.383.576 19.555 3.118-7.93-2.11-20.984-3.118-27.93 12.952zM49.1 132.923c0 .143-.05.335-.05.48s-.05.24-.05.384l-.148 1.39c0 .144 0 .24-.05.384-.05.384-.05.767-.098 1.15 0 .144 0 .288-.05.432-.05.48-.05 1.007-.05 1.535-.1 3.166.1 6.14.59 8.923 1.626 9.93 6.305 17.605 10.54 24.56 2.07 3.406 4.04 6.62 5.517 9.882.493 1.104.936 2.16 1.28 3.262l1.773 5.565c-.345-.768-.7-1.535-1.084-2.255l-1.23-2.494-.887-1.823c-1.92-3.982-4.532-8.3-7.783-12.808-5.862-8.203-9.113-13.672-10.492-20.58l-.443-2.4-.493-2.782c-.7-3.262-1.034-6.284-1.084-9.307-.05-2.6.098-4.7.493-6.572.74-3.357-.59-7.243-1.97-11.32-.7-2.014-1.38-4.03-1.822-6.044.936 2.4 2.266 4.75 3.497 7.052 2.217 3.98 4.285 7.77 4.335 11.08v.96l-.148 1.008c0 .048 0 .144-.05.192v.096c-.05-.048-.05 0-.05.048zm-17.486 7.243c-2.364-8.49-3.744-13.91-2.414-18.277.05-.24.148-.48.246-.72.394-1.103.985-2.64 1.872-4.413 1.724-3.406 3.89-6.716 5.714-9.115-1.822 4.126-2.463 8.347-3.054 11.897-.246 1.68-.493 3.262-.837 4.557-.59 2.16-.7 4.605-.295 7.77.295 2.735.985 5.997 2.118 10.458.443 1.775.492 3.3.542 4.893v.767c.197 6.045 2.118 11.034 12.51 22.978 2.07 2.4 4.433 5.373 6.896 8.587l3.448 4.413.936 1.15c-3.4-3.357-6.6-7.1-9.457-10.41-1.724-2.015-3.35-3.886-4.778-5.373-12.6-13.384-13.35-17.75-13.004-22.834.098-2.015.246-3.933-.443-6.332zm24.48 38.52c-2.512-3.214-4.827-6.236-6.945-8.634-10.147-11.657-11.97-16.406-12.167-22.067v-.767c-.05-1.63-.1-3.262-.59-5.23-1.133-4.413-1.773-7.58-2.118-10.266-.345-3.022-.246-5.228.295-7.195.345-1.343.59-2.974.887-4.7.542-3.358 1.182-7.388 2.857-11.273-.59 3.453-.197 7.003.1 10.217.295 3.022.59 5.853.1 8.107-.493 2.063-.64 4.366-.443 7.34s.74 6.14 1.625 9.978c.345 1.44.443 2.734.59 4.03l.148 1.39c.788 6.62 3.596 11.993 11.625 22.067 2.71 3.358 5.812 7.82 9.014 12.808l.148.192c.493.815.985 1.535 1.478 2.302-.936-1.055-1.92-2.302-3.152-3.837l-3.448-4.462zm6.403 5.18l-.148-.192c-3.202-5.037-6.354-9.498-9.113-12.952-7.93-9.978-10.6-14.918-11.33-21.347l-.148-1.39c-.148-1.343-.246-2.686-.64-4.22-.887-3.694-1.38-6.908-1.576-9.786-.197-2.782-.05-4.99.394-6.908.59-2.494.295-5.42-.05-8.587-.295-2.734-.59-5.612-.295-8.442.345 2.974 1.38 5.948 2.315 8.778 1.33 3.886 2.61 7.58 1.92 10.554-.394 2.015-.59 4.22-.542 6.908.05 3.07.443 6.188 1.133 9.546.197.96.345 1.87.493 2.734l.443 2.446c1.428 7.1 4.877 12.905 10.738 21.107 3.202 4.462 5.763 8.683 7.684 12.617l.887 1.823 1.034 2.158c-.197-.336-.394-.623-.64-.96-.837-1.104-1.675-2.447-2.56-3.886zm-12.6-92.727c1.23 2.878.985 5.565-2.66 8.347-4.926 3.742-5.37 8.155-4.236 12.664-.1-.24-.197-.43-.246-.67 0 0 0-.048-.05-.048-.098-.288-.197-.624-.296-.912-1.133-3.55-1.084-6.907 1.724-9.882a11.14 11.14 0 0 1 1.773-1.535c2.512-1.823 3.842-3.742 4.088-5.804.1-.816.05-1.487-.1-2.16zm-3.596-27.15c16.353-15.974 29.11-13.72 39.75-10.362 1.97.624 3.842 1.63 5.665 2.926-1.133-.576-2.266-1.055-3.4-1.39-11.18-3.3-23.496-4.317-37.928 10.89-8.078 8.54-4.04 15.638-.837 21.347.148.288.345.576.493.864-.837-1.343-1.823-2.686-2.808-3.982-4.482-5.996-9.113-12.28-.936-20.29zm-2.364 18.277l-.295-.288c-1.428-1.583-2.857-3.166-4.088-4.797-3.645-4.893-5.27-10.074 1.527-16.262C59.247 44.32 72.35 46.768 84.27 50.7c1.822.624 3.596 1.583 5.27 2.83-.985-.528-1.97-.96-3.005-1.247-11.083-3.502-24.333-5.852-41.278 10.697-7.684 7.435-4.975 13.863-1.33 19.284zm2.956 33.147c-1.28-4.797-1.33-9.306 3.448-13.192 6.354-5.132 3.35-10.41.493-15.494-3.3-5.852-6.7-11.897.64-19.62 13.103-13.815 23.988-14.2 36.352-10.506 2.167.624 4.236 1.727 6.256 3.118-1.33-.672-2.66-1.2-4.04-1.583-4.384-1.247-10.246-2.447-16.55-1.007-6.354 1.487-12.216 5.42-17.98 12.088-6.995 8.155-4.63 14.63-2.512 20.388 1.823 4.99 3.3 8.923-1.478 13.048-4.433 3.934-5.123 8.3-4.63 12.76zm-1.92-1.727c-1.626-4.797-1.773-9.258 3.202-13.048 4.433-3.358 4.532-6.763 3.103-10.12 1.872 3.8 2.463 7.1-1.823 10.553-4.73 3.838-5.32 8.155-4.482 12.616zm3.694 3.406c-.837-4.797-.64-9.306 3.94-13.287 5.517-4.798 3.743-9.595 1.872-14.632-2.07-5.612-4.236-11.465 2.217-18.948C68.803 56.17 79.69 56.794 89.64 59.576c2.364.672 4.63 1.823 6.847 3.3a24 24 0 0 0-4.679-1.775c-9.26-2.398-20.196-2.926-31.13 11.32-5.91 7.723-4.975 13.864-4.138 19.332.74 4.845 1.33 8.635-2.808 12.568-4.187 3.982-5.123 8.347-5.074 12.76zm6.157-11.752c4.73-4.462 4-9.02 3.25-13.864-.788-5.18-1.724-10.985 3.842-18.23C72.35 59.672 82.694 60.2 91.46 62.454c2.61.672 5.172 1.92 7.586 3.502-1.773-.863-3.546-1.535-5.418-1.967-8.078-1.92-18.52-2.35-27.732 11.513-4.778 7.196-5.22 12.952-5.615 18.037-.345 4.557-.64 8.54-4.285 12.328-3.89 4.078-5.22 8.3-5.763 12.664-.295-4.653.296-9.114 4.58-13.19zm2.216 1.583c4-4.174 4.285-8.347 4.68-13.192.394-4.893.837-10.505 5.418-17.365 8.72-13.096 18.57-12.712 26.156-10.89 2.906.672 5.763 2.063 8.423 3.694-2.02-.96-4.138-1.68-6.305-2.16-10.738-2.303-18.718 1.535-24.383 11.753-3.448 6.188-5.123 11.273-6.6 15.782-1.675 5.133-3.054 9.163-6.305 13.048-3.448 4.126-5.37 8.107-6.55 12.377.394-4.654 1.527-8.923 5.467-13.048zm2.266 1.535c3.448-4.126 4.926-8.49 6.55-13.528 1.478-4.413 3.103-9.45 6.502-15.495 5.37-9.7 12.6-13.192 22.708-11.033 3.153.672 6.305 2.063 9.162 3.694-4.827-2.063-10.196-3.3-15.22-2.207-5.665 1.247-9.95 5.277-12.856 12.04-.64 1.535-1.33 2.974-1.97 4.413-4.63 9.786-9.3 16.406-13.546 22.355l-.296.43c-.098.096-.148.24-.246.336-.05.096-.148.192-.197.288-.148.192-.246.384-.394.576-.05.095-.1.143-.148.24-.148.192-.295.432-.443.624-.05.048-.05.096-.098.144-2.315 3.262-4.335 6.38-6.01 9.7 1.23-4.413 3.054-8.443 6.502-12.568zm43.692-43.126c-.05-.048-.1-.144-.197-.192-3.005-3.598-5.91-7.1-8.965-9.978-2.857-2.686-5.812-4.75-9.063-5.852C73 45.425 58.853 42.7 40.086 59.816c-7.586 6.908-5.566 13-1.675 18.18.1.144.197.288.295.384.05.096.1.144.197.24 1.182 1.487 2.463 2.926 3.694 4.27s2.414 2.638 3.4 3.934c1.675 2.16 2.758 4.173 2.56 6.14-.197 1.68-1.33 3.262-3.497 4.845-2.02 1.39-3.842 2.974-5.517 4.653-.394.384-.788.768-1.084 1.104.64-1.343 1.675-3.214 3.4-5.517l.542-.816a4.19 4.19 0 0 0 .296-.48c1.97-3.022 2.364-6.284 1.084-9.882a21.43 21.43 0 0 0-3.349-6.14l-.05-.048-.05-.048c-.05-.048-.1-.144-.148-.192l-.246-.336c-2.66-3.55-5.714-7.627-6.748-12.04-.74-3.118-.936-9.066 5.812-13.432 4.778-3.118 9.802-4.99 14.63-6.812l1.034-.384c9.113-3.454 20.393-3.07 30.885 1.055 3.4 1.343 6.945 3.982 10.787 8.06 2.857 3.022 5.467 6.332 7.93 9.594 1.527 2.015 3.054 3.934 4.58 5.757-.098-.096-.197-.192-.246-.288l-1.33-1.44-1.478-1.583-.788-.91-2.02-2.35zm2.512-.096c-2.512-3.262-5.123-6.62-8.03-9.7-.837-.863-1.626-1.68-2.463-2.446-3.103-2.878-6.01-4.845-8.866-5.996-10.886-4.27-22.51-4.653-32.017-1.055l-1.034.384c-4.926 1.87-10 3.8-14.925 7.004-5.468 3.55-7.832 9.018-6.453 14.967 1.084 4.75 4.236 8.923 6.994 12.568l.296.384s.05.048.05.096c.05.048.1.144.148.192 1.33 1.727 2.414 3.742 3.103 5.756 1.133 3.166.788 5.996-.936 8.635-.1.144-.197.336-.295.48-.148.24-.296.48-.493.72-1.97 2.734-3.3 5.084-4 6.86-.1-1.39.098-3.645 1.034-7.003l.148-.72c.05-.288.1-.528.197-.767.788-2.398 1.478-6.284.197-10.985-.542-2.015-1.478-4.893-3.005-7.148l-.05-.048s-.05-.048-.05-.096c-.05-.096-.1-.192-.148-.24-2.66-4.125-5.517-9.018-5.96-14.487-.394-4.893 1.478-11.513 7.93-14.2 2.956-1.2 6.256-1.967 9.704-2.734 2.463-.576 5.024-1.15 7.536-1.92 7.783-2.398 21.87-2.35 32.707 2.542 3.3 1.487 6.797 4.173 10.393 7.915 3.694 3.838 6.7 8.107 9.3 11.85 1.724 2.398 3.3 4.653 4.827 6.524-1.87-2.207-3.842-4.75-5.86-7.34zm2.315 0c-2.66-3.8-5.714-8.107-9.458-11.993-.74-.768-1.478-1.487-2.217-2.207-2.955-2.782-5.862-4.797-8.62-6.044-11.18-5.085-25.762-5.133-33.79-2.638-2.463.767-4.975 1.343-7.438 1.87-3.547.816-6.847 1.535-9.95 2.83-5.96 2.447-9.408 8.587-8.866 15.686.443 5.804 3.448 10.89 6.206 15.16l.05.048s.05.048.05.096c.05.096.1.192.148.24 1.084 1.68 2.07 3.982 2.808 6.716 1.133 4.365.542 7.915-.197 10.17-.1.336-.148.624-.246.912-.05.192-.1.432-.148.624-.887 3.118-1.182 5.517-1.133 7.29-.788-1.44-1.576-3.885-1.724-7.915 0-.24-.05-.432-.05-.672-.05-.336-.05-.72-.05-1.055.197-3.022.345-7.53-.59-12.04-.74-3.694-1.625-6.38-2.66-8.155l-.05-.048c0-.048-.05-.048-.05-.096l-.148-.288c-2.56-4.653-5.172-10.218-4.975-16.646.197-6.284 3.4-13.672 10.05-14.967 2.118-.384 4.58-.528 7.192-.672 3.596-.192 7.684-.432 11.674-1.44 6.01-1.535 22.806-1.92 34.48 4.078 3.152 1.63 6.6 4.317 9.95 7.77 4.58 4.75 7.832 9.978 10.442 14.15l2.07 3.262c-.788-1.295-1.724-2.638-2.758-4.03zm-79.305 9.2l.05.096c0 .048.05.048.05.096l.148.288c.936 1.63 1.773 4.22 2.512 7.723.887 4.365.74 8.778.59 11.705-.05.432 0 .863.05 1.247 0 .192.05.384.05.576.1 3.262.64 5.613 1.28 7.292-1.478-1.583-3.005-4.126-4.088-8.25-.05-.192-.1-.384-.197-.624-.148-.432-.246-.91-.345-1.343-.197-1.295-.345-3.022-.492-4.94-.197-2.543-.443-5.373-.887-8.25-.493-3.07-1.182-6.86-2.364-9.162l-.05-.048c0-.048-.05-.096-.05-.144-.05-.144-.1-.192-.148-.288-2.315-4.797-4.827-11.273-4.04-18.804.837-7.867 5.32-15.83 12.167-15.734 1.576 0 3.448.24 5.418.432 4.335.48 9.753 1.103 15.073.048 4.138-.816 23.84-1.535 36.303 5.565 3.054 1.727 6.453 4.46 9.507 7.627 5.714 5.852 8.965 11.993 11.33 16.454.05.096.1.144.1.24-.197-.336-.394-.624-.59-.96-2.66-4.22-5.91-9.498-10.64-14.39-.7-.672-1.33-1.343-2.02-1.967-2.808-2.638-5.665-4.7-8.324-6.092-12.216-6.236-29.2-5.804-35.564-4.173-3.842.96-7.635 1.2-11.378 1.39-2.66.144-5.172.288-7.438.72-7.487 1.44-11.083 9.498-11.28 16.358-.148 6.668 2.56 12.52 5.27 17.317zm71.67-26l-1.872-1.87c-2.61-2.447-5.418-4.557-7.98-5.996-13.053-7.388-32.904-6.62-37.337-5.71-5.073 1.007-10.147.432-14.58-.048-2.02-.24-3.94-.432-5.566-.48-7.733-.096-12.758 8.49-13.694 17.03-.837 7.963 1.773 14.68 4.187 19.62l.05.096c0 .048.05.048.05.096.05.144.1.24.148.288 1.084 2.11 1.724 5.757 2.217 8.73.443 2.782.7 5.612.887 8.107.148 1.967.296 3.694.493 5.085.1.576.246 1.055.394 1.535l.148.576c.837 3.166 1.97 5.468 3.103 7.147-1.97-1.68-4.088-4.27-5.96-8.443l-.197-.384c-.296-.576-.542-1.2-.788-1.87-.788-2.303-1.23-6.14-1.675-10.218l-.493-4.125c-.493-3.886-1.034-7.867-2.02-10.122l-.05-.048c0-.048-.05-.096-.05-.144-.05-.144-.1-.24-.1-.288-2.02-4.845-4.58-12.28-3.054-21.01 1.133-6.668 4.384-12.664 8.226-15.207 1.92-1.295 3.94-1.727 6.06-1.247 1.133.24 2.414.576 3.842.96 4.877 1.295 11.575 3.022 18.275 2.16 3.497-.432 25.27-1.007 38.125 7.052 3.005 1.87 6.206 4.51 9.112 7.435 5.665 5.756 8.72 11.705 10.59 15.974-2.414-4.317-5.517-9.594-10.492-14.68zM35.21 106.97c.1.048.246.048.345.096-2.364 3.07-4.187 6.188-5.468 8.826-.837 1.63-1.527 3.262-2.07 4.845-.1.24-.148.48-.246.72-1.428 4.75 0 10.36 2.414 19.092.542 1.92.493 3.55.394 5.18 0 .24-.05.48-.05.72-.345 5.47.394 10.122 13.398 23.938 1.38 1.44 3.005 3.357 4.73 5.372 3.35 3.934 7.192 8.395 11.132 11.993.74.67 1.428 1.44 2.118 2.206-4.138-3.5-8.324-8.25-11.822-12.232l-3.645-4.077-.7-.72c-3.202-3.454-6.404-7.004-9.457-10.554-5.862-6.763-6.7-11.32-7.093-15.062v-.096c0-.096 0-.24-.05-.336-.197-2.446-.542-5.037-1.675-7.292-3.694-7.1-4.975-14.966-3.694-23.41.788-5.42 3.202-9.067 5.123-11.705 2.56 1.44 4.778 2.063 6.305 2.495zm-12.905 8.922c-1.28 8.73 0 16.886 3.842 24.273 1.084 2.11 1.38 4.557 1.527 6.716 0 .144 0 .24.05.384v.096c.493 4.893 1.92 9.498 7.438 15.878 3.054 3.55 6.256 7.148 9.507 10.6l.7.72c1.084 1.15 2.315 2.6 3.596 4.077 4.68 5.325 10.443 11.945 16.058 15.4.64.91 1.23 1.87 1.823 2.83-5.517-3.837-11.23-10.313-15.664-15.35l-3.25-3.694c-.246-.288-.542-.576-.788-.864l-3.89-4.22-7.39-7.963c-6.404-6.62-8.275-12.185-9.3-17.22v-.096c-.05-.144-.05-.288-.098-.432-.493-2.638-1.28-5.996-2.955-8.203-6.6-8.635-5.665-19.956-5.024-28.207l.05-.335c.493-5.95 2.118-10.122 3.35-12.425 2.02 2.543 4.04 4.366 5.91 5.66-2.07 2.83-4.58 6.62-5.468 12.376zm-5.418-5.66l-.05.335c-.7 8.49-1.626 20.1 5.32 29.166 1.675 2.207 2.364 5.95 2.66 7.58.05.144.05.288.1.43v.096c1.084 5.23 3.054 11.034 9.704 17.893l7.39 7.916 3.89 4.22c.246.288.493.576.788.863.985 1.056 2.07 2.35 3.25 3.646 5.123 5.853 11.92 13.576 18.373 17.126l1.773 3.166c-6.305-4.174-12.807-11.61-17.733-17.174l-3.153-3.55c-.296-.335-.59-.67-.887-.96l-1.28-1.39c-4.335-4.7-8.472-9.163-11.822-12.33-7.044-6.62-9.753-13.19-11.576-19.332l-.148-.575c-.936-3.3-2.118-7.004-4.236-9.067-7.832-7.77-7.093-19.907-6.502-29.693.098-1.392.148-2.687.197-3.982.296-6.716 1.478-11.85 3.694-15.638.296.96.59 1.775.985 2.495.985 1.92 2.07 3.598 3.103 5.085-1.28 2.35-3.25 6.908-3.842 13.672zm-5.37-5.613l-.197 3.934c-.59 10.025-1.38 22.546 6.896 30.797 2.07 2.062 3.3 6.524 3.842 8.442l.148.576c1.92 6.332 4.68 13.144 12.02 20.004 3.3 3.118 7.39 7.53 11.773 12.232l1.28 1.39c.296.288.59.624.887.96l3.152 3.55C56.833 192.8 64.42 201.424 71.56 205.3l1.823 3.358c-6.995-4.605-14.186-12.808-19.555-18.948l-3.103-3.502-.985-1.104-.345-.383c-5.074-5.517-10.344-11.225-14.53-14.87-8.62-7.484-11.87-16.262-13.84-21.443-.05-.192-.148-.384-.246-.624v-.048c-.936-2.686-2.66-7.675-5.468-9.88-9.3-7.436-8.472-21.155-7.832-32.19a168.54 168.54 0 0 0 .296-6.572c.197-11.13 2.512-18.564 7.142-22.642.394 4.078.837 7.77 1.478 10.745-3.054 3.98-4.58 9.7-4.876 17.413zm117.775 135.9c-.788-.144-1.478-.288-2.118-.43-.05-.864-.492-2.16-1.133-4.126-.64-1.92-1.478-4.317-1.97-6.716-1.773-8.538 1.773-15.782 5.517-23.41l.542-1.104c2.265-4.605 2.758-8.155 1.576-11.56-.345-1.007-.74-2.1-1.182-3.262-2.463-6.57-5.813-15.6-4.384-24.56.394-2.543.985-4.797 1.822-6.812 4.187-10.266 9.605-17.174 13.546-22.21 1.43-1.822 2.61-3.357 3.596-4.797 2.6-3.933 3.25-9.642 1.084-15.638 2.856 5.852 3.004 11.61 1.428 15.734-1.084 2.783-2.758 5.997-4.778 9.642-2.61 4.797-5.812 10.794-8.768 18.18-.788 2.015-1.478 4.222-2.118 6.956-2.07 8.875.443 17.125 2.463 23.745.493 1.63.985 3.166 1.33 4.558.788 3.07.197 6.38-1.872 10.36-5.024 9.786-6.6 17.365-5.27 25.33.098.623.197 1.295.344 1.966.394 2.735 1.232 7.388.345 8.155zm3.4.384l-1.872-.144c.7-1.775.1-5.037-.492-8.682-.1-.672-.247-1.296-.345-1.92-1.232-7.628.295-14.92 5.172-24.417 2.216-4.318 2.857-7.915 1.97-11.37-.345-1.44-.837-2.974-1.33-4.605-1.97-6.476-4.433-14.535-2.413-23.026.64-2.687 1.28-4.797 2.02-6.764 2.956-7.34 6.157-13.288 8.72-18.037 2.02-3.742 3.743-6.956 4.827-9.834 1.527-4.03 1.527-9.498-.7-15.063 2.956 5.71 3.695 11.32 3.104 15.495-.838 5.948-3.547 12.568-6.946 21.01l-2.955 7.435a93.79 93.79 0 0 0-2.217 6.572l-.05.192c-2.71 8.49-.837 16.262.7 22.546.492 1.967.935 3.838 1.182 5.517.492 3.166-.197 6.524-2.217 10.266-4.876 9.162-5.32 16.693-4.384 25.136.74 6.908-.492 9.114-1.773 9.7zm3.3.048h-1.182c1.28-1.775 1.675-5.085 1.133-9.978-.887-8.203-.493-15.446 4.236-24.32 2.167-4.03 2.906-7.675 2.364-11.13-.295-1.775-.738-3.646-1.23-5.66-1.527-6.38-3.3-13.624-.7-21.78l.05-.192c.69-2.11 1.38-4.317 2.216-6.476l2.956-7.435c3.448-8.54 6.157-15.255 6.994-21.347.542-3.934.05-9.02-2.266-14.343 2.7 4.797 4.335 9.93 4.63 15.014.443 7.724-1.43 16.454-6.256 29.07a42.91 42.91 0 0 0-.837 2.303l-1.626 4.27c-3.3 8.25-2.02 15.303-.936 21.49.394 2.207.788 4.318.936 6.332.246 3.262-.59 6.572-2.56 10.122-4.68 8.49-4.187 15.303-3.744 21.3l.246 3.646c.1 3.406-.985 7.77-4.433 9.114zm4.384-.336l-1.428.144c2.315-2.254 3.103-5.948 2.955-8.922-.05-1.2-.148-2.447-.246-3.694-.444-6.092-.936-12.376 3.546-20.483 2.118-3.8 3.005-7.388 2.76-10.938-.148-2.1-.542-4.22-.936-6.476-1.084-6.044-2.266-12.856.837-20.723l1.626-4.27c.295-.768.542-1.535.837-2.255 4.877-12.856 6.748-21.683 6.354-29.646-.246-4.51-1.477-9.066-3.595-13.383 2.807 4.557 4.827 9.402 5.96 14.343 2.118 9.45 1.28 19.188-2.61 29.693a76.74 76.74 0 0 1-2.66 6.333c-3.89 8.01-3.103 14.68-2.413 20.58.295 2.398.54 4.7.54 7.004-.05 3.405-.985 6.667-2.906 10.025-4.532 7.916-3.694 14.2-3.005 19.237.247 1.966.493 3.837.395 5.516-.198 2.64-1.33 6.188-6 7.915zm27.978-2.926c-4.876-1.15-10.688-1.68-16.895 0 3.3-3.022 2.56-6.428 1.675-10.457-.493-2.207-1.035-4.654-.936-7.436.148.672.394 1.343.64 2.063 2.562 6.572 9.21 11.992 15.516 15.83zm-7.3-66.103c-4.482 7.82-4.137 13.91-3.842 19.812.1 2.1.246 4.173.148 6.284-.197 3.502-.985 7.1-3.4 11.225-4.68 7.915-3.35 13.863-2.315 18.708 1.232 5.565 1.97 8.923-7.093 12.28 2.56-2.303 3.152-5.23 3.25-7.1s-.148-3.742-.443-5.804c-.7-5.085-1.43-10.842 2.857-18.325 2.068-3.598 3.054-7.1 3.103-10.745.05-2.4-.246-4.702-.542-7.196-.7-5.996-1.428-12.185 2.315-19.812.936-1.92 1.823-4.03 2.71-6.476 4-10.793 4.877-20.77 2.66-30.51-.936-4.22-2.56-8.443-4.778-12.424 2.66 3.885 4.877 7.915 6.55 11.992 5.567 13.576 5.123 27.104-1.182 38.09zm11.083-26.672c1.97 7.867-2.07 13.576-6.403 19.62 3.054-9.7 2.364-20.627-2.118-31.612-3.793-9.355-10.05-18.085-18.423-25.904-.492-.48-.985-.912-1.527-1.392 16.994 11.753 24.038 27.344 28.47 39.288zm-37.09-40.535c5.37 4.7 8.473 10.65 8.62 16.262.05 2.974-.738 5.66-2.315 7.82-.345.48-.788.96-1.182 1.344-.788.767-1.724 1.583-2.71 2.446-5.172 4.605-13.053 11.56-18.275 24.177-4.975 12.04 1.626 26.768 5.172 34.683.247.48.444.96.64 1.44 2.07 4.653-.493 9.402-3.4 14.967-2.71 5.132-5.763 10.84-5.418 17.46-.788-5.613.886-10.745 2.512-15.734 1.034-3.166 1.97-6.14 2.266-9.067.197-2.206-.05-4.173-.788-6.14-1.626-4.22-4.04-10.602-5.517-18.517-.985-5.18-1.774-11.225 0-16.837 1.083-3.502 2.413-6.524 4-9.21 3.595-6.14 7.93-10.745 11.427-14.44l3.3-3.55c6.157-7.1 5.27-18.756-2.12-27.726-4.04-4.846-6.502-9.786-8.226-13.768 2.463 4.126 6.256 9.306 12.02 14.39zm-5.122.288c6.945 8.395 7.83 19.284 2.167 25.856-.936 1.103-2.07 2.303-3.25 3.55-3.547 3.742-7.93 8.395-11.625 14.68-1.625 2.782-3.005 5.9-4.138 9.498-1.87 5.9-1.083 12.184-.05 17.51 1.527 8.06 4 14.487 5.616 18.757.64 1.727.886 3.5.69 5.468-.246 2.783-1.182 5.71-2.216 8.78-1.823 5.564-3.843 11.8-2.12 18.756-2.413-6.38-1.674-12.424-.985-18.324.296-2.447.59-4.797.59-7.1.05-2.16-.246-4.125-.886-6.044-1.823-5.565-3.103-10.986-4.433-18.805l-.1-.72c-.936-5.42-1.872-10.986-.74-16.214.788-3.694 1.823-6.668 3.25-9.355 2.956-5.516 6.6-10.17 9.852-14.247l3.596-4.653c5.467-7.435 5.812-18.612.886-27.823-2.906-5.42-4.335-10.697-5.123-14.87 1.823 4.317 4.483 9.834 9.015 15.303zM119.44 89.126c.788 4.27 2.216 10.074 5.37 15.878 4.68 8.73 4.384 19.284-.788 26.288-1.084 1.487-2.266 2.974-3.547 4.605-3.3 4.125-6.995 8.826-10 14.44-1.478 2.782-2.562 5.9-3.4 9.738-1.182 5.468-.197 11.225.74 16.742l.098.72c1.33 7.867 2.61 13.384 4.483 18.996.59 1.775.837 3.598.837 5.565-.05 2.207-.295 4.51-.59 6.956-.74 6.14-1.576 13.048 1.576 20.34-4.728-7.867-5.172-15.974-5.516-23.218-.05-.72-.05-1.39-.1-2.062-.1-2.063-.443-4.03-.985-5.997-1.28-4.51-1.823-8.346-2.512-13.623l-.788-5.42c-.197-1.343-.444-2.734-.7-4.077-.788-4.462-1.527-8.73-1.034-12.952.443-3.8 1.23-6.812 2.56-9.546 2.414-5.037 5.566-9.738 8.57-14.248l3.596-5.516c4.827-7.628 6.354-18.565 3.842-27.87-1.577-5.9-1.823-11.513-1.724-15.734zm.295 16.118c2.365 8.922.936 19.428-3.694 26.767l-3.596 5.47c-3.054 4.557-6.206 9.258-8.67 14.44-1.38 2.83-2.217 6.044-2.66 9.978-.493 4.413.295 8.97 1.034 13.336l.7 4.03.788 5.42c.74 5.324 1.28 9.2 2.56 13.815a24.26 24.26 0 0 1 .936 5.709c.05.67.1 1.39.1 2.062.394 7.628.837 16.214 6.206 24.61-7.88-9.2-10.245-19.428-10.984-24.8-.246-1.967-.64-3.934-1.084-5.95-.886-3.837-1.084-6.716-1.33-10.36-.148-2.495-.345-5.325-.837-8.97-.296-2.207-.74-4.365-1.182-6.476-.74-3.646-1.478-7.1-1.38-10.6.05-3.838.64-6.908 1.823-9.7 2.02-4.845 4.827-9.738 7.783-14.967l3.152-5.66c4.335-7.915 6.896-18.324 6.798-27.918-.05-6.38.886-12.09 1.773-16.262-.1 4.27.148 9.978 1.773 16.022zM88.9 184.3c-.345-3.406-1.33-6.716-2.315-9.882-1.773-5.756-3.448-11.13-1.576-17.46 4.433-14.823 20.442-50.945 29.456-66.775-1.626 4.22-3.4 9.594-4.828 15.494-2.364 9.738-5.86 19.812-9.654 27.68l-1.28 2.687c-3.3 6.955-6.453 13.48-8.423 18.9-1.133 3.166-1.527 6.476-1.182 10.458.246 3.07 1.034 6.14 1.773 9.114.7 2.638 1.38 5.42 1.675 8.155.443 4.22.443 7.243.394 9.882-.05 3.166-.05 5.9.7 9.834l.837 4.077.345 1.775c1.626 7.867 8.127 17.51 16.698 24.85-9.457-5.948-19.31-15.543-21.378-23.17-2.07-7.53-1.724-11.033-1.33-15.063.246-2.686.542-5.756.1-10.553zm7.39 23.697l-.345-1.775-.837-4.077c-.74-3.742-.7-6.428-.64-9.546.05-2.687.05-5.757-.394-10.074-.345-2.83-1.034-5.66-1.724-8.347-.74-2.878-1.478-5.9-1.724-8.874-.296-3.8.05-6.908 1.133-9.882 1.92-5.373 5.073-11.897 8.374-18.805l1.28-2.686c3.793-7.963 7.34-18.133 9.753-27.967 1.577-6.524 3.547-12.28 5.27-16.502-.887 4.174-1.724 9.786-1.675 15.927.05 9.2-2.512 19.667-6.65 27.247l-3.152 5.612c-2.956 5.23-5.763 10.218-7.832 15.11-1.232 2.974-1.872 6.236-1.92 10.218-.05 3.693.7 7.34 1.428 10.937.443 2.11.887 4.27 1.133 6.38.443 3.598.64 6.38.837 8.875.246 3.55.443 6.667 1.38 10.6.443 1.967.837 3.838 1.084 5.804 1.23 9.547 5.32 18.66 11.477 25.76-8.423-7.052-14.728-16.406-16.255-23.938zm20.195-129.088c.05.048.1.144.1.192-.296-.192-.542-.384-.838-.576-.147-.144-.295-.24-.443-.384.394.288.788.528 1.182.768zM83.58 156.572c-2.02 6.716-.197 12.616 1.576 18.277.985 3.118 1.97 6.332 2.266 9.594.443 4.605.148 7.53-.1 10.36-.394 4.174-.74 7.772 1.38 15.543 3.153 11.37 22.855 27.055 34.135 29.406.05.144.148.336.247.575-6.404-.67-22.117-10.313-29.555-21.01-3.744-5.372-5.91-9.546-7.093-13.527-2.02-7.004-2.07-10.602-2.167-14.727-.05-2.735-.1-5.805-.788-10.218-.443-3.022-1.38-6.044-2.266-8.922-1.773-5.613-3.546-11.417-2.02-18.037 2.02-8.683 7.044-19.332 12.856-31.613l6.157-13.288c5.467-12.04 12.363-18.996 16.944-22.786-8.718 13.912-26.648 53.823-31.574 70.373zm31.525-80.446s-.05 0-.05-.048c.05 0 .05.048.05.048zm-.394 6.86c-5.566 1.68-15.615 5.756-22.018 20.196-3.153 7.052-6.404 13.384-9.21 18.948-5.32 10.362-9.9 19.284-11.576 28.495-1.33 7.387.64 13.575 2.56 19.572.837 2.6 1.626 4.99 2.118 7.53.837 4.077 1.23 6.956 1.626 9.738.59 4.27 1.084 7.963 3.054 14.583 1.773 5.9 4.335 10.937 7.635 16.598 6.847 11.944 23.988 23.122 32.264 25.28 1.576.384 2.758.48 3.645.288.197.336.345.672.542 1.007a2.52 2.52 0 0 1-1.183.144c-3.694-.144-11.28-3.79-18.52-8.922-5.123-3.598-14.334-11.033-18.817-19.956-3.89-7.723-6.01-12.904-7.88-19.044-1.823-5.948-2.758-9.642-3.842-13.96l-2.512-9.546c-.542-2.014-1.23-4.03-1.92-5.996-2.07-6.14-4.236-12.52-3.202-20.1 1.38-9.882 5.714-17.7 11.23-27.583 3.448-6.14 7.34-13.144 11.132-21.778 6.847-15.35 18.52-15.878 24.875-15.494zm-1.92-21.97c-.936-2.878-2.562-6.716-5.418-10.84 3.595 1.823 6.748.816 11.083-2.207-3.153 4.22-5.025 8.54-5.665 13.048zm12.068-19.764l-.246.192c-11.428 9.114-14.137 11.32-21.723 3.07-10.295-11.13-19.407-13.624-26.944-15.015-1.38-.288-2.758-.528-4.187-.768-.148-.048-.296-.048-.394-.096-4.335-.863-8.127-1.007-11.723-1.103l-5.27-.096c-1.92-.048-3.94-.192-6.06-.432-2.758-.384-5.665-1.007-8.67-1.775 5.714.624 10.69.288 15.565 0 5.024-.336 9.802-.672 15.024.192l1.33.192C79.69 26.86 88.9 28.3 98.998 38.42c8.57 8.54 17.19 6.524 28.42.48.493-.24.986-.528 1.478-.767a34.88 34.88 0 0 0-4.039 3.118zm1.724-3.646c-12.66 6.812-19.654 6.764-26.6-.24-10.443-10.457-19.9-11.945-28.274-13.24l-1.33-.192c-5.418-.863-10.245-.528-15.368-.192-5.665.384-11.477.768-18.472-.432 5.37 0 10.443-.767 15.368-1.535 6.06-.91 11.773-1.775 17.388-1.103 7.093.863 15.86 2.782 26.845 10.65 8.718 6.236 20.245 7.723 32.46 4.173l4.433-1.295-6.453 3.406zm8.078-5.42l-6.453 1.92c-11.772 3.406-22.855 1.967-31.18-3.982-11.28-8.06-20.245-10.026-27.535-10.937-5.812-.72-11.625.192-17.782 1.103-5.468.816-11.034 1.68-16.994 1.487 4.088-.672 8.226-1.68 12.314-2.686 7.783-1.92 15.122-3.694 21.427-3.166 7.536.624 14.974 3.07 24.875 8.25 8.128 4.22 23.003 8.49 36.55 7.867l4.483-.24c.542-.048 1.083-.048 1.576-.096-.394.192-.837.336-1.28.48zm-.394-1.775c-1.33.096-2.857.144-4.482.24-13.25.624-27.83-3.55-35.76-7.675-10.098-5.277-17.733-7.82-25.466-8.443-6.55-.528-14.038 1.295-21.92 3.214-4.482 1.103-9.113 2.207-13.497 2.878.59-.192 1.133-.432 1.724-.67 10.147-3.8 23.988-9.02 32.756-8.683 9.605.384 17.683 2.446 22.806 5.804 7.733 5.085 33.15 10.17 40.736 11.61 3.054.576 5.32 1.103 6.896 1.583-1.084 0-2.364.048-3.793.144zm-2.857-3.214c-7.536-1.44-32.657-6.428-40.194-11.37-5.32-3.502-13.694-5.66-23.594-6.044-9.063-.384-22.51 4.7-33.347 8.78l-2.364.863C41.07 13.332 57.72 6.568 66.734 6.52c8.768-.048 17.29 1.727 20.885 3.406 2.71 1.295 8.374 3.022 15.516 5.18 9.113 2.782 20.492 6.284 29.26 9.978 3.25 1.39 5.468 2.782 6.847 3.934-2.56-.767-6.01-1.487-7.832-1.823zM65.946 1.82c7.24-.384 14.58.528 17.733.91.64.096 1.084.144 1.33.144 5.665.48 32.707 8.155 48.715 18.757 3.153 2.11 5.123 4.317 6.256 6.092-1.724-1.343-4.138-2.734-6.945-3.934-8.867-3.742-20.245-7.244-29.407-10.026C96.83 11.7 90.97 9.878 88.31 8.63c-3.744-1.775-12.51-3.598-21.526-3.55-9.26.048-26.303 7.004-35.712 13.24C39.05 9.83 58.016 2.25 65.946 1.82zm-53.79 38.568c1.428-6.524 5.172-14.295 10.295-16.934 2.02-1.055 4.088-1.15 6.157-.336.837.336 1.675.624 2.512.96 6.945 2.734 12.364 3.886 17.142 4.413 1.33.192 2.66.336 4 .384h2.02l3.448.096c.59 0 1.23 0 1.822.048 4.187.192 8.128.576 11.773 1.103.74.144 1.428.288 2.167.384l2.414.432c6.7 1.44 12.265 3.598 16.353 6.428 1.724 1.2 5.073 3.694 8.67 7.292 5.467 5.66 8.423 11.32 9.95 15.446-1.97-4.077-4.975-9.114-9.802-14.055l-1.774-1.775c-2.463-2.303-5.073-4.365-7.586-5.9-13.2-8.3-35.564-7.723-39.1-7.243-6.404.816-12.955-.91-17.684-2.16-1.428-.384-2.758-.72-3.89-.96-2.512-.528-4.926 0-7.24 1.487-5.074 3.358-7.93 10.84-8.866 16.214-1.576 9.114 1.034 16.838 3.152 21.827l.05.096c0 .048.05.096.05.144.05.144.1.24.1.288.936 2.11 1.428 5.996 1.92 9.738l.443 4.126c.443 4.173.887 8.107 1.724 10.554.246.72.542 1.343.837 1.967l.197.384c1.38 3.022 2.857 5.277 4.335 6.956-2.808-2.11-5.862-5.47-8.72-10.937-1.724-3.3-2.364-10.122-2.906-15.542-.443-4.51-.837-8.78-1.675-11.13l-.197-.528c-3.005-8.3-3.694-15.878-2.07-23.266zM1.813 102.126c.197-3.166.345-6.14.345-8.827 0-22.978 7.832-26.432 10.787-27.727l.296-.144c.59 2.11.936 5.517 1.28 9.162-5.468 4.22-8.226 12.232-8.472 24.37-.05 2.014-.148 4.22-.296 6.524-.64 11.368-1.478 25.472 8.374 33.387 2.463 1.967 4.138 6.86 4.975 9.2v.048c.1.24.197.48.246.672 2.61 6.908 6.06 14.92 14.285 22.066 4.138 3.598 9.36 9.306 14.432 14.775l.345.384.985 1.103 3.103 3.502c6.06 6.908 14.285 16.262 22.166 20.58.296.48.542.96.837 1.44.246.576.443 1.2.74 1.823-7.635-5.085-15.418-13.96-21.18-20.58l-4.236-4.75c-5.812-6.284-11.773-12.808-16.748-16.838-9.014-7.387-13.103-16.693-16.107-23.505l-.05-.096c-.148-.288-.295-.672-.443-1.103-1.182-2.927-3.4-8.3-6.55-10.4-10.738-7.244-9.852-22.018-9.113-35.066z" fill="#f9f7f7"/></svg>