<svg xmlns="http://www.w3.org/2000/svg" width="470" height="345" fill="none" xmlns:v="https://vecta.io/nano"><path d="M237.7 327.857c-3.14-4.642-11.756-8.207-16.345-10.113-.725-.332-1.37-.58-1.852-.83l-.162-.083c-11.675-5.14-27.618-12.103-40.34-27.77-6.683-8.207-17.554-18.237-28.022-27.853l-7.97-7.13c-12.24-10.777-28.908-25.45-37.12-39.625-14.735-7.792-30.195-22.63-43.4-41.946-12.642-18.486-20.775-37.8-18.842-44.847.403-1.41 1.127-2.32 2.174-2.818-3.3-3.068-6.36-6.55-8.696-10.694-9.582-16.745-23.593-62.256-25.767-77.177-.725-5.14-3.06-11.523-5.475-18.32C3.543 12.435 1.288 6.05 0 .166h2.496C3.785 5.72 5.96 11.854 8.052 17.823c2.496 6.963 4.83 13.43 5.637 18.9 2.094 14.756 15.943 59.77 25.445 76.265 3.382 5.97 8.455 10.694 13.447 14.342-4.268-4.062-8.294-9.12-10.95-15.253-.886-2.073-1.933-4.56-2.738-7.46l-6.764-21.968L21.74 47.832c-1.208-4.642-2.174-8.787-2.738-11.937-1.047-5.637-3.543-11.937-5.96-17.906-.644-1.658-1.37-3.233-2.013-4.808C9.1 8.704 7.327 4.476 6.04.166h2.577c1.208 3.896 2.818 7.875 4.6 11.937l2.013 4.89c2.496 6.05 4.992 12.517 6.12 18.403.564 3.15 1.53 7.212 2.738 11.77 2.416 9.367 6.442 22.216 10.387 34.65l6.764 22.05c.805 2.735 1.77 5.222 2.657 7.212 2.657 6.217 7.005 11.357 11.354 15.253-3.623-4.394-7.086-9.948-8.938-16.414-.564-2.072-1.37-4.725-1.77-7.543-1.852-12.766-6.683-28.517-10.548-41.2-1.772-5.47-3.3-10.61-4.43-14.84l-2.98-11.688c-1.45-6.217-4.026-12.27-6.36-17.408-1.047-2.238-2.093-4.394-3.22-6.466-1.69-3.4-3.463-6.88-4.912-10.61h2.657c1.288 3.233 2.818 6.217 4.43 9.367l3.22 6.55c2.416 5.223 5.073 11.44 6.522 17.906l2.98 11.606c1.127 4.145 2.657 9.284 4.348 14.756 3.865 12.766 8.777 28.6 10.63 41.53.403 2.653 1.047 5.057 1.69 7.13 1.77 6.218 5.153 11.523 8.696 15.75-2.818-4.808-5.395-10.61-6.36-17.243-.322-2.32-.725-4.808-.725-7.543-.16-15.336-5.717-32.66-9.743-45.345l-3.06-9.948-1.69-6.217c-.564-1.907-1.047-3.73-1.45-5.222-1.53-5.305-3.624-10.528-6.844-16.745C26.09 14 24.72 11.69 23.35 9.45 21.5 6.632 19.728 3.565 18.117.166h2.738c1.45 2.818 2.98 5.47 4.51 7.958 1.37 2.238 2.818 4.642 4.187 7.212 3.3 6.383 5.476 11.77 7.086 17.408l1.45 5.222c.483 1.907 1.127 3.98 1.69 6.217.805 2.82 1.852 6.052 3.06 9.865 4.107 12.85 9.663 30.423 9.824 46.1 0 2.487.403 4.974.725 7.13.886 6.134 3.22 11.522 5.878 16.082-2.013-5.14-3.543-11.274-3.623-17.823-.08-2.404-.08-4.89.242-7.46 2.094-17.16-4.026-34.982-8.052-46.754-1.047-2.984-1.933-5.637-2.577-7.792L41.87 32.33c-1.852-5.97-4.187-11.19-7.328-16.414-1.53-2.57-3.06-4.725-4.83-7.046-1.852-2.736-3.785-5.388-5.637-8.704h2.9c1.6 2.653 3.22 4.89 4.83 7.046 1.69 2.238 3.382 4.642 4.912 7.295 3.22 5.47 5.637 10.86 7.57 16.994l3.382 11.274c.644 2.155 1.53 4.725 2.496 7.71 4.026 11.937 10.226 30.09 8.133 47.832-.322 2.404-.242 4.89-.242 7.13.08 5.803 1.37 11.19 3.06 15.833-1.047-5.388-1.53-11.523-.805-17.99.242-2.072.564-4.725 1.288-7.46 4.6-18.652-2.174-36.64-6.2-47.417-.966-2.487-1.772-4.725-2.335-6.466-1.288-4.228-2.416-7.875-3.543-10.942-2.255-6.3-4.67-11.44-7.73-15.916-1.69-2.57-3.543-4.642-5.475-6.963-1.932-2.238-4.026-4.642-6.12-7.627-.08-.083-.16-.25-.242-.332h3.06c1.772 2.404 3.462 4.394 5.153 6.3 2.013 2.32 3.865 4.476 5.637 7.13 3.14 4.725 5.717 9.948 8.052 16.496C52.983 33.16 54.11 36.89 55.4 41.2c.483 1.74 1.288 3.896 2.255 6.3 4.107 11.025 11.032 29.51 6.28 48.91-.644 2.653-.966 5.223-1.208 7.13-.564 5.223-.322 10.28.322 14.756-.08-7.627 1.127-16.33 4.187-24.703 7.005-18.9.805-35.48-3.543-46.008-1.047-2.32-1.852-4.393-2.416-5.886-.08-.083-.08-.25-.08-.332s0-.083-.08-.166c-.08-.25-.16-.58-.242-.83C53.79 18.57 49.118 13.927 42.596 7.46c-1.852-1.824-3.945-3.98-6.28-6.632-.16-.166-.403-.414-.564-.663h3.3c1.932 2.155 3.704 3.896 5.395 5.554 6.603 6.55 11.837 11.69 18.842 34.07l.242.746c.403 1.243 1.047 2.82 1.772 4.476.403.83.725 1.824 1.127 2.82 5.96 13.098 17.876 32.08 32.048 37.635 6.683 2.653 13.286 1.99 19.728-1.74 11.676-6.88 21.338-6.383 30.68-5.803 9.582.58 19.406 1.078 31.887-6.134 3.945-2.238 7.65-4.974 11.192-7.544 5.314-3.813 10.468-7.544 16.104-9.865-10.226 1.492-18.842 4.477-30.92 10.362-11.756 5.803-21.016 6.134-28.746 5.97h-1.047c-8.213-.166-15.943-.332-25.525 5.14-6.28 3.647-12.884 4.31-19.567 1.907-17-5.968-30.035-30.34-33.578-39.2-7.247-17.99-12.4-23.79-18.36-30.59-2.013-2.32-4.187-4.725-6.522-7.792h3.14c1.852 2.238 3.543 4.228 5.153 6.05C58.217 13.18 63.45 19.15 70.94 37.552c3.462 8.62 16.024 32.08 32.208 37.8 5.96 2.155 11.918 1.492 17.554-1.74 10.146-5.886 18.6-5.72 26.814-5.47h1.047c9.5.166 17.473-.663 27.62-5.72 11.353-5.637 19.728-8.538 29.15-10.196-1.53-.083-2.98-.25-4.43-.332-9.1-.746-17-1.326-28.505 3.565-8.374 3.565-15.863 5.223-24.962 5.388h-1.288c-7.005.166-13.69.25-21.82 4.808-5.556 3.15-11.354 3.813-17.312 1.99-16.346-4.974-28.344-26.858-30.6-31.252C69.4 23.045 64.256 16.497 58.78 9.533c-2.255-2.9-4.6-5.803-7.086-9.367h3.06l5.96 7.792c5.556 7.046 10.8 13.678 17.876 27.44 1.288 2.57 13.447 25.2 29.15 30.01 5.315 1.658 10.468 1.078 15.46-1.74 8.697-4.89 15.944-4.974 22.95-5.14h1.288c8.858-.166 16.024-1.74 24.077-5.222 12.078-5.223 20.613-4.477 29.632-3.813h.402c-2.093-.58-4.026-1.326-5.958-2-8.294-2.9-16.185-5.637-27.86-1.16-7.49 2.82-14.01 4.31-21.258 4.89l-1.45.083c-5.637.414-11.434.83-18.198 4.476-17.715 9.616-34.222-9.12-42.516-21.222-4.67-6.797-8.616-12.02-12.4-17.077C67.72 11.854 63.773 6.55 59.586.166h2.98c3.784 5.72 7.49 10.61 11.273 15.75L86.32 33.16c7.81 11.357 23.352 29.097 39.376 20.393 7.166-3.896 13.286-4.31 19.164-4.725l1.45-.083c7.006-.58 13.286-2 20.533-4.725 12.562-4.725 21.177-1.74 29.552 1.16.08 0 .24.083.322.083l-4.348-2.487c-8.536-5.057-16.588-9.782-29.39-5.637-4.83 1.575-10.63 3.316-17.473 4.31l-1.53.25c-4.51.663-9.26 1.326-14.574 4.062-14.333 7.378-30.116-3.896-37.2-13.18-2.9-3.896-5.878-7.544-8.777-11.025C77.623 14.6 72.228 7.958 67.397.166h2.9c4.51 7.13 9.582 13.263 14.816 19.73l8.857 11.108c4.6 5.97 19.647 19.978 34.222 12.517 5.717-2.9 10.63-3.648 15.38-4.31l1.53-.25c6.684-.995 12.32-2.736 17.07-4.228 12.4-4.062 20.855-.25 28.666 4.228-.403-.332-.805-.58-1.128-.912-8.857-7.13-17.23-13.844-31.564-10.114l-5.234 1.492c-2.496.746-5.315 1.575-8.374 2.32-.564.166-1.047.25-1.61.415-3.462.912-7.086 1.824-11.112 3.647-9.018 4.145-19.89 2.404-31.564-4.974C92.036 25.615 84.065 15.833 75.288.25h2.818c5.717 10.03 13.77 22.382 23.432 28.434 11.112 7.046 21.016 8.704 29.3 4.808 4.268-1.907 8.133-2.9 11.515-3.813.563-.166 1.127-.25 1.6-.415l8.374-2.32 5.234-1.492c10.7-2.818 18.44-.083 25.204 4.228-7.73-6.88-16.024-12.27-29.47-11.025-1.37.166-5.234 1.326-9.583 3.233-2.013.912-4.348 1.907-6.763 2.82-8.697 3.482-19.326 6.632-28.666 4.145h-.08c-.24-.083-.563-.166-.805-.25-.16-.083-.322-.083-.483-.166s-.242-.083-.403-.166c-.24-.083-.483-.166-.724-.332h-.08c-4.6-2.155-9.34-6.632-14.252-13.512-3.22-4.476-6.12-9.367-8.616-14.175h2.9c9.18 17.242 16.587 23.708 21.74 25.78.08 0 .16.083.24.083.16.083.322.083.483.166l.725.25c11.112 2.984 24.8-2.9 33.82-6.88 4.83-2.072 8.777-3.233 10.307-3.4 17.312-1.658 26.814 7.295 36.074 16 4.67 4.394 9.018 8.538 14.413 11.357 1.047.58 2.174 1.078 3.382 1.658 3.704 1.658 8.133 3.233 13.045 4.974.563.25 1.207.414 1.852.663.08 0 .08 0 .16.083.483.166 1.046.332 1.53.58.402.166.805.25 1.207.415.16.083.323.166.564.166.564.166 1.127.415 1.61.58h.08c.242.083.403.166.644.25 16.83 6.217 37.926 15.502 56.043 34.982 4.67 4.974 9.18 10.694 13.287 17.16 5.314 8.3 33.577 49.655 66.752 47.997 12.48-.58 24.237-7.212 35.108-19.646l.24-.332c.805-.994 1.53-1.99 2.255-2.9-6.522 5.886-13.608 9.865-21.338 12.02-14.816 4.145-31.565.995-48.475-9.12-12.642-7.543-22.626-19.315-28.746-27.853l-.725-.995-7.166-10.03c-10.95-15.833-25.364-26.776-36.637-34.568-6.28-4.31-11.435-7.378-16.105-9.782-7.327-3.648-14.735-5.803-21.338-7.626h-.08c-5.717-1.658-11.192-3.233-15.46-5.222-.644-.332-1.37-.663-2.013-1.078-4.75-2.653-8.938-6.55-12.803-10.362l-1.45-1.41c-6.28-6.217-12.884-12.6-21.66-14.92-3.462-.912-7.488-1.243-11.917-.995-1.69.083-5.475 1.078-9.582 2.57l-.644.25c-8.374 3.067-19.81 7.212-29.632 7.295-1.127 0-2.174-.083-3.22-.166-.322 0-.725-.083-1.047-.083C101.62 17.49 92.68 9.12 85.917.25h3.14c6.36 7.875 14.172 14.838 22.385 15.336.322 0 .725.083 1.047.083.966.083 2.013.166 2.98.166 9.42-.166 20.614-4.228 28.827-7.212l.644-.25c4.348-1.575 8.294-2.653 10.227-2.736 4.67-.25 8.937.166 12.64 1.078 9.422 2.487 16.185 9.12 22.708 15.502l1.45 1.41c3.785 3.648 7.81 7.46 12.32 9.948l1.932.995c4.107 1.99 9.42 3.482 15.058 5.14h.08c6.683 1.907 14.332 4.062 21.82 7.792 4.83 2.404 10.065 5.554 16.426 9.948 11.515 7.875 26.09 18.983 37.282 35.148 2.094 3.067 4.51 6.466 7.086 10.03l.725.995c6.04 8.373 15.7 19.812 28.02 27.107 11.434 6.798 28.747 13.844 46.622 8.87 9.663-2.652 18.44-8.538 26.17-17.49-7.65 5.886-16.668 9.284-26.975 10.113-14.655 1.16-31.162-2.984-47.75-12.102-12.803-7.047-22.385-18.9-28.183-27.605-2.657-3.98-5.475-7.792-7.73-10.777-9.824-13.18-22.95-22.714-32.45-29.677l-4.6-3.4-.483-.414c-5.073-3.813-9.824-7.378-14.736-10.113-6.764-3.73-14.172-5.305-20.774-6.715l-.403-.083c-6.522-1.41-11.434-2.57-15.46-4.476-.644-.332-1.29-.663-2.013-1.078-4.43-2.653-8.536-6.632-12.4-10.528L190.354 14C185.04 8.62 179.644 3.067 172.96.083h5.314c5.154 3.233 9.502 7.71 13.85 12.103l1.208 1.243c3.704 3.813 7.65 7.627 11.837 10.113.644.415 1.288.746 1.852.995 3.784 1.824 8.535 2.9 14.896 4.31l.403.083c6.764 1.492 14.333 3.067 21.42 6.963 5.072 2.82 9.904 6.383 15.057 10.28l.483.415c1.37 1.078 2.9 2.155 4.6 3.4 9.663 7.046 22.95 16.745 33.014 30.257 2.255 3.067 5.073 6.88 7.81 10.942 5.636 8.456 14.977 19.98 27.377 26.776 12.24 6.715 51.212 24.62 77.382-2.487-7.49 4.394-17.152 6.466-28.586 6.135-15.54-.498-33.497-5.554-50.567-14.176-10.066-5.056-19.89-14.838-27.62-27.356-2.497-4.062-5.395-7.792-7.65-10.528-8.616-10.694-20.292-19.066-28.907-25.2-3.382-2.404-6.362-4.56-8.616-6.383l-2.577-2.155c-4.026-3.4-7.8-6.55-11.837-8.953-6.28-3.813-13.447-4.89-20.452-5.886l-.403-.083c-6.522-.995-11.434-1.824-15.46-3.73-.644-.332-1.288-.663-2.013-1.078-4.107-2.57-7.972-6.55-11.917-10.694l-.966-1.078c-1.208-1.326-2.497-2.653-3.785-3.98h3.462c.725.746 1.37 1.492 2.094 2.238l.966 1.078c3.785 4.062 7.57 7.875 11.434 10.28.645.415 1.208.746 1.772.995 3.704 1.824 8.455 2.57 14.735 3.565l.403.083c6.844.995 14.574 2.155 21.338 6.217 4.187 2.487 8.052 5.72 12.16 9.2l2.577 2.155c2.174 1.824 5.073 3.896 8.455 6.3 8.696 6.217 20.613 14.673 29.4 25.698 2.255 2.82 5.234 6.632 7.81 10.777 7.488 12.103 17 21.553 26.652 26.444 27.297 13.844 62.727 20.475 81.166 5.222-6.925 2-17 2.156-29.47.415-17.23-2.404-36.154-8.207-53.466-16.248-10.146-4.725-19.728-14.34-27.055-27.107-1.852-3.233-4.268-6.55-7.49-10.28-8.052-9.284-18.762-16.58-27.377-22.465-4.43-2.984-8.214-5.554-10.55-7.71l-2.9-2.736c-3.623-3.4-7.005-6.632-10.628-9.036-5.88-3.896-13.126-4.476-20.21-5.057h-.323c-5.556-.414-11.192-.912-15.46-2.984-.644-.332-1.288-.663-1.932-1.16-2.255-1.492-4.51-3.482-6.764-5.803h3.543c1.53 1.41 2.98 2.653 4.51 3.647a20.8 20.8 0 0 0 1.691.995c3.785 1.907 9.26 2.32 14.575 2.736h.322c7.327.58 14.896 1.243 21.338 5.47 3.784 2.487 7.247 5.803 10.95 9.284l2.9 2.736c2.174 2 5.878 4.56 10.226 7.544 8.294 5.637 19.647 13.346 27.86 22.88 3.302 3.813 5.88 7.378 7.73 10.694 7.005 12.27 16.265 21.553 25.928 26.03 35.5 16.496 71.26 20.558 84.306 14.507-2.416-.663-5.878-1.41-10.146-2.32-17.715-3.98-47.347-10.528-75.85-22.714-10.227-4.394-19.648-13.927-26.492-26.86-1.69-3.233-4.107-6.55-7.328-10.03-7.488-8.124-17.714-14.6-26.008-19.812-5.798-3.647-10.307-6.55-12.4-8.953-4.6-5.554-8.777-9.616-12.642-12.435-2.577-1.824-5.556-2.9-8.697-3.482h7.89c.725.414 1.53.83 2.255 1.41 4.026 2.984 8.294 7.13 13.045 12.85 1.77 2.155 6.44 5.057 11.836 8.455 8.375 5.305 18.842 11.854 26.492 20.227 3.382 3.647 5.96 7.13 7.73 10.528 6.603 12.435 15.54 21.553 25.284 25.698 28.344 12.103 57.815 18.652 75.45 22.548l10.63 2.487c-4.912-8.124-25.445-14.756-48.958-22.3-11.997-3.813-25.525-8.207-38.73-13.263-10.306-3.98-19.566-13.43-25.928-26.527-5.797-12.352-22.787-22.382-33.98-29.097-5.958-3.565-10.307-6.134-11.917-8.124L252.355.166h3.22c.886 1.16 1.772 2.32 2.738 3.482 1.288 1.658 5.878 4.394 11.193 7.544 12.158 7.212 28.826 17.16 35.107 30.01 6.12 12.6 14.816 21.553 24.56 25.366 13.125 5.057 26.653 9.367 38.57 13.18 19.406 6.217 35.913 11.523 44.77 17.823-5.717-5.886-16.587-10.113-29.4-15.087-7.086-2.736-14.414-5.637-21.983-9.12-4.75-2.238-9.904-4.062-15.38-6.05-3.946-1.41-7.972-2.9-12.08-4.56-7.327-2.984-17.795-10.03-25.847-26.776-6.04-12.683-24.56-23.46-36.8-30.672l-8.454-5.14h4.75l4.912 2.9c13.206 7.71 31.404 18.32 37.765 31.75 7.65 16 17.554 22.714 24.48 25.532 4.026 1.658 8.052 3.15 11.997 4.56 5.556 2 10.7 3.896 15.54 6.134 7.49 3.482 14.736 6.3 21.822 9.036 11.917 4.642 22.304 8.62 28.665 14.093-4.83-5.886-13.447-9.782-23.43-14.258-7.167-3.233-15.38-6.88-23.03-11.854-4.67-3.067-10.548-5.223-16.668-7.544-3.3-1.243-6.683-2.487-10.065-3.98-10.63-4.56-19.567-13.927-25.686-27.024C308.157 17.99 292.455 7.792 279.41.166h4.912c12.48 7.544 26.25 17.16 31.484 28.268 5.878 12.6 14.333 21.47 24.478 25.78 3.382 1.492 6.764 2.736 9.985 3.98 6.28 2.404 12.24 4.642 17.15 7.792 7.57 4.89 15.62 8.456 22.707 11.688 9.18 4.145 17.635 7.958 23.03 13.512-4.188-6.217-11.596-10.03-20.13-14.424-7.005-3.648-14.977-7.792-21.982-13.927-4.188-3.73-9.905-5.886-16.588-8.455-3.14-1.16-6.36-2.404-9.662-3.896-10.87-4.89-19.487-14.093-25.606-27.273-3.785-8.455-13.045-16.248-23.19-23.045h4.43c9.18 6.466 17.393 13.927 21.097 21.885 5.878 12.683 14.09 21.387 24.398 26.03 3.22 1.492 6.442 2.653 9.5 3.896 6.523 2.487 12.723 4.89 17.313 8.87 6.763 5.97 14.252 9.865 21.5 13.595s13.93 7.212 18.6 12.186c.16.166.323.415.484.58-3.865-6.217-10.227-10.03-17.152-14.175s-14.17-8.455-20.13-15.667c-3.624-4.394-9.34-6.632-16.024-9.202-3.06-1.16-6.28-2.404-9.582-3.98-11.03-5.14-19.406-14.175-25.525-27.44-2.658-5.72-7.81-11.357-14.172-16.58h3.784c1.852 1.658 3.624 3.316 5.234 5.057 3.14 3.4 5.717 6.88 7.328 10.445 5.878 12.766 13.77 21.305 24.317 26.278 3.22 1.492 6.362 2.736 9.42 3.896 7.006 2.736 13.045 5.057 17 9.948 5.637 6.88 12.642 11.108 19.487 15.087 5.395 3.233 10.63 6.3 14.655 10.694.724.746 1.45 1.575 2.093 2.487-3.382-6.632-9.018-10.528-15.138-14.673-6.442-4.477-13.125-9.036-17.956-17.243-2.9-4.974-8.374-7.13-15.3-9.782-3.14-1.244-6.362-2.487-9.743-4.145-11.113-5.47-19.406-14.507-25.445-27.77-1.53-3.4-4.026-6.798-7.167-10.196h3.382c2.577 2.984 4.67 6.05 6.04 9.12 5.798 12.85 13.528 21.304 24.237 26.527 3.302 1.658 6.523 2.9 9.582 4.062 7.086 2.736 13.206 5.14 16.507 10.86 4.5 7.792 10.95 12.186 17.232 16.496 4.026 2.82 8.052 5.554 11.354 9.036 1.046 1.078 1.932 2.238 2.818 3.482-2.98-6.383-7.81-10.28-12.723-14.258-5.878-4.725-11.997-9.616-15.62-18.9-2.174-5.637-7.65-7.71-14.574-10.445-10.63-4.145-25.204-9.782-35.27-32.247-.563-1.243-1.288-2.487-2.013-3.813h2.9c.08.166.16.332.322.497.08.166.16.332.322.497.322.58.564 1.16.886 1.74 9.582 21.553 23.03 26.776 33.9 30.92 5.233 2.072 9.984 3.896 13.125 7.295 1.207 1.244 2.174 2.736 2.898 4.56 3.382 8.62 9.26 13.346 14.897 17.823 7.408 5.97 15.057 12.02 16.507 26.94.322-2.653.322-5.057 0-7.13-1.53-10.528-7.247-17.325-13.286-24.62-4.67-5.554-9.42-11.357-12.642-19.15-2.496-6.134-8.616-8.787-16.427-12.186-10.628-4.56-23.673-10.28-34.624-27.273h2.98c10.388 15.336 22.627 20.64 32.612 24.952 5.797 2.487 11.03 4.808 14.574 8.538 1.288 1.41 2.416 2.984 3.14 4.89 3.06 7.378 7.73 13.015 12.24 18.486 6.28 7.544 12.16 14.673 13.85 25.864.322 2.072.322 4.394.08 6.88.725-2.653 1.208-5.222 1.127-7.378-.322-12.6-6.36-22.63-12.803-33.325-3.14-5.305-6.44-10.777-8.938-16.496-2.898-6.798-9.984-10.03-18.922-14.258-8.777-3.896-19.003-8.704-28.746-18.072h3.704c8.937 7.958 18.117 12.27 25.928 15.833 6.844 3.233 12.642 5.886 16.587 10.113 1.45 1.575 2.657 3.316 3.543 5.388 2.416 5.554 5.637 10.942 8.777 16.165 6.28 10.528 12.883 21.387 13.206 34.65.08 2-.323 4.228-.806 6.55 1.128-2.653 1.852-5.14 2.094-7.378 1.288-16.248-6.683-32.993-13.77-47.83-1.37-2.82-2.658-5.554-3.785-8.124-3.865-8.455-13.205-13.346-25.042-19.564l-10.8-5.803h5.234l6.764 3.565c9.018 4.725 16.668 8.704 21.74 14.092 1.852 1.99 3.38 4.145 4.51 6.632 1.127 2.57 2.415 5.223 3.784 8.124 6.845 14.34 15.46 32.247 14.01 49.158-.16 1.824-.644 3.813-1.37 5.886 1.29-2.487 2.255-4.808 2.577-6.963 3.22-18.072-4.83-43.935-13.528-62.173-3.704-7.875-12.56-12.766-23.834-18.32h5.636c6.603 3.4 12.24 6.798 16.185 11.025 1.772 1.824 3.14 3.896 4.268 6.134 4.268 9.036 17.876 40.288 13.69 63.748-.323 1.575-.886 3.316-1.61 5.057 1.37-2.238 2.416-4.476 2.9-6.383 5.234-19.564-2.013-53.55-9.34-68.4C423.384 7.046 419.68 3.4 415 .083h4.106c1.45 1.16 2.818 2.404 4.026 3.73 1.852 2 3.382 4.062 4.51 6.383 7.73 15.502 15.058 49.738 9.583 70.214a29.98 29.98 0 0 1-1.691 4.311c1.288-2.073 2.415-3.98 3.06-5.803 7.167-20.475 1.772-61.012-5.233-74.607-.725-1.492-1.69-2.9-2.738-4.228h3.06c.644.995 1.288 2 1.852 3.067 7.247 13.927 12.803 55.54 5.395 76.597-.403 1.078-.886 2.238-1.53 3.316 1.207-1.74 2.254-3.482 2.898-5.057 8.294-19.398 6.12-62.173.16-78.006h2.577c5.96 17.077 8.133 58.857-.483 79-3.784 8.787-16.507 20.807-23.03 26.36 2.9.912 6.603 3.4 10.146 7.212a42.98 42.98 0 0 1 4.509 5.803c18.278 27.77 31 73.198 31.886 83.145 0 .415.16 1.16.242 2.156.644 5.305 2.174 17.905 1.53 30.34-.886 16.082-17.554 56.12-35.027 65.24.483 3.067-.08 6.05-1.61 9.035-4.75 9.285-18.52 16-30.034 18.57-12.723 2.82-25.928 1.658-40.18-3.564-.08.248-.24.497-.322.746-2.335 5.388-8.696 19.646-48.796 19.563-4.51 0-9.5.25-14.735.58-21.822 1.492-48.475 3.067-61.44-16.33zM48.233 127.08c-1.53-.25-2.013.33-2.335 1.326-1.53 5.47 4.992 22.963 18.52 42.692 15.138 22.134 33.175 38.298 49.52 44.267 9.905 3.647 17.715 6.217 25.365 8.704l6.764 2.155 9.984 3.233c1.128.415 2.335.747 3.543 1.16 7.65 2.487 14.897 6.963 22.627 11.688 14.655 8.953 31.162 19.067 54.835 18.404.886 0 1.69-.083 2.577-.083h.483c.805-.083 1.61-.083 2.335-.166h.08c1.69-.166 3.3-.332 4.83-.58 13.69-2.24 23.2-7.958 33.82-15.42.08-.083.16-.166.242-.166.24-.166.563-.415.805-.58.16-.166.403-.25.564-.415.24-.166.483-.33.644-.497.24-.166.564-.415.805-.58.16-.083.322-.25.483-.332.242-.166.564-.414.805-.58.16-.083.323-.25.484-.332.483-.33.966-.663 1.368-.995 11.193-7.958 23.996-16.828 43.965-25.366 4.5-1.907 8.214-4.228 11.193-6.963.08-.083.16-.083.24-.166 1.208-1.16 2.336-2.404 3.302-3.73l.08-.082c1.933-2.653 3.302-5.637 3.946-8.87 2.577-12.02-3.624-25.864-9.743-35.73 3.704 8.787 6.764 20.227 3.462 30.672-2.818 8.787-9.662 15.667-20.452 20.3-18.68 8.04-31.323 16.33-42.435 23.708-15.702 10.362-28.102 18.486-48.958 19.812-17.714 1.16-31.403-4.9-43.48-10.113-5.234-2.32-9.824-4.56-14.253-6.715-7.327-3.647-14.333-7.046-22.626-9.7-15.058-4.808-25.365-8.206-41.308-14.672-15.058-6.052-31.726-21.056-45.575-41.2-11.595-16.828-18.923-33.822-17.473-40.537.242-1.16.805-2.072 1.53-2.652 0-.498-.242-.663-.564-.912zm139.06 101.217c-3.382-1.16-6.603-2.238-9.904-3.15-6.442-1.824-11.273-2.984-15.944-4.228-6.925-1.74-13.527-3.482-23.512-6.55-10.468-3.233-19.245-6.797-32.37-13.43-25.445-12.683-49.36-51.893-49.843-64.908-.08-1.4.16-2.487.564-3.316-.564-.332-1.127-.663-1.69-1.078-.322.166-.644.498-.725 1.492-1.37 11.357 25.364 57.862 55.158 71.043 13.688 6.134 23.592 9.865 36.556 13.927 9.422 2.9 15.944 5.388 23.513 8.206l14.735 5.39c2.013.663 4.026 1.492 5.96 2.155 11.192 4.145 22.788 8.538 37.12 7.046 18.36-1.824 30.92-9.45 46.783-19.15 10.87-6.632 23.2-14.092 39.94-21.387 27.377-11.937 23.43-34.568 19.566-47.086.403 11.606-1.6 31.087-27.458 42.443-14.494 6.383-26.09 12.85-36.395 18.652-16.83 9.45-30.116 16.828-47.186 19.232-13.286 2-24.237-1.658-34.866-5.305zm-6.603-17.574c-4.992-1.575-9.663-3.067-14.574-3.73-7.328-1.077-12.16-1.16-16.9-1.243-7.086-.166-13.206-.25-25.284-3.73-7.005-2-14.252-5.803-23.432-12.27-19.406-13.512-36.315-42.03-36.396-52.888-.483-.25-1.047-.498-1.6-.746-.08.83 0 2.238.564 4.3 3.543 13.595 21.74 41.532 41.227 52.806 11.273 6.548 18.922 10.113 27.377 12.6 10.95 3.233 17.07 4.062 24.157 5.057 4.75.663 9.662 1.326 16.507 2.735 4.348.912 8.696 2.32 12.883 3.648 9.743 3.15 19.89 6.383 31.645 4.227 15.138-2.735 29.3-10.03 47.186-19.232 9.34-4.808 19.97-10.28 31.887-15.584 23.2-10.362 29.632-25.947 32.45-35.397-6.2 7.792-18.36 20.724-40.422 30.754l-22.224 10.363c-20.775 9.78-38.65 18.32-53.547 21.8-11.756 2.736-21.82-.414-31.484-3.48zM69.168 136.2l.08.082s0 0 .08.083c.08 0 .08.083.16.083.08.083 7.73 7.378 17.15 9.782 12.964 3.233 24.076-2.736 33.98-7.958 2.98-1.575 5.878-3.067 8.696-4.394 6.28-2.735 12.4-4.144 18.52-1.41l2.416 1.078c12.964 5.803 37.12 16.745 56.365 8.704 20.694-8.62 32.128-21.553 39.697-30.174 1.45-1.658 2.9-3.233 4.187-4.643 4.268-4.476 10.388-6.88 17.152-6.714 3.462.083 7.085.83 10.548 2.072-10.468-5.057-20.694-4.394-27.458.083-2.335 1.575-4.912 3.647-7.972 5.97-8.535 6.714-20.29 15.916-37.845 23.128-3.623 1.492-7.57 2.487-11.998 3.233-15.7 2.487-31.162-3.316-42.435-7.544a153.21 153.21 0 0 0-5.475-1.989c-4.993-1.74-10.387-.912-17.554 2.57l-1.852.912c-12.642 6.218-25.767 12.684-40.905 9.533-4.107-.83-8.213-2.238-11.515-3.398-1.933-.664-4.026-1.327-5.314-1.658.403 1.077.805 1.906 1.288 2.57zm245.51 66.65c-16.668 7.212-28.907 14.672-39.697 21.22-16.104 9.782-28.907 17.574-47.83 19.48-14.896 1.492-26.733-2.984-38.167-7.212l-5.878-2.155-14.816-5.39c-7.57-2.818-14.092-5.305-23.352-8.206-13.044-4.062-23.03-7.876-36.88-14-18.198-8.04-33.094-26.776-40.34-37.138-10.387-15.004-17.15-30.01-16.346-36.557.16-1.244.564-2.073 1.047-2.653-.322-.25-.725-.497-1.047-.746-.725 0-1.208.33-1.45 1.41-1.127 5.14 4.992 20.973 17.07 38.547 13.608 19.73 29.793 34.485 44.448 40.37 15.944 6.383 26.17 9.782 41.147 14.6 8.455 2.735 15.54 6.217 22.95 9.864l14.09 6.715c11.837 5.14 25.203 11.025 42.354 9.948 20.21-1.327 32.37-9.285 47.75-19.48 11.192-7.378 23.915-15.833 42.837-23.957 10.066-4.394 16.507-10.694 19.084-18.735 3.624-11.357-.966-24.206-5.234-32.9 3.543 13.346 5.234 35.314-21.74 47.003zm-67.8 59.52c-.242 0-.564.083-.805.083s-.403.083-.644.083l-2.336.25c-.24 0-.402 0-.644.083-.644.083-1.288.083-1.932.166-.242 0-.483 0-.725.083-.805.083-1.69.082-2.577.082-5.314.166-10.306-.165-14.977-.994-16.668-2.736-29.55-10.61-41.227-17.74-5.717-3.482-11.112-6.798-16.587-9.285-1.852-.83-3.624-1.575-5.476-2.155l-9.34-2.984c1.288.58 2.576 1.16 3.784 1.823l4.187 2.073 3.06 1.492c6.683 3.233 13.93 7.627 21.5 13.098 13.77 9.864 22.95 15.336 34.544 17.657l4.026.746 4.67.83c5.475 1.16 10.548 1.74 15.62 1.824 4.348.082 7.89-.166 11.03-.83 5.637-1.244 12.16.994 19.003 3.315 3.382 1.16 6.764 2.322 10.146 3.068-4.026-1.575-7.97-3.814-11.836-5.886-6.684-3.73-13.045-7.212-18.6-7.295h-1.6l-1.69.25c-.08 0-.242 0-.322.083h-.162c.08.083 0 .082-.08.082zm-12.16 29.43c14.253 3.98 23.35 6.3 30.68 4.062.403-.083.805-.25 1.208-.415 1.852-.663 4.428-1.658 7.408-3.15 5.717-2.9 11.273-6.55 15.3-9.616-6.925 3.067-14.01 4.145-19.97 5.14-2.82.414-5.476.83-7.65 1.41-3.624.995-7.73 1.16-13.045.497-4.59-.497-10.065-1.657-17.553-3.564-2.98-.746-5.556-.83-8.214-.912h-1.288c-10.146-.332-18.52-3.565-38.57-21.056-4.026-3.48-9.018-7.46-14.413-11.605l-7.408-5.803-1.933-1.575c5.637 5.72 11.917 11.108 17.473 15.916 3.382 2.9 6.523 5.637 9.02 8.04 22.465 21.222 29.793 22.465 38.328 21.885 3.382-.166 6.603-.415 10.63.746zm-64.66-41.2c5.395 4.228 10.468 8.124 14.494 11.69 19.567 17.076 27.54 20.144 37.04 20.475h1.288c2.738.083 5.476.166 8.777.995 7.408 1.907 12.723 2.984 17.232 3.564 5.073.58 8.777.415 12.078-.497 2.255-.58 4.993-.995 7.89-1.492 5.637-.912 12.4-2 18.923-4.808-5.798.995-11.756.332-17.15-.166-5.073-.497-9.824-.995-13.608-.166-3.463.83-7.328 1.078-12.32.746s-10.307-1.243-16.75-2.735c-2.415-.58-4.59-.746-6.764-.995l-2.335-.25c-11.112-1.326-20.13-6.05-37.04-19.563-5.636-4.56-13.125-9.782-21.5-15.17l-.322-.25c-1.37-.83-2.577-1.658-3.865-2.487 1.77 1.575 3.865 3.233 6.442 5.305l7.488 5.803zm-8.696-10.776l.322.248c8.455 5.39 15.943 10.694 21.74 15.336 16.748 13.347 25.042 17.823 35.832 19.066l2.335.25c2.255.25 4.51.415 7.086 1.078 6.2 1.492 11.595 2.32 16.426 2.653 4.67.33 8.375.082 11.596-.664 4.187-.994 9.1-.497 14.413.083 4.6.498 9.42.995 14.172.498-4.993-.58-9.985-2.322-14.736-3.897-6.522-2.238-12.722-4.393-17.714-3.233-3.382.664-7.086.995-11.596.912-5.153-.083-10.387-.746-16.023-1.906-1.61-.332-3.14-.58-4.6-.83l-4.107-.746c-11.917-2.404-21.66-8.207-35.43-18.072-7.49-5.388-14.575-9.7-21.178-12.932l-3.06-1.492-3.624-1.74c.564.332 1.047.663 1.6 1.078 1.852 1.41 4.107 2.818 6.523 4.31zm155.648 21.22c-4.83-2.072-9.34-1.658-14 4.477-6.28 8.29-13.69 9.035-21.258 7.13.403.166.725.33 1.127.414 0 0 .08 0 .08.083.483.166 1.047.332 1.53.497 5.958 1.907 11.595 1.824 16.587-2.9a18.69 18.69 0 0 0 2.577-2.984c3.06-4.228 6.28-6.466 9.743-6.88 1.37-.165 2.496-.083 3.623.166zm45.576 6.052c26.814-27.522 23.03-48.992 17.393-66.898-1.047-3.316-2.738-6.466-4.912-9.533.966 1.906 1.77 3.813 2.335 5.72 5.556 18.817 7.247 39.54-18.28 63.83-14.332 13.595-26.25 6.798-35.832 1.41-.483-.248-.966-.58-1.45-.83 2.254 1.4 4.51 3.068 6.683 4.726 10.065 7.543 20.614 15.336 34.06 1.575zm-30.68 3.98l.483.497c2.657 2.404 5.315 4.808 8.052 6.88 8.214 6.134 16.9 8.87 27.297-2.57 27.86-30.59 23.754-52.64 17.15-72.7-1.046-3.067-2.657-6.05-4.75-8.87.885 1.658 1.6 3.316 2.093 5.057 5.878 18.652 9.824 40.95-17.956 69.467-12.48 12.932-23.27 8.373-32.37 2.24zm-55.64-4.974c8.053 2.155 15.622 2.238 22.144-5.803 8.616-10.694 17.473-5.637 26.008-.83 9.824 5.554 19.97 11.274 32.934-1.078 23.2-22.05 23.834-40.37 17.634-61.177-1.047-3.648-2.9-7.13-5.234-10.528 1.128 2.238 2.013 4.476 2.657 6.797 2.094 7.378 4.107 17.243 1.69 27.854-2.496 10.693-9.1 20.558-20.29 30.257-13.69 11.77-24.56 7.792-34.222 4.228-8.374-3.068-14.977-5.554-21.902 2.487-6.603 7.46-13.93 8.62-21.42 7.792zm2.9 3.233c8.052 2.735 15.54 2.984 21.902-5.388 5.637-7.46 11.354-7.627 17-5.223-6.36-3.15-11.917-4.145-17.715 3.067-6.44 7.958-13.688 8.953-21.177 7.544zm-5.717-6.217c8.052 1.41 15.62 1.077 22.305-6.632 8.052-9.285 16.104-6.3 24.56-3.15 9.42 3.48 19.245 7.13 31.806-3.73 23.593-20.392 22.546-38.712 17.876-55.458-1.127-3.98-3.06-7.792-5.556-11.522a40.48 40.48 0 0 1 2.979 7.875c4.026 15.585 4.912 33.988-19.003 52.39-12.964 9.947-23.27 8.372-32.45 6.963-8.133-1.243-14.494-2.238-21.097 4.725-6.683 7.046-14.01 8.622-21.42 8.54zm19.728-10.363c7.49-7.958 15.138-6.714 23.27-5.47 8.696 1.327 18.44 2.902 30.598-6.466 22.788-17.574 21.902-34.982 18.118-49.738-1.128-4.393-3.22-8.704-5.88-12.766 1.45 2.984 2.577 5.97 3.302 9.12 3.22 13.595 3.945 31.17-19.325 46.67-12.08 8.04-21.74 8.787-30.277 9.45-7.65.58-14.333 1.078-20.694 7.212-6.844 6.55-13.93 8.787-21.258 9.7 7.81.497 15.3-.497 22.144-7.7zm-2.657-3.73c7.005-6.715 14.01-7.212 22.143-7.875 8.214-.663 17.635-1.41 29.15-9.12 21.983-14.672 21.338-31.252 18.28-44.018-1.128-4.89-3.463-9.7-6.2-14.175a49.85 49.85 0 0 1 3.624 10.61c3.865 18.072-2.577 31.5-19.728 41.034-10.387 5.803-18.923 8.622-26.492 11.11-8.615 2.818-15.38 5.14-21.902 10.6-6.924 5.803-13.608 9.036-20.774 11.026 7.8-.664 14.977-2.57 21.902-9.202zm-2.577-3.813c6.925-5.803 14.252-8.3 22.707-11.025 7.408-2.487 15.863-5.223 26.01-10.943 16.265-9.036 22.143-21.22 18.52-38.215-1.127-5.306-3.463-10.61-6.2-15.42 3.462 8.124 5.556 17.16 3.704 25.615-2.094 9.533-8.858 16.745-20.21 21.636-2.577 1.078-4.993 2.238-7.408 3.316-16.427 7.792-27.54 15.668-37.524 22.797l-.724.497c-.16.166-.403.25-.564.415-.16.082-.322.248-.483.33-.322.25-.644.415-.966.663-.16.083-.242.166-.403.25-.322.25-.725.497-1.047.746-.08.083-.16.083-.24.166-5.476 3.896-10.7 7.295-16.266 10.113 7.408-2.072 14.172-5.14 21.097-10.942zm72.39-73.53c.08.083.242.166.322.332 6.04 5.057 11.918 9.948 16.75 15.087 4.51 4.808 7.972 9.782 9.824 15.253 6.522 19.813 11.112 43.604-17.635 75.188-11.595 12.766-21.82 9.367-30.518 2.818-.24-.166-.483-.33-.644-.497-.16-.083-.24-.166-.402-.332-2.497-1.99-4.912-4.145-7.167-6.217s-4.428-4.062-6.603-5.72c-3.623-2.818-7.005-4.642-10.306-4.31-2.82.332-5.476 2.24-8.133 5.886-2.335 3.4-4.992 6.466-7.81 9.285-.644.663-1.288 1.326-1.852 1.823 2.255-1.077 5.395-2.818 9.26-5.72l1.37-.912c.242-.165.483-.33.805-.497 5.073-3.316 10.55-3.98 16.588-1.824 3.623 1.244 7.247 3.233 10.307 5.637l.16.166c.08.083.24.166.322.25l.564.414c5.958 4.477 12.802 9.616 20.2 11.357 5.234 1.244 15.22 1.575 22.547-9.782 5.233-8.04 8.374-16.496 11.434-24.62l.644-1.74c5.797-15.336 5.153-34.32-1.772-51.976-2.254-5.72-6.683-11.69-13.527-18.155-5.073-4.808-10.63-9.2-16.105-13.346a254.56 254.56 0 0 1-9.662-7.709c.16.165.322.33.483.414l2.415 2.238 2.658 2.487 1.53 1.327 3.945 3.398zm.16-4.227c5.476 4.227 11.112 8.62 16.266 13.512 1.45 1.41 2.818 2.735 4.106 4.145 4.832 5.222 8.133 10.113 10.066 14.92 7.166 18.32 7.8 37.884 1.77 53.883l-.644 1.74c-3.14 8.3-6.36 16.828-11.756 25.118-5.96 9.2-15.138 13.18-25.123 10.86-7.972-1.824-14.977-7.13-21.097-11.77l-.644-.498s-.08-.083-.16-.083c-.08-.082-.242-.165-.322-.248-2.9-2.238-6.28-4.062-9.663-5.223-5.314-1.906-10.065-1.326-14.494 1.575-.24.166-.563.332-.805.498-.403.248-.805.497-1.208.83-4.6 3.316-8.535 5.554-11.514 6.714 2.335.166 6.12-.165 11.756-1.74l1.208-.248c.483-.083.885-.166 1.288-.332 4.026-1.326 10.548-2.487 18.44-.33 3.382.91 8.214 2.487 11.998 5.056l.08.083s.08.083.16.083c.16.083.322.166.402.25 6.925 4.476 15.138 9.284 24.318 10.03 8.213.664 19.325-2.487 23.834-13.346 2.013-4.974 3.302-10.528 4.6-16.33.966-4.145 1.933-8.455 3.22-12.683 4.026-13.098 3.946-36.806-4.268-55.043-2.496-5.555-7.005-11.44-13.286-17.492-6.44-6.217-13.608-11.274-19.89-15.667-4.026-2.902-7.8-5.554-10.95-8.124 3.704 3.15 7.972 6.466 12.32 9.865zm0-3.897c6.36 4.477 13.608 9.617 20.13 15.917 1.288 1.243 2.496 2.487 3.704 3.73 4.67 4.974 8.052 9.865 10.145 14.507 8.536 18.818 8.616 43.355 4.43 56.867-1.288 4.145-2.254 8.373-3.14 12.518-1.37 5.968-2.577 11.522-4.75 16.745-4.107 10.03-14.413 15.833-26.33 14.92-9.743-.746-18.278-5.803-25.445-10.445l-.08-.083s-.08-.083-.16-.083c-.16-.082-.322-.165-.403-.248-2.818-1.824-6.683-3.482-11.273-4.725-7.327-1.907-13.286-.912-17.07.33-.564.166-1.047.25-1.53.415-.322.083-.725.165-1.047.248-5.234 1.493-9.26 2-12.24 1.907 2.415 1.326 6.522 2.653 13.286 2.9.402 0 .724.083 1.127.083.564.083 1.208.083 1.77.083 5.073-.33 12.642-.58 20.21.995 6.2 1.243 10.7 2.736 13.69 4.476l.08.083c.08 0 .08.083.16.083l.483.25c7.81 4.3 17.15 8.704 27.94 8.372 10.548-.33 22.95-5.72 25.123-16.91.644-3.564.886-7.71 1.127-12.102.322-6.052.725-12.932 2.416-19.647 2.576-10.113 3.22-38.38-6.845-58.028-2.737-5.305-7.247-11.108-13.044-16.745-7.972-7.71-16.75-13.18-23.754-17.574l-5.476-3.482c2.174 1.327 4.43 2.902 6.764 4.642zm-15.46 133.464l-.16-.083c-.08 0-.08-.082-.16-.082l-.483-.25c-2.738-1.575-7.086-2.984-12.964-4.228-7.328-1.492-14.736-1.243-19.648-.995-.724.083-1.45 0-2.093-.082-.322 0-.644-.083-.966-.083-5.476-.166-9.42-1.078-12.24-2.156 2.658 2.487 6.925 5.057 13.85 6.88.322.083.644.166 1.047.33.725.25 1.53.415 2.254.58 2.175.33 5.073.58 8.294.83 4.268.33 9.02.746 13.85 1.492 5.153.83 11.515 1.99 15.38 3.98l.08.083c.08 0 .16.083.242.083.24.082.322.165.483.248 8.052 3.896 18.923 8.124 31.564 6.798 13.206-1.41 26.573-8.953 26.412-20.476 0-2.652-.403-5.803-.725-9.118-.805-7.295-1.852-16.414-.08-25.367 1.37-6.963 2.577-40.122-9.34-61.095-2.9-5.14-7.49-10.86-12.803-16-9.824-9.616-20.13-15.087-27.62-19.066-.16-.083-.242-.166-.403-.166.564.332 1.047.663 1.61.995 7.086 4.476 15.943 9.947 24.156 17.906 1.128 1.16 2.255 2.238 3.302 3.398 4.428 4.725 7.89 9.533 10.226 14 10.468 20.558 9.743 49.158 7.005 59.85-1.6 6.466-2.013 12.85-2.335 19.15-.24 4.476-.483 8.704-1.208 12.517-2.415 12.6-15.943 18.652-27.458 18.983-11.192.25-21.016-4.3-29.068-8.87zm43.643-120.615l3.14 3.15c4.107 4.393 7.65 9.118 10.065 13.43 12.4 21.968 11.112 55.375 9.583 62.836-1.69 8.538-.725 17.076.08 24.537.403 3.4.725 6.632.805 9.367.16 13.015-14.252 21.47-28.585 23.046-13.367 1.41-24.64-2.985-32.933-7.046l-.16-.083c-.08 0-.08-.083-.16-.083-.242-.083-.403-.166-.484-.25-3.543-1.824-9.662-2.9-14.655-3.73-4.67-.746-9.42-1.16-13.608-1.492-3.3-.25-6.2-.498-8.535-.83-.966-.166-1.772-.415-2.577-.664l-.966-.248c-5.314-1.4-9.18-3.316-11.998-5.223 2.82 3.316 7.167 6.88 14.172 10.03l.644.33c.967.498 2.013.912 3.14 1.327 3.865 1.326 10.306 2.072 17.15 2.818l6.925.83c6.522.83 13.205 1.74 17 3.4l.08.083c.08 0 .16.083.242.083.24.083.402.166.483.166 8.133 3.398 20.614 7.71 35.27 5.14 11.192-1.907 21.257-7.378 25.525-13.844 2.174-3.233 2.9-6.63 2.093-10.196-.402-1.907-.966-4.062-1.6-6.466-2.174-8.207-5.073-19.48-3.623-30.755.724-5.885 1.69-42.526-11.837-64.162-3.14-5.057-7.57-10.445-12.48-15.336-9.663-9.533-19.647-14.672-26.814-17.823 7.247 4.062 16.105 9.285 24.64 17.657zm-98.237 109.34c-.08-.165-.08-.414-.16-.58-5.153 3.98-10.387 7.046-14.816 9.202a61.37 61.37 0 0 1-8.133 3.481c-.402.166-.805.25-1.207.415-7.972 2.404-17.393 0-32.048-4.062-3.22-.912-5.96-.83-8.696-.663-.403 0-.806.083-1.208.083-9.18.58-17-.664-40.18-22.548-2.415-2.32-5.636-5.057-9.018-7.958-6.603-5.637-14.09-12.103-20.13-18.735-1.127-1.244-2.415-2.404-3.704-3.565 5.88 6.964 13.85 14 20.534 19.896l6.844 6.134 1.208 1.16c5.797 5.39 11.756 10.777 17.715 15.917 11.353 9.864 19.003 11.274 25.283 11.937h.16c.16 0 .403 0 .564.083 4.107.33 8.455.912 12.24 2.818 11.918 6.217 25.123 8.373 39.295 6.217 9.1-1.326 15.22-5.388 19.647-8.62-2.415-4.3-3.462-8.04-4.187-10.61zm-14.977 21.72c-14.655 2.156-28.343 0-40.744-6.466-3.543-1.823-7.65-2.32-11.273-2.57-.24 0-.403 0-.644-.083h-.16c-8.213-.83-15.943-3.233-26.653-12.518-5.958-5.14-11.998-10.528-17.795-16l-1.208-1.16c-1.933-1.824-4.348-3.896-6.844-6.052-8.938-7.875-20.05-17.574-25.848-27.024-1.53-1.078-3.14-2.073-4.75-3.067 6.442 9.284 17.313 18.9 25.767 26.36l6.2 5.47c.483.415.966.912 1.45 1.326l7.086 6.55 13.366 12.435c11.112 10.776 20.453 13.926 28.908 15.667h.16c.24.083.483.083.725.166 4.428.83 10.065 2.155 13.77 4.974 14.494 11.108 33.497 9.533 47.347 8.455l.563-.083c9.985-.83 17-3.564 20.855-5.637-4.267-3.398-7.327-6.797-9.5-9.947-4.75 3.482-11.112 7.71-20.775 9.2zm9.502 9.12l-.564.083c-14.252 1.16-33.74 2.736-48.957-8.953-3.704-2.818-9.985-3.98-12.723-4.476-.24-.083-.483-.083-.724-.166h-.16c-8.777-1.824-18.52-5.14-30.035-16.33l-13.286-12.434-7.086-6.55c-.483-.415-.966-.83-1.45-1.327-1.772-1.657-3.946-3.48-6.12-5.47-9.824-8.62-22.788-20.06-28.746-30.92l-5.315-2.985c7.006 10.61 19.486 21.554 28.827 29.843l5.96 5.306c.563.497 1.127.994 1.6 1.492l2.335 2.155c7.89 7.295 15.38 14.258 20.694 19.895 11.112 11.855 22.144 16.414 32.45 19.48l.966.25c5.556 1.575 11.756 3.564 15.218 7.13 13.045 13.18 33.417 11.937 49.844 10.942 2.335-.165 4.51-.248 6.683-.33 11.273-.498 19.89-2.487 26.25-6.217-1.6-.498-2.98-.995-4.187-1.658-3.22-1.658-6.04-3.482-8.536-5.223-3.945 2.155-11.595 5.47-22.948 6.466zm9.42 9.036l-6.603.33c-16.83.995-37.845 2.32-51.695-11.605-3.462-3.482-10.95-5.554-14.172-6.466l-.966-.25c-10.63-3.233-22.063-7.875-33.578-20.227-5.234-5.554-12.642-12.434-20.533-19.812l-2.335-2.155c-.483-.498-1.047-.995-1.6-1.492l-5.96-5.306c-10.548-9.284-25.042-22.05-31.565-34.07l-5.636-3.068c7.73 11.772 21.5 23.875 31.806 32.9l5.878 5.223 1.852 1.658.644.58c9.26 8.54 18.842 17.408 24.962 24.455 12.562 14.507 27.297 19.978 35.993 23.294.322.083.645.248 1.047.414h.08c4.51 1.575 12.883 4.477 16.587 9.202 12.48 15.667 35.5 14.258 54.03 13.18 3.946-.248 7.57-.414 11.032-.497 18.68-.332 31.162-4.228 38.006-12.02-6.844-.663-13.044-1.41-18.037-2.487-6.683 5.14-16.265 7.71-29.23 8.207zM66.27 127.412a88.73 88.73 0 0 0 .725 3.565c1.45.083 3.623.83 6.925 1.907 3.22 1.077 7.247 2.487 11.273 3.316 14.333 2.984 26.492-2.985 39.295-9.285l1.852-.912c7.73-3.813 13.688-4.642 19.406-2.652a154.64 154.64 0 0 1 5.475 1.989c11.03 4.145 26.17 9.782 41.227 7.378 4.268-.663 8.052-1.658 11.434-3.067 17.232-7.047 28.827-16.165 37.282-22.797 3.06-2.404 5.636-4.394 8.052-6.05 6.603-4.394 16.185-5.472 26.25-1.824-9.823-4.808-19.486-5.057-26.41-2.404-4.67 1.824-10.065 4.642-16.185 8.04-8.052 4.393-18.117 9.782-30.518 14.755-3.382 1.327-7.086 2.487-11.675 3.565-14.897 3.482-28.747-.746-39.86-4.145-2.737-.83-5.314-1.658-7.65-2.238-5.154-1.326-10.7-.332-17.393 3.15-16.426 8.456-29.15 11.108-42.515 8.87-1.047-.166-2.174-.332-3.3-.58-4.6-.663-12.4-2.073-13.69-.58zm-.644-5.72l.242 3.15c2.98-1.16 8.455-.166 14.574.83 1.127.165 2.174.414 3.22.58 12.803 2.072 25.042-.497 40.986-8.704 7.247-3.73 13.286-4.808 19.083-3.316 2.416.58 4.993 1.41 7.73 2.238 10.87 3.316 24.398 7.46 38.65 4.062 4.51-1.078 8.052-2.155 11.354-3.4 12.32-4.974 22.304-10.362 30.276-14.672 6.28-3.4 11.675-6.3 16.507-8.124 6.764-2.57 15.943-2.57 25.284 1.16-9.582-4.974-19.003-6.217-26.01-5.223-9.985 1.41-21.097 5.97-35.268 11.688l-12.48 4.974c-3.704 1.41-7.408 2.653-11.032 3.73l-.322.083c-14.252 4.56-27.297 1.41-37.845-1.16-3.302-.83-6.442-1.575-9.26-2-5.315-.83-10.95.332-17.232 3.73-15.38 8.207-28.022 8.953-42.193 7.378-11.595-1.243-15.3.83-16.265 2.985zm-.08-5.555v2c2.98-2.155 8.535-2.818 16.75-1.907 13.77 1.493 25.928.83 40.825-7.13 6.764-3.647 12.883-4.89 18.68-3.98 2.98.498 6.12 1.244 9.502 2.073 10.71 2.57 22.868 5.554 36.556 1.16l.323-.083c3.542-1.16 7.246-2.32 10.87-3.73l12.48-4.974c14.333-5.803 25.606-10.362 35.832-11.77 6.603-.912 15.138-.083 24.076 3.813-8.052-4.56-16.668-7.295-25.203-7.792-12.964-.746-27.62 2.404-48.796 10.528-1.29.497-2.577.995-3.866 1.41l-7.166 2.736c-13.85 5.555-25.686 3.398-36.074 1.575-3.704-.663-7.247-1.326-10.63-1.575-5.475-.415-11.03.995-17 4.31-14.252 7.875-25.686 7.046-35.75 6.3l-6.12-.414c-5.717-.166-13.045 1.658-15.3 7.46zm.564-7.377l-.242 2.404c3.784-3.896 9.985-5.223 14.977-4.974 2.013.083 4.107.25 6.2.414 10.226.746 20.775 1.575 34.383-5.968 6.36-3.565 12.4-5.057 18.36-4.642 3.543.25 7.086.912 10.87 1.575 10.146 1.824 21.58 3.813 34.786-1.41l7.166-2.736c1.29-.497 2.577-.912 3.785-1.41 21.58-8.207 36.396-11.357 49.762-10.694 7.57.415 15.22 2.487 22.466 6.052-7.65-4.725-15.782-8.124-24.076-10.03-15.863-3.565-32.21-2.155-49.843 4.394-4.026 1.492-7.49 2.984-10.63 4.476-13.447 6.55-24.64 5.222-34.544 4.062-4.026-.497-7.89-.912-11.756-.912-5.717.083-11.193 1.658-16.83 4.89-13.286 7.626-23.835 6.217-32.3 5.057-3.3-.415-6.442-.83-9.26-.663-4.43.332-10.387 2.238-13.286 10.114zm4.912-47.086c1.933 8.207 2.818 17.99 0 28.434 5.073-5.554 10.8-4.31 17.554-2.818 3.704.83 7.81 1.74 12.48 1.575-1.127-.25-2.255-.663-3.463-1.078-11.03-4.31-20.13-15.502-26.572-26.113zm110.96 12.27c-13.125 7.544-23.35 6.963-33.255 6.466-3.543-.166-7.006-.414-10.55-.25-5.878.332-11.917 1.658-18.842 5.72-13.286 7.875-23.27 5.637-31.403 3.896-9.34-2.072-14.977-3.316-20.614 11.937 3.865-4.3 8.777-5.305 11.917-5.47s6.28.25 9.743.746c8.535 1.16 18.198 2.404 30.76-4.808 6.04-3.482 11.917-5.14 18.037-5.222 4.026-.083 7.89.415 12.078.912 10.065 1.16 20.453 2.404 33.256-3.896 3.22-1.575 6.763-3.067 10.87-4.56 18.118-6.715 34.866-8.207 51.212-4.477 7.086 1.575 14.172 4.31 20.855 8.04-6.522-4.476-13.286-8.207-20.13-11.025-22.788-9.367-45.495-8.62-63.935 2zm44.77-18.652c-13.205-3.316-22.787 3.482-32.933 10.777 16.265-5.14 34.624-3.98 53.064 3.565 15.702 6.383 30.357 16.91 43.482 31.004.805.83 1.53 1.658 2.335 2.57-19.728-28.6-45.898-40.454-65.948-47.915zm68.04 62.422c-7.89-9.036-17.875-14.26-27.296-14.507-4.993-.083-9.502 1.243-13.126 3.896-.805.58-1.6 1.326-2.254 1.99-1.288 1.327-2.657 2.902-4.107 4.56-7.73 8.704-19.406 21.967-40.583 30.754-20.21 8.373-44.93-2.735-58.217-8.704-.805-.414-1.6-.746-2.416-1.078-7.8-3.48-15.782.83-25.123 5.72-8.615 4.56-18.197 9.7-29.31 9.12 9.42 1.326 18.036-1.492 26.41-4.228 5.314-1.74 10.306-3.316 15.218-3.813 3.704-.332 7.006.083 10.307 1.326 7.086 2.736 17.795 6.798 31.082 9.285 8.696 1.658 18.842 2.984 28.263 0 5.878-1.824 10.95-4.062 15.46-6.715 10.307-6.05 18.037-13.346 24.237-19.232l5.96-5.554c11.917-10.362 31.484-8.87 46.54 3.565 8.133 6.797 16.427 10.942 23.1 13.843-6.925-4.144-15.62-10.528-24.157-20.226zm-.483 8.62c-14.09-11.69-32.37-13.18-43.4-3.648-1.852 1.575-3.865 3.482-5.96 5.472-6.28 5.968-14.09 13.346-24.64 19.563-4.67 2.736-9.904 5.057-15.944 6.964-9.904 3.15-20.452 1.823-29.4.082-13.528-2.57-24.318-6.714-31.484-9.45-2.9-1.077-5.878-1.492-9.18-1.16-4.67.414-9.582 1.99-14.735 3.73-9.34 3.067-19.81 6.466-31.484 3.565 10.71 4.06 20.855 2.818 30.76 1.657 4.107-.497 8.052-.994 11.917-.994 3.624-.083 6.925.414 10.146 1.492 9.34 3.067 18.44 5.222 31.565 7.46l1.208.165c9.1 1.575 18.44 3.15 27.216 1.244 6.2-1.327 11.193-3.067 15.702-5.47 9.26-4.974 17.07-11.11 23.915-16.58l7.8-6.05c12.48-9.202 31.243-9.782 46.703-1.492 9.1 4.89 17.956 7.295 24.962 8.62-7.247-3.067-16.507-7.544-25.687-15.17zm26.09 17.657c-7.166-1.327-16.91-3.73-26.652-9.036-14.655-7.875-32.37-7.378-44.126 1.326-2.497 1.824-4.993 3.814-7.73 5.97-6.925 5.554-14.816 11.77-24.237 16.828-4.67 2.487-9.905 4.31-16.346 5.72-9.18 1.99-18.843.332-28.103-1.244l-1.207-.165c-13.206-2.24-22.466-4.394-31.887-7.544-2.98-.995-6.04-1.41-9.34-1.41-3.704.083-7.57.497-11.675.995-10.307 1.243-21.902 2.652-34.14-2.653 13.206 7.958 26.813 8.704 38.973 9.284 1.208.083 2.335.083 3.463.166 3.462.166 6.763.746 10.065 1.658 7.57 2.155 14.01 3.067 22.868 4.228l9.1 1.326c2.255.332 4.6.746 6.844 1.16 7.49 1.326 14.655 2.57 21.74 1.74 6.36-.747 11.434-2.073 16.024-4.31 8.455-4.062 16.346-9.367 23.915-14.424l9.26-6.052c12.803-8.124 31.162-10.693 46.783-6.466 9.904 2.653 19.325 3.068 26.41 2.902zm-27.055-.498c-14.977-3.98-32.61-1.575-44.93 6.218l-9.18 6.05c-7.65 5.14-15.54 10.445-24.237 14.6-4.75 2.32-10.145 3.73-16.748 4.476-7.408.83-15.058-.497-22.385-1.74l-6.764-1.16-9.1-1.326c-8.938-1.244-15.46-2.156-23.2-4.31-3.14-.912-6.2-1.41-9.583-1.575-1.127-.083-2.335-.166-3.462-.166-12.803-.663-27.216-1.41-41.308-10.445 15.46 13.264 32.612 17.243 41.63 18.486 3.302.415 6.603 1.078 9.985 1.824 6.442 1.492 11.273 1.824 17.393 2.238 4.187.25 8.937.58 15.057 1.41 3.704.498 7.328 1.244 10.87 2 6.12 1.243 11.917 2.487 17.795 2.32 6.442-.083 11.595-1.078 16.265-3.067 8.133-3.4 16.346-8.124 25.123-13.098l9.502-5.305c13.286-7.295 30.76-11.606 46.863-11.44 10.7.083 20.292-1.492 27.297-2.984-7.166.166-16.748-.25-26.894-2.985zm-132.7 51.894c5.717.58 11.273 2.238 16.588 3.896 9.662 2.984 18.68 5.803 29.31 2.653 24.882-7.46 85.515-34.402 112.087-49.573-7.086 2.736-16.104 5.72-26.01 8.124-16.346 3.98-33.255 9.865-46.46 16.248l-4.51 2.155c-11.676 5.554-22.627 10.86-31.726 14.176-5.314 1.906-10.87 2.57-17.553 1.99-5.154-.414-10.307-1.74-15.3-2.984-4.43-1.16-9.1-2.32-13.69-2.82-7.086-.746-12.16-.746-16.588-.663-5.314.083-9.904.083-16.507-1.16l-6.844-1.41-2.98-.58c-13.206-2.735-29.39-13.678-41.71-28.102 9.985 15.916 26.09 32.496 38.892 35.977 12.642 3.482 18.52 2.902 25.284 2.24 4.51-.415 9.663-.912 17.715-.166zm-39.778-12.435l2.98.58 6.844 1.41c6.28 1.243 10.8 1.16 16.024 1.078 4.51-.083 9.662-.083 16.91.663 4.75.58 9.502 1.74 14.01 2.9 4.83 1.244 9.904 2.487 14.897 2.9 6.36.498 11.595-.082 16.587-1.906 9.02-3.233 19.97-8.54 31.565-14.093l4.51-2.155c13.367-6.383 30.437-12.352 46.944-16.414 10.95-2.652 20.614-5.968 27.7-8.87-7.006 1.492-16.427 2.9-26.734 2.818-15.46-.083-33.013 4.228-45.736 11.19l-9.42 5.305c-8.777 4.974-17.15 9.7-25.364 13.18-4.993 2.073-10.468 3.15-17.152 3.233-6.2.083-12.32-1.16-18.358-2.404-3.543-.746-7.167-1.492-10.7-1.907-6.04-.746-10.71-1.077-14.896-1.41-5.96-.414-11.193-.746-17.796-2.32-3.3-.746-6.442-1.41-9.743-1.824-16.024-2.072-31.323-8.953-43.24-19.315 11.837 14.176 27.538 24.787 40.18 27.356zm216.685-33.987c-.08-.083-.242-.166-.323-.166.323.497.645.912.967 1.41.24.25.402.497.644.746-.483-.663-.886-1.326-1.288-1.99zM207.183 204.34c-11.273 3.398-21.178.33-30.68-2.653-5.234-1.658-10.63-3.316-16.105-3.813-7.73-.746-12.64-.25-17.392.166-7.006.663-13.045 1.243-26.09-2.322-19.084-5.305-45.415-38.464-49.36-57.447-.242-.083-.564-.25-.966-.415 1.127 10.777 17.312 37.22 35.268 49.74 9.02 6.3 16.024 9.947 22.707 11.937 11.756 3.398 17.796 3.48 24.72 3.647 4.6.083 9.744.166 17.152 1.327 5.073.746 10.145 2.32 14.977 3.813 9.42 2.984 19.164 5.968 30.276 3.4 14.574-3.4 32.45-11.855 53.064-21.637l22.304-10.362c20.21-9.2 31.887-20.807 38.248-28.516-23.35 14.673-90.345 44.847-118.125 53.137zm135.035-53.054s0 .083.08.083c0-.083-.08-.083-.08-.083zm-11.515.663c-2.818 9.367-9.662 26.278-33.9 37.055-11.836 5.305-22.465 10.776-31.806 15.502-17.392 8.952-32.37 16.662-47.83 19.48-12.4 2.238-22.787-1.077-32.853-4.3-4.348-1.4-8.374-2.736-12.64-3.565-6.845-1.41-11.676-2.072-16.346-2.736-7.167-.994-13.367-1.823-24.48-5.14-9.904-2.984-18.36-7.295-27.86-12.85-20.05-11.523-38.81-40.37-42.435-54.298-.644-2.652-.805-4.642-.483-6.134-.564-.332-1.127-.58-1.69-.912a4.25 4.25 0 0 0-.242 1.99c.242 6.217 6.36 18.983 14.977 31.17 6.04 8.62 18.52 24.123 33.497 31.667 12.964 6.548 21.66 10.113 31.967 13.263 9.985 3.067 16.185 4.642 23.432 6.466l16.024 4.228c3.382.912 6.764 2.072 10.065 3.233 10.307 3.48 21.016 7.13 33.74 5.388 16.587-2.32 29.712-9.616 46.3-18.9 10.307-5.803 22.063-12.352 36.557-18.735 25.767-11.523 26.652-31.17 26.008-41.863zm36.88 3.233c4.83 1.575 11.273 4.31 18.198 9.12-3.06-6.052-1.37-11.357 3.704-18.652-7.086 5.305-14.333 8.455-21.902 9.533zm33.175-20.3l-.322.415c-15.3 19.232-19.003 23.79-5.153 36.557 18.68 17.326 22.868 32.662 25.203 45.345.483 2.32.886 4.642 1.288 7.046.08.25.08.497.16.663 1.45 7.295 1.69 13.678 1.852 19.73l.16 8.87c.08 3.233.323 6.63.725 10.196.644 4.642 1.69 9.533 2.98 14.6-1.046-9.616-.483-17.99 0-26.196.564-8.455 1.128-16.496-.322-25.283l-.322-2.238c-2.093-13.678-4.51-29.18-21.5-46.174-14.333-14.424-10.95-28.93-.805-47.83.402-.83.885-1.658 1.288-2.487-1.69 2.57-3.462 4.808-5.234 6.797zm6.12-2.9c-11.434 21.304-11.354 33.076.402 44.764 17.554 17.574 20.05 33.5 22.224 47.583l.323 2.238c1.45 9.12.885 17.243.322 25.864-.645 9.533-1.29 19.315.724 31.086 0-9.036 1.29-17.574 2.577-25.864 1.53-10.196 2.98-19.812 1.852-29.262-1.45-11.937-4.67-26.693-17.876-45.18-10.468-14.673-12.964-34.07-7.005-54.63l2.174-7.46-5.717 10.86zm9.1-13.595l-3.22 10.86c-5.717 19.813-3.3 38.464 6.683 52.474 13.528 18.983 16.83 34.07 18.36 46.34 1.208 9.782-.322 19.564-1.852 29.926-1.37 9.202-2.818 18.57-2.496 28.6 1.127-6.88 2.818-13.843 4.51-20.724 3.22-13.098 6.2-25.45 5.315-36.06-1.047-12.683-5.154-25.2-13.85-41.863-7.086-13.678-14.252-38.713-13.206-61.51l.403-7.544c.08-.912.08-1.824.16-2.653-.322.664-.564 1.4-.805 2.156zm2.98.663c-.16 2.238-.24 4.808-.403 7.543-1.046 22.3 5.96 46.837 12.884 60.184 8.857 16.993 13.125 29.842 14.172 42.857.886 11.026-2.174 23.626-5.395 36.89-1.852 7.544-3.704 15.336-4.83 22.714.322-.995.724-1.907 1.127-2.9 6.36-17.077 15.138-40.37 14.574-55.127-.644-16.165-4.106-29.76-9.743-38.38-8.535-13.015-17.07-55.8-19.486-68.556-.966-5.14-1.852-8.952-2.657-11.605 0 1.824-.08 3.98-.242 6.383zm5.395 4.808c2.416 12.683 10.8 54.96 19.084 67.644 5.878 8.953 9.5 23.045 10.145 39.707.645 15.253-7.89 37.884-14.735 56.12l-1.45 3.98c10.226-15.42 21.58-43.438 21.66-58.61.08-14.755-2.9-29.096-5.717-35.148-2.174-4.56-5.073-14.092-8.696-26.112-4.67-15.336-10.55-34.485-16.75-49.24-2.335-5.47-4.67-9.202-6.603-11.523 1.29 4.31 2.496 10.114 3.06 13.18zm42.596 110.17c.644-12.186-.886-24.538-1.53-29.843-.16-1.078-.24-1.824-.24-2.238-.806-9.533-13.69-55.044-31.484-81.985-3.543-5.306-7.247-8.622-10.227-10.528 2.255 2.9 4.6 6.963 6.603 11.688 6.28 14.922 12.16 34.07 16.83 49.5 3.463 11.44 6.522 21.304 8.616 25.78 2.98 6.3 6.04 21.055 5.96 36.226-.08 15.584-11.757 44.266-22.224 60.1 14.252-13.43 26.974-45.345 27.7-58.69zm-64.74 90.523c10.95-2.404 23.995-8.704 28.424-17.325 1.77-3.4 1.932-6.88.563-10.362-.563-1.4-1.046-2.82-1.6-4.228-4.6-11.69-6.522-20.807-7.408-28.848-.322-2.238-.564-4.477-.644-6.715v-3.4l-.16-5.802c0-.995 0-2.073-.08-3.068-.322-7.046-.966-13.678-1.852-19.812-.24-1.243-.483-2.404-.644-3.647l-.725-4.062c-2.415-11.274-6.04-20.642-10.8-27.522-2.013-2.902-6.2-8.54-12.24-14.6-9.5-9.202-19.003-14.175-25.928-16.745 6.844 3.316 15.3 8.372 23.593 16.496l2.98 2.985c3.865 4.144 7.328 8.538 9.904 12.766 13.93 22.216 12.964 59.85 12.16 65.82-1.37 10.776 1.53 21.802 3.624 29.76.644 2.404 1.208 4.642 1.6 6.55.886 4.227 0 8.29-2.496 12.185-5.636 8.54-18.198 13.347-27.216 14.922-15.3 2.653-28.264-1.74-36.638-5.305l-.16-.083c-.08 0-.16-.083-.24-.083-.242-.083-.403-.166-.484-.166-3.543-1.575-10.065-2.404-16.345-3.233l-6.925-.746c-7.006-.746-13.61-1.492-17.715-2.9-1.208-.415-2.255-.912-3.302-1.4l-.644-.33c-5.073-2.32-8.857-4.808-11.675-7.295 3.543 4.725 9.18 9.864 18.36 14.672 5.556 2.902 17 3.98 26.09 4.89 7.57.746 14.735 1.4 18.68 2.82l.885.33c13.93 5.057 26.653 6.218 39.054 3.482zM298.575 341.95c5.314-.33 10.307-.58 14.816-.58 38.57 0 44.368-13.18 46.542-18.154l.24-.498c-3.543-.994-9.26-1.575-15.38-2.155-7.086 9.202-20.534 13.844-40.906 14.258a278.11 278.11 0 0 0-10.951.498c-19.083 1.077-42.757 2.487-56.043-14.093-3.3-4.145-11.514-6.963-15.46-8.372h-.08c-.403-.166-.806-.332-1.128-.415-11.595-4.393-25.042-10.196-37.04-24.04-6.04-6.963-15.62-15.75-24.8-24.29l-.644-.58-1.852-1.658-5.878-5.222c-11.595-10.197-27.297-24.04-34.544-37.304-.805-.497-1.6-.912-2.415-1.41-.967-.415-2.013-.746-3.06-1.244 8.535 12.85 23.432 25.947 34.544 35.646l7.97 7.13c10.55 9.782 21.5 19.812 28.264 28.185 12.4 15.17 28.02 22.05 39.455 27.107l.16.083c.483.25 1.128.498 1.852.746 4.912 2 13.93 5.72 17.474 11.026 12.158 18.07 36.96 16.58 58.86 15.335z" fill="#f9f7f7"/></svg>