<svg xmlns="http://www.w3.org/2000/svg" width="50" height="50" fill="#fff" xmlns:v="https://vecta.io/nano"><path d="M28 25v9.273c0 .492-.238.727-.73.727h-3.535c-.496 0-.734-.234-.734-.723V15.7c0-.47.246-.7.7-.7h3.574c.477 0 .715.242.715.723V25zm3 2.488v-6.754c0-.504.234-.734.742-.734h3.535c.48 0 .723.238.723.715v13.57c0 .476-.242.715-.723.715h-3.555c-.488 0-.723-.238-.723-.734V27.49zm-16 2.504v-4.254c0-.508.235-.738.743-.738h3.514c.508 0 .743.23.743.734v8.512c0 .53-.227.754-.762.754h-3.495c-.508 0-.743-.23-.743-.734v-4.273z"/></svg>