<svg width="50" height="50" viewBox="0 0 50 50" fill="none" xmlns="http://www.w3.org/2000/svg">
<path d="M21.1525 20.2436C20.6453 20.2856 20.1993 20.4303 19.7907 20.6916C19.4761 20.8923 19.1474 21.0463 18.7624 21.0463C18.2224 21.0463 17.7763 20.8549 17.5039 20.379C17.2269 19.889 17.2926 19.3944 17.5979 18.9464C17.734 18.7457 17.9265 18.5684 18.1285 18.4284C18.7671 17.9804 19.4198 17.5465 20.0772 17.1311C20.9646 16.5665 21.8991 16.5245 22.81 17.0472C25.4772 18.5777 28.1443 20.1083 30.788 21.6809C31.7177 22.2315 32.9198 22.1522 33.657 21.4102C33.8965 21.1676 34.1595 20.9389 34.4365 20.7383C34.953 20.365 35.5212 20.3183 36.1035 20.5796C36.6576 20.8269 36.9487 21.2749 36.9957 21.8769C37.0238 22.2829 36.9158 22.6562 36.6388 22.9548C35.9063 23.7434 35.1925 24.5554 34.4083 25.288C33.7275 25.9227 32.8729 26.1046 31.9619 25.8293C31.1777 25.5913 30.3982 25.33 29.6188 25.0827C29.492 25.0407 29.3652 25.008 29.2337 24.9847C28.7266 24.9054 28.3838 25.2274 28.4636 25.7313C28.5106 26.0113 28.5998 26.2866 28.6843 26.562C28.9989 27.5792 29.3276 28.5918 29.6282 29.6091C29.9334 30.6311 29.7596 31.5877 29.1163 32.4323C28.1162 33.7389 27.0925 35.0221 26.0735 36.3147C25.6791 36.8187 25.1485 37.0614 24.5099 36.9867C23.458 36.87 22.965 35.7641 23.552 34.8542C23.9558 34.2335 24.3831 33.6316 24.8104 33.0249C25.5007 32.0356 25.5805 31.0044 25.0499 29.9218C24.6507 29.1098 23.89 28.9232 23.1763 29.4925C21.7347 30.6404 20.3026 31.7977 18.8657 32.9503C17.7951 33.8089 16.7245 34.6722 15.6538 35.5308C15.3017 35.8154 14.9072 35.9741 14.4518 35.9881C13.3858 36.0161 12.7284 35.1248 13.1088 34.1309C13.1933 33.9022 13.3436 33.6876 13.4985 33.5009C16.4568 29.9684 19.4245 26.4406 22.3874 22.9128C22.5048 22.7775 22.6222 22.6422 22.7208 22.4928C23.2045 21.7462 22.9415 20.8316 22.1245 20.4863C21.8146 20.365 21.4718 20.323 21.1525 20.2436Z" fill="white"/>
<path d="M30.4546 18.8157C29.1069 18.8204 28.0269 17.7471 28.0222 16.4032C28.0222 15.0873 29.1116 14.0047 30.4452 14C31.7834 13.9953 32.8728 15.078 32.8775 16.4172C32.8822 17.7285 31.7928 18.8111 30.4546 18.8157Z" fill="white"/>
</svg>
