<svg xmlns="http://www.w3.org/2000/svg" width="50" height="50" fill="none" xmlns:v="https://vecta.io/nano"><path d="M25.502 14.005h7.383c1.385.005 2.54.84 2.953 2.136a3.24 3.24 0 0 1 .153.932l.005 15.08a3.08 3.08 0 0 1-3.055 3.073c-1.105.005-2.205.01-3.3-.005a.89.89 0 0 0-.825.438l-2.77 3.973c-.35.5-.718.49-1.07-.01l-2.816-4.035c-.173-.252-.377-.365-.677-.36l-3.36.005c-1.73-.005-3.096-1.36-3.1-3.11l-.01-15.028a3.06 3.06 0 0 1 3.091-3.088L23.618 14l1.884.005zm2.342 15.456v-1.776c0-.49.158-.654.637-.654h3.488c.453 0 .616-.165.616-.618v-3.5c0-.484-.163-.643-.647-.65h-3.386c-.57 0-.713-.14-.713-.705v-3.474c0-.437-.173-.613-.6-.613H23.75c-.443 0-.61.175-.61.628v3.5c0 .504-.158.67-.652.67H19.05c-.5 0-.657.16-.657.66v3.448c0 .5.158.66.657.66h3.412c.524 0 .677.154.677.695v3.526c0 .38.183.57.56.57h3.6c.36 0 .545-.2.545-.56l.01-1.806z" fill="#fff"/></svg>