<svg width="50" height="50" viewBox="0 0 50 50" fill="none" xmlns="http://www.w3.org/2000/svg">
<path d="M24.3189 21.1659C24.2421 20.695 24.2063 20.2651 24.1039 19.8505C23.7866 18.5709 23.1417 17.45 22.3381 16.4213C21.9235 15.889 21.4629 15.3976 21.0278 14.8858C20.9511 14.7988 20.8692 14.7118 20.7719 14.6094C21.033 14.3586 21.2735 14.1283 21.5653 13.8468C22.2255 14.6196 22.8653 15.372 23.5153 16.1346C24.4724 14.5787 25.6599 13.2838 27.6099 13.0381C29.1915 12.8385 30.558 13.4476 31.8939 14.2972C29.8415 16.7284 27.3182 17.7981 24.1141 17.1327C24.8307 18.402 25.3272 19.6969 25.3528 21.2068C25.7776 21.0891 26.1973 21.0328 26.5658 20.869C27.1032 20.6336 27.5946 20.3009 28.1217 20.045C29.4218 19.4103 30.7474 19.3284 32.0474 20.0194C32.9636 20.5056 33.5676 21.2938 33.9975 22.2202C34.6526 23.6431 34.7448 25.1172 34.407 26.6424C33.8542 29.1657 33.0097 31.5713 31.6687 33.7875C31.0801 34.7548 30.3994 35.6454 29.4627 36.3159C28.8229 36.7714 28.1217 37.0785 27.3182 36.971C27.0674 36.9403 26.8166 36.8175 26.5811 36.7049C26.3406 36.5821 26.1154 36.4183 25.8902 36.2698C25.1532 35.7887 24.4212 35.7938 23.6893 36.2801C23.5665 36.362 23.4385 36.4285 23.3259 36.5155C22.4149 37.2065 21.4834 37.0939 20.5467 36.5821C19.7073 36.1214 19.0727 35.4305 18.5148 34.6678C17.3273 33.0402 16.534 31.213 15.9045 29.3141C15.4848 28.0448 15.0907 26.755 15.0139 25.414C14.9013 23.4333 15.4643 21.6828 17.0254 20.3674C17.9262 19.6099 18.9959 19.4564 20.1321 19.6048C20.8794 19.7021 21.5243 20.0399 22.1487 20.4289C22.7322 20.7922 23.3566 21.0635 24.0476 21.1454C24.1039 21.1454 24.1602 21.1505 24.3189 21.1659Z" fill="white"/>
</svg>
