<svg xmlns="http://www.w3.org/2000/svg" width="50" height="50" fill="#fff" xmlns:v="https://vecta.io/nano"><path d="M29.034 26.895l-3.173-6.42-3.065 6.188-2.87-4.347-.155.213-1.6 2.422c-.094.147-.197.213-.374.208a245.9 245.9 0 0 0-3.744 0c-.206 0-.304-.057-.374-.25-.856-2.3-.964-4.617-.047-6.916.692-1.74 1.88-3.013 3.655-3.666.9-.326 1.816-.336 2.747-.293 1.923.08 3.365 1.07 4.563 2.502l.388.454.796-.894c.814-.88 1.74-1.6 2.925-1.86 1.933-.426 3.804-.355 5.475.885 1.24.922 2.026 2.17 2.447 3.647.6 2.115.435 4.2-.36 6.225-.066.166-.173.15-.295.15-1.652 0-3.3.005-4.96-.005-.197 0-.332.057-.468.2l-1.52 1.556zm-14.51.718H16.4l2.2.005c.187.005.295-.06.393-.218l.735-1.12c.15-.222.243-.222.393 0l2.738 4.15c.033.052.07.1.13.18l2.873-5.804 2.76 5.577.197-.2 2.42-2.436c.07-.07.183-.137.27-.137l3.837-.005c.028 0 .056.01.122.02l-.15.274c-1.2 2.025-2.733 3.756-4.418 5.36-1.792 1.708-3.734 3.226-5.737 4.66-.094.066-.164.114-.286.028-2.55-1.835-5.007-3.8-7.17-6.093-1.142-1.216-2.176-2.512-3.023-3.96l-.164-.3z"/></svg>