<svg xmlns="http://www.w3.org/2000/svg" width="50" height="50" fill="none" xmlns:v="https://vecta.io/nano"><path d="M31.37 27.883c-.91 0-1.837-.103-2.734.022-1.63.227-2.86 1.577-2.993 3.103-.14 1.658.785 3.095 2.393 3.7.91.337 1.34 1.122 1.082 2.003-.178.61-.6.983-1.222 1.093-2.363.41-4.682.227-6.898-.697-4.186-1.746-6.8-4.834-7.742-9.242-1.408-6.602 3.156-13.335 9.846-14.612 6.616-1.262 12.854 2.516 14.714 8.905.837 2.875-1.274 5.655-4.304 5.67h-2.15a.25.25 0 0 1 .007.066zm-5.705-12.587c-1.09-.007-2.008.902-2.008 1.973 0 1.078.92 1.98 2.008 1.98 1.067 0 1.978-.895 1.993-1.96.007-1.064-.91-1.988-1.993-1.995zM22.05 30.648a1.98 1.98 0 0 0-1.978-1.995c-1.09-.007-1.978.866-1.986 1.944-.007 1.108.86 1.995 1.956 2 1.097.022 2-.865 2.008-1.958zm7.21-11.07c0 1.086.882 1.96 1.978 1.96 1.11 0 1.993-.88 1.986-1.988-.007-1.086-.89-1.95-1.978-1.958a1.97 1.97 0 0 0-1.985 1.988zm-7.21-.007c-.007-1.108-.897-1.988-2-1.98-1.09.015-1.97.895-1.97 1.973 0 1.1.882 1.973 2 1.973 1.09 0 1.97-.888 1.97-1.966zm-6.283 5.494c-.022 1.086.83 1.973 1.934 1.995 1.096.03 2.015-.83 2.037-1.892.022-1.115-.837-2.017-1.934-2.04-1.12-.015-2.015.83-2.037 1.936z" fill="#fff"/></svg>