<?xml version="1.0" encoding="utf-8"?>
<!-- Generator: Adobe Illustrator 24.2.3, SVG Export Plug-In . SVG Version: 6.00 Build 0)  -->
<svg version="1.1" xmlns="http://www.w3.org/2000/svg" xmlns:xlink="http://www.w3.org/1999/xlink" x="0px" y="0px"
	 viewBox="0 0 1000 1000" style="enable-background:new 0 0 1000 1000;" xml:space="preserve">
<style type="text/css">
	.st0{fill:#FFFFFF;}
	.st1{fill:#D9D9DB;}
	.st2{fill:none;stroke:#57585A;stroke-width:0.75;stroke-linecap:round;stroke-linejoin:round;stroke-miterlimit:10;}
	.st3{fill:#F3A183;}
	.st4{fill:#F7BFB2;}
	.st5{fill:#F3A183;stroke:#57585A;stroke-width:0.75;stroke-linecap:round;stroke-linejoin:round;stroke-miterlimit:10;}
	.st6{fill:#999BA1;stroke:#57585A;stroke-width:0.75;stroke-linecap:round;stroke-linejoin:round;stroke-miterlimit:10;}
	.st7{fill:#F7BFB1;}
	.st8{fill:#F7AE9B;}
	.st9{fill:#F79E86;}
	.st10{fill:#FE917A;}
	.st11{fill:#F3A184;}
	.st12{fill:#F69277;}
	.st13{fill:#B7B8BD;}
	.st14{fill:#ACADB2;}
	.st15{fill:#98999D;}
	.st16{fill:#38383A;}
	.st17{fill:none;stroke:#57585A;stroke-width:2;stroke-linecap:round;stroke-linejoin:round;stroke-miterlimit:10;}
	.st18{fill:none;stroke:#F78669;stroke-width:0.75;stroke-linecap:round;stroke-linejoin:round;stroke-miterlimit:10;}
	.st19{fill:#F7723F;}
	.st20{fill:#57585A;}
	.st21{fill:#838489;}
	.st22{fill:#6C6D71;}
	.st23{fill:#F78669;}
	.st24{fill:#E8EAFF;}
	.st25{fill:none;stroke:#38383A;stroke-width:2;stroke-linecap:round;stroke-linejoin:round;stroke-miterlimit:10;}
	.st26{fill:#161719;}
	.st27{fill:#EF4D22;stroke:#EF4D22;stroke-width:0.75;stroke-linecap:round;stroke-linejoin:round;stroke-miterlimit:10;}
	.st28{fill:#D93F16;stroke:#D93F16;stroke-width:0.75;stroke-linecap:round;stroke-linejoin:round;stroke-miterlimit:10;}
	.st29{fill:#FFFFFF;stroke:#57585A;stroke-width:0.75;stroke-linecap:round;stroke-linejoin:round;stroke-miterlimit:10;}
	.st30{fill:#9B9CA1;}
	.st31{fill:#A1A2A7;}
	.st32{fill:#BDBEC4;}
	.st33{fill:#464648;}
	.st34{fill:#DADADB;}
	.st35{fill:#F58321;}
	.st36{fill:#E67717;}
	.st37{fill:#F9A55D;}
	.st38{fill:#80C0B2;}
	.st39{fill:none;stroke:#4FA592;stroke-width:0.75;stroke-linecap:round;stroke-linejoin:round;stroke-miterlimit:10;}
	.st40{fill:#4FA592;}
	.st41{fill:none;stroke:#57585A;stroke-linecap:round;stroke-linejoin:round;stroke-miterlimit:10;}
	.st42{fill:#545557;}
</style>
<g id="Layer_2">
	<g>
		<path class="st0" d="M674.46,562.28V417.59h-46.81v144.69H619V417.59h-46.81v144.69h-21.51l0.22-0.22l-22.49-87.3l20.7-105.26
			c0.02-0.08,0.02-0.16,0.03-0.24h132.8V147.22H497.06v213.2h-37.27h0h-8.84c-6.69,0-12.45,4.73-13.74,11.3l-25.6,130.16
			c-0.93,4.7,2.68,9.08,7.47,9.08h14.84h0h65.53l6.16,38.96h-21.33c-9.65,0-18.95,3.62-26.06,10.14l-2.19,2.01l0.83,0.22h-7.26
			l0.23-0.22l-5.22-8.01c-3.68-5.65-10.19-8.78-16.9-8.14l-32.01,3.05c-6.2,0.59-11.66,4.33-14.46,9.89l-1.61,3.21l0.28,0.22h-78.96
			v290.98h402.11V562.28H674.46z"/>
		<rect x="360.23" y="206.72" class="st0" width="116.6" height="116.6"/>
	</g>
</g>
<g id="Layer_5">
	<g>
		<g>
			<path class="st1" d="M681.94,350.32c-15.11-27.69-40.6-30.4-70.29-32.64c-33.99-2.57-44.13-45.3-85.64-44.26
				c-27.13,0.68-28.95,16.47-28.95,16.47c0,12.81,0,50.51,0,70.53h44.58c4.79,0,8.4,4.38,7.47,9.08l-0.74-0.24h133.57V350.32z"/>
		</g>
		<polyline class="st2" points="497.06,294.99 497.06,147.22 681.94,147.22 681.94,361.32 		"/>
		<g>
			<g>
				<g>
					<path class="st3" d="M616.06,234.53c0.36-1.31,0.07-6.34-3.64-7.79l0,0c0.28-1.57-0.15-2.99-0.94-3.79
						c-0.82-0.82-1.91-1.18-3.7-0.95l0.06-0.01c2.69-3.2,1.39-10.76-4.07-10.78l-0.04,0.01c1.83-1.47,0.42-4.97-2.69-5.47
						c-1.02-0.16-1.91-0.04-2.68,0.3l0.16-0.13c-0.8-5.21-9.03-4.11-9.03,1.7c0-5.81-8.22-6.91-9.03-1.7l0.12,0.13
						c-0.76-0.33-1.63-0.45-2.64-0.29c-3.11,0.49-4.52,4-2.69,5.47l-0.04-0.01c-5.45,0.02-6.76,7.57-4.07,10.77
						c-1.76-0.22-2.83,0.16-3.64,0.97c-0.79,0.79-1.23,2.22-0.94,3.79l0,0c-3.72,1.46-4.01,6.48-3.64,7.79
						c-2.11,1.02-2.4,6.7,0,14.51c2.13,6.93,6.04,10.07,11.07,9.93v-1.03c1.14,2.3,3.58,3.93,7.01,3.95
						c5.79,0.02,8.49-4.73,8.49-9.61c0,4.88,2.7,9.63,8.49,9.61c3.43-0.01,5.86-1.64,7.01-3.95v1.03c5.02,0.15,8.93-3,11.07-9.93
						C618.47,241.23,618.18,235.55,616.06,234.53z"/>
					<g>
						<path class="st4" d="M616.06,234.53c0.36-1.31,0.07-6.34-3.64-7.79l0,0c0.28-1.57-0.15-2.99-0.94-3.79
							c-0.82-0.82-1.91-1.18-3.7-0.95l0.06-0.01c2.69-3.2,1.39-10.76-4.07-10.78l-0.04,0.01c1.83-1.47,0.42-4.97-2.69-5.47
							c-1.02-0.16-1.91-0.04-2.68,0.3l0.16-0.13c-0.8-5.21-9.03-4.11-9.03,1.7c0-4.62-5.19-6.25-7.72-4.11
							c-2.43,6.46-2.54,14.34,0.27,22.02c5.45,14.88,19.77,23.32,31.99,18.85c1.23-0.45,2.38-1.02,3.47-1.68
							C618.13,238.26,617.55,235.24,616.06,234.53z"/>
					</g>
					<g>
						<path class="st2" d="M589.5,216.95c0,0,0-5.83,0-9.34c0-5.81-8.22-6.91-9.03-1.7"/>
						<path class="st2" d="M584.04,216.39c0.9-5.31-1.02-11.44-6.08-10.64c-4.31,0.68-5.4,7.17,0.96,5.97"/>
						<path class="st2" d="M574.44,216.87c0.96-1.09,3.55-1.64,4.64,0.94c1.08,2.56,2.25,3.79,4.24,4.52
							c2.51,0.92,6.18-0.59,6.18-5.37"/>
						<path class="st2" d="M575.23,211.21c-5.45,0.02-6.76,7.57-4.07,10.78"/>
						<path class="st2" d="M567.99,229.66c-2.11-2.5-1.76-5.43-0.48-6.72c1.53-1.53,4.01-1.53,10.27,1.17
							c6.26,2.69,6.7,5.9,5.9,7.79s-3.64,2.04-5.24,1.53"/>
						<line class="st2" x1="589.5" y1="234.82" x2="589.5" y2="228.32"/>
						<path class="st2" d="M578.22,229.36c-3.64-1.53-7.91-0.41-7.43,5.83c0.36,4.66,3.88,7.05,8.83,7.48
							c3.05,0.27,8.62,0.67,9.88,4.89"/>
						<path class="st2" d="M567.44,239.04c0.07-4.3-2.4-5.53-4.51-4.51c-2.11,1.02-2.4,6.7,0,14.51c2.13,6.93,6.04,10.07,11.07,9.93
							"/>
						<path class="st2" d="M566.48,244.23c3.93,0,4.79,2.39,4.55,4.48c-0.25,2.18-2.61,4.04-2.61,4.04"/>
						<path class="st2" d="M566.57,226.73c-3.72,1.46-4.01,6.48-3.64,7.79"/>
						<path class="st2" d="M576.94,237.26c1.04,0.53,2.02,0.78,2.53,0.8"/>
						<path class="st2" d="M582.81,237.26c4.37-2.59,6.69,0,6.69,4c0,2.69,0,6.3,0,6.3"/>
						<path class="st2" d="M585.47,251.68c0.26-2.53-1.78-4.63-4.28-4.75c-2.64-0.13-5.8,1.28-7.19,4.46
							c-2.23,5.08,0.76,10.46,7.01,10.49c5.79,0.02,8.49-4.73,8.49-9.61"/>
						<path class="st2" d="M578.21,253.81c0.66,2.24,3.68,2.47,5.61,1.01"/>
						<path class="st2" d="M581.76,226.45c2.14,1.08,5.07-0.38,5.07-0.38"/>
						<path class="st2" d="M589.5,216.95c0,0,0-5.83,0-9.34c0-5.81,8.22-6.91,9.03-1.7"/>
						<path class="st2" d="M594.96,216.39c-0.9-5.31,1.02-11.44,6.08-10.64c4.31,0.68,5.4,7.17-0.96,5.97"/>
						<path class="st2" d="M604.55,216.87c-0.96-1.09-3.55-1.64-4.64,0.94c-1.08,2.56-2.25,3.79-4.24,4.52
							c-2.51,0.92-6.18-0.59-6.18-5.37"/>
						<path class="st2" d="M603.76,211.21c5.45,0.02,6.76,7.57,4.07,10.78"/>
						<path class="st2" d="M611,229.66c2.11-2.5,1.76-5.43,0.48-6.72c-1.53-1.53-4.01-1.53-10.27,1.17c-6.26,2.69-6.7,5.9-5.9,7.79
							s3.64,2.04,5.24,1.53"/>
						<path class="st2" d="M600.77,229.36c3.64-1.53,7.91-0.41,7.43,5.83c-0.36,4.66-3.88,7.05-8.83,7.48
							c-3.05,0.27-8.62,0.67-9.88,4.89"/>
						<path class="st2" d="M611.55,239.04c-0.07-4.3,2.4-5.53,4.51-4.51c2.11,1.02,2.4,6.7,0,14.51
							c-2.13,6.93-6.04,10.07-11.07,9.93"/>
						<path class="st2" d="M612.51,244.23c-3.93,0-4.79,2.39-4.55,4.48c0.25,2.18,2.61,4.04,2.61,4.04"/>
						<path class="st2" d="M612.42,226.73c3.72,1.46,4.01,6.48,3.64,7.79"/>
						<path class="st2" d="M602.05,237.26c-1.04,0.53-2.02,0.78-2.53,0.8"/>
						<path class="st2" d="M596.18,237.26c-4.37-2.59-6.69,0-6.69,4c0,2.69,0,6.3,0,6.3"/>
						<path class="st2" d="M593.52,251.68c-0.26-2.53,1.78-4.63,4.28-4.75c2.64-0.13,5.8,1.28,7.19,4.46
							c2.23,5.08-0.76,10.46-7.01,10.49c-5.79,0.02-8.49-4.73-8.49-9.61"/>
						<path class="st2" d="M600.78,253.81c-0.66,2.24-3.68,2.47-5.61,1.01"/>
						<path class="st2" d="M597.23,226.45c-2.14,1.08-5.07-0.38-5.07-0.38"/>
						<line class="st2" x1="589.5" y1="224.6" x2="589.5" y2="218.1"/>
					</g>
				</g>
			</g>
		</g>
		<line class="st2" x1="564.69" y1="166.35" x2="614.3" y2="166.35"/>
		<g>
			<g>
				<g>
					<path class="st5" d="M656.31,213.32c-1.66-5.57-4.45-9.75-9.25-15.2l4.99-1.17c4.8,5.44,7.59,9.62,9.25,15.2"/>
					<g>
						<g>
							<g>
								<path class="st3" d="M661.76,183.75l-0.98,2.52c1.52-4.57-2.2-8.03-7.09-6.89l0.42-0.22c-3.85-4.32-14.78-5.86-20.95,1.81
									l1.63,0.98c-4.19-2.22-9.55,1.87-8.82,5.15l0,0c-1.3,0.81-2.45,2.12-2.83,3.93c-0.7,3.41,1.96,6.24,4.49,5.47
									c0.73,4.8,7.77,2.31,7.77,2.31c0.35,4.76,7.84,5.74,10.92,3.99c0,0,4.69,4.84,10.65,0.81c0,0,5.14,2.93,9.11-0.74
									c1.75-1.62,1.98-3.73,1.19-5.31C671.49,193.41,669.05,186.06,661.76,183.75z"/>
								<g>
									<path class="st2" d="M661.12,195.86c5.46-2.31,8.76,3.5,4.97,7.01c-3.97,3.67-9.11,0.74-9.11,0.74
										c-5.95,4.03-10.65-0.81-10.65-0.81c-3.08,1.75-10.57,0.77-10.92-3.99c0,0-7.04,2.49-7.77-2.31
										c-0.63-4.16,3.22-6.83,3.22-9.22s-6.71-1.15-7.72,3.75c-0.7,3.41,1.96,6.24,4.49,5.47"/>
									<path class="st2" d="M663.65,199.71c-3.85,1.33-10.02-1.12-6.09-6.52c3.92-5.39,9.13-2.39,7.47,2.38"/>
									<path class="st2" d="M647.82,199.3c2.94,2.29,7.14,1.67,8.6-2.04"/>
									<path class="st2" d="M653.21,192.18c0.41,3.15-3.02,4.03-5.39,1.8c-2.26-2.12-4.06-3.03-7.36-0.5
										c-4.69,3.59,0.15,8.2,4.97,3.01"/>
									<path class="st2" d="M654.61,188.15c2.66-2.45,7.29-2.1,7.5,1.82"/>
									<path class="st2" d="M655.98,183.38c-7.61,0.77-8.8,11.95,3.08,8.18"/>
									<path class="st2" d="M660.46,187.1c2.97-6.47-4.48-11.22-11.67-5.12"/>
									<path class="st2" d="M646.76,184.23c-6.09,4.49-2.45,10.97,3.43,5.46"/>
									<path class="st2" d="M640.62,188.54c-3.89,0.55-6.87,4.21-7.06,6.64"/>
									<path class="st2" d="M638.14,189.35c-0.55-3.51-5.72-2.66-7.97,0"/>
									<path class="st2" d="M634.8,181.95c-4.19-2.22-9.55,1.87-8.82,5.15"/>
									<path class="st2" d="M639.48,181.95c2.57-1.75,6.02-2.65,10.71-1.32"/>
									<path class="st2" d="M635.54,186.34c0.7-1.11,0.78-1.52,1.82-2.59"/>
									<path class="st2" d="M654.12,179.16c-3.85-4.32-14.78-5.86-20.95,1.81"/>
									<path class="st2" d="M640.62,185.28c2.23-0.92,4.79,0.14,4.79,0.14"/>
									<path class="st2" d="M667.29,197.56c4.2-4.15,1.76-11.49-5.53-13.81"/>
								</g>
								<g>
									<path class="st6" d="M654.12,179.16c-2.87-2.76-5.96-3.55-8.71-3.55c-4.18,0-3.7,4.8-0.25,4.41
										c1.29-0.15,3.15,0.02,5.35,0.72c0,0,1.72-1.14,3.73-1.46L654.12,179.16z"/>
									<path class="st6" d="M630.88,187.27c0-2.38-6.71-1.15-7.72,3.75c-0.7,3.41,1.96,6.24,4.49,5.47
										C627.03,192.33,630.88,189.65,630.88,187.27z"/>
									<path class="st6" d="M659.06,191.56c-4.93,1.69-8.37,0.46-8.77-1.93c0,0-1.87,1.89-3.76,2.14c0,0,1.04,3.8,5.43,4.97
										c2.43,0.65,4.31-0.5,4.31-0.5S656.13,194.15,659.06,191.56"/>
								</g>
							</g>
						</g>
					</g>
				</g>
				<g>
					<line class="st2" x1="628.51" y1="238.15" x2="663.88" y2="238.15"/>
					<line class="st2" x1="628.51" y1="248.49" x2="649.88" y2="248.49"/>
					<line class="st2" x1="628.51" y1="258.82" x2="656.88" y2="258.82"/>
					<line class="st2" x1="628.51" y1="269.16" x2="639.88" y2="269.16"/>
					<line class="st2" x1="628.51" y1="279.49" x2="651.88" y2="279.49"/>
					<line class="st2" x1="628.51" y1="289.83" x2="639.88" y2="289.83"/>
				</g>
			</g>
			<g>
				<g>
					<path class="st5" d="M542.91,213.32c-1.66-5.57-4.45-9.75-9.25-15.2l4.99-1.17c4.8,5.44,7.59,9.62,9.25,15.2"/>
					<g>
						<g>
							<g>
								<path class="st3" d="M548.36,183.75l-0.98,2.52c1.52-4.57-2.2-8.03-7.09-6.89l0.42-0.22c-3.85-4.32-14.78-5.86-20.95,1.81
									l1.63,0.98c-4.19-2.22-9.55,1.87-8.82,5.15l0,0c-1.3,0.81-2.45,2.12-2.83,3.93c-0.7,3.41,1.96,6.24,4.49,5.47
									c0.73,4.8,7.77,2.31,7.77,2.31c0.35,4.76,7.84,5.74,10.92,3.99c0,0,4.69,4.84,10.65,0.81c0,0,5.14,2.93,9.11-0.74
									c1.75-1.62,1.98-3.73,1.19-5.31C558.09,193.41,555.65,186.06,548.36,183.75z"/>
								<g>
									<path class="st2" d="M547.72,195.86c5.46-2.31,8.76,3.5,4.97,7.01c-3.97,3.67-9.11,0.74-9.11,0.74
										c-5.95,4.03-10.65-0.81-10.65-0.81c-3.08,1.75-10.57,0.77-10.92-3.99c0,0-7.04,2.49-7.77-2.31
										c-0.63-4.16,3.22-6.83,3.22-9.22s-6.71-1.15-7.72,3.75c-0.7,3.41,1.96,6.24,4.49,5.47"/>
									<path class="st2" d="M550.25,199.71c-3.85,1.33-10.02-1.12-6.09-6.52c3.92-5.39,9.13-2.39,7.47,2.38"/>
									<path class="st2" d="M534.42,199.3c2.94,2.29,7.14,1.67,8.6-2.04"/>
									<path class="st2" d="M539.81,192.18c0.41,3.15-3.02,4.03-5.39,1.8c-2.26-2.12-4.06-3.03-7.36-0.5
										c-4.69,3.59,0.15,8.2,4.97,3.01"/>
									<path class="st2" d="M541.21,188.15c2.66-2.45,7.29-2.1,7.5,1.82"/>
									<path class="st2" d="M542.58,183.38c-7.61,0.77-8.8,11.95,3.08,8.18"/>
									<path class="st2" d="M547.07,187.1c2.97-6.47-4.48-11.22-11.67-5.12"/>
									<path class="st2" d="M533.36,184.23c-6.09,4.49-2.45,10.97,3.43,5.46"/>
									<path class="st2" d="M527.22,188.54c-3.89,0.55-6.87,4.21-7.06,6.64"/>
									<path class="st2" d="M524.74,189.35c-0.55-3.51-5.72-2.66-7.97,0"/>
									<path class="st2" d="M521.4,181.95c-4.19-2.22-9.55,1.87-8.82,5.15"/>
									<path class="st2" d="M526.08,181.95c2.57-1.75,6.02-2.65,10.71-1.32"/>
									<path class="st2" d="M522.14,186.34c0.7-1.11,0.78-1.52,1.82-2.59"/>
									<path class="st2" d="M540.72,179.16c-3.85-4.32-14.78-5.86-20.95,1.81"/>
									<path class="st2" d="M527.22,185.28c2.23-0.92,4.79,0.14,4.79,0.14"/>
									<path class="st2" d="M553.89,197.56c4.2-4.15,1.76-11.49-5.53-13.81"/>
								</g>
							</g>
						</g>
					</g>
				</g>
				<g>
					<line class="st2" x1="518.11" y1="238.15" x2="529.48" y2="238.15"/>
					<line class="st2" x1="518.11" y1="248.49" x2="547.48" y2="248.49"/>
					<line class="st2" x1="518.11" y1="258.82" x2="539.48" y2="258.82"/>
					<line class="st2" x1="518.11" y1="269.16" x2="543.48" y2="269.16"/>
					<line class="st2" x1="518.11" y1="279.49" x2="529.48" y2="279.49"/>
					<line class="st2" x1="518.11" y1="289.83" x2="539.48" y2="289.83"/>
				</g>
			</g>
		</g>
		<line class="st2" x1="608.08" y1="296.54" x2="570.91" y2="296.54"/>
		<line class="st2" x1="557.96" y1="304.74" x2="621.03" y2="304.74"/>
		<g>
			<path class="st2" d="M623.4,357.59c0,0,2.04-8.39,2.6-11.56c0.97-5.45,12.89-2.98,15.88-12.06c3.37-10.26-8.76-19.78-21.45-14.82
				c-12.68,4.95-17.64,17.15-10.83,19.22c3.7,1.12,8.68-1.38,12.21-6.74c2.8-4.24,10.9-4.95,11.69-0.59s-11.03,5.17-12.46,10.04
				c-3.77,12.83-4.4,16.52-4.4,16.52"/>
			<path class="st2" d="M619.3,324.45c-3.68,1.44-6.21,3.69-7.45,5.89"/>
			<path class="st2" d="M610.3,339.84c0.3,6.67,7.06,7.22,9.03,5.41"/>
		</g>
		<g>
			<path class="st2" d="M555.59,357.59c0,0-2.04-8.39-2.6-11.56c-0.97-5.45-12.89-2.98-15.88-12.06
				c-3.37-10.26,8.76-19.78,21.45-14.82c12.68,4.95,17.64,17.15,10.83,19.22c-3.7,1.12-8.68-1.38-12.21-6.74
				c-2.8-4.24-10.9-4.95-11.69-0.59c-0.79,4.36,11.03,5.17,12.46,10.04c3.77,12.83,4.4,16.52,4.4,16.52"/>
			<path class="st2" d="M559.69,324.45c3.68,1.44,6.21,3.69,7.45,5.89"/>
			<path class="st2" d="M568.69,339.84c-0.3,6.67-7.06,7.22-9.03,5.41"/>
		</g>
	</g>
	<path class="st1" d="M545.17,746.22c64.66,1.05,157.89-53.82,157.89-90.64s0-78.48,0-78.48H545.17V746.22z"/>
	<g>
		<g>
			<g>
				<g>
					<path class="st1" d="M619,420.87v141.19h8.65V417.59C624.08,417.59,621.3,418.8,619,420.87z"/>
				</g>
				<polyline class="st2" points="627.65,417.59 674.46,417.59 674.46,562.06 				"/>
				<ellipse class="st1" cx="651.05" cy="531.44" rx="7.63" ry="13.44"/>
				<path class="st1" d="M529.03,477.19l21.86,84.87h21.29V417.59C550.24,417.59,557.53,463.14,529.03,477.19z"/>
				<line class="st2" x1="572.19" y1="417.59" x2="619" y2="417.59"/>
				<ellipse class="st1" cx="595.59" cy="531.44" rx="7.63" ry="13.44"/>
			</g>
			<g>
				<path class="st2" d="M550.89,562.06L521.71,448.8c-1.57-6.09-7.06-10.34-13.35-10.34h-32.14"/>
				<g>
					<path class="st1" d="M426.45,501.88l25.6-130.16c1.29-6.57,7.05-11.3,13.74-11.3h-14.84c-6.69,0-12.45,4.73-13.74,11.3
						l-25.6,130.16c-0.93,4.7,2.68,9.08,7.47,9.08h14.84C429.13,510.96,425.53,506.58,426.45,501.88z"/>
				</g>
				<path class="st1" d="M458.61,510.96h40.84l-9.62-60.87c-1.06-6.7-6.83-11.63-13.61-11.63h0L458.61,510.96z"/>
				<path class="st2" d="M459.79,360.42h81.85c4.79,0,8.4,4.38,7.47,9.08l-20.7,105.26"/>
				<path class="st2" d="M421.28,510.96h78.18l6.16,38.96h-21.33c-9.65,0-18.95,3.62-26.06,10.14l-2.19,2.01"/>
				<line class="st2" x1="491.64" y1="461.46" x2="505.61" y2="549.91"/>
				<path class="st2" d="M449.83,562.06l-5.22-8.01c-3.68-5.65-10.19-8.78-16.9-8.14l-32.01,3.05c-6.2,0.59-11.66,4.33-14.46,9.89
					l-1.61,3.21"/>
			</g>
		</g>
		<g>
			<line class="st2" x1="703.06" y1="853.26" x2="703.06" y2="628.76"/>
			<line class="st2" x1="300.95" y1="853.26" x2="300.95" y2="628.76"/>
		</g>
		<g>
			<line class="st2" x1="531.17" y1="648.33" x2="429.28" y2="648.33"/>
			<circle class="st2" cx="480.22" cy="611.68" r="7.05"/>
			<line class="st2" x1="531.17" y1="724.93" x2="429.28" y2="724.93"/>
			<circle class="st2" cx="480.22" cy="688.28" r="7.05"/>
			<line class="st2" x1="531.17" y1="801.54" x2="429.28" y2="801.54"/>
			<circle class="st2" cx="480.22" cy="764.89" r="7.05"/>
			<line class="st2" x1="545.17" y1="577.46" x2="545.17" y2="810.14"/>
			<line class="st2" x1="415.28" y1="577.46" x2="415.28" y2="607.11"/>
		</g>
		<g>
			<path class="st7" d="M717.69,590.73c12.57-28.67,35.1-73.75,40.15-78.17s14.14,45.54,14.14,45.54l-40.36,34.67L717.69,590.73z"/>
			<path class="st8" d="M768.05,539c-15.24,7.92-27.56,16.12-37.2,23.25c-4.79,9.95-9.42,19.94-13.16,28.48l13.93,2.04l40.36-34.67
				C771.98,558.11,770.33,549.05,768.05,539z"/>
		</g>
		<g>
			<g>
				<path class="st9" d="M364.7,531.44c18.15,5.67,32.28-1.84,39.79,1.16c7.51,3,19.33,12.01,19.33,14.26s-4.73,4.04-20.45-2.25
					c-5.63-2.25-15.82,11.17-28.57,11.17c-9.01,0-12.8-8.35-31.15-9.77"/>
				<g>
					<path class="st10" d="M356.65,542.03c-3.23,1.75-5.47,3.34-7.03,4.76c13.34,2.51,17.24,8.99,25.17,8.99
						c4.03,0,7.8-1.34,11.26-3.1C379.77,540.79,369.48,535.08,356.65,542.03z"/>
				</g>
			</g>
			<g>
				<path class="st11" d="M409.14,680.11c0,0-41.78,104.1-44.78,129.41c-0.79,6.67,7.94,15.29,15.88,22.51
					c2.8,2.55,5.97,4.09,8.49,5.38c12.3,6.29,14.22,15.86,5.19,15.86c-9.02,0-28.16,0-33.62,0c-5.47,0-17.22-11.48-17.22-11.48
					l-4.37,11.48h-10.39c0,0-3.01-6.83-6.01-19.14c-2.26-9.23,4.14-15.68,6.62-19.65c2.91-4.67,6.98-11.96,7.51-13.72
					c11.35-38.12,3.62-95.25,12.93-117.47"/>
				<path class="st12" d="M353.18,805.09c6.08-18,2.27-42.71-9.43-72.01c-0.66,22.62-1.38,47.74-7.32,67.68
					c-0.52,1.76-4.59,9.05-7.51,13.72c-2.22,3.56-7.58,9.13-7.03,16.9C331.54,828.59,348.8,818.07,353.18,805.09z"/>
				<g>
					<path class="st1" d="M388.73,837.41c-1.74-0.89-3.66-2.06-5.69-3.42c-23.82,12.84-31.19,3.44-38.05-3.68
						c-6.38-6.62-8.59-13.45-17.46-13.8c-2.86,4.01-7.14,9.82-5.23,17.63c3.01,12.3,6.01,19.14,6.01,19.14h10.39l4.37-11.48
						c0,0,11.75,11.48,17.22,11.48c5.47,0,24.6,0,33.62,0S401.04,843.7,388.73,837.41z"/>
				</g>
				<g>
					<path class="st13" d="M321.71,830.17c0.07,1.21,0.24,2.52,0.59,3.96c3.01,12.3,6.01,19.14,6.01,19.14h10.39
						C334.4,842.6,332.52,834.02,321.71,830.17z"/>
				</g>
			</g>
			<g>
				<path class="st11" d="M350.78,713.02c16.68,40.73,57.68,91.58,59.6,98.69s-6.83,10.11-3.83,22.42
					c3.01,12.3,6.01,19.14,6.01,19.14h10.39l4.37-11.48c0,0,11.75,11.48,17.22,11.48c5.47,0,24.6,0,33.62,0
					c9.02,0,7.11-9.57-5.19-15.86s-33.74-26.34-38-33.62c-8.47-14.49-38.82-144.61-38.82-144.61"/>
				<g>
					<path class="st12" d="M413.73,731.35c-9.19-36.22-17.57-72.18-17.57-72.18l-45.38,53.85c8.37,20.45,22.87,43.44,35.49,62.18
						C395.97,770.37,407.52,753.95,413.73,731.35z"/>
					<path class="st12" d="M421.72,826.2c4.36-12.82-2.89-20.67-16.27-22.96c2.77,4.17,4.56,7.12,4.93,8.47
						c1.71,6.34-5.05,9.42-4.41,18.73C421.21,830.75,421.72,826.2,421.72,826.2z"/>
				</g>
				<path class="st1" d="M472.98,837.41c-1.74-0.89-3.66-2.06-5.69-3.42c-23.82,12.84-31.19,3.44-38.05-3.68
					c-6.75-7.01-8.82-14.26-19.08-13.8c-1.52,4.41-5.86,8.41-3.61,17.63c3.01,12.3,6.01,19.14,6.01,19.14h10.39l4.37-11.48
					c0,0,11.75,11.48,17.22,11.48c5.47,0,24.6,0,33.62,0S485.28,843.7,472.98,837.41z"/>
				<g>
					<path class="st13" d="M405.96,830.17c0.07,1.21,0.24,2.52,0.59,3.96c3.01,12.3,6.01,19.14,6.01,19.14h10.39
						C418.64,842.6,416.77,834.02,405.96,830.17z"/>
				</g>
			</g>
			<g>
				<path class="st14" d="M208.33,600.89c-18.78-63.57-58.57-168.66-64.42-184.93c-10.52-27.12-12.1-38.51-24.25-38.51H70.63
					l91.88,307.67h49.03C211.55,685.12,219.24,635.34,208.33,600.89z"/>
				<g>
					<path class="st15" d="M208.33,600.89c-8.94-30.27-22.65-69.96-35.19-104.99c-27.79-18.92-50.94-17.81-66.15,3.31l55.52,185.91
						h49.03C211.55,685.12,219.24,635.34,208.33,600.89z"/>
				</g>
			</g>
			<path class="st16" d="M275.3,320.75c3.64,10.1,16.17,21.27,12.76,36.75c-3.32,15.05-20.53,19.7-30.64,8.76"/>
			<path class="st16" d="M235.96,325.27c4.72-0.74,18.95-5.52,18.95-5.52c20.6,0.74,5.03-4.76,9.71-5.32
				c13.35-1.58-1.41,11.61,22.11-1.06c4.96-2.56,10.95-14.02,5.57-23.59c-7.94-14.15-24.57-9.68-35.98-5.96
				c-11.42,3.72-18.12-3.47-31.77,0c-13.65,3.47-17.12,17.37-18.36,26.06c-1.24,8.69-21.59,20.03-21.59,37.23
				c0,12.16,9.06,25.08,27.7,27.64c15.54,2.13,25.57-4.29,27.21-13.26c2.04-11.13-1.87-18.41-9.32-20.65"/>
			<g>
				<path class="st9" d="M327.73,493.6c0,0,16.25-38.95,20.46-48.76s7.39-15.86,16.73-18.3c9.34-2.44,16.06-5.52,17.18-4.68
					s1.4,6.73-6.17,9.53c0,0,8.97,1.84,14.01,0.16s10.89-8.81,15.66-6.85c4.76,1.96-0.8,15.18-10.33,21.9
					c-6.05,4.27-25.5,3.72-25.5,3.72c-2.27,2.84-8.13,34.87-8.13,34.87"/>
				<g>
					<path class="st10" d="M348.19,444.84c-1,2.33-2.68,6.3-4.65,11l22.73,6.46c1.34-5.92,2.66-10.94,3.5-11.98
						C357.93,448.72,348.19,444.84,348.19,444.84L348.19,444.84z"/>
				</g>
				<path class="st18" d="M361.91,438.92c6.25-7.62,19.03,2.03,23.83,2"/>
			</g>
			<path class="st1" d="M364.91,531.44c5.41-14.85,17.18-68.94,17.18-68.94l-33.91-17.66c-4.2,9.81-20.46,48.76-20.46,48.76
				c-4.48-1.68-7.01,1.68-7.01,1.68s-22.42-23.54-32.51-35.59s-2.24-7.57-12.63-33.15c-10.39-25.58-19.87-39.95-36.09-44.72
				s-26.07-5.85-29.71-1.64s-10.17,14.5-10.17,14.5c-16.55,5.92-23.88,21.73-22.24,46.26c0,0-6.19,108.18-6.19,128.82
				c0,20.65-16.28,49.45-5.22,78.12c4.84,12.55,22.62,37.24,61.08,37.24s76.34,0,87.26,0c0,0-54.64,47.76,16.6,52.62
				s125.88-38.86,125.88-38.86s-4.78-19.18-18.21-51.41c-12.47-29.91-28.02-35.22-104.93-44.52c-29.55-3.58-49.2-5.54-62.56-6.88
				l-3.21-33.82c18.71,0,85.08,0,85.08,0L364.91,531.44z"/>
			<g>
				<g>
					<path class="st9" d="M260.62,296.75c-4.3,0.51,6.15,14.12-12.76,13.44c0,0-7.29,14.58-11.62,15.26
						c-4.33,0.68-2.65-5.66-8.66-6.15c-5.65-0.46-8.47,4.96-7.75,10.25c0.72,5.26,4.4,9.5,10.33,11.28
						c4.76,1.43,8.07,4.93,9.31,10.17c0.08,0.32,0.15,0.65,0.21,0.97c0.02,0.13,0.05,0.25,0.07,0.38c0.05,0.29,0.08,0.59,0.11,0.88
						c0.28,2.44,0.19,5.19-0.37,8.24c-1.46,7.94-9.49,13.87-22.08,13.65l-0.17,2.31c7.07,5.01,21.49,9.22,36.43,10.73
						c0.23-5.97,0.81-13.55,1.23-18.6c4.79,2.3,9.07,2.31,11.87,0.07c4.56-3.65,13.44-14.12,14.58-24.6s-0.22-19.04,1.14-26.83
						C285,303.82,274.07,295.16,260.62,296.75z"/>
				</g>
				<path class="st19" d="M291.81,453.08c-1.82-14.92-33.87-43.27-37.93-56.09c-0.36-1.14-0.37-4.57-0.21-8.8
					c-14.94-1.51-29.37-5.73-36.43-10.73l-0.7,9.38c4.3,3.46,24.93,12.06,38.64,48.61c9.41,25.09,5.76,44.42,5.76,44.42L273.48,500
					l9.65,2.54C285.41,477.63,293.54,467.26,291.81,453.08z"/>
			</g>
			<g>
				<path class="st13" d="M266.64,562.26c-18.42,0-26.98-9.59-26.98-9.59c-13.5-11.7-37.93-59.07-53.93-88.9
					c-5.44-10.15-8.36-22.83-8.36-22.83c-1.31,20.57-2.09,34.29-3.15,54.04c9.77,15.89,20.04,27.98,20.04,36.45
					c0,13.23-9.71,32.67-3.24,46.02c6.48,13.35,25.5,10.11,34.41,6.88s8.5,1.21,14.98,6.07c3.99,2.99,9.27,3.53,30.68,5.67
					l-3.21-33.82C267.46,562.26,267.04,562.26,266.64,562.26z"/>
			</g>
			<g>
				<path class="st20" d="M216.58,548.88l-13.7,16.14c-0.29,0.34-0.8,0.38-1.14,0.09l-3.53-3c-0.34-0.29-0.38-0.8-0.09-1.14
					l13.7-16.14c0.29-0.34,0.8-0.38,1.14-0.09l3.53,3C216.83,548.03,216.87,548.54,216.58,548.88z"/>
				<path class="st20" d="M216.78,547.47l-1.35,1.59l-3.62-3.07l1.35-1.59c0.8-0.95,2.23-1.06,3.17-0.26l0.18,0.16
					C217.47,545.1,217.59,546.52,216.78,547.47z"/>
				<polygon class="st20" points="225.47,568.02 221.43,569.16 208.35,558.06 210.6,555.41 				"/>
			</g>
			<g>
				<path class="st13" d="M435.99,641.76c-4.26,8.55-11.24,16.6-22.64,19.53c-26.16,6.74-46.58-23.78-141.61-31.71
					c-41.19-3.44-65.63,4.38-88.77,40.86c9.9,8.09,24.23,14.68,44.08,14.68c38.45,0,76.34,0,87.26,0c0,0-54.64,47.76,16.6,52.62
					c11.44,0.78,22.45,0.3,32.88-1.04c18.3-15.85,37.34-39.52,54.72-46.78c13.03-5.45,22.85-7.31,33.58-6.6
					c-2.89-8.72-7.26-20.87-13.5-35.84C437.73,645.46,436.87,643.56,435.99,641.76z"/>
			</g>
			<g>
				<path class="st13" d="M314.02,513.78c0,0-12.43-25.5-24.77-40.96c-2.14,7.69-4.93,16.72-6.12,29.72
					c5.65,1.44,3.23,4.52,8.92,6.76c5.69,2.24,72.86,22.14,72.86,22.14c2.76-7.58,7.18-25.36,10.84-40.96
					c-21.85,7.71-29.58,23.96-35.44,24.63C334.24,515.79,314.02,513.78,314.02,513.78z"/>
			</g>
			<g>
				<path class="st13" d="M271.73,538.05c-19.87-2.8-29.62,7.2-32.08,14.62c8.46,7.22,17.4,9.59,26.98,9.59c7.2,0,24.04,0,40.96,0
					C301.11,552.18,289.11,540.5,271.73,538.05z"/>
			</g>
			<g>
				<path class="st13" d="M261.27,461.98c-8.84-21.98-29.4-40.26-29.4-40.26l3.16-13.95l-14.24,5.54
					c-3.93-4.72-7.57-8.39-10.46-11.05c-3.9-3.59,6.21-15.43,6.21-15.43l0.69-9.25c-3.49,0.08-5.98,0.91-7.45,2.6
					c-3.64,4.2-10.17,14.5-10.17,14.5c-12.6,4.51-19.13,14.37-21.02,25.6c17.09,17.42,45.75,0.85,50.65,8.7
					c6.61,10.6,21.09,33.85,31.69,50.87C260.95,479.78,262.24,472.86,261.27,461.98z"/>
			</g>
			<g>
				<path class="st1" d="M269.31,577.46l1.77,18.62c7.44,0.74,16.83,1.68,28.8,2.99l-2.05-21.61H269.31z"/>
				<path class="st2" d="M271.08,596.08c7.44,0.74,16.83,1.68,28.8,2.99"/>
				<path class="st13" d="M297.83,577.46l2.05,21.61c2.87,0.31,5.89,0.65,9.06,1l-2.15-22.61H297.83z"/>
			</g>
			<g>
				<line class="st2" x1="320.44" y1="497.97" x2="320.44" y2="506.13"/>
				<line class="st2" x1="327.73" y1="496.58" x2="329.3" y2="501.2"/>
				<polyline class="st2" points="234.38,579.16 246.28,573.87 242.31,564.13 204.65,573.21 208.45,584.52 				"/>
				<path class="st2" d="M239.65,552.67c8.46,7.22,17.4,9.59,26.98,9.59"/>
				<path class="st2" d="M390.52,644.89c15,9.45,26.09,6.42,26.09,6.42"/>
				<path class="st2" d="M409.13,644.89c0,0,7.5-1.48,10-3.61"/>
				<path class="st2" d="M233.74,594.59c0,0-11.58,4.17-18.71,12.23"/>
				<line class="st2" x1="237.08" y1="600.07" x2="231.52" y2="602.96"/>
				<line class="st2" x1="186.78" y1="584.52" x2="180.67" y2="574.33"/>
			</g>
			<g>
				<g>
					<g>
						<path class="st13" d="M232.34,806.38v-75.61h-17.36v75.61c0,15.02-9.03,28.72-23.03,34.17c-4.12,1.6-7.92,3.51-11.33,5.67
							c-3.23,2.05-1.79,7.05,2.04,7.05h82c3.83,0,5.27-5,2.04-7.05c-3.41-2.16-7.21-4.06-11.33-5.67
							C241.38,835.11,232.34,821.4,232.34,806.38z"/>
					</g>
					<g>
						<path class="st21" d="M232.34,730.77h-17.36v27.42c5.35,4.01,11.35,8.08,17.36,11.68V730.77z"/>
					</g>
				</g>
				<path class="st21" d="M311.31,685.12H162.52c0,0,7.69-49.79-3.22-84.24c-18.78-63.57-58.57-168.66-64.42-184.93
					c-10.52-27.12-12.1-38.51-24.25-38.51c-12.14,0-24.69,14.62-17.41,34.85c7.29,20.24,67.19,178.1,73.67,222.22
					c6.48,44.12-19.83,74.88-10.52,86.22c9.31,11.33,114.55,20.24,172.68,24.29c58.13,4.05,43.71-10.93,49.78-27.12
					S341.66,685.12,311.31,685.12z"/>
				<g>
					<path class="st22" d="M114.6,587.02c6.17,20.02,10.75,36.99,12.29,47.5c0.37,2.53,0.62,5.02,0.79,7.46
						C155.17,612.93,138.96,575.4,114.6,587.02z"/>
					<path class="st22" d="M246.69,711.57c-70.34,1.49-116.01,4.89-79.78,21.8c37.66,5.23,88.01,9.28,122.14,11.66
						c29.23,2.04,40.11-0.74,44.48-6.06C329.86,722.09,309.04,710.25,246.69,711.57z"/>
				</g>
			</g>
			<g>
				<path class="st10" d="M226.86,327.23c3.2-1.09,5.87,5.63,5.55,6.91C232.08,335.42,222.22,328.82,226.86,327.23z"/>
				<g>
					<path class="st23" d="M260.62,296.75c-4.3,0.51,6.15,14.12-12.76,13.44c0,0-5.78,11.55-10.1,14.57
						c5.7,2.79,17.17,1.7,26.85-10.33c4.96-6.16,6.26-12.66,4.58-17.24C266.54,296.56,263.65,296.4,260.62,296.75z"/>
				</g>
				<path class="st10" d="M245.31,366.89c-1.2,1.88,0.9,12.9,3.93,20.76c1.47,0.2,2.95,0.39,4.43,0.54
					c0.23-5.97,0.81-13.55,1.23-18.6C249.79,366.78,246.81,364.54,245.31,366.89z"/>
				<g>
					<path class="st10" d="M217.41,375.14l-0.17,2.31c2.53,1.8,6.03,3.49,10.14,4.99c0.02-2.58-0.51-5.29-1.78-8.14
						C223.15,374.9,220.41,375.19,217.41,375.14z"/>
				</g>
			</g>
			<g>
				<path class="st24" d="M266.02,332c-0.19,0.81-0.46,1.63-0.8,2.44c-2.5,5.83-8.12,9.02-12.54,7.12c-3.3-1.42-5-5.27-4.61-9.56"/>
				<path class="st24" d="M288.85,332c-0.19,0.81-0.46,1.63-0.8,2.44c-2.5,5.83-8.12,9.02-12.54,7.12c-3.3-1.42-5-5.27-4.61-9.56"/>
			</g>
			<path class="st25" d="M288.85,332c-0.19,0.81-0.46,1.63-0.8,2.44c-2.5,5.83-8.12,9.02-12.54,7.12c-3.3-1.42-5-5.27-4.61-9.56
				h-4.88c-0.19,0.81-0.46,1.63-0.8,2.44c-2.5,5.83-8.12,9.02-12.54,7.12c-3.3-1.42-5-5.27-4.61-9.56l-13.46-9.28"/>
			<g>
				<path class="st23" d="M265.94,345.55c-0.85-1.1,3.33-5.32,5.11-2.7C272.23,344.58,267.09,347.01,265.94,345.55z"/>
				<path class="st23" d="M261.89,362.46c0.99-0.23,1.09-3.37-0.74-2.4S260.58,362.77,261.89,362.46z"/>
				<path class="st26" d="M251.71,322.18c1.12-0.99,3.63-2.61,5.75-2.72c1.85-0.1,1.31-1.74-0.45-1.83
					c-2.65-0.13-5.14,2.38-5.97,3.78C250.64,322.08,251.11,322.71,251.71,322.18z"/>
				<path class="st26" d="M281.19,321.79c-1.15-0.95-3.06-2.23-5.18-2.27c-1.86-0.04-1.38-1.91,0.39-1.84
					c2.51,0.1,4.45,2.16,4.92,3.15C281.63,321.49,281.39,321.96,281.19,321.79z"/>
				<g>
					
						<ellipse transform="matrix(0.9811 -0.1935 0.1935 0.9811 -58.9902 55.7086)" class="st26" cx="255.75" cy="329.9" rx="1.37" ry="1.93"/>
					<path class="st26" d="M254.36,329.73c-0.03-1.55,1.39-3.05,3.19-3.05c0,0-1.3,1.23-1.32,2.11"/>
				</g>
				<g>
					
						<ellipse transform="matrix(0.9811 -0.1935 0.1935 0.9811 -58.6124 59.5783)" class="st26" cx="275.75" cy="329.9" rx="1.37" ry="1.93"/>
					<path class="st26" d="M274.36,329.73c-0.03-1.55,1.39-3.05,3.19-3.05c0,0-1.3,1.23-1.32,2.11"/>
				</g>
				<line class="st18" x1="268.51" y1="338.45" x2="270.99" y2="341.59"/>
				<g>
					<path class="st27" d="M255.83,350.74c-0.14,0.77,2.66,5.54,8.69,5.51c6.24-0.04,5.77-4.82,2.09-4.17"/>
					<path class="st28" d="M266.35,351.62c-1.25-1.11-4.76-1.35-6.88-1.25c-1.45,0.07-3.97,0.16-3.64,0.37
						c0.81,0.52,6.03,1.9,9.62,2.01c2.78,0.09,5.44-0.92,5.13-1.38C270.27,350.91,268.14,350.27,266.35,351.62z"/>
				</g>
			</g>
		</g>
		<rect x="262.03" y="562.06" class="st29" width="479.95" height="15.4"/>
		<g>
			
				<ellipse transform="matrix(0.8641 -0.5033 0.5033 0.8641 -204.1527 485.3995)" class="st30" cx="796.79" cy="620.75" rx="149.6" ry="32.79"/>
			<g>
				<polyline class="st13" points="885.52,702.09 929.4,853.26 919.4,853.26 862.52,714.09 				"/>
				<polyline class="st30" points="761.16,702.09 717.28,853.26 727.28,853.26 784.16,714.09 				"/>
				<path class="st13" d="M746.06,754.12l-28.78,99.14h10l36.12-88.37C756.83,761.18,750.99,757.48,746.06,754.12z"/>
			</g>
			<g>
				<g>
					<path class="st22" d="M728.49,597.28c0,0-80.16,12.64-94.07,19.89c-13.91,7.25-23.65,14.66-29.86,44.14
						c-11.35,53.91-22.38,123.33-26.44,136.67s-19.23,19.03-51.6,30.57c-8.47,3.02-5.65,14.91-5.65,14.91c9.86,0,77.43,0,88.45,0
						c5.68,0,2.36-13.34,0.45-23.01c-6.29-31.78,33.18-67.38,48.21-146.27c0,0,83.63,21.71,136.47,21.71"/>
					<path class="st31" d="M578.86,795.26c-0.27,1.07-0.51,1.98-0.74,2.72c-4.06,13.34-19.23,19.03-51.6,30.57
						c-8.47,3.02-5.65,14.91-5.65,14.91c9.86,0,77.43,0,88.45,0c5.68,0,2.36-13.34,0.45-23.01c-1.58-8.01-0.26-16.25,2.84-25.37
						C602.61,796.28,590.09,796.98,578.86,795.26z"/>
					<path class="st32" d="M520.29,853.26h91.89c1.31,0,2.37-1.06,2.37-2.37v-5.08c0-1.31-1.06-2.37-2.37-2.37h-91.89
						c-1.31,0-2.37,1.06-2.37,2.37v5.08C517.93,852.2,518.99,853.26,520.29,853.26z"/>
					<path class="st2" d="M604.67,814.9c-7.54,3.97-14.29,13.1-14.29,19.05"/>
					<path class="st2" d="M541.16,824.43c5.95,7.54,28.58-1.98,38.11-14.29"/>
				</g>
				<g>
					<path class="st33" d="M757.84,586.28c0,0-80.16,12.64-94.07,19.89c-13.91,7.25-23.19,20.29-22.03,50.39
						c2.12,55.05,4.8,128.08,0.74,141.41c-4.06,13.34-19.23,19.03-51.6,30.57c-8.47,3.02-5.65,14.91-5.65,14.91
						c9.86,0,77.43,0,88.45,0c5.68,0,2.36-13.34,0.45-23.01c-6.29-31.78,25.02-72.35,20.38-152.53c0,0,73.45,17.96,126.3,17.96
						c40.34,0,89.96-29.27,36.62-106.03"/>
					<path class="st13" d="M643.09,795.24c-0.18,1.08-0.39,2.01-0.61,2.74c-4.06,13.34-19.23,19.03-51.6,30.57
						c-8.47,3.02-5.65,14.91-5.65,14.91c9.86,0,77.43,0,88.45,0c5.68,0,2.36-13.34,0.45-23.01c-1.53-7.72-0.83-15.96,1.02-25.16
						C665.43,796.36,653.67,796.89,643.09,795.24z"/>
					<path class="st34" d="M584.64,853.26h91.89c1.31,0,2.37-1.06,2.37-2.37v-5.08c0-1.31-1.06-2.37-2.37-2.37h-91.89
						c-1.31,0-2.37,1.06-2.37,2.37v5.08C582.27,852.2,583.33,853.26,584.64,853.26z"/>
					<path class="st2" d="M669.02,814.9c-7.54,3.97-14.29,13.1-14.29,19.05"/>
					<path class="st2" d="M605.51,824.43c5.95,7.54,28.58-1.98,38.11-14.29"/>
				</g>
				<g>
					<path class="st35" d="M753.72,339.01c-9.47-7.63-15.85-27.42,0-40.48s60.94-21.11,74.11,0s-1.44,42.73,15.23,53.44
						c16.68,10.71,33.15,16.26,30.06,40.15c0,0,16.68,6.79,16.68,27.38s-34.18,89.14-100.47,69.17s-53.53-56.62-39.94-65.67
						c13.59-9.06,23.88-12.15,24.7-20.18s0.21-46.53,0.21-46.53L753.72,339.01z"/>
					<path class="st36" d="M750.66,301.44c-11.85,12.93-5.73,30.49,3.06,37.57l4.06,3.41l17.52-22.83
						C772.22,304.03,761.88,300.21,750.66,301.44z"/>
					<path class="st37" d="M887.94,430.11c1.24-4.19,1.87-7.84,1.87-10.62c0-20.59-16.68-27.38-16.68-27.38
						C863.02,405.41,871.04,427.28,887.94,430.11z"/>
					<path class="st36" d="M873.13,392.11c0.94-7.26,0.06-12.82-2.07-17.35C859.11,377.19,857.79,391.36,873.13,392.11z"/>
					<path class="st36" d="M826.19,434.32l-55.25-0.08c-11.59,0.92-24.32,6.32-32.14,14.54c2.05,13.52,14.8,29.13,50.53,39.89
						c55.3,16.66,88.25-28.29,97.65-55.6C864.17,419.21,836.64,427.35,826.19,434.32z"/>
					<path class="st36" d="M840.71,350.2l0.01-0.01c-12.43-10.83-1.19-30.32-11.73-49.69C806.68,308.95,818.75,342.57,840.71,350.2z
						"/>
					<path class="st37" d="M774.15,315.23l0.01,0c10.13,25.79,15.56,59.12,15.56,59.12c10.09-3.91,20.59-25.27,17.71-45.65
						s-11.92-31.06-29.24-30.12c-5.38,0.29-9.91,2.12-13.6,4.82C768.74,305.49,772.12,309.23,774.15,315.23z"/>
					<path class="st36" d="M842.14,402.26c3.77-12.07-4.79-20.98-19.04-19c-11.87,1.65-20.48,9.92-25.07,17.39
						c2.02,1.56,4.26,2.77,6.75,3.56C824.36,410.43,832.79,399.43,842.14,402.26z"/>
				</g>
				<g>
					<path class="st38" d="M851.25,532.06c-5.62-55.62,14.99-102.44,0.65-121.68c-14.82-19.88-21.21,2.06-47.12-6.18
						c-25.91-8.24-24.94-61.77-29.47-84.62c-1.71-8.62-5.64-13.63-10.72-16.18c-6.62,4.83-10.53,12.46-11.72,19.07
						c-1.85,10.29-1.14,15.65-2.26,17.58c-3.55,6.14-8.29,10.03-8.44,11.86c-0.26,3.09,5.35,4.26,5.35,6.32s1.44,22.91,7.41,24.56
						c5.97,1.65,24.71-4.53,24.71-4.53s7.62,25.32,6.59,30.88c-1.03,5.56-33.15,51.06-40.15,61.15s-8.03,23.27-0.41,36.44
						c7.62,13.18,24.09,63.62,24.09,63.62l-16.47,22.03c0,0,58.06,31.91,115.91-4.53C869.19,587.86,854.91,568.28,851.25,532.06z"/>
				</g>
				<path class="st7" d="M817.21,406.14c-3.6,0.07-7.69-0.42-12.43-1.93c-25.91-8.24-24.94-61.77-29.47-84.62
					c-1.71-8.62-5.64-13.63-10.72-16.18c-6.62,4.83-10.53,12.46-11.72,19.07c-1.85,10.29-1.14,15.65-2.26,17.58
					c-3.55,6.14-8.29,10.03-8.44,11.86c-0.26,3.09,5.35,4.26,5.35,6.32s1.44,22.91,7.41,24.56c5.97,1.65,24.71-4.53,24.71-4.53
					s7.62,25.32,6.59,30.88c-0.47,2.51-7.29,13.2-15.28,25.09C786.14,433.03,809.81,427.87,817.21,406.14z"/>
				<g>
					<path class="st8" d="M781.16,362.89c-1.47-8.2-2.43-16.61-3.29-24.28C766.35,349.86,768.77,358.22,781.16,362.89z"/>
				</g>
				<g>
					<path class="st26" d="M764.71,330.9c-1.15-0.95-3.06-2.23-5.18-2.27c-1.86-0.04-1.38-1.91,0.39-1.84
						c2.51,0.1,4.45,2.16,4.92,3.15C765.16,330.6,764.92,331.07,764.71,330.9z"/>
					<g>
						
							<ellipse transform="matrix(0.1935 -0.9811 0.9811 0.1935 280.4198 1019.1325)" class="st26" cx="760.07" cy="339.01" rx="1.93" ry="1.37"/>
						<path class="st26" d="M761.45,338.84c0.03-1.55-1.39-3.05-3.19-3.05c0,0,1.3,1.23,1.32,2.11"/>
					</g>
					<g>
						<path class="st27" d="M759.56,360.42c0.25,0.73-0.11,4.89-4.73,5.79c-6.12,1.19-4.45-4.87-0.71-4.8"/>
						<path class="st28" d="M751.31,361.92c1.06-1.29,2.49-1.07,4.6-1.3c1.44-0.16,3.94-0.46,3.65-0.2
							c-0.72,0.64-3.66,1.81-7.19,2.48C749.64,363.42,749.33,360.87,751.31,361.92z"/>
					</g>
				</g>
				<g>
					<path class="st39" d="M843.37,481.99c3.23-10.18,5.98-18.57,7.79-22.98"/>
					<path class="st39" d="M807.53,434.84c0,0-4.39,16.84-9.71,37.14"/>
				</g>
				<path class="st40" d="M753.28,592.39c0,0,34.98,19.22,77.69,10.78c1.19-2.05,2.32-4.17,3.38-6.36
					c16.23-33.64,9.61-70.45-14.78-82.22c-19.43-9.38-44.28-0.02-61.79,21.17c6.26,17.08,11.97,34.59,11.97,34.59L753.28,592.39z"/>
				<g>
					<path class="st7" d="M795.57,480.59c-7.21,27.51-15.21,57.78-16.23,60.84c-1.9,5.71-48.69,48.69-52.23,48.97
						c-3.54,0.27-26.21-3.17-31.65-1.81c-5.44,1.36-18.76,14.51-20.94,16.73c-2.18,2.22,4.85,3.57,9.98,0.67
						c7.12-4.02,9.71-6.53,13.51-4.62c3.81,1.9,20.76,11.7,31.47,10.14c7.81-1.13,76.79-37.98,85.77-50.49
						c6.16-8.59,17.57-45.6,26.32-73.35C835.21,481.56,816.15,474.06,795.57,480.59z"/>
					<g>
						<path class="st8" d="M707.29,606.04c6.78,3.13,15.65,6.42,22.18,5.47c1.5-0.22,5.28-1.77,10.46-4.2
							C726.97,599.33,715.73,598.08,707.29,606.04z"/>
					</g>
				</g>
			</g>
			<g>
				<g>
					<path class="st13" d="M926.79,547.22c4.79,17.14-44.62,61.74-113.5,101.86c-47.11,27.44-91.55,45.92-118.94,50.83
						c-0.32,4.7-0.76,9.23-1.29,13.61c41.08,20.68,120.44,42.86,174.62,11.3C938.14,683.78,944.96,592.15,926.79,547.22z"/>
				</g>
				<path class="st30" d="M885.01,666.75c-42.74,5.79-79.24,38.97-104.27,72.65c30.14,3.25,61.35,0.34,86.95-14.57
					c24.83-14.46,41.75-35.21,52.46-57.97C908.93,665.25,897.19,665.1,885.01,666.75z"/>
			</g>
		</g>
	</g>
	<line class="st2" x1="973.99" y1="853.26" x2="52.13" y2="853.26"/>
	<rect x="360.23" y="206.72" class="st41" width="116.6" height="116.6"/>
	<polyline class="st41" points="442.69,204.14 418.54,179.99 394.39,204.14 	"/>
	<path class="st42" d="M445.25,250.31c-3.93-7.14-10.4-12.32-18.23-14.58c-16.16-4.68-33.1,4.65-37.79,20.8
		c-4.68,16.15,4.65,33.1,20.8,37.79c2.82,0.82,5.68,1.22,8.54,1.22c5.07,0,10.1-1.28,14.67-3.8c7.14-3.93,12.32-10.4,14.58-18.23
		C450.09,265.69,449.18,257.45,445.25,250.31z M445.02,272.78c-26.58-4.56-41.99,4.42-48.15,9.33c-0.39-0.5-0.78-1.01-1.13-1.54
		c4.91-4.18,22.05-16.54,50.34-13.78c-0.13,1.98-0.47,3.96-1.04,5.91C445.04,272.73,445.03,272.75,445.02,272.78z M398.82,284.33
		c5.79-4.48,20.42-12.87,45.23-8.78c-0.76,1.85-1.71,3.59-2.83,5.21c-21.75-4.63-34.6,0.65-40.95,4.96
		C399.77,285.27,399.29,284.81,398.82,284.33z M428.44,264.03c6.05-6.2,13.74-7.19,16.42-7.35c0.75,2.34,1.17,4.76,1.26,7.21
		C439.65,263.27,433.75,263.4,428.44,264.03z M418.54,237.41c2.54,0,5.12,0.35,7.67,1.09c7.08,2.05,12.94,6.74,16.5,13.2
		c0.39,0.7,0.73,1.42,1.06,2.14c-4.11,0.36-13.22,2.17-19.68,10.83c-5.66,1.01-10.58,2.57-14.75,4.32c0.77-2.58,1.82-4.83,2.92-6.74
		c0.88,0.14,1.75,0.21,2.61,0.21c4.18,0,8.04-1.61,10.78-4.6c3.56-3.89,4.64-9.46,2.87-14.91l-0.28-0.87l-0.89-0.2
		c-5.58-1.28-11.04,0.28-14.6,4.16c-3.53,3.85-4.61,9.36-2.92,14.75c-1.52,2.62-2.94,5.87-3.79,9.69
		c-5.69,2.76-9.64,5.71-11.83,7.57c-0.25-0.46-0.48-0.93-0.7-1.4c15.57-12.15,11.74-29.58,10.12-34.85
		C408.02,238.99,413.19,237.41,418.54,237.41z M417.16,253.87l-0.9-1.09c-0.15,0.12-1.88,1.57-3.92,4.25
		c-0.32-3.32,0.65-6.48,2.79-8.82c2.58-2.81,6.48-4.04,10.59-3.38c1.02,4.03,0.14,8.03-2.44,10.84c-2.25,2.46-5.51,3.71-9.03,3.54
		c2.03-2.76,3.78-4.24,3.81-4.27L417.16,253.87z M401.15,243.59c1.52,5.47,3.88,19.81-8.76,30.25c-0.21-0.63-0.4-1.26-0.57-1.9
		c7.13-8.81,7.26-18.34,5.95-25.1C398.81,245.66,399.94,244.57,401.15,243.59z M392.02,257.33c0.77-2.65,1.9-5.1,3.33-7.3
		c0.57,5.24-0.07,11.73-4.25,18C390.71,264.54,390.98,260.92,392.02,257.33z M410.85,291.53c-0.78-0.23-1.54-0.49-2.28-0.78
		c4.94-1.72,12.13-2.72,22.22-1C424.58,292.84,417.54,293.48,410.85,291.53z M434.53,287.51c-14.36-3.09-23.78-1.17-29.6,1.52
		c-0.76-0.43-1.5-0.9-2.21-1.4c1.63-1.03,3.67-2.1,6.17-3.03c6.11-2.27,16.03-4.07,30.33-1.29
		C437.83,284.88,436.26,286.29,434.53,287.51z"/>
</g>
</svg>
