<svg width="120" height="40" viewBox="0 0 120 40" fill="none" xmlns="http://www.w3.org/2000/svg">
  <!-- <path d="M0 4C0 1.79086 1.79086 0 4 0H116C118.209 0 120 1.79086 120 4V36C120 38.2091 118.209 40 116 40H4C1.79086 40 0 38.2091 0 36V4Z" fill="#F3F3F3"/> -->
  <path fill-rule="evenodd" clip-rule="evenodd"
    d="M21.5893 11.8728C22.4281 10.8436 23.0393 9.42772 22.8815 8C21.6284 8.04536 20.1363 8.8124 19.2474 9.84827C18.4467 10.7406 17.7516 12.2124 17.9508 13.5971C19.3129 13.6857 20.713 12.909 21.5893 11.8728Z"
    fill="black" />
  <path fill-rule="evenodd" clip-rule="evenodd"
    d="M25.2177 22.8214L25.1976 22.7832C24.8073 22.0106 24.6295 20.8027 24.7789 19.8243V19.7879H24.7799C24.9364 18.5065 25.7759 17.1954 26.4471 16.7197C26.4551 16.7141 26.4643 16.7074 26.4734 16.7003V16.6974H26.4752C26.6241 16.536 27.0483 16.2013 27.3349 15.9983C26.2765 14.4678 24.5437 13.6424 22.779 13.6157C20.9995 13.4689 19.1527 14.7228 18.157 14.6941C17.1936 14.7228 15.7382 13.5911 14.2024 13.6626L14.1873 13.6603C14.1529 13.6603 13.8762 13.6754 13.8762 13.6754C11.8407 13.7246 10.0361 14.9038 9.01146 16.6916V16.6974H9.0052V16.6916C8.59976 17.3358 8.11349 18.8376 8.041 19.7879V19.8384C7.94297 20.4414 8.03761 22.0485 8.1479 22.8214C8.1526 22.835 8.15364 22.8489 8.15468 22.8599L8.15703 22.8583C8.24307 23.6287 8.64095 25.1174 8.9395 25.8452V25.8516H8.93793C9.22422 26.6561 10.0247 28.1648 10.5412 28.9359V28.9416H10.5467C11.5901 30.4141 12.8184 32.0689 14.4379 31.9977C16.0023 31.9392 16.5782 30.9761 18.4626 30.9913C20.3459 30.9761 20.8671 31.9518 22.5175 31.9587C24.2 31.8877 25.2427 30.4162 26.2867 28.9416C26.7978 28.1817 27.5995 26.7197 27.8829 25.8516H27.8868C27.9186 25.7602 27.9664 25.6189 28 25.5164C26.8934 25.2079 25.6521 23.7755 25.2177 22.8214Z"
    fill="black" />
  <path
    d="M40.4236 30.0374L39.4336 27.0342H35.1244L34.1181 30.0374H32L36.155 18.293H38.5084L42.6715 30.0374H40.4236ZM37.2181 20.5312L35.6113 25.3738H38.9466L37.3561 20.5312H37.2181Z"
    fill="black" />
  <path
    d="M49.3098 20.987C50.4351 20.987 51.3251 21.3966 51.9797 22.216C52.6398 23.0353 52.9698 24.1584 52.9698 25.5855C52.9698 27.0071 52.6425 28.1302 51.9878 28.955C51.3386 29.7743 50.454 30.1839 49.3341 30.1839C48.7012 30.1839 48.1466 30.0537 47.6705 29.7933C47.1998 29.5274 46.8509 29.1584 46.6237 28.6864H46.4857V33H44.4731V21.1335H46.4127V22.6066H46.5506C46.8049 22.102 47.1755 21.7059 47.6624 21.4183C48.1547 21.1308 48.7039 20.987 49.3098 20.987ZM48.6768 28.4666C49.3747 28.4666 49.9184 28.2116 50.308 27.7016C50.7029 27.1915 50.9004 26.4862 50.9004 25.5855C50.9004 24.6848 50.7029 23.9794 50.308 23.4693C49.9184 22.9593 49.3774 22.7043 48.6849 22.7043C47.9978 22.7043 47.4541 22.962 47.0538 23.4775C46.6534 23.9929 46.4505 24.6956 46.4451 25.5855C46.4505 26.4753 46.6507 27.178 47.0456 27.6934C47.446 28.2089 47.9897 28.4666 48.6768 28.4666Z"
    fill="black" />
  <path
    d="M59.8271 20.987C60.9525 20.987 61.8424 21.3966 62.4971 22.216C63.1571 23.0353 63.4871 24.1584 63.4871 25.5855C63.4871 27.0071 63.1598 28.1302 62.5052 28.955C61.856 29.7743 60.9714 30.1839 59.8515 30.1839C59.2185 30.1839 58.664 30.0537 58.1879 29.7933C57.7172 29.5274 57.3682 29.1584 57.141 28.6864H57.003V33H54.9905V21.1335H56.93V22.6066H57.068C57.3222 22.102 57.6928 21.7059 58.1798 21.4183C58.6721 21.1308 59.2212 20.987 59.8271 20.987ZM59.1942 28.4666C59.8921 28.4666 60.4358 28.2116 60.8253 27.7016C61.2203 27.1915 61.4177 26.4862 61.4177 25.5855C61.4177 24.6848 61.2203 23.9794 60.8253 23.4693C60.4358 22.9593 59.8948 22.7043 59.2023 22.7043C58.5152 22.7043 57.9715 22.962 57.5711 23.4775C57.1708 23.9929 56.9679 24.6956 56.9625 25.5855C56.9679 26.4753 57.1681 27.178 57.563 27.6934C57.9633 28.2089 58.5071 28.4666 59.1942 28.4666Z"
    fill="black" />
  <path
    d="M69.6141 26.847H71.6592C71.7241 27.3733 71.9973 27.7938 72.4788 28.1085C72.9603 28.4178 73.5717 28.5724 74.3128 28.5724C75.0053 28.5724 75.5734 28.4151 76.017 28.1004C76.4661 27.7803 76.6906 27.3733 76.6906 26.8795C76.6906 26.4563 76.5202 26.1118 76.1793 25.8459C75.8439 25.58 75.3002 25.3603 74.5482 25.1867L73.0306 24.8367C71.9702 24.5979 71.1831 24.21 70.6691 23.6728C70.1605 23.1302 69.9063 22.4221 69.9063 21.5486C69.9063 20.4797 70.3039 19.6224 71.0992 18.9767C71.8999 18.3256 72.9549 18 74.2642 18C75.4923 18 76.5094 18.3201 77.3155 18.9604C78.1216 19.6007 78.549 20.4254 78.5977 21.4346H76.5932C76.5229 20.9192 76.2767 20.5095 75.8547 20.2056C75.4327 19.9018 74.8998 19.7499 74.256 19.7499C73.5798 19.7499 73.036 19.9018 72.6249 20.2056C72.2191 20.5041 72.0162 20.9029 72.0162 21.4021C72.0162 21.7982 72.1758 22.121 72.495 22.3706C72.8142 22.6148 73.3363 22.8209 74.0613 22.9891L75.4084 23.2984C76.5932 23.5643 77.4507 23.9604 77.9809 24.4867C78.5165 25.013 78.7843 25.7238 78.7843 26.6191C78.7843 27.764 78.3705 28.6701 77.5427 29.3375C76.7204 29.9995 75.6005 30.3304 74.183 30.3304C72.8413 30.3304 71.7565 30.0157 70.9288 29.3863C70.1064 28.7569 69.6682 27.9105 69.6141 26.847Z"
    fill="black" />
  <path
    d="M81.5679 18.9523H83.5723V21.1905H85.4713V22.802H83.5723V27.1725C83.5723 27.612 83.6697 27.9349 83.8645 28.1411C84.0592 28.3418 84.3676 28.4422 84.7896 28.4422C84.9736 28.4422 85.2008 28.4286 85.4713 28.4015V29.9805C85.1359 30.0456 84.7842 30.0781 84.4163 30.0781C83.3992 30.0781 82.6688 29.8909 82.2252 29.5165C81.787 29.1422 81.5679 28.5236 81.5679 27.6609V22.802H80.1639V21.1905H81.5679V18.9523Z"
    fill="black" />
  <path
    d="M89.6019 27.7585C89.9861 28.2686 90.5298 28.5236 91.2331 28.5236C91.9364 28.5236 92.4774 28.2686 92.8562 27.7585C93.2403 27.2431 93.4323 26.5187 93.4323 25.5855C93.4323 24.6576 93.2403 23.936 92.8562 23.4205C92.472 22.905 91.931 22.6473 91.2331 22.6473C90.5298 22.6473 89.9861 22.905 89.6019 23.4205C89.2178 23.936 89.0258 24.6576 89.0258 25.5855C89.0258 26.5187 89.2178 27.2431 89.6019 27.7585ZM91.2331 30.2165C89.9022 30.2165 88.8581 29.8068 88.1006 28.9875C87.3432 28.1628 86.9645 27.0288 86.9645 25.5855C86.9645 24.153 87.3459 23.0244 88.1087 22.1997C88.8716 21.3695 89.913 20.9544 91.2331 20.9544C92.5586 20.9544 93.6001 21.3668 94.3575 22.1915C95.1203 23.0163 95.5017 24.1476 95.5017 25.5855C95.5017 27.0288 95.1203 28.1628 94.3575 28.9875C93.6001 29.8068 92.5586 30.2165 91.2331 30.2165Z"
    fill="black" />
  <path
    d="M97.5305 30.0374V21.1335H99.4701V22.5171H99.608C99.7325 22.0722 100.011 21.7059 100.444 21.4183C100.882 21.1308 101.385 20.987 101.953 20.987C102.316 20.987 102.594 21.0168 102.789 21.0765V22.9485C102.584 22.8725 102.24 22.8345 101.759 22.8345C101.104 22.8345 100.571 23.0244 100.16 23.4042C99.7487 23.7786 99.5431 24.2751 99.5431 24.8937V30.0374H97.5305Z"
    fill="black" />
  <path
    d="M107.942 22.5578C107.342 22.5578 106.847 22.7558 106.457 23.1519C106.068 23.548 105.851 24.0716 105.808 24.7227H109.987C109.966 24.0608 109.771 23.5345 109.403 23.1438C109.035 22.7531 108.548 22.5578 107.942 22.5578ZM110.004 27.5876H111.911C111.721 28.4015 111.275 29.0445 110.572 29.5165C109.874 29.9832 109.005 30.2165 107.967 30.2165C106.663 30.2165 105.638 29.8095 104.891 28.9957C104.15 28.1763 103.779 27.0505 103.779 25.618C103.779 24.1856 104.153 23.0515 104.899 22.216C105.646 21.3749 106.663 20.9544 107.951 20.9544C109.216 20.9544 110.207 21.3532 110.921 22.1508C111.64 22.943 112 24.0418 112 25.4471V26.0982H105.8V26.204C105.827 26.9474 106.038 27.5361 106.433 27.9702C106.833 28.3988 107.363 28.6131 108.024 28.6131C109.041 28.6131 109.701 28.2713 110.004 27.5876Z"
    fill="black" />
  <path
    d="M35.8221 8.95816C35.8221 8.65063 35.7047 8.40586 35.4699 8.22385C35.2351 8.04184 34.9162 7.95084 34.5132 7.95084C34.1673 7.95084 33.8785 8.04184 33.6469 8.22385C33.4152 8.40272 33.2994 8.63494 33.2994 8.9205H32.1C32.1 8.54707 32.2047 8.21444 32.4141 7.92259C32.6235 7.63075 32.9139 7.40481 33.2851 7.24477C33.6564 7.08159 34.0657 7 34.5132 7C35.3065 7 35.922 7.17103 36.3599 7.51308C36.801 7.85513 37.0216 8.33368 37.0216 8.94874C37.0216 9.25941 36.9264 9.54498 36.736 9.80544C36.5456 10.0659 36.279 10.2714 35.9363 10.4221C36.3235 10.5539 36.6186 10.7547 36.8216 11.0246C37.0279 11.2913 37.131 11.624 37.131 12.0225C37.131 12.6376 36.893 13.1271 36.4171 13.4911C35.9411 13.852 35.3065 14.0324 34.5132 14.0324C34.0245 14.0324 33.5818 13.9461 33.1852 13.7735C32.7917 13.6009 32.495 13.3656 32.2951 13.0675C32.0984 12.7694 32 12.4273 32 12.0413H33.1995C33.1995 12.3363 33.3232 12.5858 33.5707 12.7897C33.8182 12.9906 34.1324 13.091 34.5132 13.091C34.9384 13.091 35.2795 12.9922 35.5365 12.7945C35.7967 12.5968 35.9268 12.3394 35.9268 12.0225C35.9268 11.6365 35.8126 11.3572 35.5841 11.1846C35.3588 11.0089 35.0272 10.921 34.5893 10.921H33.7754V9.9796H34.5465C35.3969 9.9796 35.8221 9.63912 35.8221 8.95816Z"
    fill="black" />
  <path
    d="M41.2149 13.943C41.1641 13.8457 41.1197 13.6872 41.0816 13.4676C40.7135 13.8473 40.263 14.0371 39.7299 14.0371C39.2126 14.0371 38.7906 13.8912 38.4638 13.5994C38.1369 13.3075 37.9735 12.9467 37.9735 12.5167C37.9735 11.9738 38.1766 11.5581 38.5828 11.2694C38.9921 10.9775 39.576 10.8316 40.3344 10.8316H41.0436V10.4974C41.0436 10.2338 40.969 10.0235 40.8198 9.86663C40.6707 9.70659 40.4438 9.62657 40.1392 9.62657C39.8758 9.62657 39.6601 9.69247 39.4919 9.82427C39.3237 9.95293 39.2396 10.1177 39.2396 10.3185H38.083C38.083 10.0392 38.1766 9.77877 38.3638 9.53713C38.551 9.29236 38.8049 9.10094 39.1254 8.96287C39.449 8.82479 39.8092 8.75575 40.2058 8.75575C40.8087 8.75575 41.2895 8.90638 41.648 9.20764C42.0066 9.50575 42.1907 9.92626 42.2002 10.4691V12.7662C42.2002 13.2244 42.2652 13.59 42.3953 13.863V13.943H41.2149ZM39.9441 13.1192C40.1725 13.1192 40.3867 13.0643 40.5866 12.9545C40.7897 12.8447 40.942 12.6972 41.0436 12.512V11.5518H40.42C39.9916 11.5518 39.6696 11.6255 39.4538 11.773C39.238 11.9205 39.1301 12.1292 39.1301 12.3991C39.1301 12.6187 39.2031 12.7945 39.3491 12.9263C39.4982 13.0549 39.6965 13.1192 39.9441 13.1192Z"
    fill="black" />
  <path d="M46.841 9.77249H44.6039V13.943H43.452V8.8499H46.841V9.77249Z" fill="black" />
  <path
    d="M52.0053 11.4482C52.0053 12.2359 51.8244 12.8651 51.4627 13.3358C51.1009 13.8033 50.6154 14.0371 50.0062 14.0371C49.4414 14.0371 48.9892 13.8536 48.6497 13.4864V15.9012H47.493V8.8499H48.5592L48.6068 9.36768C48.9464 8.95973 49.4081 8.75575 49.9919 8.75575C50.6202 8.75575 51.112 8.98797 51.4674 9.45241C51.826 9.9137 52.0053 10.5554 52.0053 11.3776V11.4482ZM50.8534 11.3494C50.8534 10.841 50.7503 10.4378 50.5441 10.1396C50.341 9.84153 50.049 9.69247 49.6683 9.69247C49.1954 9.69247 48.8559 9.88546 48.6497 10.2714V12.5309C48.8591 12.9263 49.2018 13.124 49.6778 13.124C50.0459 13.124 50.333 12.978 50.5393 12.6862C50.7487 12.3912 50.8534 11.9456 50.8534 11.3494Z"
    fill="black" />
  <path
    d="M54.7326 12.3049L55.7798 8.8499H57.0126L54.9659 14.715C54.6517 15.5717 54.1186 16 53.3666 16C53.1984 16 53.0128 15.9718 52.8097 15.9153V15.0303L53.0286 15.0445C53.3206 15.0445 53.5395 14.9911 53.6855 14.8844C53.8346 14.7809 53.952 14.6051 54.0377 14.3572L54.2043 13.9195L52.3956 8.8499H53.6427L54.7326 12.3049Z"
    fill="black" />
  <path
    d="M61.5819 10.2432C61.5819 10.4691 61.5121 10.6778 61.3725 10.8692C61.2361 11.0575 61.0425 11.2082 60.7918 11.3211C61.382 11.5251 61.6771 11.9189 61.6771 12.5026C61.6771 12.9702 61.4852 13.3436 61.1012 13.6229C60.7173 13.8991 60.2032 14.0371 59.559 14.0371C59.1656 14.0371 58.807 13.9728 58.4833 13.8441C58.1597 13.7123 57.9074 13.5272 57.7265 13.2887C57.5457 13.0471 57.4552 12.7615 57.4552 12.432H58.6071C58.6071 12.6391 58.7007 12.8133 58.8879 12.9545C59.0751 13.0926 59.3115 13.1616 59.5971 13.1616C59.8795 13.1616 60.1032 13.0973 60.2683 12.9686C60.4364 12.8368 60.5205 12.6658 60.5205 12.4555C60.5205 12.2076 60.4475 12.0288 60.3016 11.9189C60.1556 11.8091 59.9303 11.7542 59.6257 11.7542H58.7975V10.9304H59.6542C60.1715 10.9242 60.4301 10.7139 60.4301 10.2997C60.4301 10.0926 60.3555 9.93096 60.2064 9.81485C60.0572 9.69874 59.8526 9.64069 59.5924 9.64069C59.3385 9.64069 59.1243 9.70345 58.9498 9.82897C58.7753 9.95136 58.688 10.1067 58.688 10.295H57.5361C57.5361 9.84623 57.7265 9.47908 58.1073 9.19351C58.4881 8.90481 58.972 8.76046 59.559 8.76046C60.1969 8.76046 60.6935 8.88912 61.0489 9.14644C61.4043 9.40377 61.5819 9.76935 61.5819 10.2432Z"
    fill="black" />
  <path d="M65.8753 8.8499H67.0271V13.943H65.8753V10.5445L63.8571 13.943H62.7053V8.8499H63.8571V12.2484L65.8753 8.8499Z"
    fill="black" />
  <path d="M72.3105 9.75837H70.6398V13.943H69.4832V9.75837H67.8315V8.8499H72.3105V9.75837Z" fill="black" />
  <path
    d="M75.0473 14.0371C74.3143 14.0371 73.7194 13.8096 73.2624 13.3546C72.8087 12.8964 72.5818 12.2877 72.5818 11.5282V11.387C72.5818 10.8787 72.6801 10.4252 72.8769 10.0267C73.0768 9.625 73.356 9.31276 73.7146 9.08996C74.0732 8.86715 74.473 8.75575 74.9141 8.75575C75.6153 8.75575 76.1564 8.97699 76.5371 9.41946C76.9211 9.86192 77.1131 10.488 77.1131 11.2976V11.7589H73.7479C73.7828 12.1794 73.924 12.512 74.1715 12.7568C74.4222 13.0016 74.7364 13.124 75.114 13.124C75.6439 13.124 76.0754 12.9121 76.4086 12.4885L77.0322 13.0769C76.8259 13.3813 76.5498 13.6182 76.204 13.7877C75.8612 13.954 75.4757 14.0371 75.0473 14.0371ZM74.9093 9.67364C74.592 9.67364 74.3349 9.78347 74.1382 10.0031C73.9446 10.2228 73.8209 10.5288 73.767 10.921H75.9707V10.8363C75.9453 10.4535 75.8422 10.1647 75.6613 9.97019C75.4805 9.77249 75.2298 9.67364 74.9093 9.67364Z"
    fill="black" />
  <path
    d="M80.5306 13.943V8.8499H82.6201C83.3246 8.8499 83.8608 8.97228 84.2289 9.21705C84.597 9.45868 84.7811 9.80701 84.7811 10.262C84.7811 10.4974 84.7065 10.7092 84.5573 10.8975C84.4114 11.0826 84.194 11.2254 83.9053 11.3258C84.2416 11.3949 84.5082 11.5345 84.7049 11.7448C84.9016 11.955 85 12.2029 85 12.4885C85 12.9623 84.8223 13.3232 84.4669 13.5711C84.1147 13.819 83.607 13.943 82.9438 13.943H80.5306ZM81.6872 11.773V13.0392H82.9533C83.5467 13.0392 83.8434 12.829 83.8434 12.4085C83.8434 11.9848 83.5419 11.773 82.939 11.773H81.6872ZM81.6872 10.954H82.6392C83.296 10.954 83.6244 10.7626 83.6244 10.3797C83.6244 9.97803 83.3135 9.77092 82.6915 9.75837H81.6872V10.954Z"
    fill="black" />
</svg>