<svg width="45" height="25" viewBox="0 0 45 25" fill="#fff" xmlns="http://www.w3.org/2000/svg">
  <path
    d="M29.499 8.86714C30.7367 7.38434 32.6228 6.37604 34.4794 6.37604C36.6601 6.37604 38.2809 7.23606 40.2554 9.01542L40.6974 9.43061L44.2043 4.41874L44.0275 4.21115C41.6405 1.54211 38.1336 0 34.4794 0C30.2652 0 26.3458 2.46145 24.4597 4.7153C23.0746 6.40569 22.0432 8.4223 20.9528 10.5279C19.0668 14.1756 17.5933 16.7853 15.442 17.9122C14.6464 18.3274 13.7917 18.5647 12.7603 18.5647C11.0805 18.5647 9.51866 17.9419 8.33988 16.7853C7.1611 15.6287 6.51277 14.1163 6.51277 12.4852C6.51277 9.13404 9.31238 6.37604 12.7603 6.37604C15.1473 6.37604 17.0629 7.29537 18.4774 9.1637L18.5363 9.25267L21.7485 3.64769C19.391 1.33452 16.1493 0 12.7898 0C5.74656 0 0 5.60498 0 12.4852C0 19.3654 5.74656 24.9703 12.7898 24.9703C20.8644 24.9703 24.3124 18.2977 26.8173 13.4045C27.7603 11.5955 28.556 10.0237 29.499 8.86714Z" />
  <path
    d="M40.9037 15.0652C39.5481 17.2005 37.1906 18.624 34.5088 18.624C34.4794 18.624 34.4499 18.624 34.4499 18.624C34.4204 18.624 34.4204 18.624 34.391 18.624C33.2122 18.624 32.0923 18.3274 31.0609 17.7639C30.1474 17.2894 29.3222 16.6074 28.6739 15.8066L25.4912 21.3523C27.8487 23.6655 31.0314 25 34.391 25C38.1631 25 41.7289 23.3689 44.1159 20.4923L45 19.5136L40.9037 15.0652Z" />
</svg>