<svg width="125" height="40" viewBox="0 0 125 40" fill="none" xmlns="http://www.w3.org/2000/svg">
  <!-- <rect width="125" height="40" rx="4" fill="#F3F3F3"/> -->
  <path fill-rule="evenodd" clip-rule="evenodd"
    d="M23.8093 16.2437L10.6553 8.22835C10.2823 8.0022 9.93832 7.9496 9.65967 8.04593L20.434 19.985L23.8093 16.2437Z"
    fill="black" />
  <path fill-rule="evenodd" clip-rule="evenodd"
    d="M23.8265 23.7448L28.317 21.0086C29.2275 20.4518 29.2275 19.5458 28.317 18.9904L23.8098 16.2439L20.434 19.9851L23.8265 23.7448Z"
    fill="black" />
  <path fill-rule="evenodd" clip-rule="evenodd"
    d="M9.65903 8.04565C9.25892 8.18435 9 8.63321 9 9.31232L9.00247 30.6858C9.00247 31.3574 9.25338 31.7994 9.64176 31.947L20.434 19.9868L9.65903 8.04565Z"
    fill="black" />
  <path fill-rule="evenodd" clip-rule="evenodd"
    d="M9.64172 31.9473C9.92223 32.0525 10.273 32.0033 10.6552 31.771L23.8246 23.7447L20.434 19.9871L9.64172 31.9473Z"
    fill="black" />
  <mask id="mask0" style="mask-type:alpha" maskUnits="userSpaceOnUse" x="9" y="19" width="15" height="13">
    <path fill-rule="evenodd" clip-rule="evenodd"
      d="M9.64172 31.9473C9.92223 32.0525 10.273 32.0033 10.6552 31.771L23.8246 23.7447L20.434 19.9871L9.64172 31.9473Z"
      fill="white" />
  </mask>
  <g mask="url(#mask0)">
  </g>
  <path
    d="M43.2419 25.2866C43.2419 26.7403 42.7959 27.8991 41.9039 28.7631C41.012 29.6218 39.8123 30.0512 38.3048 30.0512C36.6669 30.0512 35.3733 29.5261 34.424 28.4759C33.4747 27.4206 33 25.985 33 24.1692C33 22.3792 33.4773 20.954 34.4318 19.8934C35.3864 18.8277 36.6669 18.2949 38.2735 18.2949C39.5776 18.2949 40.6703 18.6363 41.5519 19.3192C42.4334 20.0021 42.9654 20.9152 43.148 22.0585H41.1372C40.9337 21.4221 40.5843 20.9333 40.0887 20.5918C39.5984 20.2504 38.9933 20.0797 38.2735 20.0797C37.2877 20.0797 36.5052 20.4444 35.9263 21.1738C35.3525 21.9033 35.0656 22.8965 35.0656 24.1536C35.0656 25.4263 35.3577 26.4299 35.9419 27.1645C36.5313 27.8991 37.3294 28.2664 38.3361 28.2664C39.1968 28.2664 39.8957 28.0285 40.433 27.5525C40.9703 27.0766 41.2467 26.4532 41.2624 25.6824L41.2702 25.4496H38.5552V23.882H43.2419V25.2866Z"
    fill="black" />
  <path
    d="M46.5635 27.5991C46.9338 28.0854 47.4581 28.3285 48.1362 28.3285C48.8143 28.3285 49.3359 28.0854 49.701 27.5991C50.0713 27.1076 50.2565 26.417 50.2565 25.5272C50.2565 24.6425 50.0713 23.9545 49.701 23.463C49.3307 22.9715 48.809 22.7258 48.1362 22.7258C47.4581 22.7258 46.9338 22.9715 46.5635 23.463C46.1931 23.9545 46.008 24.6425 46.008 25.5272C46.008 26.417 46.1931 27.1076 46.5635 27.5991ZM48.1362 29.9426C46.853 29.9426 45.8463 29.552 45.116 28.7708C44.3858 27.9845 44.0206 26.9033 44.0206 25.5272C44.0206 24.1614 44.3884 23.0854 45.1238 22.299C45.8593 21.5075 46.8634 21.1117 48.1362 21.1117C49.4141 21.1117 50.4182 21.5049 51.1485 22.2913C51.884 23.0776 52.2517 24.1562 52.2517 25.5272C52.2517 26.9033 51.884 27.9845 51.1485 28.7708C50.4182 29.552 49.4141 29.9426 48.1362 29.9426Z"
    fill="black" />
  <path
    d="M55.3855 27.5991C55.7559 28.0854 56.2801 28.3285 56.9582 28.3285C57.6363 28.3285 58.1579 28.0854 58.523 27.5991C58.8934 27.1076 59.0785 26.417 59.0785 25.5272C59.0785 24.6425 58.8934 23.9545 58.523 23.463C58.1527 22.9715 57.6311 22.7258 56.9582 22.7258C56.2801 22.7258 55.7559 22.9715 55.3855 23.463C55.0152 23.9545 54.83 24.6425 54.83 25.5272C54.83 26.417 55.0152 27.1076 55.3855 27.5991ZM56.9582 29.9426C55.675 29.9426 54.6683 29.552 53.938 28.7708C53.2078 27.9845 52.8427 26.9033 52.8427 25.5272C52.8427 24.1614 53.2104 23.0854 53.9459 22.299C54.6813 21.5075 55.6854 21.1117 56.9582 21.1117C58.2361 21.1117 59.2402 21.5049 59.9705 22.2913C60.706 23.0776 61.0737 24.1562 61.0737 25.5272C61.0737 26.9033 60.706 27.9845 59.9705 28.7708C59.2402 29.552 58.2361 29.9426 56.9582 29.9426Z"
    fill="black" />
  <path
    d="M67.3529 27.3663C67.7389 26.8903 67.9319 26.2463 67.9319 25.434C67.9319 24.6218 67.7389 23.9778 67.3529 23.5018C66.9669 23.0207 66.4374 22.7801 65.7646 22.7801C65.0969 22.7801 64.5753 23.0181 64.1997 23.4941C63.8294 23.97 63.6442 24.6167 63.6442 25.434C63.6442 26.2514 63.8294 26.8981 64.1997 27.374C64.5701 27.8448 65.0917 28.0802 65.7646 28.0802C66.4374 28.0802 66.9669 27.8422 67.3529 27.3663ZM65.7646 33C64.6744 33 63.7876 32.7801 63.1043 32.3404C62.4262 31.9007 62.0481 31.3135 61.9698 30.5789H63.918C63.9806 30.8738 64.1762 31.1066 64.5049 31.2773C64.8387 31.448 65.269 31.5334 65.7959 31.5334C66.4583 31.5334 66.9747 31.3859 67.3451 31.091C67.7154 30.7962 67.9006 30.3823 67.9006 29.8495V28.2431H67.7676C67.5224 28.6984 67.1729 29.0476 66.7191 29.2907C66.2705 29.5287 65.7489 29.6477 65.1543 29.6477C64.0798 29.6477 63.2269 29.2675 62.5958 28.507C61.9646 27.7413 61.649 26.717 61.649 25.434C61.649 24.1304 61.9672 23.0905 62.6036 22.3145C63.24 21.5334 64.1006 21.1428 65.1856 21.1428C65.7698 21.1428 66.2992 21.2773 66.7739 21.5463C67.2486 21.8153 67.6033 22.18 67.838 22.6405H67.971V21.2825H69.841V29.8029C69.841 30.7858 69.4732 31.5644 68.7378 32.1386C68.0023 32.7129 67.0112 33 65.7646 33Z"
    fill="black" />
  <path d="M71.363 29.7719V18H73.3034V29.7719H71.363Z" fill="black" />
  <path
    d="M78.4089 22.6405C77.83 22.6405 77.3527 22.8293 76.9771 23.2069C76.6016 23.5846 76.3929 24.0838 76.3512 24.7046H80.3806C80.3598 24.0735 80.172 23.5717 79.8173 23.1992C79.4626 22.8267 78.9932 22.6405 78.4089 22.6405ZM80.3963 27.4361H82.235C82.0524 28.2121 81.6221 28.8251 80.944 29.2752C80.2711 29.7201 79.4339 29.9426 78.4324 29.9426C77.1753 29.9426 76.1869 29.5546 75.467 28.7786C74.7524 27.9974 74.3951 26.924 74.3951 25.5582C74.3951 24.1924 74.755 23.1112 75.4749 22.3145C76.1947 21.5127 77.1753 21.1117 78.4168 21.1117C79.6373 21.1117 80.5919 21.492 81.2804 22.2525C81.9742 23.0078 82.321 24.0554 82.321 25.3952V26.016H76.3434V26.1169C76.3694 26.8257 76.5729 27.387 76.9536 27.8008C77.3396 28.2095 77.8508 28.4139 78.4872 28.4139C79.4678 28.4139 80.1042 28.0879 80.3963 27.4361Z"
    fill="black" />
  <path
    d="M91.3193 21.1428C92.4043 21.1428 93.2624 21.5334 93.8935 22.3145C94.5299 23.0957 94.8481 24.1666 94.8481 25.5272C94.8481 26.8826 94.5325 27.9534 93.9013 28.7398C93.2754 29.521 92.4226 29.9115 91.3428 29.9115C90.7325 29.9115 90.1979 29.7874 89.7389 29.5391C89.2851 29.2856 88.9486 28.9338 88.7295 28.4837H88.5965V32.5965H86.6561V21.2825H88.5261V22.687H88.6591C88.9043 22.2059 89.2616 21.8282 89.731 21.5541C90.2057 21.2799 90.7351 21.1428 91.3193 21.1428ZM90.7091 28.2742C91.3819 28.2742 91.9062 28.031 92.2817 27.5448C92.6625 27.0585 92.8529 26.3859 92.8529 25.5272C92.8529 24.6684 92.6625 23.9959 92.2817 23.5096C91.9062 23.0233 91.3846 22.7801 90.7169 22.7801C90.0544 22.7801 89.5302 23.0259 89.1442 23.5173C88.7582 24.0088 88.5626 24.6787 88.5574 25.5272C88.5626 26.3756 88.7556 27.0455 89.1364 27.537C89.5224 28.0285 90.0466 28.2742 90.7091 28.2742Z"
    fill="black" />
  <path d="M95.9319 29.7719V18H97.8724V29.7719H95.9319Z" fill="black" />
  <path
    d="M102.313 28.3983C102.897 28.3983 103.385 28.2328 103.776 27.9017C104.167 27.5654 104.363 27.1516 104.363 26.6601V25.985L102.43 26.1092C101.366 26.1764 100.834 26.5592 100.834 27.2576C100.834 27.6094 100.97 27.8888 101.241 28.0957C101.517 28.2975 101.875 28.3983 102.313 28.3983ZM101.742 29.9115C100.907 29.9115 100.226 29.6787 99.6995 29.2131C99.1727 28.7475 98.9093 28.1319 98.9093 27.3663C98.9093 26.6006 99.1883 26.0005 99.7465 25.566C100.31 25.1314 101.113 24.8831 102.156 24.821L104.363 24.6891V23.9752C104.363 23.5561 104.225 23.2354 103.948 23.0129C103.672 22.7905 103.273 22.6793 102.751 22.6793C102.302 22.6793 101.932 22.7569 101.64 22.9121C101.348 23.0621 101.157 23.2794 101.069 23.5639H99.2379C99.3161 22.8138 99.6813 22.2188 100.333 21.7791C100.991 21.3342 101.828 21.1117 102.845 21.1117C103.94 21.1117 104.785 21.3626 105.38 21.8645C105.98 22.3663 106.28 23.0698 106.28 23.9752V29.7719H104.41V28.6079H104.277C104.037 29.0166 103.692 29.3373 103.244 29.5701C102.801 29.7977 102.3 29.9115 101.742 29.9115Z"
    fill="black" />
  <path
    d="M108.349 32.8526C107.948 32.8526 107.692 32.8422 107.583 32.8215V31.2463C107.682 31.2669 107.859 31.2773 108.115 31.2773C108.527 31.2773 108.853 31.1919 109.093 31.0212C109.338 30.8505 109.523 30.5711 109.648 30.1831L109.75 29.8107L106.691 21.2825H108.819L110.822 27.9095H110.955L112.95 21.2825H115L111.909 30.0435C111.55 31.0936 111.106 31.8231 110.579 32.2318C110.058 32.6456 109.314 32.8526 108.349 32.8526Z"
    fill="black" />
  <path
    d="M36.8221 8.95816C36.8221 8.65063 36.7047 8.40586 36.4699 8.22385C36.2351 8.04184 35.9162 7.95084 35.5132 7.95084C35.1673 7.95084 34.8785 8.04184 34.6469 8.22385C34.4152 8.40272 34.2994 8.63494 34.2994 8.9205H33.1C33.1 8.54707 33.2047 8.21444 33.4141 7.92259C33.6235 7.63075 33.9139 7.40481 34.2851 7.24477C34.6564 7.08159 35.0657 7 35.5132 7C36.3065 7 36.922 7.17103 37.3599 7.51308C37.801 7.85513 38.0216 8.33368 38.0216 8.94874C38.0216 9.25941 37.9264 9.54498 37.736 9.80544C37.5456 10.0659 37.279 10.2714 36.9363 10.4221C37.3235 10.5539 37.6186 10.7547 37.8216 11.0246C38.0279 11.2913 38.131 11.624 38.131 12.0225C38.131 12.6376 37.893 13.1271 37.4171 13.4911C36.9411 13.852 36.3065 14.0324 35.5132 14.0324C35.0245 14.0324 34.5818 13.9461 34.1852 13.7735C33.7917 13.6009 33.495 13.3656 33.2951 13.0675C33.0984 12.7694 33 12.4273 33 12.0413H34.1995C34.1995 12.3363 34.3232 12.5858 34.5707 12.7897C34.8182 12.9906 35.1324 13.091 35.5132 13.091C35.9384 13.091 36.2795 12.9922 36.5365 12.7945C36.7967 12.5968 36.9268 12.3394 36.9268 12.0225C36.9268 11.6365 36.8126 11.3572 36.5841 11.1846C36.3588 11.0089 36.0272 10.921 35.5893 10.921H34.7754V9.9796H35.5465C36.3969 9.9796 36.8221 9.63912 36.8221 8.95816Z"
    fill="black" />
  <path
    d="M42.2149 13.943C42.1641 13.8457 42.1197 13.6872 42.0816 13.4676C41.7135 13.8473 41.263 14.0371 40.7299 14.0371C40.2126 14.0371 39.7906 13.8912 39.4638 13.5994C39.1369 13.3075 38.9735 12.9467 38.9735 12.5167C38.9735 11.9738 39.1766 11.5581 39.5828 11.2694C39.9921 10.9775 40.576 10.8316 41.3344 10.8316H42.0436V10.4974C42.0436 10.2338 41.969 10.0235 41.8198 9.86663C41.6707 9.70659 41.4438 9.62657 41.1392 9.62657C40.8758 9.62657 40.6601 9.69247 40.4919 9.82427C40.3237 9.95293 40.2396 10.1177 40.2396 10.3185H39.083C39.083 10.0392 39.1766 9.77877 39.3638 9.53713C39.551 9.29236 39.8049 9.10094 40.1254 8.96287C40.449 8.82479 40.8092 8.75575 41.2058 8.75575C41.8087 8.75575 42.2895 8.90638 42.648 9.20764C43.0066 9.50575 43.1907 9.92626 43.2002 10.4691V12.7662C43.2002 13.2244 43.2652 13.59 43.3953 13.863V13.943H42.2149ZM40.9441 13.1192C41.1725 13.1192 41.3867 13.0643 41.5866 12.9545C41.7897 12.8447 41.942 12.6972 42.0436 12.512V11.5518H41.42C40.9916 11.5518 40.6696 11.6255 40.4538 11.773C40.238 11.9205 40.1301 12.1292 40.1301 12.3991C40.1301 12.6187 40.2031 12.7945 40.3491 12.9263C40.4982 13.0549 40.6965 13.1192 40.9441 13.1192Z"
    fill="black" />
  <path d="M47.841 9.77249H45.6039V13.943H44.452V8.8499H47.841V9.77249Z" fill="black" />
  <path
    d="M53.0053 11.4482C53.0053 12.2359 52.8244 12.8651 52.4627 13.3358C52.1009 13.8033 51.6154 14.0371 51.0062 14.0371C50.4414 14.0371 49.9892 13.8536 49.6497 13.4864V15.9012H48.493V8.8499H49.5592L49.6068 9.36768C49.9464 8.95973 50.4081 8.75575 50.9919 8.75575C51.6202 8.75575 52.112 8.98797 52.4674 9.45241C52.826 9.9137 53.0053 10.5554 53.0053 11.3776V11.4482ZM51.8534 11.3494C51.8534 10.841 51.7503 10.4378 51.5441 10.1396C51.341 9.84153 51.049 9.69247 50.6683 9.69247C50.1954 9.69247 49.8559 9.88546 49.6497 10.2714V12.5309C49.8591 12.9263 50.2018 13.124 50.6778 13.124C51.0459 13.124 51.333 12.978 51.5393 12.6862C51.7487 12.3912 51.8534 11.9456 51.8534 11.3494Z"
    fill="black" />
  <path
    d="M55.7326 12.3049L56.7798 8.8499H58.0126L55.9659 14.715C55.6517 15.5717 55.1186 16 54.3666 16C54.1984 16 54.0128 15.9718 53.8097 15.9153V15.0303L54.0286 15.0445C54.3206 15.0445 54.5395 14.9911 54.6855 14.8844C54.8346 14.7809 54.952 14.6051 55.0377 14.3572L55.2043 13.9195L53.3956 8.8499H54.6427L55.7326 12.3049Z"
    fill="black" />
  <path
    d="M62.5819 10.2432C62.5819 10.4691 62.5121 10.6778 62.3725 10.8692C62.2361 11.0575 62.0425 11.2082 61.7918 11.3211C62.382 11.5251 62.6771 11.9189 62.6771 12.5026C62.6771 12.9702 62.4852 13.3436 62.1012 13.6229C61.7173 13.8991 61.2032 14.0371 60.559 14.0371C60.1656 14.0371 59.807 13.9728 59.4833 13.8441C59.1597 13.7123 58.9074 13.5272 58.7265 13.2887C58.5457 13.0471 58.4552 12.7615 58.4552 12.432H59.6071C59.6071 12.6391 59.7007 12.8133 59.8879 12.9545C60.0751 13.0926 60.3115 13.1616 60.5971 13.1616C60.8795 13.1616 61.1032 13.0973 61.2683 12.9686C61.4364 12.8368 61.5205 12.6658 61.5205 12.4555C61.5205 12.2076 61.4475 12.0288 61.3016 11.9189C61.1556 11.8091 60.9303 11.7542 60.6257 11.7542H59.7975V10.9304H60.6542C61.1715 10.9242 61.4301 10.7139 61.4301 10.2997C61.4301 10.0926 61.3555 9.93096 61.2064 9.81485C61.0572 9.69874 60.8526 9.64069 60.5924 9.64069C60.3385 9.64069 60.1243 9.70345 59.9498 9.82897C59.7753 9.95136 59.688 10.1067 59.688 10.295H58.5361C58.5361 9.84623 58.7265 9.47908 59.1073 9.19351C59.4881 8.90481 59.972 8.76046 60.559 8.76046C61.1969 8.76046 61.6935 8.88912 62.0489 9.14644C62.4043 9.40377 62.5819 9.76935 62.5819 10.2432Z"
    fill="black" />
  <path d="M66.8753 8.8499H68.0271V13.943H66.8753V10.5445L64.8571 13.943H63.7053V8.8499H64.8571V12.2484L66.8753 8.8499Z"
    fill="black" />
  <path d="M73.3105 9.75837H71.6398V13.943H70.4832V9.75837H68.8315V8.8499H73.3105V9.75837Z" fill="black" />
  <path
    d="M76.0473 14.0371C75.3143 14.0371 74.7194 13.8096 74.2624 13.3546C73.8087 12.8964 73.5818 12.2877 73.5818 11.5282V11.387C73.5818 10.8787 73.6801 10.4252 73.8769 10.0267C74.0768 9.625 74.356 9.31276 74.7146 9.08996C75.0732 8.86715 75.473 8.75575 75.9141 8.75575C76.6153 8.75575 77.1564 8.97699 77.5371 9.41946C77.9211 9.86192 78.1131 10.488 78.1131 11.2976V11.7589H74.7479C74.7828 12.1794 74.924 12.512 75.1715 12.7568C75.4222 13.0016 75.7364 13.124 76.114 13.124C76.6439 13.124 77.0754 12.9121 77.4086 12.4885L78.0322 13.0769C77.8259 13.3813 77.5498 13.6182 77.204 13.7877C76.8612 13.954 76.4757 14.0371 76.0473 14.0371ZM75.9093 9.67364C75.592 9.67364 75.3349 9.78347 75.1382 10.0031C74.9446 10.2228 74.8209 10.5288 74.767 10.921H76.9707V10.8363C76.9453 10.4535 76.8422 10.1647 76.6613 9.97019C76.4805 9.77249 76.2298 9.67364 75.9093 9.67364Z"
    fill="black" />
  <path
    d="M81.5306 13.943V8.8499H83.6201C84.3246 8.8499 84.8608 8.97228 85.2289 9.21705C85.597 9.45868 85.7811 9.80701 85.7811 10.262C85.7811 10.4974 85.7065 10.7092 85.5573 10.8975C85.4114 11.0826 85.194 11.2254 84.9053 11.3258C85.2416 11.3949 85.5082 11.5345 85.7049 11.7448C85.9016 11.955 86 12.2029 86 12.4885C86 12.9623 85.8223 13.3232 85.4669 13.5711C85.1147 13.819 84.607 13.943 83.9438 13.943H81.5306ZM82.6872 11.773V13.0392H83.9533C84.5467 13.0392 84.8434 12.829 84.8434 12.4085C84.8434 11.9848 84.5419 11.773 83.939 11.773H82.6872ZM82.6872 10.954H83.6392C84.296 10.954 84.6244 10.7626 84.6244 10.3797C84.6244 9.97803 84.3135 9.77092 83.6915 9.75837H82.6872V10.954Z"
    fill="black" />
</svg>