<svg width="165" height="40" viewBox="0 0 165 40" fill="none" xmlns="http://www.w3.org/2000/svg">
  <path
    d="M59.797 20.6179C63.1053 20.6179 64.6601 22.1875 64.6601 24.6253C64.6601 27.0632 63.1053 28.6327 59.797 28.6327H55V15.7422H63.7008V18.0465H57.5474V20.6179H59.797ZM59.797 22.9222H57.5474V26.3285H59.797C61.3519 26.3285 61.9805 25.6606 61.9805 24.6253C61.9805 23.5901 61.3519 22.9222 59.797 22.9222Z"
    fill="#FF6B00" />
  <path
    d="M71.2436 21.0186H76.1068V23.3229H71.2436V26.3285H77.1654V28.6327H68.6963V15.7422H77.1654V18.0465H71.2436V21.0186Z"
    fill="#FF6B00" />
  <path d="M86.2301 28.6327H83.6827V18.0465H79.9774V15.7422H89.9353V18.0465H86.2301V28.6327Z" fill="#FF6B00" />
  <path
    d="M103.235 28.6327H100.489L99.6617 26.1615H94.5669L93.7399 28.6327H90.994L95.7248 15.7422H98.4707L103.235 28.6327ZM97.6767 20.4509C97.2136 19.1485 97.2136 18.514 97.2136 18.514H97.0151C97.0151 18.514 97.0151 19.1485 96.5519 20.4509L95.3609 23.8572H98.8346L97.6767 20.4509Z"
    fill="#FF6B00" />
  <path
    d="M110.248 18.0465C110.248 27.0632 108.429 28.8331 106.146 28.8331C105.418 28.8331 104.789 28.6661 104.789 28.6661V26.4621C104.789 26.4621 105.153 26.5622 105.517 26.5622C106.808 26.5622 107.8 25.527 107.8 18.0131V15.7422H116.402V28.6327H113.854V18.0465H110.248Z"
    fill="#171716" />
  <path
    d="M131.884 28.6327H129.138L128.311 26.1615H123.217L122.389 28.6327H119.644L124.407 15.7422H127.153L131.884 28.6327ZM126.326 20.4509C125.863 19.1485 125.863 18.514 125.863 18.514H125.665C125.665 18.514 125.665 19.1485 125.201 20.4509L124.01 23.8572H127.484L126.326 20.4509Z"
    fill="#171716" />
  <path
    d="M146.209 28.6327H143.662V22.0204C143.662 20.4175 143.86 19.9165 143.86 19.9165H143.662C143.397 20.3841 143.463 20.4175 142.371 22.0204L137.905 28.6327H135.159V15.7421H137.707V22.3544C137.707 23.9907 137.508 24.4583 137.508 24.4583H137.707C137.971 23.9907 137.872 23.9574 138.997 22.3544L143.463 15.7421H146.209V28.6327ZM142.338 11H144.489C144.489 13.0037 143.132 14.3729 140.651 14.3729C138.17 14.3729 136.814 13.0037 136.814 11H138.931C138.931 12.0019 139.526 12.603 140.618 12.603C141.743 12.603 142.338 12.0019 142.338 11Z"
    fill="#171716" />
  <path
    d="M158.88 28.9999H156.332V27.8645C152.528 27.6975 150.212 25.3598 150.212 22.0203C150.212 18.6808 152.528 16.3097 156.332 16.1762V15.0073H158.88V16.1762C162.651 16.3097 165 18.6474 165 22.0203C165 25.3932 162.651 27.7309 158.88 27.8645V28.9999ZM156.332 25.5602V18.4804C154.149 18.5806 152.892 19.8496 152.892 22.0203C152.892 24.191 154.149 25.46 156.332 25.5602ZM158.88 18.4804V25.5602C161.063 25.46 162.287 24.191 162.287 22.0203C162.287 19.8496 161.063 18.5806 158.88 18.4804Z"
    fill="#171716" />
  <path
    d="M37.5214 10.3516C34.931 5.67025 30.7177 2.26848 25.5682 0.801661C14.9882 -2.28802 3.8777 3.82892 0.78798 14.4087C-2.27053 24.9885 3.84649 36.0989 14.4265 39.1886C16.2678 39.7191 18.1404 40 20.0129 40C23.3523 40 26.6293 39.1574 29.6254 37.5033C34.3068 34.913 37.7086 30.6998 39.1755 25.5503C40.7047 20.432 40.0805 15.0329 37.5214 10.3516ZM37.3653 25.0822C19.9505 22.0861 9.83868 27.9534 5.81268 31.1991C5.56301 30.8558 5.31333 30.5437 5.06366 30.2004C8.27822 27.454 19.5136 19.3397 38.0519 21.1498C37.9583 22.4606 37.7398 23.7402 37.3653 25.0197C37.3653 25.051 37.3653 25.051 37.3653 25.0822ZM7.09226 32.6347C10.8998 29.7011 20.4811 24.2083 36.7411 26.8923C36.2418 28.1094 35.6176 29.2329 34.8998 30.294C20.6371 27.2668 12.2106 30.731 8.05975 33.5398C7.71645 33.2589 7.37315 32.9468 7.09226 32.6347ZM26.5045 19.3397C30.4681 15.2826 35.524 14.6272 37.2717 14.5336C37.771 16.0628 38.0207 17.6545 38.1143 19.2461C33.8387 18.8404 29.9687 18.934 26.5045 19.3397ZM20.0129 1.89397C21.667 1.89397 23.3523 2.11243 25.0376 2.61178C29.6878 3.95376 33.5266 7.04343 35.8361 11.2566C36.0857 11.7248 36.3042 12.1929 36.5227 12.661C33.8387 12.9107 27.8465 14.0654 23.6332 19.7454C19.9193 20.4008 16.7047 21.4307 13.9583 22.5855C14.4577 20.9002 15.1443 19.4021 15.8621 18.185C16.4239 18.2786 17.0168 18.3098 17.5786 18.3098C20.325 18.3098 22.853 17.2487 24.6319 15.2826C26.9726 12.7234 27.6592 9.07201 26.5045 5.5142L26.3172 4.95244L25.7242 4.82761C22.0727 3.98497 18.4837 5.01486 16.143 7.54278C13.8335 10.0707 13.1157 13.6597 14.2392 17.2175C13.2405 18.934 12.3042 21.0562 11.7425 23.5841C7.99733 25.3943 5.43817 27.3292 4.00254 28.5463C3.84649 28.2343 3.69045 27.9534 3.5344 27.6413C13.8023 19.6518 11.3055 8.22937 10.2444 4.76519C13.1157 2.92386 16.5175 1.89397 20.0129 1.89397ZM19.1079 12.661L18.5149 11.9432C18.4212 12.0369 17.2977 12.9731 15.9557 14.7208C15.7372 12.5362 16.3926 10.4764 17.7971 8.94718C19.4824 7.10585 22.0415 6.29442 24.7255 6.73135C25.3809 9.3841 24.8192 12.0056 23.1339 13.847C21.667 15.4698 19.5136 16.2813 17.2041 16.1564C18.5461 14.3463 19.6696 13.3788 19.7008 13.3476L19.1079 12.661ZM8.62152 5.95112C9.62022 9.54014 11.1807 18.934 2.879 25.7688C2.75417 25.363 2.62933 24.9573 2.50449 24.5204C7.18589 18.7468 7.24831 12.505 6.40566 8.07333C7.06105 7.29311 7.81008 6.5753 8.62152 5.95112ZM2.62933 14.9393C3.12868 13.1916 3.8777 11.5999 4.81398 10.1643C5.1885 13.5973 4.78277 17.8417 2.03635 21.9613C1.75547 19.683 1.94273 17.2799 2.62933 14.9393ZM14.957 37.3785C14.4577 37.2224 13.9583 37.0664 13.459 36.8791C16.7047 35.7556 21.4173 35.1002 28.0337 36.2237C23.9765 38.2211 19.3575 38.6268 14.957 37.3785ZM30.4993 34.7257C21.074 32.6971 14.9258 33.9455 11.0871 35.7244C10.5877 35.4435 10.0884 35.1314 9.65143 34.8193C10.7125 34.1327 12.0545 33.4461 13.7086 32.822C17.7034 31.3239 24.2262 30.138 33.589 31.9793C32.6527 33.0092 31.6228 33.9143 30.4993 34.7257Z"
    fill="#FF6B00" />
</svg>