<svg width="40" height="40" viewBox="0 0 40 40" fill="none" xmlns="http://www.w3.org/2000/svg">
  <path
    d="M37.1547 10.784C34.6405 6.24035 30.5511 2.93864 25.5531 1.51496C15.2843 -1.48384 4.50053 4.45318 1.50168 14.7218C-1.46688 24.9905 4.47024 35.774 14.739 38.7728C16.5262 39.2878 18.3437 39.5604 20.1612 39.5604C23.4024 39.5604 26.583 38.7425 29.4909 37.1371C34.0346 34.623 37.3364 30.5337 38.7601 25.5357C40.2444 20.568 39.6386 15.3276 37.1547 10.784ZM37.0032 25.0813C20.1006 22.1734 10.2862 27.8681 6.3786 31.0184C6.13627 30.6852 5.89394 30.3822 5.6516 30.049C8.77162 27.3834 19.6765 19.5078 37.6696 21.2647C37.5787 22.5369 37.3667 23.7788 37.0032 25.0207C37.0032 25.051 37.0032 25.051 37.0032 25.0813ZM7.62054 32.4117C11.3161 29.5644 20.6156 24.2332 36.3974 26.8382C35.9127 28.0196 35.3069 29.11 34.6102 30.1399C20.767 27.2017 12.5883 30.564 8.55958 33.2902C8.22637 33.0176 7.89317 32.7146 7.62054 32.4117ZM26.4618 19.5078C30.3088 15.57 35.216 14.9339 36.9123 14.843C37.397 16.3272 37.6393 17.8721 37.7302 19.4169C33.5803 19.0231 29.8241 19.114 26.4618 19.5078ZM20.1612 2.57514C21.7666 2.57514 23.4024 2.78718 25.0381 3.27184C29.5515 4.57435 33.2774 7.57315 35.5189 11.6624C35.7613 12.1168 35.9733 12.5712 36.1853 13.0255C33.5803 13.2679 27.7643 14.3886 23.675 19.9016C20.0703 20.5377 16.9503 21.5373 14.2847 22.6581C14.7693 21.0223 15.4357 19.5684 16.1324 18.387C16.6777 18.4779 17.2532 18.5082 17.7985 18.5082C20.4641 18.5082 22.9177 17.4783 24.6443 15.57C26.9162 13.0861 27.5826 9.54207 26.4618 6.0889L26.2801 5.54366L25.7045 5.42249C22.1604 4.60464 18.6769 5.60424 16.4051 8.05781C14.1635 10.5114 13.4668 13.9948 14.5573 17.448C13.588 19.114 12.6792 21.1738 12.134 23.6274C8.49899 25.3842 6.0151 27.2623 4.6217 28.4436C4.47024 28.1407 4.31878 27.8681 4.16733 27.5652C14.1332 19.8107 11.7099 8.72421 10.68 5.36191C13.4668 3.57475 16.7685 2.57514 20.1612 2.57514ZM19.2827 13.0255L18.7072 12.3288C18.6163 12.4197 17.5258 13.3284 16.2233 15.0247C16.0113 12.9044 16.6474 10.9052 18.0105 9.4209C19.6462 7.63373 22.1301 6.84617 24.7352 7.27024C25.3713 9.84497 24.8261 12.3894 23.1903 14.1766C21.7666 15.7517 19.6765 16.5393 17.435 16.4181C18.7375 14.6612 19.828 13.7222 19.8583 13.6919L19.2827 13.0255ZM9.10482 6.51297C10.0741 9.99643 11.5887 19.114 3.53121 25.7477C3.41004 25.3539 3.28887 24.9602 3.16771 24.5361C7.71142 18.9323 7.772 12.8741 6.95413 8.57275C7.59025 7.81548 8.31725 7.11879 9.10482 6.51297ZM3.28887 15.2368C3.77354 13.5405 4.50053 11.9956 5.40927 10.6022C5.77277 13.9343 5.37898 18.0538 2.71334 22.0522C2.44072 19.841 2.62246 17.5086 3.28887 15.2368ZM15.254 37.016C14.7693 36.8645 14.2847 36.7131 13.8 36.5313C16.9503 35.4408 21.5243 34.8047 27.9461 35.8952C24.0082 37.8338 19.5251 38.2276 15.254 37.016ZM30.3391 34.4412C21.1911 32.4723 15.2237 33.684 11.4978 35.4105C11.0132 35.1379 10.5285 34.835 10.1044 34.5321C11.1343 33.8657 12.4369 33.1993 14.0423 32.5935C17.9196 31.1395 24.2505 29.9885 33.3379 31.7756C32.4292 32.7752 31.4296 33.6537 30.3391 34.4412Z"
    fill="white" stroke="white" stroke-width="0.2" />
</svg>