
<svg width="165" height="45" viewBox="0 0 165 45" fill="none" xmlns="http://www.w3.org/2000/svg">
<path d="M42.2115 11.6455C39.2974 6.37903 34.5574 2.55204 28.7642 0.901869C16.8618 -2.57402 4.36242 4.30754 0.886478 16.2098C-2.55435 28.1121 4.32731 40.6113 16.2298 44.0871C18.3013 44.684 20.4079 45 22.5145 45C26.2714 45 29.958 44.052 33.3286 42.1912C38.5951 39.2771 42.4222 34.5372 44.0724 28.7441C45.7928 22.986 45.0906 16.912 42.2115 11.6455ZM42.036 28.2174C22.4443 24.8469 11.0685 31.4476 6.53927 35.099C6.25838 34.7128 5.9775 34.3617 5.69661 33.9755C9.313 30.8858 21.9528 21.7572 42.8084 23.7936C42.7031 25.2682 42.4573 26.7077 42.036 28.1472C42.036 28.1823 42.036 28.1823 42.036 28.2174ZM7.9788 36.714C12.2623 33.4137 23.0412 27.2344 41.3338 30.2538C40.772 31.6231 40.0698 32.8871 39.2622 34.0808C23.2168 30.6751 13.7369 34.5723 9.06722 37.7322C8.68101 37.4162 8.29479 37.0651 7.9788 36.714ZM29.8175 21.7572C34.2766 17.1929 39.9645 16.4556 41.9306 16.3503C42.4924 18.0706 42.7733 19.8613 42.8786 21.6519C38.0685 21.1954 33.7148 21.3008 29.8175 21.7572ZM22.5145 2.13072C24.3754 2.13072 26.2714 2.37649 28.1673 2.93825C33.3988 4.44798 37.7174 7.92386 40.3156 12.6637C40.5964 13.1904 40.8422 13.717 41.088 14.2437C38.0685 14.5245 31.3273 15.8236 26.5874 22.2136C22.4092 22.9509 18.7928 24.1096 15.7031 25.4086C16.2649 23.5127 17.0373 21.8274 17.8448 20.4581C18.4768 20.5635 19.1439 20.5986 19.7759 20.5986C22.8656 20.5986 25.7096 19.4048 27.7109 17.1929C30.3442 14.3139 31.1166 10.206 29.8175 6.20348L29.6069 5.5715L28.9398 5.43106C24.8318 4.48309 20.7941 5.64172 18.1608 8.48562C15.5627 11.3295 14.7551 15.3672 16.0191 19.3697C14.8956 21.3008 13.8422 23.6882 13.2103 26.5322C8.997 28.5685 6.11794 30.7454 4.50286 32.1146C4.32731 31.7635 4.15175 31.4475 3.9762 31.0965C15.5276 22.1083 12.7187 9.25804 11.525 5.36084C14.7551 3.28935 18.5822 2.13072 22.5145 2.13072ZM21.4963 14.2437L20.8292 13.4361C20.7239 13.5415 19.4599 14.5948 17.9502 16.5609C17.7044 14.1032 18.4417 11.786 20.0217 10.0656C21.9177 7.99408 24.7967 7.08123 27.8162 7.57276C28.5535 10.5571 27.9216 13.5064 26.0256 15.5778C24.3754 17.4036 21.9528 18.3164 19.3546 18.176C20.8643 16.1396 22.1283 15.0512 22.1634 15.0161L21.4963 14.2437ZM9.69921 6.69502C10.8227 10.7327 12.5783 21.3008 3.23888 28.9899C3.09844 28.5334 2.958 28.077 2.81755 27.5855C8.08413 21.0901 8.15435 14.0681 7.20637 9.08249C7.94369 8.20474 8.78634 7.39722 9.69921 6.69502ZM2.958 16.8067C3.51976 14.8405 4.36242 13.0499 5.41573 11.4349C5.83706 15.297 5.38062 20.0719 2.2909 24.7064C1.9749 22.1434 2.18557 19.4399 2.958 16.8067ZM16.8266 42.0508C16.2649 41.8752 15.7031 41.6997 15.1413 41.489C18.7928 40.225 24.0945 39.4877 31.5379 40.7517C26.9736 42.9987 21.7772 43.4552 16.8266 42.0508ZM34.3117 39.0664C23.7083 36.7843 16.7915 38.1887 12.4729 40.1899C11.9112 39.8739 11.3494 39.5228 10.8579 39.1717C12.0516 38.3993 13.5614 37.6269 15.4222 36.9247C19.9164 35.2394 27.2545 33.9052 37.7876 35.9767C36.7343 37.1354 35.5756 38.1536 34.3117 39.0664Z" fill="#F46800"/>
<path d="M63.3048 30C64.9006 30 66.2042 29.5425 67.2381 28.6165C68.2608 27.7015 68.7778 26.5969 68.7778 25.3138C68.7778 24.8006 68.6766 24.3208 68.4856 23.8745C68.2945 23.4282 68.081 23.0711 67.8562 22.8033C67.6202 22.5467 67.3505 22.3124 67.0471 22.0893C66.7324 21.8661 66.5189 21.7322 66.4065 21.6764C66.2941 21.6206 66.193 21.576 66.1256 21.5425L66.3166 21.431C66.429 21.364 66.5863 21.2301 66.7661 21.0516C66.9459 20.8731 67.137 20.6499 67.328 20.3933C67.5078 20.1478 67.6652 19.8243 67.7888 19.4449C67.9012 19.0656 67.9686 18.6527 67.9686 18.2287C67.9686 17.113 67.4854 16.1199 66.5301 15.272C65.5749 14.424 64.3724 14 62.9115 14H56V30H63.3048ZM59.4613 27.1437V23.0265H63.1362C63.7655 23.0265 64.2825 23.2273 64.6983 23.629C65.1141 24.0307 65.3276 24.5105 65.3276 25.0907C65.3276 25.6709 65.1141 26.1618 64.6983 26.5523C64.2825 26.954 63.7655 27.1437 63.1362 27.1437H59.4613ZM62.6755 16.8563C63.2374 16.8563 63.6869 17.0126 64.024 17.325C64.3499 17.6374 64.5185 18.0614 64.5185 18.5746C64.5185 19.099 64.3499 19.5119 64.024 19.8243C63.6869 20.1367 63.2374 20.2929 62.6755 20.2929H59.4613V16.8563H62.6755Z" fill="#F46800"/>
<path d="M75.4644 26.9205V23.3724H82.0163V20.2929H75.4644V17.0907H83.8593V14H72.0031V30H84.0953V26.9205H75.4644Z" fill="#F46800"/>
<path d="M85.7024 14V17.0907H90.31V30H93.7601V17.0907H98.3565V14H85.7024Z" fill="#F46800"/>
<path d="M107.785 23.2608H103.863L105.83 18.0056L107.785 23.2608ZM108.932 26.2287L110.314 30H114L107.662 14H103.987L97.6485 30H101.335L102.717 26.2287H108.932Z" fill="#F46800"/>
<path d="M127.912 30V26.9205H120.454V14H117V30H127.912Z" fill="black"/>
<path d="M130.548 30H134.002V14H130.548V30Z" fill="black"/>
<path d="M138.129 14V30H141.583V23.7183H148.121V20.6276H141.583V17.0907H149.961V14H138.129Z" fill="black"/>
<path d="M156.387 26.9205V23.3724H162.925V20.2929H156.387V17.0907H164.764V14H152.933V30H165V26.9205H156.387Z" fill="black"/>
</svg>
