<svg width="190" height="50" viewBox="0 0 190 50" fill="none" xmlns="http://www.w3.org/2000/svg">
  <path
    d="M73.3203 25.6865C76.9895 25.6865 78.714 27.4305 78.714 30.1392C78.714 32.848 76.9895 34.5919 73.3203 34.5919H68V20.269H77.6499V22.8294H70.8253V25.6865H73.3203ZM73.3203 28.2468H70.8253V32.0316H73.3203C75.0448 32.0316 75.742 31.2895 75.742 30.1392C75.742 28.9889 75.0448 28.2468 73.3203 28.2468Z"
    fill="#F46800" />
  <path
    d="M86.0157 26.1318H91.4094V28.6921H86.0157V32.0316H92.5835V34.5919H83.1904V20.269H92.5835V22.8294H86.0157V26.1318Z"
    fill="#F46800" />
  <path d="M102.637 34.5919H99.8117V22.8294H95.7023V20.269H106.746V22.8294H102.637V34.5919Z" fill="#F46800" />
  <path
    d="M121.497 34.5919H118.451L117.534 31.8461H111.883L110.966 34.5919H107.921L113.168 20.269H116.213L121.497 34.5919ZM115.332 25.501C114.819 24.0539 114.819 23.3488 114.819 23.3488H114.599C114.599 23.3488 114.599 24.0539 114.085 25.501L112.764 29.2858H116.617L115.332 25.501Z"
    fill="#F46800" />
  <path
    d="M129.275 22.8294C129.275 32.848 127.257 34.8146 124.725 34.8146C123.918 34.8146 123.221 34.6291 123.221 34.6291V32.1801C123.221 32.1801 123.625 32.2914 124.028 32.2914C125.459 32.2914 126.56 31.1411 126.56 22.7922V20.269H136.1V34.5919H133.275V22.8294H129.275Z"
    fill="black" />
  <path
    d="M153.272 34.5919H150.226L149.309 31.8461H143.658L142.741 34.5919H139.696L144.979 20.269H148.025L153.272 34.5919ZM147.107 25.501C146.594 24.0539 146.594 23.3488 146.594 23.3488H146.374C146.374 23.3488 146.374 24.0539 145.86 25.501L144.539 29.2858H148.392L147.107 25.501Z"
    fill="black" />
  <path
    d="M169.159 34.592H166.334V27.245C166.334 25.4639 166.554 24.9073 166.554 24.9073H166.334C166.04 25.4268 166.114 25.4639 164.903 27.245L159.95 34.592H156.904V20.269H159.729V27.616C159.729 29.4342 159.509 29.9537 159.509 29.9537H159.729C160.023 29.4342 159.913 29.3971 161.16 27.616L166.114 20.269H169.159V34.592ZM164.866 15H167.251C167.251 17.2264 165.747 18.7477 162.995 18.7477C160.243 18.7477 158.739 17.2264 158.739 15H161.087C161.087 16.1132 161.747 16.7811 162.958 16.7811C164.206 16.7811 164.866 16.1132 164.866 15Z"
    fill="black" />
  <path
    d="M183.212 35H180.387V33.7384C176.167 33.5529 173.599 30.9555 173.599 27.2449C173.599 23.5343 176.167 20.8998 180.387 20.7513V19.4526H183.212V20.7513C187.395 20.8998 190 23.4972 190 27.2449C190 30.9926 187.395 33.59 183.212 33.7384V35ZM180.387 31.1781V23.3117C177.965 23.423 176.571 24.833 176.571 27.2449C176.571 29.6568 177.965 31.0668 180.387 31.1781ZM183.212 23.3117V31.1781C185.634 31.0668 186.991 29.6568 186.991 27.2449C186.991 24.833 185.634 23.423 183.212 23.3117Z"
    fill="black" />
  <path
    d="M46.9017 12.9395C43.6637 7.08781 38.3972 2.8356 31.9602 1.00208C18.7353 -2.86002 4.84713 4.78615 0.984975 18.0109C-2.83817 31.2357 4.80812 45.1236 18.0331 48.9857C20.3348 49.6489 22.6755 50 25.0162 50C29.1904 50 33.2866 48.9467 37.0317 46.8791C42.8835 43.6412 47.1358 38.3747 48.9693 31.9379C50.8809 25.5401 50.1006 18.7911 46.9017 12.9395ZM46.7066 31.3527C24.9381 27.6076 12.2984 34.9417 7.26585 38.9989C6.95376 38.5698 6.64166 38.1796 6.32957 37.7505C10.3478 34.3175 24.392 24.1747 47.5649 26.4373C47.4479 28.0758 47.1748 29.6752 46.7066 31.2747C46.7066 31.3137 46.7066 31.3137 46.7066 31.3527ZM8.86533 40.7934C13.6248 37.1263 25.6013 30.2604 45.9264 33.6153C45.3022 35.1368 44.522 36.5412 43.6247 37.8676C25.7964 34.0835 15.2632 38.4137 10.0747 41.9247C9.64556 41.5736 9.21643 41.1835 8.86533 40.7934ZM33.1306 24.1747C38.0851 19.1032 44.4049 18.284 46.5896 18.167C47.2138 20.0785 47.5259 22.0681 47.6429 24.0576C42.2983 23.5505 37.4609 23.6675 33.1306 24.1747ZM25.0162 2.36746C27.0838 2.36746 29.1904 2.64054 31.297 3.26472C37.1098 4.9422 41.9082 8.80429 44.7951 14.0708C45.1072 14.656 45.3802 15.2411 45.6533 15.8263C42.2983 16.1384 34.8081 17.5818 29.5415 24.6818C24.8991 25.501 20.8809 26.7884 17.4479 28.2318C18.0721 26.1252 18.9303 24.2527 19.8276 22.7313C20.5298 22.8483 21.271 22.8873 21.9732 22.8873C25.4063 22.8873 28.5662 21.5609 30.7899 19.1032C33.7158 15.9043 34.574 11.34 33.1306 6.89275L32.8965 6.19055L32.1553 6.03451C27.5909 4.98121 23.1046 6.26857 20.1787 9.42847C17.2918 12.5884 16.3946 17.0746 17.799 21.5219C16.5506 23.6675 15.3803 26.3203 14.6781 29.4802C9.99667 31.7428 6.79771 34.1615 5.00318 35.6829C4.80812 35.2928 4.61306 34.9417 4.418 34.5516C17.2528 24.5648 14.1319 10.2867 12.8055 5.95648C16.3946 3.65483 20.6469 2.36746 25.0162 2.36746ZM23.8848 15.8263L23.1436 14.929C23.0266 15.0461 21.6221 16.2164 19.9446 18.401C19.6716 15.6702 20.4908 13.0955 22.2463 11.184C24.353 8.88232 27.5519 7.86803 30.9069 8.41418C31.7262 11.7301 31.024 15.0071 28.9173 17.3087C27.0838 19.3373 24.392 20.3516 21.5051 20.1955C23.1826 17.9329 24.587 16.7235 24.626 16.6845L23.8848 15.8263ZM10.7769 7.43891C12.0253 11.9252 13.9759 23.6675 3.59876 32.2109C3.44271 31.7038 3.28666 31.1967 3.13062 30.6505C8.98236 23.4335 9.06039 15.6312 8.00707 10.0917C8.82632 9.11638 9.7626 8.21913 10.7769 7.43891ZM3.28666 18.6741C3.91085 16.4895 4.84713 14.4999 6.01748 12.7054C6.48562 16.9966 5.97847 22.3021 2.54544 27.4516C2.19434 24.6038 2.42841 21.5999 3.28666 18.6741ZM18.6963 46.7231C18.0721 46.528 17.4479 46.333 16.8237 46.0989C20.8809 44.6945 26.7717 43.8753 35.0422 45.2797C29.9706 47.7764 24.1969 48.2835 18.6963 46.7231ZM38.1241 43.4071C26.3426 40.8714 18.6573 42.4319 13.8588 44.6555C13.2346 44.3044 12.6104 43.9143 12.0643 43.5242C13.3907 42.6659 15.0682 41.8077 17.1358 41.0275C22.1293 39.1549 30.2827 37.6725 41.9862 39.9742C40.8159 41.2615 39.5285 42.3928 38.1241 43.4071Z"
    fill="#F46800" />
</svg>