<svg xmlns="http://www.w3.org/2000/svg" width="170" height="170" fill="none" xmlns:v="https://vecta.io/nano"><circle cx="85" cy="85" r="85" fill="#fafafa"/><path d="M155.085 46.406c-10.36-18.725-27.214-32.332-47.812-38.2-42.32-12.36-86.762 12.11-99.12 54.428-12.234 42.32 12.234 86.76 54.554 99.12C70.07 163.876 77.562 165 85.052 165c13.358 0 26.465-3.37 38.45-9.987 18.725-10.36 32.332-27.214 38.2-47.812 6.117-20.473 3.62-42.07-6.617-60.795zm-.624 58.923c-69.66-11.985-110.106 11.485-126.2 24.467l-2.996-3.994c12.858-10.986 57.8-43.443 131.953-36.203-.375 5.243-1.25 10.36-2.747 15.48v.25zM33.37 135.54c15.23-11.735 53.555-33.706 118.595-22.97-1.997 4.87-4.494 9.363-7.365 13.607-57.05-12.11-90.757 1.748-107.36 12.983-1.373-1.123-2.746-2.372-3.87-3.62zm77.65-53.18c15.854-16.23 36.078-18.85 43.07-19.225 1.997 6.117 2.996 12.484 3.37 18.85-17.102-1.623-32.582-1.248-46.44.375zM85.052 12.576c6.616 0 13.358.874 20.1 2.87 18.6 5.368 33.955 17.727 43.193 34.58 1 1.873 1.873 3.745 2.747 5.618-10.736 1-34.705 5.618-51.558 28.338-14.856 2.62-27.714 6.74-38.7 11.36 1.997-6.74 4.744-12.733 7.615-17.602 2.247.375 4.62.5 6.866.5 10.986 0 21.097-4.244 28.214-12.11 9.362-10.237 12.11-24.842 7.5-39.074l-.75-2.247-2.372-.5c-14.606-3.37-28.962.75-38.325 10.86-9.238 10.112-12.11 24.468-7.615 38.7-3.995 6.866-7.74 15.355-9.987 25.466-14.98 7.24-25.217 14.98-30.96 19.85l-1.873-3.62C60.21 83.607 50.222 37.918 45.978 24.06c11.485-7.365 25.092-11.485 39.074-11.485zm-3.62 43.068l-2.372-2.87c-.374.374-4.87 4.12-10.237 11.1-.874-8.74 1.748-16.978 7.365-23.095 6.74-7.365 16.978-10.61 27.714-8.863 2.622 10.61.375 21.097-6.367 28.463-5.867 6.49-14.48 9.737-23.72 9.238 5.368-7.24 9.862-11.1 9.987-11.235l-2.372-2.746zm-41.945-26.84c3.995 14.356 10.237 51.932-22.97 79.27l-1.498-4.993c18.726-23.095 18.975-48.062 15.605-65.79 2.622-3.12 5.618-5.992 8.864-8.49zm-23.97 35.953c1.997-6.99 4.993-13.357 8.74-19.1 1.498 13.732-.125 30.7-11.1 47.188-1.123-9.113-.375-18.725 2.372-28.088zm49.31 89.757c-1.997-.624-3.995-1.25-5.992-1.998 12.983-4.494 31.833-7.115 58.3-2.62-16.23 7.99-34.705 9.612-52.307 4.62zm62.17-10.61c-37.7-8.114-62.294-3.12-77.65 3.995-1.997-1.124-3.995-2.372-5.742-3.62 4.245-2.746 9.613-5.492 16.23-7.99 15.98-5.992 42.07-10.736 79.52-3.37-3.745 4.12-7.865 7.74-12.36 10.986z" fill="#fff"/><path d="M85.023 86.32l6.622 6.62c.512.5 1.07.56 1.478.128.396-.407.35-.942-.14-1.43l-2.386-2.385c-.163-.163-.36-.3-.5-.396l2.48-2.467 1.513 1.56 1.315 1.315c.524.512 1 .524 1.513 0l2.933-2.944.3.233 5.912 5.934c.186.198.326.524.337.8l.012 5.655h-.93c-1.57 0-3.142.012-4.713-.012-.268 0-.606-.14-.803-.326l-2.98-2.944c-.524-.524-1.06-.582-1.478-.175s-.372.954.14 1.478l1.98 1.955H63.575v-.966l.012-4.712c0-.2.07-.477.2-.617l6.308-6.306.78.768 2.013 2.013c.756.756 1.117.745 1.897-.023L77.6 86.25l1.653 1.745 1.234 1.233c.582.558 1.024.558 1.606-.012l2.514-2.502c.105-.116.244-.233.42-.396zm-13.86 6.05c-.244-.28-.442-.605-.72-.78-.396-.244-.78-.046-1.094.268l-3.526 3.537c-.477.5-.5 1.036-.093 1.43.396.384.93.35 1.385-.093l3.573-3.572c.186-.186.28-.454.477-.8zM98.966 70.1c.012 1.64-1.117 2.793-2.758 2.793-1.687 0-2.816-1.105-2.816-2.793-.012-1.64 1.117-2.793 2.758-2.793 1.688 0 2.805 1.105 2.816 2.793z" fill="#ec7e3b"/><path d="M112 85.006v22.107c0 2.77-2.118 4.887-4.9 4.887H62.946c-2.863-.012-4.946-2.094-4.946-4.968V62.945C58 60.083 60.095 58 62.958 58h44.038c2.944 0 5.004 2.06 5.004 5.015v22zm-1.862.023V62.922c0-2.025-1.013-3.06-3.026-3.06H62.83c-1.932 0-2.968 1.047-2.968 3.002v44.214c0 2.048 1.024 3.06 3.084 3.06h44.4c1.56 0 2.63-.954 2.78-2.408.035-.303.024-.617.024-.93l-.012-21.77zm-25.162 15.79H63.05c-1.06 0-1.327-.267-1.327-1.35V64.75c0-1.303.722-2.42 1.92-2.84.442-.15.943-.186 1.42-.186h40.256a2.92 2.92 0 0 1 2.956 2.944v35c0 .803-.35 1.13-1.187 1.13l-22.112.01zM106.4 90.15l.023-.442V64.632c0-.814-.256-1.047-1.106-1.047H64.75c-.943 0-1.164.22-1.164 1.152V89.52l.023.535.14.07c.128-.163.244-.35.396-.5L76.7 77.082c.617-.617 1.106-.617 1.7-.035l9.857 9.88.582.535c.14-.2.233-.407.384-.558l6.122-6.132c.57-.57 1.082-.593 1.606-.058l3.817 3.828 5.633 5.608zm-21.377-3.83l-.43.396-2.514 2.502c-.582.582-1.024.582-1.606.012l-1.234-1.233-1.653-1.745-2.805 2.816c-.768.768-1.13.78-1.897.023l-2.013-2.013-.78-.768-6.308 6.306c-.14.14-.198.407-.2.617l.012 4.736v.966h34.053l-1.98-1.955c-.512-.512-.56-1.07-.14-1.478s.954-.35 1.478.174l2.98 2.944a1.34 1.34 0 0 0 .803.326l5.645.012-.012-5.655a1.19 1.19 0 0 0-.338-.79l-5.912-5.934c-.08-.082-.174-.14-.3-.233L96.93 89.3c-.524.512-1 .512-1.513 0L94.1 87.975l-1.513-1.56-2.48 2.467c.128.105.326.233.5.396l2.386 2.385c.5.5.535 1.024.14 1.43-.407.42-.954.372-1.478-.128l-.244-.244-6.4-6.4zm-1.525-1.28l-5.982-5.98-5.96 5.946 2.34 2.316 2.747-2.758c.7-.698 1.152-.675 1.85.035l2.723 2.7a105.85 105.85 0 0 0 2.281-2.269zm14.955-.012l-2.234-2.246-2.234 2.222 2.2 2.27 2.258-2.246zm-24.567 21.375h7.146c.43 0 .815.082 1.047.5.384.675-.105 1.385-.966 1.385h-14.64c-.628 0-1.036-.396-1.024-.943.012-.535.396-.884 1-.907.175-.012.35 0 .524 0l6.913-.024zm24.1 1.862H92.75c-.8 0-1.222-.326-1.222-.92-.012-.594.43-.943 1.2-.943l10.637.012c.337 0 .756.14.966.36.174.197.232.72.093.93-.175.268-.594.512-.92.524l-5.528.035zm-11.196 0h-1.746c-.582-.012-.978-.407-.966-.93.012-.535.396-.907 1-.92h3.596c.593.012 1 .384 1 .908.012.546-.384.93-1.013.942h-1.86zM100.828 70.1c0 2.444-2.212 4.654-4.656 4.654-2.432 0-4.655-2.222-4.655-4.654 0-2.443 2.2-4.654 4.655-4.654 2.432 0 4.667 2.222 4.656 4.654zm-1.862 0c-.012-1.687-1.13-2.793-2.816-2.793-1.64 0-2.77 1.14-2.758 2.793.012 1.687 1.13 2.792 2.816 2.792 1.63 0 2.77-1.152 2.758-2.792zM71.162 92.37c-.198.338-.3.605-.466.78l-3.573 3.572c-.454.454-1 .477-1.385.093-.407-.396-.384-.942.093-1.43l3.526-3.537c.314-.314.687-.512 1.094-.268.268.198.466.512.7.8z" fill="#171716"/></svg>