<svg width="55" height="55" viewBox="0 0 55 55" fill="none" xmlns="http://www.w3.org/2000/svg">
<g filter="url(#filter0_d)">
<rect x="5" y="2" width="45" height="45" rx="22.5" fill="url(#paint0_linear)"/>
</g>
<path d="M27.5024 14.0051C29.9618 14.0051 32.4262 14 34.8855 14.0051C36.2705 14.0103 37.4264 14.8441 37.8388 16.141C37.9305 16.4395 37.9916 16.7638 37.9916 17.0726C38.0017 22.1009 38.0017 27.1241 37.9967 32.1525C37.9967 33.8458 36.6168 35.2199 34.9416 35.2251C33.8366 35.2302 32.7368 35.2354 31.6319 35.2199C31.2602 35.2148 31.0209 35.3486 30.807 35.6574C29.8956 36.9904 28.9688 38.308 28.037 39.6307C27.6857 40.1299 27.3191 40.1196 26.9678 39.6204C26.0258 38.2771 25.0838 36.9338 24.152 35.5854C23.9789 35.3332 23.7752 35.2199 23.4748 35.2251C22.3546 35.2354 21.2344 35.2302 20.1142 35.2302C18.3829 35.2251 17.0183 33.8715 17.0132 32.1216C16.998 27.1087 16.998 22.1009 17.003 17.0932C17.003 15.3639 18.3575 14.0154 20.0938 14.0051C21.937 13.9949 23.7752 14.0051 25.6184 14C26.2447 14 26.871 14 27.5024 14.0051ZM29.8446 29.4608C29.8446 28.8689 29.8446 28.277 29.8446 27.6851C29.8446 27.1962 30.0025 27.0315 30.4811 27.0315C31.6421 27.0315 32.8081 27.0315 33.969 27.0315C34.4222 27.0315 34.5851 26.8668 34.5851 26.4139C34.5851 25.2456 34.5851 24.0824 34.5851 22.9141C34.5851 22.4303 34.4222 22.2708 33.9385 22.2656C32.8081 22.2656 31.6828 22.2656 30.5524 22.2656C29.9821 22.2656 29.8395 22.1267 29.8395 21.5605C29.8395 20.4025 29.8395 19.2445 29.8395 18.0865C29.8395 17.649 29.6664 17.474 29.2387 17.474C28.0778 17.474 26.9117 17.474 25.7508 17.474C25.3078 17.474 25.1398 17.649 25.1398 18.1019C25.1398 19.2702 25.1398 20.4334 25.1398 21.6017C25.1398 22.1061 24.9819 22.2708 24.488 22.2708C23.3424 22.2708 22.1967 22.2708 21.051 22.2708C20.552 22.2708 20.3942 22.4303 20.3942 22.9296C20.3942 24.0773 20.3942 25.2302 20.3942 26.3779C20.3942 26.8771 20.552 27.0366 21.051 27.0366C22.1865 27.0366 23.3271 27.0366 24.4626 27.0366C24.987 27.0366 25.1398 27.1911 25.1398 27.7315C25.1398 28.9049 25.1398 30.0835 25.1398 31.257C25.1398 31.6378 25.3231 31.8282 25.6999 31.8282C26.8965 31.8334 28.093 31.8334 29.2896 31.8282C29.6511 31.8282 29.8345 31.6378 29.8345 31.2673C29.8497 30.6651 29.8446 30.0629 29.8446 29.4608Z" fill="white"/>
<defs>
<filter id="filter0_d" x="0" y="0" width="55" height="55" filterUnits="userSpaceOnUse" color-interpolation-filters="sRGB">
<feFlood flood-opacity="0" result="BackgroundImageFix"/>
<feColorMatrix in="SourceAlpha" type="matrix" values="0 0 0 0 0 0 0 0 0 0 0 0 0 0 0 0 0 0 127 0"/>
<feOffset dy="3"/>
<feGaussianBlur stdDeviation="2.5"/>
<feColorMatrix type="matrix" values="0 0 0 0 1 0 0 0 0 0.419608 0 0 0 0 0 0 0 0 0.3 0"/>
<feBlend mode="normal" in2="BackgroundImageFix" result="effect1_dropShadow"/>
<feBlend mode="normal" in="SourceGraphic" in2="effect1_dropShadow" result="shape"/>
</filter>
<linearGradient id="paint0_linear" x1="41.1691" y1="38.7904" x2="13.2097" y2="10.831" gradientUnits="userSpaceOnUse">
<stop stop-color="#FF8900"/>
<stop offset="1" stop-color="#FF6B00"/>
</linearGradient>
</defs>
</svg>
