<svg width="55" height="55" viewBox="0 0 55 55" fill="none" xmlns="http://www.w3.org/2000/svg">
<g filter="url(#filter0_d)">
<rect x="5" y="2" width="45" height="45" rx="22.5" fill="url(#paint0_linear)"/>
</g>
<path d="M28 27.8011C29.462 27.8011 30.6514 26.5971 30.6514 25.1172C30.6514 23.6372 29.462 22.4332 28 22.4332C26.538 22.4332 25.3486 23.6372 25.3486 25.1172C25.3486 26.5971 26.538 27.8011 28 27.8011ZM28 24.2274C28.4927 24.2274 28.8576 24.6351 28.8789 25.1172C28.9002 25.5977 28.4597 26.0069 28 26.0069C27.5073 26.0069 27.1424 25.5992 27.1211 25.1172C27.0998 24.6366 27.5403 24.2274 28 24.2274Z" fill="white"/>
<path d="M42.7759 24.5236C42.7085 24.4474 41.0958 22.6371 38.4846 20.8114C34.9936 18.3703 31.3681 17.08 28 17.08C24.6319 17.08 21.0064 18.3703 17.5154 20.8114C14.9042 22.6372 13.2915 24.4474 13.2241 24.5236C12.9253 24.8614 12.9253 25.3727 13.2241 25.7107C13.2915 25.7868 14.9042 27.5971 17.5154 29.4229C21.0064 31.864 24.632 33.1542 28 33.1542C31.368 33.1542 34.9936 31.864 38.4846 29.4229C41.0958 27.597 42.7085 25.7868 42.7759 25.7107C43.0747 25.3728 43.0747 24.8615 42.7759 24.5236ZM28 20.6537C30.4312 20.6537 32.4092 22.656 32.4092 25.1172C32.4092 27.5783 30.4312 29.5806 28 29.5806C25.5688 29.5806 23.5908 27.5783 23.5908 25.1172C23.5908 22.656 25.5688 20.6537 28 20.6537Z" fill="white"/>
<path d="M28 15.7603C28.4854 15.7603 28.8789 15.3619 28.8789 14.8705V11.89C28.8789 11.3986 28.4854 11.0002 28 11.0002C27.5146 11.0002 27.1211 11.3986 27.1211 11.89V14.8705C27.1211 15.3619 27.5146 15.7603 28 15.7603Z" fill="white"/>
<path d="M21.8953 16.1377C22.0649 16.3939 22.3429 16.5322 22.6262 16.5322C22.7944 16.5322 22.9645 16.4834 23.1147 16.3815C23.5179 16.108 23.6257 15.5553 23.3555 15.1471L21.6695 12.6004C21.3994 12.1923 20.8533 12.0831 20.4501 12.3567C20.0469 12.6302 19.9391 13.1828 20.2093 13.5911L21.8953 16.1377Z" fill="white"/>
<path d="M32.8853 16.3815C33.0355 16.4835 33.2056 16.5322 33.3738 16.5322C33.6571 16.5322 33.9352 16.3939 34.1048 16.1377L35.7907 13.5911C36.0609 13.1828 35.953 12.6302 35.5499 12.3567C35.1466 12.083 34.6007 12.1922 34.3304 12.6004L32.6445 15.1471C32.3743 15.5553 32.4821 16.108 32.8853 16.3815Z" fill="white"/>
<path d="M28 34.2402C27.5146 34.2402 27.1211 34.6386 27.1211 35.13V38.1105C27.1211 38.6019 27.5146 39.0002 28 39.0002C28.4854 39.0002 28.8789 38.6019 28.8789 38.1105V35.13C28.8789 34.6386 28.4854 34.2402 28 34.2402Z" fill="white"/>
<path d="M34.1047 33.8628C33.8345 33.4546 33.2884 33.3454 32.8853 33.619C32.482 33.8925 32.3742 34.4452 32.6444 34.8534L34.3304 37.4001C34.4999 37.6562 34.778 37.7946 35.0613 37.7946C35.2295 37.7946 35.3996 37.7457 35.5498 37.6438C35.953 37.3703 36.0609 36.8176 35.7906 36.4094L34.1047 33.8628Z" fill="white"/>
<path d="M23.1147 33.619C22.7115 33.3454 22.1656 33.4546 21.8953 33.8628L20.2093 36.4094C19.9391 36.8176 20.0469 37.3703 20.4501 37.6438C20.6004 37.7458 20.7704 37.7946 20.9386 37.7946C21.2219 37.7946 21.5 37.6562 21.6695 37.4001L23.3555 34.8534C23.6258 34.4452 23.5179 33.8925 23.1147 33.619Z" fill="white"/>
<defs>
<filter id="filter0_d" x="0" y="0" width="55" height="55" filterUnits="userSpaceOnUse" color-interpolation-filters="sRGB">
<feFlood flood-opacity="0" result="BackgroundImageFix"/>
<feColorMatrix in="SourceAlpha" type="matrix" values="0 0 0 0 0 0 0 0 0 0 0 0 0 0 0 0 0 0 127 0"/>
<feOffset dy="3"/>
<feGaussianBlur stdDeviation="2.5"/>
<feColorMatrix type="matrix" values="0 0 0 0 1 0 0 0 0 0.419608 0 0 0 0 0 0 0 0 0.3 0"/>
<feBlend mode="normal" in2="BackgroundImageFix" result="effect1_dropShadow"/>
<feBlend mode="normal" in="SourceGraphic" in2="effect1_dropShadow" result="shape"/>
</filter>
<linearGradient id="paint0_linear" x1="41.1691" y1="38.7904" x2="13.2097" y2="10.831" gradientUnits="userSpaceOnUse">
<stop stop-color="#FF8900"/>
<stop offset="1" stop-color="#FF6B00"/>
</linearGradient>
</defs>
</svg>
