<svg width="150" height="45" viewBox="0 0 150 45" fill="none" xmlns="http://www.w3.org/2000/svg">
<rect width="150" height="45" rx="10" fill="black"/>
<path fill-rule="evenodd" clip-rule="evenodd" d="M26.307 12.6797C27.3136 11.436 28.047 9.72514 27.8577 8C26.354 8.05481 24.5633 8.98164 23.4967 10.2333C22.5359 11.3116 21.7017 13.09 21.9408 14.7631C23.5753 14.8702 25.2554 13.9316 26.307 12.6797Z" fill="white"/>
<path fill-rule="evenodd" clip-rule="evenodd" d="M30.6612 25.9094L30.6371 25.8632C30.1688 24.9296 29.9554 23.4701 30.1347 22.2878V22.2439H30.1359C30.3236 20.6955 31.3311 19.1113 32.1365 18.5365C32.1462 18.5297 32.1571 18.5217 32.1681 18.513V18.5096H32.1703C32.3489 18.3145 32.858 17.9101 33.2018 17.6648C31.9319 15.8155 29.8524 14.8181 27.7349 14.7859C25.5994 14.6084 23.3833 16.1236 22.1884 16.089C21.0323 16.1236 19.2858 14.7562 17.4429 14.8425L17.4248 14.8398C17.3835 14.8398 17.0515 14.858 17.0515 14.858C14.6088 14.9175 12.4434 16.3423 11.2137 18.5025V18.5096H11.2062V18.5025C10.7197 19.281 10.1362 21.0956 10.0492 22.2439V22.3049C9.93156 23.0335 10.0451 24.9754 10.1775 25.9094C10.1831 25.9258 10.1844 25.9425 10.1856 25.9558L10.1884 25.9539C10.2917 26.8848 10.7691 28.6836 11.1274 29.5631V29.5708H11.1255C11.4691 30.5429 12.4296 32.3659 13.0494 33.2977V33.3045H13.056C14.3082 35.0838 15.7821 37.0833 17.7254 36.9972C19.6027 36.9266 20.2939 35.7629 22.5551 35.7812C24.815 35.7629 25.4405 36.9418 27.421 36.9502C29.4401 36.8644 30.6913 35.0863 31.9441 33.3045C32.5573 32.3863 33.5194 30.6197 33.8595 29.5708H33.8642C33.9024 29.4603 33.9596 29.2897 34 29.1658C32.6721 28.793 31.1825 27.0622 30.6612 25.9094Z" fill="white"/>
<path d="M40.3167 7.35914H43.1063C44.3123 7.35914 45.2535 7.72208 45.9298 8.44796C46.606 9.17004 46.9442 10.1771 46.9442 11.4693C46.9442 12.7652 46.606 13.7761 45.9298 14.502C45.2572 15.2241 44.3161 15.5851 43.1063 15.5851H40.3167V7.35914ZM41.3311 8.28264V14.6616H43.0387C43.9442 14.6616 44.6486 14.3823 45.152 13.8236C45.6555 13.265 45.9072 12.484 45.9072 11.4807C45.9072 10.4736 45.6536 9.6888 45.1464 9.12633C44.643 8.56387 43.9404 8.28264 43.0387 8.28264H41.3311Z" fill="white"/>
<path d="M49.745 14.2113C50.0569 14.6103 50.5002 14.8099 51.075 14.8099C51.6499 14.8099 52.0932 14.6103 52.405 14.2113C52.7169 13.8084 52.8728 13.2422 52.8728 12.5125C52.8728 11.7828 52.7169 11.2185 52.405 10.8194C52.0932 10.4166 51.6499 10.2152 51.075 10.2152C50.5002 10.2152 50.0569 10.4166 49.745 10.8194C49.4332 11.2185 49.2773 11.7828 49.2773 12.5125C49.2773 13.2422 49.4332 13.8084 49.745 14.2113ZM53.1208 14.8441C52.6211 15.4103 51.9392 15.6935 51.075 15.6935C50.2109 15.6935 49.5271 15.4103 49.0237 14.8441C48.524 14.274 48.2742 13.4968 48.2742 12.5125C48.2742 11.5244 48.524 10.7472 49.0237 10.1809C49.5234 9.61469 50.2072 9.33156 51.075 9.33156C51.9429 9.33156 52.6267 9.61469 53.1264 10.1809C53.6261 10.7472 53.8759 11.5244 53.8759 12.5125C53.8759 13.4968 53.6242 14.274 53.1208 14.8441Z" fill="white"/>
<path d="M62.814 9.43987L61.112 15.5851H60.1258L58.7676 10.8308H58.6774L57.3249 15.5851H56.3443L54.6424 9.43987H55.623L56.8177 14.3538H56.9079L58.266 9.43987H59.1959L60.5541 14.3538H60.6443L61.839 9.43987H62.814Z" fill="white"/>
<path d="M64.1101 15.5851V9.43987H65.0344V10.409H65.1245C65.4477 9.6907 66.0563 9.33156 66.9505 9.33156C67.6305 9.33156 68.1546 9.52918 68.5228 9.92442C68.891 10.3159 69.0751 10.8764 69.0751 11.6061V15.5851H68.1058V11.8455C68.1058 11.2945 67.9874 10.8859 67.7507 10.6199C67.5178 10.3501 67.159 10.2152 66.6743 10.2152C66.1859 10.2152 65.7971 10.371 65.5078 10.6826C65.2222 10.9904 65.0795 11.4123 65.0795 11.9481V15.5851H64.1101Z" fill="white"/>
<path d="M70.9067 15.5851V7H71.876V15.5851H70.9067Z" fill="white"/>
<path d="M74.9248 14.2113C75.2367 14.6103 75.68 14.8099 76.2548 14.8099C76.8296 14.8099 77.273 14.6103 77.5848 14.2113C77.8967 13.8084 78.0526 13.2422 78.0526 12.5125C78.0526 11.7828 77.8967 11.2185 77.5848 10.8194C77.273 10.4166 76.8296 10.2152 76.2548 10.2152C75.68 10.2152 75.2367 10.4166 74.9248 10.8194C74.613 11.2185 74.4571 11.7828 74.4571 12.5125C74.4571 13.2422 74.613 13.8084 74.9248 14.2113ZM78.3005 14.8441C77.8008 15.4103 77.1189 15.6935 76.2548 15.6935C75.3907 15.6935 74.7069 15.4103 74.2035 14.8441C73.7038 14.274 73.4539 13.4968 73.4539 12.5125C73.4539 11.5244 73.7038 10.7472 74.2035 10.1809C74.7032 9.61469 75.3869 9.33156 76.2548 9.33156C77.1227 9.33156 77.8065 9.61469 78.3062 10.1809C78.8059 10.7472 79.0557 11.5244 79.0557 12.5125C79.0557 13.4968 78.804 14.274 78.3005 14.8441Z" fill="white"/>
<path d="M82.4483 14.8327C82.948 14.8327 83.3613 14.6863 83.6881 14.3937C84.0188 14.1011 84.1841 13.7343 84.1841 13.2935V12.7291L82.5498 12.8374C82.0914 12.8678 81.7551 12.9648 81.541 13.1282C81.3268 13.2916 81.2198 13.5291 81.2198 13.8408C81.2198 14.1486 81.3344 14.3918 81.5635 14.5704C81.7927 14.7452 82.0876 14.8327 82.4483 14.8327ZM82.268 15.6935C81.6706 15.6935 81.1784 15.5281 80.7915 15.1975C80.4082 14.8631 80.2166 14.4184 80.2166 13.8636C80.2166 13.3163 80.4082 12.8868 80.7915 12.5752C81.1747 12.2636 81.7213 12.0869 82.4314 12.0451L84.1841 11.9367V11.3781C84.1841 10.998 84.0676 10.7073 83.8347 10.5059C83.6017 10.3045 83.2598 10.2038 82.809 10.2038C82.4446 10.2038 82.1421 10.2703 81.9017 10.4033C81.6612 10.5363 81.5072 10.7244 81.4396 10.9676H80.459C80.5228 10.4774 80.7727 10.0821 81.2085 9.78191C81.6481 9.48167 82.1928 9.33156 82.8428 9.33156C83.5792 9.33156 84.1484 9.51208 84.5504 9.87312C84.9524 10.2342 85.1534 10.7358 85.1534 11.3781V15.5851H84.2292V14.6787H84.139C83.9436 15.0056 83.6844 15.2564 83.3613 15.4312C83.0382 15.606 82.6737 15.6935 82.268 15.6935Z" fill="white"/>
<path d="M89.1941 15.6935C88.4164 15.6935 87.7965 15.4046 87.3344 14.827C86.8723 14.2493 86.6412 13.4778 86.6412 12.5125C86.6412 11.551 86.8723 10.7814 87.3344 10.2038C87.8002 9.62229 88.4202 9.33156 89.1941 9.33156C89.6187 9.33156 89.9981 9.42847 90.3325 9.62229C90.6706 9.81231 90.9261 10.0745 91.0989 10.409H91.1835V7H92.1528V15.5851H91.2286V14.6046H91.1384C90.9468 14.9467 90.68 15.2146 90.3381 15.4084C89.9962 15.5984 89.6149 15.6935 89.1941 15.6935ZM89.4195 10.2152C88.8672 10.2152 88.4333 10.4204 88.1177 10.8308C87.8021 11.2375 87.6443 11.798 87.6443 12.5125C87.6443 13.2308 87.8002 13.7932 88.1121 14.1999C88.4277 14.6065 88.8635 14.8099 89.4195 14.8099C89.9718 14.8099 90.4076 14.6046 90.727 14.1942C91.0463 13.7837 91.206 13.2232 91.206 12.5125C91.206 11.8094 91.0445 11.2508 90.7214 10.8365C90.402 10.4223 89.9681 10.2152 89.4195 10.2152Z" fill="white"/>
<path d="M98.459 14.2113C98.7708 14.6103 99.2142 14.8099 99.789 14.8099C100.364 14.8099 100.807 14.6103 101.119 14.2113C101.431 13.8084 101.587 13.2422 101.587 12.5125C101.587 11.7828 101.431 11.2185 101.119 10.8194C100.807 10.4166 100.364 10.2152 99.789 10.2152C99.2142 10.2152 98.7708 10.4166 98.459 10.8194C98.1472 11.2185 97.9913 11.7828 97.9913 12.5125C97.9913 13.2422 98.1472 13.8084 98.459 14.2113ZM101.835 14.8441C101.335 15.4103 100.653 15.6935 99.789 15.6935C98.9249 15.6935 98.2411 15.4103 97.7377 14.8441C97.238 14.274 96.9881 13.4968 96.9881 12.5125C96.9881 11.5244 97.238 10.7472 97.7377 10.1809C98.2373 9.61469 98.9211 9.33156 99.789 9.33156C100.657 9.33156 101.341 9.61469 101.84 10.1809C102.34 10.7472 102.59 11.5244 102.59 12.5125C102.59 13.4968 102.338 14.274 101.835 14.8441Z" fill="white"/>
<path d="M104.111 15.5851V9.43987H105.036V10.409H105.126C105.449 9.6907 106.058 9.33156 106.952 9.33156C107.632 9.33156 108.156 9.52918 108.524 9.92442C108.892 10.3159 109.076 10.8764 109.076 11.6061V15.5851H108.107V11.8455C108.107 11.2945 107.989 10.8859 107.752 10.6199C107.519 10.3501 107.16 10.2152 106.676 10.2152C106.187 10.2152 105.798 10.371 105.509 10.6826C105.224 10.9904 105.081 11.4123 105.081 11.9481V15.5851H104.111Z" fill="white"/>
<path d="M114.515 7.84939H115.484V9.43987H116.837V10.2608H115.484V13.7381C115.484 14.0992 115.555 14.3614 115.698 14.5248C115.841 14.6882 116.07 14.77 116.386 14.77C116.525 14.77 116.675 14.7624 116.837 14.7471V15.5737C116.622 15.6117 116.433 15.6307 116.267 15.6307C115.64 15.6307 115.191 15.5034 114.921 15.2488C114.65 14.9942 114.515 14.5742 114.515 13.989V10.2608H113.534V9.43987H114.515V7.84939Z" fill="white"/>
<path d="M118.358 15.5851V7H119.328V10.409H119.418C119.572 10.0631 119.807 9.79711 120.122 9.61089C120.442 9.42467 120.83 9.33156 121.289 9.33156C121.935 9.33156 122.446 9.53298 122.822 9.93582C123.197 10.3349 123.385 10.8916 123.385 11.6061V15.5851H122.416V11.8455C122.416 10.7586 121.948 10.2152 121.013 10.2152C120.479 10.2152 120.064 10.3729 119.767 10.6883C119.474 10.9999 119.328 11.4199 119.328 11.9481V15.5851H118.358Z" fill="white"/>
<path d="M127.578 10.1981C127.093 10.1981 126.695 10.3634 126.383 10.694C126.071 11.0246 125.897 11.4617 125.859 12.0051H129.207C129.195 11.4617 129.041 11.0246 128.745 10.694C128.448 10.3634 128.059 10.1981 127.578 10.1981ZM129.179 13.9947H130.148C130.001 14.5267 129.703 14.9429 129.252 15.2431C128.805 15.5433 128.251 15.6935 127.589 15.6935C126.748 15.6935 126.081 15.4084 125.589 14.8384C125.097 14.2645 124.85 13.4911 124.85 12.5182C124.85 11.5491 125.098 10.7757 125.594 10.1981C126.09 9.62039 126.755 9.33156 127.589 9.33156C128.408 9.33156 129.053 9.60709 129.522 10.1581C129.992 10.7092 130.227 11.4636 130.227 12.4213V12.7975H125.859V12.8431C125.885 13.4512 126.055 13.9339 126.366 14.2911C126.682 14.6483 127.097 14.827 127.612 14.827C128.397 14.827 128.919 14.5495 129.179 13.9947Z" fill="white"/>
<path d="M50.5295 34.265L49.2919 30.4786H43.9055L42.6476 34.265H40L45.1938 19.4581H48.1355L53.3394 34.265H50.5295ZM46.5226 22.28L44.5141 28.3853H48.6833L46.6951 22.28H46.5226Z" fill="white"/>
<path d="M61.6372 22.8546C63.0439 22.8546 64.1564 23.3711 64.9746 24.404C65.7997 25.437 66.2122 26.853 66.2122 28.6521C66.2122 30.4444 65.8031 31.8604 64.9848 32.9002C64.1733 33.9332 63.0676 34.4497 61.6677 34.4497C60.8764 34.4497 60.1833 34.2855 59.5882 33.9571C58.9998 33.6219 58.5636 33.1567 58.2796 32.5616H58.1071V38H55.5914V23.0393H58.0158V24.8965H58.1883C58.5061 24.2604 58.9694 23.761 59.578 23.3984C60.1934 23.0359 60.8798 22.8546 61.6372 22.8546ZM60.846 32.2846C61.7184 32.2846 62.3981 31.963 62.885 31.32C63.3786 30.677 63.6255 29.7877 63.6255 28.6521C63.6255 27.5166 63.3786 26.6273 62.885 25.9842C62.3981 25.3412 61.7218 25.0197 60.8562 25.0197C59.9973 25.0197 59.3176 25.3446 58.8172 25.9945C58.3168 26.6444 58.0632 27.5302 58.0564 28.6521C58.0632 29.774 58.3134 30.6599 58.8071 31.3097C59.3075 31.9596 59.9872 32.2846 60.846 32.2846Z" fill="white"/>
<path d="M74.7839 22.8546C76.1906 22.8546 77.303 23.3711 78.1213 24.404C78.9464 25.437 79.3589 26.853 79.3589 28.6521C79.3589 30.4444 78.9498 31.8604 78.1315 32.9002C77.3199 33.9332 76.2142 34.4497 74.8144 34.4497C74.0231 34.4497 73.33 34.2855 72.7348 33.9571C72.1465 33.6219 71.7103 33.1567 71.4263 32.5616H71.2538V38H68.7381V23.0393H71.1625V24.8965H71.335C71.6528 24.2604 72.116 23.761 72.7247 23.3984C73.3401 23.0359 74.0265 22.8546 74.7839 22.8546ZM73.9927 32.2846C74.8651 32.2846 75.5447 31.963 76.0317 31.32C76.5253 30.677 76.7722 29.7877 76.7722 28.6521C76.7722 27.5166 76.5253 26.6273 76.0317 25.9842C75.5447 25.3412 74.8685 25.0197 74.0028 25.0197C73.144 25.0197 72.4643 25.3446 71.9639 25.9945C71.4634 26.6444 71.2098 27.5302 71.2031 28.6521C71.2098 29.774 71.4601 30.6599 71.9537 31.3097C72.4542 31.9596 73.1338 32.2846 73.9927 32.2846Z" fill="white"/>
<path d="M87.0177 30.2426H89.5739C89.6551 30.9061 89.9966 31.4363 90.5985 31.8331C91.2004 32.223 91.9646 32.4179 92.8911 32.4179C93.7567 32.4179 94.4668 32.2196 95.0213 31.8228C95.5826 31.4192 95.8633 30.9061 95.8633 30.2836C95.8633 29.7501 95.6502 29.3157 95.2242 28.9805C94.8049 28.6453 94.1252 28.3682 93.1852 28.1493L91.2883 27.7081C89.9628 27.4071 88.9788 26.918 88.3364 26.2408C87.7007 25.5567 87.3828 24.664 87.3828 23.5626C87.3828 22.215 87.8799 21.1341 88.874 20.3201C89.8749 19.4992 91.1936 19.0887 92.8302 19.0887C94.3653 19.0887 95.6367 19.4924 96.6443 20.2996C97.652 21.1068 98.1862 22.1466 98.2471 23.4189H95.7415C95.6536 22.7691 95.3459 22.2526 94.8184 21.8695C94.2909 21.4864 93.6248 21.2949 92.82 21.2949C91.9747 21.2949 91.2951 21.4864 90.7811 21.8695C90.2739 22.2458 90.0203 22.7485 90.0203 23.3779C90.0203 23.8773 90.2198 24.2843 90.6188 24.599C91.0178 24.9068 91.6704 25.1668 92.5766 25.3788L94.2605 25.7687C95.7415 26.1039 96.8134 26.6033 97.4762 27.2669C98.1457 27.9304 98.4804 28.8266 98.4804 29.9553C98.4804 31.3987 97.9631 32.5411 96.9284 33.3825C95.9005 34.2171 94.5006 34.6344 92.7287 34.6344C91.0516 34.6344 89.6957 34.2376 88.661 33.4441C87.6331 32.6505 87.0853 31.5834 87.0177 30.2426Z" fill="white"/>
<path d="M101.96 20.2893H104.465V23.1111H106.839V25.1428H104.465V30.653C104.465 31.2071 104.587 31.6142 104.831 31.8741C105.074 32.1272 105.46 32.2538 105.987 32.2538C106.217 32.2538 106.501 32.2367 106.839 32.2025V34.1931C106.42 34.2752 105.98 34.3163 105.52 34.3163C104.249 34.3163 103.336 34.0803 102.781 33.6082C102.234 33.1362 101.96 32.3564 101.96 31.2687V25.1428H100.205V23.1111H101.96V20.2893Z" fill="white"/>
<path d="M112.002 31.3918C112.483 32.0349 113.162 32.3564 114.041 32.3564C114.921 32.3564 115.597 32.0349 116.07 31.3918C116.55 30.742 116.79 29.8287 116.79 28.6521C116.79 27.4823 116.55 26.5725 116.07 25.9227C115.59 25.2728 114.914 24.9478 114.041 24.9478C113.162 24.9478 112.483 25.2728 112.002 25.9227C111.522 26.5725 111.282 27.4823 111.282 28.6521C111.282 29.8287 111.522 30.742 112.002 31.3918ZM114.041 34.4907C112.378 34.4907 111.073 33.9742 110.126 32.9413C109.179 31.9015 108.706 30.4718 108.706 28.6521C108.706 26.8462 109.182 25.4233 110.136 24.3835C111.089 23.3369 112.391 22.8135 114.041 22.8135C115.698 22.8135 117 23.3334 117.947 24.3732C118.9 25.413 119.377 26.8393 119.377 28.6521C119.377 30.4718 118.9 31.9015 117.947 32.9413C117 33.9742 115.698 34.4907 114.041 34.4907Z" fill="white"/>
<path d="M121.913 34.265V23.0393H124.338V24.7837H124.51C124.666 24.2227 125.014 23.761 125.555 23.3984C126.103 23.0359 126.732 22.8546 127.442 22.8546C127.895 22.8546 128.243 22.8922 128.487 22.9675V25.3275C128.23 25.2317 127.8 25.1839 127.198 25.1839C126.38 25.1839 125.714 25.4233 125.2 25.9021C124.686 26.3741 124.429 27.0001 124.429 27.7799V34.265H121.913Z" fill="white"/>
<path d="M134.928 24.835C134.177 24.835 133.559 25.0847 133.072 25.584C132.585 26.0834 132.314 26.7435 132.26 27.5644H137.484C137.457 26.7299 137.214 26.0663 136.754 25.5738C136.294 25.0812 135.685 24.835 134.928 24.835ZM137.505 31.1764H139.888C139.652 32.2025 139.094 33.0131 138.215 33.6082C137.342 34.1965 136.257 34.4907 134.958 34.4907C133.329 34.4907 132.047 33.9776 131.114 32.9515C130.187 31.9186 129.724 30.4991 129.724 28.6932C129.724 26.8872 130.191 25.4575 131.124 24.404C132.057 23.3437 133.329 22.8135 134.938 22.8135C136.521 22.8135 137.758 23.3163 138.651 24.3219C139.55 25.3207 140 26.7059 140 28.4777V29.2986H132.25V29.432C132.284 30.3691 132.548 31.1114 133.041 31.6586C133.542 32.199 134.204 32.4693 135.029 32.4693C136.301 32.4693 137.126 32.0383 137.505 31.1764Z" fill="white"/>
</svg>
