<svg width="150" height="45" viewBox="0 0 150 45" fill="none" xmlns="http://www.w3.org/2000/svg">
<rect width="150" height="45" rx="10" fill="black"/>
<path fill-rule="evenodd" clip-rule="evenodd" d="M29.252 17.9612L12.1517 8.27592C11.6669 8.00266 11.2197 7.9391 10.8574 8.0555L24.8641 22.4819L29.252 17.9612Z" fill="white"/>
<path fill-rule="evenodd" clip-rule="evenodd" d="M29.2746 27.0249L35.1122 23.7186C36.2959 23.0458 36.2959 21.9511 35.1122 21.2799L29.2529 17.9612L24.8643 22.4819L29.2746 27.0249Z" fill="white"/>
<path fill-rule="evenodd" clip-rule="evenodd" d="M10.8567 8.0556C10.3366 8.22319 10 8.76557 10 9.58617L10.0032 35.4126C10.0032 36.2241 10.3294 36.7582 10.8343 36.9366L24.8642 22.4845L10.8567 8.0556Z" fill="white"/>
<path fill-rule="evenodd" clip-rule="evenodd" d="M10.8342 36.9365C11.1989 37.0636 11.6549 37.0042 12.1518 36.7235L29.272 27.0249L24.8642 22.4844L10.8342 36.9365Z" fill="white"/>
<mask id="mask0" mask-type="alpha" maskUnits="userSpaceOnUse" x="10" y="22" width="20" height="16">
<path fill-rule="evenodd" clip-rule="evenodd" d="M10.8342 36.9365C11.1989 37.0636 11.6549 37.0042 12.1518 36.7235L29.272 27.0249L24.8642 22.4844L10.8342 36.9365Z" fill="white"/>
</mask>
<g mask="url(#mask0)">
</g>
<path d="M47.0832 13.3197C47.0832 14.2869 46.7701 15.0657 46.144 15.6562C45.5179 16.2431 44.6886 16.5365 43.6562 16.5365C42.5418 16.5365 41.6529 16.1652 40.9895 15.4226C40.3298 14.6799 40 13.6819 40 12.4285C40 11.1896 40.3336 10.1971 41.0007 9.45082C41.6678 8.70096 42.553 8.32603 43.6562 8.32603C44.5507 8.32603 45.2998 8.55244 45.9036 9.00525C46.5111 9.45807 46.8875 10.0721 47.0329 10.8473H46.0098C45.8346 10.3184 45.5477 9.91632 45.1489 9.64101C44.7501 9.36569 44.2525 9.22804 43.6562 9.22804C42.8586 9.22804 42.2213 9.51784 41.7442 10.0974C41.2709 10.6771 41.0342 11.4541 41.0342 12.4285C41.0342 13.4175 41.269 14.2 41.7387 14.7759C42.212 15.3483 42.853 15.6345 43.6618 15.6345C44.3848 15.6345 44.9681 15.4298 45.4116 15.0205C45.8589 14.6111 46.0825 14.075 46.0825 13.4121V13.2219H43.8127V12.3633H47.0832V13.3197Z" fill="white"/>
<path d="M51.1475 11.2168C50.6667 11.2168 50.2717 11.3744 49.9623 11.6895C49.653 12.0047 49.4797 12.4213 49.4424 12.9393H52.7632C52.752 12.4213 52.5992 12.0047 52.3048 11.6895C52.0103 11.3744 51.6246 11.2168 51.1475 11.2168ZM52.7352 14.8357H53.6968C53.5514 15.3429 53.2551 15.7395 52.8079 16.0257C52.3644 16.3119 51.8146 16.455 51.1587 16.455C50.3238 16.455 49.6623 16.1833 49.1741 15.6399C48.6858 15.0929 48.4417 14.3557 48.4417 13.4284C48.4417 12.5046 48.6877 11.7674 49.1796 11.2168C49.6716 10.6662 50.3313 10.3909 51.1587 10.3909C51.9712 10.3909 52.6104 10.6535 53.0762 11.1788C53.5421 11.704 53.7751 12.4231 53.7751 13.336V13.6946H49.4424V13.7381C49.4685 14.3177 49.6362 14.7778 49.9455 15.1183C50.2586 15.4588 50.6705 15.6291 51.1811 15.6291C51.96 15.6291 52.4781 15.3646 52.7352 14.8357Z" fill="white"/>
<path d="M55.687 8.97808H56.6486V10.4941H57.9903V11.2766H56.6486V14.5912C56.6486 14.9353 56.7194 15.1853 56.861 15.3411C57.0027 15.4968 57.23 15.5747 57.5431 15.5747C57.681 15.5747 57.8301 15.5675 57.9903 15.553V16.3409C57.7779 16.3771 57.5897 16.3952 57.4257 16.3952C56.8033 16.3952 56.3579 16.2739 56.0895 16.0312C55.8212 15.7884 55.687 15.3882 55.687 14.8303V11.2766H54.7143V10.4941H55.687V8.97808Z" fill="white"/>
<path d="M62.6975 16.3517V10.4941H63.6591V16.3517H62.6975ZM63.6535 9.11393C63.5231 9.24072 63.3647 9.30411 63.1783 9.30411C62.992 9.30411 62.8336 9.24072 62.7031 9.11393C62.5727 8.98352 62.5075 8.82956 62.5075 8.65206C62.5075 8.47455 62.5727 8.32241 62.7031 8.19562C62.8336 8.06521 62.992 8 63.1783 8C63.3647 8 63.5231 8.06521 63.6535 8.19562C63.784 8.32241 63.8492 8.47455 63.8492 8.65206C63.8492 8.82956 63.784 8.98352 63.6535 9.11393Z" fill="white"/>
<path d="M65.8953 8.97808H66.8569V10.4941H68.1986V11.2766H66.8569V14.5912C66.8569 14.9353 66.9277 15.1853 67.0693 15.3411C67.211 15.4968 67.4383 15.5747 67.7514 15.5747C67.8893 15.5747 68.0384 15.5675 68.1986 15.553V16.3409C67.9862 16.3771 67.798 16.3952 67.634 16.3952C67.0116 16.3952 66.5662 16.2739 66.2978 16.0312C66.0295 15.7884 65.8953 15.3882 65.8953 14.8303V11.2766H64.9226V10.4941H65.8953V8.97808Z" fill="white"/>
<path d="M74.0407 15.0422C74.3501 15.4226 74.7899 15.6128 75.3601 15.6128C75.9303 15.6128 76.3701 15.4226 76.6795 15.0422C76.9888 14.6582 77.1435 14.1185 77.1435 13.4229C77.1435 12.7274 76.9888 12.1895 76.6795 11.8091C76.3701 11.4251 75.9303 11.2331 75.3601 11.2331C74.7899 11.2331 74.3501 11.4251 74.0407 11.8091C73.7314 12.1895 73.5767 12.7274 73.5767 13.4229C73.5767 14.1185 73.7314 14.6582 74.0407 15.0422ZM77.3894 15.6454C76.8938 16.1851 76.2173 16.455 75.3601 16.455C74.5029 16.455 73.8246 16.1851 73.3251 15.6454C72.8294 15.102 72.5816 14.3612 72.5816 13.4229C72.5816 12.4811 72.8294 11.7403 73.3251 11.2005C73.8208 10.6607 74.4991 10.3909 75.3601 10.3909C76.221 10.3909 76.8993 10.6607 77.395 11.2005C77.8907 11.7403 78.1386 12.4811 78.1386 13.4229C78.1386 14.3612 77.8889 15.102 77.3894 15.6454Z" fill="white"/>
<path d="M79.648 16.3517V10.4941H80.5649V11.4179H80.6543C80.9748 10.7332 81.5786 10.3909 82.4656 10.3909C83.1402 10.3909 83.6602 10.5792 84.0254 10.956C84.3907 11.3291 84.5733 11.8634 84.5733 12.559V16.3517H83.6117V12.7872C83.6117 12.2619 83.4943 11.8725 83.2595 11.6189C83.0284 11.3617 82.6725 11.2331 82.1917 11.2331C81.7072 11.2331 81.3214 11.3816 81.0345 11.6787C80.7512 11.9721 80.6096 12.3742 80.6096 12.885V16.3517H79.648Z" fill="white"/>
<path d="M52.837 27.818C52.837 29.5485 52.2952 30.9279 51.2118 31.9563C50.1284 32.9786 48.6711 33.4898 46.84 33.4898C44.8505 33.4898 43.2792 32.8647 42.1261 31.6146C40.9729 30.3583 40.3964 28.6493 40.3964 26.4878C40.3964 24.357 40.9761 22.6604 42.1356 21.3979C43.2951 20.1293 44.8505 19.495 46.802 19.495C48.386 19.495 49.7134 19.9015 50.7841 20.7144C51.8549 21.5273 52.5012 22.6142 52.7229 23.9752H50.2804C50.0333 23.2177 49.6088 22.6358 49.0069 22.2293C48.4113 21.8229 47.6764 21.6196 46.802 21.6196C45.6045 21.6196 44.6541 22.0538 43.9508 22.9221C43.2539 23.7904 42.9054 24.9728 42.9054 26.4693C42.9054 27.9842 43.2602 29.179 43.9698 30.0534C44.6858 30.9279 45.6552 31.3652 46.878 31.3652C47.9235 31.3652 48.7725 31.0819 49.4251 30.5153C50.0777 29.9487 50.4135 29.2067 50.4325 28.2891L50.442 28.012H47.1441V26.146H52.837V27.818Z" fill="white"/>
<path d="M56.8717 30.5707C57.3215 31.1496 57.9583 31.4391 58.7819 31.4391C59.6056 31.4391 60.2392 31.1496 60.6827 30.5707C61.1326 29.9857 61.3575 29.1636 61.3575 28.1043C61.3575 27.0513 61.1326 26.2322 60.6827 25.6472C60.2329 25.0621 59.5993 24.7696 58.7819 24.7696C57.9583 24.7696 57.3215 25.0621 56.8717 25.6472C56.4218 26.2322 56.1969 27.0513 56.1969 28.1043C56.1969 29.1636 56.4218 29.9857 56.8717 30.5707ZM58.7819 33.3604C57.2233 33.3604 56.0005 32.8955 55.1134 31.9656C54.2264 31.0295 53.7829 29.7424 53.7829 28.1043C53.7829 26.4785 54.2296 25.1976 55.1229 24.2615C56.0163 23.3193 57.236 22.8482 58.7819 22.8482C60.3342 22.8482 61.5539 23.3162 62.4409 24.2523C63.3343 25.1884 63.781 26.4724 63.781 28.1043C63.781 29.7424 63.3343 31.0295 62.4409 31.9656C61.5539 32.8955 60.3342 33.3604 58.7819 33.3604Z" fill="white"/>
<path d="M67.5876 30.5707C68.0374 31.1496 68.6742 31.4391 69.4979 31.4391C70.3215 31.4391 70.9551 31.1496 71.3986 30.5707C71.8485 29.9857 72.0734 29.1636 72.0734 28.1043C72.0734 27.0513 71.8485 26.2322 71.3986 25.6472C70.9488 25.0621 70.3152 24.7696 69.4979 24.7696C68.6742 24.7696 68.0374 25.0621 67.5876 25.6472C67.1377 26.2322 66.9128 27.0513 66.9128 28.1043C66.9128 29.1636 67.1377 29.9857 67.5876 30.5707ZM69.4979 33.3604C67.9392 33.3604 66.7164 32.8955 65.8294 31.9656C64.9423 31.0295 64.4988 29.7424 64.4988 28.1043C64.4988 26.4785 64.9455 25.1976 65.8389 24.2615C66.7322 23.3193 67.9519 22.8482 69.4979 22.8482C71.0502 22.8482 72.2698 23.3162 73.1569 24.2523C74.0502 25.1884 74.4969 26.4724 74.4969 28.1043C74.4969 29.7424 74.0502 31.0295 73.1569 31.9656C72.2698 32.8955 71.0502 33.3604 69.4979 33.3604Z" fill="white"/>
<path d="M82.1241 30.2936C82.5929 29.727 82.8274 28.9603 82.8274 27.9935C82.8274 27.0266 82.5929 26.2599 82.1241 25.6934C81.6552 25.1206 81.0121 24.8343 80.1948 24.8343C79.3838 24.8343 78.7502 25.1175 78.294 25.6841C77.8441 26.2507 77.6192 27.0205 77.6192 27.9935C77.6192 28.9665 77.8441 29.7363 78.294 30.3028C78.7438 30.8632 79.3774 31.1435 80.1948 31.1435C81.0121 31.1435 81.6552 30.8602 82.1241 30.2936ZM80.1948 37C78.8706 37 77.7935 36.7383 76.9634 36.2148C76.1398 35.6914 75.6804 34.9924 75.5854 34.1179H77.9519C78.0279 34.4689 78.2655 34.7461 78.6646 34.9493C79.0701 35.1525 79.5929 35.2541 80.2328 35.2541C81.0375 35.2541 81.6647 35.0786 82.1146 34.7276C82.5644 34.3766 82.7893 33.8839 82.7893 33.2496V31.3374H82.6278C82.33 31.8794 81.9055 32.2951 81.3542 32.5845C80.8094 32.8678 80.1758 33.0094 79.4535 33.0094C78.1483 33.0094 77.1123 32.5568 76.3457 31.6515C75.579 30.7401 75.1957 29.5207 75.1957 27.9935C75.1957 26.4416 75.5822 25.2038 76.3552 24.28C77.1282 23.3501 78.1736 22.8852 79.4915 22.8852C80.2011 22.8852 80.8442 23.0453 81.4208 23.3655C81.9973 23.6857 82.4282 24.1199 82.7133 24.668H82.8749V23.0514H85.1463V33.1942C85.1463 34.3642 84.6996 35.2911 83.8063 35.9746C82.9129 36.6582 81.7091 37 80.1948 37Z" fill="white"/>
<path d="M86.9951 33.1572V19.144H89.3521V33.1572H86.9951Z" fill="white"/>
<path d="M95.5536 24.668C94.8503 24.668 94.2706 24.8928 93.8144 25.3423C93.3582 25.7919 93.1048 26.3862 93.0541 27.1252H97.9486C97.9233 26.3738 97.6952 25.7765 97.2643 25.3331C96.8335 24.8897 96.2633 24.668 95.5536 24.668ZM97.9676 30.3767H100.201C99.9793 31.3005 99.4566 32.0302 98.6329 32.566C97.8156 33.0956 96.7986 33.3604 95.5821 33.3604C94.0552 33.3604 92.8545 32.8986 91.9802 31.9748C91.1121 31.0449 90.6781 29.7671 90.6781 28.1413C90.6781 26.5155 91.1153 25.2284 91.9897 24.28C92.864 23.3255 94.0552 22.8482 95.5631 22.8482C97.0457 22.8482 98.2052 23.3009 99.0416 24.2061C99.8842 25.1052 100.306 26.3523 100.306 27.9473V28.6863H93.0446V28.8064C93.0763 29.6501 93.3234 30.3182 93.7859 30.8109C94.2548 31.2974 94.8757 31.5407 95.6487 31.5407C96.8398 31.5407 97.6128 31.1527 97.9676 30.3767Z" fill="white"/>
<path d="M111.236 22.8852C112.553 22.8852 113.596 23.3501 114.362 24.28C115.135 25.2099 115.522 26.4847 115.522 28.1043C115.522 29.7178 115.139 30.9926 114.372 31.9286C113.612 32.8585 112.576 33.3235 111.264 33.3235C110.523 33.3235 109.873 33.1757 109.316 32.8801C108.765 32.5783 108.356 32.1596 108.09 31.6238H107.928V36.5197H105.571V23.0514H107.843V24.7234H108.004C108.302 24.1507 108.736 23.7011 109.306 23.3748C109.883 23.0484 110.526 22.8852 111.236 22.8852ZM110.494 31.3744C111.312 31.3744 111.948 31.0849 112.405 30.5061C112.867 29.9272 113.098 29.1266 113.098 28.1043C113.098 27.0821 112.867 26.2815 112.405 25.7026C111.948 25.1237 111.315 24.8343 110.504 24.8343C109.699 24.8343 109.062 25.1268 108.594 25.7118C108.125 26.2969 107.887 27.0944 107.881 28.1043C107.887 29.1143 108.122 29.9118 108.584 30.4968C109.053 31.0819 109.69 31.3744 110.494 31.3744Z" fill="white"/>
<path d="M116.838 33.1572V19.144H119.195V33.1572H116.838Z" fill="white"/>
<path d="M124.589 31.5222C125.299 31.5222 125.891 31.3251 126.366 30.931C126.842 30.5307 127.079 30.038 127.079 29.453V28.6493L124.732 28.7971C123.439 28.8772 122.793 29.3329 122.793 30.1643C122.793 30.583 122.958 30.9156 123.287 31.1619C123.623 31.4021 124.057 31.5222 124.589 31.5222ZM123.895 33.3235C122.882 33.3235 122.055 33.0464 121.415 32.4921C120.775 31.9379 120.455 31.205 120.455 30.2936C120.455 29.3822 120.794 28.6678 121.472 28.1505C122.156 27.6332 123.132 27.3376 124.399 27.2637L127.079 27.1067V26.2568C127.079 25.758 126.911 25.3762 126.575 25.1114C126.24 24.8466 125.755 24.7142 125.121 24.7142C124.576 24.7142 124.127 24.8066 123.772 24.9913C123.417 25.1699 123.186 25.4285 123.078 25.7673H120.854C120.949 24.8743 121.393 24.1661 122.185 23.6426C122.983 23.113 124 22.8482 125.235 22.8482C126.566 22.8482 127.592 23.1469 128.315 23.7442C129.043 24.3416 129.408 25.1791 129.408 26.2568V33.1572H127.136V31.7716H126.975C126.683 32.2581 126.265 32.6399 125.72 32.917C125.182 33.188 124.573 33.3235 123.895 33.3235Z" fill="white"/>
<path d="M131.922 36.8245C131.434 36.8245 131.123 36.8122 130.99 36.7875V34.9123C131.111 34.937 131.326 34.9493 131.637 34.9493C132.137 34.9493 132.533 34.8477 132.825 34.6444C133.122 34.4412 133.347 34.1087 133.499 33.6468L133.623 33.2034L129.907 23.0514H132.492L134.925 30.9402H135.086L137.51 23.0514H140L136.246 33.4805C135.809 34.7307 135.27 35.599 134.63 36.0855C133.997 36.5782 133.094 36.8245 131.922 36.8245Z" fill="white"/>
</svg>
