<svg width="40" height="40" viewBox="0 0 40 40" fill="none" xmlns="http://www.w3.org/2000/svg">
<g filter="url(#filter0_d)">
<rect x="5" y="32" width="30" height="30" rx="8" transform="rotate(-90 5 32)" fill="url(#paint0_linear)"/>
</g>
<path d="M18.3056 9.19995H21.6855L21.4039 18.6506H18.5872L18.3056 9.19995ZM18.2 23.0267C18.2 22.4617 18.3555 22.0232 18.6665 21.7115C18.9833 21.3997 19.4264 21.2438 19.9956 21.2438C20.5647 21.2438 21.0078 21.3997 21.3246 21.7115C21.6415 22.0232 21.8 22.4617 21.8 23.0267C21.8 23.5853 21.6415 24.0205 21.3246 24.3323C21.0078 24.6441 20.5647 24.8 19.9956 24.8C19.4264 24.8 18.9833 24.6441 18.6665 24.3323C18.3555 24.0205 18.2 23.5853 18.2 23.0267Z" fill="white"/>
<defs>
<filter id="filter0_d" x="0" y="0" width="40" height="40" filterUnits="userSpaceOnUse" color-interpolation-filters="sRGB">
<feFlood flood-opacity="0" result="BackgroundImageFix"/>
<feColorMatrix in="SourceAlpha" type="matrix" values="0 0 0 0 0 0 0 0 0 0 0 0 0 0 0 0 0 0 127 0"/>
<feOffset dy="3"/>
<feGaussianBlur stdDeviation="2.5"/>
<feColorMatrix type="matrix" values="0 0 0 0 1 0 0 0 0 0.419608 0 0 0 0 0 0 0 0 0.3 0"/>
<feBlend mode="normal" in2="BackgroundImageFix" result="effect1_dropShadow"/>
<feBlend mode="normal" in="SourceGraphic" in2="effect1_dropShadow" result="shape"/>
</filter>
<linearGradient id="paint0_linear" x1="35" y1="47.3334" x2="5" y2="47.3334" gradientUnits="userSpaceOnUse">
<stop stop-color="#FF8900"/>
<stop offset="1" stop-color="#FF6B00"/>
</linearGradient>
</defs>
</svg>
