<svg width="20" height="20" viewBox="0 0 20 20" fill="none" xmlns="http://www.w3.org/2000/svg">
<path d="M10 0C4.48594 0 0 4.48602 0 10C0 15.514 4.48594 20 10 20C15.5141 20 20 15.514 20 10C20 4.48602 15.5141 0 10 0ZM10 18.0645C5.55324 18.0645 1.93547 14.4468 1.93547 10C1.93547 5.5532 5.55324 1.93547 10 1.93547C14.4468 1.93547 18.0645 5.55324 18.0645 10C18.0645 14.4468 14.4468 18.0645 10 18.0645Z" fill="#FF6B00"/>
<path d="M11 9H9V14H11V9Z" fill="#FF6B00"/>
<path d="M10 6C9.4486 6 9 6.4486 9 7C9 7.5514 9.4486 8 10 8C10.5514 8 11 7.5514 11 7C11 6.4486 10.5514 6 10 6Z" fill="#FF6B00"/>
</svg>
