<svg width="20" height="20" viewBox="0 0 20 20" fill="none" xmlns="http://www.w3.org/2000/svg">
<path d="M20 12.2283V7.33696H18.3333V3.63984L15.7872 1.97929C15.5639 0.853098 14.5488 0 13.3333 0C11.9548 0 10.8333 1.09712 10.8333 2.44565C10.8333 3.79418 11.9548 4.8913 13.3333 4.8913C14.232 4.8913 15.0212 4.42484 15.4619 3.72663L16.6667 4.51234V7.33696H3.33333V4.51234L4.53811 3.72658C4.97883 4.42484 5.768 4.8913 6.66667 4.8913C8.04517 4.8913 9.16667 3.79418 9.16667 2.44565C9.16667 1.09712 8.04517 0 6.66667 0C5.45117 0 4.43606 0.853098 4.21283 1.97929L1.66667 3.63984V7.33696H0V12.2283H3.37578L4.122 18.3696H2.5V20H17.5V18.3696H15.878L16.6242 12.2283H20ZM13.3333 3.26087C12.8738 3.26087 12.5 2.89516 12.5 2.44565C12.5 1.99614 12.8738 1.63043 13.3333 1.63043C13.7928 1.63043 14.1667 1.99614 14.1667 2.44565C14.1667 2.89516 13.7928 3.26087 13.3333 3.26087ZM6.66667 1.63043C7.12617 1.63043 7.5 1.99614 7.5 2.44565C7.5 2.89516 7.12617 3.26087 6.66667 3.26087C6.20717 3.26087 5.83333 2.89516 5.83333 2.44565C5.83333 1.99614 6.20717 1.63043 6.66667 1.63043ZM1.66667 8.96739H18.3333V10.5978H1.66667V8.96739ZM14.2091 18.3696H5.79089L5.04467 12.2283H14.9553L14.2091 18.3696Z" fill="#FF6B00"/>
</svg>
