<svg width="20" height="20" viewBox="0 0 20 20" fill="none" xmlns="http://www.w3.org/2000/svg">
<path d="M19.1107 13.7322C19.3016 14.0595 19.4114 14.439 19.4114 14.8438C19.4114 15.6897 18.9336 16.4269 18.2318 16.8036C18.3662 17.0851 18.4375 17.3928 18.4375 17.712C18.4375 19.0378 17.4976 20 16.2026 20H6.32484L7.7282 18.4375H16.2026C16.8095 18.4375 16.875 17.9302 16.875 17.7121C16.875 17.3339 16.4927 17.0703 16.1496 17.0703H15.4297V15.5078H17.1684C17.5437 15.5078 17.8489 15.2099 17.8489 14.8438C17.8489 14.4776 17.5437 14.1797 17.1684 14.1797H15.8203V12.6172H17.7734C18.1396 12.6172 18.4375 12.3193 18.4375 11.9531C18.4375 11.587 18.1396 11.2891 17.7734 11.2891L16.0562 11.2875V9.72657H17.2266C17.5927 9.72657 17.8906 9.42712 17.8906 9.06095C17.8906 8.69477 17.5927 8.39688 17.2266 8.39688H12.0869C10.8967 8.39688 9.5798 7.55145 9.52761 6.18583C9.52027 5.99517 9.55331 5.80333 9.62878 5.59915L10.6894 2.73134C10.8197 2.19095 10.7769 1.9554 10.7391 1.86239C10.7227 1.82232 10.6845 1.72845 10.4003 1.63314C10.0618 1.51974 9.95761 1.56821 9.91308 1.58896C9.80421 1.63974 9.61781 1.79825 9.34843 2.26497C8.73597 3.3261 5.32039 8.9047 5.32039 8.9047L0 8.90626V7.34376L4.44504 7.34692C5.18414 6.13727 7.48847 2.36181 7.99527 1.48388C8.51433 0.584699 9.31316 -0.379362 10.8971 0.151731C11.5368 0.366223 11.9705 0.743449 12.1862 1.27302C12.3885 1.76978 12.3914 2.3663 12.1954 3.15032L11.0943 6.14087C11.0928 6.14501 11.0916 6.1486 11.0905 6.15157C11.1282 6.57536 11.6894 6.83595 12.0869 6.83595H17.2266C18.4543 6.83595 19.4531 7.83325 19.4531 9.06095C19.4531 9.47587 19.3387 9.86446 19.1402 10.1973C19.6629 10.6052 20 11.2403 20 11.9531C20 12.6794 19.6503 13.3255 19.1107 13.7322ZM9.57503 11.7045L4.14812 17.7468L1.08551 14.8316L0.00820312 15.9633L4.23582 19.9875L10.7375 12.7486L9.57503 11.7045Z" fill="#FF6B00"/>
</svg>
