<svg width="80" height="80" viewBox="0 0 80 80" fill="none" xmlns="http://www.w3.org/2000/svg">
<g filter="url(#filter0_d)">
<circle cx="40" cy="37" r="35" fill="url(#paint0_linear)"/>
</g>
<path d="M29.375 32.8594H26.2876C26.8091 25.75 32.7598 20.125 40 20.125C45.7292 20.125 50.9134 23.7336 52.9004 29.1046C53.1998 29.9139 54.0985 30.3273 54.908 30.028C55.7173 29.7285 56.1307 28.8298 55.8313 28.0204C54.6471 24.8191 52.5433 22.0798 49.7474 20.0984C46.8873 18.0714 43.5166 17 40 17C35.4926 17 31.2548 18.7553 28.0676 21.9426C24.9219 25.0883 23.1723 29.2573 23.1271 33.699C21.2598 34.781 20 36.8002 20 39.1094V44.4219C20 47.8681 22.8038 50.6719 26.25 50.6719H29.375C30.238 50.6719 30.9375 49.9723 30.9375 49.1094V34.4219C30.9375 33.5589 30.238 32.8594 29.375 32.8594ZM27.8125 47.5469H26.25C24.5269 47.5469 23.125 46.145 23.125 44.4219V39.1094C23.125 37.3862 24.5269 35.9844 26.25 35.9844H27.8125V47.5469Z" fill="white"/>
<path d="M53.75 32.8594H50.625C49.762 32.8594 49.0625 33.5589 49.0625 34.4219V45.125V49.1094V50.75C49.0625 51.6116 48.3616 52.3125 47.5 52.3125H42.7344V52.362C42.2014 51.4009 41.1769 50.75 40 50.75C38.2741 50.75 36.875 52.1491 36.875 53.875C36.875 55.6009 38.2741 57 40 57C41.1769 57 42.2014 56.3491 42.7344 55.388V55.4375H47.5C50.0847 55.4375 52.1875 53.3347 52.1875 50.75V50.6719H53.75C57.1963 50.6719 60 47.8681 60 44.4219V39.1094C60 35.6631 57.1963 32.8594 53.75 32.8594ZM56.875 44.4219C56.875 46.145 55.4731 47.5469 53.75 47.5469H52.1875V45.125V35.9844H53.75C55.4731 35.9844 56.875 37.3863 56.875 39.1094V44.4219Z" fill="white"/>
<path d="M41.9914 43.0181C41.9914 42.5234 41.9914 42.0288 41.9914 41.5341C41.9914 41.1255 42.1249 40.9878 42.5296 40.9878C43.5113 40.9878 44.4973 40.9878 45.479 40.9878C45.8622 40.9878 46 40.8502 46 40.4716C46 39.4952 46 38.5231 46 37.5466C46 37.1423 45.8622 37.009 45.4532 37.0047C44.4973 37.0047 43.5457 37.0047 42.5899 37.0047C42.1076 37.0047 41.9871 36.8885 41.9871 36.4154C41.9871 35.4475 41.9871 34.4797 41.9871 33.5119C41.9871 33.1462 41.8407 33 41.479 33C40.4973 33 39.5113 33 38.5296 33C38.155 33 38.0129 33.1462 38.0129 33.5248C38.0129 34.5012 38.0129 35.4733 38.0129 36.4498C38.0129 36.8713 37.8794 37.009 37.4618 37.009C36.493 37.009 35.5242 37.009 34.5554 37.009C34.1335 37.009 34 37.1423 34 37.5595C34 38.5188 34 39.4823 34 40.4415C34 40.8588 34.1335 40.9921 34.5554 40.9921C35.5156 40.9921 36.4801 40.9921 37.4403 40.9921C37.8837 40.9921 38.0129 41.1212 38.0129 41.5728C38.0129 42.5535 38.0129 43.5386 38.0129 44.5193C38.0129 44.8376 38.1679 44.9968 38.4865 44.9968C39.4984 45.0011 40.5102 45.0011 41.5221 44.9968C41.8278 44.9968 41.9828 44.8376 41.9828 44.5279C41.9957 44.0246 41.9914 43.5214 41.9914 43.0181Z" fill="white"/>
<defs>
<filter id="filter0_d" x="0" y="0" width="80" height="80" filterUnits="userSpaceOnUse" color-interpolation-filters="sRGB">
<feFlood flood-opacity="0" result="BackgroundImageFix"/>
<feColorMatrix in="SourceAlpha" type="matrix" values="0 0 0 0 0 0 0 0 0 0 0 0 0 0 0 0 0 0 127 0"/>
<feOffset dy="3"/>
<feGaussianBlur stdDeviation="2.5"/>
<feColorMatrix type="matrix" values="0 0 0 0 1 0 0 0 0 0.419608 0 0 0 0 0 0 0 0 0.3 0"/>
<feBlend mode="normal" in2="BackgroundImageFix" result="effect1_dropShadow"/>
<feBlend mode="normal" in="SourceGraphic" in2="effect1_dropShadow" result="shape"/>
</filter>
<linearGradient id="paint0_linear" x1="75" y1="37.7778" x2="5" y2="37.7778" gradientUnits="userSpaceOnUse">
<stop stop-color="#FF8900"/>
<stop offset="1" stop-color="#FF6B00"/>
</linearGradient>
</defs>
</svg>
