<svg id="Layer_1" data-name="Layer 1" xmlns="http://www.w3.org/2000/svg" xmlns:xlink="http://www.w3.org/1999/xlink" viewBox="0 0 220 220"><defs><style>.cls-1{fill:#fff;}.cls-2{fill:url(#linear-gradient);}.cls-3{fill:url(#linear-gradient-2);}.cls-4{fill:url(#linear-gradient-3);}.cls-5{fill:url(#linear-gradient-4);}.cls-6{fill:url(#linear-gradient-5);}.cls-7{fill:url(#linear-gradient-6);}</style><linearGradient id="linear-gradient" x1="55.43" y1="-39.94" x2="134.02" y2="176" gradientUnits="userSpaceOnUse"><stop offset="0.04" stop-color="#fc6d21"/><stop offset="1" stop-color="#fd8624"/></linearGradient><linearGradient id="linear-gradient-2" x1="85.82" y1="-36.97" x2="148.37" y2="134.88" xlink:href="#linear-gradient"/><linearGradient id="linear-gradient-3" x1="60.41" y1="-14.34" x2="131.05" y2="179.73" xlink:href="#linear-gradient"/><linearGradient id="linear-gradient-4" x1="78.3" y1="-39.56" x2="148.28" y2="152.72" xlink:href="#linear-gradient"/><linearGradient id="linear-gradient-5" x1="73.79" y1="-76.16" x2="161.3" y2="164.27" xlink:href="#linear-gradient"/><linearGradient id="linear-gradient-6" x1="16.87" y1="-24.84" x2="97.09" y2="195.56" xlink:href="#linear-gradient"/></defs><title>Biocad_Icon_Help</title><path class="cls-1" d="M110,217.47A107.47,107.47,0,1,0,2.53,110,107.68,107.68,0,0,0,110,217.47"/><path class="cls-2" d="M184.73,35.26a105.66,105.66,0,1,0,31,74.74,105.34,105.34,0,0,0-31-74.74M110,0A110,110,0,1,1,32.22,32.22,109.63,109.63,0,0,1,110,0Z"/><path class="cls-3" d="M155.05,23.18l2.32,1.28-4.52,8.16,9.48-5.4,2.47,1.36L158,40.84l-2.32-1.28,4.43-8-9.39,5.25-2.47-1.38,6.79-12.24m-32.8-2.93a5.2,5.2,0,0,0,.46,3.75,3.54,3.54,0,0,0,2.53,1.69,3.6,3.6,0,0,0,3-.72,5.42,5.42,0,0,0,1.7-3.41,5.34,5.34,0,0,0-.41-3.72,3.91,3.91,0,0,0-5.55-1A5.22,5.22,0,0,0,122.25,20.25Zm-2.89-.4a8.9,8.9,0,0,1,1.26-3.44,6.59,6.59,0,0,1,1.62-1.67,5.35,5.35,0,0,1,2-.92,7.69,7.69,0,0,1,3.07,0,6.63,6.63,0,0,1,4.56,2.76,7.41,7.41,0,0,1,.9,5.58A7.33,7.33,0,0,1,130,27a6.49,6.49,0,0,1-5.19,1,6.68,6.68,0,0,1-4.57-2.74A7.3,7.3,0,0,1,119.36,19.85ZM88.91,22.39a5.26,5.26,0,0,0,1.82,3.29,3.61,3.61,0,0,0,3,.63,3.55,3.55,0,0,0,2.46-1.78,5.25,5.25,0,0,0,.3-3.79,5.3,5.3,0,0,0-1.77-3.3,3.92,3.92,0,0,0-5.51,1.18A5.3,5.3,0,0,0,88.91,22.39Zm-2.83.69A8.92,8.92,0,0,1,86,19.44a6.49,6.49,0,0,1,.87-2.15,5.44,5.44,0,0,1,1.51-1.61,7.7,7.7,0,0,1,2.84-1.18,6.63,6.63,0,0,1,5.26.85,7.36,7.36,0,0,1,2.92,4.84,7.39,7.39,0,0,1-.7,5.58,6.48,6.48,0,0,1-4.43,2.89A6.57,6.57,0,0,1,89,27.83,7.24,7.24,0,0,1,86.08,23.08ZM58.85,30.82,61,34.19l1.31-.81A7.49,7.49,0,0,0,64.05,32,1.8,1.8,0,0,0,64.43,31,2,2,0,0,0,63.08,29a2,2,0,0,0-1.29.08,12.84,12.84,0,0,0-1.78,1Zm3.78,11.37L55.19,30.31,59,27.9a17.23,17.23,0,0,1,3-1.6,3.73,3.73,0,0,1,2.44.09,4.32,4.32,0,0,1,2.13,1.88,4.51,4.51,0,0,1,.75,2.09,3.72,3.72,0,0,1-.28,1.81,4.27,4.27,0,0,1-.88,1.34,15.52,15.52,0,0,1-2.39,1.72l-1.56,1L65,40.69Z"/><path class="cls-4" d="M202.35,115.64,197,117.19l5.06,2.26.26-3.81m5.89-4.82-.21,3.07-3.27,1-.38,5.59,3.09,1.37-.2,3-13.6-6.42.2-3ZM190,136.43l.73-2.72,5.75,1.54a1.92,1.92,0,0,0-.13-1.37,9.74,9.74,0,0,0-1.84-1.55,5.87,5.87,0,0,1-2.27-2.45,5.43,5.43,0,0,1,.2-2.88c0-.06.05-.2.09-.4l2,.54-.11.38a3.16,3.16,0,0,0-.12,1.29,1.6,1.6,0,0,0,.46.79,12.21,12.21,0,0,0,1.56,1.18,8.18,8.18,0,0,1,1,.85,3,3,0,0,1,.61,1.28,2.94,2.94,0,0,1,1.44-1.23A15,15,0,0,1,202,131l4.21-.85-.87,3.2-3.92.69a1.45,1.45,0,0,0-.33.08l-.74.17a4.14,4.14,0,0,0-1.47.52,1.75,1.75,0,0,0-.53,1l5.92,1.59-.73,2.73Zm6.2,20.6-12.59-6.13,4.56-9.34,2.13,1-3.31,6.8,2.79,1.37,3.08-6.33,2.12,1-3.08,6.32,3.42,1.67,3.43-7,2.13,1Zm-14.12,10.06,3,2.26,1.57-2.09a13.49,13.49,0,0,0,1.11-1.6,1.76,1.76,0,0,0,.17-1.16,1.69,1.69,0,0,0-.71-1,1.9,1.9,0,0,0-1-.4,1.84,1.84,0,0,0-1.05.32,10.14,10.14,0,0,0-1.66,1.88Zm-4.45-3.35,2.6,1.95,1.11-1.48c.65-.88,1.06-1.45,1.19-1.67a1.83,1.83,0,0,0,.29-1.22,1.45,1.45,0,0,0-.63-1,1.58,1.58,0,0,0-1-.36,1.66,1.66,0,0,0-1,.56c-.19.2-.69.83-1.49,1.9Zm-3.57.85,3.38-4.46a13.84,13.84,0,0,1,1.61-1.9,3.71,3.71,0,0,1,1.34-.83,3.75,3.75,0,0,1,1.58-.15,3.24,3.24,0,0,1,1.57.64,3.34,3.34,0,0,1,1.24,3.41,3.65,3.65,0,0,1,2.19-.81,3.35,3.35,0,0,1,2.11.72,4.28,4.28,0,0,1,1.22,1.47,3.93,3.93,0,0,1,.42,1.84,4,4,0,0,1-.62,1.91c-.23.41-.9,1.34-2,2.79l-2.87,3.8Zm-6.45,15.71a5.28,5.28,0,0,1-1.56-3.43,3.6,3.6,0,0,1,1.34-2.75,3.54,3.54,0,0,1,2.9-1,5.26,5.26,0,0,1,3.15,2,5.41,5.41,0,0,1,1.58,3.48,3.79,3.79,0,0,1-4.21,3.65A5.32,5.32,0,0,1,167.62,180.3Zm-2.13,2a7.21,7.21,0,0,0,4.84,2.75,7.36,7.36,0,0,0,7.46-6.5,8.6,8.6,0,0,0-7-8,6.59,6.59,0,0,0-5,1.81,7.71,7.71,0,0,0-1.93,2.4,5.71,5.71,0,0,0-.53,2.13,6.41,6.41,0,0,0,.28,2.31A8.85,8.85,0,0,0,165.49,182.29Zm-17.32,2.5,8.42-5.06,7.21,12-2.42,1.46-6-10-3.62,2.17,3.09,5.13a24.23,24.23,0,0,1,1.69,3.16,2.61,2.61,0,0,1,.12,1.79,3.32,3.32,0,0,1-1.5,1.56c-.28.16-.82.45-1.6.84L152.44,196l.55-.32a2.08,2.08,0,0,0,.9-.82c.09-.24,0-.63-.34-1.17l-1.26-2ZM137.31,204l-4.8-13.16,9.76-3.56.81,2.23-7.1,2.59L137,195l6.6-2.41.82,2.22-6.61,2.4,1.3,3.59,7.35-2.68.81,2.21Zm-20.7-10.62,2.81-.35.4,3.31a12.18,12.18,0,0,0,.38,2.13,1.54,1.54,0,0,0,.82.83,3.21,3.21,0,0,0,1.77.18,5.29,5.29,0,0,0,1.58-.4,3.27,3.27,0,0,0,1.15-.72l-.74-6,2.81-.35L129.3,206l-2.82.35-.67-5.6a9.49,9.49,0,0,1-1.61.78,7.32,7.32,0,0,1-1.6.39,5.89,5.89,0,0,1-3.6-.56,3.87,3.87,0,0,1-1.82-3.22Zm-21.8,12.85,1.71-13.91,10.31,1.27-.3,2.35L99,195l-.38,3.09,7,.85-.29,2.34-7-.86-.46,3.78,7.76,1-.28,2.34ZM79.48,200l2.61.9a7.89,7.89,0,0,0,1.79.48,1.87,1.87,0,0,0,1.06-.24,1.72,1.72,0,0,0,.75-.95,1.54,1.54,0,0,0-.2-1.56,4.44,4.44,0,0,0-2.09-1.18l-2.71-.95ZM80.6,188l2.67.93-1.83,5.29L85,195.47a5.16,5.16,0,0,1,3.25,2.45,4.18,4.18,0,0,1,.17,3.22,4.13,4.13,0,0,1-1.5,2.08,3.63,3.63,0,0,1-2,.74,7.72,7.72,0,0,1-2.66-.54L76,201.28Zm-16.22.73,2,1.17a9.67,9.67,0,0,1,2,1.47,1.67,1.67,0,0,1,.42,1,1.76,1.76,0,0,1-.28,1.08,1.78,1.78,0,0,1-1,.81,1.84,1.84,0,0,1-1.18,0,16.2,16.2,0,0,1-1.7-.93L62.45,192ZM67.24,184l1.4.83c1.14.7,1.82,1.13,2,1.29a1.61,1.61,0,0,1,.65,1,1.69,1.69,0,0,1-1.15,1.82,2,2,0,0,1-1.24-.16c-.24-.11-.84-.45-1.79-1l-1.58-.95ZM66,180.51l-7.22,12L62.89,195c1.56.92,2.55,1.48,3,1.67a3.9,3.9,0,0,0,2,.41,3.62,3.62,0,0,0,1.79-.61A4.11,4.11,0,0,0,71,195.09a3.4,3.4,0,0,0,.51-2.17,3.74,3.74,0,0,0-1-2.1,3.34,3.34,0,0,0,1.87-.31,3.26,3.26,0,0,0,1.39-1.29,3.19,3.19,0,0,0,.47-1.61,3.86,3.86,0,0,0-.31-1.57,3.68,3.68,0,0,0-1-1.24,17.15,17.15,0,0,0-2.06-1.41Zm-17-4.27a5.28,5.28,0,0,0-1.54,3.45,3.79,3.79,0,0,0,4.2,3.66,5.38,5.38,0,0,0,3.22-2,5.3,5.3,0,0,0,1.56-3.4,3.91,3.91,0,0,0-4.25-3.68A5.3,5.3,0,0,0,49,176.24Zm-2.26-1.84a8.78,8.78,0,0,1,2.85-2.29,6.64,6.64,0,0,1,2.24-.6,5.57,5.57,0,0,1,2.18.24,7.85,7.85,0,0,1,2.65,1.56A6.56,6.56,0,0,1,59.16,178a7.35,7.35,0,0,1-2.1,5.25,7.32,7.32,0,0,1-4.88,2.79,7.37,7.37,0,0,1-7.47-6.48A7.22,7.22,0,0,1,46.76,174.4Zm-5-13,.84,1.07a13.9,13.9,0,0,1,1.18,1.66,2,2,0,0,1,.21,1.28,1.78,1.78,0,0,1-.72,1.13,1.91,1.91,0,0,1-1.06.42,1.84,1.84,0,0,1-1.08-.27A7.09,7.09,0,0,1,39.58,165l-1-1.21Zm-10.92,4.93,1.75,2.23,4.15-3.26,1.14,1.46a16.08,16.08,0,0,0,2,2.18,4.12,4.12,0,0,0,1.42.76,4,4,0,0,0,1.82.08,4.48,4.48,0,0,0,2-1,4.33,4.33,0,0,0,1.65-2.33,3.61,3.61,0,0,0-.16-2.43,16.69,16.69,0,0,0-1.9-2.78l-2.8-3.57Zm-2.66-18.82A5.3,5.3,0,0,0,25.42,150a3.6,3.6,0,0,0,.12,3,3.56,3.56,0,0,0,2.32,2,5.39,5.39,0,0,0,3.76-.63,5.35,5.35,0,0,0,2.77-2.53,3.92,3.92,0,0,0-2.49-5A5.41,5.41,0,0,0,28.18,147.47Zm-1.36-2.58a8.84,8.84,0,0,1,3.51-1,6.77,6.77,0,0,1,2.31.33,5.71,5.71,0,0,1,1.92,1.08,7.53,7.53,0,0,1,1.82,2.47,6.64,6.64,0,0,1,.45,5.3,7.4,7.4,0,0,1-4,4,7.35,7.35,0,0,1-5.59.66,6.47,6.47,0,0,1-3.88-3.58,6.6,6.6,0,0,1-.46-5.31A7.23,7.23,0,0,1,26.82,144.89Zm.51-14.08c-4.11,1.1-7.21,1.54-9.28,1.3l1.37,5.14,9-2.41Zm1.58-3.21L31.42,137l-11.27,3,.32,1.19-5.22,1.4-.61-2.27,3-.79L15.31,131l-3,.8-.61-2.27L17,128.1l.3,1.14a12.83,12.83,0,0,0,4.34,0A52.88,52.88,0,0,0,27.48,128Zm-5.48-13.75.45-2.79q3.48.64,3.76,4.8a5.5,5.5,0,0,1-.82,3.79,3.27,3.27,0,0,1-2.45,1.44,3,3,0,0,1-1.84-.46A4.78,4.78,0,0,1,21,119a4.3,4.3,0,0,1-1.21,2.18,3.3,3.3,0,0,1-2.09.85,3.76,3.76,0,0,1-3.08-1.14,6.13,6.13,0,0,1-1.41-4,6.85,6.85,0,0,1,.49-3.51,4.56,4.56,0,0,1,2.59-2.1l1,2.52A2.81,2.81,0,0,0,15.75,115a3.35,3.35,0,0,0-.25,1.67,2.78,2.78,0,0,0,.71,1.9,1.75,1.75,0,0,0,1.37.51,1.66,1.66,0,0,0,1.33-.78,3.46,3.46,0,0,0,.38-2.12l0-.63,2.1-.16,0,.32a3.06,3.06,0,0,0,.72,1.94,1.91,1.91,0,0,0,1.6.59,1.75,1.75,0,0,0,1.25-.65,2.31,2.31,0,0,0,.41-1.64A2.17,2.17,0,0,0,23.43,113.85Z"/><path class="cls-5" d="M84.27,64.57A46.24,46.24,0,0,0,110,73a46.24,46.24,0,0,0,25.73-8.39c7.15-4.58,15.32-12.4,19.91-17a76.83,76.83,0,0,0-91.28,0C69,52.17,77.12,60,84.27,64.57Zm18.92-16.14a6.81,6.81,0,1,1,13.62,0v9.51a6.81,6.81,0,0,1-13.62,0Z"/><path class="cls-6" d="M186.81,109.32A76.64,76.64,0,0,0,161,51.86a111.46,111.46,0,0,1-18.28,17c-10.16,7.23-14.15,10.19-16.78,15.81-6,12.83,1.58,23.23,1.34,37.46-.18,10.26-6.47,51.82-8.68,63.35,1.33-.09,2.65-.23,4-.39A76.84,76.84,0,0,0,186.81,109.32Z"/><path class="cls-7" d="M92.75,122.15c-.24-14.23,7.36-24.63,1.34-37.46-2.63-5.62-6.62-8.58-16.78-15.81A111.88,111.88,0,0,1,59,51.87,76.81,76.81,0,0,0,97.47,185.11c1.31.16,2.63.3,4,.39C99.22,174,92.93,132.41,92.75,122.15Z"/></svg>