<svg width="40" height="40" viewBox="0 0 40 40" fill="none" xmlns="http://www.w3.org/2000/svg">
<g filter="url(#filter0_d)">
<rect x="5" y="2" width="30" height="30" rx="15" fill="url(#paint0_linear)"/>
</g>
<path d="M26.8776 13.0699C27.1635 13.2009 27.4328 13.3185 27.6987 13.4428C28.5564 13.8426 28.8955 14.7464 28.5065 15.6165C27.9613 16.8328 27.4162 18.049 26.8676 19.2652C26.6881 19.665 26.2992 19.833 25.9235 19.6784C25.5412 19.5205 25.375 19.0905 25.5545 18.684C25.8603 17.9952 26.1695 17.3098 26.4787 16.6211C26.7114 16.1003 26.9441 15.5829 27.1768 15.0622C27.2632 14.8673 27.2499 14.827 27.0604 14.7396C26.8111 14.6254 26.5585 14.5112 26.2925 14.3902C26.2593 14.4574 26.2327 14.5112 26.2094 14.5649C25.1589 16.8966 24.1284 19.235 23.0546 21.5532C22.3166 23.1423 21.1564 24.3619 19.6604 25.2489C19.3147 25.4538 18.9224 25.269 18.8493 24.8692C18.5135 23.0617 18.7096 21.3146 19.4576 19.6381C20.814 16.6009 22.1803 13.5671 23.5466 10.5366C24.0153 9.49511 25.2254 9.04827 26.2493 9.52199C27.2699 9.99571 27.7153 11.2187 27.2466 12.2568C27.1269 12.5222 27.0039 12.7876 26.8776 13.0699Z" fill="white"/>
<path d="M21.5022 11.7225C21.2661 12.2467 21.0501 12.7405 20.8207 13.2311C20.8041 13.2714 20.711 13.2915 20.6545 13.2915C19.6006 13.2949 18.5501 13.2949 17.4963 13.2949C16.0569 13.2949 14.6141 13.2949 13.1746 13.2949C12.7757 13.2949 12.4732 13.0765 12.3701 12.7204C12.2272 12.2198 12.5995 11.7259 13.1281 11.7259C14.2152 11.7225 15.2989 11.7259 16.386 11.7259C18.0249 11.7259 19.6671 11.7259 21.306 11.7259C21.3625 11.7225 21.4157 11.7225 21.5022 11.7225Z" fill="white"/>
<path d="M20.0526 14.9546C19.8199 15.4753 19.6005 15.9692 19.3711 16.4564C19.3512 16.5001 19.2548 16.5236 19.1949 16.5236C17.9716 16.5269 16.7482 16.5269 15.5248 16.5269C14.7436 16.5269 13.9624 16.5269 13.1812 16.5269C12.6991 16.5269 12.3401 16.191 12.3401 15.7441C12.3401 15.2939 12.6991 14.9546 13.1778 14.9546C15.4218 14.9546 17.6624 14.9546 19.9063 14.9546C19.9396 14.9546 19.9795 14.9546 20.0526 14.9546Z" fill="white"/>
<path d="M18.5999 18.1867C18.4603 18.4992 18.3339 18.7713 18.2143 19.0468C18.1345 19.2316 18.0514 19.413 17.9849 19.6045C17.945 19.7255 17.8851 19.7624 17.7588 19.7624C16.6119 19.7591 15.465 19.7591 14.3181 19.7591C13.9358 19.7591 13.5535 19.7591 13.1712 19.7591C12.6958 19.7591 12.3434 19.4365 12.3335 18.9897C12.3235 18.5462 12.6825 18.1901 13.1612 18.1901C14.6007 18.1867 16.0434 18.1901 17.4829 18.1901C17.8453 18.1867 18.2043 18.1867 18.5999 18.1867Z" fill="white"/>
<path d="M17.453 21.4457C17.4031 21.9631 17.3532 22.4738 17.3 23.0046C17.2502 23.008 17.1903 23.0113 17.1338 23.0113C15.8174 23.0113 14.4976 23.0113 13.1812 23.0113C12.6991 23.0113 12.3401 22.6753 12.3401 22.2285C12.3401 21.7783 12.6991 21.439 13.1778 21.439C14.5608 21.439 15.947 21.439 17.33 21.439C17.3732 21.439 17.4164 21.4457 17.453 21.4457Z" fill="white"/>
<defs>
<filter id="filter0_d" x="0" y="0" width="40" height="40" filterUnits="userSpaceOnUse" color-interpolation-filters="sRGB">
<feFlood flood-opacity="0" result="BackgroundImageFix"/>
<feColorMatrix in="SourceAlpha" type="matrix" values="0 0 0 0 0 0 0 0 0 0 0 0 0 0 0 0 0 0 127 0"/>
<feOffset dy="3"/>
<feGaussianBlur stdDeviation="2.5"/>
<feColorMatrix type="matrix" values="0 0 0 0 1 0 0 0 0 0.419608 0 0 0 0 0 0 0 0 0.3 0"/>
<feBlend mode="normal" in2="BackgroundImageFix" result="effect1_dropShadow"/>
<feBlend mode="normal" in="SourceGraphic" in2="effect1_dropShadow" result="shape"/>
</filter>
<linearGradient id="paint0_linear" x1="29.1127" y1="26.5269" x2="10.4731" y2="7.88734" gradientUnits="userSpaceOnUse">
<stop stop-color="#FF8900"/>
<stop offset="1" stop-color="#FF6B00"/>
</linearGradient>
</defs>
</svg>
