<svg width="20" height="20" viewBox="0 0 20 20" fill="none" xmlns="http://www.w3.org/2000/svg">
<path d="M19.499 14.6165L16.2858 11.4176C15.6169 10.7518 14.5325 10.7511 13.8629 11.4176L12.9271 12.3492C10.7889 11.0493 8.99256 9.26096 7.68675 7.13232L8.71281 6.1109C9.38073 5.44588 9.38073 4.36381 8.71277 3.69879L5.49958 0.499989C4.8326 -0.163913 3.74971 -0.170081 3.07465 0.502002L1.05549 2.52776C0.0894043 3.33532 -0.250407 4.66124 0.190169 5.9179C2.45096 12.3675 7.66851 17.5616 14.147 19.8123C15.3659 20.2356 16.6176 19.919 17.4134 19.1028C17.4249 19.0927 17.4362 19.0822 17.4471 19.0712L19.499 17.0285C20.167 16.3635 20.167 15.2815 19.499 14.6165ZM18.4754 16.0095L16.47 18.006C16.4455 18.0263 16.4223 18.0482 16.4006 18.0718C15.9784 18.5286 15.2994 18.6863 14.6241 18.4516C8.55848 16.3444 3.67364 11.4814 1.55699 5.44297C1.31463 4.75161 1.48948 4.03533 2.00247 3.6181C2.02196 3.60225 2.04063 3.58537 2.05836 3.5676L4.10028 1.51897C4.16796 1.45155 4.24708 1.44149 4.28817 1.44149C4.3293 1.44149 4.40834 1.45151 4.47606 1.51897L7.68916 4.71778C7.79277 4.82092 7.79276 4.98869 7.6892 5.09183L6.26753 6.50714C6.03773 6.73587 5.98924 7.08893 6.14887 7.37068C7.69166 10.0935 9.95266 12.3445 12.6877 13.8802C12.9707 14.0392 13.3253 13.9908 13.5551 13.7621L14.8865 12.4367C14.9902 12.3335 15.1585 12.3334 15.2623 12.4367L18.4755 15.6355C18.579 15.7386 18.579 15.9064 18.4754 16.0095Z" fill="#FF6B00"/>
<path d="M11.5695 3.69592C11.1698 3.69592 10.8457 4.01854 10.8457 4.41649C10.8457 4.81445 11.1697 5.13706 11.5695 5.13706C13.4233 5.13706 14.9314 6.63846 14.9314 8.48394C14.9314 8.88189 15.2555 9.20451 15.6552 9.20451C16.055 9.20451 16.3791 8.88189 16.3791 8.48394C16.3791 5.84384 14.2215 3.69592 11.5695 3.69592Z" fill="#FF6B00"/>
<path d="M11.5695 0.867676C11.1698 0.867676 10.8457 1.19029 10.8457 1.58824C10.8457 1.9862 11.1697 2.30881 11.5695 2.30881C14.9897 2.30881 17.7723 5.07891 17.7723 8.48383C17.7723 8.88178 18.0964 9.20439 18.4961 9.20439C18.8958 9.20439 19.2199 8.88178 19.2199 8.48383C19.2199 4.28428 15.7879 0.867676 11.5695 0.867676Z" fill="#FF6B00"/>
</svg>
