<svg width="12" height="12" viewBox="0 0 12 12" fill="none" xmlns="http://www.w3.org/2000/svg">
<path d="M7.99995 8.92306C5.72019 10.6206 2.76379 10.092 1.16067 8.15241C-0.494495 6.15551 -0.364372 3.28643 1.45475 1.45616C3.23744 -0.33767 6.13919 -0.488675 8.08323 1.08385C10.0897 2.70845 10.6362 5.71031 8.92122 8.00662C9.12161 8.20448 9.32721 8.40235 9.5302 8.60282C10.2771 9.34743 11.0162 10.0972 11.7683 10.8366C12.1847 11.2454 11.9843 11.7817 11.62 11.9405C11.3519 12.0551 11.0891 12.0056 10.8601 11.7791C10.6701 11.5943 10.4853 11.4042 10.2979 11.2168C9.55622 10.4748 8.81452 9.73275 8.07282 8.98814C8.0494 8.96732 8.02597 8.94909 7.99995 8.92306ZM4.97068 8.63667C6.9928 8.64188 8.63495 7.00166 8.64016 4.97091C8.64796 2.95058 7.00581 1.30515 4.97589 1.29994C2.95117 1.29474 1.31162 2.93235 1.30641 4.9631C1.30641 6.99385 2.94076 8.63146 4.97068 8.63667Z" fill="#171716"/>
</svg>
