<svg width="330" height="320" viewBox="0 0 330 320" fill="none" xmlns="http://www.w3.org/2000/svg">
<rect width="330" height="320" rx="15" fill="#EE811C"/>
<mask id="mask0" mask-type="alpha" maskUnits="userSpaceOnUse" x="0" y="0" width="330" height="320">
<rect width="330" height="320" rx="15" fill="#EE811C"/>
</mask>
<g mask="url(#mask0)">
<path d="M238.072 202.837C236.438 203.158 234.395 204.04 232.271 205.002C229.82 206.044 227.369 207.166 225.245 207.487C225.327 207.727 225.408 207.968 225.49 208.208C227.696 207.808 230.229 206.765 232.598 205.643C234.641 204.761 236.601 203.879 238.235 203.559C241.912 202.837 251.307 199.31 257.598 196.263C257.598 195.943 257.516 195.702 257.516 195.462C251.307 198.508 241.748 202.036 238.072 202.837ZM251.716 195.382C247.876 196.825 243.954 198.348 241.095 199.31C239.706 199.791 238.399 200.192 237.5 200.432C235.703 200.913 233.742 201.795 231.863 202.677C231.373 202.917 230.882 203.158 230.392 203.398C229.003 204.12 227.614 204.761 226.307 205.242C225.735 205.403 225.163 205.563 224.673 205.723C224.755 205.964 224.837 206.204 224.918 206.445C225.408 206.365 225.98 206.204 226.552 205.964C227.941 205.483 229.33 204.761 230.801 204.04C231.291 203.799 231.781 203.559 232.271 203.318C234.069 202.436 236.029 201.555 237.745 201.074C238.725 200.833 240.033 200.432 241.422 199.951C244.281 198.989 248.284 197.466 252.042 196.023C253.922 195.301 255.637 194.66 257.271 194.019C257.19 193.778 257.19 193.538 257.108 193.297C255.392 194.019 253.595 194.66 251.716 195.382ZM245.016 195.221C243.382 195.863 241.748 196.424 240.523 196.905C238.889 197.466 237.663 197.867 236.928 198.027C234.967 198.669 233.088 199.55 231.454 200.432C230.801 200.833 230.065 201.234 229.493 201.555C228.431 202.196 227.369 202.837 226.225 203.318C225.49 203.639 224.837 203.879 224.183 204.04C224.265 204.28 224.346 204.521 224.428 204.761C225.082 204.601 225.817 204.36 226.552 204.04C227.778 203.479 228.84 202.837 229.902 202.196C230.556 201.795 231.209 201.394 231.863 201.074C233.415 200.272 235.294 199.31 237.173 198.749C237.908 198.508 239.052 198.188 240.768 197.626C242.075 197.226 243.627 196.584 245.343 195.943C248.856 194.66 253.105 193.057 256.781 192.095C256.699 191.934 256.699 191.774 256.618 191.614C256.781 191.774 256.944 191.614 257.108 191.213C253.186 192.175 248.693 193.858 245.016 195.221ZM242.892 193.297C241.748 193.778 240.768 194.179 239.869 194.42C239.216 194.66 238.562 194.901 237.99 195.061C237.418 195.301 236.846 195.462 236.356 195.622C234.641 196.263 233.007 196.985 231.046 198.188C230.31 198.669 229.575 199.15 228.922 199.631C228.023 200.272 227.124 200.913 226.144 201.474C225.49 201.795 224.673 202.196 223.775 202.517C223.856 202.757 223.856 202.998 223.938 203.238C224.918 202.917 225.817 202.517 226.471 202.116C227.533 201.555 228.431 200.913 229.33 200.272C229.984 199.791 230.719 199.31 231.454 198.829C233.333 197.707 234.886 196.905 236.601 196.344C237.091 196.183 237.582 196.023 238.235 195.782C238.807 195.542 239.461 195.382 240.114 195.141C241.013 194.82 241.993 194.42 243.137 194.019C246.977 192.496 252.288 190.411 257.026 190.091C257.026 189.85 257.026 189.61 256.944 189.289C252.206 189.69 246.814 191.774 242.892 193.297ZM241.585 191.053C240.686 191.453 239.869 191.774 239.216 192.015C237.745 192.496 236.683 192.977 235.784 193.297C233.905 194.019 232.271 194.901 230.637 196.023C229.82 196.584 229.167 197.145 228.431 197.707C227.696 198.348 226.879 198.989 225.98 199.631C225.49 199.951 224.591 200.512 223.529 200.993C223.529 201.234 223.611 201.555 223.611 201.795C224.837 201.314 225.817 200.673 226.389 200.272C227.369 199.631 228.186 198.989 228.922 198.268C229.575 197.707 230.229 197.145 231.046 196.584C232.598 195.542 234.232 194.66 236.029 193.939C236.928 193.618 238.072 193.217 239.461 192.656C240.114 192.415 240.931 192.095 241.83 191.694C245.425 190.171 250.899 187.926 256.291 188.247C256.536 188.247 256.699 188.247 256.944 188.247C256.944 188.006 256.944 187.766 256.944 187.445C256.699 187.445 256.536 187.445 256.291 187.445C255.964 187.445 255.556 187.445 255.229 187.445C250.082 187.525 245.016 189.69 241.585 191.053ZM240.605 188.728C239.869 189.048 239.216 189.369 238.644 189.529C237.337 190.01 236.193 190.491 235.294 190.892C233.333 191.774 231.699 192.656 230.31 193.778C229.493 194.42 228.84 195.061 228.186 195.702C227.533 196.344 226.879 196.985 225.98 197.707C225.327 198.268 224.428 198.829 223.529 199.39C223.529 199.711 223.529 199.951 223.529 200.272C224.591 199.711 225.654 198.989 226.471 198.348C227.369 197.626 228.105 196.905 228.758 196.263C229.412 195.622 230.065 194.981 230.801 194.42C232.19 193.377 233.66 192.496 235.621 191.694C236.52 191.293 237.663 190.812 238.971 190.411C239.542 190.171 240.196 189.93 240.931 189.529C244.199 188.086 249.673 185.601 255.556 186.643C256.046 186.724 256.618 186.804 257.108 186.804C257.108 186.563 257.108 186.323 257.19 186.002C256.781 186.002 256.291 185.922 255.801 185.842C254.739 185.681 253.676 185.521 252.614 185.521C247.631 185.601 243.382 187.525 240.605 188.728ZM160.212 176.703C160.458 177.264 160.703 177.745 161.029 178.306C161.111 178.226 161.193 178.226 161.356 178.146C161.52 178.066 161.601 177.985 161.765 177.905C161.438 177.344 161.111 176.703 160.866 176.061C160.621 176.222 160.376 176.462 160.212 176.703ZM161.193 175.661C161.601 176.222 162.01 176.783 162.418 177.264C162.582 177.104 162.827 176.943 163.072 176.783C162.663 176.302 162.255 175.741 161.846 175.179C161.601 175.34 161.438 175.5 161.193 175.661ZM162.663 174.859C162.745 174.939 162.827 174.939 162.908 175.019C163.399 175.42 163.807 175.741 164.297 176.141C164.542 176.061 164.706 175.981 164.951 175.821C165.033 175.821 165.033 175.821 165.114 175.741C164.624 175.34 164.134 174.939 163.562 174.458C163.235 174.618 162.99 174.779 162.663 174.859ZM165.033 173.817C165.605 174.137 166.176 174.458 166.667 174.779C166.748 174.859 166.83 174.939 166.993 175.019L167.075 175.099C167.402 175.019 167.647 174.859 167.974 174.779C167.892 174.698 167.81 174.698 167.729 174.618C167.647 174.538 167.565 174.458 167.484 174.378C167.402 174.298 167.32 174.217 167.157 174.137C166.667 173.817 166.176 173.496 165.605 173.175C165.441 173.416 165.278 173.656 165.033 173.817ZM152.451 172.454C152.533 172.774 152.614 173.095 152.696 173.416C152.941 173.496 153.268 173.576 153.595 173.656C153.431 173.175 153.268 172.774 153.186 172.293C152.859 172.213 152.614 172.293 152.451 172.454ZM155.556 171.732C155.637 172.293 155.801 172.855 155.882 173.416C156.127 173.336 156.373 173.336 156.618 173.255C156.454 172.694 156.291 172.133 156.209 171.572C156.046 171.572 155.801 171.652 155.556 171.732ZM150 168.285C150.654 168.526 151.307 168.766 152.042 168.926C152.042 169.087 152.042 169.247 152.042 169.407C152.288 169.407 152.614 169.488 152.859 169.488C152.859 169.407 152.859 169.247 152.859 169.167C153.268 169.247 153.676 169.407 154.085 169.488C154.248 169.488 154.412 169.488 154.575 169.488C155.31 169.488 156.454 169.568 157.516 169.488C157.026 169.407 156.536 169.247 155.964 169.087C155.882 169.087 155.719 169.007 155.556 169.007C154.003 168.606 152.614 168.285 151.307 167.804C150.98 167.804 150.654 167.804 150.49 167.804C150.163 167.884 150 168.045 150 168.285ZM162.582 168.686C162.5 168.766 162.418 168.846 162.255 168.926C162.173 169.007 162.092 169.087 161.928 169.167C161.846 169.247 161.683 169.327 161.601 169.327C161.52 169.407 161.356 169.407 161.275 169.488C161.193 169.568 161.029 169.568 160.948 169.568C160.866 169.568 160.866 169.568 160.784 169.568C160.784 169.648 160.784 169.728 160.621 169.808C160.294 170.129 159.559 170.369 158.824 170.61C158.824 171.251 158.905 171.973 158.987 172.614C159.641 172.454 160.294 172.374 160.866 172.213C160.866 172.213 160.866 172.213 160.784 172.133C160.703 172.053 160.703 172.053 160.621 171.973C160.703 171.973 160.784 172.053 160.866 172.053C160.948 172.053 161.029 172.053 161.029 172.133C161.601 171.973 162.173 171.893 162.745 171.812C162.255 171.652 161.765 171.492 161.275 171.331C161.356 171.331 161.438 171.331 161.52 171.331C163.807 170.85 165.768 171.091 167.565 172.053C167.729 172.133 167.81 172.213 167.892 172.293C167.974 172.374 168.056 172.374 168.137 172.454C168.627 172.774 169.363 173.095 170.261 173.576C170.507 173.416 170.752 173.255 171.078 173.095C170.016 172.614 169.199 172.133 168.627 171.812C168.546 171.732 168.464 171.732 168.382 171.652C168.219 171.572 168.137 171.492 167.974 171.412C166.258 170.45 164.379 170.129 162.337 170.369C164.788 169.007 166.748 168.766 168.627 169.488C168.791 169.568 168.954 169.648 169.118 169.728L169.281 169.808C169.935 170.129 170.752 170.53 171.732 171.011C172.059 171.171 172.467 171.331 172.794 171.572C173.039 171.412 173.203 171.171 173.448 171.011C172.958 170.77 172.549 170.53 172.141 170.369C171.16 169.888 170.343 169.488 169.69 169.167L169.526 169.087C169.363 169.007 169.199 168.926 168.954 168.846C167.32 168.205 165.605 168.205 163.644 168.926C166.503 166.762 168.137 166.602 169.69 167.002C169.935 167.083 170.18 167.163 170.343 167.243C171.324 167.564 172.467 168.205 173.856 168.926C174.265 169.167 174.673 169.327 175.082 169.568C175.327 169.407 175.572 169.167 175.735 169.007C175.163 168.766 174.673 168.445 174.183 168.205C172.712 167.483 171.569 166.842 170.588 166.521C170.343 166.441 170.098 166.361 169.853 166.281C168.301 165.88 166.83 166.121 165.033 167.083C166.095 166.121 166.993 165.399 167.892 164.998C167.484 164.918 167.075 164.918 166.667 164.838C165.523 165.8 164.216 167.002 162.582 168.686ZM162.092 166.922C160.131 168.606 158.007 168.285 155.147 167.804C155.065 167.804 154.984 167.804 154.902 167.724C154.575 167.724 154.33 167.804 154.085 167.804C153.268 167.884 152.206 167.884 151.471 167.884C152.859 168.205 153.758 168.365 153.84 168.365C154.248 168.445 154.657 168.526 155.065 168.526C157.925 169.007 160.458 169.407 162.663 167.483C163.889 166.361 164.951 165.559 165.85 164.918C165.523 164.838 165.114 164.758 164.788 164.758C164.052 165.319 163.154 166.04 162.092 166.922ZM153.431 164.678C153.186 164.678 153.023 164.597 152.778 164.597C153.513 164.918 154.412 165.078 154.984 165.159C155.31 165.239 155.964 165.399 156.536 165.64C157.68 165.64 158.824 165.479 159.967 164.998C159.559 164.918 159.069 164.758 158.578 164.597C156.863 165.078 155.147 164.918 153.431 164.678ZM171.65 164.838C172.631 165.239 173.856 165.8 175.327 166.602C176.062 167.002 176.961 167.483 177.859 167.884C178.105 167.724 178.431 167.644 178.758 167.483C177.614 166.922 176.634 166.361 175.735 165.96C174.51 165.319 173.529 164.758 172.549 164.437C172.141 164.517 171.895 164.678 171.65 164.838ZM161.601 165.239C160.621 165.96 159.641 166.361 158.66 166.441C159.069 166.682 159.559 166.842 159.641 167.002C160.458 166.762 161.275 166.361 162.092 165.8C162.745 165.319 163.317 164.838 163.889 164.437C163.562 164.357 163.235 164.197 162.99 164.116C162.582 164.517 162.092 164.838 161.601 165.239ZM174.02 163.796C173.938 163.796 173.775 163.876 173.693 163.876C174.346 164.116 175.082 164.357 175.899 164.678C176.389 164.838 176.961 165.078 177.533 165.239C178.676 165.64 179.82 166.04 180.801 166.521C181.127 166.361 181.454 166.281 181.781 166.121C180.556 165.559 179.248 165.078 177.778 164.597C177.206 164.357 176.634 164.197 176.144 164.036C175.654 163.876 175.163 163.716 174.755 163.555C174.51 163.635 174.265 163.716 174.02 163.796ZM161.111 163.475C160.703 163.716 160.294 163.956 159.886 164.197C160.212 164.357 160.458 164.517 160.703 164.678C160.948 164.517 161.275 164.357 161.52 164.197C161.683 164.116 161.846 163.956 162.01 163.876C161.765 163.716 161.438 163.635 161.193 163.475C161.275 163.395 161.193 163.475 161.111 163.475ZM151.797 163.796C151.961 163.796 152.124 163.796 152.288 163.876C153.35 163.956 154.412 164.036 155.474 164.036C154.248 163.796 152.614 163.395 152.042 163.235C151.961 163.235 151.961 163.235 151.879 163.235C151.716 163.154 151.634 163.395 151.797 163.796ZM157.026 163.074C157.435 163.235 158.007 163.395 158.415 163.555C158.987 163.395 159.559 163.154 160.212 162.914C159.886 162.754 159.477 162.673 159.069 162.513C158.333 162.754 157.68 162.914 157.026 163.074ZM176.961 162.353C179.575 162.994 182.271 163.716 184.722 164.998C185.049 164.838 185.376 164.758 185.703 164.597L185.621 164.517C183.252 163.235 180.556 162.433 178.023 161.792C177.614 161.952 177.288 162.112 176.961 162.353ZM155.964 162.032C156.209 162.032 156.536 161.952 156.781 161.952C156.618 161.872 156.454 161.792 156.291 161.792C156.209 161.792 156.209 161.792 156.127 161.792C156.046 161.711 155.964 161.872 155.964 162.032ZM180.882 160.028C182.271 160.349 183.578 160.83 184.804 161.311C186.029 161.792 187.337 162.513 188.644 163.475C188.971 163.395 189.216 163.235 189.542 163.154C188.072 162.032 186.601 161.23 185.131 160.669C184.069 160.268 183.007 159.868 181.863 159.547C181.536 159.707 181.209 159.868 180.882 160.028ZM184.967 157.623C186.846 158.344 188.971 160.108 191.013 162.593C191.258 162.513 191.503 162.433 191.83 162.273C189.788 159.787 187.745 158.024 185.784 157.142C185.458 157.302 185.212 157.463 184.967 157.623ZM191.176 154.015C191.013 155.058 190.931 156.18 191.013 157.463C190.605 156.581 190.114 155.699 189.706 154.897C189.461 155.058 189.297 155.138 189.052 155.298C189.624 156.34 190.196 157.463 190.768 158.665C190.033 157.543 189.216 156.581 188.399 155.699C188.154 155.859 187.908 155.939 187.745 156.1C189.216 157.623 190.686 159.787 192.075 162.353C192.402 162.273 192.647 162.112 192.974 162.032C192.81 161.711 192.729 161.311 192.565 160.99C192.32 160.028 192.075 159.146 191.993 158.184C191.83 156.501 191.912 155.058 192.239 153.695C191.83 153.695 191.503 153.855 191.176 154.015ZM194.69 152.252C194.199 153.695 193.954 155.298 194.118 157.142C194.199 158.425 194.444 159.707 194.853 161.07C195.098 160.99 195.343 160.91 195.588 160.83C195.18 159.547 194.935 158.264 194.853 157.062C194.69 155.058 195.016 153.294 195.67 151.771C195.425 152.011 195.098 152.091 194.69 152.252ZM198.856 150.728C198.693 150.809 198.529 150.889 198.284 150.969C197.549 152.492 197.059 154.256 197.141 156.34C197.141 157.543 197.386 158.825 197.631 160.108C197.876 160.028 198.121 159.948 198.366 159.787C198.121 158.585 197.958 157.382 197.876 156.26C197.794 154.015 198.448 152.091 199.346 150.488C199.183 150.568 199.02 150.648 198.856 150.728ZM202.288 149.366C201.062 151.129 200.245 153.133 200.245 155.458C200.245 156.501 200.327 157.703 200.49 158.986C200.735 158.906 200.98 158.745 201.225 158.665C201.062 157.543 200.98 156.42 200.98 155.458C200.98 152.652 202.369 150.408 204.003 148.404C203.35 148.724 202.778 149.045 202.288 149.366ZM211.029 142.872C210.376 143.674 209.559 144.475 208.742 145.357C208.497 145.678 208.17 145.918 207.925 146.239C205.801 148.484 203.513 151.129 203.268 154.496C203.186 155.458 203.186 156.501 203.268 157.623C203.513 157.463 203.758 157.382 204.003 157.222C203.922 156.26 203.922 155.378 204.003 154.577C204.248 151.45 206.454 148.885 208.497 146.72C208.742 146.399 209.069 146.159 209.314 145.838C210.539 144.556 211.683 143.353 212.418 142.151C212.582 141.91 212.745 141.589 212.827 141.269C212.255 141.91 211.601 142.391 211.029 142.872ZM215.441 139.265C215.359 140.227 215.196 141.108 214.788 141.83C214.216 142.952 212.908 144.235 211.601 145.518L211.111 145.999C208.824 148.243 206.536 150.728 206.127 153.614C206.046 154.256 205.964 155.058 205.964 155.939C206.209 155.779 206.536 155.619 206.781 155.378C206.781 154.737 206.863 154.176 206.944 153.695C207.353 151.049 209.477 148.724 211.683 146.56L212.173 146.079C213.562 144.716 214.869 143.433 215.523 142.151C216.013 141.189 216.176 139.906 216.258 138.543C216.013 138.864 215.768 139.024 215.441 139.265ZM218.056 137.26V137.341C218.219 139.104 218.464 140.708 217.974 141.83C217.484 142.952 216.095 144.315 214.542 145.758C212.337 147.842 209.886 150.167 209.314 152.652C209.232 153.053 209.15 153.454 209.069 153.935C209.395 153.775 209.641 153.534 209.967 153.374C209.967 153.133 210.049 152.973 210.049 152.813C210.539 150.488 212.99 148.243 215.114 146.239C216.667 144.716 218.219 143.353 218.709 142.07C219.281 140.788 219.036 139.024 218.873 137.18C218.873 137.02 218.873 136.86 218.791 136.619C218.546 136.86 218.301 137.1 218.056 137.26ZM221.324 135.256C221.324 135.978 221.324 136.619 221.405 137.341V137.421C221.487 139.104 221.569 140.788 221.078 141.99C220.997 142.151 220.915 142.311 220.833 142.551C220.18 143.594 219.118 144.716 217.729 146.079L217.565 146.159C215.85 147.842 214.052 149.686 213.072 151.69C213.48 151.45 213.889 151.209 214.297 151.049C215.278 149.526 216.748 148.083 218.137 146.72L218.301 146.56C219.69 145.197 220.833 143.994 221.569 142.872C221.732 142.632 221.814 142.471 221.895 142.231C222.467 140.868 222.386 139.104 222.304 137.341V137.26C222.304 136.459 222.222 135.657 222.222 134.936C221.895 135.016 221.569 135.096 221.324 135.256ZM224.918 134.134C224.837 135.176 224.755 136.218 224.755 137.26V137.341C224.755 139.024 224.673 140.788 224.183 141.99C224.101 142.151 224.02 142.311 223.938 142.551C223.284 143.754 222.141 144.876 220.915 146.239L220.67 146.48C219.69 147.522 218.546 148.644 217.647 149.847C218.056 149.766 218.464 149.606 218.873 149.606C219.608 148.724 220.425 147.923 221.242 147.041L221.487 146.8C222.794 145.437 223.938 144.235 224.673 142.952C224.837 142.712 224.918 142.551 225 142.311C225.572 140.948 225.572 139.104 225.654 137.421V137.341C225.654 136.298 225.654 135.176 225.817 134.134C225.49 134.054 225.163 134.134 224.918 134.134ZM245.016 133.172C245.016 137.1 245.915 141.028 247.794 145.197C248.366 146.48 248.856 147.522 249.428 148.564C251.634 152.492 251.471 155.779 251.307 158.986C251.225 160.268 251.144 161.551 251.307 162.834C251.471 164.758 252.124 166.602 253.268 168.445C255.801 172.293 255.556 175.34 255.392 178.066C255.31 179.108 255.229 180.15 255.392 181.112C255.474 182.074 255.882 183.597 257.353 184.719C257.353 184.399 257.435 184.078 257.435 183.757C256.618 182.876 256.291 181.914 256.209 181.032C256.127 180.15 256.209 179.108 256.209 178.066C256.373 175.34 256.618 172.053 254.003 167.964C252.859 166.281 252.288 164.517 252.124 162.754C252.042 161.551 252.124 160.349 252.124 159.066C252.288 155.939 252.451 152.332 250.163 148.243C249.591 147.281 249.101 146.239 248.529 144.956C246.814 141.108 245.915 137.421 245.833 133.813C245.752 133.653 245.67 133.573 245.67 133.492C245.507 133.252 245.343 133.172 245.016 133.172ZM247.794 133.172C248.448 136.298 249.673 139.746 251.634 144.155C251.797 144.556 251.961 144.956 252.124 145.357C252.451 146.079 252.778 146.88 253.105 147.602C254.984 151.69 254.575 155.298 254.248 158.505C254.085 159.707 254.003 160.83 254.003 161.952C254.003 163.876 254.575 165.72 255.801 167.644C255.882 167.724 255.882 167.804 255.964 167.884C255.801 167.323 255.801 166.602 255.719 165.88C255.065 164.517 254.739 163.235 254.739 161.952C254.739 160.91 254.902 159.787 254.984 158.585C255.392 155.298 255.801 151.53 253.758 147.281C253.431 146.56 253.105 145.838 252.778 145.117C252.614 144.716 252.451 144.315 252.288 143.914C250.245 139.345 249.02 135.817 248.448 132.691C248.203 132.851 248.039 133.011 247.794 133.172ZM250.163 131.248C250.98 133.653 252.288 136.218 253.676 139.345C254.248 140.467 254.82 141.67 255.392 142.952C255.556 142.792 255.719 142.551 255.964 142.311C255.474 141.189 254.902 140.066 254.412 139.104C252.941 135.978 251.634 133.252 250.817 130.847C250.572 130.927 250.327 131.087 250.163 131.248ZM252.288 129.725C252.859 130.687 253.513 131.729 254.167 132.851C255.392 134.775 256.781 137.1 258.17 139.826C258.333 139.665 258.578 139.425 258.742 139.265C257.353 136.619 255.964 134.374 254.82 132.53C254.085 131.408 253.431 130.366 252.941 129.404C252.696 129.404 252.451 129.564 252.288 129.725ZM252.288 175.42C252.369 175.019 252.533 174.698 252.533 174.298C252.696 175.741 252.451 177.104 252.288 178.226C251.961 180.39 251.716 182.234 253.513 183.677C250.163 182.956 247.141 183.437 244.608 184.238C247.876 182.074 251.225 178.947 252.288 175.42ZM238.807 135.176C238.807 135.256 238.807 135.336 238.725 135.417C238.644 135.577 238.644 135.737 238.562 135.978C238.562 136.058 238.562 136.058 238.48 136.138C238.48 136.298 238.399 136.379 238.399 136.539C238.317 136.699 238.317 136.86 238.235 137.02C238.235 137.02 238.235 137.02 238.235 137.1C238.154 137.26 238.154 137.501 238.072 137.661C237.582 139.265 237.255 140.708 236.765 141.91C236.601 142.311 236.438 142.712 236.356 143.032C235.539 144.796 234.395 146.239 233.088 147.762C230.556 150.809 227.941 154.015 228.84 159.467C228.922 159.948 229.33 161.15 230.065 162.673C231.454 165.479 233.578 169.648 232.843 173.175C232.843 173.255 232.843 173.336 232.761 173.416C232.761 173.496 232.761 173.496 232.68 173.576V173.656C232.353 174.618 231.618 175.901 229.902 177.424C229.902 177.825 229.82 178.146 229.82 178.547C231.618 177.023 232.761 175.58 233.333 174.217C233.333 174.137 233.415 174.057 233.415 173.977C233.415 173.897 233.415 173.897 233.415 173.817C233.415 173.736 233.415 173.736 233.497 173.656C233.497 173.576 233.578 173.496 233.578 173.416C234.15 170.45 233.007 167.163 231.699 164.437C231.373 163.716 230.964 162.994 230.719 162.353C230.065 160.99 229.575 159.787 229.493 159.387C228.84 155.138 230.31 152.412 232.353 149.847C231.127 152.011 230.474 154.576 231.536 157.863C231.699 158.344 231.863 158.906 232.108 159.467C232.353 160.268 232.68 161.07 233.007 162.032C233.088 162.192 233.088 162.353 233.17 162.513C233.497 163.555 233.905 164.758 234.559 166.04C235.948 168.606 235.621 171.732 233.66 175.34C232.761 177.023 231.209 178.627 229.575 180.07C229.412 180.631 229.248 181.032 229.085 181.513C231.618 179.509 233.333 177.585 234.395 175.741C236.438 171.893 236.765 168.445 235.294 165.72C234.641 164.517 234.314 163.395 233.905 162.273C233.824 162.112 233.824 161.952 233.742 161.792C233.415 160.83 233.088 159.948 232.843 159.226C232.598 158.585 232.435 158.104 232.271 157.623C230.801 153.214 232.761 150.408 234.804 147.442C234.886 147.281 234.967 147.201 235.049 147.041C233.824 149.606 232.761 152.332 234.314 156.18C234.886 157.623 235.539 159.387 235.948 161.471C235.948 161.631 236.029 161.792 236.029 161.952C236.356 163.395 236.683 164.918 237.663 166.682C240.278 171.171 236.193 176.142 234.477 177.665C233.333 178.707 232.271 179.669 231.209 180.631C230.147 181.673 229.085 182.635 227.941 183.597C227.859 183.757 227.778 183.998 227.696 184.238C227.614 184.479 227.533 184.8 227.451 185.04C228.922 183.838 230.31 182.555 231.781 181.192C232.843 180.23 233.905 179.188 235.049 178.226C237.827 175.821 241.013 170.61 238.399 166.281C237.418 164.678 237.092 163.154 236.846 161.792C236.846 161.631 236.765 161.471 236.765 161.311C236.275 159.146 235.621 157.382 235.049 155.859C233.497 151.931 234.804 149.285 236.193 146.48C236.438 145.999 236.683 145.518 236.928 145.037V145.117C236.193 147.762 235.458 150.568 237.173 154.416C238.154 156.661 238.725 158.585 239.052 160.83L239.134 161.311C239.379 163.154 239.624 165.078 241.013 167.243C244.036 172.133 238.807 177.344 235.458 180.07C233.415 181.673 231.863 183.036 230.31 184.319C229.167 185.281 228.105 186.243 226.879 187.205C226.716 187.686 226.552 188.086 226.471 188.567C228.023 187.365 229.412 186.162 230.801 184.96C232.271 183.677 233.905 182.314 235.866 180.711C239.461 177.905 244.935 172.293 241.585 166.922C240.278 164.838 240.033 163.074 239.788 161.311L239.706 160.83C239.379 158.585 238.807 156.501 237.745 154.256C236.111 150.648 236.846 148.083 237.582 145.437C237.745 144.796 237.908 144.155 238.072 143.513C238.072 143.594 238.072 143.594 238.072 143.674C237.99 146.56 237.99 149.205 239.869 152.973C241.095 155.458 241.748 157.703 241.993 160.429V160.83C242.157 163.074 242.402 165.319 244.036 167.964C245.016 169.488 245.261 171.091 244.853 172.774C243.627 177.825 236.846 182.074 236.111 182.555C231.944 185.04 229.984 186.804 227.941 188.728C227.206 189.369 226.471 190.091 225.572 190.812C225.408 191.293 225.327 191.614 225.408 191.774C225.408 191.854 225.327 191.934 225.327 191.934C225.408 191.854 225.49 191.854 225.49 191.774C226.634 190.812 227.533 190.01 228.431 189.209C230.474 187.365 232.435 185.601 236.52 183.116C237.827 182.314 244.444 178.146 245.67 172.855C246.078 170.931 245.833 169.087 244.69 167.403C243.137 164.918 242.892 162.834 242.729 160.589V160.188C242.484 157.302 241.83 154.977 240.523 152.412C238.725 148.885 238.807 146.399 238.807 143.513C238.807 143.032 238.807 142.632 238.807 142.151C239.542 145.117 240.605 147.682 242.565 151.129C244.363 154.256 244.771 156.741 244.935 159.707V160.028C245.016 162.593 245.18 165.319 247.222 168.365C248.366 170.049 248.693 171.973 248.121 173.897C246.65 179.108 239.542 183.517 236.928 184.8C231.373 187.525 229.575 189.289 227.533 191.293C226.879 192.015 226.144 192.656 225.245 193.458C224.837 193.778 224.428 194.099 224.02 194.5C223.856 194.901 223.775 195.301 223.611 195.782C224.428 195.221 225.163 194.58 225.735 194.099C226.634 193.297 227.369 192.576 228.023 191.854C229.984 189.85 231.699 188.086 237.173 185.441C239.869 184.158 247.222 179.589 248.775 174.057C249.346 171.893 249.02 169.888 247.794 167.964C245.915 165.078 245.752 162.593 245.67 160.028V159.707C245.588 157.302 245.261 154.336 243.219 150.728C241.095 147.041 240.033 144.395 239.379 141.189C240.196 142.952 241.503 144.475 242.81 146.079C243.709 147.121 244.608 148.243 245.343 149.446C247.876 153.214 247.876 156.34 247.876 159.387C247.876 162.353 247.958 165.399 250.327 168.926C251.634 170.85 251.961 172.935 251.307 175.099C249.837 179.669 244.199 183.757 240.196 185.922C239.869 186.082 239.624 186.243 239.379 186.323C238.889 186.563 238.399 186.804 237.99 186.964C237.908 186.964 237.827 187.044 237.745 187.044C230.882 189.69 229.412 191.453 227.533 193.618C226.961 194.259 226.389 194.981 225.572 195.702C225.49 195.782 225.408 195.863 225.327 195.943C224.837 196.424 224.101 197.065 223.203 197.626C223.203 197.947 223.121 198.348 223.121 198.669C224.183 197.867 225.163 197.065 225.817 196.424C225.899 196.344 225.98 196.263 226.062 196.183C226.879 195.382 227.451 194.66 228.023 194.099C229.902 191.934 231.291 190.331 237.99 187.686C238.072 187.686 238.154 187.605 238.235 187.605C238.235 187.605 238.317 187.605 238.317 187.525C238.807 187.285 239.379 187.044 240.114 186.643C243.301 185.04 248.366 182.795 254.412 184.639C255.229 184.88 256.046 185.04 256.781 185.2C256.781 184.96 256.863 184.719 256.863 184.399C252.042 182.956 252.288 181.112 252.778 178.146C253.186 175.58 253.676 172.374 250.98 168.365C249.591 166.281 249.02 164.357 248.856 162.513C248.693 161.391 248.693 160.349 248.693 159.226C248.693 156.1 248.611 152.893 245.997 148.885C243.056 144.475 241.993 139.024 242.974 133.332C242.565 133.493 242.32 133.573 242.157 133.573C241.585 137.741 241.993 141.67 243.382 145.277C240.931 142.231 238.644 139.345 239.379 135.096C239.788 133.653 240.278 132.049 240.931 130.446C240.85 129.965 240.768 129.404 240.686 129.003C240.033 131.328 239.379 133.332 238.807 135.176ZM215.114 129.324C215.278 129.564 215.441 129.805 215.605 130.045C215.686 129.965 215.686 129.805 215.768 129.725C215.686 129.404 215.523 129.083 215.441 128.682C215.359 128.843 215.278 129.083 215.114 129.324ZM254.248 128.522C254.575 128.923 254.984 129.324 255.392 129.805C257.026 131.649 258.987 133.893 260.948 137.02C261.111 136.86 261.275 136.619 261.52 136.459C259.559 133.412 257.598 131.168 255.964 129.324C255.556 128.923 255.229 128.522 254.902 128.121C254.739 128.201 254.493 128.362 254.248 128.522ZM215.931 127.881C216.013 128.121 216.176 128.362 216.34 128.682C216.34 128.682 216.34 128.682 216.34 128.602C216.258 128.201 216.176 127.881 216.095 127.48C216.095 127.64 216.013 127.72 215.931 127.881ZM255.964 127.4C256.291 127.64 256.536 127.881 256.863 128.121C258.66 129.564 261.029 131.408 263.317 134.214C263.48 133.974 263.644 133.813 263.807 133.573C261.52 130.767 259.069 128.843 257.271 127.48C257.026 127.239 256.781 127.079 256.454 126.839C256.373 127.079 256.209 127.239 255.964 127.4ZM242.157 126.197C242.239 126.277 242.239 126.197 242.239 126.037C242.239 126.117 242.239 126.117 242.157 126.197ZM258.415 125.476C258.742 126.037 259.15 126.518 259.559 126.999C260.131 127.56 260.703 128.121 261.438 128.763C262.5 129.805 263.725 130.927 265.033 132.37C265.196 132.13 265.359 131.969 265.523 131.729C264.297 130.366 263.072 129.244 262.01 128.201C261.356 127.56 260.703 126.999 260.212 126.438C259.804 125.957 259.395 125.476 259.069 124.915C258.742 125.155 258.578 125.315 258.415 125.476ZM206.209 122.75C205.882 123.231 205.637 123.712 205.556 124.033C205.801 123.472 206.127 123.071 206.454 122.59C206.373 122.67 206.291 122.75 206.209 122.75ZM244.363 122.269V122.349V122.269ZM261.846 121.868C261.683 122.029 261.601 122.189 261.438 122.349C261.928 124.113 262.663 125.716 263.807 126.999C264.461 127.72 265.114 128.522 265.85 129.324C266.095 129.644 266.422 129.885 266.667 130.206C266.83 129.965 266.993 129.805 267.157 129.564C266.912 129.324 266.667 129.003 266.422 128.763C265.686 127.961 265.033 127.159 264.379 126.438C263.235 125.075 262.418 123.391 262.091 121.548C261.928 121.708 261.928 121.788 261.846 121.868ZM208.088 122.67C208.415 122.109 208.742 121.708 209.069 121.307C209.069 121.227 209.15 121.067 209.15 120.906C208.497 121.788 208.17 122.429 208.088 122.67ZM239.624 124.915C238.399 126.999 237.5 128.682 236.846 130.286C235.866 132.691 235.294 135.176 234.886 137.26C234.477 139.104 234.15 140.788 233.578 142.151C233.497 142.391 233.415 142.551 233.333 142.792C232.598 144.235 231.536 145.598 230.474 146.88L230.065 147.361C228.186 149.526 226.225 151.771 225.654 154.817C225.408 156.02 225.408 157.382 225.572 158.825C225.572 159.146 225.735 159.627 225.899 160.188C225.98 160.268 226.062 160.429 226.144 160.589C226.144 160.669 226.144 160.669 226.144 160.749C226.144 160.83 226.144 160.91 226.225 160.99C226.389 161.311 226.471 161.631 226.634 162.032L226.716 162.192C227.533 164.036 228.513 166.361 229.085 168.606C229.33 169.007 229.412 169.327 229.33 169.568C229.412 170.129 229.493 170.69 229.575 171.171C229.575 171.251 229.575 171.251 229.575 171.331C229.82 171.492 230.065 171.652 230.31 171.812C230.31 171.812 230.31 171.893 230.392 171.893C230.392 171.652 230.392 171.412 230.392 171.091C230.147 168.045 228.595 164.517 227.533 161.872L227.451 161.711C226.879 160.429 226.552 159.306 226.471 158.745C226.307 157.382 226.307 156.1 226.552 154.977C227.124 152.171 228.922 150.007 230.719 147.842L231.127 147.361C232.19 146.079 233.333 144.716 234.069 143.113C234.15 142.872 234.232 142.632 234.395 142.471C234.967 141.108 235.294 139.345 235.703 137.501C236.193 135.417 236.683 133.011 237.663 130.606C238.317 129.083 239.134 127.4 240.359 125.315C241.013 124.193 241.83 122.91 242.729 121.628C242.729 121.467 242.729 121.307 242.647 121.067C242.729 121.227 242.81 121.307 242.81 121.387C242.974 121.147 243.137 120.986 243.219 120.746C243.137 120.425 243.137 120.105 242.974 119.704C241.667 121.548 240.523 123.311 239.624 124.915ZM243.219 119.463C243.382 119.784 243.464 120.024 243.627 120.265C243.791 120.024 243.954 119.864 244.118 119.624C244.118 119.223 244.036 118.902 244.036 118.501C243.709 118.822 243.464 119.143 243.219 119.463ZM264.788 118.742C265.196 121.788 266.258 124.834 267.892 127.079C268.056 127.32 268.219 127.56 268.464 127.801C268.627 127.56 268.791 127.4 268.954 127.159C268.791 126.999 268.709 126.839 268.546 126.598C266.83 124.273 265.768 121.147 265.441 118.02C265.278 118.341 265.033 118.581 264.788 118.742ZM244.281 118.1C244.444 118.421 244.526 118.742 244.608 118.982L244.69 118.902C244.608 118.581 244.608 118.181 244.526 117.86C244.363 117.94 244.363 118.02 244.281 118.1ZM208.007 120.505C207.843 120.666 207.68 120.906 207.516 121.067C207.516 121.147 207.598 121.227 207.598 121.307C208.007 120.906 208.415 120.586 208.742 120.265C208.987 120.024 209.232 119.864 209.477 119.704C209.804 118.822 210.131 117.86 210.539 116.898C209.559 118.501 208.66 119.864 208.007 120.505ZM245.098 117.138C245.261 117.379 245.343 117.7 245.425 117.94L245.507 117.86C245.425 117.539 245.425 117.138 245.343 116.818C245.261 116.898 245.18 116.978 245.098 117.138ZM237.173 123.712C236.846 124.273 236.52 124.754 236.193 125.235L236.111 125.396C235.049 127.079 233.987 128.682 233.17 130.366C232.108 132.691 231.781 135.096 231.454 137.26V137.421C231.127 139.425 230.882 140.948 230.392 142.231C230.31 142.391 230.229 142.632 230.147 142.792C229.493 144.155 228.35 145.518 227.206 146.72L226.879 147.121C225.163 149.045 223.366 151.049 222.631 153.454C222.631 153.534 222.712 153.614 222.712 153.695C222.712 153.775 222.794 153.855 222.794 153.935C222.794 153.935 222.958 154.256 223.121 154.737V154.657C223.693 151.931 225.572 149.766 227.451 147.682L227.859 147.281C229.003 145.999 230.147 144.636 230.882 143.193C230.964 142.952 231.127 142.712 231.209 142.551C231.699 141.269 232.026 139.665 232.271 137.581V137.421C232.598 135.336 232.925 132.931 233.987 130.767C234.722 129.163 235.784 127.56 236.846 125.957L236.928 125.796C237.255 125.315 237.582 124.834 237.908 124.273C239.297 122.029 241.176 119.143 243.464 116.497C243.382 116.257 243.301 115.936 243.219 115.615C240.605 118.261 238.725 121.307 237.173 123.712ZM243.219 115.455C243.301 115.776 243.464 116.016 243.546 116.257C243.709 116.096 243.873 115.936 244.036 115.695C243.954 115.455 243.873 115.134 243.791 114.814C243.546 115.054 243.382 115.295 243.219 115.455ZM267.892 115.455C268.382 118.662 269.363 121.948 270.752 124.754C270.915 124.514 271.078 124.273 271.324 124.033C270.016 121.147 269.036 117.78 268.627 114.573C268.382 114.894 268.137 115.134 267.892 115.455ZM243.791 114.894C243.954 115.134 244.118 115.375 244.199 115.535C244.444 115.214 244.771 114.974 245.016 114.653C244.935 114.333 244.853 114.092 244.771 113.771C244.444 114.172 244.118 114.493 243.791 114.894ZM270.67 111.527C270.507 111.767 270.343 112.088 270.18 112.409C270.261 112.569 270.261 112.649 270.343 112.809C271.242 115.615 272.304 118.501 273.448 121.147C273.611 120.826 273.856 120.586 273.938 120.345C272.876 117.86 271.895 115.134 271.078 112.489C270.915 112.168 270.833 111.847 270.67 111.527ZM242.075 112.97C238.807 115.936 236.438 119.864 234.641 122.75C233.987 123.872 233.333 124.834 232.843 125.556C232.598 125.877 232.435 126.117 232.19 126.438C231.209 127.801 230.229 129.083 229.575 130.446C229.085 131.408 228.758 132.37 228.595 133.332C228.758 133.412 228.922 133.573 229.003 133.733C228.922 133.733 228.676 133.733 228.513 133.733C228.268 134.936 228.186 136.138 228.105 137.26V137.421C227.941 139.425 227.778 140.948 227.288 142.151C227.206 142.311 227.124 142.551 227.042 142.712C226.389 143.994 225.245 145.197 224.02 146.48L223.693 146.8C222.631 147.923 221.569 149.125 220.67 150.328C220.752 150.568 220.915 150.809 221.078 151.049C221.977 149.686 223.121 148.484 224.265 147.281L224.592 146.961C225.817 145.678 226.961 144.315 227.696 143.032C227.778 142.792 227.941 142.551 228.023 142.391C228.513 141.108 228.676 139.505 228.922 137.421V137.26C229.085 135.016 229.33 132.771 230.31 130.687C230.964 129.404 231.863 128.121 232.843 126.758C233.088 126.438 233.252 126.197 233.497 125.877C234.069 125.155 234.641 124.193 235.294 123.071C237.01 120.265 239.379 116.417 242.565 113.451C243.056 113.05 243.546 112.569 244.199 112.008C244.118 111.767 243.954 111.527 243.873 111.286C243.219 112.008 242.565 112.569 242.075 112.97ZM212.091 111.126C212.255 110.965 212.337 110.805 212.5 110.725C212.337 110.885 212.255 111.046 212.091 111.126ZM212.5 110.725C212.582 110.645 212.663 110.565 212.663 110.484C212.663 110.565 212.582 110.645 212.5 110.725ZM212.663 110.565C212.745 110.484 212.745 110.404 212.827 110.404C212.827 110.404 212.745 110.484 212.663 110.565ZM208.578 118.742C209.967 116.257 210.866 115.214 211.683 114.413C212.337 112.97 213.072 111.527 213.889 110.164C211.846 112.409 210.131 114.974 208.578 118.742ZM241.422 110.565C240.441 111.206 239.379 112.088 238.235 113.21C235.458 116.016 233.252 119.704 231.699 122.429C230.882 123.872 230.147 125.075 229.575 125.796C229.33 126.117 229.003 126.438 228.758 126.758C227.778 127.961 226.797 129.163 226.062 130.366C225.654 131.087 225.408 131.889 225.163 132.611C225.327 132.691 225.49 132.691 225.654 132.771C225.735 132.771 225.817 132.851 225.98 132.851C226.144 132.13 226.389 131.408 226.797 130.767C227.451 129.564 228.431 128.442 229.412 127.239C229.657 126.919 229.984 126.598 230.229 126.277C230.882 125.476 231.618 124.273 232.435 122.83C234.069 120.024 236.111 116.497 238.889 113.771C239.951 112.729 241.013 111.847 241.912 111.206C242.32 110.885 242.729 110.645 243.137 110.324C242.974 110.084 242.81 109.923 242.647 109.763C242.157 110.084 241.83 110.324 241.422 110.565ZM271.569 110.404C272.876 112.729 274.346 115.295 275.735 118.02C275.899 117.86 276.144 117.7 276.307 117.539C274.837 114.814 273.366 112.168 272.059 109.843C271.895 110.003 271.732 110.164 271.569 110.404ZM243.546 109.041C243.791 109.122 244.118 109.202 244.444 109.362C244.118 109.202 243.873 109.041 243.546 109.041C243.546 109.041 243.546 108.961 243.546 109.041ZM244.118 108.48C244.199 108.48 244.199 108.48 244.281 108.48C244.281 108.56 244.281 108.56 244.118 108.48ZM240.768 108.4C239.788 109.282 238.725 110.084 237.5 110.805C236.438 111.446 235.458 112.328 234.395 113.451C231.944 116.016 230.065 119.463 228.595 122.189C227.614 123.953 226.797 125.476 226.225 126.117C224.51 127.72 223.284 129.163 222.467 130.446C222.141 130.927 221.977 131.408 221.814 131.889C222.059 131.969 222.304 132.13 222.549 132.21C222.631 132.049 222.631 131.889 222.712 131.649C222.631 131.568 222.467 131.408 222.304 131.248C222.467 131.328 222.631 131.408 222.712 131.488C222.794 131.248 222.958 131.007 223.121 130.767C223.938 129.484 225.082 128.121 226.716 126.518C227.451 125.796 228.268 124.353 229.248 122.429C230.719 119.704 232.516 116.337 234.886 113.852C235.948 112.729 236.928 111.927 237.827 111.366C239.134 110.565 240.278 109.683 241.258 108.801C240.931 108.641 240.768 108.801 240.768 108.801C240.768 108.801 240.931 108.56 241.503 108.56C241.585 108.48 241.667 108.4 241.748 108.32C241.503 108.32 241.258 108.24 241.013 108.24C241.013 108.4 240.931 108.4 240.768 108.4ZM213.072 110.084C213.072 110.164 213.072 110.164 213.072 110.084C213.399 109.763 213.889 109.442 214.706 108.881C214.869 108.641 214.951 108.48 215.114 108.24C214.379 108.801 213.725 109.442 213.072 110.084ZM240.931 108.24C241.422 108.16 241.83 108.079 242.157 108.079C242.239 107.999 242.239 107.919 242.32 107.919C241.993 107.839 241.667 107.839 241.34 107.759C241.258 107.999 241.095 108.16 240.931 108.24ZM273.529 108.32C274.755 109.923 275.98 111.767 277.206 114.012C277.451 114.493 277.778 115.054 278.023 115.535C278.186 115.375 278.35 115.134 278.595 114.894C278.35 114.493 278.186 114.092 277.941 113.691C276.716 111.366 275.408 109.442 274.183 107.839C273.856 107.999 273.693 108.16 273.529 108.32ZM238.725 106.957C237.418 108.48 235.703 109.923 233.66 111.046C229.739 113.29 227.042 118.742 225 122.67C224.101 124.434 223.366 125.877 222.876 126.358C221.405 127.64 219.935 129.003 218.873 130.446C219.118 130.606 219.281 130.687 219.526 130.847C220.507 129.484 221.977 128.201 223.366 126.919C223.938 126.358 224.673 124.995 225.654 122.991C227.533 119.303 230.31 113.771 233.987 111.687C236.029 110.565 237.663 109.202 238.971 107.679C238.48 107.598 238.399 107.198 239.542 106.957C239.624 106.877 239.706 106.797 239.788 106.636C239.461 106.877 239.052 106.877 238.725 106.957ZM243.137 105.835H243.219C243.219 105.835 243.219 105.835 243.137 105.835ZM275.817 106.236C276.961 107.518 278.186 109.041 279.167 111.046C279.493 111.687 279.82 112.248 280.147 112.89C280.31 112.649 280.474 112.489 280.719 112.248C280.474 111.767 280.147 111.206 279.902 110.725C278.84 108.641 277.614 107.037 276.389 105.755C276.144 105.835 275.98 105.995 275.817 106.236ZM240.686 105.514C240.359 105.514 240.114 105.514 239.788 105.594C239.706 105.755 239.624 105.915 239.542 105.995C239.869 105.915 240.196 105.755 240.605 105.755C240.605 105.674 240.686 105.594 240.686 105.514ZM219.363 105.915C215.768 110.003 212.663 116.497 211.029 121.147C211.029 121.628 211.193 122.029 211.356 122.59C211.52 122.189 211.601 121.708 211.765 121.227C211.765 121.147 211.846 121.067 211.846 120.986C213.725 115.776 217.157 109.041 220.833 105.354C220.425 105.594 219.935 105.755 219.363 105.915ZM224.428 104.953C223.611 105.514 222.876 106.155 222.141 106.957C218.219 111.206 215.033 118.341 213.399 122.429C213.399 122.51 213.399 122.59 213.317 122.67C213.154 123.552 212.827 124.754 212.827 126.037C212.908 125.877 212.908 125.716 212.99 125.556C213.072 125.235 213.235 124.834 213.399 124.514C213.48 124.273 213.644 123.953 213.725 123.632C215.441 119.062 220.098 108.079 225.572 105.113C225.654 105.033 225.735 105.033 225.899 104.953C225.654 104.953 225.327 104.953 224.918 104.953C224.755 104.953 224.591 104.953 224.428 104.953ZM236.601 105.354C235.458 106.717 233.824 108.16 231.454 109.442C227.369 111.687 224.428 117.619 222.304 121.948C221.487 123.552 220.752 124.995 220.261 125.636C220.016 125.877 219.853 126.197 219.608 126.438C219.444 126.598 219.281 126.839 219.118 126.999C218.546 127.64 217.974 128.362 217.484 129.083C217.565 129.244 217.729 129.404 217.81 129.564C217.892 129.644 217.892 129.725 217.974 129.725C218.546 128.923 219.118 128.201 219.69 127.48C219.853 127.32 220.016 127.079 220.18 126.919C220.425 126.678 220.67 126.358 220.915 126.117C221.487 125.396 222.141 124.033 223.039 122.269C225 118.261 228.023 112.248 231.863 110.084C234.804 108.48 236.683 106.636 237.908 104.873C237.5 105.033 237.091 105.193 236.601 105.354ZM240.359 104.552C240.278 104.632 240.278 104.793 240.196 104.873C240.523 104.793 240.85 104.712 241.176 104.632C241.176 104.552 241.258 104.552 241.258 104.472C240.931 104.472 240.686 104.472 240.359 104.552ZM233.17 105.113C233.17 105.274 233.17 105.434 233.17 105.674C233.088 105.514 233.088 105.434 233.007 105.274C231.944 106.236 230.719 107.037 229.412 107.839C225.082 110.244 221.732 117.138 219.526 121.708C218.873 123.071 218.301 124.193 217.892 124.995C217.729 125.315 217.484 125.556 217.32 125.877C217.157 126.117 216.993 126.358 216.83 126.518C216.748 126.598 216.748 126.678 216.667 126.758C216.748 127.159 216.83 127.56 216.912 127.801C217.075 127.48 217.32 127.159 217.484 126.839C217.647 126.598 217.729 126.438 217.892 126.197C218.137 125.877 218.301 125.636 218.464 125.235C218.954 124.434 219.526 123.231 220.18 121.868C222.304 117.379 225.572 110.645 229.739 108.32C231.536 107.278 233.17 106.155 234.395 104.793C234.15 104.953 233.905 105.193 233.66 105.354C233.578 105.193 233.66 104.632 233.905 104.071C233.742 104.552 233.497 104.873 233.17 105.113ZM225.163 104.472C225.082 104.552 225 104.552 224.918 104.632C225.49 104.632 225.899 104.712 226.144 104.793C226.389 104.632 226.552 104.552 226.797 104.392C226.389 104.312 225.98 104.231 225.572 104.231C225.408 104.312 225.327 104.392 225.163 104.472ZM237.663 103.991C237.5 104.312 237.255 104.552 237.01 104.873C237.582 104.472 237.908 104.312 238.48 104.071C238.48 103.991 238.562 103.911 238.562 103.911C238.317 103.911 237.99 103.911 237.663 103.991ZM226.634 103.59C226.389 103.75 226.225 103.831 225.98 103.991C226.307 103.991 226.716 104.071 227.124 104.231C227.369 104.071 227.614 103.911 227.859 103.75C227.696 103.67 227.451 103.67 227.206 103.67C227.042 103.59 226.879 103.59 226.634 103.59C226.634 103.59 226.716 103.59 226.634 103.59ZM278.186 103.991C279.248 105.033 280.229 106.396 281.127 108.16C281.536 108.881 281.863 109.603 282.271 110.324C282.435 110.084 282.598 109.843 282.761 109.683C282.435 109.122 282.108 108.48 281.781 107.839C280.882 105.995 279.82 104.632 278.676 103.51C278.595 103.59 278.431 103.831 278.186 103.991ZM234.804 103.43C234.804 103.43 234.886 103.35 234.804 103.43C234.886 103.35 234.804 103.35 234.804 103.43ZM234.886 103.35C234.967 103.269 235.049 103.269 235.131 103.189C235.049 103.269 234.967 103.269 234.886 103.35ZM228.268 102.468C228.35 102.788 228.35 103.029 228.431 103.269C228.595 103.109 228.84 102.949 229.003 102.869C228.84 102.628 228.758 102.388 228.595 102.147C228.513 102.307 228.35 102.388 228.268 102.468ZM235.621 102.307C235.948 102.227 236.275 102.227 236.601 102.227L236.683 102.147C236.356 102.067 236.111 102.067 235.784 102.067C235.784 102.067 235.703 102.147 235.621 102.307ZM229.248 101.666C229.248 101.987 229.33 102.307 229.33 102.628C229.493 102.548 229.575 102.388 229.739 102.227C229.657 101.987 229.657 101.666 229.575 101.345C229.412 101.426 229.33 101.586 229.248 101.666ZM280.637 101.586C281.536 102.468 282.353 103.67 283.17 105.193C283.578 105.995 283.987 106.797 284.395 107.518C284.559 107.278 284.722 107.037 284.886 106.797C284.559 106.155 284.232 105.514 283.824 104.873C283.007 103.269 282.108 102.067 281.209 101.105C281.046 101.185 280.801 101.426 280.637 101.586ZM233.007 101.426C232.516 102.067 231.863 102.788 231.209 103.35C231.209 103.43 231.127 103.43 231.127 103.51C231.127 103.51 231.127 103.51 231.127 103.43C230.065 104.392 228.758 105.354 227.288 106.155C222.386 108.881 218.546 117.299 216.258 122.429C215.931 123.071 215.686 123.712 215.441 124.193C215.278 124.514 215.114 124.834 214.951 125.075C214.788 125.396 214.624 125.636 214.542 125.877C214.379 126.197 214.297 126.438 214.134 126.758C214.134 126.839 214.134 126.839 214.134 126.919C214.216 127.239 214.297 127.56 214.379 127.881C214.461 127.72 214.542 127.56 214.624 127.32C214.788 126.919 214.951 126.598 215.196 126.197C215.196 125.877 215.278 125.476 215.278 125.155C215.278 125.396 215.359 125.636 215.359 125.796C215.441 125.636 215.523 125.556 215.605 125.396C215.768 125.075 215.931 124.754 216.095 124.434C216.34 123.953 216.585 123.311 216.912 122.67C219.199 117.7 222.958 109.362 227.614 106.797C229.412 105.835 230.882 104.712 232.19 103.43C232.19 102.628 232.925 101.987 233.905 101.426C234.069 101.185 234.232 100.945 234.395 100.704C233.905 100.945 233.415 101.185 233.007 101.426ZM236.683 100.303C236.765 100.303 236.765 100.303 236.846 100.303C236.846 100.223 236.765 100.223 236.683 100.303ZM228.186 100.063C228.186 99.9024 228.186 99.7421 228.186 99.5817C228.186 99.7421 228.186 99.9024 228.186 100.063ZM283.088 99.1007C283.824 99.9826 284.559 100.945 285.131 102.147C285.539 102.949 285.948 103.75 286.356 104.472C286.52 104.231 286.683 103.991 286.846 103.75C286.52 103.109 286.193 102.468 285.866 101.826C285.212 100.544 284.477 99.4214 283.66 98.5396C283.415 98.7801 283.252 98.9404 283.088 99.1007ZM285.458 96.6155C286.111 97.337 286.601 98.2189 287.173 99.2611C287.582 100.063 287.99 100.784 288.399 101.586C288.562 101.345 288.725 101.105 288.889 100.864C288.562 100.223 288.235 99.6619 287.908 98.9404C287.337 97.8181 286.765 96.9362 286.029 96.1345C285.784 96.2949 285.621 96.4552 285.458 96.6155ZM287.418 94.5312C288.235 95.3329 289.052 96.2949 289.706 97.4172C289.951 97.7379 290.114 98.1387 290.359 98.4594C290.523 98.2189 290.686 97.9784 290.85 97.7379C290.686 97.4974 290.523 97.2569 290.359 97.0164C289.624 95.8139 288.807 94.7717 287.908 93.97C287.745 94.2105 287.582 94.3709 287.418 94.5312ZM289.297 92.4468C290.278 93.2485 291.34 94.2907 292.32 95.6535C292.32 95.6535 292.32 95.7337 292.402 95.7337C292.565 95.4932 292.729 95.3329 292.892 95.0924C291.83 93.7295 290.768 92.6072 289.788 91.8055C289.624 92.046 289.461 92.2865 289.297 92.4468ZM290.85 90.2022C292.075 91.0038 293.219 91.9658 294.526 93.3287C294.69 93.0882 294.853 92.9278 295.016 92.7675C293.709 91.4047 292.484 90.2823 291.258 89.4807C291.095 89.7212 291.013 89.9617 290.85 90.2022ZM291.748 87.6368C293.219 88.3583 294.853 89.4005 296.487 90.9237C296.65 90.6832 296.814 90.5228 296.977 90.2823C295.343 88.7591 293.627 87.6368 291.912 86.8351C291.912 87.1558 291.83 87.3963 291.748 87.6368ZM292.239 85.1516C294.118 85.793 295.997 86.755 298.039 88.3583C298.121 88.1178 298.203 87.8773 298.284 87.5566C296.16 85.9533 294.199 84.9913 292.32 84.3499C292.32 84.5904 292.239 84.9111 292.239 85.1516ZM292.484 82.5863C292.484 82.6664 292.484 82.7466 292.484 82.8268C294.363 83.2276 296.324 83.9491 298.529 85.2318C298.529 84.9111 298.529 84.5904 298.529 84.3499C296.405 83.1474 294.363 82.4259 292.565 82.0251C292.484 82.2656 292.484 82.4259 292.484 82.5863ZM292.729 80.5821V80.6623C294.526 80.8226 296.487 81.3036 298.529 82.1854C298.529 81.9449 298.529 81.6243 298.611 81.3838C296.569 80.5019 294.69 80.1011 292.892 79.8606C292.892 80.1812 292.81 80.4217 292.729 80.5821ZM293.056 79.1391C294.771 79.2192 296.405 79.4597 297.958 79.9407L298.529 80.1011C298.611 80.1011 298.693 80.1011 298.693 80.1812C298.693 79.8606 298.775 79.6201 298.775 79.4597C298.775 79.4597 298.775 79.4597 298.775 79.3796L298.203 79.2192C296.569 78.7382 294.853 78.4176 293.137 78.3374C293.056 78.6581 293.056 78.8986 293.056 79.1391ZM293.219 76.7341C293.137 76.9746 293.137 77.2151 293.137 77.5357C295.016 77.5357 296.732 77.6961 298.121 78.0167C298.529 78.0969 298.856 78.1771 299.265 78.2572C299.346 78.0167 299.51 77.7762 299.591 77.5357C299.265 77.4556 298.938 77.3754 298.611 77.2952C298.366 77.7762 298.121 77.9366 298.203 77.5357C298.203 77.4556 298.203 77.3754 298.284 77.2151C296.977 76.8944 295.425 76.7341 293.627 76.7341C293.382 76.7341 293.301 76.7341 293.219 76.7341ZM299.02 76.1729C299.346 76.253 299.673 76.253 299.918 76.253C300 75.9324 300 75.6919 300 75.4514C299.755 75.4514 299.591 75.3712 299.346 75.3712C299.265 75.6919 299.183 75.9324 299.02 76.1729ZM295.997 75.8522C296.895 75.8522 297.631 75.9324 298.203 76.0927C298.284 76.0927 298.366 76.0927 298.448 76.1729C298.529 75.9324 298.611 75.6919 298.693 75.4514C298.611 75.4514 298.448 75.3712 298.366 75.3712C297.794 75.291 297.141 75.2109 296.324 75.1307C296.242 75.291 296.078 75.6117 295.997 75.8522ZM293.791 75.0505C293.627 75.3712 293.546 75.6117 293.464 75.8522C294.118 75.8522 294.771 75.8522 295.425 75.8522C295.425 75.6117 295.507 75.291 295.588 75.0505C295.343 75.0505 295.098 75.0505 294.853 75.0505C294.444 75.0505 294.118 75.0505 293.791 75.0505ZM296.977 73.367C296.895 73.5274 296.814 73.7679 296.814 73.9282C297.467 73.9282 298.039 73.9282 298.366 74.0084C298.693 74.0885 299.02 74.0885 299.265 74.0885C299.346 73.848 299.428 73.6075 299.51 73.367C299.183 73.367 298.774 73.2869 298.448 73.2869C298.121 73.2067 297.631 73.2067 297.059 73.2067C296.977 73.2869 296.977 73.2869 296.977 73.367ZM294.608 73.2067C294.444 73.4472 294.363 73.7679 294.199 74.0084C294.771 74.0084 295.343 73.9282 295.833 73.9282C295.915 73.6877 295.997 73.4472 296.078 73.1265C295.67 73.2067 295.18 73.2067 294.608 73.2067ZM298.938 72.0843C299.101 72.0843 299.265 72.0843 299.346 72.0843C299.265 71.924 299.183 71.8438 299.183 71.8438C299.101 71.924 299.02 72.0042 298.938 72.0843ZM295.507 71.3628C295.425 71.6033 295.261 71.8438 295.098 72.1645C295.588 72.1645 296.078 72.0843 296.487 72.0843C296.569 71.7637 296.65 71.5232 296.569 71.3628C296.324 71.3628 295.915 71.3628 295.507 71.3628ZM297.631 71.2827C297.549 71.5232 297.467 71.7637 297.386 72.0843C297.876 72.0843 298.203 72.0843 298.448 72.0843C298.611 72.0843 298.775 72.0843 298.938 72.0843C299.02 72.0042 299.02 71.7637 299.02 71.2827C298.856 71.2827 298.693 71.2827 298.448 71.2827C298.284 71.2827 298.039 71.2827 297.712 71.2827H297.631ZM298.039 70.1603H298.121C298.366 70.1603 298.529 70.1603 298.611 70.1603C298.529 70 298.448 70 298.366 70C298.203 70 298.121 70.0802 298.039 70.1603Z" fill="white"/>
<path d="M194.608 291.743C195.016 292.865 195.752 294.308 196.65 295.671C196.569 295.43 196.405 295.27 196.324 295.03C195.752 293.747 195.098 292.544 194.526 291.422C194.526 291.582 194.608 291.663 194.608 291.743ZM195.343 288.135C196.079 289.578 196.814 291.021 197.631 292.625C199.346 296.232 201.471 298.557 203.595 300C203.758 299.92 203.922 299.759 204.085 299.599L204.167 299.519C202.124 298.076 200.082 295.911 198.366 292.304C197.549 290.54 196.732 288.937 195.915 287.334C195.67 287.574 195.507 287.815 195.343 288.135ZM197.304 285.169C198.039 286.692 198.856 288.215 199.592 289.819C201.226 293.186 203.023 295.751 204.739 297.675C204.657 297.354 204.575 297.034 204.494 296.553C204.494 296.392 204.412 296.232 204.33 296.072C202.941 294.308 201.552 292.224 200.245 289.498C199.428 287.734 198.529 286.051 197.712 284.448C197.631 284.688 197.467 284.929 197.304 285.169ZM199.101 281.882C200.735 285.329 202.451 288.857 204.085 291.903C204.167 291.663 204.33 291.422 204.494 291.101C202.86 287.895 201.062 284.367 199.428 280.84C199.346 281.241 199.265 281.562 199.101 281.882ZM190.686 279.397C190.931 279.798 191.095 280.199 191.34 280.68C191.585 280.6 191.748 280.439 191.994 280.359C191.748 279.958 191.585 279.557 191.34 279.076C191.177 279.237 190.931 279.317 190.686 279.397ZM193.628 277.874C193.873 278.355 194.036 278.756 194.281 279.237C194.526 279.157 194.771 278.996 194.935 278.916C194.69 278.435 194.445 277.954 194.281 277.473C194.118 277.633 193.873 277.713 193.628 277.874ZM196.405 275.95C196.65 276.591 196.977 277.152 197.222 277.794C197.467 277.633 197.712 277.553 197.876 277.473H197.958C197.631 276.751 197.304 276.11 197.059 275.389C196.814 275.629 196.569 275.789 196.405 275.95ZM198.938 273.465C199.346 274.266 199.755 275.068 200.163 275.87L200.817 277.232C202.614 280.76 204.33 285.169 205.556 289.498C205.719 289.258 205.882 289.017 206.128 288.696C204.82 284.448 203.186 280.199 201.471 276.832L200.817 275.469C200.327 274.587 199.918 273.705 199.51 272.823C199.346 273.064 199.101 273.304 198.938 273.465ZM201.307 271.46C201.879 272.503 202.533 273.545 203.186 274.667C203.758 275.549 204.33 276.511 204.82 277.473C206.291 279.958 207.353 283.085 208.007 286.291C208.252 286.051 208.415 285.81 208.66 285.49C208.007 282.443 206.945 279.477 205.556 277.072C204.984 276.11 204.412 275.148 203.922 274.266C203.268 273.144 202.614 272.102 202.043 271.06C201.797 271.22 201.552 271.3 201.307 271.46ZM210.621 271.22C212.173 273.384 213.889 275.068 215.278 276.511C215.686 276.912 216.095 277.313 216.422 277.633C216.585 277.473 216.83 277.313 216.994 277.152C216.667 276.751 216.258 276.351 215.85 275.95C214.461 274.587 212.827 272.903 211.275 270.819C211.029 270.979 210.866 271.06 210.621 271.22ZM211.111 275.709C211.765 276.511 212.418 277.232 212.99 277.954C213.399 278.515 213.807 279.157 214.134 279.798C214.297 279.638 214.543 279.477 214.706 279.237C214.379 278.595 214.052 278.034 213.644 277.473C213.072 276.751 212.418 275.95 211.765 275.148C210.703 273.865 209.559 272.503 208.497 270.979C208.252 270.819 207.925 270.819 207.435 270.739C208.579 272.663 209.886 274.266 211.111 275.709ZM204.085 270.579C205.065 272.102 206.046 273.545 207.108 274.988C207.762 275.95 208.415 276.832 208.987 277.713C209.967 279.157 210.703 280.92 211.111 282.764C211.275 282.524 211.52 282.363 211.683 282.123C211.193 280.359 210.458 278.756 209.559 277.313C208.987 276.431 208.333 275.549 207.68 274.587C206.781 273.304 205.801 271.941 204.984 270.579C204.82 270.579 204.739 270.579 204.575 270.579C204.412 270.579 204.248 270.579 204.085 270.579ZM212.745 269.937C214.624 272.663 216.585 274.587 218.301 276.03C218.464 275.87 218.709 275.709 218.873 275.549C217.239 274.106 215.196 272.182 213.399 269.536C213.154 269.697 212.909 269.857 212.745 269.937ZM215.523 267.773C217.075 270.579 218.709 272.743 220.18 274.507C220.343 274.346 220.588 274.186 220.752 274.026C219.281 272.262 217.647 270.017 216.095 267.212C215.931 267.452 215.686 267.612 215.523 267.773ZM218.219 264.967C219.608 268.013 221.079 270.579 222.222 272.663C222.222 272.743 222.304 272.743 222.304 272.823C222.386 272.743 222.549 272.663 222.631 272.583C222.712 272.503 222.794 272.422 222.876 272.422C222.876 272.422 222.876 272.342 222.794 272.342C221.569 270.178 220.098 267.612 218.628 264.406C218.546 264.566 218.382 264.807 218.219 264.967ZM180.147 262.001C180.065 262.081 179.902 262.161 179.82 262.161C179.33 263.524 178.758 264.967 178.431 266.57C178.513 267.212 178.677 267.933 178.758 268.735C179.167 266.089 180.065 263.684 180.882 261.52C180.637 261.76 180.311 261.921 180.147 262.001ZM220.915 261.84C220.997 262.161 221.16 262.402 221.242 262.722C221.814 264.005 222.304 265.288 222.794 266.41C223.529 268.093 224.183 269.697 224.755 271.14C225 270.979 225.163 270.899 225.409 270.739C224.837 269.296 224.183 267.773 223.448 266.089C222.958 264.887 222.386 263.684 221.895 262.402C221.732 262.001 221.569 261.52 221.405 261.119C221.324 261.359 221.16 261.6 220.915 261.84ZM182.598 260.397V260.478C181.454 264.005 180.229 267.612 180.801 272.022C181.046 273.865 181.454 275.469 182.026 277.072C182.353 277.232 182.598 277.313 182.925 277.393C182.271 275.709 181.781 273.946 181.536 272.022C180.964 267.693 182.19 264.165 183.333 260.798C183.497 260.397 183.579 260.077 183.742 259.676C183.333 259.916 182.925 260.157 182.598 260.397ZM223.693 258.554C224.02 259.275 224.346 259.997 224.592 260.718C224.755 261.119 224.918 261.52 225.082 261.84C226.307 264.807 227.206 267.292 227.778 269.617C228.023 269.456 228.268 269.376 228.431 269.216C227.86 266.971 226.961 264.486 225.817 261.6C225.654 261.199 225.49 260.798 225.327 260.478C225.082 259.756 224.755 259.035 224.428 258.313C224.346 258.153 224.346 257.992 224.265 257.912C224.02 258.072 223.856 258.313 223.693 258.554ZM186.356 257.351C186.111 257.591 185.784 257.832 185.539 258.073C185.376 258.634 185.212 259.275 184.967 259.916C183.987 263.123 182.925 266.49 183.579 270.498C183.905 272.583 184.559 274.507 185.294 276.431C185.458 276.19 185.539 275.789 185.703 275.389C185.049 273.785 184.641 272.182 184.314 270.418C183.66 266.57 184.641 263.364 185.621 260.157C185.948 259.195 186.193 258.153 186.438 257.191C186.438 257.191 186.356 257.271 186.356 257.351ZM176.716 254.625C176.307 254.705 176.226 255.026 176.471 255.186C176.634 254.946 176.797 254.786 177.043 254.545C176.879 254.625 176.797 254.625 176.716 254.625ZM177.533 254.465C177.288 254.786 177.043 255.106 176.879 255.427C177.043 255.427 177.206 255.427 177.369 255.427C177.451 255.427 177.614 255.347 177.86 255.347C177.941 255.186 178.105 255.026 178.186 254.866C178.35 254.625 178.513 254.465 178.677 254.224C178.268 254.305 177.941 254.385 177.533 254.465ZM179.248 254.064C179.003 254.465 178.758 254.866 178.513 255.186C178.84 255.186 179.167 255.106 179.494 255.026C179.739 254.625 180.065 254.144 180.311 253.743C179.984 253.904 179.575 253.984 179.248 254.064ZM180.964 253.663C180.719 254.144 180.474 254.545 180.229 255.026C180.556 255.026 180.882 254.946 181.128 254.866C181.454 254.385 181.699 253.824 181.945 253.343C181.618 253.503 181.291 253.583 180.964 253.663ZM182.68 253.182C182.435 253.743 182.19 254.305 181.945 254.786C182.271 254.705 182.516 254.705 182.843 254.625C183.17 254.064 183.415 253.423 183.66 252.862C183.333 252.942 183.007 253.022 182.68 253.182ZM183.905 252.781C183.66 253.423 183.415 253.984 183.088 254.625C183.415 254.545 183.66 254.545 183.987 254.465C184.314 253.824 184.559 253.102 184.804 252.461C184.477 252.541 184.232 252.621 183.905 252.781ZM185.294 252.22C185.049 252.862 184.886 253.503 184.641 254.144C184.641 254.224 184.641 254.224 184.559 254.305C184.886 254.224 185.131 254.144 185.458 254.144C185.703 253.343 185.948 252.621 186.193 251.9C185.948 251.98 185.621 252.14 185.294 252.22ZM199.02 253.182C198.938 254.305 198.693 255.347 198.529 256.469C198.203 258.313 197.876 260.157 197.958 262.001C197.958 262.562 198.039 263.123 198.121 263.684C198.366 263.524 198.611 263.444 198.856 263.283C198.775 262.883 198.775 262.402 198.775 261.921C198.693 260.157 199.02 258.393 199.346 256.549C199.51 255.507 199.755 254.385 199.837 253.262C199.918 252.781 199.918 252.381 199.918 251.98C199.592 251.98 199.346 251.9 199.183 251.9C199.101 252.22 199.02 252.701 199.02 253.182ZM201.879 251.739C201.797 252.461 201.716 253.182 201.634 253.984C201.552 254.705 201.471 255.347 201.389 256.068C201.062 258.073 200.817 260.157 200.98 262.241C201.226 262.081 201.471 262.001 201.716 261.84C201.552 259.997 201.879 258.153 202.124 256.148C202.206 255.507 202.288 254.786 202.369 254.064C202.451 253.182 202.533 252.381 202.614 251.579C202.369 251.659 202.124 251.659 201.879 251.739ZM187.092 251.499C187.01 251.659 187.01 251.9 186.928 252.06C186.765 252.621 186.683 253.262 186.52 253.904C186.846 253.824 187.092 253.904 187.255 253.904C187.418 253.343 187.5 252.781 187.663 252.22C187.745 251.819 187.827 251.499 187.909 251.098C187.663 251.178 187.418 251.338 187.092 251.499ZM204.82 251.098C204.657 252.22 204.412 253.423 204.248 254.786L204.167 255.106C203.922 256.95 203.677 258.794 203.677 260.638C203.922 260.478 204.167 260.397 204.412 260.237C204.412 258.554 204.657 256.87 204.902 255.186L204.984 254.866C205.229 253.343 205.392 252.06 205.637 250.777C205.311 250.938 205.065 251.018 204.82 251.098ZM189.134 250.457C188.971 251.819 188.807 253.182 188.48 255.106C188.235 256.389 187.909 257.591 187.5 258.954C186.601 262.001 185.703 265.207 186.52 268.895C186.601 269.296 186.683 269.617 186.765 270.017C186.765 269.937 186.846 269.857 186.846 269.857C186.928 269.777 187.01 269.697 187.092 269.617C187.173 269.536 187.255 269.536 187.418 269.456C187.337 269.216 187.337 268.975 187.255 268.815C186.52 265.288 187.418 262.241 188.235 259.275C188.562 257.992 188.971 256.71 189.216 255.347C189.624 253.262 189.788 251.739 189.869 250.376C189.869 250.296 189.869 250.216 189.869 250.216C189.706 250.136 189.379 250.296 189.134 250.457ZM196.405 252.381C196.324 253.743 195.997 255.186 195.67 256.549C195.343 258.073 195.016 259.596 194.935 261.199C194.853 262.642 194.935 263.925 195.262 265.127C195.507 265.047 195.752 264.887 195.915 264.807C195.67 263.764 195.588 262.562 195.67 261.279C195.752 259.756 196.079 258.233 196.405 256.79C196.732 255.427 197.059 253.984 197.141 252.541C197.222 251.739 197.222 251.098 197.222 250.457C196.977 250.296 196.732 250.136 196.487 249.976C196.487 250.537 196.487 251.419 196.405 252.381ZM208.088 249.976C207.598 251.579 207.19 253.503 206.863 255.587C206.699 256.79 206.536 257.992 206.454 259.355C206.699 259.275 206.945 259.115 207.19 259.035C207.271 257.912 207.435 256.79 207.598 255.748C207.925 253.423 208.497 251.419 208.987 249.735C208.66 249.815 208.333 249.895 208.088 249.976ZM191.422 249.414C191.422 250.537 191.34 251.739 191.177 253.343C191.013 254.866 190.605 256.229 190.196 257.752C189.379 260.718 188.48 263.764 189.461 267.292C189.543 267.532 189.624 267.773 189.706 268.013C189.951 267.933 190.114 267.773 190.36 267.612C190.278 267.452 190.278 267.212 190.196 267.051C189.216 263.764 190.033 260.798 190.85 257.992C191.258 256.549 191.667 255.026 191.83 253.423C192.075 251.659 192.075 250.296 192.075 249.174C191.912 249.254 191.667 249.254 191.422 249.414ZM193.791 251.579C193.709 253.262 193.219 254.866 192.811 256.469C191.994 259.355 191.177 262.402 192.32 265.769C192.402 266.009 192.484 266.25 192.565 266.57C192.811 266.49 192.974 266.33 193.219 266.25C193.137 266.009 193.056 265.769 192.974 265.608C191.912 262.402 192.729 259.676 193.546 256.79C194.036 255.186 194.445 253.503 194.608 251.739C194.69 250.777 194.69 249.976 194.69 249.254C194.445 249.254 194.199 249.174 193.954 249.174C193.873 249.815 193.873 250.617 193.791 251.579ZM211.928 248.372C210.866 250.938 209.477 254.545 209.15 258.233C209.395 258.153 209.641 258.073 209.967 257.992C210.376 254.144 211.928 250.457 212.909 247.971C212.582 248.132 212.255 248.292 211.928 248.372ZM214.951 247.09C214.869 247.41 214.788 247.651 214.624 247.971C213.726 250.537 212.663 253.824 212.5 257.351C212.745 257.271 212.99 257.271 213.235 257.191C213.399 253.904 214.461 250.697 215.278 248.212C215.441 247.651 215.605 247.17 215.768 246.689C215.605 246.849 215.278 246.929 214.951 247.09ZM217.892 245.887C217.729 246.528 217.565 247.25 217.32 248.052C216.585 250.617 215.768 253.743 215.931 257.03C216.177 257.03 216.422 257.03 216.667 257.03C216.503 253.824 217.32 250.857 217.974 248.292C218.219 247.49 218.382 246.689 218.546 245.967C218.546 245.887 218.546 245.807 218.628 245.647C218.464 245.647 218.137 245.807 217.892 245.887ZM220.588 244.845C220.588 244.925 220.588 245.005 220.588 245.085C220.507 245.967 220.262 246.929 220.098 247.891C219.526 250.457 218.954 253.503 219.445 256.79C219.69 256.79 219.935 256.79 220.18 256.79C219.608 253.583 220.262 250.617 220.833 247.971C221.078 246.929 221.242 245.967 221.405 245.085C221.405 244.925 221.487 244.685 221.487 244.524C221.16 244.685 220.915 244.765 220.588 244.845ZM223.284 244.043C223.284 244.204 223.284 244.364 223.284 244.524C223.203 245.566 223.121 246.609 222.876 247.731C222.467 250.457 222.059 253.503 223.039 256.87C223.366 256.87 223.611 256.87 223.856 256.87C222.794 253.503 223.284 250.537 223.693 247.811C223.856 246.689 224.02 245.566 224.101 244.524C224.101 244.284 224.101 244.043 224.101 243.803C223.775 243.883 223.529 243.963 223.284 244.043ZM225.899 243.322C225.899 243.482 225.899 243.723 225.899 243.883C225.98 245.085 225.817 246.208 225.735 247.41C225.49 250.376 225.163 253.824 227.206 257.832C227.696 258.794 228.186 259.836 228.595 261.039C229.575 263.444 230.229 265.769 230.474 268.013C230.719 267.853 230.964 267.773 231.209 267.612C230.882 265.368 230.229 263.123 229.248 260.798C228.758 259.596 228.268 258.554 227.778 257.592C225.817 253.743 226.062 250.617 226.307 247.571C226.389 246.288 226.552 245.166 226.471 243.963C226.471 243.723 226.471 243.482 226.389 243.242C226.471 243.161 226.226 243.242 225.899 243.322ZM228.595 242.761C228.677 243.161 228.677 243.562 228.758 243.963C228.84 245.005 228.84 246.047 228.758 247.17C228.677 250.136 228.595 253.262 230.964 257.11C232.598 259.836 233.578 262.963 233.742 266.25C233.987 266.089 234.232 265.929 234.477 265.769C234.314 264.005 233.987 262.241 233.415 260.638C234.395 262.001 235.458 263.283 236.111 264.726C236.193 264.646 236.275 264.566 236.356 264.566C236.438 264.486 236.601 264.406 236.683 264.326C235.948 262.883 234.886 261.52 233.905 260.157C233.088 259.115 232.271 257.992 231.536 256.87C229.248 253.182 229.33 250.216 229.412 247.33C229.494 245.887 229.494 244.364 229.248 242.841C229.085 242.6 228.84 242.68 228.595 242.761ZM231.291 242.28C231.618 243.723 231.618 245.166 231.618 246.609V246.929C231.618 249.254 231.781 252.06 233.66 255.507C235.376 258.874 236.356 261.279 236.928 264.085C237.173 263.925 237.418 263.764 237.582 263.604C237.01 260.878 236.029 258.473 234.314 255.186C232.762 252.14 232.435 249.735 232.353 246.929V246.609C232.353 245.166 232.353 243.723 232.026 242.199C231.781 242.28 231.536 242.28 231.291 242.28ZM258.007 218.47C257.68 218.63 257.19 218.951 256.536 219.352C255.474 219.913 254.003 220.715 252.696 221.596C250.163 223.2 248.039 225.044 245.833 226.968C244.771 227.849 243.709 228.811 242.647 229.693C239.951 231.938 236.683 236.748 239.052 240.997C239.951 242.6 240.196 243.963 240.36 245.326C240.36 245.486 240.441 245.647 240.441 245.807C240.85 247.891 241.34 249.575 241.912 251.018C243.301 254.866 241.912 257.351 240.523 259.916C240.278 260.317 240.033 260.798 239.788 261.279V261.199C240.605 258.634 241.422 256.068 239.869 252.3C238.971 250.136 238.48 248.212 238.317 246.128L238.235 245.727C238.072 244.444 237.99 243.161 237.418 241.718C237.337 241.799 237.255 241.879 237.092 241.959C237.01 241.959 236.846 242.039 236.683 242.039C237.173 243.402 237.255 244.604 237.418 245.807L237.5 246.208C237.745 248.372 238.235 250.296 239.134 252.541C240.523 256.068 239.788 258.393 239.052 260.959C238.889 261.52 238.644 262.161 238.48 262.802C238.48 262.722 238.48 262.722 238.48 262.642C238.644 259.916 238.726 257.351 237.092 253.743C236.029 251.338 235.458 249.174 235.294 246.528V246.128C235.212 244.845 235.131 243.482 234.722 242.039C234.477 242.039 234.232 242.039 233.987 242.119C234.395 243.562 234.477 244.845 234.559 246.208V246.609C234.722 249.334 235.212 251.579 236.356 254.064C237.909 257.511 237.827 259.916 237.663 262.642C237.663 262.963 237.663 263.283 237.582 263.604C239.379 262.321 240.85 261.279 242.157 260.397C242.565 259.916 242.974 259.355 243.464 258.874C245.997 255.988 248.611 253.102 247.958 247.891C247.876 247.41 247.549 246.288 246.895 244.845C245.67 242.119 243.791 238.111 244.608 234.664C244.608 234.583 244.608 234.503 244.69 234.423C244.69 234.343 244.69 234.343 244.771 234.263V234.183C245.343 232.579 247.304 230.254 252.614 227.208C249.918 229.373 247.304 232.178 247.141 235.225C247.141 235.305 247.141 235.465 247.141 235.545C247.141 235.866 247.141 236.187 247.141 236.507C247.304 239.474 248.611 242.841 249.592 245.406L249.673 245.566C250.163 246.769 250.49 247.891 250.49 248.452C250.572 249.815 250.49 251.018 250.327 252.06C249.837 254.064 248.693 255.748 247.304 257.271C247.712 257.111 248.203 256.95 248.693 256.71C249.755 255.347 250.572 253.904 250.98 252.14C251.226 251.018 251.307 249.735 251.226 248.292C251.144 247.731 250.817 246.528 250.327 245.246L250.245 245.085C249.265 242.6 247.958 239.313 247.876 236.427C247.876 236.107 247.876 235.786 247.876 235.545C247.876 235.465 247.876 235.305 247.876 235.225C247.958 232.098 251.144 229.052 254.085 226.968C251.879 229.212 249.918 232.419 250.409 236.107C250.409 236.267 250.409 236.427 250.49 236.588C250.49 236.828 250.49 237.069 250.572 237.309C250.98 239.794 251.961 242.761 252.696 245.246C252.778 245.566 252.86 245.887 253.023 246.208C253.431 247.49 253.677 248.533 253.677 249.094C253.758 250.457 253.677 251.659 253.431 252.621C253.268 253.503 252.86 254.305 252.451 255.026C252.941 254.705 253.35 254.385 253.84 253.984C254.003 253.583 254.085 253.182 254.248 252.781C254.494 251.739 254.575 250.457 254.494 249.014C254.494 248.212 254.003 246.769 253.758 245.967C253.677 245.647 253.595 245.326 253.431 245.005C252.696 242.6 251.716 239.554 251.307 237.149C251.307 236.908 251.226 236.748 251.226 236.507C251.226 236.347 251.226 236.107 251.144 235.946C250.654 232.178 253.023 228.972 255.311 226.807C253.677 229.132 252.369 232.659 253.677 236.908C253.758 237.069 253.758 237.229 253.84 237.47C253.922 237.63 253.922 237.87 254.003 238.031C254.657 240.436 255.719 243.883 256.373 246.689C256.454 247.09 256.536 247.41 256.618 247.731C256.699 247.009 256.781 246.208 256.863 245.406C256.209 242.841 255.392 239.875 254.739 237.87C254.657 237.71 254.657 237.47 254.575 237.309C254.494 237.149 254.494 236.908 254.412 236.748C253.105 232.339 254.739 228.892 256.454 226.647C255.392 229.132 254.739 232.9 257.026 237.79C257.108 237.951 257.108 238.031 257.19 238.191C257.19 237.55 257.19 236.908 257.19 236.267C255.801 232.419 256.209 229.373 257.026 227.288C256.945 226.246 256.945 225.204 256.863 224.242C254.739 225.204 251.062 227.048 248.121 229.292C246.078 230.816 244.771 232.259 244.199 233.702C244.199 233.782 244.118 233.862 244.118 233.942V234.022C244.118 234.102 244.118 234.102 244.036 234.183C244.036 234.263 243.954 234.343 243.954 234.423C243.301 237.229 244.363 240.436 245.425 243.001C245.752 243.723 246.078 244.364 246.324 245.005C246.895 246.288 247.304 247.49 247.386 247.891C247.876 251.9 246.324 254.465 244.363 256.87C245.588 254.786 246.324 252.461 245.425 249.254C245.262 248.773 245.098 248.292 244.935 247.651C244.69 246.929 244.445 246.047 244.199 245.166C244.118 245.005 244.118 244.845 244.036 244.685C243.709 243.642 243.382 242.52 242.811 241.237C241.585 238.752 241.994 235.786 244.036 232.339C245.997 228.972 250.327 226.166 253.431 224.402C254.657 223.681 255.801 223.039 256.781 222.639C256.781 222.398 256.699 222.077 256.699 221.837C255.719 222.318 254.412 223.039 253.023 223.841C247.958 226.807 244.935 229.373 243.301 232.098C241.177 235.706 240.768 238.993 242.075 241.638C242.647 242.841 242.974 243.883 243.301 244.925C243.382 245.085 243.382 245.246 243.464 245.406C243.709 246.288 244.036 247.17 244.199 247.891C244.363 248.452 244.526 249.014 244.69 249.414C245.915 253.663 243.954 256.309 241.912 259.035C241.83 259.115 241.748 259.275 241.667 259.355C242.974 256.95 244.036 254.385 242.729 250.697C242.239 249.254 241.667 247.571 241.34 245.566C241.34 245.406 241.258 245.246 241.258 245.085C241.013 243.642 240.768 242.199 239.869 240.516C237.5 236.187 241.585 231.537 243.301 230.094C244.445 229.132 245.507 228.25 246.569 227.368C248.775 225.444 250.817 223.681 253.268 222.077C254.412 221.356 255.637 220.715 256.618 220.153C256.618 220.073 256.618 220.073 256.618 219.993C256.699 219.993 256.863 219.913 257.108 219.913C257.762 219.512 258.333 219.272 258.66 219.031C258.905 218.871 259.15 218.71 259.395 218.55C259.395 218.31 259.395 217.989 259.314 217.668C258.742 217.989 258.415 218.229 258.007 218.47ZM257.761 215.985C257.353 216.225 256.781 216.626 256.128 216.947C254.984 217.588 253.595 218.39 252.369 219.272C250.327 220.715 248.693 221.997 246.895 223.36C245.425 224.563 243.873 225.765 241.912 227.208C239.951 228.651 237.337 230.976 235.948 233.621C235.948 233.702 236.029 233.782 236.029 233.862C236.111 234.183 236.193 234.423 236.275 234.744C237.418 231.938 240.196 229.373 242.32 227.849C244.363 226.406 245.833 225.124 247.386 223.921C249.101 222.558 250.735 221.196 252.778 219.833C254.003 219.031 255.392 218.229 256.454 217.588C257.108 217.187 257.68 216.867 258.17 216.546C258.415 216.386 258.66 216.225 258.824 216.065C258.824 215.824 258.742 215.504 258.742 215.183C258.415 215.584 258.088 215.744 257.761 215.985ZM257.516 213.499C257.026 213.82 256.536 214.141 255.964 214.461C254.657 215.263 253.268 216.145 252.043 217.027C250.899 217.909 250 218.63 249.101 219.432C247.059 221.115 245.18 222.719 241.177 224.963C240.36 225.444 237.173 227.288 234.722 230.014C234.804 230.335 234.886 230.575 234.967 230.896C237.418 228.01 241.013 226.006 241.503 225.685C245.588 223.44 247.467 221.757 249.51 220.073C250.409 219.352 251.307 218.55 252.369 217.748C253.513 216.867 254.984 215.985 256.209 215.263C256.781 214.942 257.353 214.542 257.761 214.301C257.925 214.141 258.17 214.061 258.333 213.9C258.333 213.66 258.252 213.339 258.252 213.018C258.17 213.099 257.843 213.339 257.516 213.499ZM257.353 211.014C257.026 211.175 256.699 211.415 256.454 211.656C254.902 212.698 253.105 213.82 251.879 214.862C250.98 215.584 250.327 216.225 249.592 216.867C247.631 218.71 245.915 220.314 240.605 222.639C239.134 223.28 236.356 224.803 233.824 226.887C233.905 227.128 233.987 227.368 234.069 227.609C236.601 225.444 239.461 223.921 240.85 223.28C246.242 220.875 248.039 219.272 250 217.348C250.654 216.706 251.389 216.065 252.206 215.343C253.35 214.381 255.147 213.259 256.699 212.217C257.026 211.976 257.353 211.816 257.68 211.575C257.843 211.415 258.088 211.335 258.252 211.175C258.252 210.854 258.252 210.613 258.17 210.293C258.007 210.613 257.68 210.774 257.353 211.014ZM255.311 207.246C253.758 207.647 252.369 208.449 251.634 208.85C250.654 209.411 249.918 210.052 249.101 210.613C248.448 211.175 247.794 211.656 247.059 212.137C245.507 213.099 243.954 213.82 242.239 214.461C241.422 214.782 240.278 215.103 238.889 215.584C238.235 215.824 237.5 216.065 236.601 216.386C234.477 217.187 231.781 218.229 228.84 218.791C228.922 219.111 228.922 219.352 229.003 219.512C232.026 218.871 234.722 217.909 236.846 217.107C237.745 216.786 238.48 216.466 239.134 216.305C240.523 215.824 241.585 215.504 242.484 215.183C244.281 214.542 245.915 213.82 247.467 212.778C248.284 212.297 248.938 211.736 249.592 211.255C250.327 210.694 251.062 210.052 252.043 209.491C252.696 209.09 254.003 208.369 255.474 207.968C256.373 207.727 257.108 207.567 257.761 207.487C256.945 207.808 256.046 208.208 254.984 208.689C253.758 209.251 252.533 210.052 251.552 210.694C250.654 211.335 250 211.976 249.346 212.618C248.693 213.259 248.039 213.82 247.304 214.301C245.997 215.263 244.445 216.065 242.647 216.786C241.748 217.107 240.686 217.508 239.379 217.909C238.807 218.069 238.235 218.31 237.5 218.63C236.029 219.272 234.069 219.993 231.863 220.554C231.945 220.795 232.026 221.035 232.108 221.276C234.314 220.715 236.275 219.913 237.827 219.272C238.562 218.951 239.216 218.71 239.706 218.55C240.931 218.149 242.075 217.748 242.974 217.348C244.935 216.626 246.487 215.824 247.876 214.782C248.693 214.221 249.265 213.66 250 213.018C250.654 212.457 251.307 211.816 252.206 211.175C253.105 210.453 254.33 209.732 255.474 209.251C256.046 209.01 256.618 208.689 257.19 208.529C255.229 209.812 253.186 211.255 251.961 212.297C251.879 212.377 251.797 212.457 251.716 212.537C250.899 213.259 250.327 213.9 249.755 214.461C247.876 216.466 246.569 217.909 240.033 220.234C239.951 220.234 239.869 220.314 239.788 220.314H239.706C239.216 220.474 238.644 220.715 237.99 221.115C236.601 221.757 234.804 222.478 232.843 222.959C232.925 223.2 233.007 223.44 233.088 223.681C233.415 223.601 233.66 223.52 233.905 223.44C233.66 223.601 233.415 223.761 233.17 223.921C233.252 224.162 233.333 224.402 233.415 224.643C234.967 223.52 236.601 222.558 238.072 221.917C238.399 221.757 238.644 221.677 238.889 221.516C239.379 221.276 239.869 221.115 240.196 220.955C240.278 220.955 240.36 220.875 240.441 220.875C247.059 218.55 248.529 216.947 250.409 214.942C250.98 214.301 251.552 213.74 252.288 213.018C252.369 212.938 252.451 212.858 252.533 212.858C253.84 211.736 256.536 209.892 258.415 208.689C258.415 208.609 258.415 208.529 258.415 208.449C258.415 207.968 258.415 207.327 258.333 206.605C257.353 206.765 256.373 206.926 255.311 207.246ZM255.556 205.803C254.167 205.964 252.696 206.525 251.716 207.006C250.654 207.487 249.755 208.128 248.856 208.689C248.203 209.09 247.549 209.571 246.814 209.972C245.016 211.014 243.464 211.656 241.83 212.137C241.34 212.297 240.85 212.457 240.278 212.618C239.706 212.778 239.134 213.018 238.399 213.179C237.582 213.419 236.601 213.82 235.458 214.141C233.415 214.862 230.882 215.744 228.35 216.386C228.35 216.466 228.35 216.546 228.431 216.626C228.513 216.786 228.513 216.947 228.513 217.107C231.128 216.466 233.66 215.584 235.703 214.782C236.846 214.381 237.827 214.061 238.644 213.82C239.297 213.58 239.951 213.419 240.523 213.259C241.095 213.099 241.585 212.938 242.075 212.778C243.791 212.297 245.343 211.575 247.222 210.533C247.958 210.132 248.693 209.651 249.346 209.251C250.163 208.689 251.062 208.128 252.124 207.647C253.023 207.166 254.412 206.605 255.719 206.525C256.781 206.445 257.598 206.525 258.252 206.605C258.252 206.365 258.252 206.124 258.252 205.884C257.843 205.803 257.353 205.803 256.781 205.803C256.291 205.803 255.964 205.803 255.556 205.803ZM251.716 205.162C250.572 205.643 249.51 206.204 248.448 206.765C247.794 207.086 247.222 207.487 246.569 207.808C245.098 208.529 243.301 209.411 241.422 209.892C240.768 210.052 239.543 210.373 237.99 210.854C236.765 211.255 235.212 211.736 233.579 212.297C231.781 212.938 229.739 213.58 227.696 214.221C227.778 214.461 227.86 214.702 227.941 214.942C229.984 214.301 232.026 213.66 233.824 213.018C235.458 212.457 237.01 211.976 238.154 211.575C239.788 211.094 240.931 210.774 241.585 210.613C243.464 210.132 245.343 209.251 246.895 208.529C247.549 208.208 248.203 207.808 248.856 207.487C249.918 206.926 250.899 206.365 252.043 205.884C253.513 205.322 254.739 205.082 255.801 205.162C256.781 205.242 257.598 205.483 258.17 205.723C258.17 205.483 258.17 205.162 258.17 204.922C257.516 204.681 256.781 204.521 255.882 204.441C255.719 204.441 255.556 204.441 255.392 204.441C254.248 204.36 253.105 204.681 251.716 205.162ZM251.797 203.398C250.409 203.799 249.101 204.441 247.712 205.082C247.222 205.322 246.732 205.483 246.324 205.723C244.526 206.525 242.729 207.246 241.013 207.647C240.033 207.888 238.807 208.208 237.5 208.609C234.722 209.411 230.882 210.774 227.206 212.056C227.124 212.056 227.043 212.137 226.879 212.137C226.961 212.377 227.043 212.618 227.124 212.858C227.206 212.858 227.288 212.778 227.451 212.778C231.128 211.495 234.967 210.213 237.745 209.411C239.134 209.01 240.278 208.689 241.258 208.529C242.974 208.128 244.935 207.327 246.732 206.525C247.222 206.284 247.712 206.124 248.203 205.884C249.592 205.242 250.899 204.681 252.206 204.28C253.758 203.799 255.065 203.719 256.128 203.96C257.026 204.2 257.762 204.521 258.333 204.922C258.333 204.601 258.333 204.36 258.333 204.04C257.762 203.719 257.108 203.479 256.373 203.238C255.964 203.158 255.556 203.078 255.065 203.078C253.84 202.837 252.86 202.998 251.797 203.398ZM245.997 203.479C243.954 204.28 242.075 205.002 240.605 205.242C237.827 205.723 231.618 207.647 226.144 209.812C226.226 210.052 226.307 210.293 226.389 210.533C231.863 208.449 237.99 206.445 240.768 206.044C242.402 205.803 244.281 205.002 246.324 204.2C249.918 202.757 253.677 201.314 256.128 202.276C256.945 202.597 257.68 203.078 258.17 203.559C258.17 203.238 258.17 202.917 258.17 202.597C257.68 202.276 257.108 201.955 256.454 201.635C255.801 201.394 255.065 201.234 254.33 201.234C251.797 201.234 248.856 202.356 245.997 203.479Z" fill="white"/>
</g>
<path d="M43.74 60C47.88 60 49.95 57.93 49.95 55.4C49.95 52.065 46.845 51.605 46.845 51.605V51.375C46.845 51.375 49.375 50.915 49.375 48.155C49.375 45.74 47.535 43.9 43.51 43.9H36.61V60H43.74ZM45.58 54.94C45.58 55.745 45.005 56.32 43.763 56.32H40.75V53.56H43.74C45.005 53.56 45.58 54.135 45.58 54.94ZM43.51 47.58C44.545 47.58 45.005 48.04 45.005 48.73C45.005 49.42 44.545 49.88 43.51 49.88H40.75V47.58H43.51ZM55.6901 51.95C55.6901 48.73 57.1851 47.235 59.3701 47.235C61.5551 47.235 63.0501 48.73 63.0501 51.95C63.0501 55.17 61.5551 56.665 59.3701 56.665C57.1851 56.665 55.6901 55.17 55.6901 51.95ZM67.4201 51.95C67.4201 46.66 64.3151 43.555 59.3701 43.555C54.4251 43.555 51.3201 46.66 51.3201 51.95C51.3201 57.24 54.4251 60.345 59.3701 60.345C64.3151 60.345 67.4201 57.24 67.4201 51.95ZM76.966 43.555C72.136 43.555 69.031 46.66 69.031 51.95C69.031 57.24 72.136 60.345 77.081 60.345C81.336 60.345 83.521 57.585 83.521 57.585L81.451 54.94C81.451 54.94 80.071 56.665 77.426 56.665C75.011 56.665 73.401 55.055 73.401 51.835C73.401 48.73 74.896 47.235 76.966 47.235C78.346 47.235 79.151 48.04 79.151 49.075C79.151 49.765 79.036 50.11 79.036 50.11H83.291C83.291 50.11 83.521 49.42 83.521 48.5C83.521 45.855 81.106 43.555 76.966 43.555ZM95.1351 60H99.2751V43.9H85.4751V60H89.6151V47.58H95.1351V60ZM102.041 43.9V60H106.181V55.17H108.136C113.081 55.17 115.151 53.1 115.151 49.535C115.151 45.97 113.081 43.9 108.136 43.9H102.041ZM108.251 47.58C109.976 47.58 110.781 48.362 110.781 49.535C110.781 50.685 109.976 51.49 108.251 51.49H106.181V47.58H108.251ZM120.896 51.95C120.896 48.73 122.391 47.235 124.576 47.235C126.761 47.235 128.256 48.73 128.256 51.95C128.256 55.17 126.761 56.665 124.576 56.665C122.391 56.665 120.896 55.17 120.896 51.95ZM132.626 51.95C132.626 46.66 129.521 43.555 124.576 43.555C119.631 43.555 116.526 46.66 116.526 51.95C116.526 57.24 119.631 60.345 124.576 60.345C129.521 60.345 132.626 57.24 132.626 51.95ZM140.447 51.03C139.205 52.87 138.952 53.56 138.952 53.56H138.722C138.722 53.56 138.952 52.87 138.952 51.03V43.9H134.812V60H139.067L143.897 52.87C145.139 51.03 145.392 50.34 145.392 50.34H145.622C145.622 50.34 145.392 51.03 145.392 52.87V60H149.532V43.9H145.277L140.447 51.03ZM164.258 55.63C164.258 52.295 161.153 51.72 161.153 51.72V51.49C161.153 51.49 163.913 51.03 163.913 48.155C163.913 45.855 161.613 43.555 157.841 43.555C153.908 43.555 151.838 45.625 151.838 47.81C151.838 48.615 152.068 49.19 152.068 49.19H156.208C156.208 49.19 156.093 48.96 156.093 48.615C156.093 47.695 156.668 47.12 157.818 47.12C158.853 47.12 159.543 47.81 159.543 48.615C159.543 49.42 158.853 50.11 157.818 50.11H155.633V53.79H157.588C159.198 53.79 159.888 54.48 159.888 55.17C159.888 55.975 159.198 56.665 157.588 56.665C154.943 56.665 153.333 54.71 153.333 54.71L151.148 57.585C151.148 57.585 153.563 60.345 157.841 60.345C161.958 60.345 164.258 58.045 164.258 55.63ZM173.456 60C177.596 60 179.666 57.93 179.666 55.4C179.666 52.065 176.561 51.605 176.561 51.605V51.375C176.561 51.375 179.091 50.915 179.091 48.155C179.091 45.74 177.251 43.9 173.226 43.9H166.326V60H173.456ZM175.296 54.94C175.296 55.745 174.721 56.32 173.479 56.32H170.466V53.56H173.456C174.721 53.56 175.296 54.135 175.296 54.94ZM173.226 47.58C174.261 47.58 174.721 48.04 174.721 48.73C174.721 49.42 174.261 49.88 173.226 49.88H170.466V47.58H173.226ZM185.751 47.58H192.881V43.9H181.611V60H192.881V56.32H185.751V53.79H191.616V50.11H185.751V47.58ZM193.217 56.32V63.105H197.357V60H206.097V63.105H210.237V56.32H208.282V43.9H196.667V46.545C196.667 53.33 194.597 56.32 194.597 56.32H193.217ZM204.142 47.58V56.32H198.737C198.737 56.32 200.577 53.79 200.577 47.58H204.142ZM215.984 47.58H223.114V43.9H211.844V60H223.114V56.32H215.984V53.79H221.849V50.11H215.984V47.58ZM235.065 60H239.205V43.9H235.065V50.57H229.315V43.9H225.175V60H229.315V54.25H235.065V60ZM251.855 60H255.995V43.9H251.855V50.57H246.105V43.9H241.965V60H246.105V54.25H251.855V60ZM277.155 43.9H273.015V60H277.155V43.9ZM264.275 60C269.22 60 271.29 57.93 271.29 54.365C271.29 50.8 269.22 48.73 264.275 48.73H262.895V43.9H258.755V60H264.275ZM262.895 56.32V52.41H264.39C266.115 52.41 266.92 53.215 266.92 54.365C266.92 55.538 266.115 56.32 264.39 56.32H262.895ZM284.065 47.58H291.195V43.9H279.925V60H291.195V56.32H284.065V53.79H289.93V50.11H284.065V47.58ZM46.27 83H50.41V66.9H36.61V83H40.75V70.58H46.27V83ZM59.2704 74.03C58.0284 75.87 57.7754 76.56 57.7754 76.56H57.5454C57.5454 76.56 57.7754 75.87 57.7754 74.03V66.9H53.6354V83H57.8904L62.7204 75.87C63.9624 74.03 64.2154 73.34 64.2154 73.34H64.4454C64.4454 73.34 64.2154 74.03 64.2154 75.87V83H68.3554V66.9H64.1004L59.2704 74.03ZM79.0567 70.58H83.5417V66.9H70.4317V70.58H74.9167V83H79.0567V70.58ZM85.6198 66.9V83H89.7598V78.17H91.7148C96.6598 78.17 98.7298 76.1 98.7298 72.535C98.7298 68.97 96.6598 66.9 91.7148 66.9H85.6198ZM91.8298 70.58C93.5548 70.58 94.3598 71.362 94.3598 72.535C94.3598 73.685 93.5548 74.49 91.8298 74.49H89.7598V70.58H91.8298ZM108.5 66.555C103.67 66.555 100.565 69.66 100.565 74.95C100.565 80.24 103.67 83.345 108.615 83.345C112.87 83.345 115.055 80.585 115.055 80.585L112.985 77.94C112.985 77.94 111.605 79.665 108.96 79.665C106.545 79.665 104.935 78.055 104.935 74.835C104.935 71.73 106.43 70.235 108.5 70.235C109.88 70.235 110.685 71.04 110.685 72.075C110.685 72.765 110.57 73.11 110.57 73.11H114.825C114.825 73.11 115.055 72.42 115.055 71.5C115.055 68.855 112.64 66.555 108.5 66.555Z" fill="white"/>
<path d="M68.4011 254.347C70.2102 254.347 71.0502 255.267 71.0502 256.684C71.0502 258.101 70.2102 259.021 68.4011 259.021H65.8167V251.513H70.5333V252.859H67.2381V254.347H68.4011ZM68.4011 255.692H67.1735V257.676H68.4011C69.2411 257.676 69.5641 257.321 69.5641 256.684C69.5641 256.047 69.2411 255.692 68.4011 255.692Z" fill="white"/>
<path d="M74.5391 254.559H77.1881V255.905H74.5391V257.676H77.705V259.021H73.1823V251.513H77.705V252.859H74.5391V254.559Z" fill="white"/>
<path d="M82.6155 259.021H81.2587V252.859H79.2557V251.513H84.6184V252.859H82.6155V259.021Z" fill="white"/>
<path d="M91.7901 259.021H90.3041L89.8518 257.605H87.1382L86.6859 259.021H85.1998L87.7197 251.513H89.2057L91.7901 259.021ZM88.7534 254.205C88.495 253.426 88.495 253.072 88.495 253.072H88.3658C88.3658 253.072 88.3658 253.426 88.1073 254.205L87.4612 256.188H89.3349L88.7534 254.205Z" fill="white"/>
<path d="M95.5376 252.859C95.5376 258.101 94.5685 259.163 93.3409 259.163C92.9532 259.163 92.6301 259.021 92.6301 259.021V257.746C92.6301 257.746 92.824 257.817 93.0178 257.817C93.7285 257.817 94.2454 257.251 94.2454 252.859V251.513H98.8974V259.021H97.5406V252.859H95.5376V252.859Z" fill="white"/>
<path d="M107.168 259.021H105.681L105.229 257.605H102.516L102.063 259.021H100.577L103.097 251.513H104.583L107.168 259.021ZM104.195 254.205C103.937 253.426 103.937 253.072 103.937 253.072H103.808C103.808 253.072 103.808 253.426 103.549 254.205L102.903 256.188H104.777L104.195 254.205Z" fill="white"/>
<path d="M114.856 259.021H113.499V255.126C113.499 254.205 113.629 253.922 113.629 253.922H113.499C113.37 254.205 113.37 254.205 112.789 255.126L110.398 259.021H108.912V251.513H110.269V255.409C110.269 256.33 110.14 256.613 110.14 256.613H110.269C110.398 256.33 110.398 256.33 110.98 255.409L113.37 251.513H114.856V259.021ZM112.789 248.68H113.952C113.952 249.884 113.241 250.663 111.884 250.663C110.592 250.663 109.817 249.884 109.817 248.68H110.98C110.98 249.247 111.303 249.601 111.884 249.601C112.466 249.672 112.789 249.318 112.789 248.68Z" fill="white"/>
<path d="M121.705 259.234H120.348V258.596C118.281 258.526 117.053 257.18 117.053 255.197C117.053 253.213 118.281 251.868 120.348 251.797V251.088H121.705V251.797C123.708 251.868 125 253.213 125 255.197C125 257.18 123.772 258.526 121.705 258.596V259.234ZM120.348 257.251V253.142C119.185 253.213 118.474 253.922 118.474 255.197C118.474 256.401 119.12 257.18 120.348 257.251ZM121.705 253.072V257.18C122.868 257.109 123.514 256.401 123.514 255.126C123.514 253.851 122.868 253.142 121.705 253.072Z" fill="white"/>
<path d="M56.3835 251.443C54.8974 248.539 52.5068 246.414 49.5993 245.493C43.5259 243.58 37.1941 247.405 35.4496 253.992C33.7051 260.58 37.1941 267.521 43.2029 269.504C44.2366 269.858 45.335 270 46.3688 270C48.2425 270 50.1162 269.504 51.8607 268.442C54.5098 266.813 56.4481 264.192 57.288 261.005C58.1926 257.746 57.8695 254.417 56.3835 251.443ZM56.3189 260.65C46.3688 258.809 40.6184 262.492 38.2925 264.475C38.1632 264.263 38.034 264.05 37.8402 263.838C39.6493 262.138 46.1104 257.038 56.6419 258.171C56.6419 259.021 56.5127 259.871 56.3189 260.65ZM39.0032 265.396C41.1353 263.554 46.6272 260.155 55.9312 261.784C55.6728 262.563 55.2851 263.271 54.8974 263.909C46.7565 261.996 41.9753 264.192 39.5847 265.963C39.3908 265.821 39.197 265.609 39.0032 265.396ZM50.1162 257.109C52.3776 254.559 55.2205 254.134 56.2543 254.134C56.5127 255.126 56.7065 256.117 56.7065 257.109C54.3159 256.755 52.0546 256.826 50.1162 257.109ZM46.4334 246.201C47.4026 246.201 48.3717 246.343 49.2763 246.626C51.9253 247.476 54.1221 249.388 55.4143 252.009C55.5435 252.293 55.6728 252.576 55.802 252.859C54.2513 253.001 50.8916 253.78 48.4364 257.321C46.3042 257.746 44.4951 258.384 42.9444 259.092C43.2029 258.03 43.6552 257.109 44.0428 256.33C44.3659 256.401 44.6889 256.401 45.012 256.401C46.5626 256.401 48.0487 255.763 49.0178 254.488C50.3747 252.859 50.7623 250.593 50.1162 248.397L49.987 248.043L49.664 247.972C47.5964 247.476 45.5289 248.114 44.2366 249.672C42.9444 251.23 42.4922 253.497 43.1383 255.692C42.5568 256.755 42.0399 258.101 41.7168 259.659C39.5847 260.792 38.0986 261.996 37.3233 262.775C37.2587 262.563 37.1295 262.421 37.0648 262.209C42.8798 257.251 41.4584 250.097 40.8769 247.901C42.4922 246.839 44.4305 246.201 46.4334 246.201ZM45.9165 252.93L45.5935 252.505C45.5289 252.576 44.8828 253.142 44.1074 254.276C43.9782 252.93 44.3659 251.655 45.1412 250.663C46.1104 249.53 47.5964 249.034 49.0825 249.247C49.4701 250.876 49.1471 252.505 48.1779 253.709C47.338 254.701 46.1104 255.197 44.8181 255.126C45.5935 253.992 46.2396 253.355 46.2396 253.355L45.9165 252.93ZM39.9077 248.68C40.4892 250.947 41.3292 256.826 36.6126 261.075C36.548 260.792 36.4834 260.58 36.4187 260.296C39.0678 256.755 39.1324 252.788 38.6155 250.026C39.0032 249.53 39.4554 249.105 39.9077 248.68ZM36.4834 254.347C36.7418 253.284 37.1941 252.293 37.711 251.372C37.9048 253.497 37.711 256.188 36.0957 258.738C35.9665 257.321 36.0957 255.834 36.4834 254.347ZM43.5259 268.371C43.2029 268.3 42.9444 268.158 42.686 268.017C44.5597 267.308 47.2087 266.883 51.0208 267.592C48.6302 268.867 46.0458 269.15 43.5259 268.371ZM52.3776 266.742C47.0149 265.467 43.4613 266.246 41.3292 267.379C41.0707 267.167 40.7477 267.025 40.4892 266.813C41.0707 266.388 41.846 265.963 42.8152 265.538C45.0766 264.617 48.824 263.838 54.1221 265.042C53.6052 265.609 53.0237 266.175 52.3776 266.742Z" fill="white"/>
<path d="M67.1734 261.925H66.398V263.554H66.0104V261.571H67.4964V263.554H67.1734V261.925Z" fill="white"/>
<path d="M68.8534 261.571C69.3702 261.571 69.6287 261.854 69.6287 262.279C69.6287 262.704 69.3702 262.988 68.8534 262.988H68.5949V263.625H68.2072V261.642H68.8534V261.571ZM68.5949 261.925V262.563H68.8534C69.1118 262.563 69.241 262.421 69.241 262.209C69.241 261.996 69.1118 261.854 68.8534 261.854H68.5949V261.925Z" fill="white"/>
<path d="M70.9855 263.625C70.4687 263.625 70.1456 263.271 70.1456 262.563C70.1456 261.855 70.4687 261.5 70.9855 261.5C71.5024 261.5 71.8255 261.855 71.8255 262.563C71.8255 263.271 71.5024 263.625 70.9855 263.625ZM70.9855 261.855C70.7271 261.855 70.4687 262.067 70.4687 262.563C70.4687 263.059 70.6625 263.271 70.9855 263.271C71.244 263.271 71.5024 263.059 71.5024 262.563C71.4378 262.067 71.244 261.855 70.9855 261.855Z" fill="white"/>
<path d="M72.7946 263.554H72.407V261.571H73.5699V261.925H72.7946V263.554Z" fill="white"/>
<path d="M74.7329 261.571C75.2498 261.571 75.5082 261.854 75.5082 262.279C75.5082 262.704 75.2498 262.988 74.7329 262.988H74.4099V263.625H74.0222V261.642H74.7329V261.571ZM74.4099 261.925V262.563H74.6683C74.9267 262.563 75.056 262.421 75.056 262.209C75.056 261.996 74.9267 261.854 74.6683 261.854H74.4099V261.925Z" fill="white"/>
<path d="M77.4466 263.554H77.059L76.9297 263.2H76.219L76.0898 263.554H75.7021L76.4129 261.571H76.8005L77.4466 263.554ZM76.6067 262.279C76.5421 262.067 76.5421 261.996 76.5421 261.996C76.5421 261.996 76.5421 262.067 76.4775 262.279L76.2836 262.846H76.8005L76.6067 262.279Z" fill="white"/>
<path d="M78.8034 263.2L78.4804 262.492C78.2865 262.209 78.2865 262.138 78.2865 262.138C78.2865 262.138 78.2865 262.209 78.2865 262.492V263.554H77.8989V261.571H78.3512L78.7388 262.421C78.868 262.634 78.868 262.704 78.868 262.704C78.868 262.704 78.868 262.634 78.9973 262.421L79.3849 261.571H79.8372V263.554H79.5788V262.492C79.5788 262.209 79.5788 262.138 79.5788 262.138C79.5788 262.138 79.5788 262.209 79.4495 262.492L79.1265 263.2H78.8034Z" fill="white"/>
<path d="M81.4524 263.2L81.1293 262.492C81.0001 262.209 81.0001 262.138 81.0001 262.138C81.0001 262.138 81.0001 262.209 81.0001 262.492V263.554H80.6124V261.571H81.0647L81.4524 262.421C81.5816 262.634 81.5816 262.704 81.5816 262.704C81.5816 262.704 81.5816 262.634 81.7108 262.421L82.0985 261.571H82.5508V263.554H82.1631V262.492C82.1631 262.209 82.1631 262.138 82.1631 262.138C82.1631 262.138 82.1631 262.209 82.0339 262.492L81.7108 263.2H81.4524Z" fill="white"/>
<path d="M84.8122 263.554H84.4245L84.2953 263.2H83.5846L83.4554 263.554H83.0677L83.7784 261.571H84.1661L84.8122 263.554ZM84.0369 262.279C83.9723 262.067 83.9723 261.996 83.9723 261.996C83.9723 261.996 83.9723 262.067 83.9076 262.279L83.7138 262.846H84.2307L84.0369 262.279Z" fill="white"/>
<path d="M87.2675 261.925H86.4921V263.554H86.1691V261.571H87.6551V263.554H87.2675V261.925Z" fill="white"/>
<path d="M89.1412 263.625C88.6243 263.625 88.3012 263.271 88.3012 262.563C88.3012 261.855 88.6243 261.5 89.1412 261.5C89.6581 261.5 90.0457 261.855 90.0457 262.563C89.9811 263.271 89.6581 263.625 89.1412 263.625ZM89.1412 261.855C88.8827 261.855 88.6243 262.067 88.6243 262.563C88.6243 263.059 88.8181 263.271 89.1412 263.271C89.3996 263.271 89.6581 263.059 89.6581 262.563C89.5935 262.067 89.3996 261.855 89.1412 261.855Z" fill="white"/>
<path d="M90.4333 263.2C90.4333 263.2 90.6917 262.775 90.6917 261.925V261.571H91.9194V263.2H92.1778V263.979H91.7901V263.554H90.6271V263.979H90.2395V263.2H90.4333ZM91.0148 261.925C91.0148 262.846 90.7564 263.2 90.7564 263.2H91.5317V261.925H91.0148Z" fill="white"/>
<path d="M92.6948 263.2C92.6948 263.2 92.9532 262.775 92.9532 261.925V261.571H94.1808V263.2H94.4393V263.979H94.0516V263.554H92.8886V263.979H92.5009V263.2H92.6948ZM93.2763 261.925C93.2763 262.846 93.0178 263.2 93.0178 263.2H93.7931V261.925H93.2763Z" fill="white"/>
<path d="M95.2791 262.35H95.9899V262.775H95.2791V263.2H96.1191V263.554H94.8915V261.571H96.1191V261.925H95.2791V262.35Z" fill="white"/>
<path d="M97.3467 261.571C97.8636 261.571 98.1221 261.854 98.1221 262.279C98.1221 262.704 97.8636 262.988 97.3467 262.988H97.0883V263.625H96.7006V261.642H97.3467V261.571ZM97.0883 261.925V262.563H97.3467C97.6052 262.563 97.7344 262.421 97.7344 262.209C97.7344 261.996 97.6052 261.854 97.3467 261.854H97.0883V261.925Z" fill="white"/>
<path d="M99.8667 263.554H99.479V262.704H99.2205L98.7683 263.554H98.316L98.8975 262.563C98.8975 262.563 98.8329 262.563 98.7683 262.421L98.7037 261.996C98.7037 261.925 98.6391 261.855 98.5098 261.855H98.4452V261.5C98.4452 261.5 98.5744 261.5 98.639 261.5C98.8975 261.5 98.9621 261.642 99.0267 261.855L99.1559 262.279C99.1559 262.35 99.2205 262.421 99.3498 262.421H99.5436V261.571H99.9313V262.421H100.125C100.19 262.421 100.254 262.35 100.319 262.279L100.448 261.855V261.784C100.513 261.642 100.642 261.5 100.836 261.5C100.9 261.5 101.03 261.5 101.03 261.5V261.855H100.965C100.836 261.855 100.771 261.925 100.771 261.996L100.642 262.35C100.577 262.492 100.513 262.492 100.513 262.492L101.094 263.484H100.642L100.19 262.634H99.9313V263.554H99.8667Z" fill="white"/>
<path d="M101.417 261.571H101.805V262.421H101.999C102.063 262.421 102.128 262.35 102.192 262.279L102.322 261.996C102.386 261.713 102.451 261.571 102.774 261.571C102.839 261.571 102.968 261.571 102.968 261.571V261.925H102.903C102.774 261.925 102.774 261.996 102.709 262.067L102.58 262.421C102.516 262.563 102.451 262.563 102.451 262.563L103.097 263.554H102.645L102.128 262.704H101.869V263.554H101.482V261.571H101.417Z" fill="white"/>
<path d="M105.035 263.554H104.648V262.492C104.648 262.209 104.648 262.138 104.648 262.138C104.583 262.209 104.648 262.209 104.454 262.492L103.808 263.554H103.485V261.571H103.872V262.634C103.872 262.917 103.872 262.988 103.872 262.988C103.937 262.917 103.872 262.917 104.066 262.634L104.712 261.571H105.1V263.554H105.035Z" fill="white"/>
<path d="M107.684 261.925H106.974V263.554H106.586V261.571H108.072V263.554H107.684V261.925Z" fill="white"/>
<path d="M110.269 263.554H109.881L109.752 263.2H109.041L108.912 263.554H108.524L109.235 261.571H109.623L110.269 263.554ZM109.493 262.279C109.429 262.067 109.429 261.996 109.429 261.996C109.429 261.996 109.429 262.067 109.364 262.279L109.17 262.846H109.687L109.493 262.279Z" fill="white"/>
<path d="M110.786 263.554V261.571H111.109V263.2H111.819V261.571H112.207V263.2H112.466V263.979H112.078V263.554H110.786Z" fill="white"/>
<path d="M114.533 263.554H114.145V262.492C114.145 262.209 114.145 262.138 114.145 262.138C114.081 262.209 114.145 262.209 113.952 262.492L113.305 263.554H112.918V261.571H113.305V262.634C113.305 262.917 113.305 262.988 113.305 262.988C113.37 262.917 113.305 262.917 113.499 262.634L114.145 261.571H114.533V263.554Z" fill="white"/>
<path d="M115.567 262.35H116.278V262.775H115.567V263.2H116.407V263.554H115.244V261.571H116.407V261.925H115.567V262.35Z" fill="white"/>
<path d="M118.151 262.775H117.376V263.554H116.988V261.571H117.376V262.421H118.151V261.571H118.474V263.554H118.151V262.775Z" fill="white"/>
<path d="M119.896 263.554H119.573V261.925H118.991V261.571H120.477V261.925H119.896V263.554Z" fill="white"/>
<path d="M121.705 263.625C121.188 263.625 120.865 263.271 120.865 262.563C120.865 261.855 121.188 261.5 121.705 261.5C122.222 261.5 122.61 261.855 122.61 262.563C122.61 263.271 122.222 263.625 121.705 263.625ZM121.705 261.855C121.447 261.855 121.188 262.067 121.188 262.563C121.188 263.059 121.382 263.271 121.705 263.271C121.963 263.271 122.222 263.059 122.222 262.563C122.222 262.067 121.963 261.855 121.705 261.855Z" fill="white"/>
<path d="M123.191 263.554V261.571H123.902C124.354 261.571 124.548 261.784 124.548 262.138C124.548 262.492 124.289 262.563 124.289 262.563C124.289 262.563 124.613 262.634 124.613 263.059C124.613 263.342 124.354 263.625 123.902 263.625H123.191V263.554ZM123.514 261.925V262.35H123.837C124.031 262.35 124.096 262.279 124.096 262.138C124.096 261.996 124.031 261.925 123.837 261.925H123.514ZM123.902 262.704H123.514V263.2H123.902C124.096 263.2 124.225 263.129 124.225 262.917C124.225 262.846 124.096 262.704 123.902 262.704Z" fill="white"/>
</svg>
