<svg width="557" height="320" viewBox="0 0 557 320" fill="none" xmlns="http://www.w3.org/2000/svg">
<rect width="557" height="320" rx="15" fill="#EE811C"/>
<mask id="mask0" mask-type="alpha" maskUnits="userSpaceOnUse" x="0" y="0" width="557" height="320">
<rect width="557" height="320" rx="15" fill="#EE811C"/>
</mask>
<g mask="url(#mask0)">
<path d="M123.622 182.491C121.607 182.895 119.088 184.007 116.468 185.22C113.445 186.534 110.422 187.949 107.802 188.353C107.903 188.656 108.004 188.96 108.105 189.263C110.825 188.757 113.949 187.443 116.871 186.028C119.39 184.916 121.808 183.805 123.824 183.4C128.358 182.491 139.946 178.043 147.704 174.202C147.704 173.798 147.603 173.494 147.603 173.191C139.946 177.032 128.156 181.48 123.622 182.491ZM140.449 173.09C135.714 174.909 130.877 176.83 127.35 178.043C125.637 178.649 124.025 179.155 122.917 179.458C120.7 180.065 118.282 181.176 115.964 182.288C115.359 182.592 114.755 182.895 114.15 183.198C112.437 184.108 110.724 184.916 109.112 185.523C108.407 185.725 107.702 185.927 107.097 186.129C107.198 186.433 107.298 186.736 107.399 187.039C108.004 186.938 108.709 186.736 109.414 186.433C111.127 185.826 112.84 184.916 114.654 184.007C115.259 183.703 115.863 183.4 116.468 183.097C118.685 181.985 121.103 180.873 123.219 180.267C124.428 179.963 126.04 179.458 127.753 178.852C131.28 177.639 136.217 175.718 140.852 173.899C143.17 172.989 145.286 172.18 147.301 171.372C147.2 171.068 147.2 170.765 147.1 170.462C144.984 171.372 142.767 172.18 140.449 173.09ZM132.187 172.888C130.172 173.696 128.156 174.404 126.645 175.011C124.63 175.718 123.118 176.224 122.211 176.426C119.793 177.234 117.475 178.346 115.46 179.458C114.654 179.963 113.747 180.469 113.042 180.873C111.732 181.682 110.422 182.491 109.011 183.097C108.105 183.501 107.298 183.805 106.492 184.007C106.593 184.31 106.694 184.613 106.795 184.916C107.601 184.714 108.508 184.411 109.414 184.007C110.926 183.299 112.236 182.491 113.546 181.682C114.352 181.176 115.158 180.671 115.964 180.267C117.879 179.256 120.196 178.043 122.514 177.335C123.42 177.032 124.831 176.628 126.947 175.92C128.559 175.415 130.474 174.606 132.59 173.798C136.923 172.18 142.162 170.159 146.697 168.946C146.596 168.744 146.596 168.541 146.495 168.339C146.697 168.541 146.898 168.339 147.1 167.834C142.263 169.047 136.721 171.169 132.187 172.888ZM129.567 170.462C128.156 171.068 126.947 171.574 125.839 171.877C125.033 172.18 124.227 172.484 123.521 172.686C122.816 172.989 122.111 173.191 121.506 173.393C119.39 174.202 117.375 175.112 114.956 176.628C114.05 177.234 113.143 177.841 112.337 178.447C111.228 179.256 110.12 180.065 108.911 180.772C108.105 181.176 107.097 181.682 105.989 182.086C106.089 182.389 106.089 182.693 106.19 182.996C107.399 182.592 108.508 182.086 109.314 181.581C110.624 180.873 111.732 180.065 112.84 179.256C113.647 178.649 114.553 178.043 115.46 177.436C117.778 176.021 119.692 175.011 121.808 174.303C122.413 174.101 123.017 173.899 123.824 173.595C124.529 173.292 125.335 173.09 126.141 172.787C127.249 172.382 128.459 171.877 129.869 171.372C134.605 169.451 141.155 166.823 146.999 166.419C146.999 166.115 146.999 165.812 146.898 165.408C141.054 165.913 134.404 168.541 129.567 170.462ZM127.955 167.632C126.846 168.137 125.839 168.541 125.033 168.845C123.219 169.451 121.909 170.058 120.801 170.462C118.483 171.372 116.468 172.484 114.453 173.899C113.445 174.606 112.639 175.314 111.732 176.021C110.825 176.83 109.818 177.639 108.709 178.447C108.105 178.852 106.996 179.559 105.686 180.166C105.686 180.469 105.787 180.873 105.787 181.176C107.298 180.57 108.508 179.761 109.213 179.256C110.422 178.447 111.43 177.639 112.337 176.729C113.143 176.021 113.949 175.314 114.956 174.606C116.871 173.292 118.886 172.18 121.103 171.271C122.211 170.866 123.622 170.361 125.335 169.653C126.141 169.35 127.149 168.946 128.257 168.44C132.691 166.52 139.442 163.69 146.092 164.094C146.394 164.094 146.596 164.094 146.898 164.094C146.898 163.791 146.898 163.487 146.898 163.083C146.596 163.083 146.394 163.083 146.092 163.083C145.689 163.083 145.185 163.083 144.782 163.083C138.434 163.184 132.187 165.913 127.955 167.632ZM126.746 164.7C125.839 165.105 125.033 165.509 124.327 165.711C122.715 166.318 121.304 166.924 120.196 167.43C117.778 168.541 115.763 169.653 114.05 171.068C113.042 171.877 112.236 172.686 111.43 173.494C110.624 174.303 109.818 175.112 108.709 176.021C107.903 176.729 106.795 177.436 105.686 178.144C105.686 178.548 105.686 178.852 105.686 179.256C106.996 178.548 108.306 177.639 109.314 176.83C110.422 175.92 111.329 175.011 112.135 174.202C112.941 173.393 113.747 172.585 114.654 171.877C116.367 170.563 118.181 169.451 120.599 168.44C121.708 167.935 123.118 167.328 124.73 166.823C125.436 166.52 126.242 166.217 127.149 165.711C131.179 163.892 137.93 160.758 145.185 162.072C145.79 162.173 146.495 162.274 147.1 162.274C147.1 161.971 147.1 161.668 147.2 161.264C146.697 161.264 146.092 161.163 145.487 161.061C144.178 160.859 142.868 160.657 141.558 160.657C135.411 160.758 130.172 163.184 126.746 164.7ZM27.5953 149.538C27.8976 150.246 28.1999 150.852 28.6029 151.56C28.7037 151.459 28.8045 151.459 29.006 151.358C29.2075 151.257 29.3083 151.156 29.5098 151.054C29.1068 150.347 28.7037 149.538 28.4014 148.73C28.0991 148.932 27.7968 149.235 27.5953 149.538ZM28.8045 148.224C29.3083 148.932 29.8121 149.639 30.3159 150.246C30.5174 150.044 30.8197 149.841 31.122 149.639C30.6182 149.033 30.1144 148.325 29.6106 147.618C29.3083 147.82 29.1068 148.022 28.8045 148.224ZM30.6182 147.213C30.719 147.314 30.8197 147.314 30.9205 147.416C31.5251 147.921 32.0289 148.325 32.6334 148.831C32.9357 148.73 33.1373 148.629 33.4395 148.426C33.5403 148.426 33.5403 148.426 33.6411 148.325C33.0365 147.82 32.4319 147.314 31.7266 146.708C31.3235 146.91 31.0212 147.112 30.6182 147.213ZM33.5403 145.899C34.2456 146.304 34.951 146.708 35.5556 147.112C35.6563 147.213 35.7571 147.314 35.9586 147.416L36.0594 147.517C36.4624 147.416 36.7647 147.213 37.1678 147.112C37.067 147.011 36.9662 147.011 36.8655 146.91C36.7647 146.809 36.6639 146.708 36.5632 146.607C36.4624 146.506 36.3617 146.405 36.1601 146.304C35.5556 145.899 34.951 145.495 34.2456 145.091C34.0441 145.394 33.8426 145.697 33.5403 145.899ZM18.0229 144.181C18.1236 144.585 18.2244 144.99 18.3252 145.394C18.6275 145.495 19.0305 145.596 19.4336 145.697C19.232 145.091 19.0305 144.585 18.9297 143.979C18.5267 143.878 18.2244 143.979 18.0229 144.181ZM21.8519 143.271C21.9526 143.979 22.1541 144.686 22.2549 145.394C22.5572 145.293 22.8595 145.293 23.1618 145.192C22.9602 144.484 22.7587 143.777 22.658 143.069C22.4564 143.069 22.1541 143.17 21.8519 143.271ZM15 138.925C15.8061 139.228 16.6122 139.531 17.5191 139.733C17.5191 139.936 17.5191 140.138 17.5191 140.34C17.8214 140.34 18.2244 140.441 18.5267 140.441C18.5267 140.34 18.5267 140.138 18.5267 140.037C19.0305 140.138 19.5343 140.34 20.0381 140.441C20.2397 140.441 20.4412 140.441 20.6427 140.441C21.5496 140.441 22.9602 140.542 24.2702 140.441C23.6656 140.34 23.061 140.138 22.3557 139.936C22.2549 139.936 22.0534 139.835 21.8519 139.835C19.9374 139.329 18.2244 138.925 16.6122 138.318C16.2092 138.318 15.8061 138.318 15.6046 138.318C15.2015 138.419 15 138.622 15 138.925ZM30.5174 139.43C30.4167 139.531 30.3159 139.632 30.1144 139.733C30.0136 139.835 29.9129 139.936 29.7113 140.037C29.6106 140.138 29.409 140.239 29.3083 140.239C29.2075 140.34 29.006 140.34 28.9052 140.441C28.8045 140.542 28.6029 140.542 28.5022 140.542C28.4014 140.542 28.4014 140.542 28.3007 140.542C28.3007 140.643 28.3007 140.744 28.0991 140.845C27.6961 141.25 26.7892 141.553 25.8824 141.856C25.8824 142.665 25.9831 143.574 26.0839 144.383C26.89 144.181 27.6961 144.08 28.4014 143.878C28.4014 143.878 28.4014 143.878 28.3007 143.777C28.1999 143.676 28.1999 143.676 28.0991 143.574C28.1999 143.574 28.3007 143.676 28.4014 143.676C28.5022 143.676 28.6029 143.676 28.6029 143.777C29.3083 143.574 30.0136 143.473 30.719 143.372C30.1144 143.17 29.5098 142.968 28.9052 142.766C29.006 142.766 29.1068 142.766 29.2075 142.766C32.0289 142.159 34.4472 142.463 36.6639 143.676C36.8655 143.777 36.9662 143.878 37.067 143.979C37.1678 144.08 37.2685 144.08 37.3693 144.181C37.9739 144.585 38.8807 144.99 39.9891 145.596C40.2914 145.394 40.5937 145.192 40.9967 144.99C39.6868 144.383 38.6792 143.777 37.9739 143.372C37.8731 143.271 37.7723 143.271 37.6716 143.17C37.47 143.069 37.3693 142.968 37.1678 142.867C35.0517 141.654 32.7342 141.25 30.2151 141.553C33.238 139.835 35.6563 139.531 37.9739 140.441C38.1754 140.542 38.3769 140.643 38.5784 140.744L38.78 140.845C39.5861 141.25 40.5937 141.755 41.8028 142.362C42.2059 142.564 42.7097 142.766 43.1127 143.069C43.415 142.867 43.6166 142.564 43.9188 142.362C43.3143 142.058 42.8105 141.755 42.3066 141.553C41.0975 140.946 40.0899 140.441 39.2838 140.037L39.0822 139.936C38.8807 139.835 38.6792 139.733 38.3769 139.632C36.3617 138.824 34.2456 138.824 31.8273 139.733C35.354 137.004 37.3693 136.802 39.2838 137.307C39.5861 137.409 39.8883 137.51 40.0899 137.611C41.299 138.015 42.7097 138.824 44.4227 139.733C44.9265 140.037 45.4303 140.239 45.9341 140.542C46.2364 140.34 46.5387 140.037 46.7402 139.835C46.0349 139.531 45.4303 139.127 44.8257 138.824C43.012 137.914 41.6013 137.105 40.3922 136.701C40.0899 136.6 39.7876 136.499 39.4853 136.398C37.5708 135.892 35.7571 136.196 33.5403 137.409C34.8502 136.196 35.9586 135.286 37.067 134.78C36.5632 134.679 36.0594 134.679 35.5556 134.578C34.1449 135.791 32.5327 137.307 30.5174 139.43ZM29.9129 137.206C27.4946 139.329 24.8747 138.925 21.348 138.318C21.2473 138.318 21.1465 138.318 21.0458 138.217C20.6427 138.217 20.3404 138.318 20.0381 138.318C19.0305 138.419 17.7206 138.419 16.8137 138.419C18.5267 138.824 19.6351 139.026 19.7358 139.026C20.2397 139.127 20.7435 139.228 21.2473 139.228C24.774 139.835 27.8976 140.34 30.6182 137.914C32.1296 136.499 33.4395 135.488 34.5479 134.679C34.1449 134.578 33.6411 134.477 33.238 134.477C32.3312 135.185 31.2228 136.095 29.9129 137.206ZM19.232 134.376C18.9297 134.376 18.7282 134.275 18.4259 134.275C19.3328 134.679 20.4412 134.882 21.1465 134.983C21.5496 135.084 22.3557 135.286 23.061 135.589C24.4717 135.589 25.8824 135.387 27.293 134.78C26.7892 134.679 26.1846 134.477 25.5801 134.275C23.4641 134.882 21.348 134.679 19.232 134.376ZM41.7021 134.578C42.9112 135.084 44.4227 135.791 46.2364 136.802C47.1432 137.307 48.2516 137.914 49.36 138.419C49.6623 138.217 50.0654 138.116 50.4684 137.914C49.0577 137.206 47.8486 136.499 46.7402 135.993C45.2288 135.185 44.0196 134.477 42.8105 134.073C42.3066 134.174 42.0044 134.376 41.7021 134.578ZM29.3083 135.084C28.0991 135.993 26.89 136.499 25.6808 136.6C26.1846 136.903 26.7892 137.105 26.89 137.307C27.8976 137.004 28.9052 136.499 29.9129 135.791C30.719 135.185 31.4243 134.578 32.1296 134.073C31.7266 133.972 31.3235 133.77 31.0212 133.669C30.5174 134.174 29.9129 134.578 29.3083 135.084ZM44.6242 133.264C44.5234 133.264 44.3219 133.365 44.2211 133.365C45.0272 133.669 45.9341 133.972 46.9417 134.376C47.5463 134.578 48.2516 134.882 48.957 135.084C50.3676 135.589 51.7783 136.095 52.9875 136.701C53.3905 136.499 53.7936 136.398 54.1966 136.196C52.6852 135.488 51.073 134.882 49.2593 134.275C48.5539 133.972 47.8486 133.77 47.244 133.568C46.6394 133.365 46.0349 133.163 45.531 132.961C45.2288 133.062 44.9265 133.163 44.6242 133.264ZM28.7037 132.86C28.1999 133.163 27.6961 133.466 27.1923 133.77C27.5953 133.972 27.8976 134.174 28.1999 134.376C28.5022 134.174 28.9052 133.972 29.2075 133.77C29.409 133.669 29.6106 133.466 29.8121 133.365C29.5098 133.163 29.1068 133.062 28.8045 132.86C28.9052 132.759 28.8045 132.86 28.7037 132.86ZM17.2168 133.264C17.4183 133.264 17.6198 133.264 17.8214 133.365C19.1313 133.466 20.4412 133.568 21.7511 133.568C20.2397 133.264 18.2244 132.759 17.5191 132.557C17.4183 132.557 17.4183 132.557 17.3175 132.557C17.116 132.456 17.0153 132.759 17.2168 133.264ZM23.6656 132.355C24.1694 132.557 24.8747 132.759 25.3785 132.961C26.0839 132.759 26.7892 132.456 27.5953 132.152C27.1923 131.95 26.6885 131.849 26.1846 131.647C25.2778 131.95 24.4717 132.152 23.6656 132.355ZM48.2516 131.445C51.476 132.253 54.8012 133.163 57.8241 134.78C58.2271 134.578 58.6302 134.477 59.0332 134.275L58.9325 134.174C56.0103 132.557 52.6852 131.546 49.5615 130.737C49.0577 130.939 48.6547 131.142 48.2516 131.445ZM22.3557 131.041C22.658 131.041 23.061 130.939 23.3633 130.939C23.1618 130.838 22.9602 130.737 22.7587 130.737C22.658 130.737 22.658 130.737 22.5572 130.737C22.4564 130.636 22.3557 130.838 22.3557 131.041ZM53.0882 128.513C54.8012 128.918 56.4134 129.524 57.9248 130.131C59.4363 130.737 61.0485 131.647 62.6607 132.86C63.0637 132.759 63.366 132.557 63.7691 132.456C61.9553 131.04 60.1416 130.03 58.3279 129.322C57.018 128.817 55.7081 128.311 54.2974 127.907C53.8943 128.109 53.4913 128.311 53.0882 128.513ZM58.1264 125.481C60.4439 126.391 63.0637 128.615 65.5828 131.748C65.8851 131.647 66.1874 131.546 66.5904 131.344C64.0713 128.21 61.5523 125.986 59.134 124.875C58.7309 125.077 58.4286 125.279 58.1264 125.481ZM65.7843 120.932C65.5828 122.246 65.482 123.662 65.5828 125.279C65.079 124.167 64.4744 123.055 63.9706 122.044C63.6683 122.246 63.4668 122.348 63.1645 122.55C63.8698 123.864 64.5752 125.279 65.2805 126.795C64.3736 125.38 63.366 124.167 62.3584 123.055C62.0561 123.257 61.7538 123.358 61.5523 123.561C63.366 125.481 65.1797 128.21 66.8927 131.445C67.2957 131.344 67.598 131.142 68.0011 131.041C67.7996 130.636 67.6988 130.131 67.4973 129.726C67.195 128.513 66.8927 127.402 66.7919 126.189C66.5904 124.066 66.6912 122.246 67.0942 120.528C66.5904 120.528 66.1874 120.73 65.7843 120.932ZM70.1171 118.709C69.5125 120.528 69.2102 122.55 69.4118 124.875C69.5125 126.492 69.8148 128.109 70.3186 129.828C70.6209 129.726 70.9232 129.625 71.2255 129.524C70.7217 127.907 70.4194 126.29 70.3186 124.774C70.1171 122.246 70.5202 120.023 71.3263 118.102C71.024 118.405 70.6209 118.507 70.1171 118.709ZM75.256 116.788C75.0545 116.889 74.8529 116.99 74.5506 117.091C73.6438 119.012 73.0392 121.236 73.14 123.864C73.14 125.38 73.4423 126.997 73.7445 128.615C74.0468 128.513 74.3491 128.412 74.6514 128.21C74.3491 126.694 74.1476 125.178 74.0468 123.763C73.9461 120.932 74.7522 118.507 75.8606 116.485C75.659 116.586 75.4575 116.687 75.256 116.788ZM79.488 115.07C77.9766 117.294 76.969 119.821 76.969 122.752C76.969 124.066 77.0697 125.582 77.2712 127.199C77.5735 127.098 77.8758 126.896 78.1781 126.795C77.9766 125.38 77.8758 123.965 77.8758 122.752C77.8758 119.214 79.5888 116.384 81.604 113.857C80.7979 114.261 80.0926 114.665 79.488 115.07ZM90.2696 106.882C89.4635 107.893 88.4559 108.904 87.4483 110.016C87.146 110.42 86.7429 110.723 86.4406 111.128C83.8208 113.958 80.9994 117.294 80.6972 121.539C80.5964 122.752 80.5964 124.066 80.6972 125.481C80.9994 125.279 81.3017 125.178 81.604 124.976C81.5033 123.763 81.5033 122.651 81.604 121.64C81.9063 117.698 84.6269 114.463 87.146 111.734C87.4483 111.33 87.8513 111.027 88.1536 110.622C89.665 109.005 91.0757 107.489 91.9826 105.973C92.1841 105.669 92.3856 105.265 92.4864 104.861C91.781 105.669 90.9749 106.276 90.2696 106.882ZM95.7108 102.334C95.61 103.547 95.4085 104.658 94.9047 105.568C94.1993 106.983 92.5871 108.601 90.9749 110.218L90.3704 110.824C87.549 113.655 84.7277 116.788 84.2238 120.427C84.1231 121.236 84.0223 122.246 84.0223 123.358C84.3246 123.156 84.7277 122.954 85.03 122.651C85.03 121.842 85.1307 121.135 85.2315 120.528C85.7353 117.192 88.3551 114.261 91.0757 111.532L91.6803 110.925C93.3932 109.207 95.0054 107.59 95.8115 105.973C96.4161 104.76 96.6176 103.142 96.7184 101.424C96.4161 101.828 96.1138 102.03 95.7108 102.334ZM98.9352 99.8066V99.9077C99.1367 102.131 99.439 104.153 98.8344 105.568C98.2298 106.983 96.5169 108.702 94.6024 110.521C91.8818 113.149 88.8589 116.081 88.1536 119.214C88.0528 119.719 87.9521 120.225 87.8513 120.831C88.2544 120.629 88.5566 120.326 88.9597 120.124C88.9597 119.821 89.0605 119.618 89.0605 119.416C89.665 116.485 92.6879 113.655 95.3077 111.128C97.2222 109.207 99.1367 107.489 99.7413 105.871C100.447 104.254 100.144 102.03 99.9428 99.7055C99.9428 99.5034 99.9428 99.3012 99.842 98.998C99.5398 99.3012 99.2375 99.6044 98.9352 99.8066ZM102.966 97.2796C102.966 98.1893 102.966 98.998 103.066 99.9077V100.009C103.167 102.131 103.268 104.254 102.663 105.77C102.563 105.973 102.462 106.175 102.361 106.478C101.555 107.792 100.245 109.207 98.5321 110.925L98.3306 111.027C96.2146 113.149 93.9978 115.474 92.7887 118.001C93.2925 117.698 93.7963 117.395 94.3001 117.192C95.5093 115.272 97.323 113.452 99.0359 111.734L99.2375 111.532C100.95 109.814 102.361 108.297 103.268 106.882C103.469 106.579 103.57 106.377 103.671 106.074C104.376 104.355 104.276 102.131 104.175 99.9077V99.8066C104.175 98.7958 104.074 97.785 104.074 96.8753C103.671 96.9763 103.268 97.0774 102.966 97.2796ZM107.399 95.8645C107.298 97.1785 107.198 98.4926 107.198 99.8066V99.9077C107.198 102.03 107.097 104.254 106.492 105.77C106.392 105.973 106.291 106.175 106.19 106.478C105.384 107.994 103.973 109.409 102.462 111.128L102.16 111.431C100.95 112.745 99.5398 114.16 98.4314 115.676C98.9352 115.575 99.439 115.373 99.9428 115.373C100.85 114.261 101.857 113.25 102.865 112.138L103.167 111.835C104.779 110.117 106.19 108.601 107.097 106.983C107.298 106.68 107.399 106.478 107.5 106.175C108.205 104.456 108.205 102.131 108.306 100.009V99.9077C108.306 98.5936 108.306 97.1785 108.508 95.8645C108.105 95.7634 107.702 95.8645 107.399 95.8645ZM132.187 94.6515C132.187 99.6044 133.295 104.557 135.613 109.814C136.318 111.431 136.923 112.745 137.628 114.059C140.349 119.012 140.147 123.156 139.946 127.199C139.845 128.817 139.744 130.434 139.946 132.051C140.147 134.477 140.953 136.802 142.364 139.127C145.487 143.979 145.185 147.82 144.984 151.257C144.883 152.571 144.782 153.885 144.984 155.098C145.084 156.311 145.588 158.231 147.402 159.646C147.402 159.242 147.503 158.838 147.503 158.433C146.495 157.321 146.092 156.108 145.991 154.997C145.891 153.885 145.991 152.571 145.991 151.257C146.193 147.82 146.495 143.676 143.271 138.52C141.86 136.398 141.155 134.174 140.953 131.95C140.852 130.434 140.953 128.918 140.953 127.301C141.155 123.358 141.356 118.81 138.535 113.655C137.83 112.442 137.225 111.128 136.52 109.51C134.404 104.658 133.295 100.009 133.194 95.4601C133.094 95.258 132.993 95.1569 132.993 95.0558C132.791 94.7526 132.59 94.6515 132.187 94.6515ZM135.613 94.6515C136.419 98.5936 137.93 102.94 140.349 108.5C140.55 109.005 140.752 109.51 140.953 110.016C141.356 110.925 141.759 111.936 142.162 112.846C144.48 118.001 143.976 122.55 143.573 126.593C143.371 128.109 143.271 129.524 143.271 130.939C143.271 133.365 143.976 135.69 145.487 138.116C145.588 138.217 145.588 138.318 145.689 138.419C145.487 137.712 145.487 136.802 145.387 135.892C144.581 134.174 144.178 132.557 144.178 130.939C144.178 129.625 144.379 128.21 144.48 126.694C144.984 122.55 145.487 117.799 142.968 112.442C142.565 111.532 142.162 110.622 141.759 109.712C141.558 109.207 141.356 108.702 141.155 108.196C138.636 102.435 137.124 97.9871 136.419 94.045C136.117 94.2472 135.915 94.4493 135.613 94.6515ZM138.535 92.2256C139.542 95.258 141.155 98.4926 142.868 102.435C143.573 103.85 144.278 105.366 144.984 106.983C145.185 106.781 145.387 106.478 145.689 106.175C145.084 104.76 144.379 103.344 143.775 102.131C141.961 98.1893 140.349 94.7526 139.341 91.7202C139.039 91.8212 138.736 92.0234 138.535 92.2256ZM141.155 90.305C141.86 91.518 142.666 92.832 143.472 94.2472C144.984 96.6731 146.697 99.6044 148.41 103.041C148.611 102.839 148.913 102.536 149.115 102.334C147.402 98.998 145.689 96.1677 144.278 93.8428C143.371 92.4277 142.565 91.1137 141.961 89.9007C141.658 89.9007 141.356 90.1029 141.155 90.305ZM141.155 147.921C141.255 147.416 141.457 147.011 141.457 146.506C141.658 148.325 141.356 150.044 141.155 151.459C140.752 154.188 140.449 156.513 142.666 158.332C138.535 157.423 134.807 158.029 131.683 159.04C135.714 156.311 139.845 152.368 141.155 147.921ZM124.529 97.1785C124.529 97.2796 124.529 97.3807 124.428 97.4817C124.327 97.6839 124.327 97.8861 124.227 98.1893C124.227 98.2904 124.227 98.2904 124.126 98.3915C124.126 98.5936 124.025 98.6947 124.025 98.8969C123.924 99.099 123.924 99.3012 123.824 99.5034C123.824 99.5034 123.824 99.5034 123.824 99.6044C123.723 99.8066 123.723 100.11 123.622 100.312C123.017 102.334 122.614 104.153 122.01 105.669C121.808 106.175 121.607 106.68 121.506 107.084C120.498 109.308 119.088 111.128 117.475 113.048C114.352 116.889 111.127 120.932 112.236 127.806C112.337 128.412 112.84 129.929 113.747 131.849C115.46 135.387 118.08 140.643 117.173 145.091C117.173 145.192 117.173 145.293 117.072 145.394C117.072 145.495 117.072 145.495 116.972 145.596V145.697C116.569 146.91 115.662 148.527 113.546 150.448C113.546 150.953 113.445 151.358 113.445 151.863C115.662 149.943 117.072 148.123 117.778 146.405C117.778 146.304 117.879 146.203 117.879 146.101C117.879 146 117.879 146 117.879 145.899C117.879 145.798 117.879 145.798 117.979 145.697C117.979 145.596 118.08 145.495 118.08 145.394C118.785 141.654 117.375 137.51 115.763 134.073C115.359 133.163 114.856 132.253 114.553 131.445C113.747 129.726 113.143 128.21 113.042 127.705C112.236 122.348 114.05 118.911 116.569 115.676C115.057 118.405 114.251 121.64 115.561 125.784C115.763 126.391 115.964 127.098 116.266 127.806C116.569 128.817 116.972 129.828 117.375 131.041C117.475 131.243 117.475 131.445 117.576 131.647C117.979 132.961 118.483 134.477 119.289 136.095C121.002 139.329 120.599 143.271 118.181 147.82C117.072 149.943 115.158 151.964 113.143 153.784C112.941 154.491 112.74 154.997 112.538 155.603C115.662 153.076 117.778 150.65 119.088 148.325C121.607 143.473 122.01 139.127 120.196 135.69C119.39 134.174 118.987 132.759 118.483 131.344C118.382 131.142 118.382 130.939 118.282 130.737C117.879 129.524 117.475 128.412 117.173 127.503C116.871 126.694 116.669 126.088 116.468 125.481C114.654 119.922 117.072 116.384 119.592 112.644C119.692 112.442 119.793 112.341 119.894 112.138C118.382 115.373 117.072 118.81 118.987 123.662C119.692 125.481 120.498 127.705 121.002 130.333C121.002 130.535 121.103 130.737 121.103 130.939C121.506 132.759 121.909 134.679 123.118 136.903C126.343 142.564 121.304 148.831 119.188 150.751C117.778 152.065 116.468 153.278 115.158 154.491C113.848 155.805 112.538 157.018 111.127 158.231C111.027 158.433 110.926 158.737 110.825 159.04C110.724 159.343 110.624 159.747 110.523 160.051C112.337 158.534 114.05 156.917 115.863 155.199C117.173 153.986 118.483 152.672 119.894 151.459C123.32 148.426 127.249 141.856 124.025 136.398C122.816 134.376 122.413 132.456 122.111 130.737C122.111 130.535 122.01 130.333 122.01 130.131C121.405 127.402 120.599 125.178 119.894 123.257C117.979 118.304 119.591 114.969 121.304 111.431C121.607 110.824 121.909 110.218 122.211 109.611V109.712C121.304 113.048 120.398 116.586 122.514 121.438C123.723 124.268 124.428 126.694 124.831 129.524L124.932 130.131C125.234 132.456 125.536 134.882 127.249 137.611C130.978 143.777 124.529 150.347 120.398 153.784C117.879 155.805 115.964 157.524 114.05 159.141C112.639 160.354 111.329 161.567 109.818 162.78C109.616 163.386 109.414 163.892 109.314 164.498C111.228 162.982 112.941 161.466 114.654 159.95C116.468 158.332 118.483 156.614 120.901 154.592C125.335 151.054 132.086 143.979 127.955 137.206C126.343 134.578 126.04 132.355 125.738 130.131L125.637 129.524C125.234 126.694 124.529 124.066 123.219 121.236C121.204 116.687 122.111 113.452 123.017 110.117C123.219 109.308 123.42 108.5 123.622 107.691C123.622 107.792 123.622 107.792 123.622 107.893C123.521 111.532 123.521 114.868 125.839 119.618C127.35 122.752 128.156 125.582 128.459 129.019V129.524C128.66 132.355 128.962 135.185 130.978 138.52C132.187 140.441 132.489 142.463 131.985 144.585C130.474 150.953 122.111 156.311 121.204 156.917C116.065 160.051 113.647 162.274 111.127 164.7C110.221 165.509 109.314 166.419 108.205 167.328C108.004 167.935 107.903 168.339 108.004 168.541C108.004 168.642 107.903 168.744 107.903 168.744C108.004 168.642 108.105 168.642 108.105 168.541C109.515 167.328 110.624 166.318 111.732 165.307C114.251 162.982 116.669 160.758 121.708 157.625C123.32 156.614 131.481 151.358 132.993 144.686C133.497 142.26 133.194 139.936 131.784 137.813C129.869 134.679 129.567 132.051 129.365 129.221V128.716C129.063 125.077 128.257 122.145 126.645 118.911C124.428 114.463 124.529 111.33 124.529 107.691C124.529 107.084 124.529 106.579 124.529 105.973C125.436 109.712 126.746 112.947 129.164 117.294C131.381 121.236 131.885 124.369 132.086 128.109V128.513C132.187 131.748 132.388 135.185 134.907 139.026C136.318 141.149 136.721 143.574 136.016 146C134.202 152.571 125.436 158.13 122.211 159.747C115.359 163.184 113.143 165.408 110.624 167.935C109.818 168.845 108.911 169.653 107.802 170.664C107.298 171.068 106.795 171.473 106.291 171.978C106.089 172.484 105.989 172.989 105.787 173.595C106.795 172.888 107.702 172.079 108.407 171.473C109.515 170.462 110.422 169.552 111.228 168.642C113.647 166.115 115.763 163.892 122.514 160.556C125.839 158.939 134.907 153.177 136.822 146.203C137.527 143.473 137.124 140.946 135.613 138.52C133.295 134.882 133.094 131.748 132.993 128.513V128.109C132.892 125.077 132.489 121.337 129.97 116.788C127.35 112.138 126.04 108.803 125.234 104.76C126.242 106.983 127.854 108.904 129.466 110.925C130.575 112.24 131.683 113.655 132.59 115.171C135.713 119.922 135.714 123.864 135.714 127.705C135.714 131.445 135.814 135.286 138.736 139.733C140.349 142.159 140.752 144.787 139.946 147.517C138.132 153.278 131.179 158.433 126.242 161.163C125.839 161.365 125.536 161.567 125.234 161.668C124.63 161.971 124.025 162.274 123.521 162.477C123.42 162.477 123.32 162.578 123.219 162.578C114.755 165.913 112.941 168.137 110.624 170.866C109.918 171.675 109.213 172.585 108.205 173.494C108.105 173.595 108.004 173.697 107.903 173.798C107.298 174.404 106.392 175.213 105.283 175.92C105.283 176.325 105.182 176.83 105.182 177.234C106.492 176.224 107.702 175.213 108.508 174.404C108.608 174.303 108.709 174.202 108.81 174.101C109.818 173.09 110.523 172.18 111.228 171.473C113.546 168.744 115.259 166.722 123.521 163.386C123.622 163.386 123.723 163.285 123.824 163.285C123.824 163.285 123.924 163.285 123.924 163.184C124.529 162.881 125.234 162.578 126.141 162.072C130.071 160.051 136.318 157.22 143.775 159.545C144.782 159.848 145.79 160.051 146.697 160.253C146.697 159.95 146.797 159.646 146.797 159.242C140.852 157.423 141.155 155.098 141.759 151.358C142.263 148.123 142.868 144.08 139.542 139.026C137.83 136.398 137.124 133.972 136.923 131.647C136.721 130.232 136.721 128.918 136.721 127.503C136.721 123.561 136.62 119.517 133.396 114.463C129.769 108.904 128.459 102.03 129.668 94.8537C129.164 95.0558 128.862 95.1569 128.66 95.1569C127.955 100.413 128.459 105.366 130.172 109.915C127.149 106.074 124.327 102.435 125.234 97.0774C125.738 95.258 126.343 93.2364 127.149 91.2148C127.048 90.6083 126.947 89.9007 126.846 89.3953C126.04 92.3266 125.234 94.8537 124.529 97.1785ZM95.3077 89.7996C95.5093 90.1029 95.7108 90.4061 95.9123 90.7094C96.0131 90.6083 96.0131 90.4061 96.1138 90.305C96.0131 89.9007 95.8115 89.4964 95.7108 88.991C95.61 89.1931 95.5093 89.4964 95.3077 89.7996ZM143.573 88.7888C143.976 89.2942 144.48 89.7996 144.984 90.4061C146.999 92.731 149.417 95.5612 151.836 99.5034C152.037 99.3012 152.239 98.998 152.541 98.7958C150.123 94.9547 147.704 92.1245 145.689 89.7996C145.185 89.2942 144.782 88.7888 144.379 88.2834C144.178 88.3845 143.875 88.5867 143.573 88.7888ZM96.3154 87.9802C96.4161 88.2834 96.6176 88.5867 96.8192 88.991C96.8192 88.991 96.8192 88.991 96.8192 88.8899C96.7184 88.3845 96.6176 87.9802 96.5169 87.4748C96.5169 87.6769 96.4161 87.778 96.3154 87.9802ZM145.689 87.3737C146.092 87.6769 146.394 87.9802 146.797 88.2834C149.014 90.1029 151.936 92.4277 154.758 95.9655C154.959 95.6623 155.161 95.4601 155.362 95.1569C152.541 91.6191 149.518 89.1931 147.301 87.4748C146.999 87.1715 146.697 86.9694 146.294 86.6661C146.193 86.9694 145.991 87.1715 145.689 87.3737ZM128.66 85.8575C128.761 85.9586 128.761 85.8575 128.761 85.6553C128.761 85.7564 128.761 85.7564 128.66 85.8575ZM148.712 84.9478C149.115 85.6553 149.619 86.2618 150.123 86.8683C150.828 87.5758 151.533 88.2834 152.44 89.0921C153.75 90.4061 155.261 91.8212 156.874 93.6407C157.075 93.3374 157.277 93.1353 157.478 92.832C155.967 91.1137 154.455 89.6985 153.145 88.3845C152.339 87.5758 151.533 86.8683 150.929 86.1607C150.425 85.5542 149.921 84.9478 149.518 84.2402C149.115 84.5434 148.913 84.7456 148.712 84.9478ZM84.3246 81.511C83.9216 82.1175 83.6193 82.724 83.5185 83.1283C83.8208 82.4207 84.2239 81.9153 84.6269 81.3089C84.5261 81.4099 84.4254 81.511 84.3246 81.511ZM131.381 80.9045V81.0056V80.9045ZM152.944 80.3991C152.742 80.6013 152.642 80.8035 152.44 81.0056C153.045 83.2294 153.952 85.251 155.362 86.8683C156.168 87.778 156.974 88.7888 157.881 89.7996C158.184 90.2039 158.587 90.5072 158.889 90.9115C159.09 90.6083 159.292 90.4061 159.493 90.1029C159.191 89.7996 158.889 89.3953 158.587 89.0921C157.68 88.0813 156.874 87.0704 156.068 86.1607C154.657 84.4424 153.649 82.3197 153.246 79.9948C153.045 80.197 153.045 80.298 152.944 80.3991ZM86.6422 81.4099C87.0452 80.7024 87.4483 80.197 87.8513 79.6916C87.8513 79.5905 87.9521 79.3883 87.9521 79.1862C87.146 80.298 86.7429 81.1067 86.6422 81.4099ZM125.536 84.2402C124.025 86.8683 122.917 88.991 122.111 91.0126C120.901 94.045 120.196 97.1785 119.692 99.8066C119.188 102.131 118.785 104.254 118.08 105.973C117.979 106.276 117.879 106.478 117.778 106.781C116.871 108.601 115.561 110.319 114.251 111.936L113.747 112.543C111.43 115.272 109.011 118.102 108.306 121.943C108.004 123.459 108.004 125.178 108.205 126.997C108.205 127.402 108.407 128.008 108.608 128.716C108.709 128.817 108.81 129.019 108.911 129.221C108.911 129.322 108.911 129.322 108.911 129.423C108.911 129.524 108.911 129.625 109.011 129.726C109.213 130.131 109.314 130.535 109.515 131.041L109.616 131.243C110.624 133.568 111.833 136.499 112.538 139.329C112.84 139.835 112.941 140.239 112.84 140.542C112.941 141.25 113.042 141.957 113.143 142.564C113.143 142.665 113.143 142.665 113.143 142.766C113.445 142.968 113.747 143.17 114.05 143.372C114.05 143.372 114.05 143.473 114.15 143.473C114.15 143.17 114.15 142.867 114.15 142.463C113.848 138.622 111.934 134.174 110.624 130.838L110.523 130.636C109.818 129.019 109.414 127.604 109.314 126.896C109.112 125.178 109.112 123.561 109.414 122.145C110.12 118.608 112.337 115.878 114.553 113.149L115.057 112.543C116.367 110.925 117.778 109.207 118.685 107.185C118.785 106.882 118.886 106.579 119.088 106.377C119.793 104.658 120.196 102.435 120.7 100.11C121.304 97.4817 121.909 94.4493 123.118 91.4169C123.924 89.4964 124.932 87.3737 126.443 84.7456C127.249 83.3305 128.257 81.7132 129.365 80.0959C129.365 79.8937 129.365 79.6916 129.265 79.3883C129.365 79.5905 129.466 79.6916 129.466 79.7926C129.668 79.4894 129.869 79.2872 129.97 78.984C129.869 78.5797 129.869 78.1754 129.668 77.67C128.056 79.9948 126.645 82.2186 125.536 84.2402ZM129.97 77.3667C130.172 77.771 130.272 78.0743 130.474 78.3775C130.675 78.0743 130.877 77.8721 131.078 77.5689C131.078 77.0635 130.978 76.6591 130.978 76.1537C130.575 76.5581 130.272 76.9624 129.97 77.3667ZM156.571 76.457C157.075 80.298 158.385 84.1391 160.4 86.9694C160.602 87.2726 160.803 87.5758 161.106 87.8791C161.307 87.5758 161.509 87.3737 161.71 87.0705C161.509 86.8683 161.408 86.6661 161.206 86.3629C159.09 83.4315 157.78 79.4894 157.377 75.5473C157.176 75.9516 156.874 76.2548 156.571 76.457ZM131.28 75.6483C131.481 76.0527 131.582 76.457 131.683 76.7602L131.784 76.6591C131.683 76.2548 131.683 75.7494 131.582 75.3451C131.381 75.4462 131.381 75.5473 131.28 75.6483ZM86.5414 78.6808C86.3399 78.8829 86.1383 79.1862 85.9368 79.3883C85.9368 79.4894 86.0376 79.5905 86.0376 79.6916C86.5414 79.1862 87.0452 78.7818 87.4483 78.3775C87.7505 78.0743 88.0528 77.8721 88.3551 77.67C88.7582 76.5581 89.1612 75.3451 89.665 74.1321C88.4559 76.1537 87.3475 77.8721 86.5414 78.6808ZM132.288 74.4354C132.489 74.7386 132.59 75.1429 132.691 75.4462L132.791 75.3451C132.691 74.9408 132.691 74.4354 132.59 74.0311C132.489 74.1321 132.388 74.2332 132.288 74.4354ZM122.514 82.724C122.111 83.4315 121.708 84.038 121.304 84.6445L121.204 84.8467C119.894 86.9694 118.584 88.991 117.576 91.1137C116.266 94.045 115.863 97.0774 115.46 99.8066V100.009C115.057 102.536 114.755 104.456 114.15 106.074C114.05 106.276 113.949 106.579 113.848 106.781C113.042 108.5 111.631 110.218 110.221 111.734L109.818 112.24C107.702 114.665 105.485 117.192 104.578 120.225C104.578 120.326 104.679 120.427 104.679 120.528C104.679 120.629 104.779 120.73 104.779 120.831C104.779 120.831 104.981 121.236 105.182 121.842V121.741C105.888 118.304 108.205 115.575 110.523 112.947L111.027 112.442C112.437 110.824 113.848 109.106 114.755 107.287C114.856 106.983 115.057 106.68 115.158 106.478C115.763 104.861 116.166 102.839 116.468 100.211V100.009C116.871 97.3807 117.274 94.3483 118.584 91.6191C119.491 89.5975 120.801 87.5759 122.111 85.5542L122.211 85.3521C122.614 84.7456 123.017 84.1391 123.42 83.4315C125.133 80.6013 127.451 76.9624 130.272 73.6267C130.172 73.3235 130.071 72.9192 129.97 72.5148C126.746 75.8505 124.428 79.6916 122.514 82.724ZM129.97 72.3127C130.071 72.717 130.272 73.0202 130.373 73.3235C130.575 73.1213 130.776 72.9192 130.978 72.6159C130.877 72.3127 130.776 71.9084 130.675 71.504C130.373 71.8073 130.172 72.1105 129.97 72.3127ZM160.4 72.3127C161.005 76.3559 162.214 80.5002 163.927 84.038C164.129 83.7348 164.33 83.4315 164.632 83.1283C163.02 79.4894 161.811 75.244 161.307 71.2008C161.005 71.6051 160.703 71.9084 160.4 72.3127ZM130.675 71.6051C130.877 71.9084 131.078 72.2116 131.179 72.4138C131.481 72.0094 131.885 71.7062 132.187 71.3019C132.086 70.8976 131.985 70.5943 131.885 70.19C131.481 70.6954 131.078 71.0997 130.675 71.6051ZM163.826 67.3597C163.625 67.663 163.423 68.0673 163.222 68.4716C163.322 68.6738 163.322 68.7749 163.423 68.977C164.532 72.5148 165.842 76.1537 167.252 79.4894C167.454 79.0851 167.756 78.7818 167.857 78.4786C166.547 75.3451 165.338 71.9084 164.33 68.5727C164.129 68.1684 164.028 67.7641 163.826 67.3597ZM128.559 69.1792C124.529 72.9192 121.607 77.8721 119.39 81.511C118.584 82.9261 117.778 84.1391 117.173 85.0488C116.871 85.4532 116.669 85.7564 116.367 86.1607C115.158 87.8791 113.949 89.4964 113.143 91.2148C112.538 92.4277 112.135 93.6407 111.934 94.8537C112.135 94.9547 112.337 95.1569 112.437 95.3591C112.337 95.3591 112.034 95.3591 111.833 95.3591C111.53 96.8753 111.43 98.3915 111.329 99.8066V100.009C111.127 102.536 110.926 104.456 110.321 105.973C110.221 106.175 110.12 106.478 110.019 106.68C109.213 108.297 107.802 109.814 106.291 111.431L105.888 111.835C104.578 113.25 103.268 114.767 102.16 116.283C102.26 116.586 102.462 116.889 102.663 117.192C103.772 115.474 105.182 113.958 106.593 112.442L106.996 112.037C108.508 110.42 109.918 108.702 110.825 107.084C110.926 106.781 111.127 106.478 111.228 106.276C111.833 104.658 112.034 102.637 112.337 100.009V99.8066C112.538 96.9763 112.84 94.1461 114.05 91.518C114.856 89.9007 115.964 88.2834 117.173 86.565C117.475 86.1607 117.677 85.8575 117.979 85.4532C118.685 84.5434 119.39 83.3305 120.196 81.9153C122.312 78.3775 125.234 73.5257 129.164 69.7857C129.769 69.2803 130.373 68.6738 131.179 67.9662C131.078 67.663 130.877 67.3597 130.776 67.0565C129.97 67.9662 129.164 68.6738 128.559 69.1792ZM91.5795 66.8543C91.781 66.6522 91.8818 66.45 92.0833 66.3489C91.8818 66.5511 91.781 66.7533 91.5795 66.8543ZM92.0833 66.3489C92.1841 66.2478 92.2849 66.1468 92.2849 66.0457C92.2849 66.1468 92.1841 66.2478 92.0833 66.3489ZM92.2849 66.1468C92.3856 66.0457 92.3856 65.9446 92.4864 65.9446C92.4864 65.9446 92.3856 66.0457 92.2849 66.1468ZM87.2467 76.457C88.9597 73.3235 90.0681 72.0094 91.0757 70.9986C91.8818 69.1792 92.7887 67.3597 93.7963 65.6414C91.2772 68.4716 89.1612 71.7062 87.2467 76.457ZM127.753 66.1468C126.544 66.9554 125.234 68.0673 123.824 69.4824C120.398 73.0203 117.677 77.67 115.763 81.1067C114.755 82.9261 113.848 84.4424 113.143 85.3521C112.84 85.7564 112.437 86.1607 112.135 86.565C110.926 88.0813 109.717 89.5975 108.81 91.1137C108.306 92.0234 108.004 93.0342 107.702 93.9439C107.903 94.045 108.105 94.045 108.306 94.1461C108.407 94.1461 108.508 94.2472 108.709 94.2472C108.911 93.3374 109.213 92.4277 109.717 91.6191C110.523 90.1029 111.732 88.6877 112.941 87.1715C113.243 86.7672 113.647 86.3629 113.949 85.9586C114.755 84.9478 115.662 83.4315 116.669 81.6121C118.685 78.0743 121.204 73.6267 124.63 70.19C125.94 68.8759 127.249 67.7641 128.358 66.9554C128.862 66.5511 129.365 66.2478 129.869 65.8435C129.668 65.5403 129.466 65.3381 129.265 65.136C128.66 65.5403 128.257 65.8435 127.753 66.1468ZM164.935 65.9446C166.547 68.8759 168.361 72.1105 170.074 75.5473C170.275 75.3451 170.577 75.1429 170.779 74.9408C168.965 71.504 167.151 68.1684 165.539 65.237C165.338 65.4392 165.136 65.6414 164.935 65.9446ZM130.373 64.2262C130.675 64.3273 131.078 64.4284 131.481 64.6306C131.078 64.4284 130.776 64.2262 130.373 64.2262C130.373 64.2262 130.373 64.1252 130.373 64.2262ZM131.078 63.5187C131.179 63.5187 131.179 63.5187 131.28 63.5187C131.28 63.6198 131.28 63.6198 131.078 63.5187ZM126.947 63.4176C125.738 64.5295 124.428 65.5403 122.917 66.45C121.607 67.2587 120.398 68.3705 119.088 69.7857C116.065 73.0202 113.747 77.3667 111.934 80.8035C110.724 83.0272 109.717 84.9478 109.011 85.7564C106.895 87.778 105.384 89.5975 104.376 91.2148C103.973 91.8212 103.772 92.4277 103.57 93.0342C103.873 93.1353 104.175 93.3374 104.477 93.4385C104.578 93.2364 104.578 93.0342 104.679 92.731C104.578 92.6299 104.376 92.4277 104.175 92.2256C104.376 92.3266 104.578 92.4277 104.679 92.5288C104.779 92.2256 104.981 91.9223 105.182 91.6191C106.19 90.0018 107.601 88.2834 109.616 86.2618C110.523 85.3521 111.53 83.5326 112.74 81.1067C114.553 77.67 116.77 73.4246 119.692 70.2911C121.002 68.8759 122.211 67.8651 123.32 67.1576C124.932 66.1468 126.343 65.0349 127.552 63.923C127.149 63.7208 126.947 63.923 126.947 63.923C126.947 63.923 127.149 63.6198 127.854 63.6198C127.955 63.5187 128.056 63.4176 128.156 63.3165C127.854 63.3165 127.552 63.2154 127.249 63.2154C127.249 63.4176 127.149 63.4176 126.947 63.4176ZM92.7887 65.5403C92.7887 65.6414 92.7887 65.6414 92.7887 65.5403C93.1917 65.136 93.7963 64.7316 94.8039 64.0241C95.0054 63.7208 95.1062 63.5187 95.3077 63.2154C94.4009 63.923 93.5948 64.7316 92.7887 65.5403ZM127.149 63.2154C127.753 63.1144 128.257 63.0133 128.66 63.0133C128.761 62.9122 128.761 62.8111 128.862 62.8111C128.459 62.71 128.056 62.71 127.653 62.6089C127.552 62.9122 127.35 63.1144 127.149 63.2154ZM167.353 63.3165C168.864 65.3381 170.376 67.663 171.887 70.4932C172.19 71.0997 172.593 71.8073 172.895 72.4138C173.096 72.2116 173.298 71.9084 173.6 71.6051C173.298 71.0997 173.096 70.5943 172.794 70.0889C171.283 67.1576 169.67 64.7316 168.159 62.71C167.756 62.9122 167.554 63.1144 167.353 63.3165ZM124.428 61.5981C122.816 63.5187 120.7 65.3381 118.181 66.7533C113.344 69.5835 110.019 76.457 107.5 81.4099C106.392 83.6337 105.485 85.4532 104.88 86.0596C103.066 87.6769 101.253 89.3953 99.9428 91.2148C100.245 91.4169 100.447 91.518 100.749 91.7202C101.958 90.0018 103.772 88.3845 105.485 86.7672C106.19 86.0596 107.097 84.3413 108.306 81.8143C110.624 77.1646 114.05 70.19 118.584 67.5619C121.103 66.1468 123.118 64.4284 124.73 62.5079C124.126 62.4068 124.025 61.9014 125.436 61.5981C125.536 61.4971 125.637 61.396 125.738 61.1938C125.335 61.4971 124.831 61.4971 124.428 61.5981ZM129.869 60.183H129.97C129.97 60.183 129.97 60.183 129.869 60.183ZM170.174 60.6884C171.585 62.3057 173.096 64.2262 174.306 66.7533C174.709 67.5619 175.112 68.2695 175.515 69.0781C175.716 68.7749 175.918 68.5727 176.22 68.2695C175.918 67.663 175.515 66.9554 175.212 66.3489C173.902 63.7208 172.391 61.6992 170.88 60.0819C170.577 60.183 170.376 60.3852 170.174 60.6884ZM126.846 59.7787C126.443 59.7787 126.141 59.7787 125.738 59.8798C125.637 60.0819 125.536 60.2841 125.436 60.3852C125.839 60.2841 126.242 60.0819 126.746 60.0819C126.746 59.9809 126.846 59.8798 126.846 59.7787ZM100.547 60.2841C96.1138 65.4392 92.2849 73.6267 90.2696 79.4894C90.2696 80.0959 90.4711 80.6013 90.6727 81.3089C90.8742 80.8035 90.9749 80.197 91.1765 79.5905C91.1765 79.4894 91.2772 79.3883 91.2772 79.2872C93.5948 72.717 97.8268 64.2262 102.361 59.5765C101.857 59.8798 101.253 60.0819 100.547 60.2841ZM106.795 59.0711C105.787 59.7787 104.88 60.5873 103.973 61.5981C99.1367 66.9554 95.207 75.9516 93.1917 81.1067C93.1917 81.2078 93.1917 81.3089 93.091 81.4099C92.8894 82.5218 92.4864 84.038 92.4864 85.6553C92.5871 85.4532 92.5871 85.251 92.6879 85.0488C92.7887 84.6445 92.9902 84.1391 93.1917 83.7348C93.2925 83.4315 93.494 83.0272 93.5948 82.6229C95.7108 76.8613 101.454 63.0133 108.205 59.2733C108.306 59.1722 108.407 59.1722 108.608 59.0711C108.306 59.0711 107.903 59.0711 107.399 59.0711C107.198 59.0711 106.996 59.0711 106.795 59.0711ZM121.808 59.5765C120.398 61.2949 118.382 63.1144 115.46 64.7316C110.422 67.5619 106.795 75.0419 104.175 80.5002C103.167 82.5218 102.26 84.3413 101.656 85.1499C101.353 85.4532 101.152 85.8575 100.85 86.1607C100.648 86.3629 100.447 86.6661 100.245 86.8683C99.5398 87.6769 98.8344 88.5867 98.2298 89.4964C98.3306 89.6985 98.5321 89.9007 98.6329 90.1029C98.7337 90.2039 98.7337 90.305 98.8344 90.305C99.5398 89.2942 100.245 88.3845 100.95 87.4748C101.152 87.2726 101.353 86.9694 101.555 86.7672C101.857 86.464 102.16 86.0596 102.462 85.7564C103.167 84.8467 103.973 83.1283 105.082 80.9045C107.5 75.8505 111.228 68.2695 115.964 65.5403C119.591 63.5187 121.909 61.1938 123.42 58.97C122.917 59.1722 122.413 59.3744 121.808 59.5765ZM126.443 58.5657C126.343 58.6668 126.343 58.869 126.242 58.97C126.645 58.869 127.048 58.7679 127.451 58.6668C127.451 58.5657 127.552 58.5657 127.552 58.4646C127.149 58.4646 126.846 58.4646 126.443 58.5657ZM117.576 59.2733C117.576 59.4755 117.576 59.6776 117.576 59.9809C117.475 59.7787 117.475 59.6776 117.375 59.4755C116.065 60.6884 114.553 61.6992 112.941 62.71C107.601 65.7424 103.469 74.4354 100.749 80.197C99.9428 81.9153 99.2375 83.3305 98.7337 84.3413C98.5321 84.7456 98.2298 85.0488 98.0283 85.4532C97.8268 85.7564 97.6253 86.0596 97.4237 86.2618C97.323 86.3629 97.323 86.464 97.2222 86.565C97.323 87.0705 97.4237 87.5758 97.5245 87.8791C97.726 87.4748 98.0283 87.0704 98.2298 86.6661C98.4314 86.3629 98.5321 86.1607 98.7337 85.8575C99.0359 85.4532 99.2375 85.1499 99.439 84.6445C100.044 83.6337 100.749 82.1175 101.555 80.3991C104.175 74.7386 108.205 66.2478 113.344 63.3165C115.561 62.0025 117.576 60.5873 119.088 58.869C118.785 59.0711 118.483 59.3744 118.181 59.5765C118.08 59.3744 118.181 58.6668 118.483 57.9592C118.282 58.5657 117.979 58.97 117.576 59.2733ZM107.702 58.4646C107.601 58.5657 107.5 58.5657 107.399 58.6668C108.105 58.6668 108.608 58.7679 108.911 58.869C109.213 58.6668 109.414 58.5657 109.717 58.3636C109.213 58.2625 108.709 58.1614 108.205 58.1614C108.004 58.2625 107.903 58.3636 107.702 58.4646ZM123.118 57.8582C122.917 58.2625 122.614 58.5657 122.312 58.97C123.017 58.4646 123.42 58.2625 124.126 57.9592C124.126 57.8582 124.227 57.7571 124.227 57.7571C123.924 57.7571 123.521 57.7571 123.118 57.8582ZM109.515 57.3528C109.213 57.5549 109.011 57.656 108.709 57.8582C109.112 57.8582 109.616 57.9592 110.12 58.1614C110.422 57.9592 110.724 57.7571 111.027 57.5549C110.825 57.4538 110.523 57.4538 110.221 57.4538C110.019 57.3528 109.818 57.3528 109.515 57.3528C109.515 57.3528 109.616 57.3528 109.515 57.3528ZM173.096 57.8582C174.406 59.1722 175.615 60.8906 176.724 63.1144C177.228 64.0241 177.631 64.9338 178.135 65.8435C178.336 65.5403 178.538 65.237 178.739 65.0349C178.336 64.3273 177.933 63.5187 177.53 62.71C176.422 60.3852 175.112 58.6668 173.701 57.2517C173.6 57.3528 173.399 57.656 173.096 57.8582ZM119.592 57.1506C119.592 57.1506 119.692 57.0495 119.592 57.1506C119.692 57.0495 119.592 57.0495 119.592 57.1506ZM119.692 57.0495C119.793 56.9484 119.894 56.9484 119.995 56.8474C119.894 56.9484 119.793 56.9484 119.692 57.0495ZM111.53 55.9376C111.631 56.342 111.631 56.6452 111.732 56.9484C111.934 56.7463 112.236 56.5441 112.437 56.443C112.236 56.1398 112.135 55.8365 111.934 55.5333C111.833 55.7355 111.631 55.8366 111.53 55.9376ZM120.599 55.7355C121.002 55.6344 121.405 55.6344 121.808 55.6344L121.909 55.5333C121.506 55.4322 121.204 55.4322 120.801 55.4322C120.801 55.4322 120.7 55.5333 120.599 55.7355ZM112.74 54.9268C112.74 55.3311 112.84 55.7355 112.84 56.1398C113.042 56.0387 113.143 55.8366 113.344 55.6344C113.243 55.3311 113.243 54.9268 113.143 54.5225C112.941 54.6236 112.84 54.8257 112.74 54.9268ZM176.119 54.8257C177.228 55.9376 178.235 57.4538 179.243 59.3744C179.747 60.3852 180.251 61.396 180.754 62.3057C180.956 62.0025 181.157 61.6992 181.359 61.396C180.956 60.5873 180.553 59.7787 180.049 58.97C179.041 56.9484 177.933 55.4322 176.825 54.2193C176.623 54.3203 176.321 54.6236 176.119 54.8257ZM117.375 54.6236C116.77 55.4322 115.964 56.342 115.158 57.0495C115.158 57.1506 115.057 57.1506 115.057 57.2517C115.057 57.2517 115.057 57.2517 115.057 57.1506C113.747 58.3636 112.135 59.5765 110.321 60.5873C104.276 64.0241 99.5398 74.6375 96.7184 81.1067C96.3154 81.9153 96.0131 82.724 95.7108 83.3305C95.5093 83.7348 95.3077 84.1391 95.1062 84.4424C94.9047 84.8467 94.7032 85.1499 94.6024 85.4532C94.4009 85.8575 94.3001 86.1607 94.0986 86.565C94.0986 86.6661 94.0986 86.6661 94.0986 86.7672C94.1993 87.1715 94.3001 87.5758 94.4009 87.9802C94.5016 87.778 94.6024 87.5759 94.7032 87.2726C94.9047 86.7672 95.1062 86.3629 95.4085 85.8575C95.4085 85.4532 95.5093 84.9478 95.5093 84.5434C95.5093 84.8467 95.61 85.1499 95.61 85.3521C95.7108 85.1499 95.8115 85.0488 95.9123 84.8467C96.1138 84.4424 96.3154 84.038 96.5169 83.6337C96.8192 83.0272 97.1215 82.2186 97.5245 81.4099C100.346 75.1429 104.981 64.6306 110.724 61.396C112.941 60.183 114.755 58.7679 116.367 57.1506C116.367 56.1398 117.274 55.3311 118.483 54.6236C118.685 54.3203 118.886 54.0171 119.088 53.7139C118.483 54.0171 117.879 54.3203 117.375 54.6236ZM121.909 53.2085C122.01 53.2085 122.01 53.2085 122.111 53.2085C122.111 53.1074 122.01 53.1074 121.909 53.2085ZM111.43 52.9052C111.43 52.7031 111.43 52.5009 111.43 52.2987C111.43 52.5009 111.43 52.7031 111.43 52.9052ZM179.142 51.6922C180.049 52.8041 180.956 54.0171 181.661 55.5333C182.165 56.5441 182.669 57.5549 183.173 58.4646C183.374 58.1614 183.576 57.8582 183.777 57.5549C183.374 56.7463 182.971 55.9376 182.568 55.129C181.762 53.5117 180.855 52.0966 179.847 50.9847C179.545 51.2879 179.344 51.4901 179.142 51.6922ZM182.064 48.5588C182.87 49.4685 183.475 50.5804 184.18 51.8944C184.684 52.9052 185.188 53.8149 185.692 54.8257C185.893 54.5225 186.095 54.2193 186.296 53.916C185.893 53.1074 185.49 52.3998 185.087 51.4901C184.382 50.075 183.676 48.9631 182.77 47.9523C182.467 48.1544 182.266 48.3566 182.064 48.5588ZM184.483 45.9307C185.49 46.9415 186.498 48.1544 187.304 49.5696C187.606 49.9739 187.808 50.4793 188.11 50.8836C188.312 50.5804 188.513 50.2771 188.715 49.9739C188.513 49.6706 188.312 49.3674 188.11 49.0642C187.203 47.5479 186.196 46.2339 185.087 45.2231C184.886 45.5263 184.684 45.7285 184.483 45.9307ZM186.8 43.3026C188.009 44.3134 189.319 45.6274 190.528 47.3458C190.528 47.3458 190.528 47.4469 190.629 47.4469C190.831 47.1436 191.032 46.9415 191.234 46.6382C189.924 44.9198 188.614 43.5047 187.405 42.4939C187.203 42.7972 187.002 43.1004 186.8 43.3026ZM188.715 40.4723C190.226 41.4831 191.637 42.6961 193.249 44.4144C193.45 44.1112 193.652 43.909 193.853 43.7069C192.241 41.9885 190.73 40.5734 189.218 39.5626C189.017 39.8658 188.916 40.1691 188.715 40.4723ZM189.823 37.2377C191.637 38.1475 193.652 39.4615 195.667 41.382C195.869 41.0788 196.07 40.8766 196.272 40.5734C194.257 38.6529 192.141 37.2377 190.024 36.2269C190.024 36.6312 189.924 36.9345 189.823 37.2377ZM190.428 34.1042C192.745 34.9129 195.063 36.1258 197.582 38.1475C197.682 37.8442 197.783 37.541 197.884 37.1366C195.264 35.115 192.846 33.9021 190.528 33.0934C190.528 33.3967 190.428 33.801 190.428 34.1042ZM190.73 30.8696C190.73 30.9707 190.73 31.0718 190.73 31.1729C193.047 31.6783 195.466 32.588 198.186 34.2053C198.186 33.801 198.186 33.3967 198.186 33.0934C195.566 31.5772 193.047 30.6675 190.831 30.1621C190.73 30.4653 190.73 30.6675 190.73 30.8696ZM191.032 28.3426V28.4437C193.249 28.6459 195.667 29.2524 198.186 30.3642C198.186 30.061 198.186 29.6567 198.287 29.3534C195.768 28.2416 193.45 27.7362 191.234 27.4329C191.234 27.8372 191.133 28.1405 191.032 28.3426ZM191.435 26.5232C193.551 26.6243 195.566 26.9275 197.481 27.534L198.186 27.7362C198.287 27.7362 198.388 27.7362 198.388 27.8372C198.388 27.4329 198.489 27.1297 198.489 26.9275C198.489 26.9275 198.489 26.9275 198.489 26.8264L197.783 26.6243C195.768 26.0178 193.652 25.6135 191.536 25.5124C191.435 25.9167 191.435 26.2199 191.435 26.5232ZM191.637 23.4908C191.536 23.794 191.536 24.0973 191.536 24.5016C193.853 24.5016 195.969 24.7037 197.682 25.1081C198.186 25.2091 198.589 25.3102 199.093 25.4113C199.194 25.1081 199.395 24.8048 199.496 24.5016C199.093 24.4005 198.69 24.2994 198.287 24.1983C197.985 24.8048 197.682 25.007 197.783 24.5016C197.783 24.4005 197.783 24.2994 197.884 24.0973C196.272 23.6929 194.357 23.4908 192.141 23.4908C191.838 23.4908 191.737 23.4908 191.637 23.4908ZM198.791 22.7832C199.194 22.8843 199.597 22.8843 199.899 22.8843C200 22.48 200 22.1767 200 21.8735C199.698 21.8735 199.496 21.7724 199.194 21.7724C199.093 22.1767 198.992 22.48 198.791 22.7832ZM195.063 22.3789C196.171 22.3789 197.078 22.48 197.783 22.6821C197.884 22.6821 197.985 22.6821 198.085 22.7832C198.186 22.48 198.287 22.1767 198.388 21.8735C198.287 21.8735 198.086 21.7724 197.985 21.7724C197.279 21.6713 196.473 21.5702 195.466 21.4692C195.365 21.6713 195.163 22.0756 195.063 22.3789ZM192.342 21.3681C192.141 21.7724 192.04 22.0756 191.939 22.3789C192.745 22.3789 193.551 22.3789 194.357 22.3789C194.357 22.0756 194.458 21.6713 194.559 21.3681C194.257 21.3681 193.954 21.3681 193.652 21.3681C193.148 21.3681 192.745 21.3681 192.342 21.3681ZM196.272 19.2454C196.171 19.4475 196.07 19.7508 196.07 19.9529C196.876 19.9529 197.582 19.9529 197.985 20.054C198.388 20.1551 198.791 20.1551 199.093 20.1551C199.194 19.8519 199.295 19.5486 199.395 19.2454C198.992 19.2454 198.489 19.1443 198.085 19.1443C197.682 19.0432 197.078 19.0432 196.373 19.0432C196.272 19.1443 196.272 19.1443 196.272 19.2454ZM193.35 19.0432C193.148 19.3465 193.047 19.7508 192.846 20.054C193.551 20.054 194.257 19.9529 194.861 19.9529C194.962 19.6497 195.063 19.3465 195.163 18.9421C194.66 19.0432 194.055 19.0432 193.35 19.0432ZM198.69 17.6281C198.892 17.6281 199.093 17.6281 199.194 17.6281C199.093 17.4259 198.992 17.3249 198.992 17.3249C198.892 17.4259 198.791 17.527 198.69 17.6281ZM194.458 16.7184C194.357 17.0216 194.156 17.3249 193.954 17.7292C194.559 17.7292 195.163 17.6281 195.667 17.6281C195.768 17.2238 195.869 16.9205 195.768 16.7184C195.466 16.7184 194.962 16.7184 194.458 16.7184ZM197.078 16.6173C196.977 16.9205 196.876 17.2238 196.776 17.6281C197.38 17.6281 197.783 17.6281 198.085 17.6281C198.287 17.6281 198.489 17.6281 198.69 17.6281C198.791 17.527 198.791 17.2238 198.791 16.6173C198.589 16.6173 198.388 16.6173 198.085 16.6173C197.884 16.6173 197.582 16.6173 197.179 16.6173H197.078ZM197.582 15.2022H197.682C197.985 15.2022 198.186 15.2022 198.287 15.2022C198.186 15 198.086 15 197.985 15C197.783 15 197.682 15.1011 197.582 15.2022Z" fill="white"/>
<path d="M70.0164 294.589C70.5202 296.004 71.427 297.823 72.5354 299.542C72.4347 299.238 72.2331 299.036 72.1324 298.733C71.427 297.116 70.6209 295.6 69.9156 294.184C69.9156 294.387 70.0164 294.488 70.0164 294.589ZM70.9232 290.04C71.8301 291.86 72.737 293.679 73.7446 295.701C75.8606 300.249 78.4804 303.181 81.1002 305C81.3018 304.899 81.5033 304.697 81.7048 304.495L81.8056 304.394C79.2865 302.574 76.7675 299.845 74.6514 295.296C73.6438 293.072 72.6362 291.051 71.6286 289.029C71.3263 289.333 71.1248 289.636 70.9232 290.04ZM73.3415 286.3C74.2484 288.221 75.256 290.141 76.1629 292.163C78.1781 296.408 80.3949 299.643 82.5109 302.069C82.4102 301.664 82.3094 301.26 82.2086 300.654C82.2086 300.451 82.1079 300.249 82.0071 300.047C80.2941 297.823 78.5812 295.195 76.969 291.758C75.9614 289.535 74.853 287.412 73.8453 285.39C73.7446 285.694 73.5431 285.997 73.3415 286.3ZM75.5583 282.156C77.5736 286.502 79.6896 290.95 81.7048 294.791C81.8056 294.488 82.0071 294.184 82.2086 293.78C80.1934 289.737 77.9766 285.289 75.9614 280.842C75.8606 281.347 75.7598 281.751 75.5583 282.156ZM65.1798 279.022C65.4821 279.528 65.6836 280.033 65.9859 280.64C66.2882 280.539 66.4897 280.336 66.792 280.235C66.4897 279.73 66.2882 279.224 65.9859 278.618C65.7843 278.82 65.4821 278.921 65.1798 279.022ZM68.8072 277.102C69.1095 277.708 69.311 278.214 69.6133 278.82C69.9156 278.719 70.2179 278.517 70.4194 278.416C70.1171 277.809 69.8148 277.203 69.6133 276.596C69.4118 276.799 69.1095 276.9 68.8072 277.102ZM72.2331 274.676C72.5354 275.484 72.9385 276.192 73.2408 277.001C73.5431 276.799 73.8453 276.697 74.0469 276.596H74.1476C73.7446 275.687 73.3415 274.878 73.0392 273.968C72.737 274.272 72.4347 274.474 72.2331 274.676ZM75.3568 271.542C75.8606 272.553 76.3644 273.564 76.8682 274.575L77.6743 276.293C79.8911 280.741 82.0071 286.3 83.5185 291.758C83.7201 291.455 83.9216 291.152 84.2239 290.748C82.6117 285.39 80.5964 280.033 78.4804 275.788L77.6743 274.069C77.0697 272.957 76.5659 271.846 76.0621 270.734C75.8606 271.037 75.5583 271.34 75.3568 271.542ZM78.2789 269.015C78.9842 270.329 79.7903 271.643 80.5964 273.059C81.3018 274.17 82.0071 275.383 82.6117 276.596C84.4254 279.73 85.7353 283.672 86.5414 287.715C86.8437 287.412 87.0452 287.109 87.3475 286.704C86.5414 282.863 85.2315 279.123 83.5185 276.091C82.8132 274.878 82.1079 273.665 81.5033 272.553C80.6972 271.138 79.8911 269.824 79.1858 268.51C78.8835 268.712 78.5812 268.813 78.2789 269.015ZM89.7658 268.712C91.6803 271.441 93.7963 273.564 95.5093 275.383C96.0131 275.889 96.5169 276.394 96.92 276.799C97.1215 276.596 97.4238 276.394 97.6253 276.192C97.2222 275.687 96.7184 275.181 96.2146 274.676C94.5017 272.957 92.4864 270.835 90.5719 268.207C90.2696 268.409 90.0681 268.51 89.7658 268.712ZM90.3704 274.373C91.1765 275.383 91.9826 276.293 92.6879 277.203C93.1917 277.91 93.6956 278.719 94.0986 279.528C94.3001 279.326 94.6024 279.123 94.8039 278.82C94.4009 278.012 93.9978 277.304 93.494 276.596C92.7887 275.687 91.9826 274.676 91.1765 273.665C89.8666 272.048 88.4559 270.329 87.146 268.409C86.8437 268.207 86.4407 268.207 85.8361 268.106C87.2468 270.532 88.859 272.553 90.3704 274.373ZM81.7048 267.903C82.914 269.824 84.1231 271.643 85.433 273.463C86.2391 274.676 87.0452 275.788 87.7506 276.9C88.9597 278.719 89.8666 280.943 90.3704 283.268C90.5719 282.964 90.8742 282.762 91.0757 282.459C90.4712 280.235 89.5643 278.214 88.4559 276.394C87.7506 275.282 86.9445 274.17 86.1384 272.957C85.03 271.34 83.8208 269.622 82.8132 267.903C82.6117 267.903 82.5109 267.903 82.3094 267.903C82.1079 267.903 81.9063 267.903 81.7048 267.903ZM92.3856 267.095C94.7032 270.532 97.1215 272.957 99.2375 274.777C99.439 274.575 99.7413 274.373 99.9428 274.17C97.9276 272.351 95.4085 269.925 93.1917 266.589C92.8895 266.792 92.5872 266.994 92.3856 267.095ZM95.8116 264.366C97.7261 267.903 99.7413 270.633 101.555 272.856C101.757 272.654 102.059 272.452 102.26 272.25C100.447 270.026 98.4314 267.196 96.5169 263.658C96.3154 263.961 96.0131 264.163 95.8116 264.366ZM99.1367 260.828C100.85 264.669 102.663 267.903 104.074 270.532C104.074 270.633 104.175 270.633 104.175 270.734C104.276 270.633 104.477 270.532 104.578 270.43C104.679 270.329 104.779 270.228 104.88 270.228C104.88 270.228 104.88 270.127 104.779 270.127C103.268 267.398 101.454 264.163 99.6405 260.12C99.5398 260.322 99.3383 260.626 99.1367 260.828ZM52.1814 257.088C52.0806 257.189 51.8791 257.29 51.7783 257.29C51.1738 259.008 50.4684 260.828 50.0654 262.849C50.1661 263.658 50.3677 264.568 50.4684 265.579C50.9723 262.243 52.0806 259.211 53.0883 256.481C52.786 256.785 52.3829 256.987 52.1814 257.088ZM102.462 256.886C102.563 257.29 102.764 257.593 102.865 257.998C103.57 259.615 104.175 261.232 104.779 262.647C105.686 264.77 106.492 266.792 107.198 268.611C107.5 268.409 107.702 268.308 108.004 268.106C107.299 266.286 106.492 264.366 105.586 262.243C104.981 260.727 104.276 259.211 103.671 257.593C103.47 257.088 103.268 256.481 103.066 255.976C102.966 256.279 102.764 256.582 102.462 256.886ZM55.2043 255.066V255.167C53.7936 259.615 52.2822 264.163 52.9875 269.723C53.2898 272.048 53.7936 274.069 54.4989 276.091C54.902 276.293 55.2043 276.394 55.6073 276.495C54.8012 274.373 54.1966 272.149 53.8944 269.723C53.189 264.265 54.7005 259.817 56.1111 255.572C56.3127 255.066 56.4134 254.662 56.6149 254.156C56.1111 254.46 55.6073 254.763 55.2043 255.066ZM105.888 252.741C106.291 253.651 106.694 254.561 106.996 255.471C107.198 255.976 107.399 256.481 107.601 256.886C109.112 260.626 110.221 263.759 110.926 266.69C111.228 266.488 111.531 266.387 111.732 266.185C111.027 263.355 109.918 260.221 108.508 256.582C108.306 256.077 108.105 255.572 107.903 255.167C107.601 254.258 107.198 253.348 106.795 252.438C106.694 252.236 106.694 252.034 106.593 251.933C106.291 252.135 106.089 252.438 105.888 252.741ZM59.8394 251.225C59.5371 251.528 59.134 251.832 58.8317 252.135C58.6302 252.842 58.4287 253.651 58.1264 254.46C56.9172 258.503 55.6073 262.748 56.4134 267.802C56.8165 270.43 57.6226 272.856 58.5294 275.282C58.731 274.979 58.8317 274.474 59.0333 273.968C58.2272 271.947 57.7233 269.925 57.3203 267.701C56.5142 262.849 57.7233 258.806 58.9325 254.763C59.3355 253.55 59.6378 252.236 59.9401 251.023C59.9401 251.023 59.8394 251.124 59.8394 251.225ZM47.9494 247.788C47.4456 247.889 47.3448 248.294 47.6471 248.496C47.8486 248.193 48.0501 247.991 48.3524 247.687C48.1509 247.788 48.0501 247.788 47.9494 247.788ZM48.957 247.586C48.6547 247.991 48.3524 248.395 48.1509 248.799C48.3524 248.799 48.5539 248.799 48.7555 248.799C48.8562 248.799 49.0578 248.698 49.36 248.698C49.4608 248.496 49.6623 248.294 49.7631 248.092C49.9646 247.788 50.1661 247.586 50.3677 247.283C49.8639 247.384 49.4608 247.485 48.957 247.586ZM51.073 247.081C50.7707 247.586 50.4684 248.092 50.1662 248.496C50.5692 248.496 50.9722 248.395 51.3753 248.294C51.6776 247.788 52.0806 247.182 52.3829 246.677C51.9799 246.879 51.4761 246.98 51.073 247.081ZM53.189 246.575C52.8867 247.182 52.5844 247.687 52.2822 248.294C52.6852 248.294 53.0883 248.193 53.3905 248.092C53.7936 247.485 54.0959 246.778 54.3982 246.171C53.9951 246.373 53.5921 246.474 53.189 246.575ZM55.305 245.969C55.0028 246.677 54.7005 247.384 54.3982 247.991C54.8012 247.889 55.1035 247.889 55.5066 247.788C55.9096 247.081 56.2119 246.272 56.5142 245.565C56.1111 245.666 55.7081 245.767 55.305 245.969ZM56.8165 245.464C56.5142 246.272 56.2119 246.98 55.8089 247.788C56.2119 247.687 56.5142 247.687 56.9172 247.586C57.3203 246.778 57.6226 245.868 57.9249 245.059C57.5218 245.16 57.2195 245.261 56.8165 245.464ZM58.5294 244.756C58.2272 245.565 58.0256 246.373 57.7233 247.182C57.7233 247.283 57.7233 247.283 57.6226 247.384C58.0256 247.283 58.3279 247.182 58.731 247.182C59.0333 246.171 59.3355 245.261 59.6378 244.352C59.3355 244.453 58.9325 244.655 58.5294 244.756ZM75.4575 245.969C75.3568 247.384 75.0545 248.698 74.853 250.113C74.4499 252.438 74.0469 254.763 74.1476 257.088C74.1476 257.795 74.2484 258.503 74.3492 259.211C74.6514 259.008 74.9537 258.907 75.256 258.705C75.1553 258.2 75.1553 257.593 75.1553 256.987C75.0545 254.763 75.4575 252.539 75.8606 250.214C76.0621 248.9 76.3644 247.485 76.4652 246.07C76.5659 245.464 76.5659 244.958 76.5659 244.453C76.1629 244.453 75.8606 244.352 75.6591 244.352C75.5583 244.756 75.4575 245.362 75.4575 245.969ZM78.9842 244.15C78.8835 245.059 78.7827 245.969 78.6819 246.98C78.5812 247.889 78.4804 248.698 78.3797 249.608C77.9766 252.135 77.6743 254.763 77.8758 257.391C78.1781 257.189 78.4804 257.088 78.7827 256.886C78.5812 254.561 78.9842 252.236 79.2865 249.709C79.3873 248.9 79.488 247.991 79.5888 247.081C79.6896 245.969 79.7903 244.958 79.8911 243.947C79.5888 244.048 79.2865 244.048 78.9842 244.15ZM60.7462 243.846C60.6455 244.048 60.6455 244.352 60.5447 244.554C60.3432 245.261 60.2424 246.07 60.0409 246.879C60.4439 246.778 60.7462 246.879 60.9477 246.879C61.1493 246.171 61.25 245.464 61.4515 244.756C61.5523 244.251 61.6531 243.846 61.7538 243.341C61.4516 243.442 61.1493 243.644 60.7462 243.846ZM82.6117 243.341C82.4102 244.756 82.1079 246.272 81.9063 247.991L81.8056 248.395C81.5033 250.72 81.201 253.045 81.201 255.369C81.5033 255.167 81.8056 255.066 82.1079 254.864C82.1079 252.741 82.4102 250.619 82.7124 248.496L82.8132 248.092C83.1155 246.171 83.317 244.554 83.6193 242.937C83.2163 243.139 82.914 243.24 82.6117 243.341ZM63.2653 242.532C63.0638 244.251 62.8622 245.969 62.4592 248.395C62.1569 250.012 61.7538 251.528 61.25 253.247C60.1416 257.088 59.0333 261.131 60.0409 265.781C60.1416 266.286 60.2424 266.69 60.3432 267.196C60.3432 267.095 60.4439 266.994 60.4439 266.994C60.5447 266.893 60.6455 266.792 60.7462 266.69C60.847 266.589 60.9477 266.589 61.1493 266.488C61.0485 266.185 61.0485 265.882 60.9477 265.68C60.0409 261.232 61.1493 257.391 62.1569 253.651C62.5599 252.034 63.0638 250.417 63.366 248.698C63.8699 246.07 64.0714 244.15 64.1721 242.431C64.1721 242.33 64.1721 242.229 64.1721 242.229C63.9706 242.128 63.5676 242.33 63.2653 242.532ZM72.2331 244.958C72.1324 246.677 71.7293 248.496 71.3263 250.214C70.9232 252.135 70.5202 254.055 70.4194 256.077C70.3187 257.896 70.4194 259.514 70.8225 261.03C71.1248 260.929 71.427 260.727 71.6286 260.626C71.3263 259.312 71.2255 257.795 71.3263 256.178C71.427 254.258 71.8301 252.337 72.2331 250.518C72.6362 248.799 73.0392 246.98 73.14 245.16C73.2408 244.15 73.2408 243.341 73.2408 242.532C72.9385 242.33 72.6362 242.128 72.3339 241.926C72.3339 242.633 72.3339 243.745 72.2331 244.958ZM86.6422 241.926C86.0376 243.947 85.5338 246.373 85.1307 249.001C84.9292 250.518 84.7277 252.034 84.6269 253.752C84.9292 253.651 85.2315 253.449 85.5338 253.348C85.6346 251.933 85.8361 250.518 86.0376 249.204C86.4407 246.272 87.146 243.745 87.7506 241.622C87.3475 241.724 86.9445 241.825 86.6422 241.926ZM66.0866 241.218C66.0866 242.633 65.9859 244.15 65.7843 246.171C65.5828 248.092 65.079 249.81 64.5752 251.731C63.5676 255.471 62.4592 259.312 63.6683 263.759C63.7691 264.062 63.8699 264.366 63.9706 264.669C64.2729 264.568 64.4744 264.366 64.7767 264.163C64.676 263.961 64.676 263.658 64.5752 263.456C63.366 259.312 64.3737 255.572 65.3813 252.034C65.8851 250.214 66.3889 248.294 66.5904 246.272C66.8927 244.048 66.8927 242.33 66.8927 240.915C66.6912 241.016 66.3889 241.016 66.0866 241.218ZM69.0087 243.947C68.908 246.07 68.3034 248.092 67.7996 250.113C66.792 253.752 65.7843 257.593 67.195 261.839C67.2958 262.142 67.3965 262.445 67.4973 262.849C67.7996 262.748 68.0011 262.546 68.3034 262.445C68.2026 262.142 68.1019 261.839 68.0011 261.636C66.6912 257.593 67.6988 254.156 68.7065 250.518C69.311 248.496 69.8148 246.373 70.0164 244.15C70.1171 242.937 70.1171 241.926 70.1171 241.016C69.8148 241.016 69.5126 240.915 69.2103 240.915C69.1095 241.724 69.1095 242.734 69.0087 243.947ZM91.378 239.904C90.0681 243.139 88.3551 247.687 87.9521 252.337C88.2544 252.236 88.5567 252.135 88.9597 252.034C89.4635 247.182 91.378 242.532 92.5872 239.399C92.1841 239.601 91.7811 239.803 91.378 239.904ZM95.1062 238.287C95.0055 238.691 94.9047 238.994 94.7032 239.399C93.5948 242.633 92.2849 246.778 92.0834 251.225C92.3856 251.124 92.6879 251.124 92.9902 251.023C93.1917 246.879 94.5017 242.835 95.5093 239.702C95.7108 238.994 95.9123 238.388 96.1139 237.781C95.9123 237.984 95.5093 238.085 95.1062 238.287ZM98.7337 236.771C98.5322 237.579 98.3306 238.489 98.0283 239.5C97.1215 242.734 96.1139 246.677 96.3154 250.821C96.6177 250.821 96.92 250.821 97.2222 250.821C97.0207 246.778 98.0283 243.038 98.8344 239.803C99.1367 238.792 99.3383 237.781 99.5398 236.872C99.5398 236.771 99.5398 236.67 99.6405 236.467C99.439 236.467 99.036 236.67 98.7337 236.771ZM102.059 235.457C102.059 235.558 102.059 235.659 102.059 235.76C101.958 236.872 101.656 238.085 101.454 239.298C100.749 242.532 100.044 246.373 100.648 250.518C100.95 250.518 101.253 250.518 101.555 250.518C100.85 246.474 101.656 242.734 102.361 239.399C102.663 238.085 102.865 236.872 103.066 235.76C103.066 235.558 103.167 235.254 103.167 235.052C102.764 235.254 102.462 235.356 102.059 235.457ZM105.384 234.446C105.384 234.648 105.384 234.85 105.384 235.052C105.283 236.366 105.182 237.68 104.88 239.095C104.376 242.532 103.873 246.373 105.082 250.619C105.485 250.619 105.787 250.619 106.089 250.619C104.779 246.373 105.384 242.633 105.888 239.197C106.089 237.781 106.291 236.366 106.392 235.052C106.392 234.749 106.392 234.446 106.392 234.143C105.989 234.244 105.686 234.345 105.384 234.446ZM108.608 233.536C108.608 233.738 108.608 234.041 108.608 234.244C108.709 235.76 108.508 237.175 108.407 238.691C108.105 242.431 107.702 246.778 110.221 251.832C110.825 253.045 111.43 254.359 111.934 255.875C113.143 258.907 113.949 261.839 114.251 264.669C114.553 264.467 114.856 264.366 115.158 264.163C114.755 261.333 113.949 258.503 112.74 255.572C112.135 254.055 111.531 252.741 110.926 251.528C108.508 246.677 108.81 242.734 109.112 238.893C109.213 237.276 109.415 235.861 109.314 234.345C109.314 234.041 109.314 233.738 109.213 233.435C109.314 233.334 109.011 233.435 108.608 233.536ZM111.934 232.828C112.034 233.334 112.034 233.839 112.135 234.345C112.236 235.659 112.236 236.973 112.135 238.388C112.034 242.128 111.934 246.07 114.856 250.922C116.871 254.359 118.08 258.301 118.282 262.445C118.584 262.243 118.886 262.041 119.188 261.839C118.987 259.615 118.584 257.391 117.879 255.369C119.088 257.088 120.398 258.705 121.204 260.525C121.304 260.423 121.405 260.322 121.506 260.322C121.607 260.221 121.808 260.12 121.909 260.019C121.002 258.2 119.692 256.481 118.483 254.763C117.476 253.449 116.468 252.034 115.561 250.619C112.74 245.969 112.84 242.229 112.941 238.59C113.042 236.771 113.042 234.85 112.74 232.93C112.538 232.626 112.236 232.727 111.934 232.828ZM115.259 232.222C115.662 234.041 115.662 235.861 115.662 237.68V238.085C115.662 241.016 115.863 244.554 118.181 248.9C120.297 253.146 121.506 256.178 122.211 259.716C122.514 259.514 122.816 259.312 123.017 259.109C122.312 255.673 121.103 252.64 118.987 248.496C117.072 244.655 116.669 241.622 116.569 238.085V237.68C116.569 235.861 116.569 234.041 116.166 232.121C115.863 232.222 115.561 232.222 115.259 232.222ZM148.208 202.201C147.805 202.403 147.2 202.808 146.394 203.313C145.084 204.021 143.271 205.031 141.659 206.143C138.535 208.165 135.915 210.49 133.194 212.916C131.885 214.028 130.575 215.24 129.265 216.352C125.94 219.183 121.909 225.247 124.831 230.605C125.94 232.626 126.242 234.345 126.443 236.063C126.443 236.265 126.544 236.467 126.544 236.67C127.048 239.298 127.653 241.42 128.358 243.24C130.071 248.092 128.358 251.225 126.645 254.46C126.343 254.965 126.04 255.572 125.738 256.178V256.077C126.746 252.842 127.753 249.608 125.839 244.857C124.73 242.128 124.126 239.702 123.924 237.074L123.824 236.568C123.622 234.951 123.521 233.334 122.816 231.514C122.715 231.616 122.614 231.717 122.413 231.818C122.312 231.818 122.111 231.919 121.909 231.919C122.514 233.637 122.614 235.153 122.816 236.67L122.917 237.175C123.219 239.904 123.824 242.33 124.932 245.16C126.645 249.608 125.738 252.539 124.831 255.774C124.63 256.481 124.327 257.29 124.126 258.099C124.126 257.998 124.126 257.998 124.126 257.896C124.327 254.46 124.428 251.225 122.413 246.677C121.103 243.644 120.398 240.915 120.196 237.579V237.074C120.095 235.457 119.995 233.738 119.491 231.919C119.188 231.919 118.886 231.919 118.584 232.02C119.088 233.839 119.188 235.457 119.289 237.175V237.68C119.491 241.117 120.095 243.947 121.506 247.081C123.42 251.427 123.32 254.46 123.118 257.896C123.118 258.301 123.118 258.705 123.017 259.109C125.234 257.492 127.048 256.178 128.66 255.066C129.164 254.46 129.668 253.752 130.272 253.146C133.396 249.507 136.62 245.868 135.814 239.298C135.714 238.691 135.31 237.276 134.504 235.457C132.993 232.02 130.675 226.966 131.683 222.619C131.683 222.518 131.683 222.417 131.784 222.316C131.784 222.215 131.784 222.215 131.885 222.114V222.013C132.59 219.991 135.008 217.06 141.558 213.219C138.233 215.948 135.008 219.486 134.807 223.327C134.807 223.428 134.807 223.63 134.807 223.731C134.807 224.136 134.807 224.54 134.807 224.944C135.008 228.684 136.62 232.93 137.83 236.164L137.93 236.366C138.535 237.883 138.938 239.298 138.938 240.005C139.039 241.724 138.938 243.24 138.736 244.554C138.132 247.081 136.721 249.204 135.008 251.124C135.512 250.922 136.117 250.72 136.721 250.417C138.031 248.698 139.039 246.879 139.543 244.655C139.845 243.24 139.946 241.622 139.845 239.803C139.744 239.095 139.341 237.579 138.736 235.962L138.636 235.76C137.426 232.626 135.814 228.482 135.714 224.843C135.714 224.439 135.714 224.034 135.714 223.731C135.714 223.63 135.714 223.428 135.714 223.327C135.814 219.385 139.744 215.544 143.371 212.916C140.651 215.746 138.233 219.789 138.837 224.439C138.837 224.641 138.837 224.843 138.938 225.045C138.938 225.349 138.938 225.652 139.039 225.955C139.543 229.089 140.752 232.828 141.659 235.962C141.759 236.366 141.86 236.771 142.062 237.175C142.565 238.792 142.868 240.106 142.868 240.814C142.968 242.532 142.868 244.048 142.565 245.261C142.364 246.373 141.86 247.384 141.356 248.294C141.961 247.889 142.465 247.485 143.069 246.98C143.271 246.474 143.371 245.969 143.573 245.464C143.875 244.15 143.976 242.532 143.875 240.713C143.875 239.702 143.271 237.883 142.968 236.872C142.868 236.467 142.767 236.063 142.565 235.659C141.659 232.626 140.449 228.785 139.946 225.753C139.946 225.45 139.845 225.247 139.845 224.944C139.845 224.742 139.845 224.439 139.744 224.237C139.139 219.486 142.062 215.443 144.883 212.713C142.868 215.645 141.255 220.092 142.868 225.45C142.968 225.652 142.968 225.854 143.069 226.157C143.17 226.359 143.17 226.663 143.271 226.865C144.077 229.897 145.387 234.244 146.193 237.781C146.294 238.287 146.394 238.691 146.495 239.095C146.596 238.186 146.697 237.175 146.797 236.164C145.991 232.93 144.984 229.19 144.178 226.663C144.077 226.46 144.077 226.157 143.976 225.955C143.875 225.753 143.875 225.45 143.775 225.247C142.162 219.688 144.178 215.342 146.294 212.511C144.984 215.645 144.178 220.396 146.999 226.561C147.1 226.764 147.1 226.865 147.2 227.067C147.2 226.258 147.2 225.45 147.2 224.641C145.487 219.789 145.991 215.948 146.999 213.32C146.898 212.006 146.898 210.692 146.797 209.479C144.178 210.692 139.643 213.017 136.016 215.847C133.497 217.767 131.885 219.587 131.179 221.406C131.179 221.507 131.078 221.609 131.078 221.71V221.811C131.078 221.912 131.078 221.912 130.978 222.013C130.978 222.114 130.877 222.215 130.877 222.316C130.071 225.854 131.381 229.897 132.691 233.132C133.094 234.041 133.497 234.85 133.799 235.659C134.504 237.276 135.008 238.792 135.109 239.298C135.714 244.352 133.799 247.586 131.381 250.619C132.892 247.991 133.799 245.059 132.691 241.016C132.489 240.41 132.288 239.803 132.086 238.994C131.784 238.085 131.482 236.973 131.179 235.861C131.078 235.659 131.078 235.457 130.978 235.254C130.575 233.94 130.172 232.525 129.466 230.908C127.955 227.774 128.459 224.034 130.978 219.688C133.396 215.443 138.736 211.905 142.565 209.681C144.077 208.771 145.487 207.963 146.697 207.457C146.697 207.154 146.596 206.75 146.596 206.446C145.387 207.053 143.775 207.963 142.062 208.973C135.814 212.713 132.086 215.948 130.071 219.385C127.451 223.933 126.947 228.078 128.559 231.413C129.265 232.93 129.668 234.244 130.071 235.558C130.172 235.76 130.172 235.962 130.272 236.164C130.575 237.276 130.978 238.388 131.179 239.298C131.381 240.005 131.582 240.713 131.784 241.218C133.295 246.575 130.877 249.911 128.358 253.348C128.257 253.449 128.156 253.651 128.056 253.752C129.668 250.72 130.978 247.485 129.365 242.835C128.761 241.016 128.056 238.893 127.653 236.366C127.653 236.164 127.552 235.962 127.552 235.76C127.249 233.94 126.947 232.121 125.839 229.998C122.917 224.54 127.955 218.677 130.071 216.858C131.481 215.645 132.791 214.533 134.101 213.421C136.822 210.995 139.341 208.771 142.364 206.75C143.775 205.84 145.286 205.031 146.495 204.324C146.495 204.223 146.495 204.223 146.495 204.122C146.596 204.122 146.797 204.021 147.1 204.021C147.906 203.515 148.611 203.212 149.014 202.909C149.316 202.706 149.619 202.504 149.921 202.302C149.921 201.999 149.921 201.595 149.82 201.19C149.115 201.595 148.712 201.898 148.208 202.201ZM147.906 199.068C147.402 199.371 146.697 199.876 145.891 200.281C144.48 201.089 142.767 202.1 141.255 203.212C138.736 205.031 136.721 206.649 134.504 208.367C132.691 209.883 130.776 211.399 128.358 213.219C125.94 215.038 122.715 217.97 121.002 221.305C121.002 221.406 121.103 221.507 121.103 221.609C121.204 222.013 121.304 222.316 121.405 222.72C122.816 219.183 126.242 215.948 128.862 214.027C131.381 212.208 133.194 210.591 135.109 209.075C137.225 207.356 139.24 205.638 141.759 203.919C143.271 202.909 144.984 201.898 146.294 201.089C147.1 200.584 147.805 200.179 148.41 199.775C148.712 199.573 149.014 199.371 149.216 199.169C149.216 198.865 149.115 198.461 149.115 198.057C148.712 198.562 148.309 198.764 147.906 199.068ZM147.604 195.934C146.999 196.338 146.394 196.743 145.689 197.147C144.077 198.158 142.364 199.27 140.852 200.382C139.442 201.494 138.333 202.403 137.225 203.414C134.706 205.537 132.388 207.558 127.451 210.389C126.443 210.995 122.514 213.32 119.491 216.757C119.592 217.161 119.692 217.464 119.793 217.869C122.816 214.23 127.249 211.703 127.854 211.298C132.892 208.468 135.21 206.345 137.729 204.223C138.837 203.313 139.946 202.302 141.255 201.291C142.666 200.179 144.48 199.068 145.991 198.158C146.697 197.754 147.402 197.248 147.906 196.945C148.107 196.743 148.41 196.642 148.611 196.439C148.611 196.136 148.51 195.732 148.51 195.328C148.41 195.429 148.007 195.732 147.604 195.934ZM147.402 192.801C146.999 193.003 146.596 193.306 146.294 193.609C144.379 194.923 142.162 196.338 140.651 197.652C139.543 198.562 138.736 199.371 137.83 200.179C135.411 202.504 133.295 204.526 126.746 207.457C124.932 208.266 121.506 210.186 118.382 212.815C118.483 213.118 118.584 213.421 118.685 213.724C121.808 210.995 125.335 209.075 127.048 208.266C133.698 205.233 135.915 203.212 138.333 200.786C139.139 199.977 140.046 199.169 141.054 198.259C142.465 197.046 144.681 195.631 146.596 194.317C146.999 194.014 147.402 193.811 147.805 193.508C148.007 193.306 148.309 193.205 148.51 193.003C148.51 192.598 148.51 192.295 148.41 191.891C148.208 192.295 147.805 192.497 147.402 192.801ZM144.883 188.05C142.968 188.555 141.255 189.566 140.349 190.071C139.139 190.779 138.233 191.588 137.225 192.295C136.419 193.003 135.613 193.609 134.706 194.216C132.791 195.429 130.877 196.338 128.761 197.147C127.753 197.551 126.343 197.956 124.63 198.562C123.824 198.865 122.917 199.169 121.808 199.573C119.188 200.584 115.863 201.898 112.236 202.605C112.337 203.01 112.337 203.313 112.437 203.515C116.166 202.706 119.491 201.494 122.111 200.483C123.219 200.078 124.126 199.674 124.932 199.472C126.645 198.865 127.955 198.461 129.063 198.057C131.28 197.248 133.295 196.338 135.21 195.024C136.217 194.418 137.023 193.71 137.83 193.104C138.736 192.396 139.643 191.588 140.852 190.88C141.659 190.375 143.271 189.465 145.084 188.96C146.193 188.656 147.1 188.454 147.906 188.353C146.898 188.757 145.79 189.263 144.48 189.869C142.968 190.577 141.457 191.588 140.248 192.396C139.139 193.205 138.333 194.014 137.527 194.822C136.721 195.631 135.915 196.338 135.008 196.945C133.396 198.158 131.482 199.169 129.265 200.078C128.156 200.483 126.846 200.988 125.234 201.494C124.529 201.696 123.824 201.999 122.917 202.403C121.103 203.212 118.685 204.122 115.964 204.829C116.065 205.132 116.166 205.436 116.266 205.739C118.987 205.031 121.405 204.021 123.32 203.212C124.227 202.808 125.033 202.504 125.637 202.302C127.149 201.797 128.559 201.291 129.668 200.786C132.086 199.876 134.001 198.865 135.714 197.551C136.721 196.844 137.426 196.136 138.333 195.328C139.139 194.62 139.946 193.811 141.054 193.003C142.162 192.093 143.674 191.183 145.084 190.577C145.79 190.274 146.495 189.869 147.2 189.667C144.782 191.284 142.263 193.104 140.752 194.418C140.651 194.519 140.55 194.62 140.449 194.721C139.442 195.631 138.736 196.439 138.031 197.147C135.714 199.674 134.101 201.494 126.04 204.425C125.94 204.425 125.839 204.526 125.738 204.526H125.637C125.033 204.728 124.327 205.031 123.521 205.537C121.808 206.345 119.592 207.255 117.173 207.862C117.274 208.165 117.375 208.468 117.476 208.771C117.879 208.67 118.181 208.569 118.483 208.468C118.181 208.67 117.879 208.872 117.576 209.075C117.677 209.378 117.778 209.681 117.879 209.984C119.793 208.569 121.808 207.356 123.622 206.548C124.025 206.345 124.327 206.244 124.63 206.042C125.234 205.739 125.839 205.537 126.242 205.335C126.343 205.335 126.443 205.233 126.544 205.233C134.706 202.302 136.52 200.281 138.837 197.754C139.543 196.945 140.248 196.237 141.155 195.328C141.255 195.227 141.356 195.125 141.457 195.125C143.069 193.71 146.394 191.385 148.712 189.869C148.712 189.768 148.712 189.667 148.712 189.566C148.712 188.96 148.712 188.151 148.611 187.241C147.402 187.443 146.193 187.645 144.883 188.05ZM145.185 186.23C143.472 186.433 141.659 187.14 140.449 187.747C139.139 188.353 138.031 189.162 136.923 189.869C136.117 190.375 135.31 190.981 134.404 191.487C132.187 192.801 130.272 193.609 128.257 194.216C127.653 194.418 127.048 194.62 126.343 194.822C125.637 195.024 124.932 195.328 124.025 195.53C123.017 195.833 121.808 196.338 120.398 196.743C117.879 197.652 114.755 198.764 111.631 199.573C111.631 199.674 111.631 199.775 111.732 199.876C111.833 200.078 111.833 200.281 111.833 200.483C115.057 199.674 118.181 198.562 120.7 197.551C122.111 197.046 123.32 196.642 124.327 196.338C125.133 196.035 125.94 195.833 126.645 195.631C127.35 195.429 127.955 195.227 128.559 195.024C130.675 194.418 132.59 193.508 134.907 192.194C135.814 191.689 136.721 191.082 137.527 190.577C138.535 189.869 139.643 189.162 140.953 188.555C142.062 187.949 143.775 187.241 145.387 187.14C146.697 187.039 147.704 187.14 148.51 187.241C148.51 186.938 148.51 186.635 148.51 186.331C148.007 186.23 147.402 186.23 146.697 186.23C146.092 186.23 145.689 186.23 145.185 186.23ZM140.449 185.422C139.039 186.028 137.729 186.736 136.419 187.443C135.613 187.848 134.907 188.353 134.101 188.757C132.288 189.667 130.071 190.779 127.753 191.385C126.947 191.588 125.436 191.992 123.521 192.598C122.01 193.104 120.095 193.71 118.08 194.418C115.863 195.227 113.344 196.035 110.825 196.844C110.926 197.147 111.027 197.45 111.127 197.754C113.647 196.945 116.166 196.136 118.382 195.328C120.398 194.62 122.312 194.014 123.723 193.508C125.738 192.902 127.149 192.497 127.955 192.295C130.272 191.689 132.59 190.577 134.504 189.667C135.31 189.263 136.117 188.757 136.923 188.353C138.233 187.645 139.442 186.938 140.852 186.331C142.666 185.624 144.178 185.321 145.487 185.422C146.697 185.523 147.704 185.826 148.41 186.129C148.41 185.826 148.41 185.422 148.41 185.118C147.603 184.815 146.697 184.613 145.588 184.512C145.387 184.512 145.185 184.512 144.984 184.512C143.573 184.411 142.162 184.815 140.449 185.422ZM140.55 183.198C138.837 183.703 137.225 184.512 135.512 185.321C134.907 185.624 134.303 185.826 133.799 186.129C131.582 187.14 129.365 188.05 127.249 188.555C126.04 188.858 124.529 189.263 122.917 189.768C119.491 190.779 114.755 192.497 110.221 194.115C110.12 194.115 110.019 194.216 109.818 194.216C109.918 194.519 110.019 194.822 110.12 195.125C110.221 195.125 110.321 195.024 110.523 195.024C115.057 193.407 119.793 191.79 123.219 190.779C124.932 190.274 126.343 189.869 127.552 189.667C129.668 189.162 132.086 188.151 134.303 187.14C134.907 186.837 135.512 186.635 136.117 186.331C137.83 185.523 139.442 184.815 141.054 184.31C142.968 183.703 144.581 183.602 145.891 183.905C146.999 184.209 147.906 184.613 148.611 185.118C148.611 184.714 148.611 184.411 148.611 184.007C147.906 183.602 147.1 183.299 146.193 182.996C145.689 182.895 145.185 182.794 144.581 182.794C143.069 182.49 141.86 182.693 140.55 183.198ZM133.396 183.299C130.877 184.31 128.559 185.22 126.746 185.523C123.32 186.129 115.662 188.555 108.911 191.284C109.011 191.588 109.112 191.891 109.213 192.194C115.964 189.566 123.521 187.039 126.947 186.534C128.962 186.23 131.28 185.22 133.799 184.209C138.233 182.389 142.868 180.57 145.891 181.783C146.898 182.187 147.805 182.794 148.41 183.4C148.41 182.996 148.41 182.591 148.41 182.187C147.805 181.783 147.1 181.378 146.294 180.974C145.487 180.671 144.581 180.469 143.674 180.469C140.55 180.469 136.923 181.884 133.396 183.299Z" fill="white"/>
</g>
<path d="M211.4 136C216.8 136 219.5 133.3 219.5 130C219.5 125.65 215.45 125.05 215.45 125.05V124.75C215.45 124.75 218.75 124.15 218.75 120.55C218.75 117.4 216.35 115 211.1 115H202.1V136H211.4ZM213.8 129.4C213.8 130.45 213.05 131.2 211.43 131.2H207.5V127.6H211.4C213.05 127.6 213.8 128.35 213.8 129.4ZM211.1 119.8C212.45 119.8 213.05 120.4 213.05 121.3C213.05 122.2 212.45 122.8 211.1 122.8H207.5V119.8H211.1ZM226.987 125.5C226.987 121.3 228.937 119.35 231.787 119.35C234.637 119.35 236.587 121.3 236.587 125.5C236.587 129.7 234.637 131.65 231.787 131.65C228.937 131.65 226.987 129.7 226.987 125.5ZM242.287 125.5C242.287 118.6 238.237 114.55 231.787 114.55C225.337 114.55 221.287 118.6 221.287 125.5C221.287 132.4 225.337 136.45 231.787 136.45C238.237 136.45 242.287 132.4 242.287 125.5ZM254.738 114.55C248.438 114.55 244.388 118.6 244.388 125.5C244.388 132.4 248.438 136.45 254.888 136.45C260.438 136.45 263.288 132.85 263.288 132.85L260.588 129.4C260.588 129.4 258.788 131.65 255.338 131.65C252.188 131.65 250.088 129.55 250.088 125.35C250.088 121.3 252.038 119.35 254.738 119.35C256.538 119.35 257.588 120.4 257.588 121.75C257.588 122.65 257.438 123.1 257.438 123.1H262.988C262.988 123.1 263.288 122.2 263.288 121C263.288 117.55 260.138 114.55 254.738 114.55ZM278.437 136H283.837V115H265.837V136H271.237V119.8H278.437V136ZM287.444 115V136H292.844V129.7H295.394C301.844 129.7 304.544 127 304.544 122.35C304.544 117.7 301.844 115 295.394 115H287.444ZM295.544 119.8C297.794 119.8 298.844 120.82 298.844 122.35C298.844 123.85 297.794 124.9 295.544 124.9H292.844V119.8H295.544ZM312.038 125.5C312.038 121.3 313.988 119.35 316.838 119.35C319.688 119.35 321.638 121.3 321.638 125.5C321.638 129.7 319.688 131.65 316.838 131.65C313.988 131.65 312.038 129.7 312.038 125.5ZM327.338 125.5C327.338 118.6 323.288 114.55 316.838 114.55C310.388 114.55 306.338 118.6 306.338 125.5C306.338 132.4 310.388 136.45 316.838 136.45C323.288 136.45 327.338 132.4 327.338 125.5ZM337.539 124.3C335.919 126.7 335.589 127.6 335.589 127.6H335.289C335.289 127.6 335.589 126.7 335.589 124.3V115H330.189V136H335.739L342.039 126.7C343.659 124.3 343.989 123.4 343.989 123.4H344.289C344.289 123.4 343.989 124.3 343.989 126.7V136H349.389V115H343.839L337.539 124.3ZM368.598 130.3C368.598 125.95 364.548 125.2 364.548 125.2V124.9C364.548 124.9 368.148 124.3 368.148 120.55C368.148 117.55 365.148 114.55 360.228 114.55C355.098 114.55 352.398 117.25 352.398 120.1C352.398 121.15 352.698 121.9 352.698 121.9H358.098C358.098 121.9 357.948 121.6 357.948 121.15C357.948 119.95 358.698 119.2 360.198 119.2C361.548 119.2 362.448 120.1 362.448 121.15C362.448 122.2 361.548 123.1 360.198 123.1H357.348V127.9H359.898C361.998 127.9 362.898 128.8 362.898 129.7C362.898 130.75 361.998 131.65 359.898 131.65C356.448 131.65 354.348 129.1 354.348 129.1L351.498 132.85C351.498 132.85 354.648 136.45 360.228 136.45C365.598 136.45 368.598 133.45 368.598 130.3ZM380.594 136C385.994 136 388.694 133.3 388.694 130C388.694 125.65 384.644 125.05 384.644 125.05V124.75C384.644 124.75 387.944 124.15 387.944 120.55C387.944 117.4 385.544 115 380.294 115H371.294V136H380.594ZM382.994 129.4C382.994 130.45 382.244 131.2 380.624 131.2H376.694V127.6H380.594C382.244 127.6 382.994 128.35 382.994 129.4ZM380.294 119.8C381.644 119.8 382.244 120.4 382.244 121.3C382.244 122.2 381.644 122.8 380.294 122.8H376.694V119.8H380.294ZM396.631 119.8H405.931V115H391.231V136H405.931V131.2H396.631V127.9H404.281V123.1H396.631V119.8ZM406.37 131.2V140.05H411.77V136H423.17V140.05H428.57V131.2H426.02V115H410.87V118.45C410.87 127.3 408.17 131.2 408.17 131.2H406.37ZM420.62 119.8V131.2H413.57C413.57 131.2 415.97 127.9 415.97 119.8H420.62ZM436.066 119.8H445.366V115H430.666V136H445.366V131.2H436.066V127.9H443.716V123.1H436.066V119.8ZM460.954 136H466.354V115H460.954V123.7H453.454V115H448.054V136H453.454V128.5H460.954V136ZM482.854 136H488.254V115H482.854V123.7H475.354V115H469.954V136H475.354V128.5H482.854V136ZM515.854 115H510.454V136H515.854V115ZM499.054 136C505.504 136 508.204 133.3 508.204 128.65C508.204 124 505.504 121.3 499.054 121.3H497.254V115H491.854V136H499.054ZM497.254 131.2V126.1H499.204C501.454 126.1 502.504 127.15 502.504 128.65C502.504 130.18 501.454 131.2 499.204 131.2H497.254ZM524.867 119.8H534.167V115H519.467V136H534.167V131.2H524.867V127.9H532.517V123.1H524.867V119.8ZM214.7 166H220.1V145H202.1V166H207.5V149.8H214.7V166ZM231.657 154.3C230.037 156.7 229.707 157.6 229.707 157.6H229.407C229.407 157.6 229.707 156.7 229.707 154.3V145H224.307V166H229.857L236.157 156.7C237.777 154.3 238.107 153.4 238.107 153.4H238.407C238.407 153.4 238.107 154.3 238.107 156.7V166H243.507V145H237.957L231.657 154.3ZM257.465 149.8H263.315V145H246.215V149.8H252.065V166H257.465V149.8ZM266.026 145V166H271.426V159.7H273.976C280.426 159.7 283.126 157 283.126 152.35C283.126 147.7 280.426 145 273.976 145H266.026ZM274.126 149.8C276.376 149.8 277.426 150.82 277.426 152.35C277.426 153.85 276.376 154.9 274.126 154.9H271.426V149.8H274.126ZM295.87 144.55C289.57 144.55 285.52 148.6 285.52 155.5C285.52 162.4 289.57 166.45 296.02 166.45C301.57 166.45 304.42 162.85 304.42 162.85L301.72 159.4C301.72 159.4 299.92 161.65 296.47 161.65C293.32 161.65 291.22 159.55 291.22 155.35C291.22 151.3 293.17 149.35 295.87 149.35C297.67 149.35 298.72 150.4 298.72 151.75C298.72 152.65 298.57 153.1 298.57 153.1H304.12C304.12 153.1 304.42 152.2 304.42 151C304.42 147.55 301.27 144.55 295.87 144.55Z" fill="white"/>
<path d="M240.823 271.216C243.035 271.216 244.061 272.321 244.061 274.021C244.061 275.721 243.035 276.826 240.823 276.826H237.665V267.816H243.429V269.431H239.402V271.216H240.823ZM240.823 272.831H239.323V275.211H240.823C241.85 275.211 242.245 274.786 242.245 274.021C242.245 273.256 241.85 272.831 240.823 272.831Z" fill="white"/>
<path d="M248.326 271.471H251.563V273.086H248.326V275.211H252.195V276.826H246.667V267.816H252.195V269.431H248.326V271.471Z" fill="white"/>
<path d="M258.197 276.826H256.538V269.431H254.09V267.816H260.645V269.431H258.197V276.826Z" fill="white"/>
<path d="M269.41 276.826H267.594L267.041 275.126H263.724L263.172 276.826H261.355L264.435 267.816H266.251L269.41 276.826ZM265.699 271.046C265.383 270.111 265.383 269.686 265.383 269.686H265.225C265.225 269.686 265.225 270.111 264.909 271.046L264.119 273.426H266.409L265.699 271.046Z" fill="white"/>
<path d="M273.99 269.431C273.99 275.721 272.806 276.996 271.305 276.996C270.832 276.996 270.437 276.826 270.437 276.826V275.296C270.437 275.296 270.674 275.381 270.911 275.381C271.779 275.381 272.411 274.701 272.411 269.431V267.816H278.097V276.826H276.438V269.431H273.99V269.431Z" fill="white"/>
<path d="M288.205 276.826H286.388L285.836 275.126H282.519L281.966 276.826H280.15L283.23 267.816H285.046L288.205 276.826ZM284.572 271.046C284.256 270.111 284.256 269.686 284.256 269.686H284.098C284.098 269.686 284.098 270.111 283.782 271.046L282.993 273.426H285.283L284.572 271.046Z" fill="white"/>
<path d="M297.602 276.826H295.944V272.151C295.944 271.046 296.101 270.706 296.101 270.706H295.944C295.786 271.046 295.786 271.046 295.075 272.151L292.153 276.826H290.337V267.816H291.995V272.491C291.995 273.596 291.837 273.936 291.837 273.936H291.995C292.153 273.596 292.153 273.596 292.864 272.491L295.786 267.816H297.602V276.826ZM295.075 264.416H296.496C296.496 265.861 295.628 266.796 293.969 266.796C292.39 266.796 291.442 265.861 291.442 264.416H292.864C292.864 265.096 293.259 265.521 293.969 265.521C294.68 265.606 295.075 265.181 295.075 264.416Z" fill="white"/>
<path d="M305.973 277.081H304.314V276.316C301.787 276.231 300.287 274.616 300.287 272.236C300.287 269.856 301.787 268.241 304.314 268.156V267.306H305.973V268.156C308.421 268.241 310 269.856 310 272.236C310 274.616 308.5 276.231 305.973 276.316V277.081ZM304.314 274.701V269.771C302.893 269.856 302.024 270.706 302.024 272.236C302.024 273.681 302.814 274.616 304.314 274.701ZM305.973 269.686V274.616C307.394 274.531 308.184 273.681 308.184 272.151C308.184 270.621 307.394 269.771 305.973 269.686Z" fill="white"/>
<path d="M226.135 267.731C224.319 264.246 221.397 261.696 217.844 260.591C210.421 258.297 202.682 262.886 200.549 270.791C198.417 278.696 202.682 287.025 210.026 289.405C211.289 289.83 212.632 290 213.895 290C216.185 290 218.475 289.405 220.608 288.13C223.845 286.175 226.214 283.03 227.241 279.206C228.346 275.296 227.952 271.301 226.135 267.731ZM226.056 278.781C213.895 276.571 206.867 280.99 204.024 283.37C203.866 283.115 203.708 282.86 203.471 282.605C205.682 280.565 213.579 274.446 226.451 275.806C226.451 276.826 226.293 277.846 226.056 278.781ZM204.893 284.475C207.499 282.265 214.211 278.186 225.583 280.14C225.267 281.075 224.793 281.925 224.319 282.69C214.369 280.395 208.525 283.03 205.603 285.155C205.367 284.985 205.13 284.73 204.893 284.475ZM218.475 274.531C221.239 271.471 224.714 270.961 225.977 270.961C226.293 272.151 226.53 273.341 226.53 274.531C223.608 274.106 220.844 274.191 218.475 274.531ZM213.974 261.441C215.159 261.441 216.343 261.611 217.449 261.951C220.686 262.971 223.371 265.266 224.951 268.411C225.109 268.751 225.267 269.091 225.425 269.431C223.529 269.601 219.423 270.536 216.422 274.786C213.816 275.296 211.605 276.061 209.71 276.911C210.026 275.636 210.579 274.531 211.052 273.596C211.447 273.681 211.842 273.681 212.237 273.681C214.132 273.681 215.948 272.916 217.133 271.386C218.791 269.431 219.265 266.711 218.475 264.076L218.317 263.651L217.923 263.566C215.396 262.971 212.869 263.736 211.289 265.606C209.71 267.476 209.157 270.196 209.947 272.831C209.236 274.106 208.604 275.721 208.209 277.591C205.603 278.951 203.787 280.395 202.84 281.33C202.761 281.075 202.603 280.905 202.524 280.65C209.631 274.701 207.894 266.116 207.183 263.481C209.157 262.206 211.526 261.441 213.974 261.441ZM213.342 269.516L212.948 269.006C212.869 269.091 212.079 269.771 211.131 271.131C210.973 269.516 211.447 267.986 212.395 266.796C213.579 265.436 215.396 264.841 217.212 265.096C217.686 267.051 217.291 269.006 216.106 270.451C215.08 271.641 213.579 272.236 212 272.151C212.948 270.791 213.737 270.026 213.737 270.026L213.342 269.516ZM205.998 264.416C206.709 267.136 207.736 274.191 201.971 279.291C201.892 278.951 201.813 278.696 201.734 278.356C204.972 274.106 205.051 269.346 204.419 266.031C204.893 265.436 205.446 264.926 205.998 264.416ZM201.813 271.216C202.129 269.941 202.682 268.751 203.313 267.646C203.55 270.196 203.313 273.426 201.339 276.486C201.181 274.786 201.339 273.001 201.813 271.216ZM210.421 288.045C210.026 287.96 209.71 287.79 209.394 287.62C211.684 286.77 214.922 286.26 219.581 287.11C216.659 288.64 213.5 288.98 210.421 288.045ZM221.239 286.09C214.685 284.56 210.342 285.495 207.736 286.855C207.42 286.6 207.025 286.43 206.709 286.175C207.42 285.665 208.367 285.155 209.552 284.645C212.316 283.54 216.896 282.605 223.371 284.05C222.74 284.73 222.029 285.41 221.239 286.09Z" fill="white"/>
<path d="M239.323 280.31H238.375V282.265H237.902V279.885H239.718V282.265H239.323V280.31Z" fill="white"/>
<path d="M241.376 279.885C242.008 279.885 242.324 280.225 242.324 280.735C242.324 281.245 242.008 281.585 241.376 281.585H241.06V282.35H240.587V279.97H241.376V279.885ZM241.06 280.31V281.075H241.376C241.692 281.075 241.85 280.905 241.85 280.65C241.85 280.395 241.692 280.225 241.376 280.225H241.06V280.31Z" fill="white"/>
<path d="M243.982 282.35C243.351 282.35 242.956 281.925 242.956 281.075C242.956 280.226 243.351 279.801 243.982 279.801C244.614 279.801 245.009 280.226 245.009 281.075C245.009 281.925 244.614 282.35 243.982 282.35ZM243.982 280.226C243.666 280.226 243.351 280.481 243.351 281.075C243.351 281.67 243.587 281.925 243.982 281.925C244.298 281.925 244.614 281.67 244.614 281.075C244.535 280.481 244.298 280.226 243.982 280.226Z" fill="white"/>
<path d="M246.193 282.265H245.72V279.885H247.141V280.31H246.193V282.265Z" fill="white"/>
<path d="M248.562 279.885C249.194 279.885 249.51 280.225 249.51 280.735C249.51 281.245 249.194 281.585 248.562 281.585H248.168V282.35H247.694V279.97H248.562V279.885ZM248.168 280.31V281.075H248.483C248.799 281.075 248.957 280.905 248.957 280.65C248.957 280.395 248.799 280.225 248.483 280.225H248.168V280.31Z" fill="white"/>
<path d="M251.879 282.265H251.405L251.247 281.84H250.379L250.221 282.265H249.747L250.616 279.885H251.089L251.879 282.265ZM250.853 280.735C250.774 280.48 250.774 280.395 250.774 280.395C250.774 280.395 250.774 280.48 250.695 280.735L250.458 281.415H251.089L250.853 280.735Z" fill="white"/>
<path d="M253.537 281.84L253.143 280.99C252.906 280.65 252.906 280.565 252.906 280.565C252.906 280.565 252.906 280.65 252.906 280.99V282.265H252.432V279.885H252.985L253.458 280.905C253.616 281.16 253.616 281.245 253.616 281.245C253.616 281.245 253.616 281.16 253.774 280.905L254.248 279.885H254.801V282.265H254.485V280.99C254.485 280.65 254.485 280.565 254.485 280.565C254.485 280.565 254.485 280.65 254.327 280.99L253.932 281.84H253.537Z" fill="white"/>
<path d="M256.775 281.84L256.38 280.99C256.222 280.65 256.222 280.565 256.222 280.565C256.222 280.565 256.222 280.65 256.222 280.99V282.265H255.749V279.885H256.301L256.775 280.905C256.933 281.16 256.933 281.245 256.933 281.245C256.933 281.245 256.933 281.16 257.091 280.905L257.565 279.885H258.118V282.265H257.644V280.99C257.644 280.65 257.644 280.565 257.644 280.565C257.644 280.565 257.644 280.65 257.486 280.99L257.091 281.84H256.775Z" fill="white"/>
<path d="M260.882 282.265H260.408L260.25 281.84H259.381L259.223 282.265H258.749L259.618 279.885H260.092L260.882 282.265ZM259.934 280.735C259.855 280.48 259.855 280.395 259.855 280.395C259.855 280.395 259.855 280.48 259.776 280.735L259.539 281.415H260.171L259.934 280.735Z" fill="white"/>
<path d="M263.882 280.31H262.935V282.265H262.54V279.885H264.356V282.265H263.882V280.31Z" fill="white"/>
<path d="M266.172 282.35C265.541 282.35 265.146 281.925 265.146 281.075C265.146 280.226 265.541 279.801 266.172 279.801C266.804 279.801 267.278 280.226 267.278 281.075C267.199 281.925 266.804 282.35 266.172 282.35ZM266.172 280.226C265.857 280.226 265.541 280.481 265.541 281.075C265.541 281.67 265.778 281.925 266.172 281.925C266.488 281.925 266.804 281.67 266.804 281.075C266.725 280.481 266.488 280.226 266.172 280.226Z" fill="white"/>
<path d="M267.752 281.84C267.752 281.84 268.068 281.33 268.068 280.31V279.885H269.568V281.84H269.884V282.775H269.41V282.265H267.989V282.775H267.515V281.84H267.752ZM268.463 280.31C268.463 281.415 268.147 281.84 268.147 281.84H269.094V280.31H268.463Z" fill="white"/>
<path d="M270.516 281.84C270.516 281.84 270.832 281.33 270.832 280.31V279.885H272.332V281.84H272.648V282.775H272.174V282.265H270.753V282.775H270.279V281.84H270.516ZM271.226 280.31C271.226 281.415 270.911 281.84 270.911 281.84H271.858V280.31H271.226Z" fill="white"/>
<path d="M273.674 280.82H274.543V281.33H273.674V281.84H274.701V282.265H273.201V279.885H274.701V280.31H273.674V280.82Z" fill="white"/>
<path d="M276.201 279.885C276.833 279.885 277.149 280.225 277.149 280.735C277.149 281.245 276.833 281.585 276.201 281.585H275.886V282.35H275.412V279.97H276.201V279.885ZM275.886 280.31V281.075H276.201C276.517 281.075 276.675 280.905 276.675 280.65C276.675 280.395 276.517 280.225 276.201 280.225H275.886V280.31Z" fill="white"/>
<path d="M279.281 282.265H278.807V281.245H278.492L277.939 282.265H277.386L278.097 281.075C278.097 281.075 278.018 281.075 277.939 280.905L277.86 280.396C277.86 280.311 277.781 280.226 277.623 280.226H277.544V279.801C277.544 279.801 277.702 279.801 277.781 279.801C278.097 279.801 278.176 279.971 278.255 280.226L278.413 280.735C278.413 280.82 278.492 280.905 278.649 280.905H278.886V279.886H279.36V280.905H279.597C279.676 280.905 279.755 280.82 279.834 280.735L279.992 280.226V280.141C280.071 279.971 280.229 279.801 280.466 279.801C280.545 279.801 280.703 279.801 280.703 279.801V280.226H280.624C280.466 280.226 280.387 280.311 280.387 280.396L280.229 280.82C280.15 280.99 280.071 280.99 280.071 280.99L280.782 282.18H280.229L279.676 281.16H279.36V282.265H279.281Z" fill="white"/>
<path d="M281.176 279.885H281.65V280.905H281.887C281.966 280.905 282.045 280.82 282.124 280.735L282.282 280.395C282.361 280.055 282.44 279.885 282.835 279.885C282.914 279.885 283.072 279.885 283.072 279.885V280.31H282.993C282.835 280.31 282.835 280.395 282.756 280.48L282.598 280.905C282.519 281.075 282.44 281.075 282.44 281.075L283.23 282.265H282.677L282.045 281.245H281.729V282.265H281.255V279.885H281.176Z" fill="white"/>
<path d="M285.599 282.265H285.125V280.99C285.125 280.65 285.125 280.565 285.125 280.565C285.046 280.65 285.125 280.65 284.888 280.99L284.098 282.265H283.703V279.885H284.177V281.16C284.177 281.5 284.177 281.585 284.177 281.585C284.256 281.5 284.177 281.5 284.414 281.16L285.204 279.885H285.678V282.265H285.599Z" fill="white"/>
<path d="M288.836 280.31H287.968V282.265H287.494V279.885H289.31V282.265H288.836V280.31Z" fill="white"/>
<path d="M291.995 282.265H291.521L291.363 281.84H290.495L290.337 282.265H289.863L290.732 279.885H291.205L291.995 282.265ZM291.047 280.735C290.968 280.48 290.968 280.395 290.968 280.395C290.968 280.395 290.968 280.48 290.89 280.735L290.653 281.415H291.284L291.047 280.735Z" fill="white"/>
<path d="M292.627 282.265V279.885H293.022V281.84H293.89V279.885H294.364V281.84H294.68V282.775H294.206V282.265H292.627Z" fill="white"/>
<path d="M297.207 282.265H296.733V280.99C296.733 280.65 296.733 280.565 296.733 280.565C296.654 280.65 296.733 280.65 296.496 280.99L295.707 282.265H295.233V279.885H295.707V281.16C295.707 281.5 295.707 281.585 295.707 281.585C295.786 281.5 295.707 281.5 295.944 281.16L296.733 279.885H297.207V282.265Z" fill="white"/>
<path d="M298.471 280.82H299.339V281.33H298.471V281.84H299.497V282.265H298.076V279.885H299.497V280.31H298.471V280.82Z" fill="white"/>
<path d="M301.629 281.33H300.682V282.265H300.208V279.885H300.682V280.905H301.629V279.885H302.024V282.265H301.629V281.33Z" fill="white"/>
<path d="M303.761 282.265H303.367V280.31H302.656V279.885H304.472V280.31H303.761V282.265Z" fill="white"/>
<path d="M305.973 282.35C305.341 282.35 304.946 281.925 304.946 281.075C304.946 280.226 305.341 279.801 305.973 279.801C306.604 279.801 307.078 280.226 307.078 281.075C307.078 281.925 306.604 282.35 305.973 282.35ZM305.973 280.226C305.657 280.226 305.341 280.481 305.341 281.075C305.341 281.67 305.578 281.925 305.973 281.925C306.289 281.925 306.604 281.67 306.604 281.075C306.604 280.481 306.289 280.226 305.973 280.226Z" fill="white"/>
<path d="M307.789 282.265V279.885H308.658C309.21 279.885 309.447 280.14 309.447 280.565C309.447 280.99 309.131 281.075 309.131 281.075C309.131 281.075 309.526 281.16 309.526 281.67C309.526 282.01 309.21 282.35 308.658 282.35H307.789V282.265ZM308.184 280.31V280.82H308.579C308.816 280.82 308.894 280.735 308.894 280.565C308.894 280.395 308.816 280.31 308.579 280.31H308.184ZM308.658 281.245H308.184V281.84H308.658C308.894 281.84 309.052 281.755 309.052 281.5C309.052 281.415 308.894 281.245 308.658 281.245Z" fill="white"/>
</svg>
