<svg xmlns="http://www.w3.org/2000/svg" width="50" height="50" fill="none" xmlns:v="https://vecta.io/nano"><path d="M24.32 21.166l-.215-1.315c-.317-1.28-.962-2.4-1.766-3.43l-1.3-1.535-.256-.276.793-.763 1.95 2.288c.957-1.556 2.145-2.85 4.095-3.096 1.582-.2 2.948.41 4.284 1.26-2.052 2.43-4.576 3.5-7.78 2.835.717 1.27 1.213 2.564 1.24 4.074.425-.118.845-.174 1.213-.338.537-.235 1.03-.568 1.556-.824 1.3-.635 2.626-.717 3.926-.026.916.486 1.52 1.274 1.95 2.2.655 1.423.747 2.897.41 4.422-.553 2.523-1.397 4.93-2.738 7.145-.59.967-1.27 1.858-2.206 2.528-.64.456-1.34.763-2.145.655-.25-.03-.502-.153-.737-.266-.24-.123-.466-.287-.69-.435-.737-.48-1.47-.476-2.2.01l-.363.235c-.91.69-1.843.578-2.78.067-.84-.46-1.474-1.152-2.032-1.914-1.187-1.628-1.98-3.455-2.6-5.354-.42-1.27-.814-2.56-.89-3.9-.113-1.98.45-3.73 2.012-5.047.9-.758 1.97-.91 3.107-.763.747.097 1.392.435 2.017.824.583.363 1.208.635 1.9.716a2.97 2.97 0 0 1 .271.021z" fill="#fff"/></svg>