<svg xmlns="http://www.w3.org/2000/svg" width="50" height="50" fill="none" xmlns:v="https://vecta.io/nano"><path d="M20.413 37c-3.788-.005-6.826-2.61-7.327-6.056-.338-2.314.32-4.347 1.95-6l9.896-9.883c1.978-1.93 4.397-2.534 7.046-1.686s4.313 2.707 4.866 5.438c.488 2.403-.183 4.54-1.894 6.276l-9.887 9.883c-1.37 1.354-3.047 2.005-4.65 2.028zm.713-14.173l-.094.07-3.854 3.864c-1.055 1.1-1.434 2.464-1.06 3.958.403 1.602 1.44 2.674 3.024 3.124s3.005.056 4.182-1.096l3.732-3.724c.047-.047.09-.103.127-.14-3.577-.468-5.593-2.478-6.057-6.056z" fill="#fff"/></svg>