<svg xmlns="http://www.w3.org/2000/svg" width="50" height="50" fill="#fff" xmlns:v="https://vecta.io/nano"><path d="M35.984 25.002l-.007 4.9c-.105 4.9-3.86 9.186-8.706 9.967-5.682.914-10.914-2.66-12.053-8.28-.162-.795-.197-1.625-.204-2.448l-.007-8.546c.014-5.12 3.453-9.334 8.48-10.375 5.7-1.182 11.462 2.78 12.34 8.5.162 1.055.134 2.145.162 3.222.02 1.02 0 2.04-.007 3.06zm-2.968.014h-.05c0-1.76.105-3.524-.02-5.268-.302-4.354-4.683-7.526-8.952-6.584-3.55.78-5.97 3.728-5.998 7.365v9.04a6.93 6.93 0 0 0 .148 1.428c.795 3.862 4.254 6.36 8.263 5.972 3.678-.352 6.603-3.665 6.6-7.5v-4.46zm-9-4.502v-1.512c.014-.837.654-1.477 1.47-1.484.823-.014 1.5.633 1.498 1.484v3.025c-.014.85-.675 1.498-1.498 1.484-.816-.014-1.45-.647-1.47-1.484v-1.512z"/></svg>