
<svg width="512" height="512" viewBox="0 0 512 512" fill="none" xmlns="http://www.w3.org/2000/svg">
<circle cx="256" cy="256" r="205" fill="white"/>
<mask id="mask0_729_114" style="mask-type:alpha" maskUnits="userSpaceOnUse" x="50" y="50" width="412" height="412">
<circle cx="256" cy="256" r="206" fill="#E94E49"/>
</mask>
<g mask="url(#mask0_729_114)">
<path fill-rule="evenodd" clip-rule="evenodd" d="M115 457C115 457 196.024 421.949 151.181 440.744C159.334 413.313 170.545 388.93 182.266 369.119C191.438 370.643 201.12 371.151 210.293 371.151C255.137 371.151 296.413 353.879 325.46 321.876C363.679 280.221 374.89 220.787 356.035 162.877L352.978 153.733L343.296 151.701C283.674 137.985 225.071 154.749 186.852 195.896C149.142 237.042 137.422 295.461 155.767 353.371C139.46 381.31 124.173 415.853 115 457ZM225.581 267.522L235.263 279.205L244.945 290.381C244.435 290.889 226.09 306.636 204.178 336.1C241.887 338.131 277.049 324.924 301 298.509C328.518 268.537 337.69 225.867 326.989 182.688C283.164 175.576 241.378 188.784 213.86 218.755C190.929 243.646 180.227 277.173 183.794 312.732C205.707 284.285 224.052 269.045 225.581 267.522Z" fill="#F46800"/>
</g>
</svg>
