<svg xmlns="http://www.w3.org/2000/svg" width="70" height="70" fill="none" xmlns:v="https://vecta.io/nano"><path d="M17.965 30.73H9.482v-8.5h7.858l-3.763 3.67-1.2-1.144-1.383 1.4 2.872 2.767L17.84 24.8l.133.093v5.826zM55.167 27c-5.225-.045-9.145 3.83-9.167 8.988-.023 4.978 3.874 8.943 8.74 9 5.203.1 9.145-3.852 9.257-8.785.135-5.18-3.852-9.168-8.83-9.213z" fill="#ec7e3b"/><path d="M68.966 54.143l-.013 8.074c0 .346-.106.705-.186 1.037A7.62 7.62 0 0 1 61.428 69H8.578C4.43 69 1 65.6 1 61.445V1.028h55.243L56.23 21.5c0 .652.16.838.824.918 5.597.678 10.623 5.507 11.7 11.054 1.502 7.715-4.055 15.07-11.594 16.255-.917.146-.917.133-.917 1.064v3.38l12.724-.027zM56.495 66.94c-.16-.213-.213-.306-.28-.372-1.462-1.6-2.074-3.498-2.047-5.653l.013-10.1c0-.958 0-.944-.944-1.104-8.988-1.477-14.77-11.36-10.224-19.873 2.234-4.2 5.744-6.704 10.464-7.436.558-.093.73-.24.73-.8l-.013-18.516H3.114c-.013.24-.027.426-.027.625v57.85c0 3.22 2.194 5.4 5.438 5.4h47.97zM43.48 36.04c-.027 6.5 5.052 11.652 11.407 11.76 6.794.106 11.913-5.028 12.06-11.44.16-6.77-5.026-11.985-11.514-12.038-6.82-.053-11.926 4.988-11.953 11.72zm12.764 20.22v5.44c.013 3.046 2.26 5.254 5.318 5.254 3.1 0 5.358-2.18 5.385-5.254v-4.855c0-.186-.027-.372-.04-.572l-10.663-.013zM66.985 1h1.982v14.752h-1.982V1zM62.73 1h1.982v10.495H62.73V1zm-4.267 6.24V1h1.982v6.24h-1.982zm-10.756.172v8.354H9.55V7.412h38.158zM45.633 9.46h-34v4.243h34V9.46zM7.435 20.115h11.022c.718 0 1.502.16 1.915-.758l1.542 1.636-1.276 1.078c-.425.346-.572.758-.572 1.33l.013 9.4H7.422l.013-12.677zm10.53 10.615v-5.813l-.133-.093-3.975 4.124-2.872-2.767 1.383-1.4 1.2 1.144 3.763-3.67h-7.85v8.5l8.482-.013zM7.408 47.7V35.1h12.617v12.6H7.408zm10.57-10.562H9.496v8.5h8.482v-8.5zM7.422 49.95H20.04v12.637H7.422V49.95zm10.557 2.075H9.496v8.487h8.482v-8.487zm6.448-26.71v-1.97h14.758v1.97H24.427zm14.77 12.93v1.982H24.453v-1.982h14.745zM24.413 55.14v-1.982H39.17v1.982H24.413zm.014-25.54v-1.982h10.5V29.6h-10.5zm.026 12.875h10.464v2H24.453v-2zm-.013 16.92v-1.982h10.5v1.982h-10.5zM55.875 40h-1.643c.062-.986.01-1.972.205-2.9.195-.957 1.284-1.624 2.33-1.672 1.068-.048 1.612-.58 1.623-1.595v-.918c-.04-.802-.626-1.373-1.47-1.392-.945-.02-1.88-.02-2.824 0-.873.02-1.468.6-1.5 1.4v.86h-1.53c-.37-1.605.8-3.412 2.547-3.664 1.212-.164 2.496-.155 3.718-.01 1.5.184 2.598 1.585 2.66 3.016.062 1.276-.257 2.397-1.417 3.122-.534.33-1.202.512-1.838.628-.647.126-.863.25-.863.9V40zM56 42v1h-2v-1h2zm4.6 18.513v-2.048h4.1v4.1h-1.994V60.5l-2.114.013z" fill="#171716" stroke="#171716" stroke-width=".2"/></svg>