<svg xmlns="http://www.w3.org/2000/svg" width="44" height="54" fill="none" xmlns:v="https://vecta.io/nano"><path d="M13.76 30.402c1.534-.137 2.835-.738 3.998-1.846v6.857h1.692v-6.878c1.174 1.097 2.443 1.73 4.02 1.857L20.498 43.02h-3.744L13.76 30.402zm4.824 16.013h-3.268c-.677 0-.93-.264-.92-.865.01-.58.264-.812.9-.823h6.642c.635 0 .9.253.9.833s-.254.844-.888.844l-3.374.01zm18.91-37.153h-2.77V6.477l2.77 2.785zm-3.363 7.595H27.1V9.853l7.023 7.005z" fill="#ec7e3b"/><path d="M0 30.37V11.33C0 9.156 1.1 7.637 3.14 6.9c.16-.063.338-.243.4-.4.52-1.48 1.505-2.47 2.996-2.977.16-.053.338-.232.402-.4C7.647 1.108 9.2 0 11.328 0h28.177C42.107 0 44 1.9 44 4.494V42.67c0 2.173-1.1 3.692-3.14 4.43-.16.063-.338.243-.4.4-.508 1.487-1.502 2.468-2.983 2.975a.7.7 0 0 0-.391.401c-.72 2.015-2.264 3.123-4.4 3.123H4.516C1.893 54 0 52.112 0 49.517V30.37zm17.653-5.074H7.647V23.63h10.746c.825 0 1.047.2 1.08 1.044.074 1.888 1.227 3.407 3.036 3.85.624.148 1.3.127 1.936.17.688.042 1.08.517.92 1.16L22.233 43c1.195.306 2.03.992 2.264 2.173.243 1.234-.497 2.046-1.44 2.7l1.28 4.452h8.335c1.978 0 2.877-.897 2.877-2.87v-30.89h-9.022c-.867 0-1.132-.264-1.132-1.13V8.44H13.77c-3.152 0-6.314-.01-9.466 0-1.64.01-2.58.97-2.602 2.606v38.662c0 1.54.92 2.595 2.37 2.606h8.514c.127 0 .35-.127.38-.232l1.216-4.22c-.93-.612-1.597-1.37-1.46-2.5.16-1.297 1.037-2.015 2.285-2.352l-.666-2.838-2.44-10.297c-.17-.728.18-1.16.92-1.17l1.005-.01c1.946-.095 3.607-1.54 3.818-3.397zM33 5.063H14.438c-2.295 0-4.58-.01-6.875.01-1.185 0-2.062.643-2.295 1.656l.465.02 20.255.02c.328 0 .75.137.984.36l9.847 9.8c.317.306.434.633.434 1.076l-.01 30.275a8.08 8.08 0 0 0 .021.506c1.1-.306 1.67-1.17 1.67-2.532V10.97H34.1c-.793 0-1.08-.285-1.08-1.087v-4.82zm7.615 40.33c1.1-.274 1.692-1.16 1.692-2.468V4.483c0-1.9-.9-2.795-2.824-2.806h-21.67c-2.295 0-4.58-.01-6.875.01-1.185.02-2.094.686-2.285 1.688l25.057.01c.285 0 .635.127.835.316l5.722 5.7a1.28 1.28 0 0 1 .338.823l.01 35.16zm-26.855-15L16.732 43h3.744l2.972-12.627c-1.565-.116-2.845-.75-4.02-1.857v6.878h-1.692v-6.857c-1.142 1.108-2.433 1.7-3.977 1.846zm7.594 17.7h-4.22c-1.27 0-1.27 0-1.608 1.203l-.857 2.985h7.88l-1.195-4.188zM34.13 16.847L27.1 9.853v7.004h7.023zM18.584 46.415h3.374c.635 0 .9-.264.9-.844s-.264-.833-.9-.833c-2.2-.01-4.432 0-6.642 0-.645 0-.9.243-.9.823-.01.6.254.865.92.865l3.268-.01zm18.9-37.153l-2.77-2.785v2.785h2.77zM3.406 18.535V16.9H23.65v1.625H3.406zm9.264-5v1.624H3.427v-1.624h9.244zm1.736 1.626v-1.624h9.244v1.624h-9.244zM33 20.296V21.9h-7.573v-1.604H33zm-9.34 1.624h-5.013v-1.625h5.013v1.625zm-16.912 0h-3.32v-1.625h3.32v1.625zm-3.343 3.366v-1.614H5.88v1.614H3.395zm5.088-3.366v-1.625h1.64v1.625h-1.64zm3.384-.02v-1.614h1.65V21.9h-1.65zm5.045-1.614V21.9h-1.64v-1.614h1.64z" fill="#171716"/></svg>