<svg width="70" height="70" viewBox="0 0 70 70" fill="none" xmlns="http://www.w3.org/2000/svg">
<path d="M36.1216 36.1116C38.6459 36.1116 41.0856 36.1116 43.5253 36.1116C46.6983 36.1116 49.8713 36.1116 53.0443 36.1116C62.8172 36.1257 70.5594 44.3795 69.953 54.143C69.3748 63.4267 61.1814 70.6082 51.9162 69.9592C43.0458 69.3384 36.1498 61.9594 36.1357 53.0707C36.1216 47.6669 36.1357 42.2632 36.1357 36.8453C36.1216 36.6337 36.1216 36.422 36.1216 36.1116ZM66.3851 59.067C66.4556 58.9259 66.5261 58.7848 66.5826 58.6296C70.5594 49.1202 63.5082 38.4396 53.2136 38.3832C48.4893 38.355 43.765 38.3832 39.0408 38.3832C38.8433 38.3832 38.6318 38.4114 38.3921 38.4255C38.378 38.623 38.3638 38.7923 38.3638 38.9475C38.3638 43.7728 38.3497 48.584 38.378 53.4093C38.378 54.1289 38.4626 54.8625 38.5895 55.5821C40.0561 63.4973 47.2483 68.7035 55.1879 67.5607C56.4994 67.3772 57.7686 66.8975 59.066 66.5448C59.0801 66.446 59.0942 66.3473 59.1224 66.2485C55.8366 62.9752 52.5508 59.7019 49.1098 56.2734C49.5188 55.9771 49.9136 55.6809 50.4354 55.2999C49.2085 54.1148 48.0803 53.0284 46.8534 51.8432C47.4598 51.2929 48.0239 50.7991 48.6867 50.1924C46.0919 47.6246 43.5535 45.0991 41.0574 42.63C41.5792 42.0656 42.0586 41.5436 42.6368 40.9228C45.1753 43.5048 47.6855 46.0585 50.379 48.7956C50.9149 48.1325 51.3944 47.5258 51.9585 46.8204C53.1572 48.0338 54.243 49.1343 55.3571 50.263C55.7097 49.9244 56.0763 49.5716 56.5135 49.1625C59.8276 52.4922 63.0852 55.7655 66.3851 59.067ZM56.4712 52.6051C55.1738 53.9031 53.8623 55.2153 52.6495 56.4286C53.3405 57.12 54.0879 57.8819 54.9764 58.7707C55.5263 58.164 56.1468 57.5009 56.7532 56.8237C57.2891 57.3457 57.7827 57.8395 58.4173 58.4744C57.6981 59.0952 56.993 59.7019 56.3584 60.2522C57.0212 60.9576 57.5571 61.522 58.234 62.2416C58.8686 61.5502 59.5032 60.8871 60.0814 60.2522C60.6455 60.7883 61.1532 61.2539 61.816 61.8747C61.0968 62.5378 60.4198 63.1586 59.8276 63.723C60.3352 64.245 60.7865 64.7106 61.3788 65.3173C62.6762 64.0193 63.9877 62.7071 65.271 61.4232C62.2108 58.3475 59.3199 55.441 56.4712 52.6051ZM50.2662 51.8855C50.8303 52.4781 51.3662 53.0425 51.8315 53.5222C52.4238 52.9719 53.0161 52.4217 53.552 51.9279C53.002 51.3494 52.4661 50.785 51.9021 50.2066C51.338 50.785 50.788 51.3494 50.2662 51.8855Z" fill="black"/>
<path d="M36.1308 33.8684C36.1308 29.3112 36.1026 24.881 36.1449 20.4366C36.159 18.2779 36.1167 16.091 36.441 13.9747C37.5551 6.72265 43.7883 0.909728 51.0933 0.133731C59.9214 -0.811573 67.734 4.81793 69.6238 13.4809C71.725 23.0891 64.7726 32.7679 55.0138 33.7273C52.7292 33.9531 50.4164 33.8543 48.1177 33.8684C44.5499 33.8825 40.9679 33.8684 37.4 33.8684C36.991 33.8684 36.5962 33.8684 36.1308 33.8684ZM38.3872 31.5828C38.6128 31.5969 38.7256 31.611 38.8384 31.611C43.6614 31.611 48.4703 31.6251 53.2933 31.5969C54.0125 31.5969 54.7458 31.5404 55.465 31.3993C63.32 29.9884 68.5097 22.9904 67.6071 15.0893C66.8174 8.17588 60.7675 2.56048 53.8292 2.26419C45.3255 1.91147 38.4013 8.55682 38.4013 17.0787C38.4013 21.0997 38.4013 25.1208 38.4013 29.1419C38.3872 29.932 38.3872 30.7221 38.3872 31.5828Z" fill="black"/>
<path d="M33.868 36.1116C33.868 38.3409 33.868 40.4995 33.868 42.6582C33.868 46.1149 33.868 49.5716 33.868 53.0284C33.8539 62.82 25.6322 70.5377 15.8593 69.9592C7.73639 69.4654 1.00959 63.0458 0.135251 54.9613C-0.950626 44.8169 6.84795 36.1257 17.0439 36.1116C22.3746 36.1116 27.7052 36.1116 33.05 36.1116C33.2757 36.1116 33.5154 36.1116 33.868 36.1116ZM31.5975 38.3691C31.2449 38.3691 30.9911 38.3691 30.7372 38.3691C26.1822 38.3691 21.6272 38.355 17.058 38.3691C12.6863 38.3832 8.96329 39.9634 6.07232 43.2367C2.12368 47.7234 1.10831 52.9296 3.35058 58.4603C5.62105 64.0616 9.97866 67.222 16.0144 67.6594C24.4476 68.2661 31.5552 61.4938 31.5834 53.0284C31.5975 48.6263 31.5834 44.2384 31.5834 39.8364C31.5975 39.399 31.5975 38.9334 31.5975 38.3691Z" fill="black"/>
<path d="M33.862 33.8542C31.2813 33.8542 28.7852 33.8542 26.3032 33.8542C23.1584 33.8542 19.9995 33.8683 16.8547 33.8542C7.13817 33.7978 -0.547582 25.5863 0.0306127 15.8793C0.594705 6.27107 9.19711 -0.966864 18.7867 0.105423C27.3468 1.06484 33.8197 8.24633 33.8479 16.8528C33.8761 22.313 33.8479 27.7591 33.8479 33.2193C33.862 33.4027 33.862 33.5861 33.862 33.8542ZM31.5775 31.5827C31.5916 31.3851 31.6057 31.2582 31.6057 31.1171C31.6057 26.2353 31.6198 21.3395 31.5916 16.4578C31.5916 15.5689 31.4646 14.6659 31.2672 13.8053C29.716 6.77899 23.3417 1.9396 16.1213 2.27821C9.11249 2.60272 3.24594 8.13346 2.3857 15.2162C1.37033 23.4841 7.67406 31.1735 15.9944 31.5403C21.1418 31.7661 26.3173 31.5827 31.5775 31.5827Z" fill="black"/>
<path d="M64.8789 49.3176C64.1315 49.5575 63.4687 49.7691 62.7213 49.9948C62.1854 48.4146 61.3534 47.0319 60.197 45.875C59.0547 44.7322 57.715 43.8856 56.0791 43.3495C56.2906 42.644 56.5022 41.9668 56.7419 41.1908C60.7752 42.5876 63.4405 45.2542 64.8789 49.3176Z" fill="#FF6B00"/>
<path d="M60.9392 15.8088C60.9251 20.8034 56.8495 24.8385 51.8432 24.8244C46.9074 24.8103 42.8741 20.7187 42.8882 15.7382C42.9023 10.8001 46.992 6.75076 51.9419 6.75076C56.8918 6.77898 60.9533 10.8706 60.9392 15.8088ZM46.2728 19.4912C49.3894 16.359 52.506 13.255 55.5944 10.1651C53.056 8.3733 49.4458 8.69781 47.1189 11.0258C44.8061 13.3397 44.4677 16.9939 46.2728 19.4912ZM57.4841 12.0275C54.3534 15.1597 51.265 18.2496 48.1625 21.3536C50.2496 23.2019 54.1419 22.9479 56.4969 20.761C58.9789 18.4613 59.402 14.6095 57.4841 12.0275Z" fill="#FF6B00"/>
<path d="M56.762 28.7185C56.5505 28.0412 56.3389 27.3499 56.1133 26.6444C59.385 25.4593 61.585 23.2583 62.7696 19.985C63.4888 20.2107 64.1657 20.4223 64.8426 20.634C63.9965 24.1895 60.2735 27.9001 56.762 28.7185Z" fill="black"/>
<path d="M27.1097 49.8962C27.0251 56.2593 21.8495 61.6913 15.5035 62.0723C11.4843 62.3121 8.819 59.6314 9.07284 55.6244C9.4677 49.2754 14.8971 44.1115 21.2572 44.0409C24.6136 43.9845 27.152 46.51 27.1097 49.8962ZM14.8971 59.8148C20.1149 59.7866 24.67 55.3423 24.8392 50.1219C24.9238 47.6669 23.429 46.1855 20.9752 46.2843C15.7573 46.4677 11.3292 51.0249 11.3151 56.2593C11.301 58.3757 12.7676 59.8289 14.8971 59.8148Z" fill="#FF6B00"/>
<path d="M13.8926 43.3354C10.5927 44.5346 8.39271 46.7215 7.23632 49.9948C6.51711 49.7691 5.8543 49.5575 5.09277 49.3176C6.4889 45.2965 9.15424 42.644 13.2016 41.1908C13.4272 41.9104 13.6529 42.5876 13.8926 43.3354Z" fill="black"/>
<path d="M12.5395 6.76491C14.2882 6.80723 15.6702 7.31516 16.7702 8.40155C19.6894 11.2939 22.6227 14.1863 25.4854 17.135C27.7136 19.4207 27.6431 23.0749 25.3867 25.3465C23.1444 27.6181 19.4779 27.745 17.1792 25.5299C14.1895 22.6376 11.2421 19.7029 8.36524 16.6977C6.61656 14.8635 6.2781 12.606 7.32167 10.2922C8.36524 7.97828 10.2549 6.87778 12.5395 6.76491ZM18.6317 13.4949C17.4612 12.3098 16.3048 11.0682 15.0779 9.92533C13.7241 8.68374 11.6229 8.75428 10.2691 9.99588C8.87292 11.2657 8.56267 13.4103 9.77547 14.8212C10.946 16.1756 12.3562 17.3326 13.6113 18.5318C15.219 16.8952 16.9112 15.2162 18.6317 13.4949ZM15.1908 20.3519C16.3471 21.5088 17.4753 22.6658 18.6458 23.7804C20.1266 25.2054 22.3547 25.1772 23.7649 23.7522C25.1893 22.3272 25.2175 20.0979 23.8073 18.6306C22.7919 17.5583 21.7201 16.5284 20.6765 15.4984C20.5637 15.3855 20.4368 15.3009 20.3381 15.2303C18.6176 16.9234 16.9535 18.6024 15.1908 20.3519Z" fill="black"/>
<path d="M19.9917 7.23037C20.2173 6.4967 20.4289 5.81946 20.6686 5.07169C24.6878 6.46848 27.3531 9.13509 28.7915 13.1844C28.0723 13.4101 27.3954 13.6359 26.6339 13.8757C26.098 12.2814 25.266 10.9128 24.1096 9.75588C22.9673 8.61305 21.6276 7.78062 19.9917 7.23037Z" fill="#FF6B00"/>
<path d="M19.628 50.108C20.0653 50.5453 20.5589 51.0391 20.9962 51.4765C19.5152 52.958 18.0342 54.4394 16.5532 55.935C16.1583 55.4976 15.6787 54.9615 15.2415 54.4818C16.6237 53.1132 18.0906 51.6458 19.628 50.108Z" fill="#FF6B00"/>
</svg>
