<svg width="65" height="70" viewBox="0 0 65 70" fill="none" xmlns="http://www.w3.org/2000/svg">
<path d="M9.29124 64.1667C7.72443 64.1667 6.24467 64.1667 4.77941 64.1667C2.02299 64.1521 0.0209553 62.1542 0.00644777 59.3833C0.00644777 58.3187 -0.00805972 57.2396 0.00644777 56.175C0.0209553 55.2708 0.441672 54.8333 1.34114 54.8333C2.79189 54.8187 4.24264 54.8333 5.80944 54.8333C5.80944 54.5271 5.80944 54.25 5.80944 53.9729C5.80944 46.2146 5.80944 38.4708 5.80944 30.7125C5.80944 27.6063 7.73894 25.6667 10.829 25.6667C12.6135 25.6667 14.3979 25.6667 16.2548 25.6667C16.2548 25.3458 16.2548 25.0833 16.2548 24.8354C16.2548 21.7292 16.2548 18.6083 16.2548 15.5021C16.2548 14.4083 16.6465 14.0146 17.7346 14C19.519 14 21.318 14 23.2184 14C23.2184 13.7229 23.2184 13.475 23.2184 13.2125C23.2184 10.8062 23.2184 8.4 23.2184 5.99375C23.2329 2.61042 25.7572 0 29.0214 0C32.2856 0 34.8244 2.59583 34.8244 5.97917C34.8244 8.35625 34.8244 10.7479 34.8244 13.125C34.8244 13.3875 34.8244 13.65 34.8244 13.9562C38.6979 13.9562 42.4989 13.9562 46.4304 13.9562C46.4304 13.7229 46.4304 13.475 46.4304 13.2125C46.4304 10.8062 46.4304 8.4 46.4304 5.99375C46.4449 2.61042 48.9692 0 52.2334 0C55.4976 0 58.0364 2.59583 58.0364 5.97917C58.0364 8.35625 58.0364 10.7479 58.0364 13.125C58.0364 13.3875 58.0364 13.65 58.0364 14C59.6322 14 61.17 14 62.7078 14C62.969 14 63.2446 14 63.5057 14C64.6083 14 65 14.3937 65 15.4875C65 18.9875 65 22.4875 65 25.9875C65 40.075 65 54.1771 65 68.2646C65 69.6937 64.6953 70 63.2446 70C45.8356 70 28.4266 70 11.0321 70C9.5959 70 9.29124 69.6937 9.29124 68.2646C9.29124 66.9229 9.29124 65.5958 9.29124 64.1667ZM51.0873 66.325C52.5381 65.1146 53.8437 63.9917 55.1784 62.9125C55.5701 62.5917 55.7297 62.2708 55.7297 61.7604C55.7152 54.2792 55.7152 46.7833 55.7152 39.3021C55.7152 39.0396 55.7152 38.7917 55.7152 38.5292C54.1194 38.5292 52.6251 38.5292 51.0728 38.5292C51.0728 38.8208 51.0728 39.0833 51.0728 39.3458C51.0728 41.7229 51.0728 44.1146 51.0728 46.4917C51.0583 49.3208 49.0853 51.3187 46.2853 51.3187C43.4999 51.3333 40.729 51.3187 37.9435 51.3187C37.6824 51.3187 37.4358 51.3187 37.1456 51.3187C37.1456 54.0021 37.1456 56.5833 37.1456 59.15C37.1456 62.2125 35.2016 64.1521 32.155 64.1521C25.5832 64.1521 18.9968 64.1521 12.4249 64.1521C12.1637 64.1521 11.9171 64.1521 11.656 64.1521C11.656 65.3771 11.656 66.5 11.656 67.6083C24.0309 67.6083 36.3477 67.6083 48.7516 67.6083C48.7516 62.5625 48.7516 57.5458 48.7516 52.5292C49.564 52.5292 50.3039 52.5292 51.0728 52.5292C51.0873 57.1229 51.0873 61.6292 51.0873 66.325ZM35.4773 28C35.1436 28 34.9405 28 34.7229 28C26.7438 28 18.7646 28 10.8 28C9.03011 28 8.14515 28.9042 8.14515 30.6979C8.14515 38.4708 8.14515 46.2437 8.14515 54.0167C8.14515 54.2792 8.14515 54.5271 8.14515 54.8187C8.53685 54.8187 8.827 54.8187 9.11715 54.8187C15.6165 54.8187 22.1159 54.8187 28.6297 54.8187C29.8629 54.8187 30.211 55.1833 30.211 56.4375C30.211 57.4875 30.1965 58.5229 30.2256 59.5729C30.2546 60.7542 31.1685 61.7021 32.3146 61.8187C33.4897 61.9354 34.5778 61.1333 34.8099 59.9667C34.8679 59.6312 34.8534 59.2958 34.8534 58.9458C34.8534 49.9042 34.8534 40.8625 34.8534 31.8354C34.8244 30.5521 34.7229 29.2542 35.4773 28ZM55.7152 33.8042C55.7152 30.7417 55.7152 27.7521 55.7152 24.7771C55.7152 23.2312 54.7722 22.1667 53.394 22.1667C52.0158 22.1667 51.0728 23.2167 51.0728 24.7771C51.0728 28.3208 51.0728 31.8792 51.0728 35.4229C51.0728 35.6562 51.0873 35.8896 51.1018 36.1229C54.9898 36.1229 58.8198 36.1229 62.6353 36.1229C62.6353 29.5167 62.6353 22.9687 62.6353 16.3917C47.9392 16.3917 33.2721 16.3917 18.6341 16.3917C18.6341 19.5125 18.6341 22.575 18.6341 25.6375C19.7947 25.6375 20.8972 25.6375 22.0578 25.6375C22.0578 25.3604 22.0578 25.1271 22.0578 24.8792C22.0723 21.7583 23.9728 19.8333 27.0774 19.8333C35.7819 19.8333 44.4864 19.8333 53.1909 19.8333C56.0489 19.8333 58.0364 21.8312 58.0364 24.6896C58.0364 27.2854 58.0364 29.8958 58.0364 32.4917C58.0364 32.9146 58.0364 33.3521 58.0364 33.8042C57.2385 33.8042 56.5276 33.8042 55.7152 33.8042ZM24.408 25.6667C24.7127 25.6667 24.9738 25.6667 25.235 25.6667C29.8774 25.6667 34.5198 25.6667 39.1622 25.6667C39.5248 25.6667 39.8875 25.6667 40.2502 25.7396C42.5714 26.1625 44.1237 28.0292 44.1237 30.4062C44.1382 35.7583 44.1382 41.0958 44.1237 46.4479C44.1237 47.425 44.4574 48.2125 45.3278 48.6937C46.9382 49.6125 48.7661 48.4313 48.7661 46.4771C48.7661 39.6958 48.7661 32.9146 48.7661 26.1333C48.7661 24.8062 48.6356 23.45 49.3754 22.225C49.2159 22.1958 49.1578 22.1667 49.0853 22.1667C41.6139 22.1667 34.1426 22.1521 26.6712 22.1667C25.5251 22.1667 24.5676 23.0271 24.4226 24.15C24.35 24.6313 24.408 25.1125 24.408 25.6667ZM58.0364 38.5292C58.0364 38.8792 58.0364 39.1562 58.0364 39.4479C58.0364 46.4917 58.0799 53.5354 57.9929 60.5792C57.9784 61.9646 58.312 62.8979 59.4581 63.6562C60.4156 64.2979 61.2571 65.1292 62.142 65.8729C62.2726 65.9896 62.4322 66.0771 62.6353 66.2229C62.6353 56.9333 62.6353 47.7458 62.6353 38.5146C61.1265 38.5292 59.6322 38.5292 58.0364 38.5292ZM27.8463 57.225C19.3014 57.225 10.8435 57.225 2.34215 57.225C2.34215 57.9104 2.34215 58.5375 2.34215 59.1646C2.34215 60.9437 3.24162 61.8333 5.02604 61.8333C12.5844 61.8333 20.1428 61.8333 27.7012 61.8333C27.9334 61.8333 28.151 61.8187 28.4701 61.8042C27.6142 60.3167 27.9479 58.7562 27.8463 57.225ZM42.1507 48.9708C42.0346 47.8625 41.817 46.8271 41.817 45.7771C41.788 40.7021 41.8025 35.6271 41.8025 30.5521C41.8025 29.5458 41.4543 28.7437 40.5549 28.2625C38.9591 27.4021 37.1601 28.5687 37.1601 30.4792C37.1456 36.4437 37.1601 42.4229 37.1601 48.3875C37.1601 48.5771 37.1891 48.7521 37.2037 48.9563C38.93 48.9708 40.6129 48.9708 42.1507 48.9708ZM32.5032 13.9708C32.5032 11.2729 32.5032 8.64792 32.5032 6.0375C32.5032 3.92292 31.0235 2.34792 29.0504 2.33333C27.0339 2.31875 25.5541 3.90833 25.5396 6.05208C25.5396 8.47292 25.5396 10.9083 25.5396 13.3292C25.5396 13.5333 25.5686 13.7521 25.5832 13.9708C27.9044 13.9708 30.1675 13.9708 32.5032 13.9708ZM55.7152 13.9708C55.7152 11.1271 55.7587 8.35625 55.7007 5.6C55.6572 3.79167 54.0759 2.34792 52.2624 2.34792C50.449 2.33333 48.8242 3.7625 48.7806 5.57083C48.7226 8.34167 48.7661 11.0979 48.7806 13.8687C48.7806 13.9125 48.8387 13.9417 48.8677 13.9854C51.1163 13.9708 53.3795 13.9708 55.7152 13.9708ZM56.8758 64.5167C55.6572 65.5375 54.4676 66.5437 53.2054 67.5937C55.7152 67.5937 58.0799 67.5937 60.5607 67.5937C59.2695 66.5292 58.0944 65.5375 56.8758 64.5167Z" fill="black"/>
<path d="M3.48866 45.4708C2.67616 45.4708 1.95072 45.4708 1.16724 45.4708C1.16724 45.1792 1.16724 44.9167 1.16724 44.6542C1.16724 39.55 1.16724 34.4604 1.16724 29.3563C1.16724 24.5875 4.72192 21.0146 9.45183 21C10.1483 21 10.8447 21 11.5701 21C11.5701 21.7875 11.5701 22.5021 11.5701 23.3333C10.8882 23.3333 10.1918 23.3333 9.50987 23.3333C5.9842 23.3333 3.48866 25.8562 3.48866 29.3854C3.48866 34.4604 3.48866 39.5354 3.48866 44.6104C3.48866 44.8875 3.48866 45.15 3.48866 45.4708Z" fill="#FF6B00"/>
<path d="M21.4771 31.5C24.2625 31.5 27.0334 31.5 29.8189 31.5C30.9649 31.5 31.3566 31.8792 31.3566 33.0167C31.3566 37.4646 31.3566 41.9125 31.3566 46.3458C31.3566 47.4396 30.9649 47.8333 29.8624 47.8333C24.277 47.8333 18.7061 47.8333 13.1207 47.8333C12.0182 47.8333 11.6265 47.4396 11.6265 46.3604C11.6265 41.9125 11.6265 37.4646 11.6265 33.0313C11.6265 31.8937 12.0037 31.5146 13.1498 31.5146C15.9207 31.5 18.7061 31.5 21.4771 31.5ZM28.9919 33.8771C23.9578 33.8771 18.9673 33.8771 13.9767 33.8771C13.9767 36.3854 13.9767 38.85 13.9767 41.4167C14.2233 41.1979 14.3974 41.0375 14.557 40.8771C15.587 39.8417 16.6025 38.8063 17.6326 37.7854C18.2999 37.1292 18.8657 37.1292 19.5185 37.7854C20.0988 38.3396 20.6501 38.9083 21.2159 39.4771C21.8688 40.1479 22.5216 40.8188 23.247 41.5625C23.9723 40.8042 24.5962 40.1333 25.2345 39.4771C26.5837 38.1063 26.8158 38.1063 28.1505 39.4479C28.3971 39.6958 28.6147 39.9875 28.8323 40.25C28.8759 40.2063 28.9339 40.1771 28.9774 40.1333C28.9919 38.0771 28.9919 36.0063 28.9919 33.8771ZM13.8316 45.4417C19.0108 45.4417 24.0014 45.4417 29.0645 45.4417C29.0209 44.7854 29.2095 44.0417 28.9049 43.6188C28.2956 42.7729 27.4396 42.1021 26.6417 41.3146C25.7858 42.1896 24.9879 43.0354 24.1609 43.8521C23.5081 44.5083 22.9423 44.4938 22.275 43.8521C21.7382 43.3271 21.2014 42.7875 20.6791 42.2625C19.9973 41.5625 19.3154 40.8479 18.6191 40.1333C17.0813 41.6792 15.6305 43.1083 14.2088 44.5667C14.0202 44.7563 13.9767 45.0917 13.8316 45.4417Z" fill="#FF6B00"/>
<path d="M16.2983 52.4417C16.2983 51.6688 16.2983 50.9542 16.2983 50.1959C21.3179 50.1959 26.294 50.1959 31.3136 50.1959C31.3136 50.9542 31.3136 51.6688 31.3136 52.4417C26.323 52.4417 21.3324 52.4417 16.2983 52.4417Z" fill="#FF6B00"/>
<path d="M11.6716 50.1812C12.4261 50.1812 13.1225 50.1812 13.877 50.1812C13.877 50.925 13.877 51.6687 13.877 52.4562C13.1515 52.4562 12.4261 52.4562 11.6716 52.4562C11.6716 51.6833 11.6716 50.9396 11.6716 50.1812Z" fill="black"/>
<path d="M30.1387 6.97082C29.3697 6.97082 28.6443 6.97082 27.9043 6.97082C27.9043 6.21249 27.9043 5.49791 27.9043 4.72499C28.6297 4.72499 29.3552 4.72499 30.1387 4.72499C30.1387 5.43957 30.1387 6.18332 30.1387 6.97082Z" fill="#FF6B00"/>
<path d="M30.1533 9.37706C30.1533 10.1208 30.1533 10.85 30.1533 11.6229C29.4279 11.6229 28.6879 11.6229 27.9189 11.6229C27.9189 10.8937 27.9189 10.1646 27.9189 9.37706C28.6444 9.37706 29.3553 9.37706 30.1533 9.37706Z" fill="#FF6B00"/>
<path d="M53.3647 4.72499C53.3647 5.48332 53.3647 6.19791 53.3647 6.95624C52.6102 6.95624 51.8703 6.95624 51.1013 6.95624C51.1013 6.21249 51.1013 5.49791 51.1013 4.72499C51.8413 4.72499 52.5667 4.72499 53.3647 4.72499Z" fill="#FF6B00"/>
<path d="M53.3652 9.37706C53.3652 10.1208 53.3652 10.85 53.3652 11.6229C52.6398 11.6229 51.8998 11.6229 51.1309 11.6229C51.1309 10.8937 51.1309 10.1646 51.1309 9.37706C51.8563 9.37706 52.5672 9.37706 53.3652 9.37706Z" fill="#FF6B00"/>
<path d="M24.3358 38.4709C23.5814 38.4709 22.8704 38.4709 22.116 38.4709C22.116 37.7125 22.116 36.9688 22.116 36.1959C22.8559 36.1959 23.5669 36.1959 24.3358 36.1959C24.3358 36.925 24.3358 37.6688 24.3358 38.4709Z" fill="black"/>
</svg>
