<svg width="70" height="68" viewBox="0 0 70 68" fill="none" xmlns="http://www.w3.org/2000/svg">
<g clip-path="url(#clip0)">
<path d="M21.7975 37.9295C19.523 35.0112 18.5316 31.7427 18.6774 28.0657C17.1464 27.949 15.8779 27.3945 14.9448 26.1688C14.2449 25.235 13.9388 24.1844 14.0117 23.0317C14.1429 20.6825 15.9363 18.9753 18.6628 18.6543C18.6628 16.7282 18.6628 14.7875 18.6628 12.8469C18.6628 10.9062 18.5607 8.95099 19.3481 7.02493C17.2922 7.03952 15.3531 6.83525 13.4868 7.57941C10.3228 8.84885 8.17955 11.8839 8.16497 15.2691C8.15039 21.4704 8.13581 27.6717 8.16497 33.8731C8.17955 37.0248 9.36055 39.7388 11.5622 42.0004C11.6788 42.1172 11.8538 42.2193 11.9121 42.3652C12.0725 42.7884 12.3787 43.2991 12.262 43.6493C12.1454 44.0141 11.6059 44.3788 11.2122 44.4664C8.86482 44.9187 6.85274 45.9255 5.21975 47.6765C3.35347 49.6755 2.36201 52.0539 2.34743 54.7971C2.31827 58.8389 2.33285 62.8661 2.33285 66.9079C2.33285 67.1414 2.33285 67.3894 2.33285 67.6667C1.56009 67.6667 0.831077 67.6667 0 67.6667C0 67.4332 0 67.1706 0 66.9225C0 62.9828 0 59.0432 0 55.1035C0 49.515 3.22225 44.8166 8.42741 42.8176C8.58779 42.7592 8.7336 42.6862 8.89398 42.6279C8.39825 41.8108 7.87336 41.052 7.45053 40.2349C6.35701 38.1775 5.8467 35.9742 5.8467 33.6542C5.8467 27.555 5.83212 21.4412 5.8467 15.342C5.86128 9.49087 10.629 4.7195 16.4612 4.69031C17.6567 4.67572 18.8377 4.70491 20.0333 4.67572C20.2958 4.66113 20.6311 4.50063 20.8061 4.29635C23.0369 1.43644 25.9529 0.0210764 29.5688 0.00648505C33.2139 0.00648505 36.859 -0.00810632 40.5041 0.00648505C44.0617 0.0210764 46.934 1.45103 49.1648 4.22339C49.3543 4.45685 49.748 4.63195 50.0542 4.64654C51.7309 4.73409 53.4076 4.63195 55.0698 4.82164C59.5751 5.34693 63.4389 9.24282 64.0221 13.737C64.1096 14.4373 64.1679 15.1377 64.1679 15.8381C64.1825 21.2661 64.1096 26.6795 64.197 32.1075C64.2554 35.9304 63.5263 39.447 61.0623 42.5549C61.2956 42.6716 61.4705 42.7592 61.6601 42.8322C66.734 44.7728 70 49.515 70 54.9576C70 59.1161 70 63.2747 70 67.4332C70 67.477 69.9854 67.5353 69.9708 67.6375C69.2418 67.6375 68.5128 67.6375 67.6672 67.6375C67.6672 67.3894 67.6672 67.1414 67.6672 66.8787C67.6672 62.9099 67.6672 58.9556 67.6672 54.9868C67.6672 49.7193 64.0367 45.4002 58.8461 44.4956C58.3066 44.408 57.8692 44.2037 57.6797 43.6493C57.4901 43.0802 57.7526 42.6716 58.1462 42.2923C60.6394 39.8555 61.8496 36.8935 61.8496 33.4061C61.835 27.4529 61.8496 21.485 61.8496 15.5317C61.8496 10.6728 58.1754 6.99575 53.3201 6.99575C52.4745 6.99575 51.6288 6.99575 50.6665 6.99575C51.4539 8.95099 51.3518 10.8916 51.3518 12.8323C51.3518 14.7438 51.3518 16.6698 51.3518 18.6251C52.8536 18.7418 54.1075 19.2817 55.026 20.4636C55.7405 21.3828 56.0612 22.4334 56.0029 23.5861C55.9009 25.9645 54.1366 27.6717 51.3372 28.0365C51.483 31.6552 50.4916 34.9674 48.2754 37.7981C49.4272 38.4256 50.6082 38.9363 51.6142 39.6512C55.1135 42.1172 57.0381 45.5461 57.1256 49.8214C57.2422 55.5996 57.1548 61.3924 57.1548 67.1851C57.1548 67.3311 57.1402 67.4624 57.1256 67.6375C56.3674 67.6375 55.6384 67.6375 54.8219 67.6375C54.8219 67.3602 54.8219 67.083 54.8219 66.8058C54.8219 61.334 54.8219 55.8622 54.8219 50.3905C54.8219 45.4878 51.8184 41.4606 47.1381 40.0598C46.5549 39.8847 46.1466 40.016 45.6072 40.3078C44.3824 40.9499 43.945 42.015 43.5805 43.2261C43.0994 44.802 42.5453 46.3633 42.0204 47.9245C41.5976 49.1648 40.7082 49.3837 39.775 48.4498C39.5563 48.231 39.3668 47.9683 39.1773 47.7203C39.0898 47.7349 38.9877 47.764 38.9002 47.7786C38.7836 48.4061 38.5211 49.0481 38.5649 49.6755C38.8856 53.6298 39.2939 57.5694 39.6147 61.5091C39.6438 61.9468 39.4251 62.5159 39.1189 62.8515C38.1275 63.9459 37.0485 64.9673 35.9987 66.0178C35.2697 66.7328 34.7157 66.7328 33.9867 66.0032C32.9369 64.9673 31.8579 63.9459 30.8665 62.8369C30.5603 62.5013 30.3416 61.9323 30.3853 61.4799C30.6915 57.6278 31.0852 53.7757 31.3914 49.9236C31.4497 49.2086 31.2456 48.479 31.1581 47.764C31.0414 47.7057 30.9248 47.6619 30.7936 47.6035C30.5603 47.9099 30.3708 48.2601 30.0937 48.5374C29.2918 49.3253 28.3733 49.1064 28.0087 48.0267C27.3526 46.1152 26.7111 44.2183 26.1133 42.2923C25.8946 41.5773 25.428 41.1687 24.9177 40.6726C23.9117 39.7096 22.964 39.9431 21.8704 40.3808C17.8609 41.9713 15.1781 45.8526 15.1781 50.1862C15.1635 55.7309 15.1781 61.2756 15.1781 66.8204C15.1781 67.083 15.1781 67.3457 15.1781 67.6375C14.3908 67.6375 13.6763 67.6375 12.8452 67.6375C12.8452 67.3894 12.8452 67.1268 12.8452 66.8787C12.8452 61.4361 12.8452 55.979 12.8452 50.5364C12.8452 44.7874 16.0092 40.1619 21.3601 38.09C21.4768 38.0754 21.5934 38.017 21.7975 37.9295ZM48.844 17.5161C47.4443 17.5161 45.9863 17.5015 44.5428 17.5161C42.4432 17.5453 40.5915 16.8887 38.9877 15.5317C38.8565 15.415 38.7107 15.3274 38.492 15.1815C38.492 15.6484 38.5066 16.0132 38.492 16.378C38.4482 17.02 38.0837 17.4432 37.4422 17.4869C35.4593 17.6329 33.5201 17.414 31.8725 16.2321C30.8665 15.5171 30.0062 14.5979 29.0439 13.7516C28.2129 15.0064 27.0464 16.0424 25.603 16.7428C24.1596 17.4432 22.5849 17.5453 21.0102 17.5161C21.0102 21.6747 20.8936 25.7311 21.0394 29.7875C21.2143 34.7923 24.9031 39.2135 29.7584 40.4246C32.7911 41.1833 35.8967 41.0082 38.9586 40.6726C43.945 40.1328 48.4212 35.7845 48.7857 30.7797C49.0919 26.4315 48.844 22.0249 48.844 17.5161ZM36.1591 15.1231C36.1591 13.3138 36.1591 11.4899 36.1591 9.68056C36.1591 8.74672 36.5674 8.22143 37.2818 8.19224C38.0108 8.16306 38.4482 8.67376 38.492 9.59301C38.6232 12.307 40.5186 14.6708 43.2014 15.021C45.0823 15.2691 47.0069 15.0648 48.9752 15.0648C48.9752 13.6056 48.9898 12.1027 48.9752 10.5998C48.9315 6.09109 45.2427 2.38488 40.7519 2.3557C36.9173 2.32651 33.0827 2.32651 29.2335 2.3557C25.5593 2.37029 22.2787 4.88 21.3018 8.41111C20.6894 10.629 21.0977 12.8907 20.9665 15.1231C21.7101 15.1231 22.3808 15.2107 23.0077 15.1086C25.88 14.6416 27.8192 12.4091 27.965 9.47628C28.0087 8.67376 28.4462 8.17765 29.146 8.17765C29.8313 8.17765 30.2541 8.67376 30.3124 9.49087C30.3416 9.87025 30.3853 10.2642 30.4582 10.6436C31.0414 13.2554 33.6367 15.3274 36.1591 15.1231ZM33.7242 50.2446C33.3889 53.9216 33.0535 57.5403 32.7328 61.1735C32.7182 61.3048 32.7619 61.4799 32.8494 61.5675C33.5493 62.297 34.2637 62.9974 35.0365 63.7708C35.7217 63.0704 36.3487 62.4575 36.9173 61.8009C37.1069 61.5821 37.2381 61.2173 37.2089 60.9254C37.0777 59.014 36.9027 57.1025 36.7278 55.191C36.582 53.5568 36.4216 51.9226 36.2612 50.2592C35.401 50.2446 34.6136 50.2446 33.7242 50.2446ZM34.9927 43.6201C34.2783 44.3497 33.6222 45.0209 32.9952 45.7067C32.8931 45.8088 32.9077 46.0568 32.9515 46.2319C33.3597 47.8808 33.3743 47.8808 35.0802 47.8808C36.4799 47.8808 36.4507 47.8662 36.9173 46.6113C37.1214 46.0568 37.0631 45.6921 36.6111 45.2981C36.0717 44.8166 35.6051 44.2475 34.9927 43.6201ZM18.619 25.6581C18.619 24.126 18.619 22.5939 18.619 21.0618C17.3943 20.9889 16.3008 22.1562 16.3299 23.411C16.3445 24.6221 17.4672 25.7603 18.619 25.6581ZM51.3372 25.6581C52.5328 25.7603 53.743 24.5929 53.6555 23.1776C53.5826 21.9957 52.3433 20.8576 51.3372 21.1202C51.3372 22.6085 51.3372 24.1114 51.3372 25.6581ZM31.96 43.2115C30.9248 43.0364 29.8313 42.8467 28.6649 42.6425C29.0148 43.6785 29.3356 44.6269 29.6272 45.5316C30.4145 44.7582 31.1873 43.9849 31.96 43.2115ZM41.3351 42.6571C40.125 42.8613 39.046 43.051 38.0692 43.2261C38.8273 43.9849 39.6001 44.7582 40.3874 45.5316C40.6644 44.6415 40.9852 43.6784 41.3351 42.6571Z" fill="black"/>
<path d="M19.8584 67.6669C19.8584 62.2243 19.8584 56.8401 19.8584 51.4121C20.6166 51.4121 21.331 51.4121 22.1038 51.4121C22.1038 56.8109 22.1038 62.2098 22.1038 67.6669C21.3893 67.6669 20.6457 67.6669 19.8584 67.6669Z" fill="#FF6B00"/>
<path d="M47.8818 51.3975C48.6254 51.3975 49.3399 51.3975 50.1126 51.3975C50.1126 56.8255 50.1126 62.2243 50.1126 67.6669C49.3836 67.6669 48.6546 67.6669 47.8818 67.6669C47.8818 62.2827 47.8818 56.8839 47.8818 51.3975Z" fill="#FF6B00"/>
<path d="M30.269 24.4905C30.2836 25.439 29.5254 26.2561 28.5777 26.2853C27.5862 26.3291 26.7405 25.4974 26.7551 24.5051C26.7697 23.5567 27.557 22.7688 28.5048 22.7688C29.4525 22.7542 30.2544 23.5421 30.269 24.4905Z" fill="black"/>
<path d="M41.5976 22.7688C42.5453 22.7542 43.3472 23.5275 43.3764 24.476C43.4056 25.4682 42.5745 26.2999 41.583 26.2853C40.6353 26.2707 39.848 25.4682 39.8625 24.5197C39.8625 23.5567 40.6499 22.7688 41.5976 22.7688Z" fill="black"/>
</g>
<defs>
<clipPath id="clip0">
<rect width="70" height="68" fill="white"/>
</clipPath>
</defs>
</svg>
