<svg xmlns="http://www.w3.org/2000/svg" width="15" height="12" fill-rule="evenodd" fill="#fff" xmlns:v="https://vecta.io/nano"><path d="M7.485 0c1.423.036 2.687.524 3.83 1.357 1.238.903 2.2 2.07 2.975 3.388l.685 1.26a.21.21 0 0 1 .012.162c-.715 1.405-1.588 2.693-2.75 3.758-1.006.927-2.137 1.62-3.47 1.926-1.467.337-2.85.078-4.166-.62-1.4-.737-2.5-1.818-3.42-3.106A12.59 12.59 0 0 1 .023 6.127C0 6.076-.01 5.997.012 5.95.63 4.532 1.44 3.247 2.558 2.182 3.646 1.147 4.9.4 6.365.135c.368-.07.747-.1 1.12-.135zm.056 1.736c-1.017.006-1.893.292-2.702.794-1.2.743-2.07 1.803-2.8 3.018-.2.325-.194.557.006.88.76 1.22 1.664 2.293 2.88 3.057.74.466 1.538.77 2.417.797 1.047.036 1.982-.313 2.846-.9 1.117-.743 1.967-1.75 2.684-2.886.088-.138.235-.283.232-.424 0-.147-.14-.298-.23-.442-.712-1.168-1.56-2.212-2.687-2.985-.82-.56-1.714-.912-2.658-.918zM5.016 6.012c0-1.417 1.1-2.567 2.48-2.564 1.36.003 2.47 1.153 2.47 2.564S8.85 8.58 7.482 8.576c-1.36 0-2.467-1.153-2.467-2.564zm3.316 0c-.003-.48-.376-.858-.844-.852s-.826.382-.823.855c0 .478.37.852.844.85.46 0 .826-.382.823-.852z"/></svg>