<svg xmlns="http://www.w3.org/2000/svg" width="48" height="48" fill="none" xmlns:v="https://vecta.io/nano"><path d="M36.8 25.605c0 3.54-2.9 6.4-6.44 6.4a6.41 6.41 0 0 1-6.36-6.41c0-3.54 2.9-6.4 6.43-6.4 3.5.01 6.38 2.9 6.38 6.4zm-1.62-.76h-9.55v1.52h9.55v-1.52zm-1.63 4.74v-1.55h-6.3v1.55h6.3zM28 23.155h4.75v-1.52H28v1.52zm1.6 13.663h1.57c.01.12.04.25.04.37v8.232c0 .28-.15.63-.35.8a.84.84 0 0 1-.77.06 1.04 1.04 0 0 1-.46-.69c-.06-.63-.02-1.26-.02-1.9v-6.9z" fill="#ec7e3b"/><path d="M39.2 8.042v1.52H21.64v-1.52H39.2zm-1.64 7.94h-14.3v-1.55h14.3v1.55zM36 11.242v1.52H24.84v-1.52H36zm-.8 13.603v1.52h-9.55v-1.52h9.55zm-1.64 4.74h-6.3v-1.55h6.3v1.55zm-5.54-6.43v-1.52h4.75v1.52h-4.75zm-23.26.83h-1.5V11.232h1.5v12.753zm4.9-12.773h1.5v12.743h-1.5V11.212zM3.25 3.2h1.5v3.15h-1.5V3.2zm6.37 3.14v-3.1h1.55v3.1H9.62zM32.8 43.2v2.32c-.01 1.4-1.05 2.48-2.4 2.48s-2.38-1.07-2.4-2.5v-2.3H1.15C.23 43.2 0 42.97 0 42.05L.01 1.1C.01.25.26 0 1.1 0h45.8c.85 0 1.1.25 1.1 1.1v41c0 .85-.25 1.1-1.1 1.1H33.4h-.6zm10.38-4.8V4.83H17.64v33.557H28v-2.16c0-.74.27-1 1.03-1h.53v-1.65l-.32-.06a8.01 8.01 0 0 1-6.84-7.742c-.08-4.92 4.18-8.702 9.07-8.062 5.3.7 8.46 6.43 6.17 11.262-1.2 2.55-3.26 4.06-6.06 4.55-.14.02-.37.13-.37.22-.04.5-.02.98-.02 1.5h.48c.9 0 1.12.24 1.12 1.13v2.05l10.38-.02zM27.98 40H17.12c-.85 0-1.1-.25-1.1-1.1V4.3c0-.85.25-1.1 1.1-1.1h26.6c.84 0 1.1.25 1.1 1.1v34.557c0 .9-.24 1.13-1.1 1.13H32.84v1.58H46.4V1.63H14.45V41.6H28V40zm8.82-14.393c0-3.52-2.87-6.4-6.38-6.4-3.55-.01-6.43 2.86-6.43 6.4 0 3.52 2.87 6.4 6.37 6.4 3.55.01 6.44-2.87 6.44-6.4zm-30.43-.02V9.622H1.64v15.963h4.74zm6.4 0V9.622H8.03v15.963h4.75zM1.62 7.972h4.76V1.62H1.62v6.35zM12.8 1.62H8.03v6.34h4.76V1.62zm16.8 35.197v6.9c0 .63-.04 1.27.02 1.9a1.04 1.04 0 0 0 .46.69.84.84 0 0 0 .77-.06 1.2 1.2 0 0 0 .35-.8v-8.232c0-.13-.02-.25-.04-.37H29.6zm-28-3.06c.45-1.05 1.17-1.7 2.3-1.74 1.23-.04 2 .64 2.45 1.83v-3.4H1.6v3.32zm6.4.15c.55-1.27 1.27-1.86 2.26-1.9 1.25-.03 2.04.63 2.5 1.83v-3.4H8v3.47zm-1.64 4.48v-3.43c-.53 1.2-1.22 1.78-2.2 1.83-1.27.06-2.07-.62-2.55-1.83v3.43h4.74zm1.66-3.46v3.44h4.75v-3.46c-.45 1.2-1.2 1.87-2.38 1.87-1.18.01-1.92-.66-2.37-1.85zm-1.62-7.7H1.63v1.54H6.4v-1.54zm1.64-.01v1.56h4.75v-1.56H8.03zM6.4 40.028H1.63v1.54H6.4v-1.54zm1.64-.01v1.54h4.76v-1.54H8.03zM4 35.208c.43.01.8-.32.83-.76.03-.45-.33-.84-.78-.85-.43-.01-.8.32-.83.76a.81.81 0 0 0 .78.85zm6.42-1.6c-.43 0-.8.35-.8.78-.01.45.36.83.8.82.43 0 .8-.35.8-.78a.81.81 0 0 0-.81-.82z" fill="#171716"/></svg>