<svg xmlns="http://www.w3.org/2000/svg" width="56" height="54" fill="none" xmlns:v="https://vecta.io/nano"><path d="M11.02 29.98l.5.84c1.683 2.346 3.914 3.94 6.67 4.704 4.133 1.148 7.937.37 11.4-2.173 2.987-2.198 4.865-5.15 5.694-8.766.817-3.568.597-7.05-.988-10.384a9.1 9.1 0 0 0-.244-.457l-.146.247c-1.097 2.124-2.67 3.753-4.78 4.877-2.134 1.136-4.426 1.235-6.742 1-1.488-.148-2.938-.173-4.377.272-3.5 1.087-5.804 3.42-6.9 6.964-.073.235-.037.494-.06.815-.024.47-.024 2.062-.024 2.062z" fill="#ec7e3b"/><path d="M5.703 35.782L3.63 38.634c-.305.42-.67.864-1.183.9-.67.037-1.158-.728-1.097-1.395.06-.68.488-1.247.9-1.8l1.463-1.9c.268-.358.55-.716.67-1.16.1-.42.06-.877.024-1.3-.293-3.655.67-7.408 2.682-10.458s5.06-5.396 8.5-6.52c3.963-1.3 8.425-1.062 12.095-3.074 3.23-1.766 5.475-5.272 5.767-8.976.06-.753.05-1.543.427-2.185S35.183-.28 35.744.213c.293.26.4.654.536 1.025.33.852.927 1.556 1.463 2.284 4 5.322 5.767 12.347 4.73 18.965-1.83 11.705-12.06 21.286-24.08 19.768A21.15 21.15 0 0 1 5.74 35.782h-.037zm1.597-1.73c.34.395.6.753.927 1.062 3.024 2.877 6.62 4.53 10.742 4.865 6.182.506 11.388-1.642 15.63-6.2 3.658-3.94 5.548-8.655 5.767-14.026.207-5.297-1.036-10.186-4.182-14.508-.134-.185-.28-.358-.463-.58-.073.198-.1.284-.134.383-.988 3.32-2.804 6.075-5.5 8.248-2.73 2.2-5.962 2.976-9.327 3.272-2.146.198-4.23.568-6.145 1.58-4.694 2.507-7.352 6.445-7.962 11.792-.037.346.073.716.134 1.185l.463-.358c3.377-2.766 7.206-4.568 11.473-5.396 1.012-.198 2.048-.296 3.048-.52.6-.136 1.183.025 1.378.543.232.605-.098 1.482-.658 1.667-.476.148-.963.296-1.463.358-2.33.3-4.572.9-6.73 1.852-2.585 1.16-4.9 2.716-7 4.8zm15.156 16.003c2.414 1.32 4.95 1.617 7.596 1.074 2.658-.543 4.84-1.914 6.633-3.94l1.463 1.543c-2.23 3.52-5.548 5.15-9.693 5.26-4.133.1-7.62-1.32-10.522-4.284-.622-.642-1.268-1.26-2.012-1.988h7.242v2.297l-.707.037zM9.434 7.384l-2.06-1.05.33-.593C5.203 7.05 3.8 9.236 2.9 11.816c-.914 2.618-.683 5.26.05 7.927l-2.243.58C.5 19.508.204 18.743.12 17.94c-.6-5.643 1.1-10.372 5.56-13.952C6.934 2.976 8.373 2.334 9.922 1.9c.914-.247 1.817-.53 2.865-.84L9.434 7.384zm41.626 8.16l2.048-1.296.415.494c-.1-2.74-1.097-5.1-2.816-7.15-1.744-2.087-3.963-3.346-6.657-3.9l.5-2.05c7.572 1.247 14.436 9.8 10.108 20.113l-3.597-6.223zm-21.2 7.532c-.012.284-.1.593-.28.815-.427.568-2.134 1.704-2.865 1.655-.476-.025-.94-.395-1-.877-.073-.568.4-1.037.83-1.383a10.89 10.89 0 0 1 1.256-.864c.512-.296 1.17-.556 1.658-.235.293.185.415.53.402.9zm3.132-5.705c.244 0 .475.074.658.222.475.37.512 1.1.268 1.667-.402.877-1.865 2.383-2.573.9-.244-.518-.134-1.148.122-1.667.207-.407.5-.8.915-.988.183-.086.402-.136.6-.136z" fill="#171716"/></svg>