<svg xmlns="http://www.w3.org/2000/svg" viewBox="0 0 50 50" fill="#556484">
  <path
    d="M25 4C13.414 4 4 13.414 4 25s9.414 21 21 21 21-9.414 21-21a21.1 21.1 0 0 0-.09-1.797 1 1 0 0 0-1.533-.76c-.55.35-1.187.557-1.877.557-1.483 0-2.73-.917-3.246-2.21a1 1 0 0 0-1.404-.51A5.96 5.96 0 0 1 35 21c-3.326 0-6-2.674-6-6a5.96 5.96 0 0 1 .719-2.85 1 1 0 0 0-.51-1.404C27.917 10.23 27 8.983 27 7.5c0-.7.205-1.326.557-1.877a1 1 0 0 0-.76-1.533A21.1 21.1 0 0 0 25 4zm13 0a2 2 0 1 0 0 4 2 2 0 1 0 0-4zM25 6c.143 0 .292.017.436.02-.15.497-.436.932-.436 1.48 0 1.937 1.138 3.483 2.66 4.46-.392.945-.66 1.955-.66 3.04a8.02 8.02 0 0 0 8 8c1.084 0 2.094-.268 3.04-.66.978 1.522 2.524 2.66 4.46 2.66.546 0 .982-.285 1.48-.436.005.144.02.293.02.436 0 10.506-8.494 19-19 19S6 35.506 6 25 14.494 6 25 6zm11.5 6a1.5 1.5 0 1 0 0 3 1.5 1.5 0 1 0 0-3zm-15 3a1.5 1.5 0 1 0 0 3 1.5 1.5 0 1 0 0-3zM45 15a1 1 0 1 0 0 2 1 1 0 1 0 0-2zm-30 5a3 3 0 1 0 0 6 3 3 0 1 0 0-6zm9.5 4a1.5 1.5 0 1 0 0 3 1.5 1.5 0 1 0 0-3zM17 31a2 2 0 1 0 0 4 2 2 0 1 0 0-4zm13.5 1a2.5 2.5 0 1 0 0 5 2.5 2.5 0 1 0 0-5z" />
</svg>