<svg width="80" height="80" viewBox="0 0 80 80" fill="none" xmlns="http://www.w3.org/2000/svg">
<path d="M16.4572 14.7911C16.4572 13.5719 16.4184 12.4313 16.4658 11.2951C16.5714 8.67317 17.2458 6.23475 18.8962 4.15248C20.9043 1.61792 23.6212 0.411818 26.7153 0.0884434C30.6129 -0.31796 34.0969 0.634685 36.7126 3.81162C38.4169 5.88297 39.0784 8.37165 39.1904 11.0198C39.2421 12.239 39.199 13.4648 39.199 14.7364C40.2806 14.7364 41.2588 14.7364 42.1551 14.7364C42.2715 13.3315 42.2349 11.9244 42.5257 10.5894C43.6547 5.39135 48.0394 1.82331 53.3181 1.7512C56.731 1.70532 60.1461 1.69658 63.5568 1.75339C70.2404 1.86482 75.1507 7.48673 74.5431 14.2667C74.5281 14.4284 74.541 14.5901 74.541 14.8086C74.8254 14.8654 75.1098 14.9156 75.3899 14.9812C78.1543 15.6323 79.9943 18.0205 79.9964 21.0095C80.0029 31.5498 79.9986 42.09 79.9986 52.6325C79.9986 55.7176 80.0029 58.805 79.9964 61.8902C79.9878 65.6723 77.5122 68.2113 73.7804 68.22C67.1162 68.2353 60.4499 68.2244 53.7857 68.2244C53.4647 68.2244 53.1436 68.2244 52.6998 68.2244C52.7946 68.5172 52.8484 68.74 52.9389 68.9454C54.096 71.5565 55.2745 74.1566 56.4035 76.7785C56.6147 77.2701 56.8797 77.4165 57.371 77.3838C57.9592 77.3444 58.5538 77.3575 59.1442 77.3794C59.9759 77.4122 60.4951 77.9344 60.493 78.6947C60.4887 79.4507 59.9673 79.9511 59.1313 79.9926C58.9158 80.0035 58.7003 79.997 58.487 79.997C46.1519 79.997 33.8147 79.997 21.4796 79.997C21.2383 79.997 20.9948 80.0079 20.7535 79.9882C20.0166 79.9271 19.534 79.4376 19.5081 78.745C19.4823 78.013 19.967 77.4406 20.7276 77.3925C21.4236 77.3488 22.126 77.4056 22.8219 77.3619C23.0417 77.3488 23.367 77.2112 23.4467 77.0364C24.7481 74.1697 26.0193 71.2877 27.3767 68.2288C26.9436 68.2288 26.6442 68.2288 26.3425 68.2288C19.6245 68.2288 12.9043 68.2397 6.1862 68.2244C2.94352 68.2113 0.573458 66.2055 0.067126 63.0832C0.00248792 62.6811 0.00248792 62.2682 0.00248792 61.8596C0.000333318 48.2866 -0.00182128 34.7158 0.00248792 21.1428C0.00464252 17.3759 2.51476 14.8107 6.21852 14.7933C9.30822 14.7801 12.4001 14.7911 15.4898 14.7911C15.7785 14.7911 16.0672 14.7911 16.4572 14.7911ZM77.3614 57.6601C77.3851 57.5224 77.4109 57.4438 77.4109 57.3651C77.4131 45.1577 77.4195 32.9503 77.4045 20.7429C77.4023 19.0911 76.2453 17.8172 74.6444 17.4786C74.0562 17.354 73.7546 17.4829 73.4637 18.0707C71.8628 21.3088 69.3182 23.4545 65.8127 24.1405C64.0675 24.4814 62.2317 24.3328 60.4391 24.4617C60.0621 24.4901 59.6182 24.6824 59.3532 24.949C58.4763 25.8317 57.7114 26.8324 56.8151 27.6933C56.2613 28.2242 55.5912 28.6765 54.8996 28.9999C53.8331 29.5003 52.7342 29.4391 51.7927 28.6437C50.8166 27.82 50.5301 26.7188 50.7391 25.4734C50.808 25.056 50.9071 24.6431 50.9912 24.2389C46.8156 22.7968 45.5853 21.7633 43.2238 17.7714C43.1312 17.614 42.9157 17.4349 42.7541 17.4305C41.6079 17.4021 40.4595 17.4152 39.212 17.4152C39.212 17.885 39.2206 18.2586 39.2098 18.6344C39.1344 21.3591 38.3092 23.8696 36.411 25.7618C35.1915 26.9766 34.8597 28.2133 34.976 29.7974C35.0169 30.348 35.1053 30.5731 35.6978 30.6954C43.2798 32.2533 48.968 38.8759 49.3666 46.7396C49.5303 49.9821 49.4248 53.2377 49.4399 56.4868C49.442 56.8626 49.4399 57.2384 49.4399 57.6623C58.7822 57.6601 68.0449 57.6601 77.3614 57.6601ZM2.6074 60.3476C2.6074 61.1713 2.54277 61.9361 2.62249 62.6833C2.76684 64.0446 3.79243 65.196 5.09812 65.4954C5.58937 65.6068 6.11294 65.5981 6.61927 65.5981C28.8699 65.6024 51.1183 65.6024 73.3689 65.6003C73.6921 65.6003 74.0153 65.6068 74.3363 65.5806C75.6614 65.467 76.6977 64.8027 77.1007 63.5398C77.4152 62.5457 77.3915 61.4401 77.523 60.3454C52.4283 60.3476 27.5749 60.3476 2.6074 60.3476ZM6.24868 57.6776C6.24868 57.2996 6.24868 57.0046 6.24868 56.7096C6.24868 53.8167 6.21852 50.9238 6.26376 48.0309C6.281 46.8358 6.31978 45.6122 6.58049 44.4563C8.26108 37.0471 12.7857 32.4565 20.0554 30.6779C20.5078 30.5665 20.6996 30.4267 20.6737 29.9438C20.6393 29.2905 20.7255 28.6263 20.6436 27.9817C20.5897 27.5709 20.4217 27.0881 20.1373 26.8127C18.3619 25.0779 17.1531 23.024 16.6791 20.5681C16.4852 19.563 16.4572 18.5252 16.3495 17.4524C16.1211 17.4393 15.8862 17.4174 15.6514 17.4152C12.5358 17.413 9.42026 17.4087 6.30255 17.4152C3.91525 17.4196 2.58155 18.7961 2.58155 21.2433C2.57939 33.088 2.58155 44.9348 2.58155 56.7795C2.58155 57.0701 2.58155 57.3607 2.58155 57.6776C3.82906 57.6776 4.97747 57.6776 6.24868 57.6776ZM58.4569 4.40593C58.4569 4.40375 58.4569 4.39938 58.4569 4.39719C56.6018 4.39719 54.7445 4.31417 52.8958 4.41249C46.4105 4.75553 42.6744 12.0468 46.0938 17.6556C47.5912 20.1093 49.804 21.453 52.6201 21.7939C53.7857 21.9359 54.2101 22.5827 53.8999 23.7145C53.7771 24.1602 53.5982 24.5972 53.5293 25.0517C53.4517 25.5564 53.4668 26.0764 53.4431 26.5899C53.971 26.3364 54.6044 26.1988 55.003 25.8099C56.048 24.7895 57.0047 23.6751 57.9635 22.5695C58.4267 22.0364 58.9503 21.8135 59.6527 21.8092C61.4496 21.7961 63.2724 21.8944 65.037 21.6278C69.1523 21.0051 72.2593 16.9891 72.046 12.818C71.8133 8.27769 68.4219 4.65065 64.1019 4.42341C62.2231 4.32291 60.3378 4.40593 58.4569 4.40593ZM46.8608 57.6841C46.8608 57.3433 46.8608 57.0745 46.8608 56.8079C46.8608 53.9413 46.8823 51.0746 46.85 48.2101C46.8392 47.1766 46.7897 46.1278 46.5979 45.1184C45.7318 40.5343 43.2109 37.1433 39.2357 34.7595C39.0417 35.0173 38.8758 35.2249 38.7207 35.4434C37.4042 37.305 36.0899 39.1665 34.7756 41.0281C33.8901 42.2823 33.569 42.3784 32.1923 41.7404C32.022 42.1643 31.8906 42.6057 31.673 43.0012C31.0913 44.063 31.0848 45.1512 31.3283 46.3157C31.645 47.8343 31.8518 49.3769 32.1104 50.9085C32.4874 53.1591 32.8666 55.4096 33.2459 57.6513C35.2065 57.6513 37.0983 57.6513 39.0396 57.6513C39.0396 55.5516 39.031 53.5065 39.0439 51.4635C39.0504 50.5393 39.5308 49.9952 40.3022 49.9799C41.1123 49.9625 41.61 50.5152 41.6165 51.4854C41.6273 53.2596 41.6208 55.0338 41.6208 56.8079C41.6208 57.0964 41.6208 57.3826 41.6208 57.6841C43.3983 57.6841 45.0595 57.6841 46.8608 57.6841ZM16.4486 34.7245C11.7645 37.672 9.05182 41.7273 8.86437 47.2837C8.75233 50.6092 8.83421 53.9413 8.83421 57.269C8.83421 57.3957 8.87084 57.5224 8.89238 57.6601C10.6204 57.6601 12.2967 57.6601 14.044 57.6601C14.044 57.3476 14.044 57.0811 14.044 56.8123C14.044 55.0665 14.0376 53.3186 14.0462 51.5728C14.0505 50.5284 14.5288 49.9646 15.3605 49.9777C16.1599 49.9887 16.6145 50.5415 16.6209 51.5356C16.6296 52.5997 16.6231 53.6638 16.6231 54.7279C16.6231 55.7002 16.6231 56.6725 16.6231 57.6732C18.5967 57.6732 20.4691 57.6732 22.378 57.6732C22.4427 57.3629 22.5116 57.0767 22.559 56.7861C23.1429 53.2923 23.6299 49.7789 24.3452 46.3157C24.705 44.57 24.0802 43.2109 23.4209 41.7666C22.1389 42.3631 21.7791 42.2604 20.9603 41.1046C20.7405 40.7943 20.5208 40.4863 20.301 40.176C19.0363 38.3887 17.7715 36.597 16.4486 34.7245ZM53.7534 77.3291C53.7211 77.1784 53.7146 77.0691 53.6737 76.9752C52.4498 74.2156 51.2109 71.4625 50.0087 68.6942C49.8061 68.2288 49.5002 68.2222 49.1124 68.2244C43.0385 68.2288 36.9626 68.2331 30.8887 68.2178C30.3953 68.2156 30.1325 68.3511 29.9235 68.8405C29.0832 70.8179 28.189 72.7713 27.3185 74.7356C26.9458 75.5746 26.5838 76.418 26.1831 77.3335C35.4263 77.3291 44.5705 77.3291 53.7534 77.3291ZM19.0319 14.4786C19.0319 15.8311 19.0126 17.1355 19.0363 18.44C19.1095 22.3838 21.7769 25.871 25.4721 26.8805C29.2943 27.9249 33.2286 26.3299 35.3294 22.976C36.9949 20.3168 36.6049 17.3955 36.62 14.4131C34.8898 14.4131 33.2308 14.4568 31.5739 14.4021C28.7794 14.3104 25.9848 14.1596 23.7979 12.0096C22.5849 14.0351 22.2164 14.2274 19.0319 14.4786ZM36.5618 11.9441C36.8182 8.32139 35.2755 5.04176 32.5844 3.69145C29.0379 1.91289 25.513 2.21441 22.2854 4.49552C19.8421 6.22164 19.103 8.86108 19.0363 11.7671C20.9431 11.9004 21.3029 11.6535 21.8114 9.93171C21.9514 9.46194 21.9988 8.93755 22.2423 8.53552C22.4578 8.18374 22.8714 7.77515 23.2291 7.74238C23.6277 7.70523 24.0866 8.02205 24.4723 8.2624C24.6533 8.37602 24.733 8.66662 24.8386 8.8873C25.5647 10.4146 26.7713 11.3388 28.4066 11.4743C31.102 11.6993 33.8061 11.7911 36.5618 11.9441ZM30.6172 57.6623C29.9536 53.6703 29.2986 49.7308 28.6458 45.7957C28.0533 45.7957 27.534 45.7957 26.9997 45.7957C26.3382 49.7833 25.6854 53.7119 25.0282 57.6623C26.9458 57.6623 28.76 57.6623 30.6172 57.6623ZM23.2463 28.8666C23.2463 29.4216 23.2205 29.8302 23.255 30.2344C23.283 30.5687 23.2636 31.0341 23.4618 31.2089C24.8838 32.4434 26.3554 33.6167 27.8378 34.8294C29.3008 33.632 30.725 32.4784 32.1276 31.2985C32.2828 31.1674 32.3883 30.8964 32.4034 30.6823C32.44 30.1142 32.4163 29.544 32.4163 28.8732C29.3611 30.1404 26.3554 30.1536 23.2463 28.8666ZM36.7988 33.6561C35.9542 33.4616 35.2561 33.2759 34.5472 33.1557C34.3124 33.1164 33.9935 33.1797 33.8104 33.3239C32.5241 34.3465 31.2636 35.4018 29.9299 36.4987C30.9835 37.329 31.9919 38.1199 33.0541 38.9568C34.2995 37.1935 35.4974 35.498 36.7988 33.6561ZM25.7521 36.4987C24.3926 35.3822 23.1063 34.3225 21.8092 33.2737C21.695 33.1819 21.5076 33.1033 21.374 33.1273C20.5789 33.2759 19.7904 33.455 18.8703 33.6517C20.189 35.5155 21.3955 37.2241 22.6237 38.9612C23.7117 38.1068 24.7007 37.3268 25.7521 36.4987ZM27.8507 38.1986C27.7107 38.2969 27.5943 38.3647 27.4909 38.4499C26.8704 38.9633 25.9288 39.3785 25.7306 40.0274C25.5475 40.6239 26.2197 41.4586 26.4222 42.2124C26.6205 42.9487 27.0104 43.1257 27.7408 43.1432C28.5984 43.165 29.0681 42.9225 29.2857 42.0616C29.4301 41.487 29.7468 40.956 29.917 40.3857C29.9752 40.1869 29.9019 39.833 29.7554 39.704C29.1478 39.1731 28.4906 38.6968 27.8507 38.1986Z" fill="black"/>
<path d="M77.3623 57.66C68.0458 57.66 58.7832 57.66 49.4408 57.66C49.4408 57.2361 49.443 56.8603 49.4408 56.4845C49.4257 53.2354 49.5313 49.9798 49.3676 46.7373C48.969 38.8737 43.2808 32.251 35.6988 30.6931C35.1063 30.5708 35.0179 30.3457 34.977 29.7951C34.8585 28.211 35.1924 26.9743 36.4119 25.7595C38.3101 23.8695 39.1354 21.3568 39.2108 18.6321C39.2215 18.2585 39.2129 17.8827 39.2129 17.4129C40.4604 17.4129 41.6088 17.3998 42.7551 17.4282C42.9167 17.4326 43.1321 17.6118 43.2248 17.7691C45.5862 21.761 46.8165 22.7945 50.9921 24.2366C50.9081 24.6408 50.8112 25.0538 50.7401 25.4711C50.5311 26.7187 50.8176 27.8177 51.7937 28.6415C52.7352 29.4368 53.8341 29.498 54.9006 28.9976C55.5922 28.6742 56.2623 28.222 56.816 27.691C57.7123 26.8301 58.4772 25.8294 59.3542 24.9467C59.6192 24.6801 60.0652 24.4857 60.4401 24.4594C62.2306 24.3305 64.0684 24.4791 65.8137 24.1383C69.3214 23.4522 71.8638 21.3065 73.4647 18.0684C73.7555 17.4807 74.0572 17.3518 74.6454 17.4763C76.2462 17.815 77.4033 19.0888 77.4054 20.7406C77.4205 32.948 77.414 45.1554 77.4119 57.3628C77.4119 57.4437 77.386 57.5223 77.3623 57.66ZM63.4673 41.1504C66.0183 41.1504 68.5694 41.1613 71.1204 41.146C72.4563 41.1373 73.2169 40.3594 73.2298 39.0091C73.2449 37.4534 73.2449 35.8977 73.2298 34.3442C73.2169 33.0245 72.5015 32.227 71.1915 32.2204C66.0614 32.192 60.9335 32.1942 55.8034 32.2183C54.4611 32.2248 53.7328 33.0311 53.7177 34.3945C53.7026 35.8671 53.7091 37.342 53.7156 38.8147C53.722 40.4009 54.4697 41.1482 56.0533 41.1504C58.5268 41.1548 60.9981 41.1504 63.4673 41.1504ZM63.4587 44.5742C60.7482 44.5742 58.0377 44.572 55.3294 44.5764C54.3102 44.5786 53.722 45.0593 53.7242 45.8743C53.7263 46.6762 54.3361 47.1918 55.3358 47.194C60.7568 47.2006 66.1756 47.2006 71.5966 47.194C72.6653 47.194 73.2557 46.6827 73.2298 45.8284C73.2061 45.0069 72.6502 44.5764 71.5902 44.5764C68.8797 44.572 66.1692 44.5742 63.4587 44.5742ZM63.547 53.5064C63.547 53.5042 63.547 53.5042 63.547 53.502C66.3157 53.502 69.0843 53.5151 71.8509 53.4954C72.7041 53.4889 73.2212 52.9667 73.2298 52.2172C73.2384 51.4678 72.7278 50.9609 71.8853 50.8931C71.7259 50.88 71.5621 50.8866 71.4027 50.8866C66.1347 50.8866 60.8667 50.8844 55.6008 50.8888C55.3057 50.8888 54.948 50.8254 54.7325 50.9696C54.3576 51.2209 53.8836 51.5683 53.8061 51.9507C53.7285 52.333 53.9806 52.9186 54.2822 53.2092C54.5429 53.4605 55.0751 53.4933 55.4866 53.4954C58.1713 53.5173 60.8602 53.5064 63.547 53.5064Z" fill="white"/>
<path d="M2.60684 60.3477C27.5722 60.3477 52.4256 60.3477 77.5181 60.3477C77.3867 61.4423 77.4125 62.5479 77.0958 63.5421C76.695 64.805 75.6565 65.4692 74.3314 65.5828C74.0104 65.6112 73.6872 65.6025 73.364 65.6025C51.1134 65.6025 28.865 65.6047 6.6144 65.6003C6.10591 65.6003 5.58235 65.6091 5.09325 65.4976C3.78972 65.2005 2.76197 64.0468 2.61761 62.6856C2.5422 61.9361 2.60684 61.1714 2.60684 60.3477ZM41.3229 62.8757C41.3186 62.1415 40.7692 61.5931 40.0452 61.5996C39.3234 61.6062 38.7395 62.1655 38.7266 62.8626C38.7137 63.588 39.345 64.2172 40.0689 64.1998C40.7778 64.1823 41.3272 63.6011 41.3229 62.8757Z" fill="#F46800"/>
<path d="M6.24819 57.6777C4.97697 57.6777 3.82857 57.6777 2.58105 57.6777C2.58105 57.3587 2.58105 57.0681 2.58105 56.7797C2.58105 44.935 2.58105 33.0881 2.58105 21.2434C2.58105 18.7962 3.91475 17.4197 6.30205 17.4153C9.41761 17.4088 12.5332 17.4131 15.6509 17.4153C15.8857 17.4153 16.1206 17.4394 16.349 17.4525C16.4567 18.5253 16.4847 19.5631 16.6786 20.5682C17.1526 23.0241 18.3614 25.078 20.1368 26.8129C20.419 27.0882 20.5892 27.5732 20.6431 27.9818C20.725 28.6264 20.6388 29.2906 20.6733 29.9439C20.6991 30.4268 20.5074 30.5666 20.0549 30.6781C12.7853 32.4566 8.25843 37.0472 6.58 44.4565C6.31714 45.6123 6.28051 46.8359 6.26327 48.0311C6.21802 50.924 6.24819 53.8168 6.24819 56.7097C6.24819 57.0047 6.24819 57.2997 6.24819 57.6777Z" fill="white"/>
<path d="M58.456 4.406C60.337 4.406 62.2222 4.32515 64.0989 4.42348C68.421 4.64853 71.8124 8.27557 72.0429 12.8181C72.2562 16.9892 69.1493 21.0052 65.034 21.6279C63.2694 21.8945 61.4466 21.7961 59.6496 21.8092C58.9472 21.8136 58.4237 22.0365 57.9604 22.5696C57.0016 23.6752 56.045 24.7895 55 25.8099C54.6014 26.1988 53.968 26.3387 53.4401 26.5899C53.4659 26.0765 53.4487 25.5565 53.5263 25.0517C53.5974 24.5973 53.774 24.1624 53.8969 23.7145C54.2093 22.5805 53.7827 21.9338 52.617 21.7939C49.8031 21.4531 47.5882 20.1093 46.0907 17.6556C42.6692 12.0468 46.4075 4.75559 52.8928 4.41255C54.7415 4.31423 56.6009 4.39726 58.4538 4.39726C58.456 4.39944 58.456 4.40163 58.456 4.406ZM58.4538 9.32435C56.3079 9.32435 54.1619 9.3178 52.018 9.32654C51.0312 9.33091 50.4883 9.78975 50.4732 10.5938C50.456 11.4285 51.0291 11.9398 52.0374 11.9419C56.3014 11.9485 60.5653 11.9485 64.8315 11.9419C65.7795 11.9398 66.3677 11.435 66.3892 10.6572C66.4129 9.84438 65.8204 9.33091 64.8142 9.32654C62.6919 9.3178 60.5718 9.32435 58.4538 9.32435ZM63.3211 17.2711C63.9373 17.2711 64.5578 17.3082 65.1719 17.2623C65.9045 17.2077 66.3871 16.6658 66.3914 15.9863C66.3936 15.3133 65.9066 14.73 65.1827 14.7016C63.9502 14.6535 62.7135 14.6513 61.4789 14.6994C60.7291 14.7278 60.2831 15.2675 60.2809 15.9776C60.2788 16.6877 60.7226 17.2055 61.4703 17.2623C62.0822 17.306 62.7027 17.2689 63.3211 17.2711ZM53.4746 17.2754C54.0929 17.2754 54.7113 17.3082 55.3275 17.2667C56.0967 17.2143 56.6073 16.6484 56.588 15.947C56.5686 15.2806 56.0687 14.719 55.3404 14.695C54.1339 14.6513 52.923 14.6491 51.7164 14.6928C50.9321 14.7212 50.4538 15.2849 50.471 16.0147C50.4883 16.7073 50.9558 17.2121 51.7035 17.2645C52.2917 17.306 52.8842 17.2733 53.4746 17.2754Z" fill="#FF6B00"/>
<path d="M46.8602 57.6842C45.0611 57.6842 43.3999 57.6842 41.6159 57.6842C41.6159 57.3826 41.6159 57.0964 41.6159 56.808C41.6159 55.0338 41.6246 53.2596 41.6116 51.4854C41.6052 50.5153 41.1074 49.9625 40.2973 49.98C39.526 49.9953 39.0455 50.5415 39.039 51.4636C39.0261 53.5065 39.0347 55.5516 39.0347 57.6514C37.0934 57.6514 35.2017 57.6514 33.241 57.6514C32.8639 55.4096 32.4847 53.1591 32.1055 50.9086C31.8491 49.3769 31.6423 47.8344 31.3234 46.3158C31.0799 45.1512 31.0864 44.0631 31.6681 43.0012C31.8857 42.6057 32.015 42.1622 32.1874 41.7405C33.5642 42.3785 33.8852 42.2824 34.7708 41.0282C36.0851 39.1666 37.3994 37.3028 38.7158 35.4434C38.871 35.2249 39.0369 35.0173 39.2308 34.7595C43.2082 37.1455 45.7269 40.5366 46.5931 45.1184C46.7848 46.1301 46.8344 47.1789 46.8452 48.2102C46.8775 51.0768 46.8559 53.9435 46.8559 56.808C46.8602 57.0767 46.8602 57.3433 46.8602 57.6842Z" fill="white"/>
<path d="M16.4481 34.7246C17.771 36.5971 19.0357 38.3866 20.3027 40.1783C20.5224 40.4885 20.7422 40.7966 20.962 41.1069C21.7786 42.2606 22.1384 42.3632 23.4225 41.7689C24.0818 43.2132 24.7067 44.5722 24.3468 46.318C23.6315 49.7834 23.1446 53.2968 22.5607 56.7884C22.5133 57.079 22.4443 57.3652 22.3797 57.6755C20.4707 57.6755 18.5984 57.6755 16.6247 57.6755C16.6247 56.6748 16.6247 55.7025 16.6247 54.7301C16.6247 53.6661 16.6312 52.602 16.6226 51.5379C16.614 50.5438 16.1615 49.9931 15.3621 49.98C14.5283 49.9669 14.0521 50.5328 14.0478 51.5751C14.0392 53.3208 14.0457 55.0688 14.0457 56.8146C14.0457 57.0812 14.0457 57.3477 14.0457 57.6624C12.2983 57.6624 10.622 57.6624 8.89403 57.6624C8.87248 57.5269 8.83585 57.4002 8.83585 57.2713C8.83801 53.9414 8.75398 50.6093 8.86602 47.286C9.05131 41.7274 11.764 37.6743 16.4481 34.7246Z" fill="white"/>
<path d="M19.0314 14.4785C22.2159 14.2273 22.5865 14.035 23.7973 12.0095C25.9864 14.1595 28.7788 14.3103 31.5733 14.4021C33.2302 14.4567 34.8892 14.413 36.6194 14.413C36.6043 17.3955 36.9943 20.3168 35.3288 22.9759C33.228 26.3298 29.2937 27.9248 25.4715 26.8804C21.7763 25.8709 19.1089 22.3837 19.0357 18.4399C19.0098 17.1376 19.0314 15.8332 19.0314 14.4785Z" fill="white"/>
<path d="M36.562 11.9442C33.8084 11.7934 31.1022 11.7016 28.4089 11.4744C26.7736 11.3367 25.5649 10.4125 24.8409 8.88739C24.7353 8.66671 24.6556 8.37611 24.4746 8.26249C24.089 8.02214 23.63 7.70532 23.2314 7.74247C22.8738 7.77743 22.4601 8.18383 22.2446 8.53561C21.999 8.93764 21.9516 9.46204 21.8137 9.9318C21.3031 11.6536 20.9432 11.9005 19.0386 11.7672C19.1032 8.86117 19.8422 6.22173 22.2877 4.49561C25.5153 2.21669 29.0402 1.91298 32.5867 3.69154C35.2735 5.03967 36.8162 8.3193 36.562 11.9442Z" fill="#8A4A53"/>
<path d="M30.6174 57.6622C28.7601 57.6622 26.9459 57.6622 25.0283 57.6622C25.6855 53.7118 26.3383 49.781 26.9998 45.7957C27.5341 45.7957 28.0534 45.7957 28.6459 45.7957C29.2987 49.7308 29.9537 53.6703 30.6174 57.6622Z" fill="#FF6B00"/>
<path d="M23.2461 28.8667C26.3552 30.1536 29.3609 30.1405 32.4161 28.8754C32.4161 29.544 32.442 30.1165 32.4032 30.6846C32.3881 30.8987 32.2847 31.1697 32.1274 31.3008C30.7248 32.4784 29.3006 33.6321 27.8376 34.8317C26.3552 33.6168 24.8836 32.4435 23.4616 31.2112C23.2634 31.0386 23.2806 30.5732 23.2547 30.2367C23.2203 29.8303 23.2461 29.4217 23.2461 28.8667Z" fill="white"/>
<path d="M36.7986 33.6561C35.4972 35.498 34.2992 37.1936 33.0539 38.9568C31.9895 38.12 30.9833 37.3268 29.9297 36.4987C31.2634 35.4019 32.5238 34.3465 33.8101 33.324C33.9933 33.1798 34.3121 33.1164 34.547 33.1557C35.2559 33.2737 35.954 33.4616 36.7986 33.6561Z" fill="white"/>
<path d="M25.7522 36.4987C24.6986 37.3268 23.7096 38.1068 22.6259 38.9611C21.3978 37.2241 20.189 35.5154 18.8726 33.6517C19.7926 33.455 20.5833 33.2737 21.3762 33.1273C21.5098 33.1032 21.6972 33.1797 21.8114 33.2737C23.1064 34.3224 24.3927 35.3821 25.7522 36.4987Z" fill="white"/>
<path d="M27.8512 38.1985C28.4911 38.6967 29.1483 39.173 29.7537 39.7061C29.9002 39.835 29.9735 40.189 29.9153 40.3878C29.7451 40.9603 29.4284 41.489 29.284 42.0637C29.0686 42.9246 28.5989 43.1649 27.7392 43.1452C27.0088 43.1278 26.6166 42.953 26.4206 42.2144C26.218 41.4585 25.5479 40.6238 25.7289 40.0295C25.9272 39.3806 26.8687 38.9654 27.4892 38.4519C27.5948 38.3667 27.7112 38.2968 27.8512 38.1985Z" fill="#FF6B00"/>
<path d="M63.4666 41.1506C60.9953 41.1506 58.5261 41.1549 56.0548 41.1484C54.4712 41.144 53.7235 40.3968 53.717 38.8127C53.7106 37.34 53.7041 35.8651 53.7192 34.3925C53.7343 33.0312 54.4625 32.2228 55.8049 32.2162C60.935 32.1922 66.0629 32.1922 71.193 32.2184C72.503 32.225 73.2184 33.0225 73.2313 34.3422C73.2464 35.8979 73.2464 37.4536 73.2313 39.0071C73.2184 40.3574 72.4556 41.1353 71.1219 41.144C68.5709 41.1615 66.0198 41.1506 63.4666 41.1506ZM70.6178 34.8928C65.8065 34.8928 61.0729 34.8928 56.337 34.8928C56.337 36.123 56.337 37.2854 56.337 38.4827C61.1138 38.4827 65.8475 38.4827 70.6178 38.4827C70.6178 37.2744 70.6178 36.112 70.6178 34.8928Z" fill="black"/>
<path d="M63.4583 44.5742C66.1688 44.5742 68.8793 44.572 71.5877 44.5742C72.6477 44.5742 73.2036 45.0046 73.2273 45.8262C73.2532 46.6827 72.6606 47.1918 71.5941 47.1918C66.1731 47.1962 60.7543 47.1962 55.3333 47.1918C54.3357 47.1918 53.7238 46.674 53.7217 45.8721C53.7195 45.0571 54.3056 44.5764 55.3269 44.5742C58.0395 44.5698 60.75 44.5742 63.4583 44.5742Z" fill="black"/>
<path d="M63.5464 53.5065C60.8596 53.5065 58.1706 53.5174 55.4838 53.4955C55.0702 53.4912 54.5401 53.4606 54.2794 53.2093C53.9778 52.9209 53.7257 52.3353 53.8032 51.9508C53.8808 51.5684 54.357 51.221 54.7297 50.9697C54.943 50.8255 55.3028 50.8889 55.598 50.8889C60.866 50.8845 66.134 50.8867 71.3999 50.8867C71.5615 50.8867 71.7231 50.8823 71.8825 50.8932C72.725 50.961 73.2378 51.4679 73.227 52.2173C73.2184 52.9646 72.7013 53.489 71.848 53.4955C69.0794 53.5152 66.3129 53.5021 63.5442 53.5021C63.5464 53.5043 63.5464 53.5043 63.5464 53.5065Z" fill="black"/>
<path d="M41.324 62.8757C41.3283 63.6011 40.7768 64.1823 40.0701 64.1997C39.344 64.2172 38.7148 63.5901 38.7277 62.8625C38.7407 62.1655 39.3246 61.6062 40.0464 61.5996C40.7703 61.5953 41.3197 62.1415 41.324 62.8757Z" fill="white"/>
<path d="M58.4555 9.32438C60.5734 9.32438 62.6936 9.31783 64.8115 9.32657C65.8177 9.33094 66.4103 9.84222 66.3866 10.6572C66.365 11.4351 65.7768 11.942 64.8288 11.942C60.5648 11.9485 56.3009 11.9485 52.0347 11.942C51.0264 11.9398 50.4554 11.4285 50.4705 10.5938C50.4856 9.78978 51.0285 9.33094 52.0154 9.32657C54.1635 9.31783 56.3095 9.32438 58.4555 9.32438Z" fill="white"/>
<path d="M63.3214 17.271C62.7052 17.271 62.0847 17.3081 61.4706 17.2601C60.7229 17.2032 60.2791 16.6854 60.2813 15.9753C60.2834 15.2674 60.7294 14.7255 61.4792 14.6971C62.7116 14.649 63.9484 14.6512 65.183 14.6993C65.9069 14.7277 66.396 15.3132 66.3917 15.984C66.3896 16.6636 65.9048 17.2054 65.1722 17.2601C64.5581 17.3081 63.9376 17.271 63.3214 17.271Z" fill="white"/>
<path d="M53.4761 17.2733C52.8858 17.2733 52.2933 17.3061 51.7051 17.2645C50.9574 17.2121 50.4899 16.7074 50.4726 16.0147C50.4554 15.285 50.9337 14.7212 51.718 14.6928C52.9246 14.6491 54.1354 14.6513 55.342 14.695C56.0703 14.7212 56.5701 15.2806 56.5895 15.947C56.6089 16.6484 56.0983 17.2143 55.3291 17.2667C54.715 17.3082 54.0945 17.2755 53.4761 17.2733Z" fill="white"/>
<path d="M70.6176 34.8928C70.6176 36.112 70.6176 37.2744 70.6176 38.4827C65.8473 38.4827 61.1137 38.4827 56.3369 38.4827C56.3369 37.2854 56.3369 36.1208 56.3369 34.8928C61.0749 34.8928 65.8085 34.8928 70.6176 34.8928Z" fill="white"/>
</svg>
