<svg xmlns="http://www.w3.org/2000/svg" width="41" height="44" fill="none" xmlns:v="https://vecta.io/nano"><path d="M25.73 27.672c3.1-2.13 4.484-5.89 3.514-9.53-1.16-4.37-5.295-7.1-9.835-6.49-6.595.89-9.506 7.973-6.538 13.18.79 1.388 1.922 2.44 3.28 3.274a1.88 1.88 0 0 0 1.065.291l7.527-.01c.31-.216.79-.553.99-.713z" fill="#ec7e3b"/><path d="M23.74 41.564c-.603 2-1.8 2.542-3.787 2.42-1.3-.084-2.26-.9-2.694-2.42h-.773c-1.602-.01-2.826-1.22-2.836-2.814l.01-7.082c0-.356-.104-.553-.405-.76-4.287-2.917-6.435-8.217-5.35-13.15 1.112-5.056 5.266-9.08 10.325-9.98 6.896-1.23 13.755 3.48 14.885 10.328.876 5.32-1.055 9.55-5.342 12.757-.3.235-.452.44-.443.835l.028 6.894c.056 1.754-1.517 3.152-3.024 2.974-.198-.02-.386 0-.593 0zM26.934 29.5c3.9-2.683 5.662-7.44 4.437-12.044-1.47-5.525-6.7-8.968-12.426-8.198-8.328 1.126-12.002 10.065-8.253 16.65 1 1.754 2.43 3.077 4.145 4.127.433.272.848.366 1.347.366l9.496-.01c.386-.272 1-.685 1.253-.9zM22.1 39.96h2.6c.575-.01.96-.253 1-.732.047-.788.01-1.585.01-2.392H15.26v1.904c.01.93.302 1.22 1.253 1.23h2.383v1.407c.02.62.302.938.904.985a8.31 8.31 0 0 0 1.366 0c.622-.047.914-.375.933-1.013.01-.44 0-.882 0-1.388zm-6.8-7.945v3.142h10.4v-3.142H15.3zm17.4-3.752l.8-1.38 5.22 3.002-.8 1.388-5.2-3zM2.308 10.92l.8-1.388 5.22 3.002-.8 1.38-5.22-2.992zm.848 20.43l-.8-1.38 5.22-3.002.8 1.38-5.22 3.002zM28.404 8.273l-1.385-.797 3.005-5.197 1.385.797-3.005 5.197zM12.52 8.32L9.506 3.124l1.385-.797 3.015 5.187-1.385.807zm25.334 1.126l.8 1.388-5.2 3.002-.8-1.38 5.22-3zm-16.62-3.508H19.68V0h1.555v5.938zm13.792 15.177v-1.548H41v1.548h-5.973zM0 21.2v-1.53h5.973v1.53H0z" fill="#171716"/><path d="M22.102 39.97v1.38c-.02.638-.31.966-.933 1.013-.452.038-.914.038-1.366 0-.612-.047-.895-.366-.904-.985V39.97h-2.383c-.952 0-1.244-.29-1.253-1.23v-1.904h10.43l-.01 2.392c-.028.478-.405.732-.99.732l-2.59.01z" fill="#ec7e3b"/><path d="M20.255 24.96l-5.643-5.684 1.112-1.06 4.55 4.568L24.9 18.18l1.074 1.107-5.72 5.675z" fill="#171716"/></svg>