<svg xmlns="http://www.w3.org/2000/svg" width="54" height="54" fill="none" xmlns:v="https://vecta.io/nano"><path d="M42.657 34.84v3.484h-.573c-5.078 0-10.157.004-15.235-.01-.305-.001-.64-.107-.9-.257-.805-.448-1.586-.942-2.472-1.475.798-.48 1.545-.903 2.263-1.37.43-.28.865-.38 1.376-.38l15.55.01zm5.26 3.48v-3.46l2.88.018c.877.07 1.504.933 1.45 1.816-.05.856-.75 1.586-1.616 1.62l-2.715.006zm-1.806-.017h-1.666v-3.435h1.666v3.435zm-20-12.983v4.253H8.743v-5.186l1.686.014c.126.008.302.17.353.303l.544 1.593c.13.396.378.667.8.695s.7-.2.895-.584l.9-1.805.787 1.567.948 1.895c.185.388.43.678.895.672.438-.005.676-.283.855-.65l1.245-2.475c.084-.156.304-.337.463-.34l6.747-.01c.082 0 .163.038.242.058zm-.01-4.38v2.575h-.55c-2.32 0-4.64.014-6.96-.01-.6-.007-.987.214-1.23.766-.23.523-.5 1.023-.82 1.636l-1.205-2.404-.53-1.07c-.173-.384-.448-.618-.874-.62s-.698.234-.874.618l-.688 1.38c-.076-.176-.135-.277-.163-.385-.143-.56-.5-.8-1.072-.787l-2.382.004V20.94h17.348z" fill="#ec7e3b"/><path d="M11.333 6.967c-.144-2.133.427-3.946 1.98-5.37A5.92 5.92 0 0 1 17.365 0a5.93 5.93 0 0 1 3.298.94 6.08 6.08 0 0 1 2.277 2.572c.515 1.07.63 2.218.565 3.427l.568.024 9.47.003c1.066 0 1.3.23 1.3 1.317v24.783h13.904c-.038-1.032-.736-1.705-1.795-1.7-1.977-.01-3.955.001-5.93-.002-1.778-.002-3.166-1.143-3.508-2.885a2.54 2.54 0 0 1-.047-.648c.032-.475.398-.825.852-.818a.83.83 0 0 1 .869.744c.283 1.488.722 1.864 2.215 1.864h5.28c2.252-.003 3.593 1.18 3.867 3.443l.674.122c1.768.383 2.946 1.98 2.77 3.753a3.47 3.47 0 0 1-3.46 3.13l-15.688.004.001 12.688c0 1-.25 1.248-1.254 1.248H1.146C.3 54 0 53.714 0 52.862L.001 8.12c0-.878.283-1.152 1.183-1.152l10.148-.001zm-6.067 5.24v36.54h24.3v-8.684c-1.1 0-2.167.014-3.234-.01-.275-.007-.58-.08-.816-.218L21.5 37.44c-.833-.505-.83-1.22.002-1.722l3.397-2.05c.65-.418 1.307-.633 2.1-.583.86.056 1.724.013 2.58.013V12.23h-3.454l-.002 2.478c-.008.617-.33.95-.928.967h-1.633c-.554-.015-.92-.376-.92-.87s.37-.847.92-.87l.792-.002v-5.2h-13.87v5.2h6.298l3.2.023c.273.014.63.237.767.47.123.2.106.67-.048.835-.213.23-.6.394-.93.397l-9.85.016c-.972 0-1.23-.256-1.232-1.212v-2.258l-3.444-.001zM31.35 40.092v9.226c0 .92-.276 1.2-1.193 1.2L4.8 50.516c-1.097 0-1.317-.228-1.317-1.348l.002-37.6c.001-.8.3-1.104 1.12-1.105l3.538-.002.527-.024v-1.7H1.773V52.22h31.293V40.1l-1.716.001zm11.307-5.253h-.53c-5.006 0-10.012.005-15.018-.01-.5-.001-.946.1-1.376.38-.718.467-1.465.9-2.263 1.37.886.533 1.666 1.028 2.472 1.475a1.98 1.98 0 0 0 .909.257l15.808.01-.001-3.484zm-16.5-24.387H30.1c.993 0 1.24.25 1.24 1.258v20.83c0 .174.015.35.024.513h1.672V8.74h-6.9v1.7zm-4.4-3.5c.17-1.94-.392-3.525-2.074-4.55-1.552-.945-3.155-.904-4.664.096-1.577 1.044-2.1 2.596-1.917 4.454h8.655zm26.17 31.38c.943 0 1.83.026 2.715-.008.866-.033 1.564-.764 1.615-1.62.053-.883-.574-1.745-1.45-1.816-.948-.076-1.906-.017-2.88-.017v3.46zm-1.806-.016V34.87h-1.666v3.435h1.666zM17.4 19.16h9.302c.883 0 1.165.28 1.166 1.172l-.002 9.902c-.001.82-.294 1.12-1.106 1.12l-18.657.002c-.85 0-1.135-.294-1.135-1.146v-9.902c0-.86.28-1.145 1.132-1.146h9.3zm8.7 6.16c-.078-.02-.16-.06-.243-.06-2.25-.003-4.498-.01-6.747.01-.16.001-.38.183-.463.34l-1.245 2.475c-.178.367-.417.644-.855.65-.463.005-.7-.284-.895-.672L13.93 24.6l-.9 1.805c-.184.375-.46.612-.895.584s-.68-.298-.8-.695L10.79 24.7c-.05-.132-.226-.295-.353-.303l-1.686-.014v5.186h17.37l.001-4.25zm-.01-4.38H8.753v1.704l2.382-.004c.572-.012.93.227 1.072.787.027.1.087.2.163.386l.688-1.38c.176-.384.45-.618.874-.618s.7.235.874.62l.53 1.07 1.205 2.404.82-1.636c.242-.553.62-.773 1.23-.767l7.5.01.001-2.575zM13.993 33.096l4.946.001c.7.001 1.083.316 1.088.86s-.4.88-1.07.88l-10 .002c-.72 0-1.13-.33-1.117-.9.012-.54.4-.852 1.1-.854l5.054.001zm-.04 8.7h-5c-.716 0-1.124-.33-1.112-.894.012-.543.403-.847 1.1-.848l10.003-.001c.684 0 1.08.32 1.085.867s-.386.874-1.073.875l-5.002.001zm-3.496-3.484c-.56 0-1.12.01-1.682-.003s-.922-.354-.934-.848c-.012-.513.367-.882.95-.887l3.3-.001c.6.005.967.366.962.876s-.386.85-.978.863h-1.63zm6.96 0c-.56 0-1.12.01-1.682-.002-.555-.013-.92-.363-.928-.855s.356-.87.903-.88h3.42c.544.007.9.388.9.88s-.37.84-.93.853l-1.682.003zM9.6 45.3a.88.88 0 0 1-.888-.838.87.87 0 0 1 .822-.9.88.88 0 0 1 .918.862c.002.467-.384.865-.85.877zm4.354-1.74a.88.88 0 0 1 .851.877.88.88 0 0 1-.918.863c-.467-.026-.84-.437-.822-.905a.87.87 0 0 1 .888-.835zm5.206.88a.88.88 0 0 1-.868.861.88.88 0 0 1-.873-.908.87.87 0 0 1 .892-.832.88.88 0 0 1 .849.879z" fill="#171716"/></svg>