<svg xmlns="http://www.w3.org/2000/svg" width="48" height="50" fill="none" xmlns:v="https://vecta.io/nano"><path d="M37.8 4.682v3.18H10.2v-3.18h27.6zm2.214 27.533v3.203h-5.48v-3.203h5.48z" fill="#ec7e3b"/><path d="M21.004 21.64v-7.803l4.507.023c.738.046 1.17.64 1.38 1.34.234.792.047 1.5-.527 2.085-.105.105-.246.186-.4.315.632.326 1.147.734 1.3 1.456.28 1.363-.503 2.4-2.014 2.54-1.182.093-2.376.035-3.57.035l-.667.012zm1.534-1.293l2.27-.012c.574-.023.937-.42.948-.978.023-.594-.34-1.048-.913-1.072l-2.306-.012v2.073zm0-3.26l2.072-.012c.527-.023.866-.454.866-1s-.316-.943-.808-.955l-2.13-.012v1.968zm1.428 8.49H12.153c-.4 0-.843-.023-.83-.57s.445-.547.855-.547h23.636c.176 0 .386-.023.515.058.176.116.375.338.375.5 0 .175-.2.396-.386.5s-.42.058-.632.058l-11.72.012zm-3.9-3.936c-.433 0-.83.035-1.206-.012-.164-.023-.304-.198-.457-.314-.012-.012-.012-.035-.023-.058l-.644-1.537-2.505-.023c-.094 0-.2.15-.27.256-.094.163-.14.36-.2.536-.468 1.28-.468 1.28-1.967 1.095l.4-1.083 2.353-6.196c.187-.5.492-.5.9-.5s.703-.012.9.5l2.552 6.744.187.582zm-3.64-6.1l-1.113 3.05h2.2l-1.077-3.052zm18.543-.07l-1.124.77c-.457-.7-1.077-1.14-1.955-1.14a2.1 2.1 0 0 0-1.569.664c-.995 1.037-.96 2.888.035 3.925.855.885 2.54 1.025 3.512-.5l1.182.687c-.6 1.328-2.318 2.073-3.945 1.76-1.604-.315-2.974-1.968-3.055-3.692-.094-1.922 1.007-3.53 2.775-4.03 1.674-.477 3.313.117 4.144 1.56zM47.8 35.476c-.152-.15-.386-.233-.702-.233h-1.323l-.035-.35-.094-1.106-.398-4.938-.468-5.917-.398-4.88-.726-9.05c-.094-1.13-.258-1.293-1.38-1.293h-3.08V4.624c0-1.13-.176-1.304-1.288-1.304h-6.45V1.2c0-.955-.246-1.2-1.17-1.2H17.75c-.9 0-1.147.245-1.147 1.153V3.32H10.2c-.585 0-.9.012-1.112.2-.222.2-.222.56-.222 1.083v3.075H8.84l-.42.012h-.656c-.738 0-1.5.012-2.27-.012-.7-.012-1.03.303-1.1 1L2.918 27.023l-.515 6.5-.117 1.293-.035.42c-.105 0-.2 0-.304-.012-.42-.012-.82-.023-1.218.035-.28.035-.7.408-.702.722 0 .28.293.524.585.722.14.105.328.08.468.07.047 0 .082-.012.117-.012h6.38L5.62 48.393H.938c-.328 0-.574.082-.738.256-.14.14-.2.338-.2.57.012.28.14.745.937.757h18.3c.187 0 .4.012.585-.105.2-.116.48-.408.48-.7s-.304-.582-.492-.7c-.176-.105-.375-.093-.562-.082H10.56l1.206-7.198h24.48l1.206 7.198h-9.787c-.187-.012-.386-.023-.562.082-.234.15-.492.43-.515.7-.035.338.42.64.503.7.164.105.363.093.538.093h.105l13.85.023 3.3-.035c.82-.012.9-.56.9-.792 0-.3-.13-.77-.9-.78H42.38l-1.943-11.635h6.65c.75 0 .913-.42.913-.757a.84.84 0 0 0-.211-.524zm-7.996 7.128l.105.594.644 3.82.234 1.374h-1.72L37.124 36.85h.246l1.382.023a.59.59 0 0 1 .105.21l.937 5.52zM7.248 48.38l1.86-11.182c.06-.36.117-.408.398-.384.363.035.738.023 1.124.023h.27L8.97 48.393H7.25v-.012zM18.17 3.26V1.63h11.625v1.63H18.17zm-7.727 4.38V4.915h27.113V7.63H10.444v.012zM39.77 32.448v2.737h-5v-2.737h5zm1.615-.664c-.012-.594-.328-.943-.9-.943h-6.44c-.27 0-.492.08-.632.22-.164.163-.246.396-.246.722v3.413H3.84l.222-2.807h18.544c.28.012.632.012.866-.2.14-.128.2-.315.2-.547 0-.256-.058-.454-.2-.582-.234-.233-.585-.233-.9-.22h-18.4l1.72-21.5h36.163l2.084 25.9h-2.775v-3.436zm-28.88 5.008H33.4l.76.012a35.93 35.93 0 0 0 1.124.012c.222 0 .257.035.28.198l.42 2.6h-23.94l.468-2.83z" fill="#171716"/></svg>