<svg width="20" height="20" viewBox="0 0 20 20" fill="none" xmlns="http://www.w3.org/2000/svg">
<path d="M16.769 10.9287C16.5702 10.9287 16.3625 10.8653 16.1638 10.82C15.7614 10.731 15.3659 10.613 14.9805 10.4667C14.5615 10.3138 14.1009 10.3217 13.6874 10.489C13.2738 10.6562 12.9366 10.9709 12.7405 11.3725L12.5418 11.7802C11.662 11.2894 10.8536 10.6798 10.1392 9.96844C9.42991 9.25191 8.82207 8.44113 8.33268 7.55881L8.71204 7.30517C9.1125 7.10852 9.4263 6.77028 9.59305 6.35553C9.7598 5.94079 9.76772 5.47885 9.61528 5.0586C9.47186 4.67127 9.35419 4.27484 9.26301 3.87191C9.21785 3.67261 9.18172 3.46426 9.15463 3.25591C9.04494 2.61783 8.7117 2.04 8.21491 1.62646C7.71812 1.21293 7.09044 0.990874 6.4449 1.00029H3.73517C3.3459 0.996622 2.96041 1.07712 2.60495 1.2363C2.24949 1.39547 1.9324 1.62959 1.67526 1.92272C1.41813 2.21585 1.22699 2.5611 1.11485 2.93497C1.00272 3.30885 0.972222 3.70256 1.02544 4.08932C1.50663 7.88437 3.2348 11.4105 5.93696 14.1107C8.63912 16.8109 12.1613 18.5312 15.947 19H16.2902C16.9563 19.001 17.5994 18.7559 18.0967 18.3115C18.3825 18.0552 18.6108 17.741 18.7665 17.3896C18.9222 17.0383 19.0017 16.6578 19 16.2733V13.5557C18.9889 12.9265 18.7604 12.3206 18.3536 11.8415C17.9467 11.3624 17.3866 11.0397 16.769 10.9287ZM17.2206 16.3639C17.2204 16.4925 17.1929 16.6196 17.14 16.7368C17.087 16.8539 17.0098 16.9584 16.9135 17.0433C16.8129 17.1312 16.6949 17.1968 16.5672 17.2358C16.4396 17.2748 16.3052 17.2864 16.1728 17.2698C12.7901 16.8348 9.64801 15.2827 7.2422 12.8584C4.8364 10.4341 3.30379 7.27558 2.88612 3.88097C2.87175 3.74827 2.88434 3.61403 2.92316 3.48636C2.96197 3.35869 3.02619 3.24023 3.11193 3.13815C3.19658 3.04152 3.30077 2.96408 3.41757 2.91097C3.53438 2.85787 3.66112 2.83032 3.78936 2.83015H6.49909C6.70914 2.82546 6.91424 2.89436 7.0791 3.02498C7.24396 3.1556 7.35827 3.33977 7.40233 3.54579C7.43846 3.7934 7.48363 4.03798 7.53782 4.27955C7.64216 4.75708 7.78103 5.22635 7.95331 5.68365L6.68877 6.27247C6.58065 6.32222 6.4834 6.3929 6.40259 6.48046C6.32178 6.56801 6.25901 6.67071 6.21789 6.78266C6.17676 6.8946 6.15809 7.0136 6.16295 7.1328C6.1678 7.252 6.19609 7.36907 6.24618 7.47728C7.54613 10.2699 9.78441 12.5147 12.5689 13.8184C12.7888 13.909 13.0354 13.909 13.2553 13.8184C13.368 13.778 13.4715 13.7155 13.5599 13.6347C13.6483 13.5538 13.7198 13.4561 13.7702 13.3473L14.3302 12.0791C14.7972 12.2466 15.2737 12.3857 15.7573 12.4958C15.9982 12.5502 16.2421 12.5955 16.489 12.6317C16.6944 12.6759 16.878 12.7905 17.0083 12.9559C17.1385 13.1212 17.2072 13.3269 17.2025 13.5376L17.2206 16.3639Z" fill="black"/>
</svg>
