<svg width="20" height="20" viewBox="0 0 20 20" fill="none" xmlns="http://www.w3.org/2000/svg">
<path d="M15.6652 2.22994C14.164 0.802135 12.1279 -1.50444e-08 10.0049 0C7.88187 1.50444e-08 5.84579 0.802135 4.34458 2.22994C2.84337 3.65775 2 5.59428 2 7.6135C2 9.63273 2.84337 11.5693 4.34458 12.9971L9.31623 17.7346C9.40393 17.8187 9.50827 17.8854 9.62323 17.931C9.73819 17.9765 9.86149 18 9.98603 18C10.1106 18 10.2339 17.9765 10.3488 17.931C10.4638 17.8854 10.5681 17.8187 10.6558 17.7346L15.6652 12.9522C17.1602 11.5303 18 9.60188 18 7.59107C18 5.58026 17.1602 3.65181 15.6652 2.22994ZM14.3162 11.6691L10.0049 15.7875L5.69362 11.6691C4.84188 10.8583 4.26201 9.82547 4.02731 8.70124C3.79262 7.57701 3.91363 6.41184 4.37506 5.35302C4.83648 4.29419 5.6176 3.38925 6.61968 2.75258C7.62176 2.11591 8.7998 1.77609 10.0049 1.77609C11.21 1.77609 12.388 2.11591 13.3901 2.75258C14.3922 3.38925 15.1733 4.29419 15.6347 5.35302C16.0962 6.41184 16.2172 7.57701 15.9825 8.70124C15.7478 9.82547 15.1679 10.8583 14.3162 11.6691ZM7.17474 4.85891C6.41316 5.58549 5.9855 6.5696 5.9855 7.59556C5.9855 8.62151 6.41316 9.60562 7.17474 10.3322C7.74055 10.8713 8.46113 11.2394 9.24609 11.3904C10.031 11.5415 10.8454 11.4687 11.587 11.1811C12.3286 10.8936 12.9645 10.4042 13.4148 9.77433C13.865 9.14442 14.1097 8.40208 14.1181 7.64042C14.1223 7.13186 14.0193 6.62765 13.8151 6.1576C13.611 5.68755 13.3098 5.26121 12.9294 4.90378C12.5555 4.54001 12.1097 4.25016 11.6175 4.0509C11.1254 3.85164 10.5967 3.74692 10.0619 3.74275C9.52704 3.73858 8.99661 3.83505 8.50111 4.02661C8.00562 4.21816 7.55485 4.50102 7.17474 4.85891ZM11.5992 9.05809C11.2417 9.4033 10.7692 9.61969 10.2626 9.67025C9.75589 9.72081 9.24648 9.6024 8.82143 9.33528C8.39638 9.06815 8.08209 8.6689 7.93229 8.20577C7.78249 7.74264 7.80648 7.2444 8.00016 6.79624C8.19385 6.34807 8.5452 5.97781 8.99414 5.74876C9.44308 5.51971 9.96174 5.44609 10.4614 5.54049C10.9611 5.63489 11.4108 5.89144 11.7337 6.26629C12.0565 6.64114 12.2324 7.11101 12.2313 7.59556C12.2176 8.14941 11.9733 8.67543 11.5521 9.05809H11.5992Z" fill="black"/>
</svg>
