<svg xmlns="http://www.w3.org/2000/svg" width="19" height="20" fill="none" xmlns:v="https://vecta.io/nano"><path d="M4.293 12.3C2.533 10.412 1.817 8.3 2.24 5.842c.3-1.733 1.167-3.16 2.525-4.276 2.682-2.202 6.752-2.07 9.36.322 2.238 2.055 3.6 6.72.18 10.34.017.016.035.045.05.044 1.102-.063 1.797.466 2.248 1.454.507 1.11 1.087 2.19 1.627 3.286.748 1.517-.13 2.974-1.818 2.978a2834.95 2834.95 0 0 1-14.346-.001c-1.665-.005-2.54-1.464-1.804-2.963.534-1.085 1.1-2.15 1.6-3.25.46-1.008 1.144-1.593 2.42-1.477zm4.936 2.713l4.048-4.04c1.195-1.24 1.68-2.753 1.502-4.474-.244-2.36-2.013-4.328-4.344-4.833-2.394-.52-4.804.567-6.04 2.723-1.162 2.024-.887 4.713.692 6.434.73.795 1.512 1.542 2.272 2.31l1.87 1.88zm.023 3.42h7.097c.542-.001.726-.227.52-.65l-1.82-3.627c-.076-.146-.314-.28-.484-.29a13.94 13.94 0 0 0-1.637-.004c-.172.01-.377.093-.5.213l-2.545 2.536c-.428.425-.828.427-1.258.006l-1.49-1.49c-.424-.42-.787-1.003-1.3-1.2-.527-.213-1.203-.043-1.812-.068-.323-.013-.496.12-.632.4L1.725 17.6c-.31.623-.182.83.507.832h7.02z" fill="#000"/><path d="M7.74 6.92c-.006-.844.65-1.517 1.487-1.526.853-.01 1.552.676 1.546 1.517A1.55 1.55 0 0 1 9.254 8.43c-.826.004-1.508-.677-1.514-1.5z" fill="#ec7e3b"/><path d="M6.177 6.904a3.06 3.06 0 0 1 3.105-3.078 3.09 3.09 0 0 1 3.053 3.103c-.012 1.685-1.423 3.083-3.098 3.07-1.7-.014-3.065-1.395-3.06-3.094zm1.562.016a1.52 1.52 0 0 0 1.514 1.51 1.55 1.55 0 0 0 1.519-1.519c.005-.842-.694-1.527-1.546-1.517-.837.01-1.493.682-1.487 1.526z" fill="#000"/></svg>