<svg xmlns="http://www.w3.org/2000/svg" width="66" height="74" fill="none" xmlns:v="https://vecta.io/nano"><path d="M62.3 22.446c-.166-.1-.227-.227-.257-.287v-.015l-.106-.166.06-.196c2.724-8.34-1.468-14.912-5.872-18C50.956.16 43.92.07 38.622 3.545c-4.434 2.916-8.762 9.383-6.3 18.025l.166.574h-4.086l-7.34.015c-.817 0-1.226-.332-1.422-1.118-.954-4.05-3.98-6.784-8.112-7.328a9.91 9.91 0 0 0-1.165-.075c-2.24 0-4.42.83-6.16 2.342-2.013 1.753-3.178 4.23-3.178 6.8L1 63.693c0 1.662.424 3.203 1.27 4.578C4.208 71.444 7.1 73 11.094 73l49.048-.015c.484 0 1-.015 1.468-.136 2.043-.514 3.36-2.266 3.36-4.457v-11.77L65 27.387c0-2.433-.847-4-2.7-4.94zM34.264 11.764c1.68-4.518 5.554-7.78 10.367-8.748 3.48-.695 7.234.1 10.3 2.145 3.072 2.07 5.2 5.288 5.842 8.808.726 3.974-.106 7.63-2.497 10.848L48.17 38.386c-.076.106-.166.212-.272.348a1.58 1.58 0 0 0-.182.227l-.363.453-5.2-6.738-1.846-2.417-3.905-5.06c-3.027-3.883-3.83-8.914-2.15-13.432zM19.947 24.018l.424-.03c.076 0 .136-.015.212-.015a4.9 4.9 0 0 1 .484-.03h1.468l9.958.015c.393 0 .923.15 1.18.5l5.78 7.63.015.03L41.4 34.66l.515.68-6.1 5.847-8.5-8.793L26 33.657l5.675 5.907L19.93 51.032V24.018h.015zM2.8 23.323c0-3.687 2.285-6.77 5.66-7.645 2.315-.604 4.707-.136 6.568 1.284 1.922 1.48 3.027 3.777 3.027 6.33l.015 34.297-.74-.604c-4.646-3.777-9.156-3.777-13.787 0l-.742.604V23.323zm36.38 43.513v3.52c0 .12-.03.212-.045.302-.015.045-.015.076-.03.106l-.06.347-.348.015c-.076 0-.15.015-.212.015-.166.015-.333.03-.5.03h-27.45c-4.1 0-7.34-2.992-7.703-7.1-.333-3.792 2.482-7.298 6.417-8.008 1.967-.347 4.056.166 5.75 1.435 1.68 1.254 2.77 3.112 2.996 5.092.015.15.045.302.06.468H19.9v-3.324l.015-5.288c0-.393.15-.937.47-1.24l11.8-11.528-.045-.03.303-.212c.257-.242.454-.212.56-.18l.257.1.015.12.68.62c.605.544 1.165 1.058 1.725 1.617a131.11 131.11 0 0 1 2.996 3.112c.333.363.515.695.515.997l.015 5.832v2.115H24.684v1.813h13.378c.257 0 .636 0 .893.272.182.18.272.438.272.786l-.045 8.204zm1.907 4.3v-21.7L62.125 71.1H41.1v.015zm22.02-1.662l-10.14-10.5 10.14-9.292v19.792zm.045-23.237c0 .438-.12 1.012-.484 1.345l-8.6 7.917-2.36 2.16-14.62-15.14 5.963-5.696 1 1.284L45.51 40c.62.816 1.256 1.224 1.877 1.224.636 0 1.256-.423 1.877-1.254L59.78 25.86c.242-.332.47-.68.7-1.043l.348-.53.182-.272.318.075c.893.242 1.483.846 1.7 1.768.106.468.12.952.12 1.375l-.015 18.992zM51.88 12.052c-1.24-1.254-2.906-1.95-4.7-1.964h-.015c-3.572 0-6.492 2.886-6.507 6.436a6.42 6.42 0 0 0 1.892 4.623c1.226 1.24 2.9 1.92 4.66 1.92h.03c3.54 0 6.447-2.886 6.492-6.436.015-1.707-.65-3.34-1.86-4.578z" fill="#171716" stroke="#171716" stroke-width=".4"/><path d="M47.158 21.283h-.045c-1.21-.015-2.406-.544-3.284-1.45s-1.362-2.115-1.332-3.31a4.79 4.79 0 0 1 4.752-4.653h.045c1.226.015 2.376.514 3.24 1.405a4.6 4.6 0 0 1 1.347 3.354 4.67 4.67 0 0 1-4.722 4.653z" fill="#ec7e3b"/></svg>