<svg width="20" height="20" viewBox="0 0 20 20" fill="none" xmlns="http://www.w3.org/2000/svg">
<path d="M6.625 10.9639H8.4375V12.7711H6.625V10.9639Z" fill="black"/>
<path d="M12.0625 10.9639H13.875V12.7711H12.0625V10.9639Z" fill="black"/>
<path d="M13.875 19.0296C16.5937 17.4567 17.5 15.4413 17.5 12.7711V0H3V12.7711C3 15.4413 4.45967 17.7778 6.625 19.0296C7.98438 19.816 9.11719 20 10.25 20C11.3828 20 12.5156 19.816 13.875 19.0296ZM15.6875 1.80723V7.3494H11.1562V5.48193H12.9687V3.6747H11.1562V1.80723H15.6875ZM4.8125 1.80723H9.34375V3.6747H7.53125V5.48193H9.34375V7.3494H4.8125V1.80723ZM4.8125 12.7711V9.15663H15.6875V12.7711C15.6875 15.7606 13.2482 18.1928 10.25 18.1928C7.25176 18.1928 4.8125 15.7606 4.8125 12.7711Z" fill="black"/>
</svg>
