<svg xmlns="http://www.w3.org/2000/svg" width="30" height="30" fill="none" xmlns:v="https://vecta.io/nano">
  <path
    d="M4.37 25.578c2.83 2.844 6.593 4.414 10.6 4.422H15c3.996 0 7.755-1.554 10.59-4.38a14.9 14.9 0 0 0 4.413-10.604A15.03 15.03 0 0 0 15.062 0c-4.01-.02-7.782 1.534-10.63 4.36S.012 10.948 0 14.954a14.9 14.9 0 0 0 4.369 10.623zm.95-19.31C7.733 3.634 11.04 2.1 14.63 1.952c7.075-.294 13.093 5.38 13.412 12.648.148 3.37-1.052 6.62-3.377 9.15a13.26 13.26 0 0 1-9.297 4.295c-.172.007-.343.01-.514.01-6.844 0-12.58-5.572-12.9-12.658-.153-3.356 1.04-6.6 3.362-9.13z"
    fill="#171716" />
  <path d="M16.565 13.41V8.383H13.41v5.05H8.38v3.157h5.05v5.05h3.158v-5.074h5.026V13.41h-5.05z" fill="#ff6b00" />
  <path
    d="M23.607 11.46h-5.118V6.398h-7.02v5.08H6.395v7.063h5.094v5.05h7.063V18.5h5.054l.001-7.04zm-1.99 5.105H16.59v5.073H13.43v-5.05H8.38V13.43h5.027v-5.05h3.155v5.026h5.05v3.157h.001z"
    fill="#171716" />
</svg>