<svg xmlns="http://www.w3.org/2000/svg" width="20" height="20" fill="#171716"><path d="M6.82 10.15l3.055 3.052 1.197-1.253c.78-.78 1.688-.78 2.484-.01l2.836 2.76c.802.783.813 1.718.03 2.513l-1.466 1.47c-1.514 1.525-3.648 1.76-5.412.525l-3.087-2.404c-2.107-1.815-3.92-3.903-5.54-6.16-1.364-1.902-1.197-4.06.45-5.716L2.67 3.624c.798-.793 1.683-.844 2.488-.074l3.02 3.02c.65.674.62 1.604-.04 2.286L6.82 10.15zM3.9 4.7L2.53 6.105c-1.032 1.045-1.162 2.4-.292 3.586l2.123 2.713c1.783 2.084 3.82 3.894 6.073 5.46.964.67 2.163.725 2.987.02.66-.562 1.204-1.26 1.74-1.83l-2.916-2.96-1.16 1.185c-.813.816-1.723.822-2.538.01L5.72 11.464c-.797-.802-.802-1.72-.01-2.514l1.24-1.198-3.044-3.05zm6.38-4.7c4.645.086 8.834 3.722 9.558 8.307.085.54.128 1.1.152 1.636.024.576-.305.922-.823.928-.5.006-.82-.3-.835-.878-.062-2.344-.9-4.355-2.6-5.984-1.583-1.526-3.494-2.305-5.688-2.336C9.2 1.663 8.987.922 9.235.42 9.4.1 9.66-.01 10.29 0zm7.293 9.734c-.07.807-.418 1.213-1.038 1.127-.45-.063-.7-.33-.7-.834-.037-1.076-.27-2.098-.842-3.02-1.138-1.827-2.803-2.744-4.94-2.833-.7-.03-1.06-.487-.87-1.106.117-.38.397-.56.88-.563 3.068-.014 5.92 1.978 6.963 4.92.263.742.376 1.537.558 2.308zm-7.446-4.718C12.733 5.063 14.962 7.31 15 9.9c.006.587-.28.935-.795.962s-.83-.3-.875-.88c-.15-1.927-1.363-3.155-3.266-3.306-.633-.05-.945-.348-.918-.877s.378-.804 1-.793z"/></svg>