<svg xmlns="http://www.w3.org/2000/svg" width="50" height="50" fill="none" xmlns:v="https://vecta.io/nano"><circle cx="25" cy="25" r="25" fill="#fff"/><circle cx="25" cy="25" r="10" fill="#ec7e3b"/><path d="M27.144 28.352l.466.942 4.932 9.884c.142.282.205.644.18.95-.047.467-.458.797-.923.86-.497.064-.915-.153-1.16-.644l-5.303-10.592-.292-.54c-.1.185-.166.33-.26.435l-4.404 4.725c-.6.644-1.53.547-1.878-.2-.07-.153-.103-.33-.118-.5l-1.38-21.354c-.032-.54.19-.982.616-1.2s.892-.137 1.3.242l15.594 14.207c.4.362.584.797.4 1.328-.174.54-.6.74-1.13.79l-6.4.628-.26.04zm4.104-2.713l-11.83-10.786 1.034 16.13.347-.346 3.607-3.88c.292-.322.616-.515 1.05-.547l2.155-.21 3.638-.362z" fill="#171716"/></svg>