<svg xmlns="http://www.w3.org/2000/svg" width="20" height="20" fill="none" xmlns:v="https://vecta.io/nano"><path d="M10.03 5.86a4.14 4.14 0 1 0-.055 8.288c2.288.02 4.157-1.83 4.173-4.127.014-2.28-1.826-4.14-4.118-4.16z" fill="#ec7e3b"/><path d="M10.02 0C4.5 0 .016 4.47 0 9.974c-.008 2.67 1.03 5.184 2.92 7.083A9.9 9.9 0 0 0 9.963 20c5.532 0 10.025-4.46 10.038-9.95a9.98 9.98 0 0 0-2.91-7.1C15.21 1.054 12.695.005 10.02 0zm5.713 15.84a8.09 8.09 0 0 1-5.712 2.343h-.074a8.14 8.14 0 0 1-5.774-2.439c-1.528-1.552-2.363-3.62-2.35-5.817.012-2.175.877-4.217 2.435-5.752a8.09 8.09 0 0 1 5.799-2.353c4.512.04 8.157 3.726 8.127 8.213a8.16 8.16 0 0 1-2.45 5.804zm-2.197-8.204c-.266-.2-.522-.193-.805-.008l-1.518 1.04-.504.343V7.877l.001-.962-.002-2.262c-.002-.3-.085-.534-.237-.684-.12-.117-.274-.176-.464-.176-.44.005-.7.32-.7.845l-.004 1.227V7.5l.008 2.724c.005.34.15.62.387.747.215.114.48.085.728-.078l3.106-2.146c.1-.08.223-.25.27-.4.086-.3-.001-.528-.257-.7z" fill="#171716"/></svg>