<svg xmlns="http://www.w3.org/2000/svg" width="40" height="40" fill="none" xmlns:v="https://vecta.io/nano"><circle cx="20" cy="20" r="7" fill="#ec7e3b"/><path d="M25.994 18.48h1.462c.285-3.15-.545-5.828-3.2-7.65-2.59-1.76-5.336-1.83-8.056-.3-2.698 1.527-3.985 4.38-3.67 7.944h1.44v8.198c-2.38.664-4.883-.463-5.694-2.567a4.13 4.13 0 0 1 2.341-5.333l.337-.128.14-2.862c.433-3.935 3.786-7.263 7.734-7.718 4.866-.56 9.13 2.542 10 7.347.2 1.036.153 2.114.224 3.235 1.122.38 2.036 1.1 2.563 2.27a3.98 3.98 0 0 1 .268 2.609 4.08 4.08 0 0 1-1.776 2.55c-.703.466-1.024.535-3.073.695l-.18.466c-.644 1.693-1.86 2.727-3.607 3.17a.91.91 0 0 0-.506.381c-.532.916-1.517 1.387-2.494 1.152-1.013-.243-1.724-1.094-1.758-2.105-.035-1.02.62-1.942 1.587-2.24a2.2 2.2 0 0 1 2.583 1.009c.176.3.335.33.63.227 1.02-.358 1.737-1.03 2.13-2.034.375-.963.624-1.936.584-3-.066-1.745-.018-3.496-.018-5.314zM12.48 20c-1.167-.073-2.06.333-2.628 1.32-.55.955-.488 1.926.143 2.82.595.84 1.444 1.172 2.485 1.1v-5.227zm15.034 5.23c1.138.067 2.028-.315 2.6-1.276.56-.943.53-1.914-.1-2.82-.593-.868-1.446-1.218-2.5-1.13v5.226zM20.7 30.496c.396.02.756-.303.784-.702s-.285-.76-.688-.792a.75.75 0 0 0-.805.721c-.013.404.306.753.7.773zm5.228-14.288c-.01.427-.226.696-.63.765-.385.066-.665-.122-.8-.486-.046-.114-.065-.24-.1-.363-.42-2.12-2.282-3.645-4.447-3.637-2.116.008-3.958 1.556-4.363 3.677-.076.398-.222.774-.658.8-.25.01-.596-.148-.736-.346-.134-.2-.122-.543-.066-.8.46-2.108 1.703-3.595 3.693-4.403 3.446-1.398 7.4.822 8.064 4.486l.04.318z" fill="#171716"/></svg>