<svg xmlns="http://www.w3.org/2000/svg" width="100" height="100" fill="none" xmlns:v="https://vecta.io/nano"><circle cx="50" cy="50" r="50" fill="#fafafa"/><path d="M89.423 28.29C83.595 17.758 74.115 10.104 62.528 6.804 38.724-.148 13.725 13.615 6.773 37.42-.11 61.224 13.655 86.223 37.46 93.174 41.603 94.368 45.816 95 50.03 95c7.514 0 14.887-1.896 21.628-5.618C82.2 83.554 89.844 74.075 93.145 62.488c3.44-11.516 2.036-23.664-3.722-34.197zm-.35 33.144c-39.183-6.74-61.935 6.46-70.993 13.763l-1.685-2.247c7.233-6.18 32.512-24.437 74.224-20.364-.21 2.95-.702 5.828-1.545 8.707v.14zM20.958 78.428c8.567-6.6 30.125-18.96 66.7-12.92-1.124 2.74-2.528 5.267-4.143 7.654-32.09-6.81-51.05.983-60.4 7.303-.772-.632-1.545-1.334-2.177-2.036zm43.677-29.914C73.553 39.386 84.93 37.91 88.86 37.7c1.124 3.44 1.685 7.022 1.896 10.603-9.62-.913-18.328-.702-26.122.21zM50.03 9.26c3.722 0 7.514.492 11.306 1.615a40.3 40.3 0 0 1 24.296 19.451c.562 1.053 1.053 2.107 1.545 3.16-6.04.562-19.522 3.16-29 15.94-8.356 1.475-15.59 3.792-21.77 6.4 1.124-3.792 2.668-7.163 4.284-9.9 1.264.21 2.598.28 3.862.28 6.18 0 11.867-2.387 15.87-6.81 5.267-5.758 6.81-13.974 4.213-21.98l-.42-1.264-1.334-.28c-8.216-1.896-16.29.42-21.558 6.11-5.196 5.688-6.812 13.763-4.283 21.768a49.98 49.98 0 0 0-5.618 14.325c-8.426 4.073-14.185 8.426-17.415 11.165l-1.053-2.036c23.103-17.976 17.485-43.677 15.098-51.47 6.46-4.143 14.114-6.46 21.98-6.46zm-2.036 24.226l-1.334-1.615c-.21.21-2.74 2.317-5.758 6.25-.492-4.915.983-9.55 4.143-12.99 3.792-4.143 9.55-5.97 15.59-4.986 1.475 5.97.21 11.867-3.58 16-3.3 3.65-8.146 5.477-13.342 5.196 3.02-4.073 5.547-6.25 5.618-6.32l-1.334-1.545zM24.398 18.4c2.247 8.075 5.758 29.212-12.92 44.6l-.843-2.81c10.533-12.99 10.674-27.035 8.778-37.006a32.1 32.1 0 0 1 4.986-4.775zM10.916 38.613a39.44 39.44 0 0 1 4.916-10.744c.843 7.724-.07 17.274-6.25 26.543-.632-5.126-.21-10.533 1.334-15.8zm27.737 50.488c-1.124-.35-2.247-.702-3.37-1.124 7.303-2.528 17.906-4.002 32.793-1.475-9.13 4.494-19.522 5.407-29.423 2.598zm34.97-5.97c-21.207-4.564-35.04-1.755-43.677 2.247-1.124-.632-2.247-1.334-3.23-2.036 2.388-1.545 5.407-3.1 9.13-4.494 8.988-3.37 23.664-6.04 44.73-1.896-2.107 2.317-4.424 4.354-6.952 6.18z" fill="#fff"/></svg>