<svg xmlns="http://www.w3.org/2000/svg" width="42" height="48" fill="none" xmlns:v="https://vecta.io/nano"><path d="M35.557 8.886H29.7V3.07l5.966 5.666-.1.15zM29.08 26.42v6.452h2.247v-5.928c0-.4.125-.55.537-.55l3.744.025c.237 0 .524.137.7.3l2.334 2.246c.162.162.312.424.3.624-.112 4.68-1.2 9.048-4.33 12.705-1.098 1.298-2.396 2.36-3.92 3.133a.85.85 0 0 1-.91.012c-3.282-1.772-5.417-4.53-6.8-7.925-1-2.496-1.4-5.117-1.5-7.788a1.03 1.03 0 0 1 .275-.7c.8-.8 1.647-1.585 2.484-2.36.125-.112.312-.25.474-.25h4.368zm.062 9.722v2.683h2.184l-.012-2.334c0-.125-.2-.337-.312-.337-.6-.037-1.223-.012-1.86-.012zM7.214 10.833h7.588v7.1H7.214v-7.1z" fill="#ec7e3b"/><path d="M38.503 21.63H36.32V11.2l-.786-.037c-2.47 0-4.955-.025-7.426.012-.6.013-.724-.2-.724-.75l.025-7.488c0-.524-.1-.724-.686-.724l-23.775.025c-.524 0-.66.162-.66.674l.012 40.75h19.08v2.22l-.736.037L.8 45.94c-.612 0-.8-.125-.8-.786L.013.037A6.37 6.37 0 0 1 .662 0l28.955.012c.312 0 .7.137.924.35l7.65 7.8c.187.187.35.487.35.736l.012 12.543c-.025.037-.038.075-.05.187zM35.557 8.886l.1-.15L29.7 3.07v5.816h5.866zm-5.292 15.3l6-.012c.5-.012.85.15 1.198.5l3.395 3.307c.187.187.35.487.35.736 0 4.144-.65 8.15-2.658 11.844-1.772 3.258-4.268 5.754-7.688 7.3a1.48 1.48 0 0 1-1.3 0c-3.607-1.622-6.165-4.306-7.938-7.788-1.8-3.582-2.4-7.438-2.384-11.42 0-.2.125-.437.275-.574l3.807-3.594c.187-.175.512-.25.774-.25 2.072-.05 4.13-.037 6.2-.037zM29.08 26.42c-1.5 0-2.945-.012-4.368.013-.162 0-.35.125-.474.25-.836.774-1.685 1.548-2.484 2.36a1.05 1.05 0 0 0-.274.699c.1 2.67.487 5.292 1.5 7.788 1.385 3.395 3.507 6.153 6.8 7.925.337.187.587.162.9-.013 1.523-.786 2.82-1.847 3.92-3.133 3.12-3.657 4.218-8.025 4.33-12.705 0-.212-.15-.474-.3-.624a66.07 66.07 0 0 0-2.334-2.247 1.22 1.22 0 0 0-.699-.299c-1.248-.025-2.496 0-3.744-.025-.412-.012-.537.15-.537.55v5.928H29.08V26.42zM17.05 8.574v11.582H4.93V8.574h12.12zm-9.835 2.26v7.1h7.588v-7.1h-7.59zm26.707 2.446v1.885c0 .45-.362.324-.6.324l-6 .012h-7.488c-.225 0-.45-.025-.7-.037V13.28H33.92zm-14.79 6.876V18h14.752v2.147H19.133zM17.3 36.905v2.184H4.93v-2.184H17.3zM4.93 24.874v-2.122h12.368v2.122H4.93zm12.393 2.596v2.147H4.942V27.47h12.38zM4.917 34.346V32.2l.674-.05 11.045-.013c.574 0 .786.15.736.736-.037.474-.013.948-.013 1.473H4.917zM7.8 4.53v2.134H4.942V4.53H7.8zm3.383 2.122l.012-1.8a.52.52 0 0 1 .362-.337l2.47-.012v2.172l-2.845-.012zm9.123-2.147v2.147h-2.808V4.505h2.808zm8.836 31.64l1.86.012a.5.5 0 0 1 .312.337l.012 2.334h-2.184v-2.683z" fill="#171716"/></svg>