<svg xmlns="http://www.w3.org/2000/svg" width="16" height="16" fill="none" xmlns:v="https://vecta.io/nano"><path d="M15.927 1.3A1.74 1.74 0 0 0 14.698.07a1.83 1.83 0 0 0-1.779.455l-.946.926-.447.433-.156.157-.156-.157-.186-.194-.41-.418c-.73-.724-1.63-.724-2.36-.007L6.963 2.556 6.4 3.13l-.804.79-1.928 1.926c-.417.418-.26.582-.164.687.112.12.194.12.223.12.127 0 .3-.097.476-.284L8.72 1.83c.223-.224.417-.328.633-.328.208 0 .432.105.707.3l.298.217-.328.164-.164.075c-.074.03-.14.06-.17.1l-5.8 5.838c-.246.246-.246.41-.015.664l.12.134.223.246-.774.776-1.802 1.8c-.134.134-.23.276-.3.41l-.774 1.88-.506 1.254c-.127.306-.082.433.037.545.134.134.268.134.55.022l.64-.27 1.712-.687a4.21 4.21 0 0 0 1.742-1.157l1.273-1.336.55-.56.14-.15.156.127c.268.216.5.396.625.396.104 0 .26-.142.53-.403l6.202-6.234c.275-.276.275-.426.007-.717-.037-.037-.067-.082-.104-.127-.015-.022-.037-.045-.06-.075l-.134-.157.15-.142.44-.426.953-.94c.47-.508.618-1.1.44-1.762zm-14.43 13.5l-.268-.29.655-1.605 1.17 1.232-1.556.665zm2.24-1.135L2.362 12.2 4.73 9.82l1.422 1.418-2.412 2.42zm3.715-2.3l-2.77-2.785 6.038-6.07 2.74 2.747-6.008 6.107zm7.58-8.936L14 3.45l-.573.545-1.482-1.433.156-.164.417-.426.998-1C13.91.6 14.52.615 14.93.995c.424.41.47 1.03.104 1.426z" fill="#171716"/></svg>