<svg xmlns="http://www.w3.org/2000/svg" width="17" height="16" fill="none" xmlns:v="https://vecta.io/nano"><path d="M8.006 15.995H1.3C.494 15.995 0 15.5 0 14.7V5.316C0 4.552.33 3.98.998 3.6L6.244.52c1.172-.69 2.335-.69 3.506-.005L14.996 3.6c.678.394 1.007.97 1.007 1.75v9.384c0 .778-.5 1.277-1.268 1.277l-6.73-.005zm7.1-8.93l-.316.18-5.13 2.998c-1.094.632-2.206.636-3.3.005l-5.1-2.975-.37-.206v7.603c0 .352.07.42.43.42H14.69c.34 0 .417-.078.417-.412V7.065zM2.06 6.726v-.403c0-.806.5-1.295 1.295-1.295h9.334c.746 0 1.25.504 1.254 1.245V6.7c.224-.128.398-.256.59-.334.797-.334.728-1.648 0-2.046L9.22 1.233c-.806-.47-1.62-.47-2.43 0L4.54 2.547l-3.154 1.85c-.563.334-.7 1.305-.224 1.73.252.224.563.38.897.6zm10.986-.05V6.4c0-.426-.05-.476-.472-.476H3.36c-.32 0-.403.082-.403.407l-.005.687c-.01.16.05.247.183.325l3.648 2.133c.815.476 1.634.467 2.45-.01l3.337-1.945c.362-.2.6-.403.476-.847z" fill="#171716"/></svg>