<svg xmlns="http://www.w3.org/2000/svg" width="16" height="16" fill="none" xmlns:v="https://vecta.io/nano"><path d="M10.554 7.536l1.562.902c1.64 1.146 2.752 2.682 3.222 4.64.34 1.418-.753 2.847-2.215 2.9l-3 .014h-7.65a2.39 2.39 0 0 1-2.415-1.959c-.097-.462-.036-.913.11-1.357.774-2.356 2.297-4.032 4.562-5.035l.16-.072c-1.064-1.02-1.623-2.238-1.47-3.7.122-1.164.677-2.117 1.573-2.858 1.76-1.458 4.182-1.31 5.78.33 1.648 1.687 1.738 4.387-.212 6.203zM7.7 14.985l5.303.007c.846.014 1.595-.902 1.35-1.744-.753-2.614-2.415-4.3-5.056-4.996-.276-.072-.43-.215-.455-.437-.03-.25.075-.42.333-.555 1.21-.634 1.846-1.633 1.82-3.005-.02-1.354-.62-2.396-1.878-2.944-1.3-.566-2.56-.42-3.655.52-1.54 1.318-1.534 4.258.702 5.4.32.165.426.326.387.59-.043.3-.258.383-.512.448-2.118.548-3.652 1.812-4.57 3.796-.204.44-.348.913-.46 1.386-.154.67.538 1.554 1.37 1.543l5.318-.01z" fill="#171716"/></svg>