<svg width="15" height="15" viewBox="0 0 15 15" fill="#FF6B00" xmlns="http://www.w3.org/2000/svg">
  <path
    d="M12.0689 1.96354C11.3056 1.07817 10.2861 0.457631 9.12429 0.172028C7.9625 -0.116171 6.77484 -0.0408757 5.68809 0.387528C3.9467 1.07557 2.67624 2.4932 2.19755 4.28211C1.72145 6.06842 2.11475 7.93523 3.28171 9.40478C3.96481 10.2668 4.65826 11.1392 5.32843 11.9856C5.67774 12.4244 6.02446 12.8658 6.37378 13.3046C6.52385 13.4941 6.67651 13.6836 6.82918 13.8784L7.72186 15L8.43601 14.1743C8.44636 14.164 8.45413 14.1536 8.46189 14.1432C8.48259 14.1198 8.50588 14.0913 8.53434 14.0601C8.86295 13.6447 9.19415 13.2293 9.52276 12.8138L9.57969 12.7411C10.4594 11.6325 11.3702 10.4875 12.2603 9.35545C13.0004 8.41556 13.4144 7.34585 13.4868 6.16968C13.5877 4.58589 13.109 3.17086 12.0689 1.96354ZM11.6807 6.05285C11.6316 6.85253 11.347 7.58212 10.8398 8.22602C9.95229 9.35285 9.04408 10.4953 8.16691 11.5987L7.75033 12.1232C7.41395 11.7 7.08016 11.2768 6.74379 10.8536L6.72568 10.8302C6.06069 9.99157 5.37241 9.12178 4.69708 8.27016C3.89236 7.25757 3.62068 5.97495 3.9467 4.75206C4.27273 3.52916 5.14989 2.55551 6.3479 2.08037C6.78519 1.90642 7.25353 1.82073 7.7348 1.82073C8.86813 1.82073 9.97558 2.31924 10.6949 3.15528C11.4297 3.9991 11.7506 4.94679 11.6807 6.05285Z" />
  <path
    d="M9.00007 5.89882C8.99375 5.50213 8.83254 5.12756 8.54489 4.84781C8.25725 4.56649 7.87952 4.41477 7.4844 4.42109C6.65624 4.43373 5.99086 5.11491 6.00034 5.93833C6.00509 6.33661 6.16471 6.7096 6.45078 6.98776C6.73684 7.26593 7.11299 7.41765 7.51285 7.41765C7.52075 7.41765 7.53023 7.41765 7.53814 7.41765C8.34417 7.40343 9.01271 6.70802 9.00007 5.89882Z" />
</svg>