<svg xmlns="http://www.w3.org/2000/svg" width="54" height="54" fill="none" xmlns:v="https://vecta.io/nano"><path d="M19.65 8.805l-1.8-1.812c7.904-7.2 20.26-6.75 27.557.248l-1.8 1.8C35.67 2.99 27.71 2.91 19.647 8.806zm.28 30.787l5.8.023c.596.023 1.192.304 1.788.428 5.948 1.227 11.232-.124 15.864-4.05.124-.113.26-.214.36-.304l1.844 1.9C39 44.138 27.8 45.106 19.93 39.592zM3.617 51.294c0 .484-.394.9-.877.9-.506.01-.933-.416-.9-.923a.9.9 0 0 1 .911-.866c.472 0 .877.405.877.9z" fill="#ec7e3b"/><path d="M39.595 48.594h1.675c.675.01 1.012.338 1.012 1.002v3.432c-.01.596-.35.968-.933.968h-8.016v-1.8h7.128V50.43H22.528v1.733h5.33v1.823H21.74c-.697 0-1.034-.337-1.034-1.035v-3.32c0-.7.326-1.035 1.023-1.047h1.664l-.01-4.872c0-.112-.157-.293-.27-.338a23.1 23.1 0 0 1-6.049-3.623c-.112-.1-.304-.157-.46-.157-4.272-.01-8.545 0-12.817 0-.034 0-.067.01-.157.034-.01.17-.022.35-.022.53l-.01 8.102a.67.67 0 0 0 .416.686 2.64 2.64 0 0 1 1.304 3.016c-.318 1.2-1.375 2.034-2.588 2.034-1.26.01-2.316-.82-2.642-2.037-.304-1.193.202-2.408 1.293-3.016.236-.135.427-.225.427-.563l-.01-8.552c0-.056-.022-.113-.045-.236h-.585C.312 39.592.02 39.3.02 38.4V26.258c0-.664.35-1.058.9-1.058s.888.405.9 1.058v.698h7.5c-.1-1.643-.315-3.286-.292-4.917C9.17 11.82 16.48 2.83 26.44.57c12.3-2.8 24.43 4.95 27.074 17.306 2.25 10.5-3.497 21.38-13.436 25.42-.382.157-.495.337-.483.73v4.568zM34.2 26.652v-3.218c0-.45.202-.82.63-.878a1.33 1.33 0 0 1 .933.293c.18.157.225.54.225.82l.01 14.358a8.99 8.99 0 0 0 .337-.079c7.466-2.284 12.3-9.902 11.2-17.632C46.23 11 37.482 4.8 28.262 6.623c-8.983 1.8-14.75 10.97-12.48 19.85.112.428.292.54.72.54l7.364-.01c.35 0 .697.067 1.057.1 2.114-3.567 6.78-3.736 9.276-.45zM1.863 28.824v5.4h8.916v1.812H1.852v1.744h32.313V36h-17.9v-1.8h7.14v-5.356H1.863zM19.65 8.806C27.7 2.9 35.683 2.99 43.6 9.02l1.8-1.8C38.1.243 25.755-.207 17.85 6.994l1.8 1.812zm27.3 27.366c6.937-7.517 7.05-19.894-.18-27.568l-1.9 1.868c2.946 3.376 4.542 7.325 4.587 11.86.045 4.546-1.495 8.54-4.396 11.984l1.878 1.857zm-27.03 3.42c7.88 5.502 19.08 4.535 25.668-2.014l-1.844-1.9c-.1.1-.225.2-.36.304-4.632 3.927-9.916 5.277-15.864 4.05-.607-.124-1.192-.416-1.788-.428-1.9-.056-3.8-.023-5.802-.023zm-3.44-31.27c-4.44 4.073-7.106 13.84-5.104 18.634h2.665c-1.394-6.346.045-11.927 4.295-16.766L16.48 8.322zM29.724 26.1a3.61 3.61 0 0 0-3.62 3.601c0 1.97 1.596 3.6 3.553 3.6a3.6 3.6 0 0 0 3.643-3.567c.01-1.992-1.596-3.623-3.575-3.634zm.023 18.88v3.6h3.52v-3.6h-3.52zm-4.52 3.6h2.63v-3.848l-2.63-.585v4.433zm9.894-.01h2.642v-4.422l-2.642.596v3.826zM3.617 51.294c0-.484-.394-.9-.877-.9s-.9.394-.9.866c-.01.506.405.934.9.923a.89.89 0 0 0 .877-.889zm29.356-17.137h1.192V32.93l-1.192 1.227zm-6.5.022l-1.226-1.193v1.193h1.226zm4.983 19.805h-1.7V52.23h1.7v1.755zM14.4 34.247v1.7h-1.754v-1.7H14.4z" fill="#171716"/></svg>