<svg xmlns="http://www.w3.org/2000/svg" width="78" height="78" fill="none" xmlns:v="https://vecta.io/nano"><path d="M67.92 73.746l2.427 2.433.387.406.915.9c.74.688 1.266.688 1.987 0l1.618-1.605 2.234-2.24c.686-.705.686-1.252 0-1.993l-.897-.917-.404-.388-8.705-8.73c-.897-.9-1.196-1.04-1.934-.3l-.2.194c-.28.264-.668.635-.915.987l-.123.176-.14-.16-1.512-1.587-.07-.07-1.038-1.093-.844.864-.862.846 2.743 2.628.158.14-.176.123c-.352.247-.72.635-.985.917l-.193.212c-.74.758-.598 1.04.3 1.94l6.243 6.313zm-1.8-9.6l8.758 8.782-1.934 1.94-8.758-8.782 1.934-1.94zm-32.9 2.486h.2c21.7-.124 33.414-17.422 33.414-33.663 0-8.782-3.394-17.034-9.584-23.224C50.983 3.456 42.577 0 33.6 0h-.176C24.4 0 15.67 3.615 9.445 9.893 3.272 16.118-.07 24.53.001 33.575c.16 18.57 14.737 33.047 33.22 33.047zM30.126 2.098c8.494-.935 16.988 1.816 23.917 7.74 6.33 5.414 10.024 13.05 10.43 21.496.404 8.57-2.76 17.017-8.723 23.2-5.856 6.066-13.77 9.417-22.264 9.434h-.07c-8.16 0-16.074-3.12-21.156-8.358l-.352-.37.457-.212c.176-.088.352-.16.528-.247a9.57 9.57 0 0 1 1.16-.494l3.13-1.1.035-.018 3.7-1.305a1.75 1.75 0 0 1 1.67.16c6.12 3.65 13.717 3.968 20.312.847 6.507-3.068 10.886-9 11.994-16.26.914-5.943-.492-11.797-3.957-16.47-3.464-4.7-8.687-7.777-14.684-8.64-11.062-1.605-21.63 5.802-24.058 16.876-1.266 5.784-.44 11.215 2.444 16.153.23.37.246.987.088 1.4l-2.005 4.744-.035.088-.88 2.046c-.106.247-.194.5-.28.758-.035.123-.088.247-.123.353l-.176.494-.387-.353C2.797 46.87-2.46 29.114 8.53 14.495 13.736 7.547 21.615 3.033 30.126 2.098zm-12.52 41.9c-3.482-5.36-4.238-11.78-2.04-17.634 2.128-5.713 6.753-9.963 12.68-11.656 5.997-1.7 12.24-.423 17.13 3.5s7.492 9.77 7.122 15.994c-.3 5.343-2.638 10.14-6.577 13.525a7.16 7.16 0 0 1-.686.547l-.28.23V47.5l.017-10.898c.018-2.363-.897-4.18-2.78-5.555-.686-.494-1.336-1.023-2.022-1.57l-.6-.467.14-.14c.8-.794.88-1.8.844-2.663-.035-.723-.018-1.464-.018-2.17V22.8c-.018-1.587-1.16-2.75-2.726-2.75h-8.494c-1.6 0-2.708 1.146-2.726 2.75v1.4c0 .758.018 1.552-.018 2.3-.035.935.23 1.693.827 2.292l.14.14-2.92 2.292c-1.618 1.27-2.445 2.962-2.445 5.008v12.45l-.246-.106c-.475-.194-1.002-.14-1.548.176l-2.568 1.5-1.372.8-.5-.53.088-.212.528-1.252 1.266-2.945c.334-.758.28-1.4-.2-2.15zm6.735-7.6c0-1.5.545-2.6 1.723-3.5.703-.53 1.4-1.1 2.058-1.658.475-.388.95-.794 1.442-1.164.23-.176.44-.282.58-.282h.246l6.208-.018c.404.018.88.335 1.3.652.598.44 1.196.935 1.776 1.4l1.46 1.164c1.108.846 1.636 1.904 1.636 3.2v13.755l-.088.053c-2.78 1.517-5.962 2.328-9.215 2.328a24.49 24.49 0 0 1-1.97-.088c-2.638-.247-4.942-.917-7.052-2.028l-.088-.053v-3.862l-.018-9.9zm14.016-9.893v.53c0 .14-.018.212-.035.247l-.018.053-.053.035c-.07.053-.176.053-.246.053h-1.143v-2.9c.018-.23.035-.494-.105-.705-.123-.194-.598-.8-1.055-.723-.387.07-.915.547-.967.988-.07.652-.053 1.305-.053 1.94v1.375h-2.27V24.5c0-.652-.07-1.375-1.02-1.48-.37-.035-.598.088-.72.212-.28.247-.404.688-.404 1.358v2.82h-.176c-.158 0-.317.018-.457.018-.193 0-.387 0-.58-.035h-.035l-.035-.018c-.053-.035-.14-.106-.176-.16l-.035-.035v-.053c-.035-1.393-.035-2.822-.035-4.197v-.3l-.264-.053.334-.23c.053-.035.14-.07.44-.07h8.617c.105 0 .193 0 .264.035h.053l.053.07c.07.07.07.23.07.335l.053 3.774zm-.6 17.705c.8-.018 1.108-.335 1.108-1.146l.018-2.557c0-.353-.088-.635-.28-.8-.176-.176-.44-.264-.774-.264H35.9V37.58c0-.37-.088-.635-.264-.83-.193-.194-.457-.282-.826-.282h-2.55c-.8.018-1.108.335-1.125 1.146v1.834H29.35c-.862.018-1.126.265-1.143 1.093V43.1c.018.793.317 1.093 1.143 1.1h1.776v1.834c0 .37.088.652.264.83.193.194.457.282.826.282h2.55c.8-.018 1.108-.335 1.126-1.13v-1.8h.475l1.4-.018zm-2.497-1.85c-.8.018-1.126.335-1.143 1.13v1.763h-1.1v-1.587c0-.317-.018-.723-.264-.987s-.65-.3-.932-.3h-1.76l-.018-.16c-.053-.6-.053-.74 0-.8l.018-.035.035-.035c.105-.07.352-.088.95-.088h.017c.932 0 1.4 0 1.653-.264s.264-.74.264-1.658v-.987h1.1v1.446c0 1.252.23 1.464 1.495 1.464h.3c.23 0 .457.018.686-.018.2-.018.352 0 .422.053.07.07.088.212.07.423-.018.14-.018.3-.018.46v.176h-.457l-1.32.018z" fill="#171716"/><g fill="#ec7e3b"><path d="M36.492 27.756v-3.12c0-.23.07-.5-.035-.67-.176-.247-.5-.617-.703-.582-.264.053-.65.423-.668.67-.088.864-.035 1.746-.035 2.627v1.005H32.08v-3.068c0-.564.088-1.18-.703-1.27-.5-.053-.74.335-.74 1.234v3.174c-.598 0-1.126.053-1.636-.035-.2-.035-.527-.37-.527-.564l-.035-4.638c0-.564.404-.652.862-.652h8.635c.545-.018.8.247.8.794v4.356c0 .476-.2.74-.703.74h-1.53zm.932 13.084H29.67v1.887h7.755V40.84z"/><path d="M32.62 37.894v7.777h1.882v-7.777H32.62z"/></g></svg>