<svg width="15" height="15" viewBox="0 0 15 15" fill="none" xmlns="http://www.w3.org/2000/svg">
<path d="M14.3502 10.8292L12.0329 8.52234C11.5506 8.0422 10.7685 8.04165 10.2856 8.52234L9.61079 9.19417C8.06884 8.25673 6.77337 6.96706 5.83168 5.43198L6.57163 4.69537C7.0533 4.21579 7.0533 3.43545 6.5716 2.95587L4.25439 0.649031C3.7734 0.170255 2.99246 0.165807 2.50563 0.650483L1.0495 2.11137C0.352808 2.69375 0.107751 3.64994 0.425475 4.55619C2.05586 9.20733 5.81852 12.9531 10.4906 14.5762C11.3696 14.8815 12.2722 14.6532 12.8461 14.0645C12.8544 14.0572 12.8625 14.0497 12.8704 14.0418L14.3502 12.5687C14.8319 12.0891 14.8319 11.3088 14.3502 10.8292ZM13.612 11.8338L12.1657 13.2736C12.1481 13.2882 12.1314 13.3041 12.1157 13.321C11.8113 13.6505 11.3216 13.7642 10.8346 13.5949C6.46033 12.0754 2.9376 8.56837 1.41116 4.21369C1.23638 3.71512 1.36248 3.19856 1.73242 2.89768C1.74648 2.88625 1.75995 2.87408 1.77273 2.86126L3.24527 1.38388C3.29408 1.33526 3.35114 1.328 3.38077 1.328C3.41043 1.328 3.46743 1.33523 3.51627 1.38388L5.83342 3.69071C5.90813 3.76509 5.90813 3.88609 5.83345 3.96047L4.8082 4.98113C4.64248 5.14607 4.60751 5.40069 4.72263 5.60387C5.83522 7.56745 7.46576 9.19074 9.43816 10.2983C9.64223 10.4129 9.89799 10.378 10.0637 10.2131L11.0239 9.25725C11.0986 9.18284 11.22 9.18274 11.2948 9.25725L13.612 11.5641C13.6867 11.6385 13.6867 11.7595 13.612 11.8338Z" fill="#FF6B00"/>
<path d="M8.63176 2.95371C8.34348 2.95371 8.10978 3.18637 8.10978 3.47335C8.10978 3.76034 8.34345 3.993 8.63176 3.993C9.96862 3.993 11.0562 5.07574 11.0562 6.40662C11.0562 6.6936 11.2899 6.92626 11.5782 6.92626C11.8665 6.92626 12.1002 6.6936 12.1002 6.40662C12.1002 4.50269 10.5442 2.95371 8.63176 2.95371Z" fill="#FF6B00"/>
<path d="M8.63176 0.914191C8.34348 0.914191 8.10978 1.14685 8.10978 1.43383C8.10978 1.72082 8.34345 1.95348 8.63176 1.95348C11.0983 1.95348 13.1049 3.95115 13.1049 6.40662C13.1049 6.69361 13.3386 6.92627 13.6269 6.92627C13.9152 6.92627 14.1489 6.69361 14.1489 6.40662C14.1489 3.3781 11.6739 0.914191 8.63176 0.914191Z" fill="#FF6B00"/>
<path fill-rule="evenodd" clip-rule="evenodd" d="M12.2365 8.31791L14.5537 10.6248L14.3502 10.8292L12.0329 8.52234C11.5506 8.0422 10.7685 8.04165 10.2856 8.52234L9.61079 9.19417C8.06884 8.25673 6.77337 6.96706 5.83168 5.43198L6.57163 4.69537C7.0533 4.21579 7.0533 3.43545 6.5716 2.95587L4.25439 0.649031C3.7734 0.170255 2.99246 0.165807 2.50563 0.650483L1.0495 2.11137C0.352808 2.69375 0.107751 3.64994 0.425475 4.55619C2.05586 9.20733 5.81852 12.9531 10.4906 14.5762C11.3696 14.8815 12.2722 14.6532 12.8461 14.0645C12.8544 14.0572 12.8625 14.0497 12.8704 14.0418L14.3502 12.5687C14.8319 12.0891 14.8319 11.3088 14.3502 10.8292L14.5537 10.6248C15.1487 11.2171 15.1487 12.1808 14.5537 12.7731C14.5537 12.7731 14.5537 12.7731 14.5537 12.7731L13.0744 14.2458C13.0743 14.2459 13.0744 14.2458 13.0744 14.2458C13.0647 14.2554 13.0549 14.2647 13.0455 14.2732C12.3905 14.9393 11.3733 15.1882 10.3959 14.8487C5.64114 13.1969 1.81285 9.3861 0.153253 4.65161C-0.199795 3.64459 0.0666874 2.56443 0.854156 1.89874L2.30133 0.446843L2.30211 0.44606C2.90195 -0.151131 3.86482 -0.145748 4.45789 0.444588L6.77512 2.75144C7.37007 3.34377 7.37008 4.30746 6.77516 4.89979L6.19852 5.47383C7.06435 6.82204 8.21449 7.96682 9.56916 8.82859L10.0821 8.31791C10.6776 7.7251 11.6416 7.72584 12.2365 8.31791ZM12.1157 13.321C11.8113 13.6505 11.3216 13.7642 10.8346 13.5949C6.46033 12.0754 2.9376 8.56837 1.41116 4.21369C1.23638 3.71512 1.36248 3.19856 1.73242 2.89768C1.74648 2.88625 1.75995 2.87408 1.77273 2.86126L3.24527 1.38388C3.29408 1.33526 3.35114 1.328 3.38077 1.328C3.41043 1.328 3.46743 1.33523 3.51627 1.38388L5.83342 3.69071C5.90813 3.76509 5.90813 3.88609 5.83345 3.96047L4.8082 4.98113C4.64248 5.14607 4.60751 5.40069 4.72263 5.60387C5.83522 7.56745 7.46576 9.19074 9.43816 10.2983C9.64223 10.4129 9.89799 10.378 10.0637 10.2131L11.0239 9.25725C11.0986 9.18284 11.22 9.18274 11.2948 9.25725L13.612 11.5641C13.6867 11.6385 13.6867 11.7595 13.612 11.8338L12.1657 13.2736C12.1481 13.2882 12.1314 13.3041 12.1157 13.321ZM11.9706 13.0608C11.947 13.0811 11.9247 13.1027 11.9038 13.1253C11.6863 13.3607 11.3211 13.4587 10.9293 13.3225C6.63779 11.8316 3.18061 8.3896 1.68339 4.11827C1.54311 3.71813 1.65163 3.33524 1.91441 3.12149C1.93625 3.10373 1.95715 3.08484 1.97699 3.06495L3.38104 1.65629L5.56005 3.82561L4.6047 4.77668C4.60471 4.77667 4.6047 4.77668 4.6047 4.77668C4.34704 5.03315 4.29239 5.42967 4.47164 5.74607C5.61022 7.75549 7.27875 9.41655 9.29689 10.5498C9.61336 10.7275 10.0099 10.6736 10.2672 10.4176L11.1593 9.52941L13.3386 11.6989L11.9706 13.0608ZM7.82132 3.47335C7.82132 3.02583 8.18539 2.66525 8.63176 2.66525C10.7023 2.66525 12.3887 4.34216 12.3887 6.40662C12.3887 6.85414 12.0246 7.21472 11.5782 7.21472C11.1318 7.21472 10.7678 6.85414 10.7678 6.40662C10.7678 5.23627 9.81053 4.28146 8.63176 4.28146C8.18535 4.28146 7.82132 3.92086 7.82132 3.47335ZM7.82132 1.43383C7.82132 0.986314 8.18539 0.62573 8.63176 0.62573C11.832 0.62573 14.4374 3.21757 14.4374 6.40662C14.4374 6.85415 14.0733 7.21473 13.6269 7.21473C13.1805 7.21473 12.8165 6.85415 12.8165 6.40662C12.8165 4.11168 10.9402 2.24194 8.63176 2.24194C8.18535 2.24194 7.82132 1.88134 7.82132 1.43383ZM8.63176 2.95371C8.34348 2.95371 8.10978 3.18637 8.10978 3.47335C8.10978 3.76034 8.34345 3.993 8.63176 3.993C9.96862 3.993 11.0562 5.07574 11.0562 6.40662C11.0562 6.6936 11.2899 6.92626 11.5782 6.92626C11.8665 6.92626 12.1002 6.6936 12.1002 6.40662C12.1002 4.50269 10.5442 2.95371 8.63176 2.95371ZM8.10978 1.43383C8.10978 1.14685 8.34348 0.914191 8.63176 0.914191C11.6739 0.914191 14.1489 3.3781 14.1489 6.40662C14.1489 6.69361 13.9152 6.92627 13.6269 6.92627C13.3386 6.92627 13.1049 6.69361 13.1049 6.40662C13.1049 3.95115 11.0983 1.95348 8.63176 1.95348C8.34345 1.95348 8.10978 1.72082 8.10978 1.43383Z" fill="#FF6B00"/>
</svg>
