<svg xmlns="http://www.w3.org/2000/svg" width="26" height="26" fill="#ec7e3b" stroke="#ec7e3b" xmlns:v="https://vecta.io/nano"><path d="M8.985 9.75a30.04 30.04 0 0 0 7.272 7.255l.48-.512c.88-.997 2.22-1.2 3.4-.57l2.778 1.364a2.67 2.67 0 0 1 1.523 3.075l-.823 3.616c-.165.743-.964 1.208-1.683.95-4.437-1.6-8.4-3.973-11.84-7.18a34.07 34.07 0 0 1-8.997-13.65c-.277-.77.16-1.547.96-1.726l3.775-.85C6.9 1.3 8.1 1.888 8.6 2.87l1.537 3.136a2.79 2.79 0 0 1-.573 3.183c-.183.183-.37.362-.578.56zm8.108 7.806l1.232.738-.47.85c-2.336-1.303-4.4-2.92-6.266-4.8s-3.493-3.94-4.795-6.273l.85-.47.785 1.307.494-.475c.592-.588.7-1.27.32-2.017L7.74 3.35c-.348-.73-.968-1.044-1.753-.865l-3.817.87c-.25.056-.277.103-.188.34.3.752.56 1.514.888 2.248C6.8 14.69 13.282 20.693 22.265 24.01c.263.1.306.075.37-.202l.865-3.8c.174-.776-.132-1.4-.84-1.744l-3.22-1.585c-.587-.287-1.156-.268-1.664.165-.24.207-.442.46-.682.715zM15.768 1.892v-.9C20.337.863 24.995 4.85 25 10.2h-.907c-.484-5.055-3.243-7.824-8.325-8.318zm-.995 3.27v-.908c3.497-.108 7 3 6.97 6.954h-.92c-.348-3.677-2.355-5.7-6.05-6.047zm3.7 7.057h-.94c-.212-2.295-1.457-3.56-3.8-3.78v-.917c2.195-.136 4.743 1.947 4.73 4.697z"/></svg>