<svg xmlns="http://www.w3.org/2000/svg" width="39" height="38" fill="none" xmlns:v="https://vecta.io/nano"><path d="M20.777 16.594l-1.06 4.497a.53.53 0 0 1-.409.318l-2.998.015 1.06-4.45a.66.66 0 0 1 .5-.363l2.907-.015z" fill="#ec7e3b"/><path d="M19.05 0c11.204.1 19.925 9.705 18.865 20.848-.257 2.695-1.045 5.223-2.422 7.57-.242.4-.273.757-.106 1.196l2.377 6.374c.212.6.4 1.18-.12 1.68-.53.515-1.12.303-1.696.1l-6.374-2.347c-.318-.106-.802-.076-1.1.1C16.87 42 2.578 35.217.277 22.105-1.555 11.688 5.924 1.575 16.492.212 17.34.106 18.203.076 19.05 0zm15.807 34.853l-1.908-5.148c-.273-.697-.212-1.272.197-1.908 2.24-3.618 2.998-7.54 2.256-11.75-1.6-8.887-10.2-15.004-18.97-13.505-9.145 1.575-15.292 9.993-13.884 19 1.847 11.8 15.065 17.88 25.254 11.598.65-.394 1.2-.47 1.908-.197l5.148 1.908zm-19.894-18.26h-1.348c-.727-.03-1.226-.53-1.2-1.18.015-.636.485-1.075 1.18-1.12h.076c.636-.045 1.484.136 1.877-.197.4-.348.38-1.196.53-1.832l.197-.802c.212-.666.787-1 1.393-.833.62.167.984.742.848 1.408l-.515 2.256 3.058-.015c.136 0 .318-.288.363-.47l.5-2.135c.197-.787.742-1.196 1.393-1.06.696.15 1.045.757.878 1.575l-.47 2.12h1.378c.803.03 1.287.485 1.257 1.196-.03.65-.515 1.1-1.272 1.105H23.17l-1.136 4.845h1.47c.697.03 1.15.5 1.166 1.136.015.65-.424 1.12-1.136 1.15h-2.03l-.575 2.453c-.242.97-.757 1.408-1.484 1.226-.742-.182-1.014-.772-.787-1.74l.424-1.923c-1.06 0-2.014-.015-2.952.015-.15 0-.378.273-.44.454l-.545 2.195c-.212.787-.772 1.166-1.438.984-.68-.182-.984-.772-.818-1.544l.485-2.12h-1.408c-.742-.03-1.242-.5-1.242-1.15s.515-1.12 1.242-1.15h.15c1.817-.03 1.817-.03 2.226-1.847l.65-2.8c.015-.045-.015-.1-.03-.197zm5.814 0c-1.045 0-1.968-.015-2.892.015-.182 0-.47.212-.5.363l-1.06 4.45 2.998-.015c.136 0 .363-.182.4-.318l1.045-4.497z" fill="#171716"/></svg>