<svg xmlns="http://www.w3.org/2000/svg" width="58" height="54" fill="none" xmlns:v="https://vecta.io/nano"><path d="M14.5 13.758l-3.843-2.58a2.14 2.14 0 0 0-1.032-.327L2.9 10.84c-.84 0-1.134-.27-1.134-1.104V2.8c0-.743.306-1.047 1.077-1.047H17.05c.794 0 1.077.293 1.088 1.093v6.87c0 .777-.33 1.093-1.1 1.104H15.45c-.646.01-.93.293-.94.924v2.005zm-4.557-8.38h5.203c.703 0 1.088-.304 1.1-.845.023-.574-.374-.9-1.1-.9H4.75c-.714 0-1.088.293-1.1.845-.023.574.374.9 1.1.9h5.203zM8.128 8.982l3.56-.023a1.16 1.16 0 0 0 .828-.518c.125-.203.068-.676-.102-.856-.193-.214-.6-.338-.896-.338l-6.8-.01c-.703 0-1.088.293-1.1.845-.023.574.374.9 1.1.9h3.4zm40.786 9.46v-1.06c0-.856-.283-1.137-1.156-1.137h-1.474c-.657-.01-.986-.327-.986-.957V2.73c0-.63.317-.946.94-.946h7.255c.6 0 .907.35.918.98l.01 2.478v10.024c0 .878-.317 1.284-1.18 1.17-1.553-.203-2.755.282-3.65 1.543l-.442.642a3.3 3.3 0 0 0-.238-.18zm.057-8.886v.282c.023.597.374.957.896.946.5-.01.828-.36.85-.924.01-.135-.045-.282.01-.394.16-.315.272-.72.533-.9 1.043-.7 1.496-1.768 1.156-2.962s-1.62-2.084-2.8-1.96c-1.326.146-2.403 1.25-2.483 2.523-.034.552.272.946.77 1.002.476.056.873-.26.964-.743.023-.124 0-.27.045-.394.147-.45.465-.665.94-.653.453.01.77.225.873.653.1.372.08.766-.34.98-1.032.53-1.406 1.442-1.428 2.545zm.896 4.82c.5-.01.884-.428.85-.923-.023-.473-.42-.834-.895-.822-.5.01-.884.428-.85.924.034.484.42.845.896.822zm-.952 11.51l1.36.912 2.38 1.622a1.87 1.87 0 0 0 1.258.383h1.417c.555.023.884.327.895.878v7.253c0 .586-.33.912-.918.912h-9.114c-.578 0-.895-.338-.907-.924v-7.197c0-.62.33-.912.963-.924l1.587-.01c.77-.01 1.066-.293 1.077-1.047v-1.858zm1.905 4.776h-2.596c-.68 0-1.077.338-1.054.9.023.54.385.845 1.054.845h5.1c.67 0 1.032-.304 1.054-.833.023-.563-.374-.9-1.054-.9l-2.494-.01zm-1 5.35h1.746c.612-.01.975-.35.975-.867s-.363-.867-.964-.88a175.16 175.16 0 0 0-3.446 0c-.612.01-.964.338-.975.856 0 .518.363.867.964.88l1.7.01z" fill="#ec7e3b"/><path d="M20.325 35.923l-4.67-1.047c-.714-.17-1.406-.405-2.108-.642-.623-.214-.85-.563-.85-1.24l.01-15.15c0-.822.125-1.644.283-2.455.08-.428-.023-.653-.374-.867l-2.7-1.735c-.204-.124-.487-.203-.737-.203-2.074-.01-4.16 0-6.235-.01C1.168 12.575 0 11.415 0 9.647v-6.7C0 1.188 1.2.028 2.96.028h13.943c1.86 0 2.993 1.138 2.993 2.985v2.58l.714-.35c7.402-3.672 16.018-.766 19.634 6.623.94 1.915 1.394 3.953 1.406 6.082l.01 14.98c0 .8-.26 1.194-1.054 1.35l-6.858 1.385c-.102.023-.204.045-.34.2.193.08.374.17.567.236l7.493 2.534c1.644.552 2.913 1.577 4.002 2.906 1.338 1.633 1.814 3.48 1.8 5.53v5.575c0 1.047-.33 1.363-1.394 1.363h-37.5c-.85 0-1.1-.248-1.1-1.115l-.01-6.307c-.1-3.604 2.437-7.017 5.804-8.188l6.63-2.253c.18-.023.34-.1.646-.214zm-9.624 6.07c.113.068.16.113.215.124 4.274 1.115 7.425 5.215 7.312 9.64-.01.496.227.53.624.53l16.822-.01c.18 0 .363-.023.555-.034.136-5.1 2.55-8.515 7.436-10.204-.84-.98-1.87-1.577-3.027-1.97l-6.745-2.275c-.884-.304-.873-.293-1.45.462-.25.327-.5.687-.828.924-1.168.856-2.358 1.667-3.56 2.478-.6.394-1.213.383-1.848.034-1.96-1.06-3.775-2.286-4.863-4.325-.1.01-.17.01-.238.034l-7.595 2.58c-1.088.405-2.018 1.08-2.8 2.016zm3.73-23.945h2.766c1.508-.01 2.732-1.228 2.755-2.714.01-.597-.01-1.205 0-1.802.01-.563.33-.88.873-.88s.86.304.873.88c.01.586 0 1.16 0 1.746.01 1.554 1.224 2.77 2.8 2.782h15.18c0-.01.023-.034.034-.067.01-.08.023-.146.023-.225-.227-4.606-2.188-8.278-6.223-10.598-4.364-2.512-8.83-2.478-13.206.146-.306.18-.453.394-.43.766a23.04 23.04 0 0 1 .01 1.802c-.034 1.543-1.247 2.714-2.8 2.714h-.828V15.3c-.01.608-.6 1.036-1.156.856-.16-.056-.306-.135-.555-.26l-.113 2.15zm21.856 1.746h-11.7c-1.35 0-2.505-.45-3.446-1.442-.1-.1-.18-.18-.33-.315-.703.9-1.62 1.42-2.62 1.656 0 1.757-.18 3.48.034 5.158.52 4.1 3.934 7.242 8.05 7.602 4.274.372 8.117-2.05 9.5-5.958.782-2.185.42-4.415.52-6.702zM14.5 13.758v-1.993c.01-.63.295-.912.94-.924.533-.01 1.054 0 1.587 0 .77-.01 1.088-.338 1.1-1.104v-6.87c0-.8-.295-1.092-1.088-1.092H2.834c-.77 0-1.077.293-1.077 1.047V9.75c0 .822.295 1.104 1.134 1.104l6.745.01c.35 0 .737.135 1.032.327 1.247.788 2.47 1.633 3.843 2.568zm30.788 38.53c.023-.146.045-.214.045-.293L45.3 46.15c-.023-.676-.272-1.352-.43-2.016-.113-.462-.363-.62-.862-.462-3.174 1.002-5.192 3.075-5.974 6.296-.18.732-.18 1.498-.272 2.264.25.022.363.045.465.045l7.05.01zm-29.03-.023c.397-3.356-1.904-7.4-6.28-8.582a.57.57 0 0 0-.476.27c-.193.8-.442 1.633-.476 2.467-.068 1.757-.023 3.525-.023 5.294 0 .18.023.36.023.552h7.232zM22.82 33.3c0 .777.034 1.453-.01 2.117-.068.957.26 1.78.963 2.365.975.8 2.04 1.52 3.095 2.24.147.1.465.1.612 0 .952-.63 1.916-1.26 2.823-1.96 1.632-1.25 1.202-3.02 1.2-4.753-2.902 1.183-5.725 1.17-8.672-.01zm-8.332-8.177c-.01.056-.034.113-.034.158l-.01 6.983c0 .36.18.45.453.518 1.054.26 2.12.552 3.185.777.952.203 1.916.36 2.947.552 0-.597.023-1.104-.01-1.6-.01-.146-.136-.315-.25-.405a10.85 10.85 0 0 1-4.228-6.578c-.023-.124-.227-.293-.363-.304-.544-.068-1.088-.08-1.7-.1zm25.268.08c-.52 0-.975.023-1.417-.01-.35-.023-.465.1-.544.45-.555 2.455-1.8 4.505-3.752 6.116-.748.608-.907 1.183-.6 2.15.102 0 .215.023.33 0l5.645-1.374c.147-.034.317-.35.33-.53.034-.935.01-1.87.01-2.816l-.01-3.987zm-23.443-5.406c-.374 0-.692-.01-.998 0-.52.034-.828.35-.85.867-.023.63-.01 1.273 0 1.915 0 .45.238.766.68.845.374.056.77.01 1.168.01v-3.638zm21.742 3.65h1.02c.42-.023.67-.236.67-.676v-2.3c0-.417-.227-.63-.612-.665-.35-.034-.703-.01-1.077-.01v3.65zm9.102-5.41c-.556-.056-1.054-.045-1.52-.158-1.224-.282-2.097-1.352-2.097-2.602V2.72c0-1.475 1.224-2.692 2.7-2.703h7.198c1.496.01 2.7 1.194 2.72 2.68V15.31c-.01 1.453-1.236 2.714-2.687 2.624-1.145-.068-1.916.327-2.62 1.16-.612.7-1.326 1.33-1.984 2.005-.34.338-.726.62-1.202.428-.465-.18-.5-.642-.5-1.104l-.01-2.388zm1.757.406l.238.17.442-.642c.895-1.26 2.086-1.746 3.65-1.543.86.113 1.18-.293 1.18-1.17V5.232l-.01-2.478c-.01-.63-.34-.98-.918-.98-2.415-.01-4.84-.01-7.255 0-.623 0-.94.327-.94.946v12.558c0 .642.34.946.986.957h1.474c.873 0 1.156.282 1.156 1.138v1.07zm-1.757 8.616l.01-2.478c.023-.304.136-.698.363-.856.35-.248.782-.248 1.213.034l4.602 2.985c.295.2.68.26 1.043.315.487.068.986.01 1.462.113 1.236.26 2.12 1.33 2.13 2.58v7.208c-.01 1.475-1.247 2.658-2.743 2.67h-8.9c-1.62-.01-2.8-1.216-2.8-2.838V29.98c0-1.723 1.18-2.895 2.913-2.895.204-.023.408-.023.703-.023zm1.757-1.17v1.858c-.01.755-.306 1.036-1.077 1.047-.533.01-1.054-.01-1.587.01-.635.01-.952.315-.963.924v7.197c0 .586.317.924.907.924h9.114c.6 0 .907-.327.918-.912v-7.253c0-.552-.33-.856-.895-.878a14.56 14.56 0 0 0-1.417 0c-.477.023-.873-.1-1.258-.383l-2.38-1.622-1.36-.912zM9.953 5.378H4.75c-.737 0-1.134-.327-1.1-.9.01-.552.397-.845 1.1-.845h10.406c.737 0 1.134.327 1.1.9-.01.54-.408.845-1.1.845H9.953zM8.128 8.982H4.74c-.737 0-1.134-.338-1.1-.9.023-.54.408-.845 1.1-.845l6.8.01c.306 0 .703.124.896.338.17.18.227.653.102.856a1.23 1.23 0 0 1-.828.518l-3.57.023zm40.842.574c.023-1.104.397-2.005 1.44-2.545.42-.214.43-.608.34-.98-.102-.428-.42-.653-.873-.653-.476-.01-.793.203-.94.653-.034.124-.023.26-.045.394-.1.496-.5.8-.964.743-.5-.056-.805-.45-.77-1.002.068-1.273 1.156-2.376 2.483-2.523 1.168-.124 2.437.766 2.8 1.96.34 1.194-.113 2.253-1.156 2.962-.26.18-.374.586-.533.9-.057.1 0 .26-.01.394-.034.574-.35.912-.85.924-.52.01-.873-.35-.895-.946-.01-.1-.01-.2-.01-.282zm.896 4.82c-.476.01-.862-.338-.896-.822-.034-.496.352-.9.85-.924a.87.87 0 0 1 .896.822c.034.507-.35.912-.85.924zm.954 16.287h2.48c.68 0 1.066.35 1.054.9-.023.54-.386.834-1.054.834h-5.1c-.67 0-1.032-.304-1.054-.845-.023-.552.374-.9 1.054-.9l2.607.01zm-1.02 5.35h-1.7c-.6-.01-.964-.36-.964-.878s.363-.856.975-.856h3.446c.6.01.963.36.963.878s-.363.845-.975.867l-1.757-.01z" fill="#171716"/></svg>