<svg width="20" height="16" viewBox="0 0 20 16" fill="none" xmlns="http://www.w3.org/2000/svg">
<path d="M19.5813 6.44588C18.519 2.71113 15.8985 0 13.3513 0C13.1467 0 12.9423 0.0175077 12.7432 0.0521255C12.6303 0.0716229 12.5315 0.13688 12.4704 0.231581C12.4095 0.32688 12.3923 0.44267 12.4232 0.550901L12.9476 2.3948C12.9982 2.57286 13.1728 2.69323 13.3543 2.68507L13.396 2.68427C14.3407 2.68427 16.0671 4.07615 16.9472 7.16967C16.982 7.29242 17.015 7.41796 17.0468 7.54887C16.0588 7.0682 14.8802 6.95699 13.8129 7.24925C11.4051 7.91156 9.99459 10.3758 10.6677 12.7425C11.2133 14.6603 13.0077 16 15.0314 16C15.4436 16 15.8552 15.9441 16.2549 15.8341C17.8427 15.3978 19.0365 14.1018 19.6165 12.1857C20.14 10.457 20.1269 8.36498 19.5813 6.44588Z" fill="#FF6B00"/>
<path d="M2.85093 0.000397877C2.64674 0.000397877 2.44214 0.0175077 2.24321 0.0521255C2.13049 0.071225 2.03153 0.13688 1.97062 0.231581C1.90971 0.32688 1.89251 0.44267 1.92327 0.550901L2.44781 2.3948C2.4984 2.57286 2.66981 2.69323 2.85457 2.68507L2.89586 2.68427C3.84052 2.68427 5.56714 4.07615 6.44725 7.16967C6.48226 7.29322 6.51525 7.41876 6.54682 7.54887C5.55844 7.0682 4.38024 6.95699 3.31294 7.24925C0.905547 7.91156 -0.505377 10.3758 0.168111 12.7425C0.713701 14.6603 2.50812 16 4.53182 16C4.94404 16 5.35567 15.9441 5.75555 15.8341C7.34314 15.3978 8.53692 14.1018 9.11712 12.1857C9.64045 10.457 9.62749 8.36478 9.0817 6.44548C8.01886 2.71113 5.39877 0.000397877 2.85093 0.000397877Z" fill="#FF6B00"/>
</svg>
