<svg xmlns="http://www.w3.org/2000/svg" width="48" height="40" fill="none" xmlns:v="https://vecta.io/nano"><path d="M23.98 39.99H4.54c-2.602 0-4.53-1.955-4.53-4.594L0 4.77c0-1 .396-1.694 1.157-2.248 1.317-.956 2.838-1.434 4.39-1.77C10.624-.312 15.69-.3 20.69 1.132c1.05.304 2.003.912 3.01 1.368.15.065.407.087.536 0 1.778-1.26 3.802-1.814 5.9-2.03 2.142-.217 4.305-.424 6.447-.402 3.04.043 6.062.434 8.89 1.694.47.206.92.478 1.35.77.792.543 1.178 1.27 1.178 2.28l-.01 30.57c0 2.672-1.928 4.615-4.562 4.615l-19.448-.01zm-.846-11.077c0-.022.01-.11.01-.195l.01-24.098c0-.478-.193-.836-.578-1.02-.74-.348-1.478-.738-2.26-.934-4.862-1.184-9.756-1.184-14.65-.26-1.092.206-2.142.652-3.18 1.064-.493.195-.782.608-.782 1.227l.01 24.207c7.154-2.606 14.254-2.617 21.42.01zm7.732-15.454l3.448-.304c2.913-.206 5.805 0 8.685.543.62.12.92.52.814 1.053-.096.49-.514.728-1.125.62-2.517-.456-5.066-.662-7.614-.543-1.403.065-2.795.24-4.22.37v2.976c-.01.836-.632 1.205-1.35.804-.707-.39-1.403-.793-2.088-1.216-.278-.163-.503-.195-.782-.01a16.17 16.17 0 0 1-1.392.814c-.29.152-.386.348-.386.684l.01 9.394c0 .13.032.26.032.27 7.165-2.606 14.265-2.617 21.387.022 0-.044.01-.174.01-.293l.01-24c0-.5-.214-.858-.6-1.053-.6-.315-1.2-.62-1.863-.804-3.46-.988-7.004-1.097-10.56-.923-.792.043-1.585.13-2.388.195v4.507c.086 0 .14.01.193 0a35.71 35.71 0 0 1 11.823.185c.707.13 1.028.5.92 1.075-.096.5-.514.738-1.167.608-2.463-.445-4.96-.652-7.454-.532-1.435.065-2.87.24-4.305.358l-.032 5.202zm-6.02 21.34h18.838c1.36 0 2.4-.77 2.527-2.085.16-1.705.31-1.91-1.414-2.682-.546-.25-1.146-.424-1.735-.554-4.712-1.032-9.456-1.053-14.2-.174-1.103.206-2.185.64-3.234 1.075-.332.14-.74.587-.77.934-.075 1.13-.02 2.27-.02 3.486zm-1.703 0c0-1-.064-1.933.02-2.856.075-.9-.343-1.38-1.07-1.727-1.435-.684-2.977-.977-4.53-1.184-3.15-.424-6.297-.445-9.446-.098-1.778.195-3.534.49-5.194 1.205-.857.37-1.296.912-1.242 1.955C1.778 33.8 2.7 34.81 4.36 34.81h17.178l1.606-.01zm-21.45.75c.032.337.032.52.064.695.257 1.314 1.19 2.03 2.635 2.03h39.357c1.36.01 2.677-1.108 2.442-2.65-1.05.836-2.26.9-3.502.9-12.444-.01-24.878-.01-37.323 0-1.264 0-2.506-.022-3.673-.977zM29.13 2.37c-1.328.293-2.592.565-3.727 1.27a1.11 1.11 0 0 0-.568 1.032l.01 11.664c0 .13.032.26.053.445.535-.304 1.028-.565 1.49-.87.45-.282.857-.25 1.296.033.45.293.932.543 1.446.847V2.37z" fill="#171716"/><path d="M29.13 2.37v14.41l-1.446-.847c-.44-.282-.846-.315-1.296-.033l-1.49.87-.053-.445-.01-11.664a1.12 1.12 0 0 1 .568-1.032c1.125-.695 2.4-.967 3.728-1.26z" fill="#ec7e3b"/><g fill="#171716"><path d="M12.38 21.592l-6.308.75c-.6.076-1.06-.174-1.135-.684-.075-.5.225-.88.814-1 4.4-.847 8.782-.836 13.173-.043.44.076.793.24.9.728.118.63-.364 1.064-1.05.988l-6.383-.74zM12.402 7.7l-6.308.738c-.632.076-1.06-.14-1.157-.652-.096-.52.214-.9.846-1.02 4.36-.847 8.718-.836 13.087-.043.47.087.878.228.942.793.075.62-.386 1-1.06.934l-6.35-.75z"/><path d="M12.284 12.926l6.544.728a2.14 2.14 0 0 1 .257.054c.535.13.803.52.718 1.02-.086.456-.493.717-1.007.652l-3.877-.5c-2.967-.27-5.912-.065-8.846.478-.62.12-1.06-.152-1.146-.662-.086-.52.214-.923.857-1l6.5-.77zM35.8 20.028c2.324-.054 4.627.152 6.918.554l.418.087c.503.13.76.5.675 1-.075.456-.493.75-.996.673l-2.645-.38c-3.373-.4-6.715-.25-10.056.37-.653.12-1.103-.13-1.178-.673-.075-.52.225-.912.867-1l5.976-.76c.01.043.02.087.02.13z"/></g></svg>