<svg xmlns="http://www.w3.org/2000/svg" width="12" height="12" fill="none" xmlns:v="https://vecta.io/nano"><path d="M8 8.923c-2.28 1.698-5.236 1.17-6.84-.77-1.655-1.997-1.525-4.866.294-6.696C3.237-.338 6.14-.49 8.083 1.084 10.1 2.708 10.636 5.7 8.92 8.007l.61.596 2.238 2.234c.416.41.216.945-.148 1.104a.65.65 0 0 1-.76-.161l-2.787-2.79L8 8.923zm-3.03-.286c2.022.005 3.664-1.635 3.67-3.666.008-2.02-1.634-3.666-3.664-3.67-2.025-.005-3.664 1.632-3.67 3.663 0 2.03 1.634 3.668 3.664 3.674z" fill="#171716"/></svg>