<svg xmlns="http://www.w3.org/2000/svg" width="16" height="16" fill="none" xmlns:v="https://vecta.io/nano">
  <path
    d="M10.304 11.4c-2.66 1.98-6.1 1.364-7.98-.9a5.77 5.77 0 0 1 .344-7.8C4.748.606 8.133.43 10.4 2.264c2.34 1.895 2.978 5.398.978 8.077l.7.695 2.6 2.606c.486.477.252 1.103-.173 1.288-.313.134-.62.076-.887-.188l-3.252-3.256-.085-.076zm-3.534-.334c2.36.006 4.275-1.908 4.28-4.277.01-2.357-1.907-4.277-4.275-4.283A4.29 4.29 0 0 0 2.495 6.8a4.28 4.28 0 0 0 4.275 4.286z"
    fill="#fff" stroke="#fff" stroke-width=".4" />
</svg>