<svg xmlns="http://www.w3.org/2000/svg" width="56" height="56" fill="none" xmlns:v="https://vecta.io/nano"><path d="M8.932 10.073h6.77v26.743h-6.77V10.073zm.984 10.708v4.485c0 .864.34 1.203 1.18 1.203h2.57c.8 0 1.18-.36 1.18-1.16v-9.013c0-.798-.372-1.17-1.17-1.18a101.02 101.02 0 0 0-2.57 0c-.842.01-1.192.35-1.203 1.192l.01 4.473zm3.74-8.936h-2.55v1.903h2.55v-1.903zM11.098 28.7v1.903h2.55V28.7h-2.55zm2.56 4.047h-2.56v1.892h2.56v-1.892zm-5.404 9.166l.427-.022h20.877c1.116 0 1.826.8 1.63 1.827-.142.755-.755 1.225-1.64 1.225H8.254v-3.03zm31.89-2.813V25.93h3.795V39.1h-3.795z" fill="#ec7e3b"/><path d="M36.315 47.972h.634l17.77.022c.962 0 1.28.317 1.28 1.28v5.524C56 55.65 55.65 56 54.808 56H6.887v-1.947H54v-4.058H2v5.994c-.416 0-.766.022-1.126-.01a.93.93 0 0 1-.864-.962V49c0-.623.405-.995 1.05-1.006h2.996V46.1c.01-.8.36-1.16 1.17-1.16h.962v-3.05h-1.04c-.7-.01-1.083-.383-1.094-1.083V37.9c.01-.667.394-1.04 1.072-1.05H6.92V9.515c0-1.148.273-1.433 1.4-1.433h8.147c.908 0 1.236.34 1.236 1.27V29.73c.033.01.066.01.098.022L28.66 5.785l1.793.798-4.55 10.085 5.37 2.428L37.77 4.713l-7.163-3.238.34-.766c.34-.7.798-.875 1.5-.558l6.868 3.106c.722.328.897.8.558 1.553l-2.767 6.114-.284.678.667.033h10.936c1.105 0 1.4.284 1.4 1.4v30.297c0 .175-.022.36-.033.57h-1.936V13.638h-11.54V47.97zm-30.26 0h23.578c2.384-.01 4.385-1.772 4.604-3.916.317-3.14-1.914-4.9-3.85-5.184l-.634-.077v-1.97l1.4.197c1.16.252 2.154.83 3.106 1.652V17.478c-.142.13-.208.273-.273.416L24.953 37.93c-.295.656-.7.92-1.433.92l-17.454-.01v1.094H29.7c2.122 0 3.696 1.805 3.456 3.905-.208 1.816-1.695 3.074-3.642 3.084h-23.5v.6a12.77 12.77 0 0 1 .033.459zm2.876-37.9v26.743h6.77V10.073H8.93zm-.678 31.84v3.03h21.292c.886 0 1.498-.47 1.64-1.225.197-1.017-.514-1.827-1.63-1.827H8.68c-.13 0-.252.01-.427.022zM20.797 28l5.337 2.406 4.298-9.527-5.337-2.406L20.797 28zm-.82 1.794l-1.947 4.3 5.37 2.428 1.947-4.3-5.37-2.428zm-.897 7.033c.01-.022.01-.055.022-.077l-1.356-.612v.7h1.334zm26.87-4.287v7.328c0 .93-.328 1.247-1.247 1.258h-5.36c-.853 0-1.192-.35-1.192-1.192v-14.8c0-.853.328-1.18 1.192-1.18h5.36c.94 0 1.247.306 1.247 1.236v7.36zm-5.807 6.563h3.795v-13.17h-3.795v13.17zm4.55-20.903H39.42v-1.903h5.272V18.2zm-5.305 3.368v-1.88h5.316v1.88h-5.316zm5.316 21.777v1.903H39.4v-1.903h5.294zM33.56 10.16l-.8 1.783-2.363-1.06.8-1.794 2.363 1.072zm-4.276 3.15l2.363 1.072-.8 1.783-2.363-1.072.8-1.783zm6.18-7.37l-.82 1.783L32.28 6.65l.8-1.783 2.373 1.072zM5.236 54.053v1.914h-1.76v-1.914h1.76zm42.64-7.13v-1.717h1.903v1.717h-1.903zM29.995 2.8l1.783.8-.7 1.553-1.794-.8.7-1.553zm-2.013 34.093v1.892h-1.695v-1.892h1.695zM9.916 20.78v-4.485c0-.842.35-1.192 1.203-1.192h2.57c.787.01 1.17.383 1.17 1.18v9.013c0 .8-.372 1.16-1.18 1.16h-2.57c-.842 0-1.18-.34-1.18-1.203l-.01-4.474zm2.013-3.686v7.372h.92v-7.372h-.92zm1.728-5.25v1.903H11.11v-1.903h2.548zM11.097 28.7h2.548v1.903h-2.548V28.7zm2.56 4.047v1.892h-2.56v-1.892h2.56z" fill="#171716"/></svg>