<svg width="44" height="44" viewBox="0 0 44 44" fill="none" xmlns="http://www.w3.org/2000/svg">
<path d="M10.2085 31.1507C10.0304 29.7384 10.3479 28.4554 11.1049 27.3222C10.6093 27.0209 10.1602 26.7258 9.68746 26.4752C9.56379 26.4101 9.35679 26.4547 9.20593 26.5047C7.79905 26.9736 6.52637 26.7374 5.39578 25.7646C5.02213 25.4428 4.966 25.0549 5.21948 24.758C5.47647 24.4567 5.82644 24.4665 6.22114 24.7946C6.96229 25.4116 7.77975 25.6033 8.64634 25.3233C8.53582 24.651 8.40075 24.0323 8.34286 23.4055C8.29725 22.9053 8.56827 22.604 8.95245 22.6004C9.33749 22.5977 9.56467 22.8857 9.5787 23.3966C9.61817 24.8338 10.5304 25.9082 11.8495 26.0722C13.1538 26.2345 14.3668 25.4303 14.701 24.1758C14.7387 24.0341 14.7501 23.8843 14.772 23.7381C14.8703 23.0997 15.2387 22.9214 15.8447 23.122C16.7692 23.4278 17.6972 23.7604 18.6506 23.9262C20.3171 24.2151 21.9371 23.9449 23.4686 23.1951C23.6001 23.1309 23.7317 23.0658 23.8597 22.9945C24.1913 22.8081 24.5211 22.7261 24.8158 23.0515C25.0666 23.3288 25.0307 23.5963 24.6877 24.0688C25.1921 24.8196 25.5377 25.6443 25.5447 26.5813C25.5473 26.8631 25.5412 27.1466 25.5087 27.4265C25.4526 27.9142 25.1561 28.1969 24.7851 28.1478C24.3764 28.0935 24.1509 27.7484 24.2518 27.2411C24.4272 26.3593 24.1641 25.5961 23.6773 24.8953C23.5966 24.7803 23.3484 24.6724 23.2309 24.7144C20.8285 25.5685 18.4419 25.4838 16.0596 24.6421C16.0202 24.6279 15.9763 24.6297 15.914 24.6207C15.8176 24.8338 15.7272 25.0514 15.622 25.26C15.0825 26.3308 14.2168 26.9727 13.0854 27.2866C12.8608 27.349 12.6223 27.4827 12.4661 27.6557C10.6821 29.6314 11.2277 32.5701 13.6353 34.0216C15.6956 35.2645 18.4287 34.9729 20.1741 33.3021C20.4776 33.0114 20.7679 32.9285 21.1618 33.0623C23.223 33.7621 25.314 33.8148 27.4261 33.3342C27.5252 33.3119 27.6252 33.2825 27.726 33.2736C28.1251 33.2361 28.4286 33.434 28.4724 33.7907C28.5189 34.166 28.3461 34.4496 27.9769 34.5138C27.0577 34.6725 26.1332 34.7982 25.2096 34.9337C25.0702 34.9542 24.9272 34.9533 24.7333 34.9649C25.1605 35.6657 25.7604 36.0642 26.4507 36.3219C27.2164 36.6081 28.0111 36.8167 28.7715 37.1172C30.4302 37.7734 31.9432 38.6748 32.9711 40.1985C33.3667 40.7843 33.6097 41.4868 33.8614 42.16C34.007 42.5487 33.7982 42.8777 33.4658 42.9704C33.093 43.0747 32.751 42.9 32.6615 42.4899C32.3519 41.0651 31.4143 40.1396 30.2942 39.3568C29.3092 38.6694 28.219 38.2112 27.0708 37.8937C26.0578 37.6138 25.0938 37.2233 24.3334 36.469C23.9632 36.1017 23.6449 35.6603 23.3879 35.2029C23.2344 34.9301 23.0668 34.8285 22.7932 34.7803C22.3046 34.6947 21.8143 34.6074 21.3381 34.4701C21.0521 34.388 20.8592 34.4291 20.6241 34.6154C17.9814 36.7177 14.0046 36.5011 11.7311 34.1197C11.3698 33.7416 11.0645 33.2896 10.811 32.8278C10.6347 32.5059 10.4497 32.4471 10.119 32.4792C8.37443 32.653 6.66232 32.4899 5.07037 31.7053C2.82147 30.597 1.59703 28.6837 1.169 26.2292C0.81816 24.2186 0.975162 22.2661 2.00489 20.449C2.07067 20.3331 2.04436 20.1334 2.00401 19.989C1.44529 17.9499 2.37941 16.0089 4.30992 15.1806C4.4564 15.1173 4.63445 14.956 4.66515 14.8115C5.32122 11.7177 7.51925 10.0879 10.8216 10.2208C11.161 10.2341 11.389 10.1396 11.6373 9.9203C13.281 8.46523 15.236 7.96148 17.3692 8.05153C17.7402 8.06669 17.9551 8.30742 17.9717 8.68902C17.9875 9.05724 17.7033 9.30778 17.2832 9.34255C16.5578 9.40139 15.8176 9.39783 15.1106 9.5485C13.5748 9.87572 12.3442 10.7093 11.489 12.0708C11.1575 12.5986 10.9154 12.7466 10.5672 12.6066C10.1944 12.4569 10.1102 12.1796 10.2479 11.5483C8.1955 11.4137 6.40533 12.7341 5.97993 14.8891C6.12641 14.9239 6.27552 14.9631 6.4255 14.9943C7.14122 15.145 7.78063 15.4535 8.32356 15.9545C8.64984 16.2559 8.70247 16.6562 8.46127 16.9344C8.21831 17.2143 7.80782 17.234 7.49119 16.9166C6.5097 15.9349 4.78531 15.9947 3.85119 16.9923C2.91181 17.9963 2.83814 19.4932 3.71261 20.556C3.78717 20.6469 3.92312 20.7316 3.92926 20.827C3.94768 21.0865 3.9889 21.3905 3.87926 21.6009C3.74156 21.8657 3.43369 21.913 3.14512 21.7614C3.05478 21.7142 2.97058 21.6562 2.81709 21.5617C1.96103 24.0305 2.03822 26.3941 3.41966 28.6079C4.7897 30.8057 7.48066 31.5225 10.2085 31.1507Z" fill="#171716" stroke="#171716" stroke-width="0.4"/>
<path d="M33.5351 35.8084C33.8342 36.1784 34.1359 36.5199 34.4034 36.8881C35.4463 38.3271 36.0094 39.9382 36.0436 41.7303C36.0541 42.2652 35.8173 42.5755 35.4217 42.5835C35.027 42.5907 34.7665 42.2813 34.7648 41.7535C34.7578 39.6609 33.8666 37.9856 32.4256 36.5618C32.2361 36.3745 32.0528 36.2568 31.7695 36.354C31.5791 36.4191 31.3678 36.428 31.1643 36.4476C30.7248 36.4895 30.4091 36.256 30.3731 35.8717C30.3372 35.4847 30.6003 35.2378 31.0424 35.145C31.6388 35.0202 32.251 34.9106 32.8106 34.6805C33.8886 34.2374 34.6753 33.427 35.2612 32.4123C35.2875 32.366 35.2911 32.3062 35.2832 32.3357C34.4657 32.3464 33.6333 32.4462 32.8229 32.3508C31.2029 32.1591 29.9346 31.2952 28.968 29.9721C28.7075 29.6145 28.747 29.2606 29.0426 29.0243C29.3373 28.7889 29.7284 28.8505 29.9925 29.2196C30.724 30.2431 31.6923 30.8565 32.9176 31.0883C35.2902 31.5377 37.6847 29.833 38.0934 27.4079C38.296 26.206 38.0601 25.121 37.4514 24.0814C37.3286 23.8719 37.3312 23.4983 37.4321 23.2727C37.4996 23.122 37.8548 23.0213 38.0627 23.0471C38.2355 23.0685 38.4232 23.2825 38.5337 23.4564C39.988 25.762 39.6327 28.8603 37.682 30.7656C37.3163 31.1231 37.0505 31.4994 36.8646 31.987C36.2541 33.5901 35.2235 34.8473 33.7228 35.68C33.6614 35.7148 33.6061 35.7593 33.5351 35.8084Z" fill="#171716" stroke="#171716" stroke-width="0.4"/>
<path d="M19.6698 18.0507C20.2031 19.0582 20.3758 20.1406 19.9987 21.2782C19.9478 21.4325 19.8873 21.5841 19.8171 21.7303C19.6093 22.16 19.2917 22.3116 18.94 22.1582C18.5988 22.0093 18.4822 21.6402 18.6629 21.2149C18.8997 20.6577 19.0383 20.088 18.8813 19.4862C18.819 19.2454 18.7199 19.0118 18.6155 18.7854C18.4594 18.4448 18.2278 18.2718 17.8164 18.2228C17.2639 18.1568 16.728 17.9384 16.1561 17.7779C16.0517 17.9375 15.9315 18.1399 15.7947 18.3289C14.9764 19.4576 13.851 19.9444 12.4977 19.9275C12.1644 19.923 11.9012 19.7715 11.8434 19.3961C11.7951 19.0823 11.903 18.8308 12.1959 18.706C12.324 18.6516 12.4801 18.6534 12.6231 18.6516C14.7571 18.6338 15.9684 16.4521 14.8843 14.5726C14.6334 14.1375 14.6747 13.764 14.9957 13.5562C15.3351 13.3369 15.7044 13.4698 15.9745 13.9138C16.3683 14.561 16.5587 15.2725 16.5578 16.0277C16.5569 16.3228 16.6604 16.4842 16.9034 16.6251C17.8708 17.185 19.097 17.0619 19.9171 16.3041C19.9925 16.2346 20.0601 16.1552 20.1381 16.0883C20.4443 15.8271 20.789 15.8271 21.0407 16.0848C21.2898 16.3415 21.3135 16.7303 21.0214 16.9942C20.61 17.3624 20.1522 17.6771 19.6698 18.0507Z" fill="#171716" stroke="#171716" stroke-width="0.4"/>
<path d="M21.5625 27.4436C21.4897 27.7851 21.2476 28.2424 21.3625 28.5723C21.4783 28.9049 22.0028 29.0654 22.2493 29.381C22.5413 29.7563 22.7703 30.1995 22.9448 30.6461C23.1018 31.0483 22.9027 31.3817 22.5448 31.5012C22.194 31.618 21.8835 31.4477 21.7484 31.017C21.6055 30.5614 21.3713 30.1932 20.9774 29.9204C20.7152 29.7385 20.5354 29.7153 20.2644 29.9614C18.8364 31.2604 16.6621 31.2783 15.2078 30.031C15.0763 29.9186 14.8807 29.7706 14.8798 29.6378C14.8781 29.3837 14.928 29.0707 15.0798 28.8888C15.292 28.6347 15.5885 28.7328 15.8718 28.9031C16.3156 29.1697 16.7656 29.5094 17.2533 29.603C18.7943 29.8972 20.0381 28.9138 20.2986 27.3375C20.3363 27.1092 20.5117 26.8257 20.7047 26.7196C21.1292 26.4851 21.5879 26.8676 21.5625 27.4436Z" fill="#171716" stroke="#171716" stroke-width="0.4"/>
<path d="M36.7786 14.5753C36.6427 14.8169 36.5769 15.0202 36.4445 15.1575C35.5989 16.0357 34.742 16.9023 33.8824 17.7671C33.5658 18.0854 33.1772 18.1095 32.915 17.8483C32.6483 17.5835 32.6615 17.1903 32.9755 16.8657C33.8351 15.9804 34.6902 15.0897 35.5823 14.2391C35.7463 14.0831 36.091 14.0296 36.3243 14.0751C36.4936 14.109 36.6164 14.3853 36.7786 14.5753Z" fill="#171716" stroke="#171716" stroke-width="0.4"/>
<path d="M22.4712 4.0582C22.3169 4.30338 22.2344 4.49507 22.1011 4.63505C21.5126 5.25203 20.9126 5.8583 20.31 6.46102C19.9522 6.81854 19.5978 6.84261 19.3136 6.5475C19.0514 6.27557 19.0742 5.89932 19.3961 5.56676C20.0092 4.93284 20.6135 4.28733 21.2626 3.69354C21.431 3.54019 21.7731 3.4751 21.9985 3.5286C22.1792 3.5705 22.3028 3.85581 22.4712 4.0582Z" fill="#171716" stroke="#171716" stroke-width="0.4"/>
<path d="M31.5019 11.4565C31.3607 11.699 31.2897 11.8979 31.1572 12.0369C30.581 12.645 29.9907 13.2388 29.3986 13.8308C29.0767 14.1527 28.6952 14.183 28.4303 13.928C28.154 13.6614 28.1795 13.2522 28.5084 12.9125C29.1013 12.3008 29.6828 11.6741 30.3126 11.1043C30.481 10.9519 30.8239 10.9037 31.0572 10.9528C31.2256 10.9884 31.3432 11.2648 31.5019 11.4565Z" fill="#171716" stroke="#171716" stroke-width="0.4"/>
<path d="M38.5697 19.644C38.4329 19.874 38.3574 20.0719 38.2241 20.2137C37.7198 20.7495 37.2014 21.272 36.6787 21.79C36.362 22.1038 35.9691 22.1136 35.7112 21.8381C35.4604 21.5698 35.4726 21.2024 35.7726 20.8877C36.291 20.3447 36.8023 19.7911 37.3619 19.2962C37.5347 19.1438 37.8733 19.0876 38.1057 19.1366C38.2794 19.1723 38.403 19.4496 38.5697 19.644Z" fill="#171716" stroke="#171716" stroke-width="0.4"/>
<path d="M28.4637 6.07577C28.3163 6.31204 28.2347 6.50551 28.1014 6.64816C27.6181 7.16082 27.1208 7.66011 26.6217 8.15672C26.2893 8.4875 25.9306 8.51425 25.656 8.24767C25.3798 7.98019 25.3894 7.60127 25.706 7.27049C26.2235 6.73019 26.7349 6.18008 27.2918 5.68347C27.4515 5.54082 27.7848 5.48108 27.99 5.54438C28.1751 5.60055 28.297 5.87605 28.4637 6.07577Z" fill="#171716" stroke="#171716" stroke-width="0.4"/>
<path d="M26.1481 16.8961C26.0192 17.1297 25.9578 17.3178 25.8359 17.4471C25.364 17.9499 24.8816 18.4421 24.3878 18.9217C24.0764 19.224 23.7177 19.2186 23.4572 18.944C23.1949 18.6668 23.2028 18.3217 23.508 17.999C23.9826 17.4988 24.4492 16.987 24.9684 16.5385C25.1412 16.3896 25.4807 16.3433 25.7122 16.3941C25.8797 16.4307 25.9946 16.7079 26.1481 16.8961Z" fill="#171716" stroke="#171716" stroke-width="0.4"/>
<path d="M22.0898 12.5238C22.0749 12.9072 21.4565 13.5134 21.0855 13.509C20.7356 13.5045 20.4496 13.2005 20.461 12.8456C20.4751 12.4319 21.1039 11.8444 21.503 11.872C21.8354 11.8943 22.1021 12.1912 22.0898 12.5238Z" fill="#171716" stroke="#171716" stroke-width="0.4"/>
<path d="M27.6295 23.8255C27.2611 23.8166 27.0085 23.5348 27.0269 23.1559C27.0462 22.7672 27.605 22.226 27.9716 22.2403C28.3172 22.2545 28.6057 22.5764 28.5856 22.9241C28.5619 23.3128 28.0093 23.8344 27.6295 23.8255Z" fill="#171716" stroke="#171716" stroke-width="0.4"/>
<path d="M32.7746 1.65084C32.7667 2.0253 32.2133 2.57808 31.8431 2.58076C31.48 2.58343 31.2116 2.30437 31.2178 1.93169C31.2248 1.53939 31.7537 1.00266 32.1361 1.00087C32.4869 0.998197 32.7816 1.29866 32.7746 1.65084Z" fill="#171716" stroke="#171716" stroke-width="0.4"/>
<path d="M24.6631 9.87128C24.6596 10.2645 24.1518 10.7807 23.7773 10.7727C23.429 10.7647 23.1554 10.4606 23.1685 10.096C23.1817 9.72774 23.6773 9.22399 24.0334 9.21686C24.3816 9.20973 24.6666 9.50663 24.6631 9.87128Z" fill="#171716" stroke="#171716" stroke-width="0.4"/>
<path d="M31.9555 19.4684C31.945 19.8642 31.4775 20.3287 31.0915 20.3269C30.7363 20.3252 30.4512 20.0283 30.4618 19.6734C30.4732 19.29 30.9547 18.8184 31.3345 18.8193C31.7046 18.8184 31.966 19.0921 31.9555 19.4684Z" fill="#171716" stroke="#171716" stroke-width="0.4"/>
<path d="M40.9537 17.1876C40.9484 17.5844 40.4809 18.0337 40.0862 18.0204C39.7398 18.0097 39.4907 17.752 39.4854 17.4007C39.4802 17.0155 39.9512 16.5252 40.3231 16.5278C40.6625 16.5305 40.959 16.8408 40.9537 17.1876Z" fill="#171716" stroke="#171716" stroke-width="0.4"/>
<path d="M35.6024 7.25006C35.6059 7.62363 35.1586 8.09171 34.7858 8.10509C34.4349 8.11757 34.1437 7.83226 34.1402 7.47117C34.1358 7.08601 34.5683 6.63041 34.9498 6.61882C35.2989 6.60812 35.5989 6.89877 35.6024 7.25006Z" fill="#171716" stroke="#171716" stroke-width="0.4"/>
<path d="M33.4983 9.3827C33.5044 9.75271 33.0589 10.2253 32.6896 10.2413C32.3484 10.2556 32.0449 9.96134 32.0379 9.60827C32.0309 9.22846 32.4651 8.76929 32.8449 8.75681C33.1957 8.74522 33.493 9.02964 33.4983 9.3827Z" fill="#171716" stroke="#171716" stroke-width="0.4"/>
<path d="M42.9999 15.0764C43.0043 15.4526 42.5631 15.9287 42.1956 15.9456C41.8562 15.9608 41.5395 15.6568 41.5325 15.3091C41.5255 14.9435 41.9807 14.4674 42.3517 14.4531C42.7254 14.4389 42.9964 14.7001 42.9999 15.0764Z" fill="#171716" stroke="#171716" stroke-width="0.4"/>
<path d="M33.4264 24.8223C33.0589 24.8223 32.7975 24.5476 32.8062 24.1687C32.815 23.7818 33.2632 23.3324 33.6377 23.3351C33.9886 23.3369 34.2842 23.6436 34.2728 23.9922C34.2605 24.3622 33.7921 24.8214 33.4264 24.8223Z" fill="#171716" stroke="#171716" stroke-width="0.4"/>
<path d="M40.9036 1.85063C40.9054 2.25184 40.4809 2.68604 40.0853 2.68872C39.7125 2.6905 39.452 2.42124 39.4617 2.04143C39.4713 1.65626 39.9318 1.20066 40.3002 1.21225C40.6335 1.22206 40.9019 1.50648 40.9036 1.85063Z" fill="#171716" stroke="#171716" stroke-width="0.4"/>
<path d="M27.2094 14.5155C27.5787 14.5173 27.8357 14.7901 27.8243 15.169C27.812 15.5756 27.3831 15.9875 26.9858 15.9741C26.6332 15.9625 26.3893 15.7067 26.3902 15.3465C26.3902 14.947 26.8174 14.5137 27.2094 14.5155Z" fill="#171716" stroke="#171716" stroke-width="0.4"/>
<path d="M23.9878 2.42478C23.6343 2.41676 23.3483 2.1154 23.365 1.76679C23.3826 1.41462 23.8018 1.0036 24.1491 1.00003C24.5 0.996466 24.7938 1.28891 24.7938 1.64108C24.7929 2.01465 24.3632 2.43281 23.9878 2.42478Z" fill="#171716" stroke="#171716" stroke-width="0.4"/>
</svg>
