<svg width="42" height="42" viewBox="0 0 42 42" fill="none" xmlns="http://www.w3.org/2000/svg">
<path d="M33.2863 30.0902C33.2863 30.6816 33.2863 31.2407 33.2863 31.7916C33.2863 32.464 33.0822 32.6666 32.4211 32.6666C32.2905 32.6666 32.1599 32.6666 31.9803 32.6666C31.9803 33.6712 31.9803 34.6353 31.9803 35.6075C31.9803 36.3772 31.8007 36.5555 31.0253 36.5555C30.7151 36.5555 30.3968 36.5555 30.0458 36.5555C30.0376 36.6851 30.0213 36.7985 30.0213 36.9119C30.0213 37.8031 30.0213 38.6943 30.0213 39.5855C30.0213 40.1365 29.7928 40.4362 29.3765 40.4443C28.9439 40.4524 28.7153 40.1446 28.7153 39.5693C28.7153 38.589 28.7153 37.6006 28.7153 36.5555C28.3072 36.5555 27.9236 36.5555 27.5318 36.5555C27.0012 36.5474 26.7563 36.3205 26.7563 35.7939C26.7482 34.7731 26.7563 33.7441 26.7563 32.6747C26.5441 32.6747 26.3564 32.6828 26.1768 32.6747C25.7034 32.6585 25.4585 32.4235 25.4503 31.9374C25.4422 31.3298 25.4503 30.7303 25.4503 30.0821C25.2707 30.0821 25.1238 30.0821 24.9851 30.0821C24.3729 30.074 24.1525 29.8634 24.1525 29.2557C24.1525 26.7847 24.1525 24.3136 24.1525 21.8426C24.1525 18.6828 24.1525 15.5231 24.1525 12.3634C24.1525 12.2338 24.1525 12.0961 24.1525 11.9583C23.2056 11.853 22.5363 11.4155 22.2751 10.5081C21.9241 9.29284 22.822 8.07757 24.0953 8.05326C24.9606 8.03706 25.834 8.05326 26.74 8.05326C26.74 7.19447 26.74 6.35188 26.74 5.46068C26.34 5.46068 25.9401 5.46068 25.5401 5.46068C24.3892 5.45258 23.5158 4.61809 23.5076 3.52435C23.4832 2.40629 24.3647 1.5556 25.5401 1.5556C28.095 1.5556 30.658 1.5556 33.2128 1.5556C34.3638 1.5556 35.2371 2.39819 35.2453 3.49194C35.2535 4.58568 34.3801 5.43637 33.2373 5.44448C32.8292 5.44448 32.4292 5.44448 32.0048 5.44448C32.0048 6.31137 32.0048 7.14586 32.0048 8.03706C32.5272 8.03706 33.0496 8.03706 33.572 8.03706C33.8822 8.03706 34.2005 8.03706 34.5107 8.03706C35.6208 8.04516 36.486 8.80673 36.5513 9.83566C36.6166 10.8889 35.8983 11.7477 34.7964 11.9178C34.7392 11.9259 34.6903 11.934 34.5923 11.9421C34.5923 12.088 34.5923 12.2338 34.5923 12.3796C34.5923 17.9132 34.5923 23.4467 34.5923 28.9803C34.5923 29.9363 34.478 30.0497 33.5312 30.074C33.4659 30.074 33.4006 30.0821 33.2863 30.0902ZM25.4666 23.5926C25.6381 23.5926 25.7687 23.5926 25.9074 23.5926C26.6176 23.5926 27.3195 23.5844 28.0297 23.5926C28.4459 23.6007 28.7153 23.8761 28.7153 24.2407C28.7153 24.6134 28.4378 24.8726 28.0215 24.8807C27.6134 24.8888 27.2053 24.8807 26.7971 24.8807C26.3564 24.8807 25.9074 24.8807 25.4748 24.8807C25.4748 25.3425 25.4748 25.7395 25.4748 26.177C25.6381 26.177 25.785 26.177 25.9319 26.177C26.642 26.177 27.344 26.1689 28.0542 26.177C28.446 26.1851 28.7071 26.4525 28.7153 26.809C28.7235 27.1493 28.4786 27.4247 28.1195 27.4652C27.997 27.4814 27.8746 27.4733 27.7521 27.4733C26.993 27.4733 26.2339 27.4733 25.4748 27.4733C25.4748 27.927 25.4748 28.3402 25.4748 28.7534C28.0868 28.7534 30.6661 28.7534 33.2537 28.7534C33.2537 23.1389 33.2537 17.5486 33.2537 11.9502C30.6417 11.9502 28.0542 11.9502 25.4666 11.9502C25.4666 12.3796 25.4666 12.7847 25.4666 13.2141C25.6299 13.2141 25.7768 13.2141 25.9237 13.2141C26.6339 13.2141 27.3359 13.206 28.046 13.2141C28.4296 13.2222 28.699 13.4896 28.7071 13.8461C28.7153 14.1863 28.4623 14.4618 28.1113 14.5023C27.9889 14.5185 27.8664 14.5104 27.744 14.5104C26.9849 14.5104 26.2339 14.5104 25.4748 14.5104C25.4748 14.9722 25.4748 15.3773 25.4748 15.8067C26.3237 15.8067 27.1318 15.8067 27.948 15.8067C28.4215 15.8067 28.7153 16.066 28.7071 16.463C28.699 16.8437 28.4133 17.0949 27.9644 17.0949C27.5318 17.103 27.091 17.0949 26.6584 17.0949C26.2584 17.0949 25.8584 17.0949 25.4666 17.0949C25.4666 17.5648 25.4666 17.9618 25.4666 18.3912C26.2911 18.3912 27.091 18.3912 27.8909 18.3912C28.4051 18.3912 28.7071 18.6342 28.7071 19.0393C28.7071 19.4444 28.4133 19.6875 27.8991 19.6875C27.6134 19.6875 27.3277 19.6875 27.042 19.6875C26.5196 19.6875 25.989 19.6875 25.4748 19.6875C25.4748 20.1493 25.4748 20.5625 25.4748 20.9838C26.3482 20.9838 27.1971 20.9757 28.0378 20.9838C28.4133 20.9919 28.6827 21.2349 28.699 21.5671C28.7235 21.9074 28.5521 22.1423 28.2337 22.2477C28.1113 22.2882 27.9644 22.2801 27.8338 22.2801C27.0502 22.2801 26.2666 22.2801 25.4585 22.2801C25.4666 22.7419 25.4666 23.1388 25.4666 23.5926ZM29.3683 10.6296C30.005 10.6296 30.6417 10.6296 31.2865 10.6296C32.3721 10.6296 33.4577 10.6377 34.5433 10.6296C34.9596 10.6296 35.2371 10.3623 35.2371 9.9896C35.2371 9.62502 34.9678 9.35766 34.5515 9.33335C34.4862 9.33335 34.4127 9.33335 34.3474 9.33335C31.0171 9.33335 27.6868 9.33335 24.3647 9.33335C24.2586 9.33335 24.1443 9.32525 24.0382 9.34145C23.728 9.40627 23.524 9.59261 23.4913 9.90858C23.4587 10.2245 23.6056 10.4595 23.9076 10.5729C24.0382 10.6215 24.2015 10.6215 24.3484 10.6215C26.0299 10.6296 27.7032 10.6296 29.3683 10.6296ZM29.3683 2.85189C28.1195 2.85189 26.8706 2.85189 25.6217 2.85189C25.1075 2.85189 24.8136 3.08685 24.8055 3.49194C24.7973 3.89703 25.0993 4.14819 25.6054 4.14819C28.1031 4.14819 30.6008 4.14819 33.1067 4.14819C33.6455 4.14819 33.9556 3.90513 33.9475 3.48384C33.9393 3.07875 33.6455 2.85189 33.1231 2.85189C31.866 2.85189 30.6172 2.85189 29.3683 2.85189ZM28.0705 8.01275C28.952 8.01275 29.8009 8.01275 30.6417 8.01275C30.6417 7.14586 30.6417 6.30327 30.6417 5.47688C29.7683 5.47688 28.9194 5.47688 28.0705 5.47688C28.0705 6.33568 28.0705 7.15396 28.0705 8.01275ZM26.7726 31.346C28.5194 31.346 30.2417 31.346 31.9477 31.346C31.9477 30.9085 31.9477 30.4953 31.9477 30.0983C30.209 30.0983 28.5031 30.0983 26.7726 30.0983C26.7726 30.5196 26.7726 30.9166 26.7726 31.346ZM28.0786 35.2268C28.9683 35.2268 29.8172 35.2268 30.6498 35.2268C30.6498 34.3599 30.6498 33.5335 30.6498 32.6909C29.7846 32.6909 28.9357 32.6909 28.0786 32.6909C28.0786 33.5497 28.0786 34.3842 28.0786 35.2268Z" fill="#171716"/>
<path d="M6.57702 12.358C6.38112 12.358 6.23419 12.3661 6.08727 12.358C5.72812 12.3255 5.46692 12.0906 5.46692 11.7341C5.45876 10.4216 5.4506 9.11723 5.46692 7.80473C5.47508 7.39154 5.76077 7.18089 6.25052 7.17279C8.57683 7.17279 10.9031 7.17279 13.2295 7.17279C14.2743 7.17279 15.3272 7.17279 16.372 7.17279C16.9842 7.17279 17.2127 7.39154 17.2127 7.99918C17.2127 9.14963 17.2127 10.292 17.2127 11.4424C17.2127 12.1635 17.0413 12.3418 16.3067 12.3661C16.2496 12.3661 16.2006 12.3742 16.1026 12.3823C16.3475 13.3788 16.5679 14.3591 16.8454 15.3232C17.1311 16.3035 17.2291 17.292 17.2209 18.3128C17.1964 22.5095 17.2127 26.7144 17.2127 30.9111C17.2127 31.5998 17.0087 31.8023 16.3149 31.8023C12.9846 31.8023 9.64612 31.8023 6.31582 31.8023C5.67098 31.8023 5.4506 31.5917 5.4506 30.9597C5.4506 26.3417 5.42611 21.7237 5.47508 17.1056C5.48325 16.3035 5.80158 15.5015 5.98932 14.6994C6.16889 13.9378 6.37296 13.1681 6.57702 12.358ZM6.79741 18.2075C6.79741 20.5975 6.79741 22.947 6.79741 25.2885C9.85018 25.2885 12.8703 25.2885 15.8904 25.2885C15.8904 22.9146 15.8904 20.5651 15.8904 18.2075C12.8458 18.2075 9.83385 18.2075 6.79741 18.2075ZM7.92383 12.3742C7.54019 13.8892 7.17288 15.3718 6.79741 16.8707C9.85018 16.8707 12.8458 16.8707 15.8823 16.8707C15.4986 15.3556 15.1231 13.8649 14.7477 12.3742C12.4703 12.3742 10.2093 12.3742 7.92383 12.3742ZM15.8904 26.6496C12.8295 26.6496 9.80937 26.6496 6.78924 26.6496C6.78924 27.079 6.78924 27.4759 6.78924 27.9134C6.95249 27.9134 7.09942 27.9134 7.24634 27.9134C8.57683 27.9134 9.90732 27.9134 11.246 27.9134C11.6949 27.9134 11.9806 28.1646 11.9969 28.5373C12.0051 28.9343 11.7112 29.2016 11.246 29.2016C10.291 29.2097 9.3441 29.2016 8.38909 29.2016C7.86669 29.2016 7.33613 29.2016 6.79741 29.2016C6.79741 29.6553 6.79741 30.0604 6.79741 30.4655C9.85018 30.4655 12.8703 30.4655 15.8904 30.4655C15.8904 30.0361 15.8904 29.6391 15.8904 29.2016C15.2782 29.2016 14.6824 29.2016 14.0865 29.2016C13.5968 29.2016 13.3111 28.9667 13.2948 28.5697C13.2866 28.1646 13.5886 27.9053 14.0865 27.9053C14.6824 27.9053 15.2782 27.9053 15.8823 27.9053C15.8904 27.4759 15.8904 27.0709 15.8904 26.6496ZM8.03811 11.0536C8.03811 10.2029 8.03811 9.35218 8.03811 8.50149C7.61366 8.50149 7.20553 8.50149 6.79741 8.50149C6.79741 9.36838 6.79741 10.211 6.79741 11.0536C7.21369 11.0536 7.60549 11.0536 8.03811 11.0536ZM10.6583 11.0536C10.6583 10.1786 10.6583 9.33598 10.6583 8.50149C10.2175 8.50149 9.80937 8.50149 9.4094 8.50149C9.4094 9.36838 9.4094 10.211 9.4094 11.0536C9.83385 11.0536 10.2257 11.0536 10.6583 11.0536ZM12.0132 8.49339C12.0132 9.36028 12.0132 10.2029 12.0132 11.0374C12.454 11.0374 12.8621 11.0374 13.2703 11.0374C13.2703 10.1786 13.2703 9.34408 13.2703 8.49339C12.854 8.49339 12.4459 8.49339 12.0132 8.49339ZM14.6007 8.48528C14.6007 8.93899 14.6007 9.36028 14.6007 9.77347C14.6007 10.1948 14.6007 10.6242 14.6007 11.0374C15.066 11.0374 15.466 11.0374 15.9067 11.0374C15.9067 10.5999 15.9067 10.1867 15.9067 9.77347C15.9067 9.34408 15.9067 8.92278 15.9067 8.47718C15.4578 8.48529 15.0497 8.48528 14.6007 8.48528Z" fill="#171716"/>
</svg>
