<svg width="42" height="42" viewBox="0 0 42 42" fill="none" xmlns="http://www.w3.org/2000/svg">
<path d="M13.813 11.6647C14.4526 11.8258 15.0137 11.9675 15.5747 12.1099C17.8336 12.6807 19.2704 14.5226 19.2687 16.8386C19.2661 19.7355 19.2687 22.6324 19.2678 25.5293C19.267 26.9642 18.4424 27.7758 16.9868 27.7783C16.633 27.7792 16.2791 27.7783 15.8749 27.7783C15.8749 32.5248 15.8749 37.2493 15.8749 42C12.2236 42 8.62343 42 4.98662 42C4.98662 37.2798 4.98662 32.5664 4.98662 27.7783C4.56367 27.7783 4.17313 27.7792 3.78259 27.7783C2.39352 27.775 1.55616 26.9388 1.55616 25.5573C1.55616 22.6884 1.55445 19.8203 1.55701 16.9514C1.55872 14.4522 2.94779 12.6875 5.38739 12.076C5.86832 11.9556 6.34925 11.8318 6.82933 11.7071C6.86685 11.6969 6.9001 11.6673 6.94359 11.641C6.66987 11.3459 6.38336 11.0719 6.13863 10.7649C5.51615 9.98475 5.09235 9.09854 5.03267 8.10294C4.94313 6.60021 4.77088 5.08052 5.28677 3.61087C6.16592 1.1083 8.68568 -0.351182 11.37 0.072839C13.8787 0.469722 15.8348 2.76876 15.8553 5.35868C15.8621 6.23471 15.8979 7.11582 15.8169 7.98506C15.6813 9.43776 15.0017 10.6403 13.813 11.6647ZM4.97639 22.3577C4.97639 20.8685 4.97639 19.4201 4.97639 17.958C5.43856 17.958 5.85468 17.958 6.31429 17.958C6.31429 19.8924 6.31429 21.7929 6.31429 23.7434C8.15274 23.7434 9.94769 23.7434 11.7324 23.7434C11.7324 24.2106 11.7324 24.6262 11.7324 25.0773C9.91529 25.0773 8.13057 25.0773 6.3322 25.0773C6.3322 29.3879 6.3322 33.6612 6.3322 37.9523C7.47227 37.9523 8.58591 37.9523 9.75157 37.9523C9.75157 34.5584 9.75157 31.1909 9.75157 27.8335C10.2231 27.8335 10.6409 27.8335 11.0946 27.8335C11.0946 31.2222 11.0946 34.5796 11.0946 37.9548C12.2449 37.9548 13.3594 37.9548 14.4944 37.9548C14.4944 33.657 14.4944 29.3828 14.4944 25.0578C14.0424 25.0578 13.6109 25.0578 13.1812 25.0578C13.1812 24.5906 13.1812 24.175 13.1812 23.723C13.6314 23.723 14.0518 23.723 14.5293 23.723C14.5293 21.7768 14.5293 19.8661 14.5293 17.9521C14.994 17.9521 15.4016 17.9521 15.8664 17.9521C15.8664 19.4353 15.8664 20.8948 15.8664 22.3416C16.5852 22.3416 17.2452 22.3416 17.9171 22.3416C17.9171 20.3317 17.9171 18.3549 17.9163 16.3773C17.9163 16.3077 17.9001 16.2374 17.8873 16.1678C17.5471 14.3199 15.6464 12.9351 13.634 13.0674C13.003 14.6583 11.9865 15.5241 10.583 15.553C8.817 15.5894 7.73235 14.643 7.16189 12.9978C6.58545 13.1437 6.02181 13.2743 5.46414 13.4286C3.88406 13.8645 2.90089 15.1425 2.89748 16.7614C2.89406 18.4855 2.89577 20.2096 2.89748 21.9345C2.89748 22.071 2.91112 22.2067 2.91879 22.3577C3.60267 22.3577 4.25158 22.3577 4.97639 22.3577ZM14.5489 6.40007C14.5387 6.39923 14.5285 6.39923 14.5182 6.39838C14.5182 6.04559 14.5208 5.69281 14.5174 5.34002C14.4978 3.29285 12.8853 1.53147 10.849 1.33303C8.7232 1.12611 6.7432 2.53725 6.40724 4.60816C6.25716 5.53168 6.31429 6.49166 6.31258 7.43468C6.30832 9.53952 7.92933 11.3187 9.99715 11.5078C12.1451 11.7037 14.0706 10.2748 14.4381 8.16909C14.5404 7.59072 14.5157 6.99031 14.5489 6.40007ZM4.94739 23.74C4.23709 23.74 3.57794 23.74 2.89748 23.74C2.89748 24.4354 2.89151 25.0977 2.90003 25.7592C2.9043 26.0933 3.08251 26.3723 3.40313 26.4062C3.91391 26.4605 4.43577 26.4206 4.94739 26.4206C4.94739 25.5005 4.94739 24.6296 4.94739 23.74ZM15.8732 26.4427C16.3712 26.4427 16.824 26.4546 17.2759 26.4393C17.6136 26.4274 17.883 26.2264 17.9018 25.9084C17.9444 25.1842 17.9154 24.4549 17.9154 23.7391C17.2017 23.7391 16.5426 23.7391 15.874 23.7391C15.8732 24.6431 15.8732 25.5149 15.8732 26.4427ZM9.72343 39.3414C8.56204 39.3414 7.45095 39.3414 6.33476 39.3414C6.33476 39.8002 6.33476 40.2293 6.33476 40.6559C7.48421 40.6559 8.60553 40.6559 9.72343 40.6559C9.72343 40.1996 9.72343 39.7807 9.72343 39.3414ZM14.5003 39.3388C13.3406 39.3388 12.2287 39.3388 11.1074 39.3388C11.1074 39.7951 11.1074 40.2242 11.1074 40.6575C12.2543 40.6575 13.3764 40.6575 14.5003 40.6575C14.5003 40.2038 14.5003 39.7849 14.5003 39.3388ZM12.3259 12.4933C11.0289 12.9817 9.76948 12.9444 8.5015 12.5111C8.61576 13.5279 9.42157 14.2334 10.4124 14.2334C11.4024 14.2334 12.2082 13.5287 12.3259 12.4933Z" fill="black"/>
<path d="M27.3577 12.8833C27.4378 11.8123 27.5726 11.5511 28.0313 11.5282C28.508 11.5044 28.6512 11.7554 28.7843 12.8604C31.0209 12.8604 33.2601 12.8604 35.5684 12.8604C35.5684 12.7205 35.5676 12.573 35.5684 12.4254C35.5718 11.8453 35.8038 11.5366 36.2395 11.529C36.6872 11.5205 36.9294 11.8402 36.9328 12.4457C36.9336 12.5721 36.9328 12.6976 36.9328 12.885C37.1869 12.885 37.4231 12.8799 37.6584 12.8859C38.7542 12.9156 39.6504 13.7721 39.6555 14.8584C39.6708 18.0657 39.67 21.2739 39.6555 24.4812C39.6504 25.5666 38.7533 26.4444 37.6567 26.4478C33.9909 26.4596 30.3251 26.4596 26.6593 26.4486C25.5465 26.4452 24.6614 25.5522 24.658 24.4396C24.6478 21.2603 24.6469 18.081 24.6571 14.9017C24.6605 13.7704 25.5559 12.9071 26.6985 12.885C26.91 12.8799 27.1206 12.8833 27.3577 12.8833ZM26.0189 18.3303C26.0189 18.5016 26.0189 18.6407 26.0189 18.7789C26.0189 20.5869 26.0181 22.3941 26.0189 24.2021C26.0189 24.8687 26.2432 25.0951 26.9074 25.0951C30.4146 25.096 33.9227 25.096 37.4299 25.0951C38.066 25.0951 38.2963 24.8628 38.2971 24.2242C38.2988 22.3882 38.298 20.5522 38.2971 18.7162C38.2971 18.5932 38.286 18.4702 38.2801 18.3303C34.1939 18.3303 30.1375 18.3303 26.0189 18.3303ZM28.7467 14.258C28.7467 14.5006 28.7544 14.6981 28.745 14.8949C28.7246 15.3189 28.4372 15.6039 28.0501 15.5954C27.6774 15.5869 27.4063 15.3138 27.385 14.9085C27.3739 14.6905 27.3833 14.4709 27.3833 14.2419C27.1027 14.2419 26.8895 14.2292 26.6781 14.2444C26.3029 14.2724 26.0479 14.4844 26.0317 14.8525C26.001 15.5386 26.0232 16.2272 26.0232 16.9293C30.1298 16.9293 34.1956 16.9293 38.2946 16.9293C38.2946 16.2314 38.3099 15.5564 38.2886 14.8822C38.2766 14.5099 38.0404 14.2868 37.6678 14.247C37.4342 14.2224 37.1963 14.2427 36.9456 14.2427C36.8978 14.8075 37.1042 15.5403 36.2932 15.5716C35.3808 15.6072 35.6264 14.7923 35.5471 14.2572C33.2712 14.258 31.0329 14.258 28.7467 14.258Z" fill="black"/>
<path d="M30.7686 19.6711C31.1404 19.6592 31.4585 19.9484 31.4755 20.313C31.4934 20.6972 31.1856 21.0178 30.7933 21.0237C30.4318 21.0288 30.1316 20.7574 30.1129 20.4072C30.0907 20.0111 30.3832 19.6829 30.7686 19.6711Z" fill="black"/>
<path d="M34.2024 20.3309C34.2135 20.6955 33.9193 21.0067 33.5467 21.0237C33.1792 21.0407 32.8602 20.7515 32.8398 20.3843C32.8185 20.0001 33.128 19.6728 33.5143 19.6702C33.8844 19.6685 34.1913 19.9637 34.2024 20.3309Z" fill="black"/>
<path d="M36.2541 19.6711C36.6258 19.6702 36.926 19.9679 36.932 20.341C36.9371 20.7091 36.642 21.011 36.2651 21.0237C35.8857 21.0356 35.5753 20.7489 35.5693 20.38C35.5634 19.9849 35.8652 19.6719 36.2541 19.6711Z" fill="black"/>
<path d="M28.7468 23.0768C28.7374 23.4465 28.4313 23.7408 28.0604 23.7374C27.6732 23.734 27.3628 23.4075 27.3833 23.0242C27.4021 22.6587 27.7227 22.3704 28.0919 22.3857C28.4671 22.4009 28.7562 22.7062 28.7468 23.0768Z" fill="black"/>
<path d="M30.8121 23.7374C30.4454 23.7459 30.1308 23.4542 30.1137 23.0878C30.0967 22.7232 30.3874 22.4035 30.755 22.3839C31.1404 22.3636 31.4712 22.6723 31.4746 23.0539C31.4772 23.4245 31.183 23.7289 30.8121 23.7374Z" fill="black"/>
<path d="M33.5057 22.3848C33.8784 22.378 34.1913 22.6681 34.2032 23.0336C34.216 23.4211 33.9073 23.7374 33.5177 23.7374C33.1501 23.7374 32.8491 23.4381 32.8432 23.0658C32.8355 22.6986 33.1348 22.3916 33.5057 22.3848Z" fill="black"/>
</svg>
