<svg width="42" height="42" viewBox="0 0 42 42" fill="none" xmlns="http://www.w3.org/2000/svg">
<path d="M7.78273 18.6817C6.91176 17.8728 6.2352 17.0017 5.9008 15.9283C5.66751 15.1739 5.49642 14.365 5.46532 13.5794C5.4031 11.8294 5.44199 10.0793 5.44199 8.32928C5.44199 8.18927 5.44199 8.04927 5.44199 7.89371C4.62545 7.7226 3.93333 7.37259 3.37342 6.78147C2.70464 6.07367 2.35469 5.23365 2.33914 4.26141C2.33136 3.84918 2.33136 3.42917 2.33914 3.01694C2.34691 2.58915 2.58799 2.34026 3.02348 2.34026C7.01285 2.34026 11.0022 2.31692 14.9994 2.35581C17.2157 2.37915 19.121 4.33919 19.1365 6.55591C19.1598 8.95151 19.1754 11.3549 19.1287 13.7505C19.0899 15.7183 18.2733 17.3517 16.8191 18.6662C16.6947 18.7751 16.5625 18.884 16.3758 19.0473C17.9389 19.4362 19.4398 19.8173 21.0107 20.2062C21.0107 20.0273 21.0107 19.8951 21.0107 19.7629C21.0107 17.9895 21.0029 16.2083 21.0107 14.435C21.0184 10.7171 23.5692 7.36481 27.1153 6.38479C30.7858 5.37366 34.5963 6.8748 36.5716 10.1104C37.3959 11.4638 37.8003 12.926 37.808 14.4972C37.808 18.3473 37.808 22.1974 37.808 26.0475C37.808 26.2186 37.808 26.3819 37.808 26.6075C38.1969 26.6075 38.5701 26.6075 38.9356 26.6075C39.4411 26.6152 39.6666 26.833 39.6666 27.3464C39.6666 28.9253 39.6666 30.512 39.6666 32.0909C39.6666 32.6043 39.4411 32.822 38.9356 32.8298C38.5779 32.8376 38.2124 32.8298 37.8003 32.8298C37.8003 33.0943 37.8003 33.3354 37.8003 33.5765C37.8003 34.5643 37.808 35.5443 37.8003 36.5321C37.7925 38.2977 36.4316 39.6666 34.6741 39.6666C25.3578 39.6666 16.0414 39.6666 6.72512 39.6666C4.95984 39.6666 3.59116 38.2977 3.59116 36.5321C3.58339 32.3943 3.58339 28.2642 3.59116 24.1263C3.59116 21.6996 5.10759 19.5918 7.40946 18.8062C7.50278 18.7828 7.61165 18.744 7.78273 18.6817ZM8.58372 38.4222C8.60705 38.3366 8.6226 38.2899 8.63038 38.2433C9.07364 35.7699 11.1033 34.0743 13.5996 34.0743C15.116 34.0743 16.6325 34.0743 18.1489 34.0743C18.2578 34.0743 18.3744 34.0587 18.5066 34.051C18.5066 33.8954 18.5066 33.771 18.5066 33.6465C18.5066 31.142 18.5066 28.6453 18.5066 26.1408C18.5066 25.5341 18.8021 25.293 19.3931 25.4019C19.9142 25.4952 20.4352 25.573 20.9796 25.6663C20.9796 24.2663 20.9796 22.8974 20.9796 21.5129C20.9251 21.4974 20.8785 21.474 20.8318 21.4662C18.8643 20.9762 16.8891 20.4784 14.9216 19.9962C14.7816 19.9651 14.6106 19.9884 14.4706 20.0273C12.8531 20.5562 11.2589 20.5018 9.68799 19.864C9.52468 19.8018 9.33804 19.7706 9.15918 19.7706C6.78733 19.7706 4.85097 21.6918 4.81986 24.0563C4.80431 25.0519 4.81986 26.0552 4.81986 27.0508C4.81986 30.2009 4.81986 33.3509 4.81986 36.501C4.81986 37.5355 5.54308 38.3677 6.52293 38.4222C7.19949 38.4533 7.87605 38.4222 8.58372 38.4222ZM36.1127 26.5841C35.4284 25.2697 34.3941 24.4841 32.9866 24.2041C32.831 24.173 32.6288 24.2352 32.4811 24.3207C30.6536 25.3008 28.8261 25.3008 26.9831 24.3519C26.7731 24.243 26.4854 24.1963 26.2598 24.243C24.2457 24.7019 22.8693 26.4441 22.8693 28.5131C22.8693 30.4964 22.8693 32.4798 22.8693 34.4632C22.8693 35.1243 22.6748 35.3188 22.0138 35.3188C19.5487 35.3188 17.0913 35.3188 14.6261 35.3188C14.4784 35.3188 14.3228 35.3188 14.1828 35.3188C14.1828 36.3843 14.1828 37.4033 14.1828 38.4144C14.2528 38.4222 14.2917 38.43 14.3306 38.43C21.1195 38.43 27.9085 38.43 34.6974 38.43C35.7317 38.43 36.5405 37.6055 36.5482 36.571C36.556 35.731 36.5482 34.8832 36.5482 34.0432C36.5482 33.6465 36.5482 33.2498 36.5482 32.8298C36.346 32.8298 36.1905 32.8298 36.035 32.8298C34.8374 32.822 34.0597 32.0443 34.0597 30.8542C34.0597 30.1542 34.0597 29.4542 34.0597 28.7542C34.0675 27.393 34.6896 26.7086 36.1127 26.5841ZM36.556 24.9663C36.556 24.733 36.556 24.6319 36.556 24.5308C36.556 21.1473 36.5638 17.7639 36.5482 14.3883C36.5482 13.8283 36.4549 13.2527 36.3149 12.7005C35.4284 9.1693 32.1 6.95258 28.3906 7.38815C25 7.7926 22.2705 10.8804 22.2471 14.3805C22.2238 18.0828 22.2394 21.7929 22.2471 25.4952C22.2471 25.5886 22.2627 25.6741 22.286 25.8452C23.0481 24.5074 24.1135 23.6363 25.5133 23.1463C24.8601 22.3685 24.3624 21.5129 24.2379 20.5407C24.1057 19.5684 24.1213 18.5884 24.0669 17.585C23.8958 17.5773 23.7091 17.5695 23.5225 17.5617C23.5225 17.1417 23.5225 16.745 23.5225 16.3483C24.8056 16.3095 26.0265 16.115 27.1853 15.6406C28.935 14.9328 30.3736 13.8516 31.1435 12.0705C31.4079 11.4638 31.509 10.7949 31.6801 10.1415C32.0223 10.1415 32.4111 10.1415 32.8155 10.1415C32.8077 10.9582 32.6366 11.7127 32.3411 12.436C32.2711 12.5994 32.1934 12.8016 32.24 12.9494C32.4033 13.4627 32.5511 13.9994 32.8388 14.4427C33.3987 15.2983 34.2775 15.6639 35.2884 15.7261C35.2884 17.1573 35.3118 18.5651 35.2729 19.9806C35.2651 20.4007 35.1562 20.8362 34.9929 21.2251C34.7052 21.894 34.3397 22.5318 34.0053 23.1852C34.9463 23.5041 35.7939 24.0796 36.556 24.9663ZM6.69401 7.94816C6.69401 8.09594 6.69401 8.20483 6.69401 8.3215C6.69401 10.056 6.67068 11.7982 6.70179 13.5327C6.7329 15.695 7.69719 17.3595 9.57134 18.4095C11.461 19.4673 13.3974 19.4051 15.256 18.2773C17.1457 17.1261 18.1256 14.9483 17.8534 12.9027C15.2793 12.2416 14.0817 10.5693 14.144 7.94816C11.6477 7.94816 9.20584 7.94816 6.69401 7.94816ZM31.268 14.2327C30.4825 15.1505 29.596 15.8272 28.585 16.3561C27.5741 16.885 26.4931 17.235 25.3578 17.4373C25.3578 18.1606 25.35 18.8606 25.3578 19.5606C25.3966 21.7774 27.1775 23.6207 29.4405 23.7841C31.6179 23.9474 33.6787 22.3451 33.982 20.1751C34.1064 19.3117 34.0209 18.4173 34.0753 17.5384C34.1064 17.0328 34.0131 16.7217 33.4609 16.5039C32.4344 16.115 31.7501 15.2983 31.268 14.2327ZM17.8923 11.5805C17.8923 9.98598 17.8923 8.41484 17.8923 6.85147C17.8923 4.90698 16.5625 3.58473 14.6261 3.58473C11.0878 3.58473 7.55721 3.58473 4.01888 3.58473C3.8789 3.58473 3.7467 3.58473 3.61449 3.58473C3.35009 5.66144 4.85097 6.75813 6.41406 6.71924C9.15918 6.64146 11.9043 6.69591 14.6494 6.70369C15.186 6.70369 15.4038 6.92147 15.4038 7.45815C15.4038 7.87038 15.396 8.29039 15.4115 8.70262C15.4426 10.0793 16.508 11.3471 17.8923 11.5805ZM19.7742 26.7241C19.7742 29.1975 19.7742 31.6165 19.7742 34.0432C20.3963 34.0432 20.9951 34.0432 21.6872 34.0432C21.6872 31.7098 21.6872 29.392 21.6872 27.0353C21.104 26.9497 20.4585 26.8408 19.7742 26.7241ZM38.3913 31.5854C38.3913 30.3175 38.3913 29.0964 38.3913 27.8519C37.5514 27.8519 36.7349 27.8442 35.9261 27.8597C35.5606 27.8675 35.3195 28.1086 35.3118 28.482C35.2962 29.3064 35.2962 30.1387 35.3118 30.9631C35.3195 31.3287 35.5606 31.5776 35.9261 31.5776C36.7426 31.5931 37.5514 31.5854 38.3913 31.5854ZM9.89018 38.43C10.4112 38.43 10.9011 38.43 11.3988 38.43C11.8965 38.43 12.3942 38.43 12.9153 38.43C12.9153 37.8855 12.9153 37.3877 12.9153 36.8977C12.9153 36.3999 12.9153 35.9021 12.9153 35.3965C11.4144 35.591 10.0224 36.9833 9.89018 38.43Z" fill="#171716" stroke="#171716" stroke-width="0.2"/>
</svg>
