<svg width="42" height="42" viewBox="0 0 42 42" fill="none" xmlns="http://www.w3.org/2000/svg">
<path d="M9.82132 19.6507C7.51859 19.1078 7.23177 18.9457 5.937 17.4628C6.01895 17.3736 6.10909 17.2764 6.19923 17.1872C8.93629 14.4887 11.6651 11.7821 14.4104 9.09172C14.5907 8.91344 14.8529 8.77568 15.1069 8.71896C18.811 7.87618 22.5232 7.04961 26.2272 6.21494C26.4403 6.16632 26.6534 6.04477 26.8091 5.8908C27.9236 4.81302 29.0135 3.71903 30.1197 2.63315C30.2263 2.5278 30.3328 2.43056 30.4393 2.33331C30.6852 2.57642 30.9146 2.80332 31.1441 3.03022C30.0542 4.0918 28.9479 5.16958 27.8498 6.23925C30.4475 8.8081 32.9715 11.2959 35.5201 13.808C36.6346 12.7059 37.7737 11.5714 38.9127 10.445C39.175 10.7124 39.4126 10.9556 39.6666 11.2149C38.8308 12.0414 38.0195 12.9328 37.1017 13.7189C36.1101 14.5698 35.5447 15.5665 35.2906 16.8469C35.012 18.2569 34.5449 19.6345 34.1106 21.0121C33.9959 21.3687 33.7582 21.709 33.496 21.9846C32.4798 23.0299 31.4309 24.0348 30.4148 25.0639C30.3082 25.1774 30.2181 25.3962 30.2509 25.5421C30.6524 27.3978 31.0785 29.2535 31.5129 31.1011C31.5538 31.2713 31.6931 31.4334 31.8243 31.563C32.5044 32.2437 33.201 32.9082 33.8893 33.5889C33.6271 33.8483 33.3977 34.0752 33.1272 34.3345C32.5208 33.7186 31.9062 33.0946 31.2916 32.4787C29.7428 34.0103 28.2513 35.4933 26.7271 36.9925C27.3499 37.5921 27.9645 38.1918 28.5873 38.7834C28.3005 39.0589 28.0711 39.2777 27.8416 39.4965C27.8088 39.5532 27.7842 39.6099 27.7515 39.6666C27.6531 39.5046 27.5794 39.3263 27.4483 39.1966C26.9648 38.7023 26.4321 38.2485 25.9814 37.7218C25.4569 37.1059 24.8259 36.7575 24.0392 36.6521C23.9983 36.644 23.9573 36.6359 23.9163 36.6278C22.6379 36.3361 21.3923 35.9957 20.5974 34.6667C20.3188 34.9747 20.1221 35.2097 19.9091 35.4285C19.2945 36.0443 18.6717 36.6521 18.0571 37.2599C16.4509 38.8482 14.0744 38.2485 13.4106 36.093C13.3942 36.0443 13.3778 35.9957 13.3369 35.8904C13.1156 36.1011 12.9189 36.2793 12.7305 36.4657C11.1898 37.9811 8.80517 37.3814 8.15778 35.3069C8.1332 35.234 8.10042 35.161 8.01028 34.9422C7.8218 35.1772 7.69888 35.3717 7.53498 35.5338C6.45327 36.5792 4.85529 36.5306 3.76539 35.4447C2.71646 34.3912 2.70007 32.8272 3.73261 31.7737C4.01943 31.482 4.31444 31.2065 4.64223 30.8823C4.49472 30.8256 4.38819 30.7851 4.28166 30.7527C2.29033 30.1287 1.67573 27.7543 3.14259 26.2957C5.24864 24.1969 7.37109 22.1142 9.48533 20.0235C9.58367 19.9019 9.6902 19.7885 9.82132 19.6507ZM17.1392 13.8891C16.7541 14.278 16.4099 14.6427 16.0493 14.9993C12.0339 18.97 8.01847 22.9408 3.99484 26.9116C3.67525 27.2276 3.42121 27.5599 3.38843 28.0218C3.34746 28.7025 3.74081 29.3589 4.38 29.6587C4.98641 29.9423 5.67477 29.8289 6.18284 29.3264C7.71527 27.8192 9.23949 26.3119 10.7637 24.8046C10.8621 24.7074 10.9768 24.6101 11.0341 24.5534C11.2964 24.8046 11.5258 25.0234 11.8454 25.3314C11.7225 25.4124 11.5832 25.4772 11.4767 25.5826C9.18213 27.8435 6.88759 30.0963 4.61764 32.3815C4.34722 32.6489 4.12596 33.046 4.0604 33.4188C3.92928 34.0995 4.35541 34.7559 4.9946 35.0638C5.6338 35.3717 6.33035 35.2502 6.8712 34.7153C9.08379 32.5355 11.2964 30.3394 13.509 28.1595C13.5663 28.1028 13.6073 28.038 13.6565 27.9812C13.3041 27.4626 13.2303 26.9197 13.3778 26.3443C13.5254 25.7609 13.9597 25.4043 14.4923 25.0883C13.9761 24.6101 13.7302 24.0591 13.8368 23.3946C13.9433 22.722 14.3858 22.2763 14.9758 21.9603C14.2629 20.8176 14.3039 19.9668 15.1069 19.2618C15.8936 18.5648 16.6885 18.6459 17.8768 19.5616C17.9177 19.5049 17.9587 19.4562 17.9915 19.3995C18.729 18.2488 20.032 18.0867 21.0072 19.043C21.3923 19.4238 21.7775 19.8047 22.1626 20.1856C22.9329 20.9473 23.6951 21.7171 24.5227 22.5437C24.703 21.547 25.3258 20.9392 26.0633 20.3152C27.3253 21.5794 28.5791 22.8273 29.8493 24.0996C30.8982 23.0623 31.9226 22.0575 32.9387 21.0364C33.0453 20.9311 33.1108 20.7609 33.1518 20.607C33.6681 18.735 34.1762 16.8631 34.6678 14.983C34.7088 14.821 34.6187 14.5455 34.4958 14.4239C32.1357 12.0657 29.751 9.72381 27.3827 7.35755C27.1614 7.13875 26.9648 7.12255 26.6943 7.18738C22.9985 8.02205 19.3027 8.84051 15.615 9.67518C15.3692 9.73191 15.1069 9.86967 14.9267 10.048C12.5092 12.4142 10.1081 14.7967 7.70707 17.1791C7.60873 17.2764 7.52679 17.3736 7.42845 17.4709C7.49401 17.5438 7.53498 17.6005 7.57595 17.6491C8.78878 18.8404 10.6326 18.8404 11.87 17.6248C13.5172 16.0122 15.1561 14.3834 16.7951 12.7546C17.131 12.4223 17.4588 12.4304 17.7129 12.8275C18.5324 14.0835 19.7124 14.8453 21.1383 15.2343C22.4986 15.607 23.8508 15.7205 25.1291 14.9344C25.3914 14.7724 25.67 14.8372 25.8421 15.1127C25.9978 15.372 25.9486 15.6475 25.7028 15.7853C25.2766 16.0203 24.8341 16.2715 24.367 16.3688C21.9905 16.8631 19.8845 16.2472 18.0161 14.7643C17.7293 14.5211 17.4752 14.2213 17.1392 13.8891ZM21.4251 24.6993C21.3022 24.5291 21.2366 24.3994 21.1383 24.3103C19.7616 22.9408 18.3766 21.5713 16.9917 20.218C16.8524 20.0802 16.6803 19.9425 16.4919 19.8857C16.1231 19.7804 15.8199 19.9425 15.6232 20.2666C15.4265 20.5989 15.4921 20.9149 15.7625 21.1823C16.6803 22.0899 17.5981 22.9975 18.516 23.9051C19.1224 24.5048 19.737 25.0883 20.327 25.6636C20.0566 25.9553 19.8353 26.2065 19.5567 26.5064C19.4584 26.3767 19.3846 26.2552 19.2863 26.1579C18.2865 25.1612 17.2786 24.1725 16.2706 23.1758C15.9264 22.8354 15.5822 22.7949 15.2463 23.0218C14.7873 23.3379 14.73 23.816 15.1397 24.2293C15.9264 25.0234 16.7131 25.8014 17.5162 26.5793C17.844 26.8954 18.1964 27.1871 18.516 27.4707C18.2128 27.7949 17.9833 28.0218 17.7457 28.273C17.6391 28.1757 17.5408 28.0866 17.4424 27.9974C16.8688 27.4383 16.3034 26.8629 15.7297 26.3119C15.2872 25.8824 14.7136 25.9715 14.4432 26.5064C14.2465 26.8954 14.4104 27.1952 14.6972 27.4788C16.9508 29.6992 19.2207 31.9034 21.4415 34.1643C22.1217 34.8612 22.8592 35.3393 23.818 35.5257C24.4572 35.6473 25.0882 35.8417 25.7192 36.0119C25.965 36.0767 26.1453 36.0362 26.3338 35.8417C27.6449 34.5209 28.9725 33.2162 30.3 31.9196C30.4721 31.7494 30.5295 31.6036 30.4721 31.3523C30.0542 29.5939 29.6199 27.8354 29.2839 26.0688C29.1036 25.1045 28.7102 24.3427 27.9563 23.7106C27.3745 23.2244 26.8664 22.6491 26.3256 22.1142C26.2354 22.0251 26.1289 21.9359 26.0306 21.8468C25.4078 22.4384 25.4078 23.3541 26.0224 23.9943C26.4895 24.4805 26.9893 24.9505 27.4646 25.4286C27.8334 25.7933 27.8088 25.85 27.4728 26.2147C27.1532 26.555 26.9484 26.401 26.7025 26.1579C24.6211 24.0915 22.5314 22.0332 20.4499 19.9668C19.8599 19.3833 19.4666 19.3023 19.065 19.7075C18.6635 20.1126 18.7372 20.4611 19.36 21.0689C20.0156 21.7171 20.6712 22.3654 21.335 23.0137C21.6136 23.2892 21.9004 23.5486 22.2036 23.8241C21.9414 24.1239 21.7201 24.3589 21.4251 24.6993ZM14.4022 28.7754C12.7878 30.3637 11.1325 31.9763 9.50992 33.6133C9.29685 33.8239 9.17393 34.1805 9.13296 34.4803C9.04282 35.1853 9.46894 35.8336 10.1327 36.1335C10.7473 36.409 11.3947 36.2874 11.9274 35.7688C13.4516 34.2615 14.9758 32.7543 16.5 31.247C16.5738 31.1741 16.6394 31.0849 16.6885 31.0282C15.9346 30.2746 15.1807 29.5371 14.4022 28.7754ZM17.5736 31.8629C16.6148 32.7624 15.5904 33.6376 14.6808 34.6181C14.1236 35.2178 14.3284 36.1011 15.0168 36.7088C15.6232 37.2437 16.5001 37.2599 17.0983 36.7169C17.4752 36.3847 17.8194 36.0119 18.1718 35.6635C18.7208 35.1205 19.2699 34.5857 19.8025 34.0589C19.0158 33.2891 18.2619 32.5436 17.5736 31.8629Z" fill="#171716" stroke="#171716" stroke-width="0.2"/>
</svg>
