<svg width="42" height="42" viewBox="0 0 42 42" fill="none" xmlns="http://www.w3.org/2000/svg">
<path d="M8.81434 5.41892C8.70258 3.76007 9.14622 2.35017 10.3544 1.24258C11.2416 0.428822 12.2991 0.014744 13.5064 0.000348649C14.4335 -0.0106595 15.2877 0.239142 16.0717 0.731123C16.8574 1.2248 17.4424 1.89799 17.8429 2.73123C18.2433 3.56446 18.3331 4.45613 18.2823 5.3969C18.4516 5.40453 18.5879 5.41553 18.7242 5.41553C21.1795 5.41723 23.6339 5.41723 26.0891 5.41807C26.918 5.41807 27.0932 5.59759 27.0932 6.44268C27.0932 12.6801 27.0932 18.9175 27.0932 25.1549C27.0932 25.3353 27.0932 25.5148 27.0932 25.718C30.7245 25.718 34.3151 25.718 37.9073 25.718C37.8777 24.9153 37.335 24.392 36.5112 24.3886C34.9737 24.3818 33.4354 24.3894 31.8979 24.3869C30.5153 24.3852 29.4359 23.4978 29.1692 22.1429C29.137 21.9786 29.1218 21.8059 29.1328 21.6391C29.1573 21.2699 29.4427 20.9972 29.7957 21.0031C30.1733 21.0099 30.4027 21.2199 30.4713 21.5815C30.6914 22.739 31.0326 23.0312 32.1942 23.0312C33.5632 23.0312 34.9314 23.0329 36.3004 23.0312C38.0521 23.0286 39.0952 23.9491 39.3085 25.7087C39.4787 25.7392 39.6565 25.7655 39.8326 25.8036C41.2075 26.1016 42.1236 27.3447 41.9864 28.7224C41.8493 30.0976 40.6987 31.1544 39.2958 31.1578C35.4157 31.1654 31.5355 31.1603 27.6554 31.1612C27.4878 31.1612 27.3201 31.1612 27.0941 31.1612C27.0941 31.3331 27.0941 31.4821 27.0941 31.6311C27.0941 34.7642 27.0958 37.8965 27.0949 41.0296C27.0949 41.8078 26.9011 42 26.1196 42C17.71 42 9.30116 42 0.891509 41.9992C0.226052 42 0 41.7773 0 41.1151C0 29.515 0 17.9158 0.000846637 6.31567C0.000846637 5.63316 0.220972 5.41977 0.921141 5.41977C3.29173 5.41892 5.66146 5.41977 8.03205 5.41977C8.2708 5.41892 8.5087 5.41892 8.81434 5.41892ZM4.09518 9.49449C4.09518 18.9954 4.09518 28.4548 4.09518 37.9151C10.4136 37.9151 16.7008 37.9151 23.0031 37.9151C23.0031 35.6601 23.0031 33.4263 23.0031 31.1612C22.1472 31.1612 21.3175 31.1722 20.4878 31.1535C20.2736 31.1485 20.0365 31.0909 19.8528 30.9842C18.8047 30.3762 17.7658 29.7496 16.7296 29.1204C16.0819 28.7275 16.0844 28.172 16.7312 27.7808C17.6117 27.2473 18.5083 26.7409 19.3736 26.1855C19.8799 25.8603 20.3904 25.6935 20.9991 25.7324C21.6671 25.7756 22.3402 25.7426 23.0065 25.7426C23.0065 20.2952 23.0065 14.9097 23.0065 9.51228C22.104 9.51228 21.2252 9.51228 20.3201 9.51228C20.3201 10.1736 20.3261 10.8062 20.3184 11.4396C20.3125 11.9197 20.0628 12.1796 19.5963 12.1915C19.1729 12.2025 18.7496 12.2034 18.3263 12.1915C17.8954 12.1796 17.6109 11.8994 17.6117 11.5158C17.6126 11.1322 17.9005 10.857 18.328 10.84C18.5329 10.8316 18.7378 10.8383 18.9444 10.8383C18.9444 9.45893 18.9444 8.13795 18.9444 6.80087C15.3343 6.80087 11.7462 6.80087 8.16243 6.80087C8.16243 8.15827 8.16243 9.48941 8.16243 10.8383C9.81761 10.8383 11.4398 10.8383 13.0611 10.8383C13.8933 10.8383 14.7273 10.8146 15.5578 10.8561C15.7703 10.8671 16.0489 11.0407 16.1547 11.2228C16.2504 11.3862 16.2368 11.7436 16.1174 11.8723C15.9515 12.0501 15.6425 12.1788 15.3936 12.1813C12.8401 12.2025 10.2858 12.194 7.73234 12.194C6.97629 12.194 6.77479 11.995 6.77394 11.2516C6.7731 10.6664 6.77394 10.0805 6.77394 9.49534C5.84434 9.49449 4.98585 9.49449 4.09518 9.49449ZM24.384 31.1823C24.384 31.3221 24.384 31.4321 24.384 31.5422C24.384 33.8141 24.384 36.0861 24.3848 38.358C24.3848 39.0744 24.1698 39.2911 23.4569 39.2911C16.8819 39.2903 10.3078 39.2903 3.73282 39.2903C2.87941 39.2903 2.70839 39.1133 2.70839 38.242C2.70924 30.4101 2.70839 22.5782 2.70839 14.7463C2.70839 12.8274 2.70839 10.9078 2.71009 8.98896C2.71093 8.35811 2.94291 8.13032 3.58212 8.12948C4.49903 8.12778 5.41594 8.12948 6.33369 8.12778C6.47 8.12778 6.60631 8.11593 6.74347 8.10915C6.74347 7.65104 6.74347 7.22257 6.74347 6.7941C4.94098 6.7941 3.16896 6.7941 1.37917 6.7941C1.37917 18.08 1.37917 29.3457 1.37917 40.6147C9.50689 40.6147 17.6101 40.6147 25.7183 40.6147C25.7183 37.457 25.7183 34.3298 25.7183 31.1815C25.2806 31.1823 24.8632 31.1823 24.384 31.1823ZM33.178 27.0966C33.0129 27.0966 32.8885 27.0966 32.7649 27.0966C28.8712 27.0966 24.9775 27.1008 21.0847 27.0898C20.6884 27.089 20.3489 27.1677 20.0145 27.3854C19.4557 27.7486 18.8749 28.078 18.2543 28.4506C18.9435 28.8655 19.5505 29.25 20.1771 29.598C20.3862 29.714 20.6461 29.797 20.884 29.7978C24.8336 29.8097 28.784 29.8063 32.7335 29.8063C32.8809 29.8063 33.0282 29.8063 33.1789 29.8063C33.178 28.8757 33.178 28.0171 33.178 27.0966ZM20.3371 8.12863C21.392 8.12863 22.4054 8.12863 23.4188 8.12863C24.191 8.12863 24.3832 8.32339 24.3832 9.10667C24.3832 14.5075 24.3832 19.9082 24.384 25.309C24.384 25.4445 24.3959 25.5809 24.4026 25.7079C24.8674 25.7079 25.295 25.7079 25.7031 25.7079C25.7031 19.379 25.7031 13.084 25.7031 6.79749C23.8963 6.79749 22.1252 6.79749 20.3371 6.79749C20.3371 7.24035 20.3371 7.65782 20.3371 8.12863ZM16.9141 5.39775C17.0453 3.88794 16.6093 2.65586 15.3013 1.85904C14.094 1.12403 12.8477 1.15621 11.6734 1.93356C10.4467 2.74562 10.047 3.95229 10.1825 5.39775C12.4252 5.39775 14.6477 5.39775 16.9141 5.39775ZM37.269 29.8038C38.0022 29.8038 38.6922 29.8241 39.3805 29.7978C40.0544 29.7724 40.5971 29.2034 40.6369 28.5378C40.6784 27.8511 40.1907 27.1804 39.5092 27.1254C38.7718 27.0661 38.0267 27.1118 37.269 27.1118C37.269 28.0171 37.269 28.8859 37.269 29.8038ZM35.8644 29.7911C35.8644 28.8689 35.8644 27.9916 35.8644 27.1195C35.4131 27.1195 34.9966 27.1195 34.569 27.1195C34.569 28.0204 34.569 28.8977 34.569 29.7911C35.011 29.7911 35.4284 29.7911 35.8644 29.7911Z" fill="#171716"/>
<path d="M13.5344 14.9029C15.9456 14.9029 18.3577 14.9029 20.7689 14.9029C21.4555 14.9029 21.6748 15.1205 21.6757 15.814C21.6765 18.3815 21.6757 20.9481 21.674 23.5155C21.6731 24.154 21.4454 24.386 20.8138 24.386C15.9769 24.3877 11.1393 24.3886 6.30243 24.3877C5.64205 24.3877 5.41938 24.1591 5.41938 23.4961C5.41938 20.9286 5.41854 18.362 5.41938 15.7946C5.41938 15.1248 5.63782 14.9037 6.29989 14.9029C8.71111 14.9021 11.1232 14.9029 13.5344 14.9029ZM20.3092 19.6932C20.2482 19.6779 20.1839 19.6474 20.1204 19.6474C18.3712 19.6449 16.6221 19.639 14.8729 19.6559C14.7493 19.6567 14.5783 19.7982 14.5131 19.9193C14.1745 20.5526 13.8587 21.1987 13.5446 21.844C13.4057 22.1294 13.2203 22.3453 12.88 22.3495C12.5201 22.3538 12.3288 22.1285 12.184 21.8271C11.947 21.3317 11.6938 20.8439 11.4466 20.3528C11.2553 19.9709 11.0631 19.5899 10.8345 19.1343C10.5712 19.661 10.3502 20.0988 10.1343 20.5383C9.99122 20.8295 9.77533 21.0141 9.43837 20.9921C9.10141 20.971 8.91007 20.7601 8.80847 20.4519C8.67132 20.0378 8.54347 19.6195 8.38515 19.213C8.34536 19.1106 8.20905 18.9836 8.11084 18.9776C7.67906 18.9522 7.24473 18.9666 6.7994 18.9666C6.7994 20.3418 6.7994 21.6721 6.7994 22.9999C11.3171 22.9999 15.8076 22.9999 20.3083 22.9999C20.3092 21.8855 20.3092 20.8008 20.3092 19.6932ZM20.3016 16.2874C15.7738 16.2874 11.2849 16.2874 6.80787 16.2874C6.80787 16.7455 6.80787 17.174 6.80787 17.6126C7.44877 17.6126 8.05496 17.6219 8.66031 17.6092C9.10564 17.5999 9.38334 17.7862 9.49425 18.2214C9.51541 18.3061 9.56198 18.384 9.62124 18.5212C9.8202 18.1249 9.99884 17.7913 10.1563 17.4475C10.2935 17.1486 10.5051 16.9665 10.8362 16.9665C11.1672 16.9674 11.3814 17.1494 11.516 17.4483C11.643 17.7303 11.7903 18.0038 11.9292 18.2807C12.2289 18.8786 12.5286 19.4764 12.8664 20.1504C13.1077 19.6737 13.3261 19.2842 13.5039 18.8777C13.6919 18.4475 13.9857 18.2765 14.4598 18.2816C16.264 18.301 18.069 18.29 19.874 18.29C20.0103 18.29 20.1466 18.29 20.3007 18.29C20.3016 17.6008 20.3016 16.9572 20.3016 16.2874Z" fill="#171716"/>
<path d="M10.8836 25.7418C12.1662 25.7418 13.4481 25.7401 14.7307 25.7426C15.2675 25.7435 15.5731 25.9882 15.5773 26.4124C15.5816 26.8375 15.2734 27.0958 14.7443 27.0958C12.1519 27.0983 9.5586 27.0983 6.9662 27.0975C6.40573 27.0975 6.08824 26.84 6.09755 26.4048C6.10686 25.9839 6.41673 25.7418 6.95265 25.7409C8.26325 25.7401 9.57384 25.7409 10.8836 25.7409V25.7418Z" fill="#171716"/>
<path d="M10.8523 32.516C9.55606 32.516 8.25902 32.5169 6.96281 32.516C6.40573 32.516 6.08824 32.2595 6.09755 31.8208C6.10686 31.3983 6.41081 31.162 6.9535 31.1612C9.54675 31.1603 12.14 31.1603 14.7333 31.1603C15.2649 31.1603 15.5731 31.4084 15.5773 31.8344C15.5816 32.262 15.2768 32.5143 14.7426 32.5152C13.4455 32.5177 12.1493 32.516 10.8523 32.516Z" fill="#171716"/>
<path d="M8.13315 29.8063C7.69706 29.8063 7.26096 29.8139 6.82487 29.8037C6.38962 29.7944 6.10764 29.5285 6.09833 29.1441C6.08901 28.7453 6.38369 28.4582 6.83672 28.454C7.69536 28.4455 8.55316 28.4455 9.4118 28.4531C9.86991 28.4574 10.1637 28.7376 10.1604 29.1348C10.1561 29.5311 9.85974 29.7961 9.39994 29.8063C9.18909 29.8114 8.97824 29.8063 8.76655 29.8063C8.55485 29.8063 8.344 29.8063 8.13315 29.8063Z" fill="#171716"/>
<path d="M13.5466 29.8054C13.1105 29.8054 12.6744 29.8139 12.2383 29.8037C11.8064 29.7936 11.5219 29.5218 11.5168 29.139C11.5117 28.7546 11.7937 28.4616 12.2188 28.4557C13.1054 28.4438 13.992 28.4438 14.8777 28.4557C15.3011 28.4607 15.5848 28.7571 15.578 29.1399C15.5712 29.5243 15.2892 29.7927 14.8548 29.8029C14.4188 29.8139 13.9827 29.8054 13.5466 29.8054Z" fill="#171716"/>
<path d="M7.46667 35.2257C7.10255 35.2342 6.79094 34.9404 6.77569 34.5737C6.76045 34.2079 7.04836 33.8912 7.41502 33.8726C7.79607 33.8531 8.12632 34.163 8.12886 34.5432C8.13055 34.9065 7.82994 35.2164 7.46667 35.2257Z" fill="#171716"/>
<path d="M10.8532 33.8726C11.2199 33.8819 11.5179 34.1893 11.5154 34.5542C11.512 34.9344 11.1801 35.2469 10.8016 35.2257C10.4383 35.2054 10.1487 34.8862 10.1622 34.5221C10.1749 34.1545 10.4857 33.8624 10.8532 33.8726Z" fill="#171716"/>
<path d="M14.901 34.5559C14.8968 34.92 14.5911 35.224 14.2261 35.2257C13.8451 35.2274 13.5318 34.9014 13.547 34.5195C13.5623 34.1528 13.8739 33.8615 14.2405 33.8726C14.608 33.8836 14.9053 34.1918 14.901 34.5559Z" fill="#171716"/>
</svg>
