<svg xmlns="http://www.w3.org/2000/svg" width="48" height="54" fill="none" xmlns:v="https://vecta.io/nano"><path d="M13.435 25.675v7.985H1.358v-7.973l1.135.883 4.2 3.38c.68.553.75.553 1.45-.012l5.3-4.264zM38.9 3.7v5.488h-7.63V3.7h7.63zM12.7 24.84l-5.3 4.275-5.3-4.275h10.6z" fill="#ec7e3b"/><path d="M47.992 22.19c-.023-4.994-3.862-9.27-8.73-9.728-1.662-.153-3.37-.14-5.02-.14h-2.773v-1.755h7.712c.854 0 1.088-.235 1.088-1.095V3.463c0-.907-.246-1.154-1.16-1.154h-7.69c0-.094 0-.188.012-.283.012-.412.023-.8-.035-1.178-.035-.236-.246-.4-.42-.542-.07-.047-.13-.106-.187-.153L30.59 0l-.164.177c-.047.047-.094.106-.152.153-.14.13-.28.27-.386.448-.094.153-.07.318-.06.46 0 .047.012.082.012.13V12.33h-5.488l-11.726.012c-3.253.012-5.98 2.096-6.8 5.194-.222.836-.257 1.73-.293 2.603-.012.2-.012.4-.023.59-.035.683-.023 1.343-.012 2.05a13.76 13.76 0 0 0 .012.695H1.123c-.9 0-1.123.224-1.123 1.12v9.186c0 1.107.164 1.284 1.252 1.284h4.26v1.98c0 1.2.176 1.366 1.37 1.366h17.437V52.87c0 .872.257 1.13 1.123 1.13h7.08c.82 0 1.088-.26 1.088-1.036V38.418h13.2c.96 0 1.17-.224 1.17-1.2v-4.275l.012-10.765zM25.874 38.913v-.47h6.132V41.2h-6.132c0-.035-.012-.082-.012-.118l.012-2.18zM25.9 52.35v-9.434h6.11v9.434H25.9zM1.592 26.158l.75.59 3.838 3.086.363.294c.76.613.96.613 1.744-.012l4.915-3.97V33.4H1.592v-7.243zm1.182-1.084h9.268l-4.634 3.733-4.634-3.733zm16.887 8.88h25.746a7.16 7.16 0 0 0 .878-.071c.047 0 .082-.012.13-.012v2.92H19.66v-2.838zm8.17-1.602h-4.166v-9.775c0-.047 0-.094.012-.14.012-.165.035-.34-.058-.506-.105-.177-.257-.318-.4-.46-.058-.047-.105-.106-.164-.153l-.175-.177-.164.177c-.047.06-.105.106-.164.165-.152.14-.293.295-.386.483-.082.177-.07.39-.058.565 0 .06.012.13.012.177v9.587h-2.48v-3.898l.012-8.126c.023-2.71-.82-4.735-2.633-6.325h12.85v1.93c0 .047 0 .106-.012.165-.012.165-.035.365.058.53.094.188.246.318.386.46.047.047.105.094.152.153l.164.177.164-.165c.047-.047.117-.094.187-.153.187-.14.398-.306.42-.542.06-.495.047-.99.047-1.472v-1c.61-.012 1.23-.047 1.826-.07 2.294-.106 4.47-.2 6.624.26 3.874.813 6.366 3.816 6.53 7.832.094 2.485.07 5.006.047 7.455l-.023 2.99c-.035 0-.06-.012-.094-.012-.257-.035-.527-.082-.796-.082-4.892 0-9.854-.012-14.722-.012-1.006-.035-2-.035-2.984-.035zm-20.7 2.71h6.53c.96 0 1.182-.236 1.194-1.2v-9.245c0-.92-.28-1.2-1.194-1.2H7.115c-.012-.035-.012-.06-.012-.082v-1.225c0-.966-.012-1.967.035-2.944.13-2.85 2.434-5.147 5.243-5.24 2.832-.094 5.22 2.014 5.547 4.888.058.495.082.99.082 1.437V36.78H7.14v-1.72zm24.353-26.1V3.945h7.162v5.017h-7.162z" fill="#171716"/></svg>