<svg width="50" height="50" viewBox="0 0 50 50" fill="none" xmlns="http://www.w3.org/2000/svg">
<rect width="50" height="50" rx="25" fill="white"/>
<path d="M39.7338 15.2299C39.3958 15.0843 38.981 15.0077 38.4586 15.0077C31.7213 15 24.8611 15 18.2391 15H16.3031H16.2571C16.0957 15 15.9114 15 15.727 15.0383C15.3966 15.1073 15.1278 15.3218 15.0202 15.6207C14.9127 15.9195 14.9664 16.2644 15.1815 16.5326C15.2661 16.6398 15.3659 16.7241 15.4504 16.8084L15.4965 16.8544C18.8767 19.9579 22.2568 23.069 25.637 26.1724C26.313 26.7931 26.6203 26.8161 27.3655 26.2797C31.2527 23.4674 35.1399 20.6628 39.0271 17.8582C38.9656 18.2797 38.9118 18.6782 38.8504 19.0766C38.5047 21.5594 38.1513 24.0345 37.8056 26.5172L37.0067 32.2261C36.8914 33.046 36.8069 33.1226 35.9619 33.1226C29.0325 33.1226 22.0955 33.1226 15.1662 33.1226H14.0753H13.9831C13.8679 33.1226 13.745 33.1226 13.6144 33.1303C13.1304 33.1762 12.8154 33.4981 12.7847 33.9808C12.7463 34.4943 13.0305 34.8697 13.5299 34.9617C13.7219 35 13.9217 35 14.0984 35C16.9561 35 19.8139 35 22.6717 35H26.7048C28.2105 35 29.7239 35 31.2296 35C32.8429 35 34.4562 35 36.0694 35C37.3293 35 38.351 34.318 38.7275 33.2146C38.8504 32.8697 38.8965 32.5096 38.9349 32.1724C38.9426 32.0958 38.9579 32.0192 38.9656 31.9502C39.2114 30.2184 39.4496 28.4943 39.6877 26.7625C39.7953 26.0192 39.8952 25.2682 40.0027 24.5249C40.1026 23.8199 40.2024 23.1149 40.3023 22.41C40.5251 20.8084 40.7632 19.1456 40.9783 17.5134C41.1089 16.4943 40.6403 15.6207 39.7338 15.2299ZM37.1296 16.9157L35.2321 18.2874C32.4511 20.295 29.5703 22.3716 26.7432 24.4176C26.6664 24.4713 26.6203 24.4943 26.605 24.5019C26.5896 24.4943 26.5512 24.4713 26.4974 24.4176C24.3694 22.4406 22.1877 20.4406 20.0828 18.5096C19.5066 17.9808 18.9305 17.4521 18.3543 16.9234H37.1296V16.9157Z" fill="#171716"/>
<path d="M16.2495 26.1415C16.4415 26.1415 16.6336 26.1415 16.8333 26.1415C17.2942 26.1415 17.7705 26.1415 18.2315 26.1338C18.8076 26.1262 19.2148 25.766 19.2302 25.2296C19.2532 24.6702 18.8614 24.2794 18.2545 24.2488C18.1854 24.2488 18.1162 24.2488 18.0471 24.2488C18.0164 24.2488 17.9933 24.2488 17.9703 24.2488H9.86556C7.97574 24.2488 6.08592 24.2488 4.18842 24.2488C4.03478 24.2488 3.8504 24.2488 3.67371 24.3024C3.21278 24.4327 2.95927 24.8158 3.00536 25.2833C3.05145 25.743 3.36642 26.0649 3.83504 26.1262C3.93491 26.1415 4.02709 26.1338 4.1116 26.1338C4.13464 26.1338 4.16537 26.1338 4.18842 26.1338C8.02183 26.1338 11.8629 26.1338 15.6963 26.1338L16.2495 26.1415Z" fill="#171716"/>
<path d="M15.1653 30.218C16.9476 30.218 18.7222 30.218 20.5044 30.218C20.5275 30.218 20.5505 30.218 20.5736 30.218C20.6735 30.218 20.7887 30.218 20.9116 30.2027C21.3572 30.1261 21.6491 29.7966 21.6721 29.3521C21.7029 28.8694 21.4186 28.4939 20.9577 28.3943C20.7656 28.356 20.5813 28.356 20.4199 28.356H20.3431C18.1844 28.356 16.018 28.356 13.8593 28.356H12.8146C12.538 28.356 12.2615 28.356 11.9772 28.356C11.2397 28.356 10.4869 28.356 9.73401 28.356C9.27308 28.356 9.01957 28.5475 8.88897 28.7008C8.71996 28.9 8.6585 29.1682 8.71228 29.4517C8.76605 29.7429 8.96579 30.218 9.73401 30.218C11.1168 30.218 12.4919 30.218 13.8747 30.218H15.1653Z" fill="#EC7E3B"/>
<path d="M8.33736 22.0652C9.37445 22.0652 10.4192 22.0652 11.4486 22.0652C12.5088 22.0652 13.5689 22.0652 14.606 22.0652C14.9364 22.0652 15.2129 21.958 15.405 21.7664C15.574 21.5978 15.6662 21.3679 15.6585 21.1074C15.6508 20.548 15.236 20.1802 14.5907 20.1802C13.7994 20.1802 13.0081 20.1802 12.2092 20.1802H11.441H10.4884C9.76624 20.1802 9.04412 20.1802 8.32967 20.1802C7.99166 20.1802 7.7151 20.2875 7.52304 20.479C7.35404 20.6476 7.26953 20.8698 7.26953 21.1227C7.27721 21.6898 7.70742 22.0652 8.33736 22.0652Z" fill="#EC7E3B"/>
</svg>
