<svg xmlns="http://www.w3.org/2000/svg" width="58" height="60" fill="none" xmlns:v="https://vecta.io/nano"><path d="M10.243 35.586V29.3c0-.788.1-.838 1.127-.838.82 0 .922.1.922.838v12.5c0 .85-.064.902-1.127.902-.845 0-.922-.076-.922-.902v-6.213zm38.933-.064v-6.15c0-.8.1-.9.87-.9 1.178-.013 1.178-.013 1.178 1.156v12.184c0 .85-.05.9-1.127.9-.833 0-.922-.076-.922-.902v-6.3zM30.644 57.96c-1.153-.025-2.267-.23-3.24-.864-1.114-.724-1.1-1.6-.013-2.35 1.7-1.143 4.828-1.143 6.52 0 1.1.737 1.114 1.613 0 2.35-.986.648-2.113.84-3.266.864z" fill="#ec7e3b"/><path d="M14.392 44.733c-1.37 0-2.613.038-3.842-.013-1.255-.05-2.267-1.105-2.344-2.363-.013-.203 0-.42 0-.673H6.63c-1.422-.038-2.5-1.105-2.523-2.516V32c.013-1.4 1.114-2.465 2.536-2.503h1.524c-.026-1.054.166-2.1 1.165-2.566.87-.394 1.895-.457 2.933-.686v-.8c-4.124-.318-7.505-2.058-9.925-5.438C.6 17.593-.145 14.874.022 11.927.343 6.06 5.004 1.08 10.845.14c5.558-.902 13.32 2.554 14.677 10.66 1.32-.178 2.638-.495 3.97-.52 6.02-.127 11.5 1.372 15.868 5.742 2.24 2.25 3.317 5.082 3.688 8.195.1.724.115 1.46.166 2.046 1.025.216 2.05.28 2.92.66.973.445 1.204 1.46 1.153 2.58h1.473c1.537.025 2.613 1.093 2.626 2.617v6.988c-.013 1.512-1.1 2.58-2.638 2.592H53.35c-.166 2.87-1.87 3.367-4.687 2.922-.115.368-.256.737-.37 1.118L45.13 55.913c-.27.864-.5 1.03-1.422 1.03-2.177 0-4.354.013-6.532-.013-.397 0-.602.114-.794.457-.576 1.054-1.562 1.664-2.664 2.058-2.126.762-4.265.75-6.365-.102a5.95 5.95 0 0 1-1.524-.902c-1.767-1.448-1.742-3.62.026-5.07 1.1-.9 2.382-1.32 3.765-1.448 2.216-.216 4.303.14 6.045 1.64.256.216.525.47.653.775.205.495.538.597 1.037.584h5.443c.384 0 .55-.102.666-.483l3.573-11.574c.077-.24.102-.495.102-.75V26.553c0-3.24-.768-6.25-2.907-8.792-1.755-2.096-4.034-3.418-6.596-4.294-3.804-1.296-7.66-1.626-11.578-.597-.128.038-.243.063-.397.114v7.37c.948-.267 1.883-.584 2.856-.788C36.573 17.94 44.1 25.042 42.8 33.11c-.78 4.942-3.65 8.207-8.4 9.884-.256.1-.512.356-.615.6a186.55 186.55 0 0 0-2.062 5.26c-.205.52-.46.978-1.114.966-.615-.013-.858-.432-1.05-.94l-2.126-5.374c-.1-.23-.333-.495-.576-.572-7.274-2.655-10.348-10.3-6.903-17.15.038-.076.064-.153.128-.28h-5.7l-.013 19.222zm9.17-21.344V12.883c.013-6.606-5.622-11.55-12.244-10.723-5.046.635-9.093 5.018-9.272 10.05-.218 6.187 4.65 11.18 10.886 11.167h4.93l5.7.013zm7.07 22.576c.487-1.258.973-2.35 1.345-3.494.256-.8.743-1.18 1.537-1.398 5.584-1.55 8.722-7.508 6.813-12.895-1.972-5.552-8.107-8.283-13.524-6.022-1.2.495-1.2.495-1.2 1.78v.445c-.038.635-.4 1.016-1.05 1.042-.423.013-.858.05-1.28 0-.55-.064-.832.178-1.114.622-3.586 5.603-.794 13.1 5.622 15.004.756.23 1.2.597 1.447 1.334.397 1.156.897 2.3 1.396 3.583zm-20.4-10.38v6.212c0 .813.077.902.922.902 1.05 0 1.127-.05 1.127-.902V29.3c0-.75-.103-.838-.922-.838-1.037 0-1.114.05-1.127.838v6.276zm38.933-.064v6.276c0 .826.1.902.922.902 1.076 0 1.127-.038 1.127-.9V29.627c0-1.17 0-1.17-1.178-1.156-.78 0-.87.102-.87.9v6.162zm-18.53 22.44c1.165-.025 2.292-.216 3.28-.864 1.1-.724 1.1-1.6 0-2.35-1.7-1.143-4.828-1.143-6.52 0-1.1.737-1.1 1.613.013 2.35.96.635 2.075.826 3.227.864zm-24.5-22.436v2.858c0 1.3 0 1.3 1.306 1.283.064 0 .154.025.192 0 .192-.178.525-.368.525-.572l.026-6.975c0-.394-.218-.572-.602-.584h-.448c-.935 0-1 .063-1 .953v3.036zm47.13 0l-.013 3.354c-.013.584.23.813.807.775.218-.013.423 0 .64 0 .384 0 .602-.2.602-.572v-6.975c0-.38-.218-.584-.602-.584-.218 0-.423.013-.64 0-.615-.05-.832.24-.82.838.05 1.055.026 2.1.026 3.163zm-45.54-8.73l-1.217 1.283-3.048-3 1.294-1.27 2.97 2.998zm-1.23 16.364l1.294 1.207-3.06 3.024-1.217-1.283 2.984-2.948zm47.22 1.242l1.242-1.296L58 46.13l-1.332 1.22-2.946-2.96zm2.997-20.617l1.217 1.27-3 2.973-1.2-1.283 2.984-2.96zm-48.5-9.54v2.02h4.034v1.995c-.128.013-.27.05-.397.05H7.373c-.845 0-1.23-.368-1.23-1.18V13.38c0-.788.384-1.156 1.178-1.17h2.87v-2.02h-4V8.194c.115-.013.256-.05.397-.05h4.482c.87 0 1.23.38 1.23 1.245V13c0 .864-.37 1.232-1.242 1.232H8.22zm6.12-6.072h2.024v5.006h2.062V8.182h2.023V18.27h-1.972v-3h-2.574c-1.306 0-1.55-.254-1.55-1.563L14.34 8.17zm21.5 22.385v1.957H25.637v-1.957H35.83zm-10.206 6.01V34.62h6.096v1.944h-6.096zM27.647 26.5v1.93H25.65V26.5h1.998zm2.113-.026h1.96v1.982h-1.96v-1.982zm4.06 1.97V26.5h1.998v1.944H33.82zm2.024 6.174v1.944H33.86v-1.944h1.985z" fill="#171716"/></svg>