<svg xmlns="http://www.w3.org/2000/svg" width="54" height="54" fill="none" xmlns:v="https://vecta.io/nano"><path d="M44.637 7.83h-4.54V3.267l4.54 4.563zm3.875 33.157l-1.208 4.846c-.033.12-.163.207-.25.316-.098-.087-.25-.163-.272-.283l-1.23-4.9 2.96.01zm-29.344-6.97a6.12 6.12 0 0 1-6.062 6.065c-3.396 0-6.14-2.733-6.128-6.1 0-3.354 2.743-6.087 6.084-6.087a6.11 6.11 0 0 1 6.106 6.13zM12.19 29.64v3.496H8.74v1.73h3.472v3.452h1.73v-3.485h3.45v-1.73H13.9V29.64H12.2z" fill="#ec7e3b"/><path d="M5.215.01L38.945 0c.457 0 .762.142 1.078.457l7.543 7.546a1.1 1.1 0 0 1 .348.86l-.01 4.3c1.665.6 2.6 1.73 2.612 3.506v2.635c.958-.24 1.785-.13 2.514.468.588.48.947 1.1.958 1.884l.01 9.68h-1.742v-9.43c-.022-.6-.36-.97-.87-.97s-.86.37-.87.98l-.01 6.97-.022 10.236c-.01.75-.12 1.514-.283 2.254l-1.23 4.9c-.12.414-.337.882-.653 1.143-.36.305-.435.6-.425 1.013l.01 5.575H5.248v-8.733l-.48-.153c-1.818-.6-3.015-2.232-3.015-4.16V24.84c0-.38-.087-.6-.446-.795-.838-.468-1.273-1.22-1.295-2.2a32.96 32.96 0 0 1 0-1.797c.022-1.48 1.154-2.592 2.645-2.613h2.558V.01zM7 52.236h39.16l.01-4.062c0-.294-.12-.457-.316-.675-.316-.35-.6-.773-.75-1.2-.305-.97-.48-1.97-.762-2.95-.62-2.102-.925-4.236-.795-6.436.065-1.143.01-2.287.01-3.43V16.76c0-1.514.653-2.68 2.024-3.332.48-.23.62-.457.6-.958l-.01-2.45c0-.142-.022-.272-.044-.446h-7.804V1.786H7v15.637h16.402c1.622 0 2.732 1.122 2.732 2.744V21.8c-.022 1-.457 1.753-1.317 2.232-.348.196-.435.392-.435.75l.01 16.007c0 2.635-1.883 4.508-4.528 4.508H7l-.022 6.936zm15.662-27.8H3.495v16.3c0 1.72 1.088 2.82 2.808 2.82H19.68c1.96 0 2.96-1.024 2.96-2.995V30.566l.01-6.12zm-19.167-5.27h-.62c-.816 0-1.1.294-1.1 1.1v1.198c0 .893.283 1.176 1.165 1.176h20.277c.925 0 1.186-.272 1.186-1.2V20.1c-.01-.48-.24-.806-.708-.893-.326-.054-.664-.01-1.045-.01v1.688h-1.752v-1.677h-1.73v1.666h-1.752v-1.666h-1.73v1.677h-1.752v-1.688h-1.73v1.677H10.43v-1.666H8.676v1.677h-1.73v-1.677H5.193v1.666h-1.73l.022-1.688zM48.73 39.2V23.564h-3.418V39.2h3.418zm.044-17.423v-5.085c0-1.056-.73-1.85-1.7-1.862-.925-.01-1.73.773-1.763 1.786l-.01 3.038v2.123h3.483zM44.637 7.83l-4.55-4.563V7.83h4.55zm3.875 33.158h-2.97l1.23 4.9c.033.1.185.185.272.283.087-.1.218-.196.25-.316l1.22-4.857zm-6.726-20.026v1.677H27.898v-1.677h13.888zm-13.888 5.14v-1.666h13.888v1.666H27.898zm13.877 1.818v1.677H27.908V27.92h13.866zm-.01 5.173H27.898v-1.677h13.866v1.677zm-13.866 3.473V34.9h13.866v1.677H27.898zm13.887 1.808v1.677H27.92v-1.677h13.866zm.001 3.496v1.666H27.898V41.87h13.888zM8.742 5.205V3.528h11.254v1.677H8.742zm0 1.797h11.254V8.7H8.742V7.002zm7.793 3.495v1.677H8.742v-1.677h7.793zm1.785 1.666v-1.677h1.677v1.677H18.32zM5.237 33.975c.01-4.345 3.548-7.84 7.934-7.83 4.234.01 7.76 3.582 7.74 7.85-.01 4.323-3.548 7.83-7.88 7.83-4.277 0-7.804-3.56-7.793-7.85zm13.932.043c0-3.397-2.72-6.13-6.095-6.13a6.1 6.1 0 0 0-6.084 6.087 6.11 6.11 0 0 0 6.128 6.109c3.298 0 6.052-2.755 6.052-6.065zm-6.977-4.378h1.73v3.463h3.483v1.73h-3.45v3.485h-1.73v-3.452H8.752v-1.73h3.45l-.01-3.495z" fill="#171716"/></svg>