<svg xmlns="http://www.w3.org/2000/svg" width="52" height="52" fill="none" xmlns:v="https://vecta.io/nano"><path d="M3.477 23.195h6.803v1.675H8.627v1.728h1.642v1.728H6.9v1.707h3.37v1.728H8.627v1.728h1.652v2.544H3.477V23.195zm3.348 26.59H2.8c-.687 0-1.073-.3-1.073-.848-.01-.537.386-.87 1.052-.87h8.198c.665 0 1.062.333 1.052.88-.01.515-.397.838-1.03.838H6.825zm-.762-39.48h1.642v3.38H6.063v-3.38zm16.29 2.394c-.708-1.202-.494-2.855.57-3.95s2.736-1.33 4.002-.623l-4.57 4.573zm5.998-3.166c.74 1.234.547 2.898-.494 3.982-1.052 1.095-2.8 1.342-4.078.633l4.57-4.615zm11.213 3.208c-.75-1.17-.547-2.877.515-3.982 1.073-1.116 2.8-1.363 4.078-.6l-4.593 4.583zm1.363 1.397l4.56-4.605c.762 1.116.6 2.823-.408 3.94-1.02 1.116-2.77 1.395-4.153.665zm-13.94 8.63l-4.593 4.594c-.762-1.213-.547-2.94.547-4.036 1.084-1.095 2.8-1.32 4.045-.558zm-3.22 5.968l4.56-4.615c.773 1.148.6 2.866-.44 3.97-1.04 1.116-2.8 1.374-4.12.644zm20.377-5.968l-4.582 4.594c-.762-1.224-.537-2.952.547-4.036 1.094-1.095 2.8-1.32 4.035-.558zm1.375 1.364c.74 1.3.526 2.962-.537 4.025a3.46 3.46 0 0 1-4.035.59l4.57-4.615z" fill="#ec7e3b"/><g fill="#171716"><path d="M4.27 46.348v-5.152H2.543a2.54 2.54 0 0 1-2.457-1.953 2.48 2.48 0 0 1 1.213-2.834c.343-.182.43-.386.43-.74V16.734c0-1.846.74-2.737 2.565-3.06V8.587H6V0h1.706v8.544h1.738v5.12c1.846.322 2.586 1.213 2.586 3.06l-.01 18.934c0 .354.075.558.418.74 1.02.537 1.502 1.728 1.213 2.834-.3 1.127-1.245 1.9-2.404 1.943h-1.78v5.152H11c1.588.01 2.747 1.116 2.736 2.597-.01 1.46-1.17 2.544-2.736 2.555H2.683C1.138 51.48-.01 50.352 0 48.88c.01-1.45 1.16-2.544 2.683-2.555l1.588.02zm-.794-23.153V36h6.803v-2.544H8.627V31.74h1.642V30H6.9v-1.707h3.37v-1.728H8.627v-1.728h1.653v-1.674l-6.803.02zm6.792-5.174l.043-.225v-1.342c-.01-.698-.322-1-1.02-1H4.518c-.773 0-1.062.3-1.073 1.073v4.508c0 .14.02.268.032.408h6.792V19.73H8.617v-1.685l1.652-.02zm-3.4 19.74H2.8c-.676 0-1.073.3-1.073.848-.01.537.386.87 1.052.87h8.198c.665 0 1.062-.333 1.052-.87s-.397-.837-1.084-.848H6.878zm-.054 12.022H11c.633 0 1.02-.322 1.03-.837.01-.537-.386-.87-1.052-.88H2.78c-.665 0-1.062.333-1.052.87s.397.848 1.073.848h4.024zm.87-3.456V41.24H6.04v5.088h1.652zm-1.63-36.022v3.38h1.642v-3.38H6.063zM52 26.6v23.657c0 .998-.247 1.245-1.223 1.245H17.083c-.88 0-1.148-.268-1.148-1.15V2.813c0-.837.3-1.116 1.137-1.116l13.413.02c.354 0 .773.16 1.062.376.73.515 1.406 1.106 2.082 1.685.258.225.43.204.687 0l2.178-1.74c.236-.182.58-.322.87-.322l13.68-.01c.676 0 .955.343.955 1.127V26.6zm-34.327 6h11.793c.762 0 .955.15 1.17.902.418 1.503 1.738 2.522 3.273 2.533 1.567.01 2.908-.998 3.348-2.512.225-.794.397-.923 1.202-.923h11.78V3.446c-.075-.01-.107-.032-.14-.032-4.1 0-8.23-.01-12.34 0-.193 0-.408.107-.57.236L34.626 5.7c-.515.408-.826.408-1.34 0l-2.468-1.975a1.39 1.39 0 0 0-.805-.29L18.2 3.414c-.172 0-.343.01-.537.02l-.01 29.174zM50.23 49.762V34.348H38.834c-.923 2.104-2.468 3.36-4.786 3.403-2.414.043-4.024-1.224-4.98-3.38H17.662v15.392H50.23zm-19.702-38.6a5.16 5.16 0 0 1-5.161 5.141 5.17 5.17 0 0 1-5.14-5.174c.01-2.844 2.318-5.14 5.16-5.13 2.833 0 5.14 2.318 5.14 5.163zm-8.177 1.546l4.57-4.573c-1.277-.708-2.94-.472-4.002.623-1.062 1.084-1.277 2.748-.57 3.95zm6-3.168l-4.56 4.616c1.288.72 3.026.472 4.078-.633 1.03-1.084 1.223-2.748.483-3.982zm9.035 1.622a5.16 5.16 0 0 1 5.14-5.163c2.844-.01 5.16 2.297 5.16 5.14.01 2.844-2.307 5.163-5.14 5.163a5.17 5.17 0 0 1-5.161-5.141zm2.178 1.6l4.582-4.583c-1.266-.762-3.004-.515-4.078.6-1.062 1.106-1.255 2.823-.504 3.982zm1.363 1.395c1.374.73 3.133.45 4.153-.676 1-1.116 1.18-2.812.408-3.94l-4.56 4.615z"/><path d="M30.518 25.76a5.16 5.16 0 0 1-5.172 5.131c-2.833-.01-5.13-2.33-5.13-5.174.01-2.844 2.318-5.13 5.172-5.13 2.844.01 5.14 2.33 5.13 5.174zm-3.53-2.995c-1.245-.762-2.95-.537-4.045.558s-1.3 2.823-.547 4.036l4.593-4.594zm-3.22 5.968c1.32.73 3.08.472 4.12-.644 1.03-1.106 1.212-2.823.44-3.97l-4.56 4.616zm18.725 2.16c-2.833-.02-5.118-2.35-5.097-5.206.01-2.855 2.36-5.13 5.258-5.098 2.8.032 5.065 2.36 5.043 5.195s-2.36 5.13-5.204 5.1zm1.652-8.125c-1.223-.762-2.95-.537-4.035.547-1.095 1.095-1.3 2.812-.547 4.036l4.582-4.583zm1.374 1.363l-4.57 4.615c1.298.698 2.983.472 4.035-.6 1.062-1.063 1.277-2.726.536-4.025zM34.778 12h-1.642V8.598h1.642V12zm-1.63 3.457h1.63v3.392h-1.63v-3.392zm1.63 10.26h-1.653v-3.37h1.653v3.37zm0 6.87h-1.653v-3.392h1.653v3.392z"/></g></svg>