<svg xmlns="http://www.w3.org/2000/svg" width="54" height="54" fill="none" xmlns:v="https://vecta.io/nano"><path d="M12.63 52.165v-10.73h3.554v10.73H12.63zm5.42-10.73h3.532v10.74H18.05v-10.74zM10.852 5.393h3.52v5.348h-3.52V5.393zm17.908 5.37h-3.5v-5.36h3.5v5.36zm14.42-5.36v5.337h-3.532V5.405h3.532zM14.384 21.562h-3.532v-5.348h3.532v5.348zm10.843-.012v-5.337h3.532v5.337h-3.532zm17.953-5.325v5.337h-3.532v-5.337h3.532zm-1.8 14.367c3.97-.01 7.22 3.22 7.22 7.16a7.21 7.21 0 0 1-7.199 7.24c-3.948.01-7.188-3.23-7.2-7.195 0-3.952 3.217-7.195 7.176-7.206zm2.722 4.504v-1.588c0-.8-.315-1.115-1.125-1.115H39.77c-.742 0-1.057.327-1.07 1.058-.01.54 0 1.07 0 1.644-.62 0-1.158-.01-1.698 0-.664.01-1 .35-1 1.013v3.322c0 .732.337 1.058 1.057 1.07h1.575c.034.1.056.113.056.124v1.52c.01.732.338 1.058 1.07 1.058h3.262c.73 0 1.057-.338 1.07-1.07.01-.54 0-1.07 0-1.576.1-.034.113-.045.124-.045l1.52-.01c.697-.01 1.046-.338 1.057-1.025v-3.378c-.01-.664-.337-1.002-1-1.013l-1.7.01z" fill="#ec7e3b"/><path d="M3.608 35.996H1.055c-.697 0-1.046-.338-1.046-1.025V26.2c0-.664.337-1 1.012-1.002h2.553V1.802H1.842V0h50.325v1.745h-1.732v23.442H52.9c.776 0 1.1.327 1.1 1.092v26.56c0 .9-.304 1.16-1.26 1.16H4.778c-.877 0-1.17-.293-1.17-1.182v-16.82zM5.453 1.802v23.352H48.58V1.802H5.453zm17.975 32.393l2.306-.01c.686-.045 1.057.248 1.35.844l8.324 16.698c.17.35.35.495.754.484h16.006V27h-28.75l.01 7.183zM33.607 52.2l-.1-.282-7.75-15.538c-.17-.338-.383-.383-.7-.383l-19.122.01c-.157 0-.326.023-.484.034v16.146h5.332V41.4h-1.72v-1.745h16.13v1.768H23.45V52.2h10.157zm-20.978-.034h3.554v-10.73H12.63v10.73zm5.422-10.73v10.742h3.532V41.435H18.05zM5.374 34.172v-7.138H1.842v7.138h3.532zm1.856-.01h3.532v-7.14H7.23v7.14zm8.954.01v-7.15h-3.532v7.15h3.532zm5.4-7.138H18.03v7.127h3.555v-7.127zm-5.378-16.247h1.777v1.745H7.24v-1.734h1.743l.022-.597V4.684c0-.8.315-1.115 1.125-1.115h5.006c.73 0 1.07.327 1.07 1.07v6.148zm-5.354-5.393v5.348h3.52v-5.35h-3.52zm10.788 7.15v-1.745h1.777V4.673c0-.777.326-1.103 1.08-1.103H29.5c.8 0 1.102.315 1.114 1.137v6.058h1.755v1.8l-10.73-.01zm7.12-1.78v-5.36h-3.5v5.36h3.5zm7.265 1.78v-1.745h1.777V4.774c0-.912.293-1.193 1.215-1.193H43.9c.776 0 1.1.315 1.1 1.092v6.1h1.755v1.78h-10.72zm7.154-7.138h-3.532v5.337h3.532V5.404zM16.206 21.573h1.766v1.78H7.24V21.62h1.766v-6.102c0-.8.315-1.126 1.114-1.126h4.994c.765 0 1.08.315 1.08 1.103l.01 6.08zm-1.822-.01v-5.348h-3.532v5.348h3.532zm16.22.02h1.766v1.78H21.64v-1.756h1.766v-6.035c0-.9.293-1.194 1.17-1.194h4.893c.844 0 1.136.315 1.136 1.16v6.046zm-5.377-.034h3.532v-5.337h-3.532v5.337zm19.775.046h1.766v1.745h-10.73v-1.745h1.755v-6.17c0-.7.326-1.036 1.024-1.036h5.107c.73 0 1.057.327 1.057 1.07l.023 6.136zm-1.822-5.37h-3.532v5.337h3.532v-5.337zm7.22 21.55c.023 4.9-4.004 9.008-8.875 9.04-5.005.034-9.1-3.963-9.122-8.895-.023-5.033 3.97-9.1 8.954-9.12 4.972-.023 9.02 3.986 9.044 8.974zm-9.02-7.183c-3.96.01-7.176 3.243-7.176 7.217 0 3.963 3.25 7.206 7.2 7.195a7.21 7.21 0 0 0 7.199-7.24c0-3.952-3.262-7.172-7.22-7.172zm1.8 18.06v1.734h-6.23v-1.734h6.23zm1.833 1.71V48.65h1.755v1.712h-1.755zm-.91-15.268h1.687c.664.01 1 .338 1 1.013v3.378c0 .676-.36 1.013-1.057 1.025l-1.518.01c-.01 0-.034.01-.124.045v1.576c-.01.72-.337 1.058-1.07 1.07h-3.26c-.742 0-1.057-.327-1.07-1.058l-.01-1.52c0-.01-.01-.034-.056-.124H37.05c-.73-.01-1.057-.338-1.057-1.07v-3.32c.01-.664.337-1.002 1-1.013h1.7v-1.644c.01-.732.326-1.058 1.07-1.058h3.206c.8 0 1.125.315 1.125 1.115l.01 1.576zm.877 1.802h-1.6c-.742-.01-1.057-.327-1.068-1.058v-1.6h-1.8v1.62c-.01.698-.337 1.025-1.035 1.036h-1.63v1.8h1.597c.73.01 1.057.327 1.07 1.058v1.6h1.8v-1.62c.01-.698.337-1.025 1.035-1.036h1.642v-1.8z" fill="#171716"/></svg>