<svg xmlns="http://www.w3.org/2000/svg" width="47" height="54" fill="none" xmlns:v="https://vecta.io/nano"><path d="M34.915 30.77l4.832 3.356c3.897 3.2 6.13 7.4 6.944 12.35.352 2.137.413 4.286.134 6.435-.097.75-.534 1.16-1.117 1.063-.595-.097-.874-.604-.8-1.34.97-7.908-2.452-15.78-10.66-19.836-.05-.024-.1-.024-.243-.048l.57 1.558 1.396 3.658c.218.555.133 1.002-.303 1.413-.692.652-1.348 1.328-2.125 2.1l2.003 1.908c.68.664.704.845.328 1.7l-.5 1.17c.243.012.425.036.62.036h3.824c.8 0 1.165.338 1.165 1.123v5.433c0 .712-.376 1.147-.96 1.147s-.96-.435-.96-1.147v-4.636c-1.48 0-2.914-.012-4.346.024-.146 0-.328.254-.413.423l-2 4.455c-.28.64-.68.918-1.396.906C29.556 53.975 28.172 54 26.8 54c-1.105 0-1.42-.398-1.275-1.5l1.372-10.9c.012-.097 0-.193 0-.398-2.258 1.582-4.504 1.606-6.835-.036l.46 3.706 1.008 7.956c.085.676-.316 1.147-.995 1.16h-4.734c-.486 0-.8-.23-.995-.652L11.02 44.85c-.23-.507-.133-.93.267-1.304l2.173-2.113-2.052-1.956c-.522-.47-.607-.966-.34-1.618.668-1.654 1.275-3.344 1.93-5.107-.194.06-.316.073-.425.133C5.4 36.433 1.264 43.786 1.98 51.754a12.05 12.05 0 0 0 .109.954c.097.676-.22 1.183-.8 1.268-.546.085-1.008-.302-1.093-.954-.486-3.767-.073-7.425 1.3-10.962 1.797-4.6 5.002-7.968 9.25-10.407a6.02 6.02 0 0 0 .486-.3C9.7 29.36 8.4 27.234 7.516 24.88c-2.258-6.085-2.04-12.013 1.53-17.58C11.607 3.317 15.225.757 20.02.105c2.537-.35 4.94.18 7.175 1.45.28.157.63.266.96.3 2.525.193 4.6 1.352 6.337 3.1 3.326 3.332 5.038 7.425 5.487 12.05.34 3.393-.158 6.652-1.772 9.707-.838 1.618-1.98 2.982-3.3 4.08zm-9.663-20.343c-2.537 2.753-5.487 4.866-8.777 6.544-1.214.616-2.452 1.232-3.86 1.316-.57.036-.8.4-.8 1.014.012.555.3.88.85.893.62.012.96.314 1.105.905a13.54 13.54 0 0 0 4.334 7.232c3.314 2.946 7.575 2.9 10.84-.072 2.15-1.956 3.593-4.322 4.25-7.147.133-.555.413-.88 1.02-.918.692-.036.947-.338.935-1.002-.012-.604-.303-.918-.947-.93-1.13-.024-2.137-.398-3.07-1.002-1.566-1.014-2.804-2.366-3.885-3.85-.692-.966-1.323-1.968-2.003-2.982zm.34-7.52c-2.416-1.388-5.827-1.5-8.63-.133-5.584 2.74-8.437 7.413-8.97 13.45-.473 5.312 1.602 9.864 4.795 13.98.097.12.328.266.425.217 1.008-.374 2.003-.785 3.035-1.195-.28-.326-.534-.604-.8-.893-1.493-1.702-2.6-3.622-3.266-5.783a1.21 1.21 0 0 0-.643-.797c-1.2-.628-1.845-1.932-1.578-3.055a3.07 3.07 0 0 1 2.853-2.378c.316-.024.643-.085.935-.205.874-.362 1.76-.712 2.586-1.17 2.84-1.57 5.463-3.44 7.587-5.928.364-.423.57-.857.558-1.46-.036-1.606.182-3.187 1.105-4.648zm5.147 26.38c.583.205 1.093.422 1.615.555a.95.95 0 0 0 .704-.11 11.29 11.29 0 0 0 4.067-4.986c1.068-2.5 1.287-5.13.96-7.8-.413-3.368-1.493-6.495-3.545-9.236-1.335-1.775-2.974-3.187-5.196-3.743-2.027-.507-2.622-.145-2.865 1.92-.1.88-.243 1.908.097 2.668.97 2.197 2.307 4.2 4.03 5.904.97.954 2.027 1.8 3.484 1.883 1.48.072 2.622 1 2.95 2.403.267 1.123-.437 2.403-1.64 3.1-.23.133-.46.386-.534.64-.57 1.775-1.396 3.417-2.537 4.902l-1.6 1.92zM19.486 52.08L16.85 31.085c-.583.314-1.25.18-1.505.88l-2.2 5.928c-.073.205.012.555.17.712.63.688 1.3 1.316 1.955 1.98.62.628.63 1.075.012 1.702-.656.664-1.323 1.292-1.954 1.98-.134.133-.22.447-.158.604l3.07 6.882c.06.133.243.302.376.302.923.036 1.87.024 2.877.024zm8.012 0l2.695.012c.34.012.498-.097.63-.4l2.998-6.713c.146-.314.097-.507-.146-.736-.68-.652-1.347-1.328-2.015-2.004-.546-.555-.534-1.014.012-1.57.63-.652 1.275-1.304 1.93-1.92.328-.302.4-.568.23-1-.704-1.775-1.42-3.55-2.015-5.36-.3-.88-.886-1.075-1.7-1.23l-2.62 20.92zm.68-20.802c-3.642 1.473-5.45 1.594-9.348 0l.097.906c.182 1.45.45 2.898.534 4.358.073 1.195.62 2.1 1.445 2.873 1.517 1.437 3.666 1.437 5.184 0 .85-.797 1.372-1.714 1.457-2.934.12-1.702.4-3.405.63-5.204zM8.948 52.092c-.097 1.485-.303 1.883-.97 1.895-.68.012-.874-.35-1.02-1.908-.74-.084-1.87.242-1.87-1 .012-1.195 1.105-.88 1.882-.966.085-.785-.23-1.8 1.032-1.895.643-.036.838.398.96 1.895.753.1 1.918-.254 1.87 1.05-.06 1.135-1.13.82-1.882.918z" fill="#171716"/><path d="M19.486 52.08c-1.008 0-1.955.012-2.9-.012-.134 0-.316-.17-.376-.302l-3.07-6.882c-.073-.157.024-.47.158-.604l1.954-1.98c.62-.628.62-1.075-.012-1.702l-1.954-1.98c-.146-.157-.243-.52-.17-.712l2.2-5.928c.255-.7.935-.567 1.505-.88l2.66 20.983zm8.012 0l2.634-20.9c.813.157 1.408.35 1.7 1.232l2.015 5.36c.17.435.097.688-.23 1l-1.93 1.92c-.546.555-.546 1.014-.012 1.57l2.015 2.004c.243.23.3.422.146.736l-2.998 6.713a.59.59 0 0 1-.631.41L27.5 52.09z" fill="#ec7e3b"/><path d="M23.516 27.584c-1.42-.096-2.646-.6-3.678-1.545-.45-.423-.486-1.002-.134-1.4.376-.4.923-.46 1.396-.024.97.87 2.064 1.292 3.338.87.522-.17.983-.53 1.432-.857.56-.398 1.08-.4 1.457.024.352.4.303.966-.158 1.388-1.032.966-2.27 1.46-3.654 1.545zm-4.286-10.77c.898.012 1.675.24 2.33.797.498.423.558 1.014.182 1.437-.364.4-.9.4-1.408.024-.85-.664-1.263-.664-2.137.036-.485.386-1.044.362-1.408-.036-.352-.398-.303-1.002.146-1.4.656-.592 1.445-.833 2.294-.857zm8.5 0c.898.024 1.675.254 2.33.833.486.423.546 1.014.17 1.437-.364.398-.923.4-1.408.024-.874-.688-1.275-.688-2.15-.024-.498.386-1.044.362-1.408-.048s-.3-1.026.194-1.437c.668-.555 1.457-.773 2.27-.785zm-5.2-13.027c.486-.024.935.35.96.918.024.555-.4.942-1.056 1.002-3.023.266-5.645 1.34-7.66 3.67-1.008 1.17-1.615 2.535-1.942 4.032-.158.736-.643 1.1-1.202.954-.583-.157-.825-.652-.656-1.4.898-3.924 3.4-6.47 7.005-8.1 1.384-.628 2.865-.966 4.552-1.087zm6.872 2.897c.486.048.8.362.898.905.255 1.244.777 2.366 1.627 3.32a5.59 5.59 0 0 0 2.343 1.557c.728.254 1.02.737.826 1.292-.206.567-.753.76-1.457.495-3.023-1.1-4.565-3.417-5.232-6.423-.146-.616.328-1.147.995-1.147z" fill="#171716"/></svg>