<svg xmlns="http://www.w3.org/2000/svg" xmlns:xlink="http://www.w3.org/1999/xlink" width="332" height="372" fill="none" xmlns:v="https://vecta.io/nano"><style><![CDATA[.B{stroke:#57585a}.C{stroke-linecap:round}.D{stroke-width:2}.E{stroke-miterlimit:10}.F{stroke-linejoin:round}.G{fill:#dedfe4}]]></style><path d="M157.001 187.956c-4.729 1.039-12.063-3.675-15.968-6.542 3.783 14.162 11.493 41.51 21.829 70.363 0 0 4.034-34.167 4.464-69.968-.394.485-4.013 4.76-10.325 6.147z" fill="#ededed"/><path d="M167.361 166.217c5.442.011 7.832-2.274 10.677-12.693 2.092-7.663-.563-16.375-.735-26.661-.104-6.298-5.965-11.231-9.945-10.811s-23.649 3.572-26.44 5.249c-1.569.945-.673 5.354.688 7.872s1.989 12.912 1.989 12.912-3.35-6.298-8.165-3.779-4.292 12.596 3.142 14.59l-.208 26.452s11.934 10.078 18.633 8.609 10.364-6.194 10.364-6.194v-15.546z" fill="#f79e88"/><use xlink:href="#B" fill="#e5502f"/><path d="M165.427 150.995c2.153-.313 3.21-.625 3.808-2.544l-8.645 1.516c.631 1.132 2.512 1.365 4.837 1.028z" fill="#fff"/><path d="M150.645 162.876c1.405 1.491 7.911 7.968 14.911 8.496.666.051 1.268.026 1.806-.057v-5.098c-4.987-.241-13.535-3.108-18.057-6.219-1.175-.812-.064 1.387 1.34 2.878zm1.727 24.71c1.662.482 3.257.668 4.625.37 1.644-.359 3.103-.916 4.374-1.552-3.711-3.363-6.964-1.76-8.999 1.182zm-13.908-20.629l-.096 12.391s5.026 4.24 10.382 6.819c-.541-5.892-4.611-17.022-10.286-19.21zM166 144.179c-.039 1.15 2.949 1.15 2.949 1.15s1.92-2.493 1.626-2.605c-1.655-.636-4.514-.266-4.575 1.455zm-10.604 7.211c1.028.356 1.54-2.059.988-2.537s-2.375 2.055-.988 2.537zm11.933 3.37c-1.737 0-2.429 2.393-1.318 2.536 1.523.194 3.056-2.536 1.318-2.536zm-20.901-6.737c.871.022 2.963-1.94 2.412-8.338-.334-3.855-3.766-7.624-6.51-8.249.716 3.262 1.118 8.407 1.232 10.092.534 2.888 1.129 6.456 2.866 6.495zm-9.522-4.515c-1.225 1.465 2.214 4.832 2.884 4.516 1.193-.565-1.659-5.982-2.884-4.516zm35.005-26.094c-1.529-.999-3.156-1.513-4.549-1.365-3.207.337-16.617 2.453-23.151 4.138 5.657.061 20.08 4.455 27.7-2.773z" fill="#fa9176"/><g stroke="#bd604b" class="D E F"><use xlink:href="#B"/><path d="M167.362 166.217c-4.987-.241-13.535-3.108-18.057-6.219m19.644-14.669c.752-1.663 1.837-2.181 1.669-3.169s-2.501-2.892-3.647-5.547m-15.996-7.483c1.125-1.021 2.794-1.746 4.03-1.782m13.066-1.021c1.487-.474 2.866-.072 3.629.399" class="C"/></g><path d="M155.979 137.069c.386-.053.603-.793.485-1.652s-.527-1.512-.913-1.458-.604.793-.485 1.652.527 1.512.913 1.458zm14.413-1.537c.367-.041.591-.737.5-1.553s-.464-1.445-.831-1.403-.592.736-.501 1.553.464 1.444.832 1.403z" fill="#bd604b"/><path d="M258.578 212.293l-6.137 6.029c2.25 5.698 7.194 13.576 12.267 18.807l6.495-10.961c-9.841-6.722-12.625-13.875-12.625-13.875z" fill="#eeeeef"/><path d="M252.441 218.322c.688 1.742 1.63 3.686 2.744 5.698 1.333-2.871 3.092-7.423 3.128-11.468l-5.872 5.77zm17.271 10.357c-3.872.255-7.455 1.265-10.131 2.242 1.623 2.253 3.364 4.39 5.127 6.208l5.004-8.45z" fill="#dedfe2"/><path d="M252.441 218.322l-19.658 19.706c-2.407 2.834-2.723 4.512-2.723 4.512l-4.607-1.994s-7.957-35.374-13.607-41.043c-4.295-4.307-13.398-6.089-18.737-7.663s-13.083-5.774-13.083-5.774c-4.396-6.614-12.665-10.285-12.665-10.285 0 37.895-4.499 75.999-4.499 75.999-14.968-41.779-24.43-80.404-24.43-80.404s-4.564 2.939-6.764 4.829-2.304 4.512-2.304 4.512-35.904 18.053-43.127 24.355-4.711 11.755-5.13 15.326-3.665 9.237-5.965 17.112-8.584 37.475-10.364 52.17 7.746 22.569 16.122 22.569h19.575L93.041 371h40.72v-38.079h-11.199l-4.396-6.089 41.136-54.164h94.627l19.679-30.02c-6.882-.241-17.533-15.129-21.166-24.326z" fill="#9b9ba3"/><g fill="#82828a"><path d="M269.713 228.679l-5.005 8.45c3.117 3.212 6.28 5.425 8.903 5.519 2.654.089-3.898-13.969-3.898-13.969zm-169.239 83.563L93.041 371h24.093c-6.423-12.873-10.371-58.758-10.371-58.758h-6.288zm145.325-67.838c-4.199 1.553-19.672 9.201-21.109 11.526s-3.536 10.131-4.861 10.052-5.195-1.742-5.858-2.96 2.669-12.596 2.164-14.278-7.126-6.208-7.126-6.208l.416 30.129h33.712c5.46-9.079 10.071-14.741 10.071-18.952-.004-4.652-3.21-10.861-7.409-9.309zm-65.096 8.637c-17.841-1.62-42.328 12.424-47.967 17.745s-5.926 8.306-5.926 8.306l23.402 5.547 9.089-11.967h39.143c1.648-7.024-1.275-18.136-17.741-19.631zm-41.859-56.71l-12.012-1.365c-.287-3.184 2.532-14.256 2.532-14.256s-12.284 6.176-23.924 12.563c6.509 1.258 18.773 3.816 19.339 5.375.584 1.606-2.791 8.249-1.104 11.504 10.612 20.503 33.988 40.608 33.988 40.608-4.818-5.791-17.891-22.03-29.81-41.593-1.219-1.99 10.991-12.836 10.991-12.836zm51.951-5.274c-3.661-1.366-7.717-3.399-9.637-4.394h-.795c.809 1.498 2.837 5.565 3.02 9.104 0 0-7.821-.794-8.047 0-.143.499 3.497 3.535 6.234 6.154 4.27-2.019 7.402-7.114 9.225-10.864zm26.411 19.594c-1.809-5.191-3.683-9.47-5.356-11.148a12.17 12.17 0 0 0-.81-.736c-1.006 7.595-.103 12.333 6.166 11.884zM93.392 232.103c-1.326 1.107 5.184 25.824 5.184 25.824s-7.835-1.25-10.046.762-4.077 5.888-3.31 7.106 24.189 9.503 24.189 9.503l-10.837-36.951s-3.855-7.354-5.18-6.244z"/><path d="M87.423 217.804c.093-2.03-.358-4.135-5.413-7.282-1.738 3.97-.605 7.379-.899 9.865-.122 1.028-.48 2.239-.982 3.618 3.765-1.627 7.215-4.501 7.294-6.201zm18.787 80.243c-6.964-.223-12.378-3.216-17.461-.553s-1.548 7.756-1.548 7.756-8.487 1.786-13.37 5.138c2.264 1.225 4.711 1.85 7.068 1.85h12.048 7.527 6.288s3.948 45.886 10.371 58.758h16.627v-38.079h-11.199l-4.396-6.089 26.794-35.277c-17.966 3.255-31.971 6.711-38.749 6.496z"/></g><path d="M155.048 188.104l-8.595 12.757 2.25 7.635s3.511-5.91 9.064-6.137 8.735 4.444 8.735 4.444l.286-6.032-7.795-13.368-3.945.701z" fill="#dce0e2"/><path d="M163.328 194.829l-4.335-7.433-3.941.704-4.869 7.225 4.5 7.76-3.705 12.88c3.393 11.015 7.391 23.27 11.884 35.808 0 0 1.608-13.631 2.905-32.693-2.379-6.704-5.173-14.881-5.212-16.423-.04-1.598 1.511-5.184 2.773-7.828z" fill="#8bbab2"/><path d="M165.556 221.71c-4.367 1.164-8.226 4.102-10.655 6.315l7.961 23.392s1.443-12.225 2.694-29.707zm-13.209-23.012l2.336 4.031c.938-.409 1.97-.689 3.088-.733 1.007-.039 1.938.079 2.784.306-.029-1.229.874-3.618 1.862-5.86-3.467-1.541-6.896-.823-10.07 2.256z" fill="#4ea594"/><path d="M102.524 311.969h26.93M85.22 280.615c9.476-5.446 17.687-7.031 29.055-4.433l32.97 7.728m-37.836-8.608s-11.475-41.352-14.645-47.603m64.82 25.342s-16.77-19.318-31.731-43.866c-1.218-1.998 10.991-12.841 10.991-12.841l-12.012-1.365c-.287-3.183 2.533-14.256 2.533-14.256m50.661 5.353s3.124 5.267 3.353 9.697c0 0-7.821-.794-8.046 0s9.189 8.069 9.178 9.772c-.1 14.199-16.884 47.503-16.884 47.503m40.143-31.328c1.691 13.95 1.691 50.955 1.691 50.955m3.385-18.09s2.766-7.246 8.455-10.792m8.763-1.243c-2.612 6.639-4.611 23.446-4.611 23.446m-61.946-12.388l1.637 10.182m-11.429-73.697l-6.137 9.111m17.978-.539l-5.725-9.819" class="B C D E F"/><path d="M135.437 138.305c4.815-2.518 8.165 3.78 8.165 3.78s-.627-10.394-1.989-12.912-2.257-6.927-.688-7.872c2.788-1.678 22.463-4.828 26.44-5.249s9.838 4.513 9.945 10.811c0 .104.004.208.007.312 2.207-2.802 4.661-7.121 2.755-10.857-3.124-6.125-9.862-6.481-9.862-6.481-.699-1.638-4.131-4.915-11.587-4.559s-16.336 5.198-19.887 7.692-4.403 6.837-4.403 6.837c-6.18 3.704-9.518 8.428-8.311 14.888.641 3.438 2.698 7.907 4.901 14.101 2.074 5.834 4.654 8.389 7.616 9.319l.043-5.22c-7.437-1.994-7.96-12.071-3.145-14.59z" fill="#4a444b"/><path d="M132.689 141.833c.48-1.537 1.404-2.827 2.748-3.531 4.815-2.519 8.165 3.779 8.165 3.779s-.405-6.704-1.272-10.649c-10.393-1.526-11.55 4.872-9.641 10.401zm41.988-30.735c-2.386-1.15-4.467-1.261-4.467-1.261-5.715 4.501-17.645 4.519-28.507 1.264-1.193.687-2.203 1.333-2.97 1.869-3.55 2.493-4.403 6.837-4.403 6.837s2.271 1.993 6.022 2.187c.14-.301.323-.546.57-.697 2.787-1.677 22.463-4.828 26.439-5.248 1.387-.148 3.006.359 4.525 1.347 2.282-2.17 2.762-4.272 2.791-6.298z" fill="#2e2c2f"/><path d="M308.39 200.197l.849-.41c2.917-2.691.291-3.977-2.332-3.277l-2.081.773c-2.293-1.592-5.442-.83-9.874.923s-9.856 3.334-16.562 2.573c0 0 5.366-8.364 4.958-11.465s-1.809-3.334-4.958-.761-7.757 7.602-10.383 9.826-3.837 3.506-6.183 7.835l-3.243 6.072s2.598 6.672 11.633 13.178c7.502-1.301 15.706-3.363 19.955-5.213 4.432-1.929 15.731-10.706 17.232-12.301 2.075-2.203-.315-3.026-.315-3.026 3.318-1.279 4.536-5.489 1.304-4.727z" fill="#f79e88"/><g fill="#fa9176"><path d="M279.977 198.12l-.767 1.315.767-1.315zm-5.13 9.503c-1.656.384-3.028 2.213-2.386 3.488 1.15 2.289 4.567 3.593 6.28 2.238s.612-6.765-3.894-5.726zm-13.539-.453l-2.727 5.123s2.415 6.197 10.68 12.47c.154-7.688-3.342-14.295-7.953-17.593zm26.583-4.732c-2.171.349-3.024 1.667-1.824 3.988 2.035 3.927 3.576 8.759 6.356 8.756 4.023-.004 3.729-5.257 2.311-8.055s-4.672-5.037-6.843-4.689z"/><path d="M273.607 198.504c-.545 2.788 2.483 5.425 4.059 3.898l.802-1.613-.086-.007.824-1.344.767-1.314c.004-.008.007-.015.014-.022 2.168-3.647-5.832-2.382-6.38.402z"/></g><path d="M306.205 201.001c-4.41 1.944-12.016 6.446-12.016 6.446l-6.298.7m-2.333-4.02l5.249-.363s7.541-3.668 12.439-5.809m2.35 7.3c-3.192 1.243-12.048 6.521-12.048 6.521l-5.192.517m-14.986-3.851s3.268-2.282 4.432-6.492" stroke="#bd604b" class="C D E F"/><g class="G"><path d="M175.257 309.536c-12.811-3.625-20.166-19.68-20.166-19.68l8.577-11.256h97.135l-28.715 37.698-5.635-6.762h-51.196z"/><path d="M119.33 328.445l37.889-41.381-34.658 45.857-3.231-4.476zm55.928-18.909c.82 6.568-18.608 61.464-18.608 61.464h-22.89v-38.079l41.498-23.385z"/></g><path d="M122.658 332.598l41.013-53.998h97.135l-4.371-5.932h-97.134l-41.136 54.163 4.396 6.09h11.199V371m0-38.079l41.497-23.385v57.544m0-57.544h51.196v58.116m0-58.116l5.635 6.762v48.048m.018-48.037l28.643-37.709m-97.078 0l-4.37-5.932" class="B C D E F"/><g class="G"><path d="M296.997 99.123l15.04 35.758-23.684 1.581v-4.922l14.162-5.831-10.35-25.21 4.832-1.376z"/><path d="M270.067 114.658l24.254 14.425-15.677 6.481-8.577-20.906z"/></g><g class="B D E F"><path d="M287.903 90.105l-26.921 11.084 14.658 35.602 26.921-11.083-14.658-35.603z"/><path d="M274.216 124.761l2.783 6.779m-11.131-27.114l6.417 15.636" class="C"/></g><path d="M287.368 106.032a7.21 7.21 0 0 0-5.342-1.566c-3.987.434-6.875 4.042-6.442 8.037s4.031 6.894 8.015 6.459a7.29 7.29 0 0 0 1.992-.506 7.23 7.23 0 0 0 2.887-2.174 7.26 7.26 0 0 0 1.562-5.357c-.211-1.936-1.161-3.675-2.672-4.893zm1.988 4.987c-6.273 1.412-8.856 4.796-9.766 6.445a6.07 6.07 0 0 1-.391-.237c.702-1.369 3.361-5.662 9.845-7.627a6.65 6.65 0 0 1 .308 1.401zm-9.136 6.754c.867-1.516 3.336-4.703 9.172-6.054a6.56 6.56 0 0 1-.151 1.409c-5.216.955-7.566 3.294-8.573 4.821-.154-.054-.301-.111-.448-.176zm4.686-7.182c.771-1.922 2.376-2.842 2.952-3.118.377.449.688.948.932 1.476-1.48.457-2.769 1.021-3.884 1.642zm-4.596-4.983c.559-.23 1.161-.388 1.791-.456a6.53 6.53 0 0 1 4.833 1.415 5.95 5.95 0 0 1 .426.378c-.874.452-2.719 1.681-3.353 4.182-1.157.74-2.099 1.53-2.859 2.295-.064-.639-.036-1.232.032-1.753.205-.05.405-.111.595-.19.921-.381 1.627-1.089 1.96-1.998.433-1.185.165-2.515-.72-3.557l-.14-.165-.215.036c-1.347.226-2.407 1.063-2.841 2.249-.43 1.171-.168 2.486.695 3.528a8.21 8.21 0 0 0 .043 2.486c-1.003 1.128-1.605 2.138-1.92 2.749-.097-.079-.19-.162-.28-.245 2.329-4.103-.096-7.605-.931-8.622.709-1.024 1.705-1.843 2.884-2.332zm1.189 3.765l-.297-.158c-.022.04-.272.518-.48 1.297-.373-.704-.444-1.491-.186-2.202.311-.855 1.064-1.484 2.027-1.71.591.797.76 1.76.445 2.619-.273.747-.878 1.322-1.67 1.606.197-.794.448-1.279.455-1.29l-.294-.162zm-4.464-.815c.832 1.07 2.655 4.027.814 7.483a5.47 5.47 0 0 1-.298-.366c.774-2.594-.064-4.714-.967-6.09a7.16 7.16 0 0 1 .451-1.027zm-.763 3.869a6.57 6.57 0 0 1 .072-1.915c.598 1.107 1.05 2.598.695 4.365a6.51 6.51 0 0 1-.767-2.45zm7.251 5.845c-.193.022-.383.033-.573.036.932-.83 2.426-1.703 4.808-2.245-1.089 1.247-2.583 2.03-4.235 2.209zm4.855-3.043c-3.447.626-5.345 1.905-6.384 3.029-.208-.025-.412-.061-.616-.108.265-.377.619-.797 1.085-1.232 1.139-1.056 3.163-2.357 6.567-3.047a6.28 6.28 0 0 1-.652 1.358z" fill="#57585a"/><path d="M292.165 100.499l9.379-2.672 10.493 37.055-27.991 7.973-2.414-8.526m-78.319-21.446l3.031-3.758 3.027 3.758" class="B C D E F"/><path d="M210.51 137.903h2.784v-12.56l-2.784 2.791v9.769zm6.284 0h2.784v-18.865l-2.784 2.791v16.074zm6.287 0h2.784v-15.276l-2.784-2.792v18.068zm6.284 0h2.784v-18.959l-2.784 2.792v16.167zm6.288-22.472v22.472h2.783v-25.264l-2.783 2.792z" class="G"/><path d="M206.344 109.125v28.778m33.185 3.036l3.748-3.036-3.748-3.04m3.747 3.04h-36.932m24.909 3.869h5.209m-26.855-12.736l11.325-11.353 6.237 6.255 12.36-12.395" class="B C D E F"/><path d="M261.938 41.321l4.937-9.309c.548-1.035.477-2.235-.082-3.172a3.22 3.22 0 0 0-2.505 1.696l-4.936 9.309c-.548 1.035-.477 2.235.082 3.172 1.025-.108 1.981-.711 2.504-1.696z" class="G"/><g class="B D E F"><path d="M265.542 27.64a3.22 3.22 0 0 0-4.36 1.336l-4.936 9.309a3.24 3.24 0 0 0 1.332 4.372 3.22 3.22 0 0 0 4.36-1.337l4.937-9.309a3.24 3.24 0 0 0-1.333-4.372z"/><path d="M258.492 34.049c2.629-1.261 6.23 2.019 5.911 2.619" class="C"/></g><g class="G"><path d="M274.818 28.215l3.923-8.831-1.283-.374-3.583 6.858-2.3.165c-.229.014.893 2.36 2.938 3.187"/><path d="M271.572 26.03l10.243-.471s-1.781 4.056-5.192 4.096-4.764-2.637-4.764-2.637"/></g><g class="B D E F"><path d="M276.627 29.655a5.35 5.35 0 1 0 0-10.713 5.35 5.35 0 1 0 0 10.713z"/><path d="M278.741 19.38l-4.231 9.837" class="C"/></g><g class="G"><path d="M297.567 65.64l.921-1.142 1.315-1.394c-1.261-.747-2.465-.923-2.97-.338-.502.578-.169 1.735.734 2.874z"/><path d="M299.803 63.103c.376.223.756.492 1.121.812 1.605 1.394 2.375 3.14 1.72 3.898 2.443-2.831 3.607-5.989 3.027-7.782-1.222-.413-3.558.823-5.868 3.072z"/><path d="M302.647 67.817c-.655.758-2.486.244-4.095-1.153a8.01 8.01 0 0 1-.985-1.024c-1.838 2.436-2.837 4.821-2.608 6.169 1.799.701 5.041-.927 7.688-3.992z"/><path d="M300.924 63.915a7.96 7.96 0 0 0-1.121-.812l-1.315 1.394-.921 1.142a7.56 7.56 0 0 0 .985 1.024c1.605 1.394 3.44 1.911 4.095 1.153s-.118-2.504-1.723-3.902z"/></g><g class="B D F"><g stroke-miterlimit="10.0001"><path d="M302.657 67.824c2.952-3.418 4.043-7.32 2.437-8.715s-5.302.245-8.254 3.663-4.043 7.32-2.437 8.715 5.302-.245 8.254-3.663z"/><path d="M302.657 67.824c.656-.759-.115-2.505-1.722-3.9s-3.439-1.911-4.095-1.152.115 2.505 1.722 3.9 3.44 1.911 4.095 1.152z"/></g><path d="M292.931 70.21c-2.414-2.095-1.977-6.567.975-9.984s7.301-4.491 9.716-2.396" class="C E"/></g><path d="M288.213 35.576v4.645l2.078 3.711a.81.81 0 0 1-.706 1.207h-8.007c-.806 0-1.515-.528-1.748-1.3l-1.089-3.618v-4.645m8.444 12.603h-10.562c-.902 0-1.633.733-1.633 1.638v.047h5.592v12.52h-5.592v7.843h13.832v-20.41a1.64 1.64 0 0 0-1.637-1.638z" class="G"/><g class="B D E F"><path d="M274.742 40.221h14.324c.473 0 .856-.384.856-.859v-2.928c0-.474-.383-.859-.856-.859h-14.324a.86.86 0 0 0-.856.859v2.928a.86.86 0 0 0 .856.859z"/><g class="C"><path d="M276.036 35.576v4.645m10.027-4.645v4.645m-7.322-4.645v4.645m9.472-4.645v4.645m1.709.554s3.418 3.37 3.418 5.748v12.434m-19.454-18.182s-3.417 3.37-3.417 5.748v21.639c0 1.142.924 2.069 2.063 2.069h19.042"/><path d="M270.469 49.864h10.719v12.52h-9.011"/></g></g><g class="G"><path d="M195.721 43.322c2.766 8.709.638 17.18-4.997 19.26l7.727-2.479c5.639-2.08 7.764-10.552 5.002-19.26l-7.732 2.479z"/><path d="M203.474 40.918a25.92 25.92 0 0 1 .813 3.33l16.301-5.227c1.233-.456 1.774-2.163 1.39-4.038l-18.504 5.935zm-14.975 4.707c-.982-2.673-3.149-4.336-4.84-3.711-.075.029-.151.065-.222.104 1.393-.305 3.066 1.031 3.837 3.129.816 2.22.311 4.451-1.125 4.979-1.347.496-3.038-.679-3.916-2.659l.14.42c.981 2.673 3.149 4.336 4.84 3.711s2.267-3.302 1.286-5.975z"/></g><g class="B D F"><g stroke-miterlimit="9.9995"><path d="M190.732 62.585c5.887-2.167 7.946-11.298 4.598-20.394s-10.835-14.714-16.723-12.546-7.947 11.298-4.599 20.394 10.836 14.714 16.724 12.547z"/><path d="M186.127 50.133c1.435-.53 1.938-2.76 1.122-4.981s-2.639-3.593-4.075-3.063-1.937 2.76-1.122 4.981 2.64 3.593 4.075 3.063z"/></g><path d="M178.625 29.627l7.728-2.479c5.886-2.174 13.366 3.442 16.705 12.546s1.276 18.24-4.607 20.41l-7.727 2.479" class="C E"/></g><g class="G"><path d="M230.161 32.221c2.765 8.709.637 17.18-4.998 19.26l7.728-2.479c5.639-2.08 7.763-10.552 5.001-19.26l-7.731 2.479z"/><path d="M231.372 47.662l-9.39-12.675-3.97 3.485 9 12.151 4.36-2.96z"/></g><g class="B D E F"><path d="M229.77 31.071c-3.339-9.1-10.819-14.716-16.705-12.546-4.883 1.804-7.133 8.403-5.851 15.794l10.443-3.348v.004c1.434-.51 3.243.859 4.056 3.068.817 2.22.312 4.451-1.125 4.98l-10.569 3.388c3.766 6.995 10.05 10.947 15.14 9.068 5.89-2.166 7.954-11.306 4.611-20.406z"/><path d="M213.065 18.525l7.727-2.479c5.886-2.174 13.367 3.442 16.706 12.546s1.275 18.24-4.607 20.41l-7.728 2.479" class="C"/><use xlink:href="#C"/><use xlink:href="#C"/></g><path d="M129.285 22.021v4.57a2.9 2.9 0 0 0 1.527 2.554c2.694 1.462 4.266 4.742 3.077 8.188-.552 1.591-1.72 2.921-3.246 3.625-1.576.729-3.224.841-4.711.435-1.028-.28-2.124-.025-2.859.747l-3.181 3.327c-.606.632-.484 1.678.265 2.127 2.608 1.57 5.657 2.292 8.784 2.026 7.295-.622 13.073-6.697 13.367-14.033.29-7.232-4.672-13.383-11.364-14.917-.853-.198-1.659.474-1.659 1.351z" class="G"/><g class="B D E F"><path d="M127.673 18.683c-8.978 0-16.257 7.3-16.257 16.304s7.279 16.304 16.257 16.304 16.258-7.3 16.258-16.304-7.28-16.304-16.258-16.304zm0 21.323c-2.765 0-5.004-2.249-5.004-5.019s2.242-5.019 5.004-5.019 5.009 2.245 5.009 5.019-2.243 5.019-5.009 5.019z"/><path d="M124.209 38.608l-7.781 8.145m6.506-13.879l-9.881-4.778m12.421 2.228l-4.35-10.024m6.549-1.617v11.281m4.26 17.152l5.292 5.303h14.774m-14.273 2.863h9.318m-31.895-18.499l-14.141-14.184m-.129-5.594h7.104m-7.104 2.86h12.901" class="C"/></g><g class="G"><path d="M39.724 40.498c-3.59 11.306-.828 22.307 6.492 25.009l-10.035-3.219c-7.319-2.702-10.081-13.699-6.492-25.005l10.035 3.215zm8.251 7.566v17.859c5.105 1.124 10.21-2.989 10.21-2.989v-7.857l4.966 12.075 6.069 1.976V54.987l-21.245-6.923z"/><path d="M57.236 35.483c-3.081-1.139-6.997 1.803-8.749 6.567-.781 2.131-.996 4.265-.72 6.075l12.474-3.704c.788-3.995-.383-7.969-3.006-8.939z"/></g><g class="D E F B"><g class="C"><path d="M68.457 47.59c3.525-11.26.752-22.181-6.538-24.872-7.642-2.82-17.351 4.469-21.689 16.286s-1.659 23.679 5.983 26.5c4.578 1.689 9.899-.248 14.363-4.617"/><path d="M60.17 44.407c.928-4.131-.233-7.925-2.934-8.924-3.081-1.139-6.997 1.803-8.749 6.567s-.67 9.549 2.415 10.688m11.02-30.02l-10.035-3.219c-7.642-2.82-17.35 4.469-21.689 16.286s-1.659 23.679 5.983 26.5l10.035 3.219"/><path d="M47.685 48.064l21.535 6.923M48.971 41.31l31.283 10.081"/></g><path d="M80.254 65.532L69.22 69.128V54.987l11.034-3.596v14.141z"/><path d="M63.151 67.149l6.069 1.98V58.67l-11.034-3.596 4.965 12.075z"/><path d="M50.898 52.746l18.321 5.881" class="C"/></g><g class="G"><path d="M52.532 99.522l-14.427 25.789a3.56 3.56 0 0 0 3.518.952l4.156-1.168 9.974-17.831-3.221-7.742z"/><path d="M41.623 126.259c-1.734.489-3.557-.399-4.252-2.066L24.312 92.836c-.459-1.099-.154-2.303.638-3.068-1.168.672-3.153 3.643-3.153 3.643-.67.765-.899 1.882-.473 2.903l13.059 31.357c.695 1.667 2.519 2.551 4.253 2.066l16.72-4.699a2.73 2.73 0 0 0 1.444-.978l2.794-3.251a2.74 2.74 0 0 1-1.254.751l-16.716 4.699zm-6.345-35.916c-4.338 5.72 1.988 13.099 5.875 9.046-2.92-1.48-5.875-3.568-5.875-9.046z"/></g><g class="B D E F"><path d="M60.149 117.82L47.09 86.463c-.695-1.667-2.519-2.551-4.252-2.066l-16.72 4.699c-1.601.449-2.447 2.202-1.806 3.743l13.059 31.357c.695 1.667 2.518 2.551 4.252 2.066l16.72-4.7a2.78 2.78 0 0 0 1.806-3.743z"/><g class="C"><path d="M59.776 120.597l-2.977 3.463a2.76 2.76 0 0 1-1.444.978l-16.72 4.699c-1.734.488-3.558-.399-4.253-2.066L21.324 96.314a2.78 2.78 0 0 1 .473-2.903s1.981-2.968 3.153-3.643"/><path d="M50.594 102.978l-16.723 4.7m16.189 0l-11.64 3.273m12.855-.863l-11.64 3.27"/></g><path d="M48.96 122.081c1.322 0 2.393-1.075 2.393-2.4s-1.072-2.4-2.393-2.4-2.393 1.074-2.393 2.4 1.072 2.4 2.393 2.4z"/><g class="C"><path d="M46.804 104.045c-.706-5.155-11.525-3.215-11.525-13.702 0 0 9.544 5.22 5.875 9.046-3.891 4.053-10.214-3.327-5.875-9.046"/><path d="M43.554 104.958c-.319-4.556 1.888-9.434 4.614-11.755m-5.936 12.125c-3.525-2.968-8.648-2.928-11.006-1.559"/></g></g><g class="G"><path d="M90.809 157.059v2.939c1.258 5.996 8.007 10.16 17.466 9.348 2.726-.233 5.169-1.027 7.226-2.217-.756-2.108-1.598-3.959-2.35-5.443-10.551 5.738-22.359-1.131-22.342-4.627z"/><path d="M95.441 166.59c-2.454-1.663-4.077-3.948-4.632-6.596v-2.938c.004-.511.254-.945.799-1.262l1.462-.693c-4.511-5.953-14.803-7.44-20.346-5.13.014 1.979.423 4.063 1.304 6.147 3.769 8.913 14.345 12.197 21.413 10.472zm-5.396-27.275c-1.193-3.363-.623-11.069 12.117-14.137.19 2.942-4.876 11.776-10.526 14.191l-1.591-.054z"/></g><path d="M91.607 155.798s17.885-8.586 22.786-9.485 10.841 8.795-1.243 15.374-25.824-3.399-21.543-5.889z" class="B D E F"/><path d="M106.386 150.671c-3.998 1.387-4.539 1.998-4.092 2.515.294.342 1.408.266 2.046-.219 1.193-.905 2.046-2.296 2.046-2.296z" fill="#4a444b"/><path d="M90.809 159.998c1.258 5.996 8.007 10.16 17.466 9.348 10.547-.902 16.849-10.124 12.926-18.671m-13.167-2.213c.806-3.614-.756-7.94-5.378-9.568s-10.081.565-11.851.565-7.577-4.024-13.198-1.165-8.544 10.319-5.37 17.827c3.998 9.46 15.674 12.582 22.678 10.096m-4.87-26.902c-1.193-3.363-.623-11.069 12.117-14.137 0 0 1.927 8.859-2.565 13.138" class="B C D E F"/><path d="M33.433 209.3c2.01 1.193 6.338 2.231 11.722 2.231s9.712-1.038 11.722-2.231c-2.601-1.692-6.882-2.798-11.722-2.798s-9.121 1.106-11.722 2.798zm13.908-7.997l2.615-1.692c1.05-.579 2.941-1.818 5.302-3.37-2.769-.593-6.28-.949-10.103-.949-7.248 0-13.377 1.272-15.434 3.025 2.056 1.754 8.19 3.026 15.434 3.026a62.5 62.5 0 0 0 2.185-.04z" class="G"/><g class="B C D E F"><path d="M18.504 197.57c6.241 6.377 9.207 4.351 13.922 10.897 1.075 1.494 6.101 3.064 12.725 3.064s11.647-1.57 12.725-3.064c4.715-6.546 7.681-4.52 13.922-10.897m-21.842 2.041c4.819-2.662 27.511-19.257 31-16.174s-14.943 9.664-24.716 15.613m1.791-4.634c-2.956-1.038-7.624-1.707-12.879-1.707-8.931 0-16.172 1.933-16.172 4.315s7.24 4.315 16.172 4.315 16.172-1.933 16.172-4.315c0-.233-.072-.46-.204-.682"/><path d="M64.297 190.392c-4.958-1.279-11.704-2.066-19.142-2.066-15.222 0-27.564 3.295-27.564 7.358s12.342 7.358 27.565 7.358 27.564-3.295 27.564-7.358c0-1.254-1.179-2.436-3.253-3.47"/><path d="M47.889 189.785c-2.185-8.062 8.287-9.833 9.336-18.901m-9.239 6.74c1.648-3.708 4.604-7.534 3.654-12.859"/></g><path d="M257.904 170.445c2.727 2.785 6.524 2.842 6.431 2.066-.301-2.59-6.047-3.844-6.047-3.844l-.384 1.778zm3.422 11.781c-.033-3.668 1.583-5.263 4.41-4.976 0 0-.387 4.962-2.035 6.388l-2.375-1.412zm-13.535-3.363c-1.555 2.454 1.945 5.95 6.09 4.362l.788-3.331s-3.708.787-6.466-.833l-.412-.198zm-1.62 11.971c2.035-.036 4.292-.23 5.181-1.311s-.233-3.471-2.927-2.454-3.078 3.779-2.254 3.765zm-12.105-4.304c.537 1.43 4.216 1.239 6.119-.255s.265-4.901-.95-3.349c-1.658 2.117-5.169 3.604-5.169 3.604zm9.146-7.379l-1.444-.787-2.44-.55s.975-6.381 6.904-5.191l-.347 1.742-.025 1.886-2.648 2.9zm-13.789-12.485c-3.852.726-4.912 5.921-2.189 7.369s5.778.359 5.778.359l6.317-1.735.777-1.933s-1.304-1.096-4.181-.403-6.054 1.498-7.079.482.577-4.139.577-4.139zm8.279-3.463c-.896 2.874 5.496 5.748 7.903.858.111-.222-1.949-.812-3.991-.973-1.963-.155-3.912.115-3.912.115zm-4.793-1.951c-1.297 2.454 1.633 2.572 3.342 1.577 1.211-.704 1.687-2.924 1.662-3.981 0 0-1.368-.496-5.004 2.404zm15.104 8.805c-.452 1.66.494 3.338 3.031 1.962 2.027-1.099 4.231-3.93 2.017-4.534-2.863-.787-5.048 2.572-5.048 2.572zm-22.66 9.51c-1.179 3.162 1.272 7.872 1.272 7.872s-2.089.589-3.565-.162-1.841-5.59 0-7.279c.57-.524 2.293-.431 2.293-.431zm-6.549 4.448c.147-3.014-3.285-7.074-4.289-5.824-.759.945.151 5.573 3.737 5.896m-1.716-13.886c1.017-1.146 1.05 4.588 1.05 4.588l-2.229 1.721s-1.261-3.557 1.179-6.309z" class="G"/><g class="D E F B"><g class="C"><path d="M252.914 167.158c-3.93.521-7.57 4.275-6.99 8.623s7.312 4.807 10.515 3.718c4.102-1.39 3.873-9.733-6.298-5.712m-4.281 2.468c-5.428 4.749-1.673 8.867 3.7 9.269m6.646 1.915c-1.501-1.505-3.697-3.708-1.164-7.599m1.626 3.485c3.812-2.375 7.337-.463 7.337 2.49s-5.488 8.17-12.653 3.708c0 0-6.528 3.822-10.515-1.563 0 0-12.077 6.722-15.137-3.129m33.229-8.576c2.708.115 3.4 2.608 3.4 2.608m-19.117.288c-3.876-3.13-13.582 0-12.195 6.143.752 3.33 7.917-.927 8.38-2.723m-12.776 4.868s-4.678 1.275-6.989-3.244c0 0-5.259.348-5.259-4.868s8.261-6.78 11.786-4.578m8.609-.348c-3.873-.115-9.071 2.551-9.419 6.837"/><path d="M219.574 179.837c1.963.474 5.363-.198 6.381-.704m-10.791-2.361s-2.465-7.875 7.298-9.614m-1.097 3.65s.81-9.56 11.902-9.56c0 0 7.799-7.641 16.089 1.24m-4.145 2.468c2.705-2.321 6.119-3.776 10.071-2.547 4.854 1.505 2.368 8.963 2.368 8.963m-19.242 3.841c.14-.877 1.78-4.692 4.586-8.005m2.866-3.007c-4.274-2.55-16.928-.984-17.333 5.389-.254 3.988 6.85-.779 12.005 1.06m17.752-1.986s12.238 1.835 5.363 15.656"/></g><path d="M107.557 80.071s7.069-1.25 7.069 2.709-7.069 3.546-7.069 3.546 8.595-1.25 8.595 3.963c0 6.948-8.595 5.145-8.595 5.145V80.071z"/><g class="C"><path d="M131.779 80.208h-6.721v14.385h7.763"/><path d="M131.227 87.401h-6.169m98.342-7.193h-6.721v14.385h7.764"/><path d="M222.849 87.401h-6.17m-8.906-7.193h-6.721v14.385"/><path d="M207.218 87.401h-6.166m-56.394-7.193v14.389"/><path d="M151.172 80.208h-13.03m26.952 14.389l-4.3-14.389-4.299 14.389m7.201-4.678h-5.567M174 80.208v14.389h8.523m8.906-14.389v14.389m129.027 172.402h-55.748m-200.145 0H12.364m-4.84-1.293V1h316.952v264.706M62.674 279.699H1v-4.397l6.517-6.535m316.619-.69L331 274.96v4.739h-66.353"/></g></g><defs ><path id="B" d="M160.139 150.003c3.984-.28 10.945-1.98 10.945-1.98s-1.304 4.279-5.295 4.991-7.119-2.907-5.65-3.011z"/><path id="C" d="M221.713 34.046c-.81-2.209-2.623-3.575-4.056-3.068v-.004l-16.189 5.191a26.39 26.39 0 0 1 1.59 3.528c.563 1.531.968 3.061 1.233 4.559l16.301-5.227c1.433-.532 1.938-2.759 1.121-4.98z"/></defs></svg>