<svg width="472" height="372" viewBox="0 0 472 372" fill="none" xmlns="http://www.w3.org/2000/svg">
<path d="M142.643 25.4555H116.231" stroke="black" stroke-width="2" stroke-miterlimit="10" stroke-linecap="round" stroke-linejoin="round"/>
<path d="M151.783 25.4555H146.866" stroke="black" stroke-width="2" stroke-miterlimit="10" stroke-linecap="round" stroke-linejoin="round"/>
<path d="M267.581 25.4555H156.447" stroke="black" stroke-width="2" stroke-miterlimit="10" stroke-linecap="round" stroke-linejoin="round"/>
<path d="M276.974 25.4555H271.931" stroke="black" stroke-width="2" stroke-miterlimit="10" stroke-linecap="round" stroke-linejoin="round"/>
<path d="M389.809 50.3544V25.4555H297.334" stroke="black" stroke-width="2" stroke-miterlimit="10" stroke-linecap="round" stroke-linejoin="round"/>
<path d="M389.809 269.946V260.063" stroke="black" stroke-width="2" stroke-miterlimit="10" stroke-linecap="round" stroke-linejoin="round"/>
<path d="M389.809 280.844V275.205" stroke="black" stroke-width="2" stroke-miterlimit="10" stroke-linecap="round" stroke-linejoin="round"/>
<path d="M345.306 371H389.809V284.963" stroke="black" stroke-width="2" stroke-miterlimit="10" stroke-linecap="round" stroke-linejoin="round"/>
<path d="M319.775 371H328.789" stroke="black" stroke-width="2" stroke-miterlimit="10" stroke-linecap="round" stroke-linejoin="round"/>
<path d="M193.324 371H314.48" stroke="black" stroke-width="2" stroke-miterlimit="10" stroke-linecap="round" stroke-linejoin="round"/>
<path d="M169.371 371H173.405" stroke="black" stroke-width="2" stroke-miterlimit="10" stroke-linecap="round" stroke-linejoin="round"/>
<path d="M164.768 371H105.641V341.286" stroke="black" stroke-width="2" stroke-miterlimit="10" stroke-linecap="round" stroke-linejoin="round"/>
<path d="M370.897 289.967V275.205" stroke="black" stroke-width="2" stroke-miterlimit="10" stroke-linecap="round" stroke-linejoin="round"/>
<path d="M363.396 351.993H370.899V293.705" stroke="black" stroke-width="2" stroke-miterlimit="10" stroke-linecap="round" stroke-linejoin="round"/>
<path d="M127.83 351.994H359.804" stroke="black" stroke-width="2" stroke-miterlimit="10" stroke-linecap="round" stroke-linejoin="round"/>
<path d="M154.179 44.4623H142.644" stroke="black" stroke-width="2" stroke-miterlimit="10" stroke-linecap="round" stroke-linejoin="round"/>
<path d="M325.259 44.4623H159.789" stroke="black" stroke-width="2" stroke-miterlimit="10" stroke-linecap="round" stroke-linejoin="round"/>
<path d="M352.239 44.4623H348.646" stroke="black" stroke-width="2" stroke-miterlimit="10" stroke-linecap="round" stroke-linejoin="round"/>
<path d="M370.898 176.623V44.4623H355.959" stroke="black" stroke-width="2" stroke-miterlimit="10" stroke-linecap="round" stroke-linejoin="round"/>
<path d="M389.809 173.075V119.54" stroke="black" stroke-width="2" stroke-miterlimit="10" stroke-linecap="round" stroke-linejoin="round"/>
<path d="M140.184 88.875V282.619" stroke="black" stroke-width="2" stroke-miterlimit="10" stroke-linecap="round" stroke-linejoin="round"/>
<path d="M140.184 81.4623V85.2005" stroke="black" stroke-width="2" stroke-miterlimit="10" stroke-linecap="round" stroke-linejoin="round"/>
<path d="M126.947 344.264L140.184 351.613V315.817" stroke="black" stroke-width="2" stroke-miterlimit="10" stroke-linecap="round" stroke-linejoin="round"/>
<path d="M64.9824 229.335V309.671L121.652 341.286" stroke="black" stroke-width="2" stroke-miterlimit="10" stroke-linecap="round" stroke-linejoin="round"/>
<path d="M64.9824 200.509V209.315" stroke="black" stroke-width="2" stroke-miterlimit="10" stroke-linecap="round" stroke-linejoin="round"/>
<path d="M64.9824 100.976V194.997" stroke="black" stroke-width="2" stroke-miterlimit="10" stroke-linecap="round" stroke-linejoin="round"/>
<path d="M64.9824 66.1302V85.2005" stroke="black" stroke-width="2" stroke-miterlimit="10" stroke-linecap="round" stroke-linejoin="round"/>
<path d="M64.9824 39.7107V47.5669" stroke="black" stroke-width="2" stroke-miterlimit="10" stroke-linecap="round" stroke-linejoin="round"/>
<path d="M133.755 39.5205L64.9824 1V33.7551" stroke="black" stroke-width="2" stroke-miterlimit="10" stroke-linecap="round" stroke-linejoin="round"/>
<path d="M140.184 65.9401V43.1319" stroke="black" stroke-width="2" stroke-miterlimit="10" stroke-linecap="round" stroke-linejoin="round"/>
<path d="M78.2197 278.056V291.741L126.947 318.921V297.95" stroke="black" stroke-width="2" stroke-miterlimit="10" stroke-linecap="round" stroke-linejoin="round"/>
<path d="M78.2197 73.606V270.454" stroke="black" stroke-width="2" stroke-miterlimit="10" stroke-linecap="round" stroke-linejoin="round"/>
<path d="M78.2197 61.6319V68.8545" stroke="black" stroke-width="2" stroke-miterlimit="10" stroke-linecap="round" stroke-linejoin="round"/>
<path d="M126.947 88.875V61.0617L78.2197 33.7552V55.8032" stroke="black" stroke-width="2" stroke-miterlimit="10" stroke-linecap="round" stroke-linejoin="round"/>
<path d="M126.947 282.618V96.414" stroke="black" stroke-width="2" stroke-miterlimit="10" stroke-linecap="round" stroke-linejoin="round"/>
<path d="M49.4126 267.983V309.671H64.9827" stroke="black" stroke-width="2" stroke-miterlimit="10" stroke-linecap="round" stroke-linejoin="round"/>
<path d="M49.4126 245.428V253.158" stroke="black" stroke-width="2" stroke-miterlimit="10" stroke-linecap="round" stroke-linejoin="round"/>
<path d="M49.4126 126.002V241.5" stroke="black" stroke-width="2" stroke-miterlimit="10" stroke-linecap="round" stroke-linejoin="round"/>
<path d="M49.4126 25.4555V81.4623" stroke="black" stroke-width="2" stroke-miterlimit="10" stroke-linecap="round" stroke-linejoin="round"/>
<path d="M49.4126 6.25858V16.1421" stroke="black" stroke-width="2" stroke-miterlimit="10" stroke-linecap="round" stroke-linejoin="round"/>
<path d="M64.9827 1H49.4126" stroke="black" stroke-width="2" stroke-miterlimit="10" stroke-linecap="round" stroke-linejoin="round"/>
<path d="M49.4126 309.671L126.191 352.563" stroke="black" stroke-width="2" stroke-miterlimit="10" stroke-linecap="round" stroke-linejoin="round"/>
<path d="M368.44 63.6591H159.789" stroke="black" stroke-width="2" stroke-miterlimit="10" stroke-linecap="round" stroke-linejoin="round"/>
<path d="M140.184 50.3544L154.178 63.6592" stroke="black" stroke-width="2" stroke-miterlimit="10" stroke-linecap="round" stroke-linejoin="round"/>
<path d="M158.529 241.5V68.8546" stroke="black" stroke-width="2" stroke-miterlimit="10" stroke-linecap="round" stroke-linejoin="round"/>
<path d="M158.529 253.347V247.709" stroke="black" stroke-width="2" stroke-miterlimit="10" stroke-linecap="round" stroke-linejoin="round"/>
<path d="M158.529 282.618V275.205" stroke="black" stroke-width="2" stroke-miterlimit="10" stroke-linecap="round" stroke-linejoin="round"/>
<path d="M329.925 66.6371V79.5617H261.656V66.6371" stroke="black" stroke-width="2" stroke-miterlimit="10" stroke-linecap="round" stroke-linejoin="round"/>
<path d="M326.017 76.0138C326.434 76.0138 326.773 75.6733 326.773 75.2534C326.773 74.8335 326.434 74.4931 326.017 74.4931C325.599 74.4931 325.26 74.8335 325.26 75.2534C325.26 75.6733 325.599 76.0138 326.017 76.0138Z" fill="black"/>
<path d="M265.565 76.0138C265.983 76.0138 266.321 75.6733 266.321 75.2534C266.321 74.8335 265.983 74.4931 265.565 74.4931C265.147 74.4931 264.808 74.8335 264.808 75.2534C264.808 75.6733 265.147 76.0138 265.565 76.0138Z" fill="black"/>
<path d="M202.338 272.164C201.708 274.381 201.015 276.599 200.258 278.817" stroke="black" stroke-width="2" stroke-miterlimit="10" stroke-linecap="round" stroke-linejoin="round"/>
<path d="M206.562 76.4572C173.342 128.98 208.012 169.907 208.39 229.335" stroke="black" stroke-width="2" stroke-miterlimit="10" stroke-linecap="round" stroke-linejoin="round"/>
<path d="M211.794 68.8543C210.849 70.1215 209.966 71.3886 209.083 72.5924" stroke="black" stroke-width="2" stroke-miterlimit="10" stroke-linecap="round" stroke-linejoin="round"/>
<path d="M180.655 171.998C188.85 222.176 159.727 260 159.727 260" stroke="black" stroke-width="2" stroke-miterlimit="10" stroke-linecap="round" stroke-linejoin="round"/>
<path d="M197.989 70.5649C172.459 94.8304 173.342 123.531 178.007 155.082" stroke="black" stroke-width="2" stroke-miterlimit="10" stroke-linecap="round" stroke-linejoin="round"/>
<path d="M199.312 99.7094H246.905V207.415H209.084" stroke="black" stroke-width="2" stroke-miterlimit="10" stroke-linecap="round" stroke-linejoin="round"/>
<path d="M242.556 152.928H196.665" stroke="black" stroke-width="2" stroke-miterlimit="10" stroke-linecap="round" stroke-linejoin="round"/>
<path d="M235.433 150.267V155.589" stroke="black" stroke-width="2" stroke-miterlimit="10" stroke-linecap="round" stroke-linejoin="round"/>
<path d="M228.499 150.267V155.589" stroke="black" stroke-width="2" stroke-miterlimit="10" stroke-linecap="round" stroke-linejoin="round"/>
<path d="M221.501 150.267V155.589" stroke="black" stroke-width="2" stroke-miterlimit="10" stroke-linecap="round" stroke-linejoin="round"/>
<path d="M214.504 150.267V155.589" stroke="black" stroke-width="2" stroke-miterlimit="10" stroke-linecap="round" stroke-linejoin="round"/>
<path d="M207.57 150.267V155.589" stroke="black" stroke-width="2" stroke-miterlimit="10" stroke-linecap="round" stroke-linejoin="round"/>
<path d="M200.572 150.267V155.589" stroke="black" stroke-width="2" stroke-miterlimit="10" stroke-linecap="round" stroke-linejoin="round"/>
<path d="M239.279 178.968H231.399V188.028H239.279V178.968Z" stroke="black" stroke-width="2" stroke-miterlimit="10" stroke-linecap="round" stroke-linejoin="round"/>
<path d="M239.279 169.907H231.399V178.968H239.279V169.907Z" stroke="black" stroke-width="2" stroke-miterlimit="10" stroke-linecap="round" stroke-linejoin="round"/>
<path d="M239.279 160.847H231.399V169.907H239.279V160.847Z" stroke="black" stroke-width="2" stroke-miterlimit="10" stroke-linecap="round" stroke-linejoin="round"/>
<path d="M231.398 178.968H223.519V188.028H231.398V178.968Z" stroke="black" stroke-width="2" stroke-miterlimit="10" stroke-linecap="round" stroke-linejoin="round"/>
<path d="M231.398 188.091H223.519V197.151H231.398V188.091Z" stroke="black" stroke-width="2" stroke-miterlimit="10" stroke-linecap="round" stroke-linejoin="round"/>
<path d="M231.398 169.907H223.519V178.968H231.398V169.907Z" stroke="black" stroke-width="2" stroke-miterlimit="10" stroke-linecap="round" stroke-linejoin="round"/>
<path d="M231.398 160.847H223.519V169.907H231.398V160.847Z" stroke="black" stroke-width="2" stroke-miterlimit="10" stroke-linecap="round" stroke-linejoin="round"/>
<path d="M223.518 178.968H215.639V188.028H223.518V178.968Z" stroke="black" stroke-width="2" stroke-miterlimit="10" stroke-linecap="round" stroke-linejoin="round"/>
<path d="M223.518 188.091H215.639V197.151H223.518V188.091Z" stroke="black" stroke-width="2" stroke-miterlimit="10" stroke-linecap="round" stroke-linejoin="round"/>
<path d="M223.518 169.907H215.639V178.968H223.518V169.907Z" stroke="black" stroke-width="2" stroke-miterlimit="10" stroke-linecap="round" stroke-linejoin="round"/>
<path d="M223.518 160.847H215.639V169.907H223.518V160.847Z" stroke="black" stroke-width="2" stroke-miterlimit="10" stroke-linecap="round" stroke-linejoin="round"/>
<path d="M207.759 185.557V178.968H215.639V188.091" stroke="black" stroke-width="2" stroke-miterlimit="10" stroke-linecap="round" stroke-linejoin="round"/>
<path d="M209.965 188.091H215.639V197.151H211.731" stroke="black" stroke-width="2" stroke-miterlimit="10" stroke-linecap="round" stroke-linejoin="round"/>
<path d="M215.639 169.907H207.759V178.968H215.639V169.907Z" stroke="black" stroke-width="2" stroke-miterlimit="10" stroke-linecap="round" stroke-linejoin="round"/>
<path d="M215.639 160.847H207.759V169.907H215.639V160.847Z" stroke="black" stroke-width="2" stroke-miterlimit="10" stroke-linecap="round" stroke-linejoin="round"/>
<path d="M202.211 169.907H207.759V178.968H204.229" stroke="black" stroke-width="2" stroke-miterlimit="10" stroke-linecap="round" stroke-linejoin="round"/>
<path d="M199.943 160.847H207.759V169.907" stroke="black" stroke-width="2" stroke-miterlimit="10" stroke-linecap="round" stroke-linejoin="round"/>
<path d="M152.729 342.68L153.989 346.102C155.314 349.649 158.717 351.994 162.499 351.994H166.408" stroke="black" stroke-width="2" stroke-miterlimit="10" stroke-linecap="round" stroke-linejoin="round"/>
<path d="M149.955 335.33L151.216 338.688" stroke="black" stroke-width="2" stroke-miterlimit="10" stroke-linecap="round" stroke-linejoin="round"/>
<path d="M135.52 296.62L149.388 333.683" stroke="black" stroke-width="2" stroke-miterlimit="10" stroke-linecap="round" stroke-linejoin="round"/>
<path d="M234.361 351.994L210.849 289.144C209.524 285.596 206.121 283.252 202.338 283.252H135.709C133.187 283.252 131.422 285.786 132.305 288.193L134.385 293.705" stroke="black" stroke-width="2" stroke-miterlimit="10" stroke-linecap="round" stroke-linejoin="round"/>
<path d="M181.725 290.221L180.212 286.23" stroke="black" stroke-width="2" stroke-miterlimit="10" stroke-linecap="round" stroke-linejoin="round"/>
<path d="M184.058 296.43L182.672 292.628" stroke="black" stroke-width="2" stroke-miterlimit="10" stroke-linecap="round" stroke-linejoin="round"/>
<path d="M199.502 337.738L185.067 299.028" stroke="black" stroke-width="2" stroke-miterlimit="10" stroke-linecap="round" stroke-linejoin="round"/>
<path d="M177.818 288.827H138.356L157.456 339.829H184.121" stroke="black" stroke-width="2" stroke-miterlimit="10" stroke-linecap="round" stroke-linejoin="round"/>
<path d="M195.846 346.102H204.23" stroke="black" stroke-width="2" stroke-miterlimit="10" stroke-linecap="round" stroke-linejoin="round"/>
<path d="M153.99 346.102H175.296" stroke="black" stroke-width="2" stroke-miterlimit="10" stroke-linecap="round" stroke-linejoin="round"/>
<path d="M166.029 311.382C167.731 314.803 171.955 314.55 170.568 308.404C170.001 305.743 169.055 303.779 168.046 302.386" stroke="black" stroke-width="2" stroke-miterlimit="10" stroke-linecap="round" stroke-linejoin="round"/>
<path d="M165.904 308.594C165.967 307.58 164.328 305.553 164.769 304.666C165.336 303.589 167.794 303.082 168.551 301.815C169.307 300.548 169.056 298.774 165.021 300.041C160.986 301.308 159.537 303.716 162.752 307.897" stroke="black" stroke-width="2" stroke-miterlimit="10" stroke-linecap="round" stroke-linejoin="round"/>
<path d="M164.013 310.875C162.878 310.748 162.248 309.228 162.689 307.96C163.005 307.137 163.95 306.884 165.525 307.39" stroke="black" stroke-width="2" stroke-miterlimit="10" stroke-linecap="round" stroke-linejoin="round"/>
<path d="M164.075 311.255L165.083 315.943C165.273 316.704 165.083 317.528 164.579 318.161L159.725 324.244C159.348 324.75 159.158 325.321 159.158 325.89V336.724" stroke="black" stroke-width="2" stroke-miterlimit="10" stroke-linecap="round" stroke-linejoin="round"/>
<path d="M170.82 314.296L181.22 319.048C181.851 319.364 182.356 319.872 182.607 320.505L188.533 334.633" stroke="black" stroke-width="2" stroke-miterlimit="10" stroke-linecap="round" stroke-linejoin="round"/>
<path d="M171.136 316.704L173.72 328.298" stroke="black" stroke-width="2" stroke-miterlimit="10" stroke-linecap="round" stroke-linejoin="round"/>
<path d="M173.91 318.034L177.503 337.738" stroke="black" stroke-width="2" stroke-miterlimit="10" stroke-linecap="round" stroke-linejoin="round"/>
<path d="M181.851 331.086C181.914 332.986 182.292 335.204 183.238 337.358" stroke="black" stroke-width="2" stroke-miterlimit="10" stroke-linecap="round" stroke-linejoin="round"/>
<path d="M182.229 326.27C182.229 326.27 181.977 327.347 181.851 329.058" stroke="black" stroke-width="2" stroke-miterlimit="10" stroke-linecap="round" stroke-linejoin="round"/>
<path d="M173.784 336.724L174.413 338.054" stroke="black" stroke-width="2" stroke-miterlimit="10" stroke-linecap="round" stroke-linejoin="round"/>
<path d="M165.211 317.528L173.153 335.33" stroke="black" stroke-width="2" stroke-miterlimit="10" stroke-linecap="round" stroke-linejoin="round"/>
<path d="M170.82 335.204L163.066 322.216" stroke="black" stroke-width="2" stroke-miterlimit="10" stroke-linecap="round" stroke-linejoin="round"/>
<path d="M163.95 334.634C164.516 336.218 164.894 337.358 164.894 337.358" stroke="black" stroke-width="2" stroke-miterlimit="10" stroke-linecap="round" stroke-linejoin="round"/>
<path d="M161.238 328.869C161.868 329.818 162.5 331.149 163.067 332.416" stroke="black" stroke-width="2" stroke-miterlimit="10" stroke-linecap="round" stroke-linejoin="round"/>
<path d="M188.156 323.989L187.525 322.153" stroke="black" stroke-width="2" stroke-miterlimit="10" stroke-linecap="round" stroke-linejoin="round"/>
<path d="M162.121 311.255H160.168C156.259 311.255 153.548 315.183 154.936 318.858L157.961 326.904" stroke="black" stroke-width="2" stroke-miterlimit="10" stroke-linecap="round" stroke-linejoin="round"/>
<path d="M186.643 319.808L184.94 315.247C184.059 312.839 181.726 311.192 179.142 311.192H170.884" stroke="black" stroke-width="2" stroke-miterlimit="10" stroke-linecap="round" stroke-linejoin="round"/>
<path d="M189.122 297.352C189.675 297.142 189.777 296.044 189.349 294.897C188.92 293.751 188.124 292.991 187.57 293.201C187.016 293.41 186.914 294.51 187.343 295.656C187.771 296.802 188.568 297.562 189.122 297.352Z" stroke="black" stroke-width="2" stroke-miterlimit="10" stroke-linecap="round" stroke-linejoin="round"/>
<path d="M192.525 306.479C193.078 306.27 193.18 305.17 192.752 304.023C192.323 302.877 191.527 302.117 190.973 302.327C190.419 302.537 190.317 303.636 190.746 304.782C191.174 305.928 191.97 306.688 192.525 306.479Z" stroke="black" stroke-width="2" stroke-miterlimit="10" stroke-linecap="round" stroke-linejoin="round"/>
<path d="M195.929 315.605C196.483 315.396 196.584 314.296 196.156 313.15C195.727 312.003 194.93 311.244 194.377 311.453C193.823 311.663 193.722 312.762 194.15 313.908C194.578 315.055 195.374 315.814 195.929 315.605Z" stroke="black" stroke-width="2" stroke-miterlimit="10" stroke-linecap="round" stroke-linejoin="round"/>
<path d="M199.391 324.709C199.946 324.5 200.047 323.401 199.619 322.255C199.19 321.108 198.394 320.348 197.84 320.557C197.286 320.767 197.184 321.866 197.613 323.013C198.041 324.159 198.838 324.919 199.391 324.709Z" stroke="black" stroke-width="2" stroke-miterlimit="10" stroke-linecap="round" stroke-linejoin="round"/>
<path d="M207.444 322.659H217.72" stroke="black" stroke-width="2" stroke-miterlimit="10" stroke-linecap="round" stroke-linejoin="round"/>
<path d="M204.167 322.659H205.805" stroke="black" stroke-width="2" stroke-miterlimit="10" stroke-linecap="round" stroke-linejoin="round"/>
<path d="M211.668 313.536H214.315" stroke="black" stroke-width="2" stroke-miterlimit="10" stroke-linecap="round" stroke-linejoin="round"/>
<path d="M200.763 313.536H208.769" stroke="black" stroke-width="2" stroke-miterlimit="10" stroke-linecap="round" stroke-linejoin="round"/>
<path d="M197.359 304.412H204.734" stroke="black" stroke-width="2" stroke-miterlimit="10" stroke-linecap="round" stroke-linejoin="round"/>
<path d="M200.195 295.289H207.445" stroke="black" stroke-width="2" stroke-miterlimit="10" stroke-linecap="round" stroke-linejoin="round"/>
<path d="M193.955 295.289H197.989" stroke="black" stroke-width="2" stroke-miterlimit="10" stroke-linecap="round" stroke-linejoin="round"/>
<path d="M283.656 210.899C283.782 214.511 283.152 217.869 282.143 220.972C286.808 232.44 298.218 235.988 302.189 236.875V198.735L283.656 210.899Z" fill="#FFDABC"/>
<path d="M282.144 220.972C278.55 232.187 270.356 240.93 275.651 250.37L302.189 238.649V236.875C298.218 235.988 286.808 232.44 282.144 220.972Z" fill="#FFE0C7"/>
<path d="M295.128 205.324C295.128 205.324 299.226 221.416 299.226 225.534C299.226 229.653 281.009 245.111 277.352 248.596C271.427 254.298 270.607 258.29 267.455 273.685C264.304 289.08 259.765 317.844 259.765 317.844C259.765 317.844 245.519 277.929 244.889 274.572C244.258 271.214 242.367 252.524 239.026 249.04C237.135 247.075 232.975 244.921 229.444 242.957C226.734 241.437 224.465 239.79 223.96 239.98C223.078 240.36 222.7 244.921 225.852 247.582C229.004 250.307 232.659 251.89 233.227 254.235C233.227 254.235 228.058 249.736 222.51 250.307C222.51 250.307 216.459 265.639 218.224 268.11L221.88 269.567C221.88 269.567 223.141 274.192 226.356 276.409C229.634 278.627 232.975 278.69 233.794 285.279C234.676 291.805 242.619 351.043 242.619 351.043L351.357 352.31C351.988 344.454 358.228 291.868 354.824 267.286C351.357 242.197 340.137 234.467 340.137 234.467" fill="#F7BFB1"/>
<path d="M233.289 254.298C233.289 254.298 228.121 249.799 222.573 250.37C222.573 250.37 219.233 258.796 218.224 264.182C222.763 269.567 229.57 270.77 233.857 269.567C231.209 264.625 231.651 258.226 233.289 254.298Z" fill="#F2B3A3"/>
<path d="M237.324 278.817C236.38 275.332 230.58 274.508 227.554 277.17C230.391 278.816 233.101 279.514 233.858 285.342C233.858 285.532 233.921 285.786 233.984 286.102C236.001 284.519 238.081 281.731 237.324 278.817Z" fill="#F2B3A3"/>
<path d="M256.992 335.901C251.823 319.238 243.565 307.01 236.064 301.625C238.711 321.265 242.683 351.043 242.683 351.043L256.173 351.17C258.064 347.178 258.883 342.11 256.992 335.901Z" fill="#F2B3A3"/>
<path d="M286.177 326.651C285.863 324.813 285.547 323.42 285.169 323.039C283.467 321.202 277.983 316.261 275.966 309.037C275.146 306.06 274.831 301.435 275.461 295.923C275.461 295.923 269.283 294.656 263.925 292.628C263.295 296.176 262.728 299.661 262.161 302.892C267.519 317.844 275.524 327.474 286.177 326.651Z" fill="#F2B3A3"/>
<path d="M223.582 240.803C223.141 242.261 223.457 245.491 225.914 247.645C228.625 246.568 226.734 241.69 223.582 240.803Z" fill="#F2B3A3"/>
<path d="M260.333 319.174C263.358 325.827 264.808 331.719 264.808 333.937" stroke="#E09986" stroke-width="2" stroke-miterlimit="10" stroke-linecap="round" stroke-linejoin="round"/>
<path d="M302.945 232.884C302.567 216.094 309.627 196.644 301.937 181.248C296.074 169.528 280.252 173.455 275.587 159.707C269.977 164.332 267.014 169.591 267.519 175.61C267.897 179.791 270.04 183.909 269.788 187.204C269.536 190.498 268.779 194.679 272.94 201.459C277.1 208.238 280.189 211.469 281.135 212.356C282.395 213.433 285.484 214.637 288.951 211.976C291.031 210.392 293.49 208.428 295.381 206.781C296.389 210.772 299.163 222.239 299.163 225.597C299.163 229.716 280.945 245.174 277.289 248.659L306.475 258.986C312.59 248.976 303.197 243.844 302.945 232.884Z" fill="#F7BFB1"/>
<path d="M354.95 267.286C351.987 246.125 343.54 237.255 341.019 235.037C329.295 238.903 315.111 243.464 308.619 244.985C297.839 247.519 292.165 243.844 288.32 238.649C283.718 242.957 279.054 247.012 277.416 248.596C271.489 254.298 270.67 258.29 267.519 273.685C266.447 279.007 265.186 285.849 263.988 292.565C269.346 294.593 275.524 295.86 275.524 295.86C274.894 301.372 275.209 306.06 276.028 308.974C278.046 316.197 283.53 321.139 285.231 322.976C286.934 324.813 288.132 346.481 288.132 346.481V351.486L351.546 352.247C352.114 344.454 358.354 291.869 354.95 267.286Z" fill="#742E38"/>
<path d="M300.046 201.648C299.794 202.282 299.29 203.106 298.344 204.12C297.777 204.753 296.705 205.704 295.445 206.781C296.012 209.062 297.147 213.687 298.029 217.868C302.82 210.265 301.496 201.648 300.046 201.648Z" fill="#F2B3A3"/>
<path d="M286.43 194.046C282.08 190.625 290.969 182.769 293.742 185.937C296.642 189.231 290.276 197.024 286.43 194.046Z" fill="#F2B3A3"/>
<path d="M278.109 164.459C277.1 163.128 276.217 161.608 275.587 159.707C269.977 164.332 267.014 169.591 267.519 175.61C267.582 176.307 267.708 177.067 267.833 177.764C272.184 174.722 276.533 169.084 278.109 164.459Z" fill="#F2B3A3"/>
<path d="M305.341 194.236C304.963 189.738 303.955 185.366 301.937 181.248C301.559 180.551 301.18 179.855 300.74 179.284C298.092 185.239 299.794 191.512 305.341 194.236Z" fill="#F2B3A3"/>
<path d="M285.011 195.046C288.335 194.443 290.362 190.243 289.541 185.663C288.718 181.083 285.358 177.859 282.035 178.462C278.712 179.064 276.684 183.265 277.506 187.845C278.328 192.425 281.688 195.649 285.011 195.046Z" stroke="black" stroke-width="2" stroke-miterlimit="10" stroke-linecap="round" stroke-linejoin="round"/>
<path d="M277.73 188.724C275.839 186.887 273.696 188.028 273.254 189.864" stroke="black" stroke-width="2" stroke-miterlimit="10" stroke-linecap="round" stroke-linejoin="round"/>
<path d="M289.518 185.683L301.999 178.968" stroke="black" stroke-width="2" stroke-miterlimit="10" stroke-linecap="round" stroke-linejoin="round"/>
<path d="M331.564 194.87C317.003 184.543 324.126 167.183 316.813 156.476C309.501 145.769 291.788 152.485 279.874 153.372C266.51 154.322 262.791 160.531 261.089 165.219C259.45 169.781 258.82 180.614 269.852 187.267C270.104 183.972 267.96 179.855 267.582 175.673C267.078 169.654 270.041 164.395 275.651 159.77C280.315 173.519 296.137 169.591 302 181.312C309.691 196.707 302.567 216.157 303.008 232.947C303.261 243.907 312.717 249.04 306.665 259.05C303.324 264.625 292.23 272.481 292.923 282.872C293.553 293.262 301.558 298.014 301.558 298.014L351.547 220.972C350.538 211.153 346.126 205.134 331.564 194.87Z" fill="#FFE0C7"/>
<path d="M325.26 188.154C319.839 179.031 322.108 167.627 318.263 159.137C307.989 161.355 302.757 185.747 325.26 188.154Z" fill="#FFDABC"/>
<path d="M260.144 171.492C260.333 176.56 262.477 182.769 269.788 187.204C270.041 183.909 267.898 179.791 267.519 175.61C267.268 172.949 267.772 170.415 268.844 168.006C265.124 167.88 262.224 169.528 260.144 171.492Z" fill="#FFDABC"/>
<path d="M338.75 200.255C320.217 204.183 308.555 224.648 317.507 240.296C321.603 247.392 326.268 251.257 330.429 253.221L351.42 220.846C350.726 212.989 347.638 207.541 338.75 200.255Z" fill="#FFDABC"/>
<path d="M285.043 175.04C284.098 174.912 281.198 174.976 279.937 175.483C278.803 175.926 278.739 174.532 279.748 174.026C281.324 173.265 283.152 173.582 284.413 174.089C285.233 174.343 285.547 175.103 285.043 175.04Z" fill="black"/>
<path d="M268.906 178.968C269.663 178.334 270.482 177.827 271.743 177.447C272.878 177.067 272.247 175.736 271.175 176.117C269.599 176.623 269.096 177.447 268.78 178.08C268.654 178.588 268.78 179.094 268.906 178.968Z" fill="black"/>
<path d="M284.692 185.824C285.125 185.693 285.329 185.097 285.148 184.494C284.966 183.891 284.468 183.51 284.034 183.641C283.601 183.773 283.398 184.368 283.579 184.971C283.76 185.573 284.258 185.956 284.692 185.824Z" fill="black"/>
<path d="M285.043 184.226C284.602 183.403 283.467 183.022 282.521 183.529C282.521 183.529 283.53 183.846 283.846 184.29" fill="black"/>
<path d="M272.58 188.415C273.013 188.283 273.218 187.687 273.036 187.084C272.855 186.482 272.357 186.099 271.924 186.232C271.49 186.363 271.286 186.959 271.468 187.562C271.649 188.165 272.147 188.546 272.58 188.415Z" fill="black"/>
<path d="M272.939 186.887C272.497 186.063 271.363 185.683 270.417 186.19C270.417 186.19 271.426 186.507 271.741 186.95" fill="black"/>
<path d="M278.676 196.96C279.118 196.011 275.336 193.666 274.517 195.883C273.948 197.341 278.109 198.227 278.676 196.96Z" fill="#F2B3A3"/>
<path d="M276.219 192.272L274.958 194.997" stroke="#E09986" stroke-width="2" stroke-miterlimit="10" stroke-linecap="round" stroke-linejoin="round"/>
<path d="M286.366 198.481C286.556 198.861 285.799 201.649 283.025 202.726C279.999 203.866 279.118 201.079 280.756 200.889" fill="#EF4D22"/>
<path d="M286.366 198.481C286.556 198.861 285.799 201.649 283.025 202.726C279.999 203.866 279.118 201.079 280.756 200.889" stroke="#EF4D22" stroke-width="0.5" stroke-miterlimit="10" stroke-linecap="round" stroke-linejoin="round"/>
<path d="M281.45 200.381C282.08 199.622 283.53 199.051 284.79 198.735C285.673 198.545 286.556 198.291 286.366 198.481C285.925 198.861 283.656 200.318 281.513 200.952C279.874 201.459 278.802 201.269 278.928 200.952C279.054 200.699 280.189 200.065 281.45 200.381Z" fill="#D93F16" stroke="#D93F16" stroke-width="0.5" stroke-miterlimit="10" stroke-linecap="round" stroke-linejoin="round"/>
<path d="M284.98 205.704C286.43 205.134 285.296 203.233 284.097 203.676C282.017 204.437 283.593 206.274 284.98 205.704Z" fill="#F2B3A3"/>
<path d="M271.203 197.523C273.978 197.02 275.562 192.9 274.74 188.32C273.918 183.74 271.002 180.436 268.227 180.939C265.452 181.442 263.868 185.563 264.69 190.142C265.512 194.722 268.428 198.027 271.203 197.523Z" stroke="black" stroke-width="2" stroke-miterlimit="10" stroke-linecap="round" stroke-linejoin="round"/>
<path d="M220.556 245.998C226.229 245.301 226.671 251.446 226.733 254.488C226.797 257.529 219.043 253.157 219.043 253.157" fill="white"/>
<path d="M222.448 265.702C226.104 269.63 222.763 271.847 218.918 268.87C215.703 266.462 216.27 264.245 217.594 263.231" fill="#F7BFB1"/>
<path d="M222.447 265.702C226.104 269.63 222.763 271.847 218.918 268.87" stroke="#E09986" stroke-width="2" stroke-miterlimit="10" stroke-linecap="round" stroke-linejoin="round"/>
<path d="M220.367 265.068C224.024 269.06 226.293 266.525 223.645 262.471C221.502 259.113 219.422 258.796 218.287 260.063" fill="#F7BFB1"/>
<path d="M220.368 265.068C223.015 267.92 224.907 267.412 224.78 265.386" stroke="#E09986" stroke-width="2" stroke-miterlimit="10" stroke-linecap="round" stroke-linejoin="round"/>
<path d="M220.619 260.443C223.645 264.878 226.293 262.787 224.275 258.352C222.636 254.678 220.619 254.108 219.295 255.185" fill="#F7BFB1"/>
<path d="M220.619 260.443C223.204 264.181 225.41 263.295 224.906 260.253" stroke="#E09986" stroke-width="2" stroke-miterlimit="10" stroke-linecap="round" stroke-linejoin="round"/>
<path d="M221.88 256.008C224.906 260.443 227.554 258.352 225.537 253.918C223.898 250.243 221.88 249.673 220.556 250.75" fill="#F7BFB1"/>
<path d="M221.88 256.008C224.906 260.443 227.554 258.352 225.537 253.918C223.898 250.243 221.88 249.673 220.556 250.75" stroke="#E09986" stroke-width="2" stroke-miterlimit="10" stroke-linecap="round" stroke-linejoin="round"/>
<path d="M212.201 270.256C217.454 269.613 221.535 267.627 221.316 265.821C221.097 264.015 216.661 263.072 211.408 263.716C206.154 264.359 202.074 266.345 202.293 268.151C202.512 269.958 206.948 270.9 212.201 270.256Z" fill="white"/>
<path d="M220.87 242.071C223.077 245.492 223.455 261.457 221.06 266.716L202.653 268.997C199.06 264.498 195.593 248.849 196.979 245.048" fill="#F46800"/>
<path d="M197.989 256.642C199.06 261.33 200.699 266.145 202.465 268.616C202.528 268.744 202.591 268.87 202.717 268.934C202.717 268.934 202.717 268.934 202.717 268.997C203.914 270.201 207.507 270.77 212.172 270.201C213.937 270.011 215.513 269.63 216.837 269.25C216.08 265.702 214 261.901 210.785 258.86C206.625 254.805 201.519 253.094 197.989 256.642Z" fill="#FF7711"/>
<path d="M209.495 248.078C216.2 247.256 221.427 244.871 221.17 242.752C220.913 240.633 215.27 239.583 208.566 240.405C201.861 241.226 196.634 243.611 196.891 245.73C197.148 247.848 202.791 248.899 209.495 248.078Z" fill="#672C34"/>
<path d="M230.328 249.61C230.328 248.406 231.02 247.709 231.02 247.709" stroke="#E09986" stroke-width="2" stroke-miterlimit="10" stroke-linecap="round" stroke-linejoin="round"/>
<path d="M235.055 251.891C235.055 251.891 234.11 252.334 233.291 254.298C231.336 258.923 231.084 267.096 235.685 272.101" stroke="#E09986" stroke-width="2" stroke-miterlimit="10" stroke-linecap="round" stroke-linejoin="round"/>
<path d="M193.514 341.349C193.514 341.349 193.072 346.988 193.072 348.509C193.072 350.029 195.027 350.536 196.224 348.825C197.359 347.051 198.494 342.933 198.053 340.526" fill="#F2B3A3"/>
<path d="M334.841 296.43C334.841 296.43 314.166 335.711 309.375 343.821C305.719 349.966 301.999 351.74 295.633 351.613C269.725 351.17 246.401 351.043 242.682 351.043C236.441 351.043 227.932 350.282 217.467 350.409C208.643 350.536 202.212 339.639 201.772 339.575L193.892 338.182C193.892 338.182 184.437 345.278 181.6 346.735C178.826 348.191 176.116 346.545 177.503 345.278C178.889 343.947 192.631 330.579 195.657 328.488C198.683 326.461 201.205 328.424 201.205 328.424C205.112 325.637 207.319 328.424 207.319 328.424C209.336 328.108 211.164 328.615 215.577 332.036C220.872 336.154 223.267 339.575 233.353 338.562C241.548 337.674 288.006 327.791 288.006 327.791C288.006 327.791 313.031 271.784 317.317 262.281L334.841 296.43Z" fill="#F7BFB1"/>
<path d="M258.504 333.873C273.003 330.959 288.005 327.728 288.005 327.728" stroke="#E09986" stroke-width="2" stroke-miterlimit="10" stroke-linecap="round" stroke-linejoin="round"/>
<path d="M320.658 323.103C325.133 314.74 329.735 306.06 332.446 300.929C325.827 296.557 314.985 289.524 307.168 284.963C306.853 299.281 312.904 314.74 320.658 323.103Z" fill="#F2B3A3"/>
<path d="M258.504 351.17C268.338 351.233 281.576 351.423 295.569 351.677C297.902 351.74 299.856 351.486 301.558 350.916C293.616 340.906 269.472 342.3 258.504 351.17Z" fill="#F2B3A3"/>
<path d="M219.547 350.409C225.535 350.409 230.83 350.663 235.432 350.853C230.074 345.721 225.409 344.834 219.547 350.409Z" fill="#F2B3A3"/>
<path d="M223.519 349.205C223.519 349.205 225.914 347.938 226.545 345.721" stroke="#E09986" stroke-width="2" stroke-miterlimit="10" stroke-linecap="round" stroke-linejoin="round"/>
<path d="M202.844 338.688C203.852 337.738 204.23 336.724 204.23 336.724" stroke="#E09986" stroke-width="2" stroke-miterlimit="10" stroke-linecap="round" stroke-linejoin="round"/>
<path d="M181.6 346.735C182.672 346.165 184.815 344.708 187.021 343.123C188.156 340.399 188.786 337.485 187.903 335.33C183.302 339.639 178.322 344.517 177.503 345.278C176.116 346.545 178.826 348.192 181.6 346.735Z" fill="#F2B3A3"/>
<path d="M201.771 339.575C201.267 339.512 195.405 341.856 193.829 342.68C192.253 343.503 187.841 348.699 185.508 349.649C183.113 350.662 181.6 349.586 182.545 348.192C183.554 346.798 188.849 339.386 189.921 338.562C190.992 337.738 200.195 331.719 200.195 331.719" fill="#F7BFB1"/>
<path d="M187.777 341.096C185.823 343.63 183.238 347.241 182.545 348.192C181.537 349.585 183.112 350.662 185.507 349.649C187.399 348.826 190.677 345.341 192.631 343.567C192.253 342.236 190.992 340.969 187.777 341.096Z" fill="#F2B3A3"/>
<path d="M200.825 339.829C198.997 340.463 195.026 342.046 193.828 342.743" stroke="#E09986" stroke-width="2" stroke-miterlimit="10" stroke-linecap="round" stroke-linejoin="round"/>
<path d="M189.92 338.625C190.992 337.801 200.195 331.782 200.195 331.782" stroke="#E09986" stroke-width="2" stroke-miterlimit="10" stroke-linecap="round" stroke-linejoin="round"/>
<path d="M195.594 331.782L191.056 335.33" stroke="#E09986" stroke-width="2" stroke-miterlimit="10" stroke-linecap="round" stroke-linejoin="round"/>
<path d="M195.847 328.298C197.234 329.248 199.25 328.869 200.133 327.791C199.187 327.475 197.611 327.221 195.847 328.298Z" fill="#F2B3A3"/>
<path d="M201.205 328.361C202.213 329.502 205.113 329.185 205.806 327.347C204.734 327.031 203.158 326.968 201.205 328.361Z" fill="#F2B3A3"/>
<path d="M207.319 328.424C207.508 330.389 209.967 330.389 211.543 329.312C209.778 328.298 208.58 328.235 207.319 328.424Z" fill="#F2B3A3"/>
<path d="M332.383 245.682C325.638 246.885 321.667 252.651 317.38 262.154C315.867 265.512 311.833 274.572 307.168 284.963C319.145 291.995 338.371 304.856 338.371 304.856C358.606 255.248 339.695 244.415 332.383 245.682Z" fill="#5C232B"/>
<path d="M345.243 284.139C345.873 272.355 342.343 260.38 331.815 269.567C325.197 275.332 319.461 284.392 316.056 290.348C326.836 297.127 338.372 304.793 338.372 304.793C341.524 297 343.793 290.158 345.243 284.139Z" fill="#5C232B"/>
<path d="M283.782 277.423C282.395 275.395 280.819 277.613 279.559 280.464C277.227 286.102 275.966 291.614 275.461 296.429C282.648 296.366 285.926 280.528 283.782 277.423Z" fill="#5C232B"/>
<path d="M355.013 311.509C346.44 311.065 337.993 318.921 329.735 337.801C326.836 344.39 325.007 348.889 323.936 351.994L351.482 352.31C351.798 348.065 353.814 330.579 355.013 311.509Z" fill="#5C232B"/>
<path d="M339.443 212.23C324.503 205.767 335.472 192.209 352.05 187.964C369.385 183.466 382.938 185.177 382.938 185.177C371.024 172.949 387.792 162.305 412.692 150.394C437.591 138.483 459.086 136.139 465.327 141.334C471.567 146.529 471.693 165.916 458.771 195.503C445.848 225.091 428.703 239.282 418.364 239.409C408.027 239.536 407.397 223.19 407.397 223.19C403.488 238.142 391.574 253.157 379.534 263.231C371.34 270.074 359.174 275.142 358.038 260.19C356.967 245.238 366.927 234.214 366.927 234.214C366.927 234.214 350.79 247.773 336.228 250.307C303.639 256.072 307.105 238.269 316.939 226.929C326.899 215.524 339.443 212.23 339.443 212.23Z" fill="#1B995C"/>
<path d="M369.322 201.649C384.514 200.762 398.95 191.069 382.938 185.24C382.938 185.24 369.385 183.529 352.05 188.028C350.853 188.344 349.718 188.661 348.646 189.041C348.961 198.861 355.769 202.409 369.322 201.649Z" fill="#0C8D4F"/>
<path d="M347.448 227.815C333.139 234.024 324.566 242.83 324.629 251.511C327.844 251.574 331.753 251.194 336.291 250.37C350.79 247.773 366.99 234.278 366.99 234.278C374.05 227.055 364.028 220.593 347.448 227.815Z" fill="#0C8D4F"/>
<path d="M379.03 232.757C372.41 247.075 375.815 256.832 386.089 257.339C395.671 247.773 404.244 235.545 407.396 223.317C407.711 208.301 386.405 216.791 379.03 232.757Z" fill="#0C8D4F"/>
<path d="M426.559 183.276C429.9 201.205 446.541 202.219 459.59 193.73C471.756 165.156 471.567 146.466 465.39 141.334C445.028 138.546 422.777 162.938 426.559 183.276Z" fill="#0C8D4F"/>
<path d="M364.72 219.769C351.86 226.548 339.568 231.68 328.79 234.278" stroke="black" stroke-width="2" stroke-miterlimit="10" stroke-linecap="round" stroke-linejoin="round"/>
<path d="M471 132.401C461.481 151.218 417.545 189.295 375.625 213.687" stroke="black" stroke-width="2" stroke-miterlimit="10" stroke-linecap="round" stroke-linejoin="round"/>
<path d="M394.537 173.075C407.207 164.713 438.032 168.767 438.032 168.767C438.032 168.767 439.166 203.613 425.424 222.176" stroke="black" stroke-width="2" stroke-miterlimit="10" stroke-linecap="round" stroke-linejoin="round"/>
<path d="M406.009 180.424C410.863 176.307 410.863 168.261 410.863 168.261" stroke="black" stroke-width="2" stroke-miterlimit="10" stroke-linecap="round" stroke-linejoin="round"/>
<path d="M422.587 199.875C428.072 192.906 436.582 190.688 436.582 190.688" stroke="black" stroke-width="2" stroke-miterlimit="10" stroke-linecap="round" stroke-linejoin="round"/>
<path d="M453.034 192.272C449.567 180.488 437.716 181.058 437.716 181.058" stroke="black" stroke-width="2" stroke-miterlimit="10" stroke-linecap="round" stroke-linejoin="round"/>
<path d="M396.932 200.255C398.13 208.428 392.646 227.942 383.127 235.671" stroke="black" stroke-width="2" stroke-miterlimit="10" stroke-linecap="round" stroke-linejoin="round"/>
<path d="M352.239 201.776C361.316 196.834 387.036 196.58 392.898 202.98" stroke="black" stroke-width="2" stroke-miterlimit="10" stroke-linecap="round" stroke-linejoin="round"/>
<path d="M362.01 205.83C365.919 201.776 367.054 198.418 367.054 198.418" stroke="black" stroke-width="2" stroke-miterlimit="10" stroke-linecap="round" stroke-linejoin="round"/>
<path d="M57.8589 161.165C61.2629 171.682 70.025 183.085 78.2197 189.864C82.5062 193.412 91.6463 197.847 96.9414 189.864C96.9414 189.864 107.784 200.762 120.832 198.228C133.881 195.693 135.141 183.085 132.494 174.849C129.846 166.613 124.678 159.327 124.678 159.327C124.678 159.327 130.603 149.571 118.5 138.61C105.199 126.509 88.053 120.173 59.8131 117.765C40.3348 116.119 23.1258 118.843 19.974 127.649C17.5156 134.428 21.6129 146.719 30.4381 157.489C39.2632 168.261 49.1599 171.555 54.581 169.338C59.2457 167.373 57.8589 161.165 57.8589 161.165Z" fill="#1B995C"/>
<path d="M18.7129 103.7C17.8935 92.6128 40.1454 87.2914 50.9246 87.9878C61.7038 88.685 71.5375 92.9935 70.7811 101.673C70.0246 110.353 60.191 113.774 44.747 113.964C29.3031 114.154 19.0281 107.692 18.7129 103.7Z" fill="#1B995C"/>
<path d="M42.8553 117.512C31.0675 118.336 22.1793 121.503 19.973 127.586C17.5146 134.364 21.612 146.656 30.4371 157.426C34.2193 161.988 38.1906 165.282 41.9098 167.31C54.0758 154.449 57.1015 134.111 42.8553 117.512Z" fill="#0C8D4F"/>
<path d="M48.0247 87.9879C36.6151 88.2419 17.9562 93.5633 18.7127 103.764C18.9018 106.425 23.6926 110.227 31.4461 112.38C43.9273 106.488 47.9616 97.3012 48.0247 87.9879Z" fill="#0C8D4F"/>
<path d="M85.2164 179.094C81.1188 171.364 69.7722 167.943 65.0444 175.166C68.9527 180.868 73.6805 186.063 78.2191 189.864C79.795 191.196 82.0646 192.589 84.5225 193.476C87.4226 190.245 88.3683 185.113 85.2164 179.094Z" fill="#0C8D4F"/>
<path d="M124.74 159.264C124.74 159.264 130.666 149.506 118.563 138.546C113.709 134.111 108.351 130.5 102.174 127.522C92.6551 137.532 114.844 159.011 124.74 159.264Z" fill="#0C8D4F"/>
<path d="M68.3861 127.713C60.0653 131.957 59.9392 142.284 64.4779 149.127C69.0164 155.969 76.1396 158.756 80.9934 157.87C94.798 155.399 93.4117 141.841 89.44 135.505C85.5321 129.233 76.7069 123.468 68.3861 127.713Z" fill="#0C8D4F"/>
<path d="M1 123.531C33.6529 129.233 88.4314 149.19 116.294 176.623" stroke="black" stroke-width="2" stroke-miterlimit="10" stroke-linecap="round" stroke-linejoin="round"/>
<path d="M49.4109 101.42C39.4511 99.1387 23.5659 101.293 13.9214 110.86" stroke="black" stroke-width="2" stroke-miterlimit="10" stroke-linecap="round" stroke-linejoin="round"/>
<path d="M117.807 149.38C96.3745 137.976 75.0683 137.786 63.7847 143.425" stroke="black" stroke-width="2" stroke-miterlimit="10" stroke-linecap="round" stroke-linejoin="round"/>
<path d="M93.8531 131.134C87.9908 133.541 85.7847 139.94 85.7847 139.94" stroke="black" stroke-width="2" stroke-miterlimit="10" stroke-linecap="round" stroke-linejoin="round"/>
<path d="M72.5464 147.48C72.7985 156.476 81.1194 177.574 90.8271 185.176" stroke="black" stroke-width="2" stroke-miterlimit="10" stroke-linecap="round" stroke-linejoin="round"/>
<path d="M95.681 173.202C87.0453 168.767 79.1655 169.021 79.1655 169.021" stroke="black" stroke-width="2" stroke-miterlimit="10" stroke-linecap="round" stroke-linejoin="round"/>
<path d="M26.9077 129.804C26.9707 141.968 37.0566 155.779 43.1081 160.468" stroke="black" stroke-width="2" stroke-miterlimit="10" stroke-linecap="round" stroke-linejoin="round"/>
<path d="M45.1254 151.534C40.4607 150.077 35.7959 152.611 35.7959 152.611" stroke="black" stroke-width="2" stroke-miterlimit="10" stroke-linecap="round" stroke-linejoin="round"/>
<path d="M45.1255 135.505C47.2687 131.83 50.9249 127.523 56.7872 125.432" stroke="black" stroke-width="2" stroke-miterlimit="10" stroke-linecap="round" stroke-linejoin="round"/>
<path d="M398.697 113.33C398.697 113.33 383.82 145.895 366.864 162.622C349.844 179.347 334.778 181.818 344.927 154.449C350.348 139.877 362.64 125.622 362.64 125.622C362.64 125.622 346.251 138.356 327.276 142.855C299.604 149.443 294.183 136.645 313.283 119.032C332.383 101.42 360.56 92.866 360.56 92.866C360.56 92.866 352.428 92.4862 351.546 84.1234C350.664 75.7601 364.09 62.9622 391.7 52.255C419.31 41.6112 441.625 40.7242 450.072 47.2499C458.581 53.8389 454.926 79.1814 441.814 104.46C428.702 129.739 412.502 142.157 402.606 137.532C392.646 132.971 398.697 113.33 398.697 113.33Z" fill="#1B995C"/>
<path d="M398.697 113.33L389.809 130.5C395.293 120.807 398.697 113.33 398.697 113.33Z" fill="#0C8D4F"/>
<path d="M418.238 81.4623C422.525 93.0568 436.204 97.6185 448.244 90.0154C455.808 70.1849 456.88 52.5719 450.009 47.3134C448.055 45.7928 445.281 44.6524 441.94 43.9555C423.786 48.3904 412.565 66.0668 418.238 81.4623Z" fill="#0C8D4F"/>
<path d="M379.029 80.2587C379.912 74.113 371.528 68.0309 357.976 71.7056C353.248 76.3306 351.041 80.6388 351.42 84.1867C352.302 92.5495 360.434 92.9302 360.434 92.9302C372.663 92.8669 378.462 84.3133 379.029 80.2587Z" fill="#0C8D4F"/>
<path d="M395.672 87.6713C380.795 93.8166 368.44 129.613 389.809 130.5L398.698 113.33C404.749 100.343 405.127 83.7435 395.672 87.6713Z" fill="#0C8D4F"/>
<path d="M347.89 114.154C335.597 121.503 330.555 134.808 328.538 142.537C346.944 137.786 362.577 125.622 362.577 125.622C370.205 117.955 368.881 101.61 347.89 114.154Z" fill="#0C8D4F"/>
<path d="M457.448 43.1319C438.663 50.1644 388.234 97.1112 379.03 112.761" stroke="black" stroke-width="2" stroke-miterlimit="10" stroke-linecap="round" stroke-linejoin="round"/>
<path d="M406.829 112.761C413.7 103.701 423.344 99.0755 423.344 99.0755" stroke="black" stroke-width="2" stroke-miterlimit="10" stroke-linecap="round" stroke-linejoin="round"/>
<path d="M414.646 126.636C421.894 112.761 427.568 87.6713 424.479 66.1302" stroke="black" stroke-width="2" stroke-miterlimit="10" stroke-linecap="round" stroke-linejoin="round"/>
<path d="M368.439 75.6336C388.233 64.4196 406.703 66.0035 415.086 68.1576" stroke="black" stroke-width="2" stroke-miterlimit="10" stroke-linecap="round" stroke-linejoin="round"/>
<path d="M323.495 126.636C345.117 107.438 374.996 101.23 384.704 99.9626" stroke="black" stroke-width="2" stroke-miterlimit="10" stroke-linecap="round" stroke-linejoin="round"/>
<path d="M337.993 132.401C343.288 122.897 341.586 114.091 341.586 114.091" stroke="black" stroke-width="2" stroke-miterlimit="10" stroke-linecap="round" stroke-linejoin="round"/>
<path d="M226.293 118.906C224.654 115.991 222.006 113.838 218.792 112.887C212.172 110.986 205.238 114.787 203.284 121.44C201.393 128.093 205.175 135.062 211.795 137.026C212.929 137.343 214.127 137.532 215.324 137.532C217.404 137.532 219.485 137.026 221.313 135.949C224.212 134.301 226.356 131.64 227.301 128.409C228.247 125.178 227.932 121.82 226.293 118.906ZM226.23 128.156C215.324 126.255 209.02 129.993 206.5 132.02C206.31 131.83 206.184 131.577 206.058 131.387C208.075 129.676 215.072 124.545 226.671 125.685C226.608 126.508 226.419 127.332 226.23 128.156ZM207.256 132.907C209.651 131.07 215.64 127.585 225.788 129.296C225.473 130.057 225.095 130.753 224.654 131.45C215.703 129.55 210.47 131.704 207.886 133.478C207.634 133.287 207.444 133.097 207.256 132.907ZM219.422 124.545C221.88 122.011 225.032 121.567 226.167 121.503C226.482 122.454 226.671 123.468 226.671 124.481C224.024 124.228 221.565 124.291 219.422 124.545ZM215.324 113.584C216.396 113.584 217.404 113.71 218.476 114.028C221.376 114.851 223.771 116.815 225.221 119.476C225.41 119.793 225.536 120.046 225.663 120.363C223.961 120.489 220.241 121.25 217.593 124.798C215.261 125.241 213.244 125.875 211.542 126.572C211.858 125.495 212.298 124.608 212.74 123.784C213.118 123.847 213.434 123.847 213.811 123.847C215.514 123.847 217.09 123.214 218.224 121.947C219.673 120.363 220.115 118.019 219.422 115.801L219.296 115.421L218.917 115.358C216.648 114.851 214.378 115.485 212.929 117.068C211.479 118.653 211.038 120.933 211.731 123.151C211.101 124.227 210.533 125.558 210.155 127.142C207.823 128.282 206.184 129.486 205.301 130.247C205.175 130.057 205.112 129.866 204.987 129.676C211.353 124.671 209.777 117.512 209.147 115.295C211.038 114.218 213.181 113.584 215.324 113.584ZM214.757 120.363L214.378 119.92C214.315 119.983 213.622 120.553 212.74 121.693C212.614 120.3 212.992 119.032 213.874 118.082C214.946 116.942 216.522 116.435 218.224 116.688C218.665 118.335 218.287 119.983 217.216 121.187C216.27 122.2 214.946 122.707 213.496 122.644C214.315 121.503 215.072 120.87 215.072 120.87L214.757 120.363ZM208.201 116.119C208.832 118.399 209.777 124.291 204.608 128.599C204.545 128.346 204.419 128.093 204.356 127.839C207.256 124.228 207.319 120.3 206.814 117.512C207.256 117.005 207.697 116.562 208.201 116.119ZM204.482 121.82C204.797 120.744 205.238 119.73 205.869 118.843C206.121 120.997 205.869 123.657 204.104 126.255C203.915 124.798 204.041 123.278 204.482 121.82ZM212.172 135.886C211.858 135.822 211.542 135.695 211.227 135.568C213.244 134.872 216.207 134.428 220.367 135.125C217.846 136.455 214.946 136.709 212.172 135.886ZM221.88 134.238C216.017 132.971 212.109 133.731 209.714 134.872C209.399 134.682 209.083 134.491 208.832 134.301C209.525 133.858 210.345 133.414 211.353 133.034C213.874 132.084 217.909 131.387 223.771 132.528C223.267 133.161 222.637 133.731 221.88 134.238Z" fill="black"/>
</svg>
