<svg width="1170" height="655" viewBox="0 0 1170 655" fill="none" xmlns="http://www.w3.org/2000/svg">
<g clip-path="url(#clip0_619_99)">
<rect width="1170" height="655" rx="24" fill="white"/>
<g filter="url(#filter0_d_619_99)">
<path fill-rule="evenodd" clip-rule="evenodd" d="M252.576 0C251.247 4.01223 249.984 8.06345 248.79 12.1528C195.266 197.299 302.314 391.731 487.463 445.8C519.687 455.085 552.456 460 585.226 460C643.666 460 701.013 445.254 753.444 416.308C835.369 370.977 894.901 297.246 920.57 207.13C941.122 138.347 939.449 66.6657 917.285 0H791.336C744.899 16.6973 691.473 47.7218 648.581 105.545C583.588 117.015 527.333 135.038 479.271 155.245C488.009 125.753 500.025 99.5376 512.586 78.2375C522.417 79.876 532.794 80.4222 542.625 80.4222C590.688 80.4222 634.927 61.8529 666.058 27.4451C673.839 18.9389 680.574 9.74316 686.244 0H641.913C641.234 0.781597 640.544 1.55565 639.842 2.32198C614.173 30.722 576.488 44.9221 536.071 42.7375C551.409 22.0504 565.115 7.6525 572.932 0H528.582C524.061 5.22296 519.23 11.0962 514.225 17.6143C513.632 11.6814 513.407 5.80114 513.542 0H475.095C474.701 20.0334 477.678 40.7 484.186 61.3067C466.709 91.3453 450.324 128.484 440.493 172.722C374.953 204.399 330.168 238.261 305.044 259.561C303.679 256.83 302.314 254.236 300.948 251.642C299.583 249.048 298.217 246.453 296.852 243.723C392.276 169.473 424.702 78.2799 431.349 0H398.58C392.25 67.9065 364.243 146.028 285.383 210.953L285.382 210.953C283.198 203.853 281.013 196.753 278.829 189.107C329.972 126.031 349.614 59.7617 353.566 0H320.4C316.935 45.7204 303.17 95.5219 270.636 144.322C265.721 104.453 268.998 62.399 281.013 21.4374C283.099 14.136 285.435 6.99017 288.004 0H252.576ZM336.722 305.984C407.177 249.184 584.134 146.507 888.893 198.938V197.846C895.447 175.453 899.27 153.061 900.909 130.122C576.488 98.4453 379.869 240.446 323.614 288.507C325.799 291.511 327.983 294.379 330.168 297.246C332.353 300.113 334.537 302.98 336.722 305.984ZM877.97 230.615C593.419 183.646 425.747 279.769 359.115 331.107C364.03 336.569 370.038 342.031 376.046 346.946C448.685 297.792 596.149 237.169 845.746 290.146C858.308 271.577 869.231 251.915 877.97 230.615ZM887.254 14.3374C856.669 15.9758 768.191 27.4451 698.828 98.4453C759.452 91.3453 827.176 89.7068 902.001 96.8068C900.362 68.9529 895.993 41.099 887.254 14.3374ZM470.532 405.385C479.271 408.661 488.009 411.392 496.748 414.123C573.757 435.969 654.589 428.869 725.59 393.915C609.804 374.254 527.333 385.723 470.532 405.385ZM429.024 385.177C496.202 354.046 603.796 332.2 768.737 367.7C788.399 353.5 806.422 337.661 822.807 319.638C658.958 287.415 544.81 308.169 474.901 334.384C445.955 345.307 422.47 357.323 403.9 369.338C411.546 374.8 420.285 380.261 429.024 385.177Z" fill="white"/>
</g>
</g>
<defs>
<filter id="filter0_d_619_99" x="-15" y="-246" width="1200" height="960" filterUnits="userSpaceOnUse" color-interpolation-filters="sRGB">
<feFlood flood-opacity="0" result="BackgroundImageFix"/>
<feColorMatrix in="SourceAlpha" type="matrix" values="0 0 0 0 0 0 0 0 0 0 0 0 0 0 0 0 0 0 127 0" result="hardAlpha"/>
<feOffset dy="4"/>
<feGaussianBlur stdDeviation="125"/>
<feColorMatrix type="matrix" values="0 0 0 0 0 0 0 0 0 0 0 0 0 0 0 0 0 0 0.05 0"/>
<feBlend mode="normal" in2="BackgroundImageFix" result="effect1_dropShadow_619_99"/>
<feBlend mode="normal" in="SourceGraphic" in2="effect1_dropShadow_619_99" result="shape"/>
</filter>
<clipPath id="clip0_619_99">
<rect width="1170" height="655" fill="white"/>
</clipPath>
</defs>
</svg>
