<svg xmlns="http://www.w3.org/2000/svg" xmlns:xlink="http://www.w3.org/1999/xlink" width="330" height="662" fill="none" xmlns:v="https://vecta.io/nano"><style><![CDATA[.S{fill:#878787}.T{fill:#fff}.U{fill:#ff6b00}.V{fill:#250608}.W{fill-rule:evenodd}.X{color-interpolation-filters:sRGB}.Y{flood-opacity:0}.Z{fill:#007aff}.a{fill:#e3e3e3}.b{stroke:#bdbdbd}.c{stroke-dasharray:1 2}.d{fill:#c4c8cc}.e{fill:#f0f0f0}.f{stroke-width:.197}.g{stroke-width:.198}.h{fill-opacity:.15}.i{stroke-width:.5}]]></style><g filter="url(#B)" class="d"><path d="M7 86.083a2.98 2.98 0 0 1 2.978-2.978c.548 0 .993.444.993.993v22.488a.99.99 0 0 1-.993.993A2.98 2.98 0 0 1 7 104.601V86.083z"/></g><g filter="url(#C)" class="d"><path d="M7 128.895c0-1.308 1.067-2.37 2.382-2.37h.794c.438 0 .794.354.794.8v41.052a.8.8 0 0 1-.794.8h-.794c-1.316 0-2.382-1.06-2.382-2.368v-37.895z"/></g><g filter="url(#D)" class="d"><path d="M7 185.737c0-1.308 1.067-2.37 2.382-2.37h.794c.438 0 .794.354.794.8v41.053a.79.79 0 0 1-.794.789h-.794A2.39 2.39 0 0 1 7 223.632v-37.895z"/></g><g filter="url(#E)"><path d="M323.824 146.263a.79.79 0 0 1 .794-.789c1.315 0 2.382 1.06 2.382 2.368v65.526c0 1.308-1.067 2.37-2.382 2.37a.79.79 0 0 1-.794-.79v-68.684z" fill="#e0e0e2"/></g><path d="M279.357 1H54.643C29.208 1 8.588 21.5 8.588 46.8v568.4c0 25.288 20.62 45.8 46.055 45.8h224.714c25.435 0 46.055-20.5 46.055-45.8V46.8c0-25.3-20.62-45.8-46.055-45.8zM18.117 46.8c0-20.057 16.353-36.316 36.526-36.316h23.094c2.736.957 4.698 3.55 4.698 6.598 0 9.655 7.872 17.48 17.583 17.48H233.2c9.7 0 17.583-7.826 17.583-17.48 0-3.048 1.96-5.64 4.697-6.598h23.888c20.173 0 36.526 16.26 36.526 36.316v568.4c0 20.056-16.353 36.315-36.526 36.315H54.643c-20.173 0-36.526-16.26-36.526-36.315V46.8z" fill="url(#J)" class="W"/><g fill="#dce0e3"><rect x="149.634" y="18.869" width="33.938" height="2.158" rx="1.079" stroke="url(#K)"/><path d="M204.217 19.948a3.46 3.46 0 0 1-6.94 0 3.46 3.46 0 0 1 6.94 0z" stroke="url(#L)"/></g><g opacity=".6" filter="url(#F)" class="W"><path d="M276.975 6.526c23.243 0 42.085 18.733 42.085 41.842V613.63c0 23.1-18.842 41.843-42.085 41.843h-57.17v1.578h57.17c24.12 0 43.673-19.44 43.673-43.42V48.368c0-23.98-19.553-43.42-43.673-43.42h-21.542v1.58h21.542z" fill="url(#M)"/></g><g opacity=".9" filter="url(#G)" class="W"><path d="M56.23 6.526c-23.242 0-42.084 18.733-42.084 41.842V613.63c0 23.1 18.842 41.843 42.084 41.843h204.863v1.578H56.23c-24.12 0-43.672-19.44-43.672-43.42V48.368c0-23.98 19.553-43.42 43.672-43.42h21.542v1.58H56.23z" fill="url(#N)"/></g><mask id="A" mask-type="alpha" maskUnits="userSpaceOnUse" x="18" y="10" width="298" height="642"><path d="M18.166 44.88l-.05 1.9V615.2c0 20.056 16.353 36.315 36.526 36.315h224.714c20.173 0 36.526-16.26 36.526-36.315V46.555c-.127-19.95-16.432-36.08-36.526-36.08H255.47c-2.736.957-4.697 3.55-4.697 6.598 0 9.655-7.872 17.48-17.583 17.48H100.017c-9.7 0-17.583-7.826-17.583-17.48 0-3.048-1.96-5.64-4.698-6.598H54.643c-9.102 0-17.426 3.3-23.82 8.785a36.66 36.66 0 0 0-6.467 7.226 35.98 35.98 0 0 0-6.189 18.395z" fill="#000" class="W"/></mask><g mask="url(#A)"><path d="M17.736 10.035h297.12V652.54H17.736V10.035z" fill="url(#O)"/><path d="M19 20h297.12v743.4H19z" class="T"/><g fill="#f9f9f9"><path d="M19 327.587h297.12v35.4H19zM19 114.4h297.12v35.4H19zm0 448.4h297.12v35.4H19z"/></g><g class="e"><path d="M19 326.8h297.12v.787H19zm0-177h297.12v.787H19zm0 212.4h297.12v.787H19zm0 200.6h297.12v.787H19zm0 35.4h297.12v.787H19z"/></g><path d="M38.808 291.4h265.427v.393H38.808z" class="a"/><g class="b c f"><use xlink:href="#T"/><use xlink:href="#T" y="-23.6"/><use xlink:href="#T" y="-47.2"/><use xlink:href="#T" y="-70.8"/><use xlink:href="#T" y="-94.4"/></g><path d="M46.73 165.533h.396v133.733h-.396z" class="a"/><g class="b c g"><use xlink:href="#U"/><use xlink:href="#U" x="39.616"/><use xlink:href="#U" x="79.232"/><use xlink:href="#U" x="118.848"/><use xlink:href="#U" x="158.454"/><use xlink:href="#U" x="198.08"/></g><g class="S"><use xlink:href="#V"/><use xlink:href="#W"/><path d="M31.27 242.642v.008h.82v-.012c0-.576.46-1.014 1.072-1.014.58 0 1.03.392 1.03.884 0 .434-.178.726-.86 1.43l-2.016 2.04v.584h3.818v-.726h-2.65v-.02l1.397-1.394c.816-.83 1.165-1.3 1.165-1.956 0-.88-.793-1.55-1.857-1.55-1.1 0-1.92.73-1.92 1.728zm2.055-22.2h.696c.735 0 1.2.368 1.2.968 0 .54-.487.925-1.168.925-.704 0-1.145-.365-1.2-.895h-.832c.054.957.828 1.614 2.03 1.614 1.164 0 2.05-.665 2.05-1.633 0-.776-.542-1.287-1.38-1.344v-.016c.692-.122 1.15-.618 1.15-1.3 0-.853-.77-1.45-1.826-1.45-1.106 0-1.845.627-1.9 1.598h.816c.05-.545.453-.9 1.056-.9.662 0 1.017.342 1.017.857 0 .522-.414.9-1.017.9h-.673v.676zm1.44-21.092h.832v-1.095h.766v-.722h-.766v-3.726h-1.254l-2.372 3.695v.753h2.793v1.095zm-1.985-1.825c.445-.802 1-1.667 1.977-3.053h.015v3.073h-2v-.02zm1.32-21.67c1.203 0 2.047-.788 2.047-1.925a1.78 1.78 0 0 0-1.841-1.855c-.545 0-1.002.2-1.246.56h-.02l.155-1.702h2.627v-.726H32.5l-.294 3.135H33c.217-.365.634-.584 1.118-.584a1.14 1.14 0 0 1 1.184 1.194 1.13 1.13 0 0 1-1.192 1.183c-.623 0-1.1-.376-1.16-.925h-.828c.05.968.867 1.644 1.98 1.644z"/><use xlink:href="#X"/><use xlink:href="#s"/><use xlink:href="#Y"/><use xlink:href="#W" x="18.162" y="40.12"/><use xlink:href="#Z"/><path d="M79.474 310.28c1.188 0 1.903-.592 1.903-1.567 0-.738-.5-1.272-1.27-1.356v-.03c.557-.092.994-.618.994-1.206 0-.837-.65-1.383-1.64-1.383h-2.228v5.543h2.24zm-1.373-4.84h1.153c.627 0 .983.284.983.8 0 .55-.414.857-1.165.857h-.97v-1.656zm0 4.137v-1.824h1.145c.82 0 1.246.307 1.246.906s-.414.918-1.195.918H78.1zm6.917-3.337h-3.385v.657H82.9v3.384h.832v-3.384h1.277v-.657z"/><use xlink:href="#Y" x="38.707"/><use xlink:href="#W" x="56.87" y="40.12"/><path d="M92.865 307.772h.696c.735 0 1.192.37 1.192.968 0 .54-.487.925-1.168.925-.704 0-1.145-.364-1.2-.895h-.832c.054.957.828 1.614 2.03 1.614 1.165 0 2.05-.665 2.05-1.633 0-.776-.542-1.287-1.38-1.344v-.016c.692-.122 1.15-.618 1.15-1.3 0-.853-.77-1.448-1.826-1.448-1.106 0-1.845.626-1.9 1.597h.816c.05-.545.453-.9 1.056-.9.662 0 1.017.342 1.017.857 0 .522-.414.9-1.017.9h-.673v.676z"/><use xlink:href="#a"/><use xlink:href="#b"/><use xlink:href="#Y" x="79.015"/><use xlink:href="#c"/><path d="M134.612 310.28h.832v-1.095h.766v-.722h-.766v-3.726h-1.253l-2.372 3.695v.753h2.793v1.095zm-1.984-1.825c.444-.802 1-1.667 1.976-3.053h.016v3.073h-1.992v-.02z"/><use xlink:href="#d"/><use xlink:href="#e"/><use xlink:href="#f"/><use xlink:href="#W" x="136.34" y="40.12"/><use xlink:href="#g"/><use xlink:href="#h"/><use xlink:href="#e" x="39.668"/><use xlink:href="#f" x="39.678"/><use xlink:href="#W" x="176.02" y="40.12"/><path d="M212.9 310.388c1.184 0 2.04-.807 2.04-1.917a1.79 1.79 0 0 0-1.853-1.832c-.696 0-1.288.36-1.532.898h-.016c.004-1.394.515-2.185 1.393-2.185.5 0 .93.296 1.064.75h.867c-.17-.884-.937-1.47-1.923-1.47-1.397 0-2.232 1.098-2.232 2.953 0 .65.116 1.195.344 1.637.364.75 1.025 1.168 1.85 1.168zm-.007-.726c-.666 0-1.18-.523-1.18-1.18s.506-1.14 1.187-1.14 1.176.484 1.176 1.157c0 .65-.526 1.164-1.183 1.164zm24.643.722c1.253 0 2.116-.646 2.356-1.744h-.87c-.197.618-.735.98-1.48.98-1.026 0-1.676-.818-1.676-2.112 0-1.283.658-2.1 1.672-2.1.723 0 1.304.426 1.485 1.083h.87c-.186-1.106-1.126-1.848-2.356-1.848-1.56 0-2.557 1.118-2.557 2.874 0 1.767 1 2.877 2.557 2.877z"/><use xlink:href="#i"/><use xlink:href="#Y" x="198.076"/><use xlink:href="#c" x="119.062"/><path d="M251.33 310.28h.9l2.425-4.798v-.745h-3.8v.726h2.944v.02l-2.48 4.798zm25.83 0c1.188 0 1.904-.592 1.904-1.567 0-.738-.5-1.272-1.27-1.356v-.03c.557-.092.994-.618.994-1.206 0-.837-.65-1.383-1.64-1.383h-2.23v5.543h2.24zm-1.373-4.84h1.153c.627 0 .983.284.983.8 0 .55-.414.857-1.165.857h-.97v-1.656zm0 4.137v-1.824h1.145c.82 0 1.246.307 1.246.906s-.414.918-1.196.918h-1.195z"/><use xlink:href="#j"/><use xlink:href="#t"/><use xlink:href="#W" x="255.243" y="40.12"/><use xlink:href="#k"/></g><path d="M46.73 291.4h237.696V197l-39.22 47.593-39.946-46.806-39.583-24.387-39.583 71.193-39.682-23.6L46.73 291.4z" fill="url(#P)" class="h"/><g stroke="#fe6227" class="i"><path d="M47.127 291.4l39.616-70.8m0 0l39.616 23.993m39.616-71.193l-39.616 71.193m39.616-71.193l39.22 23.993m40.012 47.2l-40.012-47.2m40.012 47.2L284.427 197"/></g><ellipse cx="46.929" cy="291.597" rx="4.16" ry="4.13" class="U"/><ellipse cx="46.929" cy="291.597" rx="1.891" ry="1.877" class="T"/><ellipse cx="86.545" cy="220.797" rx="4.16" ry="4.13" class="U"/><ellipse cx="86.545" cy="220.797" rx="1.891" ry="1.877" class="T"/><ellipse cx="126.161" cy="244.397" rx="4.16" ry="4.13" class="U"/><ellipse cx="126.161" cy="244.397" rx="1.891" ry="1.877" class="T"/><ellipse cx="165.777" cy="173.597" rx="4.16" ry="4.13" class="U"/><ellipse cx="165.777" cy="173.597" rx="1.891" ry="1.877" class="T"/><ellipse cx="205.393" cy="197.197" rx="4.16" ry="4.13" class="U"/><ellipse cx="205.393" cy="197.197" rx="1.891" ry="1.877" class="T"/><ellipse cx="245.009" cy="244.397" rx="4.16" ry="4.13" class="U"/><ellipse cx="245.009" cy="244.397" rx="1.891" ry="1.877" class="T"/><ellipse cx="284.625" cy="197.197" rx="4.16" ry="4.13" class="U"/><ellipse cx="284.625" cy="197.197" rx="1.891" ry="1.877" class="T"/><g class="V"><path d="M38.354 135.64h-1.208v-3.404h-4.014v3.404H31.92v-7.76h1.213v3.26h4.014v-3.26h1.208v7.76zm3.703-.877c.437 0 .8-.12 1.1-.365s.44-.55.44-.914v-.5l-1.44.092c-.404.025-.702.107-.894.247s-.287.34-.287.597.1.462.303.613.466.22.8.22zm-.298.974c-.578 0-1.05-.16-1.42-.48s-.547-.747-.547-1.274a1.5 1.5 0 0 1 .57-1.232c.37-.298.92-.473 1.625-.516l1.598-.1v-.506c0-.312-.103-.55-.3-.715s-.505-.253-.9-.253c-.325 0-.596.057-.812.172s-.352.27-.417.48H40.02a1.62 1.62 0 0 1 .742-1.199c.44-.302.997-.452 1.668-.452.737 0 1.305.174 1.706.52s.607.827.607 1.447v4h-1.12v-.823h-.092c-.177.294-.42.522-.73.683s-.654.237-1.04.237zm9.586-4.04h-1.132a1.24 1.24 0 0 0-.471-.72c-.238-.183-.545-.275-.92-.275-.487 0-.872.176-1.154.527s-.417.84-.417 1.463c0 .63.14 1.128.417 1.5s.666.537 1.154.537c.372 0 .677-.082.915-.247a1.16 1.16 0 0 0 .477-.715h1.132c-.076.602-.336 1.086-.78 1.452s-1.024.543-1.74.543c-.86 0-1.536-.27-2.03-.812s-.737-1.294-.737-2.248c0-.94.246-1.678.737-2.215s1.166-.807 2.026-.807c.72 0 1.298.186 1.74.56a2.22 2.22 0 0 1 .785 1.468zm5.425-1.914v.973h-1.858v4.883h-1.164v-4.883H51.9v-.973h4.88zm4.213-.097c.75 0 1.347.272 1.787.817s.66 1.277.66 2.205-.22 1.665-.66 2.2-1.03.818-1.777.818c-.42 0-.787-.086-1.105-.258s-.554-.418-.7-.726h-.092v2.834h-1.164v-7.803h1.12v.968h.087a1.9 1.9 0 0 1 .758-.78c.33-.2.693-.285 1.094-.285zm-.33 5.012c.495 0 .88-.176 1.16-.527s.422-.843.422-1.463-.14-1.106-.422-1.457-.663-.527-1.154-.527-.88.18-1.164.538-.428.84-.428 1.452.143 1.093.428 1.452a1.41 1.41 0 0 0 1.16.532z"/><use xlink:href="#l"/><path d="M74.867 131.07c-.26-.276-.605-.414-1.034-.414s-.784.138-1.062.414-.433.644-.466 1.102h2.98c-.014-.462-.153-.83-.417-1.102zm.412 3h1.12a2.05 2.05 0 0 1-.877 1.242c-.448.3-1.007.452-1.68.452-.845 0-1.5-.27-2-.807s-.726-1.28-.726-2.215.245-1.68.737-2.232 1.152-.828 1.982-.828c.82 0 1.462.262 1.928.785s.704 1.246.704 2.167v.403h-4.165v.065c.018.516.168.925.45 1.226s.655.452 1.12.452c.7 0 1.18-.237 1.403-.7zm2.533 1.57v-5.856h1.164v2.344h2.686v-2.344h1.165v5.856h-1.165v-2.538h-2.686v2.538h-1.164zm7.788 0h-1.154v-5.856H85.6v4.028h.092l2.692-4.028h1.154v5.856h-1.154v-4.05h-.092l-2.692 4.05zm9.05-4.57c-.26-.276-.605-.414-1.034-.414s-.784.138-1.062.414-.433.644-.466 1.102h2.98c-.014-.462-.153-.83-.417-1.102zm.412 3h1.12a2.05 2.05 0 0 1-.877 1.242c-.448.3-1.007.452-1.68.452-.845 0-1.5-.27-2-.807s-.726-1.28-.726-2.215.246-1.68.737-2.232 1.152-.828 1.982-.828c.82 0 1.462.262 1.928.785s.704 1.246.704 2.167v.403h-4.165v.065c.018.516.168.925.45 1.226s.655.452 1.12.452c.7 0 1.18-.237 1.403-.7z"/></g><path d="M38.808 503.8h265.427v.393H38.808z" class="a"/><g class="b c f"><use xlink:href="#T" y="212.4"/><use xlink:href="#T" y="188.8"/><use xlink:href="#T" y="165.2"/><use xlink:href="#T" y="141.6"/><use xlink:href="#T" y="118"/></g><path d="M46.73 377.933h.396v133.733h-.396z" class="a"/><g class="b c g"><use xlink:href="#U" y="212.4"/><use xlink:href="#U" x="39.616" y="212.4"/><use xlink:href="#U" x="79.232" y="212.4"/><use xlink:href="#U" x="118.848" y="212.4"/><use xlink:href="#U" x="158.454" y="212.4"/><use xlink:href="#U" x="198.08" y="212.4"/></g><g class="S"><use xlink:href="#V" y="212.4"/><use xlink:href="#W" y="212.4"/><path d="M31.27 455.042v.008h.82v-.012c0-.576.46-1.014 1.072-1.014.58 0 1.03.392 1.03.884 0 .434-.178.726-.86 1.428l-2.016 2.04v.584h3.82v-.726h-2.65v-.02l1.397-1.395c.816-.83 1.165-1.3 1.165-1.955 0-.88-.793-1.552-1.857-1.552-1.1 0-1.92.73-1.92 1.73zm2.055-22.2h.696c.735 0 1.192.368 1.192.968 0 .54-.487.925-1.168.925-.704 0-1.145-.365-1.2-.895h-.832c.054.957.828 1.614 2.03 1.614 1.165 0 2.05-.665 2.05-1.633 0-.776-.542-1.287-1.38-1.344v-.016c.693-.122 1.15-.618 1.15-1.3 0-.853-.77-1.448-1.826-1.448-1.106 0-1.845.626-1.9 1.597h.816c.05-.545.453-.9 1.056-.9.662 0 1.017.342 1.017.857 0 .522-.414.9-1.017.9h-.673v.676zm1.44-21.092h.832v-1.095h.766v-.722h-.766v-3.726h-1.253l-2.372 3.695v.753h2.793v1.095zm-1.985-1.824c.445-.803 1-1.668 1.977-3.054h.016v3.073H32.78v-.02zm1.32-21.672c1.203 0 2.047-.788 2.047-1.925 0-1.075-.77-1.855-1.842-1.855-.545 0-1.002.2-1.246.56h-.02l.155-1.702h2.627v-.726h-3.323l-.294 3.135h.793c.217-.365.635-.584 1.118-.584a1.14 1.14 0 0 1 1.184 1.194 1.13 1.13 0 0 1-1.192 1.183c-.623 0-1.1-.376-1.16-.925h-.828c.05.968.867 1.644 1.98 1.644z"/><use xlink:href="#X" y="212.4"/><use xlink:href="#s" y="212.4"/><use xlink:href="#Y" y="212.4"/><use xlink:href="#W" x="18.162" y="252.52"/><use xlink:href="#Z" y="212.4"/><path d="M79.474 522.68c1.188 0 1.903-.6 1.903-1.567 0-.738-.5-1.272-1.27-1.356v-.03c.557-.092.994-.618.994-1.206 0-.837-.65-1.383-1.64-1.383h-2.228v5.543h2.24zm-1.373-4.84h1.153c.627 0 .983.284.983.8 0 .55-.414.857-1.165.857h-.97v-1.656zm0 4.137v-1.824h1.145c.82 0 1.246.307 1.246.906s-.414.918-1.195.918H78.1zm6.917-3.337h-3.385v.657H82.9v3.384h.832v-3.384h1.277v-.657z"/><use xlink:href="#Y" x="38.707" y="212.4"/><use xlink:href="#W" x="56.87" y="252.52"/><path d="M92.865 520.172h.696c.735 0 1.192.37 1.192.968 0 .54-.487.925-1.168.925-.704 0-1.145-.364-1.2-.895h-.832c.054.957.828 1.614 2.03 1.614 1.165 0 2.05-.665 2.05-1.633 0-.776-.542-1.287-1.38-1.344v-.015c.692-.123 1.15-.62 1.15-1.3 0-.853-.77-1.448-1.826-1.448-1.106 0-1.845.626-1.9 1.597h.816c.05-.545.453-.9 1.056-.9.662 0 1.017.342 1.017.857 0 .522-.414.9-1.017.9h-.673v.676z"/><use xlink:href="#a" y="212.4"/><use xlink:href="#b" y="212.4"/><use xlink:href="#Y" x="79.015" y="212.4"/><use xlink:href="#c" y="212.4"/><path d="M134.612 522.68h.832v-1.095h.766v-.722h-.766v-3.726h-1.253l-2.372 3.695v.753h2.793v1.095zm-1.984-1.824c.444-.803 1-1.668 1.976-3.054h.016v3.073h-1.992v-.02z"/><use xlink:href="#d" y="212.4"/><use xlink:href="#e" y="212.4"/><use xlink:href="#f" y="212.4"/><use xlink:href="#W" x="136.34" y="252.52"/><use xlink:href="#g" y="212.4"/><use xlink:href="#h" y="212.4"/><use xlink:href="#e" x="39.668" y="212.4"/><use xlink:href="#f" x="39.678" y="212.4"/><use xlink:href="#W" x="176.02" y="252.52"/><path d="M212.9 522.788c1.184 0 2.04-.807 2.04-1.917a1.79 1.79 0 0 0-1.853-1.832c-.696 0-1.288.36-1.532.898h-.016c.004-1.394.515-2.185 1.393-2.185.5 0 .93.296 1.064.75h.867c-.17-.884-.937-1.47-1.923-1.47-1.397 0-2.232 1.098-2.232 2.954 0 .65.116 1.194.344 1.636.364.75 1.025 1.168 1.85 1.168zm-.007-.726c-.666 0-1.18-.523-1.18-1.18s.506-1.14 1.187-1.14a1.12 1.12 0 0 1 1.176 1.156c0 .65-.526 1.164-1.183 1.164z"/><use xlink:href="#a" x="119.136" y="212.4"/><use xlink:href="#i" y="212.4"/><use xlink:href="#Y" x="198.076" y="212.4"/><use xlink:href="#c" x="119.062" y="212.4"/><path d="M251.33 522.68h.9l2.425-4.798v-.745h-3.8v.726h2.944v.02l-2.48 4.798z"/><use xlink:href="#m"/><use xlink:href="#j" y="212.4"/><use xlink:href="#t" y="212.4"/><use xlink:href="#W" x="255.243" y="252.52"/><use xlink:href="#k" y="212.4"/></g><path d="M46.73 503.8h237.696v-94.4l-39.22 47.593-39.946-46.806-39.583-24.387-39.583 71.193-39.682-23.6L46.73 456.6v47.2z" fill="url(#Q)" class="h"/><g stroke="#fe6227" class="i"><path d="M47.127 456.6L86.743 433m0 0l39.616 23.993m39.616-71.193l-39.616 71.193m39.616-71.193l39.22 23.993m40.012 47.2l-40.012-47.2m40.012 47.2l39.22-47.593"/></g><path d="M46.73 503.8h237.696v-23.6l-39.22-46.413L204.8 409.4l-39.12 24.387-39.583 46.413-39.682-70.8-39.65 70.8-.033 23.6z" fill="url(#R)" class="h"/><g stroke="#007aff" class="i"><path d="M47.127 480.2l39.22-70.407m40.013 70.8l-40.012-70.8m40.012 70.8l39.616-47.2m39.614-23.6l-39.616 23.6m39.616-23.6l39.22 23.6m39.617 46.807l-39.616-46.807"/></g><rect x="30.885" y="547.067" width="7.867" height="7.923" rx="3.933" transform="rotate(270 30.885 547.067)" class="U"/><g class="V"><path d="M48.182 546.28h-.7v-5.543h3.312v.63h-2.6v4.913z"/><use xlink:href="#n"/><path d="M56.628 544.463l-.077.63a2.65 2.65 0 0 1-.143.51 1.25 1.25 0 0 1-.224.392.89.89 0 0 1-.33.234 1.15 1.15 0 0 1-.453.085.63.63 0 0 1-.244-.043v-.607a.65.65 0 0 0 .209.031c.196 0 .342-.105.437-.315s.16-.524.2-.933l.163-2.3h2.727v4.14h-.665v-3.588H56.76l-.132 1.77z"/><use xlink:href="#n" x="8.983"/><path d="M66.33 542.692h-1.017v1.168h.9c.524 0 .785-.197.785-.6a.54.54 0 0 0-.17-.423c-.1-.102-.28-.154-.507-.154zm-.05 1.72h-.967v1.314h1.095c.255 0 .45-.055.58-.165s.2-.274.2-.484c0-.228-.076-.396-.228-.503s-.377-.162-.68-.162zm-1.633 1.867v-4.14h1.768c.4 0 .695.096.917.288s.333.447.333.772a.89.89 0 0 1-.197.561.81.81 0 0 1-.484.311v.062a.99.99 0 0 1 .631.319c.157.174.236.386.236.637 0 .364-.126.653-.38.868s-.602.323-1.048.323h-1.776zm4.183.001v-4.14h.665v1.713h2.08v-1.713h.666v4.14h-.666v-1.874h-2.08v1.874h-.665zm8.1 0v-4.14h.665v4.14h-.665zm-2.08-2.26h-.785v1.706h.785c.273 0 .5-.077.654-.23s.248-.363.248-.622-.082-.465-.248-.618-.38-.235-.654-.235zm-1.45 2.26v-4.14h.665v1.33h.785c.477 0 .858.127 1.14.38s.425.595.425 1.025-.142.772-.425 1.026-.664.38-1.14.38H73.4zm7.03-3.63c-.333 0-.606.1-.82.334s-.334.518-.36.884h2.298c-.008-.366-.114-.66-.317-.884s-.47-.334-.8-.334zm1.1 2.558h.665a1.44 1.44 0 0 1-.615.842c-.307.202-.687.303-1.14.303-.578 0-1.036-.192-1.373-.576s-.507-.908-.507-1.564.17-1.174.5-1.563.797-.584 1.37-.584c.562 0 1.005.186 1.327.557s.484.88.484 1.525v.254h-3v.03c.018.4.134.735.348.976s.502.36.855.36c.54 0 .898-.187 1.076-.56zm4.565.154c.22.264.53.396.928.396s.708-.132.925-.396.33-.635.33-1.114c0-.456-.1-.808-.33-1.056s-.525-.377-.925-.377-.7.126-.928.377-.325.6-.325 1.056c0 .48.108.85.325 1.114zm-.445-2.374h.062a1.5 1.5 0 0 1 .557-.557c.237-.138.522-.207.855-.207.555 0 1 .182 1.335.545s.507.854.507 1.48c0 .653-.174 1.168-.522 1.544s-.82.56-1.42.56c-.627 0-1.108-.207-1.443-.622s-.5-1.044-.5-1.88a8.44 8.44 0 0 1 .058-1.052 3.49 3.49 0 0 1 .205-.85 1.97 1.97 0 0 1 .383-.653 1.65 1.65 0 0 1 .6-.407c.245-.103.53-.16.86-.177l.418-.02a3.89 3.89 0 0 0 .561-.069l.395-.1.132-.054v.592a.77.77 0 0 1-.089.061c-.04.023-.152.058-.333.104a3.44 3.44 0 0 1-.635.081l-.426.02a2.1 2.1 0 0 0-.692.134 1.06 1.06 0 0 0-.457.334 1.68 1.68 0 0 0-.267.504 3.62 3.62 0 0 0-.143.687zm5.08 2.366c.214.27.518.404.913.404s.7-.135.913-.404.32-.653.32-1.144-.107-.872-.32-1.14-.518-.407-.913-.407-.7.135-.913.407-.32.65-.32 1.14.107.873.32 1.144zm2.317.427c-.343.38-.8.572-1.404.572s-1.063-.2-1.408-.572-.514-.908-.514-1.57.17-1.2.514-1.57.813-.573 1.408-.573 1.065.2 1.408.573.514.905.514 1.57-.173 1.187-.518 1.57zm2.44-1.318l-.077.63a2.81 2.81 0 0 1-.143.511 1.25 1.25 0 0 1-.224.392.89.89 0 0 1-.33.234 1.15 1.15 0 0 1-.453.085.63.63 0 0 1-.244-.043v-.607a.65.65 0 0 0 .209.031c.196 0 .342-.105.437-.315s.16-.524.2-.933l.162-2.3h2.727v4.14h-.665V542.7h-1.46l-.132 1.77zm4.086 1.817h-.665v-4.14h.665v3.1h.062l2.077-3.1h.666v4.14h-.666v-3.088h-.06l-2.078 3.088z"/></g><rect x="114.078" y="547.067" width="7.867" height="7.923" rx="3.933" transform="rotate(270 114.078 547.067)" class="Z"/><g class="V"><path d="M134.494 544.617c0 .5-.168.888-.503 1.198s-.76.465-1.284.465h-2.03v-5.543h3.26v.623h-2.565v1.586h1.327c.526 0 .957.156 1.292.47a1.56 1.56 0 0 1 .503 1.202zm-3.122 1.04h1.153c.4 0 .708-.1.924-.27s.33-.44.33-.772-.1-.594-.33-.776-.524-.273-.924-.273h-1.153v2.1zm4.898-.303c.214.27.518.404.913.404s.7-.135.913-.404.32-.653.32-1.144-.107-.872-.32-1.14-.518-.407-.913-.407-.7.135-.913.407-.32.65-.32 1.14.107.873.32 1.144zm2.317.427c-.343.38-.8.572-1.404.572s-1.063-.2-1.408-.572-.515-.908-.515-1.57.172-1.2.515-1.57.812-.573 1.408-.573 1.065.2 1.408.573.515.905.515 1.57-.173 1.187-.52 1.57zm2.443-1.318l-.078.63a2.65 2.65 0 0 1-.143.51 1.25 1.25 0 0 1-.224.392.9.9 0 0 1-.33.234 1.15 1.15 0 0 1-.453.085.62.62 0 0 1-.244-.043v-.607a.65.65 0 0 0 .209.031c.196 0 .342-.105.438-.315s.16-.523.2-.933l.163-2.3h2.727v4.14h-.665V542.7h-1.46l-.13 1.77z"/><use xlink:href="#o"/><path d="M152.848 542.692h-1.017v1.168h.9c.523 0 .785-.197.785-.6 0-.18-.057-.32-.17-.423s-.28-.154-.507-.154zm-.05 1.72h-.967v1.314h1.094c.256 0 .45-.055.58-.165s.2-.274.2-.484c0-.228-.076-.396-.228-.503s-.377-.162-.68-.162zm-1.633 1.867v-4.14h1.768c.4 0 .695.096.917.288s.333.447.333.772a.89.89 0 0 1-.197.56.81.81 0 0 1-.484.311v.062c.263.036.473.142.63.32s.236.386.236.637c0 .364-.127.653-.38.868s-.602.323-1.048.323h-1.776zm9.715-2.872h-.673a.94.94 0 0 0-.368-.534c-.185-.14-.42-.2-.708-.2-.374 0-.672.138-.893.415s-.33.65-.33 1.117c0 .477.1.857.332 1.14s.52.423.9.423c.28 0 .515-.063.7-.2s.313-.304.375-.537h.673a1.48 1.48 0 0 1-.553.956c-.307.243-.704.365-1.192.365-.585 0-1.05-.195-1.396-.584s-.52-.917-.52-1.575c0-.645.173-1.16.52-1.548s.8-.58 1.392-.58c.488 0 .885.127 1.192.38s.495.573.557.96zm3.606 2.873v-3.588h-2.043v3.588h-.665v-4.14h3.373v4.14h-.665z"/><use xlink:href="#o" x="21.866"/><path d="M170.955 546.28v-4.14h.665v1.713h2.08v-1.713h.666v4.14h-.666v-1.874h-2.08v1.874h-.665zm6.245-3.63a1.09 1.09 0 0 0-.82.334c-.214.223-.334.518-.36.884h2.298c-.008-.366-.113-.66-.317-.884s-.47-.334-.8-.334zm1.1 2.558h.665a1.44 1.44 0 0 1-.615.842c-.307.202-.687.303-1.14.303-.578 0-1.036-.192-1.374-.576s-.507-.908-.507-1.563.17-1.175.5-1.564.797-.584 1.37-.584c.562 0 1.004.186 1.327.557s.483.88.483 1.525v.254h-2.998v.03c.018.4.134.735.348.976s.502.36.855.36c.54 0 .898-.187 1.076-.56z"/></g><ellipse cx="46.929" cy="456.797" rx="4.16" ry="4.13" class="U"/><ellipse cx="46.929" cy="456.797" rx="1.891" ry="1.877" class="T"/><ellipse cx="86.545" cy="433.197" rx="4.16" ry="4.13" class="U"/><ellipse cx="86.545" cy="433.197" rx="1.891" ry="1.877" class="T"/><ellipse cx="126.161" cy="456.797" rx="4.16" ry="4.13" class="U"/><ellipse cx="126.161" cy="456.797" rx="1.891" ry="1.877" class="T"/><ellipse cx="165.777" cy="385.997" rx="4.16" ry="4.13" class="U"/><ellipse cx="165.777" cy="385.997" rx="1.891" ry="1.877" class="T"/><ellipse cx="205.393" cy="409.597" rx="4.16" ry="4.13" class="U"/><ellipse cx="205.393" cy="409.597" rx="1.891" ry="1.877" class="T"/><ellipse cx="245.009" cy="456.797" rx="4.16" ry="4.13" class="U"/><ellipse cx="245.009" cy="456.797" rx="1.891" ry="1.877" class="T"/><ellipse cx="284.625" cy="409.597" rx="4.16" ry="4.13" class="U"/><ellipse cx="284.625" cy="409.597" rx="1.891" ry="1.877" class="T"/><ellipse cx="284.625" cy="480.397" rx="4.16" ry="4.13" class="Z"/><ellipse cx="284.625" cy="480.397" rx="1.891" ry="1.877" class="T"/><ellipse cx="245.009" cy="433.197" rx="4.16" ry="4.13" class="Z"/><ellipse cx="245.009" cy="433.197" rx="1.891" ry="1.877" class="T"/><ellipse cx="205.393" cy="409.597" rx="4.16" ry="4.13" fill="url(#S)"/><ellipse cx="205.393" cy="409.597" rx="1.891" ry="1.877" class="T"/><ellipse cx="165.777" cy="433.197" rx="4.16" ry="4.13" class="Z"/><ellipse cx="165.777" cy="433.197" rx="1.891" ry="1.877" class="T"/><ellipse cx="126.161" cy="480.397" rx="4.16" ry="4.13" class="Z"/><ellipse cx="126.161" cy="480.397" rx="1.891" ry="1.877" class="T"/><ellipse cx="86.545" cy="409.597" rx="4.16" ry="4.13" class="Z"/><ellipse cx="86.545" cy="409.597" rx="1.891" ry="1.877" class="T"/><ellipse cx="46.929" cy="480.397" rx="4.16" ry="4.13" class="Z"/><ellipse cx="46.929" cy="480.397" rx="1.891" ry="1.877" class="T"/><g class="V"><path d="M35.126 348.228c-1.087 0-1.946-.364-2.578-1.1s-.948-1.72-.948-2.974.314-2.252.942-2.98 1.5-1.092 2.578-1.092c.86 0 1.6.25 2.194.753a2.88 2.88 0 0 1 1.056 1.936h-1.208a1.98 1.98 0 0 0-.726-1.14c-.368-.283-.803-.425-1.316-.425-.7 0-1.257.265-1.668.796s-.612 1.244-.612 2.15.204 1.62.612 2.15.97.8 1.674.8c.516 0 .957-.13 1.322-.387s.607-.606.715-1.043h1.208a2.78 2.78 0 0 1-1.05 1.855c-.6.47-1.323.7-2.194.7zm5.9-.188h-1.154v-5.856h1.154v4.028h.092l2.692-4.028h1.154v5.856H43.8V344h-.092l-2.692 4.05zm6.7 0h-1.132v-5.856h1.462l1.9 4.2h.092l1.907-4.2h1.425v5.856h-1.137V344h-.103l-1.728 3.802h-.856L47.83 344h-.103v4.04zm11.086 0v-4.883H56.18v4.883h-1.164v-5.856h4.96v5.856h-1.164zm7.192-5.856v.973h-1.858v4.883H62.98v-4.883h-1.858v-.973h4.88z"/><use xlink:href="#l" x="2.167" y="212.4"/><path d="M74.705 348.04h-1.132v-5.856h1.462l1.9 4.2h.092l1.907-4.2h1.424v5.856H79.22V344h-.103l-1.728 3.802h-.856L74.808 344h-.103v4.04zm12.483 0v-5.856h1.16v5.856h-1.16zm-2.995-3.092H83.16v2.12h1.034c.354 0 .636-.097.845-.3s.314-.45.314-.77-.107-.575-.32-.77-.5-.3-.84-.3zm-2.2 3.092v-5.856h1.165v1.796h1.12c.683 0 1.226.183 1.63.548s.607.86.607 1.48-.202 1.115-.607 1.485-.948.548-1.63.548h-2.286z"/></g><g stroke="#f0f0f0"><path d="M30.983 645.498h273.154v.197H30.983zm0-31.466h273.154v.197H30.983z" class="f"/><g class="g"><path d="M280.565 645.5h.198v62.735h-.198zm-23.77 0h.198v62.735h-.198zm-23.77 0h.198v62.735h-.198zm-23.77 0h.198v62.735h-.198zm-23.77 0h.198v62.735h-.198zm-23.77 0h.198v62.735h-.198zm-23.77 0h.198v62.735h-.198z"/><use xlink:href="#p"/><use xlink:href="#p" x="-23.77"/><use xlink:href="#p" x="-47.54"/><use xlink:href="#p" x="-71.309"/><use xlink:href="#p" x="-95.079"/><use xlink:href="#p" x="-118.849"/><use xlink:href="#p" x="-142.618"/></g></g><g class="V"><use xlink:href="#X" x="108.426" y="316.24"/><path d="M153.387 626.52h.832v-4.04h-.832v1.63h-1.842v-1.63h-.832v4.04h.832v-1.76h1.842v1.76z"/><use xlink:href="#c" x="17.645" y="328.04"/><path d="M149.557 634.402v.008h.82v-.012c0-.576.46-1.014 1.072-1.014.58 0 1.03.392 1.03.884 0 .434-.178.726-.86 1.43l-2.016 2.04v.584h3.82v-.726h-2.65v-.02l1.396-1.394c.816-.83 1.165-1.3 1.165-1.956 0-.88-.793-1.55-1.857-1.55-1.1 0-1.92.73-1.92 1.728zm22.5-7.882c1.187 0 1.903-.6 1.903-1.567 0-.738-.5-1.272-1.27-1.356v-.03c.557-.092.995-.618.995-1.206 0-.837-.65-1.383-1.64-1.383h-2.228v5.543h2.24zm-1.374-4.84h1.153c.627 0 .983.284.983.8 0 .55-.414.857-1.165.857h-.97v-1.656zm0 4.137v-1.824h1.146c.82 0 1.245.307 1.245.906s-.414.918-1.195.918h-1.196z"/><use xlink:href="#e" x="13.1" y="316.24"/><use xlink:href="#W" x="138.488" y="368.16"/><path d="M174.483 635.812h.697c.735 0 1.2.37 1.2.968 0 .54-.487.925-1.168.925-.704 0-1.145-.364-1.2-.895h-.832c.054.957.828 1.614 2.03 1.614 1.164 0 2.05-.665 2.05-1.633 0-.776-.54-1.286-1.38-1.344v-.015c.693-.123 1.15-.62 1.15-1.3 0-.853-.77-1.448-1.826-1.448-1.106 0-1.845.626-1.9 1.597h.816c.05-.545.453-.9 1.056-.9.662 0 1.018.342 1.018.857 0 .522-.414.9-1.018.9h-.673v.676zm20.7-9.188c1.254 0 2.117-.646 2.357-1.744h-.87c-.197.618-.735.98-1.482.98-1.025 0-1.675-.818-1.675-2.112 0-1.283.658-2.1 1.67-2.1.724 0 1.304.426 1.486 1.083h.87c-.186-1.106-1.126-1.847-2.357-1.847-1.56 0-2.557 1.117-2.557 2.873 0 1.767 1 2.877 2.557 2.877zm5.084-4.2c-.588 0-1.056.296-1.296.76h-.015v-.695h-.8v5.378h.836v-2h.02c.232.45.696.733 1.28.733 1.02 0 1.698-.8 1.698-2.1s-.68-2.086-1.714-2.086zm-.22 3.472c-.643 0-1.068-.545-1.068-1.386 0-.834.43-1.387 1.068-1.387.66 0 1.075.542 1.075 1.387s-.414 1.386-1.075 1.386z"/><use xlink:href="#c" x="65.018" y="328.04"/><path d="M199.63 638.32h.832v-1.095h.766v-.722h-.766v-3.726h-1.254l-2.37 3.695v.753h2.793v1.095zm-1.985-1.825c.445-.802 1-1.667 1.977-3.053h.016v3.073h-1.993v-.02zm23.762-9.975v-5.543h-.867v2.297c-.243.242-.688.473-1.296.473-.87 0-1.342-.496-1.342-1.306v-1.464h-.867v1.495c0 1.152.735 2.043 2.132 2.043.6 0 1.06-.207 1.32-.407h.054v2.412h.867zm3.94-4.04h-3.386v.657h1.277v3.384h.832v-3.384h1.277v-.657z"/><use xlink:href="#W" x="186.05" y="368.16"/><path d="M222.83 638.424c1.203 0 2.047-.788 2.047-1.925 0-1.075-.77-1.855-1.842-1.855-.546 0-1.002.21-1.246.56h-.02l.155-1.702h2.627v-.726h-3.324l-.294 3.135h.793c.217-.365.635-.584 1.118-.584.697 0 1.184.5 1.184 1.194a1.13 1.13 0 0 1-1.191 1.183c-.623 0-1.1-.376-1.16-.925h-.828c.05.968.867 1.644 1.98 1.644z"/><use xlink:href="#h" x="45.07" y="316.24"/><use xlink:href="#e" x="84.74" y="316.24"/><use xlink:href="#c" x="112.58" y="328.04"/><path d="M246.64 638.428c1.184 0 2.04-.807 2.04-1.917a1.79 1.79 0 0 0-1.853-1.832c-.697 0-1.288.36-1.532.898h-.016c.004-1.394.515-2.185 1.393-2.185.5 0 .93.296 1.064.75h.867c-.17-.884-.937-1.47-1.923-1.47-1.397 0-2.232 1.098-2.232 2.954 0 .65.116 1.194.344 1.636.364.75 1.025 1.168 1.85 1.168zm-.008-.726c-.665 0-1.18-.523-1.18-1.18s.507-1.14 1.188-1.14 1.176.484 1.176 1.156c0 .65-.526 1.164-1.184 1.164zm19.912-11.078c1.253 0 2.116-.646 2.356-1.744h-.87c-.197.618-.735.98-1.48.98-1.026 0-1.675-.818-1.675-2.112 0-1.283.657-2.1 1.67-2.1.723 0 1.304.426 1.485 1.083h.87c-.186-1.106-1.126-1.848-2.356-1.848-1.56 0-2.557 1.118-2.557 2.874 0 1.767 1 2.877 2.557 2.877zm4.774-.027c1.2 0 1.938-.78 1.938-2.05 0-1.2-.704-1.952-1.803-1.952-.638 0-1.13.262-1.388.738h-.03c.15-1.14.495-1.625 1.582-1.663l.356-.012c.5-.02.913-.12 1.017-.215v-.688c-.185.1-.626.18-1.064.2l-.363.012c-1.548.053-2.205.964-2.205 3.207 0 1.598.688 2.424 1.96 2.424zm-.008-.695c-.696 0-1.098-.484-1.098-1.345 0-.818.406-1.287 1.098-1.287s1.1.47 1.1 1.287c0 .86-.402 1.345-1.1 1.345z"/><use xlink:href="#c" x="136.592" y="328.04"/><path d="M268.85 638.32h.9l2.426-4.798v-.745h-3.8v.726h2.945v.02l-2.48 4.798z"/><use xlink:href="#m" x="13.5" y="103.84"/><use xlink:href="#j" x="13.502" y="316.24"/><path d="M290.015 638.32h.848v-5.543h-.855l-1.47 1.037v.845l1.46-1.03h.02v4.7zm4.067.104c1.238 0 2.112-.66 2.112-1.602 0-.703-.5-1.27-1.242-1.425v-.02c.62-.177 1.014-.653 1.014-1.24 0-.85-.786-1.463-1.884-1.463s-1.888.618-1.888 1.46c0 .596.398 1.076 1.017 1.245v.02c-.74.154-1.242.718-1.242 1.425 0 .937.867 1.602 2.113 1.602zm0-.692c-.712 0-1.22-.407-1.22-.97s.507-.98 1.22-.98 1.214.407 1.214.98c0 .564-.503.97-1.214.97zm0-2.642c-.608 0-1.03-.36-1.03-.865s.422-.868 1.03-.868 1.03.36 1.03.868-.43.865-1.03.865zM37.774 584.04H36.56v-6.663H33.9l-.227 3.684c-.03.487-.087.912-.173 1.274s-.2.674-.374.947-.374.476-.634.613-.57.204-.932.204a1.37 1.37 0 0 1-.45-.064v-1.13a1.3 1.3 0 0 0 .314.038c.166 0 .312-.032.44-.097a.87.87 0 0 0 .303-.263c.08-.112.144-.253.195-.425a3.81 3.81 0 0 0 .12-.533l.06-.64.265-4.705h4.956v7.76zM43 579.47c-.26-.276-.605-.414-1.034-.414s-.784.138-1.062.414-.433.643-.466 1.102h2.98c-.014-.462-.153-.83-.417-1.102zm.412 3h1.12a2.05 2.05 0 0 1-.877 1.242c-.448.3-1.008.452-1.68.452-.845 0-1.5-.27-2-.807s-.726-1.28-.726-2.215.246-1.68.737-2.232 1.152-.828 1.982-.828c.82 0 1.462.26 1.928.785s.704 1.246.704 2.167v.403h-4.165v.065c.018.516.168.925.45 1.226s.655.452 1.12.452c.7 0 1.18-.237 1.403-.7zm7.158 1.57h-1.164v-2.57h-.087c-.412.395-.93.592-1.554.592s-1.125-.192-1.5-.575-.542-.906-.542-1.555v-1.747h1.164v1.645c0 .366.096.655.287.866s.46.312.802.312a2.05 2.05 0 0 0 .552-.07 1.53 1.53 0 0 0 .428-.188 2.09 2.09 0 0 0 .271-.21 1.3 1.3 0 0 0 .168-.199v-2.156h1.164v5.856zm5.1-4.57c-.26-.276-.605-.414-1.034-.414s-.784.138-1.062.414-.433.643-.466 1.102h2.98c-.014-.462-.154-.83-.417-1.102zm.412 3h1.12a2.05 2.05 0 0 1-.877 1.242c-.448.3-1.007.452-1.68.452-.845 0-1.5-.27-2-.807s-.726-1.28-.726-2.215.245-1.68.737-2.232 1.152-.828 1.982-.828c.82 0 1.462.26 1.928.785s.704 1.246.704 2.167v.403H53.1v.065c.018.516.168.925.45 1.226s.655.452 1.12.452c.7 0 1.18-.237 1.403-.7zm2.534 1.57v-5.856h1.164v2.344h2.686v-2.344h1.164v5.856h-1.164v-2.538H59.78v2.538h-1.164zm7.798 0H65.26v-5.856h1.154v4.028h.092l2.692-4.028h1.154v5.856h-1.154V580h-.092l-2.692 4.05zm9.038-4.57c-.26-.276-.605-.414-1.035-.414s-.783.138-1.062.414-.433.643-.466 1.102h2.98c-.015-.462-.154-.83-.417-1.102zm.412 3h1.12a2.05 2.05 0 0 1-.877 1.242c-.448.3-1.007.452-1.68.452-.845 0-1.5-.27-2-.807s-.726-1.28-.726-2.215.246-1.68.737-2.232 1.152-.828 1.982-.828c.82 0 1.462.26 1.928.785s.704 1.246.704 2.167v.403H72.9v.065c.018.516.168.925.45 1.226s.655.452 1.12.452c.7 0 1.18-.237 1.403-.7z"/></g><path d="M19 114.4h297.12v.787H19z" class="e"/><g class="V"><path d="M212.743 96.307h-.964V89.43h-4.18v6.878h-.98v-7.76h6.126v7.76zm2.95-1.297c.3.377.725.565 1.278.565s.978-.188 1.278-.565.45-.914.45-1.602-.15-1.22-.45-1.597-.726-.57-1.278-.57-.98.2-1.278.57-.45.9-.45 1.597.15 1.222.45 1.602zm3.244.597c-.48.534-1.136.8-1.966.8s-1.488-.267-1.972-.8-.72-1.27-.72-2.2.24-1.665.72-2.2 1.138-.8 1.972-.8 1.5.267 1.97.8.72 1.267.72 2.2-.242 1.662-.726 2.2zm6.97-3.323h-.942a1.32 1.32 0 0 0-.515-.748c-.26-.197-.6-.296-1-.296a1.52 1.52 0 0 0-1.251.581c-.307.387-.46.9-.46 1.565s.155 1.2.465 1.597.726.592 1.246.592c.394 0 .72-.088.98-.263a1.26 1.26 0 0 0 .525-.753h.942a2.07 2.07 0 0 1-.774 1.339c-.43.34-.986.5-1.668.5-.82 0-1.472-.272-1.956-.817s-.725-1.283-.725-2.205c0-.903.24-1.626.725-2.167s1.134-.812 1.95-.812c.683 0 1.24.178 1.668.532s.694.803.78 1.344zm2.723 1.48l-.108.882c-.047.255-.114.493-.2.715a1.73 1.73 0 0 1-.315.548c-.122.14-.276.25-.46.328a1.61 1.61 0 0 1-.634.118c-.133 0-.247-.02-.34-.06v-.85a.93.93 0 0 0 .293.043c.274 0 .478-.147.612-.44s.225-.733.265-1.307l.228-3.232h3.818v5.797h-.932v-5.023h-2.042l-.184 2.48zm7.186-2.538c-.466 0-.848.156-1.148.468s-.468.724-.504 1.237h3.218c-.01-.513-.16-.925-.445-1.237s-.66-.468-1.12-.468zm1.538 3.58h.932a2.01 2.01 0 0 1-.861 1.178c-.43.283-.962.425-1.598.425-.8 0-1.45-.27-1.923-.807s-.7-1.27-.7-2.2.238-1.644.715-2.2 1.116-.817 1.917-.817c.787 0 1.407.26 1.858.78s.677 1.23.677 2.135v.355h-4.198v.043c.026.574.188 1.03.488 1.366s.702.505 1.197.505c.754 0 1.256-.262 1.505-.785zm6.13.727v-4.248h-2.215l-.184 2.48c-.06.782-.222 1.343-.482 1.683v.086h2.88zm-3.58 2.307h-.877v-2.307h.487c.202-.133.36-.36.477-.678s.188-.694.216-1.113l.228-3.232h3.98v5.023h.93v2.307h-.877v-1.533h-4.566v1.533zm6.5-1.532V90.5h.932v2.398h2.914V90.5h.93v5.797h-.93v-2.624h-2.914v2.624h-.932zm8.48-2.85h1.1v-2.172h-1.1c-.387 0-.694.1-.92.3s-.34.47-.34.823a.95.95 0 0 0 .346.758c.23.194.536.3.916.3zm1.1 2.85V94.23h-1.002l-1.5 2.076h-1.1l1.63-2.248c-.412-.115-.735-.316-.97-.602s-.352-.63-.352-1.027c0-.595.197-1.063.6-1.404s.932-.516 1.604-.516h2.03v5.797h-.932zm4.634-2.85h1.1v-2.172h-1.1c-.386 0-.693.1-.92.3s-.34.47-.34.823a.95.95 0 0 0 .347.758c.23.194.536.3.915.3zm1.1 2.85V94.23h-1.002l-1.5 2.076h-1.1l1.63-2.248c-.412-.115-.735-.316-.97-.602s-.352-.63-.352-1.027c0-.595.197-1.063.6-1.404s.93-.516 1.603-.516h2.03v5.797h-.932zm5.597 0V90.5h.932v2.398h2.914V90.5h.93v5.797h-.93v-2.624h-2.914v2.624h-.932zm8.805-5.082c-.466 0-.85.156-1.15.468s-.467.724-.503 1.237h3.217c-.01-.513-.16-.925-.444-1.237s-.66-.468-1.12-.468zm1.538 3.58h.93a2.01 2.01 0 0 1-.861 1.178c-.43.283-.962.425-1.598.425-.808 0-1.45-.27-1.922-.807s-.7-1.27-.7-2.2.238-1.644.715-2.2 1.116-.817 1.917-.817c.788 0 1.407.26 1.858.78s.677 1.23.677 2.135v.355h-4.197v.043c.025.574.187 1.03.487 1.366s.702.505 1.197.505c.755 0 1.257-.262 1.506-.785zm6.132.727v-4.248h-2.216l-.184 2.48c-.06.782-.222 1.343-.482 1.683v.086h2.882zm-3.58 2.307h-.877v-2.307h.487c.203-.133.36-.36.477-.678s.188-.694.217-1.113l.227-3.232h3.98v5.023h.932v2.307h-.878v-1.533h-4.566v1.533zm8.842-6.614c-.466 0-.85.156-1.15.468s-.467.724-.503 1.237h3.217c-.01-.513-.16-.925-.444-1.237s-.66-.468-1.12-.468zm1.538 3.58h.932a2.01 2.01 0 0 1-.862 1.178c-.43.283-.962.425-1.597.425-.8 0-1.45-.27-1.923-.807s-.7-1.27-.7-2.2.24-1.644.715-2.2 1.116-.817 1.918-.817c.787 0 1.406.26 1.857.78s.677 1.23.677 2.135v.355H287.4v.043c.025.574.188 1.03.487 1.366s.703.505 1.197.505c.755 0 1.257-.262 1.506-.785zm3.817-1.042l-.108.882c-.047.255-.114.493-.2.715a1.73 1.73 0 0 1-.314.548c-.123.14-.276.25-.46.328s-.396.118-.634.118a.88.88 0 0 1-.341-.059v-.85c.086.03.184.043.292.043.275 0 .48-.147.612-.44.138-.298.226-.733.266-1.307l.227-3.232h3.82v5.797h-.932v-5.023H294.6l-.184 2.48zm6.86-.306h1.1v-2.172h-1.1c-.386 0-.693.1-.92.3s-.34.47-.34.823a.95.95 0 0 0 .347.758c.23.194.536.3.915.3zm1.1 2.85V94.23h-1.003l-1.5 2.076h-1.1l1.63-2.248c-.412-.115-.735-.316-.97-.602s-.352-.63-.352-1.027c0-.595.197-1.063.6-1.404s.93-.516 1.603-.516h2.03v5.797h-.93zm-244.318 0h-1.202V89.65h-3.9v6.657h-1.22v-7.76h6.332v7.76zm5.235-4.57c-.26-.276-.605-.414-1.035-.414s-.784.138-1.062.414-.433.644-.466 1.102h2.98c-.014-.462-.154-.83-.417-1.102zm.412 3h1.12a2.05 2.05 0 0 1-.877 1.242c-.448.3-1.007.452-1.68.452-.845 0-1.5-.27-2-.807s-.726-1.28-.726-2.215.245-1.68.737-2.232 1.152-.828 1.982-.828c.82 0 1.462.262 1.928.785s.704 1.246.704 2.167v.403H60.73v.065c.018.516.168.925.45 1.226s.655.452 1.12.452c.7 0 1.18-.237 1.403-.7zm5.593-4.382c.75 0 1.347.272 1.787.817s.66 1.276.66 2.205-.22 1.665-.66 2.2-1.03.817-1.776.817c-.42 0-.787-.086-1.105-.258s-.554-.418-.7-.726h-.092v2.834H66.24V90.45h1.12v.968h.087c.177-.333.43-.593.758-.78s.693-.285 1.094-.285zm-.33 5.012c.495 0 .88-.176 1.16-.527s.422-.842.422-1.463-.14-1.106-.422-1.457-.663-.527-1.154-.527-.88.18-1.165.538-.428.84-.428 1.452.143 1.093.428 1.452.672.532 1.16.532zm5.285.94H73.1V90.45h1.154v4.028h.092l2.692-4.028h1.154v5.856H77.04v-4.05h-.092l-2.692 4.05zm8.075-.915c.502 0 .9-.176 1.164-.527s.417-.85.417-1.5-.14-1.127-.417-1.48-.662-.532-1.164-.532-.895.176-1.17.527-.412.846-.412 1.484.137 1.138.412 1.5.664.527 1.17.527zm0 1.027c-.867 0-1.547-.27-2.042-.812s-.742-1.285-.742-2.232.247-1.685.742-2.226 1.18-.812 2.042-.812 1.536.27 2.03.812.748 1.284.748 2.226-.247 1.7-.742 2.232-1.174.812-2.037.812zm7.808-1.086v-3.9h-2.064L87.9 93.64c-.06.735-.215 1.273-.46 1.613v.1h2.686zm-3.37 2.506h-1.083v-2.506h.477c.4-.237.617-.825.682-1.764l.217-3.12h4.24v4.883h.915v2.506H91.14v-1.533h-4.37v1.533z"/></g><g class="U"><path d="M30.887 86.867h1.582v1.573h2.442v-1.573h3.035v1.573h2.446v-1.573l1.585.002v11H30.885l.002-11.013zm9.506 3.147H32.47v6.293h7.923v-6.293zm-7.13-3.934h.792v1.573h-.792V86.08zm6.338 1.573h-.792V86.08h.792v1.573zm-3.96 5.507h-1.585v-1.573h1.585v1.573z"/><path d="M35.64 94.733h-1.585V93.16h1.585v1.573zm3.168-1.573h-1.585v-1.573h1.585v1.573z"/><path d="M38.808 94.733h-1.585V93.16h1.585v1.573z"/></g><path d="M19 71H316.12V1H19V71Z" class="T"/><g class="V"><path d="M138.596 57.956c-1.137 0-2.038-.4-2.704-1.17s-.992-1.84-.992-3.18.33-2.4.992-3.18 1.56-1.175 2.7-1.175c.882 0 1.636.25 2.263.75s1.002 1.15 1.126 1.953h-1.062c-.14-.538-.418-.962-.836-1.273s-.915-.472-1.49-.472c-.805 0-1.443.305-1.915.916s-.703 1.44-.703 2.483.236 1.873.708 2.483 1.11.9 1.915.9c.585 0 1.084-.138 1.498-.415s.692-.66.824-1.14h1.062a2.84 2.84 0 0 1-1.132 1.832c-.61.453-1.362.68-2.252.68z"/><use xlink:href="#q"/><path d="M151.578 57c.515 0 .94-.148 1.277-.444a1.41 1.41 0 0 0 .51-1.112v-.57l-1.682.1c-.472.03-.82.13-1.04.294s-.33.405-.33.72.118.557.354.737.54.265.91.265zm-.186.87c-.615 0-1.122-.167-1.52-.5s-.592-.787-.592-1.348c0-.553.197-.987.592-1.302s.957-.494 1.69-.536l1.804-.11v-.565c0-.384-.12-.678-.36-.882s-.592-.305-1.057-.305c-.375 0-.686.067-.934.202s-.406.325-.476.57h-1.01c.065-.495.323-.895.77-1.2.453-.303 1.014-.455 1.683-.455.76 0 1.345.182 1.76.547s.62.872.62 1.52v4.252h-.952v-.916h-.093c-.2.33-.468.584-.8.76s-.708.265-1.126.265z"/><use xlink:href="#q" x="12.488"/><path d="M163.2 57.76h-.998v-6.2h.998v4.632h.093l3.116-4.632h.998v6.2h-.998v-4.632h-.093L163.2 57.76zm11.37-4.3h-1a1.42 1.42 0 0 0-.55-.8c-.28-.207-.633-.317-1.062-.317-.56 0-1.008.207-1.34.622s-.494.974-.494 1.677c0 .715.167 1.285.5 1.7s.778.634 1.335.634c.422 0 .772-.094 1.05-.282s.47-.457.563-.807h1a2.22 2.22 0 0 1-.83 1.435c-.46.365-1.056.547-1.787.547-.878 0-1.577-.292-2.095-.876s-.778-1.375-.778-2.362c0-.968.26-1.742.778-2.322s1.215-.87 2.1-.87c.73 0 1.327.2 1.787.57a2.27 2.27 0 0 1 .836 1.44z"/><use xlink:href="#q" x="32.149"/><path d="M182.85 57.76h-.998v-6.2h.998v4.632h.093l3.116-4.632h.998v6.2h-.998v-4.632h-.093l-3.116 4.633zm7.197-3.612h.273l2.478-2.6h1.213l-2.867 2.927 2.977 3.284h-1.294l-2.507-2.83h-.273v2.83h-.998v-6.2h.998v2.6zM197.272 57c.514 0 .94-.148 1.277-.444a1.41 1.41 0 0 0 .51-1.112v-.57l-1.683.1c-.472.03-.818.13-1.038.294s-.33.405-.33.72a.87.87 0 0 0 .354.737c.236.18.54.265.9.265zm-.186.87c-.615 0-1.122-.167-1.52-.5s-.592-.787-.592-1.348c0-.553.197-.987.592-1.302s.957-.494 1.688-.536l1.805-.1v-.565c0-.384-.12-.678-.36-.882s-.6-.305-1.056-.305c-.375 0-.686.067-.934.202s-.406.325-.476.57h-1c.066-.495.323-.895.772-1.2s1.014-.455 1.683-.455c.758 0 1.345.182 1.758.547s.62.872.62 1.52v4.252h-.95v-.916h-.093a2.04 2.04 0 0 1-.8.76c-.332.176-.708.265-1.126.265z"/></g><path d="M35.48 58.547l-4.992-4.72 4.992-4.72.95.9-4.04 3.82 4.04 3.82-.95.9z" class="U"/><path d="M19 71.133h297.12v.787H19z" class="e"/><g filter="url(#H)"><g filter="url(#I)" class="W"><path d="M17.736 583.055h297.12v38.697H17.736v-38.697z" fill="#f8f8f8" fill-opacity=".8"/></g><path d="M255.432 583.055h59.423v38.697h-59.423v-38.697z" class="T"/><path d="M269.208 616.224h-.696V613.7h-3.064v2.534h-.697v-5.565h.697v2.407h3.064v-2.407h.696v5.565z" class="S"/><path d="M271.908 615.715c.343 0 .627-.1.852-.297a.95.95 0 0 0 .34-.744v-.382l-1.122.073c-.315.02-.545.086-.692.197s-.22.27-.22.482.08.373.236.493.36.178.607.178zm-.123.582c-.41 0-.748-.112-1.014-.335s-.395-.527-.395-.903c0-.37.132-.66.395-.87s.638-.33 1.126-.36l1.203-.073v-.378c0-.257-.08-.454-.24-.6s-.395-.204-.704-.204c-.25 0-.458.045-.623.135s-.27.217-.317.38h-.673c.044-.33.215-.6.514-.802s.676-.304 1.122-.304c.506 0 .896.122 1.172.366s.414.584.414 1.018v2.846h-.634v-.613h-.062c-.134.22-.312.4-.534.51s-.472.177-.75.177z" class="S"/><path d="M278.524 613.34h-.673c-.057-.218-.18-.397-.368-.536s-.42-.212-.708-.212a1.08 1.08 0 0 0-.893.417c-.22.277-.33.65-.33 1.122 0 .478.11.86.332 1.145s.52.424.9.424c.28 0 .515-.063.7-.19s.314-.305.376-.54h.673c-.062.393-.246.713-.553.96s-.704.366-1.192.366c-.585 0-1.05-.195-1.396-.586s-.52-.92-.52-1.58c0-.648.173-1.166.52-1.554s.81-.582 1.392-.582c.488 0 .885.127 1.192.38s.495.576.557.964z" class="S"/><path d="M282.408 612.067v.555h-1.354v3.602h-.665v-3.602h-1.354v-.555h3.373z" class="S"/><path d="M285.4 611.994c.532 0 .956.195 1.273.586s.48.912.48 1.565-.16 1.173-.48 1.566a1.56 1.56 0 0 1-1.273.586 1.67 1.67 0 0 1-.789-.181c-.23-.124-.4-.296-.514-.517h-.062v2.013h-.666v-5.545h.635v.694h.062c.134-.24.318-.427.553-.563s.498-.204.78-.204zm-.158 3.705c.38 0 .68-.137.897-.412s.325-.656.325-1.142-.108-.866-.325-1.14-.512-.413-.893-.413-.676.14-.898.42-.333.655-.333 1.133.1.854.33 1.134.52.42.898.42z" class="S"/><path d="M289.1 615.294c.215.27.52.405.913.405s.7-.135.913-.405.322-.655.322-1.15-.107-.875-.322-1.145-.518-.4-.913-.4-.698.137-.913.4-.32.652-.32 1.145.107.877.32 1.15zm2.318.43c-.343.383-.8.574-1.405.574s-1.062-.2-1.408-.574-.514-.912-.514-1.578.17-1.194.514-1.577.813-.574 1.408-.574 1.066.2 1.4.574.514.9.514 1.577-.173 1.192-.518 1.578z" class="S"/><path d="M293.71 616.224h-.666v-4.157h.666v3.1h.062l2.077-3.1h.666v4.157h-.666v-3.1h-.062l-2.077 3.1zm-.314-6H294c0 .22.066.41.197.57s.306.24.522.24.395-.08.527-.24.2-.35.2-.57h.603c0 .362-.124.664-.37.906s-.565.358-.96.358-.7-.12-.955-.358-.368-.54-.368-.906z" class="S"/><path d="M298.506 613.806h.182l1.652-1.74h.808l-1.9 1.96 1.985 2.198h-.863l-1.67-1.894h-.182v1.894h-.665v-4.157h.665v1.74z" class="S"/><path d="M302.816 616.224h-.666v-4.157h.666v3.1h.062l2.077-3.1h.666v4.157h-.666v-3.1h-.062l-2.077 3.1z" class="S"/><path d="M280.754 601.827c.385-.925 1.065-1.432 2.126-1.4.683.013 1.546.438 1.886 1.4h5.717c.284 0 .532.186.588.44.058.263-.073.534-.33.637a.9.9 0 0 1-.337.059h-5.486a.19.19 0 0 0-.217.143c-.3.782-1.078 1.276-1.964 1.273-.844-.002-1.616-.513-1.917-1.278-.04-.106-.092-.14-.206-.138h-.822c-.32-.008-.568-.23-.6-.5a.56.56 0 0 1 .484-.617c.154-.02.315-.008.474-.01l.593.003zm2.015 1.414c.496 0 .897-.385.9-.85s-.407-.843-.9-.848c-.493-.003-.9.377-.9.85s.387.848.9.848z" class="S"/><path d="M284.765 595.025a2.01 2.01 0 0 1-.585.888c-1.075.954-2.83.566-3.352-.742-.044-.114-.097-.154-.225-.15l-.78.003c-.35 0-.613-.234-.62-.55-.005-.33.243-.577.6-.585h.85c.086.003.128-.02.16-.103.34-.843 1.246-1.356 2.185-1.24.835.104 1.426.5 1.733 1.268.036.1.1.074.167.074h5.168l.43.003c.354.016.6.266.588.595-.01.3-.27.54-.615.542h-5.53c-.055-.005-.1-.005-.175-.005zm-2.884-.566c0 .473.402.856.892.85s.886-.388.9-.847c.003-.452-.382-.792-.892-.795-.515.003-.9.335-.9.792z" class="S"/><path d="M282.587 597.863l2.758.003c.13 0 .2-.032.24-.152.306-.768 1.084-1.278 1.936-1.275.87.003 1.647.518 1.948 1.3.04.104.092.13.2.128l.808-.003c.357.006.607.237.607.56.003.33-.25.563-.612.57h-.836c-.078 0-.12.013-.154.093-.334.8-.958 1.27-1.87 1.323-.875.053-1.713-.446-2.042-1.297-.04-.098-.086-.122-.187-.122l-5.544.003c-.376 0-.635-.23-.635-.56-.003-.324.248-.566.6-.57h2.783zm5.82.57c.003-.473-.393-.856-.886-.856s-.897.388-.894.853.404.845.886.848c.493.003.9-.375.894-.845z" class="S"/><path d="M196.008 583.055h59.424v38.697h-59.424v-38.697z" class="T W"/><path d="M213.053 614.176c-.02.342-.06.62-.116.83a1.37 1.37 0 0 1-.275.548v.046h2.7v-4.315h-2.136l-.182 2.892zm-1.02 2.048v1.1h-.646V615.6h.414c.193-.103.335-.27.425-.505s.15-.548.174-.933l.213-3.502h3.455v4.94h.696v1.724h-.646v-1.1h-4.085z" class="S"/><path d="M219.363 612.58c-.333 0-.606.112-.82.335s-.334.52-.36.887h2.298c-.008-.367-.113-.663-.317-.887s-.47-.335-.8-.335zm1.1 2.568h.665a1.44 1.44 0 0 1-.615.845c-.307.203-.687.304-1.14.304-.578 0-1.036-.193-1.374-.578s-.506-.912-.506-1.57.17-1.178.5-1.57.797-.586 1.37-.586c.562 0 1.004.186 1.327.56s.483.883.483 1.53v.254h-2.998v.03c.018.4.134.738.348.98s.502.362.855.362c.54 0 .898-.188 1.076-.563z" class="S"/><path d="M224.33 611.994c.53 0 .955.195 1.272.586s.48.912.48 1.565-.16 1.173-.48 1.566-.744.586-1.272.586a1.67 1.67 0 0 1-.79-.181 1.2 1.2 0 0 1-.514-.517h-.062v2.013h-.666v-5.545h.635v.694h.062c.134-.24.318-.427.553-.563s.498-.204.782-.204zm-.16 3.705c.382 0 .68-.137.897-.412s.325-.656.325-1.142-.108-.866-.325-1.14-.512-.413-.893-.413-.676.14-.898.42-.332.655-.332 1.133.11.854.328 1.134.52.42.898.42z" class="S"/><path d="M228.872 612.58c-.332 0-.606.112-.82.335s-.334.52-.36.887H230c-.007-.367-.113-.663-.317-.887s-.47-.335-.8-.335zm1.1 2.568h.666c-.1.36-.306.64-.616.845s-.687.304-1.14.304c-.578 0-1.035-.193-1.373-.578s-.507-.912-.507-1.57.17-1.178.5-1.57.797-.586 1.37-.586c.562 0 1.005.186 1.327.56s.484.883.484 1.53v.254h-3v.03c.02.4.135.738.35.98s.5.362.855.362c.54 0 .897-.188 1.075-.563z" class="S"/><path d="M233.492 612.622h-1.018v1.172h.9c.524 0 .786-.197.786-.593 0-.18-.057-.322-.17-.425s-.28-.154-.506-.154zm-.05 1.728h-.967v1.32h1.095c.255 0 .45-.056.58-.166s.202-.275.202-.486c0-.23-.077-.397-.23-.505s-.376-.162-.68-.162zm-1.632 1.874v-4.157h1.768c.4 0 .695.096.917.3s.332.45.332.775a.89.89 0 0 1-.197.563c-.13.167-.3.27-.483.313v.06a.99.99 0 0 1 .63.32c.157.175.236.4.236.64 0 .366-.126.656-.38.872s-.602.324-1.048.324h-1.776z" class="S"/><path d="M236.916 615.295c.214.27.518.404.913.404s.698-.135.913-.404.32-.656.32-1.15-.107-.875-.32-1.145-.52-.4-.913-.4-.7.137-.913.4-.322.652-.322 1.145.107.877.322 1.15zm2.317.428c-.343.383-.8.574-1.404.574s-1.063-.2-1.4-.574-.514-.912-.514-1.578.17-1.194.514-1.577.813-.574 1.4-.574 1.065.2 1.408.574.514.9.514 1.577-.172 1.192-.518 1.578z" class="S"/><path d="M223.638 596.166l-.707.173c-.935.284-1.53.903-1.743 1.844-.206.924.073 1.72.774 2.36.275.253.292.322.1.644l-.303.484c-.115.17-.265.194-.432.073a3.78 3.78 0 0 1-.645-5.483 3.73 3.73 0 0 1 1.46-1.062.25.25 0 0 0 .178-.222c.275-1.847 1.868-3.22 3.75-3.234a3.8 3.8 0 0 1 3.806 3.169c.017.103.062.155.15.204 1.293.723 1.98 1.826 2.04 3.296.073 1.868-1.42 3.6-3.287 3.82-.33.04-.418-.035-.425-.364l-.025-.536c-.01-.277.063-.37.335-.432 1.066-.236 1.746-.87 1.997-1.927.272-1.156-.408-2.384-1.534-2.8-.167-.062-.397-.076-.5-.193s-.038-.34-.052-.512c-.08-1.222-.85-2.1-2.032-2.353-1.35-.276-2.75.723-2.9 2.08-.032.315-.004.637-.004.972z" class="S"/><path d="M225.346 598.983l.3-.74.753-1.82c.105-.252.237-.308.492-.204l.543.225c.265.1.314.225.206.48l-1.3 3.175c-.052.128-.08.277-.08.416l-.003 4.268c0 .308-.08.384-.394.384h-.593c-.26-.003-.352-.1-.352-.356l.004-4.165c0-.152-.046-.256-.154-.36l-1.43-1.366c-.205-.197-.212-.325-.017-.526l.446-.46c.157-.156.3-.16.47-.007l1.014.972c.028.028.056.048.094.083z" class="S"/><path d="M136.584 583.055h59.424v38.697h-59.424v-38.697z" class="T W"/><path d="M151.456 614.176c-.02.342-.06.62-.117.83a1.37 1.37 0 0 1-.274.548v.046h2.708v-4.315h-2.136l-.18 2.892zm-1.022 2.048v1.1h-.646V615.6h.414c.193-.103.335-.27.426-.505s.15-.548.174-.933l.212-3.502h3.455v4.94h.697v1.724h-.646v-1.1h-4.086z" class="V"/><use xlink:href="#u" class="V"/><path d="M162.5 612.58c-.333 0-.606.112-.82.335s-.334.52-.36.887h2.298c-.008-.367-.114-.663-.317-.887s-.47-.335-.8-.335zm1.098 2.568h.666a1.45 1.45 0 0 1-.615.845c-.307.203-.688.304-1.142.304-.577 0-1.035-.193-1.373-.578s-.507-.912-.507-1.57.17-1.178.5-1.57.797-.586 1.37-.586c.563 0 1.005.186 1.327.56s.484.883.484 1.53v.254h-2.998v.03c.018.4.134.738.348.98s.502.362.855.362c.54 0 .898-.188 1.075-.563z" class="V"/><path d="M167.12 612.622h-1.017v1.172h.91c.523 0 .785-.197.785-.593 0-.18-.057-.322-.17-.425s-.28-.154-.507-.154zm-.05 1.728h-.967v1.32h1.094c.256 0 .45-.056.58-.166s.2-.275.2-.486c0-.23-.076-.397-.228-.505s-.377-.162-.68-.162zm-1.633 1.874v-4.157h1.768c.4 0 .695.096.917.29s.333.45.333.775c0 .206-.066.394-.198.563s-.3.27-.483.313v.06a.99.99 0 0 1 .63.32.92.92 0 0 1 .236.64c0 .366-.126.656-.38.872s-.602.324-1.048.324h-1.776z" class="V"/><use xlink:href="#u" x="13.68" class="V"/><path d="M175.18 616.224h-.666v-4.157h.666v3.1h.06l2.078-3.1h.665v4.157h-.665v-3.1h-.062l-2.077 3.1z" class="V"/><path d="M179.976 613.806h.182l1.652-1.74h.808l-1.9 1.96 1.985 2.198h-.863l-1.67-1.894h-.182v1.894h-.666v-4.157h.666v1.74z" class="V"/><path d="M161.146 598.44v-4.693c0-.78.326-1.383 1.025-1.774.293-.163.617-.228.95-.23h8.1c.256 0 .443.1.56.332.115.216.057.4-.087.594-.473.612-.45 1.423.03 2.03a.53.53 0 0 1 .098.308l.006 9.5c0 .43-.22.652-.656.652h-8.004c-1.022 0-1.805-.636-1.995-1.62-.022-.118-.025-.238-.025-.358l-.002-4.75zm1.133-3.053v7.743c0 .505.354.864.85.864h7.422c.043 0 .087-.005.14-.008v-8.235c0-.225.027-.204-.2-.204-2.107 0-4.214.008-6.32-.002-.62-.003-1.256.093-1.9-.158zm8.04-2.57l-.055-.008c-2.392 0-4.785-.003-7.177.002-.547.003-.927.53-.767 1.046.112.356.424.573.85.576h7.014c.04 0 .08-.003.134-.008a2.65 2.65 0 0 1 0-1.608z" class="U"/><path d="M166.477 600.162h1.196c.346.002.604.238.607.55s-.25.564-.596.564h-2.433c-.318-.002-.552-.216-.582-.508a.56.56 0 0 1 .424-.59c.057-.014.117-.016.174-.016h1.2z" class="U"/><path d="M166.472 599.207c-.422 0-.843.005-1.264-.003a.56.56 0 0 1-.541-.49c-.033-.257.14-.522.4-.596.055-.017.117-.025.174-.025l2.458.003c.4.005.655.35.552.712a.55.55 0 0 1-.533.4c-.4 0-.827-.002-1.245-.002z" class="U"/><path d="M77.16 583.055h59.424v38.697H77.16v-38.697z" class="T W"/><path d="M96.4 616.356c-.758 0-1.36-.26-1.803-.783s-.662-1.232-.662-2.13.22-1.607.662-2.13 1.04-.787 1.8-.787c.588 0 1.1.167 1.5.502s.668.77.75 1.307h-.708a1.49 1.49 0 0 0-.557-.852c-.28-.2-.6-.316-.994-.316-.536 0-.962.204-1.277.613s-.468.963-.468 1.662.157 1.254.472 1.662.74.6 1.277.6c.4 0 .722-.093.998-.278a1.31 1.31 0 0 0 .549-.764h.708a1.9 1.9 0 0 1-.754 1.227c-.408.303-.908.455-1.5.455z" class="S"/><path d="M102.845 612.067v.556h-1.354v3.602h-.666v-3.602H99.47v-.556h3.374z" class="S"/><path d="M105.065 615.716c.343 0 .627-.1.85-.297s.34-.446.34-.745v-.38l-1.122.073c-.315.02-.546.086-.693.197s-.22.27-.22.482a.59.59 0 0 0 .236.493c.157.12.36.178.607.178zm-.124.582c-.4 0-.747-.112-1.013-.335s-.395-.528-.395-.903.132-.66.395-.872.638-.33 1.126-.358l1.203-.074v-.377c0-.258-.08-.454-.24-.6s-.395-.204-.704-.204c-.25 0-.458.045-.623.135s-.27.217-.317.382h-.673c.043-.332.215-.6.514-.802s.676-.305 1.122-.305c.506 0 .896.122 1.172.366s.414.584.414 1.02v2.846h-.634v-.613h-.062c-.134.22-.312.4-.534.5a1.67 1.67 0 0 1-.75.177z" class="S"/><path d="M111.17 612.067v.556h-1.354v3.602h-.665v-3.602h-1.354v-.556h3.373z" class="S"/><path d="M113.592 613.957h-.785v1.712h.785c.273 0 .5-.077.654-.23s.247-.365.247-.625-.082-.466-.247-.62-.38-.235-.654-.235zm-1.45 2.268v-4.158h.666v1.335h.785c.477 0 .858.127 1.14.38s.426.598.426 1.03-.142.775-.426 1.03-.664.382-1.14.382h-1.45z" class="S"/><path d="M116.86 616.225h-.665v-4.158h.665v3.1h.062l2.077-3.1h.666v4.158H119v-3.1h-.06l-2.078 3.1z" class="S"/><path d="M108.916 594.478h-5.24v1.125h5.24v-1.125z" class="S"/><path d="M106.176 597.204h-2.5v1.132h2.5v-1.132z" class="S"/><path d="M105.492 599.928h-1.815v1.127h1.815v-1.127z" class="S"/><path d="M110.5 601.788v-.786l-.72.775-.6.6c-.042.042-.08.058-.144.058l-2.63-.002v-.64l-.003-1.987c0-.064.016-.104.067-.155l3.913-3.897c.056-.056.123-.16.123-.264l.003-1.8c-.003-.498-.318-.807-.818-.807h-6.773c-.524 0-.836.312-.836.83v9.48c0 .507.315.82.82.82h6.773c.53 0 .834-.304.836-.83v-1.396zm3.792-5.973c.225.722.062 1.375-.492 1.94l-2 2.004a.44.44 0 0 0-.145.343l.006 2.982c0 .434-.062.748-.204 1.023-.36.7-.924 1.04-1.678 1.05l-6.973.003c-1.048-.006-1.87-.85-1.874-1.918l-.002-2.65v-6.9c0-.95.628-1.716 1.563-1.9a1.97 1.97 0 0 1 .39-.035l6.826-.002a1.89 1.89 0 0 1 1.94 1.83l.008.525v.5l.123-.018.158-.024.3-.04c.957-.083 1.8.447 2.07 1.3zm-1.3 1.16c.334-.333.342-.797.018-1.124a.77.77 0 0 0-.553-.24h-.003a.79.79 0 0 0-.561.242l-4.244 4.23a.3.3 0 0 0-.094.184l-.002.01v1.026h.76v-.003c.33-.016.556-.197.735-.38l3.943-3.945z" class="S"/><path d="M17.736 583.055H77.16v38.697H17.736v-38.697z" class="T"/><path d="M33.602 616.225h-.7v-5.566h3.312v.633h-2.6v4.933z" class="S"/><path d="M37.645 614.4l-.077.632a2.81 2.81 0 0 1-.143.513c-.06.16-.134.3-.224.393a.9.9 0 0 1-.329.236c-.132.056-.282.085-.453.085a.63.63 0 0 1-.244-.043v-.6c.062.02.132.03.2.03.196 0 .342-.106.437-.317s.16-.526.2-.937l.162-2.318H39.9v4.158h-.665v-3.602h-1.46l-.132 1.778z" class="S"/><path d="M42.512 615.716c.343 0 .627-.1.85-.297s.34-.446.34-.745v-.38l-1.122.073c-.315.02-.546.086-.693.197s-.22.27-.22.482.08.372.236.493.36.178.607.178zm-.124.582c-.4 0-.748-.112-1.014-.335s-.395-.528-.395-.903.132-.66.395-.872.638-.33 1.126-.358l1.203-.074v-.378c0-.257-.08-.453-.24-.6s-.395-.204-.704-.204c-.25 0-.458.045-.623.135s-.27.217-.317.382h-.673c.044-.332.215-.6.515-.802s.676-.305 1.122-.305c.505 0 .896.122 1.172.366s.414.584.414 1.018v2.847h-.635v-.613h-.062c-.134.22-.312.4-.534.5a1.67 1.67 0 0 1-.75.177z" class="S"/><path d="M47.356 612.623h-1.017v1.172h.91c.524 0 .785-.198.785-.594 0-.18-.057-.32-.17-.424s-.28-.154-.507-.154zm-.05 1.727h-.967v1.32h1.095c.255 0 .45-.055.58-.165s.2-.276.2-.486c0-.23-.076-.398-.228-.506s-.377-.162-.68-.162zm-1.633 1.875v-4.158h1.768c.39 0 .695.097.917.29s.333.45.333.776a.9.9 0 0 1-.197.563.81.81 0 0 1-.484.312v.062c.263.036.473.143.63.32s.236.388.236.64c0 .365-.126.656-.38.872s-.602.324-1.048.324h-1.776z" class="S"/><path d="M50.013 616.225v-4.158h.665v1.72h2.08v-1.72h.665v4.158h-.665v-1.882h-2.08v1.882h-.665z" class="S"/><path d="M56.037 615.716c.343 0 .627-.1.85-.297s.34-.446.34-.745v-.38l-1.122.073c-.315.02-.545.086-.692.197s-.22.27-.22.482.08.372.236.493.36.178.607.178zm-.124.582c-.4 0-.748-.112-1.014-.335s-.395-.528-.395-.903.132-.66.395-.872.638-.33 1.126-.358l1.203-.074v-.378c0-.257-.08-.453-.24-.6s-.395-.204-.704-.204c-.25 0-.458.045-.623.135s-.27.217-.317.382h-.673c.044-.332.215-.6.515-.802s.676-.305 1.122-.305c.506 0 .896.122 1.172.366s.414.584.414 1.018v2.847h-.635v-.613h-.062c-.134.22-.312.4-.534.5a1.67 1.67 0 0 1-.75.177z" class="S"/><path d="M60.633 614.18h.785v-1.558h-.785c-.276 0-.495.072-.658.216s-.244.338-.244.6a.68.68 0 0 0 .248.543c.165.14.383.2.654.2zm.785 2.044v-1.5h-.716l-1.064 1.5h-.793l1.155-1.61c-.294-.083-.525-.227-.693-.432a1.13 1.13 0 0 1-.252-.737c0-.427.14-.762.422-1.007s.665-.37 1.145-.37h1.45v4.158h-.665z" class="S"/><path d="M41.97 597.532l-.24.2c-.3.233-.668.198-.88-.076s-.172-.644.118-.877l6.058-4.837c.3-.248.568-.256.877-.008l6.013 4.807c.3.244.35.618.13.888-.23.28-.584.3-.897.06l-.187-.137v5.78c0 1.037-.8 1.845-1.85 1.845h-7.268c-1.06 0-1.866-.804-1.866-1.868V597.8c-.008-.076-.008-.145-.008-.26zm5.494-4.392l-.122.088-4.055 3.26c-.053.042-.095.134-.095.206l-.004 6.633a.6.6 0 0 0 .614.618h1.217v-3.1c.004-.838.65-1.624 1.48-1.734.507-.07 1.026-.042 1.54-.046 1.064-.004 1.862.805 1.862 1.868v3.008h1.156a.61.61 0 0 0 .675-.67l.004-6.557c0-.114-.034-.183-.126-.252l-1.846-1.475-2.3-1.845zm1.217 10.792l-.004-3.05c0-.34-.267-.595-.614-.6a54.59 54.59 0 0 0-1.145 0c-.44 0-.683.248-.683.686v2.783l.008.183 2.438-.004z" class="S"/><path fill="#e6e6e6" d="M17.736 582.265h297.12v.5H17.736z"/></g><path d="M17.736 618.406h297.12v20.078H17.736z" class="T"/></g><defs><filter id="B" x="0" y="78.105" width="13.97" height="34.474" filterUnits="userSpaceOnUse" class="X"><feFlood result="A" class="Y"/><feColorMatrix in="SourceAlpha" values="0 0 0 0 0 0 0 0 0 0 0 0 0 0 0 0 0 0 127 0"/><feOffset dx="-2"/><feGaussianBlur stdDeviation="2.5"/><feColorMatrix values="0 0 0 0 0 0 0 0 0 0 0 0 0 0 0 0 0 0 0.12 0"/><feBlend in2="A"/><feBlend in="SourceGraphic"/></filter><filter id="C" x="0" y="121.526" width="13.97" height="52.632" filterUnits="userSpaceOnUse" class="X"><feFlood result="A" class="Y"/><feColorMatrix in="SourceAlpha" values="0 0 0 0 0 0 0 0 0 0 0 0 0 0 0 0 0 0 127 0"/><feOffset dx="-2"/><feGaussianBlur stdDeviation="2.5"/><feColorMatrix values="0 0 0 0 0 0 0 0 0 0 0 0 0 0 0 0 0 0 0.12 0"/><feBlend in2="A"/><feBlend in="SourceGraphic"/></filter><filter id="D" x="0" y="178.368" width="13.97" height="52.632" filterUnits="userSpaceOnUse" class="X"><feFlood result="A" class="Y"/><feColorMatrix in="SourceAlpha" values="0 0 0 0 0 0 0 0 0 0 0 0 0 0 0 0 0 0 127 0"/><feOffset dx="-2"/><feGaussianBlur stdDeviation="2.5"/><feColorMatrix values="0 0 0 0 0 0 0 0 0 0 0 0 0 0 0 0 0 0 0.12 0"/><feBlend in2="A"/><feBlend in="SourceGraphic"/></filter><filter id="E" x="316.824" y="140.474" width="13.176" height="80.263" filterUnits="userSpaceOnUse" class="X"><feFlood result="A" class="Y"/><feColorMatrix in="SourceAlpha" values="0 0 0 0 0 0 0 0 0 0 0 0 0 0 0 0 0 0 127 0"/><feOffset dx="-2"/><feGaussianBlur stdDeviation="2.5"/><feColorMatrix values="0 0 0 0 0 0 0 0 0 0 0 0 0 0 0 0 0 0 0.12 0"/><feBlend in2="A"/><feBlend in="SourceGraphic"/></filter><filter id="F" x="218.804" y="3.947" width="102.844" height="654.105" filterUnits="userSpaceOnUse" class="X"><feFlood class="Y"/><feBlend in="SourceGraphic"/><feGaussianBlur stdDeviation=".5"/></filter><filter id="G" x="8.559" y=".947" width="256.536" height="660.105" filterUnits="userSpaceOnUse" class="X"><feFlood class="Y"/><feBlend in="SourceGraphic"/><feGaussianBlur stdDeviation="2"/></filter><filter id="H" x="-12.264" y="542.265" width="357.119" height="99.487" filterUnits="userSpaceOnUse" class="X"><feFlood result="A" class="Y"/><feColorMatrix in="SourceAlpha" values="0 0 0 0 0 0 0 0 0 0 0 0 0 0 0 0 0 0 127 0"/><feOffset dy="-10"/><feGaussianBlur stdDeviation="15"/><feColorMatrix values="0 0 0 0 0 0 0 0 0 0 0 0 0 0 0 0 0 0 0.07 0"/><feBlend in2="A"/><feBlend in="SourceGraphic"/></filter><filter id="I" x="-9.446" y="555.872" width="351.485" height="93.063" filterUnits="userSpaceOnUse" class="X"><feFlood class="Y"/><feGaussianBlur in="BackgroundImage" stdDeviation="13.591"/><feComposite in2="SourceAlpha" operator="in"/><feBlend in="SourceGraphic"/></filter><linearGradient id="J" x1="325.412" y1="509.421" x2="-236.904" y2="625.569" xlink:href="#r"><stop stop-color="#f3f3f8"/><stop offset=".64" stop-color="#f4f4f4"/></linearGradient><linearGradient id="K" x1="166.603" y1="22.712" x2="166.603" y2="19.159" xlink:href="#r"><stop stop-color="#b4babe"/><stop offset=".845" stop-color="#ced1d4" stop-opacity="0"/></linearGradient><linearGradient id="L" x1="200.747" y1="26.855" x2="200.747" y2="17.974" xlink:href="#r"><stop stop-color="#b4babe"/><stop offset=".845" stop-color="#ced1d4" stop-opacity="0"/></linearGradient><linearGradient id="M" x1="243.228" y1="89.421" x2="442.719" y2="449.909" xlink:href="#r"><stop stop-color="#e8e9ea"/><stop offset=".546" stop-color="#b4b7bb"/><stop offset=".978" stop-color="#b4b7bb" stop-opacity="0"/></linearGradient><linearGradient id="N" x1="117.769" y1="184.553" x2="7.97" y2="213.253" xlink:href="#r"><stop stop-color="#e8e9ea"/><stop offset="1" stop-color="#b4b7bb"/></linearGradient><linearGradient id="O" x1="7.832" y1="630.779" x2="294.031" y2="38.221" xlink:href="#r"><stop stop-color="#fff"/><stop offset="1" stop-color="#fff"/></linearGradient><linearGradient id="P" x1="165.579" y1="291.4" x2="165.579" y2="173.4" xlink:href="#r"><stop stop-color="#ff6b00" stop-opacity="0"/><stop offset="1" stop-color="#fe6227"/><stop offset="1" stop-color="#ff6b00"/></linearGradient><linearGradient id="Q" x1="165.579" y1="503.8" x2="165.579" y2="385.8" xlink:href="#r"><stop stop-color="#ff6b00" stop-opacity="0"/><stop offset="1" stop-color="#fe6227"/><stop offset="1" stop-color="#ff6b00"/></linearGradient><linearGradient id="R" x1="165.579" y1="503.8" x2="165.579" y2="409.4" xlink:href="#r"><stop stop-color="#007aff" stop-opacity="0"/><stop offset="1" stop-color="#007aff"/></linearGradient><linearGradient id="S" x1="205.393" y1="405.467" x2="205.393" y2="413.727" xlink:href="#r"><stop offset=".5" stop-color="#ff6b00"/><stop offset=".5" stop-color="#007aff"/></linearGradient><path id="T" d="M38.906 267.898h265.23v.197H38.906z"/><path id="U" d="M86.446 165.632h.198v133.535h-.198z"/><path id="V" d="M33.353 293.864c1.34 0 2.124-1.118 2.124-2.885 0-1.755-.8-2.865-2.124-2.865s-2.132 1.113-2.132 2.87c0 1.767.793 2.88 2.132 2.88zm0-.722c-.797 0-1.253-.822-1.253-2.16 0-1.318.464-2.147 1.253-2.147s1.25.826 1.25 2.147c0 1.34-.453 2.16-1.25 2.16z"/><path id="W" d="M32.73 270.16h.847v-5.543h-.855l-1.47 1.037v.845l1.46-1.03h.02v4.7z"/><path id="X" d="M41.444 310.28v-5.543h-4.526v5.543h.87v-4.794h2.793v4.794h.863z"/><path id="Y" d="M47.097 311.42l.526-2.028h-.843l-.348 2.028h.665z"/><path id="Z" d="M52.896 306.362v.008h.82v-.012c0-.576.46-1.014 1.072-1.014.58 0 1.03.392 1.03.884 0 .434-.178.726-.86 1.43l-2.016 2.04v.584h3.818v-.726H54.1v-.02l1.397-1.394c.816-.83 1.164-1.3 1.164-1.956 0-.88-.793-1.55-1.857-1.55-1.1 0-1.92.73-1.92 1.728z"/><path id="a" d="M118.4 310.384c1.253 0 2.116-.646 2.356-1.744h-.87c-.197.618-.735.98-1.48.98-1.026 0-1.676-.818-1.676-2.112 0-1.283.658-2.1 1.672-2.1.723 0 1.304.426 1.485 1.083h.87c-.186-1.106-1.126-1.847-2.356-1.847-1.56 0-2.557 1.117-2.557 2.873 0 1.767 1 2.877 2.557 2.877z"/><path id="b" d="M123.473 306.174c-.588 0-1.056.296-1.296.76h-.015v-.695h-.8v5.378h.836v-2h.02c.233.45.697.733 1.28.733 1.02 0 1.698-.8 1.698-2.1s-.68-2.086-1.714-2.086zm-.22 3.472c-.642 0-1.068-.545-1.068-1.386 0-.834.43-1.387 1.068-1.387.66 0 1.075.542 1.075 1.387s-.414 1.386-1.075 1.386z"/><path id="c" d="M129.908 310.28h.847v-5.543h-.855l-1.47 1.037v.845l1.458-1.03h.02v4.7z"/><path id="d" d="M160.55 310.28v-5.543h-.866v2.297c-.244.242-.7.473-1.296.473-.87 0-1.343-.496-1.343-1.306v-1.464h-.866v1.494c0 1.153.735 2.044 2.13 2.044.6 0 1.06-.208 1.32-.407h.054v2.412h.866z"/><path id="e" d="M164.5 306.24h-3.385v.657h1.276v3.384h.832v-3.384h1.277v-.657z"/><path id="f" d="M165.275 311.42l.527-2.028h-.844l-.348 2.028h.665z"/><path id="g" d="M173.122 310.384c1.203 0 2.046-.788 2.046-1.925a1.78 1.78 0 0 0-1.841-1.855c-.546 0-1.002.21-1.246.56h-.02l.154-1.702h2.627v-.726h-3.323l-.294 3.135h.793c.217-.365.635-.584 1.118-.584.697 0 1.184.5 1.184 1.194a1.13 1.13 0 0 1-1.192 1.183c-.622 0-1.098-.376-1.16-.925h-.828c.05.968.867 1.644 1.98 1.644z"/><path id="h" d="M200.23 310.28v-5.543h-4.526v5.543h.87v-4.794h2.794v4.794h.862z"/><path id="i" d="M242.3 310.357c1.2 0 1.938-.78 1.938-2.05 0-1.2-.704-1.952-1.803-1.952-.638 0-1.13.262-1.4.738h-.03c.15-1.14.495-1.625 1.582-1.663l.356-.012c.5-.02.913-.12 1.017-.215v-.688c-.185.1-.626.18-1.064.2l-.363.012c-1.548.053-2.206.964-2.206 3.207 0 1.598.7 2.424 1.962 2.424zm-.008-.695c-.696 0-1.1-.484-1.1-1.345 0-.818.407-1.287 1.1-1.287s1.1.47 1.1 1.287c0 .86-.402 1.345-1.1 1.345z"/><path id="j" d="M283.098 307.534c-.116-.746-.743-1.368-1.75-1.368-1.156 0-1.907.826-1.907 2.094 0 1.294.75 2.097 1.915 2.097.96 0 1.63-.553 1.75-1.364h-.805c-.116.423-.44.67-.936.67-.65 0-1.076-.527-1.076-1.402 0-.853.422-1.402 1.068-1.402.52 0 .828.303.936.676h.805z"/><path id="k" d="M292.04 310.384c1.238 0 2.113-.66 2.113-1.602 0-.703-.5-1.27-1.242-1.425v-.02c.62-.177 1.014-.653 1.014-1.24 0-.85-.786-1.463-1.885-1.463s-1.888.618-1.888 1.46c0 .596.4 1.076 1.018 1.245v.02c-.74.154-1.242.718-1.242 1.425 0 .937.867 1.602 2.112 1.602zm0-.692c-.7 0-1.218-.407-1.218-.97s.507-.98 1.218-.98 1.215.407 1.215.98c0 .564-.503.97-1.215.97zm0-2.642c-.607 0-1.03-.36-1.03-.865s.422-.868 1.03-.868 1.03.36 1.03.868-.43.865-1.03.865z"/><path id="l" d="M67.28 134.726c.502 0 .9-.176 1.165-.527s.417-.852.417-1.5-.14-1.127-.417-1.48-.663-.532-1.165-.532-.895.176-1.17.527-.412.846-.412 1.484.137 1.138.412 1.5.664.527 1.17.527zm0 1.027c-.867 0-1.547-.27-2.042-.812s-.742-1.285-.742-2.232.247-1.685.742-2.226 1.18-.812 2.042-.812 1.536.27 2.03.812.747 1.283.747 2.226-.247 1.7-.742 2.232-1.174.812-2.037.812z"/><path id="m" d="M277.16 522.68c1.188 0 1.904-.6 1.904-1.567 0-.738-.5-1.272-1.27-1.356v-.03c.557-.092.994-.618.994-1.206 0-.837-.65-1.383-1.64-1.383h-2.23v5.543h2.24zm-1.373-4.84h1.153c.627 0 .983.284.983.8 0 .55-.414.857-1.165.857h-.97v-1.656zm0 4.137v-1.824h1.145c.82 0 1.246.307 1.246.906s-.414.918-1.196.918h-1.195z"/><path id="n" d="M51.87 545.354c.214.27.518.404.913.404s.7-.135.913-.404.32-.653.32-1.144-.107-.872-.32-1.14-.518-.407-.913-.407-.7.135-.913.407-.32.65-.32 1.14.107.873.32 1.144zm2.317.427c-.343.38-.8.572-1.404.572s-1.063-.2-1.408-.572-.515-.908-.515-1.57.172-1.2.515-1.57.812-.573 1.408-.573 1.065.2 1.408.573.514.905.514 1.57-.173 1.187-.518 1.57z"/><path id="o" d="M145.114 546.28h-.665v-4.14h.665v3.1h.062l2.078-3.1h.665v4.14h-.665v-3.088h-.062l-2.078 3.088z"/><path id="p" d="M280.565 614.032h.198v31.27h-.198z"/><path id="q" d="M148.247 51.55v.83h-2.03v5.382h-.998V52.38h-2.03v-.83h5.06z"/><linearGradient id="r" gradientUnits="userSpaceOnUse"/><path id="s" d="M44.96 310.28h.832v-4.04h-.832v1.63h-1.84v-1.63h-.832v4.04h.832v-1.76h1.84v1.76z"/><path id="t" d="M284.178 311.42l.526-2.028h-.844l-.348 2.028h.666z"/><path id="u" d="M156.098 616.224v-4.157h.665v1.72h2.082v-1.72h.665v4.157h-.665v-1.882h-2.082v1.882h-.665z"/></defs></svg>