<svg xmlns="http://www.w3.org/2000/svg" xmlns:xlink="http://www.w3.org/1999/xlink" width="330" height="662" fill="none" xmlns:v="https://vecta.io/nano"><style><![CDATA[.I{fill:#fff}.J{fill-rule:evenodd}.K{color-interpolation-filters:sRGB}.L{flood-opacity:0}.M{fill:#250608}.N{fill:#ff6b00}.O{fill:#878787}.P{fill:#c4c8cc}]]></style><g filter="url(#B)" class="P"><path d="M7 86.083a2.98 2.98 0 0 1 2.978-2.978c.548 0 .993.444.993.993v22.488a.99.99 0 0 1-.993.993A2.98 2.98 0 0 1 7 104.601V86.083z"/></g><g filter="url(#C)" class="P"><path d="M7 128.895c0-1.308 1.067-2.37 2.382-2.37h.794c.438 0 .794.354.794.8v41.052a.8.8 0 0 1-.794.8h-.794c-1.316 0-2.382-1.06-2.382-2.368v-37.895z"/></g><g filter="url(#D)" class="P"><path d="M7 185.737c0-1.308 1.067-2.37 2.382-2.37h.794c.438 0 .794.354.794.8v41.053a.79.79 0 0 1-.794.789h-.794A2.39 2.39 0 0 1 7 223.632v-37.895z"/></g><g filter="url(#E)"><path d="M323.824 146.263a.79.79 0 0 1 .794-.789c1.315 0 2.382 1.06 2.382 2.368v65.526c0 1.308-1.067 2.37-2.382 2.37a.79.79 0 0 1-.794-.79v-68.684z" fill="#e0e0e2"/></g><path d="M279.357 1H54.643C29.208 1 8.588 21.5 8.588 46.8v568.4c0 25.288 20.62 45.8 46.055 45.8h224.714c25.435 0 46.055-20.5 46.055-45.8V46.8c0-25.3-20.62-45.8-46.055-45.8zM18.117 46.8c0-20.057 16.353-36.316 36.526-36.316h23.094c2.736.957 4.698 3.55 4.698 6.598 0 9.655 7.872 17.48 17.583 17.48H233.2c9.7 0 17.583-7.826 17.583-17.48 0-3.048 1.96-5.64 4.697-6.598h23.888c20.173 0 36.526 16.26 36.526 36.316v568.4c0 20.056-16.353 36.315-36.526 36.315H54.643c-20.173 0-36.526-16.26-36.526-36.315V46.8z" fill="url(#J)" class="J"/><g fill="#dce0e3"><rect x="149.634" y="18.869" width="33.938" height="2.158" rx="1.079" stroke="url(#K)"/><path d="M204.217 19.948a3.46 3.46 0 0 1-6.94 0 3.46 3.46 0 0 1 6.94 0z" stroke="url(#L)"/></g><g opacity=".6" filter="url(#F)" class="J"><path d="M276.975 6.526c23.243 0 42.085 18.733 42.085 41.842V613.63c0 23.1-18.842 41.843-42.085 41.843h-57.17v1.578h57.17c24.12 0 43.673-19.44 43.673-43.42V48.368c0-23.98-19.553-43.42-43.673-43.42h-21.542v1.58h21.542z" fill="url(#M)"/></g><g opacity=".9" filter="url(#G)" class="J"><path d="M56.23 6.526c-23.242 0-42.084 18.733-42.084 41.842V613.63c0 23.1 18.842 41.843 42.084 41.843h204.863v1.578H56.23c-24.12 0-43.672-19.44-43.672-43.42V48.368c0-23.98 19.553-43.42 43.672-43.42h21.542v1.58H56.23z" fill="url(#N)"/></g><mask id="A" mask-type="alpha" maskUnits="userSpaceOnUse" x="18" y="10" width="298" height="642"><path d="M18.166 44.88l-.05 1.9V615.2c0 20.056 16.353 36.315 36.526 36.315h224.714c20.173 0 36.526-16.26 36.526-36.315V46.555c-.127-19.95-16.432-36.08-36.526-36.08H255.47c-2.736.957-4.697 3.55-4.697 6.598 0 9.655-7.872 17.48-17.583 17.48H100.017c-9.7 0-17.583-7.826-17.583-17.48 0-3.048-1.96-5.64-4.698-6.598H54.643c-9.102 0-17.426 3.3-23.82 8.785a36.66 36.66 0 0 0-6.467 7.226 35.98 35.98 0 0 0-6.189 18.395z" fill="#000" class="J"/></mask><g mask="url(#A)"><path d="M18 10H321V653H18V10Z" fill="url(#O)"/><path d="M18 20h297.12v524.707H18z" class="I"/><g fill="#f0f0f0"><path d="M18 157.667h297.12v.787H18zm0-43.267h297.12v.787H18zm11.885 86.533h273.35v.787H29.885zm0 43.267h273.35v.787H29.885zm0 82.6h273.35v.787H29.885zm0 43.267h273.35v.787H29.885z"/></g><g class="M"><path d="M35.578 182.84l-.73-2.062H31.96l-.73 2.062h-.95l2.676-7.206h.895l2.676 7.206h-.95zm-2.213-6.042l-1.137 3.216h2.354l-1.137-3.216h-.08zm7.713 5.322v-3.945H39.02l-.17 2.302c-.057.726-.206 1.247-.448 1.563v.08h2.676zm-3.324 2.142h-.815v-2.142h.453c.188-.123.335-.333.443-.63s.174-.644.2-1.034l.2-3h3.697v4.664h.865v2.142h-.815v-1.423h-4.24v1.423zm8.672-6.9c.7 0 1.242.253 1.655.76s.624 1.182.624 2.028-.208 1.518-.624 2.027-.967.76-1.655.76a2.17 2.17 0 0 1-1.026-.235 1.56 1.56 0 0 1-.669-.669h-.08v2.607h-.865v-7.18h.825v.9h.08c.174-.3.414-.553.72-.73s.647-.265 1.016-.265zm-.206 4.8c.496 0 .885-.178 1.167-.534s.422-.85.422-1.478-.14-1.122-.422-1.48-.666-.534-1.162-.534a1.4 1.4 0 0 0-1.167.544c-.3.362-.433.85-.433 1.47s.142 1.105.428 1.468.677.544 1.167.544zm5.953-4.042c-.433 0-.788.145-1.066.435s-.434.672-.468 1.148h2.987c-.01-.476-.148-.86-.412-1.148s-.612-.435-1.04-.435zm1.428 3.326h.865a1.86 1.86 0 0 1-.8 1.093c-.403.263-.894.395-1.484.395-.75 0-1.346-.25-1.785-.75s-.66-1.18-.66-2.032.22-1.527.664-2.033 1.036-.76 1.78-.76c.73 0 1.306.24 1.725.724s.63 1.144.63 1.983v.33H50.64v.04c.023.533.174.956.453 1.268s.652.47 1.1.47c.7 0 1.167-.243 1.398-.73zm6.722-2.34h-.875c-.074-.283-.233-.514-.478-.694s-.548-.275-.92-.275c-.486 0-.873.18-1.162.54s-.428.844-.428 1.454c0 .62.144 1.113.432 1.483s.674.55 1.157.55c.365 0 .67-.082.9-.245s.407-.396.488-.7h.875a1.92 1.92 0 0 1-.719 1.243c-.4.317-.915.475-1.55.475-.76 0-1.366-.253-1.816-.76s-.674-1.192-.674-2.047c0-.84.225-1.5.674-2.013s1.053-.754 1.8-.754c.634 0 1.15.165 1.55.495s.644.745.724 1.248zm-26.63 47.002H30.86V218.9h2.776c.664 0 1.187.162 1.57.484s.578.76.578 1.314a1.55 1.55 0 0 1-.367 1.008 1.45 1.45 0 0 1-.885.545v.08c.496.063.9.253 1.182.57s.438.707.438 1.183c0 .636-.218 1.132-.654 1.488s-1.034.535-1.806.535zm-1.926-6.412v2.312h1.448c1.103 0 1.655-.384 1.655-1.153 0-.367-.126-.65-.377-.854s-.597-.305-1.046-.305h-1.68zm0 5.618h1.8c.547 0 .96-.108 1.242-.325s.422-.533.422-.95c0-.84-.583-1.258-1.75-1.258h-1.705v2.532z"/><use xlink:href="#Q"/><path d="M45.843 221.388c-.433 0-.788.145-1.066.434s-.434.673-.468 1.15h2.987c-.01-.476-.148-.86-.412-1.15s-.612-.434-1.04-.434zm1.428 3.325h.865c-.13.467-.397.83-.8 1.094s-.894.395-1.484.395c-.75 0-1.346-.25-1.785-.75s-.66-1.18-.66-2.033.22-1.526.664-2.032 1.036-.76 1.78-.76c.73 0 1.306.24 1.725.724s.63 1.143.63 1.982v.33H44.3v.04c.023.532.174.955.453 1.268s.652.47 1.1.47c.7 0 1.167-.243 1.398-.73zm3.096 1.394h-.865v-5.383h1.05l1.94 4.174h.08l1.946-4.174h1v5.383h-.87v-3.83h-.096l-1.715 3.68h-.674l-1.715-3.68h-.096v3.83zm8.598-2.647h1.02v-2.017h-1.02c-.36 0-.644.093-.855.28s-.317.438-.317.764a.88.88 0 0 0 .322.704c.215.18.498.27.85.27zm1.02 2.647v-1.928h-.93l-1.383 1.928h-1.03l1.514-2.088c-.382-.106-.682-.293-.9-.56s-.327-.584-.327-.954c0-.552.183-.987.548-1.303s.865-.48 1.5-.48h1.886v5.383h-.865z"/><use xlink:href="#Q" x="27.703"/><path d="M73.054 225.448c.446 0 .815-.13 1.106-.385s.443-.578.443-.964v-.494l-1.46.095c-.4.026-.7.1-.9.254s-.287.352-.287.625a.76.76 0 0 0 .307.639c.204.153.468.23.8.23zm-.16.754c-.533 0-.972-.145-1.318-.435s-.513-.682-.513-1.168c0-.48.17-.856.513-1.13s.83-.428 1.464-.464l1.564-.095v-.5c0-.332-.104-.587-.312-.764s-.513-.264-.915-.264c-.325 0-.595.058-.8.175s-.352.28-.412.494H71.3c.057-.43.28-.776.67-1.04s.88-.394 1.46-.394c.657 0 1.165.158 1.524.474s.538.756.538 1.318v3.686h-.825v-.794h-.08a1.78 1.78 0 0 1-.694.659 2.05 2.05 0 0 1-.976.23zm5.162-1.3c.285.343.687.515 1.207.515s.92-.172 1.202-.515.427-.825.427-1.448c0-.592-.142-1.05-.427-1.373s-.682-.5-1.202-.5-.922.163-1.207.5-.422.78-.422 1.373c0 .623.14 1.105.422 1.448zm-.578-3.086h.08c.174-.303.416-.544.724-.724s.68-.27 1.1-.27c.72 0 1.3.236 1.735.7s.66 1.1.66 1.922c0 .85-.226 1.518-.68 2.008s-1.065.73-1.846.73c-.815 0-1.44-.27-1.876-.8s-.65-1.357-.65-2.442a11.04 11.04 0 0 1 .075-1.368 5.01 5.01 0 0 1 .267-1.104c.125-.34.293-.626.498-.85a2.15 2.15 0 0 1 .779-.529c.32-.133.7-.2 1.117-.23l.543-.025a3.95 3.95 0 0 0 .73-.1l.513-.13.17-.07v.77c-.023.02-.062.046-.116.08s-.198.075-.433.135-.5.092-.825.105l-.553.025c-.355.017-.656.075-.9.175a1.4 1.4 0 0 0-.593.434c-.15.194-.267.4-.347.654a4.72 4.72 0 0 0-.186.894zm6.652 3.076c.278.35.674.525 1.187.525s.9-.175 1.187-.525.417-.85.417-1.488-.14-1.133-.417-1.483-.674-.53-1.187-.53-.9.176-1.187.53-.418.844-.418 1.483.14 1.135.418 1.488zm3.013.555c-.446.496-1.054.744-1.826.744s-1.38-.248-1.83-.744-.67-1.18-.67-2.043.223-1.546.67-2.042 1.056-.744 1.83-.744 1.385.248 1.83.744.67 1.177.67 2.042-.225 1.543-.674 2.043zm5.694-4.734v.72h-1.76v4.664h-.865v-4.664h-1.76v-.72h4.386zm5.696 5.383v-5.383h.865v5.383h-.865zm-2.706-2.936h-1.02v2.217h1.02c.355 0 .64-.1.85-.3s.322-.473.322-.8-.107-.604-.322-.804-.495-.304-.85-.304zm-1.886 2.936v-5.383h.865v1.727h1.02c.62 0 1.115.165 1.484.495s.553.774.553 1.333-.184 1.004-.553 1.333-.863.495-1.484.495H93.94zm-60.3 66.866h-.905v-6.396h-2.34v-.8H36v.8h-2.34v6.396zm5.028-4.72c-.433 0-.788.145-1.066.435s-.434.672-.468 1.148h2.987c-.01-.476-.148-.858-.412-1.148s-.612-.435-1.04-.435zm1.428 3.326h.865a1.87 1.87 0 0 1-.8 1.094c-.4.263-.894.394-1.484.394-.75 0-1.346-.25-1.785-.75s-.66-1.18-.66-2.032.22-1.527.664-2.033 1.036-.76 1.78-.76c.73 0 1.306.242 1.725.725s.63 1.143.63 1.982v.33h-3.898v.04c.023.533.174.956.453 1.27s.652.47 1.1.47c.7 0 1.167-.243 1.398-.73zm3.534-.97l-.1.82a3.69 3.69 0 0 1-.186.664c-.08.206-.174.377-.292.5a1.17 1.17 0 0 1-.428.304 1.47 1.47 0 0 1-.588.11.81.81 0 0 1-.317-.055v-.8a.85.85 0 0 0 .272.04c.255 0 .444-.136.568-.4s.2-.68.246-1.214l.2-3h3.546v5.383h-.865v-4.664H43.8l-.17 2.302zm6.66-2.356c-.433 0-.788.145-1.066.435s-.434.672-.468 1.148h2.987c-.01-.476-.148-.858-.412-1.148s-.612-.435-1.04-.435zm1.428 3.326h.865a1.87 1.87 0 0 1-.8 1.094c-.4.263-.894.394-1.484.394-.75 0-1.346-.25-1.785-.75s-.66-1.18-.66-2.032.22-1.527.664-2.033 1.036-.76 1.78-.76c.73 0 1.306.242 1.725.725s.63 1.143.63 1.982v.33h-3.898v.04c.024.533.174.956.453 1.27s.652.47 1.1.47c.7 0 1.167-.243 1.398-.73zm4.762.714v-4.025c-.6.014-1.058.2-1.403.56s-.513.84-.513 1.453.17 1.093.513 1.453.813.543 1.403.56zm2.756-2.012c0-.6-.173-1.092-.518-1.448s-.806-.548-1.393-.565v4.025c.587-.013 1.05-.198 1.393-.554s.518-.846.518-1.458zm-2.756 2.756c-.845-.016-1.522-.273-2.032-.77s-.764-1.162-.764-1.987.255-1.492.764-1.988 1.187-.755 2.032-.77v-1.757h.845v1.757c.842.017 1.517.275 2.027.774s.764 1.157.764 1.983-.255 1.493-.764 1.992-1.185.75-2.027.764v1.733H56.5v-1.733zm5.982-1.268c.278.35.674.524 1.187.524s.9-.175 1.187-.524.418-.85.418-1.488-.14-1.134-.418-1.483-.674-.53-1.187-.53-.9.177-1.187.53-.418.844-.418 1.483.14 1.135.418 1.488zm3.013.554c-.446.496-1.055.744-1.826.744s-1.38-.248-1.83-.744-.67-1.18-.67-2.042.223-1.547.67-2.043 1.056-.744 1.83-.744 1.385.248 1.83.744.67 1.177.67 2.043-.225 1.543-.674 2.042zm1.968.65V287.6h.865v2.227h2.706V287.6h.865v5.383h-.865v-2.437H68.32v2.437h-.865zm10.6 0V287.6h.865v5.383h-.865zm-2.706-2.936h-1.02v2.217h1.02c.355 0 .64-.1.85-.3s.322-.473.322-.8-.107-.605-.322-.804-.495-.305-.85-.305zm-1.886 2.936V287.6h.865v1.728h1.02c.62 0 1.115.165 1.484.494s.553.774.553 1.334-.184 1.003-.553 1.333-.863.494-1.484.494H73.45zm-39.667 59.17c-.986 0-1.767-.338-2.344-1.014s-.86-1.594-.86-2.756.287-2.08.86-2.756 1.353-1.02 2.34-1.02c.764 0 1.418.216 1.96.65s.868.997.976 1.693h-.92c-.12-.466-.362-.834-.724-1.104s-.793-.4-1.293-.4c-.697 0-1.25.265-1.66.794s-.6 1.247-.6 2.152.204 1.623.614 2.152.962.8 1.66.8c.506 0 .94-.12 1.297-.36a1.71 1.71 0 0 0 .714-.99h.92a2.46 2.46 0 0 1-.98 1.588c-.532.396-1.18.6-1.95.6zm6.052-.83c.446 0 .815-.128 1.106-.384s.443-.578.443-.964v-.494l-1.46.094c-.4.027-.7.112-.9.255s-.287.35-.287.624.102.483.307.64.468.23.8.23zm-.16.754c-.533 0-.972-.145-1.318-.434s-.513-.683-.513-1.17c0-.48.17-.855.513-1.128s.83-.428 1.464-.465l1.564-.094v-.5c0-.333-.104-.587-.312-.764s-.513-.264-.915-.264c-.325 0-.595.058-.8.174s-.352.282-.412.495h-.875c.057-.43.28-.776.67-1.04s.878-.394 1.458-.394c.657 0 1.165.158 1.524.474s.538.756.538 1.318v3.685h-.825v-.794h-.08a1.78 1.78 0 0 1-.694.66 2.05 2.05 0 0 1-.976.23zm4.975-.095h-.865v-5.37h.865v4.015h.08l2.7-4.015h.865v5.383h-.865v-4.014h-.08l-2.7 4.014zm-.407-7.77h.785c0 .287.086.533.257.74s.397.3.68.3.513-.103.684-.3a1.11 1.11 0 0 0 .262-.74h.785c0 .47-.16.86-.483 1.174s-.734.464-1.247.464-.924-.154-1.242-.464-.478-.7-.478-1.174z"/><path d="M53.792 346.6v.72h-1.76v4.664h-.865v-4.664h-1.76v-.72h4.386zM155.7 182.84h-2.83v-7.206h2.776c.664 0 1.187.162 1.57.485s.58.76.58 1.313a1.56 1.56 0 0 1-.367 1.01c-.244.3-.537.48-.886.544v.08c.497.063.9.253 1.182.57s.438.708.438 1.184c0 .635-.218 1.13-.654 1.488s-1.034.534-1.806.534zm-1.926-6.412v2.312h1.45c1.103 0 1.654-.384 1.654-1.153 0-.366-.125-.65-.377-.854s-.597-.305-1.046-.305h-1.68zm0 5.618h1.8c.546 0 .96-.108 1.242-.325s.422-.532.422-.948c0-.84-.583-1.26-1.75-1.26h-1.705v2.532zm7.858-3.926c-.433 0-.788.145-1.067.435s-.434.672-.467 1.148h2.987c-.01-.476-.147-.86-.412-1.148s-.612-.435-1.04-.435zm1.428 3.326h.865a1.86 1.86 0 0 1-.8 1.093c-.403.263-.893.395-1.483.395-.75 0-1.347-.25-1.786-.75s-.66-1.18-.66-2.033.222-1.526.664-2.032 1.036-.76 1.78-.76c.73 0 1.306.24 1.725.724s.628 1.144.628 1.983v.33h-3.897v.04c.023.533.174.956.452 1.268s.652.47 1.112.47c.7 0 1.167-.243 1.398-.73zm3.533-.968l-.1.82c-.043.236-.105.458-.186.664s-.174.376-.3.5-.257.232-.428.305-.367.1-.588.1a.81.81 0 0 1-.317-.055v-.8a.85.85 0 0 0 .271.04c.255 0 .445-.137.57-.4s.2-.68.246-1.214l.2-3h3.546v5.383h-.865v-4.664h-1.896l-.17 2.302zm5.54 1.16c.278.35.674.524 1.187.524s.908-.175 1.187-.524.417-.85.417-1.5-.14-1.133-.417-1.483-.674-.53-1.187-.53-.9.177-1.187.53-.418.844-.418 1.483.14 1.136.418 1.5zm3.012.554c-.446.496-1.054.744-1.825.744s-1.382-.248-1.83-.744-.67-1.18-.67-2.043.223-1.546.67-2.042 1.056-.744 1.83-.744 1.385.248 1.83.744.67 1.177.67 2.042-.224 1.543-.674 2.043zm3.74.74c-.6 0-1.082-.133-1.474-.4a1.42 1.42 0 0 1-.654-1.068h.9a.84.84 0 0 0 .403.549c.218.13.496.195.835.195.392 0 .697-.083.915-.25a.79.79 0 0 0 .327-.66c0-.306-.102-.53-.307-.674s-.516-.22-.935-.22h-.82v-.72h.82c.7 0 1.036-.268 1.036-.804 0-.24-.087-.43-.262-.574s-.432-.215-.774-.215c-.326 0-.594.065-.805.195s-.335.303-.372.52h-.855c.057-.443.268-.794.634-1.053s.83-.4 1.398-.4c.6 0 1.064.133 1.393.4s.498.614.498 1.053a1.15 1.15 0 0 1-.247.724 1.07 1.07 0 0 1-.633.41v.08c.355.076.625.22.8.434s.282.476.282.8a1.48 1.48 0 0 1-.578 1.213c-.386.3-.894.465-1.524.465zm5.077-.75c.446 0 .815-.128 1.106-.385a1.22 1.22 0 0 0 .443-.963v-.495l-1.46.095c-.4.027-.7.112-.9.255s-.287.35-.287.624a.76.76 0 0 0 .307.639c.205.153.468.23.8.23zm-.16.754c-.533 0-.972-.145-1.318-.435s-.513-.682-.513-1.168c0-.48.17-.856.513-1.13s.83-.427 1.464-.464l1.564-.095v-.5c0-.333-.104-.588-.312-.764s-.513-.265-.915-.265c-.326 0-.595.058-.8.175s-.352.28-.412.494h-.876c.057-.43.28-.775.67-1.038s.88-.395 1.46-.395c.657 0 1.165.158 1.524.475s.538.755.538 1.318v3.685h-.825v-.794h-.08c-.175.286-.406.506-.694.66s-.614.23-.976.23zm6.308-4.758h-1.323v1.518h1.182c.68 0 1.02-.256 1.02-.77 0-.233-.073-.416-.22-.55s-.364-.2-.66-.2zm-.065 2.237h-1.258v1.708h1.424c.332 0 .583-.072.754-.215s.262-.356.262-.63c0-.296-.1-.514-.297-.654s-.5-.2-.885-.2zm-2.123 2.427v-5.383h2.3c.506 0 .903.125 1.192.375s.432.58.432 1.003a1.18 1.18 0 0 1-.256.73 1.01 1.01 0 0 1-.63.405v.08c.342.046.615.184.82.414s.307.503.307.83c0 .473-.165.85-.493 1.13s-.783.42-1.363.42h-2.3zm6.47-1.203c.278.35.674.524 1.187.524s.908-.175 1.187-.524.417-.85.417-1.5-.14-1.133-.417-1.483-.674-.53-1.187-.53-.9.177-1.187.53-.418.844-.418 1.483.14 1.136.418 1.5zm3.012.554c-.446.496-1.054.744-1.825.744s-1.382-.248-1.83-.744-.67-1.18-.67-2.043.223-1.546.67-2.042 1.056-.744 1.83-.744 1.384.248 1.83.744.67 1.177.67 2.042-.224 1.543-.674 2.043zm5.37-.07v-3.945h-2.057l-.17 2.302c-.057.726-.206 1.247-.448 1.563v.08h2.676zm-3.324 2.142h-.815v-2.142h.453c.187-.123.335-.333.442-.63s.174-.644.2-1.034l.212-3h3.696v4.664h.865v2.142h-.815v-1.423h-4.24v1.423zm10.524-5.157h-.876c-.073-.283-.233-.514-.477-.694s-.55-.275-.92-.275a1.41 1.41 0 0 0-1.161.539c-.285.36-.428.844-.428 1.454 0 .62.144 1.113.433 1.483s.673.55 1.156.55c.366 0 .67-.082.9-.245s.407-.396.487-.7h.876c-.08.5-.32.924-.72 1.243s-.915.475-1.55.475c-.76 0-1.366-.253-1.815-.76s-.674-1.192-.674-2.047c0-.84.224-1.5.674-2.013s1.053-.754 1.8-.754c.634 0 1.15.165 1.55.494a1.97 1.97 0 0 1 .725 1.249zm2.08.605h.237l2.147-2.252h1.05l-2.484 2.537 2.58 2.846h-1.122l-2.172-2.452h-.237v2.452h-.865v-5.383h.865v2.252zm6.103 2.47c.446 0 .815-.128 1.107-.385a1.22 1.22 0 0 0 .442-.963v-.495l-1.458.095c-.4.027-.7.112-.9.255s-.287.35-.287.624.102.483.307.64.467.23.8.23zm-.16.754c-.533 0-.972-.145-1.317-.435s-.513-.682-.513-1.168c0-.48.17-.856.513-1.13s.83-.427 1.463-.464l1.564-.095v-.5c0-.333-.104-.588-.3-.764s-.513-.265-.916-.265c-.325 0-.595.058-.8.175s-.352.28-.412.494h-.875c.057-.43.28-.775.67-1.038s.878-.395 1.458-.395c.658 0 1.166.158 1.524.475s.538.755.538 1.318v3.685h-.824v-.794h-.08c-.174.286-.406.506-.694.66a2.05 2.05 0 0 1-.976.23zm5.977-2.74h1.02v-2.017h-1.02c-.36 0-.644.093-.855.28s-.317.437-.317.764a.88.88 0 0 0 .322.704c.214.18.498.27.85.27zm1.02 2.647v-1.928h-.93l-1.383 1.928h-1.03l1.514-2.087c-.382-.107-.682-.293-.9-.56s-.327-.584-.327-.953c0-.553.183-.987.548-1.304s.865-.48 1.5-.48h1.886v5.383h-.865zm3 1.833h-.755l.483-2.842h1.016l-.744 2.842zm6.76-1.833v-6.207h-.08l-1.846 1.328v-.948l1.93-1.38h.9v7.206h-.905zm4.63 1.623l-2.223-8.83h.764l2.213 8.83h-.754zm3.342-1.623v-6.207h-.08l-1.846 1.328v-.948l1.932-1.38h.9v7.206h-.905zm10.205-3.735h-.875c-.074-.283-.233-.514-.478-.694s-.548-.275-.92-.275a1.41 1.41 0 0 0-1.162.54c-.288.36-.427.844-.427 1.454 0 .62.144 1.113.432 1.483s.674.55 1.157.55c.365 0 .67-.082.9-.245a1.23 1.23 0 0 0 .488-.7h.875a1.92 1.92 0 0 1-.719 1.243c-.4.317-.915.475-1.55.475-.76 0-1.366-.253-1.816-.76s-.674-1.192-.674-2.047c0-.84.225-1.5.674-2.013s1.053-.754 1.8-.754c.634 0 1.15.165 1.55.494a1.97 1.97 0 0 1 .724 1.249zm4.88-1.648v.72h-1.76v4.664h-.865v-4.664h-1.76v-.72h4.385zm3.754-.095c.7 0 1.243.253 1.655.76s.624 1.182.624 2.027-.208 1.52-.624 2.028-.967.76-1.655.76c-.385 0-.727-.078-1.026-.235a1.54 1.54 0 0 1-.668-.67h-.08v2.607h-.865v-7.18h.825v.9h.08c.175-.3.414-.553.72-.73s.647-.265 1.015-.265zm-.206 4.8c.496 0 .885-.178 1.167-.534s.423-.85.423-1.48-.14-1.12-.423-1.478-.665-.534-1.162-.534c-.5 0-.878.182-1.167.544s-.432.85-.432 1.468.142 1.106.427 1.47.678.544 1.167.544zm4.832-.525c.278.35.674.524 1.187.524s.9-.175 1.187-.524.417-.85.417-1.5-.14-1.133-.417-1.483-.674-.53-1.187-.53-.9.177-1.187.53-.418.844-.418 1.483.14 1.136.418 1.5zm3.013.554c-.446.496-1.055.744-1.826.744s-1.382-.248-1.83-.744-.67-1.18-.67-2.043.223-1.546.67-2.042 1.056-.744 1.83-.744 1.385.248 1.83.744.668 1.177.668 2.042-.224 1.543-.673 2.043zm4.135-4.07c-.432 0-.788.145-1.066.435s-.434.672-.468 1.148h2.988c-.01-.476-.148-.86-.413-1.148s-.612-.435-1.04-.435zm1.428 3.326h.866a1.87 1.87 0 0 1-.8 1.093c-.4.263-.894.395-1.484.395-.75 0-1.346-.25-1.785-.75s-.66-1.18-.66-2.033.22-1.526.664-2.032 1.036-.76 1.78-.76c.73 0 1.306.24 1.725.724s.63 1.144.63 1.983v.33h-3.898v.04c.024.533.175.956.453 1.268s.652.47 1.1.47c.7 0 1.167-.243 1.398-.73zm2.23 1.394v-5.383h.865v2.227h2.706v-2.227h.865v5.383h-.865v-2.437h-2.706v2.437h-.865zm6.863 0h-.866v-5.383h.866v4.015h.08l2.7-4.015h.865v5.383h-.865v-4.015h-.08l-2.7 4.015zm7.38-4.72c-.432 0-.788.145-1.066.435s-.434.672-.468 1.148h2.988c-.01-.476-.148-.86-.413-1.148s-.612-.435-1.04-.435zm1.428 3.326h.865a1.86 1.86 0 0 1-.8 1.093c-.403.263-.894.395-1.484.395-.75 0-1.346-.25-1.785-.75s-.66-1.18-.66-2.033.22-1.526.664-2.032 1.036-.76 1.78-.76c.73 0 1.306.24 1.725.724s.63 1.144.63 1.983v.33h-3.898v.04c.024.533.174.956.453 1.268s.652.47 1.1.47c.7 0 1.167-.243 1.398-.73zm6.412-1.926v-.77h.88c.412 0 .75-.12 1-.36a1.2 1.2 0 0 0 .397-.92c0-.366-.127-.66-.382-.884s-.592-.34-1-.34-.758.1-1.016.33-.406.518-.442.904h-.88c.047-.626.282-1.12.704-1.478s.98-.54 1.67-.54c.416 0 .798.084 1.147.254a2.1 2.1 0 0 1 .83.684 1.63 1.63 0 0 1 .302.949c0 .43-.113.792-.337 1.1s-.537.492-.936.6v.08c.493.063.88.255 1.162.574s.422.72.422 1.214c0 .592-.246 1.093-.74 1.503s-1.098.6-1.816.6c-.737 0-1.34-.187-1.805-.56a1.96 1.96 0 0 1-.749-1.488h.875a1.27 1.27 0 0 0 .513.919c.3.23.687.345 1.156.345.477 0 .867-.127 1.172-.38a1.2 1.2 0 0 0 .463-.973c0-.417-.15-.746-.448-1s-.705-.365-1.222-.365h-.92zm-116.2 39.676c-.986 0-1.767-.337-2.344-1.013s-.86-1.595-.86-2.757.287-2.08.86-2.756 1.353-1.02 2.34-1.02c.764 0 1.418.217 1.96.65s.87.997.976 1.693h-.92c-.12-.466-.362-.834-.724-1.103s-.793-.4-1.292-.4c-.698 0-1.25.265-1.66.794s-.6 1.247-.6 2.152.205 1.623.614 2.153.962.788 1.66.788c.506 0 .94-.12 1.297-.36a1.71 1.71 0 0 0 .714-.99h.92c-.12.663-.448 1.192-.98 1.588s-1.18.6-1.95.6zm6.546-4.888c-.432 0-.788.145-1.066.434s-.434.673-.468 1.15h2.988c-.01-.476-.148-.86-.413-1.15s-.6-.434-1.04-.434zm1.43 3.325h.865a1.87 1.87 0 0 1-.8 1.094c-.4.263-.893.395-1.484.395-.75 0-1.346-.25-1.785-.75s-.66-1.18-.66-2.032.22-1.526.664-2.032 1.036-.76 1.78-.76c.73 0 1.306.24 1.726.724s.628 1.143.628 1.982v.33h-3.898v.04c.024.532.175.955.453 1.268s.652.47 1.112.47c.7 0 1.166-.243 1.398-.73zm5.7-3.27h-2.605v4.664h-.865v-5.383h3.47v.72zm2.055 3.46c.278.35.674.525 1.187.525s.9-.175 1.187-.525.417-.85.417-1.488-.14-1.133-.417-1.483-.674-.53-1.187-.53-.9.176-1.187.53-.417.844-.417 1.483.14 1.135.417 1.488zm3.013.554c-.446.496-1.055.745-1.826.745s-1.382-.25-1.83-.745-.67-1.18-.67-2.042.223-1.546.67-2.042 1.056-.744 1.83-.744 1.385.248 1.83.744.668 1.177.668 2.042-.224 1.543-.673 2.042z"/><use xlink:href="#R"/><path d="M209.7 219.027v-5.383h.865v2.227h2.706v-2.227h.865v5.383h-.865V216.6h-2.706v2.437h-.865zm7.853-2.647h1.02v-2.017h-1.02c-.36 0-.644.093-.855.28s-.317.438-.317.764a.88.88 0 0 0 .322.704c.215.18.498.27.85.27zm1.02 2.647V217.1h-.93l-1.384 1.928h-1.03l1.514-2.088c-.382-.106-.682-.293-.9-.56s-.327-.584-.327-.954c0-.552.183-.987.548-1.303s.865-.48 1.5-.48h1.886v5.383h-.865zm9.667-3.737h-.875c-.073-.282-.233-.514-.478-.694s-.548-.274-.92-.274c-.486 0-.873.18-1.162.54s-.427.844-.427 1.453c0 .62.144 1.114.432 1.483s.674.55 1.157.55c.366 0 .67-.082.9-.245a1.23 1.23 0 0 0 .488-.7h.875a1.92 1.92 0 0 1-.719 1.243c-.4.316-.915.475-1.55.475-.76 0-1.366-.253-1.815-.76s-.674-1.2-.674-2.047c0-.84.224-1.5.674-2.012s1.052-.754 1.8-.754c.634 0 1.15.165 1.55.494s.644.746.724 1.248z"/><use xlink:href="#S"/><path d="M242.843 218.612c-.486.4-1.113.584-1.88.584s-1.396-.194-1.886-.584-.73-.897-.73-1.513c0-.47.137-.872.412-1.208s.64-.546 1.097-.63v-.08a1.61 1.61 0 0 1-.886-.585c-.222-.3-.326-.63-.326-1.023 0-.563.216-1.024.648-1.383s.993-.54 1.67-.54 1.232.18 1.665.54a1.71 1.71 0 0 1 .654 1.383c0 .396-.1.737-.327 1.023s-.5.48-.885.585v.08c.456.083.82.292 1.096.63s.412.74.412 1.208a1.85 1.85 0 0 1-.734 1.513zm-3.108-.57c.315.256.724.384 1.227.384s.912-.128 1.227-.384a1.24 1.24 0 0 0 .473-1.01 1.23 1.23 0 0 0-.473-1.003c-.315-.26-.724-.4-1.227-.4s-.912.13-1.227.4a1.23 1.23 0 0 0-.473 1.003 1.25 1.25 0 0 0 .473 1.01zm.2-3.496c.262.224.607.335 1.036.335s.775-.1 1.036-.335.392-.522.392-.888a1.13 1.13 0 0 0-.392-.9c-.262-.227-.607-.34-1.036-.34s-.774.113-1.036.34-.392.526-.392.9c0 .366.13.662.392.888zm5.697 3.657c-.178 0-.332-.064-.463-.2a.63.63 0 0 1-.19-.46c0-.177.064-.333.2-.46s.285-.2.463-.2a.63.63 0 0 1 .462.19c.128.127.192.28.192.46a.63.63 0 0 1-.654.65zm0-3.84c-.178 0-.332-.064-.463-.2a.63.63 0 0 1-.19-.46c0-.177.064-.333.2-.46s.285-.2.463-.2a.63.63 0 0 1 .462.19c.128.127.192.28.192.46a.63.63 0 0 1-.654.65zm3.613 1.343v-.77h.88c.413 0 .75-.12 1-.36a1.2 1.2 0 0 0 .398-.918c0-.367-.128-.66-.383-.884s-.6-.34-1-.34-.758.1-1.016.33a1.31 1.31 0 0 0-.443.904h-.88c.047-.626.282-1.12.704-1.478s.98-.54 1.67-.54c.416 0 .798.085 1.146.255a2.04 2.04 0 0 1 .83.684 1.63 1.63 0 0 1 .302.949c0 .43-.112.792-.337 1.088s-.536.493-.935.6v.08c.493.064.88.255 1.16.575s.423.72.423 1.213c0 .593-.247 1.094-.74 1.503s-1.1.6-1.816.6c-.738 0-1.34-.186-1.806-.56s-.715-.872-.75-1.488h.875a1.27 1.27 0 0 0 .513.92c.303.23.687.344 1.157.344.476 0 .867-.126 1.172-.38s.462-.578.462-.974c0-.416-.15-.746-.447-1s-.706-.364-1.222-.364h-.92zm7.265 3.5c-.818 0-1.452-.33-1.9-.988s-.674-1.588-.674-2.787c0-1.188.226-2.114.68-2.776a2.17 2.17 0 0 1 1.896-.994 2.14 2.14 0 0 1 1.886 1c.45.667.68 1.595.68 2.786s-.225 2.12-.674 2.777a2.15 2.15 0 0 1-1.891.983zm-1.237-1.558c.288.516.7.774 1.237.774s.946-.256 1.227-.77.428-1.256.428-2.222c0-.955-.144-1.7-.433-2.207s-.692-.774-1.222-.774-.94.26-1.232.78-.433 1.25-.433 2.202c0 .962.143 1.7.428 2.217z"/><use xlink:href="#R" x="59.65"/><path d="M270.384 217.823c.278.35.674.525 1.187.525s.908-.175 1.187-.525.417-.85.417-1.488-.14-1.133-.417-1.483-.674-.53-1.187-.53-.9.176-1.187.53-.418.844-.418 1.483.14 1.135.418 1.488zm3.012.554c-.446.496-1.054.745-1.825.745s-1.382-.25-1.83-.745-.67-1.18-.67-2.042.223-1.546.67-2.042 1.056-.744 1.83-.744 1.384.248 1.83.744.67 1.177.67 2.042-.224 1.543-.674 2.042zm6.404.65v-6.207h-.08l-1.846 1.328v-.95l1.932-1.378h.9v7.206h-.905zm3.215 0l3.26-6.332v-.07h-3.883v-.804h4.803v.834l-3.23 6.372h-.95zm6.033-.824c-.178 0-.332-.064-.463-.2a.63.63 0 0 1-.191-.459c0-.18.063-.333.2-.46s.285-.2.463-.2a.63.63 0 0 1 .462.19.62.62 0 0 1 .19.46.63.63 0 0 1-.653.649zm0-3.84c-.178 0-.332-.064-.463-.2a.63.63 0 0 1-.191-.459c0-.18.063-.333.2-.46s.285-.2.463-.2a.63.63 0 0 1 .462.19.62.62 0 0 1 .19.46.63.63 0 0 1-.653.649zm4.62 4.833c-.818 0-1.452-.33-1.9-.988s-.674-1.588-.674-2.787c0-1.188.226-2.114.68-2.776a2.17 2.17 0 0 1 1.896-.994 2.14 2.14 0 0 1 1.886 1c.45.667.68 1.595.68 2.786s-.225 2.12-.674 2.777a2.15 2.15 0 0 1-1.891.983zm-1.237-1.558c.288.516.7.774 1.237.774s.946-.256 1.227-.77.428-1.256.428-2.222c0-.955-.145-1.7-.433-2.207s-.692-.774-1.222-.774-.94.26-1.232.78-.433 1.25-.433 2.202c0 .962.143 1.7.428 2.217z"/><use xlink:href="#S" x="65.404"/><use xlink:href="#T"/><path d="M250.44 229.557a1.08 1.08 0 0 0-.82.334c-.213.224-.334.517-.36.883h2.298c-.008-.366-.114-.66-.318-.883a1.03 1.03 0 0 0-.8-.334zm1.098 2.558h.666a1.44 1.44 0 0 1-.615.841c-.307.202-.688.304-1.142.304-.577 0-1.035-.192-1.373-.577s-.507-.907-.507-1.563.17-1.174.5-1.563.797-.584 1.37-.584c.563 0 1.005.186 1.327.557s.484.88.484 1.525v.253h-2.998v.03c.018.4.134.735.348.976s.5.36.855.36c.54 0 .897-.187 1.075-.56zm2.346 1.072h-.666v-4.14h.666v3.088h.062l2.077-3.088h.666v4.14h-.666v-3.1h-.062l-2.077 3.1zm-.314-5.977h.604a.88.88 0 0 0 .197.568c.13.168.306.238.523.238s.394-.08.526-.238a.85.85 0 0 0 .201-.568h.603c0 .36-.123.662-.37.902s-.565.358-.96.358-.7-.12-.956-.358-.368-.54-.368-.902zm7.467 5.977h-.665v-1.867h-.062a1.67 1.67 0 0 1-1.091.392c-.45 0-.805-.135-1.06-.404s-.38-.63-.38-1.08v-1.183h.665v1.183c0 .277.072.495.217.657s.347.238.607.238c.155 0 .3-.02.434-.058s.248-.088.336-.15a1.99 1.99 0 0 0 .205-.169 1.03 1.03 0 0 0 .128-.146v-1.556h.665v4.14zm2.463-.507c.343 0 .627-.1.85-.296a.94.94 0 0 0 .341-.742v-.38l-1.122.073c-.315.02-.546.086-.693.196s-.22.27-.22.48.08.372.236.492.36.177.607.177zm-.124.58c-.4 0-.747-.112-1.013-.335s-.395-.525-.395-.898.132-.66.395-.868.638-.33 1.126-.358l1.203-.073v-.376c0-.256-.08-.452-.24-.588s-.395-.203-.704-.203c-.25 0-.458.044-.623.134s-.27.216-.317.38h-.673c.043-.33.215-.596.514-.8s.676-.303 1.122-.303c.506 0 .896.122 1.172.365s.414.58.414 1.014v2.835h-.634v-.6h-.062a1.37 1.37 0 0 1-.534.507c-.222.118-.472.177-.75.177z"/><use xlink:href="#T" x="22.072"/><path d="M274.323 233.256c-.454 0-.832-.103-1.133-.308a1.09 1.09 0 0 1-.503-.822h.685a.64.64 0 0 0 .31.423c.166.1.382.15.642.15.302 0 .537-.064.704-.192a.61.61 0 0 0 .252-.507c0-.236-.08-.4-.236-.52s-.397-.17-.72-.17h-.63v-.553h.63c.532 0 .797-.206.797-.618a.54.54 0 0 0-.201-.442c-.134-.1-.333-.165-.596-.165-.25 0-.456.05-.62.15a.57.57 0 0 0-.286.399h-.658a1.13 1.13 0 0 1 .488-.81c.28-.2.64-.3 1.075-.3.462 0 .82.102 1.072.307s.383.473.383.8a.84.84 0 0 1-.2.557.82.82 0 0 1-.487.315v.06c.273.06.48.17.623.334a.89.89 0 0 1 .216.607 1.14 1.14 0 0 1-.445.934c-.296.238-.687.357-1.172.357zm3.87-.576c.343 0 .627-.1.85-.296a.94.94 0 0 0 .341-.742v-.38l-1.122.073c-.315.02-.546.086-.693.196s-.22.27-.22.48a.58.58 0 0 0 .236.492c.158.12.36.177.607.177zm-.124.58c-.4 0-.748-.112-1.013-.335s-.395-.525-.395-.898.132-.66.395-.868.638-.33 1.126-.358l1.203-.073v-.376c0-.256-.08-.452-.24-.588s-.395-.203-.704-.203c-.25 0-.458.044-.623.134s-.27.216-.317.38h-.674c.044-.33.216-.596.515-.8s.676-.303 1.122-.303c.505 0 .896.122 1.172.365s.414.58.414 1.014v2.835h-.634v-.6h-.062a1.37 1.37 0 0 1-.534.507c-.222.118-.472.177-.75.177zm3.792-2.482h.182l1.652-1.732h.808l-1.9 1.95 1.985 2.2h-.863l-1.67-1.886h-.182v1.886h-.666v-4.14h.666v1.732zm5.517-1.805a1.56 1.56 0 0 1 1.273.584c.318.39.48.9.48 1.56s-.16 1.168-.48 1.56-.744.584-1.273.584c-.297 0-.56-.06-.8-.18s-.4-.294-.515-.515H286v2.005h-.665v-5.523h.634v.7h.062a1.47 1.47 0 0 1 .553-.56c.233-.135.498-.203.782-.203zm-.16 3.7c.382 0 .68-.137.898-.4s.325-.653.325-1.137-.1-.863-.325-1.137-.512-.4-.894-.4c-.376 0-.676.14-.897.42s-.333.653-.333 1.13.1.85.33 1.13.52.418.897.418zm6.408.524v-4.14h.665v4.14h-.665zm-2.08-2.26h-.786v1.706h.786c.273 0 .5-.077.653-.23s.248-.364.248-.622-.082-.465-.248-.62-.38-.234-.653-.234zm-1.45 2.26v-4.14h.665v1.33h.786c.477 0 .857.127 1.14.38s.426.596.426 1.026-.142.772-.426 1.025-.664.38-1.14.38h-1.45zm8.385-4.14v.553h-1.354v3.588h-.665V229.6h-1.354v-.553h3.373zm1.463 3.214c.214.27.518.403.913.403s.7-.134.913-.403.32-.653.32-1.145-.107-.872-.32-1.14-.518-.407-.913-.407-.7.136-.913.407-.32.65-.32 1.14.107.873.32 1.145zm2.317.426c-.343.382-.8.573-1.404.573s-1.063-.2-1.408-.573-.515-.908-.515-1.57.172-1.2.515-1.57.812-.572 1.408-.572 1.065.2 1.408.572.515.905.515 1.57-.173 1.187-.52 1.57zm-90.267 30.227v2.172h-.744v-2.172h-2.188v-.74h2.188V260h.744v2.172h2.188v.74h-2.188zm3.92 2.527l3.26-6.332v-.07H215.3v-.804h4.803v.834l-3.23 6.372h-.95zm7.627 1.383h-.764c-.433-.536-.768-1.185-1.006-1.947s-.352-1.577-.352-2.432.1-1.608.332-2.267.58-1.308 1.076-1.938h.73c-.365.426-.665 1.032-.9 1.818a8.42 8.42 0 0 0-.347 2.387 8.21 8.21 0 0 0 .292 2.217c.195.7.5 1.416.94 2.162z"/><use xlink:href="#U"/><path d="M233.62 265.605c-.617 0-1.14-.168-1.57-.505s-.696-.8-.8-1.378h.93a1.47 1.47 0 0 0 .533.794 1.51 1.51 0 0 0 .925.3 1.54 1.54 0 0 0 1.373-.759c.33-.506.505-1.24.528-2.197h-.08a1.96 1.96 0 0 1-.775.82c-.34.198-.724.3-1.157.3-.7 0-1.26-.226-1.7-.68s-.673-1.034-.673-1.733c0-.725.238-1.32.714-1.782s1.086-.7 1.83-.7c.544 0 1.02.14 1.43.42s.726.686.95 1.218c.235.546.352 1.216.352 2.008 0 1.238-.243 2.197-.73 2.876s-1.173 1.02-2.062 1.02zm-1.116-3.885c.305.306.697.46 1.176.46s.874-.153 1.182-.46a1.59 1.59 0 0 0 .468-1.174c0-.482-.158-.885-.473-1.208s-.7-.484-1.167-.484a1.57 1.57 0 0 0-1.17.48c-.314.32-.468.7-.468 1.183 0 .493.15.894.453 1.204zm7.526 3.885c-.617 0-1.14-.168-1.57-.505s-.696-.8-.8-1.378h.93c.097.336.274.6.533.794a1.51 1.51 0 0 0 .925.3 1.54 1.54 0 0 0 1.373-.759c.33-.506.505-1.24.528-2.197h-.08a1.96 1.96 0 0 1-.775.82c-.34.198-.724.3-1.157.3-.7 0-1.26-.226-1.7-.68s-.674-1.034-.674-1.733c0-.725.24-1.32.715-1.782s1.086-.7 1.83-.7c.543 0 1.02.14 1.43.42s.726.686.95 1.218c.235.546.352 1.216.352 2.008 0 1.238-.243 2.197-.73 2.876s-1.174 1.02-2.062 1.02zm-1.117-3.885c.306.306.698.46 1.177.46s.874-.153 1.182-.46a1.59 1.59 0 0 0 .468-1.174c0-.482-.158-.885-.473-1.208s-.7-.484-1.167-.484a1.57 1.57 0 0 0-1.17.48c-.314.32-.468.7-.468 1.183 0 .493.15.894.452 1.204zm5.03 5.103c.43-.746.74-1.466.936-2.162a8.16 8.16 0 0 0 .297-2.217 8.37 8.37 0 0 0-.348-2.392c-.23-.786-.53-1.4-.895-1.813h.735c.496.63.853 1.274 1.07 1.933s.332 1.416.332 2.272-.12 1.66-.357 2.422-.57 1.415-1 1.957h-.77zm8.756-1.218c-.617 0-1.14-.168-1.57-.505s-.696-.8-.8-1.378h.93a1.47 1.47 0 0 0 .533.794 1.51 1.51 0 0 0 .925.3 1.54 1.54 0 0 0 1.373-.759c.33-.506.505-1.24.528-2.197h-.08a1.96 1.96 0 0 1-.775.82 2.29 2.29 0 0 1-1.156.289c-.7 0-1.26-.226-1.7-.68s-.674-1.034-.674-1.733c0-.725.238-1.32.714-1.782s1.086-.7 1.83-.7c.543 0 1.02.14 1.428.42s.726.686.95 1.218c.234.546.352 1.216.352 2.008 0 1.238-.243 2.197-.73 2.876s-1.173 1.02-2.062 1.02zm-1.116-3.885c.305.306.697.46 1.177.46s.873-.153 1.182-.46.467-.698.467-1.174a1.66 1.66 0 0 0-.472-1.208c-.312-.323-.7-.484-1.167-.484s-.857.16-1.172.48-.468.7-.468 1.183c0 .493.15.894.453 1.204z"/><use xlink:href="#V"/><path d="M265.7 265.6c-.818 0-1.452-.33-1.9-1s-.674-1.588-.674-2.786c0-1.2.226-2.114.68-2.777s1.085-.993 1.896-.993a2.14 2.14 0 0 1 1.886.998c.45.666.68 1.595.68 2.787s-.224 2.12-.674 2.776-1.076.984-1.9.984zm-1.237-1.558c.288.516.7.774 1.237.774s.946-.257 1.227-.77.428-1.257.428-2.222c0-.956-.144-1.7-.433-2.207s-.692-.774-1.222-.774-.94.26-1.232.78-.433 1.25-.433 2.202c0 .962.143 1.7.428 2.217zm8.397-1.094h-3.3v-.814h3.3v.814z"/><use xlink:href="#U" x="49.451"/><use xlink:href="#W"/><path d="M289.736 262.948h-3.3v-.814h3.3v.814zm2.914-.828v-.77h.88c.412 0 .75-.12 1-.36a1.2 1.2 0 0 0 .397-.92c0-.366-.127-.66-.382-.884s-.592-.34-1-.34-.758.1-1.016.33-.405.518-.442.904h-.88c.046-.626.28-1.12.704-1.478s.98-.54 1.67-.54c.416 0 .798.084 1.147.254a2.1 2.1 0 0 1 .83.684 1.63 1.63 0 0 1 .302.949c0 .43-.113.792-.337 1.1s-.537.492-.936.6v.08c.493.063.88.254 1.162.574s.423.72.423 1.213c0 .593-.247 1.094-.74 1.504s-1.098.6-1.815.6c-.738 0-1.34-.187-1.806-.56a1.96 1.96 0 0 1-.749-1.488h.875a1.27 1.27 0 0 0 .513.919c.302.23.687.345 1.157.345.476 0 .866-.127 1.17-.38a1.2 1.2 0 0 0 .463-.973c0-.417-.15-.746-.448-1s-.705-.365-1.222-.365h-.92zm9.177 2.905c-.486.4-1.113.585-1.88.585s-1.396-.195-1.886-.585-.73-.897-.73-1.513c0-.47.137-.872.412-1.208s.64-.546 1.097-.63v-.08c-.37-.1-.664-.295-.886-.584s-.327-.63-.327-1.024c0-.563.217-1.024.65-1.383s.993-.54 1.67-.54 1.232.18 1.665.54a1.71 1.71 0 0 1 .654 1.383 1.65 1.65 0 0 1-.327 1.024 1.57 1.57 0 0 1-.886.584v.08c.456.083.822.293 1.097.63a1.85 1.85 0 0 1 .412 1.208 1.85 1.85 0 0 1-.734 1.513zm-3.108-.57c.315.257.724.385 1.227.385s.912-.128 1.227-.385a1.24 1.24 0 0 0 .473-1.008 1.23 1.23 0 0 0-.473-1.004c-.315-.26-.724-.4-1.227-.4s-.912.13-1.227.4a1.23 1.23 0 0 0-.473 1.004c0 .412.158.75.473 1.008zm.2-3.495c.26.223.607.334 1.036.334s.775-.1 1.036-.334.392-.523.392-.9c0-.373-.13-.672-.392-.9s-.607-.34-1.036-.34-.775.113-1.036.34-.392.526-.392.9c0 .366.13.662.392.9zM194.38 273.6c-.333 0-.606.1-.82.334s-.334.518-.36.884h2.298c-.008-.366-.113-.66-.317-.884s-.47-.334-.8-.334zm1.1 2.558h.665a1.43 1.43 0 0 1-.615.841c-.307.203-.687.304-1.14.304-.578 0-1.036-.192-1.374-.576s-.506-.908-.506-1.564.17-1.174.5-1.563.797-.584 1.37-.584c.562 0 1.004.186 1.327.557s.483.88.483 1.525v.254h-3v.03c.018.4.134.735.348.976s.502.36.855.36c.54 0 .898-.187 1.076-.56zm4.332.53v-3.035h-1.582l-.132 1.77c-.044.558-.16.96-.344 1.202v.062h2.058zm-2.557 1.648h-.627v-1.648h.348c.145-.095.258-.256.34-.484s.134-.496.154-.795l.163-2.3h2.843v3.588h.666v1.648h-.627v-1.095h-3.26v1.095zm5.27-1.095h-.665v-4.14h.665v3.088h.062l2.077-3.088h.666v4.14h-.666v-3.088h-.06l-2.078 3.088zm3.973 0v-4.14h.666v1.713h2.08V273.1h.666v4.14h-.666v-1.875h-2.08v1.875h-.666zm8.11 0v-4.14h.666v4.14h-.666zm-2.08-2.26h-.785v1.706h.785c.273 0 .5-.077.654-.23s.248-.363.248-.622-.083-.465-.248-.618-.38-.235-.654-.235zm-1.45 2.26v-4.14h.666v1.33h.785c.477 0 .858.127 1.14.38s.426.595.426 1.025-.142.772-.426 1.026-.664.38-1.14.38h-1.45zm6.03 0h-.666v-4.14h.666v3.088h.062l2.077-3.088h.666v4.14h-.666v-3.088h-.062l-2.077 3.088zm-.314-5.977h.604a.89.89 0 0 0 .197.57c.13.17.306.238.523.238a.65.65 0 0 0 .526-.238.86.86 0 0 0 .2-.57h.603a1.21 1.21 0 0 1-.37.903c-.247.24-.565.357-.96.357s-.7-.12-.956-.357-.368-.54-.368-.903zm6.365 5.977v-4.14h.665v1.713h2.082V273.1h.665v4.14h-.665v-1.875h-2.082v1.875h-.665z"/><use xlink:href="#X"/><path d="M233 277.24h-.665v-4.14h.808l1.494 3.2h.062l1.497-3.2h.778v4.14h-.67v-2.946h-.073l-1.32 2.83h-.518l-1.32-2.83H233v2.946zm6.808-3.64c-.332 0-.606.1-.82.334s-.334.518-.36.884h2.3c-.008-.366-.114-.66-.318-.884a1.03 1.03 0 0 0-.801-.334zm1.1 2.558h.666a1.42 1.42 0 0 1-.616.84c-.3.2-.687.304-1.14.304-.578 0-1.035-.192-1.373-.576s-.507-.908-.507-1.564.17-1.174.5-1.563.797-.584 1.37-.584c.562 0 1.005.186 1.327.557s.484.88.484 1.525v.254h-3v.03c.02.4.135.735.35.976s.5.36.855.36c.54 0 .897-.187 1.075-.56zm3.7-3.132c.532 0 .956.195 1.273.584s.48.9.48 1.56-.16 1.167-.48 1.56-.744.584-1.273.584a1.67 1.67 0 0 1-.789-.181c-.23-.123-.4-.294-.514-.514h-.062v2.005h-.666V273.1h.635v.692h.062a1.46 1.46 0 0 1 .553-.561c.237-.136.498-.204.78-.204zm-.158 3.692c.382 0 .68-.137.897-.4s.325-.653.325-1.137-.108-.863-.325-1.137-.512-.4-.893-.4-.676.14-.898.418-.333.653-.333 1.13.1.85.33 1.13.52.42.898.42zm7.66.522v-3.588h-2.042v3.588h-.666v-4.14h3.374v4.14h-.666zm1.83 0v-4.14h.666v1.713h2.08V273.1h.666v4.14h-.666v-1.875h-2.08v1.875h-.666zm7.052-1.917h-2.538v-.626h2.538v.626zm2.786-1.67h-1.018v1.168h.9c.523 0 .785-.197.785-.6a.54.54 0 0 0-.17-.423c-.1-.102-.28-.154-.507-.154zm-.05 1.72h-.968v1.314h1.095c.256 0 .45-.055.58-.165s.2-.274.2-.484c0-.228-.076-.396-.228-.504s-.377-.16-.68-.16zm-1.633 1.867v-4.14h1.768c.4 0 .695.096.917.288s.333.447.333.772a.89.89 0 0 1-.198.561.81.81 0 0 1-.483.311v.062c.263.036.473.142.63.32a.91.91 0 0 1 .236.637c0 .364-.126.653-.38.868s-.602.323-1.048.323h-1.776zm7.598-2.872h-.673a.94.94 0 0 0-.367-.534c-.186-.14-.422-.2-.708-.2-.374 0-.672.138-.894.414s-.33.65-.33 1.118c0 .477.1.857.333 1.14a1.09 1.09 0 0 0 .9.423c.28 0 .514-.063.7-.2a.91.91 0 0 0 .375-.537h.673a1.48 1.48 0 0 1-.553.956c-.307.243-.704.365-1.2.365-.586 0-1.05-.195-1.397-.584s-.518-.917-.518-1.575c0-.645.172-1.16.518-1.548s.8-.58 1.393-.58c.487 0 .884.127 1.2.38a1.53 1.53 0 0 1 .557.96zm5.63 2.32v-3.035h-1.583l-.13 1.77c-.044.558-.16.96-.344 1.202v.062h2.058zm-2.558 1.648h-.626v-1.648h.348c.144-.095.258-.256.34-.484s.134-.496.155-.795l.163-2.3h2.843v3.588h.666v1.648h-.627v-1.095h-3.262v1.095zm5.4-2.02c.214.27.52.404.913.404s.7-.135.913-.404.32-.653.32-1.144-.107-.872-.32-1.14-.518-.407-.913-.407-.7.135-.913.407-.32.65-.32 1.14.107.873.32 1.144zm2.318.427c-.344.38-.812.572-1.405.572s-1.062-.2-1.408-.572-.515-.908-.515-1.57.172-1.2.515-1.57.812-.573 1.408-.573 1.065.2 1.408.573.515.905.515 1.57-.173 1.186-.518 1.57zm4.85.5v-4.775h-.062l-1.42 1.022v-.73l1.486-1.06h.693v5.543h-.697zm2.437 0l2.507-4.87v-.053H287.3v-.62h3.695v.642l-2.484 4.9h-.73zm4.605-.634a.49.49 0 0 1-.356-.146c-.098-.1-.147-.217-.147-.353a.48.48 0 0 1 .147-.354c.1-.097.22-.146.356-.146a.49.49 0 0 1 .356.146.48.48 0 0 1 .147.354.49.49 0 0 1-.147.353c-.097.1-.217.146-.356.146zm0-2.954a.49.49 0 0 1-.356-.146c-.098-.1-.147-.217-.147-.353a.48.48 0 0 1 .147-.353.49.49 0 0 1 .356-.146c.14 0 .258.048.356.146a.48.48 0 0 1 .147.353.49.49 0 0 1-.147.353c-.097.1-.217.146-.356.146zm3.517 3.718c-.63 0-1.117-.254-1.463-.76s-.518-1.22-.518-2.143c0-.915.174-1.626.522-2.136s.834-.764 1.46-.764a1.65 1.65 0 0 1 1.45.768c.348.512.523 1.226.523 2.143s-.173 1.63-.52 2.136-.828.757-1.454.757zm-.952-1.2c.222.397.54.595.952.595s.727-.197.943-.6.33-.967.33-1.7-.1-1.3-.332-1.698-.533-.596-.94-.596-.724.2-.948.6-.333.96-.333 1.694c0 .74.1 1.308.33 1.705zm5.784 1.2c-.63 0-1.117-.254-1.463-.76s-.518-1.22-.518-2.143c0-.915.174-1.626.522-2.136s.835-.764 1.46-.764a1.65 1.65 0 0 1 1.451.768c.348.512.522 1.226.522 2.143s-.173 1.63-.52 2.136-.828.757-1.454.757zm-.952-1.2c.222.397.54.595.952.595s.727-.197.944-.6.33-.967.33-1.7-.1-1.3-.333-1.698-.533-.596-.94-.596-.724.2-.948.6-.333.96-.333 1.694c0 .74.1 1.308.33 1.705zm-87.477 22.143v2.172h-.745v-2.172h-2.187v-.74h2.187V295.4h.745v2.172h2.188v.74h-2.188z"/><use xlink:href="#W" x="-64.818" y="35.4"/><path d="M223.862 302.223h-.764c-.433-.536-.768-1.185-1.006-1.947s-.352-1.577-.352-2.432.1-1.608.332-2.267.58-1.308 1.076-1.938h.73c-.365.426-.665 1.032-.9 1.818a8.42 8.42 0 0 0-.347 2.387c0 .78.097 1.518.292 2.217s.51 1.416.94 2.162z"/><use xlink:href="#U" x=".322" y="35.4"/><path d="M233.94 301.005c-.617 0-1.14-.168-1.57-.505s-.696-.8-.8-1.378h.93a1.47 1.47 0 0 0 .534.794 1.52 1.52 0 0 0 .925.3 1.54 1.54 0 0 0 1.373-.759c.33-.506.505-1.24.528-2.197h-.08a1.96 1.96 0 0 1-.775.82c-.34.198-.724.3-1.157.3-.7 0-1.26-.226-1.7-.68s-.674-1.034-.674-1.733c0-.725.238-1.32.715-1.782s1.086-.7 1.83-.7c.543 0 1.02.14 1.43.42s.726.686.95 1.218c.235.546.352 1.216.352 2.008 0 1.238-.243 2.197-.73 2.876s-1.174 1.02-2.062 1.02zm-1.117-3.885c.306.306.698.46 1.177.46s.874-.153 1.182-.46a1.59 1.59 0 0 0 .468-1.174c0-.482-.158-.885-.473-1.208s-.7-.484-1.167-.484a1.57 1.57 0 0 0-1.17.48c-.314.32-.468.7-.468 1.183 0 .493.15.894.452 1.204zm7.527 3.885c-.617 0-1.14-.168-1.57-.505s-.696-.8-.8-1.378h.93a1.47 1.47 0 0 0 .534.794 1.52 1.52 0 0 0 .925.3 1.54 1.54 0 0 0 1.373-.759c.33-.506.505-1.24.528-2.197h-.08a1.96 1.96 0 0 1-.775.82c-.34.198-.724.3-1.157.3-.7 0-1.26-.226-1.7-.68s-.674-1.034-.674-1.733c0-.725.238-1.32.715-1.782s1.086-.7 1.83-.7a2.47 2.47 0 0 1 1.429.419c.4.28.725.686.95 1.218.235.546.352 1.216.352 2.008 0 1.238-.243 2.197-.73 2.876s-1.174 1.02-2.062 1.02zm-1.117-3.885c.305.306.698.46 1.177.46s.874-.153 1.182-.46a1.59 1.59 0 0 0 .468-1.174c0-.482-.158-.885-.473-1.208s-.7-.484-1.167-.484a1.58 1.58 0 0 0-1.172.479 1.62 1.62 0 0 0-.467 1.183c0 .493.15.894.452 1.204zm5.033 5.103c.43-.746.74-1.466.936-2.162a8.16 8.16 0 0 0 .296-2.217 8.37 8.37 0 0 0-.347-2.392c-.23-.786-.53-1.4-.895-1.813H245c.497.63.854 1.274 1.072 1.933s.332 1.416.332 2.272-.12 1.66-.357 2.422-.57 1.415-1 1.957h-.77z"/><use xlink:href="#V" x="-6.088" y="35.4"/><path d="M257.12 295.662a2.08 2.08 0 0 1 .653-1.578c.44-.413.996-.62 1.67-.62.65 0 1.196.194 1.635.584s.664.865.664 1.438c0 .376-.108.746-.322 1.108s-.62.86-1.212 1.494l-1.746 1.862v.08h3.4v.8h-4.697v-.62l2.5-2.722c.466-.502.776-.885.93-1.148s.23-.54.23-.83c0-.36-.137-.66-.412-.904s-.607-.37-1.006-.37c-.426 0-.77.13-1.03.4s-.392.6-.392 1.024v.005h-.875v-.005zm8.677 5.343c-.547 0-1.023-.14-1.43-.42s-.722-.7-.95-1.218c-.235-.546-.352-1.215-.352-2.008 0-1.238.243-2.197.73-2.876s1.174-1.018 2.062-1.018c.617 0 1.138.17 1.564.5s.7.794.815 1.373h-.93a1.46 1.46 0 0 0-.539-.794c-.258-.193-.565-.3-.92-.3a1.54 1.54 0 0 0-1.378.76c-.328.507-.5 1.238-.523 2.197h.08a1.92 1.92 0 0 1 .775-.814c.34-.194.724-.295 1.157-.295.7 0 1.26.228 1.7.684s.674 1.03.674 1.728c0 .726-.238 1.322-.715 1.788s-1.086.694-1.83.694zm-1.182-1.274a1.57 1.57 0 0 0 1.172.485 1.57 1.57 0 0 0 1.167-.475c.315-.32.472-.715.472-1.188 0-.493-.152-.892-.457-1.198s-.693-.465-1.172-.465-.875.153-1.187.46-.463.697-.463 1.173c0 .483.156.885.468 1.208zm8.295-1.383h-3.3v-.814h3.3v.814zm2.915-.828v-.77h.88c.413 0 .75-.12 1-.36a1.2 1.2 0 0 0 .398-.92c0-.366-.128-.66-.383-.884s-.6-.34-1-.34-.757.1-1.015.33-.406.518-.443.904h-.88c.047-.626.28-1.12.704-1.478s.98-.54 1.67-.54c.415 0 .798.084 1.146.254s.63.395.83.684a1.63 1.63 0 0 1 .302.949c0 .43-.112.792-.337 1.1s-.536.492-.935.6v.08c.492.063.88.254 1.16.574s.423.72.423 1.213c0 .593-.247 1.094-.74 1.504s-1.1.6-1.816.6c-.738 0-1.34-.187-1.806-.56s-.715-.872-.75-1.488h.875a1.27 1.27 0 0 0 .513.919c.302.23.687.345 1.157.345.476 0 .867-.127 1.172-.38a1.2 1.2 0 0 0 .462-.973c0-.417-.15-.746-.447-1s-.706-.365-1.222-.365h-.92zm7.38 3.485c-.547 0-1.023-.14-1.428-.42s-.723-.7-.95-1.218c-.235-.546-.352-1.215-.352-2.008 0-1.238.243-2.197.73-2.876s1.174-1.018 2.062-1.018c.617 0 1.14.17 1.564.5s.7.794.815 1.373h-.93c-.098-.336-.277-.6-.538-.794s-.565-.3-.92-.3a1.54 1.54 0 0 0-1.378.76c-.328.507-.5 1.238-.523 2.197h.08a1.91 1.91 0 0 1 .774-.814c.34-.194.724-.295 1.157-.295.7 0 1.26.228 1.7.684s.674 1.03.674 1.728c0 .726-.238 1.322-.714 1.788s-1.087.694-1.83.694zm-1.182-1.274a1.57 1.57 0 0 0 1.172.485 1.57 1.57 0 0 0 1.167-.475c.315-.32.472-.715.472-1.188 0-.493-.152-.892-.457-1.198s-.693-.465-1.172-.465-.875.153-1.187.46-.463.697-.463 1.173c0 .483.156.885.468 1.208zm8.296-1.383h-3.3v-.814h3.3v.814zm5.8 2.077c-.486.4-1.113.585-1.88.585s-1.396-.195-1.886-.585-.73-.897-.73-1.513c0-.47.137-.872.412-1.208s.64-.546 1.097-.63v-.08a1.61 1.61 0 0 1-.885-.584c-.218-.3-.327-.63-.327-1.024 0-.563.216-1.024.648-1.383s.993-.54 1.67-.54 1.232.18 1.665.54a1.71 1.71 0 0 1 .654 1.383 1.65 1.65 0 0 1-.327 1.024 1.6 1.6 0 0 1-.885.584v.08c.456.083.82.293 1.096.63s.412.74.412 1.208a1.85 1.85 0 0 1-.734 1.513zm-3.108-.57c.315.257.724.385 1.227.385s.912-.128 1.227-.385a1.24 1.24 0 0 0 .473-1.008 1.23 1.23 0 0 0-.473-1.004c-.315-.26-.724-.4-1.227-.4s-.912.13-1.227.4a1.23 1.23 0 0 0-.473 1.004c0 .412.158.75.473 1.008zm.2-3.495c.262.223.607.334 1.036.334s.775-.1 1.036-.334.393-.523.393-.9c0-.373-.13-.673-.393-.9s-.607-.34-1.036-.34-.774.113-1.036.34a1.13 1.13 0 0 0-.392.899 1.12 1.12 0 0 0 .392.889z"/><use xlink:href="#W" x="17.419" y="35.4"/><path d="M199.305 310.232h.182l1.652-1.733h.8l-1.912 1.952 1.985 2.2h-.863l-1.67-1.886h-.182v1.886h-.665v-4.14h.665v1.733z"/><use xlink:href="#Y"/><path d="M207.743 314.138c-.105 0-.205-.008-.298-.023v-.565a1.54 1.54 0 0 0 .28.02c.193 0 .347-.052.46-.154s.218-.278.306-.526l.077-.246-1.543-4.145h.72l1.145 3.407h.062l1.142-3.407h.708l-1.63 4.394c-.178.48-.368.806-.57.98s-.487.265-.86.265zm6.53-5.086h-2.004v3.588h-.666v-4.14h2.67v.553zm1.664 1.77l-.078.63a2.65 2.65 0 0 1-.143.51 1.25 1.25 0 0 1-.224.392.9.9 0 0 1-.33.234 1.15 1.15 0 0 1-.453.085.63.63 0 0 1-.243-.043v-.607a.64.64 0 0 0 .208.031c.196 0 .342-.105.438-.315s.16-.524.2-.933l.163-2.3h2.727v4.14h-.665v-3.588h-1.46l-.13 1.77z"/><use xlink:href="#X" x="-8.376" y="35.4"/><path d="M227.413 309.767h-.673c-.057-.218-.18-.396-.368-.534s-.422-.2-.708-.2c-.374 0-.672.138-.894.414s-.33.65-.33 1.118c0 .477.1.857.333 1.14a1.08 1.08 0 0 0 .9.423c.28 0 .515-.063.7-.2s.314-.304.376-.537h.673a1.48 1.48 0 0 1-.554.956c-.306.243-.704.365-1.2.365-.586 0-1.05-.195-1.397-.584s-.518-.917-.518-1.575c0-.645.173-1.16.518-1.548s.8-.58 1.393-.58c.487 0 .885.127 1.192.38a1.52 1.52 0 0 1 .557.961zm1.14 4.37a1.87 1.87 0 0 1-.298-.023v-.565a1.54 1.54 0 0 0 .28.02c.193 0 .347-.052.46-.154s.218-.278.306-.526l.077-.246-1.543-4.145h.72l1.145 3.407h.062l1.14-3.407h.708l-1.628 4.394c-.178.48-.368.806-.57.98s-.487.265-.86.265zm6.806-5.638v.553h-1.354v3.588h-.665v-3.588h-1.354v-.553h3.373zm1.462 3.214c.214.27.518.404.913.404s.7-.135.913-.404.32-.653.32-1.144-.107-.872-.32-1.14-.518-.407-.913-.407-.7.135-.913.407-.32.65-.32 1.14.107.873.32 1.144zm2.317.427c-.343.38-.8.572-1.404.572s-1.063-.2-1.408-.572-.515-.908-.515-1.57.172-1.2.515-1.57.812-.573 1.408-.573 1.065.2 1.408.573.515.905.515 1.57-.173 1.186-.52 1.57zm4.58.5h-.665v-1.867h-.062a1.67 1.67 0 0 1-1.091.392c-.452 0-.805-.134-1.06-.403s-.38-.632-.38-1.08V308.5h.665v1.183c0 .277.072.496.217.657s.347.238.607.238a1.58 1.58 0 0 0 .433-.057c.137-.04.25-.1.337-.15s.156-.12.205-.17a.93.93 0 0 0 .128-.146V308.5h.665v4.14zm1.165 0v-4.14h.665v1.713h2.082V308.5h.665v4.14h-.665v-1.875h-2.082v1.875h-.665zm5.865-.507c.343 0 .627-.1.85-.296a.94.94 0 0 0 .34-.741v-.38l-1.12.073c-.315.02-.546.085-.693.195s-.22.27-.22.48.078.37.236.5.36.177.607.177zm-.124.58c-.4 0-.748-.1-1.014-.334s-.394-.525-.394-.9.13-.658.394-.868.64-.33 1.126-.357l1.203-.073v-.377c0-.256-.08-.452-.24-.588s-.395-.203-.705-.203c-.25 0-.457.045-.622.134a.62.62 0 0 0-.318.381h-.673c.044-.33.216-.597.515-.8s.676-.304 1.122-.304c.505 0 .896.122 1.172.365s.414.58.414 1.014v2.835h-.635v-.6h-.06a1.38 1.38 0 0 1-.534.507c-.222.118-.472.177-.75.177zm4.562-2.11h.785v-1.552h-.785c-.276 0-.496.072-.658.215s-.244.337-.244.588a.68.68 0 0 0 .248.542c.165.138.383.207.654.207zm.785 2.036v-1.483h-.716l-1.064 1.483h-.793l1.165-1.606c-.294-.082-.525-.225-.693-.43a1.12 1.12 0 0 1-.25-.734c0-.425.14-.76.42-1.002s.666-.37 1.146-.37h1.45v4.14h-.665zm7.362-2.873h-.673a.94.94 0 0 0-.367-.534c-.187-.138-.422-.2-.708-.2-.374 0-.672.138-.894.414s-.33.65-.33 1.118c0 .477.1.857.333 1.14s.518.423.9.423c.28 0 .514-.063.7-.2a.91.91 0 0 0 .375-.537h.673a1.5 1.5 0 0 1-.553.956c-.307.256-.704.365-1.2.365-.586 0-1.05-.195-1.397-.584s-.518-.917-.518-1.575c0-.645.172-1.16.518-1.548s.8-.58 1.393-.58c.487 0 .884.127 1.2.38a1.51 1.51 0 0 1 .557.961zm3.605 2.873v-3.588h-2.04v3.588h-.666v-4.14h3.374v4.14h-.666z"/><use xlink:href="#Y" x="65.98"/><path d="M274.807 312.133c.343 0 .626-.1.85-.296a.94.94 0 0 0 .34-.741v-.38l-1.122.073c-.314.02-.545.085-.692.195s-.22.27-.22.48a.58.58 0 0 0 .236.49c.156.12.36.177.608.177zm-.124.58c-.4 0-.748-.1-1.014-.334s-.394-.525-.394-.9.13-.658.394-.868.64-.33 1.126-.357l1.203-.073v-.377c0-.256-.08-.452-.24-.588s-.394-.203-.704-.203c-.25 0-.457.045-.623.134s-.27.217-.317.38h-.673c.044-.33.215-.597.515-.8s.675-.304 1.122-.304c.505 0 .896.122 1.172.365s.414.58.414 1.014v2.835h-.635v-.6h-.062a1.37 1.37 0 0 1-.534.507 1.57 1.57 0 0 1-.75.177zm4.81-3.66h-1.018v1.168h.9c.523 0 .785-.197.785-.592a.54.54 0 0 0-.17-.422c-.1-.102-.28-.154-.507-.154zm-.05 1.72h-.968v1.314h1.095c.256 0 .45-.055.58-.165s.2-.274.2-.484c0-.228-.076-.396-.228-.504s-.377-.16-.68-.16zm-1.633 1.867v-4.14h1.768c.4 0 .695.096.917.288s.333.447.333.772a.89.89 0 0 1-.198.561.81.81 0 0 1-.483.311v.062c.263.036.473.142.63.32a.91.91 0 0 1 .236.637c0 .364-.126.653-.38.868s-.602.323-1.048.323h-1.776zm4.948-.925c.214.27.52.404.913.404s.7-.135.913-.404.32-.653.32-1.144-.107-.872-.32-1.14-.518-.407-.913-.407-.7.135-.913.407-.32.65-.32 1.14.107.873.32 1.144zm2.318.427c-.343.38-.8.572-1.405.572s-1.062-.2-1.408-.572-.514-.908-.514-1.57.17-1.2.514-1.57.813-.573 1.408-.573 1.066.2 1.4.573.514.905.514 1.57-.173 1.186-.518 1.57zm4.58.5H289v-1.867h-.062a1.67 1.67 0 0 1-1.091.392c-.45 0-.805-.134-1.06-.403s-.38-.632-.38-1.08V308.5h.665v1.183c0 .277.073.496.217.657s.347.238.607.238c.155 0 .3-.02.434-.057s.25-.1.336-.15.156-.12.205-.17a.93.93 0 0 0 .128-.146V308.5h.665v4.14zm1.165 0v-4.14h.666v1.713h2.08V308.5h.665v4.14h-.665v-1.875h-2.08v1.875h-.666zm5.865-.507c.343 0 .627-.1.85-.296a.94.94 0 0 0 .341-.741v-.38l-1.122.073c-.315.02-.546.085-.693.195s-.22.27-.22.48a.58.58 0 0 0 .236.49c.156.12.36.177.607.177zm-.124.58c-.4 0-.747-.1-1.013-.334s-.395-.525-.395-.9.132-.658.395-.868.638-.33 1.126-.357l1.203-.073v-.377c0-.256-.08-.452-.24-.588s-.395-.203-.704-.203c-.25 0-.458.045-.623.134s-.27.217-.317.38h-.673c.043-.33.215-.597.514-.8s.676-.304 1.122-.304c.506 0 .896.122 1.172.365s.414.58.414 1.014v2.835h-.634v-.6h-.062a1.37 1.37 0 0 1-.534.507c-.222.118-.472.177-.75.177zm4.562-2.11h.785v-1.552h-.785c-.276 0-.495.072-.658.215s-.244.337-.244.588a.68.68 0 0 0 .248.542c.165.138.383.207.654.207zm.785 2.036v-1.483h-.715l-1.064 1.483h-.793l1.164-1.606a1.32 1.32 0 0 1-.692-.43 1.12 1.12 0 0 1-.252-.734c0-.425.14-.76.422-1.002s.665-.37 1.145-.37h1.45v4.14h-.666zm-57.182 33.96l-1.518 5.383h-.88l-1.212-4.164h-.08l-1.207 4.164h-.875l-1.52-5.383h.875l1.066 4.305h.08l1.212-4.305h.83l1.212 4.305h.08l1.066-4.305h.87zm7.82 0l-1.52 5.383h-.88l-1.213-4.164h-.08l-1.207 4.164h-.875l-1.52-5.383h.875l1.066 4.305h.08l1.212-4.305h.83l1.212 4.305h.08l1.066-4.305h.87zm7.818 0l-1.52 5.383h-.88l-1.212-4.164h-.08l-1.207 4.164h-.875l-1.52-5.383h.875l1.066 4.305h.08l1.212-4.305h.83l1.212 4.305h.08l1.067-4.305h.87zm.957 5.423a.64.64 0 0 1-.463-.19c-.13-.127-.2-.283-.2-.46s.064-.333.2-.46a.64.64 0 0 1 .463-.19.63.63 0 0 1 .462.19.62.62 0 0 1 .192.459c0 .177-.064.33-.192.46a.63.63 0 0 1-.462.189zm5.354-1.423c.3-.35.433-.82.433-1.408s-.144-1.06-.433-1.408-.68-.525-1.176-.525-.882.174-1.157.52-.413.817-.413 1.413.138 1.067.413 1.413.66.52 1.157.52.9-.174 1.176-.524zm-1.136 3.43c-.647 0-1.172-.134-1.574-.4a1.51 1.51 0 0 1-.7-1.073h.915c.047.223.2.4.427.53s.55.195.93.195c.486 0 .865-.114 1.136-.34s.413-.533.413-.93v-1.058h-.08a1.8 1.8 0 0 1-.699.689c-.295.16-.628.24-1 .24-.697 0-1.25-.244-1.66-.734s-.614-1.145-.614-1.957.206-1.466.62-1.963.964-.744 1.654-.744a2.1 2.1 0 0 1 1.037.26 1.72 1.72 0 0 1 .704.689h.08v-.854h.825v5.478c0 .603-.218 1.082-.654 1.438s-1.023.535-1.76.535zm4.882-5.088l2.354-2.352h1.06l-2.334 2.307 2.5 3.076h-1.102l-2.032-2.52-.518.48v2.042h-.865v-7.52h.865v4.5h.08zm7.133 3.126c-.376 0-.718-.083-1.026-.25s-.543-.405-.714-.705h-.08v.86h-.825v-7.52h.866v2.986h.08c.148-.3.374-.52.68-.7a2.08 2.08 0 0 1 1.021-.255c.7 0 1.242.253 1.655.76s.618 1.182.618 2.028-.208 1.518-.623 2.027a2.02 2.02 0 0 1-1.65.759zm-.2-4.8a1.42 1.42 0 0 0-1.172.54c-.285.36-.428.85-.428 1.473s.143 1.113.428 1.473.68.54 1.172.54.883-.178 1.162-.534.417-.85.417-1.478-.14-1.122-.417-1.478-.666-.535-1.162-.535zm5.15 4.705v-6.207h-.08l-1.846 1.33v-.95l1.93-1.378h.9v7.205h-.906zm4.398-3.32v-.77h.88c.412 0 .75-.12 1-.36a1.2 1.2 0 0 0 .397-.92 1.12 1.12 0 0 0-.382-.884c-.255-.226-.592-.34-1-.34s-.758.1-1.016.33-.406.518-.443.904h-.88c.047-.626.282-1.118.704-1.478s.98-.54 1.67-.54c.416 0 .798.085 1.147.255s.628.394.83.684a1.62 1.62 0 0 1 .302.948c0 .43-.112.793-.337 1.1s-.536.493-.935.6v.08c.493.063.88.255 1.162.574s.422.72.422 1.214c0 .592-.246 1.093-.74 1.503s-1.098.6-1.816.6c-.738 0-1.34-.186-1.805-.56s-.716-.872-.75-1.488h.875a1.28 1.28 0 0 0 .513.919c.302.23.688.344 1.157.344.476 0 .867-.126 1.172-.38s.463-.578.463-.974c0-.416-.15-.746-.448-1s-.706-.364-1.222-.364h-.92zm5.183 3.37a.64.64 0 0 1-.463-.19c-.13-.127-.2-.283-.2-.46s.064-.333.2-.46a.64.64 0 0 1 .463-.19.63.63 0 0 1 .463.19c.127.126.2.28.2.46s-.064.33-.2.46-.282.2-.463.2zm2.185-.05V346.6h.825v.8h.08c.08-.263.26-.477.543-.644a1.85 1.85 0 0 1 .96-.25 3.59 3.59 0 0 1 .433.025v.86c-.117-.033-.302-.05-.553-.05-.413 0-.753.124-1.02.37a1.22 1.22 0 0 0-.403.939v3.335h-.865zm8.15-5.373v5.383h-.824v-.844h-.08a1.5 1.5 0 0 1-.634.7c-.285.16-.633.24-1.046.24-.603 0-1.062-.17-1.378-.514s-.472-.836-.472-1.478V346.6h.865v3.276c0 .5.097.85.3 1.08s.507.34.936.34c.473 0 .836-.13 1.1-.394s.387-.638.387-1.114V346.6h.865zM264.06 96.307h-1.127v-7.76h1.42l2.486 5.894h.093l2.5-5.894h1.42v7.76h-1.127v-5.603h-.075l-2.3 5.378h-.92l-2.3-5.378h-.076v5.603zm11.05-.914c.502 0 .9-.176 1.164-.527s.417-.852.417-1.5-.14-1.127-.417-1.48-.662-.532-1.164-.532-.896.176-1.17.527-.412.846-.412 1.484.137 1.138.412 1.5.664.527 1.17.527zm0 1.027c-.867 0-1.548-.27-2.042-.812s-.742-1.285-.742-2.232.247-1.685.742-2.226 1.18-.812 2.042-.812 1.536.27 2.03.812.747 1.283.747 2.226-.247 1.7-.742 2.232-1.173.812-2.036.812zm9.124-4.055h-1.132a1.25 1.25 0 0 0-.472-.721c-.238-.183-.545-.274-.92-.274-.488 0-.872.176-1.154.527s-.417.84-.417 1.463c0 .63.14 1.127.417 1.5s.666.538 1.154.538c.372 0 .677-.083.915-.247s.4-.403.477-.715h1.132c-.076.602-.336 1.086-.78 1.452s-1.024.543-1.74.543c-.86 0-1.536-.27-2.03-.812s-.737-1.294-.737-2.248c0-.94.246-1.678.737-2.216s1.166-.807 2.026-.807c.718 0 1.298.186 1.738.56s.706.862.786 1.468zm2.44.462h.26l2.13-2.377h1.37l-2.54 2.72 2.648 3.135h-1.45l-2.15-2.56h-.265v2.56H285.5V90.45h1.165v2.377zm7.375-1.49h-1.273v1.516h1.143c.693 0 1.04-.254 1.04-.764 0-.237-.075-.42-.227-.554s-.38-.2-.682-.2zm-.05 2.366h-1.224v1.716h1.37c.343 0 .605-.073.785-.22s.27-.358.27-.635c0-.574-.4-.86-1.202-.86zm-2.378 2.603V90.45h2.65c.574 0 1.02.134 1.343.403s.487.627.487 1.086a1.23 1.23 0 0 1-.287.8c-.192.235-.424.382-.7.436v.1c.38.043.684.2.915.44a1.27 1.27 0 0 1 .347.91c0 .516-.184.927-.553 1.23s-.874.457-1.516.457h-2.676zm8.06-.877c.437 0 .8-.122 1.1-.366s.438-.548.438-.914v-.5l-1.44.1c-.405.025-.703.108-.894.247s-.287.34-.287.597a.72.72 0 0 0 .303.613c.203.15.466.22.8.22zm-.298.973c-.578 0-1.05-.16-1.42-.48s-.547-.747-.547-1.274.2-.934.57-1.23.92-.473 1.625-.516l1.597-.1v-.505c0-.312-.102-.55-.308-.715s-.506-.253-.9-.253c-.325 0-.596.057-.813.172s-.352.27-.417.48h-1.126a1.62 1.62 0 0 1 .742-1.2c.437-.298.996-.452 1.668-.452.736 0 1.305.174 1.706.522s.606.826.606 1.447v4h-1.12v-.823h-.092c-.177.294-.42.522-.73.683s-.654.237-1.04.237zm-132.7 43.17h-1.22v-7.76h4.777v1.102h-3.558v6.657zm6.492-.913c.502 0 .9-.175 1.165-.527s.417-.85.417-1.5-.14-1.128-.417-1.48-.663-.533-1.165-.533-.895.176-1.17.527-.412.847-.412 1.485.137 1.138.412 1.5.664.527 1.17.527zm0 1.027c-.866 0-1.547-.27-2.04-.812s-.742-1.285-.742-2.23.247-1.685.742-2.227 1.178-.812 2.04-.812 1.537.27 2.032.812.747 1.284.747 2.227-.247 1.7-.742 2.23-1.174.812-2.037.812zm7.185-6.067c.75 0 1.347.273 1.788.818s.66 1.276.66 2.205-.22 1.665-.66 2.2-1.03.817-1.777.817c-.42 0-.787-.086-1.105-.258a1.67 1.67 0 0 1-.71-.726h-.092v2.834H177.3v-7.803h1.12v.968h.087c.177-.333.43-.593.758-.78a2.15 2.15 0 0 1 1.094-.285zm-.33 5.012c.495 0 .88-.175 1.16-.527s.423-.842.423-1.462-.14-1.106-.423-1.458-.662-.527-1.154-.527-.88.18-1.164.538-.428.84-.428 1.452.143 1.094.428 1.452.672.532 1.16.532zm6.63.028c.502 0 .9-.175 1.165-.527s.417-.85.417-1.5-.14-1.128-.417-1.48-.663-.533-1.165-.533-.895.176-1.17.527-.4.847-.4 1.485.137 1.138.4 1.5.665.527 1.17.527zm0 1.027c-.866 0-1.547-.27-2.042-.812s-.742-1.285-.742-2.23.248-1.685.742-2.227c.5-.54 1.18-.812 2.042-.812s1.537.27 2.03.812.748 1.284.748 2.227-.248 1.7-.742 2.23-1.174.812-2.037.812zm7.808-1.087v-3.9h-2.064l-.162 2.204c-.06.735-.215 1.273-.46 1.614v.1h2.686zm-3.37 2.506h-1.083V138.6h.476c.4-.236.618-.824.683-1.764l.217-3.12h4.24v4.883h.916v2.506h-1.078v-1.533h-4.37v1.533zm11.472-5.474h-1.132c-.072-.298-.23-.538-.47-.72s-.545-.274-.92-.274c-.487 0-.872.176-1.153.527s-.417.84-.417 1.463c0 .63.14 1.127.417 1.5s.666.538 1.153.538c.372 0 .677-.083.916-.247s.4-.404.476-.716h1.132c-.076.603-.336 1.087-.78 1.452s-1.023.543-1.738.543c-.86 0-1.537-.27-2.03-.812s-.737-1.294-.737-2.247c0-.94.246-1.678.737-2.216s1.166-.807 2.025-.807c.72 0 1.298.187 1.74.56s.706.862.785 1.468zm2.44.462h.26l2.128-2.377h1.37l-2.54 2.72 2.65 3.135h-1.452l-2.15-2.56h-.265v2.56h-1.165v-5.856h1.165v2.377z"/><path d="M211.7 138.697c.437 0 .8-.122 1.1-.366a1.15 1.15 0 0 0 .44-.914v-.5l-1.44.1c-.405.025-.703.108-.894.247s-.287.34-.287.597a.72.72 0 0 0 .303.613c.203.147.466.22.8.22zm-.298.973c-.577 0-1.05-.16-1.42-.478s-.547-.748-.547-1.275.2-.934.57-1.23.92-.474 1.625-.517l1.598-.1v-.505c0-.312-.103-.55-.3-.716s-.506-.252-.9-.252c-.325 0-.596.057-.813.172s-.352.27-.417.478h-1.126c.057-.502.305-.9.742-1.2s.996-.452 1.668-.452c.736 0 1.305.174 1.706.522s.607.826.607 1.447v4h-1.122v-.822h-.092a1.81 1.81 0 0 1-.731.683 2.25 2.25 0 0 1-1.04.236zm6.718-3.033h1.057v-1.946h-1.057c-.353 0-.635.1-.845.268s-.308.424-.308.732a.85.85 0 0 0 .314.683c.213.175.493.263.84.263zm1.057 2.936v-2.005h-.878l-1.43 2.005h-1.354l1.6-2.215c-.408-.115-.73-.32-.964-.613a1.66 1.66 0 0 1-.347-1.049c0-.606.204-1.086.612-1.44s.953-.538 1.636-.538h2.264v5.856h-1.148zm8.193.113c-.9 0-1.6-.294-2.097-.882s-.725-1.466-.725-2.635c0-.727.052-1.353.157-1.876s.274-.983.5-1.366a2.29 2.29 0 0 1 .942-.871c.394-.198.872-.307 1.436-.328l.65-.027a6.35 6.35 0 0 0 .796-.092c.256-.046.444-.1.563-.134l.18-.06v1.02l-.136.076c-.057.028-.213.07-.465.13a5.32 5.32 0 0 1-.878.102l-.64.02c-.375.015-.695.072-.96.173a1.52 1.52 0 0 0-.64.446c-.164.196-.28.42-.368.672s-.153.558-.2.92h.092a2.03 2.03 0 0 1 .774-.802c.332-.194.735-.295 1.208-.295.784 0 1.412.254 1.885.763s.7 1.194.7 2.065c0 .925-.25 1.653-.752 2.184s-1.18.795-2.042.795zm-1.203-1.532c.282.337.68.505 1.192.505s.908-.168 1.186-.505.422-.814.422-1.43c0-.588-.14-1.043-.422-1.366s-.674-.484-1.186-.484-.9.162-1.192.484-.417.778-.417 1.366c0 .617.14 1.094.417 1.43zm7.843.506c.5 0 .9-.175 1.164-.527s.417-.85.417-1.5-.14-1.128-.417-1.48-.663-.533-1.164-.533-.896.176-1.17.527-.412.847-.412 1.485.137 1.138.412 1.5.664.527 1.17.527zm0 1.027c-.867 0-1.548-.27-2.042-.812s-.742-1.285-.742-2.23.247-1.685.742-2.227 1.18-.812 2.042-.812 1.536.27 2.03.812.747 1.284.747 2.227-.247 1.7-.742 2.23-1.173.812-2.036.812zm5.68-2.792c-.03.44-.08.82-.152 1.14a3.19 3.19 0 0 1-.319.85 1.39 1.39 0 0 1-.547.559c-.228.126-.5.2-.818.2-.156 0-.3-.022-.4-.065v-1.08a1.06 1.06 0 0 0 .314.043c.27 0 .47-.145.596-.435s.215-.7.254-1.26l.206-3.12h4.062v5.856h-1.164V134.7h-1.87l-.162 2.204zm7.028-.415h-1.035v2.12h1.035c.354 0 .635-.097.845-.3a1.01 1.01 0 0 0 .314-.77.99.99 0 0 0-.32-.77c-.213-.194-.5-.3-.84-.3zm-2.2 3.092v-5.856h1.164v1.796h1.12c.683 0 1.226.183 1.63.55s.606.86.606 1.48-.202 1.115-.606 1.484-.948.548-1.63.548h-2.285zm5.778.001v-5.856h1.165v2.345h2.686v-2.345h1.165v5.856h-1.165v-2.538h-2.686v2.538h-1.165zm7.798 0h-1.153v-5.856h1.153v4.028h.093l2.7-4.028h1.154v5.856h-1.154v-4.05h-.092l-2.692 4.05zm11.416 1.533h-1.083v-1.533h-4.755v-5.856h1.164v4.883h2.6v-4.883h1.165v4.883h.92v2.506zm2.956-2.4c.437 0 .8-.122 1.1-.366a1.14 1.14 0 0 0 .439-.914v-.5l-1.44.1c-.404.025-.702.108-.894.247s-.287.34-.287.597a.72.72 0 0 0 .304.613c.202.147.465.22.8.22zm-.298.973c-.577 0-1.05-.16-1.42-.478s-.547-.748-.547-1.275.2-.934.57-1.23.92-.474 1.625-.517l1.598-.1v-.505c0-.312-.103-.55-.3-.716s-.505-.252-.9-.252c-.325 0-.596.057-.813.172s-.352.27-.417.478h-1.126c.058-.502.305-.9.742-1.2s.996-.452 1.668-.452c.737 0 1.305.174 1.706.522s.607.826.607 1.447v4h-1.12v-.822h-.092c-.177.294-.42.52-.732.683a2.25 2.25 0 0 1-1.04.236zm8.73-.097h-1.18v-7.76h1.094l3.85 5.533h.087v-5.533h1.18v7.76h-1.094l-3.85-5.533h-.086v5.533zm7.832-4.043c-.56 0-1.024-.174-1.392-.522s-.553-.816-.553-1.393.184-1.034.553-1.382.832-.527 1.392-.527c.57 0 1.043.176 1.42.527s.563.808.563 1.382-.188 1.042-.563 1.393-.85.522-1.42.522zm0-.84c.3 0 .54-.097.72-.3s.27-.46.27-.785c0-.333-.1-.595-.266-.785a.95.95 0 0 0-.725-.3c-.293 0-.526.096-.7.3s-.26.455-.26.785.087.588.26.785a.9.9 0 0 0 .699.291zm1.82 2.446h-3.585v-1.043h3.585v1.043zm3.064 2.437V133.1h-.092l-1.96 1.376v-1.23l2.058-1.44h1.208v7.76h-1.213zm5.035-3.483v-.995h.948c.42 0 .76-.115 1.024-.344a1.13 1.13 0 0 0 .395-.893c0-.362-.128-.65-.384-.866s-.598-.328-1.024-.328-.77.1-1.034.328-.407.52-.44.904H297c.04-.703.298-1.257.775-1.662s1.106-.608 1.9-.608c.726 0 1.334.198 1.825.592s.742.878.742 1.463c0 .455-.126.844-.38 1.167s-.588.532-1.018.63v.1c.53.06.95.262 1.256.602s.46.766.46 1.286a1.99 1.99 0 0 1-.374 1.177c-.25.352-.594.628-1.034.83a3.44 3.44 0 0 1-1.457.3c-.82 0-1.5-.2-2-.63a2.2 2.2 0 0 1-.828-1.668h1.164a1.24 1.24 0 0 0 .51.9c.3.224.692.333 1.165.333s.866-.122 1.17-.366a1.15 1.15 0 0 0 .454-.941c0-.4-.148-.72-.444-.952s-.7-.35-1.213-.35h-.986zm-247.145 3.537c-.195 0-.34-.023-.433-.07v-.87a1.82 1.82 0 0 0 .433.043c.293 0 .54-.064.742-.194s.38-.335.536-.618l-2.67-6.104h1.04l2.096 5.03h.087l2.047-5.03h1.013L54 137.352l-.32.683a5.45 5.45 0 0 1-.32.56c-.116.18-.235.33-.358.45s-.255.224-.406.318a1.69 1.69 0 0 1-.498.2 2.52 2.52 0 0 1-.596.064zm10.16-.054h-.932v-2.613h-.087a2.33 2.33 0 0 1-1.527.548c-.632 0-1.127-.188-1.484-.564s-.53-.884-.53-1.5v-1.657h.932v1.657c0 .387.1.693.303.92s.486.334.85.334a2.22 2.22 0 0 0 .607-.08c.187-.053.35-.124.47-.2s.218-.168.287-.236a1.34 1.34 0 0 0 .179-.205v-2.178h.932v5.797zm4.528-5.9c.744 0 1.338.273 1.782.818s.672 1.272.672 2.183-.224 1.635-.672 2.183-1.042.818-1.782.818a2.35 2.35 0 0 1-1.105-.253 1.69 1.69 0 0 1-.72-.72h-.087v2.807h-.932v-7.733h.888v.968h.087a2.06 2.06 0 0 1 .775-.785c.332-.2.697-.285 1.094-.285zm-.222 5.168c.534 0 .953-.192 1.257-.575s.455-.915.455-1.592-.152-1.208-.455-1.592-.717-.575-1.25-.575a1.52 1.52 0 0 0-1.257.586c-.3.4-.466.914-.466 1.58s.153 1.2.46 1.58.73.586 1.257.586z"/><use xlink:href="#Z"/><path d="M75.534 139.573l2.573-3.054-2.486-2.743h1.132l2.096 2.442h.293v-2.442h.9v2.442h.293l2.096-2.442h1.116l-2.47 2.72 2.6 3.076h-1.18l-2.15-2.656h-.293v2.656h-.9v-2.656h-.293l-2.15 2.656h-1.165zm12.943-.773v-4.248h-2.215l-.184 2.48c-.06.78-.222 1.342-.482 1.683v.086h2.882zm-3.58 2.307h-.877V138.8h.487c.202-.133.36-.36.477-.678s.188-.693.217-1.113l.227-3.232h3.98v5.023h.932v2.307h-.877v-1.533h-4.566v1.533z"/><use xlink:href="#Z" x="21.34"/><path d="M97.693 139.573v-5.797h.932v2.4h2.913v-2.4h.932v5.797h-.932v-2.624h-2.913v2.624h-.932zm7.402 0h-.93v-5.797h.93v4.324h.087l2.9-4.324h.93v5.797h-.93v-4.323h-.087l-2.9 4.323zm7.96-5.08c-.466 0-.85.155-1.148.467s-.468.725-.504 1.237h3.217c-.01-.512-.16-.925-.444-1.237s-.66-.467-1.12-.467zm1.538 3.58h.932c-.14.502-.428.894-.86 1.178s-.963.425-1.598.425c-.8 0-1.45-.27-1.923-.807s-.7-1.27-.7-2.2.238-1.644.714-2.188 1.116-.818 1.918-.818c.787 0 1.406.26 1.858.78s.677 1.23.677 2.135v.355h-4.198v.043c.025.573.188 1.03.487 1.366s.703.505 1.197.505c.755 0 1.257-.262 1.506-.785z"/></g><g class="N"><path d="M40.584 140.762h1.176v1.17H29.898v-1.165h1.176l-.003-4.887c0-.104.03-.17.117-.23l4.5-3.203c.086-.063.146-.082.247-.01l4.524 3.212c.1.063.117.126.117.23l-.003 4.88zm-1.195-.01l.006-.122.003-4.17c0-.098-.044-.148-.117-.2l-3.322-2.362c-.1-.073-.165-.063-.26.006l-3.3 2.34c-.105.072-.136.15-.136.27l.003 4.075.006.16 7.117.003zm2.38-6.487c-.003.227-.098.403-.3.513a.58.58 0 0 1-.631-.028l-1.344-.888-3.54-2.352c-.098-.067-.16-.054-.247.006L30.9 134.7a.87.87 0 0 1-.314.14c-.28.057-.536-.1-.643-.343s-.03-.538.193-.705c.092-.07.193-.13.288-.192l4.996-3.3c.317-.208.52-.2.83-.003l5.205 3.448c.197.126.317.287.323.53zm-6.534 2.957v-1.178h1.182v1.17H37.6v1.18h-1.17v1.17h-1.2v-1.162h-1.18v-1.18h1.176z"/></g><g class="M"><path d="M51.724 96.307h-.98v-7.76h4.636v.882h-3.656v6.878zM56.95 95c.3.377.726.565 1.278.565s.98-.188 1.278-.565.45-.914.45-1.602-.15-1.22-.45-1.597-.726-.57-1.278-.57-.978.2-1.278.57-.45.9-.45 1.597.15 1.222.45 1.602zm3.244.597c-.48.534-1.136.8-1.966.8s-1.488-.267-1.97-.8-.72-1.27-.72-2.2.24-1.665.72-2.2 1.137-.8 1.97-.8 1.5.267 1.97.8.72 1.267.72 2.2-.242 1.662-.726 2.2zm4.976-5.2c.744 0 1.338.273 1.782.817s.672 1.273.672 2.183-.224 1.635-.672 2.183-1.042.817-1.782.817c-.415 0-.784-.084-1.105-.253a1.67 1.67 0 0 1-.72-.72h-.087v2.807h-.932V90.5h.888v.968h.087a2.06 2.06 0 0 1 .774-.785c.328-.2.697-.285 1.094-.285zm-.222 5.168c.534 0 .953-.192 1.257-.575s.455-.914.455-1.592-.152-1.208-.455-1.592-.717-.575-1.25-.575a1.52 1.52 0 0 0-1.257.586c-.3.4-.466.914-.466 1.58s.154 1.2.46 1.58.73.586 1.257.586zM70.162 95c.3.377.726.565 1.278.565s.978-.188 1.278-.565.45-.914.45-1.602-.15-1.22-.45-1.597-.726-.57-1.278-.57-.98.2-1.278.57-.45.9-.45 1.597.15 1.222.45 1.602zm3.244.597c-.48.534-1.136.8-1.966.8s-1.488-.267-1.97-.8-.72-1.27-.72-2.2.24-1.665.72-2.2 1.137-.8 1.97-.8 1.5.267 1.972.8.72 1.267.72 2.2-.242 1.662-.726 2.2zm5.794-.075v-4.248h-2.215l-.184 2.48c-.06.782-.222 1.343-.482 1.683v.086h2.88zm-3.58 2.307h-.877v-2.307h.487c.202-.133.36-.36.477-.678s.188-.694.217-1.113l.228-3.232h3.98v5.023h.932v2.307h-.877v-1.533H75.62v1.533z"/></g><g class="N"><path d="M39.447 88.4c-.605-.696-1.413-1.185-2.333-1.4a4.5 4.5 0 0 0-2.723.17c-1.38.54-2.386 1.656-2.766 3.064s-.066 2.874.86 4.03l3.518 4.402.566-.65c.008-.008.014-.016.02-.025l.057-.065 2.952-3.7c.586-.74.914-1.58.972-2.506a4.46 4.46 0 0 0-1.123-3.31zm-.308 3.217c-.04.63-.264 1.203-.666 1.7l-2.448 3.066-.797-1-.014-.018-1.607-2.014c-.638-.797-.853-1.806-.595-2.768s.953-1.728 1.903-2.102a2.98 2.98 0 0 1 1.099-.204c.898 0 1.775.392 2.345 1.05a3.01 3.01 0 0 1 .781 2.279zm-2.123-.12a1.17 1.17 0 0 0-.361-.827c-.228-.22-.527-.34-.84-.336a1.19 1.19 0 0 0-1.176 1.194 1.16 1.16 0 0 0 .357.825 1.2 1.2 0 0 0 .842.338c.66-.01 1.188-.558 1.178-1.195z"/></g><path d="M18 71H315.12V1H18V71Z" class="I"/><g class="M"><path d="M94.3 57.76h-1.05v-8.314h4.968v.945H94.3v7.37zm5.77-1.388c.322.403.778.605 1.37.605s1.048-.202 1.37-.605.482-.98.482-1.717-.16-1.308-.482-1.7-.777-.6-1.37-.6-1.048.204-1.37.6-.48.974-.48 1.7.16 1.3.48 1.717zm3.476.64c-.514.572-1.216.858-2.106.858s-1.594-.286-2.112-.858-.772-1.362-.772-2.357.257-1.784.772-2.357 1.218-.858 2.112-.858 1.598.286 2.112.858.772 1.358.772 2.357-.26 1.78-.778 2.357zm5.5-5.572c.797 0 1.433.292 1.9.876s.72 1.364.72 2.34-.24 1.752-.72 2.34-1.116.876-1.9.876a2.51 2.51 0 0 1-1.184-.271c-.344-.184-.602-.442-.772-.772h-.093v3.008H106V51.55h.952v1.037h.093a2.2 2.2 0 0 1 .83-.841c.356-.204.746-.305 1.172-.305zm-.238 5.537c.572 0 1.02-.206 1.346-.617s.488-.98.488-1.706-.163-1.294-.488-1.706-.768-.616-1.34-.616c-.565 0-1.014.2-1.347.628s-.5.98-.5 1.694.165 1.275.494 1.694.78.628 1.346.628zm5.757-.605c.32.403.777.605 1.37.605s1.05-.202 1.37-.605.48-.98.48-1.717-.16-1.308-.48-1.7-.778-.6-1.37-.6-1.048.204-1.37.6-.482.974-.482 1.7.16 1.3.482 1.717zm3.476.64c-.515.572-1.217.858-2.107.858s-1.594-.286-2.112-.858-.772-1.362-.772-2.357.257-1.784.772-2.357 1.218-.858 2.112-.858 1.598.286 2.112.858.772 1.358.772 2.357-.26 1.78-.777 2.357zm6.378-.082v-4.55h-2.373l-.197 2.656c-.066.837-.238 1.44-.517 1.803v.092h3.087zm-3.836 2.472h-.94V56.93h.523c.216-.142.387-.384.5-.726a4.92 4.92 0 0 0 .232-1.193l.244-3.463h4.265v5.38h1V59.4h-.94v-1.64h-4.892v1.642zm12.326-5.952h-1c-.086-.326-.27-.593-.552-.8s-.632-.317-1.062-.317c-.56 0-1.008.207-1.34.622s-.494.974-.494 1.677c0 .715.167 1.285.5 1.7s.777.634 1.334.634c.422 0 .772-.094 1.05-.282a1.35 1.35 0 0 0 .563-.807h1a2.22 2.22 0 0 1-.83 1.435c-.46.365-1.056.547-1.787.547-.878 0-1.576-.292-2.095-.876s-.777-1.375-.777-2.362c0-.968.26-1.742.777-2.322s1.215-.87 2.1-.87c.73 0 1.327.2 1.788.57a2.27 2.27 0 0 1 .835 1.44zm2.582.698h.272l2.478-2.6h1.213l-2.867 2.927 2.977 3.284h-1.294l-2.507-2.83h-.272v2.83h-.998v-6.2h.998v2.6zM142.727 57c.514 0 .94-.148 1.276-.444a1.41 1.41 0 0 0 .511-1.112v-.57l-1.683.1c-.472.03-.818.13-1.04.294s-.33.405-.33.72a.87.87 0 0 0 .354.737c.236.18.54.265.912.265zm-.186.87c-.615 0-1.122-.167-1.52-.5s-.6-.787-.6-1.348c0-.553.197-.987.6-1.302s.958-.494 1.7-.536l1.805-.1v-.565c0-.384-.12-.678-.36-.882s-.592-.305-1.056-.305c-.375 0-.687.067-.934.202s-.407.325-.476.57h-1c.066-.495.323-.895.772-1.2s1.014-.455 1.683-.455c.758 0 1.344.182 1.758.547s.62.872.62 1.52v4.252h-.952v-.916h-.092a2.06 2.06 0 0 1-.801.761 2.36 2.36 0 0 1-1.126.265zm7.08-3.164h1.178V52.38h-1.178c-.414 0-.743.108-.987.323s-.365.505-.365.88a1.02 1.02 0 0 0 .37.812c.247.212.574.3.98.3zm1.178 3.054v-2.224h-1.074l-1.596 2.224h-1.2l1.746-2.408c-.44-.123-.787-.338-1.038-.645a1.68 1.68 0 0 1-.378-1.1c0-.638.2-1.14.633-1.504s.998-.553 1.718-.553h2.176v6.2h-.998zm7.552-1.377c.328.396.793.593 1.392.593s1.062-.198 1.387-.593.494-.953.494-1.67c0-.684-.165-1.212-.494-1.584s-.787-.565-1.387-.565-1.064.188-1.392.565-.488.9-.488 1.584c0 .718.163 1.275.488 1.67zm-.668-3.56h.093a2.24 2.24 0 0 1 .836-.835c.356-.207.783-.3 1.282-.3.832 0 1.5.273 2.002.818s.76 1.28.76 2.218c0 .98-.262 1.752-.784 2.316s-1.228.84-2.13.84c-.94 0-1.66-.3-2.164-.933s-.75-1.565-.75-2.817a12.68 12.68 0 0 1 .087-1.579 6.08 6.08 0 0 1 .308-1.273 2.95 2.95 0 0 1 .574-.979 2.48 2.48 0 0 1 .9-.611c.367-.154.797-.242 1.288-.265l.627-.03a5.91 5.91 0 0 0 .841-.104l.592-.15.197-.08v.887a1.15 1.15 0 0 1-.133.092c-.062.035-.228.087-.5.156s-.588.106-.952.12l-.638.03c-.4.02-.756.086-1.04.202a1.59 1.59 0 0 0-.685.501c-.174.223-.307.474-.4.755s-.164.624-.215 1.03zm7.858 3.55c.32.403.777.605 1.37.605s1.05-.202 1.37-.605.48-.98.48-1.717-.16-1.308-.48-1.7-.778-.6-1.37-.6-1.048.204-1.37.6-.482.974-.482 1.7.16 1.3.482 1.717zm3.476.64c-.515.572-1.217.858-2.107.858s-1.594-.286-2.112-.858-.772-1.362-.772-2.357.257-1.784.772-2.357 1.22-.858 2.112-.858 1.598.286 2.113.858.77 1.358.77 2.357-.26 1.78-.777 2.357zm3.898-1.977l-.116.945a4.17 4.17 0 0 1-.214.766c-.1.238-.202.434-.337.588s-.296.267-.493.352a1.71 1.71 0 0 1-.679.127c-.143 0-.265-.02-.366-.063v-.9a1 1 0 0 0 .314.046c.294 0 .512-.158.655-.473s.242-.785.285-1.4l.243-3.463h4.092v6.2h-.998v-5.4h-2.188l-.198 2.656zm7.544-.663h-1.178v2.558h1.178c.4 0 .737-.115.98-.346s.372-.545.372-.933-.124-.697-.372-.928-.57-.35-.98-.35zm-2.176 3.388v-6.2h.998v1.994h1.178c.716 0 1.287.2 1.712.57s.64.893.64 1.538-.213 1.158-.64 1.538-.996.57-1.712.57h-2.176zm6.082 0v-6.2h.998v2.57h3.122v-2.57h.998v6.2h-.998v-2.812h-3.122v2.812h-.998zm8.1 0h-.998v-6.2h.998v4.632h.093l3.116-4.632h.998v6.2h-.998v-4.632h-.093l-3.116 4.633zm12.198 1.642h-.94V57.76h-5.06v-6.2h.998v5.38h3.006v-5.38h.998v5.38h.998v2.472zM207.907 57c.515 0 .94-.148 1.277-.444a1.42 1.42 0 0 0 .51-1.112v-.57l-1.683.1c-.472.03-.82.13-1.04.294s-.33.405-.33.72a.87.87 0 0 0 .354.737c.236.18.54.265.9.265zm-.185.87c-.616 0-1.122-.167-1.52-.5s-.592-.787-.592-1.348c0-.553.198-.987.592-1.302s.958-.494 1.7-.536l1.805-.1v-.565c0-.384-.12-.678-.36-.882s-.592-.305-1.056-.305c-.376 0-.687.067-.935.202a.92.92 0 0 0-.475.57h-1c.066-.495.323-.895.772-1.2s1.013-.455 1.682-.455c.76 0 1.345.182 1.76.547s.62.872.62 1.52v4.252h-.952v-.916h-.093a2.04 2.04 0 0 1-.8.76 2.36 2.36 0 0 1-1.125.265zm9.388-.1h-1.033v-8.314h1.016l4.37 6.5h.093v-6.5h1.033v8.314h-1.015l-4.37-6.476h-.093v6.476zm8.473-4.425c-.577 0-1.06-.182-1.445-.547s-.575-.855-.575-1.458.192-1.087.575-1.452.868-.547 1.445-.547c.592 0 1.085.182 1.48.547s.592.85.592 1.452-.197 1.1-.592 1.458-.887.547-1.48.547zm0-.737c.344 0 .62-.115.83-.346s.314-.538.314-.922-.103-.695-.308-.922-.483-.34-.835-.34a1.01 1.01 0 0 0-.795.34c-.198.227-.296.534-.296.922s.098.7.296.922.466.346.795.346zm1.926 2.334h-3.772v-.94h3.772v.94zm3.413 2.828v-7.162h-.092l-2.13 1.533v-1.095l2.228-1.6h1.04v8.314h-1.045zm5.258-3.83v-.887h1.016c.476 0 .864-.138 1.166-.415a1.38 1.38 0 0 0 .46-1.06c0-.422-.147-.763-.442-1.02s-.682-.392-1.166-.392-.874.127-1.172.38-.468.597-.5 1.043h-1.015c.054-.722.325-1.3.812-1.705s1.13-.622 1.927-.622a2.98 2.98 0 0 1 1.323.294c.403.196.725.455.957.8a1.88 1.88 0 0 1 .349 1.095c0 .495-.13.914-.4 1.256s-.62.57-1.08.68v.092c.57.073 1.016.294 1.34.663s.487.832.487 1.4c0 .684-.284 1.262-.853 1.734s-1.267.703-2.095.703c-.85 0-1.545-.215-2.083-.645s-.826-1.006-.865-1.717h1a1.47 1.47 0 0 0 .592 1.06c.348.265.793.398 1.335.398.55 0 1-.146 1.352-.438s.534-.666.534-1.124c0-.48-.172-.86-.517-1.14s-.814-.42-1.4-.42h-1.062z"/></g><path d="M34.48 58.547l-4.992-4.72 4.992-4.72.95.9-4.04 3.82 4.04 3.82-.95.9z" class="N"/><path fill="#f0f0f0" d="M18 71.133h297.12v.787H18z"/><g filter="url(#H)"><rect x="29.885" y="531" width="273.35" height="35.4" rx="10" fill="url(#P)"/></g><g class="I"><path d="M112.55 553.813h-1.7v-7.96h-4.498v7.96h-1.704v-9.422h7.893v9.422zm4.085-1.828c.3.4.752.614 1.322.614s1.008-.205 1.315-.614.467-.995.467-1.744-.155-1.323-.467-1.737-.75-.62-1.315-.62-1 .207-1.322.62-.467.993-.467 1.737.156 1.33.467 1.744zm1.322 1.972c-1.08 0-1.925-.33-2.54-.986s-.92-1.572-.92-2.73c0-1.15.3-2.054.928-2.716s1.462-1 2.532-1 1.918.33 2.532.992.927 1.57.927 2.723-.3 2.068-.927 2.73-1.458.986-2.532.986zm6.86-4.427h.315l2.414-2.86h1.88l-2.953 3.297 3.1 3.846h-1.98l-2.44-3.07h-.328v3.07h-1.63v-7.143h1.63v2.86zm8.438 3.128c.5 0 .9-.14 1.23-.418s.493-.632.493-1.045v-.568l-1.625.104c-.894.057-1.34.38-1.34.967a.84.84 0 0 0 .342.705c.232.17.532.255.9.255zm-.48 1.273c-.702 0-1.274-.196-1.717-.588s-.664-.9-.664-1.554.234-1.15.703-1.515 1.15-.575 2.026-.627l1.855-.1v-.6c0-.352-.116-.622-.35-.8s-.568-.28-1.006-.28c-.377 0-.688.065-.934.196s-.405.3-.48.548h-1.54c.066-.63.373-1.13.92-1.502s1.256-.56 2.1-.56c.92 0 1.63.2 2.13.633s.756 1.015.756 1.776v4.878h-1.572v-.98h-.112a2.1 2.1 0 0 1-.868.81c-.372.2-.793.287-1.262.287zm8.6.026c-.838 0-1.54-.192-2.1-.575s-.882-.944-.948-1.684h1.592c.08.3.243.544.493.705s.58.235.974.235c.434 0 .774-.087 1.02-.26a.84.84 0 0 0 .368-.719c0-.63-.46-.946-1.38-.946h-1.032v-1.156h1c.78 0 1.17-.288 1.17-.862a.78.78 0 0 0-.296-.634c-.197-.16-.5-.24-.875-.24s-.686.078-.927.235a.92.92 0 0 0-.421.646h-1.56c.07-.67.36-1.2.87-1.586.508-.392 1.186-.588 2.032-.588.88 0 1.563.178 2.045.535a1.71 1.71 0 0 1 .724 1.463 1.45 1.45 0 0 1-.309.927 1.41 1.41 0 0 1-.796.516v.118c.45.1.793.302 1.026.58s.355.618.355 1.02a1.97 1.97 0 0 1-.816 1.652c-.54.413-1.27.62-2.196.62zm7.274-1.3c.5 0 .9-.14 1.23-.418s.493-.632.493-1.045v-.568l-1.625.104c-.894.057-1.34.38-1.34.967a.84.84 0 0 0 .342.705c.232.17.532.255.9.255zm-.48 1.273c-.702 0-1.274-.196-1.717-.588s-.664-.9-.664-1.554.234-1.15.704-1.515 1.148-.575 2.025-.627l1.855-.1v-.6c0-.352-.116-.622-.35-.8s-.567-.28-1.006-.28c-.377 0-.688.065-.934.196s-.405.3-.48.548h-1.54c.066-.63.373-1.13.92-1.502s1.256-.56 2.1-.56c.92 0 1.63.2 2.13.633s.756 1.015.756 1.776v4.878h-1.572v-.98h-.1a2.11 2.11 0 0 1-.869.81c-.372.2-.793.287-1.262.287zm11.28-7.26v1.293h-2.216v5.85h-1.632v-5.85h-2.216v-1.293h6.064zm4.367 3.428h-1.2v2.422h1.2c.4 0 .717-.1.954-.333s.36-.515.36-.88-.12-.658-.36-.875-.555-.333-.954-.333zm-2.82 3.715v-7.143h1.63v2.14h1.38c.837 0 1.504.227 2 .68s.75 1.06.75 1.82-.25 1.37-.75 1.822-1.162.68-2 .68h-3.012zm11.036 0v-7.143h1.63v2.82h3.045v-2.82h1.63v7.143h-1.63v-3.03h-3.045v3.03h-1.63zm10.896-1.155c.5 0 .9-.14 1.23-.418s.494-.632.494-1.045v-.568l-1.625.104c-.894.057-1.342.38-1.342.967a.84.84 0 0 0 .342.705c.233.17.533.255.9.255zm-.48 1.273c-.7 0-1.273-.196-1.716-.588s-.665-.9-.665-1.554.235-1.15.704-1.515 1.15-.575 2.026-.627l1.855-.1v-.6c0-.352-.117-.622-.35-.8s-.568-.28-1.006-.28c-.377 0-.7.065-.934.196s-.406.3-.48.548h-1.54c.065-.63.372-1.13.92-1.502s1.257-.56 2.112-.56c.92 0 1.63.2 2.13.633s.756 1.015.756 1.776v4.878h-1.57v-.98h-.112a2.1 2.1 0 0 1-.868.81c-.373.2-.794.287-1.263.287zm11.128-4.4h.316l2.414-2.86h1.88l-2.953 3.297 3.1 3.846h-1.98l-2.44-3.07h-.33v3.07h-1.63v-7.143h1.63v2.86zm8.438 3.128c.492 0 .902-.14 1.23-.418s.494-.632.494-1.045v-.568l-1.625.104c-.894.057-1.342.38-1.342.967a.84.84 0 0 0 .342.705c.233.17.533.255.9.255zm-.48 1.273c-.7 0-1.273-.196-1.716-.588s-.664-.9-.664-1.554.234-1.15.703-1.515 1.15-.575 2.026-.627l1.855-.1v-.6c0-.352-.117-.622-.35-.8s-.568-.28-1.006-.28c-.377 0-.7.065-.934.196s-.406.3-.48.548h-1.54a1.99 1.99 0 0 1 .921-1.502c.552-.374 1.256-.56 2.1-.56.92 0 1.63.2 2.13.633s.756 1.015.756 1.776v4.878h-1.572v-.98h-.112a2.1 2.1 0 0 1-.868.81 2.74 2.74 0 0 1-1.263.287zm9.826-7.38c.912 0 1.633.33 2.164.986s.802 1.56.802 2.703-.265 2.042-.795 2.704-1.243.986-2.15.986c-.513 0-.962-.105-1.348-.314a2 2 0 0 1-.849-.888h-.112v3.46h-1.63v-9.52h1.572v1.18h.112a2.29 2.29 0 0 1 .901-.953c.4-.23.844-.346 1.335-.346zm-.513 6c.566 0 1.007-.205 1.322-.614.32-.4.48-.975.48-1.698s-.16-1.288-.48-1.697c-.315-.4-.754-.614-1.315-.614s-.998.207-1.322.62-.5.978-.493 1.7c.004.714.166 1.278.486 1.692s.765.62 1.322.62zm10.53-5.882v1.293h-2.217v5.85h-1.63v-5.85h-2.216v-1.293h6.064zm4.32 1.142c-.487 0-.888.16-1.204.477s-.5.738-.526 1.26h3.387c-.017-.53-.175-.953-.473-1.267s-.693-.47-1.184-.47zm1.67 4.036h1.546a2.48 2.48 0 0 1-1.085 1.547c-.566.375-1.27.562-2.1.562-1.057 0-1.888-.326-2.493-.98s-.9-1.56-.9-2.7.302-2.06.907-2.73 1.43-1.012 2.473-1.012c1.026 0 1.83.32 2.408.96s.874 1.517.874 2.644v.523h-5.024v.085c.02.596.192 1.068.513 1.417s.754.516 1.3.516c.824 0 1.36-.275 1.604-.823z"/></g><g filter="url(#I)" class="J"><path d="M18.736 583.055h297.12v38.697H18.736v-38.697z" fill="#f8f8f8" fill-opacity=".8"/></g><path d="M256.432 583.055h59.423v38.697h-59.423v-38.697z" class="I"/><g class="O"><path d="M270.208 616.224h-.696V613.7h-3.064v2.534h-.697v-5.565h.697v2.407h3.064v-2.407h.696v5.565zm2.7-.5c.343 0 .627-.1.852-.297a.95.95 0 0 0 .34-.744v-.382l-1.122.073c-.315.02-.545.086-.692.197s-.22.27-.22.482.08.373.236.493.36.178.607.178zm-.123.582c-.4 0-.748-.112-1.014-.335s-.395-.527-.395-.903c0-.37.132-.66.395-.87s.638-.33 1.126-.36l1.203-.073v-.378c0-.257-.08-.454-.24-.6s-.395-.204-.704-.204c-.25 0-.458.045-.623.135a.62.62 0 0 0-.317.38h-.673c.044-.33.215-.6.514-.802s.676-.304 1.122-.304c.506 0 .896.122 1.172.366s.414.584.414 1.018v2.846h-.634v-.613h-.062c-.134.22-.312.4-.534.5a1.67 1.67 0 0 1-.75.177zm6.74-2.957h-.673a.95.95 0 0 0-.368-.536c-.188-.14-.42-.212-.708-.212a1.08 1.08 0 0 0-.893.417c-.22.277-.33.65-.33 1.122 0 .478.1.86.332 1.145s.52.424.9.424c.28 0 .515-.063.7-.2a.95.95 0 0 0 .376-.54h.673c-.062.393-.246.713-.553.96s-.704.366-1.192.366c-.585 0-1.05-.195-1.396-.586s-.52-.92-.52-1.58c0-.648.173-1.166.52-1.554s.8-.582 1.392-.582c.488 0 .885.127 1.192.38a1.53 1.53 0 0 1 .557.964zm3.884-1.273v.555h-1.354v3.602h-.665v-3.602h-1.354v-.555h3.373zm2.992-.073c.532 0 .956.195 1.273.586s.48.912.48 1.565-.16 1.173-.48 1.566a1.56 1.56 0 0 1-1.273.586 1.67 1.67 0 0 1-.789-.181c-.23-.124-.4-.296-.514-.517h-.062v2.013h-.666v-5.545h.635v.694h.062a1.46 1.46 0 0 1 .553-.563c.235-.136.498-.204.78-.204zm-.158 3.705c.38 0 .68-.137.897-.412s.325-.656.325-1.142-.108-.866-.325-1.14-.512-.413-.893-.413a1.08 1.08 0 0 0-.898.42c-.222.28-.333.655-.333 1.133s.1.854.33 1.134.52.42.898.42zm3.848-.405c.215.27.52.405.913.405s.7-.135.913-.405.322-.655.322-1.15-.107-.875-.322-1.145-.518-.4-.913-.4-.698.137-.913.4-.32.652-.32 1.145.107.877.32 1.15zm2.318.43c-.343.383-.8.574-1.405.574s-1.062-.2-1.408-.574-.514-.912-.514-1.578.17-1.194.514-1.577.813-.574 1.408-.574 1.066.2 1.4.574.514.9.514 1.577-.173 1.192-.518 1.578zm2.302.5h-.666v-4.157h.666v3.1h.062l2.077-3.1h.666v4.157h-.666v-3.1h-.062l-2.077 3.1zm-.314-6H295a.87.87 0 0 0 .197.57.64.64 0 0 0 .522.24c.216 0 .395-.08.527-.24a.87.87 0 0 0 .2-.57h.603a1.22 1.22 0 0 1-.37.906c-.246.242-.565.358-.96.358s-.7-.12-.955-.358-.368-.54-.368-.906zm5.1 3.582h.182l1.652-1.74h.808l-1.9 1.96 1.985 2.198h-.863l-1.67-1.894h-.182v1.894h-.665v-4.157h.665v1.74zm4.3 2.418h-.666v-4.157h.666v3.1h.062l2.077-3.1h.666v4.157h-.666v-3.1h-.062l-2.077 3.1zm-22.062-14.397c.385-.925 1.065-1.432 2.126-1.4a2.07 2.07 0 0 1 1.886 1.4h5.717c.284 0 .532.186.588.44.058.263-.073.534-.33.637a.9.9 0 0 1-.337.059H285.9a.19.19 0 0 0-.217.143c-.3.782-1.078 1.276-1.964 1.273-.844-.002-1.616-.513-1.917-1.278-.04-.106-.092-.14-.206-.138h-.822c-.32-.008-.568-.23-.6-.5a.56.56 0 0 1 .484-.617c.154-.02.315-.008.474-.01l.593.003zm2.015 1.414c.496 0 .897-.385.9-.85s-.407-.843-.9-.848-.9.377-.9.85.387.848.9.848zm1.996-8.216a2.01 2.01 0 0 1-.585.888c-1.075.954-2.83.566-3.352-.742-.044-.114-.097-.154-.225-.15l-.78.003c-.35 0-.613-.234-.62-.55-.005-.33.243-.577.6-.585h.85c.086.003.128-.02.16-.103.34-.843 1.246-1.356 2.185-1.24.835.104 1.426.5 1.733 1.268.036.1.1.074.167.074h5.168l.43.003c.354.016.6.266.588.595-.01.3-.27.54-.615.542h-5.53c-.055-.005-.1-.005-.175-.005zm-2.884-.566c0 .473.402.856.892.85s.886-.388.9-.847c.003-.452-.382-.792-.892-.795-.515.003-.9.335-.9.792zm.706 3.404l2.758.003c.13 0 .2-.032.24-.152.306-.768 1.084-1.278 1.936-1.275.87.003 1.647.518 1.948 1.3.04.104.092.13.2.128l.808-.003c.357.006.607.237.607.56.003.33-.25.563-.612.57h-.836c-.078 0-.12.013-.154.093-.334.8-.958 1.27-1.87 1.323-.875.053-1.713-.446-2.042-1.297-.04-.098-.086-.122-.187-.122l-5.544.003c-.376 0-.635-.23-.635-.56-.003-.324.248-.566.6-.57h2.783zm5.82.57c.003-.473-.393-.856-.886-.856s-.897.388-.894.853.404.845.886.848c.493.003.9-.375.894-.845z"/></g><path d="M197.008 583.055h59.424v38.697h-59.424v-38.697z" class="I J"/><g class="O"><path d="M214.053 614.176c-.02.342-.06.62-.116.83a1.37 1.37 0 0 1-.275.548v.046h2.7v-4.315h-2.136l-.182 2.892zm-1.02 2.048v1.1h-.646V615.6h.414c.193-.103.335-.27.425-.505s.15-.548.174-.933l.213-3.502h3.455v4.94h.696v1.724h-.646v-1.1h-4.085zm7.33-3.644c-.333 0-.606.112-.82.335s-.334.52-.36.887h2.298c-.008-.367-.113-.663-.317-.887s-.47-.335-.8-.335zm1.1 2.568h.665a1.44 1.44 0 0 1-.615.845c-.307.203-.687.304-1.14.304-.578 0-1.036-.193-1.374-.578s-.506-.912-.506-1.57.17-1.178.5-1.57.797-.586 1.37-.586c.562 0 1.004.186 1.327.56s.483.883.483 1.53v.254h-2.998v.03c.018.4.134.738.348.98s.502.362.855.362c.54 0 .898-.188 1.076-.563zm3.867-3.154c.53 0 .955.195 1.272.586s.48.912.48 1.565-.16 1.173-.48 1.566-.744.586-1.272.586a1.67 1.67 0 0 1-.79-.181 1.2 1.2 0 0 1-.514-.517h-.062v2.013h-.666v-5.545h.635v.694h.062a1.46 1.46 0 0 1 .553-.563 1.54 1.54 0 0 1 .782-.204zm-.16 3.705c.382 0 .68-.137.897-.412s.325-.656.325-1.142-.108-.866-.325-1.14-.512-.413-.893-.413a1.08 1.08 0 0 0-.898.42c-.222.28-.332.655-.332 1.133s.1.854.328 1.134.52.42.898.42zm4.702-3.12c-.332 0-.606.112-.82.335s-.334.52-.36.887H231c-.007-.367-.113-.663-.317-.887s-.47-.335-.8-.335zm1.1 2.568h.666c-.1.36-.306.64-.616.845s-.687.304-1.14.304c-.578 0-1.035-.193-1.373-.578s-.507-.912-.507-1.57.17-1.178.5-1.57.797-.586 1.37-.586c.562 0 1.005.186 1.327.56s.484.883.484 1.53v.254h-3v.03c.02.4.135.738.35.98s.5.362.855.362c.54 0 .897-.188 1.075-.563zm3.52-2.526h-1.018v1.172h.9c.524 0 .786-.197.786-.593 0-.18-.057-.322-.17-.425s-.28-.154-.506-.154zm-.05 1.728h-.967v1.32h1.095c.255 0 .45-.056.58-.166s.202-.275.202-.486c0-.23-.077-.397-.23-.505s-.376-.162-.68-.162zm-1.632 1.874v-4.157h1.768c.4 0 .695.096.917.3s.332.45.332.775a.89.89 0 0 1-.197.563c-.13.167-.3.27-.483.313v.06a.99.99 0 0 1 .63.32c.157.175.236.4.236.64 0 .366-.126.656-.38.872s-.602.324-1.048.324h-1.776zm5.106-.93c.214.27.518.404.913.404s.698-.135.913-.404.32-.656.32-1.15-.107-.875-.32-1.145-.52-.4-.913-.4-.7.137-.913.4-.322.652-.322 1.145.107.877.322 1.15zm2.317.428c-.343.383-.8.574-1.404.574s-1.063-.2-1.4-.574-.514-.912-.514-1.578.17-1.194.514-1.577.813-.574 1.4-.574 1.065.2 1.408.574.514.9.514 1.577-.172 1.192-.518 1.578zm-15.595-19.557l-.707.173c-.935.284-1.53.903-1.743 1.844-.206.924.073 1.72.774 2.36.275.253.292.322.1.644l-.303.484c-.115.17-.265.194-.432.073a3.78 3.78 0 0 1-.645-5.483 3.73 3.73 0 0 1 1.46-1.062.25.25 0 0 0 .178-.222c.275-1.847 1.868-3.22 3.75-3.234a3.8 3.8 0 0 1 3.806 3.169c.017.103.062.155.15.204 1.293.723 1.98 1.826 2.04 3.296.073 1.868-1.42 3.6-3.287 3.82-.33.04-.418-.035-.425-.364l-.025-.536c-.01-.277.063-.37.335-.432 1.066-.236 1.746-.87 1.997-1.927.272-1.156-.408-2.384-1.534-2.8-.167-.062-.397-.076-.5-.193s-.038-.34-.052-.512c-.08-1.222-.85-2.1-2.032-2.353-1.35-.276-2.75.723-2.9 2.08-.032.315-.004.637-.004.972zm1.708 2.817l.3-.74.753-1.82c.105-.252.237-.308.492-.204l.543.225c.265.1.314.225.206.48l-1.3 3.175c-.052.128-.08.277-.08.416l-.003 4.268c0 .308-.08.384-.394.384h-.593c-.26-.003-.352-.1-.352-.356l.004-4.165c0-.152-.046-.256-.154-.36l-1.43-1.366c-.205-.197-.212-.325-.017-.526l.446-.46c.157-.156.3-.16.47-.007l1.014.972c.028.028.056.048.094.083z"/></g><path d="M137.584 583.055h59.424v38.697h-59.424v-38.697z" class="I J"/><g class="M"><path d="M152.456 614.176a4.21 4.21 0 0 1-.117.83 1.37 1.37 0 0 1-.274.548v.046h2.708v-4.315h-2.136l-.18 2.892zm-1.022 2.048v1.1h-.646V615.6h.414c.193-.103.335-.27.426-.505s.15-.548.174-.933l.212-3.502h3.455v4.94h.697v1.724h-.646v-1.1h-4.086zm5.664 0v-4.157h.665v1.72h2.082v-1.72h.665v4.157h-.665v-1.882h-2.082v1.882h-.665zm6.402-3.644c-.333 0-.606.112-.82.335s-.334.52-.36.887h2.298c-.008-.367-.114-.663-.317-.887s-.47-.335-.8-.335zm1.098 2.568h.666a1.45 1.45 0 0 1-.615.845c-.307.203-.688.304-1.142.304-.577 0-1.035-.193-1.373-.578s-.507-.912-.507-1.57.17-1.178.5-1.57.797-.586 1.37-.586c.563 0 1.005.186 1.327.56s.484.883.484 1.53v.254H162.3v.03c.018.4.134.738.348.98s.502.362.855.362c.54 0 .898-.188 1.075-.563zm3.522-2.526h-1.017v1.172h.9c.523 0 .785-.197.785-.593 0-.18-.057-.322-.17-.425s-.28-.154-.507-.154zm-.05 1.728h-.967v1.32h1.094c.256 0 .45-.056.58-.166s.2-.275.2-.486c0-.23-.076-.397-.228-.505s-.377-.162-.68-.162zm-1.633 1.874v-4.157h1.768c.4 0 .695.096.917.3s.333.45.333.775c0 .206-.066.394-.198.563a.85.85 0 0 1-.483.313v.06a.99.99 0 0 1 .63.32.92.92 0 0 1 .236.64c0 .366-.126.656-.38.872s-.602.324-1.048.324h-1.776zm4.34 0v-4.157h.665v1.72h2.082v-1.72h.665v4.157h-.665v-1.882h-2.082v1.882h-.665zm5.402 0h-.666v-4.157h.666v3.1h.06l2.078-3.1h.665v4.157h-.665v-3.1h-.062l-2.077 3.1zm4.796-2.418h.182l1.652-1.74h.808l-1.9 1.96 1.985 2.198h-.863l-1.67-1.894h-.182v1.894h-.666v-4.157h.666v1.74z"/></g><g class="N"><path d="M162.146 598.44v-4.693c0-.78.326-1.383 1.025-1.774.293-.163.617-.228.95-.23h8.1c.256 0 .443.1.56.332.115.216.057.4-.087.594-.473.612-.45 1.423.03 2.03a.53.53 0 0 1 .098.308l.006 9.5c0 .43-.22.652-.656.652h-8.004c-1.022 0-1.805-.636-1.995-1.62-.022-.118-.025-.238-.025-.358l-.002-4.75zm1.133-3.053v7.743c0 .505.354.864.85.864h7.422c.043 0 .087-.005.14-.008v-8.235c0-.225.027-.204-.2-.204-2.107 0-4.214.008-6.32-.002-.62-.003-1.256.093-1.9-.158zm8.04-2.57l-.055-.008c-2.392 0-4.785-.003-7.177.002-.547.003-.927.53-.767 1.046.112.356.424.573.85.576h7.014c.04 0 .08-.003.134-.008a2.65 2.65 0 0 1 0-1.608zm-3.842 7.345h1.196c.346.002.604.238.607.55s-.25.564-.596.564h-2.433c-.318-.002-.552-.216-.582-.508a.56.56 0 0 1 .424-.59c.057-.014.117-.016.174-.016h1.2zm-.005-.955c-.422 0-.843.005-1.264-.003a.56.56 0 0 1-.541-.49c-.033-.257.14-.522.4-.596.055-.017.117-.025.174-.025l2.458.003c.4.005.655.35.552.712a.55.55 0 0 1-.533.4c-.4 0-.827-.002-1.245-.002z"/></g><path d="M78.16 583.055h59.424v38.697H78.16v-38.697z" class="I J"/><g class="O"><path d="M97.4 616.356c-.758 0-1.36-.26-1.803-.783s-.662-1.232-.662-2.13.22-1.607.662-2.13 1.04-.787 1.8-.787c.588 0 1.1.167 1.5.502s.668.77.75 1.307h-.708a1.49 1.49 0 0 0-.557-.852c-.28-.2-.6-.316-.994-.316-.536 0-.962.204-1.277.613s-.468.963-.468 1.662.157 1.254.472 1.662.74.6 1.277.6c.4 0 .722-.093.998-.278a1.31 1.31 0 0 0 .549-.764h.708a1.9 1.9 0 0 1-.754 1.227c-.408.303-.908.455-1.5.455zm6.435-4.29v.556h-1.354v3.602h-.666v-3.602h-1.354v-.556h3.374zm2.22 3.65c.343 0 .627-.1.85-.297s.34-.446.34-.745v-.38l-1.122.073c-.315.02-.546.086-.693.197s-.22.27-.22.482a.59.59 0 0 0 .236.493c.157.12.36.178.607.178zm-.124.582c-.4 0-.747-.112-1.013-.335s-.395-.528-.395-.903c0-.37.132-.66.395-.872s.638-.33 1.126-.358l1.203-.074v-.377c0-.258-.08-.454-.24-.6s-.395-.204-.704-.204c-.25 0-.458.045-.623.135s-.27.217-.317.382h-.673c.043-.332.215-.6.514-.802s.676-.305 1.122-.305c.506 0 .896.122 1.172.366s.414.584.414 1.02v2.846h-.634v-.613h-.062c-.134.22-.312.4-.534.5a1.67 1.67 0 0 1-.75.177zm6.23-4.23v.556h-1.354v3.602h-.665v-3.602h-1.354v-.556h3.373zm2.422 1.9h-.785v1.712h.785c.273 0 .5-.077.654-.23s.247-.365.247-.625-.082-.466-.247-.62-.38-.235-.654-.235zm-1.45 2.268v-4.158h.666v1.335h.785c.477 0 .858.127 1.14.38s.426.598.426 1.03-.142.775-.426 1.03-.664.382-1.14.382h-1.45zm4.718 0h-.665v-4.158h.665v3.1h.062l2.077-3.1h.666v4.158H120v-3.1h-.06l-2.078 3.1zm-7.944-21.747h-5.24v1.125h5.24v-1.125zm-2.74 2.726h-2.5v1.132h2.5v-1.132zm-.684 2.724h-1.815v1.127h1.815v-1.127zm5.018 1.86v-.786l-.72.775-.6.6c-.042.042-.08.058-.144.058l-2.63-.002v-.64l-.003-1.987c0-.064.016-.104.067-.155l3.913-3.897c.056-.056.123-.16.123-.264l.003-1.8c-.003-.498-.318-.807-.818-.807h-6.773c-.524 0-.836.312-.836.83v9.48c0 .507.315.82.82.82h6.773c.53 0 .834-.304.836-.83v-1.396zm3.792-5.973c.225.722.062 1.375-.492 1.94l-2 2.004a.44.44 0 0 0-.145.343l.006 2.982c0 .434-.062.748-.204 1.023-.36.7-.924 1.04-1.678 1.05l-6.973.003c-1.048-.006-1.87-.85-1.874-1.918l-.002-2.65v-6.9c0-.95.628-1.716 1.563-1.9a1.97 1.97 0 0 1 .39-.035l6.826-.002a1.89 1.89 0 0 1 1.94 1.83l.008.525v.5l.123-.018.158-.024.3-.04c.957-.083 1.8.447 2.07 1.3zm-1.3 1.16c.334-.333.342-.797.018-1.124a.77.77 0 0 0-.553-.24h-.003a.79.79 0 0 0-.561.242l-4.244 4.23a.3.3 0 0 0-.094.184l-.002.01v1.026h.76v-.003c.33-.016.556-.197.735-.38l3.943-3.945z"/></g><path d="M18.736 583.055H78.16v38.697H18.736v-38.697z" class="I"/><g class="O"><path d="M34.602 616.225h-.7v-5.566h3.312v.633h-2.6v4.933zm4.043-1.825l-.077.632a2.81 2.81 0 0 1-.143.513c-.06.16-.134.3-.224.393a.9.9 0 0 1-.329.236c-.132.056-.282.085-.453.085a.63.63 0 0 1-.244-.043v-.6c.062.02.132.03.2.03.196 0 .342-.106.437-.317s.16-.526.2-.937l.162-2.318H40.9v4.158h-.665v-3.602h-1.46l-.132 1.778zm4.867 1.316c.343 0 .627-.1.85-.297s.34-.446.34-.745v-.38l-1.122.073c-.315.02-.546.086-.693.197s-.22.27-.22.482.08.372.236.493.36.178.607.178zm-.124.582c-.4 0-.748-.112-1.014-.335s-.395-.528-.395-.903.132-.66.395-.872.638-.33 1.126-.358l1.203-.074v-.378c0-.257-.08-.453-.24-.6s-.395-.204-.704-.204c-.25 0-.458.045-.623.135s-.27.217-.317.382h-.673c.044-.332.215-.6.515-.802s.676-.305 1.122-.305c.505 0 .896.122 1.172.366s.414.584.414 1.018v2.847h-.635v-.613h-.062c-.134.22-.312.4-.534.5a1.67 1.67 0 0 1-.75.177zm4.968-3.675H47.34v1.172h.9c.524 0 .785-.198.785-.594 0-.18-.057-.32-.17-.424s-.28-.154-.507-.154zm-.05 1.727h-.967v1.32h1.095c.255 0 .45-.055.58-.165s.2-.276.2-.486c0-.23-.076-.398-.228-.506s-.377-.162-.68-.162zm-1.633 1.875v-4.158h1.768c.4 0 .695.097.917.3s.333.45.333.776a.9.9 0 0 1-.197.563.81.81 0 0 1-.484.312v.062a.99.99 0 0 1 .63.32c.157.177.236.388.236.64 0 .365-.126.656-.38.872s-.602.324-1.048.324h-1.776zm4.34 0v-4.158h.665v1.72h2.08v-1.72h.665v4.158h-.665v-1.882h-2.08v1.882h-.665zm6.024-.5c.343 0 .627-.1.85-.297s.34-.446.34-.745v-.38l-1.122.073c-.315.02-.545.086-.692.197s-.22.27-.22.482.08.372.236.493.36.178.607.178zm-.124.582c-.4 0-.748-.112-1.014-.335s-.395-.528-.395-.903.132-.66.395-.872.638-.33 1.126-.358l1.203-.074v-.378c0-.257-.08-.453-.24-.6s-.395-.204-.704-.204c-.25 0-.458.045-.623.135s-.27.217-.317.382h-.673c.044-.332.215-.6.515-.802s.676-.305 1.122-.305c.506 0 .896.122 1.172.366s.414.584.414 1.018v2.847h-.635v-.613h-.062c-.134.22-.312.4-.534.5a1.67 1.67 0 0 1-.75.177zm4.72-2.118h.785v-1.558h-.785c-.276 0-.495.072-.658.216s-.244.338-.244.6a.68.68 0 0 0 .248.543c.165.14.383.2.654.2zm.785 2.044v-1.5h-.716l-1.064 1.5h-.793l1.155-1.6c-.294-.083-.525-.227-.693-.432a1.13 1.13 0 0 1-.252-.737c0-.427.14-.762.422-1.007s.665-.37 1.145-.37h1.45v4.158h-.665zm-19.448-18.69l-.24.2c-.3.233-.668.198-.88-.076s-.172-.644.118-.877l6.058-4.837c.3-.248.568-.256.877-.008l6.013 4.807c.3.244.35.618.13.888-.23.28-.584.3-.897.06l-.187-.137v5.78c0 1.037-.8 1.845-1.85 1.845h-7.268c-1.06 0-1.866-.804-1.866-1.868v-5.51c-.008-.076-.008-.145-.008-.26zm5.494-4.392l-.122.088-4.055 3.26c-.053.042-.095.134-.095.206l-.004 6.633a.6.6 0 0 0 .614.618h1.217v-3.1c.004-.838.65-1.624 1.48-1.734.507-.07 1.026-.042 1.54-.046 1.064-.004 1.862.805 1.862 1.868v3.008h1.156a.61.61 0 0 0 .675-.67l.004-6.557c0-.114-.034-.183-.126-.252l-1.846-1.475-2.3-1.845zm1.217 10.792l-.004-3.05c0-.34-.267-.595-.614-.6a54.59 54.59 0 0 0-1.145 0c-.44 0-.683.248-.683.686v2.783l.008.183 2.438-.004z"/></g><path fill="#e6e6e6" d="M18.736 582.265h297.12v.5H18.736z"/><path d="M18.736 618.406h297.12v20.078H18.736z" class="I"/></g><defs><filter id="B" x="0" y="78.105" width="13.97" height="34.474" filterUnits="userSpaceOnUse" class="K"><feFlood result="A" class="L"/><feColorMatrix in="SourceAlpha" values="0 0 0 0 0 0 0 0 0 0 0 0 0 0 0 0 0 0 127 0"/><feOffset dx="-2"/><feGaussianBlur stdDeviation="2.5"/><feColorMatrix values="0 0 0 0 0 0 0 0 0 0 0 0 0 0 0 0 0 0 0.12 0"/><feBlend in2="A"/><feBlend in="SourceGraphic"/></filter><filter id="C" x="0" y="121.526" width="13.97" height="52.632" filterUnits="userSpaceOnUse" class="K"><feFlood result="A" class="L"/><feColorMatrix in="SourceAlpha" values="0 0 0 0 0 0 0 0 0 0 0 0 0 0 0 0 0 0 127 0"/><feOffset dx="-2"/><feGaussianBlur stdDeviation="2.5"/><feColorMatrix values="0 0 0 0 0 0 0 0 0 0 0 0 0 0 0 0 0 0 0.12 0"/><feBlend in2="A"/><feBlend in="SourceGraphic"/></filter><filter id="D" x="0" y="178.368" width="13.97" height="52.632" filterUnits="userSpaceOnUse" class="K"><feFlood result="A" class="L"/><feColorMatrix in="SourceAlpha" values="0 0 0 0 0 0 0 0 0 0 0 0 0 0 0 0 0 0 127 0"/><feOffset dx="-2"/><feGaussianBlur stdDeviation="2.5"/><feColorMatrix values="0 0 0 0 0 0 0 0 0 0 0 0 0 0 0 0 0 0 0.12 0"/><feBlend in2="A"/><feBlend in="SourceGraphic"/></filter><filter id="E" x="316.824" y="140.474" width="13.176" height="80.263" filterUnits="userSpaceOnUse" class="K"><feFlood result="A" class="L"/><feColorMatrix in="SourceAlpha" values="0 0 0 0 0 0 0 0 0 0 0 0 0 0 0 0 0 0 127 0"/><feOffset dx="-2"/><feGaussianBlur stdDeviation="2.5"/><feColorMatrix values="0 0 0 0 0 0 0 0 0 0 0 0 0 0 0 0 0 0 0.12 0"/><feBlend in2="A"/><feBlend in="SourceGraphic"/></filter><filter id="F" x="218.804" y="3.947" width="102.844" height="654.105" filterUnits="userSpaceOnUse" class="K"><feFlood class="L"/><feBlend in="SourceGraphic"/><feGaussianBlur stdDeviation=".5"/></filter><filter id="G" x="8.559" y=".947" width="256.536" height="660.105" filterUnits="userSpaceOnUse" class="K"><feFlood class="L"/><feBlend in="SourceGraphic"/><feGaussianBlur stdDeviation="2"/></filter><filter id="H" x="24.885" y="529" width="283.35" height="45.4" filterUnits="userSpaceOnUse" class="K"><feFlood result="A" class="L"/><feColorMatrix in="SourceAlpha" values="0 0 0 0 0 0 0 0 0 0 0 0 0 0 0 0 0 0 127 0"/><feOffset dy="3"/><feGaussianBlur stdDeviation="2.5"/><feColorMatrix values="0 0 0 0 1 0 0 0 0 0.419608 0 0 0 0 0 0 0 0 0.3 0"/><feBlend in2="A"/><feBlend in="SourceGraphic"/></filter><filter id="I" x="-8.446" y="555.872" width="351.485" height="93.063" filterUnits="userSpaceOnUse" class="K"><feFlood class="L"/><feGaussianBlur in="BackgroundImage" stdDeviation="13.591"/><feComposite in2="SourceAlpha" operator="in"/><feBlend in="SourceGraphic"/></filter><linearGradient id="J" x1="325.412" y1="509.421" x2="-236.904" y2="625.569" xlink:href="#a"><stop stop-color="#f3f3f8"/><stop offset=".64" stop-color="#f4f4f4"/></linearGradient><linearGradient id="K" x1="166.603" y1="22.712" x2="166.603" y2="19.159" xlink:href="#a"><stop stop-color="#b4babe"/><stop offset=".845" stop-color="#ced1d4" stop-opacity="0"/></linearGradient><linearGradient id="L" x1="200.747" y1="26.855" x2="200.747" y2="17.974" xlink:href="#a"><stop stop-color="#b4babe"/><stop offset=".845" stop-color="#ced1d4" stop-opacity="0"/></linearGradient><linearGradient id="M" x1="243.228" y1="89.421" x2="442.719" y2="449.909" xlink:href="#a"><stop stop-color="#e8e9ea"/><stop offset=".546" stop-color="#b4b7bb"/><stop offset=".978" stop-color="#b4b7bb" stop-opacity="0"/></linearGradient><linearGradient id="N" x1="117.769" y1="184.553" x2="7.97" y2="213.253" xlink:href="#a"><stop stop-color="#e8e9ea"/><stop offset="1" stop-color="#b4b7bb"/></linearGradient><linearGradient id="O" x1="7.9" y1="631.224" x2="290.956" y2="34.033" xlink:href="#a"><stop stop-color="#fff"/><stop offset="1" stop-color="#fff"/></linearGradient><linearGradient id="P" x1="303.235" y1="549.093" x2="29.885" y2="549.093" xlink:href="#a"><stop stop-color="#ff8900"/><stop offset="1" stop-color="#ff6b00"/></linearGradient><path id="Q" d="M40.097 220.63c.7 0 1.242.253 1.655.76s.624 1.182.624 2.027-.208 1.518-.624 2.028-.967.76-1.655.76c-.386 0-.728-.08-1.026-.235a1.56 1.56 0 0 1-.669-.669h-.08v2.606h-.865v-7.18h.825v.9h.08a1.91 1.91 0 0 1 .719-.73c.308-.176.647-.264 1.016-.264zm-.206 4.8c.496 0 .885-.18 1.167-.535s.422-.85.422-1.478-.14-1.122-.422-1.478-.666-.534-1.162-.534a1.41 1.41 0 0 0-1.167.544c-.288.36-.432.85-.432 1.468s.142 1.105.427 1.468.677.545 1.167.545z"/><path id="R" d="M206.98 218.308v-3.945h-2.057l-.17 2.302c-.057.725-.206 1.246-.447 1.563v.08h2.675zm-3.324 2.142h-.815v-2.142h.453c.188-.124.335-.333.442-.63s.175-.644.202-1.033l.2-3h3.696v4.664h.865v2.142h-.814v-1.423h-4.24v1.423z"/><path id="S" d="M234.592 219.196c-.818 0-1.45-.33-1.9-.988s-.674-1.588-.674-2.787c0-1.188.227-2.114.68-2.776s1.085-.994 1.896-.994 1.437.333 1.886 1 .68 1.595.68 2.786-.224 2.12-.674 2.777-1.076.983-1.89.983zm-1.237-1.558c.29.516.7.774 1.237.774s.946-.256 1.228-.77.427-1.256.427-2.222c0-.955-.144-1.69-.432-2.207s-.693-.774-1.223-.774-.94.26-1.232.78-.432 1.25-.432 2.202c0 .962.142 1.7.427 2.217z"/><path id="T" d="M247.875 230.313h-.673c-.057-.217-.18-.395-.367-.533s-.422-.212-.708-.212c-.374 0-.672.14-.894.415s-.33.65-.33 1.118c0 .476.11.856.333 1.14s.518.422.9.422c.28 0 .514-.063.7-.188a.9.9 0 0 0 .375-.538h.673a1.48 1.48 0 0 1-.553.957c-.307.243-.704.365-1.19.365-.586 0-1.05-.195-1.397-.584s-.518-.917-.518-1.575c0-.645.172-1.16.518-1.548s.8-.58 1.393-.58c.487 0 .884.127 1.19.38s.495.574.557.96z"/><path id="U" d="M228.145 265.44v-1.493h-3.536v-.82c.664-1.172 1.7-2.803 3.108-4.894h1.313v4.9h1.03v.804h-1.03v1.493h-.885zm-2.6-2.352v.06h2.616v-4.08h-.06l-2.555 4.02z"/><path id="V" d="M260.096 265.44v-1.493h-3.536v-.82c.664-1.172 1.7-2.803 3.1-4.894h1.312v4.9h1.03v.804h-1.03v1.493h-.885zm-2.6-2.352v.06h2.615v-4.08h-.06l-2.555 4.02z"/><path id="W" d="M281.053 265.44l3.26-6.332v-.07h-3.882v-.804h4.803v.834l-3.23 6.372h-.95z"/><path id="X" d="M228.538 276.314c.215.27.52.404.914.404s.698-.135.913-.404.32-.653.32-1.144-.107-.872-.32-1.14-.52-.407-.913-.407-.7.135-.914.407-.32.65-.32 1.14.107.873.32 1.144zm2.318.427c-.343.38-.8.572-1.404.572s-1.063-.2-1.4-.572-.514-.908-.514-1.57.17-1.2.514-1.57.813-.573 1.4-.573 1.065.2 1.408.573.514.905.514 1.57-.173 1.186-.518 1.57z"/><path id="Y" d="M204.822 308.426c.532 0 .956.195 1.273.584s.48.9.48 1.56-.16 1.167-.48 1.56-.744.584-1.273.584a1.67 1.67 0 0 1-.789-.181c-.23-.123-.4-.294-.514-.514h-.062v2.005h-.666V308.5h.635v.692h.062a1.46 1.46 0 0 1 .553-.561c.237-.136.498-.204.78-.204zm-.158 3.692c.38 0 .68-.137.897-.4s.325-.653.325-1.137-.108-.863-.325-1.137-.512-.4-.893-.4-.676.14-.898.418-.333.653-.333 1.13.1.85.33 1.13.52.42.898.42z"/><path id="Z" d="M72.4 134.492c-.466 0-.85.155-1.148.467s-.468.725-.504 1.237h3.217c-.01-.512-.16-.925-.444-1.237s-.66-.467-1.12-.467zm1.538 3.58h.932c-.14.502-.428.894-.86 1.178s-.962.425-1.598.425c-.8 0-1.45-.27-1.923-.807s-.7-1.27-.7-2.2.238-1.644.715-2.188 1.116-.818 1.917-.818c.787 0 1.406.26 1.858.78s.677 1.23.677 2.135v.355h-4.198v.043c.025.573.188 1.03.488 1.366s.702.505 1.197.505c.755 0 1.257-.262 1.506-.785z"/><linearGradient id="a" gradientUnits="userSpaceOnUse"/></defs></svg>