<svg xmlns="http://www.w3.org/2000/svg" xmlns:xlink="http://www.w3.org/1999/xlink" width="330" height="662" fill="none" xmlns:v="https://vecta.io/nano"><style><![CDATA[.R{fill:#878787}.S{fill:#fff}.T{color-interpolation-filters:sRGB}.U{flood-opacity:0}.V{fill:#250608}.W{fill-rule:evenodd}.X{fill:#f6bfb3}.Y{fill:#f0a895}.Z{fill:#f85314}.a{stroke-miterlimit:10}.b{fill:#893a45}.c{stroke:#e3e3e3}.d{fill:#ff6b00}.e{fill:#c4c8cc}.f{stroke:#f0f0f0}.g{fill:#b6f2d1}.h{stroke-width:3}.i{fill:#f87a26}]]></style><g filter="url(#D)" class="e"><path d="M7 86.083a2.98 2.98 0 0 1 2.978-2.978c.548 0 .993.444.993.993v22.488a.99.99 0 0 1-.993.993A2.98 2.98 0 0 1 7 104.601V86.083z"/></g><g filter="url(#E)" class="e"><path d="M7 128.895c0-1.308 1.067-2.37 2.382-2.37h.794c.438 0 .794.354.794.8v41.052a.8.8 0 0 1-.794.8h-.794c-1.316 0-2.382-1.06-2.382-2.368v-37.895z"/></g><g filter="url(#F)" class="e"><path d="M7 185.737c0-1.308 1.067-2.37 2.382-2.37h.794c.438 0 .794.354.794.8v41.053a.79.79 0 0 1-.794.789h-.794A2.39 2.39 0 0 1 7 223.632v-37.895z"/></g><g filter="url(#G)"><path d="M323.824 146.263a.79.79 0 0 1 .794-.789c1.316 0 2.382 1.06 2.382 2.368v65.526c0 1.308-1.066 2.37-2.382 2.37a.79.79 0 0 1-.794-.79v-68.684z" fill="#e0e0e2"/></g><path d="M279.357 1H54.643C29.208 1 8.588 21.5 8.588 46.8v568.4c0 25.288 20.62 45.8 46.055 45.8h224.714c25.435 0 46.055-20.5 46.055-45.8V46.8c0-25.3-20.62-45.8-46.055-45.8zM18.117 46.8c0-20.057 16.353-36.316 36.526-36.316h23.094c2.736.957 4.698 3.55 4.698 6.598 0 9.655 7.872 17.48 17.583 17.48H233.2c9.7 0 17.583-7.826 17.583-17.48 0-3.048 1.96-5.64 4.697-6.598h23.888c20.173 0 36.526 16.26 36.526 36.316v568.4c0 20.056-16.353 36.315-36.526 36.315H54.643c-20.173 0-36.526-16.26-36.526-36.315V46.8z" fill="url(#T)" class="W"/><g fill="#dce0e3"><rect x="149.634" y="18.869" width="33.938" height="2.158" rx="1.079" stroke="url(#U)"/><path d="M204.217 19.948a3.46 3.46 0 0 1-6.94 0 3.46 3.46 0 0 1 6.94 0z" stroke="url(#V)"/></g><g opacity=".6" filter="url(#H)" class="W"><path d="M276.975 6.526c23.243 0 42.085 18.733 42.085 41.842V613.63c0 23.1-18.842 41.843-42.085 41.843h-57.17v1.578h57.17c24.12 0 43.673-19.44 43.673-43.42V48.368c0-23.98-19.553-43.42-43.673-43.42h-21.542v1.58h21.542z" fill="url(#W)"/></g><g opacity=".9" filter="url(#I)" class="W"><path d="M56.23 6.526c-23.242 0-42.084 18.733-42.084 41.842V613.63c0 23.1 18.842 41.843 42.084 41.843h204.863v1.578H56.23c-24.12 0-43.672-19.44-43.672-43.42V48.368c0-23.98 19.553-43.42 43.672-43.42h21.542v1.58H56.23z" fill="url(#X)"/></g><mask id="A" mask-type="alpha" maskUnits="userSpaceOnUse" x="18" y="10" width="298" height="642"><path d="M18.166 44.88l-.05 1.9V615.2c0 20.056 16.353 36.315 36.526 36.315h224.714c20.173 0 36.526-16.26 36.526-36.315V46.555c-.127-19.95-16.432-36.08-36.526-36.08H255.47c-2.736.957-4.697 3.55-4.697 6.598 0 9.655-7.872 17.48-17.583 17.48H100.017c-9.7 0-17.583-7.826-17.583-17.48 0-3.048-1.96-5.64-4.698-6.598H54.643c-9.102 0-17.426 3.3-23.82 8.785a36.66 36.66 0 0 0-6.467 7.226 35.98 35.98 0 0 0-6.189 18.395z" fill="#000" class="W"/></mask><g mask="url(#A)"><path d="M18 10H324V653H18V10Z" fill="url(#Y)"/><g class="S"><path d="M18 10h297.12v578.394H18z"/><use xlink:href="#f" class="f"/></g><mask id="B" mask-type="alpha" maskUnits="userSpaceOnUse" x="18" y="10" width="298" height="282"><use xlink:href="#f" class="S f"/></mask><g mask="url(#B)"><mask id="C" mask-type="alpha" maskUnits="userSpaceOnUse" x="17" y="8" width="299" height="285"><path d="M17.5 282.027c0 5.246 4.253 9.5 9.5 9.5h279c5.247 0 9.5-4.254 9.5-9.5V9.473h-298v272.554z" class="S f"/></mask><g mask="url(#C)"><path d="M11.366 300h315.85c4.784 0 8.718-3.777 8.718-8.537V-2.2H2.648v293.652c0 4.684 3.935 8.537 8.718 8.537z" fill="#33ceb5"/><path d="M214.52 159.777c7.278-17.613-4.26-39.098-25.774-47.987s-44.852-1.818-52.13 15.795 4.26 39.1 25.774 47.988 44.852 1.818 52.13-15.796z" class="S"/><g class="g"><path d="M139.34 239.23c23.214-1.707 41.194-14.5 40.158-28.595s-20.695-24.12-43.9-22.413-41.193 14.5-40.157 28.595 20.695 24.12 43.9 22.413zM80.254 101.228c8.532-11.255.4-31.78-18.138-45.84S21.613 39.05 13.08 50.306s-.4 31.778 18.138 45.84 40.504 16.337 49.036 5.082z"/></g><path d="M126.467 34.803c22.95-3.897 39.636-18.343 37.272-32.268s-22.885-22.054-45.834-18.157S78.27 2.72 80.633 16.646s22.885 22.054 45.834 18.157z" fill="#00aa8a"/><path d="M253.016 53.905c13.722-3.34 20.384-24.382 14.88-46.998s-21.092-38.242-34.815-34.902-20.384 24.382-14.88 46.998 21.092 38.242 34.815 34.902z" class="S"/><path d="M374.58 208.774c11.242-12.443-1.023-41.845-27.394-65.672s-56.864-33.055-68.106-20.612 1.022 41.845 27.394 65.672 56.864 33.055 68.106 20.612z" class="g"/><g fill="#00aa8a"><path d="M376.176 59.552c5.836-15.72-16.444-38.493-49.764-50.86s-65.062-9.65-70.898 6.07 16.445 38.493 49.765 50.86 65.062 9.65 70.897-6.07zM100.704 293.948c15.07-11.13 10.172-43.33-10.944-71.92s-50.45-42.742-65.52-31.6-10.172 43.33 10.943 71.92 50.45 42.742 65.522 31.6z"/></g><path d="M203.9 31.284c14.016 0 25.378-11.362 25.378-25.38s-11.362-25.38-25.378-25.38S178.5-8.1 178.5 5.905s11.362 25.38 25.38 25.38z" stroke="#b6f2d1" class="a h"/><g stroke="#fff" class="a h"><path d="M137.464 63.98c6.042 0 10.94-4.9 10.94-10.94s-4.9-10.94-10.94-10.94-10.942 4.9-10.942 10.94 4.9 10.94 10.942 10.94zm149.1 42.275c6.043 0 10.94-4.9 10.94-10.94s-4.898-10.94-10.94-10.94-10.942 4.9-10.942 10.94 4.9 10.94 10.942 10.94z"/></g><path d="M67.802 203.756c6.043 0 10.94-4.898 10.94-10.94s-4.9-10.942-10.94-10.942-10.94 4.9-10.94 10.942 4.9 10.94 10.94 10.94z" stroke="#b6f2d1" class="a h"/><path d="M298.93 234.185c0 32.76-33.083 65.195-65.842 65.195s-59.37-32.436-59.37-65.195c0-44.478 26.6-53.542 59.37-53.542s65.842 9.13 65.842 53.542z" fill="#056b63"/><path d="M168.54 154.1c-17.416-13.596-10.165-36.838 11.524-46.225s6.54-13.53-5.827-16.445-21.753-7.5-21.753-18.58 9.905-15.862 28.616-23.5 29.846-8.805 39.04-1.295c12.7 10.423 4.08 24.926 10.812 31.27s28.486 5.244 34.248 17.933-4.014 18.387-1.36 25 27.903 7.77 27.903 25.508c0 26.933-35.93 41.888-35.93 41.888" fill="#9e5561"/><g class="b"><path d="M208.3 89.552l16.056 29.65c23.372-13.142 6.604-39.945-16.056-29.65zm83.453 58.203c0-17.804-25.25-18.905-27.903-25.5-2.396-5.956 5.18-11.135 2.654-21.365-10.812.4-21.56 11.525-22.012 25.444l8.6 11.33-15.992 44.348 18.646 7.575c.065 0 35.996-14.9 35.996-41.823zm-115.823-87.8c-14.178-2.266-22.53 9.193-20.847 21.624 3.626 5.05 10.618 7.77 19.035 9.776 3.56.842 7.315 1.748 10.423 2.913 5.115-1.5 8.87-3.237 8.87-3.237l-17.48-31.076zm53.542 17.35c-2.914-5.374-.13-14.178-3.82-22.27-26.35 13.92-11.006 24.343 3.82 22.27z"/></g><path d="M277.824 234.185c0 32.76-26.6 65.195-59.368 65.195s-59.368-32.436-59.368-65.195c0-44.478 26.6-53.542 59.368-53.542s59.368 9.13 59.368 53.542z" fill="#035450"/><path d="M206.673 114.8s-4.662 9.97-16.445 9.97c-15.408 0-20.458 6.474-25.184 12.7l-42.665 58.46s12.495 21.948 19.487 14.244l35.1-39.493" class="X"/><g class="Y"><path d="M120.243 201.425c4.143 5.957 16.833 14.114 21.688 8.74l24.02-26.998-1.36-2.007c-22.66 3.56-39.363 13.337-44.348 20.264zm23.112 7.187c-5.567 6.54-8.157 12.754-18.58 12.754s-10.424-9.582-10.424-9.582"/></g><path d="M264.1 161.544c12.106-21.235-.842-31.658-22.012-35.737-8.805-1.813-13.53-25.443-13.53-25.443L206.673 114.8s-4.662 9.97-16.445 9.97c-15.408 0-20.458 6.474-25.184 12.7l-20.33 27.838 19.876 21.754 15.085-15.085" class="i"/><path d="M253.093 128.85c-3.302-1.23-6.992-2.266-11.006-3.043-5.05-1.036-8.74-9.193-10.942-16-7.834 1.23-16 2.72-23.436 4.337l-.97.648s-4.662 9.97-16.445 9.97c-3.237 0-6.086.324-8.48.842 3.172 10.164 53.736 12.495 71.28 3.237z" class="Z"/><g class="X"><path d="M206.673 114.8s-3.172 6.733-10.877 9.13c5.633 21.43 25.962 23.177 41.24-1.75-5.568-7.12-8.546-21.882-8.546-21.882l-17.027-2.6-5.568 7.38.777 9.7z"/><path d="M215.93 84.308c-4.92.388-5.762 5.244-7.64 5.244s0 0 0 0c-16.768 1.878-16.25-19.487-17.415-26.026-1.23-6.604-8.48-5.632-11.913-4.726-10.1 2.72-11.653 13.984-9.517 21.494 1.166 4.144 3.7 3.43 4.403 15.732.582 9.128 11.977 23.048 19.228 21.04 7.186-2.007 16.25-4.92 22.92-18.322 7.445-.906 7.056-14.955-.065-14.437z"/></g><path d="M212.5 93.954c-1.1-.13 2.525-5.503 3.95-5.18s-1.684 5.438-3.95 5.18z" class="Y"/><path d="M183.82 104.507l.388-.26c.13-.065.195-.13.324-.13l.583-.065 1.23-.26 2.395-.648 2.33-.84a5.81 5.81 0 0 0 1.101-.518c.194-.065.323-.194.518-.26s.388-.13.776-.13l.13.065c.13.324.065.648-.065.907-.13.194-.324.388-.518.582l-.518.518c-.194.13-.388.26-.582.453-.777.518-1.684.842-2.6 1.166-.906.26-1.813.518-2.72.518-.453 0-.97 0-1.425-.065-.258-.065-.517-.065-.712-.13-.13-.064-.26-.13-.323-.26-.13-.13-.195-.26-.26-.453l-.065-.194z" class="Z"/><path d="M183.107 76.668c-.194-.647.13-.842.323-1.165l.777-.712c.583-.453 1.36-.712 2.137-.777s1.618 0 2.266.324c.324.13.647.388.97.583.26.26.647.388.518 1.1l-.065.065c-.647.26-.777.065-1.1.065l-.777-.194c-.518-.065-1.036-.13-1.5-.065-.13 0-.26.065-.4.065s-.26.065-.388.065l-.4.13c-.13.065-.26.13-.388.13-.26.065-.518.194-.777.324s-.453.388-1.1.13l-.13-.065z" class="b"/><g class="Y"><path d="M182.524 100.364c3.755-2.98-2.395-4.014-3.82-2.396-1.036 1.1 1.878 3.95 3.82 2.396zm9.776 8.6c1.166-1.554-.84-4.726-2.978-2.2-1.618 1.942 1.295 4.402 2.978 2.2z"/></g><g class="b"><path d="M169.5 80.488c-.453-.518-.194-.712-.13-1.036.13-.26.195-.518.4-.777.324-.518.842-.906 1.36-1.165.583-.26 1.166-.453 1.813-.388.324 0 .583.065.907.194.26.13.582.13.647.842l-.065.13c-.388.518-.582.388-.777.453s-.388.065-.582.13c-.4.13-.712.194-1.036.388l-.97.647c-.195.13-.324.26-.518.388s-.26.4-.907.26l-.13-.065zm16.316 6.345c.26-.065.388-.065.518 0 .13 0 .26.065.388.065.26.065.518.065.777.065.518 0 1.036-.065 1.62-.13a7.38 7.38 0 0 0 1.618-.388c.26-.065.518-.13.777-.26l.324-.13c.13-.065.26-.065.518-.065l.065.065c.064.194.064.453-.065.583-.13.194-.26.26-.4.388-.26.194-.517.388-.84.518a9.79 9.79 0 0 1-1.813.583 4.9 4.9 0 0 1-1.942 0c-.324-.065-.648-.194-.97-.324a1.97 1.97 0 0 1-.454-.324c-.13-.194-.26-.388-.13-.647zm-7.576 1.294c.065.194.065.388 0 .518s-.194.194-.26.324c-.194.194-.388.388-.647.518-.453.26-.97.453-1.5.518s-1.036.13-1.62 0c-.26-.065-.518-.13-.777-.324-.26-.13-.582-.324-.453-.777l.065-.065c.26-.065.324-.065.453-.065.065 0 .194.065.26.065h.583c.388 0 .84 0 1.23-.13a8.66 8.66 0 0 0 1.23-.324l.583-.194c.194-.065.323-.194.84-.065z"/></g><path d="M175.66 151.12c.518 10.812-5.632 19.358-3.366 34.054 2.136 13.66 14.243 23.566 15.28 41.305.842 14.373-15.797 37.227-15.797 37.227s53.93 27.256 72.252 0c22.983-34.184 26.285-100.026 21.753-118.348" class="i"/><g class="Z"><path d="M244.03 263.707c20.2-29.975 25.184-84.36 23.048-109.673l-48.362 36.644c-22.53 10.877-13.66 39.622-6.992 50.24 5.244 8.287 21.17 22.077 27.903 27.7a23.16 23.16 0 0 0 4.403-4.92zM175.662 151.12c.194.583.323 1.23.388 1.813v1.877l-.13 1.813-.26 1.813-1.5 7.186-1.425 7.057-.26 1.813c-.064.582-.194 1.165-.194 1.813-.13 1.23-.065 2.395-.518 3.625h-.065c-.194-.583-.323-1.23-.388-1.813s0-1.23 0-1.812c0-1.23.065-2.46.26-3.7.26-2.46.777-4.855 1.295-7.186l1.618-7.057a31.52 31.52 0 0 0 .583-3.561c.065-.582.065-1.165.194-1.813.065-.582.13-1.165.324-1.812l.065-.065z"/></g><path d="M199.163 217.676h-49.075c-2.848 0-5.503 1.683-6.668 4.337h62.4c-1.165-2.654-3.755-4.337-6.668-4.337z" class="S"/><path d="M130.342 198.383c0-7.252 11.33-6.993 5.762 6.474l-5.762-6.474z" class="X"/><path d="M136.558 212.237L103.992 172.8c-.84-1.036-.712-2.525.26-3.432 1.036-.906 2.655-.777 3.496.26l31.8 38.522a33.56 33.56 0 0 1 5.697 10.035c.26.647-.518 1.23-1.1.84l-.647-.388c-2.525-1.813-4.92-3.95-6.927-6.4z" fill="#face24"/><path d="M133.774 206.216c-3.432-4.467-11.978-14.05-15.603-12.3-5.892 2.85-12.495 14.05-12.495 22.4 0 5.115 12.042 5.827 17.674 5.892 2.978.647 5.633-2.137 2.85-5.374.26.13.453.26.647.388 3.237 1.813 7.057-1.1 3.82-5.05 3.043 1.877 6.474-1.62 3.108-5.957z" class="X"/><g class="Y"><path d="M120.178 203.303c.712.065 1.1.518 1.554.84s.906.713 1.294 1.036l5.05 4.403 1.23 1.165c.4.4.842.648 1.1 1.36l-.065.064c-.712 0-1.165-.388-1.618-.647l-1.36-.97c-.906-.647-1.748-1.424-2.6-2.137l-2.46-2.33-1.165-1.23c-.453-.518-.906-.842-.97-1.554zm-8.546 12.43c.648-.064 1.1.26 1.554.454.453.26.906.453 1.424.712l2.72 1.554 2.655 1.618c.453.26.906.518 1.295.842.453.26.906.453 1.23 1.1l-.065.065c-.647.13-1.1-.13-1.62-.324s-.97-.388-1.424-.647c-.97-.453-1.877-.97-2.784-1.5l-2.654-1.683-1.295-.907c-.388-.323-.906-.582-1.1-1.165l.065-.13zm4.92-5.633c.648 0 1.036.323 1.5.582s.907.583 1.295.842l2.6 1.748 2.525 1.813 1.23.97c.388.324.84.583 1.1 1.165l-.064.065c-.648.13-1.1-.194-1.554-.453l-1.36-.777c-.906-.518-1.748-1.165-2.654-1.748l-2.525-1.878-1.165-1.035c-.4-.324-.842-.583-.907-1.295z"/></g><path d="M107.812 169.702c-.906-1.036-2.46-1.166-3.496-.26-.97.906-1.1 2.395-.26 3.43l1.942 2.33 3.7-3.237-1.878-2.266z" class="Z"/><path d="M236.324 94.86l-13.66-3.885-2.33 11.265c13.8 22.142-12.365 40.4 9.906 61.828l11.653-23.695c5.3-11.2 3.755-32.565-5.568-45.513z" fill="#9e5561"/><path d="M232.3 93.76l-9.646-2.72-2.33 11.265c3.626 5.826 4.467 11.394 4.208 16.833 12.56-7.187 13.337-18.387 7.77-25.38z" class="b"/><path d="M244.482 126.325c.065 4.985-.647 10.035-2.6 14.114-5.3 11.265-11.653 23.695-11.653 23.695l-6.215 12.884c-5.245-13.725-13.014-31.853-17.35-55.16a179.4 179.4 0 0 0 7.51-1.036c6.733-1.165 7.12-7.77 9.064-20.847.388-2.46-.648-2.85-1.878-2.2.324-2.007.13-3.367-.906-3.367-4.985 0-7.446 14.308-9.647 14.308s-22.465 1.23-20.458 13.92c8.352 52.376 11.912 98.666 29.07 98.666 18.192 0 19.617-15.797 44.607-59.756 11.718-20.46.194-30.818-19.552-35.22z" class="X"/><g class="Y"><path d="M220.528 94.407c-.972.26-1.62.842-2.202 1.5s-1.1 1.5-1.553 2.266c-.907 1.683-1.554 3.432-2.266 5.244-.324.907-.713 1.813-1.1 2.655l-.647 1.36c-.26.454-.454.907-.907 1.36-.194.194-.518.518-1.036.518h-.712c-.453 0-.906.065-1.424.13a17.88 17.88 0 0 0-2.784.4c-3.7.582-7.445 1.618-10.553 3.56-.777.453-1.5 1.035-2.136 1.683s-1.23 1.36-1.62 2.136c-.26.4-.388.842-.518 1.23-.13.454-.26.907-.324 1.36-.194.906-.194 1.813-.26 2.784h-.064c-.713-1.813-.518-4.014.388-5.827.842-1.877 2.33-3.302 3.95-4.402a14.54 14.54 0 0 1 2.59-1.425c.906-.388 1.813-.776 2.72-1.035 1.878-.583 3.755-1.036 5.697-1.36.972-.13 1.943-.26 2.914-.324.518-.064.97-.064 1.5-.13h.777c-.065 0 .064 0 .194-.13.26-.26.453-.647.712-1.036.194-.388.4-.84.583-1.23l1.1-2.654c.777-1.748 1.5-3.56 2.525-5.244.518-.842 1.036-1.683 1.813-2.395.4-.324.777-.647 1.295-.842a2.99 2.99 0 0 1 1.5-.194v.065h-.13zm23.824 63.253c-2.07 6.15-2.2 29.134-2.913 46.55 4.403-7.898 9.582-18.7 17.48-33.212l-14.567-13.337zM214.83 120.1c.842-.648 1.813-.777 2.525-1.36l.26-.194c.065-.065.194-.13.26-.194.194-.13.324-.324.518-.454.26-.323.583-.647.777-1.1.906-1.554 1.36-3.43 1.748-5.374l.97-5.762.518-2.913c.194-.97.324-1.942.842-2.85h.064c.26 1.036.065 2.007 0 2.978l-.26 2.914-.84 5.9c-.4 1.943-.842 3.95-2.007 5.698-.26.453-.648.84-1.036 1.23-.194.194-.453.323-.648.518-.13.064-.194.194-.323.26l-.324.194c-.906.518-1.942.84-2.978.582l-.065-.064z"/><path d="M205.766 117.26c-11.33 1.748-8.222 12.56 4.014 18.322-1.1-4.338-2.2-8.934-3.042-13.725 2.783-.324 5.503-.712 7.5-1.036s3.43-1.165 4.467-2.46c-2.655-1.1-6.928-2.007-12.95-1.1zm18.258 59.5c.712.712.97 1.554 1.36 2.33l1.036 2.46 1.813 5.05c.518 1.683 1.036 3.43 1.295 5.244l.323 2.72c.065.906.13 1.813-.26 2.72h-.064c-.454-.906-.454-1.748-.583-2.6l-.518-2.6-1.424-5.115-1.62-5.05-.84-2.525c-.26-.84-.648-1.683-.518-2.654zM221.5 97.7c.13.388.194.712.194 1.036s-.13.647-.13.97l-.388 1.942c-.324 1.295-.712 2.525-1.165 3.82l-1.425 3.7-.84 1.813c-.324.583-.518 1.23-1.166 1.684l-.194-.065c-.13-.777.194-1.36.388-2.007l.648-1.878 2.6-7.38.647-1.878c.194-.647.26-1.23.777-1.813l.065.065z"/></g><path d="M244.482 126.325c.065 4.985-.647 10.035-2.6 14.114-5.3 11.265-11.654 23.695-11.654 23.695l-4.596 9.517c6.797-1.683 17.674 3.173 30.558 10.23l9.128-21.947c9.194-21.624-1.23-31.27-20.847-35.608z" class="i"/><path d="M236.26 151.704c-.065 1.1-.583 2.007-.907 2.913l-1.23 2.784-2.6 5.503-2.72 5.438-1.424 2.72c-.518.907-.906 1.813-1.683 2.6l-.065-.065c.065-1.1.518-2.007.906-2.913l1.23-2.784 2.6-5.503 2.72-5.438 1.425-2.72c.518-.907.906-1.813 1.683-2.6l.065.065z" class="Z"/><path d="M232.634 298.214h66.296v-66.878l-17.22 7.445c-6.216 2.655-12.884 4.08-19.617 4.08h-14.567c-8.222 0-14.9 6.67-14.9 14.9v40.463z" fill="#056b63"/><path d="M246.036 248.622a9.42 9.42 0 0 1 9.452 9.452v40.14h-18.905v-40.14c0-5.18 4.2-9.452 9.453-9.452z" fill="#035450"/><path d="M32.064 221.366h200.182a4.34 4.34 0 0 1 4.338 4.338v68.173a4.34 4.34 0 0 1-4.338 4.337H32.064a4.34 4.34 0 0 1-4.338-4.337V225.64c.065-2.396 1.942-4.273 4.338-4.273z" fill="#fcefc0"/><path d="M236.52 231.92H106.453v66.295H236.52V231.92z" fill="#face24"/><path d="M113.056 53.037H55.5c-2.2 0-3.95 1.748-3.95 3.95v87.595c0 2.2 1.748 3.95 3.95 3.95h57.555a3.69 3.69 0 0 0 3.691-3.69v-88.05c.064-2.072-1.62-3.755-3.7-3.755z" class="S"/><g class="g"><use xlink:href="#g"/><use xlink:href="#g" x="-.002" y="16.25"/><use xlink:href="#g" x="-.002" y="32.5"/><path d="M66.118 122.505a3.82 3.82 0 1 0-3.82-3.82 3.82 3.82 0 0 0 3.82 3.82zm0 16.25a3.82 3.82 0 1 0-3.82-3.819 3.82 3.82 0 0 0 3.82 3.819z"/></g><g stroke="#056b63" class="a"><path d="M61.328 65.2l4.8 4.726 7.122-7.186M61.327 97.7l4.8 4.726 7.122-7.12M61.327 113.96l4.8 4.726 7.122-7.12m2.526-41.63h31.206m-31.206 16.25h20.33m-20.33 16.25h31.205m-18.7 16.25h18.7m-31.195 0h4.985m-4.985 16.25h20.33" stroke-linecap="round" stroke-linejoin="round" stroke-width="2"/></g></g></g><path d="M18 281.274a10 10 0 0 0 10 10h277.12a10 10 0 0 0 10-10V10H18v271.274z" fill="url(#Z)"/><g filter="url(#J)" class="S"><rect x="25.923" y="247.696" width="281.274" height="126.771" rx="10"/></g><g class="c"><rect x="253.819" y="335.351" width="40.993" height="26.731" rx="7.5"/><rect x="199.941" y="335.351" width="40.993" height="26.731" rx="7.5"/><rect x="146.063" y="335.351" width="40.993" height="26.731" rx="7.5"/><rect x="92.186" y="335.351" width="40.993" height="26.731" rx="7.5"/></g><g filter="url(#K)"><rect x="38" y="334.851" width="41.993" height="27.731" rx="8" fill="url(#a)"/></g><path d="M58.76 352.282v-5.95h-.086L56.87 347.6v-1.247l1.896-1.328h1.293v7.257H58.76z" class="S"/><g class="R"><path d="M110.223 347.122c0-.667.228-1.212.684-1.634s1.04-.64 1.755-.64c.7 0 1.263.196 1.715.588a1.88 1.88 0 0 1 .679 1.484c0 .386-.114.768-.342 1.147s-.64.87-1.247 1.483l-1.615 1.635v.085h3.32v1h-4.9v-.814l2.455-2.555c.482-.503.804-.882.965-1.137s.242-.52.242-.8a1.06 1.06 0 0 0-.378-.83c-.252-.222-.565-.332-.94-.332-.4 0-.723.12-.97.357s-.367.55-.367.94v.015h-1.066v-.015zm55.397 1.9v-.93h.88c.4 0 .705-.107.95-.322s.367-.493.367-.835-.12-.608-.357-.8-.555-.306-.95-.306-.716.102-.96.306-.377.487-.407.845h-1.072c.037-.657.277-1.175.72-1.554s1.027-.568 1.755-.568c.674 0 1.24.184 1.695.553s.7.822.7 1.368c0 .426-.118.8-.352 1.1a1.67 1.67 0 0 1-.946.59v.085c.493.057.882.245 1.167.564s.428.716.428 1.202a1.87 1.87 0 0 1-.347 1.101 2.34 2.34 0 0 1-.961.775c-.406.187-.857.28-1.353.28-.76 0-1.383-.196-1.866-.588a2.05 2.05 0 0 1-.77-1.56h1.08c.037.352.194.632.473.84s.642.312 1.08.312.805-.114 1.086-.342a1.08 1.08 0 0 0 .423-.881c0-.375-.138-.672-.413-.9s-.65-.327-1.126-.327h-.916zm55.542 3.26v-1.403h-3.54v-1.046c.564-1.03 1.57-2.632 3.023-4.808h1.604v4.848h1v1.006h-1v1.403h-1.086zm-2.46-2.454v.07h2.474v-3.882h-.065l-2.4 3.812zm55.644 2.63c-.72 0-1.315-.2-1.78-.603s-.716-.922-.75-1.56h1.07c.044.352.2.635.468.85s.602.322 1 .322c.452 0 .818-.138 1.096-.413s.418-.64.418-1.1-.14-.82-.418-1.102-.64-.427-1.08-.427a1.73 1.73 0 0 0-.83.196 1.46 1.46 0 0 0-.578.548h-1.03l.382-4.154h4.235v1.006h-3.355l-.2 2.127h.085c.342-.44.854-.66 1.534-.66.7 0 1.254.228 1.7.684s.66 1.036.66 1.75c0 .75-.243 1.36-.73 1.825s-1.115.7-1.896.7zM61.954 312.6c1.1 0 1.98.368 2.616 1.105s.96 1.727.96 2.984-.32 2.253-.96 3-1.507 1.105-2.616 1.105c-1.116 0-1.993-.37-2.632-1.105s-.96-1.734-.96-3 .32-2.25.964-2.984 1.522-1.105 2.627-1.105zm0 .9c-.794 0-1.424.287-1.9.86s-.7 1.35-.7 2.33.23 1.757.688 2.334 1.096.86 1.9.86c.798 0 1.426-.288 1.885-.866s.688-1.354.688-2.33c0-.982-.23-1.76-.688-2.33s-1.087-.86-1.885-.86zm10.696 8.633h-.877v-1.544H67.05v-5.838h.932v5.058h2.806v-5.058h.932v5.058h.932v2.324zm3.4-6.663c-.466 0-.85.157-1.148.47s-.468.73-.504 1.246h3.217c-.01-.516-.16-.932-.444-1.246s-.66-.47-1.12-.47zm1.538 3.607h.932a2.02 2.02 0 0 1-.861 1.186c-.43.286-.962.428-1.598.428-.8 0-1.45-.27-1.923-.812s-.7-1.28-.7-2.205.238-1.655.715-2.204 1.116-.823 1.917-.823c.787 0 1.406.262 1.858.785s.677 1.24.677 2.15v.358h-4.198v.043c.025.578.188 1.036.487 1.376s.702.5 1.197.5c.755 0 1.257-.264 1.506-.8zm2.415 1.513v-5.838h.932v2.415h2.914v-2.415h.932v5.838h-.932v-2.643h-2.914v2.643h-.932zm7.402 0h-.932v-5.838h.932v4.354h.087l2.9-4.354h.932v5.838H90.4v-4.354h-.087l-2.9 4.354zm9.855-5.84v.78h-1.896v5.058h-.932v-5.058H92.54v-.78h4.723zm3.32.72c-.466 0-.848.157-1.148.47s-.468.73-.504 1.246h3.217c-.01-.516-.158-.932-.444-1.246s-.66-.47-1.12-.47zm1.538 3.607h.932c-.14.506-.428.9-.86 1.186s-.962.428-1.598.428c-.8 0-1.45-.27-1.923-.812s-.7-1.28-.7-2.205.238-1.655.715-2.204 1.116-.823 1.917-.823c.787 0 1.406.262 1.858.785s.677 1.24.677 2.15v.358h-4.198v.043c.025.578.188 1.036.487 1.376s.702.5 1.197.5c.754 0 1.256-.264 1.505-.8zm6.318-1.884h.255l2.313-2.442h1.132l-2.676 2.75 2.78 3.087h-1.208l-2.34-2.66h-.255v2.66h-.93v-5.838h.93v2.442zm7.788-2.545c.743 0 1.337.274 1.782.823s.67 1.282.67 2.2-.224 1.647-.67 2.2-1.042.823-1.782.823c-.416 0-.784-.085-1.105-.254s-.562-.415-.72-.726h-.086v2.827h-.932v-7.788h.888v.975h.087c.188-.336.446-.6.774-.8a2.15 2.15 0 0 1 1.095-.287zm-.223 5.205c.535 0 .954-.193 1.257-.58s.455-.92.455-1.603-.152-1.217-.455-1.603-.717-.58-1.25-.58c-.527 0-.946.197-1.257.6s-.465.92-.465 1.592.153 1.2.46 1.592.73.6 1.256.6zm5.02.737h-.932v-5.838h.932v4.354h.087l2.908-4.354h.932v5.838h-.932v-4.354h-.087l-2.908 4.354zm9.857-5.84v.78h-1.896v5.058h-.93v-5.058h-1.896v-.78h4.723zM133 320.6h-.932v-5.838H133v4.354h.086l2.9-4.354h.932v5.838h-.932v-4.354h-.087L133 320.6zm10.088 0h-.932v-2.632h-.086c-.444.368-.954.553-1.528.553-.632 0-1.126-.2-1.484-.57s-.53-.9-.53-1.522v-1.668h.93v1.668c0 .4.1.7.303.926s.486.336.85.336a2.18 2.18 0 0 0 .606-.081c.192-.055.35-.125.472-.212a2.39 2.39 0 0 0 .287-.238c.07-.068.13-.137.178-.206v-2.193h.932v5.838zm1.694 0v-5.838h.93v2.415h2.914v-2.415h.932v5.838h-.932v-2.643h-2.914v2.643h-.93zm7.598-1.306c.3.38.725.57 1.278.57s.978-.2 1.278-.57.45-.92.45-1.614-.15-1.23-.45-1.6-.726-.574-1.278-.574-.98.192-1.278.574-.45.916-.45 1.6.15 1.23.45 1.614zm3.244.6c-.48.538-1.136.807-1.966.807s-1.488-.27-1.972-.807-.72-1.28-.72-2.215.24-1.677.72-2.215 1.138-.807 1.972-.807 1.5.27 1.97.807.72 1.276.72 2.215-.242 1.674-.726 2.215zm6.97-3.346h-.942a1.33 1.33 0 0 0-.515-.753c-.26-.198-.6-.298-1-.298-.524 0-.94.195-1.25.585s-.46.916-.46 1.576c0 .672.156 1.208.466 1.6a1.5 1.5 0 0 0 1.246.596c.394 0 .72-.1.98-.266s.44-.43.526-.758h.942a2.09 2.09 0 0 1-.774 1.349c-.43.343-.986.514-1.67.514-.82 0-1.47-.274-1.955-.823s-.726-1.293-.726-2.22c0-.9.242-1.637.726-2.182s1.134-.818 1.95-.818c.682 0 1.24.18 1.668.536a2.13 2.13 0 0 1 .78 1.354zm5.28-1.788v.78h-1.896v5.058h-.932v-5.058h-1.895v-.78h4.723zm3.232 2.655h-1.1v2.404h1.1c.382 0 .688-.108.915-.325s.347-.512.347-.877-.116-.655-.347-.872-.533-.33-.915-.33zm-2.03 3.184v-5.838h.93v1.874h1.1c.668 0 1.2.178 1.598.536s.595.84.595 1.446-.198 1.1-.595 1.446-.93.536-1.598.536h-2.03zm13.325-4.05h-.942a1.33 1.33 0 0 0-.515-.753c-.26-.198-.6-.298-1-.298-.523 0-.94.195-1.25.585s-.46.916-.46 1.576c0 .672.155 1.208.465 1.6a1.5 1.5 0 0 0 1.246.596c.394 0 .72-.1.98-.266s.44-.43.526-.758h.942a2.09 2.09 0 0 1-.774 1.349c-.43.343-.986.514-1.668.514-.82 0-1.472-.274-1.956-.823s-.726-1.293-.726-2.22c0-.9.242-1.637.726-2.182s1.134-.818 1.95-.818c.683 0 1.24.18 1.668.536a2.13 2.13 0 0 1 .78 1.354zm2.252 4.052h-.932v-5.838h.932v4.354h.087l2.908-4.354h.932v5.838h-.932v-4.354h-.086l-2.9 4.354zm6.548 0h-.932v-5.838h1.132l2.1 4.528h.086l2.097-4.528h1.088v5.838h-.937v-4.154h-.103l-1.847 3.992h-.725l-1.847-3.992h-.103v4.154zm11.063 0v-5.058h-2.86v5.058h-.932v-5.838h4.723v5.838h-.93zm6.855-5.84v.78h-1.895v5.058h-.932v-5.058h-1.896v-.78h4.723zm2.112 4.534c.3.38.726.57 1.28.57s.978-.2 1.278-.57.45-.92.45-1.614-.15-1.23-.45-1.6-.726-.574-1.278-.574-.98.192-1.28.574-.45.916-.45 1.6.15 1.23.45 1.614zm3.245.6c-.48.538-1.136.807-1.966.807s-1.488-.27-1.972-.807-.72-1.28-.72-2.215.24-1.677.72-2.215 1.138-.807 1.972-.807 1.5.27 1.97.807.72 1.276.72 2.215-.24 1.674-.725 2.215zm3.063.706h-.932v-5.838h1.132l2.1 4.528h.087l2.096-4.528h1.088v5.838h-.937v-4.154h-.102l-1.847 3.992h-.726l-1.847-3.992h-.103v4.154zm9.065-.716c.48 0 .878-.14 1.192-.417a1.33 1.33 0 0 0 .477-1.045v-.536l-1.57.103c-.44.03-.764.12-.97.276s-.308.38-.308.677.1.524.33.693.504.25.85.25zm-.173.818c-.574 0-1.047-.157-1.42-.47s-.552-.74-.552-1.267c0-.52.184-.928.552-1.224s.894-.464 1.576-.504l1.685-.103v-.53c0-.36-.112-.637-.336-.828s-.553-.288-.986-.288c-.35 0-.64.064-.872.2s-.38.305-.444.536h-.943c.062-.466.302-.84.72-1.126s.946-.428 1.57-.428c.708 0 1.255.17 1.642.514s.58.82.58 1.43v3.997h-.888v-.86h-.087a1.92 1.92 0 0 1-.747.715 2.19 2.19 0 0 1-1.05.25z"/></g><g class="d"><path d="M37.808 317.02v-5.12c0-.52.3-.82.82-.82h10.246c.515 0 .82.3.82.812v10.27a.74.74 0 0 1-.803.803H38.62c-.5 0-.812-.304-.812-.817v-5.13zm1.585 4.363h8.716v-8.716h-8.716v8.716zm3.96-1.586H41.77v-3.17h1.585v3.17zm2.376 0h-1.585v-5.546h1.585v5.546z"/></g><g filter="url(#L)"><rect x="231.927" y="260" width="27.731" height="27.731" rx="8" fill="url(#b)"/></g><g class="S"><path d="M241.566 274.08c-.027.43-.075.78-.146 1.05s-.177.498-.332.68v.08h3.154v-5.014h-2.47l-.206 3.204zm-1.272 2.932v1.433h-1.182V275.9h.518a1.31 1.31 0 0 0 .528-.679c.1-.298.18-.704.2-1.217l.257-4.24h4.908v6.136h.906v2.555h-1.177v-1.433h-4.97z"/><use xlink:href="#h"/></g><rect x="268.081" y="260.081" width="26.731" height="26.731" rx="7.5" class="c"/><g class="R"><path d="M279.015 277.012h-.906v-3.305h-3.983v3.305h-.905v-7.258h.905v3.14h3.983v-3.14h.906v7.258z"/><use xlink:href="#i"/><use xlink:href="#j"/></g><path d="M40.86 278h-1.775v-8.455h5.45v1.517H40.86V278zm7.046-1.254c.453 0 .805-.172 1.055-.516s.375-.835.375-1.464c0-.62-.127-1.106-.38-1.454s-.6-.52-1.05-.52-.805.174-1.055.52-.375.833-.375 1.454c0 .63.123 1.117.37 1.464s.604.516 1.06.516zm2.332.498c-.562.598-1.34.897-2.332.897s-1.772-.3-2.338-.897-.844-1.424-.844-2.478c0-1.047.283-1.87.85-2.467s1.348-.903 2.332-.903 1.76.3 2.326.903.855 1.42.855 2.467c0 1.054-.283 1.88-.85 2.478zm4.298-2.35a7.72 7.72 0 0 1-.17 1.312c-.086.372-.213.703-.38.996a1.68 1.68 0 0 1-.668.656c-.273.145-.604.217-1 .217-.2 0-.393-.025-.545-.076v-1.5a1.54 1.54 0 0 0 .369.041.59.59 0 0 0 .387-.129.84.84 0 0 0 .258-.375 2.57 2.57 0 0 0 .146-.551c.035-.2.06-.435.076-.7l.188-3.24h4.863V278h-1.705v-5.12H54.67l-.135 2.016zm8.107 1.85c.453 0 .805-.172 1.055-.516s.375-.835.375-1.464c0-.62-.127-1.106-.38-1.454s-.6-.52-1.05-.52-.805.174-1.055.52-.375.833-.375 1.454c0 .63.123 1.117.37 1.464s.603.516 1.06.516zm2.332.498c-.562.598-1.34.897-2.332.897s-1.772-.3-2.338-.897-.844-1.424-.844-2.478c0-1.047.283-1.87.85-2.467s1.348-.903 2.332-.903 1.76.3 2.326.903.855 1.42.855 2.467c0 1.054-.283 1.88-.85 2.478zm5-4.582H68.9v1.488h.98c.332 0 .582-.064.75-.193s.258-.318.258-.557a.66.66 0 0 0-.234-.539c-.156-.132-.383-.2-.68-.2zm0 2.514H68.9v1.7h1.16c.348 0 .613-.072.797-.217s.275-.36.275-.638-.1-.487-.3-.627-.486-.217-.86-.217zM67.215 278v-6.463h3.2c.668 0 1.2.145 1.564.434a1.43 1.43 0 0 1 .568 1.195 1.34 1.34 0 0 1-.334.896 1.3 1.3 0 0 1-.826.469v.106c.43.04.777.2 1.043.48a1.4 1.4 0 0 1 .404 1.014 1.65 1.65 0 0 1-.639 1.359c-.422.34-.996.5-1.723.5h-3.258zm9.905-1.254c.453 0 .805-.172 1.055-.516s.375-.835.375-1.464c0-.62-.127-1.106-.38-1.454s-.6-.52-1.05-.52-.805.174-1.055.52-.375.833-.375 1.454c0 .63.123 1.117.37 1.464s.604.516 1.06.516zm2.332.498c-.562.598-1.34.897-2.332.897s-1.772-.3-2.338-.897-.844-1.424-.844-2.478c0-1.047.283-1.87.85-2.467s1.348-.903 2.332-.903 1.76.3 2.326.903.855 1.42.855 2.467c0 1.054-.283 1.88-.85 2.478zm3.946-3.187h.28l1.95-2.52h1.94l-2.478 2.947L87.7 278h-2.033l-1.963-2.678H83.4V278h-1.705v-6.463H83.4v2.52zm9.16-2.625c.82 0 1.465.295 1.934.884s.703 1.407.703 2.45-.232 1.855-.697 2.45-1.1.885-1.9.885c-.46 0-.86-.096-1.2-.288a1.75 1.75 0 0 1-.75-.802h-.105v3.135h-1.705v-8.608H90.5v1.06h.106c.176-.364.438-.65.785-.856a2.28 2.28 0 0 1 1.189-.31zm-.58 5.244c.46 0 .82-.168 1.078-.504s.387-.8.387-1.406-.13-1.06-.393-1.395-.613-.5-1.066-.5a1.29 1.29 0 0 0-1.078.516c-.262.34-.392.805-.392 1.394s.13 1.055.392 1.395.62.5 1.072.5zm5.148 3.674c-.363 0-.58-.006-.65-.018v-1.37a3.25 3.25 0 0 0 .387.012c.324 0 .578-.057.762-.17s.3-.285.38-.528l.06-.234-2.268-6.504h1.88l1.36 4.9h.106l1.36-4.9h1.805l-2.227 6.563c-.273.828-.633 1.4-1.078 1.746s-1.066.504-1.875.504zm5.628-2.35l2.4-3.504-2.268-2.96h1.904l1.752 2.543h.317v-2.543h1.664v2.543h.322l1.752-2.543h1.892l-2.255 2.947L112.62 278h-1.986l-1.78-2.707h-.34V278h-1.664v-2.707h-.34L104.73 278h-1.975zm13.456-5.297c-.394 0-.72.127-.978.38s-.397.6-.428 1.008h2.754c-.02-.43-.15-.768-.393-1.014s-.556-.375-.955-.375zm1.383 3.457h1.588a2.25 2.25 0 0 1-.985 1.453c-.523.352-1.18.528-1.968.528-.985 0-1.752-.293-2.303-.88s-.826-1.4-.826-2.46.277-1.88.832-2.5 1.312-.915 2.273-.915c.953 0 1.696.288 2.227.862s.803 1.375.803 2.402v.522H114.8v.088c.012.48.148.86.4 1.142s.62.416 1.067.416c.336 0 .617-.057.843-.17s.385-.283.475-.498zm3.038 1.84v-6.463h1.705v2.48h2.467v-2.48h1.705V278h-1.705v-2.643h-2.467V278h-1.705zm9.255 0H128.2v-6.463h1.676v3.973h.106l2.5-3.973h1.676V278h-1.676v-4.02h-.106l-2.5 4.02zm8.78-5.297c-.395 0-.72.127-.98.38s-.396.6-.428 1.008h2.754c-.02-.43-.15-.768-.392-1.014s-.557-.375-.955-.375zm1.382 3.457h1.588c-.13.613-.457 1.098-.984 1.453s-1.18.528-1.97.528c-.984 0-1.752-.293-2.303-.88s-.826-1.4-.826-2.46.278-1.88.832-2.5 1.313-.915 2.274-.915c.953 0 1.695.288 2.226.862s.803 1.375.803 2.402v.522h-4.436v.088c.012.48.15.86.4 1.142s.62.416 1.066.416c.336 0 .617-.057.844-.17a.98.98 0 0 0 .474-.498z" class="V"/><path fill="#f0f0f0" d="M25.923 299.197h281.274v.792H25.923z"/><g filter="url(#M)" class="S"><rect x="25.923" y="385.352" width="281.274" height="51.501" rx="10"/></g><g filter="url(#N)"><rect x="231.927" y="397" width="27.731" height="27.731" rx="8" fill="url(#c)"/></g><g class="S"><use xlink:href="#k"/><use xlink:href="#h" y="137.656"/></g><rect x="268.081" y="397.737" width="26.731" height="26.731" rx="7.5" class="c"/><g class="R"><path d="M279.015 414.668h-.906v-3.305h-3.983v3.305h-.905V407.4h.905v3.14h3.983v-3.14h.906v7.258z"/><use xlink:href="#i" y="137.655"/><use xlink:href="#j" y="137.646"/></g><path d="M41.287 411.414c-.03.488-.086.9-.164 1.2s-.2.57-.37.768v.105h3.422v-5.437H41.5l-.223 3.363zM39.84 415v1.67h-1.605v-3.182h.592c.28-.2.48-.467.598-.802s.195-.8.234-1.418l.293-4.723h5.994v6.943H47v3.182h-1.6V415h-5.56zm11.113-5.338H49.88v1.488h.978c.332 0 .582-.064.75-.193s.258-.318.258-.557a.66.66 0 0 0-.234-.539c-.156-.132-.383-.2-.68-.2zm0 2.514H49.88v1.7h1.16c.348 0 .613-.072.797-.217s.275-.36.275-.638-.1-.487-.3-.627-.486-.217-.86-.217zM48.204 415v-6.463h3.2c.668 0 1.2.145 1.565.434s.568.687.568 1.195a1.34 1.34 0 0 1-.334.896 1.3 1.3 0 0 1-.826.469v.106c.43.04.777.2 1.043.48a1.4 1.4 0 0 1 .404 1.014 1.65 1.65 0 0 1-.639 1.359c-.422.34-.996.5-1.723.5h-3.258zm9.905-1.254c.453 0 .805-.172 1.055-.516s.375-.835.375-1.464c0-.62-.127-1.106-.38-1.454s-.6-.52-1.05-.52-.805.174-1.055.52-.375.833-.375 1.454c0 .63.123 1.117.37 1.464s.603.516 1.06.516zm2.332.498c-.562.598-1.34.897-2.332.897s-1.772-.3-2.338-.897-.844-1.424-.844-2.478c0-1.047.283-1.87.85-2.467s1.348-.903 2.332-.903 1.76.3 2.326.903.855 1.42.855 2.467c0 1.054-.283 1.88-.85 2.478zm5.036-4.54c-.395 0-.72.127-.98.38s-.396.6-.428 1.008h2.754c-.02-.43-.15-.768-.392-1.014s-.557-.375-.955-.375zm1.383 3.457h1.588a2.25 2.25 0 0 1-.984 1.453c-.523.352-1.18.528-1.97.528-.984 0-1.752-.293-2.303-.88s-.826-1.4-.826-2.46.277-1.88.832-2.5 1.313-.915 2.273-.915c.953 0 1.695.288 2.227.862s.803 1.375.803 2.402v.522h-4.436v.088c.012.48.148.86.4 1.142s.62.416 1.066.416c.336 0 .617-.057.844-.17s.385-.283.475-.498zM69.9 415v-6.463h1.705v2.48h2.467v-2.48h1.705V415H74.07v-2.643h-2.467V415H69.9zm9.255 0H77.48v-6.463h1.676v3.973h.106l2.5-3.973h1.676V415H81.75v-4.02h-.106l-2.5 4.02zm8.78-5.297c-.394 0-.72.127-.978.38s-.397.6-.428 1.008h2.754c-.02-.43-.15-.768-.393-1.014s-.557-.375-.955-.375zm1.383 3.457h1.588a2.25 2.25 0 0 1-.984 1.453c-.523.352-1.18.528-1.97.528-.984 0-1.752-.293-2.303-.88s-.826-1.4-.826-2.46.277-1.88.832-2.5 1.313-.915 2.273-.915c.953 0 1.695.288 2.227.862s.803 1.375.803 2.402v.522h-4.436v.088c.012.48.148.86.4 1.142s.62.416 1.066.416c.336 0 .617-.057.844-.17s.385-.283.475-.498zM99.442 415v-5.12h-2.408V415H95.33v-6.463h5.818V415h-1.705zm6.203-5.297c-.395 0-.72.127-.98.38s-.396.6-.428 1.008h2.754c-.02-.43-.15-.768-.392-1.014s-.557-.375-.955-.375zm1.382 3.457h1.588c-.13.613-.457 1.098-.984 1.453s-1.18.528-1.97.528c-.984 0-1.752-.293-2.303-.88s-.826-1.4-.826-2.46.278-1.88.832-2.5 1.313-.915 2.274-.915c.953 0 1.695.288 2.226.862s.803 1.375.803 2.402v.522h-4.436v.088c.012.48.15.86.4 1.142s.62.416 1.066.416c.336 0 .617-.057.844-.17s.385-.283.474-.498zm6.77-4.728c.82 0 1.465.295 1.934.884s.703 1.407.703 2.45-.233 1.855-.697 2.45-1.102.885-1.9.885c-.46 0-.86-.096-1.2-.288s-.6-.458-.75-.802h-.105v3.135h-1.705v-8.608h1.652v1.06h.105a1.97 1.97 0 0 1 .786-.856c.348-.206.744-.3 1.2-.3zm-.58 5.244c.46 0 .82-.168 1.078-.504s.387-.8.387-1.406-.13-1.06-.393-1.395-.613-.5-1.066-.5-.813.172-1.078.516-.393.805-.393 1.394.13 1.055.393 1.395.62.5 1.072.5zm7.4-3.973c-.394 0-.72.127-.978.38s-.397.6-.428 1.008h2.754c-.02-.43-.15-.768-.393-1.014s-.556-.375-.955-.375zM122 413.16h1.588c-.13.613-.457 1.098-.984 1.453s-1.18.528-1.97.528c-.985 0-1.752-.293-2.303-.88s-.826-1.4-.826-2.46.277-1.88.832-2.5 1.312-.915 2.273-.915c.954 0 1.696.288 2.227.862s.803 1.375.803 2.402v.522h-4.436v.088c.012.48.15.86.4 1.142.266.277.62.416 1.067.416.336 0 .617-.057.843-.17s.385-.283.475-.498zm7.152.498v-3.785h-1.94l-.146 2.022c-.05.718-.204 1.27-.457 1.658v.105h2.543zm-3.252 3.012h-1.56v-3.012h.498c.406-.226.645-.853.715-1.88l.2-3.24h5.086v5.12h.96v3.012h-1.56V415h-4.35v1.67zm14.43-6.8h-2.765V415h-1.705v-6.463h4.47v1.342zm3.127 2.016c-.028.503-.084.94-.17 1.312s-.213.703-.38.996-.4.508-.668.656-.604.217-1 .217c-.2 0-.393-.025-.545-.076v-1.5a1.55 1.55 0 0 0 .37.04.59.59 0 0 0 .387-.13.86.86 0 0 0 .257-.375c.062-.165.116-.35.147-.55l.076-.7.187-3.24H147V415h-1.705v-5.12H143.6l-.134 2.016zm7.573 1.92c.394 0 .725-.1 1-.334s.4-.498.4-.826v-.474l-1.307.082c-.727.05-1.1.3-1.1.78 0 .238.092.428.276.568s.43.205.732.205zm-.563 1.284c-.625 0-1.134-.178-1.53-.534s-.586-.826-.586-1.412.215-1.04.645-1.37 1.052-.527 1.857-.574l1.565-.094v-.527c0-.27-.094-.477-.282-.62s-.457-.223-.808-.223c-.633 0-1.022.2-1.166.598h-1.57a1.85 1.85 0 0 1 .844-1.418c.512-.352 1.174-.528 1.987-.528.85 0 1.5.192 1.974.575s.703.922.703 1.617v4.4h-1.652v-.844h-.106c-.168.297-.418.53-.75.698s-.707.246-1.125.246zm7.878.04c-.37 0-.716-.04-1.037-.123a3.15 3.15 0 0 1-.879-.375 2.02 2.02 0 0 1-.656-.686 2.4 2.4 0 0 1-.3-1.014h1.64c.148.547.56.82 1.23.82.344 0 .614-.067.8-.2a.66.66 0 0 0 .3-.574c0-.484-.367-.726-1.102-.726h-.896v-1.15h.85c.633 0 .95-.226.95-.68 0-.207-.08-.375-.24-.504s-.392-.2-.7-.2-.566.067-.76.2-.307.316-.346.562h-1.6c.062-.644.328-1.154.797-1.53s1.105-.57 1.9-.57c.84 0 1.486.16 1.94.48a1.56 1.56 0 0 1 .686 1.359c0 .32-.1.594-.27.82s-.408.38-.697.463v.105c.398.102.7.28.902.533s.305.55.305.903c0 .636-.25 1.142-.75 1.517s-1.188.563-2.063.563zm6.578-1.325c.394 0 .724-.1 1-.334s.398-.498.398-.826v-.474l-1.306.082c-.727.05-1.1.3-1.1.78 0 .238.092.428.275.568s.432.205.733.205zm-.563 1.284c-.625 0-1.135-.178-1.53-.534s-.586-.826-.586-1.412.215-1.04.645-1.37 1.052-.527 1.857-.574l1.564-.094v-.527c0-.27-.093-.477-.28-.62s-.457-.223-.808-.223c-.633 0-1.022.2-1.166.598h-1.57a1.85 1.85 0 0 1 .844-1.418c.512-.352 1.174-.528 1.986-.528.852 0 1.5.192 1.975.575s.703.922.703 1.617V415h-1.652v-.844h-.106c-.168.297-.418.53-.75.698s-.707.246-1.125.246zm6.912-.1h-1.606v-6.463h2.2l1.693 4.137h.106l1.7-4.137h2.18V415h-1.606v-4.283h-.1l-1.635 3.92h-1.2l-1.635-3.92h-.105V415zm9.665 0h-1.676v-6.463h1.676v3.973h.105l2.5-3.973h1.676V415h-1.676v-4.02h-.105l-2.5 4.02z" class="V"/><g filter="url(#O)" class="S"><rect x="25.923" y="446.352" width="281.274" height="51.501" rx="10"/></g><g filter="url(#P)"><rect x="231.927" y="458" width="27.731" height="27.731" rx="8" fill="url(#d)"/></g><g class="S"><use xlink:href="#k" y="61"/><use xlink:href="#h" y="198.656"/></g><rect x="268.081" y="458.737" width="26.731" height="26.731" rx="7.5" class="c"/><g class="R"><path d="M279.015 475.668h-.906v-3.305h-3.983v3.305h-.905V468.4h.905v3.14h3.983v-3.14h.906v7.258z"/><use xlink:href="#i" y="198.655"/><use xlink:href="#j" y="198.646"/></g><path d="M42.904 476h-1.77v-6.943h-2.537v-1.512h6.844v1.512h-2.537V476zm7.075-6.568c.82 0 1.465.295 1.934.884s.703 1.407.703 2.45-.232 1.855-.697 2.45-1.102.885-1.9.885c-.46 0-.86-.096-1.2-.288a1.75 1.75 0 0 1-.75-.802h-.105v3.135h-1.705v-8.608H47.9v1.06h.105c.176-.364.438-.65.785-.856s.744-.3 1.19-.3zm-.58 5.244c.46 0 .82-.168 1.078-.504s.387-.81.387-1.406-.13-1.06-.393-1.395-.613-.5-1.066-.5-.812.172-1.078.516-.393.805-.393 1.394.13 1.055.393 1.395.62.5 1.072.5zm7.41-3.973c-.395 0-.72.127-.978.38s-.397.6-.428 1.008h2.754c-.02-.43-.15-.768-.393-1.014s-.557-.375-.955-.375zm1.383 3.457h1.588a2.25 2.25 0 0 1-.984 1.453c-.523.352-1.18.528-1.97.528-.984 0-1.752-.293-2.303-.88s-.826-1.4-.826-2.46.277-1.88.832-2.5 1.313-.915 2.273-.915c.953 0 1.695.288 2.227.862s.803 1.375.803 2.402v.522h-4.436v.088c.012.48.148.86.4 1.142s.62.416 1.066.416c.336 0 .617-.057.844-.17s.385-.283.475-.498zm4.644 1.84H61.23v-6.463h2.21l1.693 4.137h.106l1.7-4.137h2.18V476H67.51v-4.283h-.11l-1.635 3.92h-1.19l-1.635-3.92h-.106V476zm10.855-1.254c.453 0 .805-.172 1.055-.516s.375-.835.375-1.464c0-.62-.127-1.106-.38-1.454s-.6-.52-1.05-.52-.805.174-1.055.52-.375.833-.375 1.454c0 .63.123 1.117.37 1.464s.603.516 1.06.516zm2.332.498c-.562.598-1.34.897-2.332.897s-1.77-.3-2.338-.897-.844-1.424-.844-2.478c0-1.047.283-1.87.85-2.467s1.348-.903 2.332-.903 1.76.3 2.326.903.856 1.42.856 2.467c0 1.054-.283 1.88-.85 2.478zm5.974-5.812c.82 0 1.465.295 1.934.884s.703 1.407.703 2.45-.232 1.855-.697 2.45-1.102.885-1.9.885c-.46 0-.86-.096-1.2-.288a1.75 1.75 0 0 1-.75-.802h-.105v3.135h-1.705v-8.608h1.652v1.06h.106c.176-.364.438-.65.785-.856s.744-.3 1.19-.3zm-.58 5.244c.46 0 .82-.168 1.078-.504s.387-.81.387-1.406-.13-1.06-.393-1.395-.613-.5-1.066-.5-.812.172-1.078.516-.393.805-.393 1.394.13 1.055.393 1.395.62.5 1.072.5z" class="V"/><g class="S"><path d="M47.316 228.268c4.246 0 7.255-2.426 7.837-6.24h-3.677c-.52 1.906-2.055 3.058-4.147 3.058-2.86 0-4.655-2.352-4.655-6.165 0-3.764 1.82-6.13 4.643-6.13 2.055 0 3.677 1.276 4.147 3.244h3.677c-.47-3.8-3.665-6.425-7.824-6.425-5.175 0-8.455 3.565-8.455 9.322 0 5.77 3.256 9.334 8.456 9.334zm13.472-.396l5.274-8.393h.1v8.393h3.54V214.6h-3.54l-5.274 8.295h-.1V214.6h-3.54v13.27h3.54zm14.747 0v-8.876h.087l3.43 8.134h2.5l3.442-8.134h.087v8.876h3.392V214.6h-4.63l-3.466 8.666H80.3l-3.466-8.666h-4.68v13.27h3.392zm23.97 0h3.603V214.6H90.926v13.27h3.603v-10.547h4.977v10.547zm16.802-13.272h-11.513v2.724h3.96v10.547h3.603v-10.547h3.95V214.6zm7.53 13.557c4 0 6.573-2.563 6.573-6.933 0-4.308-2.6-6.908-6.573-6.908s-6.574 2.612-6.574 6.908c0 4.358 2.562 6.933 6.574 6.933zm0-2.76c-1.783 0-2.9-1.498-2.9-4.16 0-2.637 1.152-4.16 2.9-4.16s2.897 1.523 2.897 4.16c0 2.66-1.127 4.16-2.897 4.16zm11.9 2.475v-8.876h.087l3.43 8.134h2.5l3.442-8.134h.086v8.876h3.392V214.6h-4.63l-3.466 8.666h-.087l-3.466-8.666h-4.68v13.27h3.392zm28.02 0h3.602V214.6h-3.602v13.27zm-7.032-6.772c1.3 0 2.154.818 2.154 2.03s-.842 2.042-2.154 2.042h-1.993V221.1h1.993zm-5.596 6.772h6.2c3.132 0 5.138-1.832 5.138-4.716s-2.006-4.717-5.138-4.717h-2.587v-3.84h-3.603v13.27z"/></g><g filter="url(#Q)"><rect x="25.923" y="508.699" width="281.274" height="35.654" rx="10" fill="url(#e)"/></g><g class="S"><path d="M104.764 527.842c-.035.56-.1 1.02-.2 1.375s-.232.65-.434.888v.105h4.124v-6.557h-3.23l-.27 4.2zm-1.664 3.834v1.875h-1.546v-3.34h.678c.32-.206.55-.502.7-.888s.237-.92.276-1.592l.336-5.544h6.42v8.024h1.184v3.34h-1.54v-1.875H103.1zm11.35-1.84c.312.412.752.618 1.322.618s1-.206 1.316-.618c.3-.417.467-1.002.467-1.756s-.156-1.333-.467-1.75-.75-.624-1.316-.624-1 .208-1.322.624-.467 1-.467 1.75.156 1.34.467 1.756zm1.322 1.986c-1.078 0-1.924-.33-2.538-.993s-.92-1.583-.92-2.75c0-1.158.3-2.07.927-2.736s1.463-1.006 2.532-1.006c1.075 0 1.92.333 2.533 1s.927 1.58.927 2.743-.3 2.083-.927 2.75-1.458.993-2.533.993zm8.374-1.368c.574 0 1.02-.197 1.335-.592s.48-.95.48-1.67c0-.7-.16-1.224-.48-1.605s-.76-.572-1.335-.572-1.022.2-1.342.572-.48.916-.48 1.605c0 .72.158 1.276.474 1.67s.77.592 1.348.592zm-2.203-4.4h.118a2.51 2.51 0 0 1 .94-.993c.403-.24.9-.362 1.474-.362.95 0 1.716.312 2.295.934s.868 1.46.868 2.526c0 1.135-.3 2.03-.934 2.683-.618.653-1.464.98-2.54.98-1.126 0-1.994-.362-2.604-1.085s-.908-1.798-.908-3.223c0-1.815.294-3.165.882-4.05s1.558-1.36 2.9-1.414l.85-.033a7.31 7.31 0 0 0 .966-.1l.684-.15.23-.08v1.355c-.036.022-.093.05-.17.085s-.266.086-.573.152-.655.098-1.045.112l-.822.032c-.452.018-.836.086-1.15.204a1.84 1.84 0 0 0-.77.526c-.197.232-.348.5-.454.803a5.21 5.21 0 0 0-.236 1.098zm9.93 4.46c.5 0 .9-.14 1.23-.42s.494-.635.494-1.052v-.572l-1.625.105c-.894.057-1.34.382-1.34.974a.85.85 0 0 0 .342.71c.232.17.532.256.9.256zm-.48 1.283c-.7 0-1.273-.197-1.716-.592s-.664-.916-.664-1.565.234-1.158.703-1.526 1.15-.58 2.026-.632l1.855-.1v-.605c0-.356-.116-.627-.35-.816s-.568-.283-1.006-.283c-.377 0-.688.066-.934.197s-.406.312-.48.553h-1.54c.066-.636.373-1.14.92-1.513s1.256-.565 2.1-.565c.92 0 1.63.212 2.13.638s.756 1.02.756 1.8v4.912h-1.572v-.986h-.112c-.2.346-.5.618-.868.815s-.793.3-1.263.3zm8.9-6.17h-1.394v1.795h1.263c.802 0 1.203-.302 1.203-.907 0-.277-.1-.494-.27-.652s-.448-.236-.803-.236zm-.033 2.867h-1.36v2.04h1.506c.403 0 .712-.088.927-.263s.323-.428.323-.756c0-.68-.465-1.02-1.395-1.02zm-2.972 3.183v-7.195h3.38c.72 0 1.28.165 1.684.494.407.324.6.767.6 1.328 0 .368-.12.7-.36.993s-.533.465-.888.526v.12c.47.048.848.228 1.138.54s.434.68.434 1.118c0 .632-.23 1.136-.7 1.513s-1.087.565-1.88.565H137.3z"/><use xlink:href="#l"/><path d="M159.128 524.48v1.303h-2.216v5.892h-1.63v-5.892h-2.217v-1.303h6.064zm4.367 3.454h-1.2v2.44h1.2c.4 0 .717-.112.954-.335s.362-.52.362-.888-.12-.662-.362-.88-.555-.336-.954-.336zm-2.82 3.742v-7.195h1.63v2.158h1.38c.837 0 1.504.228 2 .684s.75 1.067.75 1.834-.25 1.38-.75 1.835-1.162.684-2 .684h-3.012zm17.255-4.774h-1.552c-.08-.364-.254-.654-.526-.87s-.625-.328-1.06-.328c-.56 0-1 .206-1.315.618s-.467 1-.467 1.736c0 .754.158 1.342.473 1.763s.752.63 1.3.63c.426 0 .774-.1 1.046-.296a1.39 1.39 0 0 0 .54-.855h1.552c-.092.767-.414 1.38-.966 1.835s-1.27.684-2.164.684c-1.083 0-1.927-.33-2.532-.993s-.908-1.585-.908-2.77c0-1.17.303-2.083.908-2.736s1.447-.986 2.525-.986c.904 0 1.63.234 2.177.703s.873 1.086.96 1.862z"/><use xlink:href="#l" x="34.502"/><path d="M189.697 531.676h-1.558v-7.195h2.078l2.13 4.953h.118l2.138-4.953h2.04v7.195h-1.566v-4.893h-.118l-1.986 4.558h-1.17l-1.98-4.558h-.125v4.893zm13.68 0v-5.892h-2.98v5.892h-1.63v-7.195h6.24v7.195h-1.63zm9.247-7.196v1.303h-2.216v5.892h-1.63v-5.892h-2.216v-1.303h6.063zm3.086 5.355c.3.412.752.618 1.322.618s1.008-.206 1.315-.618c.312-.417.467-1.002.467-1.756s-.155-1.333-.467-1.75-.75-.624-1.315-.624-1 .208-1.322.624-.467 1-.467 1.75.156 1.34.467 1.756zm1.322 1.986c-1.08 0-1.925-.33-2.54-.993s-.92-1.583-.92-2.75c0-1.158.3-2.07.927-2.736s1.462-1.006 2.532-1.006 1.918.333 2.532 1 .927 1.58.927 2.743-.3 2.083-.927 2.75-1.458.993-2.532.993zm6.786-.145h-1.558v-7.195h2.078l2.13 4.953h.118l2.138-4.953h2.038v7.195h-1.565v-4.893h-.118l-1.986 4.558h-1.17l-1.98-4.558h-.125v4.893z"/></g><rect x="26.423" y="556.739" width="280.274" height="34.654" rx="9.5" stroke="#dadada"/><g class="V"><path d="M105.145 574.895v-1.053h1.283c.556 0 1.012-.157 1.368-.473a1.57 1.57 0 0 0 .54-1.223c0-.483-.167-.87-.5-1.158s-.796-.434-1.388-.434-1.063.143-1.427.428-.563.673-.6 1.177h-1.15c.06-.825.38-1.473.953-1.947.58-.474 1.34-.7 2.282-.7.9 0 1.62.24 2.2.717a2.26 2.26 0 0 1 .855 1.821c0 .518-.157.98-.473 1.388a2.14 2.14 0 0 1-1.223.79v.106c.622.065 1.13.306 1.52.723.4.412.585.95.585 1.6 0 .78-.33 1.44-.986 1.98s-1.465.802-2.42.802c-1.004 0-1.824-.245-2.46-.736s-.97-1.15-1.013-1.96h1.144a1.62 1.62 0 0 0 .704 1.197c.42.298.958.447 1.6.447.662 0 1.195-.164 1.598-.493a1.56 1.56 0 0 0 .606-1.27c0-.54-.198-.962-.592-1.27s-.947-.46-1.658-.46h-1.335zm8.84 3.453c.584 0 1.066-.17 1.447-.507a1.63 1.63 0 0 0 .58-1.27v-.65l-1.907.125c-.535.035-.928.147-1.177.335s-.375.463-.375.822a1 1 0 0 0 .4.842c.267.206.612.303 1.032.303zm-.2.993c-.697 0-1.272-.2-1.723-.572s-.67-.9-.67-1.54c0-.632.224-1.127.67-1.487s1.085-.563 1.914-.6l2.045-.125v-.645c0-.438-.136-.774-.408-1.006s-.67-.35-1.197-.35c-.425 0-.778.077-1.06.23a1.05 1.05 0 0 0-.54.65h-1.144c.074-.565.366-1.02.875-1.368s1.148-.52 1.907-.52c.86 0 1.523.208 1.993.625s.703.995.703 1.736v4.854h-1.078v-1.046h-.105a2.33 2.33 0 0 1-.908.868 2.66 2.66 0 0 1-1.276.303zm10.178-.125v-6.143H120.5v6.143h-1.13v-7.1h5.735v7.1h-1.13zm4.738-1.586c.364.46.88.7 1.552.7s1.188-.23 1.552-.7.546-1.118.546-1.96-.182-1.493-.546-1.954-.88-.697-1.552-.697-1.188.233-1.552.697-.546 1.112-.546 1.954.182 1.495.546 1.96zm3.94.73c-.584.653-1.38.98-2.388.98s-1.806-.327-2.394-.98-.874-1.555-.874-2.7.3-2.037.874-2.7 1.38-.98 2.394-.98 1.8.327 2.394.98.875 1.55.875 2.7c0 1.135-.294 2.032-.88 2.7zm4.43-2.255l-.13 1.078c-.057.312-.138.603-.244.875-.1.272-.228.496-.38.67a1.5 1.5 0 0 1-.56.4 1.92 1.92 0 0 1-.77.145c-.162 0-.3-.024-.414-.072v-1.04c.105.036.224.053.355.053.333 0 .58-.18.743-.54s.274-.897.323-1.598l.276-3.953h4.637v7.1h-1.132v-6.143h-2.48l-.224 3.032zm6.083 3.1v-7.1h1.13v2.933h3.538v-2.933h1.132v7.1h-1.132v-3.2h-3.538v3.2h-1.13z"/><use xlink:href="#m"/><path d="M164.495 572.126v.947h-2.302v6.143h-1.13v-6.143h-2.302v-.947h5.735zm4.117 3.224h-1.335v2.92h1.335c.465 0 .835-.132 1.1-.395s.42-.623.42-1.065-.14-.796-.42-1.06-.646-.4-1.1-.4zm-2.466 3.867v-7.1h1.13v2.275h1.335c.8 0 1.458.218 1.94.652s.724 1.02.724 1.756-.242 1.322-.724 1.756-1.13.65-1.94.65h-2.466zm12.397-3.112l-.13 1.078a4.92 4.92 0 0 1-.244.875c-.104.272-.228.496-.38.67s-.336.305-.56.4a1.92 1.92 0 0 1-.77.145c-.162 0-.3-.024-.414-.072v-1.04a1.09 1.09 0 0 0 .355.053c.333 0 .58-.18.743-.54s.274-.897.322-1.598l.277-3.953h4.636v7.1h-1.13v-6.143h-2.48l-.224 3.032zM187.46 573c-.565 0-1.03.2-1.394.572s-.568.885-.612 1.512h3.907c-.013-.627-.193-1.13-.54-1.512s-.8-.572-1.362-.572zm1.868 4.38h1.13c-.17.614-.52 1.094-1.045 1.44s-1.17.52-1.94.52c-.982 0-1.76-.33-2.334-.987s-.862-1.554-.862-2.677.3-2 .868-2.676 1.355-1 2.328-1c.956 0 1.708.318 2.256.954s.822 1.506.822 2.6V576h-5.097v.052c.03.702.228 1.26.592 1.67s.853.618 1.454.618c.916 0 1.526-.32 1.828-.96zm8.4 1.836h-1.13v-3.197h-.106c-.54.448-1.157.67-1.854.67-.768 0-1.368-.23-1.802-.7s-.645-1.08-.645-1.848v-2.026h1.13v2.026c0 .473.123.848.37 1.124s.6.408 1.032.408a2.64 2.64 0 0 0 .737-.099 1.84 1.84 0 0 0 .572-.256 3.15 3.15 0 0 0 .349-.29 1.61 1.61 0 0 0 .217-.249v-2.664h1.13v7.1zm5.084-6.216a1.88 1.88 0 0 0-1.395.572c-.365.372-.567.885-.6 1.512h3.906c-.013-.627-.192-1.13-.54-1.512s-.8-.572-1.36-.572zm1.868 4.38h1.13c-.17.614-.52 1.094-1.046 1.44s-1.168.52-1.94.52c-.982 0-1.76-.33-2.335-.987s-.86-1.554-.86-2.677.3-2 .868-2.676 1.354-1 2.328-1c.956 0 1.708.318 2.256.954s.822 1.506.822 2.6V576h-5.097v.052c.03.702.228 1.26.592 1.67s.852.618 1.453.618c.917 0 1.526-.32 1.83-.96zm3.124 1.836v-7.1h1.13v2.933h3.538v-2.933h1.13v7.1h-1.13v-3.2h-3.538v3.2h-1.13z"/><use xlink:href="#m" x="64.651"/><path d="M226.844 573c-.566 0-1.03.2-1.395.572s-.567.885-.61 1.512h3.906c-.013-.627-.193-1.13-.54-1.512s-.8-.572-1.36-.572zm1.867 4.38h1.132c-.17.614-.52 1.094-1.046 1.44s-1.17.52-1.94.52c-.982 0-1.76-.33-2.335-.987s-.862-1.554-.862-2.677.3-2 .87-2.676 1.354-1 2.328-1c.956 0 1.708.318 2.256.954s.822 1.506.822 2.61V576h-5.097v.052c.03.702.228 1.26.592 1.67s.852.618 1.453.618c.916 0 1.526-.32 1.828-.96z"/></g><g filter="url(#R)"><g filter="url(#S)" class="W"><path d="M17.736 581.8h297.12v38.697H17.736V581.8z" fill="#f8f8f8" fill-opacity=".8"/></g><path d="M255 581.735h60v49h-60v-49z" class="S"/><path d="M269.208 617.735h-.696v-2.533h-3.064v2.533h-.697v-5.564h.697v2.406h3.064v-2.406h.696v5.564z" class="R"/><path d="M271.908 617.226c.343 0 .627-.1.852-.297a.95.95 0 0 0 .34-.744v-.382l-1.122.073c-.315.02-.545.087-.692.197s-.22.27-.22.482a.59.59 0 0 0 .236.494c.157.118.36.177.607.177zm-.123.582c-.41 0-.748-.11-1.014-.335a1.13 1.13 0 0 1-.395-.902c0-.37.132-.66.395-.872s.638-.33 1.126-.36l1.203-.073v-.378c0-.257-.08-.454-.24-.6s-.395-.204-.704-.204c-.25 0-.458.045-.623.135s-.27.217-.317.382h-.673a1.12 1.12 0 0 1 .514-.803c.302-.203.676-.304 1.122-.304.506 0 .896.122 1.172.366s.414.584.414 1.018v2.846h-.634v-.613h-.062c-.134.22-.312.39-.534.51s-.472.177-.75.177z" class="R"/><path d="M278.524 614.85h-.673a.94.94 0 0 0-.368-.536c-.185-.142-.42-.212-.708-.212a1.08 1.08 0 0 0-.893.416c-.22.278-.33.652-.33 1.122 0 .478.1.86.332 1.145s.52.425.9.425c.28 0 .515-.063.7-.2a.9.9 0 0 0 .376-.54h.673c-.062.393-.246.713-.553.96s-.704.366-1.192.366c-.585 0-1.05-.195-1.396-.586s-.52-.92-.52-1.58c0-.648.173-1.166.52-1.554s.8-.582 1.392-.582c.488 0 .885.127 1.192.382a1.52 1.52 0 0 1 .557.964z" class="R"/><use xlink:href="#o" class="R"/><path d="M285.4 613.505c.532 0 .956.195 1.273.586s.48.913.48 1.566-.16 1.172-.48 1.565a1.56 1.56 0 0 1-1.273.586 1.67 1.67 0 0 1-.789-.181c-.23-.123-.4-.296-.514-.517h-.062v2.013h-.666v-5.545h.635v.694h.062c.134-.24.318-.427.553-.563s.498-.204.78-.204zm-.158 3.706c.38 0 .68-.138.897-.413s.325-.656.325-1.14-.108-.867-.325-1.142-.512-.412-.893-.412-.676.14-.898.42-.333.655-.333 1.134.1.853.33 1.133.52.42.898.42z" class="R"/><path d="M289.1 616.806c.215.27.52.405.913.405s.7-.135.913-.405.322-.656.322-1.15-.107-.876-.322-1.146-.518-.408-.913-.408-.698.136-.913.408-.32.652-.32 1.146.107.876.32 1.15zm2.318.428c-.343.383-.8.574-1.405.574s-1.062-.2-1.408-.574-.514-.912-.514-1.577.17-1.195.514-1.578.813-.574 1.408-.574 1.066.2 1.4.574.514.9.514 1.578-.173 1.2-.518 1.577z" class="R"/><path d="M293.71 617.735h-.666v-4.157h.666v3.1h.062l2.077-3.1h.666v4.157h-.666v-3.1h-.062l-2.077 3.1zm-.314-6H294c0 .22.066.41.197.57s.306.24.522.24a.65.65 0 0 0 .527-.239.86.86 0 0 0 .201-.571h.603c0 .362-.124.664-.37.906s-.565.36-.96.36-.7-.12-.955-.36-.368-.54-.368-.906z" class="R"/><path d="M298.506 615.317h.182l1.652-1.74h.808l-1.9 1.96 1.985 2.198h-.863l-1.67-1.893h-.182v1.893h-.665v-4.157h.665v1.74z" class="R"/><path d="M302.816 617.735h-.666v-4.157h.666v3.1h.062l2.077-3.1h.666v4.157h-.666v-3.1h-.062l-2.077 3.1z" class="R"/><path d="M280.754 600.562c.385-.925 1.065-1.432 2.126-1.4a2.07 2.07 0 0 1 1.886 1.41h5.717c.284 0 .532.186.588.44.058.263-.073.534-.33.638a.92.92 0 0 1-.337.058h-5.486c-.122 0-.172.032-.217.144-.3.78-1.078 1.275-1.964 1.272-.844-.002-1.616-.512-1.917-1.278-.04-.106-.092-.14-.206-.138h-.822c-.32-.008-.568-.23-.6-.5a.56.56 0 0 1 .484-.617c.154-.02.315-.008.474-.01l.593.002zm2.015 1.414c.496 0 .897-.385.9-.85s-.407-.843-.9-.848c-.493-.003-.9.377-.9.85s.387.848.9.848z" class="R"/><path d="M284.765 593.76a2.01 2.01 0 0 1-.585.888c-1.075.954-2.83.566-3.352-.742-.044-.114-.097-.154-.225-.15l-.78.003c-.35 0-.613-.234-.62-.55-.005-.33.243-.577.6-.585h.85c.086.003.128-.02.16-.103.34-.843 1.246-1.356 2.185-1.24.835.104 1.426.5 1.733 1.268.036.1.1.074.167.074h5.168l.43.003c.354.016.6.266.588.595-.01.3-.27.54-.615.542h-5.53c-.055-.005-.1-.005-.175-.005zm-2.884-.566c0 .473.402.856.892.85s.886-.388.9-.847c.003-.452-.382-.792-.892-.795-.515.003-.9.335-.9.792z" class="R"/><path d="M282.587 596.598l2.758.003c.13 0 .2-.032.24-.15.307-.768 1.084-1.28 1.936-1.276.87.003 1.647.518 1.948 1.3.04.103.092.13.2.127l.808-.003c.357.006.608.237.608.56.002.33-.25.564-.613.57h-.836c-.078 0-.12.013-.153.093-.335.8-.96 1.27-1.87 1.323-.875.054-1.713-.446-2.042-1.297-.04-.098-.086-.122-.187-.122l-5.544.003c-.376 0-.635-.23-.635-.56-.003-.324.248-.566.6-.57h2.783zm5.82.57c.003-.473-.393-.856-.886-.856s-.897.388-.894.853.404.846.886.848c.493.003.89-.374.894-.845z" class="R"/><path d="M196 581.735h59v49h-59v-49z" class="S W"/><path d="M213.053 615.252a4.22 4.22 0 0 1-.116.829 1.37 1.37 0 0 1-.274.547v.047h2.708v-4.315h-2.136l-.182 2.892zm-1.02 2.047v1.1h-.646v-1.723h.414c.193-.103.335-.272.425-.506s.15-.547.174-.933l.213-3.5h3.455v4.94h.696v1.723h-.646v-1.1h-4.085z" class="R"/><path d="M219.363 613.655c-.333 0-.606.112-.82.336s-.334.52-.36.887h2.298c-.007-.368-.113-.664-.317-.887s-.47-.336-.8-.336zm1.1 2.568h.665c-.1.36-.305.642-.615.845s-.687.305-1.14.305c-.578 0-1.036-.193-1.373-.58s-.507-.9-.507-1.57.17-1.18.5-1.57.797-.586 1.37-.586c.562 0 1.005.186 1.327.56s.484.883.484 1.53v.255h-3v.03c.018.4.134.737.348.98s.502.362.855.362c.54 0 .898-.187 1.076-.563z" class="R"/><path d="M224.33 613.07c.53 0 .955.195 1.272.586s.48.913.48 1.566-.16 1.172-.48 1.565a1.56 1.56 0 0 1-1.272.587 1.67 1.67 0 0 1-.79-.182c-.23-.123-.4-.295-.514-.516h-.062v2.013h-.665v-5.546h.634v.694h.062c.134-.24.318-.426.553-.563a1.53 1.53 0 0 1 .782-.204zm-.16 3.706c.382 0 .68-.138.898-.413s.325-.655.325-1.14-.1-.867-.325-1.142-.512-.412-.894-.412-.676.14-.898.42-.332.656-.332 1.134.1.853.328 1.134.52.42.898.42z" class="R"/><path d="M228.873 613.655c-.333 0-.607.112-.82.336s-.334.52-.36.887h2.298c-.008-.368-.114-.664-.318-.887s-.47-.336-.8-.336zm1.098 2.568h.666c-.1.36-.306.642-.615.845s-.688.305-1.142.305c-.577 0-1.035-.193-1.373-.58s-.507-.91-.507-1.57.17-1.18.51-1.57.797-.586 1.37-.586c.563 0 1.005.186 1.327.56s.484.883.484 1.53v.255h-2.998v.03c.018.41.134.737.348.98s.5.362.855.362c.54 0 .897-.187 1.075-.563z" class="R"/><path d="M233.492 613.698h-1.018v1.172h.9c.524 0 .786-.198.786-.594 0-.18-.057-.32-.17-.424s-.28-.154-.507-.154zm-.05 1.727h-.968v1.32h1.095c.256 0 .45-.055.58-.166s.2-.275.2-.486c0-.228-.076-.397-.23-.505s-.376-.162-.68-.162zm-1.633 1.874v-4.157h1.768c.4 0 .695.097.917.3s.333.448.333.775c0 .205-.066.393-.198.563a.81.81 0 0 1-.483.312v.062c.263.036.473.142.63.32a.92.92 0 0 1 .236.64c0 .365-.126.655-.38.87s-.602.324-1.048.324h-1.776z" class="R"/><path d="M236.916 616.37c.214.27.518.405.913.405s.7-.135.913-.405.32-.656.32-1.15-.107-.876-.32-1.145-.52-.4-.913-.4-.7.136-.913.4-.32.65-.32 1.145.107.876.32 1.15zm2.317.428c-.343.383-.8.575-1.404.575s-1.063-.192-1.4-.575-.514-.9-.514-1.577.17-1.194.514-1.577.813-.575 1.4-.575 1.065.192 1.408.575.514.908.514 1.577-.172 1.2-.518 1.577z" class="R"/><path d="M223.638 594.9l-.708.173c-.934.284-1.53.903-1.742 1.844-.206.924.073 1.72.773 2.36.276.253.293.322.1.644l-.303.484c-.115.17-.265.194-.432.073a3.78 3.78 0 0 1-.645-5.483 3.73 3.73 0 0 1 1.46-1.062.25.25 0 0 0 .178-.222c.275-1.847 1.868-3.22 3.75-3.234a3.8 3.8 0 0 1 3.807 3.169c.017.104.062.155.15.204 1.293.723 1.98 1.826 2.04 3.297.073 1.868-1.42 3.6-3.287 3.82-.33.04-.42-.035-.426-.364l-.024-.536c-.01-.277.063-.37.335-.432 1.066-.235 1.746-.868 1.997-1.927.272-1.155-.408-2.383-1.534-2.8-.167-.062-.397-.076-.5-.193s-.04-.34-.052-.512a2.46 2.46 0 0 0-2.033-2.353c-1.348-.276-2.75.723-2.9 2.08-.03.315-.003.637-.003.972z" class="R"/><path d="M225.346 597.718l.3-.74.753-1.82c.105-.252.237-.308.5-.204l.544.225c.265.1.314.225.206.48l-1.3 3.176a1.13 1.13 0 0 0-.08.415l-.003 4.268c0 .308-.08.384-.394.384h-.593c-.26-.003-.352-.1-.352-.356l.004-4.165c0-.152-.046-.256-.154-.36l-1.43-1.366c-.205-.197-.212-.325-.017-.526l.446-.46c.157-.156.3-.16.47-.007l1.014.972c.028.028.056.05.094.083z" class="R"/><path d="M137 581.735h59v49h-59v-49z" class="S W"/><path d="M151.455 615.252a4.22 4.22 0 0 1-.116.829 1.37 1.37 0 0 1-.274.547v.047h2.708v-4.315h-2.136l-.182 2.892zm-1.02 2.047v1.1h-.646v-1.723h.414c.193-.103.335-.272.425-.506s.15-.547.175-.933l.212-3.5h3.455v4.94h.697v1.723h-.647v-1.1h-4.085z" class="V"/><use xlink:href="#p" class="V"/><path d="M162.5 613.655c-.333 0-.606.112-.82.336s-.334.52-.36.887h2.298c-.008-.368-.114-.664-.318-.887s-.47-.336-.8-.336zm1.098 2.568h.666c-.1.36-.306.642-.615.845s-.688.305-1.142.305c-.577 0-1.035-.193-1.373-.58s-.507-.91-.507-1.57.17-1.18.51-1.57.797-.586 1.37-.586c.563 0 1.005.186 1.327.56s.484.883.484 1.53v.255h-2.998v.03c.018.41.134.737.348.98s.5.362.855.362c.54 0 .897-.187 1.075-.563z" class="V"/><path d="M167.12 613.698h-1.018v1.172h.9c.523 0 .785-.198.785-.594 0-.18-.057-.32-.17-.424s-.28-.154-.507-.154zm-.05 1.727h-.968v1.32h1.095c.256 0 .45-.055.58-.166s.2-.275.2-.486c0-.228-.076-.397-.228-.505s-.377-.162-.68-.162zm-1.633 1.874v-4.157h1.768c.4 0 .695.097.917.3s.333.448.333.775c0 .205-.066.393-.198.563a.81.81 0 0 1-.483.312v.062c.263.036.473.142.63.32a.92.92 0 0 1 .236.64c0 .365-.126.655-.38.87s-.602.324-1.048.324h-1.776z" class="V"/><use xlink:href="#p" x="13.68" class="V"/><path d="M175.178 617.3h-.665v-4.157h.665v3.1h.062l2.078-3.1h.665v4.157h-.665v-3.1h-.062l-2.078 3.1z" class="V"/><path d="M179.976 614.88h.182l1.65-1.74h.8l-1.9 1.96 1.985 2.198h-.863l-1.67-1.893h-.182v1.893h-.666v-4.157h.666v1.74z" class="V"/><path d="M161.146 597.174v-4.693c0-.78.326-1.383 1.025-1.774.293-.163.617-.227.95-.23h8.1c.256 0 .443.1.56.332.115.216.057.4-.087.594-.473.612-.45 1.423.03 2.03a.53.53 0 0 1 .098.308l.006 9.5c0 .43-.22.653-.656.653h-8.004c-1.022 0-1.805-.637-1.995-1.622-.022-.117-.025-.238-.025-.358l-.002-4.75zm1.133-3.053v7.743a.82.82 0 0 0 .849.864h7.422c.043 0 .087-.005.14-.008v-8.235c0-.225.027-.204-.2-.204-2.107 0-4.214.01-6.32-.002-.62-.003-1.256.093-1.9-.158zm8.04-2.57l-.055-.008c-2.392 0-4.785-.003-7.177.002-.547.003-.927.53-.767 1.047.112.355.424.572.85.575h7.014c.04 0 .08-.003.134-.008a2.65 2.65 0 0 1 0-1.608z" class="d"/><path d="M166.477 598.897h1.196c.346.002.604.238.607.55s-.25.565-.596.565h-2.433c-.318-.003-.552-.217-.582-.5a.56.56 0 0 1 .424-.59c.057-.014.117-.016.174-.016h1.2z" class="d"/><path d="M166.472 597.942c-.422 0-.843.005-1.264-.003a.56.56 0 0 1-.541-.49c-.033-.257.14-.52.4-.596a.64.64 0 0 1 .174-.024l2.458.002c.4.006.655.35.552.712a.55.55 0 0 1-.533.4c-.4 0-.827-.002-1.245-.002z" class="d"/><path d="M77 581.735h60v49H77v-49z" class="S W"/><path d="M96.41 617.562c-.758 0-1.36-.26-1.803-.782s-.662-1.232-.662-2.13.22-1.607.662-2.13 1.04-.787 1.8-.787c.588 0 1.09.167 1.51.5s.668.77.75 1.308h-.708c-.093-.36-.278-.644-.557-.853s-.6-.316-.994-.316c-.536 0-.962.205-1.277.613s-.468.963-.468 1.663.157 1.253.472 1.662.74.61 1.277.61c.39 0 .722-.092.998-.277a1.31 1.31 0 0 0 .549-.764h.708c-.093.512-.344.92-.754 1.226s-.908.455-1.5.455z" class="R"/><path d="M102.845 613.274v.555h-1.354v3.602h-.666v-3.602H99.47v-.555h3.374z" class="R"/><path d="M105.065 616.922c.343 0 .627-.1.85-.297s.34-.446.34-.744v-.382l-1.122.073c-.315.02-.546.087-.693.197s-.22.27-.22.482a.59.59 0 0 0 .236.494c.157.118.36.177.607.177zm-.124.583c-.4 0-.747-.112-1.013-.336a1.13 1.13 0 0 1-.395-.902c0-.37.132-.66.395-.872s.638-.33 1.126-.36l1.203-.073v-.378c0-.257-.08-.454-.24-.6s-.395-.204-.704-.204c-.25 0-.458.045-.623.135s-.27.217-.317.38h-.673c.043-.33.215-.6.514-.802s.676-.305 1.122-.305c.506 0 .896.123 1.172.367s.414.584.414 1.018v2.846h-.634v-.613h-.062c-.134.22-.312.39-.534.51s-.472.178-.75.178z" class="R"/><use xlink:href="#o" x="-171.238" y="-0.304" class="R"/><path d="M113.592 615.164h-.785v1.712h.785c.273 0 .5-.077.654-.23s.247-.366.247-.625-.082-.467-.247-.62-.38-.235-.654-.235zm-1.45 2.267v-4.157h.666v1.334h.785c.477 0 .858.127 1.14.382s.426.598.426 1.03-.142.775-.426 1.03-.664.38-1.14.38h-1.45z" class="R"/><path d="M116.86 617.43h-.665v-4.157h.665v3.1h.062l2.077-3.1h.666v4.157H119v-3.1h-.06l-2.078 3.1z" class="R"/><path d="M108.916 593.213h-5.24v1.125h5.24v-1.125z" class="R"/><path d="M106.176 595.94h-2.5v1.132h2.5v-1.132z" class="R"/><path d="M105.492 598.663h-1.815v1.128h1.815v-1.128z" class="R"/><path d="M110.508 600.523l-.01-.786-.72.775-.6.6a.18.18 0 0 1-.144.058l-2.63-.002v-.64l-.003-1.987c0-.064.016-.104.067-.155l3.913-3.897c.056-.056.123-.16.123-.264l.002-1.8c-.002-.498-.318-.807-.817-.807h-6.773c-.524 0-.837.312-.837.83v9.482c0 .506.316.82.82.82h6.773c.53 0 .833-.304.836-.83l-.003-1.396zm3.793-5.973c.225.722.062 1.375-.492 1.94l-1.67 1.667-.34.336a.44.44 0 0 0-.144.344l.005 2.98c0 .434-.06.748-.203 1.023a1.79 1.79 0 0 1-1.678 1.05l-6.973.003c-1.048-.005-1.87-.85-1.874-1.918l-.002-2.65v-6.9c0-.95.628-1.716 1.563-1.9.118-.024.25-.034.4-.034l4.098-.003h2.728a1.89 1.89 0 0 1 1.94 1.83l.008.525v.5l.123-.018.157-.024.292-.04c.957-.083 1.8.447 2.07 1.3zm-1.3 1.16a.76.76 0 0 0 .019-1.124.77.77 0 0 0-.553-.24h-.003a.78.78 0 0 0-.56.243l-4.244 4.23c-.035.035-.1.104-.094.184l-.003.01v1.026h.762v-.003c.33-.016.556-.197.735-.38l3.942-3.945z" class="R"/><path d="M18 581.735h59v49H18v-49z" class="S"/><path d="M33.602 617.3h-.7v-5.565h3.312v.632h-2.6v4.933z" class="R"/><path d="M37.645 615.476l-.077.632a2.8 2.8 0 0 1-.143.513 1.25 1.25 0 0 1-.224.394.9.9 0 0 1-.329.235 1.13 1.13 0 0 1-.453.085.63.63 0 0 1-.244-.042v-.6a.65.65 0 0 0 .209.031c.196 0 .342-.105.437-.316s.16-.526.2-.937l.163-2.318H39.9v4.157h-.665v-3.602h-1.46l-.132 1.778z" class="R"/><path d="M42.512 616.79c.343 0 .627-.1.85-.297s.34-.446.34-.744v-.382l-1.122.073c-.315.02-.545.086-.692.197s-.22.27-.22.482a.59.59 0 0 0 .236.494c.157.118.36.177.607.177zm-.124.583c-.4 0-.748-.112-1.014-.336a1.13 1.13 0 0 1-.395-.903c0-.37.13-.66.395-.87s.638-.33 1.126-.36l1.203-.073v-.378c0-.257-.08-.454-.24-.6s-.395-.205-.704-.205c-.25 0-.458.045-.623.135s-.27.218-.317.382h-.673c.044-.33.215-.6.514-.802s.676-.305 1.122-.305c.505 0 .896.122 1.172.367s.414.583.414 1.018v2.846h-.634v-.613h-.062a1.37 1.37 0 0 1-.534.509c-.222.118-.472.178-.75.178z" class="R"/><path d="M47.355 613.698h-1.017v1.172h.9c.524 0 .785-.198.785-.594 0-.18-.057-.32-.17-.424s-.28-.154-.507-.154zm-.05 1.728h-.967v1.32h1.095c.255 0 .45-.055.58-.166s.2-.275.2-.486c0-.23-.076-.397-.228-.505s-.377-.162-.68-.162zm-1.633 1.874v-4.157h1.768c.4 0 .695.096.917.3s.333.45.333.775a.9.9 0 0 1-.197.563.84.84 0 0 1-.484.313v.06a.99.99 0 0 1 .63.32.93.93 0 0 1 .236.64c0 .365-.126.655-.38.87s-.602.324-1.048.324H45.67z" class="R"/><path d="M50.013 617.3v-4.157h.666v1.72h2.08v-1.72h.665v4.157h-.665v-1.882h-2.08v1.882h-.666z" class="R"/><path d="M56.037 616.79c.343 0 .627-.1.85-.297s.34-.446.34-.744v-.382l-1.122.073c-.315.02-.546.086-.693.197s-.22.27-.22.482a.59.59 0 0 0 .236.494c.157.118.36.177.607.177zm-.124.583c-.4 0-.748-.112-1.014-.336a1.13 1.13 0 0 1-.395-.903c0-.37.13-.66.395-.87s.638-.33 1.126-.36l1.203-.073v-.378c0-.257-.08-.454-.24-.6s-.395-.205-.704-.205c-.25 0-.458.045-.623.135s-.27.218-.317.382h-.673c.044-.33.215-.6.514-.802s.676-.305 1.122-.305c.505 0 .896.122 1.172.367s.414.583.414 1.018v2.846h-.634v-.613h-.062a1.37 1.37 0 0 1-.534.509c-.222.118-.472.178-.75.178z" class="R"/><path d="M60.633 615.256h.785v-1.558h-.785c-.276 0-.495.072-.658.216s-.244.338-.244.6c0 .22.082.402.248.544s.383.208.654.208zm.785 2.044v-1.488h-.716L59.64 617.3h-.793L60 615.688a1.32 1.32 0 0 1-.692-.432 1.13 1.13 0 0 1-.252-.737c0-.426.14-.762.422-1.006s.665-.37 1.145-.37h1.45v4.157h-.665z" class="R"/><path d="M41.97 596.267l-.24.2c-.3.233-.668.2-.88-.076s-.172-.644.118-.877l6.058-4.837c.3-.248.568-.256.877-.008l6.013 4.807c.3.244.35.618.13.888-.23.28-.584.302-.897.06l-.187-.137v5.78c0 1.037-.8 1.846-1.85 1.846h-7.268c-1.06 0-1.866-.805-1.866-1.868v-5.5c-.008-.076-.008-.145-.008-.26zm5.494-4.392l-.122.088-4.055 3.26c-.053.042-.095.134-.095.206l-.004 6.633a.6.6 0 0 0 .614.618h1.217v-3.1c.004-.84.65-1.624 1.48-1.735.507-.07 1.026-.042 1.54-.046 1.064-.004 1.862.805 1.862 1.868v3.008h1.156a.61.61 0 0 0 .675-.67l.004-6.557a.27.27 0 0 0-.126-.25l-1.846-1.476-2.3-1.845zm1.217 10.792l-.004-3.05c0-.34-.267-.595-.614-.6a54.59 54.59 0 0 0-1.145 0c-.44 0-.683.248-.683.686v2.783l.008.183 2.438-.004z" class="R"/><path fill="#e6e6e6" d="M17.736 581h297.12v1.004H17.736z"/></g><path d="M17.736 627.14h297.12v20.078H17.736z" class="S"/></g><defs><filter id="D" x="0" y="78.105" width="13.97" height="34.474" filterUnits="userSpaceOnUse" class="T"><feFlood result="A" class="U"/><feColorMatrix in="SourceAlpha" values="0 0 0 0 0 0 0 0 0 0 0 0 0 0 0 0 0 0 127 0"/><feOffset dx="-2"/><feGaussianBlur stdDeviation="2.5"/><feColorMatrix values="0 0 0 0 0 0 0 0 0 0 0 0 0 0 0 0 0 0 0.12 0"/><feBlend in2="A"/><feBlend in="SourceGraphic"/></filter><filter id="E" x="0" y="121.526" width="13.97" height="52.632" filterUnits="userSpaceOnUse" class="T"><feFlood result="A" class="U"/><feColorMatrix in="SourceAlpha" values="0 0 0 0 0 0 0 0 0 0 0 0 0 0 0 0 0 0 127 0"/><feOffset dx="-2"/><feGaussianBlur stdDeviation="2.5"/><feColorMatrix values="0 0 0 0 0 0 0 0 0 0 0 0 0 0 0 0 0 0 0.12 0"/><feBlend in2="A"/><feBlend in="SourceGraphic"/></filter><filter id="F" x="0" y="178.368" width="13.97" height="52.632" filterUnits="userSpaceOnUse" class="T"><feFlood result="A" class="U"/><feColorMatrix in="SourceAlpha" values="0 0 0 0 0 0 0 0 0 0 0 0 0 0 0 0 0 0 127 0"/><feOffset dx="-2"/><feGaussianBlur stdDeviation="2.5"/><feColorMatrix values="0 0 0 0 0 0 0 0 0 0 0 0 0 0 0 0 0 0 0.12 0"/><feBlend in2="A"/><feBlend in="SourceGraphic"/></filter><filter id="G" x="316.824" y="140.474" width="13.176" height="80.263" filterUnits="userSpaceOnUse" class="T"><feFlood result="A" class="U"/><feColorMatrix in="SourceAlpha" values="0 0 0 0 0 0 0 0 0 0 0 0 0 0 0 0 0 0 127 0"/><feOffset dx="-2"/><feGaussianBlur stdDeviation="2.5"/><feColorMatrix values="0 0 0 0 0 0 0 0 0 0 0 0 0 0 0 0 0 0 0.12 0"/><feBlend in2="A"/><feBlend in="SourceGraphic"/></filter><filter id="H" x="218.804" y="3.947" width="102.844" height="654.105" filterUnits="userSpaceOnUse" class="T"><feFlood class="U"/><feBlend in="SourceGraphic"/><feGaussianBlur stdDeviation=".5"/></filter><filter id="I" x="8.558" y=".947" width="256.536" height="660.105" filterUnits="userSpaceOnUse" class="T"><feFlood class="U"/><feBlend in="SourceGraphic"/><feGaussianBlur stdDeviation="2"/></filter><filter id="J" x="10.923" y="237.696" width="311.274" height="156.771" filterUnits="userSpaceOnUse" class="T"><feFlood result="A" class="U"/><feColorMatrix in="SourceAlpha" values="0 0 0 0 0 0 0 0 0 0 0 0 0 0 0 0 0 0 127 0"/><feOffset dy="5"/><feGaussianBlur stdDeviation="7.5"/><feColorMatrix values="0 0 0 0 0.145098 0 0 0 0 0.0235294 0 0 0 0 0.0313726 0 0 0 0.08 0"/><feBlend in2="A"/><feBlend in="SourceGraphic"/></filter><filter id="K" x="33" y="332.851" width="51.993" height="37.731" filterUnits="userSpaceOnUse" class="T"><feFlood result="A" class="U"/><feColorMatrix in="SourceAlpha" values="0 0 0 0 0 0 0 0 0 0 0 0 0 0 0 0 0 0 127 0"/><feOffset dy="3"/><feGaussianBlur stdDeviation="2.5"/><feColorMatrix values="0 0 0 0 1 0 0 0 0 0.419608 0 0 0 0 0 0 0 0 0.3 0"/><feBlend in2="A"/><feBlend in="SourceGraphic"/></filter><filter id="L" x="226.927" y="258" width="37.731" height="37.731" filterUnits="userSpaceOnUse" class="T"><feFlood result="A" class="U"/><feColorMatrix in="SourceAlpha" values="0 0 0 0 0 0 0 0 0 0 0 0 0 0 0 0 0 0 127 0"/><feOffset dy="3"/><feGaussianBlur stdDeviation="2.5"/><feColorMatrix values="0 0 0 0 1 0 0 0 0 0.419608 0 0 0 0 0 0 0 0 0.3 0"/><feBlend in2="A"/><feBlend in="SourceGraphic"/></filter><filter id="M" x="10.923" y="375.352" width="311.274" height="81.501" filterUnits="userSpaceOnUse" class="T"><feFlood result="A" class="U"/><feColorMatrix in="SourceAlpha" values="0 0 0 0 0 0 0 0 0 0 0 0 0 0 0 0 0 0 127 0"/><feOffset dy="5"/><feGaussianBlur stdDeviation="7.5"/><feColorMatrix values="0 0 0 0 0.145098 0 0 0 0 0.0235294 0 0 0 0 0.0313726 0 0 0 0.08 0"/><feBlend in2="A"/><feBlend in="SourceGraphic"/></filter><filter id="N" x="226.927" y="395" width="37.731" height="37.731" filterUnits="userSpaceOnUse" class="T"><feFlood result="A" class="U"/><feColorMatrix in="SourceAlpha" values="0 0 0 0 0 0 0 0 0 0 0 0 0 0 0 0 0 0 127 0"/><feOffset dy="3"/><feGaussianBlur stdDeviation="2.5"/><feColorMatrix values="0 0 0 0 1 0 0 0 0 0.419608 0 0 0 0 0 0 0 0 0.3 0"/><feBlend in2="A"/><feBlend in="SourceGraphic"/></filter><filter id="O" x="10.923" y="436.352" width="311.274" height="81.501" filterUnits="userSpaceOnUse" class="T"><feFlood result="A" class="U"/><feColorMatrix in="SourceAlpha" values="0 0 0 0 0 0 0 0 0 0 0 0 0 0 0 0 0 0 127 0"/><feOffset dy="5"/><feGaussianBlur stdDeviation="7.5"/><feColorMatrix values="0 0 0 0 0.145098 0 0 0 0 0.0235294 0 0 0 0 0.0313726 0 0 0 0.08 0"/><feBlend in2="A"/><feBlend in="SourceGraphic"/></filter><filter id="P" x="226.927" y="456" width="37.731" height="37.731" filterUnits="userSpaceOnUse" class="T"><feFlood result="A" class="U"/><feColorMatrix in="SourceAlpha" values="0 0 0 0 0 0 0 0 0 0 0 0 0 0 0 0 0 0 127 0"/><feOffset dy="3"/><feGaussianBlur stdDeviation="2.5"/><feColorMatrix values="0 0 0 0 1 0 0 0 0 0.419608 0 0 0 0 0 0 0 0 0.3 0"/><feBlend in2="A"/><feBlend in="SourceGraphic"/></filter><filter id="Q" x="20.923" y="506.699" width="291.274" height="45.654" filterUnits="userSpaceOnUse" class="T"><feFlood result="A" class="U"/><feColorMatrix in="SourceAlpha" values="0 0 0 0 0 0 0 0 0 0 0 0 0 0 0 0 0 0 127 0"/><feOffset dy="3"/><feGaussianBlur stdDeviation="2.5"/><feColorMatrix values="0 0 0 0 1 0 0 0 0 0.419608 0 0 0 0 0 0 0 0 0.3 0"/><feBlend in2="A"/><feBlend in="SourceGraphic"/></filter><filter id="R" x="-12.264" y="541" width="357.264" height="109.735" filterUnits="userSpaceOnUse" class="T"><feFlood result="A" class="U"/><feColorMatrix in="SourceAlpha" values="0 0 0 0 0 0 0 0 0 0 0 0 0 0 0 0 0 0 127 0"/><feOffset dy="-10"/><feGaussianBlur stdDeviation="15"/><feColorMatrix values="0 0 0 0 0 0 0 0 0 0 0 0 0 0 0 0 0 0 0.07 0"/><feBlend in2="A"/><feBlend in="SourceGraphic"/></filter><filter id="S" x="-9.446" y="554.607" width="351.485" height="93.063" filterUnits="userSpaceOnUse" class="T"><feFlood class="U"/><feGaussianBlur in="BackgroundImage" stdDeviation="13.591"/><feComposite in2="SourceAlpha" operator="in"/><feBlend in="SourceGraphic"/></filter><linearGradient id="T" x1="325.412" y1="509.421" x2="-236.904" y2="625.569" xlink:href="#n"><stop stop-color="#f3f3f8"/><stop offset=".64" stop-color="#f4f4f4"/></linearGradient><linearGradient id="U" x1="166.603" y1="22.712" x2="166.603" y2="19.159" xlink:href="#n"><stop stop-color="#b4babe"/><stop offset=".845" stop-color="#ced1d4" stop-opacity="0"/></linearGradient><linearGradient id="V" x1="200.747" y1="26.855" x2="200.747" y2="17.974" xlink:href="#n"><stop stop-color="#b4babe"/><stop offset=".845" stop-color="#ced1d4" stop-opacity="0"/></linearGradient><linearGradient id="W" x1="243.228" y1="89.421" x2="442.719" y2="449.909" xlink:href="#n"><stop stop-color="#e8e9ea"/><stop offset=".546" stop-color="#b4b7bb"/><stop offset=".978" stop-color="#b4b7bb" stop-opacity="0"/></linearGradient><linearGradient id="X" x1="117.769" y1="184.553" x2="7.97" y2="213.253" xlink:href="#n"><stop stop-color="#e8e9ea"/><stop offset="1" stop-color="#b4b7bb"/></linearGradient><linearGradient id="Y" x1="7.8" y1="631.224" x2="289.088" y2="31.888" xlink:href="#n"><stop stop-color="#fff"/><stop offset="1" stop-color="#fff"/></linearGradient><linearGradient id="Z" x1="166.56" y1="291.274" x2="166.801" y2="10" xlink:href="#n"><stop stop-color="#250608" stop-opacity=".8"/><stop offset="1" stop-color="#250608" stop-opacity=".3"/></linearGradient><linearGradient id="a" x1="79.993" y1="349.025" x2="38" y2="349.025" xlink:href="#n"><stop stop-color="#ff8900"/><stop offset="1" stop-color="#ff6b00"/></linearGradient><linearGradient id="b" x1="259.658" y1="274.174" x2="231.927" y2="274.174" xlink:href="#n"><stop stop-color="#ff8900"/><stop offset="1" stop-color="#ff6b00"/></linearGradient><linearGradient id="c" x1="259.658" y1="411.174" x2="231.927" y2="411.174" xlink:href="#n"><stop stop-color="#ff8900"/><stop offset="1" stop-color="#ff6b00"/></linearGradient><linearGradient id="d" x1="259.658" y1="472.174" x2="231.927" y2="472.174" xlink:href="#n"><stop stop-color="#ff8900"/><stop offset="1" stop-color="#ff6b00"/></linearGradient><linearGradient id="e" x1="307.197" y1="526.923" x2="25.923" y2="526.923" xlink:href="#n"><stop stop-color="#ff8900"/><stop offset="1" stop-color="#ff6b00"/></linearGradient><path id="f" d="M18.5 281.274c0 5.246 4.253 9.5 9.5 9.5h277.12c5.247 0 9.5-4.254 9.5-9.5V10.5H18.5v270.774z"/><path id="g" d="M66.12 73.755a3.82 3.82 0 0 0 0-7.64 3.82 3.82 0 0 0 0 7.64z"/><path id="h" d="M249.334 276.122c.376 0 .7-.108.94-.322s.378-.486.378-.805v-.438l-1.243.08c-.684.044-1.026.292-1.026.744a.65.65 0 0 0 .262.543c.178.13.407.197.7.197zm-.367.98c-.537 0-.974-.15-1.313-.452s-.508-.7-.508-1.197.18-.885.538-1.167.88-.443 1.55-.483l1.42-.085v-.463c0-.272-.1-.48-.267-.624s-.434-.216-.77-.216c-.3 0-.527.05-.715.15a.7.7 0 0 0-.367.422h-1.177c.05-.486.285-.87.705-1.156s.96-.433 1.614-.433c.704 0 1.247.163 1.63.488s.58.78.58 1.368v3.757h-1.202v-.755h-.086a1.61 1.61 0 0 1-.664.624 2.06 2.06 0 0 1-.965.221z"/><path id="i" d="M282.86 272.26a1.41 1.41 0 0 0-1.067.438c-.278.3-.434.677-.467 1.156h2.987c-.01-.48-.147-.865-.412-1.156s-.612-.438-1.04-.438zm1.428 3.35h.865a1.88 1.88 0 0 1-.8 1.101c-.4.265-.893.397-1.483.397-.75 0-1.347-.25-1.786-.754s-.66-1.2-.66-2.047.222-1.537.664-2.047 1.036-.764 1.78-.764c.73 0 1.306.243 1.725.73s.628 1.152.628 1.996v.332h-3.897v.04c.023.536.174.962.452 1.277s.652.473 1.112.473c.7 0 1.167-.245 1.398-.734z"/><path id="j" d="M290.245 271.6v.724h-1.76v4.698h-.865v-4.698h-1.76v-.724h4.385z"/><path id="k" d="M241.566 411.736c-.027.43-.075.78-.146 1.05s-.177.498-.332.68v.08h3.154v-5.014h-2.47l-.206 3.204zm-1.272 2.932v1.433h-1.182v-2.555h.518a1.31 1.31 0 0 0 .528-.679c.1-.298.18-.704.2-1.217l.257-4.24h4.908v6.136h.906v2.555h-1.177v-1.433h-4.97z"/><path id="l" d="M146.724 531.676h-1.6v-7.195h1.6v4.762h.112l3.065-4.762h1.6v7.195h-1.6v-4.794h-.112l-3.065 4.794z"/><path id="m" d="M152.334 579.216h-1.13v-7.1h1.13v5.288h.105l3.532-5.288h1.13v7.1h-1.13v-5.288h-.105l-3.532 5.288z"/><linearGradient id="n" gradientUnits="userSpaceOnUse"/><path id="o" d="M282.408 613.578v.555h-1.354v3.602h-.665v-3.602h-1.354v-.555h3.373z"/><path id="p" d="M156.098 617.3v-4.157h.665v1.72h2.082v-1.72h.665v4.157h-.665v-1.88h-2.082v1.88h-.665z"/></defs></svg>