<svg xmlns="http://www.w3.org/2000/svg" xmlns:xlink="http://www.w3.org/1999/xlink" width="330" height="662" fill="none" xmlns:v="https://vecta.io/nano"><style><![CDATA[.B{fill:#878787}.C{fill:#fff}.D{color-interpolation-filters:sRGB}.E{flood-opacity:0}.F{stroke-miterlimit:10}.G{fill:#250608}.H{fill-rule:evenodd}.I{stroke-width:2}.J{stroke-linejoin:round}.K{fill:#face24}.L{fill:#b6f2d1}.M{fill:#893a45}.N{fill:#f6bfb3}.O{fill:#f0a895}.P{stroke-linecap:round}.Q{fill:#c4c8cc}.R{fill:#fcefc0}.S{fill:#accded}.T{fill:#f85314}.U{stroke:#056b63}.V{fill:#ff6b00}]]></style><g filter="url(#C)" class="Q"><path d="M7 86.083a2.98 2.98 0 0 1 2.978-2.978c.548 0 .993.444.993.993v22.488c0 .55-.444.993-.993.993A2.98 2.98 0 0 1 7 104.601V86.083z"/></g><g filter="url(#D)" class="Q"><path d="M7 128.895c0-1.308 1.067-2.37 2.382-2.37h.794c.438 0 .794.354.794.8v41.052c0 .436-.356.8-.794.8h-.794c-1.316 0-2.382-1.06-2.382-2.368v-37.895z"/></g><g filter="url(#E)" class="Q"><path d="M7 185.737c0-1.308 1.067-2.37 2.382-2.37h.794c.438 0 .794.354.794.8v41.053a.79.79 0 0 1-.794.789h-.794C8.067 226 7 224.94 7 223.632v-37.895z"/></g><g filter="url(#F)"><path d="M323.824 146.263a.79.79 0 0 1 .794-.789c1.315 0 2.382 1.06 2.382 2.368v65.526c0 1.308-1.067 2.37-2.382 2.37a.79.79 0 0 1-.794-.79v-68.684z" fill="#e0e0e2"/></g><path d="M279.357 1H54.643C29.208 1 8.588 21.5 8.588 46.8V615.21c0 25.288 20.62 45.79 46.055 45.79h224.714c25.435 0 46.055-20.5 46.055-45.79V46.8c0-25.29-20.62-45.79-46.055-45.79zM18.117 46.8c0-20.057 16.353-36.316 36.526-36.316h23.094c2.736.957 4.698 3.55 4.698 6.598 0 9.655 7.872 17.48 17.583 17.48H233.19c9.71 0 17.583-7.826 17.583-17.48 0-3.048 1.96-5.64 4.697-6.598h23.888c20.173 0 36.526 16.26 36.526 36.316V615.21c0 20.056-16.353 36.315-36.526 36.315H54.643c-20.173 0-36.526-16.26-36.526-36.315V46.8z" fill="url(#N)" class="H"/><g fill="#dce0e3"><rect x="149.634" y="18.869" width="33.938" height="2.158" rx="1.079" stroke="url(#O)"/><path d="M204.217 19.948a3.46 3.46 0 0 1-6.94 0 3.46 3.46 0 0 1 6.94 0z" stroke="url(#P)"/></g><g opacity=".6" filter="url(#G)" class="H"><path d="M276.975 6.526c23.243 0 42.085 18.733 42.085 41.842V613.63c0 23.11-18.842 41.843-42.085 41.843h-57.17v1.578h57.17c24.12 0 43.673-19.44 43.673-43.42V48.368c0-23.98-19.553-43.42-43.673-43.42h-21.542v1.58h21.542z" fill="url(#Q)"/></g><g opacity=".9" filter="url(#H)" class="H"><path d="M56.23 6.526c-23.242 0-42.084 18.733-42.084 41.842V613.63c0 23.11 18.842 41.843 42.084 41.843h204.863v1.578H56.23c-24.12 0-43.672-19.44-43.672-43.42V48.368c0-23.98 19.553-43.42 43.672-43.42h21.542v1.58H56.23z" fill="url(#R)"/></g><mask id="A" mask-type="alpha" maskUnits="userSpaceOnUse" x="18" y="10" width="298" height="642"><path d="M18.166 44.88l-.05 1.9V615.21c0 20.056 16.353 36.315 36.526 36.315h224.714c20.173 0 36.526-16.26 36.526-36.315V46.555c-.127-19.95-16.432-36.08-36.526-36.08H255.47c-2.736.957-4.697 3.55-4.697 6.598 0 9.655-7.872 17.48-17.583 17.48H100.017c-9.71 0-17.583-7.826-17.583-17.48 0-3.048-1.96-5.64-4.698-6.598H54.643c-9.102 0-17.426 3.3-23.82 8.785-2.464 2.11-4.64 4.54-6.467 7.226a35.98 35.98 0 0 0-6.189 18.395z" fill="#000" class="H"/></mask><g mask="url(#A)"><path d="M18 10H324V653H18V10Z" fill="url(#S)"/><g class="C"><path d="M18 10h297.12v528.477H18z"/><use xlink:href="#V" stroke="#f0f0f0"/></g><mask id="B" mask-type="alpha" maskUnits="userSpaceOnUse" x="18" y="10" width="298" height="282"><use xlink:href="#V" stroke="#f0f0f0" class="C"/></mask><g mask="url(#B)"><path d="M319.777-31.176H21.44V303.07h298.336V-31.176z" fill="#33ceb5"/><path d="M204.936 90.99c17.076-23.612 19.293-51.16 4.953-61.53s-39.807.363-56.883 23.975-19.293 51.16-4.953 61.53 39.808-.363 56.883-23.975z" class="R"/><path d="M61.058 45.704c16.22-8.57 17.916-37.2 3.785-63.942S26.108-59.712 9.887-51.14-8.03-13.942 6.102 12.8s38.736 41.474 54.957 32.903z" class="K"/><path d="M293.64.603c12.52-21.44 12.126-44.98-.883-52.577S259.05-48.35 246.53-26.9s-12.126 44.98.883 52.577S281.118 22.043 293.64.603z" class="C"/><path d="M352.437 197.835c16.483-6.945 17.912-40.897 3.19-75.832s-40.017-57.626-56.5-50.68-17.912 40.897-3.19 75.833 40.017 57.625 56.5 50.68z" class="L"/><path d="M86.395 191.713c14.856-16.442 4.095-50.375-24.036-75.79s-62.977-32.7-77.833-16.248-4.095 50.376 24.036 75.79 62.977 32.69 77.833 16.248z" class="C"/><path d="M64.8 110.948c6.446 0 11.67-5.225 11.67-11.67s-5.225-11.67-11.67-11.67-11.67 5.225-11.67 11.67 5.225 11.67 11.67 11.67z" stroke="#fff" stroke-width="3" class="F"/><g class="R"><path d="M326.544-4.795H265.84c-2.2 0-3.936 1.796-3.936 3.936v82.32c0 2.2 1.795 3.936 3.936 3.936h60.703c2.2 0 3.937-1.796 3.937-3.936V-.86c0-2.2-1.796-3.936-3.937-3.936z"/><g stroke="#face24" class="F I J"><path d="M286.628 59.085h-14.364v16.022h14.364V59.085z"/><path d="M286.628 43.063h-14.364v16.022h14.364V43.063z"/><path d="M286.628 27.04h-14.364v16.022h14.364V27.04zm14.295 32.045H286.56v16.022h14.364V59.085z"/><path d="M300.923 43.063H286.56v16.022h14.364V43.063z"/><path d="M300.923 27.04H286.56v16.022h14.364V27.04zm14.365 32.045h-14.365v16.022h14.365V59.085z"/><path d="M315.288 43.063h-14.365v16.022h14.365V43.063z"/><path d="M315.288 27.04h-14.365v16.022h14.365V27.04z"/><path d="M315.288 11.02h-14.365v16.02h14.365V11.02zm14.364 48.065h-14.364v16.022h14.364V59.085z"/><path d="M329.652 43.063h-14.364v16.022h14.364V43.063z"/><path d="M329.652 27.04h-14.364v16.022h14.364V27.04z"/><path d="M329.652 11.02h-14.364V27.04h14.364V11.02z"/></g><path d="M320.605 154.732H212.182v149.996h98.4l10.013-149.996z"/></g><path d="M315.22 155.077c5.317-2.28 11.256 1.588 11.256 7.39V311.91h-27.97l-3.798-124.583c-.414-13.88 7.735-26.726 20.51-32.25z" class="K"/><path d="M268.604 140.23c0 15.953 13.81 21.616 20.855 19.337-7.25-4.144-5.455-11.395-2.624-15.815 3.73-5.73 10.91-11.325 11.188-21.132.552-17.403-17.334-24.447-19.337-33.355 3.246 1.796 7.182 3.798 11.67 9.806-.138-8.425-4.765-12.43-10.497-19.89s-4.765-13.743-7.734-24.86-17.75-15.193-25.483-6.837c0 0 7.39 10.3 2.14 23.55-5.318 13.26-3.246 18.094 3.038 28.038 7.804 12.293-.276 23.756-.276 23.756" fill="#9e5561"/><path d="M268.604 140.23c0 15.953 13.81 21.616 20.855 19.337-7.25-4.144-5.455-11.395-2.624-15.815 3.73-5.732 10.91-11.325 11.188-21.132.552-17.403-17.334-24.447-19.337-33.355 3.246 1.796 7.182 3.798 11.67 9.806-.138-8.425-4.765-12.43-10.497-19.89s-4.765-13.743-7.734-24.86-17.75-15.193-25.483-6.837c0 0 7.39 10.3 2.14 23.55-5.318 13.26-3.246 18.094 3.038 28.038 7.804 12.293-.276 23.756-.276 23.756" stroke="#9e5561" class="F"/><path d="M248.853 71.1c-5.318 13.26-3.246 18.094 3.038 28.038 3.8 6.008 3.8 11.878 2.832 16.23 5.04-1.174 9.047-5.387 7.804-16.23-1.313-12.085 6.077-17.54 5.455-27.97-.552-9.323-9.047-15.538-17.886-15.262.967 4.075 1.105 9.323-1.243 15.193z" class="M"/><path d="M182.28 136.638l-19.613 30.317c1.52-15.262 1.865-30.593 3.315-37.36 2.624-12.223-10.014-1.45-10.014-1.45s-22.444 48.756-22.444 74.584c0 15.538 11.878 12.223 16.78 11.05 11.12-2.693 23.964-19.405 43.853-52.554-.07 0 5.663-51.38-11.878-24.585z" class="N"/><g class="O"><path d="M184.835 148.516c-17 26.38-15.538 49.792-6.284 37.292 9.6-12.983 15.538-24.585 15.538-24.585m-38.397 37.983c.138-1.45.76-2.693 1.174-4.005.207-.622.414-1.313.552-2.003.208-.622.346-1.312.553-2.003l1.795-8 1.313-8.15.62-4.074c.207-1.38.345-2.763.898-4.075h.07c.276 1.45.138 2.763 0 4.144l-.414 4.143c-.277 2.763-.76 5.525-1.244 8.218l-1.933 8.15-1.38 3.937c-.553 1.312-1.036 2.624-2.003 3.66v.07z"/></g><path d="M274 129.387s-15.124-12.707-32.18-16.574c-8.564-1.934-20.925 3.384-25.483 3.522-16.574.7-25.966 1.312-43.99 35.496 0 0 7.044-1.52 14.572 5.8-2.003 11.395-.277 24.654 11.118 34.737 0 0 9.46 30.94 12.086 44.474s61.117 17.403 62.36-2.624 3.936-70.993 1.52-104.832z" fill="#056b63"/><g fill="#035450"><path d="M242.292 166.955c-32.458 18.44-25.345 30.8-19.958 47.996 7.804 24.724 45.924 26.864 48.203-13.604 1.658-29.765 4.35-58.632-2.2-60.013m-81.36 32.182c1.38 6.7 4.696 13.26 11.05 18.922 8.218-7.182 1.243-21.34-11.05-18.922z"/><path d="M191.534 143.475c.138.76-.207 1.312-.346 1.865l-.62 1.726-1.174 3.522-1.105 3.522-.553 1.796c-.207.62-.276 1.174-.828 1.726h-.07c-.346-.7-.138-1.312-.07-1.933s.207-1.243.345-1.865l.967-3.66 1.38-3.522.83-1.658c.345-.552.552-1.174 1.243-1.52z"/></g><path d="M195.608 112.606c-.07 4.42-1.38 9.53-3.936 14.295-4.35 8.218-13.053 13.2-22.306 13.2s-17.956-4.972-22.307-13.2c-2.486-4.696-3.867-9.876-3.936-14.295 0-2.348 1.934-4.282 4.282-4.282h43.852c2.486 0 4.42 1.934 4.35 4.282z" class="S"/><path d="M191.74 126.9c2.417-4.49 3.73-9.392 3.867-13.605-8.632-1.657-18.232.76-25.62 7.32-5.456 4.835-8.84 11.12-10.014 17.61 2.97 1.174 6.147 1.795 9.462 1.795 9.253.07 17.955-4.903 22.306-13.12z" fill="#85a9ca"/><path d="M248.37 141.265c-1.174 6.354-10.98 28.314-16.988 41.436-10.014-27.693-26.588-60.013-32.94-69.336-5.594-8.218-7.666-9.392-9.116-7.803-.898.966 3.453 11.67 3.453 11.67s-3.04 1.588-8.84 3.176c-5.18 1.382-10.91 3.177-13.052 4.144-2.28.967-1.727 3.108.414 2.83a118.3 118.3 0 0 0 12.293-2.21s-6.285 3.246-10.3 5.94c-2.762 1.864-2.417 5.87 1.52 3.73-.138.07-.276.207-.414.276-2.832 1.934-2.417 5.94 1.657 3.66.277-.138.553-.276.83-.483-.414 1.38.553 2.486 3.384 1.52 3.384-1.174 9.392-2.97 15.538-5.318a560.9 560.9 0 0 0 6.561 31.008c4.42 24.792 10.013 54.764 21.477 55.8 18.923 1.657 33.84-29.558 47.03-66.297 8.977-25.068 13.466-44.198-11.602-42.47-6.078.414-10.083.552-12.776.483" class="N"/><g class="O"><path d="M174.96 134.774c.277-.7.83-.898 1.313-1.243s.966-.622 1.45-.898c.967-.622 2.003-1.105 3.038-1.658l3.108-1.45 1.588-.62c.553-.207 1.036-.484 1.727-.346l.07.07c-.345.622-.83.83-1.38 1.174l-1.52.83-3.038 1.6-3.108 1.52c-.552.207-1.036.483-1.588.7s-1.036.553-1.727.415l.07-.07zm1.173 4.006c.277-.7.83-.898 1.313-1.243s.966-.62 1.45-.898c.967-.62 2.003-1.105 3.038-1.657l3.108-1.45 1.6-.622c.552-.207 1.035-.483 1.726-.345l.07.07c-.345.62-.83.83-1.38 1.174l-1.52.83-3.04 1.588-3.108 1.52c-.552.207-1.036.484-1.588.7s-1.036.552-1.727.414l.07-.07zm12.087-1.52l7.665-2.763s1.6 6.285 3.453 15.124c4.006-2.486 4.213-13.742 1.865-16.988-3.868-5.387-13.26-1.727-12.983 4.627z"/></g><g class="N"><path d="M148.303 120.478c.414-2.07-1.52-2.9-3.453-3.315-1.865-.345-3.73-.207-3.73 1.934.07 4.35 6.768 3.59 7.183 1.38z"/><path d="M150.305 123.38c-.345-2.072-2.486-2.14-4.42-1.796s-3.59 1.105-2.763 3.177c1.59 3.936 7.597.83 7.182-1.38z"/><path d="M151.272 128.558c.276-2.07-.83-3.245-2.762-2.9s-3.315 1.036-2.763 3.177c.76 3.038 5.25 1.933 5.525-.277z"/></g><path d="M248.37 141.265c-.552 2.97-2.97 9.392-6.077 16.713 11.257 1.174 19.268 6.49 23.895 11.602 1.864-4.696 3.66-9.53 5.455-14.503 8.978-25.068 12.776-44.198-12.292-42.47-15.193 1.036-17.54.207-17.54.207" fill="#056b63"/><g fill="#035450"><path d="M232.693 125.036c25.966-1.036 32.25-12.43 25.068-12.223l-.138-.07c-11.602.76-14.917.276-15.676.138-.07 0-.138 0-.207-.07-8.564-1.934-20.925 3.384-25.483 3.522-2.832.138-5.387.207-7.873.483 1.657 4.213 10.842 8.702 24.3 8.218zm15.677 16.23c.208.83-.07 1.52-.276 2.28l-.62 2.14-1.382 4.213-1.588 4.143-.898 2.003c-.345.7-.552 1.38-1.243 1.864l-.07-.07c-.138-.828.207-1.52.415-2.2l.7-2.14 1.45-4.213 1.52-4.144.828-2.07c.277-.7.484-1.38 1.105-2.003l.07.207z"/></g><path d="M252.963 56.862c1.598-1.11.954-4.802-1.438-8.25s-5.627-5.34-7.225-4.232-.954 4.802 1.438 8.25 5.627 5.34 7.225 4.232z" class="L"/><use xlink:href="#W" fill="#9e5561"/><use xlink:href="#W" stroke="#9e5561" class="F"/><g class="M"><path d="M194.158 66.198c-9.53 1.934-10.843 15.814-.553 19.9s9.807-17.886 9.807-17.886l-9.254-2.003zm18.508-2.278c13.88-13.2 32.25-5.525 21.615 12.293s-24.654-3.384-24.654-3.384l3.04-8.9z"/></g><path d="M222.748 75.383c-1.312-2.555-1.864-9.6-1.105-14.78-.552 5.663 4.973 17.127 7.32 18.44s2.002-4.834 6.008-4.834c3.867 0 4.903 2.348 4.903 5.732 0 3.108-3.66 7.804-9.392 7.25 0 0 1.588 7.735 6.906 9.876 0 0 1.036 11.74 4.42 15.815 0 0 .897 8.15-6.147 16.988-8.01 10.083-18.853 6.63-17.817 2.28 1.174-5.524-6.284-26.45-6.422-29.074-1.796.69-3.8 1.105-6.01 1.036-10.98-.138-10.704-19.267-11.256-37.913 0 0 14.157 0 18.99-16.712-.76 13.536 6.906 24.378 9.6 25.897z" class="N"/><g class="O"><path d="M199.9 87.537c3.315 0 .7-3.867-1.036-2.762s-.7 2.762 1.036 2.762zm3.788 8.91a1.312 1.312 0 1 0 0-2.624 1.312 1.312 0 1 0 0 2.624z"/></g><path d="M208.384 78.697c.608-.05 1.044-.77.974-1.607s-.62-1.472-1.23-1.42-1.044.77-.974 1.607.62 1.472 1.23 1.42z" fill="#000203"/><path d="M206.52 69.582c.208-.483.484-.483.76-.62.276-.07.622-.138.898-.138.62-.07 1.174 0 1.795.138s1.174.345 1.658.69c.276.138.483.345.7.622.208.207.484.483.277.967l-.07.07c-.553.07-.622-.138-.898-.207-.207-.138-.484-.207-.69-.276a10.93 10.93 0 0 0-1.381-.483c-.483-.138-.967-.207-1.52-.276-.276 0-.484-.07-.76-.07-.276-.07-.483.07-.83-.345l.07-.07z" class="M"/><path d="M197.262 78.214c.608-.05 1.044-.77.973-1.607s-.62-1.472-1.228-1.42-1.044.77-.974 1.607.62 1.472 1.23 1.42z" fill="#000203"/><path d="M199.9 90.92c.276-.07.345-.138.552-.138.138 0 .276 0 .415.07h.828l1.727-.07 1.657-.207c.276-.07.553-.07.83-.207.276-.07.483-.207.967 0l.07.07c0 .552-.346.69-.622.83-.276.207-.552.345-.898.483-.62.276-1.312.345-1.933.414s-1.312 0-1.934-.07c-.345-.07-.62-.138-.967-.276-.138-.07-.345-.138-.483-.207-.138-.207-.276-.345-.207-.69z" class="T"/><path d="M191.257 71.723c-.07-.276 0-.414 0-.552.07-.138.208-.207.277-.345.207-.207.414-.414.7-.552.484-.345 1.036-.553 1.59-.69s1.105-.276 1.657-.276c.276 0 .553 0 .83.07s.62 0 .83.483v.07c-.346.414-.553.345-.76.414l-.76.138-1.45.345a10.97 10.97 0 0 0-1.381.484c-.207.07-.415.207-.69.276-.138.138-.276.345-.83.138z" class="M"/><g class="O"><path d="M217.914 98.24c-1.795 1.727-4.074 3.8-6.56 4.765.07 1.243 1.726 6.354 3.315 12.086 9.875-7.804 5.8-19.337 3.245-16.85zm14.986-15.4c.76-1.934 2.003-4.903 2.486-4.903.415 0 .83 2.28-.483 4.144-1.243 1.727-2.693 2.417-2.003.76z"/></g><path d="M-1.003 227.382c3.798-7.666 11.602-12.5 20.096-12.5h103.243c-8.494 0-16.298 4.834-20.096 12.5l-65.468 132.1 7.458 3.73H-59.013l-7.458-3.73 65.468-132.1z" class="S"/><path d="M111.77 217.576H8.527c8.08 37.084 43.507 53.244 68.714 60.08l24.93-50.275c2.14-4.282 5.525-7.666 9.6-9.806z" fill="#85a9ca"/><path d="M177.308 250.655h-65.26c-7.666 0-14.572 4.834-17.196 12.085-6.146 17.127-16.85 46.477-17.54 46.477-1.036 0 125.826 0 125.826 0" class="T"/><g fill="#f87a26"><path d="M174.545 264.33c-52.278-2.486-71.82-13.674-58.286-13.674h53.176"/><path d="M223.715 250.655h-60.9c-10.704 0-20.718 5.317-26.726 14.157l-31.008 44.405c-1.035 0 144.54 0 144.54 0"/></g><g class="T"><path d="M155.76 309.217c1.174-27.693 30.87-48.4 56.698-32.043s23.825 34.4 23.825 34.4m-73.478-60.84c-.552.276-1.036.345-1.588.414l-1.6.207-1.588.277-1.52.345c-2.072.483-4.075 1.105-6.008 1.934s-3.8 1.795-5.594 2.97l-1.312.898-1.312.967-1.243.967c-.415.345-.83.62-1.382.828l-.07-.07c.207-.552.553-.967.898-1.38s.76-.76 1.174-1.174l1.243-1.105 1.312-.967c1.796-1.312 3.73-2.348 5.732-3.176s4.144-1.52 6.285-1.865l1.657-.207 1.657-.138 1.658-.07c.552.07 1.105.138 1.657.345h-.07z"/></g><path d="M258.66 359.492l-65.468-132.1c-3.798-7.666-11.602-12.5-20.096-12.5H1.137v8.356H173.51c7.527 0 9.806 2.9 12.085 7.528L251.2 363.152l7.458-3.66z" class="S"/><path d="M100.1 150.036H38.913c-1.865.414-2.97 2.348-2.417 4.212l17.886 56.56c.76 2.486 3.108 4.212 5.732 4.212h61.6L100.1 150.036z" class="K"/><path d="M183.246 208.39h-61.53l-17.748-55.938c-.553-1.658-2.2-2.763-3.868-2.348-1.864.414-2.97 2.348-2.417 4.212l17.886 56.56c.76 2.486 3.108 4.213 5.732 4.213h62.085c1.933 0 3.453-1.658 3.245-3.592-.138-1.864-1.657-3.107-3.384-3.107z" class="C"/><path d="M110.596 210.877H58.042" stroke="#fcefc0" class="F I"/><path d="M75.03 188.845c2-.487 2.85-4.066 1.895-7.994s-3.35-6.72-5.353-6.232-2.85 4.065-1.895 7.994 3.35 6.718 5.353 6.232z" class="R"/><path d="M296.434 227.382c-3.798-7.666-11.6-12.5-20.096-12.5H173.095c8.494 0 16.298 4.834 20.096 12.5l65.468 132.1-7.458 3.73h103.243l7.46-3.73-65.47-132.1z" class="C"/><path d="M97.337 28.284h-88.8v84.53h88.8c2.2 0 3.936-1.796 3.936-3.936V32.22a3.89 3.89 0 0 0-3.936-3.936z" class="L"/><g class="F I J P U"><path d="M43.747 46.24h14.088M43.747 63.574h14.088M43.747 80.977h14.088m-.76 17.323h33.77m-47.098 0h5.318"/></g><path d="M33.388 50.314c2.25 0 4.075-1.824 4.075-4.075s-1.824-4.075-4.075-4.075S29.314 44 29.314 46.24s1.824 4.075 4.074 4.075z" class="C"/><path d="M28.347 41.2l5.04 5.04 7.666-7.596" class="F I J P U"/><g class="C"><path d="M33.388 67.648c2.25 0 4.075-1.824 4.075-4.075S35.638 59.5 33.388 59.5s-4.074 1.824-4.074 4.075 1.824 4.075 4.074 4.075z"/><use xlink:href="#X"/></g><path d="M28.347 75.866l5.04 5.1 7.666-7.666" class="F I J P U"/><g class="C"><use xlink:href="#X" y="17.335"/><path d="M157.695 12.332H69.23c-2.2 0-3.936 1.796-3.936 3.936v67.264c0 2.2 1.796 3.936 3.936 3.936h88.465c2.2 0 3.936-1.796 3.936-3.936V16.337c.07-2.2-1.726-4.005-3.936-4.005z"/></g><g stroke="#85a9ca" class="F I J P"><path d="M88.704 22.7v54.557"/><path d="M75.583 32.22h75.758"/><use xlink:href="#Y"/><path d="M78.346 42.5h3.108m14.502 11.75c5.524 0 5.524 4.143 11.05 4.143s5.525-4.143 11.05-4.143 5.524 4.143 11.05 4.143 5.525-4.143 11.05-4.143 5.525 4.143 11.05 4.143m-72.86-2.07h3.108"/><use xlink:href="#Y" y="27.622"/><path d="M78.346 70.134h3.108"/></g><path d="M111.08 144.925l16.367-21.132H94.713l16.367 21.132z" class="K"/><path d="M180.484-4.588c5.317 0 5.317 13.812 10.704 13.812 5.318 0 5.318-13.812 10.704-13.812 5.318 0 5.318 13.812 10.704 13.812S217.914-4.588 223.3-4.588" stroke="#fff" stroke-width="3" class="F"/><path d="M325.522 342.174c29.204-19.243 43.403-49.223 31.715-66.962s-44.84-16.52-74.043 2.724-43.402 49.223-31.714 66.962 44.84 16.52 74.042-2.724z" class="L"/></g><path d="M18 281.274c0 5.522 4.477 10 10 10h277.12c5.523 0 10-4.478 10-10V10H18v271.274z" fill="url(#T)"/><g filter="url(#I)" class="C"><rect x="26" y="251" width="281.274" height="52.293" rx="10"/></g><g class="G"><path d="M45.455 274h-1.38v-6.547H40.4V274H39v-7.75h6.445V274z"/><use xlink:href="#Z"/><use xlink:href="#a"/><path d="M64.44 274v-4.812h-2.433V274h-1.332v-5.876h5.097V274H64.44zm4.97-.95c.4 0 .736-.114 1.004-.343a1.09 1.09 0 0 0 .403-.86v-.467l-1.327.086c-.73.046-1.096.3-1.096.795a.69.69 0 0 0 .28.58c.187.143.435.2.736.2zm-.392 1.048c-.573 0-1.04-.16-1.402-.484s-.542-.748-.542-1.278.2-.945.575-1.246.938-.473 1.654-.516l1.515-.1V270c0-.3-.095-.512-.285-.666s-.464-.23-.822-.23c-.308 0-.562.054-.763.16s-.33.254-.392.45H67.3c.054-.52.304-.93.752-1.235s1.026-.462 1.724-.462c.752 0 1.332.174 1.74.52s.618.834.618 1.46V274H70.85v-.806h-.1a1.72 1.72 0 0 1-.709.666c-.304.158-.648.237-1.03.237z"/><use xlink:href="#b"/><path d="M82.715 273.05c.4 0 .736-.114 1.004-.343a1.09 1.09 0 0 0 .403-.86v-.467l-1.327.086c-.73.046-1.096.3-1.096.795a.69.69 0 0 0 .28.58c.187.143.435.2.736.2zm-.392 1.048c-.573 0-1.04-.16-1.402-.484s-.542-.748-.542-1.278.2-.945.575-1.246.938-.473 1.654-.516l1.515-.1V270c0-.3-.095-.512-.285-.666s-.464-.23-.822-.23c-.308 0-.562.054-.763.16s-.33.254-.392.45h-1.257c.054-.52.304-.93.752-1.235s1.026-.462 1.724-.462c.752 0 1.332.174 1.74.52s.618.834.618 1.46V274h-1.284v-.806h-.1a1.72 1.72 0 0 1-.709.666c-.304.158-.648.237-1.03.237zm9.1-5.974v1.064h-1.8V274h-1.332v-4.812h-1.8v-1.064h4.952zm1.588 7.922h-1.1l.456-3.287h1.38L93 276.046zM99.656 274H98.34v-5.876h1.316v3.9h.1l2.503-3.9h1.316V274h-1.316v-3.916h-.1L99.656 274zm7.742.118c-.684 0-1.258-.157-1.724-.472s-.72-.778-.773-1.386h1.3c.064.254.198.447.402.58s.473.193.795.193c.355 0 .632-.07.833-.215s.3-.343.3-.6c0-.52-.376-.78-1.128-.78h-.843v-.95h.816c.637 0 .956-.236.956-.7 0-.215-.08-.388-.242-.52s-.4-.2-.714-.2c-.308 0-.56.065-.757.194s-.308.306-.344.53h-1.273c.057-.55.294-.986.7-1.305s.968-.483 1.66-.483c.72 0 1.276.147 1.67.44a1.41 1.41 0 0 1 .59 1.203c0 .294-.084.548-.253.763s-.38.356-.65.424v.097c.37.1.65.25.838.478.194.23.3.5.3.838 0 .566-.222 1.02-.666 1.36s-1.038.5-1.794.5zm5.1-.118h-1.273v-5.876h1.697l1.74 4.044h.097l1.745-4.044h1.665V274h-1.278v-3.996h-.097l-1.622 3.722h-.956l-1.616-3.722h-.102V274zm9.767-4.936a1.32 1.32 0 0 0-.983.392c-.258.262-.4.607-.43 1.037h2.767c-.015-.437-.144-.785-.387-1.042s-.566-.387-.967-.387zm1.364 3.32h1.263a2.04 2.04 0 0 1-.887 1.273c-.462.308-1.036.462-1.724.462-.863 0-1.54-.268-2.035-.806s-.736-1.283-.736-2.23.247-1.693.74-2.245 1.167-.832 2.02-.832c.838 0 1.494.263 1.966.8s.715 1.248.715 2.176v.43h-4.104v.07c.018.5.158.88.42 1.166s.616.424 1.053.424c.673 0 1.1-.226 1.3-.677zm2.65 1.616v-5.876h1.332v2.32h2.487v-2.32h1.332V274h-1.332v-2.492h-2.487V274h-1.332zm8.983-2.976h1v-1.842h-1c-.322 0-.58.086-.773.258s-.285.4-.285.693c0 .26.097.476.3.644s.45.247.768.247zm1 2.976v-1.966h-.768L134.12 274h-1.525l1.573-2.197c-.4-.114-.716-.32-.945-.617a1.7 1.7 0 0 1-.344-1.059c0-.615.206-1.102.618-1.46s.967-.543 1.654-.543h2.423V274h-1.3zm7.977.118c-.795 0-1.436-.23-1.923-.687s-.768-1.103-.843-1.923h-.934V274h-1.333v-5.876h1.333v2.32h.956c.103-.77.397-1.368.88-1.794s1.105-.644 1.864-.644c.863 0 1.544.272 2.04.816s.747 1.288.747 2.24-.25 1.704-.747 2.245-1.174.8-2.04.8zm-1.058-1.622c.247.337.598.505 1.053.505s.806-.168 1.053-.505.37-.815.37-1.434-.125-1.092-.376-1.43-.596-.5-1.047-.5a1.25 1.25 0 0 0-1.053.5c-.25.33-.37.813-.37 1.43s.124 1.098.37 1.434zm13.813 3.034h-1.225V274h-7.4v-5.876h1.332v4.813h1.875v-4.813h1.332v4.813h1.874v-4.813h1.332v4.813h.88v2.594zm2.345-1.53h-1.316v-5.876h1.316v3.9h.1l2.503-3.9h1.316V274h-1.316v-3.916h-.092l-2.5 3.916zm6.088-8.562h1.053c.003.298.087.545.252.742a.83.83 0 0 0 .666.295c.276 0 .496-.098.66-.295s.256-.444.263-.742h1.047c0 .538-.182.978-.548 1.322s-.836.515-1.423.515-1.063-.17-1.43-.515-.542-.784-.542-1.322zm.763 8.562h-1.316v-5.876h1.316v3.9h.1l2.503-3.9h1.316V274h-1.316v-3.916h-.092L166.18 274zm-122.83 7.124v1.064h-1.8V287h-1.332v-4.812h-1.8v-1.064h4.952z"/><use xlink:href="#c"/><path d="M55.574 287h-1.332v-2.546h-.1c-.4.405-.9.607-1.558.607-.623 0-1.117-.193-1.482-.58s-.542-.913-.542-1.568v-1.8h1.33v1.638c0 .355.1.634.274.838s.433.3.752.3c.34 0 .618-.066.833-.2s.376-.277.483-.435v-2.143h1.332V287zm4.09-4.936a1.32 1.32 0 0 0-.983.392c-.258.262-.4.607-.43 1.037h2.766c-.014-.437-.143-.785-.387-1.042s-.566-.387-.967-.387zm1.364 3.32h1.262a2.04 2.04 0 0 1-.886 1.273c-.462.308-1.037.462-1.724.462-.863 0-1.54-.268-2.036-.806s-.736-1.283-.736-2.23.247-1.693.74-2.245 1.167-.832 2.02-.832c.838 0 1.493.263 1.966.8s.714 1.248.714 2.176v.43h-4.104v.07c.018.5.158.88.42 1.166s.616.424 1.053.424c.673 0 1.1-.226 1.3-.677zM63.68 287v-5.876h1.332v2.32H67.5v-2.32h1.332V287H67.5v-2.492h-2.487V287H63.68zm8.1 0h-1.316v-5.876h1.316v3.9h.1l2.503-3.9h1.316V287h-1.316v-3.916h-.1L71.77 287zm8.007-4.936a1.32 1.32 0 0 0-.983.392c-.258.262-.4.607-.43 1.037h2.766c-.014-.437-.143-.785-.387-1.042s-.566-.387-.967-.387zm1.364 3.32h1.262a2.04 2.04 0 0 1-.886 1.273c-.462.308-1.037.462-1.724.462-.863 0-1.54-.268-2.036-.806s-.736-1.283-.736-2.23.247-1.693.74-2.245 1.167-.832 2.02-.832c.838 0 1.493.263 1.966.8s.714 1.248.714 2.176v.43h-4.1v.07c.018.5.158.88.42 1.166s.616.424 1.053.424c.673 0 1.1-.226 1.3-.677zm5.62-6.134h3.126c.773 0 1.4.24 1.88.725s.725 1.115.725 1.896c0 .766-.25 1.4-.747 1.87s-1.133.72-1.918.72h-1.68V287H86.76v-7.75zm1.386 1.16v2.9h1.37c.498 0 .883-.125 1.155-.376s.414-.605.414-1.063c0-.473-.136-.835-.408-1.085s-.654-.376-1.155-.376h-1.375zm9.106 6.783c-1.1 0-1.968-.363-2.605-1.1s-.956-1.722-.956-2.976c0-1.26.317-2.254.95-2.98s1.506-1.1 2.605-1.1c.88 0 1.628.26 2.24.78a2.89 2.89 0 0 1 1.042 1.987h-1.365a1.86 1.86 0 0 0-.666-1.112c-.346-.276-.764-.418-1.252-.418a1.85 1.85 0 0 0-1.563.762c-.383.508-.575 1.194-.575 2.068s.192 1.565.575 2.073.906.763 1.568.763c.5 0 .9-.127 1.257-.38a1.69 1.69 0 0 0 .661-1.037h1.364c-.093.795-.44 1.436-1.042 1.923s-1.348.73-2.24.73zM247.237 274h-.956v-6.87h-4.147V274h-.972v-7.75h6.075V274zm1.855 0v-5.8h.924v2.395h2.9V268.2h.924v5.8h-.924v-2.62h-2.9V274h-.924zm7.078 1.97h-.806l.516-3.056h1.085l-.795 3.056zm8.78-1.787c-1.053 0-1.887-.364-2.503-1.1s-.92-1.715-.92-2.965.307-2.238.92-2.964 1.445-1.096 2.497-1.096c.817 0 1.515.233 2.095.698s.928 1.073 1.042 1.82h-.983c-.13-.5-.386-.897-.773-1.187s-.847-.44-1.38-.44c-.744 0-1.335.285-1.772.854s-.65 1.34-.65 2.315.22 1.746.655 2.315 1.028.85 1.773.85c.54 0 1.002-.13 1.386-.387a1.82 1.82 0 0 0 .762-1.063h.983a2.65 2.65 0 0 1-1.047 1.708c-.57.426-1.26.634-2.084.634zm7.555-6.075c.738 0 1.327.272 1.768.816s.666 1.27.666 2.18-.222 1.633-.666 2.18-1.034.816-1.768.816c-.4 0-.777-.084-1.095-.252s-.557-.412-.715-.72h-.086v2.804h-.923V268.2h.88v.967h.086a2.05 2.05 0 0 1 .768-.784c.33-.2.692-.285 1.085-.285zm-.22 5.162c.53 0 .946-.192 1.246-.575s.45-.913.45-1.6-.15-1.207-.45-1.6-.7-.575-1.24-.575c-.523 0-.94.196-1.247.586s-.46.913-.46 1.58.152 1.2.456 1.58.723.586 1.246.586zm4.5 2.7h-.806l.516-3.056h1.085l-.795 3.056zM288.52 274h-.956v-6.87h-4.147V274h-.972v-7.75h6.075V274zm6.05-5.8v.773h-1.88V274h-.923v-5.017h-1.88v-.773h4.683zm-27.22 13.23c0-.687.233-1.253.698-1.697s1.064-.666 1.784-.666c.694 0 1.276.2 1.745.628a1.99 1.99 0 0 1 .71 1.547c0 .405-.114.802-.344 1.193s-.66.925-1.294 1.606l-1.864 2.003v.086h3.63v.87H267.4v-.666l2.68-2.927c.497-.54.83-.953.993-1.236a1.74 1.74 0 0 0 .247-.891c0-.387-.146-.7-.44-.972s-.648-.398-1.074-.398c-.455 0-.822.14-1.1.42s-.42.646-.42 1.1v.006h-.935v-.006zm8.45 5.57v-6.676h-.086l-1.97 1.428v-1.02l2.062-1.482h.962V287h-.967zm3.93-.886c-.2 0-.355-.068-.494-.204s-.204-.305-.204-.494a.68.68 0 0 1 .698-.699.68.68 0 0 1 .494.204.67.67 0 0 1 .204.495c0 .195-.068.354-.204.494s-.3.204-.494.204zm0-4.13c-.2 0-.355-.068-.494-.204s-.204-.304-.204-.494a.68.68 0 0 1 .698-.698.68.68 0 0 1 .494.204.67.67 0 0 1 .204.494c0 .194-.068.355-.204.494a.66.66 0 0 1-.494.204zm4.992 5.2c-.873 0-1.55-.355-2.03-1.064s-.72-1.708-.72-2.997c0-1.278.242-2.274.725-2.986a2.31 2.31 0 0 1 2.025-1.069c.863 0 1.535.358 2.014 1.074s.726 1.715.726 2.997-.24 2.28-.72 2.987-1.15 1.058-2.02 1.058zm-1.32-1.676c.308.555.748.832 1.32.832s1-.275 1.3-.827.456-1.352.456-2.4c0-1.028-.154-1.82-.462-2.374s-.74-.832-1.305-.832-1.004.28-1.316.837-.462 1.345-.462 2.37c0 1.035.153 1.83.457 2.385zm8.138 1.676c-.874 0-1.55-.355-2.03-1.064s-.72-1.708-.72-2.997c0-1.278.242-2.274.725-2.986a2.31 2.31 0 0 1 2.025-1.07c.867 0 1.534.358 2.014 1.074s.725 1.715.725 2.997-.24 2.28-.72 2.987-1.15 1.058-2.02 1.058zm-1.32-1.676c.308.555.748.832 1.32.832s1-.275 1.3-.827.456-1.352.456-2.4c0-1.028-.154-1.82-.462-2.374s-.74-.832-1.305-.832-1.004.28-1.316.837-.462 1.345-.462 2.37c0 1.035.152 1.83.457 2.385z"/></g><g filter="url(#J)" class="C"><rect x="26" y="313" width="281.274" height="52.293" rx="10"/></g><g class="G"><path d="M45.455 336h-1.38v-6.547H40.4V336H39v-7.75h6.445V336z"/><use xlink:href="#Z" y="62"/><use xlink:href="#a" y="62"/><path d="M64.44 336v-4.812h-2.433V336h-1.332v-5.876h5.097V336H64.44zm4.97-.95c.4 0 .736-.114 1.004-.343a1.09 1.09 0 0 0 .403-.86v-.467l-1.327.086c-.73.046-1.096.3-1.096.795a.69.69 0 0 0 .28.58c.187.143.435.2.736.2zm-.392 1.048c-.573 0-1.04-.16-1.402-.484s-.542-.748-.542-1.278.2-.945.575-1.246.938-.473 1.654-.516l1.515-.1V332c0-.3-.095-.512-.285-.666s-.464-.23-.822-.23c-.308 0-.562.054-.763.16s-.33.254-.392.45H67.3c.054-.52.304-.93.752-1.235s1.026-.462 1.724-.462c.752 0 1.332.174 1.74.52s.618.834.618 1.46V336H70.85v-.806h-.1a1.72 1.72 0 0 1-.709.666c-.304.158-.648.237-1.03.237z"/><use xlink:href="#b" y="62"/><path d="M82.715 335.05c.4 0 .736-.114 1.004-.343a1.09 1.09 0 0 0 .403-.86v-.467l-1.327.086c-.73.046-1.096.3-1.096.795a.69.69 0 0 0 .28.58c.187.143.435.2.736.2zm-.392 1.048c-.573 0-1.04-.16-1.402-.484s-.542-.748-.542-1.278.2-.945.575-1.246.938-.473 1.654-.516l1.515-.1V332c0-.3-.095-.512-.285-.666s-.464-.23-.822-.23c-.308 0-.562.054-.763.16s-.33.254-.392.45h-1.257c.054-.52.304-.93.752-1.235s1.026-.462 1.724-.462c.752 0 1.332.174 1.74.52s.618.834.618 1.46V336h-1.284v-.806h-.1a1.72 1.72 0 0 1-.709.666c-.304.158-.648.237-1.03.237zm9.1-5.974v1.064h-1.8V336h-1.332v-4.812h-1.8v-1.064h4.952zm9.056 1.976h-1.267a1.19 1.19 0 0 0-.43-.709c-.222-.18-.5-.27-.865-.27-.458 0-.816.168-1.074.505s-.38.8-.38 1.418c0 .616.13 1.096.387 1.44a1.26 1.26 0 0 0 1.069.516c.347 0 .632-.08.854-.242s.372-.394.44-.698h1.267c-.075.627-.338 1.126-.8 1.5s-1.037.558-1.767.558c-.884 0-1.574-.27-2.068-.8s-.74-1.294-.74-2.26c0-.956.247-1.7.74-2.234s1.182-.806 2.063-.806c.738 0 1.33.2 1.778.575s.713.886.784 1.52zm2.58 3.9h-1.316v-5.876h1.316v3.9h.1l2.503-3.9h1.316V336h-1.316v-3.916h-.1L103.06 336zm6.8 0h-1.273v-5.876h1.697l1.74 4.044h.096l1.746-4.044h1.665V336h-1.278v-3.996h-.097l-1.622 3.722h-.956l-1.617-3.722h-.102V336zm11.06 0v-4.812h-2.433V336h-1.332v-5.876h5.097V336h-1.332zm7.443-5.876v1.064h-1.8V336h-1.332v-4.812h-1.8v-1.064h4.952zm2.41 4.372c.254.337.614.505 1.08.505s.824-.168 1.075-.505.38-.818.38-1.434-.127-1.1-.38-1.43-.613-.5-1.075-.5-.825.17-1.08.5-.382.817-.382 1.43.128 1.094.382 1.434zm1.08 1.622c-.88 0-1.572-.27-2.073-.8s-.752-1.293-.752-2.245c0-.945.253-1.7.757-2.234s1.195-.822 2.068-.822 1.567.272 2.068.816.758 1.3.758 2.24-.253 1.7-.758 2.245-1.2.8-2.068.8zm5.432-.118h-1.273v-5.876h1.698l1.74 4.044h.097l1.745-4.044h1.665V336h-1.278v-3.996h-.097l-1.622 3.722h-.956l-1.617-3.722h-.102V336zm9.31-.95c.4 0 .736-.114 1.005-.343s.402-.52.402-.86v-.467l-1.326.086c-.73.046-1.096.3-1.096.795a.69.69 0 0 0 .28.58c.187.143.435.2.736.2zm-.392 1.048c-.573 0-1.04-.16-1.402-.484s-.542-.748-.542-1.278.2-.945.575-1.246.938-.473 1.654-.516l1.514-.1V332c0-.3-.094-.512-.284-.666s-.464-.23-.822-.23c-.308 0-.562.054-.763.16s-.33.254-.392.45h-1.257a1.64 1.64 0 0 1 .752-1.235c.452-.308 1.026-.462 1.724-.462.752 0 1.332.174 1.74.52s.617.834.617 1.46V336h-1.283v-.806h-.092c-.164.283-.4.505-.7.666s-.648.237-1.03.237zm9.102-5.974v1.064h-1.8V336h-1.333v-4.812h-1.8v-1.064h4.953zm2.468 5.876h-1.316v-5.876h1.316v3.9h.1l2.503-3.9h1.316V336h-1.316v-3.916h-.1L157.783 336zm10.422 0h-1.332v-2.546h-.1c-.4.405-.9.607-1.558.607-.623 0-1.117-.193-1.482-.58s-.542-.913-.542-1.568v-1.8h1.332v1.638c0 .355.1.634.274.838s.433.3.75.3c.34 0 .618-.066.833-.2s.376-.277.483-.435v-2.143h1.332V336zm4.09-4.936c-.398 0-.725.13-.983.392s-.4.607-.43 1.037h2.766c-.014-.437-.143-.785-.387-1.042s-.565-.387-.966-.387zm1.364 3.32h1.262a2.04 2.04 0 0 1-.886 1.273c-.462.308-1.037.462-1.724.462-.863 0-1.542-.268-2.036-.806s-.736-1.283-.736-2.23.247-1.693.74-2.245 1.168-.832 2.02-.832c.838 0 1.493.263 1.966.8s.714 1.248.714 2.176v.43h-4.103v.07c.018.5.157.88.42 1.166s.615.424 1.052.424c.673 0 1.1-.226 1.3-.677zm7.732-2.284h-1.268a1.19 1.19 0 0 0-.43-.709c-.222-.18-.5-.27-.864-.27-.46 0-.817.168-1.075.505s-.38.8-.38 1.418c0 .616.13 1.096.387 1.44a1.26 1.26 0 0 0 1.069.516c.347 0 .632-.08.854-.242s.372-.394.44-.698h1.268c-.076.627-.34 1.126-.8 1.5s-1.037.558-1.767.558c-.884 0-1.574-.27-2.068-.8s-.74-1.294-.74-2.26c0-.956.247-1.7.74-2.234s1.182-.806 2.063-.806c.737 0 1.33.2 1.777.575.452.38.713.886.785 1.52zm2.598.377h.258l1.97-2.353h1.536l-2.412 2.712 2.525 3.164h-1.617l-1.993-2.524h-.268V336h-1.332v-5.876h1.332v2.353zm6.15 2.02c.255.337.614.505 1.08.505s.824-.168 1.074-.505.382-.818.382-1.434-.128-1.1-.382-1.43-.612-.5-1.074-.5-.825.17-1.08.5-.38.817-.38 1.43.127 1.094.38 1.434zm1.08 1.622c-.88 0-1.572-.27-2.073-.8s-.752-1.293-.752-2.245c0-.945.252-1.7.757-2.234s1.194-.822 2.068-.822 1.567.272 2.068.816.757 1.3.757 2.24-.252 1.7-.757 2.245-1.2.8-2.068.8zm4.714-8.68h1.053c.004.298.088.545.252.742s.4.295.666.295.496-.098.66-.295.256-.444.263-.742h1.048c0 .538-.183.978-.548 1.322s-.836.515-1.424.515-1.063-.17-1.428-.515-.543-.784-.543-1.322zm.763 8.562h-1.316v-5.876h1.316v3.9h.1l2.503-3.9h1.316V336H199.3v-3.916h-.1L196.697 336zM43.35 343.124v1.064h-1.8V349h-1.332v-4.812h-1.8v-1.064h4.952z"/><use xlink:href="#c" y="62"/><path d="M53.985 343.027c.745 0 1.334.27 1.767.8s.655 1.282.655 2.224-.217 1.68-.65 2.224-1.015.8-1.756.8c-.42 0-.786-.086-1.1-.258s-.542-.42-.693-.73h-.1v2.847h-1.332v-7.83h1.284v.972h.1c.168-.333.414-.594.736-.784s.7-.285 1.1-.285zm-.42 4.936c.462 0 .822-.168 1.08-.505s.392-.802.392-1.396-.13-1.06-.392-1.396-.616-.505-1.074-.505a1.31 1.31 0 0 0-1.08.5c-.265.33-.4.804-.403 1.4.004.587.136 1.05.398 1.4s.625.5 1.08.5zm6.202.087c.4 0 .736-.114 1.004-.343a1.09 1.09 0 0 0 .403-.86v-.467l-1.327.086c-.73.046-1.096.3-1.096.795a.69.69 0 0 0 .28.58c.187.143.435.2.736.2zm-.392 1.048c-.573 0-1.04-.16-1.402-.484s-.542-.748-.542-1.278.2-.945.575-1.246.938-.473 1.654-.516l1.515-.1V345c0-.3-.095-.512-.285-.666s-.464-.23-.822-.23c-.308 0-.562.054-.763.16s-.33.254-.392.45h-1.257c.054-.52.304-.93.752-1.235s1.026-.462 1.724-.462c.752 0 1.332.174 1.74.52s.618.834.618 1.46V349h-1.284v-.806h-.1a1.72 1.72 0 0 1-.709.666c-.304.158-.648.237-1.03.237zm8.478-.098v-4.812H65.42V349h-1.332v-5.876h5.097V349h-1.332zm4.273 0H70.8v-5.876h1.316v3.9h.1l2.503-3.9h1.316V349H74.72v-3.916h-.1L72.126 349zm6.85 0H77.66v-5.876h1.316v3.9h.1l2.503-3.9h1.316V349H81.57v-3.916h-.1L78.977 349zm162.236-13.87v.87h-4.802v-7.75h4.802v.87h-3.835v2.486h3.636v.86h-3.636v2.664h3.835zm1.072.87l2.55-3.05-2.466-2.74h1.123l2.08 2.438h.3V330.2h.902v2.438h.3l2.08-2.438h1.106l-2.45 2.718 2.567 3.072h-1.17l-2.132-2.653h-.3V336h-.902v-2.653h-.3L243.44 336h-1.154zm11.298-5.076c-.462 0-.842.156-1.14.468s-.464.723-.5 1.235h3.2c-.01-.512-.158-.924-.44-1.235s-.654-.468-1.112-.468zm1.525 3.577h.924c-.14.502-.424.894-.854 1.177s-.954.424-1.585.424c-.802 0-1.437-.27-1.906-.806s-.704-1.27-.704-2.186.236-1.64.7-2.186 1.107-.816 1.9-.816c.78 0 1.395.26 1.843.78s.67 1.23.67 2.132v.355h-4.162v.043c.025.572.186 1.027.483 1.364s.696.505 1.187.505c.748 0 1.246-.262 1.493-.785zm6.126.726v-4.244h-2.197l-.182 2.476c-.06.78-.22 1.34-.478 1.682v.086h2.857zm-3.55 2.304h-.87v-2.304h.483c.2-.133.358-.36.473-.677a4.09 4.09 0 0 0 .214-1.112l.226-3.228h3.948v5.017h.924v2.304h-.87V336h-4.528v1.53zm6.5-1.53v-5.8h.924v2.395h2.9V330.2h.924v5.8H268v-2.62h-2.9V336h-.924zm8.78-5.076c-.462 0-.842.156-1.14.468s-.464.723-.5 1.235h3.2c-.01-.512-.158-.924-.44-1.235s-.653-.468-1.1-.468zm1.525 3.577h.924c-.14.502-.424.894-.854 1.177s-.954.424-1.585.424c-.802 0-1.437-.27-1.906-.806s-.704-1.27-.704-2.186.236-1.64.7-2.186 1.106-.816 1.9-.816c.78 0 1.395.26 1.843.78s.67 1.23.67 2.132v.355h-4.163v.043c.026.572.187 1.027.484 1.364s.696.505 1.187.505c.748 0 1.246-.262 1.493-.785zm4.778-3.518h-1.413v1.633h1.262c.727 0 1.1-.276 1.1-.827 0-.25-.08-.448-.237-.6s-.388-.215-.703-.215zm-.07 2.407h-1.343v1.837h1.52c.355 0 .623-.077.806-.23s.28-.384.28-.677c0-.32-.106-.553-.317-.704s-.523-.225-.945-.225zm-2.267 2.6v-5.8h2.455c.54 0 .965.134 1.273.403s.462.625.462 1.08a1.26 1.26 0 0 1-.274.785 1.13 1.13 0 0 1-.672.435v.086c.366.05.658.198.876.445a1.29 1.29 0 0 1 .328.892c0 .508-.176.913-.527 1.214s-.836.45-1.455.45h-2.466zm5.917.01v-5.8h.924v2.395h2.9V330.2h.924v5.8h-.924v-2.62h-2.9V336h-.924zm7.582-1.294c.297.376.72.564 1.268.564s.97-.188 1.267-.564.446-.914.446-1.6-.15-1.22-.446-1.595-.72-.57-1.267-.57-.97.2-1.268.57-.446.907-.446 1.595.15 1.22.446 1.6zm3.217.596c-.476.533-1.126.8-1.95.8s-1.476-.267-1.955-.8-.715-1.27-.715-2.197.238-1.663.715-2.197 1.128-.8 1.955-.8 1.48.267 1.955.8.714 1.266.714 2.197-.24 1.66-.72 2.197zM268.96 349v-6.676h-.086l-1.97 1.428v-1.02l2.063-1.482h.96V349h-.967zm7.83-.446c-.52.42-1.2.63-2 .63s-1.5-.2-2.014-.63a2 2 0 0 1-.78-1.627c0-.505.147-.938.44-1.3s.683-.587 1.17-.677v-.086a1.72 1.72 0 0 1-.945-.628 1.79 1.79 0 0 1-.35-1.1 1.85 1.85 0 0 1 .693-1.488c.465-.387 1.06-.58 1.783-.58s1.316.193 1.778.58a1.85 1.85 0 0 1 .698 1.488c0 .426-.116.793-.35 1.1s-.544.517-.945.628v.086c.487.1.877.315 1.17.677s.44.795.44 1.3c0 .662-.26 1.205-.784 1.627zm-3.32-.612c.336.276.773.413 1.3.413s.974-.137 1.3-.413a1.34 1.34 0 0 0 .505-1.085 1.33 1.33 0 0 0-.505-1.08c-.337-.28-.774-.42-1.3-.42s-.974.14-1.3.42-.505.636-.505 1.08a1.34 1.34 0 0 0 .505 1.085zm.204-3.76c.28.24.648.36 1.106.36s.827-.12 1.107-.36.418-.562.418-.956a1.22 1.22 0 0 0-.418-.967c-.28-.243-.65-.365-1.107-.365s-.827.122-1.106.365a1.22 1.22 0 0 0-.42.967c0 .394.14.713.42.956zm6.142 3.932a.67.67 0 0 1-.495-.204c-.14-.136-.204-.305-.204-.494a.68.68 0 0 1 .204-.495c.136-.135.305-.204.495-.204a.68.68 0 0 1 .494.204.67.67 0 0 1 .204.495c0 .195-.068.354-.204.494s-.3.204-.494.204zm0-4.13a.67.67 0 0 1-.495-.204c-.14-.136-.204-.304-.204-.494a.68.68 0 0 1 .699-.698.68.68 0 0 1 .494.204.67.67 0 0 1 .204.494c0 .194-.068.355-.204.494a.66.66 0 0 1-.494.204zm3.918 1.444v-.827h.94c.44 0 .8-.13 1.08-.387s.425-.587.425-.988c0-.394-.136-.7-.408-.95s-.632-.365-1.08-.365-.8.118-1.085.355-.433.556-.473.972h-.94c.05-.673.3-1.203.752-1.6s1.046-.58 1.784-.58a2.72 2.72 0 0 1 1.224.274c.372.184.672.424.886.736s.323.65.323 1.02c0 .462-.12.852-.36 1.17s-.573.53-1 .634v.086c.526.068.94.274 1.24.617s.452.776.452 1.306c0 .637-.264 1.176-.8 1.616s-1.173.656-1.94.656c-.788 0-1.43-.2-1.928-.602s-.765-.938-.8-1.6h.934a1.38 1.38 0 0 0 .548.99c.322.248.734.37 1.235.37.5 0 .926-.136 1.252-.408s.494-.62.494-1.047c0-.448-.16-.802-.478-1.064s-.754-.392-1.305-.392h-.983zm7.806 3.755c-.874 0-1.55-.355-2.03-1.064s-.72-1.708-.72-2.997c0-1.278.242-2.274.725-2.986a2.31 2.31 0 0 1 2.025-1.07c.867 0 1.534.358 2.014 1.074s.725 1.715.725 2.997-.24 2.28-.72 2.987-1.15 1.058-2.02 1.058zm-1.32-1.676c.308.555.748.832 1.32.832s1-.275 1.3-.827.457-1.352.457-2.4c0-1.028-.154-1.82-.462-2.374s-.74-.832-1.305-.832-1.004.28-1.316.837-.462 1.345-.462 2.37c0 1.035.152 1.83.457 2.385z"/></g><g class="C"><path d="M54.02 227.872v-17.864H41.726l-.532 10.56c-.136 2.687-.706 4.123-2.364 4.123a4.22 4.22 0 0 1-.83-.099v3.268c.248.087.743.173 1.35.173 3.566 0 5.04-2.6 5.286-7.217l.433-7.725h5.212v14.78h3.74zM62.738 217c1.6 0 2.7 1.164 2.786 2.86H59.9c.124-1.66 1.263-2.86 2.847-2.86zm2.835 6.822c-.334 1.015-1.35 1.67-2.674 1.67-1.845 0-3.045-1.3-3.045-3.194v-.223h9.15v-1.102c0-4.036-2.44-6.648-6.3-6.648-3.925 0-6.4 2.75-6.4 6.982 0 4.247 2.45 6.86 6.537 6.86 3.28 0 5.658-1.746 6.054-4.345h-3.318zm17.05 4.05V214.6H79.02v5.026c-.446.582-1.275 1.052-2.488 1.052-1.46 0-2.315-.903-2.315-2.426V214.6h-3.602v4.172c0 3.008 1.832 4.902 4.865 4.902 1.523 0 2.674-.532 3.404-1.324h.136v5.52h3.603zM91.02 217c1.6 0 2.7 1.164 2.785 2.86H88.17c.124-1.66 1.263-2.86 2.847-2.86zm2.835 6.822c-.334 1.015-1.35 1.67-2.674 1.67-1.845 0-3.046-1.3-3.046-3.194v-.223h9.15v-1.102c0-4.036-2.44-6.648-6.302-6.648-3.924 0-6.4 2.75-6.4 6.982 0 4.247 2.45 6.86 6.537 6.86 3.28 0 5.658-1.746 6.054-4.345h-3.318zm14.065 4.05h3.602V214.6h-3.602v5.1h-5.1v-5.1h-3.602v13.27h3.602v-5.435h5.1v5.435zm9.584 0l5.274-8.393h.1v8.393h3.54V214.6h-3.54l-5.274 8.295h-.1V214.6h-3.54v13.27h3.54zm17.3-10.872c1.6 0 2.7 1.164 2.786 2.86h-5.633c.123-1.66 1.262-2.86 2.847-2.86zm2.835 6.822c-.334 1.015-1.35 1.67-2.674 1.67-1.845 0-3.045-1.3-3.045-3.194v-.223h9.148v-1.102c0-4.036-2.44-6.648-6.3-6.648-3.925 0-6.4 2.75-6.4 6.982 0 4.247 2.452 6.86 6.537 6.86 3.28 0 5.658-1.746 6.054-4.345h-3.318z"/></g><g filter="url(#K)"><rect x="26" y="532" width="281.274" height="35.654" rx="10" fill="url(#U)"/></g><g class="C"><path d="M102.93 551.258c-.035.56-.1 1.02-.2 1.374s-.232.65-.434.888v.105h4.124v-6.557h-3.23l-.27 4.2zm-1.664 3.834v1.874H99.72v-3.34h.678c.32-.206.55-.502.7-.888s.237-.92.276-1.6l.336-5.545h6.42v8.024h1.184v3.34h-1.54v-1.874h-6.498zm11.35-1.842c.312.412.752.62 1.322.62s1-.207 1.316-.62.467-1.002.467-1.756-.156-1.333-.467-1.75-.75-.625-1.316-.625-1 .208-1.322.625-.466 1-.466 1.75.155 1.34.466 1.756zm1.322 1.987c-1.078 0-1.924-.332-2.538-.994s-.92-1.582-.92-2.75c0-1.157.3-2.07.927-2.736s1.463-1.006 2.532-1.006c1.075 0 1.92.333 2.533 1s.927 1.58.927 2.742-.3 2.083-.927 2.75-1.458.994-2.533.994zm8.372-1.367c.574 0 1.02-.198 1.335-.592s.48-.952.48-1.67c0-.688-.16-1.223-.48-1.605s-.76-.572-1.335-.572-1.022.2-1.342.572-.48.917-.48 1.605c0 .72.158 1.276.474 1.67s.77.592 1.348.592zm-2.203-4.4h.118a2.52 2.52 0 0 1 .94-.994c.408-.24.9-.36 1.474-.36.95 0 1.716.3 2.295.934s.868 1.46.868 2.525c0 1.136-.3 2.03-.934 2.684-.618.653-1.464.98-2.538.98-1.127 0-1.995-.362-2.605-1.086s-.908-1.797-.908-3.222c0-1.816.294-3.166.882-4.052s1.56-1.36 2.9-1.414l.85-.033c.333-.013.655-.046.966-.098l.684-.152.23-.078v1.354c-.035.022-.092.05-.17.086s-.266.085-.573.15-.655.1-1.045.112l-.822.033c-.452.017-.836.085-1.15.204s-.573.294-.77.526a2.51 2.51 0 0 0-.454.802c-.105.298-.184.665-.236 1.1zm9.933 4.458c.5 0 .9-.14 1.23-.42a1.34 1.34 0 0 0 .493-1.052v-.573l-1.625.106c-.894.057-1.34.38-1.34.973 0 .298.114.535.342.7s.532.257.9.257zm-.48 1.282c-.702 0-1.274-.197-1.717-.592s-.664-.916-.664-1.565.234-1.158.703-1.526 1.15-.58 2.026-.63l1.855-.112v-.605c0-.355-.116-.627-.35-.816s-.568-.282-1.006-.282c-.377 0-.688.065-.934.197s-.406.3-.48.552h-1.54c.066-.635.373-1.14.92-1.512s1.256-.566 2.1-.566c.92 0 1.63.213 2.13.638s.756 1.022.756 1.8v4.913h-1.57v-.987h-.112a2.1 2.1 0 0 1-.868.816 2.7 2.7 0 0 1-1.262.289zm8.9-6.17h-1.394v1.796h1.263c.802 0 1.203-.303 1.203-.908a.85.85 0 0 0-.27-.65c-.17-.157-.448-.237-.803-.237zm-.033 2.868h-1.36v2.038h1.506c.403 0 .712-.087.927-.263s.323-.427.323-.756c0-.68-.465-1.02-1.395-1.02zm-2.972 3.183v-7.195h3.38c.72 0 1.28.164 1.684.493a1.62 1.62 0 0 1 .61 1.33c0 .368-.12.7-.36.993s-.533.464-.888.526v.118c.47.048.848.228 1.138.54s.434.68.434 1.12c0 .63-.23 1.135-.7 1.512s-1.087.566-1.88.566h-3.426zm9.425.001h-1.6v-7.195h1.6v4.76h.1l3.065-4.76h1.6v7.195h-1.6v-4.795h-.112l-3.065 4.795zm12.403-7.195v1.302h-2.216v5.893h-1.63V549.2h-2.217v-1.302h6.064zm4.367 3.453h-1.2v2.44h1.2c.4 0 .717-.112.954-.336s.362-.52.362-.888-.12-.662-.362-.88-.555-.335-.954-.335zm-2.82 3.742v-7.195h1.63v2.157h1.38c.837 0 1.504.228 2 .684s.75 1.068.75 1.835-.25 1.38-.75 1.835-1.162.684-2 .684h-3.012zm15.645 0V549.2h-2.98v5.893h-1.63v-7.195h6.24v7.195h-1.63zm7.675-7.314c.912 0 1.634.33 2.164.993s.803 1.57.803 2.723-.266 2.057-.796 2.723-1.243.993-2.15.993c-.513 0-.962-.105-1.348-.315s-.664-.513-.85-.895h-.1v3.486h-1.63v-9.6h1.57v1.2h.112a2.29 2.29 0 0 1 .901-.96 2.61 2.61 0 0 1 1.335-.35zm-.513 6.044c.566 0 1.007-.206 1.322-.618s.48-.982.48-1.7-.16-1.298-.48-1.7-.754-.618-1.315-.618-.998.208-1.322.625-.5.984-.493 1.703c.004.72.166 1.287.486 1.704s.766.624 1.322.624zm8.287-4.774c-.486 0-.888.16-1.203.48s-.5.743-.526 1.27h3.387c-.018-.535-.176-.96-.474-1.276s-.693-.473-1.184-.473zm1.67 4.064h1.545c-.153.658-.515 1.177-1.085 1.56-.565.377-1.27.566-2.1.566-1.057 0-1.888-.33-2.493-.987s-.9-1.572-.9-2.73.303-2.074.908-2.75 1.43-1.02 2.473-1.02c1.026 0 1.828.322 2.407.967s.875 1.528.875 2.663v.527H188.2v.085c.022.6.193 1.077.513 1.427s.754.52 1.3.52c.824 0 1.36-.276 1.605-.83zm7.992 1.98V549.2h-2.98v5.893h-1.63v-7.195h6.242v7.195h-1.63zm6.22-1.164c.5 0 .9-.14 1.23-.42a1.33 1.33 0 0 0 .494-1.052v-.573l-1.625.106c-.894.057-1.342.38-1.342.973 0 .298.114.535.342.7s.533.257.9.257zm-.48 1.282c-.7 0-1.273-.197-1.716-.592s-.665-.916-.665-1.565.235-1.158.704-1.526 1.15-.58 2.026-.63l1.855-.112v-.605c0-.355-.117-.627-.35-.816s-.568-.282-1.006-.282c-.377 0-.7.065-.934.197s-.406.3-.48.552h-1.54c.065-.635.372-1.14.92-1.512s1.257-.566 2.112-.566c.92 0 1.63.213 2.13.638s.756 1.022.756 1.8v4.913h-1.572v-.987h-.112c-.202.347-.5.62-.868.816s-.794.3-1.263.3zm9.826-7.432c.912 0 1.633.33 2.164.993s.802 1.57.802 2.723-.265 2.057-.796 2.723-1.243.993-2.15.993c-.513 0-.963-.105-1.348-.315a2.01 2.01 0 0 1-.849-.895h-.112v3.486h-1.63v-9.6h1.572v1.2h.112a2.29 2.29 0 0 1 .9-.96c.394-.232.844-.35 1.335-.35zm-.513 6.044c.566 0 1.006-.206 1.322-.618s.48-.982.48-1.7-.16-1.298-.48-1.7-.754-.618-1.315-.618-.998.208-1.322.625-.5.984-.494 1.703c.005.72.167 1.287.487 1.704s.765.624 1.322.624zm7.728.106c.5 0 .9-.14 1.23-.42s.493-.636.493-1.052v-.573l-1.624.106c-.895.057-1.342.38-1.342.973 0 .298.114.535.342.7s.533.257.9.257zm-.48 1.282c-.702 0-1.274-.197-1.717-.592s-.664-.916-.664-1.565.235-1.158.704-1.526 1.15-.58 2.025-.63l1.855-.112v-.605c0-.355-.116-.627-.348-.816s-.568-.282-1.007-.282c-.377 0-.688.065-.934.197s-.405.3-.48.552h-1.54c.066-.635.373-1.14.92-1.512s1.256-.566 2.1-.566c.92 0 1.63.213 2.13.638s.756 1.022.756 1.8v4.913h-1.57v-.987h-.112c-.202.347-.5.62-.868.816s-.794.3-1.263.3zm11.28-7.313v1.302h-2.216v5.893h-1.63V549.2h-2.217v-1.302h6.064z"/></g><g filter="url(#L)"><g filter="url(#M)" class="H"><path d="M18.736 581.8h297.12v38.697H18.736V581.8z" fill="#f8f8f8" fill-opacity=".8"/></g><path d="M256 581.735h60v49h-60v-49z" class="C"/><path d="M270.208 617.735h-.696v-2.533h-3.064v2.533h-.697v-5.564h.697v2.406h3.064v-2.406h.696v5.564z" class="B"/><path d="M272.908 617.226c.343 0 .627-.1.852-.297a.95.95 0 0 0 .34-.744v-.382l-1.122.073c-.315.02-.545.087-.692.197s-.22.27-.22.482a.59.59 0 0 0 .236.494c.157.118.36.177.607.177zm-.123.582c-.41 0-.748-.11-1.014-.335a1.13 1.13 0 0 1-.395-.902c0-.37.132-.66.395-.872s.638-.33 1.126-.36l1.203-.073v-.378c0-.257-.08-.454-.24-.6s-.395-.204-.704-.204c-.25 0-.458.045-.623.135s-.27.217-.317.382h-.673a1.12 1.12 0 0 1 .514-.803c.302-.203.676-.304 1.122-.304.506 0 .896.122 1.172.366s.414.584.414 1.018v2.846h-.634v-.613h-.062c-.134.22-.312.39-.534.51s-.472.177-.75.177z" class="B"/><path d="M279.524 614.85h-.673a.94.94 0 0 0-.368-.536c-.185-.142-.42-.212-.708-.212a1.08 1.08 0 0 0-.893.416c-.22.278-.33.652-.33 1.122 0 .478.11.86.332 1.145s.52.425.9.425c.28 0 .515-.063.7-.19a.9.9 0 0 0 .376-.54h.673c-.062.393-.246.713-.553.96s-.704.366-1.192.366c-.585 0-1.05-.195-1.396-.586s-.52-.92-.52-1.58c0-.648.173-1.166.52-1.554s.81-.582 1.392-.582c.488 0 .885.127 1.192.382a1.52 1.52 0 0 1 .557.964z" class="B"/><path d="M283.408 613.578v.555h-1.354v3.602h-.665v-3.602h-1.354v-.555h3.373z" class="B"/><path d="M286.4 613.505c.532 0 .956.195 1.273.586s.48.913.48 1.566-.16 1.172-.48 1.565a1.56 1.56 0 0 1-1.273.586 1.67 1.67 0 0 1-.789-.181 1.2 1.2 0 0 1-.514-.517h-.062v2.013h-.666v-5.545h.635v.694h.062c.134-.24.318-.427.553-.563s.498-.204.78-.204zm-.158 3.706c.38 0 .68-.138.897-.413s.325-.656.325-1.14-.108-.867-.325-1.142-.512-.412-.893-.412-.676.14-.898.42-.333.655-.333 1.134.1.853.33 1.133.52.42.898.42z" class="B"/><path d="M290.09 616.806c.215.27.52.405.913.405s.7-.135.913-.405.322-.656.322-1.15-.107-.876-.322-1.146-.518-.408-.913-.408-.698.136-.913.408-.32.652-.32 1.146.107.876.32 1.15zm2.318.428c-.343.383-.81.574-1.405.574s-1.062-.19-1.408-.574-.514-.912-.514-1.577.17-1.195.514-1.578.813-.574 1.408-.574 1.066.19 1.41.574.514.91.514 1.578-.173 1.19-.518 1.577z" class="B"/><path d="M294.71 617.735h-.666v-4.157h.666v3.1h.062l2.077-3.1h.666v4.157h-.666v-3.1h-.062l-2.077 3.1zm-.314-6H295c0 .22.066.41.197.57s.306.24.522.24a.65.65 0 0 0 .527-.239.86.86 0 0 0 .201-.571h.603c0 .362-.124.664-.37.906s-.565.36-.96.36-.7-.12-.955-.36-.368-.54-.368-.906z" class="B"/><path d="M299.506 615.317h.182l1.652-1.74h.808l-1.91 1.96 1.985 2.198h-.863l-1.67-1.893h-.182v1.893h-.665v-4.157h.665v1.74z" class="B"/><path d="M303.816 617.735h-.666v-4.157h.666v3.1h.062l2.077-3.1h.666v4.157h-.666v-3.1h-.062l-2.077 3.1z" class="B"/><path d="M281.754 600.562c.385-.925 1.065-1.432 2.126-1.41.683.013 1.546.44 1.886 1.41h5.717c.284 0 .532.186.588.44.058.263-.073.534-.33.638a.92.92 0 0 1-.337.058h-5.486c-.122 0-.172.032-.217.144-.31.78-1.078 1.275-1.964 1.272-.844-.002-1.616-.512-1.917-1.278-.04-.106-.092-.14-.206-.138h-.822c-.32-.008-.568-.23-.6-.5a.56.56 0 0 1 .484-.617c.154-.02.315-.008.474-.01l.593.002zm2.015 1.414c.496 0 .897-.385.89-.85s-.407-.843-.89-.848c-.493-.003-.89.377-.89.85s.387.848.89.848z" class="B"/><path d="M285.765 593.76a2.01 2.01 0 0 1-.585.888c-1.075.954-2.83.566-3.352-.742-.044-.114-.097-.154-.225-.15l-.78.003c-.35 0-.613-.234-.62-.55-.005-.33.243-.577.6-.585h.85c.086.003.128-.02.16-.103.34-.843 1.246-1.356 2.185-1.24.835.104 1.426.51 1.733 1.268.036.1.1.074.167.074h5.168l.43.003c.354.016.6.266.588.595-.01.31-.27.54-.615.542h-5.53c-.055-.005-.11-.005-.175-.005zm-2.884-.566c0 .473.402.856.892.85.485-.005.886-.388.89-.847.003-.452-.382-.792-.892-.795-.515.003-.89.335-.89.792z" class="B"/><path d="M283.587 596.598l2.758.003c.13 0 .2-.032.24-.15.306-.768 1.084-1.28 1.936-1.276.87.003 1.647.518 1.948 1.3.04.103.092.13.2.127l.808-.003c.357.006.607.237.607.56.003.33-.25.564-.612.57h-.836c-.078 0-.12.013-.154.093-.334.8-.958 1.27-1.87 1.323-.875.054-1.713-.446-2.042-1.297-.04-.098-.086-.122-.187-.122l-5.544.003c-.376 0-.635-.23-.635-.56-.003-.324.248-.566.6-.57h2.783zm5.82.57c.003-.473-.393-.856-.886-.856s-.897.388-.894.853.404.846.886.848c.493.003.89-.374.894-.845z" class="B"/><path d="M197 581.735h59v49h-59v-49z" class="C H"/><path d="M214.053 615.252a4.22 4.22 0 0 1-.116.829c-.054.21-.146.393-.275.547v.047h2.71v-4.315h-2.136l-.182 2.892zm-1.02 2.047v1.1h-.646v-1.723h.414c.193-.103.335-.272.425-.506s.15-.547.174-.933l.213-3.5h3.455v4.94h.696v1.723h-.646v-1.1h-4.085z" class="B"/><path d="M220.363 613.655c-.333 0-.606.112-.82.336s-.334.52-.36.887h2.298c-.008-.368-.113-.664-.317-.887s-.47-.336-.8-.336zm1.1 2.568h.665c-.1.36-.305.642-.615.845s-.687.305-1.14.305c-.578 0-1.036-.193-1.374-.58s-.506-.91-.506-1.57.17-1.18.5-1.57.797-.586 1.37-.586c.562 0 1.004.186 1.327.56s.483.883.483 1.53v.255h-2.998v.03c.018.41.134.737.348.98s.502.362.855.362c.54 0 .898-.187 1.076-.563z" class="B"/><path d="M225.33 613.07c.53 0 .955.195 1.272.586s.48.913.48 1.566-.16 1.172-.48 1.565a1.56 1.56 0 0 1-1.272.587 1.67 1.67 0 0 1-.79-.182c-.23-.123-.4-.295-.514-.516h-.062v2.013h-.666v-5.546h.635v.694h.062c.134-.24.318-.426.553-.563s.498-.204.782-.204zm-.16 3.706c.382 0 .68-.138.897-.413s.325-.655.325-1.14-.108-.867-.325-1.142-.512-.412-.893-.412-.676.14-.898.42-.332.656-.332 1.134.11.853.328 1.134.52.42.898.42z" class="B"/><path d="M229.872 613.655c-.332 0-.606.112-.82.336s-.334.52-.36.887H231c-.007-.368-.113-.664-.317-.887a1.03 1.03 0 0 0-.801-.336zm1.1 2.568h.666c-.1.36-.306.642-.616.845s-.687.305-1.14.305c-.578 0-1.035-.193-1.373-.58s-.507-.91-.507-1.57.17-1.18.51-1.57.797-.586 1.37-.586c.562 0 1.005.186 1.327.56s.484.883.484 1.53v.255h-3v.03c.02.41.135.737.35.98s.5.362.855.362c.54 0 .897-.187 1.075-.563z" class="B"/><path d="M234.492 613.698h-1.018v1.172h.91c.524 0 .786-.198.786-.594 0-.18-.057-.32-.17-.424s-.28-.154-.506-.154zm-.05 1.727h-.967v1.32h1.095c.255 0 .45-.055.58-.166s.202-.275.202-.486c0-.228-.077-.397-.23-.505s-.376-.162-.68-.162zm-1.632 1.874v-4.157h1.768c.39 0 .695.097.917.3s.332.448.332.775c0 .205-.065.393-.197.563a.81.81 0 0 1-.483.312v.062c.263.036.473.142.63.32s.236.388.236.64c0 .365-.126.655-.38.87s-.602.324-1.048.324h-1.776z" class="B"/><path d="M237.916 616.37c.214.27.518.405.913.405s.698-.135.913-.405.32-.656.32-1.15-.107-.876-.32-1.145-.52-.41-.913-.41-.7.136-.913.41-.322.65-.322 1.145.107.876.322 1.15zm2.317.428c-.343.383-.81.575-1.404.575s-1.063-.192-1.41-.575-.514-.91-.514-1.577.17-1.194.514-1.577.813-.575 1.41-.575 1.065.192 1.408.575.514.908.514 1.577-.172 1.19-.518 1.577z" class="B"/><path d="M224.638 594.9l-.707.173c-.935.284-1.53.903-1.743 1.844-.206.924.073 1.72.774 2.36.275.253.292.322.1.644l-.303.484c-.115.17-.265.194-.432.073a3.78 3.78 0 0 1-.645-5.483 3.73 3.73 0 0 1 1.46-1.062.25.25 0 0 0 .178-.222c.275-1.847 1.868-3.22 3.75-3.234a3.8 3.8 0 0 1 3.806 3.169c.017.104.062.155.15.204 1.293.723 1.98 1.826 2.04 3.297.073 1.868-1.42 3.6-3.287 3.82-.33.04-.418-.035-.425-.364l-.025-.536c-.01-.277.063-.37.335-.432 1.066-.235 1.746-.868 1.997-1.927.272-1.155-.408-2.383-1.534-2.8-.167-.062-.397-.076-.49-.193s-.038-.34-.052-.512c-.08-1.22-.85-2.1-2.032-2.353-1.35-.276-2.75.723-2.9 2.08-.032.315-.004.637-.004.972z" class="B"/><path d="M226.346 597.718l.3-.74.753-1.82c.105-.252.237-.308.492-.204l.543.225c.265.11.314.225.206.48l-1.31 3.176a1.13 1.13 0 0 0-.08.415l-.003 4.268c0 .308-.08.384-.394.384h-.593c-.26-.003-.352-.1-.352-.356l.004-4.165c0-.152-.046-.256-.154-.36l-1.43-1.366c-.205-.197-.212-.325-.017-.526l.446-.46c.157-.156.3-.16.47-.007l1.014.972c.028.028.056.05.094.083z" class="B"/><path d="M138 581.735h59v49h-59v-49z" class="C H"/><path d="M152.456 615.252c-.02.342-.06.618-.117.83s-.145.393-.274.547v.047h2.708v-4.315h-2.136l-.18 2.892zm-1.022 2.047v1.1h-.646v-1.723h.414c.193-.103.335-.272.426-.506s.15-.547.174-.933l.212-3.5h3.455v4.94h.697v1.723h-.646v-1.1h-4.086z" class="G"/><path d="M157.098 617.3v-4.157h.665v1.72h2.082v-1.72h.665v4.157h-.665v-1.88h-2.082v1.88h-.665z" class="G"/><path d="M163.5 613.655c-.333 0-.606.112-.82.336s-.334.52-.36.887h2.298c-.008-.368-.114-.664-.317-.887s-.47-.336-.8-.336zm1.098 2.568h.666c-.1.36-.306.642-.615.845s-.688.305-1.142.305c-.577 0-1.035-.193-1.373-.58s-.507-.91-.507-1.57.17-1.18.51-1.57.797-.586 1.37-.586c.563 0 1.005.186 1.327.56s.484.883.484 1.53v.255h-2.998v.03c.018.41.134.737.348.98s.502.362.855.362c.54 0 .898-.187 1.075-.563z" class="G"/><path d="M168.12 613.698h-1.017v1.172h.91c.523 0 .785-.198.785-.594 0-.18-.057-.32-.17-.424s-.28-.154-.507-.154zm-.05 1.727h-.967v1.32h1.094c.256 0 .45-.055.58-.166s.2-.275.2-.486c0-.228-.076-.397-.228-.505s-.377-.162-.68-.162zm-1.633 1.874v-4.157h1.768c.4 0 .695.097.917.3s.333.448.333.775c0 .205-.066.393-.198.563a.81.81 0 0 1-.483.312v.062c.263.036.473.142.63.32a.92.92 0 0 1 .236.64c0 .365-.126.655-.38.87s-.602.324-1.048.324h-1.776z" class="G"/><path d="M170.778 617.3v-4.157h.665v1.72h2.082v-1.72h.665v4.157h-.665v-1.88h-2.082v1.88h-.665z" class="G"/><path d="M176.18 617.3h-.666v-4.157h.666v3.1h.06l2.078-3.1h.665v4.157h-.665v-3.1h-.062l-2.077 3.1z" class="G"/><path d="M180.976 614.88h.182l1.652-1.74h.808l-1.91 1.96 1.985 2.198h-.863l-1.67-1.893h-.182v1.893h-.666v-4.157h.666v1.74z" class="G"/><path d="M162.146 597.174v-4.693c0-.78.326-1.383 1.025-1.774.293-.163.617-.227.95-.23h8.1c.256 0 .443.1.56.332.115.216.057.41-.087.594-.473.612-.45 1.423.03 2.03.063.08.098.204.098.308l.006 9.51c0 .43-.22.653-.656.653h-8.004c-1.022 0-1.805-.637-1.995-1.622-.022-.117-.025-.238-.025-.358l-.002-4.75zm1.133-3.053v7.743a.82.82 0 0 0 .849.864h7.422c.043 0 .087-.005.14-.008v-8.235c0-.225.027-.204-.2-.204-2.107 0-4.214.01-6.32-.002-.62-.003-1.256.093-1.9-.158zm8.04-2.57l-.055-.008c-2.392 0-4.785-.003-7.177.002-.547.003-.927.53-.767 1.047.112.355.424.572.85.575h7.014c.04 0 .08-.003.134-.008-.163-.538-.17-1.068 0-1.608z" class="V"/><path d="M167.477 598.897h1.196c.346.002.604.238.607.55s-.25.565-.596.565h-2.433c-.318-.003-.552-.217-.582-.51-.03-.265.155-.522.424-.59.057-.014.117-.016.174-.016h1.2z" class="V"/><path d="M167.472 597.942c-.422 0-.843.005-1.264-.003a.56.56 0 0 1-.541-.49c-.033-.257.14-.52.4-.596a.64.64 0 0 1 .174-.024l2.458.002c.4.006.655.35.552.712-.068.233-.278.4-.533.4-.41 0-.827-.002-1.245-.002z" class="V"/><path d="M78 581.735h60v49H78v-49z" class="C H"/><path d="M97.41 617.562c-.758 0-1.36-.26-1.803-.782s-.662-1.232-.662-2.13.22-1.607.662-2.13 1.04-.787 1.8-.787c.588 0 1.09.167 1.51.5s.668.77.75 1.308h-.708c-.093-.36-.278-.644-.557-.853s-.6-.316-.994-.316c-.536 0-.962.205-1.277.613s-.468.963-.468 1.663.157 1.253.472 1.662.74.61 1.277.61c.39 0 .722-.092.998-.277a1.31 1.31 0 0 0 .549-.764h.708c-.093.512-.344.92-.754 1.226s-.908.455-1.5.455z" class="B"/><path d="M103.845 613.274v.555h-1.354v3.602h-.666v-3.602h-1.354v-.555h3.374z" class="B"/><path d="M106.065 616.922c.343 0 .627-.1.85-.297s.34-.446.34-.744v-.382l-1.122.073c-.315.02-.546.087-.693.197s-.22.27-.22.482a.59.59 0 0 0 .236.494c.157.118.36.177.607.177zm-.124.583c-.4 0-.747-.112-1.013-.336a1.13 1.13 0 0 1-.395-.902c0-.37.132-.66.395-.872s.638-.33 1.126-.36l1.203-.073v-.378c0-.257-.08-.454-.24-.6s-.395-.204-.704-.204c-.25 0-.458.045-.623.135s-.27.217-.317.38h-.673c.043-.33.215-.6.514-.802s.676-.305 1.122-.305c.506 0 .896.123 1.172.367s.414.584.414 1.018v2.846h-.634v-.613h-.062c-.134.22-.312.39-.534.51s-.472.178-.75.178z" class="B"/><path d="M112.17 613.274v.555h-1.354v3.602h-.665v-3.602h-1.354v-.555h3.373z" class="B"/><path d="M114.592 615.164h-.785v1.712h.785c.273 0 .49-.077.654-.23s.247-.366.247-.625-.082-.467-.247-.62-.38-.235-.654-.235zm-1.45 2.267v-4.157h.666v1.334h.785c.477 0 .858.127 1.14.382s.426.598.426 1.03-.142.775-.426 1.03-.664.38-1.14.38h-1.45z" class="B"/><path d="M117.86 617.43h-.665v-4.157h.665v3.1h.062l2.077-3.1h.666v4.157H120v-3.1h-.06l-2.078 3.1z" class="B"/><path d="M109.916 593.213h-5.24v1.125h5.24v-1.125z" class="B"/><path d="M107.176 595.94h-2.5v1.132h2.5v-1.132z" class="B"/><path d="M106.492 598.663h-1.815v1.128h1.815v-1.128z" class="B"/><path d="M111.51 600.523l-.01-.786-.72.775-.6.6c-.042.042-.08.058-.144.058l-2.63-.002v-.64l-.003-1.987c0-.064.016-.104.067-.155l3.913-3.897c.056-.056.123-.16.123-.264l.003-1.8c-.003-.498-.318-.807-.818-.807h-6.773c-.524 0-.836.312-.836.83v9.482c0 .506.315.82.82.82h6.773c.53 0 .834-.304.836-.83v-1.396zm3.792-5.973c.225.722.062 1.375-.492 1.94l-1.67 1.667-.34.336a.44.44 0 0 0-.145.344l.006 2.98c0 .434-.062.748-.204 1.023-.36.7-.924 1.04-1.678 1.05l-6.973.003c-1.048-.005-1.87-.85-1.874-1.918l-.002-2.65v-6.9c0-.95.628-1.716 1.563-1.9.118-.024.25-.034.4-.034l4.098-.003h2.728c1.067 0 1.882.77 1.94 1.83l.008.525v.51l.123-.018.158-.024.29-.04c.957-.083 1.81.447 2.07 1.29zm-1.31 1.16c.334-.333.342-.796.018-1.124a.77.77 0 0 0-.553-.24h-.003c-.205 0-.406.085-.56.243l-4.244 4.23c-.035.035-.09.104-.094.184l-.002.01v1.026h.76v-.003c.33-.016.556-.197.735-.38l3.943-3.945z" class="B"/><path d="M19 581.735h59v49H19v-49z" class="C"/><path d="M34.602 617.3h-.7v-5.565h3.312v.632h-2.61v4.933z" class="B"/><path d="M38.645 615.476l-.077.632a2.81 2.81 0 0 1-.143.513 1.25 1.25 0 0 1-.224.394.9.9 0 0 1-.329.235 1.13 1.13 0 0 1-.453.085c-.095 0-.177-.014-.244-.042v-.6a.65.65 0 0 0 .209.031c.196 0 .342-.105.437-.316s.16-.526.2-.937l.162-2.318H40.9v4.157h-.665v-3.602h-1.46l-.132 1.778z" class="B"/><path d="M43.512 616.79c.343 0 .627-.1.85-.297s.34-.446.34-.744v-.382l-1.122.073c-.315.02-.546.086-.693.197s-.22.27-.22.482a.59.59 0 0 0 .236.494c.157.118.36.177.607.177zm-.124.583c-.4 0-.748-.112-1.014-.336a1.13 1.13 0 0 1-.395-.903c0-.37.132-.66.395-.87s.638-.33 1.126-.36l1.203-.073v-.378c0-.257-.08-.454-.24-.6s-.395-.205-.704-.205c-.25 0-.458.045-.623.135s-.27.218-.317.382h-.673c.044-.33.215-.6.515-.802s.676-.305 1.122-.305c.505 0 .896.122 1.172.367s.414.583.414 1.018v2.846h-.635v-.613h-.062a1.37 1.37 0 0 1-.534.509c-.222.118-.472.178-.75.178z" class="B"/><path d="M48.356 613.698h-1.017v1.172h.91c.524 0 .785-.198.785-.594 0-.18-.057-.32-.17-.424s-.28-.154-.507-.154zm-.05 1.728h-.967v1.32h1.095c.255 0 .45-.055.58-.166s.2-.275.2-.486c0-.23-.076-.397-.228-.505s-.377-.162-.68-.162zm-1.633 1.874v-4.157h1.768c.39 0 .695.096.917.29s.333.45.333.775c0 .206-.066.393-.197.563s-.3.27-.484.313v.06c.263.036.473.143.63.32s.236.39.236.64c0 .365-.126.655-.38.87s-.602.324-1.048.324h-1.776z" class="B"/><path d="M51.013 617.3v-4.157h.665v1.72h2.08v-1.72h.665v4.157h-.665v-1.882h-2.08v1.882h-.665z" class="B"/><path d="M57.037 616.79c.343 0 .627-.1.85-.297s.34-.446.34-.744v-.382l-1.122.073c-.315.02-.545.086-.692.197s-.22.27-.22.482a.59.59 0 0 0 .236.494c.157.118.36.177.607.177zm-.124.583c-.4 0-.748-.112-1.014-.336a1.13 1.13 0 0 1-.395-.903c0-.37.132-.66.395-.87s.638-.33 1.126-.36l1.203-.073v-.378c0-.257-.08-.454-.24-.6s-.395-.205-.704-.205c-.25 0-.458.045-.623.135s-.27.218-.317.382h-.673c.044-.33.215-.6.515-.802s.676-.305 1.122-.305c.506 0 .896.122 1.172.367s.414.583.414 1.018v2.846h-.635v-.613h-.062a1.37 1.37 0 0 1-.534.509c-.222.118-.472.178-.75.178z" class="B"/><path d="M61.633 615.256h.785v-1.558h-.785c-.276 0-.495.072-.658.216s-.244.338-.244.6c0 .22.083.402.248.544s.383.208.654.208zm.785 2.044v-1.488h-.716L60.64 617.3h-.793L61 615.688a1.32 1.32 0 0 1-.693-.432 1.13 1.13 0 0 1-.252-.737c0-.426.14-.762.422-1.006s.665-.37 1.145-.37h1.45v4.157h-.665z" class="B"/><path d="M42.97 596.267l-.24.2c-.3.233-.668.2-.88-.076s-.172-.644.118-.877l6.058-4.837c.31-.248.568-.256.877-.008l6.013 4.807c.3.244.35.618.13.888-.23.28-.584.302-.897.06l-.187-.137v5.78c0 1.037-.81 1.846-1.85 1.846h-7.268c-1.06 0-1.866-.805-1.866-1.868v-5.51c-.008-.076-.008-.145-.008-.26zm5.494-4.392l-.122.088-4.055 3.26c-.053.042-.095.134-.095.206l-.004 6.633a.6.6 0 0 0 .614.618h1.217v-3.1c.004-.84.65-1.624 1.48-1.735.507-.07 1.026-.042 1.54-.046 1.064-.004 1.862.805 1.862 1.868v3.008h1.156c.427 0 .675-.248.675-.67l.004-6.557c0-.114-.034-.183-.126-.25l-1.846-1.476-2.3-1.845zm1.217 10.792l-.004-3.05c0-.34-.267-.595-.614-.6a54.59 54.59 0 0 0-1.145 0c-.44 0-.683.248-.683.686v2.783l.008.183 2.438-.004z" class="B"/><path fill="#e6e6e6" d="M18.736 581h297.12v1.004H18.736z"/></g><path d="M18.736 627.14h297.12v20.078H18.736z" class="C"/></g><defs><filter id="C" x="0" y="78.105" width="13.97" height="34.474" filterUnits="userSpaceOnUse" class="D"><feFlood result="A" class="E"/><feColorMatrix in="SourceAlpha" values="0 0 0 0 0 0 0 0 0 0 0 0 0 0 0 0 0 0 127 0"/><feOffset dx="-2"/><feGaussianBlur stdDeviation="2.5"/><feColorMatrix values="0 0 0 0 0 0 0 0 0 0 0 0 0 0 0 0 0 0 0.12 0"/><feBlend in2="A"/><feBlend in="SourceGraphic"/></filter><filter id="D" x="0" y="121.526" width="13.97" height="52.632" filterUnits="userSpaceOnUse" class="D"><feFlood result="A" class="E"/><feColorMatrix in="SourceAlpha" values="0 0 0 0 0 0 0 0 0 0 0 0 0 0 0 0 0 0 127 0"/><feOffset dx="-2"/><feGaussianBlur stdDeviation="2.5"/><feColorMatrix values="0 0 0 0 0 0 0 0 0 0 0 0 0 0 0 0 0 0 0.12 0"/><feBlend in2="A"/><feBlend in="SourceGraphic"/></filter><filter id="E" x="0" y="178.368" width="13.97" height="52.632" filterUnits="userSpaceOnUse" class="D"><feFlood result="A" class="E"/><feColorMatrix in="SourceAlpha" values="0 0 0 0 0 0 0 0 0 0 0 0 0 0 0 0 0 0 127 0"/><feOffset dx="-2"/><feGaussianBlur stdDeviation="2.5"/><feColorMatrix values="0 0 0 0 0 0 0 0 0 0 0 0 0 0 0 0 0 0 0.12 0"/><feBlend in2="A"/><feBlend in="SourceGraphic"/></filter><filter id="F" x="316.824" y="140.474" width="13.176" height="80.263" filterUnits="userSpaceOnUse" class="D"><feFlood result="A" class="E"/><feColorMatrix in="SourceAlpha" values="0 0 0 0 0 0 0 0 0 0 0 0 0 0 0 0 0 0 127 0"/><feOffset dx="-2"/><feGaussianBlur stdDeviation="2.5"/><feColorMatrix values="0 0 0 0 0 0 0 0 0 0 0 0 0 0 0 0 0 0 0.12 0"/><feBlend in2="A"/><feBlend in="SourceGraphic"/></filter><filter id="G" x="218.804" y="3.947" width="102.844" height="654.105" filterUnits="userSpaceOnUse" class="D"><feFlood class="E"/><feBlend in="SourceGraphic"/><feGaussianBlur stdDeviation=".5"/></filter><filter id="H" x="8.559" y=".947" width="256.536" height="660.105" filterUnits="userSpaceOnUse" class="D"><feFlood class="E"/><feBlend in="SourceGraphic"/><feGaussianBlur stdDeviation="2"/></filter><filter id="I" x="11" y="241" width="311.274" height="82.293" filterUnits="userSpaceOnUse" class="D"><feFlood result="A" class="E"/><feColorMatrix in="SourceAlpha" values="0 0 0 0 0 0 0 0 0 0 0 0 0 0 0 0 0 0 127 0"/><feOffset dy="5"/><feGaussianBlur stdDeviation="7.5"/><feColorMatrix values="0 0 0 0 0.145098 0 0 0 0 0.0235294 0 0 0 0 0.0313726 0 0 0 0.08 0"/><feBlend in2="A"/><feBlend in="SourceGraphic"/></filter><filter id="J" x="11" y="303" width="311.274" height="82.293" filterUnits="userSpaceOnUse" class="D"><feFlood result="A" class="E"/><feColorMatrix in="SourceAlpha" values="0 0 0 0 0 0 0 0 0 0 0 0 0 0 0 0 0 0 127 0"/><feOffset dy="5"/><feGaussianBlur stdDeviation="7.5"/><feColorMatrix values="0 0 0 0 0.145098 0 0 0 0 0.0235294 0 0 0 0 0.0313726 0 0 0 0.08 0"/><feBlend in2="A"/><feBlend in="SourceGraphic"/></filter><filter id="K" x="21" y="530" width="291.274" height="45.654" filterUnits="userSpaceOnUse" class="D"><feFlood result="A" class="E"/><feColorMatrix in="SourceAlpha" values="0 0 0 0 0 0 0 0 0 0 0 0 0 0 0 0 0 0 127 0"/><feOffset dy="3"/><feGaussianBlur stdDeviation="2.5"/><feColorMatrix values="0 0 0 0 1 0 0 0 0 0.419608 0 0 0 0 0 0 0 0 0.3 0"/><feBlend in2="A"/><feBlend in="SourceGraphic"/></filter><filter id="L" x="-11.264" y="541" width="357.264" height="109.735" filterUnits="userSpaceOnUse" class="D"><feFlood result="A" class="E"/><feColorMatrix in="SourceAlpha" values="0 0 0 0 0 0 0 0 0 0 0 0 0 0 0 0 0 0 127 0"/><feOffset dy="-10"/><feGaussianBlur stdDeviation="15"/><feColorMatrix values="0 0 0 0 0 0 0 0 0 0 0 0 0 0 0 0 0 0 0.07 0"/><feBlend in2="A"/><feBlend in="SourceGraphic"/></filter><filter id="M" x="-8.446" y="554.607" width="351.485" height="93.063" filterUnits="userSpaceOnUse" class="D"><feFlood class="E"/><feGaussianBlur in="BackgroundImage" stdDeviation="13.591"/><feComposite in2="SourceAlpha" operator="in"/><feBlend in="SourceGraphic"/></filter><linearGradient id="N" x1="325.412" y1="509.421" x2="-236.904" y2="625.569" xlink:href="#d"><stop stop-color="#f3f3f8"/><stop offset=".64" stop-color="#f4f4f4"/></linearGradient><linearGradient id="O" x1="166.603" y1="22.712" x2="166.603" y2="19.159" xlink:href="#d"><stop stop-color="#b4babe"/><stop offset=".845" stop-color="#ced1d4" stop-opacity="0"/></linearGradient><linearGradient id="P" x1="200.747" y1="26.855" x2="200.747" y2="17.974" xlink:href="#d"><stop stop-color="#b4babe"/><stop offset=".845" stop-color="#ced1d4" stop-opacity="0"/></linearGradient><linearGradient id="Q" x1="243.228" y1="89.421" x2="442.719" y2="449.909" xlink:href="#d"><stop stop-color="#e8e9ea"/><stop offset=".546" stop-color="#b4b7bb"/><stop offset=".978" stop-color="#b4b7bb" stop-opacity="0"/></linearGradient><linearGradient id="R" x1="117.769" y1="184.553" x2="7.97" y2="213.253" xlink:href="#d"><stop stop-color="#e8e9ea"/><stop offset="1" stop-color="#b4b7bb"/></linearGradient><linearGradient id="S" x1="7.8" y1="631.224" x2="289.088" y2="31.888" xlink:href="#d"><stop stop-color="#fff"/><stop offset="1" stop-color="#fff"/></linearGradient><linearGradient id="T" x1="166.56" y1="291.274" x2="166.801" y2="10" xlink:href="#d"><stop stop-color="#250608" stop-opacity=".8"/><stop offset="1" stop-color="#250608" stop-opacity=".3"/></linearGradient><linearGradient id="U" x1="307.274" y1="550.223" x2="26" y2="550.223" xlink:href="#d"><stop stop-color="#ff8900"/><stop offset="1" stop-color="#ff6b00"/></linearGradient><path id="V" d="M18.5 281.274c0 5.246 4.253 9.5 9.5 9.5h277.12c5.247 0 9.5-4.254 9.5-9.5V10.5H18.5v270.774z"/><path id="W" d="M237.39 96.998c0-6.077 15.262-12.362 15.262-33.287 0-11.878-9.806-22.86-24.654-22.86-8.08 0-12.914 3.246-12.914 3.246s-3.59-3.246-11.74-3.246c-7.528 0-13.536 4.213-14.78 9.807-1.243 5.525 0 7.458.69 10.428.414 1.934-2.763 5.18-3.937 9.116-1.52 5.1 1.243 12.914 12.224 12.154l7.596-.967"/><path id="X" d="M33.388 85.05c2.25 0 4.075-1.824 4.075-4.075s-1.824-4.075-4.075-4.075-4.074 1.824-4.074 4.075 1.824 4.075 4.074 4.075z"/><path id="Y" d="M95.956 40.44c5.524 0 5.524 4.144 11.05 4.144s5.525-4.144 11.05-4.144 5.524 4.144 11.05 4.144 5.525-4.144 11.05-4.144 5.525 4.144 11.05 4.144"/><path id="Z" d="M50.42 268.027c.745 0 1.334.27 1.767.81s.655 1.282.655 2.224-.217 1.68-.65 2.224-1.015.81-1.756.81c-.42 0-.786-.086-1.1-.258s-.542-.42-.693-.73h-.09v2.847H47.22v-7.83h1.284v.972h.09c.168-.333.414-.594.736-.784s.69-.285 1.1-.285zm-.42 4.936c.462 0 .822-.168 1.08-.505s.392-.802.392-1.396-.13-1.06-.392-1.396-.616-.505-1.074-.505-.815.17-1.08.5-.4.804-.403 1.39c.004.587.136 1.05.397 1.39s.625.5 1.08.5z"/><path id="a" d="M56.66 269.064c-.398 0-.725.13-.983.392s-.4.607-.43 1.037h2.766c-.014-.437-.143-.785-.387-1.042s-.566-.387-.967-.387zm1.364 3.32h1.262a2.04 2.04 0 0 1-.886 1.273c-.462.308-1.037.462-1.724.462-.863 0-1.54-.268-2.036-.806s-.736-1.283-.736-2.23.247-1.693.74-2.245 1.167-.832 2.02-.832c.838 0 1.493.263 1.966.79s.714 1.248.714 2.176v.43H55.24v.07c.018.49.158.88.42 1.166s.616.424 1.053.424c.673 0 1.1-.226 1.31-.677z"/><path id="b" d="M76.933 268.027c.745 0 1.334.27 1.767.81s.655 1.282.655 2.224-.217 1.68-.65 2.224-1.015.81-1.756.81c-.42 0-.786-.086-1.1-.258s-.542-.42-.693-.73h-.09v2.847h-1.332v-7.83h1.284v.972h.09c.168-.333.414-.594.736-.784s.69-.285 1.1-.285zm-.42 4.936c.462 0 .822-.168 1.08-.505s.392-.802.392-1.396-.13-1.06-.392-1.396-.616-.505-1.074-.505-.815.17-1.08.5-.4.804-.403 1.39c.004.587.136 1.05.397 1.39s.625.5 1.08.5z"/><path id="c" d="M46.768 282.064c-.397 0-.725.13-.983.392s-.4.607-.43 1.037h2.766c-.014-.437-.143-.785-.387-1.042s-.566-.387-.967-.387zm1.364 3.32h1.262a2.04 2.04 0 0 1-.886 1.273c-.462.308-1.037.462-1.724.462-.863 0-1.54-.268-2.036-.806s-.736-1.283-.736-2.23.247-1.693.74-2.245 1.167-.832 2.02-.832c.838 0 1.493.263 1.966.79s.714 1.248.714 2.176v.43H45.35v.07c.018.49.158.88.42 1.166s.616.424 1.053.424c.673 0 1.1-.226 1.31-.677z"/><linearGradient id="d" gradientUnits="userSpaceOnUse"/></defs></svg>