<svg width="50" height="50" viewBox="0 0 50 50" fill="none" xmlns="http://www.w3.org/2000/svg">
<g filter="url(#filter0_d)">
<rect x="5" y="2" width="40" height="40" rx="14" fill="url(#paint0_linear)"/>
</g>
<path d="M36.4364 15.856C34.7603 12.8269 32.0341 10.6258 28.702 9.67668C21.8562 7.67748 14.667 11.6355 12.6678 18.4813C10.6887 25.327 14.6468 32.5161 21.4927 34.5153C22.6841 34.8586 23.8958 35.0403 25.1074 35.0403C27.2682 35.0403 29.3886 34.4951 31.3273 33.4248C34.3564 31.7487 36.5576 29.0225 37.5067 25.6905C38.4962 22.3787 38.0923 18.8851 36.4364 15.856ZM36.3354 25.3876C25.067 23.449 18.5241 27.2454 15.919 29.3456C15.7575 29.1235 15.5959 28.9215 15.4344 28.6994C17.5144 26.9223 24.7843 21.6719 36.7797 22.8432C36.7191 23.6913 36.5778 24.5193 36.3354 25.3472C36.3354 25.3674 36.3354 25.3674 36.3354 25.3876ZM16.747 30.2745C19.2107 28.3763 25.4104 24.8222 35.9316 26.5588C35.6085 27.3464 35.2046 28.0734 34.7401 28.76C25.5113 26.8012 20.0589 29.0427 17.373 30.8602C17.1509 30.6784 16.9288 30.4765 16.747 30.2745ZM29.3078 21.6719C31.8725 19.0467 35.144 18.6226 36.2749 18.562C36.598 19.5515 36.7595 20.5814 36.8201 21.6113C34.0535 21.3488 31.5494 21.4094 29.3078 21.6719ZM25.1074 10.3835C26.1777 10.3835 27.2682 10.5248 28.3587 10.8479C31.3677 11.7163 33.8516 13.7155 35.3459 16.4417C35.5075 16.7446 35.6488 17.0475 35.7902 17.3504C34.0535 17.5119 30.1762 18.2591 27.45 21.9344C25.0469 22.3585 22.9668 23.0249 21.1897 23.7721C21.5129 22.6816 21.9571 21.7123 22.4216 20.9247C22.7851 20.9853 23.1688 21.0055 23.5323 21.0055C25.3094 21.0055 26.9451 20.3189 28.0962 19.0467C29.6108 17.3908 30.055 15.0281 29.3078 12.726L29.1867 12.3625L28.803 12.2817C26.4403 11.7365 24.1179 12.4029 22.6033 14.0386C21.109 15.6743 20.6445 17.9966 21.3715 20.2987C20.7253 21.4094 20.1195 22.7826 19.756 24.4183C17.3326 25.5895 15.6767 26.8416 14.7478 27.6291C14.6468 27.4272 14.5458 27.2454 14.4449 27.0435C21.0888 21.8738 19.4732 14.4828 18.7866 12.2413C20.6445 11.0499 22.8457 10.3835 25.1074 10.3835ZM24.5218 17.3504L24.1381 16.8859C24.0775 16.9465 23.3505 17.5523 22.4822 18.6832C22.3408 17.2696 22.7649 15.9368 23.6736 14.9473C24.7641 13.7559 26.4201 13.2308 28.1568 13.5135C28.5808 15.23 28.2174 16.9263 27.1269 18.1178C26.1777 19.1678 24.7843 19.6929 23.29 19.6121C24.1583 18.4409 24.8853 17.8149 24.9055 17.7947L24.5218 17.3504ZM17.7365 13.0087C18.3827 15.331 19.3925 21.4094 14.0208 25.8319C13.94 25.5693 13.8592 25.3068 13.7785 25.0241C16.8076 21.2882 16.848 17.2494 16.3027 14.3819C16.7268 13.877 17.2115 13.4126 17.7365 13.0087ZM13.8592 18.8246C14.1823 17.6937 14.667 16.6638 15.2728 15.7349C15.5152 17.9562 15.2526 20.7026 13.4755 23.3682C13.2938 21.894 13.415 20.3391 13.8592 18.8246ZM21.836 33.344C21.5129 33.243 21.1897 33.1421 20.8666 33.0209C22.9668 32.2939 26.0162 31.8699 30.2974 32.5968C27.6721 33.8893 24.6834 34.1518 21.836 33.344ZM31.8927 31.6275C25.794 30.3149 21.8158 31.1227 19.3319 32.2737C19.0088 32.092 18.6857 31.8901 18.4029 31.6881C19.0895 31.2438 19.9579 30.7996 21.0282 30.3957C23.6131 29.4264 27.8337 28.659 33.8919 29.8505C33.2861 30.5169 32.6197 31.1025 31.8927 31.6275Z" fill="white" stroke="white" stroke-width="0.2"/>
<defs>
<filter id="filter0_d" x="0" y="0" width="50" height="50" filterUnits="userSpaceOnUse" color-interpolation-filters="sRGB">
<feFlood flood-opacity="0" result="BackgroundImageFix"/>
<feColorMatrix in="SourceAlpha" type="matrix" values="0 0 0 0 0 0 0 0 0 0 0 0 0 0 0 0 0 0 127 0"/>
<feOffset dy="3"/>
<feGaussianBlur stdDeviation="2.5"/>
<feColorMatrix type="matrix" values="0 0 0 0 1 0 0 0 0 0.419608 0 0 0 0 0 0 0 0 0.3 0"/>
<feBlend mode="normal" in2="BackgroundImageFix" result="effect1_dropShadow"/>
<feBlend mode="normal" in="SourceGraphic" in2="effect1_dropShadow" result="shape"/>
</filter>
<linearGradient id="paint0_linear" x1="37.1503" y1="34.7026" x2="12.2975" y2="9.84978" gradientUnits="userSpaceOnUse">
<stop stop-color="#FF8900"/>
<stop offset="1" stop-color="#FF6B00"/>
</linearGradient>
</defs>
</svg>
