<svg xmlns="http://www.w3.org/2000/svg" xmlns:xlink="http://www.w3.org/1999/xlink" width="163" height="50" fill="none" xmlns:v="https://vecta.io/nano"><path d="M27.836 13.93c1.1-1.376 1.903-3.27 1.696-5.18-1.645.06-3.603 1.086-4.77 2.472-1.05 1.193-1.963 3.162-1.702 5.013 1.788.12 3.625-.92 4.776-2.306zm4.762 14.64l-.026-.05c-.512-1.033-.746-2.65-.55-3.957v-.05h.001c.205-1.713 1.307-3.467 2.188-4.103l.035-.026v-.004h.002c.195-.216.752-.663 1.128-.935-1.4-2.047-3.663-3.15-5.98-3.186-2.336-.196-4.76 1.48-6.066 1.442-1.264.038-3.175-1.475-5.2-1.38l-.02-.003-.408.02c-2.672.066-5.04 1.643-6.385 4.033v.008h-.008v-.008c-.532.862-1.17 2.87-1.265 4.14v.068c-.13.806-.004 2.956.14 4 .006.018.008.037.01.05l.003-.002c.113 1.03.635 3.02 1.027 3.994v.008h-.002c.376 1.076 1.426 3.093 2.104 4.125v.008h.007c1.37 1.97 2.982 4.182 5.107 4.087 2.053-.078 2.8-1.366 5.282-1.346 2.472-.02 3.156 1.285 5.322 1.294 2.208-.095 3.577-2.063 4.947-4.035.67-1.016 1.723-2.97 2.095-4.132h.005l.148-.448c-1.452-.413-3.082-2.328-3.652-3.604z" fill-rule="evenodd" fill="#fff"/><path d="M43.623 10.385h3.02c1.306 0 2.325.4 3.058 1.166s1.1 1.85 1.1 3.235-.366 2.47-1.1 3.247-1.748 1.16-3.058 1.16h-3.02v-8.807zm1.1 1v6.83h1.85c.98 0 1.744-.3 2.3-.897s.818-1.434.818-2.5-.275-1.92-.824-2.52-1.306-.903-2.283-.903h-1.85zm9.11 6.345c.338.427.818.64 1.44.64s1.103-.214 1.44-.64.507-1.038.507-1.82-.17-1.386-.507-1.813-.818-.647-1.44-.647-1.103.216-1.44.647-.507 1.03-.507 1.813.17 1.387.507 1.82zm3.656.677c-.54.606-1.28.9-2.215.9s-1.677-.303-2.222-.9-.812-1.442-.812-2.496.27-1.9.812-2.496 1.282-.9 2.222-.9 1.68.303 2.222.9.812 1.438.812 2.496-.273 1.886-.818 2.496zm10.498-5.785l-1.843 6.58h-1.068l-1.47-5.1h-.098l-1.465 5.1H60.98l-1.843-6.58H60.2l1.294 5.26h.098l1.47-5.26h1.007l1.47 5.26h.098l1.294-5.26h1.056zm1.404 6.58v-6.58h1v1.038h.098c.35-.77 1-1.154 1.978-1.154.737 0 1.304.212 1.703.635s.598 1.02.598 1.8v4.26h-1.05v-4.004c0-.6-.128-1.027-.385-1.312s-.64-.433-1.166-.433-.95.167-1.263.5-.464.78-.464 1.355v3.894h-1.05zm7.36 0V10h1.05v9.192h-1.05zm4.352-1.472c.338.427.818.64 1.44.64s1.103-.214 1.44-.64.507-1.038.507-1.82-.17-1.386-.507-1.813-.818-.647-1.44-.647-1.103.216-1.44.647-.507 1.03-.507 1.813.17 1.387.507 1.82zm3.656.677c-.54.606-1.28.9-2.216.9s-1.676-.303-2.222-.9-.812-1.442-.812-2.496.27-1.9.812-2.496 1.282-.9 2.222-.9 1.68.303 2.222.9.812 1.438.812 2.496-.273 1.886-.818 2.496zm4.492-.01c.54 0 1-.157 1.343-.47a1.5 1.5 0 0 0 .537-1.178v-.604l-1.77.116c-.496.033-.86.136-1.092.3s-.348.43-.348.763.124.6.372.78.568.28.958.28zm-.195.922c-.647 0-1.18-.177-1.6-.53s-.623-.834-.623-1.428c0-.586.208-1.046.623-1.38s1.007-.523 1.776-.568l1.898-.116v-.598c0-.407-.126-.718-.378-.934s-.623-.324-1.1-.324c-.395 0-.722.07-.983.214s-.427.344-.5.604H87.1c.07-.525.34-.948.812-1.27s1.066-.482 1.77-.482c.797 0 1.414.193 1.85.58s.653.924.653 1.6V19.2h-1v-.97h-.098c-.212.35-.492.62-.842.806a2.47 2.47 0 0 1-1.184.281zm7.502 0c-.842 0-1.514-.3-2.014-.928s-.75-1.444-.75-2.478.25-1.853.75-2.472 1.176-.934 2.014-.934c.46 0 .87.104 1.233.3a2.05 2.05 0 0 1 .83.842h.092V10h1.05v9.192h-1v-1.05h-.098a2.23 2.23 0 0 1-.867.861 2.53 2.53 0 0 1-1.239.305zm.244-5.866c-.598 0-1.068.22-1.4.66s-.513 1.036-.513 1.8.17 1.37.507 1.807.814.653 1.416.653 1.07-.22 1.416-.66.52-1.04.52-1.8c0-.753-.175-1.35-.525-1.794s-.816-.665-1.4-.665zm9.79 4.278c.338.427.818.64 1.44.64s1.103-.214 1.44-.64.506-1.038.506-1.82-.168-1.386-.506-1.813-.818-.647-1.44-.647-1.102.216-1.44.647-.507 1.03-.507 1.813.17 1.387.507 1.82zm3.656.677c-.54.606-1.28.9-2.216.9s-1.676-.303-2.22-.9S105 16.955 105 15.9s.27-1.9.812-2.496 1.282-.9 2.22-.9 1.68.303 2.222.9.812 1.438.812 2.496-.273 1.886-.818 2.496zm2.466.795v-6.58h1v1.038h.097c.35-.77 1-1.154 1.978-1.154.737 0 1.304.212 1.703.635s.598 1.02.598 1.8v4.26h-1.05v-4.004c0-.6-.128-1.027-.384-1.312s-.64-.433-1.166-.433-.95.167-1.263.5-.464.78-.464 1.355v3.894h-1.05zm11.267-8.282h1.05v1.703h1.465v.88h-1.465v3.723c0 .386.077.667.232.842s.403.262.744.262l.5-.024v.885a3.62 3.62 0 0 1-.617.061c-.68 0-1.166-.136-1.46-.4s-.44-.722-.44-1.35V13.5h-1.062v-.88h1.062v-1.7zm4.163 8.282V10h1.05v3.65h.098a1.83 1.83 0 0 1 .763-.854c.343-.2.767-.3 1.263-.3.7 0 1.254.216 1.66.647s.6 1.023.6 1.788v4.26h-1.05v-4.004c0-1.164-.507-1.746-1.52-1.746-.578 0-1.027.17-1.35.507-.317.334-.476.783-.476 1.35v3.894h-1.05zm9.985-5.768c-.525 0-.956.177-1.294.53s-.527.822-.568 1.404h3.626c-.012-.582-.18-1.05-.5-1.404s-.742-.53-1.263-.53zm1.733 4.065h1.05a2.29 2.29 0 0 1-.97 1.337c-.488.322-1.085.482-1.8.482-.9 0-1.634-.305-2.167-.916s-.8-1.442-.8-2.484.268-1.866.805-2.484 1.258-.928 2.16-.928c.887 0 1.585.295 2.094.885s.763 1.398.763 2.423v.403h-4.73v.05c.03.65.212 1.168.55 1.55s.8.574 1.35.574c.85 0 1.416-.297 1.696-.9zm-85.18 21.703l-1.34-4.054H47.5l-1.362 4.054H43.28l5.625-15.853h3.186l5.636 15.853h-3.043zm-4.34-12.832l-2.175 6.537h4.515L50.53 26.36h-.187z" fill="#fff"/><use xlink:href="#B" fill="#fff"/><use xlink:href="#B" x="14.238" fill="#fff"/><path d="M94.202 34.885h2.77c.088.7.458 1.278 1.1 1.703.652.418 1.48.626 2.483.626.937 0 1.706-.212 2.307-.637.608-.432.912-.98.912-1.648 0-.57-.23-1.036-.692-1.395-.455-.36-1.2-.656-2.2-.9l-2.054-.472c-1.435-.322-2.5-.846-3.197-1.57-.7-.732-1.033-1.688-1.033-2.867 0-1.443.538-2.6 1.615-3.472 1.084-.88 2.512-1.318 4.285-1.318 1.662 0 3.04.432 4.13 1.296s1.67 1.977 1.736 3.34h-2.714a2.36 2.36 0 0 0-1-1.66c-.57-.4-1.293-.615-2.164-.615-.916 0-1.652.205-2.208.615a1.9 1.9 0 0 0-.824 1.615 1.58 1.58 0 0 0 .648 1.307c.432.33 1.14.608 2.12.835l1.824.417c1.604.36 2.765.894 3.483 1.604.725.7 1.087 1.67 1.087 2.878 0 1.545-.56 2.77-1.68 3.67-1.113.893-2.63 1.34-4.548 1.34-1.816 0-3.285-.425-4.406-1.274-1.113-.85-1.706-1.992-1.78-3.428zm16.183-10.655h2.713v3.02h2.57v2.175h-2.57v5.9c0 .593.132 1.03.396 1.307.263.27.68.407 1.252.407a9.52 9.52 0 0 0 .923-.055v2.13a7.5 7.5 0 0 1-1.428.132c-1.377 0-2.366-.253-2.967-.758-.593-.505-.9-1.34-.9-2.505v-6.56h-1.9V27.25h1.9v-3.02zm10.875 11.886c.52.7 1.256 1.033 2.208 1.033s1.685-.344 2.198-1.033c.52-.696.78-1.674.78-2.933 0-1.253-.26-2.227-.78-2.922s-1.253-1.044-2.198-1.044c-.952 0-1.688.348-2.208 1.044s-.78 1.67-.78 2.922c0 1.26.26 2.237.78 2.933zm2.208 3.318c-1.802 0-3.215-.553-4.24-1.66-1.026-1.113-1.54-2.644-1.54-4.592 0-1.934.517-3.457 1.55-4.57 1.032-1.12 2.442-1.68 4.23-1.68 1.795 0 3.205.557 4.23 1.67 1.033 1.113 1.55 2.64 1.55 4.58 0 1.948-.516 3.48-1.55 4.592-1.025 1.106-2.435 1.66-4.23 1.66zm8.527-.242v-12.02h2.625v1.868h.187c.17-.6.546-1.095 1.132-1.483.593-.388 1.274-.582 2.043-.582.5 0 .868.04 1.132.12v2.527c-.28-.103-.744-.154-1.395-.154-.887 0-1.608.256-2.165.77-.556.505-.835 1.176-.835 2v6.943h-2.724zM146.1 29.096c-.813 0-1.483.267-2 .802s-.82 1.24-.88 2.12h5.658c-.03-.893-.293-1.604-.8-2.13s-1.158-.8-1.978-.8zm2.8 6.8h2.58c-.256 1.1-.86 1.967-1.812 2.604-.945.63-2.12.945-3.527.945-1.765 0-3.153-.55-4.164-1.648-1.003-1.106-1.505-2.626-1.505-4.56s.505-3.464 1.516-4.592c1-1.135 2.388-1.703 4.13-1.703 1.714 0 3.054.538 4.02 1.615.974 1.07 1.46 2.553 1.46 4.45v.88H143.2v.143c.036 1.004.322 1.798.857 2.384.542.58 1.26.868 2.153.868 1.377 0 2.27-.46 2.68-1.384z" fill="#fff"/><defs ><path id="B" d="M66.714 26.975c1.523 0 2.728.553 3.615 1.66.894 1.106 1.34 2.622 1.34 4.548 0 1.92-.443 3.435-1.33 4.548-.88 1.106-2.076 1.66-3.593 1.66-.857 0-1.608-.176-2.252-.527-.637-.36-1.1-.857-1.417-1.494h-.187v5.823h-2.725V27.173h2.626v1.99h.187a3.83 3.83 0 0 1 1.505-1.604c.666-.388 1.4-.582 2.23-.582zm-.857 10.096c.945 0 1.68-.344 2.208-1.033.535-.69.802-1.64.802-2.856s-.267-2.168-.802-2.857c-.527-.688-1.26-1.033-2.197-1.033-.93 0-1.666.348-2.208 1.044s-.817 1.644-.824 2.846c.007 1.2.278 2.15.813 2.845.542.696 1.278 1.044 2.208 1.044z"/></defs></svg>