<svg xmlns="http://www.w3.org/2000/svg" width="163" height="50" fill="none" xmlns:v="https://vecta.io/nano"><g fill-rule="evenodd" fill="#fff"><path d="M31.308 20.732L12.382 10.297c-.537-.294-1.032-.363-1.433-.238l15.503 15.542 4.856-4.87z"/><path d="M31.333 30.496l6.46-3.562c1.3-.725 1.3-1.904 0-2.627l-6.485-3.575-4.857 4.87 4.88 4.894z"/><path d="M10.948 10.06c-.576.18-.948.765-.948 1.65l.004 27.824c0 .874.36 1.45.92 1.642l15.528-15.57L10.948 10.06z"/><path d="M10.923 41.174c.404.137.908.073 1.458-.23l18.95-10.448-4.88-4.892-15.528 15.57z"/></g><path d="M51.014 15.975c0 1.087-.342 1.96-1.025 2.625s-1.6 1-2.716 1c-1.217 0-2.187-.417-2.9-1.25s-1.08-1.955-1.08-3.363c0-1.392.364-2.506 1.093-3.345s1.695-1.263 2.9-1.263c.976 0 1.794.254 2.454.763s1.074 1.198 1.233 2.07h-1.117c-.2-.594-.505-1.046-.94-1.355s-.98-.464-1.63-.464c-.87 0-1.567.325-2.087.977s-.775 1.524-.775 2.618c0 1.1.256 2 .77 2.637s1.217.964 2.1.964c.8 0 1.426-.23 1.9-.7s.732-1.062.732-1.807v-.214h-2.478V14.9h3.57v1.074zm4.438-2.362c-.525 0-.956.177-1.294.53s-.527.822-.568 1.404h3.626c-.012-.582-.18-1.05-.5-1.404s-.743-.53-1.263-.53zm1.733 4.065h1.05a2.28 2.28 0 0 1-.971 1.337c-.484.32-1.084.482-1.8.482-.912 0-1.634-.305-2.167-.916s-.8-1.442-.8-2.484.27-1.866.806-2.484 1.257-.928 2.16-.928c.887 0 1.585.295 2.093.885s.763 1.398.763 2.423v.403H53.6v.05c.03.65.212 1.168.55 1.55s.8.574 1.35.574c.85 0 1.416-.297 1.697-.9zm3.223-6.578h1.05v1.703h1.465v.88h-1.465v3.723c0 .386.077.667.232.842s.403.262.745.262l.488-.024v.885c-.232.04-.437.06-.617.06-.68 0-1.166-.136-1.46-.4s-.44-.722-.44-1.35v-3.99h-1.062v-.88h1.062v-1.7zm7.654 8.28V12.8h1.05v6.58h-1.05zm1.044-8.13c-.142.142-.315.214-.52.214s-.376-.07-.52-.214a.72.72 0 0 1-.214-.519.7.7 0 0 1 .214-.513.7.7 0 0 1 .52-.22c.205 0 .376.073.52.22a.7.7 0 0 1 .214.513.72.72 0 0 1-.214.519zm2.447-.15h1.05v1.703h1.465v.88h-1.465v3.723c0 .386.077.667.232.842s.403.262.745.262l.488-.024v.885c-.232.04-.437.06-.617.06-.68 0-1.166-.136-1.46-.4s-.44-.722-.44-1.35v-3.99H70.5v-.88h1.062v-1.7zm8.893 6.8c.338.427.818.64 1.44.64s1.103-.214 1.44-.64.507-1.038.507-1.82-.17-1.386-.507-1.813-.818-.647-1.44-.647-1.103.216-1.44.647-.507 1.03-.507 1.813.17 1.387.507 1.82zm3.656.677c-.54.606-1.28.9-2.216.9s-1.676-.303-2.222-.9-.812-1.442-.812-2.496.27-1.9.812-2.496 1.282-.9 2.222-.9 1.68.303 2.222.9.812 1.438.812 2.496-.273 1.886-.818 2.496zm2.465.803V12.8h1v1.038h.098c.35-.77 1-1.154 1.978-1.154.736 0 1.304.212 1.703.635s.598 1.02.598 1.8v4.26h-1.05v-4.004c0-.6-.128-1.027-.385-1.312s-.64-.433-1.166-.433-.95.167-1.263.5-.464.78-.464 1.355v3.894h-1.05zm-29.27 14.004c0 1.944-.6 3.493-1.774 4.648-1.183 1.148-2.774 1.722-4.773 1.722-2.172 0-3.887-.702-5.146-2.106-1.26-1.4-1.888-3.33-1.888-5.76 0-2.393.633-4.3 1.9-5.717 1.266-1.425 2.964-2.137 5.095-2.137 1.73 0 3.178.457 4.348 1.37s1.875 2.134 2.117 3.663h-2.667c-.27-.85-.733-1.505-1.4-1.96-.65-.457-1.453-.685-2.407-.685-1.307 0-2.345.488-3.113 1.463-.76.975-1.14 2.303-1.14 3.984 0 1.702.387 3.044 1.162 4.026.782.982 1.84 1.473 3.175 1.473 1.14 0 2.068-.318 2.78-.955s1.08-1.47 1.1-2.5l.01-.3h-3.6v-2.096H57.3v1.878zm4.404 3.092c.5.65 1.186.975 2.086.975s1.6-.325 2.075-.975c.5-.657.737-1.58.737-2.77 0-1.183-.246-2.103-.737-2.76s-1.183-.986-2.075-.986c-.9 0-1.594.33-2.086.986s-.737 1.577-.737 2.76c0 1.2.245 2.113.737 2.77zm2.086 3.134c-1.702 0-3.037-.522-4.005-1.567s-1.453-2.497-1.453-4.337c0-1.826.488-3.265 1.463-4.316.975-1.058 2.307-1.587 3.995-1.587 1.695 0 3.026.526 3.995 1.577.975 1.05 1.463 2.494 1.463 4.327 0 1.84-.488 3.286-1.463 4.337-.968 1.044-2.3 1.567-3.995 1.567zm9.614-3.134c.5.65 1.186.975 2.086.975s1.6-.325 2.075-.975c.5-.657.737-1.58.737-2.77 0-1.183-.246-2.103-.737-2.76s-1.183-.986-2.075-.986c-.9 0-1.594.33-2.086.986s-.737 1.577-.737 2.76c0 1.2.246 2.113.737 2.77zm2.086 3.134c-1.702 0-3.037-.522-4.005-1.567s-1.453-2.497-1.453-4.337c0-1.826.488-3.265 1.463-4.316.975-1.058 2.307-1.587 3.995-1.587 1.695 0 3.026.526 3.995 1.577.975 1.05 1.463 2.494 1.463 4.327 0 1.84-.488 3.286-1.463 4.337-.968 1.044-2.3 1.567-3.995 1.567zm13.784-3.445c.512-.636.768-1.498.768-2.584s-.256-1.947-.768-2.584c-.512-.643-1.214-.965-2.106-.965-.885 0-1.577.318-2.075.955-.5.636-.737 1.5-.737 2.594s.246 1.958.737 2.594c.5.63 1.183.944 2.075.944s1.594-.318 2.106-.955zm-2.106 7.533c-1.446 0-2.622-.294-3.528-.882-.9-.588-1.4-1.373-1.504-2.355h2.584c.083.394.342.706.778.934.443.228 1.013.343 1.712.343.88 0 1.563-.197 2.055-.6s.737-.948.737-1.66V37.34h-.176a3.35 3.35 0 0 1-1.39 1.401c-.595.318-1.287.477-2.075.477-1.425 0-2.556-.508-3.393-1.525-.837-1.024-1.256-2.393-1.256-4.1 0-1.743.422-3.134 1.266-4.17.844-1.044 1.985-1.567 3.424-1.567.775 0 1.477.18 2.106.54s1.1.847 1.4 1.463h.176v-1.82h2.48v11.393c0 1.314-.488 2.355-1.463 3.123s-2.3 1.152-3.943 1.152zM94.6 39.38V23.64h2.573v15.74H94.6zm9.343-9.534c-.768 0-1.4.252-1.9.757s-.775 1.172-.83 2.003h5.343c-.027-.844-.276-1.515-.747-2.013s-1.093-.747-1.867-.747zm2.635 6.412h2.438a3.94 3.94 0 0 1-1.712 2.459c-.892.595-2.002.892-3.33.892-1.667 0-2.978-.52-3.933-1.556-.948-1.044-1.42-2.48-1.42-4.306s.477-3.272 1.432-4.337c.954-1.072 2.255-1.608 3.9-1.608 1.62 0 2.884.508 3.797 1.525.92 1 1.38 2.4 1.38 4.202v.83h-7.927v.135c.035.948.305 1.698.8 2.252.5.546 1.2.82 2.033.82 1.3 0 2.145-.436 2.532-1.307zm14.485-8.415c1.44 0 2.577.522 3.414 1.567.844 1.044 1.266 2.476 1.266 4.296 0 1.812-.418 3.244-1.255 4.296-.83 1.044-1.962 1.567-3.393 1.567-.8 0-1.52-.166-2.127-.498-.602-.34-1.048-.8-1.34-1.4h-.176v5.5h-2.574V28.03h2.48v1.878h.177a3.62 3.62 0 0 1 1.421-1.515 4.11 4.11 0 0 1 2.106-.55zm-.8 9.536c.892 0 1.588-.325 2.086-.975.505-.65.757-1.55.757-2.698s-.252-2.047-.757-2.698c-.498-.65-1.2-.975-2.075-.975-.88 0-1.574.33-2.086.986s-.77 1.553-.778 2.687c.007 1.135.263 2.03.768 2.687.5.657 1.207.986 2.085.986zm6.927 2V23.64h2.574v15.74h-2.574zm8.462-1.835c.775 0 1.422-.22 1.94-.664.518-.45.778-1.003.778-1.66v-.903l-2.563.166c-1.4.1-2.117.602-2.117 1.536 0 .47.18.844.54 1.12.366.27.84.405 1.42.405zm-.757 2.023c-1.107 0-2-.3-2.708-.934s-1.048-1.446-1.048-2.47.37-1.826 1.1-2.407c.747-.58 1.812-.913 3.196-.996l2.926-.176v-.955c0-.56-.183-1-.55-1.287s-.896-.446-1.588-.446c-.594 0-1.086.104-1.473.3-.387.2-.64.5-.757.872h-2.428c.103-1.003.588-1.8 1.452-2.387.872-.595 1.982-.892 3.33-.892 1.453 0 2.573.335 3.362 1.006.795.67 1.193 1.612 1.193 2.822v7.75h-2.48v-1.556h-.176a3.33 3.33 0 0 1-1.37 1.287c-.588.304-1.252.457-1.992.457zm8.763 3.932c-.533 0-.872-.014-1.017-.04v-2.106c.13.028.366.04.705.04.547 0 .98-.114 1.297-.342.326-.228.57-.602.737-1.12l.135-.498-4.057-11.403h2.822l2.657 8.86h.176l2.646-8.86h2.718l-4.098 11.715c-.478 1.404-1.065 2.38-1.764 2.926-.692.553-1.678.83-2.957.83z" fill="#fff"/></svg>