<svg width="160" height="60" viewBox="0 0 160 60" fill="none" xmlns="http://www.w3.org/2000/svg">
<path d="M78.0371 34H71.709V19.9082H77.8711C79.2318 19.9082 80.2995 20.2207 81.0742 20.8457C81.849 21.4707 82.2363 22.3301 82.2363 23.4238C82.2363 24.1725 81.9922 24.8333 81.5039 25.4062C81.0156 25.9792 80.4102 26.321 79.6875 26.4316V26.6074C80.6185 26.679 81.3867 27.0306 81.9922 27.6621C82.6042 28.2936 82.9102 29.0618 82.9102 29.9668C82.9102 31.2038 82.474 32.1868 81.6016 32.916C80.7292 33.6387 79.541 34 78.0371 34ZM74.6582 22.1641V25.748H76.875C77.6693 25.748 78.278 25.5918 78.7012 25.2793C79.1243 24.9668 79.3359 24.5273 79.3359 23.9609C79.3359 23.3945 79.1406 22.9551 78.75 22.6426C78.3659 22.3236 77.8223 22.1641 77.1191 22.1641H74.6582ZM74.6582 31.7441H77.2852C78.1315 31.7441 78.7793 31.5716 79.2285 31.2266C79.6777 30.875 79.9023 30.3704 79.9023 29.7129C79.9023 29.0684 79.6712 28.5801 79.209 28.248C78.7533 27.9095 78.0892 27.7402 77.2168 27.7402H74.6582V31.7441ZM89.7512 25.1719C89.0936 25.1719 88.55 25.3835 88.1203 25.8066C87.6971 26.2298 87.4595 26.7897 87.4074 27.4863H91.9973C91.9647 26.7702 91.7466 26.207 91.343 25.7969C90.9458 25.3802 90.4152 25.1719 89.7512 25.1719ZM92.0559 30.9336H94.7023C94.4875 31.9557 93.9406 32.763 93.0617 33.3555C92.1893 33.9414 91.0956 34.2344 89.7805 34.2344C88.1398 34.2344 86.8605 33.7461 85.9426 32.7695C85.0246 31.7865 84.5656 30.4193 84.5656 28.668C84.5656 26.9167 85.0279 25.5332 85.9523 24.5176C86.8768 23.502 88.1398 22.9941 89.7414 22.9941C91.3299 22.9941 92.5669 23.4727 93.4523 24.4297C94.3443 25.3867 94.7902 26.7214 94.7902 28.4336V29.3027H87.3977V29.4492C87.4172 30.25 87.6451 30.8848 88.0813 31.3535C88.524 31.8158 89.1164 32.0469 89.8586 32.0469C90.4185 32.0469 90.8872 31.9525 91.2648 31.7637C91.6424 31.5684 91.9061 31.2917 92.0559 30.9336ZM97.7348 20.6699H100.577V23.3359H102.813V25.5723H100.577V30.416C100.577 30.8848 100.687 31.2298 100.909 31.4512C101.136 31.6725 101.491 31.7832 101.973 31.7832C102.292 31.7832 102.572 31.7702 102.813 31.7441V33.9121C102.377 33.9967 101.901 34.0391 101.387 34.0391C100.079 34.0391 99.141 33.8112 98.5746 33.3555C98.0147 32.8997 97.7348 32.1445 97.7348 31.0898V25.5723H96.0551V23.3359H97.7348V20.6699ZM108.873 32.0273C109.53 32.0273 110.08 31.8418 110.523 31.4707C110.966 31.0996 111.187 30.6406 111.187 30.0938V29.3027L109.009 29.4395C107.798 29.5241 107.193 29.957 107.193 30.7383C107.193 31.1354 107.346 31.4512 107.652 31.6855C107.964 31.9134 108.371 32.0273 108.873 32.0273ZM107.935 34.166C106.893 34.166 106.044 33.8698 105.386 33.2773C104.735 32.6849 104.41 31.9004 104.41 30.9238C104.41 29.9538 104.768 29.1921 105.484 28.6387C106.207 28.0788 107.239 27.7598 108.58 27.6816L111.187 27.5254V26.6465C111.187 26.1973 111.031 25.8522 110.718 25.6113C110.406 25.3639 109.957 25.2402 109.371 25.2402C108.316 25.2402 107.668 25.5723 107.427 26.2363H104.81C104.901 25.2402 105.37 24.4525 106.216 23.873C107.069 23.2871 108.173 22.9941 109.527 22.9941C110.946 22.9941 112.043 23.3132 112.818 23.9512C113.599 24.5892 113.99 25.4876 113.99 26.6465V34H111.236V32.5938H111.06C110.78 33.0885 110.364 33.4759 109.81 33.7559C109.257 34.0293 108.632 34.166 107.935 34.166Z" fill="#FF6B00"/>
<path d="M125.919 34L124.854 30.6406H119.903L118.819 34H115.86L120.753 19.9082H124.22L129.112 34H125.919ZM122.305 22.8379L120.538 28.3652H124.229L122.481 22.8379H122.305ZM137.252 23.0527C138.619 23.0527 139.693 23.5443 140.475 24.5273C141.256 25.5104 141.646 26.8711 141.646 28.6094C141.646 30.3411 141.259 31.7018 140.484 32.6914C139.71 33.6745 138.648 34.166 137.301 34.166C136.533 34.166 135.865 34.0065 135.299 33.6875C134.732 33.3685 134.316 32.9225 134.049 32.3496H133.873V37.5742H131.031V23.2285H133.785V24.9961H133.961C134.254 24.3906 134.69 23.9154 135.27 23.5703C135.849 23.2253 136.51 23.0527 137.252 23.0527ZM136.285 31.793C137.053 31.793 137.652 31.513 138.082 30.9531C138.512 30.3867 138.727 29.6055 138.727 28.6094C138.727 27.6198 138.508 26.8451 138.072 26.2852C137.643 25.7188 137.05 25.4355 136.295 25.4355C135.54 25.4355 134.941 25.722 134.498 26.2949C134.062 26.8613 133.844 27.6361 133.844 28.6191C133.844 29.6022 134.062 30.377 134.498 30.9434C134.934 31.5098 135.53 31.793 136.285 31.793ZM149.982 23.0527C151.349 23.0527 152.423 23.5443 153.204 24.5273C153.986 25.5104 154.376 26.8711 154.376 28.6094C154.376 30.3411 153.989 31.7018 153.214 32.6914C152.439 33.6745 151.378 34.166 150.03 34.166C149.262 34.166 148.595 34.0065 148.029 33.6875C147.462 33.3685 147.045 32.9225 146.779 32.3496H146.603V37.5742H143.761V23.2285H146.515V24.9961H146.691C146.984 24.3906 147.42 23.9154 147.999 23.5703C148.579 23.2253 149.239 23.0527 149.982 23.0527ZM149.015 31.793C149.783 31.793 150.382 31.513 150.812 30.9531C151.241 30.3867 151.456 29.6055 151.456 28.6094C151.456 27.6198 151.238 26.8451 150.802 26.2852C150.372 25.7188 149.78 25.4355 149.025 25.4355C148.269 25.4355 147.67 25.722 147.228 26.2949C146.792 26.8613 146.573 27.6361 146.573 28.6191C146.573 29.6022 146.792 30.377 147.228 30.9434C147.664 31.5098 148.26 31.793 149.015 31.793Z" fill="#404450"/>
<g filter="url(#filter0_d)">
<rect x="5" y="2" width="50" height="50" rx="15" fill="url(#paint0_linear)"/>
</g>
<path d="M44.2955 19.32C42.2004 15.5336 38.7926 12.7822 34.6275 11.5958C26.0702 9.09676 17.0837 14.0443 14.5847 22.6015C12.1109 31.1587 17.0585 40.145 25.6158 42.644C27.1051 43.0731 28.6197 43.3003 30.1343 43.3003C32.8353 43.3003 35.4858 42.6188 37.9091 41.2809C41.6955 39.1858 44.447 35.7781 45.6334 31.613C46.8703 27.4733 46.3654 23.1063 44.2955 19.32ZM44.1693 31.2344C30.0838 28.8111 21.9051 33.5567 18.6488 36.1819C18.4468 35.9043 18.2449 35.6518 18.043 35.3742C20.643 33.1528 29.7304 26.5898 44.7246 28.0539C44.6489 29.114 44.4722 30.149 44.1693 31.1839C44.1693 31.2092 44.1693 31.2092 44.1693 31.2344ZM19.6837 37.3431C22.7634 34.9703 30.5129 30.5276 43.6644 32.6985C43.2606 33.6829 42.7557 34.5917 42.1751 35.4499C30.6391 33.0014 23.8236 35.8033 20.4663 38.0751C20.1886 37.8479 19.9109 37.5955 19.6837 37.3431ZM35.3848 26.5898C38.5906 23.3083 42.68 22.7782 44.0936 22.7025C44.4975 23.9393 44.6994 25.2267 44.7751 26.5141C41.3169 26.1859 38.1867 26.2616 35.3848 26.5898ZM30.1343 12.4793C31.4722 12.4793 32.8353 12.656 34.1984 13.0598C37.9596 14.1453 41.0644 16.6443 42.9324 20.052C43.1343 20.4306 43.311 20.8093 43.4877 21.1879C41.3169 21.3898 36.4702 22.3238 33.0625 26.9179C30.0586 27.448 27.4585 28.281 25.2372 29.215C25.6411 27.8519 26.1964 26.6403 26.777 25.6558C27.2314 25.7315 27.711 25.7568 28.1653 25.7568C30.3867 25.7568 32.4314 24.8985 33.8702 23.3083C35.7634 21.2384 36.3188 18.285 35.3848 15.4074L35.2333 14.953L34.7537 14.852C31.8003 14.1705 28.8974 15.0035 27.0042 17.0481C25.1362 19.0928 24.5556 21.9957 25.4644 24.8733C24.6566 26.2616 23.8993 27.9781 23.4449 30.0228C20.4158 31.4868 18.3459 33.0519 17.1847 34.0363C17.0585 33.7839 16.9323 33.5567 16.8061 33.3043C25.111 26.8422 23.0915 17.6035 22.2333 14.8016C24.5556 13.3123 27.3071 12.4793 30.1343 12.4793ZM29.4022 21.1879L28.9226 20.6073C28.8469 20.6831 27.9382 21.4403 26.8527 22.8539C26.676 21.0869 27.2061 19.4209 28.342 18.1841C29.7052 16.6947 31.7751 16.0384 33.9459 16.3918C34.476 18.5374 34.0217 20.6578 32.6586 22.1471C31.4722 23.4597 29.7304 24.116 27.8624 24.0151C28.9479 22.551 29.8566 21.7685 29.8819 21.7432L29.4022 21.1879ZM20.9206 15.7608C21.7284 18.6637 22.9906 26.2616 16.276 31.7897C16.175 31.4616 16.074 31.1334 15.9731 30.78C19.7595 26.1102 19.81 21.0617 19.1284 17.4773C19.6585 16.8462 20.2643 16.2656 20.9206 15.7608ZM16.074 23.0306C16.4779 21.617 17.0837 20.3297 17.841 19.1685C18.1439 21.9452 17.8158 25.3782 15.5944 28.7102C15.3672 26.8675 15.5187 24.9238 16.074 23.0306ZM26.0449 41.1799C25.6411 41.0537 25.2372 40.9275 24.8333 40.7761C27.4585 39.8673 31.2702 39.3372 36.6217 40.246C33.3401 41.8615 29.6042 42.1896 26.0449 41.1799ZM38.6159 39.0343C30.9925 37.3936 26.0197 38.4033 22.9148 39.8421C22.5109 39.6149 22.1071 39.3625 21.7537 39.1101C22.6119 38.5547 23.6974 37.9994 25.0352 37.4945C28.2663 36.2829 33.5421 35.3237 41.1149 36.813C40.3576 37.646 39.5246 38.378 38.6159 39.0343Z" fill="white" stroke="white" stroke-width="0.2"/>
<defs>
<filter id="filter0_d" x="0" y="0" width="60" height="60" filterUnits="userSpaceOnUse" color-interpolation-filters="sRGB">
<feFlood flood-opacity="0" result="BackgroundImageFix"/>
<feColorMatrix in="SourceAlpha" type="matrix" values="0 0 0 0 0 0 0 0 0 0 0 0 0 0 0 0 0 0 127 0"/>
<feOffset dy="3"/>
<feGaussianBlur stdDeviation="2.5"/>
<feColorMatrix type="matrix" values="0 0 0 0 1 0 0 0 0 0.419608 0 0 0 0 0 0 0 0 0.3 0"/>
<feBlend mode="normal" in2="BackgroundImageFix" result="effect1_dropShadow"/>
<feBlend mode="normal" in="SourceGraphic" in2="effect1_dropShadow" result="shape"/>
</filter>
<linearGradient id="paint0_linear" x1="45.1879" y1="42.8782" x2="14.1218" y2="11.8122" gradientUnits="userSpaceOnUse">
<stop stop-color="#FF8900"/>
<stop offset="1" stop-color="#FF6B00"/>
</linearGradient>
</defs>
</svg>
