<svg xmlns="http://www.w3.org/2000/svg" width="100" height="100" fill="none" xmlns:v="https://vecta.io/nano"><path d="M93.803 25.88C87.328 14.176 76.794 5.67 63.92 2.004 37.47-5.72 9.694 9.572 1.97 36.022-5.676 62.47 9.616 90.247 36.066 97.97 40.67 99.298 45.35 100 50.032 100c8.35 0 16.54-2.107 24.03-6.242 11.703-6.476 20.208-17.01 23.875-29.882 3.823-12.796 2.262-26.293-4.135-37.997zm-.4 36.826c-43.537-7.5-68.817 7.178-78.882 15.292L12.66 75.5c8.036-6.866 36.125-27.152 82.47-22.626-.234 3.277-.78 6.476-1.716 9.675v.156zM17.73 81.587c9.52-7.334 33.472-21.066 74.122-14.356-1.248 3.043-2.81 5.852-4.603 8.504-35.657-7.568-56.723 1.092-67.1 8.114-.858-.702-1.716-1.482-2.42-2.263zM66.26 48.35c9.91-10.143 22.55-11.78 26.918-12.015 1.248 3.823 1.873 7.802 2.107 11.78-10.69-1.014-20.364-.78-29.025.234zM50.032 4.735c4.135 0 8.35.546 12.562 1.795C74.22 9.884 83.816 17.61 89.6 28.142c.624 1.17 1.17 2.34 1.716 3.51-6.7.624-21.7 3.51-32.224 17.71a112.69 112.69 0 0 0-24.187 7.1c1.248-4.213 2.965-7.958 4.76-11 1.404.234 2.887.312 4.29.312 6.866 0 13.186-2.653 17.633-7.568 5.852-6.398 7.568-15.526 4.68-24.42l-.468-1.404-1.482-.312c-9.13-2.107-18.1.468-23.953 6.788-5.774 6.32-7.568 15.292-4.76 24.187a55.53 55.53 0 0 0-6.242 15.917c-9.363 4.525-15.76 9.363-19.35 12.406l-1.17-2.263c25.67-19.974 19.428-48.53 16.775-57.2C32.79 7.3 41.294 4.735 50.032 4.735zM47.77 31.653l-1.482-1.794c-.234.234-3.043 2.575-6.398 6.944-.546-5.462 1.092-10.61 4.603-14.434 4.213-4.603 10.61-6.632 17.32-5.54 1.64 6.632.234 13.186-3.98 17.79-3.667 4.057-9.05 6.086-14.824 5.774 3.355-4.525 6.164-6.944 6.242-7.022l-1.483-1.717zM21.554 14.878c2.497 8.973 6.398 32.457-14.356 49.544L6.26 61.3c11.703-14.434 11.86-30.04 9.753-41.118 1.64-1.95 3.51-3.745 5.54-5.305zm-14.98 22.47C7.822 32.98 9.694 29 12.035 25.41c.936 8.582-.078 19.194-6.944 29.492-.702-5.696-.234-11.703 1.482-17.555zm30.82 56.098c-1.248-.4-2.497-.78-3.745-1.248 8.114-2.81 19.896-4.447 36.437-1.64-10.143 4.993-21.7 6.008-32.692 2.887zm38.856-6.632c-23.563-5.07-38.934-1.95-48.53 2.497a40.24 40.24 0 0 1-3.589-2.263c2.653-1.716 6.008-3.433 10.143-4.993 9.987-3.745 26.294-6.7 49.7-2.107-2.34 2.575-4.915 4.837-7.724 6.866z" fill="url(#A)"/><defs><linearGradient id="A" x1="80.376" y1="81.757" x2="18.244" y2="19.625" gradientUnits="userSpaceOnUse"><stop stop-color="#ff8900"/><stop offset="1" stop-color="#ff6b00"/></linearGradient></defs></svg>