<svg xmlns="http://www.w3.org/2000/svg" width="475" height="416" fill="none" xmlns:v="https://vecta.io/nano"><path d="M379.55 120.4c-21.37-38.62-56.13-66.685-98.613-78.786C193.653 16.124 101.99 66.59 76.5 153.872c-25.233 87.283 25.233 178.944 112.517 204.434 15.19 4.377 30.64 6.694 46.09 6.694 27.55 0 54.585-6.952 79.303-20.598 38.62-21.37 66.686-56.13 78.787-98.612 12.617-42.226 7.467-86.77-13.646-125.4zm-1.287 121.528c-143.672-24.718-227.095 23.687-260.31 50.465l-6.18-8.24c26.52-22.657 119.212-89.6 272.153-74.667-.772 10.814-2.574 21.37-5.664 31.927v.515zM128.51 304.236c31.412-24.202 110.458-69.517 244.603-47.375-4.12 10.042-9.27 19.31-15.19 28.065-117.667-24.975-187.186 3.604-221.43 26.777-2.832-2.317-5.665-4.892-7.982-7.467zm160.15-109.683c32.7-33.472 74.41-38.88 88.83-39.65 4.12 12.616 6.18 25.747 6.952 38.878-35.274-3.347-67.2-2.574-95.78.773zM235.107 50.625c13.646 0 27.55 1.802 41.453 5.922 38.364 11.07 70.034 36.56 89.087 71.32 2.06 3.862 3.863 7.724 5.665 11.587-22.143 2.06-71.58 11.586-106.338 58.446-30.64 5.407-57.16 13.903-79.818 23.43 4.12-13.904 9.784-26.262 15.706-36.304 4.635.773 9.527 1.03 14.16 1.03 22.658 0 43.514-8.754 58.2-24.975 19.31-21.113 24.975-51.237 15.45-80.59l-1.545-4.635-4.892-1.03c-30.125-6.952-59.735 1.545-79.046 22.4-19.053 20.855-24.975 50.465-15.706 79.817-8.24 14.16-15.963 31.67-20.598 52.524-30.897 14.934-52 30.897-63.854 40.938l-3.862-7.466c84.7-65.913 64.112-160.15 55.357-188.728 23.688-15.19 51.753-23.687 80.59-23.687zm-7.467 88.83l-4.892-5.922c-.773.772-10.042 8.496-21.113 22.915-1.803-18.023 3.604-35.017 15.19-47.633 13.904-15.19 35.017-21.885 57.16-18.28 5.407 21.885.772 43.513-13.132 58.703-12.1 13.39-29.867 20.083-48.92 19.054 11.07-14.934 20.34-22.916 20.598-23.173l-4.892-5.664zm-86.512-55.357c8.24 29.61 21.113 107.11-47.376 163.495l-3.1-10.3c38.622-47.632 39.137-99.127 32.185-135.688 5.407-6.437 11.586-12.36 18.28-17.508zM91.692 158.25c4.12-14.418 10.3-27.55 18.023-39.393 3.1 28.322-.257 63.338-22.915 97.325-2.317-18.796-.772-38.62 4.892-57.932zm101.703 185.123c-4.12-1.287-8.24-2.574-12.36-4.12 26.778-9.27 65.657-14.676 120.242-5.407-33.472 16.478-71.578 19.825-107.883 9.526zm128.224-21.885c-77.758-16.736-128.48-6.437-160.15 8.24-4.12-2.317-8.24-4.892-11.844-7.467 8.754-5.664 19.826-11.328 33.472-16.478 32.957-12.36 86.77-22.143 164.013-6.952-7.724 8.497-16.22 15.964-25.5 22.658z" fill="#fafafa"/><g fill-rule="evenodd"><path d="M235.087 380.918h-.085a182.07 182.07 0 0 1-6.695-.123 1.86 1.86 0 0 1-1.786-1.932c.038-1.03.897-1.837 1.922-1.795l6.644.12a1.86 1.86 0 1 1 0 3.73zm11.926-.4a1.86 1.86 0 0 1-1.849-1.742 1.86 1.86 0 0 1 1.728-1.984l6.62-.57a1.86 1.86 0 0 1 2.038 1.661c.106 1.025-.634 1.942-1.653 2.05l-6.758.58-.125.005zm-30.538-.556c-.064 0-.128-.004-.193-.01l-6.733-.83c-1.014-.144-1.72-1.088-1.577-2.108s1.083-1.73 2.097-1.585l6.595.81c1.02.107 1.76 1.022 1.655 2.047a1.86 1.86 0 0 1-1.844 1.674zm49.047-1.662a1.86 1.86 0 0 1-1.827-1.547c-.174-1.016.503-1.98 1.513-2.155l6.523-1.26c1.004-.213 1.988.43 2.2 1.438s-.428 1.998-1.43 2.21l-6.66 1.287c-.107.018-.214.027-.318.027zm-67.462-1.237c-.127 0-.256-.013-.385-.04l-6.6-1.533c-.994-.25-1.598-1.263-1.348-2.262s1.257-1.606 2.25-1.356l6.473 1.5c1.002.214 1.644 1.203 1.432 2.21a1.86 1.86 0 0 1-1.813 1.48zm85.638-2.917c-.81 0-1.552-.535-1.784-1.356-.28-.992.293-2.023 1.28-2.303l6.355-1.943c.975-.32 2.022.217 2.34 1.196a1.87 1.87 0 0 1-1.191 2.351l-6.49 1.984a1.85 1.85 0 0 1-.507.071zm-103.65-1.9c-.19 0-.382-.03-.572-.092l-6.43-2.23a1.87 1.87 0 0 1-1.105-2.393c.353-.967 1.42-1.465 2.382-1.1l6.298 2.185c.975.318 1.51 1.37 1.193 2.35-.254.79-.982 1.29-1.765 1.29zm121.293-4.144a1.86 1.86 0 0 1-1.722-1.171 1.87 1.87 0 0 1 1.03-2.426l6.1-2.597c.937-.42 2.033.003 2.45.943a1.87 1.87 0 0 1-.939 2.464l-6.23 2.65c-.227.092-.46.136-.69.136zm-138.733-2.577a1.84 1.84 0 0 1-.754-.162l-6.156-2.897a1.87 1.87 0 0 1-.847-2.497c.452-.923 1.564-1.305 2.484-.85l6.03 2.84c.936.418 1.357 1.52.94 2.46-.308.695-.986 1.107-1.696 1.107zm155.616-5.295c-.666 0-1.31-.36-1.642-.992a1.87 1.87 0 0 1 .772-2.521l5.8-3.23a1.85 1.85 0 0 1 2.535.68 1.87 1.87 0 0 1-.676 2.548l-5.924 3.297c-.277.147-.574.217-.866.217zm-172.245-3.23a1.84 1.84 0 0 1-.927-.25l-5.815-3.528a1.87 1.87 0 0 1-.582-2.572 1.85 1.85 0 0 1 2.559-.585l5.695 3.456a1.87 1.87 0 0 1 .678 2.548 1.85 1.85 0 0 1-1.608.931zm188.224-6.38a1.85 1.85 0 0 1-1.542-.826 1.87 1.87 0 0 1 .506-2.587l5.438-3.824a1.85 1.85 0 0 1 2.592.411c.603.834.42 2-.408 2.606l-5.553 3.902c-.318.214-.677.318-1.033.318zm-203.865-3.84c-.38 0-.76-.116-1.1-.356l-5.414-4.116c-.805-.637-.945-1.8-.312-2.62a1.85 1.85 0 0 1 2.606-.313l5.303 4.032a1.87 1.87 0 0 1 .409 2.605 1.85 1.85 0 0 1-1.502.768zm218.768-7.397a1.85 1.85 0 0 1-1.425-.669c-.657-.79-.55-1.967.235-2.628l5.017-4.373a1.85 1.85 0 0 1 2.621.138 1.87 1.87 0 0 1-.137 2.633l-5.122 4.466a1.85 1.85 0 0 1-1.189.433zm-233.258-4.403c-.442 0-.886-.16-1.24-.48l-4.955-4.656c-.735-.718-.753-1.9-.04-2.638a1.85 1.85 0 0 1 2.624-.039l4.854 4.56c.76.7.823 1.87.137 2.634a1.85 1.85 0 0 1-1.38.618zm246.923-8.336c-.466 0-.932-.175-1.293-.527-.735-.718-.75-1.898-.037-2.638l4.54-4.877a1.85 1.85 0 0 1 2.621-.136c.76.7.822 1.87.136 2.634l-4.636 4.978c-.364.377-.847.566-1.33.566zm-297.18-69.27a1.86 1.86 0 0 1-1.764-1.289l-1.977-6.522a1.87 1.87 0 0 1 1.278-2.304c.986-.28 2.012.294 2.292 1.285l1.936 6.386c.318.98-.215 2.033-1.2 2.35-.2.063-.384.093-.575.093zm342.178-11.692a1.82 1.82 0 0 1-.454-.057c-.994-.25-1.597-1.263-1.347-2.262l1.497-6.506c.212-1.007 1.197-1.653 2.2-1.44s1.644 1.203 1.432 2.21l-1.53 6.642a1.86 1.86 0 0 1-1.798 1.411zM60.76 239.268a1.86 1.86 0 0 1-1.813-1.478l-1.284-6.696c-.175-1.014.502-1.98 1.51-2.154s1.97.504 2.145 1.518l1.257 6.557c.213 1.008-.427 1.998-1.43 2.212a1.84 1.84 0 0 1-.387.041zm350.595-11.98c-.087 0-.175-.006-.264-.02-1.014-.145-1.72-1.088-1.576-2.11l.8-6.627a1.86 1.86 0 0 1 2.038-1.663c1.02.107 1.76 1.023 1.654 2.05l-.828 6.766a1.86 1.86 0 0 1-1.834 1.603zM57.85 220.763a1.86 1.86 0 0 1-1.843-1.67l-.58-6.793c-.068-1.027.705-1.916 1.727-1.985a1.86 1.86 0 0 1 1.976 1.736l.568 6.653c.107 1.024-.633 1.94-1.652 2.05-.066.007-.13.01-.195.01zm355.16-12.136c-.023 0-.046 0-.07-.001a1.86 1.86 0 0 1-1.785-1.932l.122-7.015a1.86 1.86 0 0 1 1.853-1.867 1.86 1.86 0 0 1 1.858 1.861v.344l-.125 6.814a1.86 1.86 0 0 1-1.853 1.796zm-356.137-6.575a1.86 1.86 0 0 1-1.856-1.864v-.17l.12-6.643c.036-1.03.898-1.84 1.92-1.796a1.86 1.86 0 0 1 1.787 1.931l-.117 6.508v.17a1.86 1.86 0 0 1-1.855 1.864zm355.842-12.498a1.86 1.86 0 0 1-1.849-1.739l-.575-6.652c-.107-1.024.63-1.943 1.65-2.05s1.933.634 2.04 1.658l.586 6.792a1.86 1.86 0 0 1-1.725 1.987l-.128.005zm-354.897-6.21c-.063 0-.127-.004-.192-.01-1.02-.105-1.76-1.02-1.655-2.046l.82-6.768a1.86 1.86 0 0 1 2.097-1.586c1.015.144 1.72 1.088 1.578 2.108l-.804 6.628a1.86 1.86 0 0 1-1.844 1.674zm14.345-54.146a1.85 1.85 0 0 1-.753-.16 1.87 1.87 0 0 1-.941-2.463l2.88-6.188c.452-.925 1.564-1.306 2.484-.853a1.87 1.87 0 0 1 .848 2.497l-2.82 6.06c-.308.694-.986 1.106-1.697 1.106zm320.26-11.182c-.664 0-1.307-.36-1.64-.99l-3.22-5.826c-.514-.89-.213-2.032.673-2.55s2.022-.214 2.537.677l3.288 5.95a1.87 1.87 0 0 1-.768 2.522c-.278.147-.575.218-.87.218zM80.633 112.48a1.84 1.84 0 0 1-.926-.251 1.87 1.87 0 0 1-.679-2.547l3.508-5.847a1.85 1.85 0 0 1 2.558-.586 1.87 1.87 0 0 1 .583 2.572l-3.435 5.726c-.344.598-.967.933-1.61.933zm302.204-10.514a1.85 1.85 0 0 1-1.54-.823l-3.81-5.46c-.604-.832-.423-2 .404-2.606a1.85 1.85 0 0 1 2.593.407l3.89 5.575a1.87 1.87 0 0 1-.502 2.59 1.84 1.84 0 0 1-1.035.318zm-11.202-14.964c-.53 0-1.056-.226-1.423-.667l-4.36-5.036c-.687-.764-.627-1.944.133-2.634a1.85 1.85 0 0 1 2.621.135l4.45 5.142c.658.79.554 1.966-.23 2.627a1.85 1.85 0 0 1-1.191.434zM130.172 57.117a1.85 1.85 0 0 1-1.5-.766c-.604-.832-.422-2 .406-2.606l5.55-3.908a1.85 1.85 0 0 1 2.575.506 1.87 1.87 0 0 1-.503 2.588l-5.435 3.828c-.33.24-.712.358-1.092.358zm15.604-10.224c-.64 0-1.263-.334-1.607-.93a1.87 1.87 0 0 1 .674-2.549l5.92-3.303a1.85 1.85 0 0 1 2.508.773 1.87 1.87 0 0 1-.769 2.522l-5.798 3.234a1.84 1.84 0 0 1-.929.252zm167.56-5.85c-.274 0-.553-.06-.815-.19l-6.032-2.832a1.87 1.87 0 0 1-.942-2.462 1.85 1.85 0 0 1 2.449-.947l6.16 2.892a1.87 1.87 0 0 1 .848 2.496c-.322.66-.98 1.044-1.667 1.044zm-150.99-2.675c-.71 0-1.386-.41-1.694-1.105-.42-.94 0-2.043.936-2.464l6.226-2.658c.95-.385 2.032.077 2.415 1.033a1.87 1.87 0 0 1-1.029 2.426l-6.097 2.603c-.246.11-.503.164-.757.164zm133.817-4.7c-.21 0-.426-.036-.637-.114l-6.3-2.18c-.976-.317-1.51-1.368-1.196-2.348s1.36-1.518 2.336-1.2l6.433 2.224a1.87 1.87 0 0 1 1.106 2.392c-.275.756-.986 1.225-1.743 1.225zM179.72 31.634c-.78 0-1.508-.5-1.763-1.287-.318-.98.214-2.03 1.19-2.35l6.488-1.99c.985-.282 2.012.294 2.292 1.284s-.29 2.022-1.276 2.305l-6.354 1.95c-.19.062-.385.092-.576.092zm98.605-3.456a1.83 1.83 0 0 1-.451-.056l-6.475-1.496c-1.002-.21-1.645-1.2-1.434-2.208s1.194-1.653 2.197-1.442l6.61 1.528c.995.25 1.6 1.26 1.35 2.262a1.86 1.86 0 0 1-1.799 1.413zm-80.605-1.405a1.86 1.86 0 0 1-1.813-1.477c-.213-1.008.426-1.998 1.43-2.213l6.66-1.293c1.012-.176 1.97.505 2.146 1.52s-.5 1.98-1.51 2.157l-6.522 1.267a1.92 1.92 0 0 1-.389.041zm18.41-2.935a1.86 1.86 0 0 1-1.843-1.67c-.108-1.024.63-1.942 1.65-2.05l6.758-.587c1.028-.07 1.907.708 1.976 1.736s-.704 1.917-1.726 1.986l-6.62.575a1.84 1.84 0 0 1-.196.01z" fill="#f0f0f0"/><g fill="#ec7e3b"><path d="M451.27 212.55c-1.652.962-3.772.387-4.725-1.28a3.51 3.51 0 0 1 1.269-4.765 3.43 3.43 0 0 1 1.788-.467c.34.006.613.29.607.635a.62.62 0 0 1-.629.613 2.21 2.21 0 0 0-1.148.299c-1.062.617-1.428 1.99-.815 3.062s1.974 1.44 3.035.822 1.428-1.99.816-3.062c-.17-.298-.07-.68.227-.85s.674-.07.844.228a3.51 3.51 0 0 1-1.269 4.765zM439.122 379.51l-2.308-2.328a1.42 1.42 0 0 1-.411-1.002c0-.362.137-.725.41-1 .55-.554 1.44-.554 1.987 0l2.308 2.326c.55.554.55 1.45 0 2.005a1.4 1.4 0 0 1-1.987 0zm-.32-6.877c-.548.554-1.438.554-1.987 0a1.42 1.42 0 0 1-.411-1.002c0-.362.137-.725.41-1l2.308-2.328c.55-.553 1.438-.553 1.987 0s.55 1.45 0 2.003l-2.308 2.328zm-6.818 6.877a1.4 1.4 0 0 1-1.987 0 1.42 1.42 0 0 1 0-2.005l2.307-2.326c.55-.554 1.44-.554 1.987 0s.55 1.45 0 2.003l-2.307 2.328zm.32-6.877l-2.307-2.328c-.275-.277-.412-.64-.412-1s.137-.726.412-1.002c.548-.553 1.438-.553 1.987 0l2.307 2.328c.55.552.55 1.45 0 2.003s-1.438.554-1.987 0zM386.255 52.352c-1.127 0-2.042-.923-2.042-2.06s.915-2.06 2.042-2.06 2.043.923 2.043 2.06-.915 2.06-2.043 2.06zm-9.685 188.134h-2.168c-.516 0-.933-.42-.933-.94s.417-.94.933-.94h2.168c.516 0 .933.42.933.94s-.417.94-.933.94zm-2.51-2.735c-.182.184-.42.277-.66.277a.93.93 0 0 1-.66-.277c-.364-.368-.364-.963 0-1.33l1.534-1.547a.93.93 0 0 1 1.32 0 .95.95 0 0 1 0 1.331l-1.534 1.546zm-.013 3.583l1.533 1.546c.365.367.365.963 0 1.33-.182.184-.42.275-.66.275s-.477-.09-.66-.275l-1.533-1.546a.95.95 0 0 1 0-1.331.93.93 0 0 1 1.32 0zm-3.08-4.332c-.515 0-.933-.42-.933-.94v-2.187c0-.52.418-.94.933-.94s.934.42.934.94v2.187c0 .52-.418.94-.934.94zm-.02 5.067c.516 0 .934.42.934.94v2.187c0 .52-.418.94-.934.94s-.933-.42-.933-.94V243c0-.52.418-.94.933-.94zm-2.42-4.055a.93.93 0 0 1-.66-.276l-1.533-1.547c-.364-.367-.364-.963 0-1.33s.955-.368 1.32 0l1.533 1.545c.365.368.365.964 0 1.332-.182.184-.42.276-.66.276zm-.082 1.512a.94.94 0 0 1-.934.942h-2.168c-.515 0-.933-.422-.933-.942s.418-.94.933-.94h2.168a.94.94 0 0 1 .934.941zM316.82 125.96c-3.144 0-5.702-2.58-5.702-5.75s2.558-5.75 5.702-5.75 5.7 2.58 5.7 5.75-2.557 5.75-5.7 5.75zm0-9.444c-2.02 0-3.663 1.657-3.663 3.694s1.643 3.694 3.663 3.694 3.663-1.657 3.663-3.694-1.643-3.694-3.663-3.694zM169.153 134.41c-.388.39-1.016.39-1.403 0l-2.522-2.543-2.52 2.543c-.388.39-1.016.39-1.404 0a1.01 1.01 0 0 1 0-1.415l2.522-2.543-2.522-2.543a1.01 1.01 0 0 1 0-1.415c.388-.39 1.016-.39 1.404 0l2.52 2.543 2.522-2.543c.387-.39 1.015-.39 1.403 0s.388 1.024 0 1.415l-2.52 2.543 2.52 2.543c.388.39.388 1.024 0 1.415zM45.537 81.804c-2.872 1.67-6.556.672-8.212-2.223s-.666-6.61 2.206-8.28a5.96 5.96 0 0 1 3.106-.81 1.08 1.08 0 0 1 1.055 1.103c-.01.6-.5 1.075-1.093 1.064-.697-.012-1.387.168-1.995.522-1.845 1.073-2.48 3.46-1.416 5.32a3.85 3.85 0 0 0 5.275 1.429 3.92 3.92 0 0 0 1.417-5.32 1.09 1.09 0 0 1 .394-1.48 1.07 1.07 0 0 1 1.468.398 6.1 6.1 0 0 1-2.205 8.28zM37.85 362.1c0-.44.354-.797.8-.797s.8.357.8.797v2.864h2.84c.436 0 .8.357.8.796s-.354.797-.8.797h-2.84v2.863c0 .44-.353.797-.8.797s-.8-.356-.8-.797v-2.863h-2.84c-.437 0-.8-.357-.8-.797s.353-.796.8-.796h2.84V362.1zm-7.706-148.783c-1.185 0-2.145-.97-2.145-2.164S28.96 209 30.145 209s2.145.97 2.145 2.163-.96 2.164-2.145 2.164zm337.71 28.003a.93.93 0 0 1 1.32 0 .95.95 0 0 1 0 1.332l-1.534 1.546c-.182.184-.42.275-.66.275s-.478-.09-.66-.275c-.365-.368-.365-.964 0-1.332l1.533-1.546z"/><path d="M109.362 309.13L90.94 319.82c-.813.47-1.22.355-1.7-.48l-4.41-7.68 20.53-11.913.3.452 4.167 7.255c.455.792.34 1.213-.454 1.674zm-20.63 4.736c-.22.388-.128.925.27 1.14l3.207 1.582c.234.1.682-.092.923-.286.317-.256.296-.663.06-1.063-.043-.052-.096-.166-.183-.21l-3.254-1.61c-.424-.192-.8.052-1.023.448zm3.926-2.243c-.182.416-.127.857.296 1.085l3.2 1.603c.34.157.75.075.93-.295.148-.305.167-.673.243-1.014l-.14-.04c-.062-.063-.112-.15-.187-.187l-3.346-1.662c-.41-.182-.8.094-.994.51zm7.995-1.334l-2.777-1.376c-.26-.12-.595-.073-.743-.088-.79.473-.754 1.34-.07 1.704l2.77 1.39c.576.284 1.072.148 1.324-.344.242-.473.046-1.002-.506-1.287zM71.11 287.693L91.604 275.8l3.63 6.32-20.494 11.893-3.63-6.32zm6.057-.376c.256.46.818.58 1.35.276l6.107-3.544c.544-.318.72-.836.454-1.304s-.815-.602-1.352-.292l-6.107 3.544c-.535.313-.7.857-.452 1.32zm-1.887 2.155l.372-.213.323-.188c.498-.304.67-.83.422-1.28s-.8-.59-1.308-.325a7.57 7.57 0 0 0-.739.431c-.443.297-.58.85-.332 1.27.257.433.777.56 1.262.304z" stroke="#ec7e3b"/></g><path d="M111.384 306.533c.972 1.693.568 3.213-1.113 4.19l-18.464 10.714c-1.616.938-3.155.522-4.09-1.108L69.52 288.654c-1.24.447-2.008.16-2.647-.952l-5.2-9.068c-.975-1.702-.57-3.206 1.117-4.186l21.61-12.54c1.623-.942 3.153-.532 4.1 1.097l5.237 9.117c.64 1.114.502 1.928-.502 2.782l.284.495 17.884 31.134zm-22.14 12.807c.48.835.886.95 1.698.48l18.42-10.69c.795-.46.91-.88.455-1.673l-4.163-7.246-.29-.452-20.526 11.91 4.406 7.67zm-5.327-9.327l20.484-11.887-8.22-14.31L75.697 295.7l8.22 14.312zm8.1-37.2l-5.102-8.88c-.436-.758-.865-.87-1.63-.425l-21.657 12.568c-.726.42-.84.863-.418 1.6l5.102 8.882.28.437 14.21-8.246-.335-.584-1.494-2.622c-.248-.446-.11-.84.254-1.15.332-.28.833-.23 1.164.105.136.137.245.308.343.477l1.647 2.862 1.583-.92-3.147-5.49c-.345-.605-.142-1.185.463-1.394.424-.146.86.055 1.148.556l3.11 5.407 1.58-.917-4.525-7.882c-.29-.508-.165-1.058.274-1.317s.98-.092 1.29.392l.2.327 4.353 7.58 1.58-.916-.258-.45zm-.395 3.025l-20.49 11.9 3.626 6.313 20.5-11.9-3.627-6.313zm-6.98 8.244l-3.052 1.773-3.054 1.77c-.53.306-1.093.184-1.35-.275s-.082-1.006.452-1.32l6.106-3.543c.538-.31 1.087-.18 1.352.29s.09.985-.455 1.303zm-8.647 5.02l-.324.188-.37.213c-.484.255-1.005.13-1.26-.304-.25-.42-.11-.973.332-1.27a7.79 7.79 0 0 1 .739-.432c.507-.265 1.06-.122 1.308.325s.075.975-.423 1.28zm20.533.87l-1.533.895 2.702 4.704.48.842c.265.494.15 1.01-.275 1.274-.413.257-.965.127-1.266-.323-.2-.3-.365-.62-.544-.93l-2.673-4.655-1.534.886c-.374.204-.77.214-1.093-.096-.29-.277-.425-.643-.232-1.03a1.16 1.16 0 0 1 .424-.457l4.626-2.69c.526-.3 1.048-.17 1.307.283s.114.975-.39 1.296zm-4.05 9.313a3.79 3.79 0 0 1 .245.479c.187.468.04.85-.35 1.127-.37.26-.906.167-1.186-.24-.334-.486-.614-1.01-.9-1.524l-2.74-4.76c-.255-.444-.34-.88.053-1.28.468-.472 1.117-.342 1.506.317l1.748 3.033 1.635 2.85zm-5.658 4.784c-.262.14-.79.12-1.018-.064L79.7 298.96c-.41-.342-.414-.905-.077-1.3.32-.378.844-.417 1.29-.052l4.153 3.427-.872-5.277c-.103-.64.188-1.077.734-1.15.516-.07.94.216 1.037.783l1.273 7.792c.043.283-.173.76-.408.886zm13.016 7.852l-2.768-1.39c-.685-.362-.722-1.23.07-1.703.148.015.48-.03.742.087l2.775 1.375c.552.284.748.812.505 1.285-.252.492-.747.628-1.324.345zm-2.648 1.04l.14.04c-.076.34-.096.708-.243 1.012-.18.37-.59.453-.93.296l-3.2-1.6c-.422-.226-.477-.668-.295-1.083s.583-.693.993-.51l3.345 1.66c.074.037.125.124.187.187zm-3.993 2.276c.235.4.255.807-.06 1.062-.24.194-.69.386-.923.286-1.093-.466-2.156-1.013-3.205-1.58-.397-.214-.49-.75-.27-1.137.225-.396.6-.64 1.024-.45l3.252 1.607c.087.045.14.158.182.2z" fill="#171716"/><path d="M397.005 268.364c7.18 0 13 5.85 13 13.066s-5.82 13.066-13 13.066-13-5.85-13-13.066 5.82-13.066 13-13.066z" fill="#ec7e3b"/><path d="M380.895 275.768c-.54-.006-.9-.402-.9-.954.018-.522.4-.874.916-.866a.87.87 0 0 1-.026 1.82zm-.006 9.113c-.52-.01-.878-.375-.884-.903s.344-.902.865-.918a.87.87 0 0 1 .945.9c.004.546-.383.93-.926.92zm3.644-5.512c.02-.523.393-.874.92-.865a.87.87 0 1 1-.03 1.821.87.87 0 0 1-.889-.956zm.9 10.07c-.522-.002-.886-.362-.9-.89s.33-.91.852-.932c.55-.025.946.34.958.885a.87.87 0 0 1-.91.936zm21.745-23.706c.003-.527.36-.9.885-.897.548-.007.93.373.925.92a.87.87 0 0 1-.889.902c-.545.01-.925-.372-.92-.924zm.92 10.036c-.545.01-.925-.372-.92-.923.004-.53.362-.89.886-.897.548-.007.93.374.924.92-.006.522-.37.89-.9.9zm.723 17.72c.29.422.208.835-.267 1.304-1.888 1.856-4.013 3.38-6.383 4.552-3.622 1.794-7.465 2.686-11.486 2.852-.208 0-.415.004-.623-.001-.643-.014-.995-.334-.998-.903s.343-.86.984-.924c1.722-.168 3.466-.238 5.156-.575 4.63-.925 8.705-2.997 12.12-6.318.542-.528 1.135-.514 1.497.013zm-5.24-13.162c-.546.014-.93-.363-.93-.914-.001-.53.353-.896.876-.907.55-.012.935.364.934.9a.87.87 0 0 1-.879.911zm-.1-9.115c-.513-.037-.85-.425-.83-.956.02-.523.393-.873.92-.863a.87.87 0 0 1 .89.955c-.024.54-.437.904-.98.864zm-5.358 3.62c.01-.524.375-.882.9-.88.547 0 .922.387.91.935a.87.87 0 0 1-.905.885c-.543.002-.917-.386-.905-.94zm.914 10.052c-.544.006-.922-.378-.915-.93.007-.527.368-.887.893-.89s.898.35.918.87c.02.545-.356.944-.896.95zm-4.515 4.557c-.546.013-.93-.365-.928-.917 0-.53.355-.895.878-.905.55-.01.934.367.932.913a.87.87 0 0 1-.882.909zm-.928-19.156c.007-.526.368-.887.892-.89s.898.35.918.87c.02.546-.356.945-.896.95s-.92-.38-.914-.93zm.92 10.043c-.544.008-.924-.374-.92-.924.005-.528.363-.89.887-.897a.87.87 0 0 1 .032 1.821zm-5.877-12.87c-.5.243-1.07.114-1.307-.3-.254-.43-.095-1.05.425-1.305 1.436-.706 2.856-1.466 4.35-2.023 3.177-1.19 6.512-1.545 9.88-1.624.565-.013 1.13-.03 1.696-.02.5.01.8.333.78.846-.01.56-.367.85-1.018.887-1.825.1-3.655.147-5.47.338-3.186.336-6.177 1.325-8.944 2.965-.13.077-.257.16-.392.225zm1.32 8.314c-.52-.005-.882-.37-.892-.895s.34-.905.858-.925a.87.87 0 0 1 .952.892.87.87 0 0 1-.918.928zm-.03 9.113c-.517-.02-.867-.397-.86-.926s.364-.9.89-.895c.55-.005.93.376.92.924s-.406.92-.95.897zm36.392-5.03c-.697 1.7-1.66 3.23-2.923 4.566-.3.32-.624.553-1.093.41s-.534-.524-.665-.946c-.165-.525-.477-1.025-.81-1.47-.75-1-1.56-1.95-2.33-2.935-2.54-3.254-3.457-6.97-3.118-11.05.152-1.822.376-3.625 1.1-5.32.814-1.9 2.09-3.282 4.213-3.646l.262-5.224c-.664.852-1.016 1.887-1.087 3.027-.067 1.076-.643 1.403-1.576.88-1.823-1.02-4.263-.718-5.718.763.182.086.354.14.496.238.678.47 1.377.915 2.01 1.442.365.304.417.765.08 1.17-.313.374-.903.465-1.278.13-1.425-1.283-3.197-1.638-4.988-1.932-3.647-.6-7.306-.77-10.99-.37-12.305 1.333-21.268 10.02-23.557 21.276-1.04 5.12-.824 10.225.16 15.32.114.59-.01 1.036-.442 1.43-1.052.96-1.91 2.028-2.16 3.505-.34 2.015.775 4.202 2.677 5.138 1.86.914 4.233.513 5.538-.952-.494-.243-.992-.465-1.47-.727-1.64-.9-3-2.085-3.868-3.792-.288-.572-.134-1.045.405-1.262.44-.178.84-.104 1.07.338 1.313 2.523 3.572 3.7 6.185 4.235 4.6.944 9.228 1.097 13.893.394 10.592-1.598 19.528-9.943 21.823-20.464.02-.092.035-.187.06-.278.16-.58.62-.895 1.127-.774.513.12.84.622.662 1.2-.61 1.948-1.074 3.973-1.935 5.805-4.082 8.697-10.886 14.007-20.23 15.996-5.055 1.077-10.125.843-15.182-.04-.41-.07-.628.05-.872.315-1.4 1.5-3.073 2.405-5.145 2.33-2.845-.105-4.943-1.47-6.052-4.114s-.62-5.12 1.337-7.204c.58-.616.695-1.133.562-1.935-.97-5.87-1.063-11.745.778-17.46 3.37-10.457 10.464-16.973 21.097-19.493 5.186-1.228 10.413-.964 15.615.015.38.07.593-.03.827-.285 1.146-1.255 2.517-2.16 4.23-2.3 1.013-.077 2.044.098 3.13.164.257-1.223.84-2.477 1.808-3.535a7.54 7.54 0 0 1 3.185-2.093.81.81 0 0 1 .999.306c.272.36.318.754.004 1.09-1.126 1.216-1.424 2.74-1.546 4.302-.087 1.11-.017 2.234-.017 3.368.455.15.93.263 1.367.462 1.34.613 2.194 1.7 2.79 3.014.806 1.772 1.09 3.662 1.195 5.583.21 3.905-.135 7.733-1.634 11.39zm-.44-13.512c-.173-1.118-.57-2.248-1.084-3.258-.816-1.6-2.46-2.232-4.126-1.76-1.357.385-2.096 1.42-2.6 2.656-.586 1.44-.745 2.965-.88 4.5-.325 3.71.504 7.078 2.858 10.007l3.014 3.706c.583-1.143 1.218-2.162 1.643-3.264 1.576-4.073 1.84-8.304 1.174-12.587z" fill="#171716" stroke="#171716" stroke-width=".2"/><path d="M356.077 61.23c.244-.744.693-1.422.604-2.007-.127-.824-.528-1.676-1.032-2.345-1.242-1.647-2.98-2.436-5.042-2.422-1.95.013-2.718.89-2.557 2.92-.22-.083-.422-.135-.598-.23-5.806-3.166-11.404-6.65-16.386-11.05-.962-.85-1.86-1.8-2.656-2.81-.52-.66-.797-1.516-1.184-2.284l.155-.303c.947-.005 1.903-.09 2.84.002 2.844.28 5.512 1.218 8.136 2.276 5.87 2.365 11.36 5.44 16.533 9.085 3.025 2.133 5.927 4.423 8.334 7.284.866 1.03 1.65 2.123 2.017 3.557-3.434.77-6.292-.77-9.163-1.672zm-10.694-12.203c-.898-2.43-3.996-4.24-6.545-3.823-1.697.276-2.426 1.554-1.78 3.155.527 1.304 1.477 2.23 2.38 2.797 1.42.83 2.96 1.153 4.126.967 1.674-.267 2.403-1.5 1.817-3.096zm-6.202-1.536c1.132-.313 3.642 1.113 4.096 2.37-1.3.242-3.788-1.225-4.096-2.37zm17.93-20.018l-2.493 2.85c-.37.443-.682.946-.952 1.457-.406.77-.46 1.543.132 2.258.142.17.266.365.36.567.265.57.088 1.21-.436 1.53-.563.344-1.097.297-1.547-.204-1.352-1.51-1.64-3.512-.557-5.32.72-1.203 1.638-2.308 2.58-3.35 1.76-1.947 2.45-4.133 1.678-6.642-.756-2.462-2.41-4.065-4.9-4.64-3.196-.738-6.49 1.493-7.11 4.743-.5 2.577 1.12 5.088 3.628 5.658 2.16.49 4.374-.913 4.9-3.1.385-1.634-.572-3.194-2.18-3.55-.94-.21-1.75.18-2.178 1.06-.273.563-.36 1.026.405 1.306.674.247.9.93.64 1.546-.277.657-.917.922-1.62.668-2.12-.763-2.506-4.14-.66-5.765 2.478-2.18 6.37-1.187 7.52 1.92 1.352 3.657-.812 7.42-4.68 8.138-5.11.947-9.015-3.325-7.912-8.652.86-4.15 4.728-6.808 9.136-6.325 6.35.696 8.65 7.298 7.035 12.015-.187.55-.45 1.072-.774 1.835zm-2.69 31.707c-1.325.164-3.65-1.193-4.107-2.358 1.033-.43 3.715 1.078 4.107 2.358z" fill="#ec7e3b"/><path d="M339.5 51.134c-.9-.57-1.863-1.502-2.392-2.813-.65-1.6.084-2.897 1.8-3.177 2.564-.42 5.677 1.398 6.578 3.843.588 1.597-.146 2.847-1.83 3.118-1.175.188-2.72-.137-4.148-.97zm3.86-1.306c-.456-1.265-2.98-2.698-4.117-2.382.3 1.153 2.8 2.627 4.117 2.382zm34.487-13.56c-.184 1.078-.642 2.113-.974 3.166-2.152 3.388-5.672 4.95-9.104 3.9-1.926-.584-3.45-1.736-4.484-3.485-2.134-3.607-.154-8.536 3.826-9.567 2.442-.633 5.25.842 6.118 3.216.718 1.96-.297 4.337-2.262 5.06-.568.2-1.278.177-1.882.057-.637-.126-.868-.708-.76-1.358.1-.6.655-.987 1.27-.958 1.196.057 1.6-.353 1.5-1.577-.077-.942-.567-1.596-1.418-1.948-1.946-.804-4.2.352-4.744 2.43-.705 2.64.84 5.252 3.487 5.894 3.216.78 6.395-1.294 7.054-4.603.95-4.764-3.08-8.88-7.972-8.156-4.594.678-7.788 4.913-6.645 9.64.343 1.42.452 2.94.428 4.412-.04 2.342-1.38 3.82-3.515 4.6-.732.27-1.35.027-1.6-.626-.25-.63.015-1.333.734-1.596 1.88-.687 2.128-1.6 2.058-3.638-.033-.95-.263-1.893-.45-2.828-.783-3.94.54-7.187 3.426-9.8s6.216-3.332 9.875-2c4.123 1.5 6.75 5.665 6.05 9.765zM363.184 55.93c1.34 1.4 2.454 3.057 3.557 4.676.447.657.65 1.514.854 2.3.243.95.137 1.92-.373 2.787-4.656 7.908-11.056 13.674-19.812 16.454-4.563 1.448-9.18 1.633-13.74.16-5.78-1.87-9.815-5.765-12.32-11.3-2.76-6.082-3.052-12.468-1.758-19 .752-3.8 2.153-7.363 3.96-10.8.883-1.673 2.23-2.477 3.994-2.7 2.342-.3 4.613.092 6.853.674 5.47 1.423 10.5 3.85 15.386 6.6 4.85 2.884 9.496 6.026 13.4 10.128zm-38.088-12.5c-.828 2-1.793 3.978-2.443 6.044-1.925 6.112-2.263 12.272-.156 18.355 2.1 6.088 6.106 10.358 12.26 12.3 4.863 1.543 9.682.982 14.4-.945 5.08-2.08 9.222-5.46 12.66-9.75.984-1.227 1.853-2.547 2.774-3.822-1.322-.18-2.534-.274-3.712-.523-3.27-.7-6.343-1.952-9.37-3.33-4.477-2.04-8.792-4.383-12.88-7.127-4.92-3.303-9.827-6.633-13.2-11.78-.108.2-.24.37-.323.57zm29.42 15.72c-.392-1.28-3.074-2.787-4.108-2.358.458 1.164 2.783 2.52 4.108 2.358zm.462-7.114c-5.17-3.644-10.66-6.718-16.53-9.084-2.624-1.057-5.3-1.997-8.133-2.276-.936-.093-1.892-.008-2.838-.004l-.154.303c.386.767.665 1.622 1.183 2.282.795 1 1.694 1.96 2.657 2.8 4.98 4.398 10.578 7.88 16.382 11.045.176.096.377.147.598.23-.162-2.028.604-2.903 2.556-2.915 2.06-.013 3.8.776 5.04 2.42.504.668.906 1.52 1.032 2.344.1.585-.36 1.262-.602 2.005 2.87.904 5.727 2.442 9.16 1.675-.368-1.434-1.15-2.527-2.018-3.556-2.406-2.858-5.308-5.148-8.333-7.28zm-7.58 21.932c.548.334.728 1.075.4 1.644s-1.06.774-1.62.456-.763-1.053-.452-1.63c.324-.602 1.098-.82 1.67-.47zm2-.852c.182-.13.392-.224.597-.318 2.136-.983 4.037-2.324 5.776-3.917.702-.642 1.416-.677 1.893-.116.487.573.373 1.262-.32 1.9-1.95 1.818-4.127 3.295-6.54 4.4-.398.18-.88.167-1.127.208-.96-.57-.995-1.648-.28-2.157z" fill="#171716"/><path d="M247.366 25.345c-1.254-.133-1.962-.7-2.398-1.628-.405-.85-.183-1.642.435-2.28l4.784-4.805c.798-.778 2.275-.74 3.05-.001.93.887 1.088 2.304.238 3.195l-4.9 4.906c-.35.335-.895.464-1.198.613z" fill="#ec7e3b"/><path d="M267.205 15.803L244.812 38.32a6.06 6.06 0 0 1-2.289 1.449c-5.547 2-10.435 5.053-14.688 9.14a4.62 4.62 0 0 1-3.331 1.348c-1.915-.01-3.435-.944-4.084-2.592-.74-1.883-.52-3.68.88-5.155 3.15-3.317 5.708-7.028 7.625-11.182.547-1.185 1.004-2.412 1.487-3.626.34-.86.798-1.628 1.46-2.29L253.8 3.35c1.5-1.518 3.163-2.645 5.256-3.125 5.683-1.302 10.53 3.27 10.898 7.9.237 2.984-.648 5.555-2.76 7.678zm.5-7.73c-.683-3.92-3.85-6.05-7.428-5.8-1.85.13-3.275 1.058-4.55 2.346L233.432 27.06c-.33.334-.636.753-.792 1.19-2.173 6.066-5.51 11.4-9.912 16.074-.7.742-.795 1.665-.294 2.52.577.983 1.642 1.552 2.552 1.236.485-.168.95-.5 1.328-.86 4.454-4.2 9.535-7.402 15.277-9.515a4.89 4.89 0 0 0 1.823-1.175l22.387-22.5c1.285-1.305 1.997-2.863 2.055-4.72-.046-.41-.07-.822-.14-1.227zm-9.135 5.662c-1.11-.006-2.24-1.144-2.24-2.26s1.123-2.257 2.234-2.266 2.254 1.118 2.268 2.232c.014 1.142-1.127 2.298-2.262 2.293zm-8.122 12.383c-2.096 2.122-6.717 1.648-7.548-2.094-.374-1.686-.04-3.208 1.198-4.465l4.4-4.41c2.38-2.264 5.5-1.553 7.13.906.442.666.594 1.343.595 2.255-.025 1.267-.414 2.397-1.31 3.31l-4.465 4.497zm2.827-9.51c-.772-.74-2.245-.776-3.04.001l-4.77 4.803c-.616.637-.837 1.427-.434 2.28.435.918 1.14 1.495 2.39 1.627.302-.15.846-.278 1.195-.613 1.664-1.6 3.304-3.23 4.895-4.903.848-.89.7-2.31-.237-3.194z" fill="#171716"/><path d="M90.265 90.49l-7.24-12.577c-.25-.432-.308-.764.092-1.106.03-.025.044-.067.07-.1.897-1.142.992-1.16 2.24-.467l1.907 1.056c1.762.954 3.978.194 4.805-1.648l.598-1.4c.386-.89.596-1 1.55-.744.73.196 1.445.345 2.202.092 1.417-.472 2.292-1.398 2.527-2.896l.01-.06c.22-1.602.374-1.705 1.884-1.25 1.932.58 4.188-1.015 4.308-3.07l.142-3.767c.014-.486.065-.917.587-1.162.528-.248.923-.08 1.318.268a34.27 34.27 0 0 0 1.439 1.199c1.947 1.544 5.03.317 5.417-2.15.135-.864.38-1.072 1.247-1.027s1.735.14 2.604.142c.435.001.64.173.84.523l12.634 22.012c1.996 3.572 1.787 7.482-.665 10.413-.754.9-1.696 1.724-2.705 2.32l-18.378 10.7c-4.623 2.66-9.97 1.167-12.658-3.496L90.265 90.49zm32.137 3.644c.24-.192.362-.27.46-.37l4.322-4.372a1.22 1.22 0 0 0 .331-1.279l-1.513-5.815c-.15-.607-.48-.933-1.074-1.084l-4.578-1.207c-.483-.12-.74-.317-.86-.84-.36-1.558-.815-3.092-1.2-4.645-.158-.655-.527-.987-1.164-1.15l-5.627-1.505c-.532-.145-.972-.054-1.378.364l-4.238 4.285c-.426.42-.542.86-.388 1.428l1.286 4.87c.11.39.026.635-.25.907l-3.484 3.49c-.452.444-.594.91-.42 1.535l1.49 5.695c.15.61.49.93 1.08 1.082l5.628 1.508c.62.173 1.092.02 1.532-.434l3.325-3.39c.362-.38.682-.503 1.213-.344 1.51.45 3.04.84 4.573 1.224.33.082.694.04.924.05zM100.64 76.593c.54-.304.725-.98.414-1.523-.31-.538-.997-.723-1.52-.407a1.13 1.13 0 0 0-.404 1.487c.294.545.974.744 1.51.442zm-5.157 4.828c-.534.307-.718 1.01-.4 1.53.303.5.98.683 1.486.405.522-.284.732-1.01.442-1.532s-.993-.712-1.527-.403zm21.714-19.837c-.315-.53-1.01-.703-1.526-.378-.498.312-.666.978-.378 1.493.306.548.965.725 1.512.405a1.08 1.08 0 0 0 .392-1.52zm-4.106 6.267c.522-.286.72-1 .42-1.533a1.12 1.12 0 0 0-1.476-.43c-.53.273-.752.993-.47 1.522.278.52 1.003.73 1.527.44zm-19.4 8.682a1.1 1.1 0 0 0-.368 1.533c.31.51.964.684 1.478.396.53-.297.722-1.003.418-1.532a1.12 1.12 0 0 0-1.528-.397zm-2.195 5.112a1.07 1.07 0 0 0-1.518-.375c-.506.31-.684.97-.4 1.483.293.53.993.722 1.523.418s.71-.99.395-1.527zM118.2 70c.535-.322.707-1.005.386-1.53s-1.018-.678-1.538-.35c-.505.32-.66.964-.358 1.488a1.06 1.06 0 0 0 1.51.39zm-13.588 32.302c-.52.32-.69 1.036-.37 1.543a1.1 1.1 0 0 0 1.54.322c.507-.322.663-.973.36-1.49-.313-.53-1.003-.7-1.53-.376zm6.353-2.377a1.09 1.09 0 0 0-1.506-.436 1.12 1.12 0 0 0-.416 1.525 1.09 1.09 0 0 0 1.468.412c.563-.304.758-.948.454-1.5zM94.816 87.43a1.06 1.06 0 0 0-1.513-.386c-.5.308-.69.962-.408 1.48.3.533.99.732 1.52.432.533-.302.713-.988.402-1.527zm3.444-1.218a1.13 1.13 0 0 0-.387 1.536 1.09 1.09 0 0 0 1.474.405 1.14 1.14 0 0 0 .443-1.526c-.3-.52-1.012-.716-1.53-.415zm-.658 6.064c-.297-.546-.975-.75-1.51-.453-.52.288-.72 1.012-.422 1.535.288.507.95.7 1.476.428.548-.282.754-.964.457-1.5zm2.474-.176a1.1 1.1 0 0 0-.395 1.527c.303.502.973.683 1.483.402.525-.29.73-1.006.437-1.53s-.992-.7-1.525-.398zm.823 5.924a1.16 1.16 0 0 0-.382 1.545c.32.518 1.027.68 1.54.352.503-.32.662-.973.364-1.492a1.11 1.11 0 0 0-1.523-.405zm6.57-33.335c-.542.3-.732.977-.427 1.518.298.525.928.712 1.458.43.562-.297.768-.95.474-1.5a1.1 1.1 0 0 0-1.505-.449zm-2.502 9.123c-.323-.54-.98-.69-1.52-.355a1.09 1.09 0 0 0-.376 1.481 1.1 1.1 0 0 0 1.519.404 1.11 1.11 0 0 0 .378-1.531zm-5.14 5.84a1.09 1.09 0 0 0-.351 1.532 1.07 1.07 0 0 0 1.476.36c.54-.316.718-.987.4-1.522a1.1 1.1 0 0 0-1.526-.37zm7.922-9.978c-.552.31-.73.967-.41 1.515a1.11 1.11 0 0 0 1.47.428c.53-.284.74-.99.456-1.525s-.977-.725-1.517-.418z" fill="#ec7e3b"/><path d="M133.237 81.128c2.836 4.95 1.828 10.983-2.47 14.763-.53.465-1.125.87-1.735 1.225l-18.048 10.48c-4.935 2.857-11.195 1.728-14.802-2.692-.52-.638-.946-1.364-1.36-2.082L81.235 79.18c-.273.325-.477.602-.716.842-.498.502-1.285.503-1.64-.073-.857-1.395-1.755-2.777-2.095-4.426-.42-2.038-.012-3.94 1.108-5.647.854-1.3 1.89-2.48 2.814-3.735.455-.616.865-1.27 1.25-1.932.117-.204.082-.496.125-.802l-.61.058c-2.338.294-4.582-1.033-5.26-3.115-.715-2.2.23-4.66 2.248-5.834l21.05-12.216c2.05-1.2 4.65-.785 6.195.96 1.43 1.614 1.46 4.205.07 6.09l-.352.475c.435.413.958.46 1.47.404.983-.108 1.957-.3 2.94-.412 1.263-.145 2.532-.357 3.795-.346 2.736.022 4.828 1.302 6.305 3.59a21.71 21.71 0 0 1 1.097 1.893c.593 1.16.423 2.296-.288 3.34-.255.375-.27.62-.045 1.013l12.54 21.82zm-14.16-25.178c-.2-.393-.453-.768-.664-1.16-1.314-2.436-3.338-3.49-6.08-3.106-1.42.198-2.83.466-4.25.665-1.694.238-3.328.187-4.585-1.262L92.734 57.33c-.645.37-1.253.192-1.58-.43s-.11-1.15.69-1.613l11.68-6.772a2.3 2.3 0 0 0 1.102-2.657c-.524-1.99-2.214-2.704-3.993-1.672L83.374 54.2l-4.046 2.36c-1.398.856-1.644 2.188-.733 3.67.773 1.258 2.08 1.545 3.41.763l3.213-1.855c.638-.36 1.333-.208 1.643.333.313.547.1 1.215-.54 1.587-.646.382-1.307.74-1.937 1.145a.61.61 0 0 0-.225.512c.333 1.214.01 2.312-.644 3.303-.6.892-1.31 1.7-1.946 2.563-.766 1.043-1.61 2.048-2.227 3.176-1.03 1.887-.564 3.72.524 5.537l1.83-2.32c1.112-1.392 2.902-1.758 4.46-.913l2.386 1.318c.73.386 1.112.256 1.46-.484.25-.532.46-1.082.7-1.62.704-1.578 2.396-2.403 4.057-1.984 1.743.44 1.802.4 2.076-1.395.32-2.09 2.55-3.44 4.515-2.733 1.15.414 1.56.135 1.61-1.113l.143-3.707c.068-1.43.755-2.507 2.06-3.043 1.203-.495 2.382-.272 3.408.572l1.547 1.258c.883.695 1.558.415 1.734-.708.288-1.83 1.824-3.075 3.687-2.975.847.045 1.693.127 2.54.15 1.152.032 1.542-.623.998-1.643zm-.312 4.4c-.2-.35-.406-.523-.84-.524-.867-.002-1.734-.1-2.602-.145s-1.1.162-1.245 1.027c-.384 2.47-3.464 3.693-5.41 2.146a33.46 33.46 0 0 1-1.438-1.201c-.395-.35-.8-.517-1.318-.27-.522.244-.572.675-.585 1.162l-.138 3.768c-.118 2.056-2.37 3.65-4.3 3.068-1.5-.454-1.663-.353-1.882 1.25l-.01.06c-.233 1.5-1.107 2.423-2.523 2.895-.755.25-1.47.103-2.2-.094-.954-.258-1.164-.15-1.548.743l-.596 1.4c-.825 1.84-3.04 2.6-4.8 1.644l-1.906-1.06c-1.248-.695-1.343-.675-2.238.465-.024.03-.04.074-.07.1-.4.34-.34.673-.1 1.106l14.03 24.395c2.69 4.667 8.036 6.166 12.652 3.5l18.352-10.675c1.008-.596 1.948-1.417 2.7-2.32 2.447-2.93 2.652-6.842.653-10.417L118.765 60.35zm4.08 33.44c-.1.1-.22.178-.46.37-.23-.01-.593.032-.924-.05-1.53-.386-3.06-.776-4.57-1.23-.53-.16-.85-.037-1.212.343-1.09 1.145-2.22 2.25-3.32 3.387-.44.454-.91.606-1.53.432l-5.625-1.514a1.35 1.35 0 0 1-1.08-1.084l-1.495-5.7c-.173-.625-.032-1.09.42-1.535l3.477-3.487c.275-.27.358-.516.25-.907l-1.3-4.874c-.155-.57-.04-1.008.386-1.43l4.23-4.282c.405-.418.845-.508 1.377-.364l5.625 1.513c.636.164 1.004.496 1.163 1.153l1.194 4.648c.122.526.38.722.86.842l4.575 1.213a1.34 1.34 0 0 1 1.075 1.084l1.517 5.82c.134.5.036.91-.33 1.278l-4.314 4.37zm-17.692-5.555c-.122.127-.255.36-.22.506l1.184 4.617c.116.063.27.188.445.236l4.1 1.1c.197.048.512-.048.662-.193a103.55 103.55 0 0 0 2.991-3.018c.147-.154.24-.478.2-.68a106.06 106.06 0 0 0-1.114-4.194c-.056-.196-.286-.425-.48-.48-1.338-.388-2.684-.75-4.04-1.08a.9.9 0 0 0-.719.185c-1.02.98-2.012 1.994-2.998 3.012zm11.17-12.335c-.064-.223-.3-.49-.527-.554-1.337-.396-2.688-.745-4.04-1.097-.18-.047-.378-.024-.494-.03-.125.106-.175.142-.218.185l-3.06 3.13c-.138.147-.18.48-.13.694.328 1.358.678 2.71 1.065 4.053a.91.91 0 0 0 .53.535c1.338.395 2.686.755 4.04 1.087.196.048.507-.047.656-.19a104.19 104.19 0 0 0 3.065-3.072c.145-.152.225-.48.175-.686a89.68 89.68 0 0 0-1.066-4.053zm7.712 7.782c-.058-.204-.3-.445-.503-.504-1.358-.396-2.728-.75-4.097-1.112-.142-.037-.294-.034-.396-.045-.08.094-.102.127-.13.155l-3.175 3.217c-.13.135-.172.445-.124.64.343 1.385.707 2.765 1.1 4.136a.83.83 0 0 0 .465.501c1.358.396 2.726.76 4.1 1.1a.77.77 0 0 0 .613-.177c1.032-1 2.047-2.02 3.04-3.062.146-.154.24-.474.192-.677-.33-1.398-.693-2.8-1.084-4.172zM118.173 70a1.06 1.06 0 0 1-1.51-.392c-.302-.524-.147-1.17.357-1.488.52-.33 1.22-.17 1.537.35.32.525.15 1.21-.384 1.53zm-1.41-6.89c-.547.32-1.205.14-1.512-.407a1.13 1.13 0 0 1 .376-1.494c.517-.324 1.21-.15 1.526.38a1.08 1.08 0 0 1-.39 1.521zm-3.707 4.745a1.16 1.16 0 0 1-1.526-.443c-.282-.53-.06-1.25.47-1.522a1.12 1.12 0 0 1 1.475.431c.3.524.104 1.247-.418 1.534zm-4.273 3.762c-.514.275-1.17.084-1.47-.43-.32-.548-.144-1.203.407-1.515.54-.305 1.23-.114 1.516.42s.075 1.24-.454 1.525zm-.315-4.98c-.53.28-1.16.094-1.457-.433-.306-.54-.116-1.218.425-1.517a1.1 1.1 0 0 1 1.504.451c.294.55.09 1.2-.472 1.5zm-3.9 8.705a1.1 1.1 0 0 1-1.517-.405 1.09 1.09 0 0 1 .373-1.481c.542-.337 1.198-.184 1.52.356a1.11 1.11 0 0 1-.377 1.531zm-2.503 24.586c-.513.328-1.222.165-1.54-.353-.312-.508-.133-1.236.38-1.546a1.11 1.11 0 0 1 1.522.407c.3.52.14 1.172-.362 1.492zm-.9-5.895c-.5.28-1.18.1-1.483-.404a1.1 1.1 0 0 1 .393-1.527c.533-.312 1.232-.13 1.525.4s.088 1.242-.435 1.532zm-.224-12.492a1.07 1.07 0 0 1-1.476-.361c-.334-.537-.18-1.207.35-1.533a1.1 1.1 0 0 1 1.525.372c.317.535.14 1.206-.4 1.522zm-.318-4.95c-.537.302-1.216.102-1.5-.444-.28-.52-.1-1.186.402-1.488.523-.316 1.21-.13 1.52.408.312.544.13 1.22-.412 1.524zm-1.28 11.564a1.09 1.09 0 0 1-1.473-.407 1.13 1.13 0 0 1 .385-1.537c.517-.3 1.238-.104 1.53.418a1.14 1.14 0 0 1-.441 1.526zm-2.195 5.633c-.524.27-1.187.076-1.476-.43-.298-.523-.1-1.246.42-1.535.535-.296 1.213-.09 1.5.454s.092 1.228-.455 1.51zM96.56 83.35a1.14 1.14 0 0 1-1.486-.407c-.317-.52-.133-1.223.4-1.53s1.234-.12 1.526.406.082 1.247-.44 1.532zm-1.77-4.9c-.514.288-1.17.11-1.478-.397a1.1 1.1 0 0 1 .366-1.534 1.12 1.12 0 0 1 1.528.399c.303.53.11 1.236-.416 1.532zm.024 8.972c.31.54.13 1.226-.4 1.528s-1.23.1-1.52-.434c-.283-.52-.103-1.174.406-1.48a1.06 1.06 0 0 1 1.513.387zm9.814 14.88c.526-.324 1.215-.153 1.528.378.305.516.15 1.167-.356 1.49-.53.337-1.2.195-1.54-.326-.322-.508-.15-1.224.368-1.543zm4.84-2.81a1.09 1.09 0 0 1 1.506.438c.304.554.1 1.197-.452 1.5a1.09 1.09 0 0 1-1.467-.413 1.12 1.12 0 0 1 .413-1.526zM91.098 83.16c-.53.302-1.23.11-1.522-.42-.285-.514-.108-1.174.398-1.483a1.07 1.07 0 0 1 1.517.377c.316.536.14 1.22-.393 1.527z" fill="#171716"/><path d="M295.997 329.735c.103-.904-.54-1.72-1.438-1.822a1.66 1.66 0 0 0-1.809 1.452c-.617 5.502-1.043 11.557-1.308 17.87-.084.287-.102.577-.034.857-.9 22.91.442 49.22 3.678 66.75H179.284c3.24-17.524 4.58-43.837 3.678-66.75.068-.28.05-.568-.035-.854-.264-6.313-.69-12.368-1.308-17.872a1.65 1.65 0 0 0-1.808-1.452c-.897.102-1.54.918-1.44 1.822.39 3.486.7 7.236.944 11.14-11.204-17.594-33.322-40-38.73-45.377l12.2-12.666c.02-.012.045-.006.065-.02.232-.15.394-.36.52-.588l22.198-23.043c5.097 7.45 25.8 36.13 40.7 33.78.392-.06.76-.187 1.135-.288 5.73 6.99 13.076 8.73 18.306 8.903a27.18 27.18 0 0 0 .905.015c7.974 0 16.318-3.45 21.062-8.747.108.02.206.062.316.08 14.948 2.298 35.713-26.318 40.82-33.75L334.413 296c-5.554 5.332-28.084 27.402-39.36 44.92.244-3.92.553-7.684.945-11.184z" fill="#ec7e3b" stroke="#ec7e3b"/><path d="M473.458 130.17c-4.854 6.34-20.646 11.76-27.287 12.48-7 .756-30.208 9.053-34.06 10.442-25.424 41.973-44.73 70.917-57.39 86.035-9.99 11.93-17.02 22.22-29.723 41.898l13.716 14.078a1.64 1.64 0 0 1-.054 2.343c-.333.31-33.07 31.076-43.29 50.477-.902 23.034.49 50.042 3.8 67.027.003.016-.003.032 0 .048h-3.322c-3.308-17.45-4.685-43.917-3.774-66.926a1.61 1.61 0 0 1 .034-.853c.266-6.286.693-12.315 1.312-17.795.103-.903.93-1.53 1.815-1.446a1.64 1.64 0 0 1 1.443 1.815c-.394 3.484-.705 7.234-.948 11.136 11.312-17.442 33.91-39.42 39.483-44.73l-35.723-36.666c-5.123 7.4-25.952 35.894-40.947 33.606-.11-.018-.21-.06-.316-.08-4.76 5.274-13.13 8.7-21.128 8.7-.304 0-.608-.006-.91-.016-5.246-.172-12.614-1.903-18.362-8.864-.378.1-.746.225-1.14.286-14.938 2.342-35.703-26.217-40.817-33.636L153.6 282.487c-.127.227-.29.435-.52.586-.02.014-.045.008-.067.02l-12.238 12.61c5.426 5.354 27.613 27.665 38.85 45.184-.244-3.887-.553-7.62-.946-11.093a1.64 1.64 0 0 1 1.443-1.815c.9-.1 1.71.543 1.815 1.446.618 5.48 1.046 11.5 1.312 17.796.084.286.102.573.034.85.912 23.014-.463 49.483-3.773 66.927h-3.324c.003-.017-.004-.033 0-.05 3.3-16.975 4.695-43.984 3.792-67.024-10.214-19.427-42.33-50.7-42.657-51.016-.313-.303-.492-.718-.498-1.153s.16-.856.464-1.167l12.776-13.166c-12.855-19.918-20.135-30.77-29.785-42.295-12.66-15.118-31.966-44.062-57.4-86.035-3.85-1.39-27.057-9.686-34.06-10.442-6.64-.72-22.433-6.142-27.288-12.483-1.225-1.602-1.72-3.208-1.478-4.774.21-1.356.78-2.288 1.693-2.77 1.706-.908 3.7.028 6.977 1.576 5.916 2.785 15.827 7.438 31.795 5.584 4.388-.508 8.298-.547 11.848-.303-.96-1.8-2.215-4.387-3.252-7.456-1.258-3.718.022-6.35 1.853-7.31 1.666-.878 4.234-.564 6.214 2.097 2.755 3.71 16.017 19.07 16.148 19.224.07.083.103.182.155.275 3.52 2.456 5.34 4.775 5.827 5.447 20.278 18.633 47.702 49.145 66.75 74.27l30.43 39.377c.388.102.74.31.965.65 6.62 10.066 26.475 35.777 38.72 33.884 3.86-.596 6.838-4.083 8.893-10.303-19.358-3.34-34.28-15.032-43.133-33.224-.044-.025-.096-.014-.137-.043-11.383-7.913-16.378-14.405-15.274-19.85.34-1.673 1.23-2.987 2.32-4.027-9.582-34.358-3.104-56.57 4.085-69.177 7.514-13.173 17.108-18.8 18.474-19.543 2.794-2.226 47.275-36.42 93.154-3.286 42.865 30.964 23.877 84.176 20.873 91.774 1.267 1.087 2.346 2.48 2.727 4.338 1.114 5.425-3.852 11.892-15.188 19.77-.19.13-.408.152-.62.195-8.752 17.73-23.353 29.445-42.256 32.928 2.055 6.282 5.05 9.806 8.938 10.41 11.86 1.816 31.247-22.577 38.335-33.09.046-.072.07-.155.13-.222.01-.012.04-.045.09-.103l.295-.436c.097-.147.238-.25.372-.356 2.08-2.504 9.238-11.387 30.673-39.666 19.044-25.125 46.468-55.637 66.75-74.27.486-.672 2.306-3 5.825-5.447.052-.092.084-.192.156-.275l16.144-19.224c1.978-2.664 4.544-2.973 6.218-2.096 1.827.96 3.1 3.594 1.853 7.3-1.036 3.066-2.292 5.66-3.25 7.45 3.55-.244 7.46-.203 11.846.308 15.988 1.854 25.876-2.8 31.796-5.584 3.3-1.548 5.273-2.484 6.976-1.576.912.483 1.48 1.416 1.693 2.77.243 1.567-.253 3.174-1.482 4.776zm-418.9-11.403c-.82-1.105-1.64-1.363-2.064-1.15-.576.305-.867 1.583-.27 3.356 1.5 4.435 3.546 7.928 4.158 8.926 3.62.53 6.752 1.38 9.435 2.4l-11.26-13.543zM143.454 218c-18.98-25.04-46.32-55.45-66.483-73.955a1.71 1.71 0 0 1-.25-.287c-.387-.564-9.75-13.76-35.82-10.725-16.91 1.97-27.744-3.137-33.568-5.875-1.542-.726-3.274-1.54-3.977-1.612-.004.066-.032.18-.058.344-.102.647.183 1.413.842 2.273 4.1 5.356 18.896 10.55 25.038 11.217 8 .865 34.257 10.41 35.37 10.818a1.65 1.65 0 0 1 .842.69c25.484 42.098 44.797 71.075 57.396 86.123 9.666 11.54 16.945 22.36 29.618 41.99l21.252-21.9c-2.746-3.356-10.406-12.986-30.202-39.1zm35.91 22.485c-2.1-5.426-3.722-11.33-4.82-17.69-1.902.732-4.357 2.153-4.803 4.372-.394 1.96.5 6.137 9.624 13.317zm125.59-13.238c-.497-2.422-3.255-3.787-5.06-4.438-1.134 6.496-2.828 12.544-5.04 18.104 9.57-7.397 10.508-11.68 10.1-13.666zm-6.6-24.726c0-.522.125-1.035.247-1.532.003-.01.006-.02.006-.028-48.408-10.636-66.853-31.644-67.62-32.54a1.64 1.64 0 0 1 .176-2.31c.692-.587 1.725-.5 2.31.175.182.212 18.864 21.38 66.83 31.687.582.124 1.072.462 1.38.95.573.918.3 1.988.103 2.847-.06.246-.154.618-.154.75a120.25 120.25 0 0 1-1.203 16.992c.62.202 1.395.514 2.204.906 3.44-8.99 19.955-58.433-19.99-87.285-45.1-32.588-88.843 2.902-89.277 3.262-.087.072-.187.136-.285.19-.4.208-38.354 21.15-21.37 83.904a17.57 17.57 0 0 1 2.362-1.006l-1.395-9.352c-.08-.538.11-1.082.508-1.45.193-.176 19.358-17.877 31.237-33.056.557-.714 1.584-.84 2.3-.28.7.56.835 1.588.277 2.302-10.806 13.81-27.498 29.62-30.957 32.853l1.482 9.923c.02.136-.004.266-.017.4 5.01 31.607 23.1 51.964 49.64 55.858.063.006.122-.01.186.003 6.493 1.4 14.902.998 19.956.01.013-.002.027.003.04.001s.023-.01.036-.013c31.927-4.677 51-32.4 51-74.16zM246.86 280.1c-2.822.477-6.265.794-9.87.794-2.91 0-5.857-.265-8.646-.738-1.747 5.5-4.212 9.315-7.373 11.357 4.88 5.42 10.942 6.82 15.32 6.966 6.794.253 14.038-2.415 18.508-6.647-3.44-1.948-6.092-5.893-7.94-11.732zm175.916-159.124c.6-1.77.307-3.05-.27-3.355-.407-.225-1.242.043-2.064 1.148-1.713 2.31-7.128 8.708-11.256 13.54 2.684-1.03 5.815-1.882 9.433-2.412a46.45 46.45 0 0 0 4.158-8.921zM471.7 125.9c-.057-.376-.134-.5-.134-.5-.3.076-2.217.976-3.904 1.767-5.82 2.74-16.644 7.85-33.566 5.875-26.125-3.038-35.434 10.163-35.818 10.725-.07.104-.157.203-.25.287-20.167 18.505-47.508 48.916-66.485 73.955l-30.042 38.9 21.152 21.7c12.52-19.386 19.564-29.666 29.56-41.598 12.6-15.048 31.91-44.025 57.397-86.123.195-.32.5-.562.84-.7 1.114-.407 27.37-9.953 35.368-10.818 6.14-.665 20.937-5.86 25.04-11.215.66-.862.944-1.628.84-2.275zM221.236 246.39a1.64 1.64 0 0 1 .457-1.201c.308-.322.736-.505 1.18-.505h29.197a1.64 1.64 0 0 1 1.638 1.602c.01.356.148 8.806-5.042 14.128-2.688 2.76-6.276 4.158-10.664 4.158-12.687 0-16.515-11.894-16.767-18.182zm25.076 11.745c3.02-3.087 3.83-7.742 4.044-10.17h-25.664c.59 3.954 3.075 13.326 13.31 13.326 3.463 0 6.26-1.062 8.31-3.156zm31.686-59.71a1.64 1.64 0 0 1 .122 2.309 1.64 1.64 0 0 1-2.311.131c-.34-.298-8.34-7.218-18.29.1-.292.214-.63.32-.97.32a1.64 1.64 0 0 1-1.321-.67c-.534-.73-.377-1.755.352-2.292 12.145-8.94 22.314.01 22.42.103zm-1.433 22.658a1.64 1.64 0 0 1-.004 2.313c-.64.64-1.676.638-2.316.004-.29-.3-7.293-7.055-16 .106-.304.25-.672.373-1.04.373-.474 0-.94-.205-1.268-.6-.572-.7-.47-1.733.228-2.308 11.056-9.093 20.32.018 20.4.11zm-28.574-23.144a1.65 1.65 0 0 1-.502-.078c-23.405-7.557-40.596-25.578-41.316-26.342-.62-.66-.592-1.696.063-2.318a1.64 1.64 0 0 1 2.318.066c.172.182 17.357 18.18 39.94 25.47a1.64 1.64 0 0 1-.502 3.201zm-29.68.486a1.64 1.64 0 0 1 .121 2.309 1.64 1.64 0 0 1-2.31.131c-.335-.298-8.343-7.218-18.29.1-.292.214-.63.32-.97.32a1.64 1.64 0 0 1-1.321-.67c-.534-.73-.377-1.755.352-2.292 12.148-8.94 22.314.01 22.42.103zm-.736 22.658a1.64 1.64 0 0 1-.003 2.313c-.64.64-1.677.638-2.318.004-.29-.29-7.302-7.053-16.013.106-.303.25-.672.373-1.04.373-.474 0-.94-.205-1.268-.6-.573-.7-.47-1.733.227-2.308 11.044-9.083 20.324.016 20.414.11z" fill="#171716"/></g></svg>