<svg xmlns="http://www.w3.org/2000/svg" width="445" height="360" fill="none" xmlns:v="https://vecta.io/nano"><path d="M369.55 100.4c-21.37-38.62-56.13-66.685-98.613-78.786C183.653-3.876 91.99 46.59 66.5 133.872c-25.233 87.283 25.233 178.944 112.517 204.434 15.19 4.377 30.64 6.694 46.09 6.694 27.55 0 54.585-6.952 79.303-20.598 38.62-21.37 66.686-56.13 78.787-98.612 12.617-42.226 7.467-86.77-13.646-125.4zm-1.287 121.528c-143.672-24.718-227.095 23.687-260.31 50.465l-6.18-8.24c26.52-22.657 119.212-89.6 272.153-74.667-.772 10.814-2.574 21.37-5.664 31.927v.515zM118.51 284.236c31.412-24.202 110.458-69.517 244.603-47.375-4.12 10.042-9.27 19.31-15.19 28.065-117.667-24.975-187.186 3.604-221.43 26.777-2.832-2.317-5.665-4.892-7.982-7.467zm160.15-109.683c32.7-33.472 74.41-38.88 88.83-39.65 4.12 12.616 6.18 25.747 6.952 38.878-35.274-3.347-67.2-2.574-95.78.773zM225.107 30.625c13.646 0 27.55 1.802 41.453 5.922 38.364 11.07 70.034 36.56 89.087 71.32 2.06 3.862 3.863 7.724 5.665 11.587-22.143 2.06-71.58 11.586-106.338 58.446-30.64 5.407-57.16 13.903-79.818 23.43 4.12-13.904 9.784-26.262 15.706-36.304 4.635.773 9.527 1.03 14.16 1.03 22.658 0 43.514-8.754 58.2-24.975 19.31-21.113 24.975-51.237 15.45-80.59l-1.545-4.635-4.892-1.03c-30.125-6.952-59.735 1.545-79.046 22.4-19.053 20.855-24.975 50.465-15.706 79.817-8.24 14.16-15.963 31.67-20.598 52.524-30.897 14.934-52 30.897-63.854 40.938l-3.862-7.466c84.7-65.913 64.112-160.15 55.357-188.728 23.688-15.19 51.753-23.688 80.59-23.688zm-7.467 88.83l-4.892-5.922c-.773.772-10.042 8.496-21.113 22.915-1.803-18.023 3.604-35.017 15.19-47.633 13.904-15.19 35.017-21.885 57.16-18.28 5.407 21.885.772 43.513-13.132 58.703-12.1 13.39-29.867 20.083-48.92 19.054 11.07-14.934 20.34-22.916 20.598-23.173l-4.892-5.664zm-86.512-55.357c8.24 29.61 21.113 107.11-47.376 163.495l-3.1-10.3c38.622-47.632 39.137-99.127 32.185-135.688 5.407-6.437 11.586-12.36 18.28-17.508zM81.692 138.25c4.12-14.418 10.3-27.55 18.023-39.393 3.1 28.322-.258 63.338-22.916 97.325-2.317-18.796-.772-38.62 4.892-57.932zm101.703 185.123c-4.12-1.287-8.24-2.574-12.36-4.12 26.778-9.27 65.657-14.676 120.242-5.407-33.472 16.478-71.578 19.825-107.883 9.526zm128.224-21.885c-77.758-16.736-128.48-6.437-160.15 8.24-4.12-2.317-8.24-4.892-11.844-7.467 8.754-5.664 19.826-11.328 33.472-16.478 32.957-12.36 86.77-22.143 164.013-6.952-7.724 8.497-16.22 15.964-25.5 22.658z" fill="#fafafa"/><g fill-rule="evenodd"><path d="M351.4 249.803v-32.55h17.967v32.55H351.4zm-19.407 1.43h17.968v6.795h-17.968v-6.795zM147.7 345.422v-24.928h18.33v24.928H147.7zm-51.184-24.928h26.7v12.444h-26.7v-12.444zM70.69 293.002h24.03v15.8H70.69v-15.8zm171.794 7.18h40.138V276.16h-40.138v24.022zm-118.32-137.41c-.044 1.048-.33 6.014-1.92 9.688-1.3 3.002-3.382 5.513-4.03 6.257H88.352c-.455-.508-2.75-3.16-4.15-6.4-1.526-3.527-1.85-8.263-1.912-9.554h24.516v10.766c0 .403.323.73.722.73h11.963c.4 0 .722-.327.722-.73v-10.766h3.95zm-29.106-18.734c2.095 0 3.84 1.542 4.185 3.562h-8.37c.344-2.02 2.1-3.562 4.184-3.562zm105.93 29.218v.23H187.05v-11.802h13.937v11.573zm116.653-3.4v-5.313h10.376v5.313H317.64zm-22.655-12.52h21.235v1.75h-21.235v-1.75zM250.208 92.38V43.134L257.696 46v44.123l-7.488 2.268zM214 46.2l7.493-2.876V92.58L214 90.3V46.2zM101.443 235.85l1.93-15.943h4.926l2.06 15.943h-8.915zm4.46 20.66c1.796 0 3.295 1.42 3.602 3.288H102.3c.307-1.867 1.805-3.288 3.602-3.288z" fill="#ec7e3b" stroke="#ec7e3b"/><path d="M444.857 88.28a10.86 10.86 0 0 1-1.819 1.844.69.69 0 0 1-.429.151c-.2 0-.4-.088-.535-.256a.68.68 0 0 1 .106-.962 9.5 9.5 0 0 0 1.59-1.611.69.69 0 0 1 .545-.267c.146 0 .294.047.418.143.3.23.355.66.124.96zm-3.985 3.23a15.02 15.02 0 0 1-2.369.952l-.204.03c-.293 0-.564-.19-.654-.482-.112-.36.1-.744.452-.856a13.58 13.58 0 0 0 2.151-.865.69.69 0 0 1 .312-.075c.25 0 .49.136.61.373.172.338.04.75-.3.92zm-4.846 1.514c-.823.125-1.67.195-2.52.21l-.012.001c-.373 0-.68-.3-.686-.674s.296-.69.675-.694c.79-.013 1.575-.08 2.337-.194.035-.005.07-.008.103-.008.334 0 .627.24.68.58.057.373-.2.723-.575.78zM431.17 75.06l-9.892-.082c-2.402 0-4.42-1.922-4.516-4.364-.093-2.388 1.693-4.424 4.04-4.686.856-2.023 2.834-3.35 5.077-3.35 2.688 0 4.945 1.885 5.423 4.503.902.064 1.758.43 2.434 1.053a3.96 3.96 0 0 1 1.282 2.777c.086 2.2-1.64 4.06-3.847 4.147zm-.14-6.566l-.118.003c-.525.02-1.025.196-1.444.5a.71.71 0 0 1-.427.142c-.217 0-.43-.098-.57-.285a.71.71 0 0 1 .143-.996c.384-.286.81-.5 1.264-.633-.392-1.858-2.075-3.234-4-3.234-1.483 0-2.8.78-3.53 2.015 1.078.248 2.032.885 2.687 1.813a.71.71 0 0 1-.173.99c-.125.09-.268.13-.41.13a.71.71 0 0 1-.584-.302c-.555-.785-1.42-1.27-2.37-1.32-.065.02-.133.03-.203.03a.72.72 0 0 1-.192-.027c-.8.052-1.54.404-2.087.993a3.09 3.09 0 0 0-.829 2.238c.032.832.387 1.6 1 2.166a3.13 3.13 0 0 0 2.142.828l.102-.001 9.715.085c1.39-.055 2.5-1.253 2.445-2.67a2.57 2.57 0 0 0-2.561-2.474zm-13.136 17.963c.33.184.448.6.264.93a.69.69 0 0 1-.599.35c-.114 0-.23-.028-.335-.088l-2.127-1.183c-.33-.183-.45-.6-.268-.93.125-.226.36-.354.6-.354.113 0 .227.028.332.085l2.133 1.187zm-4.612-1.06c-.108 0-.215-.025-.318-.078l-1.887-.944-.268-.127c-.343-.16-.49-.567-.33-.9a.69.69 0 0 1 .623-.395.68.68 0 0 1 .29.065l.28.133 1.93.965c.335.175.465.588.29.923-.122.234-.36.367-.608.367zm-.157-38.144h-6a.71.71 0 1 1 0-1.421h6a.71.71 0 1 1 0 1.421zm-8.42-7.29c-.14.14-.323.21-.506.21s-.363-.068-.502-.208a.71.71 0 0 1-.003-1.005l4.242-4.25a.71.71 0 0 1 1.008-.003.71.71 0 0 1 .003 1.005l-4.242 4.25zM402.363 17.5c-.13.2-.35.307-.572.307-.13 0-.262-.037-.38-.114-.316-.21-.402-.633-.193-.95.42-.633.727-1.322.888-1.992.074-.315.355-.526.666-.526a.72.72 0 0 1 .161.019c.367.088.595.457.508.824-.198.825-.57 1.666-1.08 2.43zm-3.89 3.383c-.103.054-.212.08-.32.08a.69.69 0 0 1-.608-.365.68.68 0 0 1 .287-.924c.707-.372 1.345-.798 1.894-1.266.13-.1.288-.163.446-.163.194 0 .387.082.522.24.245.288.21.72-.077.965-.628.533-1.35 1.016-2.144 1.435zm-.623 9.63v6c0 .393-.32.71-.713.71a.71.71 0 0 1-.714-.711v-6a.71.71 0 0 1 .714-.711c.393 0 .713.318.713.71zm-1.723-8.643c-.76.252-1.58.465-2.44.636l-.134.012c-.32 0-.608-.225-.673-.55-.073-.37.17-.73.54-.804.803-.16 1.568-.358 2.274-.59.072-.024.145-.034.217-.034.288 0 .554.182.65.468.12.36-.077.746-.435.865zm8.056 24.533c0 4-3.264 7.254-7.274 7.254s-7.274-3.254-7.274-7.254 3.263-7.254 7.274-7.254 7.274 3.254 7.274 7.254zm-13.12 0c0 3.216 2.622 5.833 5.847 5.833a5.85 5.85 0 0 0 5.847-5.833c0-3.216-2.623-5.832-5.847-5.832s-5.847 2.616-5.847 5.832zm.15-23.535a33.41 33.41 0 0 1-2.483.153h-.017c-.37 0-.675-.295-.686-.667-.01-.378.3-.692.668-.7.825-.02 1.626-.07 2.38-.146.024-.003.048-.003.072-.003.347 0 .644.263.68.615.037.376-.237.71-.616.75zm-4.938.163h-.008l-2.453-.053c-.38-.012-.676-.33-.664-.707s.32-.66.71-.662l2.424.053c.378.004.682.314.678.692s-.31.677-.686.677zm-4.874-.154l-.035-.001-2.442-.136c-.38-.022-.667-.347-.644-.724.022-.357.324-.645.668-.645.02 0 .04.001.058.003l2.428.135c.38.018.67.34.65.717-.018.365-.32.65-.684.65zm-4.87-.292l-.047-.002-2.435-.17c-.378-.027-.663-.354-.636-.73.025-.36.326-.636.684-.636a.89.89 0 0 1 .049.002l2.43.17c.38.026.664.352.64.73-.025.36-.327.637-.684.637zm-4.862-.376l-.072-.004-2.436-.277c-.375-.045-.643-.387-.597-.762.043-.347.337-.6.68-.6a.95.95 0 0 1 .085.004l2.41.274c.377.04.65.375.612.75-.036.352-.334.614-.68.614zm.21 38.663c0 .393-.32.71-.713.71a3.32 3.32 0 0 0-3.319 3.309.71.71 0 0 1-.713.711c-.403 0-.723-.318-.723-.71a3.32 3.32 0 0 0-3.319-3.309.71.71 0 1 1 0-1.422c1.704 0 3.2.9 4.036 2.248a4.75 4.75 0 0 1 4.038-2.248c.393 0 .713.318.713.71zm-5.05-39.243l-.088-.006-2.42-.308c-.375-.048-.64-.4-.593-.764a.69.69 0 0 1 .681-.598.71.71 0 0 1 .086.005l2.42.307c.375.048.64.4.593.765-.044.346-.338.6-.68.6zm-4.84-.615l-.087-.006-2.42-.307c-.377-.048-.642-.39-.594-.765a.69.69 0 0 1 .767-.592l2.42.308c.375.048.642.4.594.765-.044.345-.34.598-.68.598zm.217 45.7a.71.71 0 1 1 0 1.421 3.32 3.32 0 0 0-3.319 3.31.71.71 0 0 1-.712.711c-.404 0-.723-.318-.723-.71a3.32 3.32 0 0 0-3.319-3.31.71.71 0 1 1 0-1.421 4.75 4.75 0 0 1 4.037 2.247c.837-1.348 2.333-2.247 4.036-2.247zm-5.055-46.315l-.087-.005-2.42-.308c-.377-.048-.64-.4-.594-.764a.69.69 0 0 1 .683-.598.66.66 0 0 1 .084.005l2.418.308c.377.047.643.39.595.764-.045.346-.34.598-.68.598zm-1.14 63.72c-.13.234-.374.366-.624.366-.117 0-.236-.028-.345-.09l-2.377-1.317a.71.71 0 0 1-.277-.967c.192-.343.625-.468.97-.277l2.376 1.317a.71.71 0 0 1 .277.966zm-3.697-64.334l-.088-.005-2.42-.308c-.375-.048-.642-.4-.593-.765a.69.69 0 0 1 .684-.597c.028 0 .055.002.083.004l2.42.308c.375.047.64.4.594.765-.045.345-.34.598-.68.598zm-4.838-.614l-.087-.006-1.565-.2-.836-.093c-.378-.036-.654-.372-.616-.747a.68.68 0 0 1 .673-.619c.025 0 .05.002.076.005l.877.098 1.563.2c.376.047.642.4.594.764-.043.346-.34.6-.68.6zm-4.855-.436h-.015l-.564-.006a27.28 27.28 0 0 0-1.813.06l-.048.002c-.357 0-.658-.277-.683-.638-.026-.376.26-.703.637-.73.612-.042 1.263-.063 1.914-.063l.585.005c.38.008.68.32.672.7-.008.373-.313.67-.685.67zm-4.732.344c-.826.155-1.575.362-2.226.614a.69.69 0 0 1-.248.046c-.275 0-.534-.166-.64-.436-.138-.353.038-.75.39-.886.73-.282 1.56-.513 2.468-.683a.67.67 0 0 1 .125-.011.69.69 0 0 1 .677.557c.07.372-.176.73-.548.8zm-5.32 3.364c-.1.282-.364.458-.647.458-.075 0-.153-.012-.227-.04-.358-.125-.546-.515-.42-.872.302-.865.837-1.624 1.59-2.258.128-.108.286-.16.442-.16.195 0 .39.082.525.243.243.29.208.72-.082.965-.563.473-.96 1.033-1.182 1.663zm18.33 59.278a.71.71 0 0 1-.349-.092l-14.787-8.295a.71.71 0 0 1-.271-.968c.192-.342.627-.464.97-.27l14.786 8.295a.71.71 0 0 1 .272.968c-.13.23-.372.363-.622.363zm39.037-2.245a.69.69 0 0 1 .629.411c.152.346-.006.75-.354.9-.694.304-1.334.7-1.902 1.173a.68.68 0 0 1-.439.16c-.196 0-.392-.083-.526-.245-.244-.29-.206-.72.084-.964.667-.56 1.418-1.022 2.233-1.378a.67.67 0 0 1 .275-.059zm-3.652 3.108a.68.68 0 0 1 .35.098c.326.194.432.614.238.94-.384.64-.62 1.315-.703 2.008-.04.348-.337.604-.68.604l-.082-.005c-.377-.044-.645-.385-.6-.76.106-.885.404-1.743.887-2.55.13-.215.356-.334.6-.334zm4.292-29.472a.71.71 0 0 1 .002 1.006l-4.24 4.25a.71.71 0 0 1-1.008.003.71.71 0 0 1-.002-1.005l4.24-4.25a.71.71 0 0 1 1.008-.003zm-2.716-6.575c0 .392-.32.7-.713.7h-6c-.393 0-.713-.318-.713-.7a.71.71 0 0 1 .713-.711h6a.71.71 0 0 1 .713.711zm-2.028-12.04a.71.71 0 0 1 .505.209l4.24 4.25a.71.71 0 0 1-.002 1.005c-.14.14-.32.208-.502.208s-.366-.07-.506-.21l-4.24-4.25a.71.71 0 0 1 .505-1.212zM394.692 80h-.143c-.777 0-1.487.056-2.167.17l-.114.01c-.328 0-.62-.237-.676-.57-.062-.372.19-.725.563-.788.746-.125 1.55-.188 2.393-.19l.155.001c.38.003.683.31.68.7s-.31.678-.686.678h-.006zm1.73-17.433v-6a.71.71 0 0 1 .714-.711c.393 0 .713.318.713.71v6c0 .393-.32.71-.713.71a.71.71 0 0 1-.714-.711zm3.243 16.64c.373.072.615.43.544.802-.063.327-.35.554-.673.554l-.13-.013-.746-.136a32.39 32.39 0 0 0-1.616-.246c-.375-.047-.642-.388-.594-.764a.68.68 0 0 1 .68-.599c.027 0 .057.002.085.005a34.11 34.11 0 0 1 1.682.255l.77.14zm9.84 3.705a.69.69 0 0 1-.636.425c-.086 0-.174-.017-.26-.05-.74-.302-1.496-.6-2.248-.855a.68.68 0 0 1-.417-.873c.098-.28.362-.457.645-.457a.68.68 0 0 1 .231.04c.77.27 1.547.567 2.308.878.352.144.52.543.376.893zm-4.576-1.682c-.09.296-.36.49-.657.49l-.196-.028a47.86 47.86 0 0 0-2.321-.628c-.368-.1-.593-.46-.504-.827a.69.69 0 0 1 .668-.521.68.68 0 0 1 .162.019c.798.194 1.6.41 2.387.646.363.107.57.49.46.85zm-.728-28.317c.183 0 .366.07.506.21l4.242 4.25a.71.71 0 0 1-.506 1.213.71.71 0 0 1-.505-.21l-4.242-4.25a.71.71 0 0 1 .505-1.212zm17.656 37.126a.69.69 0 0 1-.306-.072 75.79 75.79 0 0 1-2.182-1.136c-.333-.18-.457-.595-.276-.927.123-.23.36-.36.603-.36a.69.69 0 0 1 .327.082 72.04 72.04 0 0 0 2.14 1.116c.34.168.476.58.308.917-.12.24-.363.38-.614.38zm4.474 1.928c-.075 0-.153-.012-.227-.04-.746-.262-1.524-.57-2.314-.912-.347-.15-.505-.554-.354-.9.113-.257.365-.4.63-.4.092 0 .185.02.274.057a33.4 33.4 0 0 0 2.22.877c.358.126.546.516.42.873a.69.69 0 0 1-.648.457zm-96.385-46.504h-1.113v1.81l-.05.05v6.95l.05-.05v2l-.05.05v6.95l.05-.048v2l-.05.05v6.172L430.9 130.032a.71.71 0 0 1 .352.703.7.7 0 0 1-.09.268l-4.106 7.114c-.04.072-.106.114-.164.163-.13.114-.284.194-.455.194-.12 0-.243-.03-.355-.094h0L399.1 122.826v155.266c0 .393-.32.712-.713.712h-2.726v66.107h9.153a.71.71 0 0 1 .713.711v2.45h15.566c.394 0 .713.32.713.712s-.32.71-.713.71h-15.566v8.78a.71.71 0 0 1-.713.711H382.88a.71.71 0 0 1-.713-.711V356.7H65.726v2.58a.71.71 0 0 1-.713.711H43.078a.71.71 0 0 1-.713-.711v-8.656l-16.4.001c-.393 0-.713-.32-.713-.71 0-.227.113-.42.28-.55a.71.71 0 0 1-.061-.285v-1.326l-.043-.028-2.376-2.37a.71.71 0 0 1 .505-1.214c.183 0 .365.07.504.21l1.41 1.407v-1.47l-.096-.063-2.045-2.042a.71.71 0 0 1 0-1.006c.14-.14.322-.208.505-.208a.71.71 0 0 1 .504.208l1.133 1.13V340.2a.71.71 0 1 1 1.426 0v2.22l1.29-1.287c.14-.14.322-.21.506-.21a.71.71 0 0 1 .504 1.214l-2.047 2.04c-.074.074-.16.126-.253.16v1.53l1.568-1.565c.14-.138.322-.208.505-.208s.364.07.504.208c.278.28.278.73 0 1.007l-2.376 2.37c-.06.06-.13.098-.2.133v1.273c0 .044-.018.082-.025.123h9.87c-.11-.125-.18-.282-.18-.46v-1.707l-2.97-2.6a.71.71 0 0 1 .472-1.244.71.71 0 0 1 .469.175l2.03 1.8v-2.31l-.105-.097a.7.7 0 0 1-.102-.257l-2.68-1.734a.71.71 0 0 1 .389-1.308c.133 0 .268.037.387.115l2.11 1.574v-2.003l-2.92-2.142a.71.71 0 0 1 .422-1.284.71.71 0 0 1 .423.139l2.076 1.523v-2.7c0-.393.32-.712.713-.712s.713.32.713.712v2.715l2.384-1.748a.71.71 0 0 1 .997.151.71.71 0 0 1-.152.994l-3.22 2.362-.008.018v1.756l2.418-1.565c.12-.078.254-.115.387-.115a.71.71 0 0 1 .388 1.308l-3.194 2.067v2.587l2.335-2.045c.135-.118.304-.176.47-.176.2 0 .395.08.535.242a.71.71 0 0 1-.065 1.004l-3.276 2.868v1.657c0 .178-.072.335-.18.46h4.557l.002-2.576a.71.71 0 0 1 .713-.711h4.488l-.197-158.692H32.25a.71.71 0 0 1-.713-.711v-6.598c-.044-.094-.075-.196-.075-.306V159.4c0-.392.32-.712.713-.712h2.56c.04-.007.077-.024.12-.024H47.34c.03 0 .058.015.088.018l.138-34.305-18.44 10.63c-.054.067-.117.127-.197.172-.06.035-.126.036-.19.052l-5.394 3.11c-.028.022-.046.05-.076.068-.113.065-.236.096-.356.096-.246 0-.487-.128-.618-.356l-4.06-7.012c-.06-.106-.083-.22-.085-.333a.69.69 0 0 1 .029-.423c.006-.014.014-.025.02-.04.06-.126.146-.24.277-.317l165.52-95.014a22.74 22.74 0 0 0-2.789-.186c-3.93 0-7.402 1.036-11.293 2.197l-3.693 1.067c-1.928.522-4.153.85-6.465.85-4.12 0-8.514-1.046-11.985-3.9a.71.71 0 0 1 .454-1.259.71.71 0 0 1 .455.164c3.183 2.626 7.24 3.588 11.063 3.588 2.18 0 4.282-.312 6.105-.805a147.1 147.1 0 0 0 3.657-1.057c3.86-1.153 7.55-2.254 11.737-2.254 1.1 0 2.233.076 3.414.247a.7.7 0 0 1 .594.638l39.075-22.43c.12-.07.242-.102.364-.1s.245.03.355.092l82.508 47.366v-13.76h-1.8a.71.71 0 0 1-.713-.71V39.87c0-.393.32-.71.713-.71h24.207a.71.71 0 0 1 .713.711v4.883a.71.71 0 0 1-.713.71zM32.964 185.8h14.264v-5.176H32.964v5.176zm2.314-25.69H32.9v18.785h2.39V160.12zm2.597-.023h-1.17v19.113h1.17v-19.113zm2.283 0H39.3v19.113h.858v-19.113zm2.284 0h-.858v19.113h.858v-19.113zm2.284 0h-.858v19.113h.858v-19.113zm2.612 0H46.15v19.113h1.23l.04-19.13c-.03.003-.053.017-.084.017zm378.837-23.307l3.393-5.88-4.244-2.437-3.367 5.887 4.218 2.43zm-28.503 140.6v-35.773l-12.338.06v35.713h12.338zm-12.338-148.91v35.506h12.338v-35.506h-12.338zm12.338-1.422v-4.53l-12.338-7.228v11.758h12.338zm-12.338 38.35v37.222l12.338-.06V165.4h-12.338zm0 38.644v36.2l12.338-.06v-36.2l-12.338.06zm8.9 137.287v-2.606h-5.348v2.606h5.348zm-5.348 1.423v1.452h5.348v-1.452h-5.348zm5.348-5.452v-2.607h-5.348v2.607h5.348zm0-4.03v-2.606h-5.348v2.606h5.348zm0-4.03v-2.607h-5.348v2.607h5.348zm0-4.03V322.6h-5.348v2.606h5.348zm0-4.03v-2.606h-5.348v2.606h5.348zm0-4.028v-2.608h-5.348v2.608h5.348zm0-4.03v-2.606h-5.348v2.606h5.348zm0-4.03v-2.607h-5.348v2.607h5.348zm0-4.03v-2.606h-5.348v2.606h5.348zm0-4.03v-2.606h-5.348v2.606h5.348zm0-4.03v-2.607h-5.348v2.607h5.348zm0-4.03v-2.606h-5.348v2.606h5.348zm0-4.028v-2.608h-5.348v2.608h5.348zm0-4.03v-2.606h-5.348v2.606h5.348zm0-4.03v-1.847h-5.348v1.847h5.348zm9.866 76.67v-.044l-.043.044h.043zm-20.51-10.583a.69.69 0 0 1 .112.36v1.79a.7.7 0 0 1 .67.176.71.71 0 0 1 0 1.006l-.67.668V356a.68.68 0 0 1-.112.358v1.207h1.033c-.078-.245-.028-.524.167-.72l7.56-7.54c.278-.278.73-.278 1.007 0a.71.71 0 0 1 0 1.006l-7.27 7.252h7.522c-.078-.245-.028-.524.168-.72l7.558-7.54c.278-.278.73-.278 1.008 0a.71.71 0 0 1 0 1.006l-7.27 7.252h7.522c-.08-.245-.03-.524.167-.72l1.34-1.336v-6.95l-.332.332a.71.71 0 0 1-.502.207c-.184 0-.366-.07-.505-.207a.71.71 0 0 1 0-1.007l1.34-1.336v-.215h-6.752l-2.564 2.558a.71.71 0 0 1-.504.207.71.71 0 0 1-.503-1.214l1.555-1.55h-6.97l-2.563 2.558c-.14.138-.322.207-.505.207a.71.71 0 0 1-.503-1.214l1.555-1.55h-2.755v.648zm-.712-2.07h4.58v-66.107h-2.838c-.393 0-.713-.32-.713-.712v-9.854H229.332v.23c.042.004.086.006.127.017v1.5l-.127.126v7.318c.042.004.086.006.127.017v1.5l-.127.126v7.317c.042.005.086.007.127.017v1.5l-.127.126v7.317c.042.005.086.007.127.017v1.5l-.127.126v7.318c.042.004.086.006.127.017v1.5l-.127.126v7.317c.042.004.086.006.127.017v1.5l-.127.127v7.317c.042.005.086.007.127.017v1.5l-.127.127v7.317c.042.004.086.006.127.016v1.5l-.127.126v7.318c.042.004.086.006.127.016v1.5l-.127.126v4.83h32.96c-5.538-.57-9.872-5.25-9.872-10.918 0-6.054 4.937-10.98 11.007-10.98s11.007 4.925 11.007 10.98c0 5.67-4.334 10.35-9.872 10.918h117.603v-1.007a.71.71 0 0 1 .713-.711zM232.53 30.833h-15.237a.71.71 0 0 1-.713-.711v-3.158L100.062 94.126h39.315c-.184-.1-.313-.3-.313-.53v-12.63l-4.072-3.803c-.187-.176-.25-.448-.154-.687a.63.63 0 0 1 .584-.396h2.675l-.315-1.64c-.036-.183.013-.373.132-.517a.63.63 0 0 1 .485-.228h21.43a.63.63 0 0 1 .485.228.62.62 0 0 1 .132.517l-.34 1.768h2.79a.63.63 0 0 1 .584.396c.095.24.033.512-.155.687l-3.902 3.645v12.66c0 .23-.13.42-.313.53h51.945V92h-.622a.71.71 0 0 1-.713-.711v-46.68a.71.71 0 0 1 .713-.711h4.124l.08.016 7.06-2.773c.082-.033.166-.048.248-.048.122 0 .24.033.348.1a.7.7 0 0 1 .556.68v2.117h25.54v-2.318l.004-.02c-.016-.117-.014-.237.032-.354.1-.28.38-.45.666-.45.086 0 .173.016.257.048L257.1 43.9l.063-.013h3.404a.71.71 0 0 1 .713.711v46.68a.71.71 0 0 1-.713.711h-.704v1.716c0 .156-.06.293-.147.4h6.73c-.955-.393-1.63-1.33-1.63-2.422v-27.5a2.63 2.63 0 0 1 2.627-2.62h22.018a2.63 2.63 0 0 1 2.627 2.62v27.5c0 1.092-.674 2.03-1.628 2.422h58.848L233.242 27.224v2.9a.71.71 0 0 1-.713.711zm-1.39-1.422h.676v-.675l-.676.675zm.676-2.686v-.324l-2.87-1.655-4.677 4.665h4.856l2.692-2.686zm-13.81-.197l.502-.5-.502.3v.2zM62.397 131.636l-.02 47.617h21.97c-.126-.128-.204-.302-.204-.497a.71.71 0 0 1 .712-.711h2.128c-.962-1.183-2.474-3.244-3.532-5.657-1.647-3.755-1.956-8.624-2.01-9.88h-1.784a.71.71 0 1 1 0-1.423h5.41l-.013-.07V146.16c0-3.343 2.7-6.065 6.02-6.065 2.04 0 3.938 1.062 5.042 2.775 2.747.3 4.9 2.602 4.98 5.405l.018.16a.71.71 0 0 1-.713.711h-9.828a.71.71 0 0 1-.713-.711c0-2.713 1.943-4.98 4.514-5.494-.857-.893-2.045-1.422-3.3-1.422-2.532 0-4.593 2.082-4.593 4.64v14.857l-.015.07h20.617v-1.867c0-.392.32-.71.713-.71H119.6a.71.71 0 0 1 .713.711v1.867h7.5c.392 0 .712.32.712.71s-.32.712-.712.712h-2.172c-.035.988-.3 6.1-2.016 10-1.018 2.323-2.46 4.325-3.425 5.527h2.283a.71.71 0 0 1 .713.711.7.7 0 0 1-.205.497h11.44a.69.69 0 0 1 .016-.313l2.645-9.145c-2.127-.67-3.673-2.655-3.673-4.994v-.294a.71.71 0 0 1 .713-.711h2.022c-1.116-.89-1.835-2.26-1.835-3.792v-8.882c0-.392.32-.71.713-.71h6.44v-1.538a.71.71 0 1 1 1.425 0v1.538h6.44a.71.71 0 0 1 .713.711v8.882c0 1.533-.718 2.9-1.834 3.792h2.022a.71.71 0 0 1 .713.711v.294c0 2.34-1.547 4.325-3.673 4.994l2.606 9.008a.72.72 0 0 1 .083.334c0 .04-.016.077-.024.116h11.85c-.063-.106-.1-.223-.1-.357v-3.54l.038-.183v-16.62h-.558c-.394 0-.713-.32-.713-.712v-3.168c0-.392.32-.71.713-.71h5.152a4.06 4.06 0 0 1-1.568-3.204v-1.674a.71.71 0 0 1 .713-.711h13.446l-1.194-.975a.71.71 0 0 1 .452-1.261c.158 0 .318.053.45.16l1.178.962v-4.604a3.12 3.12 0 1 0-6.248 0c0 .393-.32.712-.713.712s-.713-.32-.713-.712c0-2.498 2.042-4.53 4.55-4.53s4.55 2.033 4.55 4.53v5.717h2.55a.71.71 0 0 1 .713.711v1.674a4.06 4.06 0 0 1-1.568 3.204h5.29a1.57 1.57 0 0 1-.307-.937c0-.856.685-1.55 1.536-1.578.077-.03.157-.05.244-.05h13.174c.1 0 .162-.073.162-.16s-.072-.162-.162-.162l-.13-.026-.13.026H189.29a1.59 1.59 0 0 1-1.588-1.584 1.59 1.59 0 0 1 1.588-1.585h13.787c.394 0 .713.32.713.71a.71.71 0 0 1-.713.712H189.29c-.1 0-.163.073-.163.162s.073.16.163.16h13.306l.13.027.13-.027a1.59 1.59 0 0 1 1.589 1.585 1.59 1.59 0 0 1-1.589 1.583H189.7c-.07.022-.14.045-.218.045a.16.16 0 0 0-.162.16c0 .1.072.162.162.162h13.69c.394 0 .713.32.713.71 0 .022-.001.043-.002.064H206c.394 0 .713.32.713.71v3.168c0 .393-.32.712-.713.712h-.632v20.342a.69.69 0 0 1-.109.357h16.127v-.27c-.04-.026-.086-.045-.12-.08v-1.02l.12-.122v-7.74c-.04-.025-.086-.044-.12-.08v-1.02l.12-.122v-7.74c-.04-.026-.086-.044-.12-.08v-1.02l.12-.12V152.1c-.04-.025-.086-.044-.12-.08v-1.018l.12-.122v-7.742c-.04-.026-.086-.044-.12-.08v-1.018l.12-.122v-7.742c-.04-.025-.086-.044-.12-.08v-1.018l.12-.12v-7.742c-.04-.026-.086-.044-.12-.08v-1.018l.12-.122v-7.74c-.04-.025-.086-.044-.12-.08v-1.02l.12-.12v-7.742c-.04-.026-.086-.044-.12-.08v-1.018l.12-.12v-3.33H85.11l-22.693 13.08-.02 15.68c.003.023.013.042.013.065s-.012.043-.013.065zM371.23 262.84h-6.968l-3.986 3.976h6.967l3.987-3.976zm-1.97 3.976h6.968l3.988-3.976h-6.97l-3.986 3.976zm-17.717-15.67v6.764h17.798v-6.764h-17.798zm17.798-1.422v-32.396h-17.798v32.396h17.798zm-3.025 11.48v-1.873h-30.972v1.443c0 .286-.17.53-.415.642h31.43c-.02-.068-.043-.137-.043-.212zm-33.995-10.06v6.764h17.796v-6.764h-17.796zm17.796-1.422v-32.396h-17.796v32.396h17.796zm12.128 13.115h-6.968l-3.986 3.976h6.967l3.987-3.976zm-8.985 0h-6.968l-3.987 3.976h6.97l3.986-3.976zm-8.985 0h-6.968l-3.987 3.976h6.968l3.987-3.976zm-8.985 0h-6.967l-3.987 3.976h6.967l3.987-3.976zm-8.984 0h-6.97l-3.986 3.976h6.967l3.988-3.976zm-8.985 0h-6.97l-3.986 3.976h6.967l3.988-3.976zm-8.986 0h-6.968l-3.986 3.976h6.968l3.986-3.976zm-8.985 0h-6.968l-3.987 3.976h6.97l3.986-3.976zm-8.985 0H283.4l-3.988 3.976h6.97l3.986-3.976zm-8.984 0h-6.97l-3.986 3.976h6.967l3.988-3.976zm-8.986 0h-6.967l-3.987 3.976h6.968l3.986-3.976zm-8.984 0h-6.97l-3.986 3.976h6.968l3.987-3.976zm-8.985 0h-6.97l-3.986 3.976h6.967l3.988-3.976zm-8.986 0h-6.967l-3.987 3.976h6.968l3.986-3.976zm-8.984 0h-6.97l-3.986 3.976h6.968l3.987-3.976zm136.294-82.163h-6.968l-3.986 3.976h6.967l3.987-3.976zm-1.97 3.976h6.968l3.987-3.976h-6.968l-3.987 3.976zm-7.015-3.976h-6.97l-3.985 3.976h6.968l3.986-3.976zm-8.985 0h-6.968l-3.986 3.976h6.968l3.986-3.976zm-8.985 0h-6.968l-3.987 3.976h6.97l3.985-3.976zm-8.985 0h-6.968l-3.987 3.976h6.97l3.986-3.976zm-18.6-15.94v5.366h10.423v-5.366H318.22zm10.423-1.423v-5.855H318.22v5.855h10.423zm-11.136 8.212a.71.71 0 0 1-.712-.712v-10.167h-21.33v18.607h33.367v-7.728h-11.324zm-.712-12.3v-1.766h-21.33v1.766h21.33zm11.03 21.452h-6.968l-3.986 3.976h6.968l3.986-3.976zm-8.985 0h-6.968l-3.987 3.976h6.97l3.986-3.976zm-8.984 0h-6.97l-3.986 3.976h6.968l3.987-3.976zm-8.985 0h-6.97l-3.986 3.976h6.968l3.987-3.976zm-8.986 0h-6.968l-3.986 3.976h6.968l3.986-3.976zm-21.462-38.47V153h.717v-9.923c0-.392.32-.712.713-.712h2.1c.394 0 .712.32.712.712V153h.508v-9.923c0-.392.32-.712.713-.712H278c.393 0 .713.32.713.712v.127l.014-.01 1.936-.815a.71.71 0 0 1 .276-.055c.278 0 .543.162.66.433l4.112 9.708c.07.172.072.363.005.535h1.066v-10.792h-16.347zm16.347-1.423V129.99h-16.347v10.793h16.347zm-14.204 3.004v9.116h.675v-9.116h-.675zm4.034 0v9.116h.676v-9.116h-.676zm2.102 1.2V153h3.393l-3.393-8.012zm4.783 7.637l.622-.26-3.557-8.398-.623.26 3.558 8.398zm-13.062 1.8v10.792h2.01v-1.846l.005-.03-.005-.03v-2.096l.02-.1-.02-.102v-2.096a.71.71 0 0 1 .712-.711h11.05a.71.71 0 0 1 .713.711v2.096l-.02.102.02.1v2.096l-.006.03.006.03v1.846h1.862v-10.792h-16.347zm13.06 8.174v-.674h-9.622v.674h9.622zm-9.622 1.483v.673h9.622v-.673h-9.622zm9.622-3.782v-.674h-9.622v.674h9.622zm-13.06 6.34v10.314h16.347v-10.314h-16.347zm2.457 11.736v.88h11.435v-.88H272.88zm10.02 2.302h-6.968l-3.986 3.976h6.97l3.985-3.976zm-8.985 0h-6.968l-3.987 3.976h6.97l3.986-3.976zm-8.985 0h-6.967l-3.987 3.976h6.967l3.987-3.976zm-4.098-2.1c-.338-1.855-1.97-3.267-3.926-3.267s-3.59 1.412-3.926 3.267h7.852zm-4.887 2.1h-6.967l-3.987 3.976h6.968l3.986-3.976zm-8.984 0h-6.97l-3.986 3.976h6.968l3.987-3.976zm-8.985 0h-6.97l-3.986 3.976h6.97l3.986-3.976zm96.638-85.13h-6.797c-.017.02-.025.045-.044.064l-6.064 5.712h6.776l6.13-5.776zm-4.17 5.776h6.775l6.13-5.776h-6.797c-.017.02-.024.045-.044.064l-6.063 5.712zm-4.565-5.776h-6.796c-.017.02-.025.045-.045.064l-6.062 5.712h6.774l6.13-5.776zm-8.734 0h-6.796c-.017.02-.024.045-.045.064l-6.063 5.712h6.775l6.13-5.776zm-8.734 0h-6.796c-.017.02-.025.045-.045.064l-6.063 5.712h6.774l6.13-5.776zm-8.734 0h-6.796c-.017.02-.025.045-.045.064l-6.063 5.712h6.774l6.13-5.776zm-8.734 0h-6.798c-.016.02-.024.045-.043.064l-6.063 5.712h6.774l6.13-5.776zm-24.702-26.672v22.83a1.2 1.2 0 0 0 1.201 1.198h22.018c.662 0 1.202-.537 1.202-1.198v-22.83h-24.42zm24.42-1.422v-3.238a1.2 1.2 0 0 0-1.202-1.197h-13.703v4.435h14.905zm-16.33 0v-4.435h-6.89a1.2 1.2 0 0 0-1.201 1.197v3.238h8.1zm7.878 28.094h-6.797c-.017.02-.025.045-.044.064l-6.063 5.712h6.774l6.13-5.776zm-8.734 0h-6.798c-.017.02-.024.045-.044.064l-6.062 5.712h6.775l6.13-5.776zm-8.735 0h-6.797c-.016.02-.024.045-.044.064l-6.064 5.712h6.776l6.13-5.776zm-6.1-4.97h1.212V45.32h-1.212v45.256zM256.067 92l-.077-.016-6.68 2.07-.212.033c-.304 0-.586-.197-.68-.5-.036-.114-.032-.228-.012-.338l-.02-.1v-1.064h-25.54v1.265l-.02.1c.02.1.024.223-.012.34-.043.14-.13.252-.236.338h36.002c-.085-.118-.146-.254-.146-.4V92h-2.37zm1.148-1.884V45.483l-7.402-2.89V92.41l7.402-2.294zM243.702 69.41h4.685v-3.154h-8.33v8.073h8.33v-3.496h-4.685c-.393 0-.713-.32-.713-.71s.32-.712.713-.712zm0-9.153h4.685v-3.155h-8.33v7.73h8.33V61.68h-4.685c-.393 0-.713-.318-.713-.71s.32-.71.713-.71zm0-9.382h4.685V47.38h-8.33v8.302h8.33V52.3h-4.685c-.393 0-.713-.32-.713-.712s.32-.71.713-.71zm-12.963 1.31h-7.89v3.496h15.783V47.38h-15.783v3.383h7.89c.394 0 .713.32.713.71s-.32.712-.713.712zm-.42 32.797h-7.457l-.014-.003v3.652h15.783V79.95h-12.636l-.19.038h-2.958v3.576l.014-.003h7.457a.71.71 0 1 1 0 1.422zm8.082-9.736v-1.59H226.29v1.59H238.4zM226.29 76.67v1.858H238.4V76.67H226.29zm3.213-10.728h9.13V64.39h-9.13v1.552zm0 1.423v1.78h9.13v-1.78h-9.13zm0 3.204v1.437h9.13v-1.437h-9.13zm-4.638 7.996v-5.62a.71.71 0 0 1 .713-.711h2.5v-8.556c0-.393.32-.712.713-.712h9.842v-5.862h-15.783v21.46h2.016zm23.523-32.607v-.553h-25.54v.553h25.54zm-8.33 29.797v12.88h8.33v-12.88h-8.33zm-17.21 14.302v.606h25.54v-.606h-25.54zm-8.2 1.945h-2.165v2.126h9.024L214.647 92zm6.775.612V42.775l-7.408 2.91v44.63l7.408 2.297zm-109.333 8.71h6.775l6.13-5.776h-6.798c-.017.02-.025.045-.044.064l-6.063 5.712zm4.17-5.776h-6.797c-.017.02-.024.045-.045.064l-6.063 5.712h6.776l6.13-5.776zm4.565 5.776h6.774l6.13-5.776h-6.798c-.017.02-.024.045-.044.064l-6.062 5.712zm8.734 0h6.774l6.13-5.776h-6.797c-.017.02-.025.045-.044.064l-6.063 5.712zm19.365-10.44a.63.63 0 0 1-.629-.627v-6.26a.63.63 0 0 1 .629-.627h9.245V81.28h-17.85v11.69h17.85v-2.086h-9.245zm9.245-1.254v-5.007h-8.618v5.007h8.618zm-13.77 5.92c-.016.02-.025.045-.044.064l-6.063 5.712h6.775l6.13-5.776H144.4zm13.707-15.586l.963-5.013h-19.9l.963 5.013h17.984zm-4.972 15.586c-.017.02-.024.045-.045.064l-6.063 5.712h6.775l6.13-5.776h-6.796zm2.626 5.776h6.774l6.13-5.776h-6.796c-.017.02-.025.045-.045.064l-6.063 5.712zm8.734 0h6.775l6.13-5.776h-6.797c-.017.02-.025.045-.045.064l-6.063 5.712zm8.734 0h6.775l6.13-5.776h-6.797c-.017.02-.025.045-.045.064l-6.063 5.712zm8.735 0h6.775l6.13-5.776h-6.797c-.017.02-.025.045-.044.064l-6.063 5.712zm8.735 0h6.774l6.13-5.776h-6.797c-.017.02-.025.045-.044.064l-6.063 5.712zm8.734 0h6.774l6.13-5.776h-6.797c-.017.02-.025.045-.044.064l-6.063 5.712zm8.734 0h6.774l6.13-5.776h-6.797c-.017.02-.025.045-.044.064l-6.063 5.712zm2.98-10.746h1.442V45.32h-1.442v45.256zm5.753 10.746h6.774l6.13-5.776h-6.796c-.017.02-.025.045-.045.064l-6.063 5.712zm11.006 69.947v-6.95l-5.085 5.072v6.95l5.085-5.07zm-5.085 7.082v.824l5.085-.002v-5.892l-5.085 5.07zm5.085-16.043v-6.95l-5.085 5.07v6.95l5.085-5.072zm0-8.96v-6.95l-5.085 5.072v6.95l5.085-5.072zm0-8.96v-6.95l-5.085 5.07v6.95l5.085-5.072zm0-8.96v-6.95l-5.085 5.07v6.95l5.085-5.072zm0-8.96v-6.95l-5.085 5.072v6.95l5.085-5.072zm0-8.96v-6.95l-5.085 5.07v6.95l5.085-5.07zm0-8.96v-5.8h-1.153l-3.932 3.92v6.95l5.085-5.072zm-3.17-5.8h-1.916v1.9l1.916-1.9zm31.27-7.2H249.2c-.017.02-.025.045-.045.064l-6.063 5.712h6.775l6.13-5.776zm-8.733 0h-6.797c-.017.02-.025.045-.045.064l-6.063 5.712h6.775l6.13-5.776zm-8.735 0h-6.796c-.017.02-.025.045-.045.064l-6.063 5.712h6.774l6.13-5.776zm-16.515 85.13l-3.986 3.976h6.97l3.985-3.976h-6.968zm-60.138-25.3v1.745h43.413v-1.745h-43.413zm21.18-4.627v-.963h-16.882v.963c0 1.458 1.2 2.646 2.654 2.646h11.575c1.462 0 2.653-1.188 2.653-2.646zm-48.187 14.46c.183 1.672 1.457 3.023 3.094 3.33l.028-.005h8.39l.027.005c1.638-.306 2.913-1.657 3.095-3.33h-14.633zm13.756-5.215v-8.17h-12.88v8.17c0 1.894 1.546 3.436 3.446 3.436h5.987c1.9 0 3.446-1.542 3.446-3.436zm-2.764 10.025l-.16.008h-7.03l-.16-.008-2.43 8.397h12.21l-2.43-8.397zm-26.26 3.68h-11.814a.71.71 0 0 1-.713-.711v-10.49H82.87c.062 1.26.38 5.873 1.89 9.31 1.38 3.148 3.65 5.73 4.098 6.226h29.492c.64-.725 2.698-3.17 3.98-6.096 1.57-3.58 1.852-8.42 1.894-9.44h-3.9V173a.71.71 0 0 1-.713.711zm-1.12-4.32c-.363 0-.725.088-1.053.264l-.57.306a3.29 3.29 0 0 1-1.556.391 3.3 3.3 0 0 1-1.558-.391l-.388-.207c-.332-.178-.696-.268-1.06-.268a2.26 2.26 0 0 0-1.064.268l-.49.26c-.508.272-1.066.4-1.628.4a3.34 3.34 0 0 1-.614-.058v1.92h10.39v-2.86c-.135-.025-.272-.037-.408-.037zm.408-1.388v-8.073h-10.39v8.966a2.06 2.06 0 0 0 .634.1c.322 0 .64-.077.933-.234l.5-.26c.544-.29 1.142-.437 1.738-.437s1.193.145 1.736.437l.388.206a1.86 1.86 0 0 0 .882.222 1.87 1.87 0 0 0 .883-.222l.57-.305c.534-.285 1.12-.422 1.71-.422.14 0 .284.008.425.023zm-44.62 16.65h6.968l3.986-3.976h-6.968l-3.986 3.976zm1.97-3.976H69.28l-3.986 3.976h6.968l3.986-3.976zm7.016 3.976h6.968l3.986-3.976H87.25l-3.986 3.976zm19.94-3.976h-6.968l-3.987 3.976h6.968l3.986-3.976zm-1.97 3.976h6.968l3.986-3.976h-6.968l-3.986 3.976zm12.97-3.976l-3.985 3.976h6.968l3.986-3.976h-6.97zm5 3.976h6.968l3.987-3.976h-6.97l-3.986 3.976zm8.985 0h6.97l3.986-3.976h-6.968l-3.987 3.976zm8.985 0h6.968l3.987-3.976h-6.968l-3.987 3.976zm8.985 0h6.97l3.986-3.976h-6.968l-3.987 3.976zm8.985 0h6.97l3.985-3.976h-6.967l-3.987 3.976zm37.9-3.976h-6.97l-3.986 3.976h6.968l3.987-3.976zm-1.97 3.976h6.968l3.987-3.976h-6.968l-3.987 3.976zm-7.015-3.976h-6.97l-3.985 3.976h6.967l3.987-3.976zm-8.986 0h-6.968l-3.985 3.976h6.968l3.985-3.976zm-11.925-22.122v17.134h40.797v-17.134h-40.797zm40.797 20.342v-1.785h-40.835v1.785a.69.69 0 0 1-.109.357h41.054c-.064-.106-.1-.223-.1-.357zm.1 1.78l-3.986 3.976h6.968l3.986-3.976h-6.968zm5 3.976h6.97l3.985-3.976h-6.968l-3.986 3.976zm18.854 58.252v-6.95l-5.085 5.07v6.95l5.085-5.07zm-5.085 7.083v6.948l5.085-5.07v-6.95l-5.085 5.072zm5.085-16.044v-6.95l-5.085 5.072v6.948l5.085-5.07zm0-8.96v-6.95l-5.085 5.07v6.95l5.085-5.07zm0-8.96v-6.95l-5.085 5.07v6.95l5.085-5.07zm0-8.96v-6.95l-5.085 5.07v6.95l5.085-5.07zm0-8.96v-6.95l-5.085 5.072v6.95l5.085-5.07zm0-8.96v-3.065h-3.895l-1.2 1.187v6.95l5.085-5.07zm0 64.737l-5.085 5.07v2.47h4.493l.592-.59v-6.95zm0 89.345l-2.928 2.92 2.928-.001v-2.92zm0-2.01v-6.95l-5.085 5.072v6.8h.14l4.946-4.932zm0-8.96v-6.95l-5.085 5.072v6.95l5.085-5.07zm0-8.96v-6.95l-5.085 5.07v6.95l5.085-5.07zm0-8.96v-6.95l-5.085 5.07v6.95l5.085-5.07zm0-8.96v-6.95l-5.085 5.07v6.95l5.085-5.07zm0-8.96v-6.95l-5.085 5.072v6.95l5.085-5.07zm0-8.962v-6.95l-5.085 5.07v6.95l5.085-5.072zm0-8.96v-6.95l-5.085 5.072v6.95l5.085-5.07zm0-8.96v-1.285h-5.02v.213h-.065v6.144l5.085-5.072zm-4.42-2.708l3.986-3.976h-6.967l-3.987 3.976h6.968zm-4.998-3.976h-6.968l-3.987 3.976h6.968l3.987-3.976zm-8.985 0h-6.968l-3.986 3.976h6.967l3.987-3.976zm-8.985 0h-6.97l-3.986 3.976h6.968l3.987-3.976zm-8.985 0h-6.968l-3.986 3.976h6.967l3.987-3.976zm1.044-5.102c1.4-1.386 2.107-3.04 2.076-4.785-.032-1.76-.833-3.455-2.255-4.774-.55-.51-1.164-1.005-1.813-1.53-1.374-1.106-2.795-2.25-3.77-3.68-1.408-2.06-3.536-5.172-6.36-5.172-.66 0-1.35.167-2.055.496-1.358.634-2.35 1.988-3.17 3.206-1.043 1.548-2.204 3.408-2.906 5.464-.713 2.087-.843 4.118-.377 5.875 1.4 5.284 7.215 7.69 12.024 7.69v.712l.002-.712c2.796 0 6.682-.874 8.606-2.793zm-10.03 5.102h-6.968l-3.987 3.976h6.97l3.986-3.976zm-8.985 0h-6.968l-3.987 3.976h6.968l3.987-3.976zm-8.985 0h-6.968l-3.987 3.976h6.968l3.987-3.976zm-42.155-8.96v1.86h40.685v-1.86h-40.685zm40.685-1.423v-15.63h-3.66v15.63h3.66zm-5.087 0v-15.63h-3.712v15.63h3.712zm-5.138 0v-15.63h-3.713v15.63h3.713zm-5.14 0v-15.63h-3.71v15.63h3.71zm-5.137 0v-15.63h-3.713v15.63h3.713zm-5.138 0v-15.63h-3.714v15.63h3.714zm-8.852-7.622c1.34.37 2.33 1.582 2.33 3.033 0 1.74-1.42 3.158-3.167 3.158s-3.166-1.417-3.166-3.158c0-1.54 1.113-2.822 2.577-3.1v-7.94h-4.768v15.63h9.906v-15.63h-3.712v8.007zm-.837 1.298a1.74 1.74 0 0 0-1.741 1.735 1.74 1.74 0 1 0 3.482 0 1.74 1.74 0 0 0-1.741-1.735zm-5.357 11.03v3.57c0 .346-.252.62-.578.685h41.84c-.326-.065-.578-.34-.578-.685v-3.57h-40.685zm33.17 5.678h-6.968l-3.987 3.976h6.968l3.987-3.976zm-8.985 0h-6.968l-3.986 3.976h6.967l3.987-3.976zm-8.984 0h-6.97l-3.987 3.976h6.968l3.988-3.976zm-8.986 0h-6.968l-3.986 3.976h6.967l3.987-3.976zm-8.985 0h-6.968l-3.987 3.976h6.97l3.986-3.976zm-8.985 0H103.7l-3.987 3.976h6.97l3.986-3.976zm-.84-2.77c-.337-1.874-1.984-3.3-3.958-3.3s-3.62 1.426-3.958 3.3h7.916zm-8.144 2.77h-6.968l-3.987 3.976h6.967l3.988-3.976zm-8.985 0H85.73l-3.987 3.976H88.7l3.987-3.976zm-8.985 0h-6.968l-3.987 3.976h6.967l3.987-3.976zm-8.985 0H67.76l-3.987 3.976h6.968l3.987-3.976zm-8.985 0H62.4l.003 3.33 3.34-3.33zm35.07-1.422c-.24-.116-.406-.354-.406-.636l.017-.16c.08-2.68 2.117-4.878 4.733-5.22V237.46h-1.327v5.188c0 .393-.32.712-.713.712s-.713-.32-.713-.712v-5.188h-2.25c-.205 0-.4-.088-.536-.242a.71.71 0 0 1-.171-.562l2.307-17.42c.046-.353.35-.618.707-.618h6.657c.356 0 .656.262.706.612l2.465 17.42c.03.205-.032.4-.168.566a.71.71 0 0 1-.538.244h-5V255.4c2.666.35 4.734 2.628 4.734 5.382 0 .282-.168.52-.407.636h10.666c-.327-.065-.58-.34-.58-.685V232.77c0-.393.32-.712.713-.712s.713.32.713.712v2.633h40.685v-2.633c0-.393.32-.712.713-.712s.713.32.713.712v27.962c0 .346-.252.62-.58.685h15.842c-4.128-1.06-8.04-3.724-9.23-8.213-.538-2.03-.398-4.346.406-6.698.756-2.214 1.978-4.174 3.073-5.798.928-1.377 2.06-2.913 3.748-3.702.895-.418 1.79-.63 2.66-.63 3.578 0 5.963 3.487 7.54 5.795.857 1.254 2.195 2.332 3.488 3.375.64.516 1.302 1.05 1.887 1.59 1.71 1.586 2.672 3.64 2.71 5.8.038 2.14-.824 4.15-2.494 5.816-1.305 1.3-3.295 2.17-5.358 2.675h33.17v-75.343H62.668c-.104 0-.2-.024-.3-.064l.023 75.407h38.41zm9.95-25.378L108.5 220.04h-5.413l-2.12 15.998h9.794zm-48.093-51.387h.608l3.986-3.976h-4.884v4.04c.09-.04.186-.064.3-.064zm28.68-36.93h8.265c-.34-1.97-2.063-3.47-4.133-3.47a4.2 4.2 0 0 0-4.133 3.471zm1.314-46.4l6.13-5.776h-1.11c-.022 0-.04-.01-.063-.012l-10.042 5.788h5.086zm1.96 0h6.775l6.13-5.776h-6.796c-.017.02-.024.045-.045.064l-6.063 5.712zm44.007-22.483l-.3-1.508h-1.325l1.615 1.508zm20.924.26l1.756-1.64h-1.44l-.315 1.64zm185.736 16.447c-.017.02-.025.045-.044.064l-6.063 5.712h6.774l6.012-5.665-.19-.11h-6.488zm2.627 5.776h6.774l2.524-2.378 1.165.748-1.73 1.63h5.147l-8.613-4.964-5.268 4.964zm-118.582 1.423v76.507h22.163c.023-2.77 2.147-5.053 4.86-5.33V152.17l-6.298-6.28a.71.71 0 0 1 .504-1.215.71.71 0 0 1 .505.209l5.29 5.275v-6.48l-6.282-5.885a.71.71 0 0 1-.032-1.005c.14-.15.33-.224.52-.224a.71.71 0 0 1 .488.192l5.306 4.97V136.9a.71.71 0 0 1 .712-.711c.395 0 .714.32.714.71v8.217l5.51-5.16a.71.71 0 0 1 1.008.032.71.71 0 0 1-.032 1.005l-6.325 5.923-.16.1v6.543l5.494-5.478a.71.71 0 0 1 1.007 0 .71.71 0 0 1 0 1.007l-6.5 6.474v18.407c2.557.416 4.516 2.62 4.538 5.28h9.137v-.88h-1.743a.71.71 0 0 1-.713-.711V129.28a.71.71 0 0 1 .713-.711h17.772a.71.71 0 0 1 .713.711v48.383a.71.71 0 0 1-.713.711h-1.743v.88h8.3v-21.795h-1.733a.71.71 0 1 1 0-1.422h39.118a.71.71 0 1 1 0 1.422h-1.167v21.795h12.838v-1.13a.71.71 0 0 1 .713-.711c.393 0 .713.32.713.71v1.13h39.387V114.07l-19.648-11.325h-134.93zm153.945 77.93v.475l-3.51 3.5h4.143v-3.976h-.632zm-72.634 5.398c.316.073.557.343.557.68a.71.71 0 0 1-.712.712h-4.104v15.838c0 2.183 1.78 3.957 3.968 3.957 2.06 0 3.74-1.58 3.93-3.585-3.437-.22-6.166-3.073-6.166-6.557a.71.71 0 0 1 .713-.711h11.764a.71.71 0 0 1 .713.711c0 3.282-2.422 6-5.576 6.493a5.39 5.39 0 0 1-5.379 5.072 5.4 5.4 0 0 1-4.687-2.726c-.93 1.625-2.68 2.726-4.687 2.726a5.39 5.39 0 0 1-5.377-5.053c-3.216-.437-5.704-3.187-5.704-6.512a.71.71 0 0 1 .713-.711h11.765c.393 0 .713.318.713.71 0 3.44-2.663 6.27-6.04 6.55.188 2.01 1.87 3.59 3.93 3.59a3.97 3.97 0 0 0 3.97-3.957v-15.838h-3.703c-.394 0-.713-.32-.713-.712 0-.337.242-.607.558-.68h-71.758v2.01c.042.004.085.006.127.017v1.5l-.127.126v7.318c.042.005.085.007.127.017v1.5l-.127.126v7.317c.042.004.086.006.127.016v1.5l-.127.126v7.318c.042.004.086.006.127.016v1.5l-.127.126v7.318c.042.003.086.005.127.016v1.5l-.127.126v7.318c.042.003.086.005.127.016v1.5l-.127.126v7.318c.042.004.085.005.127.016v1.5l-.127.127v7.317c.042.004.085.006.127.017v1.5l-.127.127v7.318c.042.003.086.005.127.016v1.5l-.127.126 105.003.001a.71.71 0 0 1-.416-.642v-1.443h-2.3a.71.71 0 0 1-.713-.711v-41.293h-1.663c-.393 0-.713-.32-.713-.712s.32-.71.713-.71h21.54l.058-.012.058.012h21.757a.71.71 0 1 1 0 1.423h-1.88v41.293c0 .393-.32.71-.714.71h-2.31v1.873c0 .075-.02.144-.042.212h16.208v-75.343h-73.266zm4.07 16.2c2.61 0 4.772-1.937 5.12-4.444h-10.24c.348 2.507 2.512 4.444 5.12 4.444zm-18.22 0c2.61 0 4.773-1.937 5.12-4.444h-10.24c.348 2.507 2.512 4.444 5.12 4.444zm85.74 60.564l-3.987 3.976h5.663v-3.976h-1.676zm-118.805 82.426c5.283 0 9.58-4.286 9.58-9.554s-4.298-9.556-9.58-9.556-9.58 4.287-9.58 9.556 4.298 9.554 9.58 9.554zM66.106 355.287h316.06v-7.235H66.106v7.235zm133.787-20.543v11.885H216.5c-.435-1.476-2.11-7.208-2.793-10.156-.112-.482-.225-1.067-.32-1.73h-13.493zm13.34-1.422c-.025-.325-.044-.66-.054-1.008h-13.286v1.008h13.34zm-44.338-9.025v1.18h38.593v-1.18h-38.593zm19.18-7.18l2.325-4.41h-.46l-2.16 2.154.293 2.255zm-.85 4.532L186 312.282h-3.37l-1.213 9.366h5.798zm-6.24-7.682l-.058-.033c-.693-.605-1.238-1.033-1.954-1.033-.608 0-1.104.494-1.104 1.1 0 .77.506 1.53 1.34 2.694.447.625.917 1.094 1.243 1.39l.534-4.118zm-7.343 19.356v-1.008h-5.477v1.008h5.477zm-5.477 1.422v11.885h5.477v-11.885h-5.477zm6.2-3.854c.394 0 .712.32.712.712v15.027h1.82c.024-.037.04-.077.072-.11l9.935-9.91-9.737-9.71h-8.974l-.02 4h6.2zm4.82-4l8.73 8.705 8.728-8.705h-17.457zm-.308 19.73h18.074l-9.037-9.012-9.037 9.012zm-19.86-22.096c.898 2.24 1.26 4.42 1.337 6.357h6.12v-10.198h-8.6c.295 1.3.67 2.665 1.142 3.84zm-1.323.527c-.543-1.354-.963-2.904-1.28-4.368h-8.412v25.17h7.784c.55-1.882 2.037-7 2.664-9.708.504-2.18 1.076-6.524-.755-11.094zm2.67 7.254c-.01.348-.03.683-.054 1.008h6.164v-1.008h-6.1zm-.208 2.43c-.094.662-.208 1.247-.32 1.73-.595 2.568-1.943 7.25-2.568 9.39h9.205v-11.118h-6.318zm-35.12-6.667v17.785h21.264v-17.785h-21.264zm21.264-1.697v-5.688h-21.264v5.688h21.264zm-49.883 8.572v10.9h26.918v-10.9H96.406zm26.918-1.696v-12.564H96.406v12.564h26.918zm-52.947-22.663v35.396h24.22v-35.396h-24.22zm24.22-1.696v-15.965h-24.22v15.965h24.22zM65.725 346.63h2.952v-54.546a.85.85 0 0 1 .85-.849h25.92a.85.85 0 0 1 .85.849v26.91h31.055c-.217-.154-.368-.393-.368-.68a.85.85 0 0 1 .85-.847h5.5a.85.85 0 0 1 .85.847c0 .287-.15.526-.368.68h4.043c-.217-.154-.37-.393-.37-.68a.85.85 0 0 1 .851-.847h5.49a.85.85 0 0 1 .85.847c0 .287-.15.526-.368.68h11.764c-.37-2.08-.52-3.692-.532-3.818a.71.71 0 0 1 .645-.772.77.77 0 0 1 .067-.003.71.71 0 0 1 .709.648c.002.03.164 1.762.564 3.945h9.794a.85.85 0 0 1 .85.849v3.032h11.943c-.135-.13-.22-.312-.22-.515 0-.083.015-.163.04-.237l.316-2.437a.67.67 0 0 1-.219-.105c-.043-.03-1.056-.772-1.978-2.06-.97-1.353-1.604-2.33-1.604-3.52a2.53 2.53 0 0 1 2.53-2.523c.92 0 1.643.398 2.226.836l.11-.835a.71.71 0 0 1 .706-.62h1.6v-1.492a.71.71 0 0 1 .713-.712c.393 0 .713.318.713.712v1.492h1.598a.71.71 0 0 1 .707.62l.207 1.6 1.59-1.587c.133-.133.315-.208.504-.208h1.812c.394 0 .713.32.713.712l-.016.082c.028.15.02.31-.056.46l-1.502 2.85c-.864 1.623-1.6 3.026-2.175 4.247l-.018.027.338 2.61a.7.7 0 0 1-.172.56.47.47 0 0 1-.043.046h7.462c-2.356-.24-4.21-2.5-4.21-5.265 0-.393.32-.712.713-.712h7.815c.393 0 .713.32.713.712 0 2.755-1.854 5.026-4.2 5.265h11.39a.71.71 0 0 1 .713.711v2.603a.71.71 0 0 1-.713.711h-9.554l-9.737 9.71 9.557 9.53v-14.54c0-.392.318-.712.713-.712h14c.078-1.936.438-4.118 1.336-6.357 1.52-3.787 2.046-9.428 2.052-9.484a.71.71 0 0 1 .708-.648.77.77 0 0 1 .067.003.71.71 0 0 1 .644.772c-.02.24-.552 5.908-2.147 9.884-1.832 4.57-1.26 8.913-.755 11.094.773 3.342 2.855 10.357 2.876 10.427.005.016.001.032.004.048h3.42v-78.39H62.668a.72.72 0 0 1-.263-.053l.077 77.74h2.53a.71.71 0 0 1 .712.705zM196.4 321.473c1.56 0 2.864-1.36 3.14-3.152h-6.282c.277 1.792 1.58 3.152 3.14 3.152zM43.79 347.346v.11l.1-.11h-.1zm2.127 0l-1.548 1.545a.71.71 0 0 1-.504.207c-.026 0-.05-.012-.076-.014v7.334l7.13-7.112c.278-.278.73-.278 1.008 0a.71.71 0 0 1 0 1.006l-7.56 7.54c-.14.138-.32.208-.504.208-.026 0-.05-.013-.076-.015v.532H64.3v-2.68l-1.96 1.956c-.14.138-.32.208-.505.208s-.364-.07-.504-.208a.71.71 0 0 1 0-1.007l2.968-2.96v-6.54h-.41l-1.548 1.545c-.14.138-.32.207-.505.207s-.364-.07-.504-.207a.71.71 0 0 1 0-1.007l.54-.538h-6.968l-1.548 1.545c-.14.138-.32.207-.504.207s-.365-.07-.505-.207c-.278-.28-.278-.73 0-1.007l.54-.538h-6.968zm3.037-216.486h12.08l.02-14.25-12.08 6.963c.004.032.02.062.02.095l-.04 7.192zm.01 109.388h12.027l.003-36.266h-12.22l-.013 36.308c.066-.02.132-.042.204-.042zm-.204 1.382l.23 104.294h12.063l-.062-104.253H48.966c-.072 0-.138-.02-.204-.04zm12.234-39.07l.006-22.028H48.966c-.057 0-.108-.02-.16-.032l-.03 22.06h12.22zm-12.03-23.45h12.037l.032-46.826H48.948l-.14 46.858c.053-.012.102-.032.158-.032zm-29.21-48.172l3.402 5.876 4.415-2.544-3.39-5.874-4.427 2.542zm5.663-3.25l3.39 5.87 55.32-31.887c.126-.203.34-.346.597-.346h.003l139.102-80.26.12-7.343L25.42 127.685zM224.667 22.3l-1.366.787a.68.68 0 0 1-.179.347l-5.117 5.104v.872h4.246l5.416-5.4-.75-.433-2.25-1.276zm.754-8.58l.122 7.423 2.08 1.2 5.26 2.983c.05.028.078.078.118.117L420.724 133.65l3.364-5.885L225.42 13.72zm101.936 50.932v-6.95l-4.453 4.44c-.14.14-.32.208-.503.208a.71.71 0 0 1-.505-1.213l5.46-5.447v-6.95l-4.453 4.442a.71.71 0 0 1-.503.208c-.183 0-.366-.07-.505-.208a.71.71 0 0 1 0-1.006l5.46-5.446V45.65h-5.883l-7.555 7.533c-.14.138-.32.208-.504.208s-.365-.07-.504-.208a.71.71 0 0 1 0-1.006l6.546-6.528h-6.97l-3.514 3.505v6.95l2.51-2.506c.28-.277.73-.277 1.008 0a.71.71 0 0 1 0 1.007l-3.52 3.5v1.26a.7.7 0 0 1-.245.527l18.628 10.694v-3.932l-2.166 2.16-1.32-.695 3.486-3.477zM310.472 45.65h-1.498v1.494l1.498-1.494zm18.76-5.07h-22.78v3.46h22.78v-3.46zm-9.92 25.146l-1.32-.695 2.478-2.47c.278-.278.73-.278 1.008 0a.71.71 0 0 1 0 1.005l-2.167 2.16zm-5.393-3.583a.71.71 0 0 1-1.008 0 .71.71 0 0 1 0-1.005l7.56-7.54c.278-.277.73-.277 1.008 0a.71.71 0 0 1 0 1.007l-7.56 7.538zM59.906 349.306c.28-.278.73-.278 1.008 0a.71.71 0 0 1 0 1.006l-7.56 7.54c-.14.138-.32.208-.504.208s-.365-.07-.505-.208c-.278-.28-.278-.73 0-1.007l7.56-7.54zm1.008 8.96a.69.69 0 0 1 .144.217h-1.37l.217-.217c.28-.278.73-.278 1.008 0zm-9.993 0c.278-.278.73-.278 1.008 0a.7.7 0 0 1 .145.217h-1.37l.218-.217zm21.63-81.39l.001-.002.002-.002.003-.006.001-.002v-.002l.001-.001h.001l.002-.003c.123-.216.362-.36.592-.36.018 0 .035.001.052.003h.003c.072.001.144.015.215.04.147.053.297.077.445.077.542 0 1.053-.335 1.247-.87.104-.3.378-.47.67-.47a.7.7 0 0 1 .241.042.71.71 0 0 1 .472.669c0 .08-.013.16-.042.24a1.31 1.31 0 0 0 .796 1.687.71.71 0 0 1 .43.91c-.105.3-.378.47-.67.47a.73.73 0 0 1-.241-.041 1.31 1.31 0 0 0-.445-.078c-.542 0-1.05.334-1.246.87v.001l-.085.165-.001.002-.001.001-.001.002-.002.002-.002.001v.002l-.003.003-.002.002-.001.002c-.1.136-.246.23-.407.27h-.004v.001h-.003l-.158.018a.71.71 0 0 1-.242-.042c-.104-.037-.194-.096-.267-.17l-.001-.001h-.002l-.004-.004-.001-.002H73.9l-.002-.002-.001-.002-.002-.002-.002-.001-.002-.003-.003-.002-.006-.007-.001-.002-.002-.002h-.002l-.004-.004-.001-.002-.001-.001-.002-.001-.002-.004-.002-.001v-.001l-.002-.002-.002-.001c-.13-.162-.19-.376-.146-.59l.001-.003h0l.001-.002v-.004l.001-.001.001-.003v-.004l.002-.003v-.003l.001-.002v-.002l.001-.002v-.003l.02-.067a1.32 1.32 0 0 0-.795-1.686.71.71 0 0 1-.432-.91l.04-.09zm2.48 1.197a2.46 2.46 0 0 1 .242-.113l-.06-.12-.054-.123a2.6 2.6 0 0 1-.242.113c.042.08.08.16.115.243zm5.605 2.427a.69.69 0 0 1 .242.043h.003a2.14 2.14 0 0 0 .725.126c.884 0 1.712-.546 2.028-1.42a.71.71 0 0 1 .669-.471c.08 0 .163.014.242.043a.71.71 0 0 1 .473.669.72.72 0 0 1-.043.241 2.15 2.15 0 0 0 1.298 2.748.71.71 0 0 1 .472.67c0 .08-.013.16-.042.24-.105.3-.38.47-.67.47a.7.7 0 0 1-.241-.043c-.238-.085-.484-.127-.73-.127a2.15 2.15 0 0 0-.916.206 2.13 2.13 0 0 0-1.109 1.217c-.1.28-.358.472-.64.472-.01 0-.022 0-.033-.001a.7.7 0 0 1-.241-.043.71.71 0 0 1-.429-.91 2.15 2.15 0 0 0-1.296-2.748h-.003l-.183-.1-.002-.001h-.003l-.003-.001-.002-.002a.71.71 0 0 1-.237-.805c.104-.3.378-.47.67-.47zm2.452 2.36a3.61 3.61 0 0 1 .449-.251c.156-.074.315-.135.478-.186a3.55 3.55 0 0 1-.251-.445 3.52 3.52 0 0 1-.185-.478c-.287.188-.6.335-.926.435a3.59 3.59 0 0 1 .436.925zm10.222-.12h6.78a.71.71 0 1 1 0 1.422h-6.78a.71.71 0 1 1 0-1.422zm9.507 0h2.904c.393 0 .713.318.713.71s-.32.71-.713.71h-2.904a.71.71 0 1 1 0-1.422zm.267 18.377h5.954a.71.71 0 1 1 0 1.422h-5.954a.71.71 0 1 1 0-1.422zm8.842 11.184h5.546a.71.71 0 1 1 0 1.422h-5.546a.71.71 0 1 1 0-1.422zm3.216-17.13a.71.71 0 0 1 .713-.711h5.71a.71.71 0 1 1 0 1.422h-5.71a.71.71 0 0 1-.713-.711zm8.503 10.964h5.653v-14.678a.85.85 0 0 1 .85-.848h10.598a.85.85 0 0 1 .85.848v14.678h6.053a.85.85 0 0 1 .85.848v3.31a.85.85 0 0 1-.85.848h-24.004a.85.85 0 0 1-.85-.848v-3.31a.85.85 0 0 1 .85-.848zm16.25-13.83H131v13.83h8.898v-13.83zm-15.4 17.14H146.8v-1.614h-6.008l-.045.01H130.15l-.046-.01h-5.607v1.614zm24.93-25.182h2.8a.71.71 0 1 1 0 1.422h-2.8a.71.71 0 1 1 0-1.422zm3.17 12.904h3.586a.71.71 0 1 1 0 1.422h-3.586a.71.71 0 1 1 0-1.422zm4.357 8.7h9.118c.394 0 .713.32.713.71s-.32.712-.713.712h-9.118c-.394 0-.713-.32-.713-.712s.32-.71.713-.71zm4.28-4.424c0-.392.32-.71.713-.71h8.078c.394 0 .713.32.713.71s-.32.712-.713.712h-8.078c-.394 0-.713-.32-.713-.712zm22.754-21.374c6.05 0 10.973 4.9 10.973 10.945s-4.923 10.945-10.973 10.945S173 297.037 173 291.002s4.923-10.945 10.975-10.945zm0 20.468a9.55 9.55 0 0 0 9.547-9.523c0-5.25-4.283-9.522-9.547-9.522s-9.55 4.27-9.55 9.522 4.283 9.523 9.55 9.523zm0-18.514c4.987 0 9.044 4.034 9.044 8.99s-4.057 8.99-9.044 8.99-9.045-4.033-9.045-8.99 4.057-8.99 9.045-8.99zm0 16.56c4.2 0 7.618-3.395 7.618-7.568s-3.418-7.568-7.618-7.568-7.62 3.394-7.62 7.568 3.418 7.568 7.62 7.568zm-2.464-7.648l1.6-.43v-5.7a.71.71 0 1 1 1.425 0v5.318l4.874-1.308a.68.68 0 0 1 .188-.026c.314 0 .6.21.686.527a.71.71 0 0 1-.503.872l-5.245 1.408v1.4a.71.71 0 0 1-.712.711c-.394 0-.713-.32-.713-.71v-1.008l-1.23.33-.185.025c-.315 0-.602-.21-.69-.527a.71.71 0 0 1 .504-.871zm14.444-15.48a.72.72 0 0 1 .243.043 1.33 1.33 0 0 0 .445.077c.542 0 1.053-.334 1.246-.872.104-.3.38-.47.67-.47a.73.73 0 0 1 .241.042.71.71 0 0 1 .472.669c0 .08-.014.16-.043.24a1.32 1.32 0 0 0 .797 1.686c.29.104.473.378.473.67 0 .08-.016.16-.044.24a.71.71 0 0 1-.671.47c-.08 0-.16-.013-.24-.043-.147-.052-.3-.078-.45-.078-.192 0-.383.043-.562.126-.32.15-.56.416-.68.747v.001l-.086.165v.002h-.002 0l-.002.002-.001.003-.003.003h0-.001l-.002.001v.002a.72.72 0 0 1-.407.268l-.002.001h-.002l-.002.001h-.001l-.16.018c-.08 0-.162-.014-.24-.043-.104-.036-.194-.096-.267-.17l-.004-.004-.002-.003-.002-.001-.002-.002-.001-.002-.01-.01-.001-.002-.001-.001-.002-.001v-.001l-.002-.003h-.002l-.002-.004-.002-.002-.002-.001-.003-.006-.002-.001-.001-.001h-.001v-.002l-.003-.003h0c-.132-.16-.2-.377-.146-.59v-.007l.001-.002v-.002l.001-.002v-.003h.001v-.005l.002-.002v-.006h.001v-.003-.002l.02-.067a1.31 1.31 0 0 0-.797-1.686c-.29-.105-.472-.378-.472-.67 0-.08.014-.16.043-.24a.71.71 0 0 1 .669-.471zm1.8 1.454l.053.12.12-.06.123-.055a2.55 2.55 0 0 1-.114-.242c-.078.043-.16.08-.242.115l.06.12zm-1.205 25.008h11.266a.71.71 0 1 1 0 1.422H196.56a.71.71 0 1 1 0-1.422zm6.347-7.263c0-.393.32-.712.713-.712h6.338c.394 0 .713.32.713.712a.71.71 0 0 1-.713.711h-6.338c-.393 0-.713-.318-.713-.71zm8.704 6.868h1.98c.394 0 .713.32.713.712s-.32.71-.713.71h-1.98c-.393 0-.713-.32-.713-.71s.32-.712.713-.712zm1.12-19.192h-4.554a.71.71 0 1 1 0-1.423h4.554c.394 0 .713.32.713.71a.71.71 0 0 1-.713.712zm-49.374 7.184h-8.615a.71.71 0 1 1 0-1.422h8.615a.71.71 0 1 1 0 1.422zm-47.563 11.613c.393 0 .713.318.713.71s-.32.71-.713.71h-2.41a.71.71 0 1 1 0-1.422h2.41zm1.68-12.082h-12.095a.71.71 0 1 1 0-1.422h12.095a.71.71 0 1 1 0 1.422zm-27.07 8.394a.85.85 0 0 1 .851.848v7.003a.85.85 0 1 1-1.701 0v-7.003a.85.85 0 0 1 .85-.848zm.384 25.5a.85.85 0 0 1-.85-.849v-7.004a.85.85 0 0 1 1.7 0v7.004a.85.85 0 0 1-.85.849zm15.1 3.242h8.8a.85.85 0 0 1 .851.848.85.85 0 0 1-.851.849h-8.8a.85.85 0 0 1-.85-.849.85.85 0 0 1 .85-.848zm8.564 14.97h-8.81a.85.85 0 0 1-.851-.848.85.85 0 0 1 .851-.848h8.81a.85.85 0 0 1 .85.848.85.85 0 0 1-.85.848zm28.428.662h-14.044a.85.85 0 0 1-.85-.848v-9.678a.85.85 0 0 1 .85-.848H142.9a.85.85 0 0 1 .85.848v9.678a.85.85 0 0 1-.85.848zm-.85-9.677h-12.344v7.98h12.344v-7.98zm8.42 5.63a.85.85 0 0 1-.85-.848v-6.622a.85.85 0 0 1 1.7 0v6.622a.85.85 0 0 1-.85.848zM263.23 326.9a.71.71 0 1 1 0 1.423c-3.902 0-7.077 3.165-7.077 7.057 0 .393-.32.712-.713.712s-.713-.32-.713-.712c0-4.675 3.814-8.48 8.503-8.48zm.924 2.94a6.48 6.48 0 0 1 6.48 6.463 6.48 6.48 0 0 1-12.96 0 6.48 6.48 0 0 1 6.48-6.463zm0 11.503c2.787 0 5.055-2.26 5.055-5.04s-2.268-5.04-5.055-5.04-5.054 2.26-5.054 5.04 2.267 5.04 5.054 5.04zm.296-8.652a3.68 3.68 0 0 1 3.68 3.671 3.68 3.68 0 0 1-3.68 3.67 3.68 3.68 0 0 1-3.679-3.67 3.68 3.68 0 0 1 3.679-3.671zm0 5.92c1.243 0 2.254-1.01 2.254-2.248s-1.01-2.248-2.254-2.248-2.253 1.01-2.253 2.248 1.01 2.248 2.253 2.248zm110.978-142.92c-.14.14-.32.208-.504.208s-.365-.07-.503-.208l-.927-.924-.927.924c-.138.14-.32.208-.503.208a.71.71 0 0 1-.504-1.214l.926-.924-.926-.923a.71.71 0 0 1 .504-1.214c.182 0 .365.07.503.208l.927.924.927-.924c.138-.14.32-.208.503-.208a.71.71 0 0 1 .504 1.214l-.926.923.926.924a.71.71 0 0 1 0 1.006zm-10.275 6.772a.71.71 0 0 1-1.007 0l-1.418-1.413-1.417 1.413a.71.71 0 0 1-1.008 0 .71.71 0 0 1 0-1.006l1.417-1.412-1.417-1.414a.71.71 0 0 1 .504-1.215c.183 0 .365.07.504.2l1.417 1.412 1.418-1.412c.14-.14.32-.2.503-.2s.365.07.504.2a.71.71 0 0 1 0 1.005l-1.417 1.414 1.417 1.412a.71.71 0 0 1 0 1.006zm.384 9.425a.71.71 0 0 1-.712.711h-5.545a.71.71 0 0 1-.714-.711c0-.393.32-.712.714-.712h5.545a.71.71 0 0 1 .712.712zm-13.19-10.546h-2.773a.71.71 0 1 1 0-1.423h2.773a.71.71 0 0 1 .713.711c0 .393-.32.712-.713.712zm-4.17-2.963h-12.852c-.394 0-.713-.32-.713-.712s.32-.71.713-.71h12.852c.394 0 .713.32.713.71s-.32.712-.713.712zm-16.625 12.64H320.86a.71.71 0 1 1 0-1.422h10.694a.71.71 0 1 1 0 1.422zm-6.996 9.362a.71.71 0 0 1-.713.711h-9.1a.71.71 0 1 1 0-1.422h9.1a.71.71 0 0 1 .713.711zm-3.58 5.135a.71.71 0 0 1-.712.711h-11.1a.71.71 0 1 1 0-1.422h11.1a.71.71 0 0 1 .712.711zm-14.18.71h-1.385a.71.71 0 1 1 0-1.422h1.385a.71.71 0 1 1 0 1.422zm14.274 11.33v9.54h2.714c.393 0 .713.32.713.713v12.823c0 .392-.32.71-.713.71h-51.18c-.393 0-.713-.32-.713-.71v-12.823c0-.393.32-.713.713-.713h2.714v-9.54c0-.392.32-.71.713-.71h44.328a.71.71 0 0 1 .712.711zm-47.754 22.363h49.755v-10.374l-44.436 7.29a.71.71 0 0 1-.353-.094l-4.966-2.83v6.007zm0-11.4v3.77c.044.015.086.033.127.057l5.326 3.035 41.784-6.863h-47.237zm42.293-2.634c0-.52-.426-.944-.95-.944H301.38c-.523 0-.948.423-.948.944s.425.945.948.945h13.282a.95.95 0 0 0 .949-.945zm-20.027 0c0-.52-.426-.944-.948-.944h-13.283c-.522 0-.947.423-.947.944s.425.945.947.945h13.283c.522 0 .948-.423.948-.945zm24.062-7.618h-42.9v8.828h2.568a2.35 2.35 0 0 1-.333-1.21c0-1.305 1.064-2.367 2.373-2.367h13.283c1.31 0 2.374 1.062 2.374 2.367 0 .443-.122.857-.334 1.2h2.665c-.212-.353-.334-.767-.334-1.2 0-1.305 1.063-2.367 2.373-2.367h13.282c1.3 0 2.375 1.062 2.375 2.367 0 .443-.122.857-.335 1.2h2.944v-8.828zM286.4 226.383a.71.71 0 1 1 0 1.423h-2.97c-.393 0-.713-.32-.713-.712s.32-.71.713-.71h2.97zm5.69-3.055h-13.43a.71.71 0 1 1 0-1.422h13.43a.71.71 0 1 1 0 1.422zm-13.613-18.894H266.2c-.394 0-.714-.32-.714-.712s.32-.71.714-.71h12.278a.71.71 0 1 1 0 1.423zm-10.1-3.555h-6.93c-.394 0-.714-.32-.714-.71s.32-.712.714-.712h6.93c.393 0 .713.32.713.712s-.32.71-.713.71zm-3.05 11.007a.71.71 0 0 1-.713.711h-7.327a.71.71 0 0 1-.713-.711c0-.393.32-.712.713-.712h7.327c.394 0 .713.32.713.712zm-10.338 25.03c.12.442.19.904.19 1.383a5.26 5.26 0 0 1-1.442 3.615l.047.052.793 1.284a.71.71 0 0 1-.187.946h8.46c.394 0 .713.32.713.712v13.73a.71.71 0 0 1-.713.711h-1.9v1.203a.71.71 0 0 1-.712.711c-.394 0-.713-.32-.713-.71v-1.203h-13.362v1.203c0 .392-.32.71-.713.71s-.713-.32-.713-.71v-1.203h-1.823c-.394 0-.714-.318-.714-.71v-13.73c0-.393.32-.712.714-.712h3.015a.71.71 0 0 1-.003-.749l.632-1.025c-1.21-.97-2-2.457-2-4.123a5.26 5.26 0 0 1 .176-1.33c-.198-.02-.4-.11-.514-.285-.973-1.377-.64-3.287.74-4.258.534-.375 1.145-.554 1.75-.554.924.001 1.835.417 2.435 1.194.235-.032.47-.054.714-.054a5.43 5.43 0 0 1 .544.028l.1-.2c.604-.74 1.486-1.123 2.376-1.123a3.05 3.05 0 0 1 1.935.687c1.31 1.066 1.505 2.995.436 4.3-.077.095-.175.158-.28.2zm-11.354 21h18.5v-5.41l-.012.003h-18.49v5.406zm0-12.307v5.48h18.5v-5.48h-18.5zm9.912-1.423a.71.71 0 0 1-.186-.202l-.73-1.184a5.28 5.28 0 0 1-4.843.347l-.638 1.035 6.398.004zm-6.808-10.905c-.326 0-.654.096-.94.297a1.63 1.63 0 0 0-.511 2.074 5.32 5.32 0 0 1 2.31-2.13 1.66 1.66 0 0 0-.86-.241zm3.138 1.144c-2.137 0-3.875 1.733-3.875 3.864s1.738 3.865 3.875 3.865 3.876-1.732 3.876-3.865-1.74-3.864-3.876-3.864zm4.054-.92c-.3-.244-.663-.362-1.023-.362a1.66 1.66 0 0 0-.938.29c.992.426 1.825 1.15 2.394 2.053.326-.666.166-1.492-.433-1.98zm-1.732 3.2l-1.984 1.978c-.134.133-.316.208-.504.208s-.37-.076-.504-.208l-1.533-1.53a.71.71 0 0 1 .504-1.214.71.71 0 0 1 .505.209l1.028 1.026 1.48-1.477c.14-.138.322-.207.505-.207s.365.07.504.207a.71.71 0 0 1 0 1.007zm2.68 12.372h-4.167a.71.71 0 1 1 0-1.423h4.167c.394 0 .713.32.713.712s-.32.71-.713.71zm0 6.83h-4.167a.71.71 0 1 1 0-1.422h4.167a.71.71 0 0 1 .713.711c0 .392-.32.71-.713.71zm-.562-43.32h-3.366a.71.71 0 1 1 0-1.423h3.366c.394 0 .713.32.713.712a.71.71 0 0 1-.713.711zm-4.95 12.443h-5.743c-.393 0-.713-.318-.713-.71s.32-.712.713-.712h5.743c.394 0 .712.32.712.712a.71.71 0 0 1-.712.711zm-.684-21.846a.71.71 0 0 1-1.008 0l-.927-.924-.927.924c-.138.14-.32.208-.502.208s-.365-.07-.505-.208a.71.71 0 0 1 0-1.006l.926-.924-.926-.923a.71.71 0 0 1 .504-1.214c.182 0 .365.07.503.208l.927.924.927-.924a.71.71 0 0 1 .503-.208c.183 0 .365.07.505.208a.71.71 0 0 1 0 1.006l-.927.923.927.924a.71.71 0 0 1 0 1.006zm-8.86-6.248c-.138.14-.32.208-.504.208s-.364-.07-.503-.208l-.434-.433-.435.433a.71.71 0 0 1-1.008 0 .71.71 0 0 1 0-1.006l.434-.433-.434-.433a.71.71 0 0 1 0-1.006c.14-.14.322-.208.504-.208a.71.71 0 0 1 .504.208l.435.434.434-.434a.71.71 0 0 1 .504-.208c.182 0 .365.07.503.208a.71.71 0 0 1 0 1.006l-.433.433.433.433a.71.71 0 0 1 0 1.006zm21.626 19.404c-.394 0-.714-.318-.714-.71s.32-.71.714-.71h14.457a.71.71 0 1 1 0 1.422h-14.457zm5.547 9.637h13.528c.393 0 .713.32.713.712s-.32.712-.713.712h-13.528c-.393 0-.713-.32-.713-.712s.32-.712.713-.712zm68.718-16.392h1.584a.71.71 0 1 1 0 1.422h-1.584a.71.71 0 1 1 0-1.422zm27.217-.87a.71.71 0 0 1 .713-.711h10.284c.394 0 .714.318.714.71s-.32.71-.714.71h-10.284a.71.71 0 0 1-.713-.711zm-4.448-85.14a1.11 1.11 0 0 1-.914.479 1.1 1.1 0 0 1-.628-.196l-.223-.152-.153.222a1.11 1.11 0 0 1-.914.479c-.226 0-.443-.067-.63-.196a1.09 1.09 0 0 1-.284-1.536l.154-.223-.224-.154c-.503-.346-.63-1.037-.284-1.54a1.13 1.13 0 0 1 .927-.469 1.08 1.08 0 0 1 .615.186l.224.153.153-.222a1.13 1.13 0 0 1 .929-.469c.215 0 .43.06.613.186.243.166.407.418.46.71s-.01.584-.177.828l-.154.223.224.153c.503.346.63 1.036.284 1.538zm7.65 11.864a.71.71 0 0 1-.713.71H351.16a.71.71 0 1 1 0-1.421h14.258a.71.71 0 0 1 .713.711zm-18.536-17.855h-3.17a.71.71 0 1 1 0-1.422h3.17c.393 0 .713.318.713.71s-.32.71-.713.71zm-2.812 8.17c.503.346.63 1.037.284 1.538l-.564.817.818.563c.504.345.63 1.035.286 1.538-.21.3-.55.48-.915.48-.225 0-.442-.068-.63-.195l-.82-.562-.564.816c-.207.3-.55.48-.913.48-.225 0-.44-.067-.628-.195-.504-.347-.63-1.037-.285-1.538l.564-.817-.82-.563a1.11 1.11 0 0 1-.283-1.539c.2-.303.57-.47.93-.47.216 0 .43.06.614.186l.82.563.564-.818c.2-.302.57-.47.928-.47.216 0 .43.06.615.186zm-2.733-8.17h-9.1a.71.71 0 1 1 0-1.422h9.1a.71.71 0 1 1 0 1.422zm-5.545-6.32h-7.525c-.394 0-.714-.32-.714-.71s.32-.712.714-.712h7.525a.71.71 0 1 1 0 1.423zM327 125.1h-3.565a.71.71 0 1 1 0-1.422H327a.71.71 0 1 1 0 1.422zm-2.707 13.553c.985 0 1.787.8 1.787 1.782a1.77 1.77 0 0 1-.283.954l3.12 4.46.065-.006a1.79 1.79 0 0 1 1.787 1.783c0 .982-.802 1.782-1.787 1.782a1.79 1.79 0 0 1-.436-.059l-4.66 5.152h3.016a.71.71 0 0 1 .714.711c0 .392-.32.712-.714.712h-9.463c-.394 0-.713-.32-.713-.712a.71.71 0 0 1 .713-.711h4.526l5.453-6.027c-.14-.254-.225-.54-.225-.848a1.76 1.76 0 0 1 .428-1.144l-3.005-4.297c-.105.02-.213.033-.323.033a1.79 1.79 0 0 1-1.788-1.783l.007-.076-1.513-.81c-.097.66-.308 1.303-.64 1.905a5.6 5.6 0 0 1-.485.727.71.71 0 0 1-.564.276.7.7 0 0 1-.343-.088l-8.125-4.462c-.308-.17-.447-.538-.327-.867.11-.3.227-.56.36-.797.985-1.784 2.844-2.892 4.853-2.892.652 0 1.3.124 1.906.356l.35-.622c.13-.232.372-.365.622-.365.118 0 .238.03.35.093a.71.71 0 0 1 .272.968l-.344.613a5.31 5.31 0 0 1 1.979 2.883c.06.217.103.437.135.658l2.145 1.146c.312-.264.7-.43 1.15-.43zm4.688 9.333a.36.36 0 1 0 0-.721.36.36 0 1 0 0 .721zm-4.688-7.19a.36.36 0 1 0 0-.72.36.36 0 1 0 0 .72zm-4.806-3.14c-.286-1.038-.956-1.89-1.886-2.402-.573-.313-1.22-.48-1.874-.48-1.49 0-2.87.828-3.605 2.158l-.024.044 6.988 3.838.024-.044a4.13 4.13 0 0 0 .377-3.113zm-.804-12.16h-14.26c-.393 0-.713-.32-.713-.7s.32-.712.713-.712h14.26a.71.71 0 1 1 0 1.422zm-9.11-5.53h-9.506c-.393 0-.713-.318-.713-.71s.32-.71.713-.71h9.506a.71.71 0 1 1 0 1.422zm-4.436 16.275c0 .392-.32.71-.713.71h-8.714c-.393 0-.713-.32-.713-.71s.32-.71.713-.71h8.714a.71.71 0 0 1 .713.711zm-2.078 11.534a.71.71 0 1 1 0 1.422h-8.028c-.394 0-.714-.318-.714-.71s.32-.71.714-.71h8.028zm-5.118-4.425a.71.71 0 0 1 .713-.71h7.818a.71.71 0 1 1 0 1.422h-7.818a.71.71 0 0 1-.713-.712zm11.237-.7h3.564a.71.71 0 1 1 0 1.422h-3.564a.71.71 0 1 1 0-1.422zm44.756-2.133h-9.11c-.394 0-.713-.32-.713-.71s.32-.712.713-.712h9.11c.394 0 .713.32.713.712s-.32.71-.713.71zm-18.702 37.27c1.296-.3 6.245-1.612 7.866-2.044v-7.684h-6.563c-.394 0-.713-.32-.713-.712s.32-.71.713-.71h4.2l-1.77-6.425h-1.283a.71.71 0 1 1 0-1.423h13.367l2.772-11.86c.077-.33.373-.55.696-.55a.8.8 0 0 1 .16.017c.383.1.622.473.533.854l-4.735 20.258c-.076.32-.363.55-.694.55h-5.248v7.614l8.128 2.114a.71.71 0 0 1 .534.853c-.077.33-.37.55-.694.55l-.162-.018c-1.53-.354-7.795-2.025-8.388-2.183l-8.388 2.183-.162.018c-.324 0-.617-.222-.694-.55a.71.71 0 0 1 .534-.853zm13.973-11.15l1.502-6.425h-10.27l1.768 6.425h7zm9.482-26.75h2.377a.71.71 0 0 1 .713.711c0 .392-.32.71-.713.71h-2.377c-.393 0-.713-.32-.713-.71s.32-.71.713-.71zm1.98 14.615h6.733a.71.71 0 0 1 .713.711c0 .393-.32.712-.713.712h-6.733c-.394 0-.713-.32-.713-.712a.71.71 0 0 1 .713-.711zm5.545 4.345h5.94c.394 0 .713.32.713.71s-.32.712-.713.712h-5.94c-.394 0-.713-.32-.713-.712s.32-.71.713-.71zm5.94-3.713h-1.585a.71.71 0 1 1 0-1.422h1.585a.71.71 0 1 1 0 1.422zm-80.8-31.995h-12.278c-.393 0-.713-.32-.713-.712s.32-.71.713-.71h12.278a.71.71 0 1 1 0 1.423zm-4.356-7.506h-9.1c-.393 0-.713-.32-.713-.712s.32-.7.713-.7h9.1a.71.71 0 0 1 .713.71c0 .393-.32.712-.713.712zm-13.467 7.9h-2.772a.71.71 0 1 1 0-1.422h2.772a.71.71 0 1 1 0 1.422zm-11.37 9.657c-.225 0-.44-.067-.628-.195l-.82-.562-.565.817a1.11 1.11 0 0 1-.913.479 1.1 1.1 0 0 1-.629-.196c-.503-.345-.63-1.035-.284-1.537l.564-.818-.82-.562a1.09 1.09 0 0 1-.461-.709c-.054-.29.01-.586.177-.828.2-.304.57-.47.93-.47a1.08 1.08 0 0 1 .614.186l.817.56.565-.817c.2-.303.57-.47.928-.47a1.08 1.08 0 0 1 .614.187c.504.345.63 1.035.285 1.537l-.564.817.82.563c.243.167.407.418.46.71a1.09 1.09 0 0 1-.178.828 1.11 1.11 0 0 1-.914.479zm-6.646-6.347a1.11 1.11 0 0 1-.914.479c-.225 0-.44-.067-.628-.195l-.224-.153-.153.222a1.11 1.11 0 0 1-1.542.284c-.503-.347-.63-1.037-.284-1.54l.153-.22-.223-.154c-.503-.346-.63-1.036-.284-1.538.21-.303.568-.47.928-.47.215 0 .43.06.614.185l.223.154.154-.224c.2-.302.57-.468.93-.468.215 0 .43.06.612.184a1.11 1.11 0 0 1 .285 1.539l-.154.223.222.153c.504.346.632 1.036.285 1.538zM70.838 227.394h12.624a.71.71 0 1 1 0 1.422H70.838a.71.71 0 1 1 0-1.422zm9.08 17.16h5.038a.71.71 0 0 1 .713.711c0 .393-.32.712-.713.712H79.92a.71.71 0 1 1 0-1.423zm7.505 0h2.25a.71.71 0 0 1 .713.711c0 .393-.32.712-.713.712h-2.25c-.393 0-.713-.32-.713-.712a.71.71 0 0 1 .713-.711zm-4.045-3.864a.71.71 0 0 1 .713-.711H95.9a.71.71 0 1 1 0 1.422H84.092a.71.71 0 0 1-.713-.711zm13.785-40.732h2.286c.393 0 .713.32.713.71s-.32.712-.713.712h-2.286c-.394 0-.713-.32-.713-.712a.71.71 0 0 1 .713-.711zm1.295 5.32h5.727a.71.71 0 0 1 .713.711c0 .392-.32.71-.713.71H98.46a.71.71 0 1 1 0-1.422zm3.24-4.735c0-.392.318-.712.713-.712h9.862c.393 0 .713.32.713.712s-.32.712-.713.712h-9.862a.71.71 0 0 1-.713-.712zm11.892 8.753h8.77c.393 0 .713.318.713.71s-.32.71-.713.71h-8.77a.71.71 0 1 1 0-1.422zm6.922 4.924h8.223c.393 0 .713.318.713.71s-.32.71-.713.71h-8.223a.71.71 0 1 1 0-1.422zm14.2-2.845h2.298l7.336-5.702c-.214-.17-.36-.42-.36-.713a.93.93 0 0 1 .929-.927.93.93 0 0 1 .928.927.91.91 0 0 1-.368.718l6.888 5.697h2.45c.393 0 .713.318.713.71v13.85c0 .393-.32.71-.713.71h-20.102a.71.71 0 0 1-.713-.711v-13.85a.71.71 0 0 1 .713-.711zm10.186-4.328l-5.568 4.328h10.8l-5.23-4.328zm-9.474 18.178h18.677v-12.428h-18.677v12.428zm16.422-1.194H137.68c-.394 0-.713-.32-.713-.71v-8.618c0-.393.32-.712.713-.712h14.166a.71.71 0 0 1 .712.712v8.618a.71.71 0 0 1-.712.711zm-.713-8.618h-12.74v7.195h12.74v-7.195zm3.952-13.993c0-.392.32-.71.713-.71h10.667c.393 0 .713.32.713.71s-.32.712-.713.712H155.8c-.393 0-.713-.32-.713-.712zm15.19 14.865h12.402a.71.71 0 1 1 0 1.422h-12.402c-.393 0-.713-.318-.713-.71s.32-.71.713-.71zm13.7 13.444h16.778a.71.71 0 1 1 0 1.423h-16.778c-.394 0-.713-.32-.713-.71s.32-.712.713-.712zm14.62 8.346c.08 0 .162.014.24.042a1.31 1.31 0 0 0 .449.079c.192 0 .382-.042.56-.126.32-.15.562-.415.682-.746a.71.71 0 0 1 .528-.457h.001l.001-.001a.73.73 0 0 1 .14-.013.69.69 0 0 1 .242.043.71.71 0 0 1 .459.8v.004l-.002.002v.005l-.002.004v.005l-.001.002h0l-.001.001v.005l-.001.002v.003l-.001.002v.001l-.001.001v.002l-.001.002v.002l-.001.002v.003l-.001.002h-.001 0l-.001.001v.006l-.001.001h0l-.001.002v.001l-.001.002v.001l-.001.003h-.001v.002l-.01.033a1.32 1.32 0 0 0 .796 1.687.71.71 0 0 1 .472.669c0 .08-.013.16-.043.24a.71.71 0 0 1-.67.471c-.08 0-.162-.015-.24-.043a1.34 1.34 0 0 0-.449-.078 1.31 1.31 0 0 0-1.242.872c-.105.3-.38.47-.67.47-.08 0-.162-.013-.242-.042a.71.71 0 0 1-.471-.67c0-.08.014-.16.042-.24a1.32 1.32 0 0 0-.796-1.687.71.71 0 0 1-.472-.67c0-.08.013-.16.042-.24.105-.3.38-.47.67-.47zm1.85 1.576l.12-.06.122-.054a2.92 2.92 0 0 1-.113-.24l-.12.06-.123.054c.04.078.08.158.113.24zm5.606 2.427a.7.7 0 0 1 .241.043c.24.086.485.128.73.128.313 0 .625-.07.917-.206a2.14 2.14 0 0 0 1.109-1.217c.105-.29.374-.432.67-.47.08 0 .162.015.24.043a.71.71 0 0 1 .43.91 2.15 2.15 0 0 0 1.298 2.749.71.71 0 0 1 .471.67.7.7 0 0 1-.042.24c-.104.3-.38.47-.67.47a.7.7 0 0 1-.241-.042c-.24-.086-.486-.126-.727-.126-.884 0-1.713.545-2.03 1.42-.105.3-.38.47-.67.47-.08 0-.162-.013-.242-.043a.71.71 0 0 1-.471-.669.69.69 0 0 1 .042-.239c.194-.54.167-1.124-.078-1.643s-.68-.912-1.22-1.107a.71.71 0 0 1-.472-.67.67.67 0 0 1 .043-.24.71.71 0 0 1 .67-.471zm2.27 1.882c.074.155.135.315.185.476.14-.092.3-.175.447-.25a3.46 3.46 0 0 1 .479-.186c-.188-.285-.335-.596-.436-.922-.14.094-.292.177-.448.25a3.56 3.56 0 0 1-.477.185 3.87 3.87 0 0 1 .25.446zm1.408-17.98H199c-.394 0-.713-.32-.713-.712s.32-.71.713-.71h10.727c.393 0 .713.32.713.71s-.32.712-.713.712zm-13.1-1.423c.394 0 .713.32.713.71s-.32.712-.713.712h-2.827c-.394 0-.713-.32-.713-.712s.32-.71.713-.71h2.827zm-8.03-8.272a.71.71 0 1 1 0 1.422h-1.942a.71.71 0 1 1 0-1.422h1.942zm9.262-4.1h-16.165a.71.71 0 1 1 0-1.422h16.165a.71.71 0 1 1 0 1.422zm-24.133-10.054h-3.072a.71.71 0 1 1 0-1.423h3.072c.394 0 .714.32.714.71s-.32.712-.714.712zm-47.453 8.586h-.762c-.393 0-.713-.318-.713-.71s.32-.71.713-.71h.762a.71.71 0 1 1 0 1.422zm-33.33 22.704H91.42a.71.71 0 1 1 0-1.422h1.524a.71.71 0 1 1 0 1.422zm-5.703 0h-7.25a.71.71 0 1 1 0-1.422h7.25a.71.71 0 1 1 0 1.422zm4.3-14.2H80.493a.71.71 0 1 1 0-1.422H91.54a.71.71 0 0 1 .713.711c0 .392-.32.71-.713.71zm-1.745-11.076a.69.69 0 0 1-.242-.043c-.238-.085-.484-.127-.73-.127a2.17 2.17 0 0 0-.918.205c-.52.245-.914.677-1.11 1.218-.105.3-.38.47-.67.47-.008.001-.016.002-.025.002a.69.69 0 0 1-.217-.045.71.71 0 0 1-.43-.909 2.15 2.15 0 0 0-1.298-2.749.71.71 0 0 1-.43-.909c.105-.29.38-.47.672-.47a.7.7 0 0 1 .24.042l.003.001c.237.084.482.125.727.125.313 0 .626-.068.917-.204a2.14 2.14 0 0 0 1.11-1.218c.104-.3.38-.47.67-.47.08 0 .162.015.24.043a.71.71 0 0 1 .472.668c0 .08-.013.162-.043.242a2.15 2.15 0 0 0 1.299 2.749.71.71 0 0 1 .472.67c0 .08-.014.16-.043.24-.104.29-.378.47-.67.47zm-2.452-2.358a3.61 3.61 0 0 1-.449.25c-.156.074-.315.136-.477.186.093.14.176.29.25.445a3.6 3.6 0 0 1 .185.476 3.72 3.72 0 0 1 .448-.249 3.62 3.62 0 0 1 .479-.186 3.61 3.61 0 0 1-.435-.922zm-6.57-2.208a.7.7 0 0 1-.241-.042 1.34 1.34 0 0 0-.448-.078c-.192 0-.384.04-.563.126-.32.15-.56.415-.68.746v.001l-.085.165h-.001l-.003.003-.002.002v.001.001.002l-.004.004-.001.002c-.1.136-.246.23-.408.27h-.004l-.002.001h-.002l-.16.018a.7.7 0 0 1-.241-.042c-.104-.037-.194-.096-.268-.17v-.001-.001l-.006-.007-.002-.001h-.002v-.002l-.002-.001-.001-.002-.002-.001-.002-.002h-.002l-.006-.007v-.002h-.002l-.002-.001v-.001l-.002-.002-.001-.002-.002-.001-.001-.001h-.002l-.001-.002-.002-.001v-.001l-.003-.003c-.132-.162-.2-.376-.146-.59v-.003-.002-.004l.001-.002.001-.001v-.003l.001-.002v-.002l.001-.001v-.002h.001v-.004l.002-.004v-.003l.02-.066a1.31 1.31 0 0 0-.048-1.008c-.15-.32-.417-.56-.75-.68a.71.71 0 0 1-.473-.668c0-.08.014-.162.043-.24.104-.29.378-.47.67-.47a.71.71 0 0 1 .242.042c.147.052.297.077.445.077.543 0 1.052-.335 1.246-.872.104-.29.38-.47.67-.47.08 0 .16.013.24.042a.71.71 0 0 1 .429.909 1.32 1.32 0 0 0 .797 1.687.71.71 0 0 1 .473.67c0 .08-.015.16-.044.24a.71.71 0 0 1-.67.47zm-1.85-1.577a2.38 2.38 0 0 1-.242.115l.06.12.053.122.12-.06.123-.055c-.042-.08-.08-.16-.114-.242zm99.104 47.632a.71.71 0 0 1 .085-1.003c.302-.25.75-.214 1.005.086 1.12 1.326 3.103 2.05 5.436 1.967.856-.028 2.93-.245 3.713-1.664a.71.71 0 1 1 1.249.686c-1.096 1.985-3.55 2.356-4.915 2.4a12.07 12.07 0 0 1-.379.006c-2.612 0-4.856-.893-6.194-2.477zm23.836-75.32H186.73c-.394 0-.713-.32-.713-.71V161.12c0-.392.32-.71.713-.71h15.132c.394 0 .713.32.713.71v12.485c0 .39-.32.71-.713.71zm-.713-12.484h-13.707v11.06h13.707v-11.06zm-12.364 2.676c.393 0 .713.318.713.71v3.54c0 .392-.32.71-.713.71a.71.71 0 0 1-.713-.711v-3.54a.71.71 0 0 1 .713-.711zm-5.27 9.808h-18.122c-.393 0-.713-.32-.713-.71V161.12c0-.392.32-.71.713-.71h18.122a.71.71 0 0 1 .712.711v12.485a.71.71 0 0 1-.712.711zm-.712-12.484h-16.697v4.912h16.697v-4.912zm0 6.334h-16.697v4.727h16.697v-4.727zm-12.098.54h7.5c.394 0 .713.32.713.712s-.32.712-.713.712h-7.5c-.394 0-.713-.32-.713-.712s.32-.712.713-.712zm0-6.285h7.5c.394 0 .713.32.713.712s-.32.712-.713.712h-7.5c-.394 0-.713-.32-.713-.712s.32-.712.713-.712zm97.758-97.663h3.996a.71.71 0 1 1 0 1.422h-3.996a.71.71 0 1 1 0-1.422zm8.695 0h.94a.71.71 0 1 1 0 1.422h-.94a.71.71 0 1 1 0-1.422zm2.937 0h1.175a.71.71 0 1 1 0 1.422h-1.175a.71.71 0 1 1 0-1.422zm3.172 0h1.057a.71.71 0 1 1 0 1.422h-1.057a.71.71 0 1 1 0-1.422zm3.407 0h2.82c.394 0 .714.318.714.71s-.32.71-.714.71h-2.82c-.393 0-.713-.318-.713-.71s.32-.71.713-.71zm-8.224 24.365c-4.992 0-9.054-4.052-9.054-9.03s4.062-9.03 9.054-9.03 9.054 4.05 9.054 9.03-4.062 9.03-9.054 9.03zm7.613-8.74c.004-.097.016-.192.016-.3a7.63 7.63 0 0 0-7.629-7.607c-4.207 0-7.628 3.412-7.628 7.607l.001.03c.613-.475 1.584-.998 3.204-.998a9.26 9.26 0 0 1 1.609.151c1.392.246 2.487.857 3.546 1.448 1.042.582 2.028 1.132 3.188 1.24a3.99 3.99 0 0 0 .38.019c1.896 0 3.014-1.378 3.026-1.393a.7.7 0 0 1 .287-.205zm-3.317 3.02c-.165 0-.334-.008-.508-.023-1.462-.136-2.626-.786-3.753-1.414-1-.558-1.943-1.084-3.098-1.29-.504-.1-.948-.127-1.338-.127-1.636 0-2.348.667-2.768 1.06a3.77 3.77 0 0 1-.252.221c.792 3.36 3.813 5.872 7.42 5.872 3.355 0 6.205-2.174 7.224-5.182-.704.453-1.688.883-2.928.883zm1.7-4.652a.72.72 0 0 1-.278.057c-.278 0-.542-.162-.657-.434a7.43 7.43 0 0 0-2.747-3.274.71.71 0 0 1 .39-1.307.71.71 0 0 1 .39.117 8.86 8.86 0 0 1 3.28 3.909.71.71 0 0 1-.378.932zm-.076 58.61c.564 0 1.023.458 1.023 1.02s-.46 1.022-1.023 1.022-1.024-.46-1.024-1.022.46-1.02 1.024-1.02zm39.23 21.768c.57 0 1.036.464 1.036 1.034s-.466 1.033-1.036 1.033-1.037-.464-1.037-1.033.465-1.034 1.037-1.034zm0 9.2c-.572 0-1.037-.464-1.037-1.034s.465-1.034 1.037-1.034 1.036.464 1.036 1.034-.466 1.034-1.036 1.034zm22.703 59.58c.393 0 .713.318.713.71v8.73c0 .393-.32.71-.713.71a.71.71 0 0 1-.713-.711v-8.73a.71.71 0 0 1 .713-.711zm-3.772 25.605h-3.248a.71.71 0 1 1 0-1.422h3.248a.71.71 0 1 1 0 1.422zm11.763-25.605a.71.71 0 0 1 .712.711v8.73a.71.71 0 0 1-.712.711c-.393 0-.713-.318-.713-.71v-8.73c0-.393.32-.71.713-.71zm7.567 25.605h-3.247a.71.71 0 1 1 0-1.422h3.247c.394 0 .714.318.714.71s-.32.71-.714.71zM71.527 144.22h6.337a.71.71 0 1 1 0 1.422h-6.337c-.393 0-.713-.32-.713-.71s.32-.71.713-.71zm3.565 8.294h1.98c.394 0 .713.32.713.712s-.32.712-.713.712h-1.98c-.393 0-.713-.32-.713-.712s.32-.712.713-.712zm2.82-18.643a.71.71 0 0 1 .713-.711h6.798a.71.71 0 1 1 0 1.422h-6.798a.71.71 0 0 1-.713-.711zm6.766-9.876a.71.71 0 0 1 .712-.711h8.715a.71.71 0 1 1 0 1.422H85.4a.71.71 0 0 1-.712-.711zm6.654 4.03h13.07a.71.71 0 1 1 0 1.421h-13.07a.71.71 0 1 1 0-1.421zm5.624-13.906a.71.71 0 0 1 .713-.71h9.506a.71.71 0 1 1 0 1.422H97.67a.71.71 0 0 1-.713-.712zm15.178 11.304L118.9 111.8l.104-.154c-.23-.18-.4-.45-.4-.765a.99.99 0 0 1 .989-.987.99.99 0 0 1 .989.987c0 .355-.2.654-.483.828l.038.034 8.196 13.314a.69.69 0 0 1 .095.297c2.17 2.657 3.524 6.37 3.524 10.48 0 8.05-5.178 14.6-11.544 14.6s-11.545-6.55-11.545-14.6c0-3.893 1.22-7.425 3.19-10.045a.68.68 0 0 1 .062-.356zm7.482-11.85l-4.678 9.412c1.633-1.122 3.504-1.76 5.5-1.76 1.665 0 3.244.456 4.675 1.26l-5.487-8.913zm.812 35.43c5.58 0 10.12-5.91 10.12-13.178s-4.54-13.177-10.12-13.177-10.12 5.91-10.12 13.177 4.54 13.178 10.12 13.178zm0-24.633c5.013 0 9.092 5.14 9.092 11.455s-4.08 11.456-9.092 11.456-9.092-5.14-9.092-11.456 4.08-11.455 9.092-11.455zm0 21.49c4.227 0 7.666-4.502 7.666-10.034s-3.44-10.033-7.666-10.033-7.667 4.5-7.667 10.033 3.44 10.034 7.667 10.034zm-.648-14.808c.16 0 .324.054.457.166a.71.71 0 0 1 .09 1.001l-4.222 5.043a.71.71 0 0 1-.547.255c-.16 0-.324-.055-.457-.166a.71.71 0 0 1-.09-1.001l4.22-5.043c.14-.168.344-.255.548-.255zm3.598-1.596c.14-.177.35-.27.56-.27a.71.71 0 0 1 .559 1.153l-4.86 6.128a.71.71 0 0 1-1.002.116.71.71 0 0 1-.117-.999l4.86-6.128zm-4.243 8.576c.14-.174.348-.266.557-.266a.71.71 0 0 1 .444.155.71.71 0 0 1-.05-.948l2.513-3.12a.71.71 0 0 1 .556-.266.72.72 0 0 1 .447.157.71.71 0 0 1 .109.999l-2.514 3.12c-.14.174-.348.266-.556.266a.72.72 0 0 1-.447-.157.71.71 0 0 1 .055.949l-.447.556c-.14.175-.348.267-.557.267-.157 0-.314-.05-.445-.156a.71.71 0 0 1-.112-1l.447-.557zm-19.487-14.746a.71.71 0 1 1 0 1.422h-2.376a.71.71 0 1 1 0-1.422h2.376zm-5.544-5.293h-3.17c-.394 0-.714-.32-.714-.71s.32-.71.714-.71h3.17a.71.71 0 1 1 0 1.422zm-4.645-5.447a.71.71 0 0 1-.504.208.71.71 0 0 1-.505-.208l-.434-.433-.434.433a.71.71 0 0 1-1.007 0 .71.71 0 0 1 0-1.005l.434-.434-.434-.433a.71.71 0 0 1 .504-1.213.71.71 0 0 1 .504.207l.434.434.434-.434c.14-.138.322-.207.504-.207s.365.07.505.207a.71.71 0 0 1 0 1.006l-.434.433.434.434a.71.71 0 0 1 0 1.005zM78.06 129.72a.71.71 0 0 1-.505.208.71.71 0 0 1-.504-.208l-.927-.924-.927.924a.71.71 0 0 1-1.008 0 .71.71 0 0 1 0-1.006l.927-.924-.927-.923a.71.71 0 0 1 .504-1.213.71.71 0 0 1 .504.208l.927.924.927-.924a.71.71 0 0 1 .504-.208c.183 0 .365.07.505.208a.71.71 0 0 1 0 1.005l-.927.923.927.924a.71.71 0 0 1 0 1.006zm21.125 30.08a.71.71 0 0 1-.713-.711v-1.398a.71.71 0 0 1 1.426 0v1.398a.71.71 0 0 1-.713.711zm0-4.278a.71.71 0 0 1-.713-.711v-3.895a.71.71 0 0 1 .713-.711c.393 0 .713.32.713.71v3.895a.71.71 0 0 1-.713.711zm-3.906 1.64a.71.71 0 0 1-.713-.711v-.9a.71.71 0 1 1 1.426 0v.9a.71.71 0 0 1-.713.711zm0-3.34a.71.71 0 0 1-.713-.711v-2.197c0-.392.32-.71.713-.71s.713.32.713.71v2.197a.71.71 0 0 1-.713.711zm-3.605 4.294a.71.71 0 0 1-.713-.711v-6.49c0-.392.32-.71.713-.71a.71.71 0 0 1 .713.711v6.49a.71.71 0 0 1-.713.711zm44.413-39.97h12.674a.71.71 0 1 1 0 1.422h-12.674c-.393 0-.713-.318-.713-.71s.32-.71.713-.71zm4.753 16.196h9.902a.71.71 0 1 1 0 1.421h-9.902c-.393 0-.713-.318-.713-.71a.71.71 0 0 1 .713-.71zm10.298 7.9h9.902a.71.71 0 1 1 0 1.422h-9.902c-.393 0-.713-.318-.713-.71s.32-.71.713-.71zm10.377-13.115c0-.392.32-.71.713-.71h12.28c.394 0 .713.32.713.71s-.32.712-.713.712h-12.28c-.393 0-.713-.32-.713-.712zm6.654-3.634h-1.98a.71.71 0 1 1 0-1.422h1.98c.394 0 .713.32.713.712s-.32.7-.713.7zm-11.882 8.85a.71.71 0 1 1 0 1.421H155.1a.71.71 0 1 1 0-1.421h1.188zm6.337-8.85H151.93c-.393 0-.713-.32-.713-.7s.32-.712.713-.712h10.694c.394 0 .713.32.713.712s-.32.7-.713.7zm-3.96-9.875h-3.168c-.394 0-.713-.32-.713-.712a.71.71 0 0 1 .713-.71h3.168a.71.71 0 1 1 0 1.422zm-6.337 0h-7.13c-.394 0-.713-.32-.713-.712a.71.71 0 0 1 .713-.71h7.13a.71.71 0 0 1 .713.71c0 .393-.32.712-.713.712zM144 110.486h-2.773c-.393 0-.713-.32-.713-.71s.32-.712.713-.712H144c.393 0 .713.32.713.712s-.32.71-.713.71zm37.232 10.823h7.92c.393 0 .713.318.713.71s-.32.71-.713.71h-7.92a.71.71 0 1 1 0-1.422zm4.8 11.455h9.595c.318 0 .576.32.576.71s-.258.71-.576.71h-9.595c-.318 0-.575-.318-.575-.71s.257-.71.575-.71zm10.1-18.592l.434-.433-.434-.434a.71.71 0 0 1 0-1.004c.14-.14.322-.21.505-.21s.364.07.504.21l.434.432.434-.432a.71.71 0 0 1 1.008 0 .71.71 0 0 1 0 1.004l-.435.434.435.433a.71.71 0 0 1-.504 1.214.71.71 0 0 1-.504-.209l-.434-.432-.434.432c-.14.14-.322.21-.504.21a.71.71 0 0 1-.505-1.214zm2.264 25.44H209.1a.71.71 0 1 1 0 1.421h-10.694a.71.71 0 1 1 0-1.421zm9.48-18.186c-.14.138-.32.208-.503.208s-.364-.07-.504-.208l-.927-.924-.926.924c-.14.138-.322.208-.504.208s-.365-.07-.505-.208c-.277-.278-.277-.728 0-1.006l.927-.924-.927-.924a.71.71 0 0 1 0-1.005c.14-.138.322-.208.505-.208s.365.07.504.208l.926.924.927-.924c.14-.138.32-.208.504-.208s.364.07.503.208a.71.71 0 0 1 0 1.005l-.926.924.926.924a.71.71 0 0 1 0 1.006zm-5.652 12.76h-3.17a.71.71 0 0 1-.713-.711c0-.392.32-.71.713-.71h3.17c.393 0 .713.32.713.71s-.32.71-.713.71zm13.07-95.2h-5.94c-.393 0-.713-.318-.713-.7s.32-.71.713-.71h5.94c.393 0 .713.318.713.71s-.32.7-.713.7zm-8.877 34.836H195.54v1.618h3.76c.394 0 .713.32.713.712s-.32.71-.713.71h-4.47a.71.71 0 0 1-.713-.711v-2.33h-2.542l-.04.085-5.666 7.4 8.703 11.353h4.324a.71.71 0 1 1 0 1.422h-4.675a.7.7 0 0 1-.295-.067l-.067-.044-.173-.142-.03-.026-8.684-11.326-8.714 11.352-.174.142-.067.044a.69.69 0 0 1-.293.067h-4.676c-.393 0-.713-.318-.713-.71s.32-.71.713-.71h4.323l8.704-11.353-5.665-7.4-.042-.085H163.4a.71.71 0 0 1-.713-.711v-2.365c0-.393.32-.712.713-.712h5.396c.001-1.236.065-3.86.533-5.96 1.22-5.474 4.7-7.662 4.858-7.753.114-.07.243-.104.372-.104.11 0 .223.026.325.076.133.068 3.277 1.72 4.872 6.915.735 2.394.787 5.43.766 6.826h7.257c-.583-.23-.997-.798-.997-1.46a1.57 1.57 0 0 1 1.524-1.563.69.69 0 0 1 .238-.048h12.943c.08 0 .147-.066.147-.146s-.066-.145-.147-.145l-.13-.027-.128.027h-13.072c-.867 0-1.572-.704-1.572-1.57s.705-1.57 1.572-1.57h13.545a.71.71 0 1 1 0 1.423h-13.545c-.08 0-.147.066-.147.145s.066.146.147.146h13.072l.128.027.13-.027c.867 0 1.573.704 1.573 1.57s-.706 1.57-1.573 1.57H188.57c-.068.022-.138.043-.214.043s-.147.066-.147.145.066.147.147.147h13.45c.393 0 .713.318.713.71a.71.71 0 0 1-.334.602h4.243c.394 0 .713.32.713.712v2.365a.71.71 0 0 1-.713.711zm-21.46 6.305l4.834-6.305h-9.667l4.833 6.305zm-6.574-16.502c-1.103-3.594-3.02-5.274-3.807-5.838-.844.672-3 2.714-3.865 6.595-.432 1.934-.494 4.436-.497 5.628l6.122.024h2.748c.02-1.306-.027-4.212-.7-6.41zm27.32 7.832h-25.792a.68.68 0 0 1-.136.013h-.001l-3.24-.013h-12.433v.942h41.6v-.942zm-27.83-1.954c-.393 0-.713-.318-.713-.71v-1.32c0-.393.32-.71.713-.71a.71.71 0 0 1 .713.711v1.32a.71.71 0 0 1-.713.711zm-.976-3.72c-.393 0-.713-.318-.713-.71v-1.32c0-.393.32-.71.713-.71a.71.71 0 0 1 .713.711v1.32a.71.71 0 0 1-.713.711zm-2.386-3.38a.71.71 0 0 1-.713-.711v-1.32a.71.71 0 1 1 1.426 0v1.32a.71.71 0 0 1-.713.711zm-2.16 3.38a.71.71 0 0 1-.712-.711v-1.32a.71.71 0 1 1 1.425 0v1.32a.71.71 0 0 1-.713.711zm-.18 1.69v1.32c0 .393-.32.71-.713.71a.71.71 0 0 1-.713-.711v-1.32a.71.71 0 0 1 .713-.711c.393 0 .713.318.713.71zm28.865-13.713a.71.71 0 1 1 0 1.421h-2.772a.71.71 0 1 1 0-1.421h2.772zm3.96-4.504h-9.902a.71.71 0 1 1 0-1.421h9.902a.71.71 0 1 1 0 1.421zm-10.377 5.215a.71.71 0 0 1-.713.71H184.4a.71.71 0 1 1 0-1.421h9.506c.393 0 .713.318.713.71zm-60.52 30.732h-7.526c-.393 0-.713-.318-.713-.71s.32-.71.713-.71h7.526c.393 0 .713.318.713.71s-.32.71-.713.71zm-7.605 2.844a.71.71 0 0 1-.713.711h-6.337a.71.71 0 1 1 0-1.422h6.337a.71.71 0 0 1 .713.711zm3.644-.316h2.376a.71.71 0 0 1 .713.711c0 .392-.32.71-.713.71h-2.376c-.393 0-.713-.32-.713-.71s.32-.71.713-.71zm165.957-13.825h4.357a.71.71 0 1 1 0 1.421h-4.357c-.393 0-.713-.318-.713-.7s.32-.71.713-.71zm.924 5.266h10.298c.394 0 .714.318.714.71s-.32.71-.714.71h-10.298a.71.71 0 1 1 0-1.422zm4.753 4.61h3.565c.394 0 .714.318.714.71s-.32.71-.714.71h-3.565a.71.71 0 1 1 0-1.422zm6.074 5.398h6.733a.71.71 0 1 1 0 1.422h-6.733a.71.71 0 1 1 0-1.422zm-.185-4.687a.71.71 0 0 1 .714-.711h15.447a.71.71 0 1 1 0 1.422h-15.447a.71.71 0 0 1-.714-.711zm71.795 252.848l-5.383.05c-.388 0-.706-.31-.713-.7a.71.71 0 0 1 .702-.723l5.37-.05c.49-.008.952-.032 1.21-.238.092-.09.254-.418.377-1.566h-7.475c-.394 0-.714-.318-.714-.71s.32-.712.714-.712h4.245a.71.71 0 0 1-.274-.898c.574-1.26 1.3-3.64.8-4.662-.177-.364-.983-1.04-2.182-1.898a.75.75 0 0 1-.18-.056c-.106-.05-10.727-4.923-21.676-6.36-3.285-.43-8.264-.713-12.656-.96l-5.922-.368c-1.213-.095-6.2-.292-12.513-.543l-29.68-1.427c.04.02.08.044.118.072.31.238.374.677.14 1-.04.052-.97 1.266-2.92 1.714-1.1.253-2.03.304-4.005.304-.532 0-1.14-.005-1.847-.008l-3.68-.014h-26.142a.71.71 0 1 1 0-1.423l29.832.014 1.847.008c1.848 0 2.715-.046 3.676-.266 1.417-.327 2.075-1.152 2.103-1.187.102-.13.24-.217.4-.254-5.27-.578-6.676-1.82-7.368-2.43l-.122-.11c-1.438.118-10.387.867-18.8 1.825-6.39.728-12.927 2.357-17.786 4.365v6.647c0 .393-.32.712-.713.712-2.177 0-3.948-2.003-3.948-4.465 0-.173.01-.345.026-.513-3.978 2.677-4.68 5.698-4.688 5.73-.072.333-.37.562-.697.562l-.15-.016a.71.71 0 0 1-.55-.838c.035-.168.92-4.166 6.416-7.32l.392-.22c.718-1.12 1.883-1.85 3.198-1.85.164 0 .315.055.435.148 4.962-2.01 11.515-3.63 17.902-4.357 8.435-.962 17.418-1.713 18.84-1.83.042-.1.104-.173.185-.242l12.09-10.285-.02-.028c1.46-1.06 3.267-2.376 10.66-2.376l1.195.01c10.476.168 26.262 2.092 31.022 3.042 4.74.946 6.905 1.638 10.08 3.222 5.337 2.66 12.828 10.74 13.145 11.083l.044.05c2.75 1.547 14.738 8.378 15.783 10.52.953 1.953-.603 5.477-.784 5.874a.71.71 0 0 1-.273.309h2.82c.06 0 .12.008.175.022a.71.71 0 0 1 .268-.053.4.4 0 0 1 .049.002.71.71 0 0 1 .658.761l-.01.11c-.097 1.335-.25 2.686-.968 3.257-.658.526-1.5.54-2.075.548zm-131.933-17.597a28.63 28.63 0 0 0-1.455.719c-.224.455-.354.986-.354 1.552 0 1.38.764 2.547 1.81 2.92v-5.2zm94.178-3.305l1.897.108-1.916-10.27c-.001-.01-.003-.02-.004-.03l-4.352-.747 1.93 10.526c.017.094.015.186-.004.273l2.448.14zm-18.46-.913l12.567.547 2.033.14-1.968-10.728a.68.68 0 0 1-.006-.216c-4.624-.714-9.852-1.368-15.366-1.783.022.096.025.2.004.302l-2.362 11.534 5.098.203zm-6.542-.26l2.41-11.76c.008-.04.02-.078.034-.116l-1.36-.086a93.58 93.58 0 0 0-5.507-.171c-4.476 0-7.186.377-8.187.58.05 1.53-1.44 3.238-3.52 5.624l-1.29 1.49-2.983 3.484c4.64.3 12.783.65 20.404.958zm-18.205-13.1l-11.717 9.97c.67.555 2.22 1.55 7.138 1.995l.608.05 3.67-4.28 1.3-1.5c1.97-2.26 3.53-4.045 3.087-4.976-.533-1.122-1.845-1.362-2.87-1.362-.53-.001-.985.064-1.215.104zm50.075 3.286c-2.368-1.066-4.46-1.658-8.306-2.425-4.718-.94-20.37-2.848-30.766-3.015l-1.094-.01c-3.69 0-5.882.324-7.32.77.956.198 1.923.656 2.548 1.62 1.507-.4 4.718-.674 8.707-.674a93.97 93.97 0 0 1 5.529.166c12.71.755 24.225 2.882 30.878 4.32l-.177-.75zm-5.39 1.073l1.884 10.107c3.207.193 6.428.415 8.883.712-2.317-1.888-3.963-6.68-4.79-9.598-1.662-.365-3.678-.785-5.978-1.22zm7.047-.277l.077.296.75.17a17.41 17.41 0 0 0-.827-.466zm3.983 2.694c-.375-.098-1.584-.408-3.464-.84.954 3.157 2.545 7.216 4.423 8.37.818.502 1.756.686 2.688.686 1.63 0 3.247-.562 4.195-.964-1.36-1.414-4.587-4.677-7.842-7.252zm8.955 8.314a14.58 14.58 0 0 1-3.3 1.115c3.844.85 7.425 1.97 10.28 2.98-2.333-1.426-4.823-2.88-6.98-4.094zm-55.227-10.887a.71.71 0 1 1 1.007 1.006l-3.366 3.358c-.14.14-.322.208-.505.208s-.365-.07-.503-.208a.71.71 0 0 1 0-1.007l3.367-3.357zm-1.585 4.74a.71.71 0 1 1 1.008 1.005l-.86.856c-.14.14-.32.208-.504.208s-.365-.07-.503-.208a.71.71 0 0 1 0-1.007l.858-.854zm6.01-6.153c.274-.282.724-.29 1.008-.018a.71.71 0 0 1 .018 1.005l-4.304 4.45a.71.71 0 0 1-.513.217c-.18 0-.357-.065-.495-.2a.71.71 0 0 1-.018-1.006l4.304-4.45zm.656 3.32c.28-.277.73-.277 1.007 0a.71.71 0 0 1 0 1.007l-2.837 2.83c-.14.14-.322.21-.505.21a.71.71 0 0 1-.503-1.214l2.838-2.832zm10.284-2.87a.71.71 0 0 1 .518-.222.71.71 0 0 1 .519 1.199l-1.684 1.777a.71.71 0 0 1-.518.224c-.176 0-.352-.065-.5-.195a.71.71 0 0 1-.028-1.005l1.683-1.778zm5.534 1.71c.142-.155.336-.234.53-.234a.71.71 0 0 1 .527 1.188l-3.762 4.147c-.14.155-.335.235-.53.235a.71.71 0 0 1-.478-.185c-.292-.263-.315-.713-.05-1.003l3.762-4.148zm2.97.396c.14-.156.335-.236.53-.236.17 0 .34.06.476.184a.71.71 0 0 1 .053 1.003l-1.783 1.976a.71.71 0 0 1-.53.235c-.17 0-.34-.06-.476-.183a.71.71 0 0 1-.054-1.004l1.783-1.975zm44.693-2.132c.394 0 .713.32.713.71s-.32.712-.713.712h-1.98c-.393 0-.713-.32-.713-.712s.32-.71.713-.71h1.98zm1.98-6.478h-12.675a.71.71 0 1 1 0-1.422H378.5a.71.71 0 1 1 0 1.422zm-2.377-11.06h-9.1c-.394 0-.713-.32-.713-.712s.32-.71.713-.71h9.1a.71.71 0 1 1 0 1.423zm-6.734-7.506h-1.98a.71.71 0 1 1 0-1.422h1.98a.71.71 0 1 1 0 1.422zm-6.945 0h-11.458a.71.71 0 1 1 0-1.422h11.458a.71.71 0 1 1 0 1.422zm7.34 25.044a.71.71 0 1 1 0 1.423h-5.15c-.393 0-.713-.32-.713-.712s.32-.71.713-.71h5.15zm-8.317-8.296c.393 0 .713.32.713.712s-.32.71-.713.71h-3.96c-.393 0-.713-.32-.713-.71s.32-.712.713-.712h3.96zm7.446-6.398a.71.71 0 0 1-.713.711h-18.22a.71.71 0 0 1-.713-.711c0-.393.32-.712.713-.712h18.22c.394 0 .713.32.713.712zm-28.834.08c.393 0 .713.318.713.71s-.32.71-.713.71h-2.377c-.393 0-.713-.318-.713-.71s.32-.71.713-.71h2.377zm.83-12.967c-.08 0-.162-.015-.242-.043a1.33 1.33 0 0 0-.447-.079 1.32 1.32 0 0 0-.562.127 1.31 1.31 0 0 0-.681.746l-.086.166v.003l-.002.001v.002l-.001.001-.002.001h0l-.001.002-.001.001-.001.002-.001.001v.002a.71.71 0 0 1-.407.268h-.001l-.004.002h-.003l-.16.018a.7.7 0 0 1-.241-.042.71.71 0 0 1-.267-.17l-.002-.002-.001-.002-.002-.001-.008-.008h-.001l-.002-.001-.002-.003-.004-.004h-.001l-.003-.006-.004-.002-.001-.002h-.002v-.002l-.002-.002-.002-.001v-.003l-.002-.004h-.001l-.002-.001-.001-.002c-.132-.16-.2-.377-.146-.6l.001-.003v-.003l.001-.001v-.002-.001-.006l.002-.001v-.008l.001-.003.001-.002v-.003l.02-.067c.12-.33.103-.69-.048-1.007a1.31 1.31 0 0 0-.748-.679.71.71 0 0 1-.472-.669.73.73 0 0 1 .042-.241.71.71 0 0 1 .911-.428 1.34 1.34 0 0 0 .446.077c.543 0 1.052-.335 1.246-.872.106-.3.38-.47.672-.47.08 0 .16.013.24.042a.71.71 0 0 1 .472.669.7.7 0 0 1-.043.241 1.32 1.32 0 0 0 .796 1.686c.29.105.472.38.472.67 0 .08-.014.16-.043.24a.71.71 0 0 1-.67.471zm-1.85-1.578a2.68 2.68 0 0 1-.243.115l.06.12.054.123.12-.06.123-.055c-.042-.08-.08-.158-.113-.242zm-5.467 8.16a.73.73 0 0 1-.241-.042c-.238-.085-.484-.128-.73-.128-.314 0-.626.07-.92.205-.52.245-.914.678-1.11 1.218a.71.71 0 0 1-.671.47c-.014.008-.03.01-.05.01-.058 0-.13-.03-.19-.052a.71.71 0 0 1-.43-.91 2.15 2.15 0 0 0-1.298-2.749.71.71 0 0 1-.43-.909c.105-.3.38-.47.67-.47a.74.74 0 0 1 .242.042l.002.001c.237.085.483.127.727.127.313 0 .625-.07.918-.206a2.14 2.14 0 0 0 1.109-1.217c.104-.3.38-.47.67-.47.08 0 .16.013.24.042a.71.71 0 0 1 .472.669c0 .08-.014.16-.043.24a2.15 2.15 0 0 0 1.298 2.75.71.71 0 0 1 .472.669.68.68 0 0 1-.043.241.71.71 0 0 1-.67.47zm-2.45-2.358a3.77 3.77 0 0 1-.449.251c-.156.073-.316.135-.478.184a3.47 3.47 0 0 1 .25.446c.074.156.136.315.185.476a3.82 3.82 0 0 1 .447-.25 3.7 3.7 0 0 1 .48-.184c-.188-.285-.335-.597-.435-.923zm-12.054 5.03h-1.98c-.394 0-.714-.32-.714-.712s.32-.71.714-.71h1.98a.71.71 0 1 1 0 1.423zm12.198 5.61c0 .392-.32.712-.712.712h-14.26c-.394 0-.714-.32-.714-.712s.32-.712.714-.712h14.26a.71.71 0 0 1 .712.712zm-18.106-5.61h-8.668c-.393 0-.713-.32-.713-.712s.32-.71.713-.71h8.668a.71.71 0 0 1 .713.711c0 .393-.32.712-.713.712zm-13.105-6.716h-5.94c-.393 0-.713-.318-.713-.71s.32-.71.713-.71h5.94a.71.71 0 1 1 0 1.422zm-6.19 16.237a.73.73 0 0 1-.042.241c-.105.3-.38.47-.67.47a.73.73 0 0 1-.241-.042 1.32 1.32 0 0 0-.446-.078c-.542 0-1.052.335-1.246.873-.105.3-.38.47-.67.47a.73.73 0 0 1-.241-.042.71.71 0 0 1-.472-.669c0-.08.014-.16.043-.24a1.32 1.32 0 0 0-.797-1.686.71.71 0 0 1-.472-.67.69.69 0 0 1 .043-.239c.105-.29.38-.47.67-.47a.7.7 0 0 1 .241.042 1.31 1.31 0 0 0 .448.079c.192 0 .383-.042.562-.127.32-.15.562-.415.68-.747a.71.71 0 0 1 .671-.47c.08 0 .16.013.24.042a.71.71 0 0 1 .472.669c0 .08-.014.16-.043.24-.12.33-.102.69.05 1.007s.415.56.747.68a.71.71 0 0 1 .473.669zm-2.5-.74l-.055-.122-.118.06-.124.055a2.96 2.96 0 0 1 .115.241 2.82 2.82 0 0 1 .242-.114l-.06-.12zM261.25 308.15a.71.71 0 1 1 0 1.423h-3.17c-.393 0-.713-.32-.713-.712s.32-.71.713-.71h3.17zm22.373-6.49H241.62a.71.71 0 0 1-.713-.711v-25.42c0-.393.32-.712.713-.712h42.004c.394 0 .713.32.713.712v25.42a.71.71 0 0 1-.713.711zm-.713-25.42h-40.578v11.128h40.347c.08 0 .16.014.23.04V276.24zm0 12.513a.73.73 0 0 1-.231.039h-40.347v11.444H282.9v-11.483zm-28.343 8.44h16.108a.71.71 0 1 1 0 1.422h-16.108a.71.71 0 1 1 0-1.422zm16.108-11.745h-16.108a.71.71 0 1 1 0-1.423h16.108a.71.71 0 1 1 0 1.423zm-20.12 23.49c.393 0 .713.318.713.71s-.32.71-.713.71h-9.506c-.394 0-.714-.318-.714-.71s.32-.71.714-.71h9.506zm27.992 25.045h-.003c-.392 0-.71-.317-.713-.71a.71.71 0 0 1 .711-.713l70.45-.265c.393 0 .71.318.713.7s-.317.712-.7.714l-70.45.263zm-40.868-4.82l.022.146 13.698 1.016c.22.016.41.132.53.298 2.077-4.598 6.715-7.806 12.092-7.806 7.31 0 13.256 5.93 13.256 13.22 0 .596-.04 1.193-.12 1.782l72.627-.782a.71.71 0 0 1 .713.703c.005.393-.31.715-.705.72l-73.362.79c-.26 0-.488-.14-.613-.348-.15-.16-.225-.39-.18-.62a11.84 11.84 0 0 0 .214-2.243c0-6.505-5.307-11.798-11.83-11.798s-11.83 5.293-11.83 11.798c0 .698.062 1.398.184 2.08a.71.71 0 0 1-.702.835c-.07 0-.14-.01-.2-.03-.138-.042-3.396-1.05-6.057-2.82-2.595-1.724-4.234-3.113-5.317-4.5a.71.71 0 0 1-.1-.698l-2.735-.202c-.096.03-.2.06-.333.06-.158 0-.328-.045-.485-.183-.37-.322-.237-.757-.193-.9.025-.088.05-.17.037-.238-.152-.765.144-1.473.453-2.065.128-.243.376-.38.633-.38.11 0 .224.026.33.08a.71.71 0 0 1 .302.959c-.195.372-.386.796-.32 1.13zm8.518 5.756c1.593 1.06 3.47 1.843 4.618 2.27a13.43 13.43 0 0 1-.049-1.152c0-1.507.254-2.957.72-4.307-.045.01-.092.014-.14.014l-.055-.003-9.848-.73c.99 1.173 2.474 2.392 4.752 3.906zm115.458-10.386c6.07 0 11.007 4.924 11.007 10.978s-4.938 10.977-11.007 10.977-11.007-4.925-11.007-10.977 4.937-10.978 11.007-10.978zm0 20.532c5.283 0 9.58-4.285 9.58-9.554s-4.298-9.555-9.58-9.555-9.58 4.286-9.58 9.555 4.298 9.554 9.58 9.554zm-.198-18.364c.393 0 .713.32.713.712s-.32.712-.713.712c-3.902 0-7.077 3.165-7.077 7.056 0 .393-.32.712-.713.712s-.713-.32-.713-.712c0-4.675 3.814-8.48 8.503-8.48zm.924 2.94c3.573 0 6.48 2.9 6.48 6.463a6.48 6.48 0 0 1-12.96 0c0-3.563 2.907-6.463 6.48-6.463zm0 11.503c2.786 0 5.054-2.26 5.054-5.04s-2.268-5.04-5.054-5.04-5.054 2.26-5.054 5.04 2.267 5.04 5.054 5.04zm.297-8.65a3.68 3.68 0 0 1 3.679 3.671 3.68 3.68 0 0 1-3.679 3.67 3.68 3.68 0 0 1-3.68-3.67 3.68 3.68 0 0 1 3.68-3.671zm0 5.918c1.242 0 2.254-1.01 2.254-2.247s-1.012-2.248-2.254-2.248-2.255 1.008-2.255 2.248 1.01 2.247 2.255 2.247zM306.843 16.325l-7.397-.09a2.89 2.89 0 0 1-2.895-2.882c-.005-.775.293-1.506.84-2.056a2.88 2.88 0 0 1 1.652-.834c.075-.834.434-1.61 1.03-2.212a3.61 3.61 0 0 1 2.559-1.076c1 .004 1.883.364 2.573 1.043.556.547.913 1.24 1.034 1.995a3.2 3.2 0 0 1 .564-.055h.05c1.654 0 3.05 1.382 3.06 3.064.005.823-.312 1.6-.89 2.186a3.08 3.08 0 0 1-2.181.917zm-.02-4.744h-.01c-.585.004-1.115.305-1.418.807a.71.71 0 0 1-.611.344c-.125 0-.252-.033-.366-.102a.71.71 0 0 1-.244-.976 3.12 3.12 0 0 1 .69-.799.93.93 0 0 1-.004-.075 2.18 2.18 0 0 0-.655-1.549c-.413-.405-.96-.634-1.532-.634h-.03c-.59.004-1.14.237-1.553.653a2.18 2.18 0 0 0-.629 1.366c.367.134.71.34 1 .613a.71.71 0 0 1 .027 1.005c-.14.147-.33.222-.517.222a.71.71 0 0 1-.491-.195c-.278-.263-.62-.388-1.028-.404-.397.003-.767.16-1.046.44s-.43.654-.427 1.05.16.764.442 1.042.67.414 1.05.426l7.378.1c.43-.004.85-.18 1.16-.495s.483-.734.48-1.177c-.007-.913-.752-1.65-1.666-1.65zm-14.956 15.276c-.12 0-.244-.03-.356-.096l-1.077-.62a.71.71 0 0 1-.261-.972c.132-.228.372-.355.62-.355a.71.71 0 0 1 .355.096l1.078.62a.71.71 0 0 1-.358 1.327zm-4.103-1.946l-.174-.022-1.987-.497a.71.71 0 0 1-.518-.862.71.71 0 0 1 .688-.539.76.76 0 0 1 .176.021l1.987.497a.71.71 0 0 1 .518.862c-.08.323-.37.54-.7.54zm-4.344-1.048c-.035 0-.068-.002-.104-.007a21.03 21.03 0 0 0-3.03-.214c-6.808 0-13.693 3.06-19.86 5.804l-2.078.92a.71.71 0 0 1-.939-.364.71.71 0 0 1 .365-.937l2.07-.917c6.303-2.802 13.337-5.928 20.432-5.928 1.082 0 2.164.072 3.247.23a.71.71 0 0 1 .602.806.71.71 0 0 1-.705.608zM188.115 9.386c-6.53 0-13.46-2.252-19.287-4.145-3.645-1.185-8.088-2.39-12.586-2.39-1.75 0-3.508.183-5.23.62-.06.015-.12.023-.18.023a.71.71 0 0 1-.687-.536.71.71 0 0 1 .514-.865c1.85-.47 3.726-.664 5.585-.664 4.69 0 9.27 1.24 13.025 2.46 5.676 1.844 12.444 4.043 18.755 4.043 5.82 0 11.252-1.87 15.082-7.614.137-.206.364-.317.594-.317.137 0 .273.038.394.12a.71.71 0 0 1 .199.986c-4.174 6.26-9.995 8.28-16.178 8.28zm-41.482-5.01c-2.016.6-2.804.95-3.566 1.287-.562.25-1.144.507-2.166.85a.71.71 0 0 1-.227.037c-.3 0-.576-.188-.676-.485a.71.71 0 0 1 .449-.9c.96-.32 1.484-.555 2.04-.802.803-.356 1.634-.724 3.738-1.35a.68.68 0 0 1 .205-.031.71.71 0 0 1 .681.509.71.71 0 0 1-.479.884zm-9.608 19.5c-.127.1-.278.15-.43.15-.2 0-.4-.088-.536-.256-.236-.294-.19-.725.106-.962.605-.483 1.14-1.025 1.593-1.61.134-.175.338-.267.544-.267a.68.68 0 0 1 .542 1.102c-.518.67-1.13 1.292-1.82 1.844zm-2.203-13.668a.71.71 0 0 1-.997-.146.71.71 0 0 1 .146-.996l1.652-1.226a.71.71 0 0 1 .425-.141c.218 0 .433.1.573.286a.71.71 0 0 1-.146.996l-1.653 1.226zm-.276 13.762c.25 0 .49.137.612.374a.68.68 0 0 1-.299.919 15.05 15.05 0 0 1-2.37.952l-.202.03c-.293 0-.565-.19-.656-.483-.112-.36.09-.743.454-.856a13.57 13.57 0 0 0 2.151-.864.68.68 0 0 1 .31-.075zm-4.533 2.808c-.823.125-1.67.195-2.52.21h-.012c-.374 0-.68-.3-.685-.673s.295-.69.674-.695c.79-.013 1.575-.078 2.338-.193a.59.59 0 0 1 .104-.009c.334 0 .626.243.677.582.057.373-.2.723-.575.78zm-4.966.1l-.08-.004a18.5 18.5 0 0 1-2.318-.415l-.17-.043c-.367-.093-.588-.466-.495-.832.08-.31.356-.515.663-.515a.72.72 0 0 1 .172.021l.127.032a17.33 17.33 0 0 0 2.178.391c.377.043.646.383.603.758-.04.35-.338.607-.68.607zm-4.73-1.147c-.076 0-.153-.013-.228-.04a35.33 35.33 0 0 1-2.313-.913c-.347-.15-.506-.554-.354-.9.112-.258.365-.41.63-.41a.67.67 0 0 1 .272.057c.76.33 1.506.624 2.22.877.358.125.545.516.42.873a.69.69 0 0 1-.647.457zm-4.474-1.93a.68.68 0 0 1-.306-.072 73.35 73.35 0 0 1-2.182-1.136c-.334-.18-.457-.595-.278-.927a.69.69 0 0 1 .605-.359.67.67 0 0 1 .325.083l2.143 1.115c.338.168.476.58.307.918-.12.24-.362.38-.614.38zm4.12 7.456c2.69 0 4.947 1.887 5.425 4.506 2.013.152 3.635 1.775 3.715 3.828.04 1.066-.337 2.085-1.064 2.868s-1.715 1.237-2.785 1.28l-9.716-.086a4.12 4.12 0 0 1-.182.004c-2.4 0-4.414-1.923-4.51-4.363-.093-2.39 1.693-4.425 4.038-4.687a5.49 5.49 0 0 1 5.078-3.349zm-7.69 7.98c.066 1.68 1.477 2.995 3.13 2.995.04 0 .076 0 .114-.002l9.717.086c.655-.027 1.292-.32 1.76-.824s.712-1.16.685-1.847c-.054-1.382-1.192-2.474-2.568-2.474-.036 0-.074.001-.11.003-.526.02-1.026.196-1.445.5-.128.095-.277.142-.427.142a.71.71 0 0 1-.428-1.28c.384-.287.812-.5 1.266-.633a4.12 4.12 0 0 0-4.002-3.234 4.07 4.07 0 0 0-3.53 2.015c1.078.248 2.03.884 2.685 1.813a.71.71 0 0 1-.172.99c-.124.088-.267.13-.4.13-.224 0-.445-.106-.584-.302-.554-.787-1.427-1.265-2.376-1.32a.69.69 0 0 1-.195.027c-.063 0-.127-.008-.19-.026-1.68.11-2.983 1.54-2.918 3.23zm-.725-17.737a.68.68 0 0 1-.335-.088l-.443-.247-1.683-.936a.68.68 0 0 1-.269-.929c.125-.225.36-.354.6-.354a.68.68 0 0 1 .332.086l1.69.94.442.247c.33.185.45.602.264.932-.126.224-.36.35-.6.35zm-4.276-2.34a.68.68 0 0 1-.318-.078 57.45 57.45 0 0 0-1.888-.944l-.27-.128c-.342-.16-.5-.567-.328-.9.116-.248.363-.394.62-.394.098 0 .198.02.292.066l.276.13a60.93 60.93 0 0 1 1.931.965c.336.175.467.59.29.923-.12.234-.36.368-.608.368zm-4.415-2.062c-.086 0-.174-.017-.26-.052a50.36 50.36 0 0 0-2.246-.855.68.68 0 0 1-.419-.873c.1-.28.363-.457.646-.457a.67.67 0 0 1 .229.04c.773.27 1.55.567 2.3.878.35.144.52.543.375.892-.108.265-.364.426-.635.426zM98.26 15.48l-.197-.028c-.763-.228-1.544-.44-2.32-.628-.368-.1-.593-.46-.504-.827a.69.69 0 0 1 .669-.521c.052 0 .107.006.16.02a48.83 48.83 0 0 1 2.387.646c.363.107.57.49.462.85-.09.296-.36.49-.658.49zm-4.735-1.155l-.13-.012-.746-.136a32.56 32.56 0 0 0-1.616-.246c-.376-.047-.643-.39-.596-.763.044-.347.336-.6.68-.6a.7.7 0 0 1 .085.005c.565.07 1.127.158 1.683.255l.77.142c.37.072.614.43.542.802-.063.327-.35.554-.672.554zm-6.782 41.572l-7.378-.09c-1.6 0-2.903-1.288-2.913-2.882-.01-1.465 1.076-2.687 2.5-2.9a3.58 3.58 0 0 1 1.032-2.212 3.61 3.61 0 0 1 2.559-1.076c.976 0 1.883.364 2.572 1.043a3.59 3.59 0 0 1 1.034 1.995c.183-.035.372-.053.563-.055h.02c1.696 0 3.08 1.37 3.09 3.063a3.09 3.09 0 0 1-3.072 3.103zm-.02-4.744H86.7c-.585.004-1.114.305-1.417.806-.134.222-.37.345-.612.345-.125 0-.25-.033-.366-.102a.71.71 0 0 1-.244-.976c.188-.31.422-.58.69-.8a.66.66 0 0 1-.004-.074 2.18 2.18 0 0 0-.655-1.549c-.418-.412-.967-.634-1.56-.634s-1.142.237-1.555.654c-.367.37-.586.848-.627 1.36a2.91 2.91 0 0 1 .999.618.71.71 0 0 1-.49 1.227c-.176 0-.352-.065-.49-.195-.28-.263-.637-.37-1.028-.404-.818.005-1.478.673-1.473 1.488s.67 1.47 1.483 1.47h.01l7.378.1c.905-.007 1.647-.756 1.64-1.672s-.752-1.65-1.665-1.65zm1.963-37.39h-.006l-.142-.001c-.778.001-1.487.056-2.166.17l-.115.01c-.328 0-.62-.237-.675-.57-.063-.373.19-.726.563-.79.755-.127 1.538-.188 2.394-.19l.153.001c.38.003.684.31.68.7s-.3.678-.685.678zm-4.49.795c-.694.304-1.334.7-1.9 1.173-.128.107-.285.16-.44.16-.196 0-.39-.083-.526-.245-.244-.29-.206-.72.084-.964a9.23 9.23 0 0 1 2.233-1.378c.1-.04.183-.06.276-.06.263 0 .514.153.627.4.152.347-.006.75-.353.902zm-4.04 4.842c-.042.348-.338.604-.68.604L79.39 20c-.376-.045-.644-.385-.6-.76.106-.886.404-1.743.886-2.55.128-.215.356-.333.6-.333.12 0 .24.03.35.097.325.193.432.614.238.938a5.07 5.07 0 0 0-.702 2.01zm-7.086 49.263c-.132.2-.352.31-.576.31-.128 0-.258-.036-.374-.112-.318-.207-.408-.63-.2-.947a15.8 15.8 0 0 0 .879-1.523.69.69 0 0 1 .614-.376.68.68 0 0 1 .307.073c.338.17.474.582.303.92-.288.57-.61 1.128-.953 1.655zm.645 25.8a.71.71 0 0 1-.219.982l-2.178 1.382c-.118.075-.252.112-.382.112-.237 0-.466-.116-.603-.33a.71.71 0 0 1 .218-.982l2.18-1.382c.333-.21.774-.113.984.218zm-4.02-22.035a.69.69 0 0 1-.966-.091c-.24-.292-.2-.724.092-.964a15.7 15.7 0 0 0 1.682-1.611c.135-.15.323-.228.51-.228.163 0 .327.058.457.175a.68.68 0 0 1 .053.966 17.2 17.2 0 0 1-1.83 1.754zm-1.38 26.195l-23.765 13.43a.71.71 0 0 1-.351.093c-.25 0-.49-.13-.62-.36a.71.71 0 0 1 .269-.97l23.765-13.43c.34-.193.777-.074.97.268a.71.71 0 0 1-.269.969zm-2.9-23.552c-.092.04-.188.06-.283.06-.26 0-.5-.15-.625-.402-.157-.344-.004-.75.34-.906a18.76 18.76 0 0 0 2.077-1.097.68.68 0 0 1 .359-.102.69.69 0 0 1 .586.326c.198.322.097.744-.226.942a20.29 20.29 0 0 1-2.229 1.178zm-5.058.23a24.78 24.78 0 0 0 2.288-.625.69.69 0 0 1 .214-.034c.288 0 .558.182.652.47.117.36-.078.745-.44.863-.77.253-1.583.474-2.416.66l-.15.017c-.313 0-.597-.216-.668-.535-.083-.37.15-.734.52-.817zm-2.344.42a.69.69 0 0 1 .773.584c.052.374-.21.72-.586.77-.805.11-1.64.194-2.477.247l-.044.002c-.36 0-.66-.28-.684-.642-.023-.377.264-.702.642-.726a31.83 31.83 0 0 0 2.376-.236zm-7.16.216a37.45 37.45 0 0 0 2.393.089c.38.001.684.31.683.687s-.31.68-.685.68h-.004c-.817-.005-1.653-.035-2.48-.09-.378-.026-.663-.353-.637-.73.025-.358.315-.637.677-.637.018 0 .036.001.054.002zm-4.882-.64c.045 0 .1.005.135.013.77.153 1.565.284 2.363.388.376.05.64.393.6.768-.045.344-.34.595-.68.595l-.09-.006c-.828-.108-1.652-.244-2.45-.404-.372-.074-.612-.434-.538-.804.065-.326.352-.55.67-.55zm14.12-47.023l-11.496-.148c-1.776 0-3.228-1.45-3.228-3.23 0-1.59 1.158-2.916 2.678-3.18a3.72 3.72 0 0 1-.06-.67 3.79 3.79 0 0 1 3.789-3.778c.688 0 1.246.145 1.804.486a4.07 4.07 0 0 1 6.873 2.301 4.13 4.13 0 0 1 3.769 4.102 4.13 4.13 0 0 1-4.129 4.119zm0-6.814a2.69 2.69 0 0 0-1.912.79c-.14.138-.322.208-.505.208a.71.71 0 0 1-.504-1.214c.522-.52 1.16-.885 1.856-1.07-.225-1.227-1.305-2.16-2.6-2.16a2.64 2.64 0 0 0-2.435 1.609c-.116.27-.38.434-.658.434a.71.71 0 0 1-.656-.988 4.17 4.17 0 0 1 .069-.154c-.3-.164-.596-.228-.975-.228-1.303 0-2.364 1.057-2.364 2.356a2.36 2.36 0 0 0 .992 1.92.71.71 0 0 1 .167.992c-.14.194-.36.298-.58.298-.143 0-.288-.043-.413-.132a3.76 3.76 0 0 1-.987-1.033 1.81 1.81 0 0 0-1.795 1.807c0 .996.813 1.807 1.812 1.807l11.495.148a2.7 2.7 0 0 0 2.694-2.697c0-1.486-1.212-2.695-2.703-2.695zM43.592 76.1l-.186-.026a23.4 23.4 0 0 1-2.381-.796.68.68 0 0 1-.382-.889c.107-.267.364-.43.636-.43.085 0 .172.016.255.05a22.11 22.11 0 0 0 2.242.748c.364.103.578.48.475.843-.085.303-.36.5-.66.5zm-4.49-1.864a.68.68 0 0 1-.341-.091l-2.114-1.177c-.333-.18-.458-.596-.277-.928.124-.23.36-.358.603-.358a.69.69 0 0 1 .327.082l2.144 1.194c.33.19.442.607.254.935a.69.69 0 0 1-.596.344zm-4.292-2.3c-.103 0-.207-.023-.305-.072a60.75 60.75 0 0 0-2.177-1.032c-.346-.155-.5-.56-.345-.904a.69.69 0 0 1 .907-.344c.74.332 1.482.685 2.228 1.056.34.17.476.58.307.918-.12.24-.362.38-.614.38zm-4.45-1.99a.67.67 0 0 1-.25-.048c-.762-.297-1.52-.57-2.256-.808-.36-.117-.558-.503-.44-.862.095-.29.363-.473.653-.473a.71.71 0 0 1 .212.034c.76.246 1.545.528 2.332.835.353.138.527.535.388.887-.105.27-.364.434-.638.434zm-4.636-1.494l-.166-.02c-.786-.197-1.57-.36-2.332-.485-.374-.062-.627-.414-.564-.787.055-.336.347-.572.68-.572.036 0 .073.003.1.01a31.21 31.21 0 0 1 2.441.507c.367.092.59.464.498.83-.078.31-.358.52-.665.52zm-4.805-.787l-.052-.003a24.7 24.7 0 0 0-1.83-.069l-.54.006c-.343-.004-.692-.292-.7-.67s.292-.7.67-.7l.543-.005c.652 0 1.307.023 1.958.073.378.028.66.356.633.733-.027.36-.327.633-.683.633zm-4.784.105c-.776.095-1.562.23-2.335.405l-.15.017c-.314 0-.597-.216-.668-.534-.083-.37.15-.735.518-.818.817-.184 1.648-.327 2.47-.428.028-.003.055-.004.083-.004.343 0 .64.254.68.6.046.375-.22.716-.597.763zm-4.62 1.034c-.74.24-1.488.52-2.226.834-.088.037-.18.055-.27.055-.266 0-.52-.156-.63-.417-.15-.348.014-.75.362-.897a29.19 29.19 0 0 1 2.338-.876c.07-.023.142-.034.214-.034.29 0 .556.183.65.473.118.36-.08.746-.44.863zm-4.383 1.85c-.688.356-1.388.75-2.082 1.17-.11.068-.234.1-.356.1-.23 0-.457-.116-.587-.328-.198-.323-.094-.743.23-.94A35.8 35.8 0 0 1 6.5 69.431c.1-.052.21-.077.316-.077.247 0 .487.133.61.368.174.336.044.75-.293.924zm-6.026 3.896c-.125.097-.273.144-.42.144a.69.69 0 0 1-.544-.266c-.23-.3-.177-.728.123-.96C.93 72.948 1.6 72.457 2.26 72a.68.68 0 0 1 .39-.122c.217 0 .432.103.564.294a.68.68 0 0 1-.172.951 47.71 47.71 0 0 0-1.936 1.42zm17.617 274.67h3.45a.71.71 0 1 1 0 1.423h-3.45c-.393 0-.713-.32-.713-.71s.32-.712.713-.712zm392.614-1.253c-.393 0-.712-.32-.712-.712v-.643l-.162-.106-2.187-2.182a.71.71 0 0 1 .504-1.215c.183 0 .365.07.505.21l1.34 1.336v-2.406a.71.71 0 0 1 .712-.711c.394 0 .714.32.714.71v2.296l1.23-1.226a.71.71 0 0 1 .504-.209c.183 0 .366.07.505.21a.71.71 0 0 1 0 1.006l-2.188 2.182-.05.033v.716c0 .392-.32.712-.714.712zM430.98 93.11c-.788-.1-1.568-.23-2.32-.415l-.17-.042c-.367-.095-.588-.467-.494-.834.08-.31.36-.513.664-.513.057 0 .114.007.17.02l.153.038c.7.172 1.422.3 2.152.385.377.043.646.382.602.758-.04.348-.336.606-.68.606l-.078-.004zm-9.418 254.587V337.62c-11.647-.172-21.07-9.696-21.07-21.386 0-11.797 9.595-21.394 21.388-21.394s21.39 9.597 21.39 21.394c0 11.424-9 20.785-20.28 21.365v10.098a.71.71 0 0 1-.713.711c-.393 0-.713-.318-.713-.71zm1.426-34.764v4.724l4.17-3.83c.137-.125.31-.188.483-.188.193 0 .384.077.525.23a.71.71 0 0 1-.042 1.005l-4.927 4.525a.71.71 0 0 1-.21.131v16.644c10.494-.578 18.853-9.298 18.853-19.938 0-11.013-8.954-19.972-19.962-19.972s-19.96 8.96-19.96 19.972c0 10.906 8.783 19.79 19.644 19.963v-9.192c-.106-.044-.205-.108-.283-.205l-5.498-6.82a.71.71 0 0 1 .555-1.157c.21 0 .416.092.556.266l4.67 5.794v-11.95c0-.392.32-.71.713-.71a.71.71 0 0 1 .713.711zm1.078 35.137h4.587a.71.71 0 1 1 0 1.423h-4.587a.71.71 0 1 1 0-1.423zm11.604 0h8.13a.71.71 0 1 1 0 1.423h-8.13c-.394 0-.713-.32-.713-.71s.32-.712.713-.712z" fill="#171716"/></g></svg>