<svg xmlns="http://www.w3.org/2000/svg" width="420" height="411" fill="none" xmlns:v="https://vecta.io/nano"><style><![CDATA[.B{fill:#ec7e3b}.C{stroke:#ec7e3b}.D{fill:#171716}]]></style><g fill-rule="evenodd"><path d="M418.29 208.332c-1.633.937-3.728.377-4.67-1.25s-.38-3.713 1.254-4.65a3.42 3.42 0 0 1 1.767-.456.61.61 0 0 1 .6.62.61.61 0 0 1-.621.597 2.2 2.2 0 0 0-1.135.293c-1.05.602-1.41 1.943-.805 2.987s1.95 1.406 3 .803 1.4-1.943.805-2.987a.61.61 0 0 1 .225-.833c.292-.168.666-.067.835.224.94 1.626.378 3.713-1.255 4.65zm-12.004 162.94l-2.28-2.272c-.27-.27-.406-.623-.406-.977s.135-.707.406-.978c.543-.54 1.42-.54 1.964 0l2.28 2.272c.543.54.543 1.414 0 1.955a1.39 1.39 0 0 1-1.963 0zm-.317-6.71c-.543.54-1.42.54-1.964 0-.27-.27-.406-.624-.406-.978s.135-.707.406-.977l2.28-2.272a1.39 1.39 0 0 1 1.963 0 1.38 1.38 0 0 1 0 1.956l-2.28 2.27zm-6.74 6.71c-.543.54-1.42.54-1.964 0a1.38 1.38 0 0 1-.406-.978c0-.353.136-.708.406-.977l2.28-2.272c.543-.54 1.42-.54 1.964 0a1.38 1.38 0 0 1 0 1.955l-2.28 2.272zm.317-6.71l-2.28-2.27a1.38 1.38 0 0 1 0-1.956c.543-.54 1.42-.54 1.964 0l2.28 2.272a1.38 1.38 0 0 1 0 1.955c-.543.54-1.42.54-1.964 0zM344.47 235.596h-2.143a.92.92 0 0 1-.922-.919.92.92 0 0 1 .922-.919h2.143a.92.92 0 0 1 .923.919.92.92 0 0 1-.923.919zm-2.48-2.67a.92.92 0 0 1-1.305 0c-.36-.358-.36-.94 0-1.3l1.516-1.51c.36-.358.944-.358 1.304 0a.92.92 0 0 1 0 1.3l-1.515 1.508zm-.013 3.497l1.515 1.51c.36.358.36.94 0 1.298a.92.92 0 0 1-1.305 0l-1.515-1.51c-.36-.358-.36-.94 0-1.298s.945-.36 1.305 0zm-3.044-4.227a.92.92 0 0 1-.922-.918v-2.134a.92.92 0 1 1 1.844 0v2.134a.92.92 0 0 1-.922.918zm-.02 4.944a.92.92 0 0 1 .922.918v2.135a.92.92 0 1 1-1.844 0v-2.135a.92.92 0 0 1 .922-.918zm-2.39-3.957c-.236 0-.472-.1-.653-.27l-1.515-1.51c-.36-.358-.36-.94 0-1.298s.944-.36 1.305 0l1.515 1.51c.36.358.36.94 0 1.298a.92.92 0 0 1-.652.27zm-2.246-200.87c-1.114 0-2.018-.9-2.018-2s.904-2 2.018-2 2.018.9 2.018 2-.903 2-2.018 2zm-48.852 62.042a5.63 5.63 0 0 1-5.634-5.611 5.63 5.63 0 0 1 5.634-5.612c3.107 0 5.635 2.517 5.635 5.612s-2.528 5.61-5.635 5.61zm0-9.216c-1.996 0-3.62 1.617-3.62 3.606s1.623 3.605 3.62 3.605 3.62-1.617 3.62-3.605-1.624-3.606-3.62-3.606zm-155.812 37.1c-.384.382-1.004.382-1.388 0l-2.49-2.482-2.492 2.482c-.384.382-1.004.382-1.387 0s-.383-1 0-1.38l2.49-2.48-2.492-2.483c-.382-.38-.382-1 0-1.38s1.004-.382 1.388 0l2.492 2.48 2.49-2.48c.384-.38 1.004-.38 1.388 0s.382 1 0 1.38l-2.493 2.482 2.493 2.48c.382.38.382 1 0 1.38zm-45.61 110.583h-4.116a1.77 1.77 0 0 1-1.253-.517c-.32-.32-.52-.76-.52-1.248 0-.974.793-1.764 1.772-1.764h4.116a1.77 1.77 0 0 1 1.772 1.764 1.77 1.77 0 0 1-1.772 1.765zM76.626 31.614c-2.838 1.63-6.478.656-8.114-2.17a5.91 5.91 0 0 1 2.179-8.08c.935-.537 1.996-.81 3.07-.79a1.06 1.06 0 0 1 1.043 1.076 1.06 1.06 0 0 1-1.081 1.039c-.69-.013-1.37.163-1.97.508a3.8 3.8 0 0 0-1.4 5.192 3.83 3.83 0 0 0 5.213 1.394 3.8 3.8 0 0 0 1.4-5.192c-.293-.506-.12-1.152.39-1.444s1.158-.12 1.45.387c1.636 2.826.66 6.453-2.18 8.08zm-3.014 199.453a1.77 1.77 0 0 1-1.772 1.765h-4.116c-.49 0-.932-.198-1.253-.517s-.52-.76-.52-1.248a1.77 1.77 0 0 1 1.772-1.764h4.116a1.77 1.77 0 0 1 1.772 1.764zM14.104 358.63h-2.806v2.794a.78.78 0 1 1-1.561 0v-2.794H6.93a.78.78 0 0 1-.782-.778.78.78 0 0 1 .782-.778h2.806v-2.794a.78.78 0 1 1 1.561 0v2.794h2.807a.78.78 0 0 1 .781.778.78.78 0 0 1-.781.778zM2.12 209.08c-1.17 0-2.12-.945-2.12-2.11s.95-2.112 2.12-2.112 2.12.945 2.12 2.112-.95 2.11-2.12 2.11zm73.743 12.116a1.77 1.77 0 0 1 1.772 1.765v4.1a1.77 1.77 0 0 1-1.772 1.765c-.49 0-.932-.198-1.253-.517s-.52-.76-.52-1.248v-4.1a1.77 1.77 0 0 1 1.772-1.765zm0 12.112a1.77 1.77 0 0 1 1.772 1.765v4.1a1.77 1.77 0 0 1-3.025 1.247 1.75 1.75 0 0 1-.519-1.247v-4.1a1.77 1.77 0 0 1 1.772-1.765zm257.51.432h2.143a.92.92 0 0 1 .923.918.92.92 0 0 1-.923.919h-2.143a.92.92 0 0 1-.922-.919.92.92 0 0 1 .922-.918zm2.482 2.67c.36-.36.944-.36 1.304 0s.36.94 0 1.3l-1.516 1.51c-.18.178-.416.27-.652.27s-.472-.09-.652-.27c-.36-.36-.36-.94 0-1.3l1.516-1.51z" class="B"/><path d="M216.056 373.03a1.83 1.83 0 0 1-1.824-1.71 1.83 1.83 0 0 1 1.704-1.95l6.528-.558c1.005-.102 1.905.626 2 1.632s-.625 1.907-1.63 2.012l-6.665.57-.123.005zm18.252-2.178a1.83 1.83 0 0 1-1.801-1.52 1.83 1.83 0 0 1 1.492-2.117l6.433-1.238a1.83 1.83 0 1 1 .759 3.584l-6.57 1.265c-.106.017-.21.026-.314.026zm-66.53-1.215c-.125 0-.252-.013-.38-.04l-6.518-1.505c-.98-.247-1.576-1.24-1.33-2.223a1.83 1.83 0 0 1 2.22-1.331l6.384 1.475a1.83 1.83 0 0 1 1.412 2.171 1.83 1.83 0 0 1-1.788 1.454zm84.456-2.865a1.83 1.83 0 0 1-1.76-1.333c-.275-.973.29-1.986 1.26-2.262l6.268-1.908a1.83 1.83 0 0 1 2.307 1.175c.312.962-.214 1.996-1.175 2.31l-6.4 1.95c-.167.047-.335.07-.5.07zm-102.22-1.877c-.187 0-.377-.03-.564-.1l-6.343-2.19c-.948-.348-1.436-1.4-1.088-2.35a1.83 1.83 0 0 1 2.348-1.09l6.21 2.146a1.83 1.83 0 0 1-.564 3.575zm119.618-4.07a1.83 1.83 0 0 1-.682-3.532l6.015-2.55a1.83 1.83 0 0 1 2.418.926c.41.924-.003 2.007-.926 2.42l-6.143 2.605c-.224.1-.455.132-.682.132zm-136.817-2.53a1.8 1.8 0 0 1-.743-.16l-6.07-2.845c-.908-.447-1.28-1.544-.836-2.453a1.83 1.83 0 0 1 2.45-.836l5.946 2.788c.923.41 1.338 1.494.927 2.418a1.83 1.83 0 0 1-1.673 1.088zm-16.4-8.373a1.82 1.82 0 0 1-.914-.246l-5.735-3.466a1.83 1.83 0 1 1 1.95-3.101l5.616 3.395c.876.506 1.175 1.627.67 2.503a1.83 1.83 0 0 1-1.586.915zm-15.425-10.04a1.83 1.83 0 0 1-1.075-.35l-5.34-4.043c-.794-.626-.932-1.778-.308-2.573a1.83 1.83 0 0 1 2.57-.308l5.23 3.96c.816.595.998 1.74.403 2.56-.358.493-.916.755-1.48.755zm-14.3-11.592c-.436 0-.874-.156-1.224-.47l-4.887-4.574c-.725-.705-.743-1.865-.04-2.59a1.83 1.83 0 0 1 2.588-.038l4.787 4.48c.75.678.812 1.836.135 2.588a1.83 1.83 0 0 1-1.361.606zm243.512-8.187a1.82 1.82 0 0 1-1.275-.519c-.725-.705-.74-1.865-.036-2.6l4.477-4.8a1.83 1.83 0 0 1 2.585-.135c.75.678.81 1.836.134 2.588l-4.572 4.9c-.36.37-.835.556-1.313.556zm-256.516-4.824a1.82 1.82 0 0 1-1.359-.606l-4.384-5.055a1.83 1.83 0 1 1 2.808-2.349l4.294 4.95c.677.75.616 1.9-.134 2.588a1.82 1.82 0 0 1-1.225.471zm268.626-9.03c-.395 0-.795-.13-1.13-.393-.795-.626-.93-1.777-.306-2.572l3.958-5.234a1.83 1.83 0 0 1 2.556-.402c.818.595.997 1.74.402 2.56l-4.04 5.343a1.83 1.83 0 0 1-1.44.699zm-305.186-54.2a1.83 1.83 0 0 1-1.74-1.265l-1.95-6.407c-.276-.973.29-1.986 1.26-2.263a1.83 1.83 0 0 1 2.26 1.262l1.91 6.273a1.83 1.83 0 0 1-1.174 2.309 1.8 1.8 0 0 1-.567.091zM374.6 240.573a1.82 1.82 0 0 1-.448-.056c-.98-.246-1.575-1.24-1.33-2.223l1.477-6.4a1.83 1.83 0 1 1 3.581.758l-1.508 6.525c-.21.83-.955 1.386-1.773 1.386zm-342.215-6.29a1.83 1.83 0 0 1-1.788-1.451l-1.266-6.577a1.83 1.83 0 0 1 1.49-2.117 1.83 1.83 0 0 1 2.115 1.491l1.24 6.44c.2 1-.42 1.962-1.41 2.173-.128.027-.257.04-.382.04zm345.753-11.768c-.086 0-.173-.005-.26-.018-1-.142-1.697-1.07-1.555-2.072l.8-6.5a1.83 1.83 0 0 1 2.01-1.633c1.005.105 1.735 1.005 1.63 2.012l-.816 6.647a1.83 1.83 0 0 1-1.809 1.574zm-348.624-6.41a1.83 1.83 0 0 1-1.818-1.641l-.573-6.672a1.83 1.83 0 1 1 3.652-.245l.56 6.535c.106 1.006-.624 1.907-1.63 2.013-.065.007-.13.01-.192.01zm350.255-11.92c-.022 0-.045 0-.07-.001a1.83 1.83 0 0 1-1.76-1.898l.12-6.9a1.83 1.83 0 0 1 1.828-1.835c1.01 0 1.83.82 1.832 1.83v.337l-.123 6.694a1.83 1.83 0 0 1-1.828 1.764zm-351.22-6.458a1.83 1.83 0 0 1-1.83-1.832v-.168l.118-6.525c.036-1.01.886-1.808 1.895-1.764a1.83 1.83 0 0 1 1.762 1.897l-.115 6.392v.168a1.83 1.83 0 0 1-1.83 1.832zm350.928-12.277a1.83 1.83 0 0 1-1.823-1.708l-.567-6.534c-.106-1.006.622-1.91 1.627-2.015a1.83 1.83 0 0 1 2.013 1.629l.578 6.67a1.83 1.83 0 0 1-1.701 1.952 1.35 1.35 0 0 1-.127.005zm-2.2-18.27a1.83 1.83 0 0 1-1.801-1.518l-1.245-6.44c-.21-.99.42-1.963 1.407-2.174a1.83 1.83 0 0 1 2.172 1.409l1.272 6.575c.173.997-.493 1.946-1.49 2.12a1.88 1.88 0 0 1-.316.027zm-4.1-17.938c-.797 0-1.53-.526-1.76-1.33l-1.915-6.272a1.83 1.83 0 0 1 1.171-2.31 1.83 1.83 0 0 1 2.307 1.172l1.957 6.406a1.83 1.83 0 0 1-1.258 2.263c-.167.05-.337.072-.502.072zm-5.965-17.408a1.83 1.83 0 0 1-1.697-1.148l-2.558-6.018c-.413-.924-.001-2.007.922-2.42s2.006 0 2.418.923l2.61 6.146a1.83 1.83 0 0 1-1.013 2.384 1.81 1.81 0 0 1-.683.134zM51.974 109.74a1.82 1.82 0 0 1-.913-.246c-.875-.505-1.175-1.626-.67-2.502l3.46-5.744a1.83 1.83 0 0 1 2.523-.574c.856.538 1.112 1.67.575 2.525l-3.388 5.625a1.83 1.83 0 0 1-1.587.916zm10.024-15.447c-.374 0-.75-.115-1.075-.35-.818-.594-.998-1.74-.404-2.56l4.037-5.347a1.83 1.83 0 0 1 2.569-.308c.795.625.933 1.776.31 2.572L63.48 93.54a1.83 1.83 0 0 1-1.481.755zM73.57 79.982c-.437 0-.874-.156-1.224-.47-.752-.677-.813-1.835-.136-2.588l4.567-4.895a1.83 1.83 0 0 1 2.587-.04c.726.704.744 1.864.04 2.59l-4.473 4.794a1.83 1.83 0 0 1-1.361.607zm252.866-8.74c-.458 0-.918-.172-1.273-.516l-4.79-4.476c-.752-.675-.813-1.834-.138-2.587a1.83 1.83 0 0 1 2.584-.138l4.892 4.57c.725.704.744 1.864.04 2.59-.36.37-.836.557-1.315.557zM86.562 66.957c-.5 0-.998-.203-1.36-.604-.678-.75-.618-1.9.132-2.588l5.047-4.4a1.83 1.83 0 0 1 2.578.229c.648.776.545 1.932-.23 2.58l-4.944 4.3a1.82 1.82 0 0 1-1.225.472zm226.02-7.82a1.82 1.82 0 0 1-1.128-.391L306.22 54.8c-.818-.594-1-1.74-.406-2.56a1.83 1.83 0 0 1 2.555-.406l5.343 4.038c.795.625.934 1.776.3 2.572-.36.46-.898.7-1.44.7zm-211.752-3.778c-.564 0-1.12-.26-1.48-.752-.596-.817-.416-1.964.4-2.56l5.472-3.84a1.83 1.83 0 1 1 2.044 3.039l-5.36 3.76c-.326.237-.702.352-1.077.352zm196.71-6.82c-.334 0-.67-.09-.973-.28l-5.62-3.39a1.83 1.83 0 0 1-.671-2.502c.504-.877 1.624-1.178 2.5-.67l5.74 3.46c.855.538 1.113 1.67.576 2.526a1.83 1.83 0 0 1-1.551.857zm-50.6-21.606c-.147 0-.297-.018-.445-.055l-6.386-1.47a1.83 1.83 0 1 1 .753-3.586l6.52 1.5c.982.245 1.577 1.24 1.333 2.22-.208.832-.955 1.388-1.774 1.388zm-79.492-1.38a1.83 1.83 0 0 1-1.788-1.451c-.2-.99.42-1.962 1.41-2.173l6.568-1.27a1.83 1.83 0 0 1 2.117 1.492c.172.997-.494 1.945-1.5 2.12l-6.433 1.244a1.89 1.89 0 0 1-.383.041zm61.448-2.136c-.085 0-.17-.006-.256-.02l-6.504-.8a1.83 1.83 0 1 1 .372-3.645l6.64.808a1.83 1.83 0 0 1 1.558 2.068c-.13.915-.912 1.578-1.81 1.578zM185.6 22.67a1.83 1.83 0 0 1-1.818-1.64c-.106-1.006.623-1.907 1.628-2.014l6.664-.577c1.014-.068 1.88.695 1.95 1.705a1.83 1.83 0 0 1-1.702 1.951l-6.528.565c-.065.007-.13.01-.193.01zm24.98-.862c-.022 0-.044 0-.067-.001l-6.303-.113-.247.001a1.83 1.83 0 0 1-.008-3.664h.255l6.433.116a1.83 1.83 0 0 1 1.765 1.896 1.83 1.83 0 0 1-1.828 1.766z" fill="#f0f0f0"/><path d="M348.208 398.928c-7.822 8.256-22.97 6.044-22.97 6.044l-2.646.35s-2.793 1.482-8.38 2.246c-11.786 1.578-10.992-.9-11.295-7.322.152-10.138 2.95-11.467 2.95-11.467 4.802 7.568 10.418 2.8 13.228-1.503s4.37-1.285 9.824 2.7c2.9 1.466 5.772 2.685 8.645 2.9 5.052.362 9.575-1.095 10.432-.45 3.396 2.795 1.256 4.52.2 6.502zM158.52 324.4c-.323 2.638 3.85 6.962 5.425 9.287 2.9 4.263-.524 4.5-6.36 7.92-2.498 2.083-4.75 4.223-6.067 6.77-2.316 4.477-2.743 9.184-3.676 9.715-3.918 2-4.675-.625-6.098-2.358-4.573-10.392 3.416-23.374 3.416-23.374l.716-2.557s-.66-1.62.822-7.03c3.472-9.105 6.664-11 11.592-8.968 9.322 4.116 9.083 6.262 9.083 6.262-3.648-.73-8.4.636-8.853 4.332zm71.787 62.522l-5.114 2.5c-9.956 4.484-15.167 4.175-18.9 3.166-3.82-1-6.308 2.16-6.308 2.16l-9.237.47c-9.574.7-8.47-5.025-8.47-5.025-.304-12.9 1.86-13.864 1.86-13.864 5.446 5.077 6.142 6.056 8.572 5.844 2.107.187 3.17-3.2 5.582-8.525s5.857-1.647 5.857-1.647l11.798 8.296 13.577.337c3.4 2.9.793 6.295.793 6.295zM50.412 274.055c-1.312 1.65.2 4.5 3.36 9.44s-1.55 5.338-1.55 5.338L38.775 294.1l-7.722 11.106c-4.288 1.235-5.732-2.8-5.732-2.8l-.605-3.534c1.68-10.736 6.106-16.983 9.006-19.543 2.943-2.625 1.64-6.43 1.64-6.43l4.663-7.94c4.665-8.34 8.87-4.3 8.87-4.3 11.03 6.82 10.648 9.142 10.648 9.142-7.257 1.747-7.978 2.098-9.13 4.235zm79.696-62.095l1.78-7.866c1.6-5.374-.925-17.284-.962-17.44l-4.65-16.972c4.8-1.637 8.438-.874 8.476-.87.512.117 1.015-.198 1.133-.706a.94.94 0 0 0-.711-1.128c-.214-.047-5.232-1.133-11.535 1.717a1.38 1.38 0 0 0-.118.065c-2.94 1.87-7.793 3.893-12.447 5.553-4.837-2.704-8.395-12.737-9.277-15.427 5.2-3.2 9.543-5.153 12.616-6.525 1.442-.645 2.58-1.153 3.382-1.613.726-.367 1.665-1.096 2.95-2.107 2.765-2.162 6.94-5.43 11.744-6.92.583-.197 13.774-4.658 19-6.798 2.78 3.917 9.933 13.795 11.844 14.735 1.803.884 7.167 1.98 10.577.832 1.28-.432 2.177-1.132 2.652-2.092.744-1.5-.124-4.024-.978-6.488 2.082 1.537 5.4 3.723 10.136 6.7l.28.18c1.627 1.02 4.743 6.4 4.743 11.044 0 7.443-1.12 16.113-2.1 23.763l-.346 2.702c-1.945.758-4.28 1.2-5.958 1.364l3.216-9.84c.868-3.182.916-6.3.157-10.113-.1-.508-.598-.84-1.115-.738a.94.94 0 0 0-.745 1.106c.707 3.558.67 6.327-.128 9.252-.868 3.183-6.882 20.58-8.822 25.967-2.86 7.923-4.3 18.86-5.53 28.88-2.466 0-10.168-.118-18.436-1.43-9.476-1.5-18.754-3.935-22.44-11.48-.01-.02-.02-.034-.03-.048l1.66-7.264zm114.572 15.617c1.26-11.7-2.42-26.713-5.105-37.668l-1.195-4.95 5.095-1.317a.94.94 0 0 0 .679-1.138.93.93 0 0 0-1.128-.683l-14.54 3.848c-4.535-6.432-3.67-13.404-3.4-14.967l.9-.6c3.36-2.192 6.83-4.46 11.792-5.73.008-.002.014-.006.022-.008 6.68-1.984 10.67-3.365 14.58-6.1 1.703 3.612 8.646 18.25 10.846 21.48 1.6 2.362 6.044 3.4 9.657 3.563 1.564.075 6.825.135 8.8-2.245.444-.535.828-.997-2.612-9.688l-2.96-7.183 3.242 1.204c.062.022.124.04.188.047 4.502.662 7.806 4.737 8.924 6.8 1.358 2.507 5.123 7.93 8.293 12.478l-5.18 3.46c-1.443-4.094-2.443-6.512-3.05-7.366-.3-.42-.88-.52-1.3-.217a.94.94 0 0 0-.215 1.31c.308.434 1.133 2.055 3.202 8.03 2.593 7.488 1.904 12.152-2.465 15.464a14.42 14.42 0 0 1-.4.289c-1.296.762-4.94 1.072-7.282 1.04l-15.094-.464c-.5 0-.915.4-.93.9-.016.518.388.95.902.966l15.08.465.347.002c.908 0 2.8-.04 4.638-.327-1.4 7.834-2.886 11.907-4.325 15.84-1.282 3.508-2.496 6.822-3.62 12.493l-3.718 18.45c-14.085 1.04-22.392-2.937-26.888-6.474-4.084-3.215-5.845-6.644-6.323-7.7 1.697-3.743 4.003-9.367 4.53-13.313z" class="B C"/><path d="M404.07 410H266.4a.93.93 0 0 1-.932-.928.93.93 0 0 1 .932-.927h37.252c-1.112-1.77-1.1-4.886-1.057-8.347.054-5.933 1.047-9.14 2.95-9.53.018-.004.036-.003.055-.006-.058-.2-.1-.396-.103-.587-.057-1.647-.636-16.357-3.297-20.966-12.766-22.12-9.362-36.99-8.08-42.59.178-.778.318-1.392.34-1.713.285-3.3-4.873-6.066-10.333-8.994-1.824-.98-3.712-1.99-5.51-3.077-5.424-3.282-10.395-7.56-15.193-11.782-6.33 10.998-22.042 32.225-28.08 33.834-2.183.58-6.434-.042-10.546-.644-2.448-.358-4.77-.685-6.12-.686l-.545.002-18.388.223-.505 9.174c-.228 9.743.91 22.865 1.757 27.795.45-.288.912-.47 1.392-.52 1.687-.19 3.046 1.11 4.36 2.36.544.52 1.103 1.052 1.672 1.47 2.734 2.016 4.896 3.556 7.86 5.077 1.4.724 6.912.714 10.192.7 3.07-.01 3.83.01 4.257.205.904.412 1.608 1.34 1.985 2.6.47 1.61.344 3.43-.307 4.438-2.67 4.127-17.902 7.36-20.376 7.36h-.065c-1.08-.033-2.185-.232-3.256-.422-1.21-.213-2.362-.417-3.43-.395-1.114.03-1.817.576-2.706 1.27l-.117.087h85.002a.93.93 0 0 1 .931.928.93.93 0 0 1-.931.927h-92.19c-.93.057-1.91.1-2.888.1-.887 0-1.772-.03-2.628-.1h-79.29a.93.93 0 0 1-.932-.927.93.93 0 0 1 .932-.928h73.135c-1.44-1.764-1.377-5.682-1.334-8.544l.014-1.402c-.06-7.154 1.24-8.43 1.667-8.847.33-.325.708-.514 1.127-.565.815-3.25.164-7.026.154-7.067-.033-.195-3.325-19.133-5.296-27.707-.442-1.9-.974-3.663-1.486-5.356l-.268-.888c-4.85.31-9.118.707-12.106 1.222.006.024.008.048.012.072.307.542.52 1.165.422 1.83-.07.477-.337 1.165-1.214 1.73-.7.45-1.505.887-2.285 1.31-.793.43-1.614.873-2.31 1.327-3.402 2.215-6.867 4.712-8.577 8.712-.312.73-.615 1.8-.935 2.912-1.003 3.5-2.138 7.48-5.012 7.482a2.34 2.34 0 0 1-.145-.004c-1.7-.076-3.483-1.17-4.74-2.926-1.766-2.464-3.327-7.24-.738-16.002.736-2.495 1.97-6.67 3.977-9.285.806-1.05.705-1.87.55-3.1-.047-.377-.096-.767-.12-1.19-.208-3.657 2.648-10.52 5.657-13.597 2.1-2.137 5.328-2.27 9.626-.4 4.583 1.995 7.124 3.84 7.597 5.505 2.372-.107 5.484-.326 8.316-.726.22-3.943.974-8.728 2.54-14.858.215-1.448.043-2.824-.25-3.98l-.042-.135c-.023-.065-2.1-6.542-5.8-8.8-5.81-3.566-10.653-7.952-14.506-12.122-2.026 4.3-9.083 18.846-15.06 26.544-4.034 7.35-9.642 11.763-15.39 12.107-.02.005-.038.005-.056.005-3.26 0-7.658-1.735-12.72-5.013l-.13-.083-.098-.12c-2.72-3.46-22.625-13.35-40.29-20.918-8.855-3.793-13.86-4.563-17.49-4.637a3.03 3.03 0 0 1-.354 1.224c-.815 1.488-2.665 1.855-4.454 2.212-.74.143-1.504.297-2.176.52-3.233 1.076-5.748 1.957-8.706 3.51-1.407.736-4.55 5.24-6.433 7.93-1.755 2.514-2.207 3.125-2.618 3.367-.466.268-1.025.407-1.64.407-.517 0-1.07-.097-1.65-.29-1.598-.534-3.027-1.688-3.484-2.797-1.887-4.6 4.33-19.14 5.673-20.94.648-.862 1.444-1.656 2.218-2.42.875-.867 1.7-1.683 2.292-2.573.62-.927.573-1.818.512-2.944-.028-.57-.06-1.16 0-1.8.19-1.94 6.97-13.5 10.822-13.777 2.278-.158 5.487 2.137 7.82 3.82l1.15.816c5.935 4.062 6.242 5.856 6.34 6.445.028.158.032.307.028.455 3.64 1.395 19.384 7.27 31.848 9.056l4.467.81c7.743 1.364 13.337 2.347 21.065 7.967a88.14 88.14 0 0 1 3.354 2.583c.605-1.132 1.613-4.493 2.307-9.186 1.625-12.696 6.86-28.42 6.917-28.58.065-.204.186-.654.186-.654-4.9-4.892-7.192-10.382-7.155-16.753 0-5.087 1.44-10.225 2.753-14.227l4.076-18.13c1.28-4.248-.545-14.43-.955-16.258l-4.5-16.503c-3.126 1.98-8.143 4.067-12.903 5.755-.047.02-.09.036-.135.046-4.984 1.767-9.657 3.093-11.535 3.404-.41 1.214-.01 5.968.285 9.492.303 3.59.6 7.294.526 10.165-.317 4.743 4.59 18.176 7.27 21.2 2.8 2.007 4.287 3.686 6.07 6.85 1.337 2.37 4.45 6.704 4.482 6.75a.95.95 0 0 1 .158.705.93.93 0 0 1-.401.603c-1.378.923-2.748 1.257-4.07.988a4.72 4.72 0 0 1-.988-.31l1.133 2.095a1.07 1.07 0 0 1 .088.237c.12.547.15 1.6-1.038 2.495-1.892 1.428-6.62 1.92-10.002 1.92-1.687 0-3.032-.12-3.535-.312v.005c-5.44-2.132-4.687-15.214-4.566-16.865-.004-.213-.046-2.22-1.104-4.22a.59.59 0 0 0-.028-.051c-9.243-20.352-12.76-40.94-12.587-47.437.005-.23.098-.454.26-.62 13.663-14.153 25.555-19.486 31.942-22.347 1.383-.62 2.473-1.113 3.18-1.52.014-.01.033-.018.05-.028.546-.27 1.496-1.02 2.6-1.887 2.824-2.216 7.085-5.57 12.112-7.132.12-.04 14.744-5.012 19.187-6.937.145-.065.303-.083.452-.074 1.985-2.277 3.196-4.98 3.625-8.068-.28.087-.546.125-.788.125-.097 0-.19-.01-.28-.014-2.725-.288-5.17-4.62-7.198-8.815l-.19-.395c-3.292-6.704-3.437-11.555-.498-16.73 1.598-2.82 4.672-3.766 5.87-4.035 1.202-2.16 7.318-11.203 25.13-10.225 5.4.297 9.14 4.772 9.927 8.825.457 2.337-.13 4.275-1.58 5.374 1.956 3.145 2.403 5.807 2.558 7.587a6.91 6.91 0 0 0 .111.686c.13.72.298 1.6.042 2.412-.22.695-.717 1.08-1.086 1.358-.414.316-.544.436-.56.83-.022.733 1.058 2.5 1.925 3.918 1.038 1.698 2.017 3.303 2.212 4.558a.93.93 0 0 1-.437.933c-.863.524-2.442 1.136-3.322 1.46l.065.682c.075.83.172 1.855.16 2.718-.01.43-.173.908-1.035 1.257 0 .078-.01.157-.028.235-.586 2.487-.27 5.417-.15 6.07.07.4-.12.783-.47.978-1.45.783-3.13 1.113-4.86 1.113-2.19 0-4.462-.528-6.453-1.316a10.37 10.37 0 0 0-.323 4.318c.637.698 3.107 2.66 11.835 8.17l.28.176c2.222 1.406 5.52 7.257 5.52 12.46 0 7.46-1.108 16.072-2.087 23.672-.833 6.488-1.872 14.565-.982 15.58.93.965 3.93 2.818 7.422 4.65-.466-6.437-.643-12.1-.104-14.434.05-.643.466-3.692 4.042-5.488.822-.496 2.3-1.435 4.187-2.62l16.748-10.342c.97-.575 1.91-1.182 2.905-1.823 3.482-2.246 7.084-4.567 12.334-5.9 7.46-2.2 11.448-3.602 15.748-7.054 2.89-2.32 5.132-5.228 6.595-7.87-2.103-.24-4.134-1.363-5.915-3.3-3.5-3.788-5.783-10.442-5.43-15.823a18 18 0 0 1 .109-1.094c-1.214-.424-2.704-.902-3.126-1.038-.797-.066-1.4.09-1.83.493-1.46 1.37-1.288 5.42-1.122 9.338.172 4.092.35 8.323-1.16 10.91-3.88 6.646-9.07 7.74-12.062 7.74-1.443 0-2.374-.253-2.402-.262l-1.304-.374.82-1.077c3.28-4.312 3.27-10.135 3.26-16.3-.007-4.148-.014-8.44.915-12.726 1.223-5.64 4.71-9.565 9.102-10.247 3.41-.53 6.705 1.068 8.716 4.182l3.666.827c4.273-5.897 11.804-9.763 19.72-9.254 5.394.35 13.06 3.64 14.857 7.357.34.706.456 1.4.363 2.063 1.258 2.14 2.77 5.534 3.278 10.066l.043.387-.247.302c-.83 1.013-1.055 1.647-1.083 1.862l.076.187c.554 1.39 1.708 4.285 3.83 6.478l.25.258.01.36c.04 1.38-1.103 2.585-2.728 3.01.096.41.26.788.412 1.137.276.632.588 1.35.114 1.987-.344.465-.853.89-1.318 1.22.37.418.434.718.39 1.028-.053.356-.298.656-.64.783-.146.07-.495.373-.626.554.064 1.278.053 4.59.053 4.735l-.003.74-.725.162a19.57 19.57 0 0 1-4.252.469c-2.535 0-4.802-.494-6.69-1.144-.93 1.344-3.104 4.985-1.9 8.168l4.866 1.785c5.17.798 8.838 5.175 10.196 7.65 1.352 2.464 5.282 8.04 8.485 12.578.14.07.268.173.362.312a.92.92 0 0 1 .144.405l3.775 5.432c.486.737 4.214 6.664 5.54 9.603 3.662-2.5 14.107-10.305 19.064-17.62 1.927-2.844 2.025-5.1 1.93-6.55-.376-5.795-.18-6.165-.01-6.492 2.01-3.824 6.612-9.448 6.807-9.686.177-.215.442-.34.72-.34s.545.125.722.34c.08.098 1.52 1.88 1.707 3.88.6-.426 1.144-.625 1.704-.552 3.116.413 6.288 4.483 7.81 8.29.634 1.586 1.51 4.477.26 6.017-1.348 1.657-3.206 3.167-5.005 4.628-2.072 1.683-4.03 3.273-4.984 4.88-5.323 8.96-24.442 28.812-27.046 31.014-.453.383-1.004.556-1.635.556-2.484 0-6.22-2.67-10.16-5.684l-1-.758c-4.953-3.687-7.247-5.793-8.282-7.104-.608.708-1.34 1.386-2.208 2.03a3.09 3.09 0 0 1-.351.258c-.47.33-.978.65-1.526.96-1.452 8.192-2.998 12.364-4.493 16.4-1.257 3.396-2.446 6.605-3.545 12.07l-6 29.37c3.5 3.155 6.347 6.087 7.38 7.178 20.088 17.788 36.476 36.47 36.93 40.37.537 2.528-1.552 11.924-2.066 14.166.08.922.587 6.47 2.225 20.847.487 6.36.788 12.262 1.055 17.472.45 8.796.845 16.51 1.886 19.067.128-.064.26-.12.403-.162.48-.14 1.238-.178 2.128.42.69.462 1.4 1.03 2.105 1.578.708.558 1.44 1.137 2.134 1.596 3.378 2.245 7.042 4.436 11.405 4.436.808 0 1.904-.14 3.066-.286 3.7-.466 7.9-.996 8.935 1.788.6 1.597.283 3.65-.845 5.49-1.584 2.583-5.385 5.886-14.498 6.953-2.593.304-6.934.812-10.138 0-1.175-.3-1.82.13-2.796.775l-.558.362h81.756a.93.93 0 0 1 .931.927.93.93 0 0 1-.931.928zm-153.397-93.903c4.417-5.84 8.663-12.1 11.327-16.8-2.258-1.99-4.404-3.87-6.486-5.547-.953-.533-9.498-5.36-15.75-10.416-1.572 2.423-4.316 8.967-6.746 14.76l-2.69 6.343c.825 3.053 4.222 6.23 9.396 8.754 4.97 2.426 9.538 3.286 10.948 2.905zm-26.88-107.394c.252-.073.574-.107.974-.153 1.984-.218 4.114-.65 4.896-2.79-3.964.153-7.234.556-9.73 1.192-1.062.274-2.348 1.03-3.587 1.757-1.426.84-2.897 1.707-4.24 1.966-.597.114-1.388.064-2.312-.107a76.02 76.02 0 0 0-.014 8.445c2.016.56 3.47.994 4.142 1.294 2.41 1.066 9.76 1.303 12.164 1.266 3.274-.05 5.97-8.023 5.96-11.014-.506-.352-3.093-.24-5.82-.124l-2.144.087c-.48.014-.88-.32-.954-.784s.213-.908.665-1.034zm-12.045.154c1.028-.2 2.36-.983 3.647-1.744 1.355-.798 2.752-1.618 4.07-1.957 2.884-.737 6.703-1.173 11.357-1.288a.94.94 0 0 1 .713.305c.182.2.265.473.233.742-.2 1.627-.85 2.76-1.673 3.552 1.687.014 2.665.2 3.27.77.353.338.544.793.544 1.313.014 3.074-2.822 12.802-7.793 12.877h-.158c-1.258 0-9.713-.056-12.797-1.43-.51-.224-1.685-.58-3.257-1.02a75.48 75.48 0 0 0 .674 5.804.9.9 0 0 1 .001.254c.45 2.465 1.344 2.932 3.526 4.05a46.9 46.9 0 0 1 2.232 1.2c3.138 1.818 5.38 3.84 8.235 9.312l.36.69-.618.474c-.735.562-2.126 1.055-3.53 1.055-.244 0-.487-.018-.727-.05.965 2.057.443 3.825-1.462 4.875-1.728.952-4.303 1.175-6.336 1.175a30.13 30.13 0 0 1-1.748-.052c-1.596-.095-5.38-.436-6.046-1.56-3.414-5.753-3.596-11.878-3.693-15.168-.022-.705-.04-1.315-.086-1.69l-1.647-14.295.008.95c-8.72-2.45-18.633-5.542-22.988-8.7-1.816 7.43-2.888 16.323-3.857 24.39l-.997 7.962c17.627 16.42 29.418 45.745 29.543 46.074l.018.046c.075.084.13.182.17.293 2.174 6.353 2.636 11.17 1.37 14.32-1.52 5.073-1.608 6.617-1.603 6.96l.047.08-.01.26c-.004.046-.042 1.148-.11 2.928 2.143-.412 4.398-.777 6.875-1.08 3.476-.425 6.817-.312 9.766-.21 3.754.128 6.996.24 8.05-.966 1.03-1.177 3.66-7.45 5.98-12.986 2.642-6.3 5.372-12.812 7.03-15.25-2.038-1.772-3.7-3.532-4.557-5.104-8.683-15.956-1.004-26.984 3.122-32.908l.39-.56c.415-.814 5.424-10.72 6.19-16.365 1.223-11.224-2.412-25.867-5.067-36.558l-1.19-4.866-8.193 2.178-4.077 1.41c-4.642 1.617-8.043 2.802-11.244 3.29-1.048 1.51-3.075 7.52-3.79 16.098.756.148 1.386.196 1.834.11zm-26.37 168.66c-.094-.11-.182-.222-.266-.324-.396.616-1.006 2.582-.964 7.34.004.417-.005.91-.014 1.442-.037 2.286-.093 6.112.923 7.355.532.655 2.417 1 4.685 1.162h5.91c2.187-.128 4-.382 4.55-.685.424-.237.815-.542 1.23-.867.978-.756 2.083-1.618 3.815-1.66 1.254-.028 2.548.204 3.796.422 1.054.2 2.04.366 2.982.394 2.367.05 16.704-3.232 18.824-6.506.313-.482.42-1.766.084-2.912-.2-.71-.54-1.22-.922-1.423-.415-.07-2.064-.066-3.526-.06-5.06.014-9.373-.046-11.05-.904l-1.234-.658-2.334 3.296a.94.94 0 0 1-.764.395.92.92 0 0 1-.536-.172c-.42-.296-.52-.872-.223-1.294l2.244-3.172a46.26 46.26 0 0 1-1.439-.913l-2.268 3.255a.93.93 0 0 1-1.296.232c-.423-.292-.525-.867-.237-1.29l2.268-3.255-1.5-1.076-2.334 3.292a.94.94 0 0 1-.764.395c-.186 0-.373-.056-.535-.172a.92.92 0 0 1-.224-1.29l2.38-3.36c-.405-.348-.792-.7-1.17-1.07-1.053-1.002-2.04-1.952-2.865-1.86-.722.084-1.468.988-1.96 1.734-.643.974-1.1 2.055-1.58 3.2-.867 2.055-1.76 4.182-3.824 5.657-3.853 2.76-8.065-2.43-9.862-4.646zm-5.143-43.046c.522 1.72 1.062 3.5 1.52 5.476 1.98 8.62 5.282 27.61 5.32 27.8s.8 4.687-.363 8.462c.037.047.074.093.117.144 2.42 2.986 5.19 5.834 7.327 4.308 1.635-1.173 2.4-2.967 3.2-4.873.495-1.174 1.006-2.384 1.743-3.502a13.26 13.26 0 0 1 .331-.463c-.904-3.896-2.292-18.488-2.03-29.446l.5-9.053L180.1 334l.142.47zm-20.738-18.575c-3.513-1.53-6.05-1.532-7.543-.007-2.624 2.684-5.31 9.068-5.133 12.2.02.362.065.72.108 1.068.165 1.32.35 2.812-.918 4.465-1.797 2.342-2.97 6.3-3.67 8.68-2.502 8.47-.78 12.66.467 14.402 1.094 1.525 2.427 2.11 3.31 2.15.013.001.027.001.04.001 1.486 0 2.54-3.687 3.24-6.134.336-1.178.654-2.292 1.013-3.13.364-.854.795-1.64 1.277-2.374l-1.35-1.556c-.337-.388-.294-.973.096-1.308s.978-.292 1.314.096l1.078 1.244a18.99 18.99 0 0 1 1.064-1.164l-1.24-1.437c-.335-.39-.29-.974.1-1.31s.978-.288 1.314.1l1.195 1.383a27.61 27.61 0 0 1 1.2-.969l-1.34-1.54c-.336-.387-.295-.973.095-1.31s.977-.293 1.314.095l1.44 1.656c.57-.394 1.142-.775 1.714-1.148.76-.495 1.616-.957 2.442-1.404.783-.423 1.522-.824 2.16-1.235.234-.15.363-.3.383-.442s-.025-.45-.443-1.02c-1.48-1.495-6.376-6.963-6.546-9.443-.13-1.888.454-3.536 1.687-4.767 1.342-1.34 3.362-2.062 5.4-1.952l1.066-.018c-.59-.755-2.4-2.158-6.344-3.874zm5.296 5.746c-.014 0-.023-.002-.033-.003s-.02.002-.032.001c-1.524-.102-3.074.44-4.044 1.4-.854.852-1.24 1.973-1.148 3.33.093 1.348 3.192 5.246 5.11 7.342.012-.003.024-.01.037-.01 10.588-2.153 40.906-2.47 53.45-2.507l.533-.002c1.503-.015 3.885.337 6.406.706 3.557.52 7.984 1.17 9.794.687 2.688-.716 8.532-7.094 14.35-14.594-2.833-.18-6.97-1.513-10.3-3.144-2.897-1.413-7.57-4.174-9.628-8.04-1.114 2.463-1.953 4.083-2.554 4.77-1.637 1.87-5.116 1.752-9.517 1.602-2.88-.1-6.146-.21-9.476.198-9.1 1.112-15.323 3.023-23.212 5.443l-3.236.988c-4.8 1.455-13.532 1.812-16.49 1.826zm13.255-2.975c.983-.18 1.904-.386 2.694-.626l3.23-.986c5.208-1.597 9.712-2.97 14.78-4.05l.122-3.26c-.103-.65.014-2.425 1.663-7.92l.027-.084c1.01-2.466.68-6.487-.936-11.676-3.983 4.313-15.787 8.95-19.234 10.24.256 1.233.37 2.647.14 4.132l-.018.092c-1.49 5.804-2.227 10.37-2.467 14.138zM54.784 264.76c-.345-.236-.745-.523-1.183-.84-1.816-1.308-4.83-3.478-6.475-3.478-.042 0-.084.005-.12.005-2.38.17-8.916 10.317-9.102 12.112-.047.487-.02.983.01 1.507.065 1.233.14 2.63-.82 4.067-.698 1.047-1.63 1.97-2.534 2.865-.754.752-1.472 1.46-2.036 2.212-1.416 1.897-6.93 15.516-5.445 19.133.218.528 1.216 1.358 2.357 1.74.704.237 1.318.26 1.7.065.298-.297 1.244-1.65 2.082-2.852 2.893-4.136 5.422-7.633 7.095-8.51.27-.143.535-.274.8-.408v-.004l-.564-2.25a.93.93 0 0 1 .676-1.126.94.94 0 0 1 1.132.676l.474 1.897a46.57 46.57 0 0 1 1.901-.798c-.005-.014-.01-.027-.014-.04l-.564-2.25c-.126-.497.177-.997.675-1.122a.93.93 0 0 1 1.132.676l.522 2.082 1.863-.644-.508-2.03a.93.93 0 0 1 .675-1.127c.503-.125 1.006.18 1.132.678l.48 1.923a35.27 35.27 0 0 1 1.565-.342c1.435-.283 2.786-.552 3.182-1.276.35-.635.03-1.766-.302-2.6-.433-1.085-1.062-2.078-1.733-3.13-1.197-1.888-2.44-3.844-2.47-6.376-.06-4.73 6.634-5.194 9.494-5.393l.43-.028c-.28-.677-1.55-2.305-5.507-5.013zm67.68 27.804l-.103-.083c-.018-.014-1.817-1.52-3.87-3.014-7.38-5.365-12.517-6.27-20.292-7.642l-4.45-.807c-13.807-1.975-31.565-8.894-32.924-9.432-.228.023-.503.04-.834.065-3.857.27-7.8.895-7.76 3.52.024 2.008 1.072 3.66 2.185 5.412.68 1.076 1.388 2.188 1.886 3.436a10.44 10.44 0 0 1 .358 1.085c3.83.065 9.093.793 18.433 4.795 14.482 6.2 37.173 16.94 40.918 21.35 5.91 3.807 9.54 4.623 11.552 4.633 4.328-.274 8.614-3.255 12.084-8.3l-1.537-.933c-4.84-2.907-13.743-8.25-15.647-14.083zm4.63-10.943c-.382 2.57-.917 5.138-1.476 7.063-.47 1.603-.908 2.666-1.388 3.29 1.672 5.176 10.532 10.494 14.84 13.08l1.59.966c.266-.436.53-.886.782-1.35l.084-.124c6.177-7.926 13.84-24.007 15.228-26.965-4-4.544-6.79-8.658-8.32-10.916-.54-.798-.97-1.428-1.16-1.646-1.327-1.512-6.83-6.668-10.55-9.145-1.02-.74-1.97-1.51-2.855-2.304-.605 1.85-5.263 16.28-6.774 28.05zm2.796-60.43c-.01.032-.01.064-.023.097-1.305 3.928-2.805 9.08-2.805 14.096-.04 7.364 3.568 13.745 10.733 18.975 3.81 2.537 9.508 7.874 10.882 9.442.27.3.657.88 1.304 1.83 3.005 4.443 10.994 16.25 23.608 23.992 2.358 1.448 4.085 4.192 5.185 6.418.154.255.67 1.16 1.122 2.467 5.45-2.054 16.998-6.988 18.97-10.466-4.123-10.21-17.88-37.922-34.564-49.63-.42-.298-.522-.877-.224-1.294a.93.93 0 0 1 1.295-.223c1.417.992 2.8 2.087 4.155 3.26l.872-7.08c-2.703-.01-10.18-.157-18.182-1.433-9.005-1.432-17.85-3.728-22.327-10.45zm-44.338-47.01c-.037 6.718 3.47 26.533 12.415 46.245 1.337 2.532 1.308 5.01 1.308 5.1-.004.018-.004.037-.004.05-.373 5.152.214 13.79 3.386 15.038.014.005.023.01.036.014 1.19.33 9.9.297 11.828-1.488.19-.177.23-.306.23-.403l-3.895-7.295c-.228-.436-.075-.978.355-1.23s.977-.12 1.248.292c1.555 2.356 2.94 3.626 4.23 3.887.587.115 1.188.037 1.83-.247-.992-1.404-2.958-4.247-3.992-6.074-1.69-2.996-2.95-4.4-5.61-6.31-.05-.037-.103-.08-.144-.126-3-3.236-8.18-17.295-7.82-22.6.08-2.73-.23-6.385-.527-9.918-.624-7.448-.74-10.346.485-11.255.134-.107.303-.167.48-.186 1.192-.097 5.226-1.2 9.824-2.768-4.463-3.598-7.537-11.866-8.567-14.945-5.078 3.307-10.9 7.84-17.096 14.218zm101.7-79.93c-.667-3.413-3.918-7.086-8.203-7.322-18.443-1.02-23.357 9.145-23.562 9.58a.94.94 0 0 1-.712.533c-.033.005-3.5.538-5.003 3.204-2.633 4.633-2.474 8.84.55 15.006l.196.404c3.018 6.246 4.774 7.674 5.716 7.772.134.01.493.05.987-.59.02-.024.037-.038.056-.056a21.98 21.98 0 0 0-.024-1.377v-.06c.014-1-.223-2.407-.474-3.9-.41-2.398-.83-4.874-.322-6.484.396-1.25 1.052-2.012 1.96-2.267 1.775-.496 3.732 1.21 5.45 2.718.703.612 1.574 1.372 1.96 1.502.148.046.414.116.54.028.55-.385.6-2.523.628-3.798.024-.96.048-1.87.196-2.55.685-3.163 8.2-5.514 15.834-7.656 1.328-.37 2.58-.72 2.893-.867 1.72-.802 1.504-2.94 1.332-3.82zm-12.312 48.462l-.47-1.406c-.004-.01-.012-.02-.016-.03-.018-.057-.03-.113-.05-.17-.176-.564-.32-1.087-.392-1.533-.005-.024-.005-.028-.01-.033v-.064c-.003-.038-.008-.07-.008-.108.003-.022.005-.042.007-.06-.328-2.32.114-4.268.458-5.33-.983-.507-1.85-1.067-2.534-1.64-3.028-2.528-4.994-5.56-6.177-9.534a.92.92 0 0 1 .629-1.15c.49-.15 1.01.13 1.156.62 1.076 3.613 2.855 6.358 5.59 8.644 2.744 2.29 8.935 4.335 12.9 2.676-.13-1.187-.238-3.316.112-5.352a12.93 12.93 0 0 0-1.006-.097.93.93 0 0 1-.885-.928.93.93 0 0 1 .889-.922c.82-.037 1.728-.172 2.17-.3-.02-.687-.088-1.47-.153-2.124-.113-1.215-.135-1.545.004-1.88a.94.94 0 0 1 .55-.505c.573-.2 1.998-.723 2.98-1.196-.345-.9-1.104-2.147-1.79-3.265-1.197-1.966-2.23-3.66-2.193-4.943s.79-1.864 1.29-2.244c.276-.21.4-.315.443-.44.11-.36 0-.974-.102-1.516-.056-.302-.107-.59-.13-.863-.144-1.618-.554-4.058-2.4-6.946-.536.163-1.267.37-2.268.65-3.835 1.076-14.018 3.927-14.52 6.26-.11.515-.13 1.336-.153 2.208-.05 2.137-.103 4.345-1.416 5.267-.42.293-1.137.565-2.204.214-.745-.247-1.564-.96-2.6-1.865-1.094-.955-2.916-2.546-3.722-2.328-.344.098-.578.69-.684 1.04-.373 1.183.027 3.538.377 5.62.266 1.558.512 3.032.503 4.2.27 5.222-1.178 9.655-4.31 13.197 4.57 6.437 9.67 13.09 10.724 13.634 1.546.76 6.242 1.64 8.962.723.774-.26 1.3-.64 1.533-1.126.4-.793-.5-3.358-1.086-5.055zm16.682 17.162c0-4.6-3.06-9.886-4.658-10.892l-.276-.177c-4.662-2.944-7.9-5.1-9.955-6.617.84 2.43 1.692 4.93.96 6.4-.465.946-1.346 1.637-2.604 2.064-3.35 1.13-8.617.05-10.387-.82-1.878-.927-8.903-10.67-11.632-14.533-5.124 2.11-18.08 6.51-18.652 6.706-4.72 1.47-8.82 4.693-11.534 6.825-1.263.997-2.184 1.716-2.897 2.078-.788.454-1.906.955-3.322 1.6-3.02 1.354-7.285 3.27-12.39 6.436.867 2.653 4.36 12.55 9.11 15.214 4.57-1.636 9.336-3.63 12.224-5.476a2.25 2.25 0 0 1 .116-.065c6.19-2.8 11.12-1.74 11.33-1.692a.93.93 0 0 1 .699 1.113c-.116.5-.61.81-1.114.695-.037-.004-3.61-.756-8.324.858l4.566 16.74c.036.154 2.515 11.9.945 17.2l-1.746 7.758-1.632 7.164a.46.46 0 0 1 .029.046c3.62 7.443 12.73 9.845 22.038 11.325 8.12 1.293 15.684 1.41 18.107 1.41 1.197-9.88 2.623-20.668 5.43-28.48 1.906-5.314 7.813-22.47 8.665-25.6.783-2.884.82-5.616.126-9.126-.098-.506.227-.992.73-1.1s.998.227 1.095.728c.746 3.76.7 6.835-.153 9.975-.368 1.35-1.653 5.253-3.158 9.705 1.648-.162 3.94-.598 5.85-1.345l.34-2.666c.973-7.544 2.073-16.096 2.073-23.436zm-2.554 40.533c-1.216-1.257-1.006-5.036-.116-12.367-2.273.75-4.718 1.103-6.242 1.192l-4.905 14.13c-.45 1.257-.862 2.606-1.244 4.01a1.31 1.31 0 0 1 .145.097c3.657 2.975 13.625 6.13 22.226 8.566l-.93-10.1c-4.183-2.14-7.87-4.42-8.933-5.53zm34.598-27.922c-6.36 3.782-12.586 7.714-16.706 10.315l-4.25 2.66-.065.037c-2.968 1.474-3.053 3.975-3.054 4l-.027.203c-1.52 6.127 2.925 41.06 2.97 41.413v.003c.057.462.076 1.08.1 1.865.1 3.1.26 8.848 3.362 14.155 1.383.75 9.902 1.574 12.202-.47.26-.233.876-.78.088-2.293l-.026-.054-2.142-4.872c-.206-.47.008-1.017.48-1.222s1.02.01 1.227.477l1.1 2.506c.273.373.7.613 1.283.707.793.127 1.654-.033 2.28-.27-2.447-4.487-4.348-6.17-7.09-7.76-.806-.466-1.518-.832-2.147-1.154-2.966-1.52-4.295-2.4-4.74-7.12-.003-.03 0-.058 0-.087-2.338-17.2 1.732-32.004 4.02-34.384l.226-.234.32-.044c3.125-.427 6.533-1.615 11.25-3.258l2.936-1.02c-3.713-5.505-3.855-11.173-3.597-14.105zm16.77-56.16c-2.83.438-6.305 2.983-7.57 8.804-.886 4.092-.88 8.28-.873 12.333.01 5.936.02 11.574-2.786 16.174 2.333.158 7.247-.398 11-6.828 1.237-2.12 1.07-6.075.91-9.9-.19-4.534-.372-8.815 1.706-10.765.642-.604 1.45-.938 2.4-1.004.15-1.398.614-3.986 2.054-5.485-1.624-2.508-4.154-3.75-6.85-3.33zm8.59 4.286c-1.266.79-1.8 3.33-1.947 4.808l2.27.755a22.15 22.15 0 0 1 .492-1.494c.38-1.127.864-2.215 1.45-3.255l.142-.27-2.407-.543zm36.402-2.203c-1.348-2.786-8.06-5.97-13.3-6.3-7.91-.52-15.407 3.72-19.05 9.93-.453.85-1.1 2.152-1.605 3.617-.358 1.165-.586 2.37-.667 3.606-.317 4.843 1.807 11.052 4.943 14.446 1.65 1.79 3.433 2.713 5.294 2.746.048.001.094.01.14.017.783-1.77 1.15-3.305 1.047-4.284-.07-.664-.265-1.654-.47-2.7-.205-1.04-.417-2.118-.55-3.072-.336-2.44-.756-5.48 2.234-6.787 2.39-1.047 5.87 1.936 6.968 2.963 1.882.245 3.688-.753 5.95-2.425 3.485-2.58 6.8-6.476 9.09-10.692.05-.09.113-.165.185-.232 0-.23-.056-.502-.21-.823zm-10.99 45.653c-2.283-4.016.093-8.538 1.396-10.513-2.444-1.083-3.93-2.26-4.063-2.368-.4-.323-.46-.907-.136-1.305s.912-.457 1.31-.135c.063.05 6.3 4.97 14.474 3.516l-.06-4.006c-.038-.583.37-1.147.828-1.57-.065-.053-.13-.104-.195-.153l-1.163-.878 1.29-.68c.434-.23 1.193-.714 1.63-1.167-.043-.11-.102-.242-.15-.352-.27-.618-.675-1.55-.65-2.666l.02-.85.853-.055c1.005-.065 1.678-.555 1.88-.99-2.17-2.407-3.37-5.415-3.895-6.734l-.183-.506c-.173-.97.52-2.164 1.228-3.087-.43-3.406-1.466-6.1-2.457-7.997-2.37 3.972-5.564 7.596-8.92 10.08-2.17 1.605-4.732 3.27-7.67 2.718l-.275-.052-.202-.197c-1.443-1.402-4.072-3.26-5.132-2.798-1.534.67-1.522 2.055-1.137 4.836.124.903.33 1.954.53 2.97.214 1.09.416 2.117.496 2.86.38 3.564-3.314 10.838-9.217 15.578l-.308.238c1.34 2.81 8.693 18.16 10.862 21.306.978 1.418 4.356 2.537 8.215 2.72 3.254.155 6.048-.397 7.12-1.382-.22-2.032-4.688-12.722-6.32-16.38zm26.647 46.56l1.02.773c1.57 1.2 3.717 2.845 5.698 4 2.97 1.73 3.682 1.247 3.753 1.187 2.568-2.173 21.413-21.732 26.648-30.545 1.125-1.892 3.207-3.582 5.41-5.373 1.725-1.402 3.508-2.85 4.734-4.358.363-.446.35-1.94-.54-4.165-1.31-3.27-4.032-6.834-6.325-7.137-.62.075-2.407 2.345-3.266 3.435l-.54.683-1.2 1.925c-.275.434-.85.562-1.285.29s-.565-.845-.3-1.278c1.11-1.75 2.856-4.557 3.12-5.114.415-.882-.012-2.072-.488-2.945-1.405 1.778-4.315 5.58-5.767 8.308-.044.28-.094 1.37.18 5.587.112 1.72.001 4.39-2.245 7.705-6.383 9.42-20.44 18.704-20.576 18.79-.15.095-.324.143-.498.143a.93.93 0 0 1-.923-.802c-.158-.973-3.777-7.206-5.7-10.133-.743-1.126-1.997-2.912-3.475-5.008l-5.623 3.712c1.473 4.405 2.306 9.104-.06 13.12.315.57 1.75 2.358 8.26 7.202zm-23.35 25.738c1.127-5.605 2.34-8.88 3.625-12.347 1.44-3.887 2.925-7.913 4.326-15.654-1.83.282-3.732.323-4.64.323-.14 0-.257-.001-.347-.002l-15.09-.46a.93.93 0 0 1-.903-.956.93.93 0 0 1 .931-.899h.03l15.072.46c2.344.03 5.99-.276 7.286-1.028.132-.09.262-.184.388-.277 4.384-3.283 5.073-7.892 2.48-15.293-2.07-5.905-2.895-7.507-3.205-7.936-.3-.417-.2-.996.217-1.294s1-.202 1.3.215c.606.844 1.607 3.233 3.05 7.28l5.183-3.42c-3.172-4.495-6.937-9.854-8.297-12.332-1.118-2.037-4.424-6.065-8.927-6.718a1.1 1.1 0 0 1-.188-.047l-3.244-1.2 2.96 7.1c3.442 8.59 3.058 9.045 2.613 9.574-1.977 2.353-7.24 2.293-8.805 2.22-3.615-.172-8.052-1.186-9.662-3.522-2.2-3.19-9.147-17.658-10.85-21.228-3.91 2.703-7.903 4.068-14.575 6.027-.02.004-.027.007-.034.01-4.964 1.256-8.438 3.497-11.8 5.663l-.9.584c-.27 1.545-1.134 8.435 3.402 14.792l14.547-3.803a.93.93 0 0 1 1.129.676c.124.498-.18 1-.68 1.124l-5.098 1.302 1.194 4.89c2.69 10.827 6.37 25.654 5.11 37.228-.528 3.9-2.836 9.458-4.534 13.158.48 1.053 2.24 4.442 6.327 7.62 4.498 3.495 12.81 7.426 26.9 6.397l3.72-18.234zm1.942 38.272c-.01-.01-.017-.018-.025-.027s-.023-.017-.033-.028c-1.4-1.478-6.386-6.632-11.782-10.9-.402-.318-.47-.903-.15-1.303s.905-.47 1.31-.15c1.006.797 1.997 1.623 2.955 2.45l1.678-8.194c-1.41.093-2.77.14-4.072.14-12.022 0-19.447-3.71-23.692-7.04-3.238-2.542-5.103-5.18-6.078-6.88l-.875 1.762-.062.104-.425.612c-4.17 5.99-11.153 16.014-3.016 30.968 3.136 5.76 19.098 14.903 20.912 15.93a.95.95 0 0 1 .245.138c.027.02.056.045.082.067 2.24 1.8 4.525 3.81 6.942 5.942l.16.14c.03.023.058.048.084.074 4.994 4.4 10.158 8.928 15.753 12.314a80.21 80.21 0 0 0 2.511 1.447l.728-1.217c3.72-6.233 9.7-16.252 17.688-16.32-5.643-5.924-12.668-12.795-20.837-20.027zm37.55 91.59l-1.05-17.39-2.252-21.155.033-.14c1.015-4.397 2.48-11.956 2.09-13.525l-.027-.184c-.067-1.328-4.94-7.864-13.538-17.083-7.864-1.878-14.234 8.783-18.053 15.182l-.697 1.162 1.28.69c6.276 3.366 11.696 6.272 11.307 10.768-.03.448-.176 1.092-.38 1.983-1.237 5.405-4.525 19.76 7.88 41.254 2.825 4.895 3.448 19.053 3.543 21.842.015.758 2.353 3.12 5.04 3.053 1.593-.03 4.287-.896 6.09-3.673-.002-.19.052-.38.17-.546.04-.066.128-.27.2-.436.18-.412.414-.942.728-1.446-1.383-2.37-1.76-8.565-2.364-20.354zm8.9 38.986c2.87.73 6.996.245 9.463-.044 8.81-1.03 12.004-4.25 13.123-6.077.982-1.6 1-3.05.7-3.874-.528-1.407-4.394-.92-6.955-.596-1.22.153-2.374.3-3.29.3a15.36 15.36 0 0 1-2.678-.235l-1.407 3.04a.93.93 0 0 1-.846.54c-.13 0-.263-.027-.39-.085-.468-.214-.672-.765-.457-1.23l1.252-2.705a18.77 18.77 0 0 1-1.504-.518l-1.336 2.89a.93.93 0 0 1-1.236.455c-.467-.214-.67-.765-.456-1.23l1.327-2.87c-.463-.226-.918-.466-1.365-.716l-1.396 3.02a.93.93 0 0 1-.846.539c-.13 0-.263-.027-.4-.085-.467-.214-.672-.765-.456-1.23l1.48-3.197c-.592-.368-1.174-.747-1.747-1.127-.756-.502-1.52-1.103-2.256-1.685-.698-.55-1.358-1.07-1.99-1.495-.234-.157-.425-.218-.567-.175-.186.054-.373.243-.548.485-1.9 5.6-6.448 7.188-8.914 7.233l-.105.001c-2.292 0-4.612-1.3-5.87-2.78-.13.162-.314.285-.536.33-.436.1-1.412 2.16-1.464 7.73-.033 3.705-.07 7.537 1.563 7.943 3.358.838 13.698-.332 14.77-.878.366-.19.714-.42 1.05-.64 1.082-.718 2.3-1.53 4.287-1.03zM40.47 394.492h14.098a.93.93 0 0 1 .932.928.93.93 0 0 1-.932.927H40.47a.93.93 0 0 1-.931-.927.93.93 0 0 1 .931-.928zm33.663 0h28.57a.93.93 0 0 1 .931.928.93.93 0 0 1-.931.927h-28.57a.93.93 0 0 1-.931-.927.93.93 0 0 1 .931-.928zm52.985 13.653h10.73a.93.93 0 0 1 .932.927.93.93 0 0 1-.932.928h-10.73a.93.93 0 0 1-.931-.928.93.93 0 0 1 .931-.927zm25.848 0h97.597a.93.93 0 0 1 .932.927.93.93 0 0 1-.932.928h-97.597a.93.93 0 0 1-.932-.928.93.93 0 0 1 .932-.927z" stroke="#171716" class="D"/><path d="M365.663 255.377l-5.348 5.317-.75-.537c-1.373-.816-2.787-.888-4.206-.174-.316.16-.486.116-.715-.12l-2.08-2.064c-.52-.496-1.24-.354-1.446.26-.134.395.02.703.3.978l2.067 2.074c.108.112.204.37.15.48-.9 1.776-.7 3.422.565 4.962.03.037.047.084.08.14l-5.334 5.303c-3.248-3.054-4.69-6.737-3.86-11.072.92-4.8 3.87-7.963 8.624-9.196 4.623-1.198 8.598.204 11.953 3.652zm-18.465 6.22c-.33-.324-.867-.32-1.2.008a.8.8 0 0 0 .008 1.18c.34.333.868.338 1.196.01.322-.32.32-.88-.005-1.2zm12.714-7.628c.338-.326.344-.845.013-1.185s-.85-.352-1.19-.026a.84.84 0 0 0-.022 1.189.87.87 0 0 0 1.2.022zm-10.968 1.375c-.344.324-.358.852-.034 1.193a.85.85 0 0 0 1.164.051c.357-.323.372-.887.033-1.237-.3-.31-.84-.312-1.163-.007zm-2.63 9.762a.82.82 0 0 0 .008 1.185c.334.33.857.33 1.195-.001.33-.324.33-.88 0-1.186-.348-.32-.884-.32-1.203.002zm15.62-10.865a.87.87 0 0 0-.021 1.196c.317.33.862.34 1.2.023.342-.323.35-.842.017-1.18s-.86-.355-1.195-.038zm-8.94.296a.87.87 0 0 0-.017-1.203c-.33-.33-.87-.317-1.194.027s-.302.865.05 1.188c.338.31.852.306 1.16-.012zm2.203-2.067a.84.84 0 0 0 .028 1.195c.324.296.868.29 1.175-.012.327-.324.32-.86-.013-1.195a.81.81 0 0 0-1.19.012zm-7.336 15.838c-.372.38-.385.817-.036 1.167.336.337.853.335 1.192-.004a.83.83 0 0 0-.007-1.189c-.33-.313-.83-.3-1.15.026zm-.97-10.096c-.342.34-.327.82.036 1.174.3.303.84.333 1.12.063.354-.34.37-.894.037-1.234a.84.84 0 0 0-1.192-.003z" class="B C"/><path d="M393.04 274.755l-24.7 24.556c-1.916 1.904-4.45 1.9-6.373-.013l-29.59-29.417c-1.738-1.728-1.98-3.888-.643-5.748.162-.225.36-.426.56-.622l24.77-24.627c1.842-1.83 4.424-1.82 6.268.012l29.695 29.524c1.925 1.915 1.93 4.434.016 6.335zm-.565-4.3c-.22-.394-.546-.743-.87-1.066l-29.37-29.205c-1.324-1.315-2.757-1.318-4.075-.01l-24.588 24.446c-1.337 1.327-1.334 2.752.007 4.084l18.713 18.605 10.978 10.908c.855.848 2.003 1.07 3 .553.343-.18.653-.443.93-.717l24.733-24.58c.865-.863 1.096-2.023.543-3.018zm-14.204 14.216l-11.16 11.092c-1.22 1.2-2.72 1.203-3.935-.007l-14.563-14.478c-1.39-1.38-1.39-2.776.001-4.16l22.14-22.012c1.338-1.33 2.77-1.325 4.113.01l14.528 14.444c1.312 1.304 1.3 2.745-.003 4.052l-11.123 11.058zm9.966-13.887l-14.632-14.546c-.576-.573-1-.577-1.567-.013l-22.35 22.218c-.55.548-.55.978-.003 1.524l14.667 14.58c.58.577 1.002.577 1.568.014l22.313-22.183c.597-.593.6-1.002.003-1.595zm-18.304 6.73c-.24-.198-.447-.437-.668-.657l-.625-.63c-.3-.37-.264-.856.056-1.154.307-.285.783-.314 1.124-.01.453.405.887.836 1.294 1.286.31.344.273.8-.027 1.11-.315.327-.78.362-1.154.054zm-3.696-3.655c-.075-.065-.143-.137-.213-.208l-3.348-3.33-2.89 2.868c-.426.416-.917.446-1.28.108-.37-.348-.352-.876.08-1.308l6.958-6.917c.44-.435.957-.463 1.315-.102s.32.862-.12 1.307l-2.86 2.848.7.697 2.844 2.836c.395.4.397.88.053 1.23s-.816.337-1.24-.03zm-4.61-12.06l-11.788 11.717c-.646.64-.93.657-1.653.097-4.62-3.583-6.384-10.108-4.187-15.487 3.35-8.197 13.19-11.07 20.476-5.922 1.052.743 1.916 1.76 2.814 2.7.475.497.4.866-.1 1.363l-5.56 5.53zm-6.145 3.673l3.53-3.5c-1.167-1.062-2.638-.962-3.715.21-.817.9-.74 2.438.184 3.3zm-1.82-13.7c-4.75 1.235-7.7 4.398-8.624 9.196-.834 4.333.607 8.013 3.85 11.064l5.334-5.303c-.03-.056-.05-.103-.08-.14-1.263-1.54-1.46-3.185-.56-4.96.055-.11-.042-.367-.148-.48-.675-.702-1.373-1.384-2.066-2.07-.277-.275-.43-.583-.298-.977.208-.613.926-.756 1.447-.26a76.08 76.08 0 0 1 2.075 2.061c.23.237.4.28.714.12 1.42-.714 2.833-.643 4.204.173.264.156.5.357.75.536l5.35-5.316c-3.352-3.446-7.324-4.845-11.946-3.645zm9.415 2.548c.332.338.323.857-.02 1.18-.337.317-.882.308-1.198-.022s-.302-.89.02-1.196c.335-.316.866-.3 1.196.038zm-4.416-.33a.84.84 0 0 1 .022-1.189c.342-.325.86-.314 1.2.026s.325.86-.013 1.185a.87.87 0 0 1-1.199-.022zm-3.486-.28a.84.84 0 0 1-.027-1.193.81.81 0 0 1 1.189-.014c.334.333.34.87.012 1.194a.88.88 0 0 1-1.174.013zm-3.39.885c-.35-.323-.372-.843-.05-1.187s.864-.357 1.194-.028a.87.87 0 0 1 .017 1.203c-.3.318-.824.323-1.162.012zm-2.922 1.99c-.324-.34-.31-.87.034-1.193.323-.304.864-.302 1.163.007.34.35.324.914-.034 1.236-.327.296-.854.272-1.163-.05zm.1 12.927c-.34.34-.856.34-1.192.005-.348-.348-.335-.787.037-1.167.32-.327.82-.34 1.148-.027a.83.83 0 0 1 .007 1.189zm-2.084-10.078c-.362-.354-.377-.835-.035-1.174a.84.84 0 0 1 1.192.003c.333.34.316.892-.037 1.233-.28.27-.8.24-1.12-.062zm.276 3.408c-.33.327-.857.322-1.197-.01a.8.8 0 0 1-.007-1.179c.332-.33.87-.332 1.2-.01a.87.87 0 0 1 .005 1.199zm.31 2.306c.33.306.33.862.001 1.186-.338.33-.862.332-1.195.002a.82.82 0 0 1-.007-1.185c.32-.322.854-.323 1.2-.003z" class="D"/><path d="M371.643 90.956L355.7 118.42c-.743 1.28-1.72 1.54-3.014.8l-27.9-16.017c-1.298-.745-1.572-1.716-.834-2.987L339.9 72.7c.705-1.212 1.716-1.482 2.936-.78l27.96 16.047c1.294.744 1.57 1.73.838 3zm-3.422-2.282l-24.68-14.166c-1.183-.678-2.222-.403-2.9.766L326.537 99.56c-.704 1.212-.435 2.218.786 2.92l24.68 14.165c1.216.697 2.25.426 2.945-.773l14.077-24.24c.72-1.24.446-2.243-.804-2.96zm-29.274 11.294c-.955.248-1.942.38-2.95.565l-.913-2.595c-.125-.495-.095-1.067.018-1.57.12-.53.707-.786 1.25-.688.52.093.77.425.79 1.05.03.925.693 1.314 1.53.9.587-.293 1.02-.24 1.37.17.38.446.43 1.02.004 1.464-.295.307-.694.598-1.098.703z" class="B C"/><path d="M373.276 91.907l-5.166 8.898.88.507c1.367.825 1.83 2.466 1.053 3.835l-2.88 4.963c-.836 1.4-2.495 1.827-3.95 1.02l-.8-.457-.326.507-4.784 8.237c-1.287 2.222-3.454 2.794-5.696 1.5l-5.052-2.9-.557-.3-1.74 2.996-1.152 1.972c-.82 1.34-2.493 1.78-3.88.988l-11.77-6.756c-1.413-.82-1.834-2.495-1.014-3.937l2.838-4.89-.598-.343-5.15-2.958c-2.035-1.177-2.65-3.38-1.494-5.374l16.06-27.65c1.24-2.125 3.408-2.682 5.583-1.438l5.647 3.24.325-.562 2.375-4.092c1.024-1.766 2.595-2.184 4.38-1.16l11.232 6.447c1.696.975 2.136 2.556 1.175 4.224l-2.646 4.58c-.018.03-.018.07-.04.172l.483.307 5.15 2.956c2.09 1.198 2.702 3.396 1.51 5.454zm-9.004 17.626c.475.207.918.105 1.18-.335l2.935-5.057c.216-.38.126-.8-.206-1.065-.292-.242-.66-.394-1.002-.59l-3.8 6.543.893.505zm-35.243 2.85l-.837 1.443c-.415.735-.287 1.173.47 1.61l11.283 6.476c.582.334 1.098.348 1.378-.054.398-.57.712-1.196 1.084-1.837l-.5-.28-4.857-2.786-3.822-2.203c-.492-.3-.63-.79-.393-1.246.25-.48.765-.647 1.298-.412.154.07.298.162.445.247l8.758 5.027.928-1.597-13.315-7.643-.913 1.572c.637.467 1.715.77 1.105 1.795-.59.996-1.37.2-2.123-.11zm37.27-33.453l.82-1.415c.457-.794.34-1.22-.477-1.7L355.3 69.322c-.46-.265-.953-.328-1.275.1-.416.555-.717 1.195-1.092 1.842l.72.415c.537.33.716.856.46 1.327-.262.483-.85.615-1.425.31l-.737-.42-.742 1.28c-.054.095-.09.2-.15.328l13.315 7.642.923-1.59-4.344-2.492-4.658-2.678c-.693-.403-.846-1.077-.386-1.578.336-.364.78-.385 1.385-.04l8.993 5.162zm4.414 9.112l-28.005-16.074c-1.222-.7-2.234-.432-2.94.78l-15.974 27.507c-.738 1.27-.462 2.243.837 2.99l27.958 16.043c1.295.743 2.274.485 3.018-.795l15.948-27.457c.73-1.26.455-2.246-.843-2.992zm-15.85 27.9c-.696 1.2-1.73 1.47-2.948.77l-24.72-14.2c-1.223-.702-1.493-1.71-.79-2.92l14.1-24.28c.68-1.17 1.72-1.444 2.904-.764l24.72 14.19c1.25.72 1.527 1.723.807 2.962L354.86 115.94zm-12.56-39.798L328 100.752l25.055 14.382 14.293-24.6-25.056-14.38zm9.73 22.616l-5.697 5.01c-.63.55-1.416.46-1.672-.22-.098-.256-.07-.586-.015-.865l2.313-11.506.113-.66-3.17 2.063c-.513.35-.97.364-1.5.043l-4.605-2.656c-.615-.355-.81-.893-.523-1.39s.847-.605 1.468-.25l3.772 2.176c.408.246.695.267 1.1-.01l4.113-2.7c.415-.274.827-.447 1.3-.134s.472.753.37 1.24l-2.222 10.783-.156.83 2.25-1.982 2.04-1.82c.702-.623.937-.644 1.74-.178l.634.37c.432.288.575.788.365 1.224-.205.423-.745.677-1.19.45-.385-.197-.575-.033-.82.182zm4.932.03l.88.502s.596.32.877.51c.433.288.56.86.31 1.278-.24.402-.785.592-1.226.366l-1.808-1.036c-.456-.286-.56-.825-.297-1.27s.772-.594 1.262-.35zm-5.055-12.787l-6.327-3.632c-.66-.38-.847-.898-.526-1.42.308-.502.836-.586 1.474-.22l6.33 3.632c.637.368.843.932.533 1.433-.303.487-.853.57-1.483.208zm-9.016-5.175a.95.95 0 0 1-.374-1.301c.26-.452.87-.6 1.32-.343.44.26.606.836.365 1.26a.98.98 0 0 1-1.31.383zm-4.254 14.554l.124.202c.824-.017 1.61.113 2.264.676a3.05 3.05 0 0 1 .154 4.589c-.602.588-1.318.967-2.15 1.124l-2.714.48c-1.097.178-1.92-.3-2.3-1.35l-.916-2.583c-.402-1.315-.337-2.585.607-3.667 1.406-1.612 3.85-1.34 4.93.528zm-1.62 1.4c-.02-.627-.27-.958-.792-1.052-.543-.098-1.13.155-1.25.687-.112.502-.143 1.074-.017 1.57.22.86.586 1.686.916 2.597l2.952-.563c.405-.105.805-.395 1.1-.702.425-.443.377-1.018-.006-1.465-.35-.41-.783-.463-1.37-.17-.836.415-1.5.025-1.53-.9z" class="D"/><path d="M291.503 24.03c-.367.346-.792.3-1.225-.135l-7.962-8.002c-.44-.444-.48-.85-.128-1.226.367-.4.84-.386 1.27.043l7.994 8.036c.423.426.432.924.052 1.283zm-6.993 7.024l-5.183 5.203c-.02.02-.056.028-.124.058l-9.26-9.308c.055-.074.094-.142.147-.195l5.008-5.035c.456-.456.836-.45 1.292.008l8.037 8.08c.405.408.45.817.083 1.19zm-9.906-2.918c-.332.31-.353.85-.046 1.185.297.324.853.332 1.178.016.33-.32.332-.845.003-1.176a.81.81 0 0 0-1.135-.024zm2.313-3.495c-.324-.337-.847-.345-1.17-.017-.305.31-.316.826-.025 1.15.3.335.844.352 1.175.037.343-.327.352-.826.02-1.172zm.02 5.845a.83.83 0 0 0-.045 1.177c.307.33.85.337 1.177.017.316-.31.332-.817.035-1.14-.32-.35-.825-.37-1.167-.053zm2.268-3.546a.78.78 0 0 0-1.125.034c-.317.353-.31.875.013 1.186a.83.83 0 0 0 1.174-.042c.306-.334.278-.86-.062-1.178zm2.387 2.394c-.32-.334-.826-.34-1.162-.015s-.355.847-.033 1.164.863.334 1.176.028a.84.84 0 0 0 .019-1.177zm-10.576 10.6a3.27 3.27 0 0 1-4.648-.033c-1.298-1.317-1.278-3.398.045-4.707 1.293-1.278 3.383-1.267 4.656.025 1.285 1.303 1.26 3.415-.053 4.716zm-3.798 8.51l-4.8 4.827c-.566.567-.946.563-1.518-.012l-7.794-7.835c-.575-.578-.58-.96-.02-1.526l4.73-4.756c.112-.112.236-.212.37-.334l9.286 9.335-.258.3zM257.02 44.64a.86.86 0 0 0-1.177-.018c-.316.31-.324.88-.016 1.184.316.3.862.312 1.18.002.334-.323.34-.836.013-1.168zm1.162 2.338c-.324.3-.328.86-.01 1.183a.83.83 0 0 0 1.141.021c.343-.32.36-.837.04-1.175a.81.81 0 0 0-1.171-.028zm2.292-3.557c-.327-.303-.828-.3-1.124.03-.313.337-.314.883-.003 1.182.32.306.838.283 1.17-.053.325-.328.306-.835-.044-1.158zm.034 5.922c-.334.33-.337.828-.008 1.164a.83.83 0 0 0 1.169.022c.315-.3.317-.856.003-1.178-.32-.328-.836-.332-1.164-.008zm2.336-3.535a.8.8 0 0 0-1.167.016.85.85 0 0 0-.007 1.148c.304.323.862.33 1.177.01a.82.82 0 0 0-.003-1.175z" class="B C"/><path d="M293.286 18.706c-.32.34-.83.335-1.2-.02l-.525-.527-1.17 1.175 1.483 1.494c.4.406.813.793 1.132 1.25.587.845.53 1.98-.06 2.78-.63.854-1.662 1.252-2.65.95-.373-.113-.58-.026-.83.234l-3.015 3.035c-.21.206-.267.374-.18.67.278.946.063 1.792-.64 2.5l-3.666 3.7-12.87 12.98-5.578 5.56c-1.143 1.14-2.587 1.14-3.72.001l-7.915-7.958c-1.132-1.14-1.134-2.597 0-3.74l16.468-16.603 4-3.974.503-.506-.955-.964c-.438-.47-.932-.91-1.277-1.442-.81-1.258-.61-2.913.437-3.984l4.15-4.17c1.325-1.313 3.307-1.322 4.656-.035a54.83 54.83 0 0 1 1.572 1.576c.182.19.337.266.623.176.965-.307 1.815-.058 2.528.643l2.263 2.27 1.168-1.174-.538-.542c-.333-.364-.343-.856-.034-1.183.318-.338.844-.343 1.21.022l4.607 4.63c.348.353.348.852.037 1.18zm-35.462 20.438l-4.73 4.754c-.56.566-.555.947.018 1.525l7.776 7.817c.572.573.95.577 1.516.01l4.798-4.825c.088-.088.164-.2.258-.3l-9.266-9.314-.37.334zm1.596-1.554l9.242 9.29 9.322-9.37-9.243-9.29-9.32 9.37zm10.67-10.773c-.054.054-.093.122-.148.195l9.24 9.288c.068-.03.103-.037.124-.058l5.18-5.2c.368-.373.323-.782-.082-1.2l-8.02-8.06c-.454-.457-.833-.463-1.29-.007l-5.006 5.033zm10.244-12.86l-1.667-1.68c-.674-.626-1.633-.63-2.272.001l-4.178 4.202a1.6 1.6 0 0 0-.024 2.206l1.804 1.822c.81-.685 1.67-.888 2.644-.563.11.036.31-.045.403-.14l3.252-3.27c.104-.106.12-.326.126-.495l.005-1.622c-.003-.157-.002-.363-.093-.46zm1.258 3.685l-3.438 3.454 6.935 6.97 3.436-3.454-6.933-6.97zm1.857-2.923c-.428-.428-.9-.432-1.267-.04-.35.374-.313.78.127 1.223l7.944 7.984c.432.434.856.48 1.223.134.38-.358.372-.856-.05-1.28l-7.977-8.02zm5.76 1.112l-1.132 1.14 1.1 1.116 1.132-1.14-1.1-1.116zm-13.48 12.327c.328.33.327.855-.004 1.175-.326.315-.88.308-1.177-.015-.306-.333-.284-.874.048-1.184a.81.81 0 0 1 1.133.024zm.01-3.53a.81.81 0 0 1 1.169.016.8.8 0 0 1-.021 1.17.83.83 0 0 1-1.173-.036c-.29-.324-.28-.84.025-1.15zm2.35 5.905c.297.322.28.83-.035 1.14-.327.32-.868.312-1.175-.016-.316-.336-.295-.86.046-1.176s.845-.296 1.164.052zm-.02-3.56a.78.78 0 0 1 1.123-.035c.34.32.367.843.06 1.177a.83.83 0 0 1-1.173.043c-.323-.31-.328-.832-.01-1.185zm3.505 2.354a.84.84 0 0 1-.02 1.176c-.314.307-.85.294-1.175-.027s-.306-.834.034-1.163.84-.32 1.16.014zm-9.376 11.734c-1.948 1.96-5.058 1.97-6.997.026s-1.933-5.072.014-7.03 5.068-1.97 7-.032 1.924 5.084-.016 7.037zm-1.14-5.847a3.29 3.29 0 0 0-4.649-.021c-1.324 1.31-1.345 3.386-.05 4.7 1.28 1.3 3.346 1.313 4.642.03 1.313-1.3 1.34-3.4.057-4.7zm-9.397 11.745a.85.85 0 0 1 .008-1.147c.324-.34.826-.35 1.164-.018a.82.82 0 0 1 .004 1.174.84.84 0 0 1-1.176-.01zm-.006 3.552c-.32.314-.846.306-1.166-.022-.328-.335-.324-.832.01-1.163.328-.323.843-.32 1.162.008.313.32.3.866-.005 1.177zm-2.312-5.888c-.31-.297-.31-.843.004-1.18.295-.318.796-.332 1.122-.03.35.323.368.828.043 1.156-.332.336-.85.36-1.17.054zm-.037 3.545c-.32.298-.832.29-1.14-.02-.318-.32-.313-.88.01-1.182a.81.81 0 0 1 1.17.028c.32.337.302.854-.04 1.173zm-3.48-2.37c-.308-.302-.3-.872.016-1.182s.865-.3 1.175.016a.81.81 0 0 1-.013 1.167c-.32.31-.863.31-1.178-.001z" class="D"/><path d="M155.658 49.435l-.922-1.587 1.612-.925.92 1.587-1.61.924zM146.6 44.18c-1.677-.037-3.083-1.327-3.183-2.99l2.2.395c.748.135 1.25-.12 1.378-.702.13-.593-.247-1.034-1.023-1.18l-2.103-.383c.34-1.16 2.053-1.994 3.487-1.72 1.74.334 2.89 1.874 2.692 3.606s-1.683 3-3.448 2.97zm1.325-15.554l-1.386-3.67c-2.08-4.707-5.132-8.69-9.216-11.872-.322-.252-.49-.503-.498-.918-.014-.588-.1-1.173-.154-1.76l.16-.072c6.376 4.43 10.63 10.372 12.915 17.8l-.99.292c-.287.077-.58.14-.83.198zm-9.102 30.46l-1.616.927-.916-1.578 1.616-.927.916 1.578zm-5.39-41.23L132.078 2.01c.102-.026.155-.043.21-.05 1.467-.2 1.73.005 1.853 1.445l1.11 12.763c.134 1.415-.328 1.764-1.807 1.7zm-17.7 11.856l3.164-.983 6.743-2.08c.783-.24 1.12-.07 1.443.722l-10.064 5.777-1.286-3.437zm9.19 5.447l-1.546 1.002-1.892-3.26 1.596-.916 1.842 3.172z" class="B C"/><path d="M157.8 45.73l.995 1.715c.63 1.09.33 2.168-.78 2.815l-1.522.872c-.986.54-2.068.263-2.64-.678l-.94-1.61-13.424 7.705.87 1.5c.617 1.088.332 2.14-.75 2.774l-1.572.9c-.972.53-2.076.24-2.645-.697l-1.077-1.827c-.018-.03-.052-.05-.108-.1-3.545.993-7.023.84-10.352-.8-2.3-1.132-4.078-2.826-5.27-5.077-3.05-5.764-.698-12.26 3.1-15.763l-2.095-3.607-1.528.876c-1.126.635-2.277.38-2.81-.76-.564-1.205-1.037-2.462-1.433-3.733-.33-1.067.21-1.994 1.294-2.335l10.218-3.128c1.66-.478 3.117.558 3.593 2.23.215.75-.156 1.55-.858 1.974-.92.557-1.86 1.08-2.793 1.617l-.635.364 1.856 3.17c.056.09.287.15.408.12l13.166-3.5 5.83-1.558c-1.572-5.488-4.615-9.978-8.902-13.846l.1 1.288c.094 1.614-.998 2.907-2.625 3.1-.542.064-1.087.106-1.63.155-.97.087-1.307-.2-1.4-1.146l-1.5-17.39c-.053-.74.267-1.11 1.024-1.19L132.7.01c1.663-.118 2.98.955 3.144 2.6l.414 4.778a.9.9 0 0 0 .513.823c3.762 2.154 6.758 5.13 9.31 8.57 2.352 3.164 4.137 6.618 5.248 10.405l.214.747c.004.016.025.026.034.037 4.394.243 7.825 2.043 9.39 6.24 1.656 4.437.128 8.232-3.18 11.534zm-22.677-29.544l-1.107-12.764c-.124-1.44-.387-1.645-1.853-1.444-.055.008-.107.026-.2.05l1.364 15.846c1.478.075 1.94-.274 1.806-1.69zm20.41 33.265l1.61-.925-.92-1.587-1.612.925.922 1.587zM137.09 60.03l1.616-.927-.916-1.578-1.616.927.916 1.578zm-10.134-32.64c-.32-.792-.66-.962-1.442-.722l-9.908 3.062 1.285 3.437 10.065-5.777zm-4.004 4.614l-1.595.916 1.892 3.26 1.546-1.002-1.843-3.172zm13.766-21.652l-.16.072c.055.587.14 1.17.153 1.76.01.415.176.665.5.918 4.084 3.182 7.134 7.165 9.216 11.872.523 1.184.92 2.424 1.386 3.668l.83-.198c.304-.082.603-.177.99-.292-2.282-7.428-6.538-13.37-12.914-17.8zm21.054 22.3c-2.104-2.398-4.9-3.25-8.014-2.464l-19.117 5.06c-1.846.48-3.665.917-5.33 1.943-3.105 1.916-5.102 4.57-5.935 8.07-.987 4.15.653 8.377 4.276 10.623 4.147 2.57 8.45 2.442 12.706.118 3.096-1.692 6.127-3.5 9.187-5.258l9.33-5.353c1.775-1.015 3.133-2.42 3.952-4.273 1.34-3.028 1.16-5.945-1.055-8.466zm-8.62 12.8c-3.418 1.89-7.54-.288-7.854-4.144-.03-.36-.13-.507-.5-.564-1.022-.156-2.034-.372-3.056-.528a1.31 1.31 0 0 0-.735.129c-.604.31-1.178.674-1.774 1-.57.313-1.08.198-1.368-.287-.28-.475-.14-1.018.398-1.342.8-.477 1.584-.955 2.41-1.368.275-.138.66-.145.974-.096 1.32.208 2.628.46 3.8.67.673-.775 1.178-1.538 1.852-2.1 1.655-1.378 3.557-1.59 5.497-.743 1.97.86 3.044 2.44 3.108 4.572.062 2.102-.864 3.755-2.753 4.8zm-1.912-7.835c-1.434-.275-3.148.56-3.488 1.72l2.103.383c.775.145 1.155.586 1.023 1.18-.128.582-.63.836-1.377.702l-2.2-.395c.1 1.66 1.505 2.95 3.183 2.99 1.765.04 3.25-1.24 3.448-2.97s-.95-3.273-2.692-3.606zm-21.27 3.835c-1.137.98-1.976 2.16-2.494 3.553-.697 1.877-.657 3.722.234 5.525.345.697.215 1.2-.348 1.472-.526.255-1.04.034-1.4-.593-1.62-3.41-1.078-6.615 1.085-9.636.465-.648 1.065-1.2 1.645-1.77.472-.455 1.072-.435 1.454-.03.394.417.332 1.033-.186 1.478z" class="D"/><path d="M68.594 149.316l-7.334-7.692 5.498-.03c.103-.001.24.032.304.102.895.95 1.976 1.753 2.383 3.082.502 1.64.22 3.125-.852 4.54zM58.87 139.13l-2.96-3.122 5.297-.03a.53.53 0 0 1 .346.13l3.552 3.588c-1.683.012-3.242-.006-4.8.046a1.66 1.66 0 0 1-1.437-.611zm-4.305-5.02c-.206-.002-.477-.04-.606-.17l-3.39-3.537 1.76-.01 3.187-.013c.203.002.46.067.596.2l3.163 3.197c.06.062.1.147.206.305l-1.338.015-3.578.014zm-5.977-5.8l-2.552-2.66.48-.05 4.14-.036a1.11 1.11 0 0 1 .922.385l2.47 2.53-5.09.024c-.127 0-.28-.096-.372-.192zm-4.543-4.758l-2.14-2.245 3.248-1.864 4.18 4.24-4.895.022c-.133 0-.303-.06-.393-.152zm-15.123.776c-1.015.593-.23 1.35.056 2.04l-1.61.923c-.457-.573-.724-1.673-1.77-1.056-.998.59-.248 1.35.05 2.044l-13.22 7.588-1.91-3.31c-.244-.445-.1-.87.338-1.162.26-.176.542-.317.877-.508l.873 1.5c.342.575.85.75 1.354.478.52-.282.64-.838.3-1.437l-.85-1.466 1.653-.95.868 1.5c.34.565.864.733 1.363.448s.615-.816.292-1.393l-.795-1.4c-.016-.03-.007-.07-.012-.137l1.592-.913.828 1.423c.378.638.908.82 1.434.502.503-.304.585-.818.224-1.45l-.822-1.42 11.624-6.672.865 1.484c.346.576.855.743 1.354.456s.62-.817.305-1.4l-.815-1.452c-.007-.013.006-.035.017-.09l1.583-.91.855 1.47c.353.597.883.772 1.395.465.49-.29.595-.825.267-1.405l-.853-1.47 1.655-.95.83 1.43c.362.613.87.8 1.386.512s.625-.83.282-1.44l-.794-1.402c-.008-.013.003-.035.015-.13l.818-.463c.445-.21.89-.134 1.14.272l1.946 3.325-13.217 7.586c-.46-.575-.737-1.658-1.776-1.053zM13.608 137.5l2.88-1.643.893 3.007c.04.14-.002.335-.077.466l-2.406 4.095-.158-.37-1.387-4.894c-.094-.32-.055-.492.256-.662zm4.59 4.083l1.084 3.644c.03.096.027.232-.022.316l-2.587 4.4-1.05-3.73c-.03-.1.005-.265.065-.368l2.51-4.262zm1.892 6.326l1.393 4.685a.59.59 0 0 1-.044.417l-2.578 4.384c-.094-.163-.175-.255-.205-.36l-1.174-4.217c-.044-.16-.048-.383.03-.52l2.576-4.387zm2.212 7.415l1.405 4.698c.037.125.007.302-.06.417l-2.73 4.637-1.335-4.812c-.03-.112-.027-.268.03-.365l2.692-4.575zm2.105 7.605c.017-.03.056-.044.138-.107l2.996 10.025c-2.336.456-4.593-1.01-5.39-3.277-.47-1.34-.456-2.466.444-3.642.706-.923 1.213-1.994 1.8-3z" class="B C"/><path d="M69.767 150.813c-.423.45-.926.86-1.46 1.17l-13.824 7.946c-1.158.664-2.287.575-3.344-.222l-6.252-4.737-.657-.477.128 1.11.933 7.2c.21 1.623-.253 2.55-1.673 3.366l-14.282 8.16c-1.054.586-2.336.624-3.55.41-2.74-.48-4.646-2.014-5.4-4.678l-8.968-31.678c-.2-.61-.456-1.208-.76-1.773l-1.666-2.888c-.9-1.574-.47-3.173 1.116-4.085l29.455-16.904c1.72-.986 3.35-.602 4.25 1.136 1.3 2.525 3.08 4.657 5.086 6.67l20.785 21.097c2.535 2.582 2.575 6.532.094 9.177zm-40.4 21.35l.596-.342 12.72-7.29c.61-.347.8-.778.718-1.457l-1.053-8.08c-.12-.907.082-1.664.888-2.172.715-.452 1.537-.332 2.38.305l6.557 4.98c.51.393.97.42 1.535.095l12.807-7.363.487-.31-26.88-28.214-8.44 4.845 1.8 3.09c.378.64.76.743 1.45.43 1.56-.713 3.06-.244 3.933 1.234l1.006 1.73 2.646 4.57c.412.724.042 1.493-.713 1.534-.468.024-.746-.242-.967-.625l-3.6-6.2c-.41-.7-.835-.83-1.53-.506-1.522.708-3 .274-3.85-1.157l-1.54-2.64-.32-.49-1.637.94 1.822 3.144c.82 1.46.465 2.934-.91 3.894-.615.43-.724.873-.356 1.523l3.702 6.398c.284.497.123 1.042-.33 1.304-.43.248-.96.12-1.285-.314-.077-.103-.137-.22-.203-.332l-3.516-6.056c-.897-1.555-.566-3.02.907-4.082.55-.397.66-.8.33-1.386l-1.702-2.93c-.042-.073-.12-.126-.194-.204l-7.935 4.543c-.377.213-.455.398-.327.822l11.012 36.768zm-7.2-2.62c.796 2.27 3.053 3.734 5.386 3.28L24.554 162.8c-.083.062-.122.078-.138.106-.597 1.004-1.103 2.075-1.807 2.998-.898 1.175-.912 2.3-.443 3.64zm-2.572-9.302l1.336 4.81 2.726-4.635c.067-.114.096-.292.06-.417l-1.406-4.696-2.687 4.572c-.056.097-.06.253-.03.365zm-2.1-7.445l1.174 4.216c.03.106.11.197.206.36l2.573-4.38a.59.59 0 0 0 .044-.417l-1.394-4.684-2.572 4.385c-.078.137-.074.36-.03.52zm-1.863-6.603l1.05 3.73 2.583-4.397c.048-.083.05-.22.022-.316l-1.085-3.643-2.507 4.26c-.06.103-.095.257-.064.367zm-2.272-8.048l1.386 4.893c.03.105.087.203.16.368l2.402-4.093c.075-.13.117-.326.077-.464l-.893-3.008-2.877 1.642c-.31.17-.35.34-.255.662zm28.583-23.66c-.25-.406-.695-.483-1.14-.274-.297.14-.574.325-.817.464-.012.094-.023.116-.016.13l.794 1.402c.344.6.237 1.15-.28 1.438s-1.023.1-1.384-.512l-.83-1.43-1.654.95.853 1.47c.328.58.223 1.113-.266 1.405-.512.306-1.042.13-1.394-.466l-.855-1.47-1.58.908c-.012.056-.024.078-.017.09l.815 1.452c.315.582.195 1.1-.305 1.398s-1.007.12-1.353-.456l-.864-1.484-11.612 6.665.823 1.418c.36.632.278 1.146-.224 1.45-.525.318-1.054.135-1.433-.503l-.828-1.423-1.6.912c.005.068-.004.11.012.137l.794 1.4c.322.578.21 1.108-.29 1.393s-1.023.117-1.363-.45l-.867-1.49-1.652.95.85 1.464c.34.6.222 1.155-.3 1.437-.503.272-1.01.096-1.352-.48l-.873-1.5-.876.508c-.427.3-.58.716-.337 1.16l1.91 3.31 13.206-7.58c-.3-.695-1.05-1.455-.05-2.044 1.045-.616 1.31.486 1.768 1.058l1.608-.922c-.288-.693-1.07-1.45-.057-2.04 1.037-.605 1.316.478 1.775 1.054l13.203-7.58-1.946-3.324zm3.183 4.973l-3.245 1.862 2.14 2.244c.09.092.26.152.394.152l4.9-.02-4.178-4.238zm6.424 6.506c-.264-.28-.533-.394-.922-.386l-4.136.035c-.135.001-.27.027-.48.05l2.55 2.66c.093.096.246.192.373.192l5.084-.02-2.47-2.53zm7.692 7.826l-3.162-3.197c-.135-.132-.393-.197-.596-.2-1.06-.012-2.122.006-3.183.013l-1.76.01 3.4 3.537c.128.13.4.168.605.17l3.575-.013 1.337-.013c-.106-.16-.145-.243-.206-.305zm2.276 2.33c-.08-.08-.227-.128-.344-.128l-5.293.03 2.957 3.12a1.66 1.66 0 0 0 1.437.612l4.795-.044-3.552-3.6zm7.9 8.67c-.406-1.328-1.487-2.132-2.382-3.083-.065-.068-.202-.1-.304-.1l-5.494.03 7.33 7.692c1.07-1.413 1.352-2.897.85-4.538zm-38.862 22.316c.47-.28 1.03-.143 1.3.32.262.446.114 1.055-.32 1.314-.44.262-1.06.11-1.32-.326s-.104-1.042.34-1.307zm3.328-1.898c.447-.26.997-.132 1.276.298.286.44.15 1.05-.288 1.32a.97.97 0 0 1-1.323-.314c-.276-.453-.126-1.035.336-1.303zm3.3-1.895c.456-.27 1.034-.135 1.313.308.268.425.117 1.04-.323 1.308s-1.03.125-1.305-.324c-.28-.46-.143-1.02.315-1.292zm3.372-1.95c.453-.245 1.045-.07 1.295.386.257.47.064 1.064-.43 1.32a.92.92 0 0 1-1.245-.369c-.268-.47-.095-1.08.38-1.336zm11.55-6.63c.467-.277 1.025-.127 1.296.35a.94.94 0 0 1-.342 1.305c-.44.266-1.033.107-1.31-.353-.268-.444-.11-1.025.356-1.3zm3.335-1.9c.474-.264 1.017-.104 1.287.38.26.464.1 1.018-.37 1.292a.96.96 0 0 1-1.272-.324c-.28-.462-.114-1.086.356-1.348zm3.307-1.895c.464-.265 1.044-.104 1.297.36s.085 1.06-.365 1.298c-.465.246-1.034.084-1.307-.372-.267-.445-.1-1.014.375-1.286zm3.39-1.93c.465-.254.957-.1 1.233.384.262.46.103 1.02-.368 1.3-.443.26-.96.137-1.205-.29-.305-.53-.162-1.118.34-1.392z" class="D"/></g></svg>