<svg xmlns="http://www.w3.org/2000/svg" width="425" height="360" fill="none" xmlns:v="https://vecta.io/nano"><style><![CDATA[.B{fill-rule:evenodd}.C{fill:#ec7e3b}.D{fill:#171716}.E{stroke:#171716}.F{stroke-linejoin:round}]]></style><path d="M384.875 186.764c-.037 1-.86 1.787-1.853 1.787-.023 0-.046 0-.07-.001-1.024-.038-1.823-.9-1.785-1.923l.122-6.643v-.336c-.002-1.025.828-1.857 1.853-1.858s1.856.83 1.858 1.852v.342l-.125 6.78zm-2.02-17.195l-.128.005c-.967 0-1.782-.75-1.85-1.73l-.575-6.618c-.107-1.02.63-1.933 1.65-2.04s1.933.63 2.04 1.65l.586 6.757c.07 1.023-.703 1.908-1.725 1.977zm-2.04-18.527c-.107.02-.214.027-.32.027-.886 0-1.67-.635-1.827-1.537L377.405 143c-.214-1.002.425-1.988 1.427-2.202s1.99.425 2.203 1.427l1.3 6.66c.176 1-.5 1.97-1.5 2.147zm-3.97-18.214a1.84 1.84 0 0 1-.51.072c-.808 0-1.55-.532-1.784-1.348L372.6 125.2c-.318-.974.213-2.022 1.187-2.34s2.022.213 2.34 1.188l1.984 6.487c.28.985-.3 2.012-1.275 2.293zm-1.794 100.427c.975.316 1.508 1.363 1.192 2.338l-2.223 6.43c-.276.75-.986 1.216-1.742 1.216-.213 0-.428-.036-.64-.114-.96-.353-1.455-1.42-1.102-2.38l2.177-6.297c.317-.975 1.362-1.508 2.338-1.192zm-46.104-179.36a1.85 1.85 0 0 1-1.291-.523l-4.86-4.534c-.763-.685-.825-1.858-.14-2.62s1.857-.825 2.62-.14l4.96 4.63c.736.713.755 1.888.042 2.624a1.85 1.85 0 0 1-1.333.564zm-3.387 257.242c.686.76.624 1.935-.137 2.62L320.3 318.2c-.347.29-.77.43-1.19.43-.53 0-1.058-.227-1.425-.666-.657-.787-.552-1.957.235-2.614l5.017-4.35c.762-.686 1.936-.625 2.622.137zM314.897 41.636c-.4 0-.805-.13-1.145-.396l-5.306-4.006c-.83-.602-1.014-1.762-.412-2.592s1.762-1.013 2.59-.41l5.42 4.1c.806.633.947 1.8.314 2.605-.366.466-.91.7-1.46.7zm-3.694 281.386c.603.83.42 1.99-.408 2.592l-5.553 3.883a1.85 1.85 0 0 1-1.033.316c-.598 0-1.184-.288-1.543-.822-.57-.85-.345-2.003.507-2.574l5.438-3.804c.83-.602 2-.42 2.592.41zM299.64 30.9c-.338 0-.68-.092-.986-.284l-5.698-3.433c-.89-.512-1.194-1.646-.68-2.534s1.646-1.193 2.534-.68l5.82 3.504a1.86 1.86 0 0 1 .584 2.559c-.353.56-.956.868-1.573.868zm-3.946 302.442c.514.887.21 2.022-.676 2.535l-5.925 3.28c-.277.147-.574.216-.867.216-.665 0-1.308-.358-1.64-.988-.48-.905-.134-2.028.772-2.507l5.802-3.213c.886-.513 2.022-.2 2.535.677zM283.34 21.816c-.274 0-.552-.06-.815-.2l-6.033-2.818c-.936-.415-1.358-1.512-.942-2.45s1.512-1.36 2.45-.942l6.16 2.877c.92.45 1.3 1.563.85 2.483-.323.657-.982 1.04-1.668 1.04zm-4.137 320.166c.417.936-.003 2.033-.94 2.45l-6.23 2.638c-.227.092-.46.135-.69.135a1.86 1.86 0 0 1-1.723-1.165c-.382-.95.08-2.03 1.03-2.413l6.1-2.585a1.86 1.86 0 0 1 2.451.939zM266.166 14.49c-.21 0-.426-.036-.636-.113l-6.302-2.168c-.975-.315-1.5-1.36-1.195-2.336s1.36-1.5 2.337-1.195l6.433 2.213c.963.352 1.458 1.418 1.106 2.38-.275.752-.986 1.22-1.743 1.22zM261.9 348.846c.317.975-.217 2.022-1.19 2.34l-6.492 1.974a1.85 1.85 0 0 1-.507.071c-.81 0-1.552-.533-1.784-1.35-.28-.986.293-2.012 1.28-2.29l6.356-1.933c.975-.318 2.022.216 2.34 1.2zM248.327 9.017c-.15 0-.3-.018-.45-.056L241.4 7.473c-1.003-.2-1.645-1.194-1.434-2.197s1.194-1.645 2.197-1.435l6.61 1.52c.995.248 1.6 1.255 1.352 2.25a1.86 1.86 0 0 1-1.8 1.406zm-4.395 344.838c.213 1.003-.428 1.988-1.43 2.2l-6.662 1.28c-.107.018-.214.027-.318.027-.887 0-1.67-.637-1.827-1.54-.174-1 .503-1.97 1.513-2.144l6.525-1.254c1.003-.212 1.987.428 2.2 1.43zM230.03 5.456a1.76 1.76 0 0 1-.26-.019l-6.596-.8c-1.02-.105-1.762-1.016-1.657-2.035S222.53.84 223.552.945l6.735.818c1.014.142 1.72 1.08 1.578 2.095-.13.927-.924 1.598-1.835 1.598zm-7.152 349.848c.937 0 1.743.708 1.843 1.66.107 1.018-.632 1.93-1.65 2.038l-6.76.583a1.85 1.85 0 0 1-1.978-1.725c-.07-1.02.704-1.905 1.728-1.974l6.62-.57.197-.01zM211.46 3.826c-.023 0-.045 0-.068-.001L205 3.71l-.25.001c-1.027 0-1.857-.828-1.86-1.852s.827-1.857 1.85-1.86L205 0l6.524.117c1.025.036 1.825.896 1.79 1.92-.036 1-.86 1.79-1.853 1.79zm-7.21 352.465c1.028 0 1.858.827 1.86 1.85s-.827 1.855-1.852 1.857L204 360c-2.166 0-4.36-.04-6.525-.116-1.024-.037-1.825-.896-1.788-1.92.035-1 .86-1.788 1.853-1.788l.067.002 6.393.113h.25zM192.942 4.117l-6.62.572a1.85 1.85 0 0 1-.196.01c-.938 0-1.743-.708-1.844-1.66-.107-1.02.632-1.932 1.65-2.04l6.758-.583c1.028-.07 1.908.704 1.977 1.726s-.705 1.907-1.727 1.976zM187.48 357.4c-.104 1.018-1.014 1.76-2.035 1.655l-6.736-.817c-1.015-.142-1.722-1.08-1.58-2.094.13-.926.925-1.595 1.835-1.595a1.93 1.93 0 0 1 .261.018l6.597.8c1.02.104 1.762 1.014 1.657 2.033zM174.628 6.318l-6.523 1.26c-.13.027-.26.04-.39.04-.857 0-1.627-.598-1.813-1.47-.213-1.003.426-1.988 1.43-2.202l6.66-1.287c1.012-.175 1.97.502 2.146 1.51s-.5 1.97-1.51 2.146zm-4.76 348.34c-.184.873-.955 1.473-1.813 1.473a1.82 1.82 0 0 1-.318-.034c-.288.087-.59.13-.906.064l-6.614-1.52c-.994-.248-1.6-1.254-1.35-2.247.21-.843.968-1.405 1.8-1.405.098 0 .198.02.297.037.317-.1.654-.15 1-.062l6.473 1.494c1.002.212 1.644 1.196 1.432 2.2zM156.645 10.425l-6.355 1.94c-.19.063-.385.092-.576.092-.78 0-1.508-.497-1.763-1.28-.318-.975.214-2.022 1.188-2.34l6.5-1.98c.985-.28 2.012.29 2.292 1.277s-.29 2.012-1.276 2.293zm-4.84 339.62c-.254.785-.982 1.284-1.766 1.284a1.84 1.84 0 0 1-.572-.091l-6.43-2.22c-.962-.353-1.456-1.42-1.104-2.38s1.42-1.457 2.38-1.104l6.3 2.174c.975.316 1.51 1.362 1.193 2.337zM139.193 16.402l-6.097 2.6c-.246.11-.504.163-.757.163-.71 0-1.386-.41-1.694-1.1-.42-.935 0-2.033.936-2.45l6.226-2.645c.95-.383 2.033.077 2.416 1.028s-.078 2.03-1.03 2.414zm-4.897 327.14c-.308.69-.986 1.1-1.696 1.1-.252 0-.51-.05-.754-.16l-6.157-2.882c-.92-.452-1.3-1.564-.847-2.484s1.564-1.3 2.484-.847l6.03 2.824c.936.416 1.357 1.513.94 2.45zm-11.8-319.373l-5.8 3.218a1.85 1.85 0 0 1-.929.251c-.64 0-1.263-.332-1.607-.926-.514-.886-.212-2.02.674-2.536l5.922-3.285c.904-.48 2.028-.136 2.508.77s.136 2.03-.77 2.51zm-4.918 311.067c-.344.595-.967.927-1.608.927-.315 0-.635-.08-.927-.25l-5.815-3.5c-.867-.546-1.128-1.692-.582-2.56s1.69-1.128 2.56-.582l5.695 3.438c.89.513 1.192 1.648.678 2.535zM101.254 37.453a1.85 1.85 0 0 1-2.592-.406c-.604-.828-.422-1.99.406-2.593l5.55-3.888a1.86 1.86 0 0 1 2.577.503c.572.85.346 2.003-.505 2.575l-5.435 3.81zm.575 287.774a1.85 1.85 0 0 1-1.502.765c-.38 0-.76-.116-1.1-.356l-5.415-4.094c-.805-.634-.945-1.8-.312-2.606s1.8-.945 2.606-.312l5.304 4.01c.828.603 1.012 1.764.41 2.592zM85.836 314.25a1.85 1.85 0 0 1-1.241-.477l-4.956-4.633c-.735-.714-.753-1.89-.04-2.624s1.888-.753 2.624-.04l4.855 4.538c.76.686.823 1.86.137 2.62-.366.406-.872.614-1.38.614zm-13.186-13.18c-.507 0-1.012-.206-1.378-.613l-4.445-5.12c-.657-.786-.553-1.956.233-2.613s1.957-.553 2.614.233l4.354 5.015c.686.76.625 1.935-.136 2.62a1.85 1.85 0 0 1-1.242.477zm-28.806-192.65c-.307.69-.985 1.1-1.696 1.1a1.85 1.85 0 0 1-.753-.16c-.936-.417-1.358-1.513-.94-2.45l2.88-6.157c.452-.92 1.564-1.3 2.484-.848s1.3 1.564.848 2.484l-2.82 6.03zm-6.61 17.257c-.254.786-.982 1.286-1.765 1.286a1.87 1.87 0 0 1-.572-.091c-.975-.315-1.51-1.36-1.194-2.337l2.217-6.432c.352-.962 1.418-1.457 2.38-1.105s1.457 1.418 1.105 2.38l-2.17 6.298zm-3.253 11.35l-1.49 6.474c-.184.874-.955 1.474-1.814 1.474a1.86 1.86 0 0 1-.383-.041c-1.003-.21-1.645-1.195-1.434-2.197l1.522-6.61a1.86 1.86 0 0 1 2.251-1.349c.994.248 1.598 1.256 1.35 2.25zm-3.532 18.104l-.804 6.594c-.098.955-.904 1.666-1.843 1.666-.064 0-.128-.003-.193-.01-1.02-.105-1.76-1.016-1.655-2.036l.82-6.733a1.86 1.86 0 0 1 2.097-1.578c1.015.143 1.72 1.082 1.578 2.097zm-1.62 18.374l-.117 6.475v.17c0 1.025-.83 1.855-1.855 1.855S25 181.18 25 180.154v-.17l.12-6.61c.037-1.024.9-1.832 1.922-1.787 1.024.036 1.824.897 1.787 1.92zm-1.692 16.72c1.023-.07 1.907.705 1.976 1.727l.568 6.62c.107 1.02-.633 1.932-1.652 2.04-.065.007-.13.01-.195.01-.938 0-1.744-.708-1.844-1.662l-.58-6.758c-.068-1.022.705-1.906 1.727-1.975zm2.022 18.53c1.01-.175 1.97.502 2.145 1.51l1.258 6.523c.212 1.003-.428 1.988-1.43 2.2a1.84 1.84 0 0 1-.387.041c-.858 0-1.628-.598-1.814-1.47l-1.283-6.66c-.175-1 .502-1.97 1.51-2.145zm3.952 18.217c.986-.28 2.012.292 2.292 1.278l1.936 6.354c.318.974-.215 2.022-1.2 2.34-.19.062-.384.092-.574.092-.782 0-1.51-.498-1.764-1.282l-1.978-6.49c-.28-.986.293-2.012 1.278-2.292zm342.867-3.877l1.497-6.473c.212-1.002 1.197-1.644 2.2-1.43s1.645 1.197 1.433 2.2l-1.53 6.61a1.86 1.86 0 0 1-1.799 1.404 1.82 1.82 0 0 1-.454-.057c-.994-.25-1.597-1.257-1.347-2.25zm3.55-18.1l.812-6.594c.105-1.02 1.018-1.763 2.037-1.654s1.76 1.018 1.654 2.038l-.828 6.732c-.13.926-.925 1.595-1.834 1.595-.087 0-.175-.006-.264-.02-1.014-.144-1.72-1.083-1.577-2.098z" fill="#f0f0f0" class="B"/><path d="M348.675 100.883c-21.24-38.387-55.8-66.28-98.016-78.31C163.903-2.762 72.797 47.397 47.46 134.152c-25.08 86.754 25.08 177.86 111.836 203.194 15.1 4.35 30.454 6.654 45.81 6.654 27.383 0 54.254-6.9 78.822-20.473 38.388-21.24 66.283-55.79 78.31-98.015 12.54-41.97 7.42-86.242-13.564-124.63zm-1.28 120.79c-142.802-24.568-225.72 23.544-258.732 50.16l-6.142-8.2c26.36-22.52 118.49-89.057 270.504-74.214-.768 10.748-2.56 21.24-5.63 31.733v.512zm-248.24 61.93c31.22-24.056 109.788-69.097 243.12-47.088-4.094 9.98-9.213 19.193-15.1 27.894-116.954-24.823-186.05 3.583-220.088 26.615-2.815-2.303-5.63-4.862-7.933-7.42zm159.18-109.02c32.5-33.27 73.96-38.643 88.29-39.41 4.094 12.54 6.142 25.59 6.9 38.643-35.06-3.327-66.795-2.56-95.2.768zM205.106 31.53c13.564 0 27.383 1.79 41.203 5.886 38.13 11.004 69.61 36.34 88.547 70.887 2.047 3.84 3.838 7.678 5.63 11.516-22.01 2.048-71.145 11.517-105.694 58.093-30.454 5.374-56.813 13.82-79.334 23.288 4.095-13.82 9.725-26.103 15.61-36.084 4.607.768 9.47 1.024 14.075 1.024 22.52 0 43.25-8.7 57.838-24.824 19.193-20.985 24.824-50.927 15.355-80.1L256.8 56.6l-4.862-1.024c-29.943-6.9-59.373 1.535-78.567 22.264-18.937 20.73-24.824 50.16-15.61 79.333-8.19 14.075-15.866 31.477-20.473 52.206-30.7 14.843-51.695 30.71-63.467 40.7l-3.84-7.42c84.197-65.514 63.723-159.178 55.022-187.584 23.544-15.1 51.44-23.544 80.102-23.544zm-7.422 88.29l-4.862-5.886c-.768.768-9.98 8.446-20.985 22.777-1.792-17.914 3.583-34.804 15.1-47.344 13.82-15.1 34.805-21.752 56.813-18.17 5.375 21.753.768 43.25-13.05 58.348-12.028 13.308-29.687 19.96-48.625 18.938 11.005-14.843 20.218-22.777 20.474-23.032l-4.863-5.63zM111.696 64.8c8.2 29.43 20.986 106.46-47.088 162.505l-3.07-10.237c38.388-47.344 38.9-98.526 32-134.866a117 117 0 0 1 18.17-17.402zM62.56 138.502c4.095-14.33 10.237-27.383 17.914-39.155 3.07 28.15-.256 62.955-22.777 96.735-2.303-18.68-.768-38.386 4.862-57.58zm101.088 184c-4.095-1.28-8.2-2.56-12.284-4.094 26.615-9.213 65.258-14.587 119.513-5.374-33.27 16.378-71.145 19.705-107.23 9.468zm127.446-21.752c-77.287-16.635-127.702-6.398-159.18 8.19-4.095-2.303-8.19-4.862-11.772-7.422 8.7-5.63 19.705-11.26 33.27-16.378 32.757-12.284 86.244-22.008 163.02-6.9-7.678 8.446-16.123 15.867-25.336 22.52z" fill="#fafafa"/><g class="B"><path d="M422.85 155.217a2.15 2.15 0 1 1 0-4.305 2.15 2.15 0 1 1 0 4.305zm-4.867 152.462h-2.84v2.85a.79.79 0 1 1-1.58 0v-2.85h-2.84a.79.79 0 0 1 0-1.585h2.84v-2.85a.79.79 0 1 1 1.58 0v2.85h2.84a.79.79 0 0 1 0 1.585zm-71.517-118.232H342.3c-.99-.001-1.793-.806-1.793-1.8s.803-1.8 1.793-1.8h4.165c1 0 1.793.805 1.793 1.8 0 .496-.2.946-.526 1.272a1.79 1.79 0 0 1-1.267.527zm-8.236 8.263c-1 0-1.793-.805-1.793-1.8v-4.18c0-.993.803-1.8 1.793-1.8s1.793.805 1.793 1.8v4.18a1.8 1.8 0 0 1-.525 1.272 1.79 1.79 0 0 1-1.268.527zm0-12.348c-1 0-1.793-.805-1.793-1.8v-4.18c0-.993.803-1.798 1.793-1.8s1.793.806 1.793 1.8v4.18c0 .497-.2.947-.525 1.272s-.773.527-1.268.527zm-4.07 4.085h-4.165c-1-.001-1.793-.806-1.793-1.8s.803-1.8 1.793-1.8h4.165c.99 0 1.793.805 1.793 1.8a1.8 1.8 0 0 1-.525 1.272 1.79 1.79 0 0 1-1.268.527zm-16.7-165.076c-2.87-1.66-3.86-5.357-2.205-8.238.297-.516.954-.693 1.468-.396a1.08 1.08 0 0 1 .394 1.473 3.89 3.89 0 0 0 1.417 5.293 3.86 3.86 0 0 0 5.275-1.422c1.064-1.85.43-4.225-1.416-5.292a3.85 3.85 0 0 0-1.995-.519c-.593.01-1.083-.463-1.094-1.06s.462-1.086 1.056-1.097c1.086-.02 2.16.26 3.106.806 2.872 1.662 3.86 5.357 2.205 8.24a6.01 6.01 0 0 1-8.211 2.212zm-28.286 48.4l2.52 2.53c.388.39.388 1.02 0 1.408a.99.99 0 0 1-1.403 0l-2.52-2.53-2.522 2.53a.99.99 0 0 1-1.403 0c-.388-.39-.388-1.02 0-1.408l2.52-2.53-2.52-2.53c-.388-.39-.388-1.02 0-1.408a.99.99 0 0 1 1.403 0l2.522 2.53 2.52-2.53a.99.99 0 0 1 1.404 0 1 1 0 0 1 0 1.408l-2.522 2.53zm-152.995-4.467c-3.144 0-5.7-2.566-5.7-5.72a5.72 5.72 0 0 1 5.701-5.721 5.72 5.72 0 1 1 0 11.442zm0-9.396c-2.02 0-3.663 1.65-3.663 3.675s1.643 3.675 3.663 3.675 3.663-1.648 3.663-3.675-1.643-3.675-3.663-3.675zM96.743 15.07c-1.127 0-2.042-.918-2.042-2.05s.915-2.05 2.042-2.05 2.043.918 2.043 2.05-.915 2.05-2.043 2.05zm-9.087 167.16h-2.168c-.516 0-.934-.42-.934-.937s.418-.936.934-.936h2.168c.515 0 .933.42.933.936s-.418.937-.933.937zm-2.524-2.716a.93.93 0 0 1-.66.274c-.24 0-.478-.09-.66-.274-.365-.366-.365-.96 0-1.324l1.533-1.54a.93.93 0 0 1 1.32 0 .94.94 0 0 1 0 1.325l-1.533 1.538zm-3.08 8.357c-.516 0-.934-.42-.934-.936v-2.176c0-.517.418-.936.934-.936s.933.42.933.936v2.176c0 .517-.418.936-.933.936zm-.02-9.09c-.516 0-.934-.42-.934-.936v-2.176c0-.517.418-.936.934-.936s.933.42.933.936v2.176c0 .517-.418.936-.933.936zm-3.293 7.172a.93.93 0 0 1-.66.274c-.24 0-.478-.09-.66-.274-.365-.366-.365-.96 0-1.324l1.533-1.538a.93.93 0 0 1 1.32 0 .94.94 0 0 1 0 1.324l-1.533 1.538zm.86-6.152a.93.93 0 0 1-.66-.275l-1.533-1.538a.94.94 0 0 1 0-1.324.93.93 0 0 1 1.32 0l1.534 1.538a.94.94 0 0 1 0 1.324.93.93 0 0 1-.661.275zm-.07 1.5c0 .517-.417.937-.933.937H76.43c-.516 0-.934-.42-.934-.937s.418-.936.934-.936h2.168c.516 0 .933.42.933.936zM21.017 320.567L18.7 318.25a1.41 1.41 0 0 1 0-1.993 1.4 1.4 0 0 1 1.987 0l2.307 2.315a1.41 1.41 0 0 1 0 1.994c-.548.55-1.438.55-1.987 0zm-.32-6.842a1.4 1.4 0 0 1-1.987 0 1.41 1.41 0 0 1 0-1.993l2.307-2.316c.55-.55 1.44-.55 1.987 0a1.41 1.41 0 0 1 0 1.994l-2.307 2.315zm-6.82 6.842c-.55.55-1.438.55-1.987 0s-.55-1.443 0-1.994l2.308-2.315a1.4 1.4 0 0 1 1.987 0c.274.275.41.636.41.996a1.41 1.41 0 0 1-.411.997l-2.308 2.316zm.32-6.842L11.89 311.4c-.55-.55-.55-1.443 0-1.994s1.438-.55 1.987 0l2.308 2.316c.274.275.41.636.41.996a1.41 1.41 0 0 1-.411.997 1.4 1.4 0 0 1-1.987 0zM1.73 154.453c-1.653-.956-2.222-3.083-1.27-4.74.17-.297.55-.4.845-.227a.62.62 0 0 1 .227.847 2.24 2.24 0 0 0 .815 3.046c1.062.614 2.424.247 3.036-.818s.247-2.432-.815-3.046a2.22 2.22 0 0 0-1.148-.298.62.62 0 1 1-.022-1.241 3.45 3.45 0 0 1 1.788.464c1.653.956 2.222 3.083 1.27 4.74s-3.073 2.23-4.725 1.273zm83.414 28.625l1.533 1.538a.94.94 0 0 1 0 1.325c-.182.183-.42.274-.66.274a.93.93 0 0 1-.66-.274l-1.533-1.538a.94.94 0 0 1 0-1.325.93.93 0 0 1 1.32 0z" fill="#fe9656"/><path d="M152.076 172.998c10.158 0 18.392 8.194 18.392 18.3s-8.234 18.3-18.392 18.3-18.4-8.193-18.4-18.3 8.234-18.3 18.4-18.3zm53.424-6.1c6.77 0 12.262 5.462 12.262 12.2s-5.5 12.2-12.262 12.2-12.26-5.462-12.26-12.2 5.5-12.2 12.26-12.2zm-.875-61.003c6.772 0 12.26 5.462 12.26 12.2s-5.5 12.2-12.26 12.2-12.26-5.462-12.26-12.2 5.5-12.2 12.26-12.2zm52.417.08c6.772 0 12.262 5.463 12.262 12.2s-5.5 12.2-12.262 12.2-12.26-5.462-12.26-12.2 5.5-12.2 12.26-12.2z" class="C"/></g><g class="D"><path d="M219.37 298a17 17 0 0 1-12.006-4.946l-4.126-4.117c-.83-.83-.83-2.202 0-3.03s2.206-.83 3.037 0l4.126 4.117c2.407 2.402 5.588 3.717 8.97 3.717a12.61 12.61 0 0 0 8.97-3.717l31.1-31.02c4.928-4.918 4.928-12.952 0-17.898l-17.02-17.012c-2.407-2.4-5.587-3.716-8.968-3.716a12.61 12.61 0 0 0-8.969 3.716l-31.1 31.022c-4.24 4.23-4.928 10.92-1.633 15.896a2.15 2.15 0 0 1-.602 2.974c-1.002.657-2.32.37-2.98-.6-4.412-6.66-3.495-15.64 2.178-21.3l31.1-31.02a16.88 16.88 0 0 1 12.006-4.947 17 17 0 0 1 12.006 4.947l17.02 16.983a16.94 16.94 0 0 1 0 23.959l-31.1 31.02c-3.2 3.202-7.45 4.975-12.006 4.975zm53.382-49.95c-.945 0-1.834-.63-2.063-1.6-.315-1.143.373-2.316 1.52-2.63a12.73 12.73 0 0 0 5.702-3.288L309 209.5a12.55 12.55 0 0 0 0-17.898l-17.02-16.983c-4.93-4.918-12.98-4.918-17.937 0l-31.1 31.05a12.68 12.68 0 0 0-3.152 5.203c-.344 1.144-1.547 1.773-2.694 1.43s-1.776-1.544-1.432-2.688c.802-2.63 2.263-5.032 4.212-6.976l31.117-31.05c6.62-6.604 17.393-6.604 24.012 0l17.02 17.012a16.94 16.94 0 0 1 0 23.959l-31.1 31.02c-2.12 2.116-4.756 3.63-7.65 4.403a3.05 3.05 0 0 1-.545.057z"/><path d="M228.712 294.656a2.13 2.13 0 0 1-1.519-.629 2.16 2.16 0 0 1 0-3.031c1.404-1.4 1.175-4.746-.63-8.95a2.17 2.17 0 0 1 1.118-2.83 2.18 2.18 0 0 1 2.836 1.115c2.608 6.032 2.522 10.893-.258 13.666-.458.458-1.002.658-1.547.658zm-4.442-18.67c-.688 0-1.347-.314-1.748-.915-1.862-2.63-4.04-5.203-6.504-7.662-.83-.83-.83-2.202 0-3.03s2.206-.83 3.037 0c2.636 2.63 4.986 5.404 7 8.234a2.15 2.15 0 0 1-.515 3.002c-.373.258-.83.372-1.26.372zm-12.35-12.923c-.46 0-.946-.143-1.318-.457-4.098-3.23-8.28-5.576-11.805-6.634-2.98-.886-5.33-.8-6.42.286-.83.83-2.206.83-3.037 0s-.83-2.2 0-3.03c4.355-4.346 13.725-2.002 23.897 5.975a2.14 2.14 0 0 1 .372 3.002c-.4.6-1.03.858-1.7.858zm65.904-17.412c-.545 0-1.1-.2-1.52-.63-.83-.83-.83-2.2 0-3.03 1.404-1.4 1.175-4.746-.63-8.95a2.17 2.17 0 0 1 1.117-2.83 2.18 2.18 0 0 1 2.837 1.115c2.608 6.033 2.522 10.893-.258 13.666a2.15 2.15 0 0 1-1.547.658zm-4.414-18.67c-.688 0-1.347-.314-1.748-.915-1.862-2.63-4.04-5.203-6.504-7.662-.83-.83-.83-2.202 0-3.03s2.206-.83 3.037 0c2.636 2.63 4.986 5.404 6.992 8.235a2.15 2.15 0 0 1-.516 3.002 2.3 2.3 0 0 1-1.26.37zm-12.377-12.923c-.458 0-.945-.143-1.318-.457-4.097-3.23-8.28-5.576-11.805-6.633-2.98-.887-5.33-.8-6.418.285-.83.83-2.207.83-3.038 0s-.83-2.2 0-3.03c4.356-4.346 13.725-2.002 23.897 5.975a2.14 2.14 0 0 1 .373 3.002c-.4.572-1.032.858-1.7.858zm-64.986 83.457c-.545 0-1.1-.2-1.52-.63-.83-.83-.83-2.2 0-3.03l12.035-11.98a3.55 3.55 0 0 0 0-5.003c-.66-.658-1.548-1.03-2.493-1.03s-1.834.372-2.493 1.03l-12.006 11.98c-.83.83-2.206.83-3.037 0s-.83-2.2 0-3.03l12.006-11.98c1.5-1.487 3.438-2.287 5.558-2.287a7.81 7.81 0 0 1 5.56 2.287c1.5 1.487 2.292 3.43 2.292 5.547 0 2.087-.802 4.06-2.292 5.546l-12.006 11.98c-.487.4-1.03.6-1.604.6zm110.258-110.018a2.13 2.13 0 0 1-1.519-.629c-.83-.83-.83-2.2 0-3.03l3.525-3.488a3.55 3.55 0 0 0 0-5.003c-.66-.658-1.548-1.03-2.493-1.03s-1.834.37-2.493 1.03l-3.524 3.517a2.17 2.17 0 0 1-3.038 0c-.83-.83-.83-2.202 0-3.03l3.525-3.517a7.85 7.85 0 0 1 11.089 0c3.066 3.06 3.066 8.006 0 11.065l-3.525 3.517a2.24 2.24 0 0 1-1.547.6zm-49.313 49.234a2.12 2.12 0 0 1-1.518-.63c-.83-.83-.83-2.202 0-3.03l.917-.915a3.5 3.5 0 0 0 0-4.975 3.57 3.57 0 0 0-5.015 0l-.917.915c-.83.83-2.206.83-3.037 0s-.83-2.2 0-3.03l.917-.915a7.85 7.85 0 0 1 11.09 0c1.5 1.486 2.292 3.43 2.292 5.546 0 2.087-.802 4.06-2.292 5.547l-.917.915c-.43.372-.974.572-1.52.572zm-26.51-154.912a2.21 2.21 0 0 0 1.562.641c.6 0 1.162-.24 1.563-.64l15.063-15.062c.84-.84.84-2.243 0-3.125-.84-.84-2.243-.84-3.125 0l-15.063 15.022c-.84.92-.84 2.323 0 3.165zm-116.22 145.737a2.18 2.18 0 0 0-1.562-.64 2.18 2.18 0 0 0-1.563.641l-18.51 18.546c-.84.842-.84 2.244 0 3.125a2.21 2.21 0 0 0 3.125 0l18.548-18.548c.842-.88.842-2.283-.04-3.124zm170.542-126.83a2.18 2.18 0 0 0-1.562.641l-57.208 57.205a2.21 2.21 0 0 0-.641 1.562c0 .6.24 1.162.64 1.563s.96.64 1.562.64 1.162-.24 1.563-.64l57.208-57.205c.84-.842.84-2.244 0-3.125-.44-.4-1.002-.64-1.563-.64zM227.32 85.023c-.4-.4-.962-.64-1.563-.64s-1.122.24-1.562.64c-4.047 4.046-6.57 8.092-7.973 12.74-1.602 5.288-1.802 11.657-.64 19.5.682 4.607 1.803 8.933 2.845 13.14 1.682 6.6 3.245 12.86 3.365 20.07.04 1.202 1.002 2.163 2.203 2.163h.04a2.25 2.25 0 0 0 2.164-2.243c-.16-7.732-1.843-14.502-3.526-21.07-1.04-4.086-2.083-8.333-2.764-12.7-2.283-15.263 1.122-22.193 7.33-28.442.922-.92.922-2.283.08-3.165zm3.404-21.953a2.22 2.22 0 0 0-1.643.4c-1.282.92-32.13 23.395-37.497 40.98-3.966 13.02-12.06 24.837-12.98 26.16l-.08.12-4.608 4.607h-.36c-9.615-.32-17.828 2.404-23.757 7.852-6.53 5.97-10.215 15.222-10.736 26.76v.36l-.32.24c-.08.08-.16.16-.24.2L96.438 212.81c-3.886 3.886-3.926 10.937-.08 18.828.24.52.72.922 1.282 1.122a2.06 2.06 0 0 0 1.683-.12c.52-.24.92-.72 1.12-1.282a2.06 2.06 0 0 0-.12-1.683c-2.964-6.13-3.245-11.256-.76-13.78 1.923-1.923 5.6-2.203 10.096-.76 5.047 1.642 10.496 5.167 15.263 9.975 4.807 4.807 8.333 10.215 9.975 15.262 1.443 4.487 1.202 8.172-.76 10.095-3.205 3.205-10.616 1.803-18.428-3.485l-.8-.56 7.6-7.6c.842-.84.842-2.243 0-3.125a2.18 2.18 0 0 0-1.562-.641 2.18 2.18 0 0 0-1.562.641l-18.55 18.548c-.84.84-.84 2.243 0 3.124a2.21 2.21 0 0 0 1.562.641c.6 0 1.162-.24 1.563-.64l7.772-7.77.56.4c5.93 4.246 11.938 6.57 16.946 6.57 3.285 0 6.05-1.04 8.012-2.964l41.544-41.542c4.006-3.084 9.855-6.2 16.065-9.494 8.773-4.647 17.867-9.494 24.237-15.463 8.573-8.052 10.616-16.264 10.696-16.625.28-1.16-.44-2.363-1.642-2.644-1.162-.28-2.364.44-2.644 1.603 0 .08-1.883 7.37-9.415 14.42-5.288 4.968-13.02 9.294-19.87 12.94l-4.768 2.564 8.934-8.933c.84-.84.84-2.243 0-3.125-.84-.84-2.243-.84-3.125 0l-57.047 57.125-.24-1.562c-.2-1.242-.52-2.524-.92-3.806-1.843-5.688-5.77-11.737-11.057-17.025s-11.338-9.214-17.026-11.056c-1.282-.4-2.564-.722-3.806-.922l-1.563-.24 32.97-32.97-.4 2.483c-2.163 12.98-7.972 21.953-8.012 22.033-.68 1.002-.4 2.404.64 3.045.36.24.76.36 1.202.36.76 0 1.442-.36 1.843-1 .36-.56 9.054-13.98 9.534-32.57.28-11.016 3.446-19.348 9.375-24.796 3.766-3.446 8.613-5.6 14.422-6.4l2.364-.32-17.307 17.306c-.84.84-.84 2.244 0 3.125.4.4.962.64 1.563.64s1.16-.24 1.562-.64l42.906-42.904c.84-.84.84-2.243 0-3.125-.84-.84-2.244-.84-3.125 0l-4.246 4.247 1.682-3.846a76.41 76.41 0 0 0 3.245-8.773C200.8 89.483 231.406 67.2 231.726 67c1.002-.72 1.202-2.083.48-3.085-.36-.44-.88-.76-1.482-.84zM208.1 181.126c5.97-7.932 13.58-26.52 4.126-46.03-4.847-9.935-5.53-18.187-5.248-23.314.28-5.57 1.723-8.854 1.803-9.014a2.18 2.18 0 0 0-1.082-2.924c-.28-.12-.6-.2-.92-.2a2.52 2.52 0 0 0-.762.12c-.56.2-1 .6-1.24 1.12-.28.6-6.73 15.023 3.525 36.094 8.533 17.586 1.723 34.33-3.646 41.422-.36.48-.52 1.04-.44 1.642s.4 1.082.84 1.442c.4.28.84.44 1.322.44.68.08 1.322-.24 1.723-.8zm30.926-49.834c.08-.04.68-.6 1.603-1.483a2.09 2.09 0 0 0 .681-1.562c0-.6-.2-1.162-.6-1.562-.84-.88-2.244-.922-3.125-.08l-1.442 1.322c-.44.36-.72.92-.76 1.482-.04.6.12 1.162.52 1.602.4.48 1.04.76 1.682.76.52.04 1.042-.16 1.442-.48zm8.174-8.774c4.567-5.528 9.414-13.34 10.656-29.163 1.202-15.303 15.424-26.24 15.544-26.36.96-.72 1.162-2.123.44-3.085a2.24 2.24 0 0 0-1.763-.881c-.48 0-.92.16-1.322.44-.64.48-15.905 12.138-17.307 29.524-1.162 14.622-5.528 21.712-9.655 26.72-.36.44-.56 1.04-.48 1.602a1.98 1.98 0 0 0 .8 1.482c.4.32.88.52 1.402.52.64 0 1.282-.28 1.683-.8zm-85.853 87.37c-1.443-.24-2.885-.32-4.247-.32-10.055 0-17.347 5.328-17.667 5.568-.962.72-1.162 2.083-.44 3.084.4.56 1.082.882 1.763.882.48 0 .92-.16 1.322-.44.08-.08 8.333-6 18.63-4.446 1.2.2 2.323-.64 2.523-1.843.08-.6-.04-1.162-.4-1.643s-.922-.76-1.482-.84z"/><path d="M63.225 60.736c-.052-.272-.076-.55-.112-.825-.013-.585.188-.882.626-.906.426-.024.683.263.74.828l.058.727c.005.403-.194.678-.6.718-.378.038-.636-.16-.7-.542zm9.89-.095c-.514-.97-.945-1.998-1.57-2.89-.787-1.123-1.737-2.132-2.6-3.196-.147-.178-.264-.38-.43-.622.168-.217.27-.476.44-.534.217-.075.51-.04.733.048.197.077.347.284.508.444 1.768 1.76 3.11 3.805 4.105 6.084l.067.142c.153.394.09.732-.303.936-.353.183-.72.002-.94-.41zM65.05 90.124c-1.8-.8-3.48-1.758-4.8-3.225-.565-.626-1.008-1.375-1.434-2.1-.282-.488-.124-.886.28-1.056.376-.16.723.02.933.508.558 1.3 1.516 2.26 2.644 3.055 2.12 1.495 4.462 2.458 7.044 2.81l.312.05c.418.05.642.303.61.706-.033.438-.338.622-.706.626-1.746-.173-3.342-.682-4.884-1.362zm18.43-34.858c1.41 4.15 2.386 8.42 2.62 12.798.17 3.172.07 6.363-.013 9.543-.072 2.745-.423 5.467-1.088 8.143-.973 3.92-3.16 7.13-5.865 10.03-.833.892-1.83 1.636-3.092 1.748-.715.064-1.468-.044-2.176-.202-4.674-1.046-9.178-2.63-13.62-4.4-3.972-1.582-7.85-3.36-11.477-5.648-2.44-1.54-4.59-3.452-6.75-5.34-1.33-1.162-2.632-2.372-3.817-3.677-1.833-2.016-2.942-4.495-4.1-6.926-.76-1.597-1.352-3.25-1.622-5.016-.212-1.387.284-2.38 1.412-3.132 1.17-.778 2.488-1.188 3.826-1.55a37.47 37.47 0 0 1 1.683-.408c1.91-.424 3.578.15 5.05 1.323 1.082.862 1.215 3 .3 4.18a.88.88 0 0 0-.158.95c.63 1.757.777 3.58.673 5.427-.027.477.137.72.582.9l9.135 3.724c2.236.897 4.544 1.05 6.917.616 2.183-.4 4.374-.81 6.705-.442l-.175-.854c-1.826.312-3.07-.723-4.26-1.794-2.23-2.005-3.595-4.568-4.625-7.338-.976-2.627-1.62-5.315-1.524-8.138.075-2.25.644-4.42 1.16-6.594.04-.17.08-.34.13-.507.35-1.125.445-2.062-.6-3.065-1.18-1.144-1.648-2.74-1.388-4.446.08-.52.38-.795.772-.74.426.06.6.43.552.958-.204 1.854.586 3.34 2.045 4.33 2.64 1.792 5.48 1.728 8.102.043 2.276-1.46 4.35-3.235 6.512-4.873.112-.084.21-.185.32-.27.343-.27.69-.274.976.063.295.346.206.693-.116.968-.733.625-1.457 1.264-2.224 1.844l-4.446 3.262c-1.35.958-2.893 1.394-4.537 1.457-.38.015-.532.167-.575.508l-.518 4.1c-.033.246-.082.545-.24.703-.134.134-.51.206-.648.113-.21-.143-.437-.455-.432-.7.02-.96.102-1.92.2-2.873.07-.62.227-1.233.35-1.876l-2.48-.698c-.67 3.315-1.77 6.536-1.53 9.973.2 2.85 1.072 5.51 2.263 8.076.89 1.922 2.067 3.64 3.707 5.03 1.034.874 2.1 1.35 3.512 1.025.602-.14 1.29-.05 1.913.068.874.164 1.52-.027 2.058-.763 1.044-1.432 1.527-3.05 1.72-4.776.057-.503.077-1.01.1-1.517.02-.44.23-.7.677-.698.453.002.677.286.667.71-.058 2.45-.516 4.797-1.94 6.86-.933 1.35-1.883 2.03-3.762 1.454-.16-.05-.33-.058-.53-.09.05.44.06.842.153 1.225.033.135.246.265.404.327 1.26.492 2.368 1.207 3.3 2.186a5.17 5.17 0 0 1 .474.561c.28.4.243.79-.096 1.01-.37.244-.69.148-.965-.186-2.023-2.47-4.72-3.115-7.742-2.776-1.46.164-2.905.46-4.36.665-2.28.322-4.477-.075-6.588-.914l-9.22-3.792c-.378-.158-.674-.19-.998.08-.185.156-.4.29-.622.39-.337.152-.667.117-.88-.22-.22-.35-.13-.667.19-.922.028-.022.056-.045.088-.057.887-.33.982-1 1-1.863.034-1.78-.25-3.48-.862-5.136-.188-.5-.132-.863.327-1.225.882-.694.798-2.233-.122-2.872-1.148-.796-2.395-1.135-3.782-.746-1.21.34-2.447.613-3.63 1.033-2.025.72-2.363 1.37-1.898 3.447.494 2.204 1.602 4.16 2.55 6.184 1.66 3.554 4.522 6.018 7.353 8.577 5.283 4.776 11.524 7.818 18.075 10.348 3.902 1.507 7.87 2.81 11.933 3.836 1.837.464 3.262.036 4.483-1.332 2.98-3.34 5.17-7.06 5.817-11.583a71.75 71.75 0 0 0 .578-14.86c-.33-5.102-1.514-10.044-3.35-14.82-.268-.696-.652-1.35-1.01-2.007-.38-.693-.375-1.417-.183-2.14.437-1.64 1.415-2.867 2.936-3.644.515-.263.9-.183 1.09.205.197.382.028.732-.48.99-1.192.605-2.116 1.448-2.38 2.815-.06.303 0 .67.12.96.643 1.563 1.425 3.076 1.968 4.67z" stroke-width=".4" class="B E F"/></g><g class="C"><path d="M92.228 61.608a.7.7 0 0 0 .323-1.182l-2.706-2.63 8.9-4.46a.7.7 0 0 0 .338-.883l-.078-.196a.7.7 0 0 0-.801-.431l-14.507 3.14a.7.7 0 0 0-.392 1.129l2.69 3.265-5.112 3.413a.7.7 0 0 0-.244.881l.076.16a.7.7 0 0 0 .798.382l10.706-2.59zm-4.1 9.252a.7.7 0 0 0-1.073.52l-.42 4.203-6.05-1.182a.7.7 0 0 0-.794.451l-.03.082-.03.085a.7.7 0 0 0 .297.834l9.41 5.695a.7.7 0 0 0 1.062-.607l-.043-3.767 9.48 3.114a.7.7 0 0 0 .859-.383l.064-.147.023-.054a.7.7 0 0 0-.266-.867l-12.49-7.977zm-30.82-11.492l.04 3.558-9.48-3.114a.7.7 0 0 0-.861.388l-.085.196a.7.7 0 0 0 .266.867l12.49 7.977a.7.7 0 0 0 1.073-.52l.422-4.203 6.05 1.182a.7.7 0 0 0 .796-.459l.057-.16a.7.7 0 0 0-.297-.834l-.007-.004-9.404-5.69a.7.7 0 0 0-1.062.607l.002.21z" stroke-width="1.4" class="E F"/><path d="M41.346 273.49c-4.667-4.655-4.696-11.894-.067-16.532 4.656-4.667 11.882-4.66 16.582.018 4.693 4.67 4.724 11.952.07 16.574-4.683 4.653-11.888 4.627-16.586-.06zm13.908-2.543c3.026-2.974 3.083-8.25.123-11.27-3.08-3.14-8.34-3.22-11.444-.178-3.012 2.952-3.066 8.266-.114 11.28 3.08 3.144 8.328 3.22 11.435.167z" class="B"/></g><path d="M76.025 270.446l.11 1.878-5.646.308-.224 2.484c-.25 2.15-.69 4.255-1.473 6.287-.588 1.527-1.61 2.552-3.13 3.15-2.028.8-4.134 1.256-6.29 1.47-6.18.613-12.13-.235-17.74-3.003-5.28-2.606-8.727-6.837-10.647-12.336-2.32-6.642-2.334-13.35-.54-20.118.613-2.313 1.938-3.725 4.273-4.34s4.68-1.056 7.083-1.238l.72-.056.325-5.87 1.88.098-.3 5.662 5.314.402 1.303-5.692 1.835.418-1.272 5.62 5.198 1.663 2.7-5.236 1.68.848-2.656 5.202 3.3 2.258c.045.032.092.06.136.095.835.638.835.64 1.6-.126l3.604-3.602 1.34 1.34-1.344 1.342-2.733 2.752c-.11.116-.192.428-.12.53l2.926 3.98 5.108-2.602.864 1.67-5.202 2.67 1.695 5.197 5.54-1.25.43 1.832-5.617 1.282.5 5.32 5.478-.287zm-8.97-9.073c-.987-3.125-2.584-5.907-4.616-7.97-1.66-1.644-3.19-2.81-4.926-3.657-6.992-3.413-14.275-3.748-21.715-1.905-2.654.658-3.095 1.166-3.756 3.828-1.543 6.208-1.373 12.374.728 18.438 2.06 5.944 6.092 10.016 11.966 12.253 4.517 1.72 9.204 2.24 14 1.85 2.18-.177 4.32-.55 6.35-1.42.9-.4 1.58-1.017 1.928-1.948.265-.706.548-1.414.72-2.145 1.38-5.833 1.123-11.614-.68-17.323zm-27.108 13.382c-5.215-5.287-5.157-14.067.128-19.27 5.232-5.15 14.024-5.08 19.205.154 5.207 5.26 5.186 14.06-.045 19.236-5.265 5.21-14.086 5.154-19.288-.12zm17.945-17.838c-4.694-4.67-11.926-4.665-16.595.013-4.64 4.65-4.625 11.895.036 16.545 4.693 4.68 11.904 4.694 16.6.03 4.665-4.635 4.647-11.923-.04-16.587zm-14.08 13.84c-2.948-3-2.884-8.328.136-11.29 3.112-3.05 8.377-2.98 11.452.157 2.957 3.015 2.89 8.295-.144 11.277-3.115 3.063-8.367 2.996-11.444-.145zm10.195-9.857c-2.512-2.537-6.23-2.56-8.765-.056-2.467 2.437-2.466 6.194.004 8.68s6.196 2.51 8.675.043c2.506-2.49 2.542-6.186.086-8.667z" class="B D"/><path d="M325.485 298.783c.855.024 1.67.108 2.442.192l2.04.162c3.297.052 5.027-2.493 5.53-3.38a14.12 14.12 0 0 0 2.425 1.763c.885.51 1.79.9 2.71 1.208-.52.885-1.85 3.65-.16 6.474.33.55.733 1.102 1.16 1.686l1.357 1.97c-11.335.065-16.363-7.928-17.505-10.076z" class="B C"/><path d="M380.167 272.36c-1.072 1.857-3.687 2.356-7.534 1.57-.276 4.2-1.587 8.51-3.817 12.212-1.41 2.342-3.395 4.98-5.496 7.772-5.075 6.745-10.824 14.386-7.313 17.25.305.11 1.47.587 1.667 1.56.144.707-.25 1.457-1.172 2.23-2.44 2.048-7.08 2.656-10.553.652-.217-.126-.43-.262-.636-.408-.057 1.765-.424 3.8-1.275 6.205a.37.37 0 0 1-.475.226c-.022-.008-.043-.018-.062-.03-.153-.088-.226-.275-.166-.446 2.102-5.938 1.256-9.506-.2-12.15-4.71.082-8.38-1.154-11.12-2.735a19.87 19.87 0 0 1-3.62-2.679c-2.548-2.376-3.822-4.753-4.177-5.484-1.478.034-3.075.31-4.8 1.148-.016.01-.03.018-.047.024-1.773.87-3.68 2.325-5.734 4.73-.118.138-.316.168-.47.08-.02-.01-.038-.024-.056-.04a.37.37 0 0 1-.042-.524c1.872-2.192 3.65-3.63 5.323-4.563-2.203-1.08-4.013-3.08-5.028-5.606-.767-1.91-.924-3.77-.41-4.85.37-.78.858-1.224 1.45-1.324.79-.132 1.458.418 1.634.578.583.31 1.186.344 1.842.1 3.855-1.428 7.563-11.457 7.6-11.558 1.613-4.41 3.52-8.325 5.665-11.633l1.38-1.94a39.3 39.3 0 0 1 2.529-2.97c-.796-1.195-1.463-2.5-1.8-3.853-.318-1.245-.143-2.184.52-2.79.625-.57 1.614-.734 2.643-.71-.355-1.61-.166-2.858.29-3.65 2.445-4.234 14.712-3.714 26.864 3.302 11.715 6.764 19.165 15.87 16.607 20.302zM342.7 308.26a30.98 30.98 0 0 0-1.374-1.974c-.433-.586-.842-1.14-1.175-1.7-1.713-2.828-.393-5.582.124-6.463a14.41 14.41 0 0 1-2.728-1.22c-.902-.52-1.716-1.117-2.445-1.775-.5.884-2.226 3.415-5.538 3.346-.644-.014-1.327-.09-2.052-.174-.776-.087-1.595-.176-2.454-.204 1.16 2.15 6.254 10.16 17.642 10.154zm-9.578-45.092l-1.362 1.915c-2.107 3.25-3.988 7.113-5.582 11.472-.156.426-3.864 10.452-8.04 11.998-.874.324-1.716.266-2.503-.17-.03-.017-.06-.04-.084-.064-.004-.003-.51-.497-1.027-.408-.337.058-.64.365-.9.9-.415.873-.243 2.583.43 4.255.488 1.214 1.966 4.145 5.175 5.45 1.886-.886 3.625-1.15 5.2-1.167.01-.001.02-.001.03-.001 1.13-.01 2.18.106 3.133.214.707.08 1.374.155 1.983.168 3.237.068 4.723-2.637 4.968-3.133-2.918-2.948-4.245-7.013-3.863-11.486-.15-.072-.302-.143-.436-.22-2.912-1.68-1.923-4.63-1.912-4.662a2.63 2.63 0 0 1 1.278-1.574 2.67 2.67 0 0 1 2.038-.221c.24.07.456.18.662.3.408-.968.886-1.938 1.445-2.906.302-.524.993-1.595 1.603-2.54l.76-1.183a18.95 18.95 0 0 1-1.931-1.671.37.37 0 0 1-.002-.525c.145-.146.38-.146.527-.001 10.274 10.19 29.168 4.576 29.358 4.518.196-.06.405.052.466.247a.37.37 0 0 1-.246.464c-.172.053-15.328 4.555-26.15-1.693a19.86 19.86 0 0 1-1.412-.907l-.742 1.156-1.584 2.508c-5.104 8.84-3.658 17.907 3.516 22.05s15.75.86 20.853-7.98c1.233-2.135 2.88-5.438 3.78-7.565-.196.016-.393.03-.597.032-1.74.02-3.492-.475-5.236-1.482-1.404-.8-2.802-1.95-4.2-3.418-.14-.15-.135-.385.014-.526s.385-.134.527.016c2.957 3.13 5.94 4.7 8.862 4.667 3.543-.04 5.78-2.486 5.803-2.51.137-.153.37-.165.526-.03s.167.372.03.525c-.086.096-1.88 2.065-4.886 2.615-.876 2.15-2.64 5.713-3.99 8.048a25.93 25.93 0 0 1-1.794 2.704 2.72 2.72 0 0 1 .596.417 2.67 2.67 0 0 1 .828 1.876c.017.717-.245 1.395-.738 1.91-.01.01-2.07 2.34-4.98.66-.132-.077-.27-.177-.404-.27-3.693 2.577-7.89 3.46-11.914 2.392-.316.477-1.896 3.104-.225 5.862.316.52.715 1.06 1.137 1.633 1.455 1.97 3.26 4.432 3.4 8.414 3.15 2.578 8.225 2.202 10.705.122.48-.403 1.03-.993.923-1.516-.113-.554-.945-.932-1.23-1.02-.043-.013-.083-.034-.12-.062-4.186-3.283 1.566-10.927 7.128-18.32 2.09-2.777 4.062-5.4 5.453-7.71a26.73 26.73 0 0 0 3.72-11.99c-4.282-1.013-9.952-3.49-16.63-7.346-.354-.205-.7-.422-1.05-.633l.83 1.355a.37.37 0 0 1-.123.511c-.12.073-.266.07-.38.004a.38.38 0 0 1-.132-.129l-1.624-2.652c-.01-.015-.01-.03-.016-.046s-.01-.026-.016-.042c-.02-.068-.026-.138-.007-.205a.34.34 0 0 1 .053-.117c.032-.04.064-.07.1-.092.018-.015.028-.015.037-.02.028-.014.056-.025.087-.032.017-.003.033-.006.05-.007s.024-.006.036-.005l3.156.062c.206.003.37.174.367.38a.37.37 0 0 1-.379.364l-1.796-.035 1.18.696c6.465 3.732 12.088 6.183 16.292 7.208.062-2.097-.143-4.15-.64-6.063-1.267-4.87-4.343-8.834-8.896-11.462-7.867-4.542-15.97-3.945-23.085 1.455 2.377 3.45 6.813 7.653 14.48 12.08.178.103.24.33.137.508s-.33.238-.51.135c-8.43-4.867-12.62-9.314-14.678-12.28-.927.742-1.835 1.57-2.724 2.478 2.18 3.036 5.136 5.27 5.178 5.303a.37.37 0 0 1 .076.52c-.113.152-.322.192-.484.1a.4.4 0 0 1-.037-.025c-.174-.13-3.06-2.3-5.264-5.348-.806.86-1.594 1.788-2.362 2.785zm-2.356 19.164c.205-1.59.625-3.226 1.26-4.876-.178-.13-.37-.236-.584-.3a1.92 1.92 0 0 0-1.471.16c-.455.248-.785.656-.928 1.15-.042.122-.8 2.505 1.723 3.865zm22.796 13.165c2.46 1.526 4.122-.345 4.196-.43.368-.385.557-.874.545-1.392s-.225-1-.598-1.355a1.9 1.9 0 0 0-.547-.355c-1.112 1.377-2.32 2.558-3.596 3.532zM336.6 253.152c-.956-.052-1.84.06-2.336.512-.445.406-.546 1.098-.3 2.057.31 1.21.902 2.39 1.62 3.487.894-.906 1.807-1.733 2.74-2.478-.842-1.315-1.398-2.515-1.723-3.578zm26.588-.452c-11.595-6.694-23.62-7.428-25.847-3.572-.407.705-.538 1.847-.178 3.323 1.65.173 3.2.7 3.314.75.195.07.297.28.23.474s-.28.295-.474.227c-.598-.2-1.71-.523-2.84-.675.308.92.796 1.947 1.502 3.06 7.345-5.57 15.725-6.175 23.872-1.47 4.73 2.73 7.927 6.853 9.245 11.92.526 2.023.735 4.198.656 6.416 3.534.748 5.952.396 6.854-1.167 2.516-4.356-6.588-13.66-16.332-19.286zm-8.296 29.402c-.108.166-.328.217-.498.118-2.593-1.685-3.902-3.15-3.908-4.36-.003-.62.35-1.02.56-1.158.172-.112.402-.065.516.107a.37.37 0 0 1-.099.511c-.018.013-.24.186-.23.56.014.53.494 1.72 3.55 3.707.173.113.222.343.1.515zm-5.955-4.413a.37.37 0 0 1-.509-.137.37.37 0 0 1 .135-.507c.782-.45 1.196-1.27 1.405-1.875a.37.37 0 0 1 .473-.229c.194.065.298.28.23.473-.25.726-.754 1.7-1.735 2.275zm-1.206-1.42c-1.052.6-2.974.198-5.712-1.195-.007-.003-.013-.007-.018-.01a.37.37 0 0 1-.147-.49c.093-.183.317-.255.5-.163 3.25 1.654 4.52 1.475 4.986 1.222.335-.182.368-.47.37-.48.02-.2.2-.353.4-.336s.355.188.343.39c-.015.25-.183.756-.722 1.064zm-7.442 4.493c-.14.08-.313.06-.432-.044-.014-.012-1.42-1.227-3.738-1.68a.37.37 0 0 1-.115-.044c-.134-.077-.21-.233-.18-.393a.37.37 0 0 1 .436-.293c1.394.273 2.474.793 3.174 1.21-.686-1.667-2.05-2.858-2.066-2.872-.156-.135-.173-.37-.04-.525s.367-.17.525-.038c.087.076 2.14 1.87 2.615 4.286a.37.37 0 0 1-.18.393zm-2.883 7.678c.022-.014.044-.025.068-.035.032-.012.793-.3 1.613.174.51.294.6.625.707.945.066.215.14.458.365.79.038.066.466.83 1.696.966.217.025.43-.012.658-.052.42-.073.893-.156 1.424.15.82.473.952 1.275.957 1.31a.37.37 0 0 1-.004.137c-.16.725-.563 1.017-.874 1.135-.755.286-1.72-.153-2.272-.47-.22-.128-.375-.236-.422-.27l-2.477-1.428c-1.32-.72-2.012-1.463-2.042-2.206-.024-.58.368-.995.603-1.147zm1.802 2.705l2.517 1.452c.363.26 1.445.89 2.025.668.07-.027.28-.106.393-.524-.04-.14-.18-.488-.577-.718-.296-.17-.56-.125-.922-.06-.257.044-.548.095-.87.058-1.637-.185-2.228-1.28-2.253-1.326-.266-.4-.366-.717-.44-.956-.084-.276-.112-.37-.366-.515-.42-.244-.812-.168-.93-.136-.073.06-.25.23-.237.478.014.26.25.806 1.66 1.58zm11.25-5.01c2.33-.797 4.9.084 5.02.12.192.067.297.28.23.474s-.28.296-.474.23c-.02-.008-1.737-.59-3.52-.354.716.404 1.703 1.073 2.636 2.144a.37.37 0 0 1-.036.524c-.123.107-.296.118-.43.04a.37.37 0 0 1-.095-.078c-1.552-1.782-3.308-2.39-3.325-2.397-.15-.05-.254-.192-.254-.352a.37.37 0 0 1 .25-.352z" class="B D E F"/><path d="M374.252 100.915c-.89.66-2.325.85-3.21-.083-2.13-2.247-2.462-6.947-2.5-8.73 1.44.93 5.06 3.427 6.367 5.766.752 1.347.158 2.457-.648 3.046zm-25.768-13.313c-2.13-2.248-2.462-6.947-2.5-8.73 1.44.93 5.06 3.427 6.367 5.766.752 1.347.158 2.457-.648 3.046-.89.66-2.325.85-3.21-.083z" class="B C"/><path d="M388.6 113.377a.29.29 0 0 1-.058.041c-.157.09-.362.06-.485-.086-5.9-6.925-10.6-6.413-14.385-6.002l-.443.044c-.974 3.264-2.634 5.596-4.943 6.93a9.05 9.05 0 0 1-.39.212c-3.475 1.785-7.182.875-8.144.59l-.323.45c-2.25 3.072-5.047 6.896-1.995 15.46.064.18-.01.373-.168.464-.02.01-.042.02-.064.03-.2.07-.42-.035-.493-.237-3.2-8.95-.134-13.127 2.097-16.176.434-.594.844-1.154 1.168-1.695 1.72-2.872.05-5.627-.27-6.11-4.143 1.074-8.476.13-12.3-2.562-.143.1-.287.2-.427.28-3.003 1.734-5.147-.704-5.17-.73-.5-.522-.774-1.23-.76-1.975.003-.155.026-.306.053-.455-12.67-9.294-17.35-22.16-11.64-32.06 7.126-12.358 19.94-10.24 21.046-10.03.668-.1 5.367-.65 10.22 2.94 5.348 3.957 8.757 11.31 10.14 21.854a2.79 2.79 0 0 1 .534.225c.653.36 1.128.952 1.338 1.664.005.015 1.043 3.1-1.958 4.822-.134.078-.292.146-.442.218.036.396.044.785.05 1.173l1.177.882c1.474 1.142 2.91 2.432 3.832 4.08 1 1.79.18 3.29-.827 4.03-.1.073-.204.14-.313.204-1.148.663-2.79.74-3.87-.4-.334-.356-.605-.765-.854-1.186l-.28-.487c-.063-.113-.107-.234-.162-.35-.66 1.484-1.545 2.85-2.707 4.025.267.535 1.818 3.334 5.15 3.28.63-.01 1.32-.085 2.052-.164 3.756-.408 8.9-.966 15.057 6.272.14.163.12.407-.04.545zm-46.225-9.62c.09.102 1.826 2.05 4.362.477-1.324-1.02-2.578-2.254-3.735-3.69-.21.092-.407.21-.574.37a1.98 1.98 0 0 0-.61 1.407c-.01.54.188 1.05.557 1.437zM360.26 63.32c-4.86-3.597-9.65-2.797-9.7-2.788s-.1.007-.15-.004c-.13-.028-13.166-2.713-20.295 9.65-5.474 9.5-.954 21.87 11.235 30.904.138-.267.31-.516.53-.73.186-.18.4-.317.623-.435a27.6 27.6 0 0 1-1.87-2.825c-1.21-2.093-2.173-3.86-2.943-5.603l-.385.233c-.357.206-.717.4-1.08.58-.19.094-.42.016-.517-.176s-.033-.408.172-.518c3.672-1.825 7.094-5.17 9.87-8.483-.374-1.644-.535-3.35-.507-5.006.002-.138.107-.265.198-.33.12-.066.267-.062.385.01.917.56 1.788 1.192 2.647 1.84 2.41-3.318 3.896-5.964 3.93-6.024.077-.14.232-.216.39-.193.06.01 6.28.92 10.317.27.2-.034.408.1.443.32s-.108.4-.316.443a17.06 17.06 0 0 1-.926.118c1.717 2.292 3.328 4.72 4.783 7.24.583 1 1.083 2.022 1.5 3.03.2-.13.43-.24.674-.31.257-.074.52-.097.78-.096-1.37-10.21-4.663-17.32-9.8-21.12zm-14.235 15.52c.06 1.775.427 6.458 2.546 8.713.88.936 2.296.76 3.167.11.8-.58 1.367-1.68.614-3.028-1.307-2.34-4.9-4.856-6.327-5.794zm25.967 7.835c-.158-.533-.5-.96-.972-1.22s-1.013-.323-1.524-.175c-.217.063-.41.17-.592.3.667 1.723 1.1 3.43 1.33 5.088a3.28 3.28 0 0 0 1.757-3.993zm-1.06 14.236c.88.936 2.296.758 3.167.108.79-.58 1.367-1.68.615-3.028-1.307-2.34-4.9-4.855-6.328-5.794.062 1.776.428 6.458 2.546 8.714zm-2.268-2.506c-.772-2.198-1.1-4.615-1.06-6.928.003-.138.107-.266.198-.33.12-.066.267-.063.385.01a26.57 26.57 0 0 1 1.383.922c-.186-3.15-1.206-6.524-3.142-9.878a71.79 71.79 0 0 0-5.02-7.551c-3.45.21-7.407-.28-8.46-.423-.425.743-1.805 3.08-3.84 5.888l.086.065c1.474 1.14 2.91 2.43 3.832 4.08 1 1.8.18 3.29-.828 4.03a3.35 3.35 0 0 1-.312.204c-1.148.663-2.8.74-3.87-.4-.335-.357-.605-.765-.855-1.186l-.28-.488a6.53 6.53 0 0 1-.385-.827c-.192-.492-.356-.998-.502-1.51-2.21 2.586-4.81 5.156-7.643 7.006.764 1.745 1.733 3.52 2.953 5.63 5.328 9.23 14.216 12.693 21.614 8.422 2.778-1.604 4.694-3.947 5.75-6.724zm-2.868 5.585c-.744.67-1.574 1.28-2.494 1.8a14.64 14.64 0 0 1-2.847 1.266c.458.78 1.534 2.984.753 5.44 1.23.252 6.56.946 8.918-5.15-2.5-.55-3.88-2.576-4.33-3.366zm5.744 3.507a6.51 6.51 0 0 1-.632-.027c-.932 2.513-2.343 4-3.82 4.853-2.64 1.523-5.482 1.055-6.167.91-.09.19-.183.378-.296.567-.125.21-.27.42-.412.63 1.167.3 4.386.905 7.325-.608 2.252-1.16 3.865-3.304 4.843-6.37a13.77 13.77 0 0 1-.84.047zm-11.475-20.196a3.14 3.14 0 0 1-.429-1.644c-.334-.044-.66-.105-.97-.19a.39.39 0 0 1-.275-.475c.055-.207.266-.328.47-.272 2.142.584 5.312-.023 5.344-.03a.39.39 0 0 1 .454.306c.033.168-.046.33-.184.4-.036.02-.075.036-.118.044-.037.008-.305.058-.715.115.554 1.18.338 2.48-.55 2.992-.95.55-2.3-.015-3.028-1.258zm2.787-1.61c-.006-.01-.013-.02-.018-.03-.7.068-1.564.114-2.433.064-.004.386.108.804.33 1.19.496.86 1.4 1.304 1.974.972s.642-1.338.147-2.196zm-.964-4.784a.38.38 0 0 1-.126.045c-2.352.4-5.758.237-6.204-.184a.48.48 0 0 1-.136-.361c.024-.21.215-.363.425-.338a.39.39 0 0 1 .239.121c.515.176 3.23.402 5.54 0 .21-.037.4.104.447.315.03.165-.05.323-.185.402zm-2.52 17.808c1.483-.856 2.476-.246 2.794.196.125.174.087.415-.086.54a.89.89 0 0 1-.032.021c-.17.097-.388.052-.505-.112-.052-.066-.57-.673-1.783.027-1.26.728-1.014 1.595-1.003 1.632.062.203-.046.42-.25.483s-.414-.044-.482-.244c-.02-.06-.48-1.49 1.346-2.543zm-10.784-1.78c-.886.512-2.12.05-2.865-1.02-.254.327-.432.534-.457.562a.41.41 0 0 1-.097.08c-.138.08-.32.066-.447-.046a.39.39 0 0 1-.038-.546c.02-.024 2.13-2.47 2.696-4.613.054-.206.265-.328.47-.272a.39.39 0 0 1 .274.475c-.082.31-.193.625-.322.936a3.13 3.13 0 0 1 1.209 1.193c.718 1.244.528 2.703-.424 3.252zm-.242-2.867c-.222-.386-.53-.69-.864-.88-.392.777-.862 1.502-1.272 2.074.006.01.01.02.016.03.496.858 1.4 1.303 1.975.97s.64-1.336.145-2.195zm-5.78-2.003c-.136.08-.313.068-.44-.04-.164-.138-.186-.382-.05-.545 1.503-1.798 2.664-4.263 2.77-4.798-.026-.085-.024-.18.014-.267.085-.195.31-.284.506-.2.112.05.215.18.244.298.142.598-1.41 3.633-2.942 5.465-.03.036-.065.065-.102.086z" class="B D E F"/><path d="M382.502 70.177l4.624 8.013c.802 1.397.717 2.808-.237 4.186a.78.78 0 0 0-.034.916l3.304 5.713.156.273c.43.777.24 1.46-.524 1.904-.758.44-1.463.262-1.91-.5l-3.434-5.927c-.22-.387-.502-.536-.96-.502-1.19.09-2.22-.263-3.05-1.092-.08-.08-.15-.172-.266-.303l1.923-1.09c.288-.167.4-.43.332-.738a.59.59 0 0 0-.621-.482c-.162.006-.338.073-.483.156l-1.766 1.04-1.266-2.194.952-.513c.434-.248.573-.636.366-.982-.196-.326-.608-.396-1.018-.16l-.92.555-1.244-2.17 1.834-1.053c.525-.313.54-.97.014-1.184-.183-.074-.476-.04-.665.055-.554.277-1.08.61-1.62.92l-.262.14-.486-.845c2.56-1.23 4.98-2.616 7.257-4.132z" class="B C"/><path d="M391.59 88.508c.817 1.425.138 3.36-1.353 3.9a2.82 2.82 0 0 1-3.287-1.202l-3.197-5.516a.5.5 0 0 0-.456-.295c-1.98-.153-3.47-1.093-4.463-2.816l-9.223-15.957c-.828-1.42-1.127-2.903-.7-4.475.336-1.265 1.115-2.272 2.206-3.015 1.325-.9 2.787-1.146 4.685-.642 1.102.324 2.243 1.154 3.008 2.478l9.447 16.375c.958 1.668.98 3.398.155 5.134-.094.2-.102.35.014.55l3.174 5.492zm-4.613-5.338c-.188-.323-.18-.616.018-.912.908-1.355.967-2.757.16-4.16l-9.56-16.57c-1.287-2.23-3.848-2.488-5.638-1.433-.942.556-1.498 1.396-1.78 2.457-.258.974-.208 1.902.26 2.783l1.56 2.74c.045.078.1.15.18.27l.327-.234 1.505-.866c.503-.272 1.06.053.993.6-.025.202-.204.443-.383.558l-1.764 1.02 1.27 2.188.886-.544c.43-.25.81-.17 1.01.193.195.355.075.706-.346.944l-.95.49 1.263 2.196.252-.135 1.566-.887c.182-.09.467-.12.648-.044.517.222.512.875.005 1.178l-1.772 1.017 1.25 2.18.887-.536c.396-.228.8-.152.996.176.208.348.08.732-.34.97l-.92.495 1.272 2.203 1.706-1.005c.14-.08.3-.144.468-.147.3-.007.557.203.614.5.062.308-.033.567-.31.728l-1.86 1.054.264.305c.823.84 1.833 1.207 2.994 1.138.446-.027.723.127.945.515l3.45 5.954c.448.766 1.14.955 1.87.53.738-.43.91-1.105.48-1.886l-.157-.274-3.318-5.738zm-1.765-2.173c-.277.137-.63.056-.822-.193-.044-.058-.08-.124-.116-.188L373.943 62.72c-.216-.375-.222-.626-.013-.872.178-.2.403-.294.736-.272.146.166.322.315.432.503l2.418 4.177 7.854 13.606c.068.118.14.238.178.367.096.313-.048.625-.335.767z" class="B D"/></svg>