<svg xmlns="http://www.w3.org/2000/svg" width="425" height="348" fill="none" xmlns:v="https://vecta.io/nano"><style><![CDATA[.B{fill:#ec7e3b}.C{fill:#171716}.D{stroke:#ec7e3b}.E{stroke-width:3}.F{fill-rule:evenodd}]]></style><path d="M354.68 104.883c-21.242-38.387-55.79-66.28-98.017-78.31-86.757-25.335-177.864 24.824-203.2 111.578-25.08 86.754 25.08 177.86 111.837 203.194 15.1 4.35 30.455 6.654 45.8 6.654 27.383 0 54.255-6.9 78.823-20.473 38.388-21.24 66.283-55.79 78.31-98.015 12.54-41.97 7.422-86.242-13.563-124.63zm-1.28 120.79c-142.803-24.568-225.72 23.544-258.734 50.16l-6.142-8.2c26.36-22.52 118.49-89.057 270.507-74.214-.767 10.748-2.56 21.24-5.63 31.733v.512zm-248.242 61.93c31.222-24.056 109.8-69.097 243.124-47.088-4.095 9.98-9.213 19.193-15.1 27.894-116.956-24.823-186.054 3.583-220.09 26.615-2.815-2.303-5.63-4.862-7.934-7.42zm159.182-109.02c32.502-33.27 73.96-38.643 88.292-39.41 4.095 12.54 6.142 25.59 6.9 38.643-35.06-3.327-66.795-2.56-95.202.768zM211.108 35.53c13.564 0 27.383 1.79 41.203 5.886 38.132 11.004 69.6 36.34 88.548 70.887 2.047 3.84 3.84 7.678 5.63 11.516-22.01 2.048-71.145 11.517-105.694 58.093-30.455 5.374-56.815 13.82-79.335 23.288 4.094-13.82 9.724-26.103 15.61-36.084 4.606.768 9.47 1.024 14.075 1.024 22.52 0 43.25-8.7 57.838-24.824 19.194-20.985 24.824-50.927 15.355-80.1l-1.535-4.606-4.863-1.024c-29.942-6.9-59.373 1.535-78.567 22.264-18.938 20.73-24.824 50.16-15.61 79.333-8.2 14.075-15.867 31.477-20.474 52.206-30.7 14.843-51.695 30.71-63.468 40.7l-3.84-7.42c84.198-65.514 63.724-159.178 55.023-187.584 23.545-15.1 51.44-23.544 80.103-23.544zm-7.422 88.29l-4.862-5.886c-.768.768-9.98 8.446-20.986 22.777-1.79-17.914 3.583-34.804 15.1-47.344 13.82-15.1 34.805-21.752 56.814-18.17 5.374 21.753.768 43.25-13.052 58.348-12.028 13.308-29.687 19.96-48.625 18.938 11.005-14.843 20.218-22.777 20.474-23.032l-4.863-5.63zm-85.99-55.02c8.2 29.43 20.986 106.46-47.09 162.505l-3.07-10.237c38.388-47.344 38.9-98.526 32-134.866a116.95 116.95 0 0 1 18.17-17.402zM68.56 142.502c4.095-14.33 10.237-27.383 17.914-39.155 3.07 28.15-.256 62.955-22.777 96.735-2.303-18.68-.768-38.386 4.862-57.58zm101.088 184c-4.095-1.28-8.19-2.56-12.284-4.094 26.615-9.213 65.26-14.587 119.514-5.374-33.27 16.378-71.145 19.705-107.23 9.468zm127.448-21.752c-77.288-16.635-127.704-6.398-159.182 8.19-4.095-2.303-8.19-4.862-11.772-7.422 8.7-5.63 19.705-11.26 33.27-16.378 32.758-12.284 86.245-22.008 163.02-6.9-7.678 8.446-16.123 15.867-25.336 22.52z" fill="#fafafa"/><g class="F"><path d="M423.27 144.374c-1.652.96-3.772.387-4.725-1.282s-.384-3.81 1.27-4.77a3.43 3.43 0 0 1 1.788-.468c.34.007.613.29.607.636a.62.62 0 0 1-.629.613c-.4-.007-.798.097-1.148.3a2.26 2.26 0 0 0-.815 3.065c.612 1.072 1.974 1.44 3.035.823a2.26 2.26 0 0 0 .816-3.064c-.17-.3-.07-.68.227-.853s.674-.07.844.228c.953 1.67.384 3.81-1.27 4.772zm-12.147 167.144l-2.308-2.33a1.42 1.42 0 0 1 0-2.005c.55-.555 1.44-.555 1.987 0l2.308 2.33a1.43 1.43 0 0 1 0 2.007c-.55.553-1.438.553-1.987 0zm-.32-6.884c-.548.553-1.438.553-1.987 0-.274-.278-.41-.64-.41-1.004s.137-.726.41-1.003l2.308-2.33c.55-.553 1.438-.553 1.987 0a1.43 1.43 0 0 1 0 2.006l-2.308 2.33zm-6.818 6.884c-.55.553-1.44.553-1.987 0a1.42 1.42 0 0 1-.412-1.003c0-.363.137-.726.412-1.004l2.307-2.33c.55-.555 1.44-.555 1.987 0s.55 1.452 0 2.005l-2.307 2.33zm.32-6.884l-2.307-2.33c-.275-.276-.412-.64-.412-1.002a1.42 1.42 0 0 1 .412-1.004c.548-.553 1.438-.553 1.987 0l2.307 2.33a1.43 1.43 0 0 1 0 2.007c-.548.553-1.438.553-1.987 0zM348.57 172.34h-2.168c-.516 0-.933-.423-.933-.943s.417-.942.933-.942h2.168c.516 0 .933.422.933.942s-.417.943-.933.943zm-2.51-2.74c-.182.184-.42.277-.66.277a.93.93 0 0 1-.661-.277.95.95 0 0 1 0-1.332l1.534-1.548c.364-.368.955-.368 1.32 0a.95.95 0 0 1 0 1.333l-1.534 1.547zm-.013 3.587l1.533 1.548c.365.368.365.964 0 1.332a.92.92 0 0 1-.66.276c-.24 0-.477-.09-.66-.276l-1.533-1.547a.95.95 0 0 1 0-1.333c.365-.368.956-.368 1.32 0zm-3.08-4.336a.94.94 0 0 1-.933-.943v-2.188a.94.94 0 0 1 .933-.943.94.94 0 0 1 .934.943v2.188a.94.94 0 0 1-.934.943zm-.02 5.072c.516 0 .934.42.934.943v2.188a.94.94 0 0 1-.934.943.94.94 0 0 1-.933-.943v-2.188c0-.522.418-.943.933-.943zm-2.42-4.06a.93.93 0 0 1-.66-.277l-1.533-1.548a.95.95 0 0 1 0-1.333c.365-.368.955-.368 1.32 0l1.533 1.548a.95.95 0 0 1 0 1.333c-.182.184-.42.277-.66.277zm-.082 1.513a.94.94 0 0 1-.934.943h-2.168a.94.94 0 0 1-.933-.943c0-.52.418-.942.933-.942h2.168a.94.94 0 0 1 .934.942zm-12.2-167.256c-1.127 0-2.042-.922-2.042-2.06S327.128 0 328.255 0s2.043.922 2.043 2.062-.915 2.06-2.043 2.06zM288.82 57.69c-3.144 0-5.702-2.582-5.702-5.756s2.558-5.756 5.702-5.756 5.7 2.583 5.7 5.756-2.557 5.756-5.7 5.756zm0-9.454c-2.02 0-3.663 1.66-3.663 3.698s1.643 3.698 3.663 3.698 3.663-1.66 3.663-3.698-1.643-3.698-3.663-3.698zM141.153 66.147c-.388.39-1.016.39-1.403 0l-2.522-2.546-2.52 2.546c-.388.39-1.016.39-1.404 0a1.01 1.01 0 0 1 0-1.417l2.522-2.546-2.522-2.546a1.01 1.01 0 0 1 0-1.416c.388-.39 1.016-.39 1.404 0l2.52 2.546 2.522-2.546c.387-.39 1.015-.39 1.403 0s.388 1.025 0 1.416l-2.52 2.546 2.52 2.546a1.01 1.01 0 0 1 0 1.417zm-33.615-52.663c-2.872 1.672-6.556.673-8.212-2.227s-.666-6.617 2.206-8.29c.945-.55 2.02-.832 3.106-.812a1.08 1.08 0 0 1 1.055 1.104 1.08 1.08 0 0 1-1.093 1.065c-.697-.012-1.387.168-1.995.522-1.845 1.074-2.48 3.463-1.416 5.326s3.43 2.504 5.275 1.43 2.48-3.463 1.417-5.326a1.09 1.09 0 0 1 .394-1.483 1.07 1.07 0 0 1 1.468.398c1.656 2.9.666 6.618-2.205 8.3zm-12.536 166.1h-4.165a1.78 1.78 0 0 1-1.268-.53 1.82 1.82 0 0 1-.525-1.281c0-1 .802-1.81 1.793-1.8h4.165c1 .001 1.792.8 1.793 1.8s-.803 1.81-1.793 1.81zm-8.236 8.315c-.495 0-.943-.204-1.268-.53s-.525-.78-.525-1.28v-4.205c0-1 .803-1.8 1.793-1.8s1.793.8 1.793 1.8v4.205c0 1-.803 1.8-1.793 1.81zm0-12.425c-.495 0-.943-.203-1.268-.53s-.525-.78-.525-1.28v-4.206c0-1 .803-1.81 1.793-1.81s1.793.81 1.793 1.81v4.206c0 1-.803 1.8-1.793 1.8zm-4.07 4.1H78.53c-.495 0-.943-.203-1.268-.53a1.82 1.82 0 0 1-.525-1.281c0-1 .803-1.81 1.793-1.8h4.165c1 .001 1.793.8 1.793 1.8s-.802 1.81-1.793 1.81zM14.27 298.55h-2.84v2.866c0 .44-.353.798-.8.798s-.8-.357-.8-.798v-2.866h-2.84c-.437 0-.8-.357-.8-.798s.353-.797.8-.797h2.84v-2.867c0-.44.354-.798.8-.798s.8.358.8.798v2.867h2.84c.436 0 .8.357.8.797s-.354.798-.8.798zM2.145 145.14C.96 145.14 0 144.17 0 142.976s.96-2.166 2.145-2.166 2.145.97 2.145 2.166-.96 2.165-2.145 2.165zm337.71 28.035c.365-.368.956-.368 1.32 0a.95.95 0 0 1 0 1.332l-1.534 1.548c-.182.184-.42.276-.66.276s-.478-.092-.66-.276c-.365-.368-.365-.965 0-1.332l1.533-1.548z" class="B"/><path d="M294.9 344.86c-.665 0-1.31-.36-1.642-.993-.48-.91-.133-2.04.772-2.522l5.802-3.232a1.85 1.85 0 0 1 2.535.681c.513.892.2 2.034-.677 2.55l-5.924 3.3c-.276.148-.573.217-.866.217zm15.98-9.616a1.85 1.85 0 0 1-1.542-.827c-.57-.855-.344-2.015.506-2.59l5.44-3.826a1.85 1.85 0 0 1 2.593.411c.603.834.42 2-.4 2.607l-5.553 3.906c-.317.214-.677.318-1.033.318zm14.904-11.246c-.53 0-1.058-.228-1.425-.67-.657-.792-.552-1.968.235-2.63l5.017-4.376c.76-.7 1.934-.63 2.62.137s.625 1.947-.137 2.636l-5.122 4.468c-.347.29-.77.434-1.188.434zM92.535 319.6a1.84 1.84 0 0 1-1.241-.478l-4.956-4.66c-.735-.718-.753-1.9-.04-2.64a1.85 1.85 0 0 1 2.624-.04l4.854 4.565c.762.7.823 1.87.137 2.636a1.85 1.85 0 0 1-1.379.616zm246.923-8.34a1.84 1.84 0 0 1-1.293-.528c-.735-.718-.752-1.9-.038-2.64l4.54-4.88a1.85 1.85 0 0 1 2.621-.138c.76.69.822 1.87.136 2.636l-4.635 4.982c-.364.377-.848.566-1.33.566zM79.35 306.336c-.507 0-1.012-.207-1.38-.617l-4.445-5.15c-.657-.79-.552-1.968.234-2.628a1.85 1.85 0 0 1 2.614.234l4.353 5.044c.686.765.626 1.946-.135 2.636a1.84 1.84 0 0 1-1.242.48zm272.387-9.198c-.402 0-.807-.13-1.147-.4-.805-.638-.944-1.81-.3-2.62l4.014-5.332a1.85 1.85 0 0 1 2.592-.411c.828.607 1.01 1.775.408 2.607l-4.098 5.444c-.366.468-.9.712-1.46.712zM67.6 291.78c-.573 0-1.138-.265-1.5-.767l-3.886-5.584c-.572-.854-.346-2.014.504-2.59a1.85 1.85 0 0 1 2.575.506l3.806 5.47c.604.834.42 2-.407 2.607-.33.24-.712.358-1.09.358zm294.884-9.97a1.84 1.84 0 0 1-.988-.288c-.866-.55-1.126-1.702-.58-2.574l3.44-5.727a1.85 1.85 0 0 1 2.536-.68 1.87 1.87 0 0 1 .676 2.55l-3.512 5.848c-.353.562-.956.87-1.572.87zm9.11-16.382c-.275 0-.554-.06-.818-.192a1.87 1.87 0 0 1-.845-2.498l2.826-6.062a1.85 1.85 0 0 1 2.45-.945 1.87 1.87 0 0 1 .939 2.464l-2.886 6.19a1.85 1.85 0 0 1-1.666 1.042zM37.447 223.824a1.86 1.86 0 0 1-1.813-1.478l-1.284-6.7c-.175-1.015.502-1.98 1.512-2.156s1.97.504 2.145 1.52l1.257 6.56c.213 1.01-.427 2-1.43 2.214a1.84 1.84 0 0 1-.388.041zm-2.91-18.518a1.86 1.86 0 0 1-1.843-1.671l-.58-6.797c-.07-1.028.704-1.92 1.727-1.987s1.907.71 1.975 1.737l.57 6.658c.107 1.024-.633 1.943-1.652 2.05a1.85 1.85 0 0 1-.196.01zm355.16-12.144c-.024 0-.047 0-.07-.001-1.024-.038-1.824-.904-1.786-1.934l.123-6.68v-.338a1.86 1.86 0 0 1 1.852-1.869h.003c1.024 0 1.854.834 1.856 1.863v.344l-.125 6.82a1.86 1.86 0 0 1-1.853 1.797zm-356.138-6.58a1.86 1.86 0 0 1-1.855-1.865v-.17l.12-6.648c.037-1.03.9-1.842 1.92-1.797 1.024.036 1.824.902 1.788 1.932l-.117 6.513v.17a1.86 1.86 0 0 1-1.856 1.865zm355.843-12.507a1.86 1.86 0 0 1-1.849-1.74l-.575-6.656c-.108-1.025.63-1.944 1.65-2.053s1.933.635 2.04 1.66l.587 6.796a1.86 1.86 0 0 1-1.725 1.988c-.043.004-.086.005-.128.005zM34.505 167.86c-.063 0-.128-.004-.192-.01-1.02-.105-1.76-1.022-1.656-2.047l.82-6.772a1.86 1.86 0 0 1 2.097-1.588c1.014.144 1.72 1.09 1.578 2.1l-.805 6.632a1.86 1.86 0 0 1-1.843 1.675zm352.664-12.396a1.86 1.86 0 0 1-1.825-1.547l-1.264-6.56c-.214-1.008.425-2 1.427-2.215s1.988.428 2.202 1.436l1.29 6.698c.175 1.016-.5 1.983-1.5 2.16a1.85 1.85 0 0 1-.321.029zm-349.79-6.126c-.127 0-.255-.013-.384-.04-1.003-.213-1.645-1.202-1.434-2.2l1.523-6.65c.25-1 1.257-1.606 2.25-1.357a1.87 1.87 0 0 1 1.35 2.263l-1.49 6.512a1.86 1.86 0 0 1-1.814 1.483zm345.63-12.15a1.86 1.86 0 0 1-1.783-1.355l-1.943-6.4a1.87 1.87 0 0 1 1.188-2.354c.973-.32 2.022.215 2.34 1.195l1.984 6.525c.28.99-.3 2.023-1.276 2.306-.17.048-.34.073-.5.073zm-340.84-5.97c-.19 0-.38-.03-.57-.09a1.87 1.87 0 0 1-1.195-2.35l2.217-6.47c.353-.97 1.418-1.466 2.38-1.112a1.87 1.87 0 0 1 1.105 2.395l-2.17 6.335a1.86 1.86 0 0 1-1.765 1.293zm293.455-73.494a1.84 1.84 0 0 1-1.29-.526l-4.86-4.56c-.762-.69-.825-1.87-.14-2.635a1.85 1.85 0 0 1 2.621-.141l4.96 4.656c.736.717.754 1.898.04 2.638-.364.378-.848.568-1.333.568zM92.393 53.362c-.507 0-1.01-.207-1.378-.616-.686-.765-.626-1.945.135-2.636l5.117-4.473a1.85 1.85 0 0 1 2.614.233c.658.79.554 1.967-.232 2.63l-5.013 4.38c-.355.322-.8.48-1.243.48zm229.185-7.967a1.84 1.84 0 0 1-1.145-.398l-5.307-4.03c-.83-.605-1.014-1.772-.412-2.607a1.85 1.85 0 0 1 2.593-.413l5.418 4.114c.806.637.946 1.81.313 2.62a1.85 1.85 0 0 1-1.46.714zm-214.718-3.85a1.85 1.85 0 0 1-1.501-.766c-.604-.833-.422-2 .406-2.608l5.55-3.91a1.85 1.85 0 0 1 2.575.506c.572.855.347 2.015-.503 2.6l-5.435 3.83c-.33.24-.713.358-1.092.358zm199.462-6.948c-.337 0-.678-.093-.985-.287l-5.7-3.452c-.887-.515-1.192-1.655-.68-2.55a1.85 1.85 0 0 1 2.534-.684l5.82 3.524c.868.548 1.13 1.7.584 2.574a1.85 1.85 0 0 1-1.573.873zm-183.86-3.284a1.85 1.85 0 0 1-1.607-.93 1.87 1.87 0 0 1 .675-2.55l5.92-3.305a1.85 1.85 0 0 1 2.509.773c.48.9.135 2.04-.77 2.524l-5.798 3.237c-.293.17-.613.25-.93.25zm167.56-5.854a1.84 1.84 0 0 1-.816-.191l-6.03-2.834a1.87 1.87 0 0 1-.943-2.463 1.85 1.85 0 0 1 2.449-.947l6.16 2.894c.92.454 1.3 1.572.85 2.497-.322.66-.982 1.045-1.667 1.045zm-150.99-2.677c-.7 0-1.387-.41-1.695-1.105a1.87 1.87 0 0 1 .936-2.465l6.227-2.66a1.85 1.85 0 0 1 2.414 1.034 1.87 1.87 0 0 1-1.028 2.428L139.8 22.62c-.246.1-.503.163-.756.163z" fill="#f0f0f0"/></g><path d="M274.797 16.907a1.88 1.88 0 0 0-.38-1.889c-.198-.217-.45-.4-.744-.496l-6.418-2.17c-.977-.3-2.02.235-2.328 1.218a1.87 1.87 0 0 0 1.211 2.341l6.287 2.126c.964.347 2.026-.16 2.372-1.13zm-17.785-5.557a1.87 1.87 0 0 0-.434-1.702c-.24-.264-.56-.462-.93-.552L249.035 7.6c-1.005-.206-1.984.445-2.2 1.456s.444 1.995 1.447 2.202l6.478 1.455c.995.243 2-.37 2.24-1.372zM238.74 7.684a1.87 1.87 0 0 0-.47-1.51 1.85 1.85 0 0 0-1.12-.589l-6.736-.786c-1.02-.1-1.927.65-2.026 1.677s.648 1.938 1.667 2.038l6.597.77a1.86 1.86 0 0 0 2.088-1.6zM220.18 5.95a1.86 1.86 0 0 0-.485-1.316c-.326-.36-.792-.6-1.314-.606l-6.783-.08c-1.025.007-1.85.85-1.843 1.88a1.86 1.86 0 0 0 1.87 1.852l6.644.077a1.86 1.86 0 0 0 1.911-1.809zm-18.646.214c-.032-.434-.2-.823-.48-1.122-.37-.407-.917-.646-1.507-.602l-6.76.63c-1.018.114-1.75 1.038-1.637 2.062s1.03 1.762 2.05 1.647l6.62-.62c1.022-.076 1.788-.97 1.713-1.998zm-18.53 2.166a1.86 1.86 0 0 0-.456-.927 1.85 1.85 0 0 0-1.7-.579l-6.66 1.34c-1 .22-1.634 1.216-1.414 2.222s1.2 1.644 2.2 1.424l6.524-1.3c1.008-.183 1.678-1.154 1.497-2.167zm-18.21 4.102c-.083-.284-.226-.533-.412-.737-.462-.5-1.187-.74-1.888-.534l-6.5 2.035a1.87 1.87 0 0 0-1.175 2.36 1.85 1.85 0 0 0 2.347 1.18l6.355-1.993a1.87 1.87 0 0 0 1.263-2.313z" fill="#f0f0f0"/><g class="F"><path d="M85.52 102.602l-18.27 10.72c-2.028 1.192-3.887.706-5.048-1.326l-.79-1.39 24.632-14.45c.422.914.952 1.77 1.22 2.703.423 1.482-.293 2.887-1.744 3.74zm-6.68.867c-.25-.472-.777-.58-1.336-.254l-5.85 3.432c-.566.333-.743.833-.477 1.296s.778.548 1.346.218l2.878-1.688 2.973-1.745c.53-.316.705-.8.467-1.26zM66.668 91.144c-3.498 2.038-7.643.9-9.632-2.645-1.953-3.48-.772-7.668 2.74-9.71 3.483-2.026 7.64-.903 9.607 2.593 1.978 3.52.814 7.705-2.714 9.76zm-.725-10.186c-.263-.128-.66-.188-.91-.076-.232.105-.42.457-.503.736-.367 1.24-.7 2.494-1.053 3.835l-2.625-.72c-.598-.157-1.048.068-1.2.57-.158.523.123.966.743 1.136l3.392.908c.59.154 1.013-.096 1.18-.69.132-.464.244-.932.37-1.398l.902-3.33c.104-.387.076-.79-.298-.972zm-26.58-9.235c-.726-1.704-.1-3.407 1.542-4.38l18.303-10.74c2.032-1.2 3.874-.697 5.04 1.34l.777 1.366-24.548 14.4c-.385-.678-.82-1.3-1.113-1.986z" class="B D E"/><path d="M86.043 104.35L68.24 114.793c-2.87 1.684-6.035.85-7.668-2.023l-22.43-39.467c-1.552-2.732-.67-6 2.068-7.608l18.1-10.613c2.674-1.566 5.92-.71 7.44 1.964l22.43 39.467c1.674 2.95.8 6.112-2.128 7.836zm-21.82-46.41c-1.166-2.04-3-2.533-5.043-1.343L40.864 67.342c-1.653.976-2.27 2.68-1.542 4.384.293.687.728 1.3 1.114 1.988L65 59.305l-.777-1.367zm1.646 2.97L41.33 75.303l19.182 33.755L85.05 94.665 65.87 60.91zm21.388 37.978c-.267-.934-.796-1.79-1.22-2.705l-24.65 14.46.79 1.4c1.16 2.033 3.02 2.52 5.05 1.326l18.282-10.728c1.452-.854 2.168-2.26 1.744-3.742zm-8.897 5.87l-5.855 3.434c-.568.33-1.082.242-1.347-.218s-.09-.962.477-1.296l5.855-3.434c.56-.326 1.086-.218 1.337.253.24.45.064.945-.467 1.26zm-18.734-19.44c.153-.503.602-.728 1.202-.57l2.626.722 1.054-3.838c.082-.28.27-.632.503-.736.25-.113.646-.052.91.075.374.182.403.585.3.973l-.903 3.332-.37 1.4c-.168.593-.6.843-1.18.69l-3.395-.908c-.62-.17-.902-.614-.744-1.136zm14.98-19.733c2.034 1.148 3.643 2.74 4.826 4.723 1.123 2.08 1.678 4.277 1.618 6.62-.008.31-.25.72-.508.886-.205.13-.658.044-.89-.11-.192-.13-.3-.498-.312-.763-.034-4.367-1.897-7.645-5.62-9.834-.5-.288-.64-.77-.4-1.218.254-.47.752-.604 1.285-.304zm10.17 14.51c-.108.573-.538.858-1.037.762s-.766-.523-.667-1.092c.744-4.3-.573-8.088-2.862-11.588-1.417-2.168-3.23-3.94-5.543-5.142-.453-.236-.937-.415-1.413-.602-.564-.22-.814-.662-.635-1.162s.656-.714 1.23-.51c2.44.868 4.46 2.365 6.15 4.297.937 1.072 1.738 2.267 2.6 3.407 1.587 3.085 2.562 6.295 2.405 9.81-.027.61-.113 1.22-.226 1.82zm-36.96 17.322c-1.656-1.164-3.13-2.526-4.347-4.156-.307-.41-.586-.844-.765-1.103-1.194-2.185-1.748-4.34-1.742-6.645.001-.28.046-.662.224-.82a1.3 1.3 0 0 1 .919-.284c.42.055.564.433.608.87.112 1.116.164 2.255.427 3.336.684 2.822 2.536 4.84 4.692 6.613.3.255.64.486.962.727.488.367.595.85.287 1.3-.3.414-.792.504-1.265.17zm-9.5-15.993c.477.108.735.51.64 1.058-.748 4.372.595 8.188 2.942 11.726 1.37 2.066 3.106 3.757 5.292 4.94.497.27 1.03.476 1.556.687.58.233.834.64.672 1.142-.168.52-.66.742-1.266.526-2.256-.804-4.17-2.148-5.766-3.907-1.066-1.176-1.98-2.492-2.962-3.746l.105-.087c-1.726-3.12-2.713-6.437-2.487-10.07a10.56 10.56 0 0 1 .212-1.543c.118-.557.57-.84 1.06-.727z" class="C"/><path d="M392.62 90.473l-3-11.653c2.813-.506 5.84 1.615 6.533 4.6.808 3.5-1.537 6.4-3.532 7.043zm-36.695-30.25c2.968-.916 6.34.626 7.332 3.377l-11.6 3.12c-.448-2.194 1.064-5.5 4.258-6.498zm13.487 23.162c3.113 1.8 4.083 5.954 2.168 9.28s-5.992 4.56-9.105 2.76-4.083-5.955-2.168-9.28 5.993-4.56 9.105-2.76z" class="B D E"/><path d="M396.82 89.01c-1.033 1.687-2.503 2.842-4.384 3.444-.766.244-1.14.038-1.346-.744l-3.42-13.08c-.186-.716.04-1.113.747-1.283 2.112-.508 4.09-.174 5.836.875 3.75 2.5 4.82 7.114 2.567 10.8zm-.696-5.527c-.695-2.993-3.72-5.113-6.53-4.61l3.003 11.643c1.994-.642 4.337-3.547 3.528-7.035zm-8.723 9.982c-1.695 8.894-8.856 15.955-17.815 17.545-.442.078-.627.215-.702.686-.317 1.998-.682 3.988-1.044 5.98-.046.25-.133.52-.285.715-.24.304-.592.35-.943.188-.396-.183-.553-.512-.48-.94l1.097-6.25c-9.418.135-16.36-3.88-20.938-12.114l-.734.598-4.037 3.4c-.537.45-1.137.367-1.412-.164-.205-.396-.084-.795.373-1.18l4.69-3.926c.346-.284.43-.515.272-.958-1.914-5.41-1.84-10.818.417-16.132 4.735-11.137 16.717-15.832 26.82-12.55 10.662 3.464 16.83 14.03 14.72 25.102zm-11.29-21.728c-9.576-5.553-21.94-2.18-27.554 7.514-5.6 9.674-2.382 22.13 7.144 27.66 9.685 5.62 22.032 2.27 27.66-7.508 5.594-9.717 2.35-22.1-7.25-27.666zM357 104.828c-8.435-4.984-11.285-15.926-6.337-24.33 5.094-8.65 15.926-11.53 24.426-6.5 8.365 4.95 11.066 15.908 6.025 24.44-4.936 8.358-15.876 11.256-24.114 6.39zm17.015-29.485c-7.66-4.41-17.487-1.696-21.915 6.05s-1.83 17.585 5.794 21.97c7.658 4.404 17.475 1.704 21.922-6.028 4.423-7.69 1.806-17.614-5.8-21.992zm1.514 21.153c-.665-.383-.874-1.224-.472-1.903.388-.655 1.204-.876 1.852-.504.665.383.874 1.225.472 1.904-.387.654-1.204.876-1.852.503zm-4.285-16.354c-.648-.384-.856-1.195-.475-1.853a1.35 1.35 0 0 1 1.885-.502c.64.38.852 1.204.476 1.86-.39.677-1.214.894-1.886.496zm-3.664 7.063c-.11.314-.13.544.108.843.68.857.587 2.073-.22 2.845-.287.276-.322.516-.257.868l1.536 8.533c.037.205.08.4.104.617.06.524-.213.93-.676 1.022-.45.09-.876-.198-.978-.713-.182-.92-.335-1.85-.5-2.775l-1.137-6.376c-.064-.37-.126-.695-.496-.72-.92-.484-1.366-1.304-1.26-2.22a2.14 2.14 0 0 1 1.647-1.882c.29-.073.42-.197.518-.484l2.206-6.326c.27-.768.66-1.084 1.16-.918.448.148.785.56.444 1.466-.776 2.057-1.465 4.146-2.198 6.22zm-8.298 13.74c-.644-.373-.862-1.195-.493-1.86.383-.687 1.218-.928 1.88-.543.638.37.862 1.21.498 1.863-.377.677-1.228.92-1.886.54zm-4.294-16.33a1.41 1.41 0 0 1-.499-1.872c.37-.658 1.253-.9 1.9-.524.627.366.857 1.23.498 1.872-.372.664-1.25.905-1.9.524zm9.428-19.443l-13.066 3.577c-.746.204-1.106-.022-1.26-.796-.595-3.018.204-5.632 2.51-7.665 2.324-2.05 5.016-2.5 7.92-1.475.098.034.19.08.284.127l.742.36c1.82 1.1 3.003 2.58 3.586 4.533.224.752.02 1.136-.717 1.34zm-8.503-4.89c-3.192.984-4.702 4.297-4.253 6.488l11.582-3.113c-.99-2.75-4.363-4.29-7.33-3.376z" class="C"/><path d="M372.52 233.352l.336-.53 5.307-7.77c.225-.332.43-.412.815-.302l5.696 1.566-5.66 5.984 4.792 1.31.057.156-9.164 6.316-.088-.078 3.364-5.16-5.455-1.5z" class="B D E"/><path d="M405.343 231.604c-1.564 4.692-6.526 8.012-11.5 7.42-1.997-.24-3.952-.855-6-1.317l.582-2.215.635.144c1.43.366 2.847.804 4.292 1.1 4.273.848 8.787-1.975 10.013-6.203 1.437-4.96-.9-9.6-5.804-11.475-.152-.058-.302-.12-.47-.188 1.527-5.424.34-10.033-4.542-12.942-4.96-2.958-9.522-1.645-13.472 2.43-1.493-2.242-3.46-3.46-6.136-2.662-2.645.79-3.677 2.85-3.738 5.54-.65-.044-1.25-.11-1.85-.122-4.438-.085-8.043 2.913-8.986 7.46-.828 3.995 1.47 8.392 5.32 10.018 1.134.48 2.36.734 3.544 1.1.226.067.455.124.714.195l-.55 2.088c-5.388-.924-10.357-3.504-11.272-10.47a11.14 11.14 0 0 1 10.495-12.608c.48-.024.69-.17.84-.633 1.254-3.83 5.355-5.95 9.21-4.648.47.158.927.375 1.358.622s.82.564 1.103.763c1.33-.7 2.546-1.503 3.872-2.016 8.666-3.352 17.996 4.112 16.823 13.444-.105.832.053 1.228.8 1.677 4.297 2.58 6.56 8.022 4.728 13.518zm-36.612 3.156c.126-.215.213-.388.322-.545L377 222.593c.23-.338.425-.454.844-.336l10.793 2.96-5.673 5.997 6.04 1.65-22.574 15.542-.085-.077 7.886-12.062-5.51-1.505zm5.766 5.393l9.162-6.317-.057-.157-4.8-1.31 5.66-5.986-5.694-1.565c-.385-.1-.6-.03-.814.302l-5.306 7.773c-.102.15-.194.306-.336.53l5.452 1.49-3.363 5.16.087.078z" class="C"/><path d="M80.54 259.082l-1.786.487-1.788.48c-.628.157-1.135-.104-1.293-.642-.163-.554.158-1.08.804-1.262l3.573-.97c.62-.16 1.14.112 1.296.642.162.548-.17 1.08-.806 1.266zm-3.89-7.297l-1.788.48c-.605.147-1.132-.155-1.263-.696-.125-.52.167-1.032.74-1.194l3.692-1.006c.6-.156 1.132.158 1.263.697.127.52-.17 1.024-.74 1.196l-1.904.522zm-53.668-9.818c.513-.683 1.13-.98 1.822-1.168l23.86-6.47c.628-.166 1.247-.158 1.918.17l-9.982 16.322-17.62-8.854zm1.652 10.403c.14.575-.204 1.055-.914 1.252l-5.302 1.44c-.695.183-1.245-.087-1.385-.666-.137-.56.19-1.05.855-1.232l5.36-1.456c.703-.19 1.243.078 1.385.66z" class="B"/><path d="M81.12 254.734l-5.36 1.456c-.7.184-1.247-.105-1.377-.684-.126-.558.212-1.04.873-1.225l2.68-.73 2.682-.724c.67-.175 1.194.07 1.36.62.17.568-.168 1.097-.858 1.287zm-7.342-5.32c-.483.134-1-.14-1.176-.672-.158-.476-.263-.968-.44-1.634l-.435.65-9.587 15.696c-.6.985-.877 1.064-1.91.548l-4.778-2.39c-.704-.354-.923-.83-.667-1.396.264-.586.8-.713 1.522-.355l4.406 2.196 9.988-16.34c-.692-.322-1.34-.328-2.007-.146l-7.933 2.154-.537.145c-.663.158-1.195-.103-1.343-.66s.183-1.07.834-1.25l8.35-2.265c2.62-.695 5.415.953 6.15 3.618l.237.914c.102.547-.198 1.053-.676 1.187zm-19.166 9.38l-23.688 6.428c-2.547.69-5.35-.965-6.083-3.554l-.467-1.767c-.17-.682.075-1.217.62-1.376.56-.165 1.06.187 1.255.897l.666 2.51.577-.65 6.5-7.9.374-.416c.377-.346.796-.337 1.186-.05.425.314.516.754.28 1.228-.1.202-.26.375-.406.55l-7 8.522c.724.34 1.393.266 2.07.082l23.748-6.446c.647-.176 1.21-.48 1.66-1.105l-1.96-.858-7.465-3.223-.396-.178c-.542-.292-.735-.8-.504-1.312.22-.49.692-.7 1.242-.483l2.284.972 6.78 2.93c.162.07.334.116.59.203l-4.7-17.808-.384.555-9.587 15.704c-.606.992-.9 1.08-1.908.568l-16.763-8.436-.98-.475.367 1.387c.197.77-.04 1.332-.62 1.483s-1.044-.216-1.255-.99c-.694-2.555-.057-4.735 1.847-6.096.478-.34 1.042-.61 1.606-.762l23.626-6.423c2.615-.708 5.428.954 6.14 3.628l4.32 16.33c.727 2.77-.86 5.596-3.565 6.334zm-6.195-24.436l-23.86 6.47c-.692.188-1.31.484-1.822 1.168l17.62 8.866 9.98-16.334c-.672-.328-1.29-.337-1.92-.17zM23.35 248.473c.16.554-.165 1.068-.81 1.26l-.893.244-2.68.725c-.62.153-1.136-.115-1.3-.65-.16-.554.162-1.077.81-1.26l3.573-.972c.612-.16 1.135.117 1.29.65zm-2.8 8.118l1.786-.486 1.787-.483c.62-.152 1.14.12 1.292.653.157.548-.175 1.082-.815 1.26l-3.573.966c-.623.162-1.134-.11-1.29-.65-.16-.555.166-1.07.812-1.26zm22.987 6.302c.576-.177 1.074.186 1.277.948l2.466 9.313.682-.818 6.38-7.757c.118-.144.235-.293.372-.418.4-.363.83-.347 1.233-.02.415.337.465.78.218 1.24-.097.182-.245.336-.377.497l-7.006 8.524c.72.343 1.386.273 2.063.09l23.69-6.43c.67-.18 1.254-.483 1.72-1.112l-.696-.328-8.89-3.837c-.425-.182-.777-.417-.82-.924-.068-.777.668-1.263 1.445-.94l3.42 1.475 5.47 2.364c.18.078.368.137.713.266l-.496-1.876-.188-.732c-.124-.598.142-1.103.648-1.254.522-.156 1.043.16 1.22.774l.542 2.073c.527 2.5-1.062 5.258-3.47 5.918l-23.987 6.51c-2.482.665-5.274-1.04-5.963-3.574l-2.26-8.528c-.194-.737.035-1.27.594-1.443z" class="C"/><path d="M264.762 226.87l-13.65-4.476-8.392-8.416-9.837-4.016v-15.886c11.054-8.854 20.45-22.084 20.45-37.283V153c5.112 0 9.023-4.35 9.023-9.716s-3.91-9.715-9.023-9.715l.003-24.464c-1.843-2.692-3.98-4.68-6.435-5.175-12.783-2.576-27.14-6.422-34.403-11.648l-4.43-3.67c-14.06 17.045-29.575 17.89-47.053 20.017-.486.06-.944-.306-1.373 0v24.94c-5.112 0-8.933 4.35-8.933 9.715s3.82 9.716 8.933 9.716v3.794c0 15.24 9.444 28.498 20.54 37.352v15.817l-9.837 4.016-8.397 8.42-13.325 4.366L115 231.43c27.13-37.694 27.807-112.893 34.305-140.6C154.968 66.687 171.55 51 198.99 51c9.253 0 17.916 2.028 25.334 5.56l.013.006a40.16 40.16 0 0 1 3.381-.142c19.674 0 35.123 13.204 39.227 30.14 4.188 17.284 3.595 117.514 31.04 144.867l-33.225-4.56z" class="B"/><path d="M296.626 331.567a1.88 1.88 0 0 1-.825.642l-16.654 6.624a1.86 1.86 0 0 1-.693.132 1.88 1.88 0 0 1-.693-3.623l16.135-6.417a18.96 18.96 0 0 0 3.23-12.506l-.553-5.812c-2.86-20.27-9.372-50-15.73-67.245l-.767 1.028a1.88 1.88 0 0 1-1.507.754c-.4 0-.785-.12-1.122-.372a1.88 1.88 0 0 1-.381-2.63l1.915-2.566c-4.33-5.173-7.982-8.416-13.703-10.297l-7.773-2.555 7.342 7.39a1.88 1.88 0 0 1 .402 2.045c-.3.7-.974 1.157-1.733 1.157h-26.95l-12.792 6.083-6.43 5.327c-.35.29-.774.432-1.196.432a1.87 1.87 0 0 1-1.448-.681c-.66-.798-.55-1.982.25-2.642l6.394-5.302c5.997-9.092 9.165-19.65 9.165-30.546v-7.51c0-1.038.84-1.878 1.878-1.878s1.877.84 1.877 1.878v6.25l8.7 3.56c.233.096.444.237.62.415l8.095 8.15 14.78 4.86c7.7 2.532 12.142 7.41 16.38 12.612.038.048.058.105.09.155a1.85 1.85 0 0 1 .11.186c.025.05.062.1.083.14 6.833 16.824 14.104 49.498 17.186 71.364l.563 5.895c.524 5.517-.98 11.022-4.237 15.504zm-55.446-115.95l-7.016-2.874a58.93 58.93 0 0 1-6.71 24.744l7.3-3.47 1.587-3.178a1.88 1.88 0 0 1 2.519-.84 1.88 1.88 0 0 1 .84 2.52l-.52 1.038h19.824l-17.824-17.94zm32.657-7.73c1.66 6.742 8.828 16.295 10.42 18.36l2.873 1.076a1.88 1.88 0 0 1 1.1 2.417c-.282.756-1 1.22-1.758 1.22a1.87 1.87 0 0 1-.658-.12l-3.37-1.263c-.32-.12-.598-.323-.8-.588-.382-.48-9.4-11.856-11.443-20.203-.25-1.007.366-2.025 1.373-2.272 1.01-.258 2.025.366 2.272 1.373zm25.106 25.015c-.733.733-1.92.733-2.654 0-21.095-21.1-25.965-83.34-28.873-120.528l-.453-5.744c-.243-.286-.424-.628-.46-1.03-1.476-16.546-11.96-25.184-22.02-31.453a1.88 1.88 0 0 1-.601-2.587c.548-.88 1.707-1.15 2.585-.6 4.5 2.802 13.132 8.186 18.713 17.937-.157-1-.318-1.856-.488-2.558-4.104-17-19.516-28.87-37.475-28.87-1.086 0-2.17.045-3.23.136a1.88 1.88 0 0 1-.999-.191c-7.387-3.53-15.882-5.4-24.556-5.4-2.274 0-4.457.152-6.595.374-6.046 2.202-13.235 8.22-17.993 15.114a1.88 1.88 0 0 1-1.548.811 1.87 1.87 0 0 1-1.065-.333 1.88 1.88 0 0 1-.478-2.612c2.763-4.003 6.22-7.67 9.866-10.62-15.348 5.137-25.828 17.423-30.138 35.87-1.745 7.473-3.082 18.555-4.63 31.387-4.208 34.9-9.97 82.672-30.043 110.665-.367.512-.943.783-1.528.783a1.86 1.86 0 0 1-1.092-.352 1.88 1.88 0 0 1-.431-2.621c19.512-27.2 25.207-74.438 29.367-108.925 1.56-12.942 2.908-24.118 4.7-31.79 5.672-24.277 21.304-38.618 44.327-41.082.18-.036.36-.073.536-.057 2.2-.216 4.422-.364 6.743-.364 9.057 0 17.947 1.923 25.746 5.563a42.23 42.23 0 0 1 3.038-.11c19.7 0 36.612 13.054 41.124 31.745 1.087 4.503 1.852 14.264 2.818 26.622 2.87 36.67 7.672 98.047 27.785 118.167.734.733.734 1.92 0 2.655zm-168.277-3.92a1.88 1.88 0 0 1-1.015.658l-5.018 1.264a1.92 1.92 0 0 1-.46.057c-.84 0-1.605-.567-1.82-1.42a1.88 1.88 0 0 1 1.362-2.28l4.383-1.105c1.676-2.22 8.368-11.42 10.326-19.11.257-1.007 1.278-1.615 2.283-1.355s1.61 1.28 1.354 2.283c-2.43 9.546-11.03 20.544-11.396 21.008zm-1.73 9.682a1.85 1.85 0 0 1 .11-.186c.033-.05.053-.107.09-.155 4.237-5.2 8.678-10.08 16.378-12.612l14.79-4.864 8.093-8.146c.176-.178.387-.32.62-.415l8.69-3.56v-6.25c0-1.038.84-1.878 1.877-1.878s1.877.84 1.877 1.878v7.51a55.3 55.3 0 0 0 9.166 30.546l6.402 5.306a1.88 1.88 0 0 1 .25 2.644c-.373.45-.908.68-1.45.68-.42 0-.845-.14-1.195-.43l-6.437-5.333-12.792-6.083h-26.95c-.76 0-1.442-.456-1.732-1.157s-.134-1.506.4-2.045l7.345-7.392-7.78 2.558c-5.72 1.88-9.37 5.124-13.702 10.297l1.915 2.566a1.88 1.88 0 0 1-.381 2.63c-.337.25-.732.372-1.122.372a1.88 1.88 0 0 1-1.507-.754l-.767-1.028c-6.358 17.245-12.87 46.98-15.74 67.33l-.544 5.727a18.96 18.96 0 0 0 3.23 12.506l16.136 6.417a1.88 1.88 0 0 1-.694 3.623 1.86 1.86 0 0 1-.693-.132l-16.654-6.624a1.88 1.88 0 0 1-.825-.642c-3.256-4.482-4.76-9.987-4.237-15.504l.554-5.812c3.09-21.95 10.362-54.623 17.195-71.447.02-.05.058-.09.083-.14zm24.03-5.105h19.824l-.52-1.038a1.88 1.88 0 0 1 .84-2.52 1.88 1.88 0 0 1 2.519.84l1.588 3.178 7.298 3.47a58.93 58.93 0 0 1-6.709-24.744l-7.017 2.874-17.824 17.94zm-1.518-19.95c-.502 1.97-1.008 3.16-1.454 4.21-.304.713-.6 1.386-.86 2.272-.245.81-.99 1.334-1.796 1.334a1.85 1.85 0 0 1-.545-.082c-.993-.3-1.553-1.35-1.252-2.34.328-1.082.67-1.882.997-2.655.433-1.015.84-1.972 1.273-3.664.257-1.007 1.278-1.617 2.282-1.356 1.005.255 1.612 1.278 1.355 2.283zm69.865-96.99c.12-1.03 1.036-1.787 2.08-1.65l16.136 1.854c1.03.117 1.77 1.05 1.65 2.08-.1.957-.92 1.663-1.863 1.663a1.78 1.78 0 0 1-.217-.013l-16.135-1.854c-1.03-.117-1.77-1.05-1.65-2.08zm5.97 20.686a3.76 3.76 0 0 1 3.755-3.756 3.76 3.76 0 0 1 3.755 3.756 3.76 3.76 0 0 1-3.755 3.755 3.76 3.76 0 0 1-3.755-3.755zm.904 7.2a1.86 1.86 0 0 1-1.259.486 1.87 1.87 0 0 1-1.392-.617c-2.176-2.404-3.373-5.585-3.373-8.957 0-7.905 5.936-11.518 11.45-11.532h.03c5.796 0 11.96 4.033 11.996 11.52.01 2.313-.577 4.562-1.666 6.542l.405.138a1.88 1.88 0 0 1-.609 3.656c-.202 0-.407-.034-.61-.1l-2.73-.937c-.118-.04-.206-.122-.31-.183-.1-.057-.21-.09-.3-.165-.006-.006-.008-.014-.014-.02-.125-.108-.21-.248-.302-.385-.045-.067-.11-.123-.147-.194-.05-.105-.06-.223-.093-.335-.033-.12-.087-.233-.096-.356-.005-.075.023-.152.026-.23.008-.168.012-.336.066-.5.002-.007 0-.014.003-.02.038-.112.115-.194.17-.293.06-.107.095-.222.177-.318 1.456-1.704 2.284-3.994 2.273-6.283-.024-5.112-4.16-7.783-8.24-7.783h-.022c-3.555.01-7.706 2.05-7.706 7.776 0 2.44.853 4.724 2.402 6.437.697.77.636 1.956-.132 2.65zm33.936-18.995l1.004 3.04a1.88 1.88 0 0 1-1.138 2.401 1.89 1.89 0 0 1-.631.109 1.88 1.88 0 0 1-1.769-1.247c-.293-.828-.64-1.906-1.04-3.155-2.11-6.574-6.5-20.253-12.49-21.465-17.083-3.456-28.923-7.504-35.193-12.033-.842-.606-1.03-1.78-.424-2.62s1.78-1.032 2.62-.422c5.753 4.153 17.42 8.094 33.74 11.394 8.148 1.648 12.64 15.64 15.322 24zm-51.78 25.86a1.88 1.88 0 0 1-.427-2.621c.603-.84 1.775-1.037 2.62-.427 2.38 1.71 3.338 4.658 2.442 7.5-.95 3.017-3.628 4.996-6.824 5.04h-.025a1.88 1.88 0 0 1-1.878-1.853c-.015-1.036.814-1.89 1.852-1.903 1.877-.026 2.93-1.262 3.292-2.412.156-.492.538-2.19-1.052-3.334zm-2.52 31.95c1.038 0 1.877.84 1.877 1.878s-.84 1.878-1.877 1.878h-3.755c-1.037 0-1.877-.84-1.877-1.878s.84-1.878 1.877-1.878h3.755zm-11.834-4.245a1.87 1.87 0 0 1-1.245.471 1.88 1.88 0 0 1-1.406-.632l-1.03-1.165a1.88 1.88 0 0 1 2.194-2.945c3.228-1.605 7.274-2.482 11.568-2.482 4.126 0 8.008.856 11.176 2.35.672-.358 1.516-.292 2.12.243.778.687.847 1.874.16 2.65l-1.033 1.165c-.37.42-.887.632-1.404.632a1.87 1.87 0 0 1-1.245-.472c-.304-.27-.467-.624-.55-.993-2.608-1.158-5.797-1.82-9.222-1.82-3.493 0-6.86.69-9.503 1.907-.07.406-.246.796-.577 1.1zm-23.336-58.52c-.943 0-1.753-.706-1.863-1.663-.12-1.03.62-1.963 1.65-2.08l16.135-1.854c1.045-.134 1.96.62 2.08 1.65s-.62 1.962-1.65 2.08l-16.136 1.854a1.76 1.76 0 0 1-.216.013zm12.03 16.74a3.76 3.76 0 0 1-3.754 3.755 3.76 3.76 0 0 1-3.755-3.755 3.76 3.76 0 0 1 3.755-3.756 3.76 3.76 0 0 1 3.754 3.756zm-12.33 4.412c.072.085.1.187.156.28.065.1.15.204.194.33.003.008 0 .015.003.023.05.154.052.313.062.473.005.084.035.17.03.253-.007.102-.055.194-.08.293-.032.135-.05.274-.1.4-.027.054-.08.096-.112.148-.097.156-.2.3-.34.432-.1.08-.185.106-.27.158-.116.072-.218.16-.352.207l-2.732.937a1.93 1.93 0 0 1-.608.101 1.88 1.88 0 0 1-.609-3.656l.406-.138c-1.09-1.98-1.676-4.227-1.665-6.542.018-4.103 2.218-7.892 5.883-10.135 3.656-2.235 8.058-2.448 11.776-.572 3.587 1.816 5.818 5.922 5.818 10.718 0 3.372-1.198 6.553-3.375 8.957a1.87 1.87 0 0 1-1.391.617c-.45 0-.9-.16-1.26-.486-.768-.695-.828-1.882-.132-2.65 1.55-1.713 2.402-3.998 2.402-6.437 0-2.643-.986-5.964-3.756-7.365-2.55-1.288-5.585-1.128-8.122.423-2.547 1.56-4.076 4.158-4.09 6.95-.01 2.3.818 4.58 2.272 6.283zm46.928-77.413c.42-.947 1.53-1.376 2.475-.956a1.88 1.88 0 0 1 .957 2.477c-16.953 38.312-36.034 40.528-58.126 43.094l-3.982.47c-1.45.177-3.682 3.364-6.094 17.54l-.48 2.655c-.187.882-.966 1.486-1.833 1.486-.13 0-.262-.013-.394-.042-1.014-.217-1.66-1.214-1.443-2.23.12-.57.268-1.438.45-2.502 1.714-10.073 3.848-19.963 9.34-20.636l4.004-.472c21.812-2.534 39.04-4.536 55.127-40.885zm45.164 149.218c.3 1.214.58 1.805.902 2.487.275.58.59 1.238.888 2.234s-.262 2.04-1.256 2.34a1.89 1.89 0 0 1-.541.081 1.88 1.88 0 0 1-1.797-1.338c-.22-.724-.436-1.18-.685-1.707a14.75 14.75 0 0 1-1.155-3.198c-.248-1.01.366-2.025 1.373-2.273 1.016-.255 2.026.368 2.27 1.374zm-58.508-5.938c-16.28 0-48.812-22.077-48.812-51.063v-2.103c-5.146-.93-8.95-5.64-8.95-11.482s3.805-10.536 8.95-11.47V120.52c0-1.038.84-1.878 1.877-1.878s1.878.84 1.878 1.878v18.66c0 1.038-.84 1.877-1.878 1.877s-1.877-.84-1.877-1.877v-3.832c-3.02.9-5.196 3.896-5.196 7.587 0 4.426 3.108 7.892 7.073 7.892 1.038 0 1.878.84 1.878 1.878v3.815c0 25.89 29.83 47.306 45.057 47.306s45.057-21.417 45.057-47.306v-3.815c0-1.038.84-1.878 1.877-1.878 4.017 0 7.163-3.466 7.163-7.892 0-3.7-2.214-6.703-5.285-7.596v3.84c0 1.038-.84 1.877-1.878 1.877s-1.877-.84-1.877-1.877v-18.66c0-1.038.84-1.878 1.877-1.878s1.878.84 1.878 1.878v10.944c5.195.925 9.04 5.626 9.04 11.47s-3.843 10.56-9.04 11.483v2.102c0 28.986-32.53 51.063-48.812 51.063zm-68.673 131.754h1.015c-1.792-1.997-2.892-4.625-2.892-7.512v-23.242l-2.92-1.955a1.88 1.88 0 0 1-.517-2.604c.576-.865 1.742-1.092 2.604-.517l.834.56v-41.724a11.28 11.28 0 0 1 11.264-11.268H265.31c6.212 0 11.265 5.054 11.265 11.268v41.724l.834-.56c.858-.577 2.028-.348 2.604.517a1.88 1.88 0 0 1-.517 2.604l-2.92 1.955v23.242c0 2.887-1.1 5.515-2.892 7.512h1.015c1.038 0 1.877.84 1.877 1.878s-.84 1.878-1.877 1.878h-9.978c0 1.038-.84 1.877-1.878 1.877s-1.877-.84-1.877-1.877h-7.51c0 1.038-.84 1.877-1.878 1.877s-1.877-.84-1.877-1.877h-87.438c0 1.038-.84 1.877-1.877 1.877s-1.877-.84-1.877-1.877H151c0 1.038-.84 1.877-1.877 1.877s-1.878-.84-1.878-1.877h-9.977c-1.037 0-1.877-.84-1.877-1.878s.84-1.878 1.877-1.878zm1.877-7.512a7.52 7.52 0 0 0 7.51 7.512h.6v-1.336c0-1.038.84-1.878 1.878-1.878s1.877.84 1.877 1.878v1.336h7.5v-1.336c0-1.038.84-1.878 1.877-1.878s1.877.84 1.877 1.878v1.336h87.438v-1.336c0-1.038.84-1.878 1.877-1.878s1.878.84 1.878 1.878v1.336h7.51v-1.336c0-1.038.84-1.878 1.877-1.878s1.878.84 1.878 1.878v1.336h.6a7.52 7.52 0 0 0 7.51-7.512v-69.483a7.52 7.52 0 0 0-7.51-7.512H146.655a7.52 7.52 0 0 0-7.51 7.512v69.483zm5.633-73.24h122.41c1.037 0 1.877.84 1.877 1.878s-.84 1.878-1.877 1.878h-122.41c-1.038 0-1.878-.84-1.878-1.878s.84-1.878 1.878-1.878z" class="C"/></g><path d="M230.654 287.975c-3.497-6.32-9.185-10.913-16.137-12.893-14.283-4.17-29.282 4.087-33.453 18.37-4.13 14.283 4.13 29.282 18.412 33.453 2.486.716 5.013 1.095 7.54 1.095 4.51 0 8.933-1.138 12.977-3.37 6.32-3.497 10.913-9.184 12.893-16.136 2.064-6.9 1.222-14.2-2.233-20.518zm-.21 19.886c-23.5-4.045-37.16 3.876-42.596 8.258-.337-.464-.674-.885-1.01-1.348 4.34-3.708 19.507-14.662 44.534-12.22-.126 1.77-.42 3.497-.927 5.225v.084zm-40.868 10.196c5.14-3.96 18.074-11.376 40.026-7.752-.675 1.643-1.517 3.16-2.486 4.592-19.255-4.087-30.63.6-36.234 4.382a12.13 12.13 0 0 1-1.306-1.222zm26.206-17.948c5.35-5.478 12.176-6.362 14.536-6.49.674 2.065 1.01 4.214 1.137 6.362-5.772-.547-10.996-.42-15.673.127zm-8.764-23.552a23.79 23.79 0 0 1 6.784.969c6.278 1.812 11.46 5.983 14.578 11.67.337.632.632 1.264.927 1.896-3.624.337-11.713 1.896-17.4 9.564-5.014.885-9.354 2.275-13.06 3.834.674-2.275 1.6-4.297 2.57-5.94.758.126 1.56.168 2.317.168 3.708 0 7.12-1.432 9.522-4.087 3.16-3.454 4.087-8.384 2.528-13.187l-.253-.758-.8-.17c-4.93-1.137-9.775.253-12.935 3.666-3.118 3.412-4.087 8.258-2.57 13.06-1.348 2.317-2.612 5.182-3.37 8.595-5.056 2.443-8.5 5.055-10.45 6.7-.2-.422-.42-.8-.632-1.222 13.862-10.786 10.49-26.206 9.06-30.883 3.876-2.486 8.47-3.876 13.187-3.876zm-1.22 14.535l-.8-.97c-.126.127-1.643 1.39-3.455 3.75-.295-2.95.6-5.73 2.486-7.794 2.275-2.486 5.73-3.582 9.353-2.992.885 3.582.127 7.12-2.148 9.606-1.98 2.19-4.888 3.287-8.005 3.118 1.81-2.443 3.328-3.75 3.37-3.792l-.8-.927zm-14.157-9.058c1.348 4.845 3.455 17.527-7.752 26.754l-.506-1.685c6.32-7.795 6.404-16.22 5.267-22.204a19.27 19.27 0 0 1 2.991-2.865zm-8.09 12.134c.674-2.36 1.685-4.508 2.95-6.446.505 4.634-.042 10.364-3.75 15.926-.38-3.076-.126-6.32.8-9.48zm16.642 30.293c-.674-.21-1.348-.42-2.022-.674 4.38-1.517 10.743-2.402 19.676-.885-5.478 2.696-11.713 3.244-17.654 1.56zm20.982-3.58c-12.724-2.74-21.024-1.054-26.206 1.348-.675-.38-1.35-.8-1.94-1.222 1.433-.927 3.245-1.854 5.478-2.696 5.393-2.023 14.198-3.624 26.838-1.138-1.264 1.4-2.654 2.612-4.17 3.708z" stroke="#171716" stroke-width=".5" class="C"/></svg>