<svg xmlns="http://www.w3.org/2000/svg" width="425" height="346" fill="none" xmlns:v="https://vecta.io/nano"><style><![CDATA[.B{fill:#ec7e3b}.C{fill:#171716}.D{fill-rule:evenodd}]]></style><path d="M353.675 102.21c-21.24-38.387-55.8-66.282-98.016-78.3C168.903-1.434 77.797 48.725 52.46 135.48c-25.08 86.755 25.08 177.86 111.836 203.195 15.1 4.35 30.454 6.654 45.81 6.654 27.383 0 54.254-6.9 78.822-20.473 38.388-21.24 66.283-55.79 78.31-98.015 12.54-41.97 7.42-86.243-13.564-124.63zm-1.28 120.8c-142.802-24.567-225.72 23.544-258.732 50.16l-6.142-8.19c26.36-22.52 118.49-89.058 270.504-74.215-.768 10.75-2.56 21.24-5.63 31.734v.51zm-248.24 61.93c31.22-24.056 109.788-69.096 243.12-47.088-4.094 9.98-9.213 19.194-15.1 27.895-116.954-24.824-186.05 3.583-220.088 26.615-2.815-2.303-5.63-4.863-7.933-7.422zm159.18-109.02c32.5-33.268 73.96-38.642 88.29-39.4 4.094 12.54 6.142 25.59 6.9 38.643-35.06-3.327-66.795-2.56-95.2.767zm-53.23-143.055c13.564 0 27.383 1.79 41.203 5.886 38.13 11.004 69.61 36.34 88.547 70.888 2.047 3.84 3.838 7.677 5.63 11.516-22.01 2.047-71.145 11.516-105.694 58.092-30.454 5.374-56.813 13.82-79.334 23.288 4.095-13.82 9.725-26.103 15.61-36.083 4.607.767 9.47 1.023 14.075 1.023 22.52 0 43.25-8.7 57.838-24.823 19.193-20.985 24.824-50.927 15.355-80.1l-1.536-4.606-4.862-1.024c-29.943-6.9-59.373 1.535-78.567 22.264-18.937 20.73-24.824 50.16-15.61 79.333-8.19 14.076-15.866 31.478-20.473 52.207-30.7 14.842-51.695 30.71-63.467 40.7l-3.84-7.422c84.197-65.513 63.723-159.177 55.022-187.584 23.544-15.1 51.44-23.544 80.102-23.544zm-7.422 88.3l-4.862-5.886c-.768.768-9.98 8.445-20.985 22.776-1.792-17.914 3.583-34.804 15.1-47.344 13.82-15.1 34.805-21.753 56.813-18.17 5.375 21.753.768 43.25-13.05 58.348-12.028 13.307-29.687 19.96-48.625 18.937 11.005-14.843 20.218-22.776 20.474-23.032l-4.863-5.63zm-85.988-55.02c8.2 29.43 20.986 106.46-47.088 162.504l-3.07-10.236c38.387-47.344 38.9-98.526 32-134.866a117.01 117.01 0 0 1 18.17-17.402zM67.56 139.83c4.095-14.33 10.237-27.383 17.914-39.155 3.07 28.15-.256 62.955-22.777 96.735-2.303-18.682-.768-38.387 4.862-57.58zm101.087 184c-4.095-1.28-8.2-2.56-12.284-4.095 26.615-9.213 65.258-14.587 119.513-5.374-33.27 16.38-71.145 19.706-107.23 9.47zm127.446-21.753c-77.287-16.634-127.702-6.397-159.18 8.2-4.095-2.304-8.19-4.863-11.772-7.422 8.7-5.63 19.705-11.26 33.27-16.378 32.757-12.284 86.244-22.01 163.02-6.9-7.678 8.445-16.123 15.867-25.336 22.52z" fill="#fafafa"/><g class="D"><path d="M423.268 143.908c-1.652.953-3.772.384-4.725-1.27a3.47 3.47 0 0 1 1.269-4.73 3.46 3.46 0 0 1 1.788-.463.62.62 0 0 1 .607.63.62.62 0 0 1-.629.608 2.23 2.23 0 0 0-1.963 3.335c.612 1.063 1.974 1.43 3.036.816a2.23 2.23 0 0 0 .815-3.037.62.62 0 0 1 .227-.846.62.62 0 0 1 .845.227 3.47 3.47 0 0 1-1.27 4.729zm-12.146 165.69l-2.308-2.31c-.274-.275-.41-.635-.41-.994a1.4 1.4 0 0 1 .411-.994c.55-.55 1.438-.55 1.987 0l2.307 2.31c.55.55.55 1.44 0 1.988a1.4 1.4 0 0 1-1.986 0zm-.32-6.824c-.55.55-1.438.55-1.987 0-.274-.275-.41-.634-.41-.994s.137-.72.41-.994l2.308-2.3c.55-.55 1.438-.55 1.986 0s.55 1.44 0 1.988l-2.307 2.3zm-6.82 6.824c-.55.55-1.438.55-1.987 0a1.4 1.4 0 0 1-.411-.994c0-.36.137-.72.41-.994l2.308-2.31c.55-.55 1.438-.55 1.987 0a1.41 1.41 0 0 1 0 1.988l-2.308 2.31zm.32-6.824l-2.308-2.3a1.4 1.4 0 0 1-.411-.994c0-.36.137-.72.41-.994.55-.55 1.438-.55 1.987 0l2.308 2.3a1.41 1.41 0 0 1 0 1.988c-.55.55-1.438.55-1.987 0zm-55.733-131.14h-2.168c-.516 0-.933-.42-.933-.935s.417-.934.933-.934h2.168c.516 0 .934.418.934.934s-.418.935-.934.935zm-2.5-2.716a.93.93 0 0 1-1.321 0c-.364-.364-.364-.956 0-1.32l1.534-1.535c.364-.364.955-.364 1.32 0s.364.956 0 1.322l-1.533 1.533zm-.014 3.556l1.533 1.534c.365.365.365.956 0 1.32-.182.183-.42.274-.66.274a.93.93 0 0 1-.66-.274l-1.533-1.534c-.364-.365-.364-.956 0-1.32s.956-.365 1.32 0zm-3.08-4.298c-.515 0-.933-.418-.933-.934v-2.17c0-.516.418-.934.933-.934s.933.418.933.934v2.17c0 .516-.417.934-.933.934zm-.02 5.027c.516 0 .933.42.933.934v2.17c0 .516-.417.934-.933.934s-.933-.418-.933-.934v-2.17c0-.515.418-.934.933-.934zm-2.42-4.024c-.238 0-.477-.09-.66-.273l-1.533-1.535c-.365-.365-.365-.956 0-1.32s.955-.364 1.32 0l1.533 1.535c.365.364.365.956 0 1.32a.93.93 0 0 1-.66.273zm-.082 1.502c0 .515-.418.934-.934.934h-2.168c-.515 0-.933-.42-.933-.934s.418-.934.933-.934h2.168c.516 0 .934.417.934.934zm-12.2-165.8c-1.128 0-2.042-.915-2.042-2.044S327.127.79 328.255.79s2.042.915 2.042 2.044-.914 2.044-2.042 2.044zm-39.434 53.1a5.71 5.71 0 0 1-5.701-5.705 5.71 5.71 0 0 1 5.701-5.706c3.144 0 5.702 2.56 5.702 5.706a5.71 5.71 0 0 1-5.702 5.705zm0-9.372a3.67 3.67 0 0 0-3.662 3.666 3.67 3.67 0 0 0 3.662 3.665 3.67 3.67 0 0 0 3.663-3.665 3.67 3.67 0 0 0-3.663-3.666zM141.153 66.363c-.388.388-1.016.388-1.404 0l-2.52-2.524-2.522 2.524a.99.99 0 0 1-1.403 0c-.388-.39-.388-1.017 0-1.405l2.52-2.523-2.52-2.524c-.388-.39-.388-1.017 0-1.405a.99.99 0 0 1 1.403 0l2.522 2.523 2.52-2.523c.388-.388 1.016-.388 1.404 0s.387 1.017 0 1.405l-2.522 2.524 2.522 2.523c.387.388.387 1.016 0 1.405zm-33.615-52.205c-2.872 1.657-6.555.667-8.21-2.207s-.667-6.56 2.205-8.217a5.99 5.99 0 0 1 3.107-.804c.593.01 1.066.5 1.055 1.095s-.5 1.067-1.094 1.056a3.85 3.85 0 0 0-1.994.516c-1.845 1.065-2.48 3.433-1.417 5.28s3.43 2.483 5.275 1.418 2.48-3.433 1.417-5.28c-.296-.514-.12-1.172.394-1.47s1.172-.12 1.468.395c1.656 2.873.667 6.56-2.205 8.217zM95.002 178.812h-4.165c-.495 0-.944-.2-1.268-.526a1.79 1.79 0 0 1-.525-1.269c0-.99.802-1.794 1.793-1.794h4.165c1 0 1.793.803 1.793 1.794s-.803 1.795-1.793 1.795zm-8.236 8.242c-.495 0-.943-.2-1.268-.525a1.79 1.79 0 0 1-.525-1.269v-4.17c0-.99.803-1.794 1.793-1.794s1.793.803 1.793 1.794v4.17c0 .99-.803 1.794-1.793 1.794zm0-12.315a1.79 1.79 0 0 1-1.793-1.796v-4.167c0-.99.803-1.795 1.793-1.796s1.793.805 1.793 1.796v4.167c0 .99-.803 1.795-1.793 1.796zm-4.07 4.073H78.53c-.495 0-.943-.2-1.268-.526a1.79 1.79 0 0 1-.525-1.269c0-.99.803-1.794 1.793-1.794h4.165c1 0 1.793.803 1.793 1.794s-.802 1.795-1.793 1.795zm-68.424 117.93h-2.84v2.84a.79.79 0 1 1-1.58 0v-2.84h-2.84a.79.79 0 1 1 0-1.582h2.84v-2.84a.79.79 0 1 1 1.58 0v2.84h2.84a.79.79 0 1 1 0 1.582zM2.146 144.67C.96 144.67 0 143.71 0 142.523s.96-2.147 2.146-2.147 2.145.96 2.145 2.147-.96 2.147-2.145 2.147zm337.708 27.8c.365-.365.956-.365 1.32 0s.364.956 0 1.32l-1.534 1.534c-.182.183-.42.274-.66.274a.93.93 0 0 1-.66-.274c-.364-.364-.364-.956 0-1.32l1.534-1.534z" class="B"/><path d="M325.124 319.68c-.532 0-1.06-.226-1.426-.667-.657-.79-.55-1.96.235-2.62l5.02-4.36a1.85 1.85 0 0 1 2.621.137c.686.763.624 1.938-.137 2.626l-5.124 4.453c-.347.3-.77.43-1.188.43zm13.667-12.702a1.85 1.85 0 0 1-1.293-.525c-.735-.717-.752-1.894-.038-2.63l4.54-4.863c.686-.762 1.86-.824 2.62-.136s.822 1.864.136 2.627l-4.636 4.965c-.364.374-.848.563-1.33.563zm-260.13-4.897c-.507 0-1.013-.206-1.38-.614l-4.445-5.13c-.658-.79-.553-1.962.233-2.62s1.957-.554 2.614.234l4.354 5.026c.687.763.626 1.94-.135 2.627-.355.32-.8.478-1.242.478zm272.41-9.166a1.84 1.84 0 0 1-1.147-.399c-.805-.634-.944-1.804-.3-2.61l4.014-5.313c.603-.83 1.764-1.012 2.592-.41s1.01 1.768.408 2.6l-4.098 5.424a1.85 1.85 0 0 1-1.459.709zm-284.15-5.338a1.85 1.85 0 0 1-1.501-.764l-3.887-5.564a1.86 1.86 0 0 1 .505-2.581c.85-.573 2.003-.347 2.575.505l3.806 5.45c.604.83.42 1.993-.407 2.598a1.85 1.85 0 0 1-1.091.356zm299.992-16.63l-3.513 5.827c-.353.56-.956.87-1.572.87a1.84 1.84 0 0 1-.988-.287 1.86 1.86 0 0 1-.58-2.564l3.44-5.708 3.213 1.863zm22.12-81.64c-.024 0-.047 0-.07-.001a1.86 1.86 0 0 1-1.786-1.927l.123-6.66v-.337c-.002-1.026.827-1.86 1.852-1.862h.003a1.86 1.86 0 0 1 1.856 1.856v.343l-.125 6.796a1.86 1.86 0 0 1-1.853 1.791zM32.868 182.75a1.86 1.86 0 0 1-1.856-1.86v-.17l.12-6.623c.037-1.027.9-1.837 1.92-1.792a1.86 1.86 0 0 1 1.788 1.925l-.117 6.5v.17a1.86 1.86 0 0 1-1.855 1.86zm355.87-12.465c-.968 0-1.783-.75-1.85-1.733l-.574-6.634c-.108-1.02.63-1.937 1.65-2.044s1.933.632 2.04 1.653l.587 6.772a1.86 1.86 0 0 1-1.725 1.982l-.128.004zm-354.926-6.192c-.063 0-.127-.004-.192-.01a1.86 1.86 0 0 1-1.656-2.04l.82-6.748a1.86 1.86 0 0 1 2.097-1.582 1.86 1.86 0 0 1 1.578 2.102l-.804 6.61a1.86 1.86 0 0 1-1.844 1.67zm352.693-12.354a1.86 1.86 0 0 1-1.826-1.54l-1.263-6.538a1.86 1.86 0 0 1 1.427-2.207c1.003-.215 1.988.426 2.202 1.43l1.3 6.675a1.86 1.86 0 0 1-1.509 2.151 1.85 1.85 0 0 1-.321.028zm-349.818-6.104a1.86 1.86 0 0 1-1.817-2.243l1.522-6.627a1.86 1.86 0 0 1 2.251-1.352 1.86 1.86 0 0 1 1.349 2.256l-1.49 6.488c-.183.876-.955 1.478-1.814 1.478zm345.66-12.107a1.86 1.86 0 0 1-1.784-1.35l-1.942-6.367a1.86 1.86 0 0 1 1.187-2.346c.974-.318 2.022.215 2.34 1.19l1.984 6.502a1.86 1.86 0 0 1-1.275 2.298 1.84 1.84 0 0 1-.51.072zM78.532 63.22a1.85 1.85 0 0 1-1.241-.477c-.762-.687-.823-1.863-.138-2.627l4.63-4.97c.713-.737 1.89-.756 2.624-.04s.754 1.892.04 2.63l-4.536 4.868a1.85 1.85 0 0 1-1.38.615zm256.428-8.873a1.85 1.85 0 0 1-1.291-.524l-4.86-4.544a1.86 1.86 0 0 1-.139-2.627 1.85 1.85 0 0 1 2.62-.139l4.96 4.638c.736.715.755 1.892.042 2.63-.364.377-.848.566-1.333.566zm-243.254-4.35a1.85 1.85 0 0 1-1.378-.614 1.86 1.86 0 0 1 .135-2.627L95.58 42.3c.786-.66 1.956-.555 2.614.232s.553 1.96-.233 2.62l-5.013 4.367a1.85 1.85 0 0 1-1.243.479zm229.202-7.94a1.84 1.84 0 0 1-1.144-.397l-5.307-4.016a1.86 1.86 0 0 1-.412-2.597c.603-.832 1.763-1.016 2.592-.413l5.418 4.1c.806.634.947 1.804.314 2.612a1.85 1.85 0 0 1-1.461.712zm-214.734-3.835a1.85 1.85 0 0 1-1.501-.765 1.86 1.86 0 0 1 .406-2.598l5.55-3.898c.85-.573 2.003-.348 2.576.504s.347 2.007-.504 2.582l-5.435 3.816c-.33.24-.713.358-1.092.358zm199.478-6.924a1.85 1.85 0 0 1-.985-.285l-5.7-3.44c-.888-.513-1.192-1.65-.68-2.54s1.646-1.195 2.534-.68l5.82 3.513c.867.546 1.13 1.695.584 2.564-.353.562-.956.87-1.574.87zM121.78 28.026c-.64 0-1.263-.332-1.608-.927a1.86 1.86 0 0 1 .675-2.541l5.92-3.293c.904-.48 2.028-.136 2.51.77a1.86 1.86 0 0 1-.77 2.514l-5.798 3.226c-.293.17-.614.25-.93.25zm167.573-5.834c-.275 0-.553-.06-.816-.2l-6.032-2.824a1.86 1.86 0 0 1-.942-2.454c.415-.938 1.51-1.362 2.45-.944l6.16 2.883a1.86 1.86 0 0 1 .849 2.488c-.322.66-.982 1.04-1.667 1.04zm-151-2.667c-.7 0-1.387-.4-1.695-1.1a1.86 1.86 0 0 1 .936-2.457l6.227-2.65c.95-.384 2.032.078 2.414 1.03a1.86 1.86 0 0 1-1.028 2.419l-6.098 2.597a1.86 1.86 0 0 1-.756.162zm133.827-4.676a1.84 1.84 0 0 1-.636-.114l-6.3-2.173a1.86 1.86 0 0 1-1.196-2.341c.315-.977 1.362-1.512 2.337-1.198l6.433 2.22a1.86 1.86 0 0 1 1.106 2.385c-.275.754-.986 1.222-1.743 1.222z" fill="#f0f0f0"/></g><path d="M154.95 11.517c.15.454.458.8.842 1.03a1.84 1.84 0 0 0 1.503.15l6.347-1.973a1.86 1.86 0 0 0 1.267-2.303c-.284-.987-1.315-1.555-2.3-1.27l-6.48 2.013c-.972.323-1.502 1.375-1.18 2.35zm17.93-5.122c.117.535.452.966.893 1.218a1.85 1.85 0 0 0 1.316.202l6.514-1.3a1.86 1.86 0 0 0 1.499-2.159c-.182-1-1.146-1.683-2.155-1.5l-6.65 1.327a1.86 1.86 0 0 0-1.417 2.214zm18.36-3.225a1.82 1.82 0 0 0 .925 1.4 1.84 1.84 0 0 0 1.125.232l6.608-.613a1.86 1.86 0 0 0 1.716-1.991A1.86 1.86 0 0 0 199.626.48l-6.748.626a1.86 1.86 0 0 0-1.638 2.054zm18.583-1.294a1.86 1.86 0 0 0 .938 1.604 1.85 1.85 0 0 0 .93.244l6.632.08a1.86 1.86 0 0 0 1.913-1.801 1.86 1.86 0 0 0-1.798-1.916l-6.77-.083a1.86 1.86 0 0 0-1.844 1.872zm18.607.66a1.86 1.86 0 0 0 1.664 2.034l6.58.776c1.016.14 1.95-.573 2.1-1.6a1.86 1.86 0 0 0-1.586-2.095l-6.72-.793a1.86 1.86 0 0 0-2.03 1.67zm18.382 2.85a1.86 1.86 0 0 0 1.395 2.228l6.43 1.602c1 .267 2.008-.32 2.274-1.313a1.86 1.86 0 0 0-1.309-2.279l-6.566-1.637c-1-.23-1.995.398-2.223 1.4z" fill="#f0f0f0"/><path d="M302 317c-5-10.13-13.404-14.055-18.13-16.772-9.06-5.207-16.457-3.896-25.61-6.22-1.7-.43-3.463-1.984-3.78-3.754-.05-.28-.067-.55-.11-.826-2.523-.245-5.062-1.927-5.466-5.06-2.192-16.992-17.14-28.006-21.71-43.772C225 216.523 235 226.5 241.5 210.688c2.358-3.794 2.9-2.694 5 .001 1.594-1.06 8.6 3.163 10.5 4.31 10.742 6.53 18.008 7.903 29.5 13 7.626 3.382 16.21 7.83 21.5 14.5 11.608 14.64 1.426 48.664-2.935 64.37C304.06 310.49 302 314.5 302 317zm-148.87 22.08c.285-1.984.87-4.08.87-4.08v-10.5c-3.048-3.788-7.217-2.118-11.416-3.47-10.102-3.253-19.366-.663-29.53 1.01-4.073.67-11.51 5.778-15.144 3.608 0-9.646-.242-23.27-.91-30.646-.97-10.682-1.303-24.603 3.38-34.586C103.107 245 112.655 239.633 123 236c9.855-6.933 22.226-9.484 32.742-14.744 2.98-1.99 5.052-3.77 8.07-4.733 2.455-1.71 4.764-3.608 6.827-5.834 4.21-4.544 10.703.995 8.76 5.853.785.425 1.494 1.08 2.046 1.996 6.267 4.462.75 9.04 1.557 12.962.833 4.04 3.466 4.596 4.7 6.853C198 247.5 202 249 205.697 255.5c.684 2.08 3.65 5.347 2.48 6.5.828 2.25.928 8.04 1.822 11 3.734 12.363 5.87 19.595 7 32.5 1.075 12.272 3.27 22.203 6.5 33.58h-70.37zm-12.935-39.65c-.02.014-.043.026-.064.04.022.003.043.007.064.01v-.05z" class="B D"/><path d="M155.658 340l.404-9.506c0-.506-.202-.9-.505-1.214a1.86 1.86 0 0 0-1.212-.506c-.808.102-1.717.708-1.717 1.72l-.404 9.506h3.434zm52.222-198.727c-.9 0-1.717.8-1.717 1.72v.404c0 1.416-.303 2.427-1 3.742-.303.607-.707 1.113-1 1.72l-.1.102c-1.112 1.82-2.223 3.54-2.223 5.663 0 4.146 4.748 4.652 8.283 4.652.9 0 1.717-.8 1.717-1.72s-.808-1.72-1.717-1.72c-2.828 0-3.737-.304-4.242-.506l-.707-.303.1-.708c.1-1.012.808-2.124 1.616-3.44l1.212-2.023a10.5 10.5 0 0 0 1.414-5.461v-.404c.1-.9-.707-1.72-1.616-1.72zm.706 42.477l-5.05-.606h-.202c-.9 0-1.616.606-1.717 1.517-.1.505.1.9.404 1.314s.707.607 1.212.607l5.152.607c1 .1 1.818-.607 1.92-1.517.1-.506-.1-.9-.404-1.315-.505-.303-.9-.607-1.313-.607zm102.42 58.86c-3.232-5.26-7.373-8.8-13.535-11.934-6.767-3.44-15.15-6.776-23.232-9.9h-.1c-9.595-3.843-18.585-7.383-23.635-10.62-1.818-1.113-5.253-3.54-7.475-5.26l-.404-.303v-18.8l.303-.304c2.525-2.83 4.546-5.865 6.06-8.798 2.626-5.36 4.343-15.07 4.95-19.114l.1-.607.606-.202c1.313-.506 2.424-1.315 3.535-2.428 3.233-3.438 5.05-8.2 6.263-17.1.808-5.36.404-8.596-1.1-10.417a5.11 5.11 0 0 0-2.627-1.416l-1.1-.202.303-1.112 1.213-4.35c.9-3.236 1.818-6.473 2.525-10.62.1-.506.202-1.214.303-1.922v-.202c1.414-7.686 4.646-25.587-8.687-36.913l-.202-.1-.1-.202c-2.525-5.158-9.293-12.338-15.656-14.866-20.303-7.888-45.15-5.36-58.382 1.214-1.515.708-3.03 1.618-4.748 2.832l-.1.1c-.1.1-.202.1-.202.202l-.1.1c-6.464 4.55-11.414 10.922-14.747 18.912v.1c-.1.1-.1.202-.202.404v.1c-1.1 2.63-1.818 4.956-2.424 7.282-2.93 11.327-.303 24.777 1.818 35.497l.707 3.64-1.212.202c-1.717.102-2.626.9-3.03 1.416-1.515 1.82-1.92 4.956-1.1 10.417 1.313 8.8 3.03 13.552 6.262 17.092 1 1.112 2.222 1.92 3.636 2.326l.607.202.1.607c.303 1.517.505 2.83.707 4.146.9 5.46 1.515 9.507 4.14 14.968 1.92 3.944 4.747 7.484 6.868 9.7.303.404.808.606 1.314.606h.202l1.717-.404-.303-1.618c-.1-.405-.202-.708-.404-.9-1.92-2.124-4.546-5.26-6.263-8.9-2.424-5.057-3.03-8.596-3.838-14.058-.303-1.618-.606-3.64-1-5.967a1.72 1.72 0 0 0-1.414-1.415c-1.515-.203-2.424-.708-3.334-1.72-2.727-2.933-4.242-7.18-5.353-15.17-.303-2.123-.505-4.854-.202-6.674l.707-1.214H160c.1 0 .202-.1.303-.1l1-.202.303 1.618c0 .303.1.505.1.708v.303l2.02 12.035c.1.9 1 1.618 2.02 1.416.505-.1.9-.304 1.1-.708.303-.405.404-.8.303-1.315l-1.92-11.73.1-.304c1.718-4.247 2.627-9.405 3.132-12.44l.303-1.82c.606-3.236.404-7.483.303-11.53-.202-5.157-.303-10.416.9-12.742 2.222-4.248 9.495-8.192 14.04-8.697 2.12-.202 4.545.202 8.383.9h.1c4.546.8 10.606 2.023 20.202 2.832 17.98 1.517 30.908-3.236 31.413-3.44s.9-.607 1-1c.808-2.326 2.83-5.057 5.354-7.383.404-.303.606-.8.606-1.315v-1.214l-1.1-.404a1.76 1.76 0 0 0-1.717.303c-1.213 1.112-4.344 4.045-5.96 7.585l-.202.404-.404.1c-4.04 1.214-14.848 4.045-28.686 2.832-9.293-.8-15.353-1.922-19.797-2.73-4.142-.8-6.87-1.315-9.495-1-5.657.607-13.94 5.158-16.767 10.62-1.617 3.135-1.515 8.596-1.313 14.462.1 3.945.202 8-.304 10.822l-1.414 8.2-1-5.46c-1.92-10.214-3.838-21.844-1.414-31.452.505-2.124 1.212-4.147 2.222-6.574l.1-.202.202-.202c12.424-10.62 27.373-11.53 37.676-10.417 12.222 1.315 22.727 6.068 24.343 8.293l.1.1c.505.8 1.515 1.112 2.323.708a1.61 1.61 0 0 0 .808-1.01c.1-.403.1-.9-.1-1.315-1.515-2.933-10.606-7.383-21.817-9.405-7.677-1.416-22.626-2.73-36.565 4.35l-3.94 2.023 2.626-3.54a37.87 37.87 0 0 1 8.181-7.888l.202-.1c26.97-9.304 56.565 3.438 59.393 8.1.505.9 1.515 1.214 2.323.8.404-.202.707-.607.9-1 .1-.404.1-.9-.1-1.315-1.616-3.236-6.565-5.26-9.697-6.574-8.787-3.742-18.888-6.17-28.484-6.068-3.838 0-7.777.506-11.616 0 15.555-2.933 32.02-3.54 46.868 2.427 5.858 2.326 11.414 8.798 13.535 12.642l.9 1.517.808.708c11.616 10.113 8.687 25.9 7.272 33.476-.202.8-.303 1.618-.404 2.225-.505 3.033-1.1 5.663-1.92 8.596l-1.414 4.854-.606-4.955c-.1-1.214-.303-2.023-.404-2.63-.505-2.022 0-5.967.505-9.7.606-4.854 1.1-9.405.303-12.338-.707-2.427-2.93-5.26-6.565-8.192a1.84 1.84 0 0 0-2.425 0c-.404.405-.606.9-.505 1.416 0 .506.303.9.607 1.112 4.14 3.337 5.252 5.562 5.555 6.574.707 2.326.1 6.776-.404 11.024-.505 4.35-1 8.394-.404 11.023.202.8.404 2.326.606 4.046.303 2.83.808 7.484 2.02 11.124l.1.203-2.02 11.832c-.1.405 0 .9.303 1.315s.707.607 1.1.708h.303c.808 0 1.616-.607 1.717-1.416l2.02-12.136.1-.303c0-.304.1-.607.1-.9l.202-1.415.9.1h.606l.303.404c.303.506 1 2.124.303 7.585-1.1 8.1-2.626 12.338-5.353 15.17-1.212 1.315-2.323 1.618-3.333 1.82-.808.1-1.313.708-1.414 1.517 0 .1-1.818 13.653-4.85 19.822-3.03 5.967-7.676 10.315-7.878 10.518-.303.303-.505.707-.606 1.213 0 .202 0 .405.1.607 0 .1.1.202.1.303.1.1.1.203.202.405.202.202.404.303.606.404l.606.304v16.687c0 .505.202 1 .606 1.314.1.102.303.203.404.304l.606.506-.1.606c-.404 2.225-1.414 5.462-3.636 8.8-1.212 1.82-2.727 3.337-4.748 4.45l-1.92 1.112.404-2.124c.202-1.112.9-4.652 1-6.674 0-.607.1-1.214.1-2.023.1-3.135.505-6.27 1.1-9.405.1-.405.1-.708.202-.9 0-.303.1-1.415.202-2.63l.303-3.54.1-.303 1.92-4.753c.202-.607.202-1.214.1-1.82-.1-.1-.1-.202-.202-.404-.202-.405-.606-.8-1-1.113-1.617-.9-3.536-1.112-5.253-.607-2.525.8-4.747 3.136-6.565 6.98a20.08 20.08 0 0 0-1.818 6.776l-.1.707-.708.203c-.202 0-.404.1-.505.1-.303.202-1.414.607-4.343.9-.505 0-.9.303-1.212.607s-.404.8-.404 1.213c0 0 0 .102.1.203l.404 1.213 1.1.1h.303c1-.1 1.92-.202 2.93-.404l1.92-.405-.8 1.82a22.83 22.83 0 0 1-1.111 2.225l-.505 1-1-.708c-.606-.506-1.414-1-2.12-1.618v.1l-3.232-2.528h.1c-9.9-8.192-23.333-20.935-23.434-21.036-.404-.303-.808-.506-1.414-.506-1.212.102-3.232.708-4.747 1.922l-1.313 1.112-.404 1.517c-.202.607-.202 1.113-.202 1.72 0 3.337 4.14 7.484 10.908 14.158l4.344 4.35-.606.708c-3.94 4.652-6.667 8.192-8.687 11.125l-.9 1.314-.707 1.315c-2.93 5.057-3.333 8.8-1.414 11.934 1.515 2.427 8.383 9.506 12.12 12.844 3.232 2.83 7.272 5.967 9.393 7.585l.303.202 12.424 60.376c.606 8.293 2.12 16.485 4.445 24.373h3.636c-2.424-8-4.04-16.383-4.646-24.878l-12.626-61.186c-.1-.404-.303-.8-.707-1 0 0-5.86-4.35-10-8-3.94-3.54-10.303-10.113-11.515-12.034-.808-1.416-.808-3.237 0-5.462l.404-1 .9.405c.707.303 1.414.1 1.92-.405.303-.303.505-.8.404-1.214a1.44 1.44 0 0 0-.606-1.213l-.9-.8.505-.708c.606-.9 1.212-1.82 2.02-2.832l.606-.8.808.506c.202.202.606.303 1 .303.505 0 .9-.202 1.313-.607.303-.303.505-.8.404-1.213a1.44 1.44 0 0 0-.606-1.214l-.707-.607.505-.8 2.93-3.54.707-.8.808.8c.606.708 1.717.708 2.424.1.303-.304.505-.708.606-1.214 0-.506-.1-.9-.404-1.213-.505-.607-1.1-1.214-1.717-1.82l-.606-.708-5.252-5.26c-6.364-6.27-9.697-9.8-9.9-11.63v-.1c0-.607.303-1.82 2.222-2.427l.606-.203.404.405c3.737 3.54 22.525 21.238 30.605 26.193l.202.102c.1 0 .1.1.202.1l1.92.8c.9.404 1.92 0 2.324-.9.303-.708.1-1.517-.505-2.023l-.606-.506.404-.708c2.626-5.056 2.93-7.18 2.828-8-.1-2.73.404-5.36 1.515-7.788 1.717-3.64 3.333-4.854 4.444-5.157l2.02-.607-.707 2.023-1.1 2.73c-.202.506-.303 1.113-.404 1.72v.304l-.404 5.36-.1.708c-.606 3.236-1 6.573-1.212 9.9 0 .708-.1 1.315-.1 1.92-.1 1.72-.808 5.462-1.1 6.675v.304c0 .404 0 10.416-1.616 17.1-.1.405 0 .8.1 1.113l23.232 47.128c1.414 3.135 3.13 6.472 5.353 10.012l.1.202c.1.202.202.405.303.506l.303.404c0 .1.1.202.202.304 3.03 4.854 6.364 9.304 9.9 13.046 12.323 13.35 16.363 25.9 17.272 29.53h3.434v-.708c-1-3.742-5.15-17.092-18.18-31.15a82.41 82.41 0 0 1-6.869-8.597l-1.1-1.517 1.92-.1c19.494-.607 32.928 6.473 39.695 20.935.303.607 1 1 1.718 1 .202 0 .404-.1.505-.303l1.1-1.113c.404-1.72 9.797-43.285 10.605-55.016 1-9.203-.1-15.07-3.636-20.732zm.606 20.63c-.505 8.495-5.858 33.475-9 47.633l-.505 2.225-1.314-1.92c-8.585-12.237-22.625-17.9-41.817-16.788l-1.313.1.202-1.315c.404-2.124 1.212-6.068 2.727-8.9.202-.404.304-.9.1-1.314a1.61 1.61 0 0 0-.808-1.012c-.808-.404-1.92-.1-2.323.708-.707 1.315-1.414 3.034-2.02 5.057l-.707 2.427-1.1-2.326a4.74 4.74 0 0 1-.505-1.01c-.404-.8-.808-1.618-1.212-2.53l-23.03-46.622.1-.303c.9-4.147 1.212-9 1.414-12.34l.1-1.82 1.515 1c.707.405 1.313.405 1.82.1 2.525-1.415 4.545-3.337 5.96-5.562 1.515-2.326 2.727-4.854 3.535-7.686l.404-1.315 1.1.8c1.414 1.012 2.728 1.922 3.637 2.428 5.353 3.337 14.444 6.978 24.24 10.82 8.08 3.236 16.364 6.472 23.13 9.9 5.757 2.832 9.293 5.967 12.222 10.62 2.525 4.35 4.14 9 3.434 18.912zM175.96 209.842l.404 1.315c.808 2.73 2.02 5.36 3.535 7.584.404.708.9 1.315 1.516 1.922.505.506 1.1.8 1.92.405l1.1-.506-.1-1.214a1.54 1.54 0 0 0-.404-1.01l-1.212-1.517c-2.122-3.337-3.132-6.473-3.637-8.596l-.1-.607.707-.506.303-.303c.404-.304.606-.8.606-1.315v-9c0-.9-.808-1.72-1.717-1.72s-1.717.8-1.717 1.72v8.1l-.404.303-7.474 5.057c-8.384 5.36-22.323 12.237-34.646 18.305-13.636 6.675-22.02 10.82-24.848 13.248-7.373 6.27-11 12.54-12.525 21.643-2.93 17.395-3.03 41.16-.303 63.5a1.98 1.98 0 0 0 .91 1.315 1.9 1.9 0 0 0 1.515.1l4.647-2.022-.202.202c16.363-5.765 39.2-4.45 51.918.202.505.202 1.1.1 1.616-.202s.707-.8.707-1.416c-.1-8.495-.9-17.193-1.616-24.07-.404-4.247-.707-7.787-.808-10.517a1.44 1.44 0 0 0-.606-1.214c-.303-.303-.808-.506-1.212-.506-1 0-1.718.8-1.718 1.82.1 2.73.505 6.37.808 10.62.505 5.764 1.213 12.844 1.516 20.024v1.416l-1.314-.405c-13.232-3.742-35.05-4.955-51.816 1.416l-1.212.506-.1-1.315c-2.223-20.732-1.92-42.78.808-58.758 1.414-8.394 4.545-13.855 11.312-19.62 2.627-2.225 13.03-7.383 24.04-12.743 12.424-6.17 26.565-13.046 35.05-18.507.808-.506 2.12-1.416 3.636-2.427l1.1-.708zM101.013 329.28l-.505.506c-.202.202-.606.708-.505 1.315l.9 8.9h3.535l-1-9.203a1.67 1.67 0 0 0-1.717-1.517h-.707zm133.632-207.626h.808c2.424 0 3.94.505 6.667 1.92.808.405 1.92.1 2.323-.8.202-.404.202-.9.1-1.315a1.49 1.49 0 0 0-.909-1.011c-3.333-1.72-5.556-2.427-9.293-2.225l-6.262.304c-.9 0-1.717.8-1.616 1.82a1.44 1.44 0 0 0 .606 1.214c.303.303.707.404 1.212.404l6.363-.303zm-2.727 12.743c1.717 0 3.233-1.416 3.233-3.135s-1.415-3.136-3.233-3.136-3.232 1.416-3.232 3.136 1.414 3.135 3.232 3.135zm67.07 190.23c-1 5.664-1.92 10.72-3.334 15.373h3.637c1.212-4.55 2.12-9.406 3.13-14.867l-3.434-.506zm-107.473-206.2l-6.262-.303h-1c-3.13 0-5.253.8-8.283 2.326-.404.202-.707.607-.9 1-.1.405-.1.9.1 1.315.404.8 1.515 1.213 2.323.708 3.03-1.517 4.546-2.023 7.576-1.922l6.262.304c.404 0 .808-.1 1.1-.405.405-.303.607-.8.607-1.315s-.1-.9-.405-1.213c-.202-.304-.606-.405-1.1-.506zm1.615 58.153c.606.202 1.414 0 1.818-.506l.303-.404h.505c7.576.202 17.374 1.315 21.313 3.135.808.405 1.92 0 2.323-.8.202-.405.202-.9.1-1.315-.202-.404-.505-.8-.9-1-4.444-2.023-14.242-3.236-22.02-3.44h-.505l-.303-.404c-.202-.304-.505-.506-.808-.607-.404-.1-.9-.1-1.313.1s-.707.607-.9 1l-.707 2.124c-.1.405-.1.9.1 1.315.202.303.606.708 1 .8zm-6.564-42.173c1.717 0 3.232-1.416 3.232-3.135s-1.414-3.136-3.232-3.136c-1.717 0-3.233 1.416-3.233 3.136.102 1.72 1.516 3.135 3.233 3.135z" class="C"/><g class="D"><path d="M67.98 108.5c4.418 0 8 3.578 8 7.992a8 8 0 1 1-16 0c0-4.414 3.58-7.992 8-7.992zM36.768 79.817c-.8-3.272.12-6.085 2.636-8.3l.362-.294a3.84 3.84 0 0 1 .682-.508c.233-.136.47-.245.713-.33 1.473-.706 3.1-.915 4.824-.596 4.864.902 7.85 6.068 6.215 10.782-.095.272-.375.544-.637.676-2.513 1.26-5.128 2.345-7.235 4.28a1.34 1.34 0 0 1-1.363.346c-3.218-.808-5.4-2.796-6.197-6.057zm43.426 8.663c-.813-2.4-2-4.498-3.615-6.35 1.052-.437 2.88.33 3.7 1.515 1.044 1.5 1.038 3.58-.085 4.837z" class="B"/><path d="M81.374 90.296c-.348.365-.415.688-.325 1.174.65 3.505.317 6.92-.785 10.27-.118.36-.147.796-.074 1.17l1.585 7.714c.307 1.487-.14 2.52-1.416 3.273l-2.604 1.517c-1.238.703-2.487.498-3.49-.554-.483-.507-.983-1-1.446-1.527-.253-.29-.437-.305-.725-.055-3.136 2.715-6.65 4.787-10.5 6.26-.383.146-.5.33-.358.762.227.642.392 1.308.566 1.968.352 1.332-.127 2.526-1.288 3.215l-2.712 1.58c-1.156.662-2.304.545-3.3-.356l-4.962-4.47c-.242-.213-.622-.36-.94-.37-4.21-.11-8.336-.873-12.458-1.706-1.63-.33-2.777-1.213-3.588-2.665l-3.398-5.957c-.864-1.548-.49-3.132 1.05-3.898 1.548-.773 2.33-2.036 2.76-3.64.494-1.844.684-3.727.475-5.632-.05-.464-.33-.996-.665-1.323-1.414-1.37-2.888-2.678-4.345-4.004-.297-.27-.633-.5-.916-.783-.696-.698-.745-1.367.038-1.94.708-.52 1.54-.928 2.38-1.183 1.935-.585 3.944-.69 5.962-.532.43.033.677-.066.903-.45.477-.812 1.015-1.587 1.526-2.372-3.784-3.636-4.9-7.857-2.688-12.65 1.703-3.708 5.58-5.817 9.6-5.48 4.48.377 7.464 3.055 9.165 8.276l1.307-.267c5.207-1.05 10.296-.764 15.125 1.78 1.297.683 2.47 1.618 3.673 2.48.332.238.572.37 1.004.253 2.586-.703 5.347.5 6.717 2.855 1.352 2.332 1.03 5.326-.823 7.265zM45.944 69.74c-1.715-.323-3.35-.117-4.823.588-.24.085-.48.193-.712.33-.245.143-.473.315-.68.508a7 7 0 0 0-.362.294c-2.51 2.215-3.435 5.033-2.618 8.314.814 3.27 2.99 5.266 6.207 6.082.54.138.95.036 1.363-.343 2.103-1.936 4.715-3.02 7.225-4.276.263-.132.542-.404.636-.677 1.625-4.72-1.37-9.904-6.235-10.818zm25.473 10.408c-5.166-3.27-10.706-3.415-16.385-2.03-.145.036-.335.215-.358.354-.106.645-.16 1.3-.238 2 .73-.173 1.41-.362 2.1-.49.573-.106 1.047.232 1.15.744.114.564-.178 1.04-.772 1.173-2.168.49-4.26 1.202-6.247 2.197-3.287 1.646-6.292 3.65-8.308 6.887-.398.638-.96.778-1.47.416-.49-.347-.56-.9-.144-1.517.446-.66.926-1.298 1.423-2-.58-.223-1.1-.4-1.593-.625-.336-.16-.53-.1-.723.2-.604.963-1.256 1.896-1.825 2.88-.27.47-.55.62-1.09.55-2.262-.283-4.513-.238-6.728.32-.198.05-.365.22-.546.335.126.177.226.385.383.527l4.11 3.696c.945.877 1.482 1.97 1.387 3.303-.113 1.57-.118 3.16-.385 4.698-.423 2.443-1.404 4.58-3.756 5.755-.565.282-.657.884-.315 1.485l3.31 5.785c.494.858 1.208 1.412 2.174 1.62 4.218.902 8.45 1.654 12.77 1.7.35.003.773.185 1.045.424l5.35 4.807c.42.383.793.477 1.3.165a43.69 43.69 0 0 1 2.493-1.457c.512-.278.66-.645.49-1.207-.26-.857-.496-1.722-.734-2.585l-.407-1.556a36.92 36.92 0 0 0 7.363-3.318c2.33-1.373 4.45-3.024 6.445-4.93l3.003 3.176c.408.44.8.546 1.326.214a40.7 40.7 0 0 1 2.441-1.421c.526-.282.68-.642.554-1.246l-1.625-8.093c-.085-.45-.055-.982.1-1.407 2.916-8.025-.012-17.068-7.06-21.528zm9.58 5.205c-.01-.054-.02-.108-.034-.162a4.5 4.5 0 0 0-.49-1.25c-.058-.098-.12-.195-.184-.3-.154-.223-.342-.43-.554-.62-.14-.126-.292-.243-.45-.35-.08-.053-.16-.104-.242-.152a4.19 4.19 0 0 0-.302-.162 4.65 4.65 0 0 0-.202-.093 3.62 3.62 0 0 0-.895-.258 2.3 2.3 0 0 0-.662-.005l-.07.012a1.44 1.44 0 0 0-.283.083l.24.287a18.92 18.92 0 0 1 .888 1.157 15.58 15.58 0 0 1 .258.375c.254.38.493.766.72 1.163.15.265.294.534.433.807a19.26 19.26 0 0 1 .396.832c.253.563.482 1.145.688 1.745a2.8 2.8 0 0 0 .099-.118c.064-.08.124-.165.18-.25l.08-.132a3.47 3.47 0 0 0 .201-.416 3.65 3.65 0 0 0 .102-.294 3.55 3.55 0 0 0 .077-.304c.01-.052.02-.104.03-.156.077-.468.07-.96-.023-1.448zm-38.45 17.36c-.943.533-2.2.154-2.723-.813-.522-.986-.152-2.252.803-2.748a2.03 2.03 0 0 1 2.67.839c.505.95.158 2.2-.75 2.722z" class="C"/><path d="M351.176 232.938l49.53 13.24c-.326 1.153-.428 2.394-1.298 3.347-1.023 1.12-2.295 1.37-3.714 1l-15.146-4.046-27.084-7.244c-2.33-.624-3.33-2.38-2.708-4.724l.42-1.565zm23.796 10.14l1.7.454c.598.147 1.082-.115 1.214-.64.127-.504-.15-.966-.7-1.122l-3.418-.915c-.568-.146-1.033.113-1.176.617-.148.52.14.993.726 1.16l1.654.444zm7.154-26.375c5.28 1.412 8.4 6.834 6.993 12.112a9.91 9.91 0 0 1-12.126 7.001c-5.28-1.412-8.4-6.834-6.993-12.112a9.91 9.91 0 0 1 12.126-7.001z" class="B"/><path d="M408.87 223.18l-6.74 25.1c-.816 3.038-3.898 4.816-6.94 4.003l-14.868-3.976-.558 2.11c-.248 1.332.484 2.503 1.787 2.94.216.073.44.125.66.185.916.246 1.253.622 1.1 1.226-.156.617-.66.784-1.605.532l-5.31-1.417-14.2-3.8c-.148-.04-.3-.07-.44-.126-.463-.19-.703-.664-.548-1.115a.86.86 0 0 1 1.02-.63c.357.053.7.18 1.054.264 1.52.364 2.807-.364 3.25-1.85l.498-1.845-.565-.178-13.38-3.58c-2.752-.74-4.485-3.235-4.22-6.06.026-.282.093-.563.167-.838l6.696-25.05c.822-3.188 4.16-5.07 7.283-4.218l41.74 11.187c3.28.877 5.004 3.862 4.125 7.137zm-42.01 26.216l11.456 3.063c-.773-1.623-.18-3.116.215-4.606l-9.76-2.6c-.214.797-.318 1.572-.633 2.25-.32.685-.845 1.276-1.277 1.902zm-16.05-14.852c-.617 2.33.386 4.078 2.715 4.702l42.238 11.293c1.42.38 2.69.134 3.712-.98.867-.946.968-2.182 1.292-3.327l-49.54-13.243-.417 1.555zm53.688-16.673l-42.245-11.294c-2.263-.604-4.04.414-4.646 2.664l-5.762 21.458c-.042.158-.065.32-.098.48l49.506 13.235.106-.33 5.833-21.735c.564-2.113-.522-3.898-2.694-4.48zm-18.822 5.264l-11.937 6.868c-.265.15-.585.21-.734.26-.82-.226-1.065-1.013-.622-1.507.136-.152.323-.264.502-.368l11.785-6.79c.148-.085.296-.183.457-.232.46-.14.837.002 1.076.413.227.4.164.773-.153 1.096-.105.106-.242.183-.374.26zm-8.76 7.41l3.21-1.85c.36-.206.767-.246 1.052.07.216.24.306.592.464.92-.276.266-.437.486-.652.615l-3.16 1.826c-.572.324-1.113.196-1.378-.295-.253-.467-.084-.967.462-1.288zm5.562-3.202a72.38 72.38 0 0 1 2.181-1.254c.367-.202.774-.205 1.048.124.198.238.27.58.408.893-.245.25-.388.462-.587.584a52.95 52.95 0 0 1-2.129 1.231c-.542.298-1.074.16-1.333-.316-.247-.452-.096-.957.412-1.262zm-5.734 16.22l-1.71-.453-1.654-.445c-.588-.17-.875-.637-.727-1.157.142-.5.606-.756 1.174-.6l3.42.915c.56.156.837.615.71 1.117-.13.52-.614.78-1.212.633z" class="C"/><path d="M383.6 73.02l-3.564 6.142c-.34.583-.584.652-1.16.32l-20.186-11.605c-.55-.317-.622-.575-.307-1.123l3.616-6.24c.33-.566.576-.624 1.173-.282l20.087 11.553c.65.374.71.597.342 1.234zm-12.082-5.892l-1.5-.856c-.463-.244-.984-.094-1.204.3s-.07.896.38 1.184l.74.43-1.295 2.242c-.27.484-.13 1.016.293 1.246.4.223.918.084 1.2-.372l1.71-2.944c.27-.48.146-.944-.322-1.238zm4.557 4.615c.292-.632 1.012-1.338.127-1.886-.973-.603-1.228.457-1.685 1.004-.64-.3-1.358-1.006-1.9-.115-.585.964.495 1.213 1.017 1.64-.575 1.254-.613 1.7-.1 1.93 1.007.465 1.223-.46 1.66-1.043.66.318 1.36.99 1.895.145.608-.96-.43-1.237-1.025-1.676zm4.733.72c-.42-.242-.94-.088-1.226.395l-1.655 2.857c-.297.525-.173 1.054.278 1.292.43.228.92.062 1.218-.43l.83-1.427.825-1.43c.273-.5.153-1.013-.27-1.257zm-19.94 14.92c.86.5 1.15 1.58.652 2.436-.493.847-1.59 1.138-2.45.648-.868-.495-1.172-1.57-.685-2.428.507-.89 1.6-1.176 2.482-.656zm-6.643-9.87c-.858-.5-1.16-1.583-.67-2.43.507-.877 1.608-1.16 2.5-.642.83.486 1.13 1.56.662 2.392-.495.883-1.598 1.185-2.48.68zm-8.87 15.236a1.78 1.78 0 0 1-.654-2.395c.5-.885 1.596-1.182 2.482-.673a1.78 1.78 0 0 1 .666 2.432 1.8 1.8 0 0 1-2.494.636zm20.316 7.562c.893.5 1.19 1.602.676 2.473-.5.846-1.592 1.124-2.455.624s-1.154-1.57-.663-2.435c.486-.854 1.584-1.15 2.442-.662zm8.854-15.245c.87.502 1.17 1.574.684 2.43s-1.574 1.163-2.44.68c-.896-.5-1.2-1.584-.692-2.468.49-.85 1.588-1.14 2.447-.642z" class="B"/><path d="M392.174 75.938l-19.27 33.242c-1.902 3.274-5.543 4.227-8.866 2.317l-25.815-14.84c-3.1-1.788-4.13-5.494-2.344-8.582l19.213-33.148c1.455-2.504 3.98-3.74 6.642-3.2.695.14 1.4.395 2.016.746l26.202 15.058c2.96 1.7 3.93 5.454 2.222 8.407zm-3.145-6.967L362.978 54c-2.338-1.344-4.96-.657-6.3 1.65l-19.35 33.383c-.138.237-.268.484-.354.74-.713 2.138.096 4.248 2.078 5.39l25.86 14.87c2.506 1.44 5.054.774 6.487-1.7l9.58-16.524 9.715-16.764c1.247-2.16.506-4.815-1.665-6.064zm-7.566 11.266c-.715 1.23-1.96 1.545-3.222.82L357.835 69.32c-1.4-.805-1.726-1.966-.932-3.34l3.755-6.473c.747-1.285 1.954-1.608 3.247-.865l20.504 11.8c1.275.734 1.61 1.936.888 3.188l-3.834 6.616zm1.846-8.458l-20.067-11.54c-.595-.343-.842-.285-1.17.282l-3.613 6.235c-.316.546-.243.805.307 1.12L378.93 79.47c.577.332.822.262 1.16-.32l3.56-6.138c.368-.635.306-.86-.342-1.233zm-3.002 3.362l-.83 1.426c-.298.492-.787.658-1.217.43-.45-.238-.574-.767-.277-1.292l1.653-2.854c.286-.483.806-.636 1.226-.395s.54.755.27 1.256l-.824 1.428zm-5.043-1.873c-.438.58-.653 1.505-1.66 1.042-.522-.24-.485-.677.1-1.93-.522-.428-1.6-.675-1.015-1.64.54-.89 1.256-.184 1.896.115.457-.547.712-1.606 1.684-1.004.884.548.165 1.253-.127 1.884.593.44 1.63.717 1.023 1.675-.535.844-1.234.173-1.892-.144zm-5.07-1.963c-.272.455-.78.594-1.19.372-.423-.23-.562-.762-.293-1.245l1.295-2.24-.74-.428c-.45-.288-.6-.775-.378-1.183s.74-.553 1.203-.3l1.488.855c.467.294.59.757.32 1.237l-1.707 2.942zM358.26 77.72c-.948 1.653-3.155 2.23-4.827 1.262-1.652-.956-2.25-3.123-1.31-4.753a3.56 3.56 0 0 1 4.816-1.302c1.678.952 2.278 3.128 1.322 4.793zm-2.14-3.288c-.882-.517-1.98-.233-2.487.642a1.78 1.78 0 0 0 .67 2.429 1.8 1.8 0 0 0 2.479-.68c.466-.83.17-1.903-.662-2.39zm-2.284 10.92c-.968 1.65-3.155 2.215-4.822 1.247s-2.25-3.145-1.285-4.792 3.15-2.216 4.82-1.247 2.253 3.15 1.287 4.792zm-2.13-3.298c-.883-.52-1.982-.24-2.49.635-.493.848-.196 1.938.662 2.43a1.8 1.8 0 0 0 2.482-.673c.47-.832.176-1.904-.655-2.393zM349.42 92.97c-.967 1.65-3.152 2.218-4.82 1.253s-2.254-3.143-1.3-4.79 3.148-2.22 4.818-1.253 2.256 3.146 1.293 4.79zm-2.155-3.31c-.886-.508-1.98-.21-2.48.673-.47.83-.177 1.904.653 2.393a1.8 1.8 0 0 0 2.492-.636c.492-.847.193-1.937-.665-2.43zm10.124 3.843c1.668.985 2.243 3.157 1.27 4.797-.98 1.652-3.157 2.208-4.826 1.23a3.53 3.53 0 0 1-1.27-4.798c.962-1.643 3.17-2.207 4.826-1.23zm-2.656 4.568c.86.485 1.954.187 2.444-.663.492-.855.197-1.93-.667-2.43-.89-.514-1.972-.22-2.475.67-.482.855-.173 1.93.698 2.42zm2.235-10.935c.948-1.65 3.153-2.232 4.815-1.268 1.677.974 2.268 3.135 1.307 4.787-.965 1.66-3.137 2.232-4.816 1.268-1.673-.96-2.263-3.122-1.306-4.787zm2.174 3.31c.858.5 1.954.2 2.447-.648a1.77 1.77 0 0 0-.652-2.434c-.89-.52-1.973-.232-2.48.657-.487.855-.184 1.93.684 2.425zm7.447 8.346c1.677.943 2.294 3.13 1.346 4.778-.967 1.682-3.16 2.26-4.856 1.28-1.64-.95-2.23-3.108-1.297-4.75.942-1.66 3.124-2.252 4.807-1.307zm-2.632 4.584c.862.5 1.953.22 2.452-.624.515-.87.217-1.96-.674-2.47a1.79 1.79 0 0 0-2.44.662c-.49.863-.2 1.935.662 2.433zM362.666 84.3c-1.668-.98-2.242-3.17-1.258-4.81 1-1.647 3.183-2.19 4.846-1.2 1.64.977 2.206 3.143 1.246 4.77-.978 1.66-3.162 2.22-4.834 1.238zm2.685-4.547c-.89-.515-1.975-.224-2.477.665-.483.852-.175 1.93.693 2.423.856.486 1.953.19 2.444-.657a1.77 1.77 0 0 0-.66-2.431zm.853 12.73c.946-1.657 3.128-2.247 4.808-1.298s2.288 3.135 1.338 4.78c-.97 1.68-3.164 2.255-4.857 1.27-1.64-.952-2.226-3.113-1.29-4.753zm2.16 3.277a1.79 1.79 0 0 0 2.483-.654c.486-.854.183-1.926-.684-2.428-.858-.496-1.954-.207-2.444.644-.496.86-.212 1.936.645 2.438zm2.255-10.894c.944-1.658 3.125-2.25 4.807-1.302 1.676.944 2.29 3.133 1.342 4.78-.96 1.663-3.115 2.247-4.8 1.302-1.672-.934-2.285-3.12-1.34-4.78zm2.208 3.3c.865.482 1.95.18 2.437-.68s.185-1.926-.683-2.428c-.86-.496-1.954-.21-2.445.642-.508.882-.204 1.967.69 2.465z" class="C"/><path d="M34.094 233.232l-4.42 4.4c-.035.035-.086.053-.16.098l-4.838-4.827 4.804-4.792.605.603 3.95 3.933c.197.195.315.342.06.594zm-13.138-11.554c-.406-1.05-.164-2 .594-2.787l1.6-1.6c-1.098-.723-1.925-1.55-1.936-2.886-.007-.825.276-1.543.86-2.1.76-.74 1.684-.992 2.74-.775 1.043.217 1.65 1 2.265 1.853l1.466-1.464c1.236-1.238 2.76-1.233 4.014.012l1.02 1.018-10.855 10.83c-.644-.653-1.43-1.184-1.777-2.08zm31.314 9.226c2.017-2.012 5.308-1.992 7.35.046s2.063 5.32.046 7.334-5.308 1.992-7.35-.046-2.063-5.32-.046-7.334z" class="B"/><path d="M45.45 262.158l-32.435-32.36.396-.394 5.978-5.965c.174-.174.32-.305.176-.614-1.004-2.142-.76-3.606.855-5.335.023-.025.04-.056.076-.108-1.536-2.302-1.535-4.53.472-6.513 1.547-1.528 3.446-1.522 6.16-.144.405-.308.78-.65 1.207-.905 1.314-.774 2.692-.804 4.06-.115.416.21.63.128.925-.17l6.25-6.246 32.442 32.368-26.562 26.5zm-12.927-50.282c-1.257-1.25-2.785-1.253-4.023-.013l-1.47 1.468c-.615-.866-1.224-1.64-2.27-1.857-1.058-.218-1.986.034-2.747.776-.584.568-.868 1.288-.86 2.115.01 1.34.84 2.17 1.94 2.893l-1.614 1.615c-.76.8-1.002 1.74-.595 2.793.347.9 1.135 1.43 1.782 2.086l10.88-10.856-1.022-1.02zm1.66-.725l1.797 1.792-13.3 13.27-1.805-1.8-5.417 5.404 29.99 29.92L69.59 235.65 39.6 205.736l-5.426 5.415zm22.89 29.134l-5.884-1.51.404-1.656 3.86.973.486-10.488 1.722.1-.587 12.582zm-14.675 12.778l7.21-7.194 1.186 1.183-7.21 7.194-1.186-1.183zm-5.012-23.1l11.444-11.418 1.18 1.178-11.445 11.418-1.18-1.178zm-3.066-3.058L45.752 215.5l1.18 1.177L35.5 228.082l-1.18-1.178zm-3.057-3.052l11.443-11.416 1.175 1.173-11.442 11.417-1.176-1.174zm-1.766 16.323l-7.303-7.286 7.197-7.18 7.303 7.286-7.197 7.18zm.54-11.464l-.607-.605-4.815 4.805 4.85 4.84c.074-.045.126-.063.16-.098l4.43-4.402c.257-.253.14-.4-.06-.596l-3.96-3.943zm14.627 12.224l-7.21 7.194-1.185-1.183 7.2-7.194 1.186 1.183zm3.072 3.06l-7.207 7.2-1.18-1.177 7.207-7.2 1.18 1.177z" class="C"/></g></svg>