<svg xmlns="http://www.w3.org/2000/svg" width="420" height="396" fill="none" xmlns:v="https://vecta.io/nano"><style><![CDATA[.B{fill:#ec7e3b}.C{fill:#171716}.D{stroke:#ec7e3b}.E{stroke-linejoin:round}]]></style><path d="M358.675 99.883c-21.24-38.387-55.8-66.28-98.016-78.31C173.903-3.762 82.797 46.397 57.46 133.152c-25.08 86.754 25.08 177.86 111.836 203.194 15.1 4.35 30.454 6.654 45.81 6.654 27.383 0 54.254-6.9 78.822-20.473 38.388-21.24 66.283-55.79 78.31-98.015 12.54-41.97 7.42-86.242-13.564-124.63zm-1.28 120.79c-142.802-24.568-225.72 23.544-258.732 50.16l-6.142-8.2c26.36-22.52 118.49-89.057 270.504-74.214-.768 10.748-2.56 21.24-5.63 31.733v.512zm-248.24 61.93c31.22-24.056 109.788-69.097 243.12-47.088-4.094 9.98-9.213 19.193-15.1 27.894-116.954-24.823-186.05 3.583-220.088 26.615-2.815-2.303-5.63-4.862-7.933-7.42zm159.18-109.02c32.5-33.27 73.96-38.643 88.29-39.41 4.094 12.54 6.142 25.59 6.9 38.643-35.06-3.327-66.795-2.56-95.2.768zM215.106 30.53c13.564 0 27.383 1.79 41.203 5.886 38.13 11.004 69.61 36.34 88.547 70.887 2.047 3.84 3.838 7.678 5.63 11.516-22.01 2.048-71.145 11.517-105.694 58.093-30.454 5.374-56.813 13.82-79.334 23.288 4.095-13.82 9.725-26.103 15.61-36.084 4.607.768 9.47 1.024 14.075 1.024 22.52 0 43.25-8.7 57.838-24.824 19.193-20.985 24.824-50.927 15.355-80.1L266.8 55.6l-4.862-1.024c-29.943-6.9-59.373 1.535-78.567 22.264-18.937 20.73-24.824 50.16-15.61 79.333-8.19 14.075-15.866 31.477-20.473 52.206-30.7 14.843-51.695 30.71-63.467 40.7l-3.84-7.42c84.197-65.514 63.723-159.178 55.022-187.584 23.544-15.1 51.44-23.544 80.102-23.544zm-7.422 88.29l-4.862-5.886c-.768.768-9.98 8.446-20.985 22.777-1.792-17.914 3.583-34.804 15.1-47.344 13.82-15.1 34.805-21.752 56.813-18.17 5.375 21.753.768 43.25-13.05 58.348-12.028 13.308-29.687 19.96-48.625 18.938 11.005-14.843 20.218-22.777 20.474-23.032l-4.863-5.63zM121.696 63.8c8.2 29.43 20.986 106.46-47.088 162.505l-3.07-10.237c38.387-47.344 38.9-98.526 31.99-134.866a117.04 117.04 0 0 1 18.17-17.402zM72.56 137.502c4.095-14.33 10.237-27.383 17.914-39.155 3.07 28.15-.256 62.955-22.777 96.735-2.303-18.68-.768-38.386 4.862-57.58zm101.087 184c-4.095-1.28-8.2-2.56-12.284-4.094 26.615-9.213 65.258-14.587 119.513-5.374-33.27 16.378-71.145 19.705-107.23 9.468zm127.446-21.752c-77.287-16.635-127.702-6.398-159.18 8.19-4.095-2.303-8.19-4.862-11.772-7.422 8.7-5.63 19.705-11.26 33.27-16.378 32.757-12.284 86.244-22.008 163.02-6.9-7.678 8.446-16.123 15.867-25.336 22.52z" fill="#fafafa"/><g fill-rule="evenodd"><path d="M418.29 154.363a3.41 3.41 0 0 1-4.669-1.264c-.942-1.647-.38-3.758 1.254-4.707a3.4 3.4 0 0 1 1.767-.461c.337.007.606.287.6.627s-.285.61-.623.605c-.396-.007-.787.096-1.133.296-1.05.6-1.412 1.967-.807 3.024s1.952 1.42 3 .812 1.41-1.967.806-3.023a.62.62 0 0 1 .224-.842.61.61 0 0 1 .834.225c.942 1.647.38 3.758-1.254 4.708zm-12.004 164.89l-2.28-2.3a1.4 1.4 0 0 1 0-1.978 1.38 1.38 0 0 1 1.964 0l2.28 2.3c.542.545.542 1.43 0 1.978a1.38 1.38 0 0 1-1.964 0zm-.317-6.79a1.38 1.38 0 0 1-1.964 0c-.27-.274-.406-.632-.406-1s.135-.715.406-.99l2.28-2.298a1.38 1.38 0 0 1 1.964 0c.542.545.542 1.43 0 1.978l-2.28 2.3zm-6.74 6.79a1.38 1.38 0 0 1-1.964 0c-.27-.273-.406-.63-.406-.99s.136-.716.406-.99l2.28-2.3a1.38 1.38 0 0 1 1.964 0c.542.546.542 1.432 0 1.978l-2.28 2.3zm.317-6.79l-2.28-2.3c-.27-.273-.406-.63-.406-.99s.136-.716.406-.99a1.38 1.38 0 0 1 1.964 0l2.28 2.298a1.41 1.41 0 0 1 0 1.979 1.38 1.38 0 0 1-1.964 0zm-55.077-130.5h-2.142c-.5 0-.923-.416-.923-.93s.413-.93.923-.93h2.142c.5 0 .922.416.922.93s-.412.93-.922.93zm-2.48-2.7c-.18.18-.416.272-.652.272a.92.92 0 0 1-.653-.272.94.94 0 0 1 0-1.315l1.516-1.527a.92.92 0 0 1 1.305 0 .94.94 0 0 1 0 1.315l-1.516 1.527zm-.013 3.538l1.515 1.527c.36.363.36.95 0 1.314-.18.182-.416.272-.652.272s-.472-.1-.653-.272l-1.515-1.527c-.36-.363-.36-.95 0-1.314s.944-.364 1.305 0zm-3.044-4.278c-.51 0-.922-.416-.922-.93v-2.16c0-.513.413-.93.922-.93s.922.417.922.93v2.16c0 .514-.412.93-.922.93zm-.02 5.004c.5 0 .922.416.922.93v2.16c0 .514-.412.93-.922.93s-.922-.415-.922-.93v-2.16c0-.514.413-.93.922-.93zm-2.39-4.005c-.236 0-.472-.09-.652-.273l-1.515-1.527c-.36-.363-.36-.95 0-1.314s.943-.364 1.304 0l1.515 1.527c.36.363.36.95 0 1.314-.18.182-.416.273-.652.273zm-.08 1.494c0 .513-.413.93-.923.93h-2.143c-.51 0-.922-.416-.922-.93s.413-.93.922-.93h2.143c.5 0 .923.417.923.93zM139.492 77.2c-.383.386-1.004.386-1.386 0l-2.493-2.51-2.49 2.51c-.384.386-1.004.386-1.388 0s-.382-1.012 0-1.398l2.493-2.51-2.493-2.51c-.382-.386-.382-1.01 0-1.397s1.004-.386 1.388 0l2.49 2.51 2.493-2.51c.382-.386 1.003-.386 1.386 0s.382 1.01 0 1.397L137 73.28l2.49 2.51c.382.386.382 1.012 0 1.398zm-33.22-51.953c-2.837 1.65-6.478.664-8.114-2.196s-.658-6.53 2.18-8.178c.934-.544 1.995-.82 3.07-.8.587.01 1.054.498 1.043 1.1s-.494 1.062-1.08 1.05c-.69-.012-1.37.166-1.972.515a3.87 3.87 0 0 0-1.399 5.254c1.05 1.838 3.39 2.47 5.213 1.41s2.45-3.416 1.4-5.254c-.292-.513-.118-1.167.4-1.463a1.06 1.06 0 0 1 1.451.393c1.636 2.86.658 6.53-2.18 8.178zm-12.388 163.86h-4.116a1.76 1.76 0 0 1-1.253-.523c-.32-.323-.52-.77-.52-1.263 0-.986.793-1.785 1.772-1.785h4.116a1.78 1.78 0 1 1 0 3.571zm-8.14 8.203a1.76 1.76 0 0 1-1.253-.524c-.32-.322-.52-.77-.52-1.262v-4.148a1.78 1.78 0 0 1 1.772-1.787 1.78 1.78 0 0 1 1.772 1.787v4.148a1.78 1.78 0 0 1-1.772 1.786zm0-12.257a1.76 1.76 0 0 1-1.253-.523 1.79 1.79 0 0 1-.519-1.263V179.1a1.78 1.78 0 0 1 1.772-1.786 1.78 1.78 0 0 1 1.772 1.786v4.148a1.78 1.78 0 0 1-1.772 1.786zm-4.023 4.054h-4.116a1.76 1.76 0 0 1-1.253-.523 1.79 1.79 0 0 1-.519-1.263 1.78 1.78 0 0 1 1.772-1.785h4.116a1.78 1.78 0 1 1 0 3.571zM14.103 306.46h-2.807v2.828c0 .435-.35.787-.78.787s-.78-.352-.78-.787v-2.828H6.93c-.432 0-.782-.352-.782-.787s.35-.787.782-.787h2.806v-2.827c0-.435.35-.787.78-.787s.78.352.78.787v2.827h2.807c.43 0 .78.353.78.787s-.35.787-.78.787zM2.12 155.12c-1.17 0-2.12-.957-2.12-2.137s.95-2.136 2.12-2.136 2.12.957 2.12 2.136-.95 2.137-2.12 2.137zm333.736 27.657c.36-.364.945-.364 1.304 0s.36.95 0 1.314l-1.516 1.527a.91.91 0 0 1-.651.272c-.236 0-.472-.1-.653-.272-.36-.363-.36-.95.001-1.314l1.515-1.527z" class="B"/><path d="M263.57 350.542c-.8 0-1.535-.53-1.764-1.34-.276-.978.29-1.996 1.265-2.274l6.28-1.918a1.83 1.83 0 0 1 2.31 1.182c.314.967-.213 2.006-1.176 2.32l-6.414 1.958a1.82 1.82 0 0 1-.501.071zm17.435-5.978c-.727 0-1.415-.437-1.702-1.155-.378-.944.08-2.017 1.018-2.396l6.03-2.565c.925-.413 2.01.003 2.422.932s-.003 2.017-.928 2.432l-6.156 2.62a1.83 1.83 0 0 1-.683.133zm16.685-7.772c-.657 0-1.294-.356-1.623-.98a1.85 1.85 0 0 1 .763-2.49l5.734-3.187a1.83 1.83 0 0 1 2.505.671c.508.88.21 2.007-.67 2.516l-5.854 3.256a1.82 1.82 0 0 1-.856.214zm-170.23-3.188c-.312 0-.627-.08-.916-.247l-5.747-3.484c-.857-.54-1.115-1.678-.576-2.54a1.83 1.83 0 0 1 2.529-.577l5.63 3.41c.877.51 1.177 1.635.67 2.516-.34.59-.955.92-1.59.92zm186.02-6.3a1.83 1.83 0 0 1-1.524-.815c-.564-.844-.34-1.988.5-2.555l5.375-3.775a1.83 1.83 0 0 1 2.562.406c.596.823.415 1.974-.403 2.572l-5.49 3.854c-.313.21-.67.313-1.02.313zm-201.48-3.792a1.82 1.82 0 0 1-1.078-.352l-5.35-4.064a1.85 1.85 0 0 1-.308-2.586 1.83 1.83 0 0 1 2.575-.309l5.24 3.98c.82.597 1 1.75.406 2.572-.36.495-.92.758-1.485.758zm216.208-7.304a1.82 1.82 0 0 1-1.409-.661c-.65-.78-.545-1.942.232-2.593l4.96-4.32a1.83 1.83 0 0 1 2.59.136 1.85 1.85 0 0 1-.135 2.601l-5.063 4.408a1.82 1.82 0 0 1-1.174.428zM97.682 311.86c-.437 0-.876-.156-1.226-.472l-4.898-4.598a1.85 1.85 0 0 1-.039-2.605 1.83 1.83 0 0 1 2.593-.039l4.797 4.504a1.85 1.85 0 0 1 .136 2.601c-.363.404-.862.61-1.364.61zm-49.67-76.623c-.773 0-1.49-.494-1.743-1.272l-1.954-6.44c-.277-.978.29-1.996 1.263-2.274s1.988.3 2.265 1.268l1.913 6.306c.313.967-.214 2.006-1.176 2.32-.19.06-.38.09-.568.09zm338.173-11.543c-.148 0-.298-.02-.448-.057a1.84 1.84 0 0 1-1.331-2.234l1.48-6.423c.21-.995 1.183-1.632 2.173-1.42s1.625 1.188 1.415 2.183l-1.51 6.56c-.208.835-.955 1.393-1.777 1.393zM43.24 217.37c-.848 0-1.61-.593-1.792-1.46l-1.27-6.61a1.84 1.84 0 0 1 1.494-2.128c.997-.174 1.947.498 2.12 1.5l1.242 6.474c.21.994-.422 1.972-1.413 2.184-.128.027-.256.04-.382.04zM389.73 205.54a1.76 1.76 0 0 1-.26-.019 1.84 1.84 0 0 1-1.558-2.082l.8-6.544c.105-1.012 1.006-1.75 2.013-1.64a1.84 1.84 0 0 1 1.635 2.021l-.817 6.682a1.84 1.84 0 0 1-1.814 1.583zm-349.37-6.443c-.927 0-1.724-.703-1.822-1.65l-.573-6.707a1.84 1.84 0 0 1 1.707-1.96c1.01-.07 1.886.7 1.953 1.714l.56 6.57a1.84 1.84 0 0 1-1.632 2.023 1.82 1.82 0 0 1-.194.01zm351.004-11.982c-.023 0-.046 0-.068-.001a1.84 1.84 0 0 1-1.765-1.908l.12-6.593-.001-.333a1.84 1.84 0 0 1 1.831-1.845 1.84 1.84 0 0 1 1.838 1.839v.34l-.124 6.73c-.037.993-.85 1.773-1.832 1.773zm-351.97-6.49a1.84 1.84 0 0 1-1.834-1.842v-.17l.118-6.558c.037-1.017.888-1.818 1.9-1.775a1.84 1.84 0 0 1 1.766 1.907l-.115 6.426v.17a1.84 1.84 0 0 1-1.834 1.842zm351.678-12.342c-.956 0-1.762-.744-1.828-1.717L388.68 160a1.84 1.84 0 0 1 1.63-2.025c1.01-.108 1.9.626 2.016 1.637l.58 6.706a1.84 1.84 0 0 1-1.704 1.962l-.127.004zM40.332 162.15c-.063 0-.127-.003-.2-.01-1.008-.103-1.74-1.008-1.637-2.02l.8-6.683a1.84 1.84 0 0 1 2.072-1.566 1.84 1.84 0 0 1 1.56 2.081l-.795 6.544c-.097.947-.893 1.653-1.82 1.653zm321.215-80.347c-.6 0-1.168-.284-1.522-.812l-3.767-5.393c-.597-.82-.418-1.974.4-2.573a1.83 1.83 0 0 1 2.562.402l3.845 5.506c.567.843.344 1.987-.496 2.556a1.82 1.82 0 0 1-1.023.314zM72.925 76.657a1.82 1.82 0 0 1-1.076-.351c-.82-.598-1-1.75-.406-2.572l4.045-5.375a1.83 1.83 0 0 1 2.574-.311c.797.628.935 1.786.31 2.586l-3.962 5.264c-.36.496-.917.76-1.484.76zm277.55-9.627a1.83 1.83 0 0 1-1.407-.659l-4.308-4.973c-.68-.755-.62-1.92.13-2.6a1.83 1.83 0 0 1 2.591.132l4.398 5.077c.65.78.548 1.94-.23 2.594a1.82 1.82 0 0 1-1.176.43zM84.522 62.27c-.437 0-.875-.156-1.225-.472a1.85 1.85 0 0 1-.137-2.601l4.578-4.92a1.83 1.83 0 0 1 2.593-.04 1.85 1.85 0 0 1 .04 2.604l-4.483 4.82a1.83 1.83 0 0 1-1.365.609zm253.407-8.786c-.46 0-.92-.172-1.276-.518l-4.8-4.5a1.85 1.85 0 0 1-.139-2.601 1.83 1.83 0 0 1 2.59-.138l4.902 4.593a1.85 1.85 0 0 1 .042 2.604c-.36.373-.838.56-1.318.56zM97.54 49.18c-.5 0-1-.204-1.362-.608a1.85 1.85 0 0 1 .133-2.601l5.058-4.413a1.83 1.83 0 0 1 2.583.231 1.85 1.85 0 0 1-.23 2.594l-4.954 4.323c-.35.318-.8.474-1.228.474zm226.502-7.86c-.396 0-.794-.13-1.13-.393l-5.245-3.976c-.82-.597-1-1.748-.406-2.572a1.83 1.83 0 0 1 2.561-.409l5.354 4.06c.797.628.936 1.785.3 2.586a1.83 1.83 0 0 1-1.444.704zM111.84 37.52a1.83 1.83 0 0 1-1.483-.756c-.597-.822-.417-1.974.4-2.573l5.485-3.86a1.83 1.83 0 0 1 2.546.499c.565.843.342 1.988-.5 2.556l-5.37 3.78c-.326.238-.704.353-1.08.353zm197.13-6.855a1.83 1.83 0 0 1-.975-.282l-5.632-3.406c-.876-.508-1.178-1.634-.672-2.515a1.83 1.83 0 0 1 2.505-.675l5.75 3.478c.858.54 1.116 1.678.577 2.538a1.83 1.83 0 0 1-1.554.862zm-181.708-3.24a1.83 1.83 0 0 1-1.588-.918c-.508-.88-.2-2.006.667-2.516l5.85-3.26a1.83 1.83 0 0 1 2.479.764c.475.898.134 2.013-.76 2.5l-5.73 3.193a1.82 1.82 0 0 1-.918.249zm165.598-5.777a1.82 1.82 0 0 1-.805-.189l-5.96-2.795c-.926-.413-1.343-1.5-.932-2.43a1.83 1.83 0 0 1 2.42-.935l6.088 2.855c.91.448 1.284 1.55.84 2.464-.32.653-.97 1.03-1.65 1.03zm-149.22-2.64c-.7 0-1.37-.406-1.675-1.09-.413-.928.001-2.017.925-2.432l6.154-2.626a1.83 1.83 0 0 1 2.386 1.021c.378.943-.077 2.015-1.016 2.395l-6.026 2.57c-.244.11-.498.16-.748.16zm132.25-4.63c-.208 0-.42-.037-.63-.113l-6.226-2.15c-.964-.312-1.493-1.35-1.182-2.318s1.346-1.498 2.31-1.187l6.358 2.197c.95.35 1.44 1.407 1.093 2.362-.272.747-.975 1.2-1.723 1.2zm-115.08-2.017c-.772 0-1.5-.494-1.743-1.27-.314-.967.212-2.006 1.175-2.322l6.412-1.966c.974-.28 1.99.29 2.266 1.267s-.287 1.996-1.262 2.275l-6.28 1.924c-.19.063-.38.092-.57.092zm97.45-3.413a1.81 1.81 0 0 1-.446-.056l-6.4-1.476c-.99-.21-1.625-1.186-1.418-2.18s1.18-1.632 2.17-1.424l6.535 1.508c.983.246 1.58 1.246 1.335 2.233-.21.837-.957 1.396-1.778 1.396zM178.597 7.56c-.847 0-1.608-.593-1.79-1.46-.21-.995.42-1.973 1.41-2.185L184.8 2.64c1-.174 1.948.498 2.12 1.5a1.84 1.84 0 0 1-1.493 2.129l-6.446 1.25a1.82 1.82 0 0 1-.384.042zm61.58-2.147a1.9 1.9 0 0 1-.258-.018L233.4 4.6a1.84 1.84 0 0 1-1.637-2.019c.103-1.012 1.002-1.748 2.01-1.645l6.655.812a1.84 1.84 0 0 1 1.56 2.08c-.128.92-.914 1.586-1.813 1.586zm-43.386-.75c-.927 0-1.723-.703-1.822-1.648A1.84 1.84 0 0 1 196.601.99l6.678-.58c1.017-.07 1.885.7 1.953 1.714a1.84 1.84 0 0 1-1.705 1.961l-6.542.568a1.84 1.84 0 0 1-.194.01zm25.034-.866c-.022 0-.043 0-.066-.001l-6.317-.112h-.247a1.84 1.84 0 0 1-1.838-1.838A1.84 1.84 0 0 1 215.187 0h.255l6.447.115a1.84 1.84 0 0 1 1.768 1.906 1.84 1.84 0 0 1-1.832 1.775z" fill="#f0f0f0"/><path d="M246.435 194.113c7.537 0 13.647 6.07 13.647 13.56s-6.1 13.56-13.647 13.56-13.647-6.07-13.647-13.56 6.11-13.56 13.647-13.56z" class="B"/><g class="E"><path d="M299.006 89.21l-.642 2.197-.896 2.542-2.5 5.965-1.61 3.328-1.848 3.5-4.17 7.4-9.292 15.903-2.345 4.052-2.218 4.07-2.12 4.034-2.016 3.962-1.758 3.89-1.646 3.766-1.424 3.66-.682 1.71-.4 1.6-.208 1.658-.188 1.705-.31 1.537c-.105.578-.323 1.003-.47 1.485l-1.804 4.595-.268.917-.128.83-.113.722-.02.615-.03 1.127-.125-1.12-.065-.612.012-.748.017-.88c.04-.34.1-.63.168-.977.195-1.35.846-3.008 1.315-4.787.09-.44.273-.933.3-1.363l.165-1.554.04-1.58.094-1.777.345-1.916.57-1.81 1.215-3.734c.38-1.286.952-2.58 1.468-3.917l1.66-4.07 2.896-6.173 1.08-2.055 2.202-4.147 2.322-4.113 4.818-8.067 4.79-7.71 4.484-7.2 3.842-6.507 2.966-5.65 1.128-2.413.878-2.086 1.14-2.97L300 85l-.24 1.1c-.18.713-.333 1.796-.753 3.11zm-36.662 98.67l1.145 5.756 1.392 6.414 1.48 6.882c.222 1.23.384 2.47.247 3.878-.02.376-.093.636-.145.943l-.042.223-.077.292-.14.476-.596 1.717c-.092.264-.157.53-.21.764l-.06.32-.022.453c.004.385.11.936.28 1.453l.587 1.763c.108.368.16.668.208.955.065.466.042.826-.024 1.217-.15.753-.466 1.455-1.046 2.045-.284.292-.67.552-1.132.69-.43.15-1.103.095-1.426-.042a3.18 3.18 0 0 1-1.039-.669c-.238-.216-.442-.452-.636-.673l-1.17-1.353c-1.494-1.838-2.576-3.868-3.4-5.847-.43-.987-.72-1.99-1.006-2.958l-.315-1.468c-.114-.484-.183-.948-.226-1.398-.297-1.843-.136-3.538-.68-4.794-.5-1.312-1.723-1.904-2.713-2.13-1.018-.218-1.867-.2-2.434-.176l-.878.08.864-.18c.568-.08 1.42-.232 2.516-.084.27.054.566.075.855.19l.454.153.443.238c.32.14.565.418.858.655.154.17.23.283.354.43.113.138.21.34.315.516.77 1.46.73 3.22 1.122 4.94.072.456.17.904.303 1.337l.38 1.34 1.087 2.75c.86 1.834 1.972 3.677 3.4 5.36.347.425.747.814 1.12 1.228l.577.58c.16.144.32.23.433.277.236.052.18.02.317-.004.104-.036.236-.11.36-.25.254-.265.46-.688.534-1.107.037-.197.032-.44.016-.57l-.084-.442c-.03-.142-.068-.24-.1-.36l-.574-1.667c-.202-.633-.38-1.274-.387-2.104l.018-.455.087-.58c.074-.36.156-.684.26-.994l.612-1.723c.05-.137.08-.263.12-.394l.046-.147.044-.222c.052-.3.137-.618.138-.85.106-1.005-.002-2.183-.204-3.3l-.345-1.714-.1-.433-.085-.453-.794-4.277-1.142-6.467-.828-5.84-1.098-8.747-.218-2.465-.07-.87.653 3.276 1.81 8.617zm-17.376 15.903c-1.038.367-2.23.977-3.564 1.71l-2.035 1.315-2.122 1.633-2.123 1.963-1.058 1.08-1.044 1.22c-1.345 1.618-2.638 3.476-3.785 5.487-.605.99-1.11 2.058-1.658 3.117l-1.453 3.322-1.293 3.44-.58 1.793c-.206.57-.3 1.18-.76 1.98-.12.205-.25.412-.345.5l-.155.18-.078.088c-.043.045.07-.066-.102.105l-.038.03-.075.058a2.57 2.57 0 0 1-1.355.552c-.507.027-1.012.04-1.665-.47l-.17-.165-.02-.02-.116-.14-.058-.09-.11-.183a2.81 2.81 0 0 1-.235-.675c-.13-.68-.172-1.292-.26-1.94-.06-.64-.197-1.27-.188-1.9-.002-1.274-.12-2.543.052-3.784l.166-1.85c.076-.6.217-1.207.32-1.803l.364-1.76.505-1.693c.288-1.13.8-2.158 1.202-3.187l.32-.76.387-.726.76-1.41c.24-.475.518-.892.803-1.292l.82-1.194c1.104-1.62 2.3-2.85 3.152-4.104.877-1.226 1.375-2.436 1.655-3.5s.57-1.902.858-2.428c.276-.53.507-.752.492-.763.018.006-.19.26-.4.808-.23.54-.4 1.38-.592 2.467a11.18 11.18 0 0 1-1.416 3.787c-.768 1.365-1.9 2.75-2.832 4.312a31.3 31.3 0 0 0-2.699 5.339c-.34 1.002-.787 1.998-1.013 3.087l-.42 1.624c-.146.547-.196 1.118-.3 1.682l-.26 1.715-.1 1.756c-.045.588-.08 1.18-.035 1.776l.052 1.794c-.006.602.135 1.194.194 1.795l.25 1.775a1.08 1.08 0 0 0 .073.21l.008.01.116.113c-.135-.137.023-.018.14-.06a.69.69 0 0 0 .378-.156l.01-.007.034-.04.154-.18c.134-.135.144-.212.176-.283.07-.1.186-.413.277-.66l.293-.887.595-1.788 1.372-3.557c.952-2.332 2.1-4.547 3.37-6.595.608-1.04 1.306-2.003 1.98-2.95l1.078-1.347.533-.656.575-.623 1.096-1.173 1.174-1.092c.76-.735 1.584-1.314 2.34-1.914.763-.6 1.568-1.06 2.3-1.544l2.202-1.174c1.432-.637 2.69-1.15 3.776-1.437 1.056-.372 1.94-.46 2.522-.582l.897-.164-.874.264c-.567.18-1.41.386-2.424.83zm19.777-123.192c-.34 1.08-.907 2.346-1.687 3.71l-2.532 4.543-1.262 2.653-1.148 2.935-2.033 6.53-1.94 7.09-2.023 7.32-1.904 7.35-1.86 7.117-1.65 6.674-1.5 5.98-2.18 8.985-.874 3.398.512-3.47 1.475-9.124 1.192-6.064 1.41-6.758 1.705-7.18 1.845-7.392 2.092-7.327 2.104-7.08 2.3-6.547 1.317-2.957c.433-.95 1-1.804 1.464-2.655.896-1.727 2.03-3.105 2.885-4.39.877-1.273 1.525-2.445 1.94-3.462.188-.515.374-.974.454-1.394.09-.414.235-.78.176-1.05-.025-.132-.118-.234-.216-.237-.09.003-.13.117-.14.182-.016.135.064.134.102.127l-.04.012c-.04.004-.097-.057-.087-.14.004-.068.015-.2.165-.24.137-.01.268.115.316.27.1.323-.012.685-.053 1.12-.03.442-.175.926-.327 1.473zm-24.654 84.8l-1.315 3.975-.84 2.15-1.048 2.223-1.245 2.145-.716 1.097c-.244.364-.525.694-.787 1.044-1.05 1.398-2.318 2.682-3.523 3.882l-1.742 1.818-.215.226c-.024.02-.12.152-.177.223l-.394.505c-.28.34-.487.67-.703.997a30.64 30.64 0 0 0-2.281 4.22l-3.37 8.108-3.485 7.88 2.458-8.252 1.286-3.963 1.566-4.417c.625-1.523 1.317-3.08 2.3-4.593l.755-1.095.388-.512.22-.284.225-.243 1.808-1.935 3.437-3.686c1.045-1.274 1.904-2.582 2.75-4l1.07-2.03.946-2.03 1.61-3.823 3.425-7.903-2.403 8.27zm-21.044 1.125l-1.62-8.16-.92-4.654-.475-2.452-.576-2.52-1.21-5.24-1.45-5.403-1.534-5.613-1.43-5.8-1.423-5.89-1.263-5.987-1.205-5.995-1.014-5.96c-.713-3.934-1.228-7.9-1.774-11.637-.568-3.756-1.21-7.36-2.048-10.716l-.693-2.46c-.2-.818-.537-1.562-.785-2.332-.472-1.53-1.204-2.974-1.805-4.37-1.314-2.67-2.853-5.027-4.282-7.03-1.447-2.005-2.83-3.672-3.974-5.038L185.92 55l1.034 1.042c.672.682 1.67 1.67 2.888 2.98s2.693 2.91 4.26 4.86c1.56 1.96 3.232 4.226 4.707 6.996 1.4 2.676 2.707 5.86 3.664 9.252.948 3.404 1.714 7.048 2.333 10.826l.917 5.74c.287 1.905.687 3.878 1.016 5.846l1.046 5.956c.367 1.99.822 3.96 1.23 5.947l1.222 5.945 2.746 11.655 1.435 5.62c.46 1.863.963 3.62 1.36 5.477l1.067 5.274.507 2.536.404 2.485.747 4.718 2.184 14.594.922 5.518-1.287-5.45c-.382-1.744-.78-3.866-1.273-6.298zM186.94 169.6c.27.194.52.394.753.584.46.4.894.64 1.175.883a9.84 9.84 0 0 1 .454.377s-.213.003-.585-.025c-.186-.017-.415-.034-.673-.075-.264-.03-.556-.08-.854-.188-.306-.092-.64-.196-.987-.324-.354-.118-.68-.324-1.038-.5-.35-.197-.726-.388-1.05-.66-.338-.254-.668-.528-1-.8l-.87-.94c-.296-.3-.514-.658-.735-.992-.212-.345-.437-.647-.585-1-.157-.342-.285-.67-.4-.97-.134-.295-.197-.572-.24-.82-.056-.245-.086-.467-.116-.648-.053-.364-.067-.58-.067-.58a8.9 8.9 0 0 0 .408.422c.122.137.275.302.43.5a7.01 7.01 0 0 0 .549.627c.204.215.42.444.63.69.197.25.483.484.718.75.25.257.484.542.77.79.276.253.54.523.808.792.3.246.58.5.853.746.268.265.568.48.845.708.285.217.53.48.807.664zm-4.222 127.36l2.86-11.802 1.6-6.46.87-3.338 1.054-3.334 1.072-3.388c.358-1.203.846-2.278 1.268-3.436.904-2.264 1.874-4.522 2.845-6.8.96-2.27 1.934-4.548 2.77-6.87l.634-1.743.54-1.747c.392-1.142.658-2.38.96-3.597 1.112-4.75 1.335-9.744 1.44-14.652l.2-7.347.238-3.655.413-3.528c.705-4.762 2.124-9.21 3.93-13.163 1.805-3.983 3.853-7.5 5.49-10.875 1.643-3.367 3-6.52 3.945-9.407.965-2.88 1.486-5.486 1.733-7.652.263-2.168.195-3.89.163-5.06l-.166-1.793.268 1.78c.09 1.17.286 2.904.102 5.105-.155 2.2-.573 4.863-1.426 7.822-.83 2.965-2.063 6.224-3.654 9.654-1.562 3.44-3.533 7.044-5.187 10.966-1.683 3.933-2.887 8.27-3.562 12.805l-.38 3.53-.2 3.537-.136 7.31c-.067 4.94-.23 10.025-1.364 15.067-.303 1.217-.58 2.428-1.004 3.658l-.586 1.835-.663 1.777c-.878 2.372-1.882 4.665-2.865 6.936l-2.887 6.725c-.416 1.113-.93 2.234-1.26 3.32l-2.184 6.705-.915 3.282-1.763 6.362-3.166 11.725-2.595 9.91c-.662 2.967-1.156 5.58-1.33 7.758-.138 1.086-.16 2.06-.197 2.91l-.047 1.178.095 2.78-.165-1.794-.1-.98-.02-1.183c-.017-.854-.04-1.84.055-2.935.082-2.202.465-4.856 1.005-7.873.548-3.022 1.36-6.378 2.25-10.03zm3.992 28.46c.023-1.207-.213-2.414-.81-3.3-.342-.433-.76-.955-1.138-1.472-.397-.494-.71-1.256-.625-2.015a1.85 1.85 0 0 1 .46-1.053c.278-.3.634-.498.946-.603.324-.112.64-.15.947-.17.38-.022.573.024.864.035a6.6 6.6 0 0 1 3.013 1.113c.824.567 1.48 1.257 1.91 2.002.213.407.383.705.5 1.104l.17.552.092.532a5.88 5.88 0 0 1-.353 3.151c-.11.35-.277.585-.36.753l-.136.252.112-.264c.067-.175.208-.418.285-.773.212-.682.375-1.762.087-3.054-.115-.647-.422-1.306-.845-1.975-.435-.65-1.075-1.232-1.845-1.687s-1.703-.758-2.667-.798c-.242.007-.592-.017-.756.012-.237.028-.475.07-.678.155-.212.087-.36.19-.463.306-.154.176-.177.31-.197.5-.078.842.876 1.63 1.717 2.66.857 1.18 1.16 2.626 1.187 4.07-.012 1.376-.18 2.842-.612 4.25-.425 1.413-1.085 2.78-1.905 4.066a20.53 20.53 0 0 1-6.716 6.454 22.71 22.71 0 0 1-2.118 1.126c-.76.357-1.48.674-2.48.84a11.97 11.97 0 0 1-.787.078l-.583-.055-.217-.02c.094.017-.17-.025-.16-.027l-.044-.016-.355-.125c-.227-.094-.488-.162-.682-.3-.83-.468-1.48-1.12-1.998-1.64l-3.247-3.367c-.543-.553-1.068-1.135-1.567-1.543-.254-.154-.318-.3-.756-.448l-.25-.102-.026-.004-.098-.015a1.49 1.49 0 0 0-.417-.041c-.592-.016-1.308.165-2.13.283-.23.023-.48.052-.69.06h-.286l-.142.001h-.035c-.12-.003-.058-.003-.096-.005l-.087-.01c-.463-.043-.91-.144-1.317-.288-1.63-.583-2.775-1.547-3.987-1.85-.3-.086-.598-.135-.88-.146-.146-.022-.27.017-.407.017-.137.008-.193.05-.3.054-.113.03-.296.137-.444.204l-.03.024-.073.055c-.046.04-.104.063-.144.115a2.52 2.52 0 0 0-.489.641c-.553 1.022-.837 2.484-1.22 3.725l-1.06 3.722-.895 3.505c-.59 2.245-1.063 4.316-1.475 6.156l-.586 2.578-.43 2.206-.84 4.183.476-4.24.277-2.23.876-5.604c.167-1.05.42-2.138.64-3.284l.726-3.568.922-3.785.484-1.975c.17-.66.348-1.384.725-2.116a4.12 4.12 0 0 1 .757-1.056c.072-.086.174-.153.263-.227l.14-.108.07-.053c-.054.03.114-.072.107-.066l.03-.015c.172-.083.285-.164.508-.25a3.87 3.87 0 0 1 1.424-.243 5.48 5.48 0 0 1 1.277.177c1.65.424 2.883 1.418 4.117 1.79.306.103.603.157.893.18l.055.007.01.001.142-.004.285-.006c.17-.013.295-.04.445-.054.684-.1 1.465-.322 2.415-.322a3.14 3.14 0 0 1 .73.068l.186.032.093.018c-.005-.006.222.073.14.046l.034.014.268.106c.306.084.853.433 1.23.713.698.57 1.205 1.146 1.753 1.69l3.244 3.317c.572.582 1.043 1.033 1.572 1.34.128.093.263.103.39.164l.193.08.01.004.145.015.582.06c.127-.03.245-.055.37-.07.535-.08 1.273-.352 1.905-.657.727-.328 1.34-.66 1.97-1.027 2.526-1.5 4.715-3.493 6.26-5.8 1.556-2.3 2.438-4.892 2.502-7.44zm-10.53-160.907c-.005.177.018.507.025.754l.066 1.6c.062 1.05.048 2.177.047 3.3-.01.577.017 1.07-.024 1.716l-.35 3.21-.288 1.656c-.193 1.11-.4 2.218-.674 3.28-1.012 4.3-2.47 8.488-4.058 12.57l-9.903 24.008c-.427.994-.76 1.98-1.092 2.96l-1.015 2.94-.807 3.022-.624 3-.5 3.042c-.15 1.016-.267 2.04-.4 3.053l-.566 6.095a214.76 214.76 0 0 0-.378 23.311c.318 7.43.816 14.458 1.45 20.935.566 6.488 1.352 12.39 1.507 17.746.155 5.327-.416 9.97-.9 13.73-.38 3.78-1.033 6.718-1.383 8.724l-.567 3.073.414-3.096c.262-2.02.722-4.96.984-8.758.346-3.788.736-8.367.4-13.622-.123-1.31-.177-2.65-.364-4.047l-.545-4.297-1.134-9.288c-.782-6.476-1.442-13.522-1.93-21-.457-7.47-.572-15.424-.047-23.62l.5-6.173.374-3.125.48-3.15.632-3.192.795-3.114 1.05-3.094c.347-1.037.698-2.077 1.114-3.052l9.807-24.03c1.58-4.014 3.006-8.065 3.99-12.182.28-1.03.46-2.05.643-3.068l.28-1.53.36-3.2c.024-.425.008-1.007.015-1.502.002-1.032.024-2.05-.035-3.134l-.06-1.6c-.007-.286-.027-.488-.023-.843.013-.33.023-.665.077-.972.192-1.257.542-2.236.527-2.912-.102-1.877-.546-3.936-1.086-5.88-.544-1.974-1.216-3.914-1.878-5.9l-1.883-5.878-7.014-22.422-6.242-20.104c-1.97-6.215-3.596-11.996-4.766-17.18l-.82-3.768-.6-3.54-.28-1.665-.177-1.61-.317-2.996c-.13-.944-.124-1.853-.156-2.703l-.06-2.386c-.087-1.48.07-2.73.116-3.748l.196-3.117-.042 3.123c-.11 2.04.12 5.02.496 8.776l.424 2.96.233 1.587.34 1.642.72 3.485.952 3.71c1.357 5.1 3.188 10.767 5.264 16.945l6.69 19.96 9.37 28.123c.67 1.933 1.386 3.925 1.982 5.988.59 2.085 1.1 4.162 1.257 6.516.002 1.46-.447 2.51-.534 3.36-.04.22-.037.418-.05.62zm-29.3 201.33l1.4.382 1.567.437 1.77.384c.62.124 1.252.292 1.925.393l2.076.327c.708.13 1.445.204 2.2.27s1.52.174 2.303.232c1.57.085 3.19.2 4.84.186 1.635.063 3.363-.037 4.97-.075l5.056-.396c1.68-.097 3.28-.33 4.844-.526 1.562-.225 3.08-.332 4.518-.58l4.06-.604 6.1-.888 2.325-.3-2.247.666c-1.437.395-3.474 1.017-5.967 1.584l-4.024.93c-1.424.34-2.973.565-4.558.84-1.59.25-3.236.597-4.9.694l-5.05.458c-1.79.027-3.458.1-5.17.017-1.696-.005-3.357-.22-4.964-.357-.8-.095-1.586-.224-2.353-.348-.77-.12-1.517-.243-2.236-.424l-2.1-.48c-.675-.166-1.31-.395-1.928-.577-.615-.197-1.207-.364-1.76-.56l-1.55-.63-1.353-.556c-.41-.182-.767-.388-1.1-.554l-2.066-1.095 2.217.754c.353.117.737.273 1.166.394zm-5.93 1.852l2.185.908c1.308.49 2.572 1.01 3.91 1.396 1.315.438 2.655.785 3.99 1.14 1.354.287 2.698.6 4.064.8 1.356.26 2.733.383 4.102.536l2.062.144c.627.053 1.383.034 2.067.055l2.104.033c.696-.006 1.38-.044 2.072-.064l2.05-.057 6.3-.394c1.323-.07 2.772-.265 4.15-.392l4.19-.412 8.373-.763 4.198-.355 3.56-.276-.35-.045 1.66-.008-.65.137c-1.376.288-2.76.522-4.14.78l-4.146.75-4.17.677-4.167.602-4.17.576c-1.4.173-2.74.402-4.214.53l-6.296.46-2.158.07-2.135.043-2.104-.055c-.716-.03-1.368-.013-2.138-.08l-2.132-.196c-1.41-.2-2.83-.374-4.22-.685-1.403-.247-2.77-.652-4.144-1.017-1.35-.445-2.715-.843-4.023-1.4-1.323-.493-2.62-1.12-3.9-1.724l-2.083-1.12c-.102-.055-.215-.132-.313-.204-.085-.07-.123-.133-.187-.2-.107-.14-.075-.15-.114-.235-.026-.068-.032-.13-.032-.19.006-.517.18-.747.277-1.11.236-.663.437-1.338.702-1.983l.837-1.92c-.388 1.34-.773 2.686-1.062 4.033-.064.3-.2.738-.157.922-.015.04.065.117.01.063.063.053.132.134.19.164.054.013.09.03.144.053zm49.074-10.338l.01-.002.026.176c-3.59 1.1-7.215 2.047-10.852 2.927-.907.232-1.82.432-2.73.645l-1.367.315-1.393.303-4.474.88-.378.054-.708.087c-.946.104-1.888.248-2.84.286-.95.045-1.897.16-2.85.125-.95-.02-1.9.023-2.85-.052-.95-.06-1.898-.1-2.84-.225-.94-.134-1.884-.21-2.814-.394-.93-.193-1.86-.352-2.78-.573l-2.73-.757a102.03 102.03 0 0 1-2.651-.948l2.78.454 2.766.36c.92.102 1.85.172 2.77.26.922.067 1.848.1 2.768.152s1.847.005 2.767.035 1.842-.056 2.76-.078 1.834-.128 2.75-.2c.92-.05 1.826-.203 2.737-.318l.684-.09.318-.038.346-.062 4.14-.75 5.504-.976c3.7-.63 7.393-1.195 11.128-1.61zm-35.083-13.914c.6.25 1.182.53 1.774.793s1.184.514 1.752.89l1.725 1.038c.6.33 1.102.752 1.622 1.124.52.38 1.038.768 1.554 1.17l3.025 2.437 2.96 2.456c.486.42 1 .812 1.493 1.205.495.407.987.82 1.506 1.19s1.003.808 1.536 1.162c.524.373 1.053.74 1.573 1.14l-.05.14-.017-.006c-.614-.223-1.216-.478-1.825-.727-.607-.257-1.18-.57-1.765-.87-1.165-.604-2.278-1.298-3.364-2.02-1.095-.714-2.132-1.496-3.182-2.258l-3.053-2.364a61.72 61.72 0 0 0-1.514-1.193c-.517-.397-1.012-.8-1.52-1.136l-1.53-1.068c-.492-.368-1.056-.697-1.614-1.026l-1.662-1.003c-.484-.304-1.082-.573-1.655-.814-.578-.25-1.175-.458-1.784-.622-.604-.132-1.245-.3-1.856-.04.514-.44 1.272-.473 1.926-.47.674.016 1.337.13 1.992.264a11.51 11.51 0 0 1 1.952.606zm-1.946-4.634l.954.008c.18.003.347.001.56.013l.567.058c.786.092 1.662.126 2.635.347l1.522.294 1.582.43c1.09.29 2.21.686 3.355 1.12 1.138.45 2.315.916 3.467 1.473 1.156.543 2.32 1.12 3.47 1.707l3.386 1.823c1.116.59 2.187 1.225 3.244 1.787l3.034 1.646c.983.48 1.89.994 2.756 1.394.865.406 1.65.807 2.37 1.104.717.304 1.332.6 1.86.796l1.647.664s-.636-.1-1.757-.305c-.565-.1-1.23-.27-1.996-.474-.775-.188-1.623-.467-2.547-.785-.933-.298-1.904-.706-2.944-1.12-1.02-.447-2.1-.9-3.193-1.44l-3.343-1.658-3.4-1.76a112.24 112.24 0 0 0-3.388-1.74l-1.668-.822-1.642-.76c-.537-.262-1.087-.45-1.608-.69-.523-.23-1.04-.45-1.55-.627l-1.487-.554-1.4-.447c-.887-.31-1.776-.485-2.53-.694l-.553-.142-.495-.093-.903-.177c-.557-.075-1.007-.095-1.31-.127l-.463-.04.46-.06c.302-.028.74-.125 1.307-.145zm94.663 54.283l-.242-.647c-.046-.144-.176-.384-.26-.572-.196-.396-.364-.805-.58-1.192-1.682-3.13-4.048-5.885-6.605-8.425-2.542-2.553-5.343-4.992-7.438-8.087-1.06-1.544-1.87-3.228-2.315-5.13-.1-.476-.17-.82-.214-1.36l-.055-1.395c-.04-.47.003-.92.052-1.37l.127-1.347.436-2.578c.156-.853.3-1.682.406-2.505.114-.827.233-1.65.275-2.475.06-.823.146-1.642.13-2.458.07-3.263-.292-6.473-1.1-9.462-.23-.733-.43-1.462-.68-2.186l-.878-2.162-1.02-1.966c-.343-.66-.795-1.246-1.182-1.866-1.668-2.4-3.686-4.435-5.885-6.04l-1.7-1.1c-.562-.358-1.168-.6-1.74-.89-.292-.136-.567-.295-.87-.412l-1.85-.635-.455-.16-.43-.093-1.805-.382c-.593-.14-1.2-.134-1.79-.207-1.18-.162-2.328-.09-3.444-.092-4.512.166-8.393 1.218-11.134 2.91-1.407.8-2.384 1.848-3.233 2.79-.335.504-.71.967-.95 1.434-.23.476-.49.888-.632 1.295l-.4 1.072-.21.805-.165.658.14-.664.177-.813.36-1.093c.127-.42.373-.843.588-1.335.232-.487.578-.954.92-1.507.788-.956 1.787-2.096 3.205-2.95 2.753-1.814 6.723-3 11.27-3.298 1.152-.034 2.35-.137 3.568-.008.6.06 1.238.037 1.858.164l1.892.344c.17.034.293.045.506.1l.46.146.926.296.936.302c.313.114.622.278.936.417.616.304 1.284.554 1.878.918l1.8 1.11c2.332 1.637 4.48 3.727 6.27 6.21.418.64.9 1.25 1.273 1.935l1.13 2.097.916 2.146c.273.75.51 1.538.77 2.317.904 3.128 1.337 6.456 1.326 9.856.03.85-.042 1.703-.09 2.56-.03.86-.154 1.714-.266 2.573-.098.867-.25 1.72-.4 2.56l-.41 2.526c-.165 1.675-.28 3.3.107 4.946.37 1.523 1.103 3.097 2.082 4.485 1.938 2.84 4.66 5.208 7.276 7.795 2.625 2.58 5.136 5.445 6.97 8.81.235.416.424.86.638 1.288.104.233.205.396.312.688l.245.646c.32.754.56 1.667.782 2.54h-1.924c-.155-.62-.32-1.233-.593-1.897zM189.656 338.4l-.017 1.142c.007.863.1 1.92.315 3.16l.507 1.944c.098.344.166.707.294 1.065l.416 1.097c1.1 3.016 3.002 6.484 5.22 10.366.536.98 1.232 1.928 1.87 2.94l.998 1.525c.327.476.724.984 1.095 1.483.767 1.004 1.57 2.026 2.347 3.126.782 1.096 1.538 2.246 2.163 3.56.15.33.323.664.454.996l.443 1.244c.05.14.05.194.078.294l.125.542c.07.364.197.722.22 1.097.24 1.485.197 3.016.05 4.544-.366 3.056-1.324 6.054-2.25 9.082-.457 1.515-.905 3.047-1.26 4.604-.203.93-.36 1.86-.47 2.8h-1.536c.137-1.065.33-2.117.57-3.13.4-1.614.884-3.167 1.372-4.685.988-3.024 1.965-5.935 2.36-8.82.163-1.438.228-2.864.032-4.236-.015-.347-.13-.676-.187-1.013l-.106-.502c-.017-.07-.037-.194-.05-.222l-.084-.25-.337-1c-.12-.32-.27-.608-.4-.912-1.106-2.433-2.81-4.516-4.27-6.578-.37-.53-.73-1.014-1.085-1.564l-.953-1.555c-.612-1.032-1.272-1.987-1.8-3-2.14-4.004-3.934-7.512-4.967-10.612l-.388-1.12c-.12-.365-.18-.737-.267-1.088l-.438-2c-.167-1.24-.22-2.322-.194-3.19l.063-1.147.118-.824.1-.672-.073.675-.086.826zm37.722-62.745c.607-1.403 1.19-2.87 1.88-4.325l2.036-4.43 2.233-4.35c.7-1.452 1.558-2.8 2.335-4.127.8-1.316 1.51-2.62 2.342-3.768l2.3-3.242c.364-.496.695-.984 1.042-1.425l1.05-1.207 1.716-1.943 1.518-1.66-1.22 1.894-1.426 2.137-.884 1.303-.888 1.507-2.005 3.373c-.373.585-.703 1.22-1.037 1.87l-1.055 1.973c-.724 1.333-1.47 2.7-2.162 4.15l-2.15 4.33-4.105 8.62-3.7 7.502c-1.094 2.19-2.114 3.96-2.804 5.21l-1.12 1.95.78-2.107c.498-1.34 1.27-3.23 2.158-5.505a304.43 304.43 0 0 1 3.152-7.728zm3.752 50.748l.49 1.242.4 1.27c.294.843.453 1.713.67 2.575.396 1.73.64 3.48.863 5.223.215 1.744.357 3.48.536 5.214l.224 2.6.255 2.588c.07.866.178 1.72.265 2.583.078.863.22 1.712.32 2.57s.22 1.714.385 2.56c.146.85.25 1.715.458 2.552.2.838.322 1.705.556 2.54l.648 2.51c.135.1.41-.004.434-.226.026.23-.26.463-.532.34l-.015-.008-.014-.026c-.4-.786-.752-1.588-1.122-2.39-.355-.81-.627-1.647-.927-2.48-.312-.83-.52-1.685-.765-2.535-.24-.852-.438-1.712-.61-2.575-.19-.862-.366-1.728-.49-2.597l-.4-2.608-.56-5.224-.42-5.205-.227-2.583c-.118-.85-.177-1.716-.304-2.564s-.24-1.703-.418-2.54l-.243-1.267-.326-1.245c-.177-.852-.492-1.636-.75-2.464-.115-.42-.314-.815-.48-1.218l-.504-1.217c.49.73 1.035 1.42 1.447 2.202s.85 1.58 1.158 2.406zm-25.115-7.855l1.494-.12c.5-.004 1.002.033 1.504.05 1.01.015 1.992.237 2.962.41.492.064.957.22 1.414.372l1.355.44c.87.34 1.674.754 2.44 1.118.73.443 1.404.88 2.02 1.283.604.45 1.095.855 1.54 1.3.46.396.75.85 1.03 1.17.255.344.394.66.513.85l.17.3s-.352-.348-.962-.894c-.344-.24-.708-.576-1.202-.858-.452-.302-1.06-.62-1.665-.947l-2.057-.934-2.367-.815c-.846-.188-1.697-.467-2.59-.598s-1.794-.32-2.71-.312c-.457-.024-.914-.07-1.368-.08l-1.354.08c-.916.004-1.728.215-2.565.326-.41.03-.838.216-1.255.32l-1.22.353c-.664.224-1.406.538-1.986.863-.307.157-.58.335-.838.51-.273.16-.492.354-.712.528-.42.362-.784.7-1.014 1.03-.26.306-.432.602-.54.8l-.176.3.08-.337c.054-.22.106-.543.306-.94.166-.414.44-.868.82-1.35a7.8 7.8 0 0 1 1.472-1.441c.6-.477 1.254-.898 2.117-1.288l1.172-.5c.405-.163.79-.35 1.276-.443.934-.196 1.92-.542 2.903-.558zm-1.9-6.815l1.856-2.99c.313-.502.6-1.002 1-1.478.193-.25.435-.477.696-.685l.436-.278.463-.164c.253-.113.625-.147.94-.21l.876-.127c.58-.08 1.153-.177 1.745-.24l1.77-.198 1.787-.108c.597-.027 1.203.012 1.805.02l.452.013.113.003.13.01.22.024c.293.035.577.057.877.102 1.24.178 2.413.493 3.566.957 1.145.462 2.248 1.088 3.197 1.925l.182.15.046.038a.75.75 0 0 1 .057.054l.02.02.076.08.302.316c.2.22.403.403.598.656.38.514.802 1.032 1.085 1.564 1.276 2.114 2 4.407 2.747 6.583.182.55.385 1.062.586 1.622.215.52.407 1.034.647 1.538.466 1.01 1.006 1.973 1.658 2.827.664.834 1.407 1.603 2.3 2.1.23.127.42.272.684.388.26.13.545.24.876.453.16.095.323.207.486.37l.236.228.095.13.014.023.03.047.057.092c.077.136.15.223.23.398a13.27 13.27 0 0 1 .224.565c.74 2.3 1.153 4.703 1.367 7.06.215 2.365.23 4.727.156 7.064-.16 4.677-.57 9.3-.392 13.864.104 2.286.308 4.553.877 6.78.48 2.265 1.196 4.408 1.926 6.624.727 2.206 1.502 4.404 2.118 6.66.346 1.114.58 2.262.828 3.402.146.565.202 1.148.27 1.728l.202 1.685.63-.366-.677.47-.01-.05c-.43-2.285-.967-4.532-1.766-6.708-.74-2.2-1.655-4.328-2.504-6.494-.82-2.16-1.676-4.404-2.257-6.663-.67-2.26-.955-4.64-1.137-6.983-.353-4.7.033-9.38.082-13.986.11-4.6-.146-9.202-1.497-13.442a2.22 2.22 0 0 1-.074-.253c-.03-.095-.138-.242-.203-.36l-.056-.093-.004-.007-.058-.048c-.038-.05-.114-.105-.207-.157-.34-.208-.965-.464-1.517-.828-1.143-.65-2.048-1.597-2.817-2.582-1.485-2.002-2.415-4.33-3.11-6.535-.72-2.217-1.374-4.412-2.477-6.312-.256-.505-.578-.888-.87-1.325-.15-.214-.38-.43-.566-.645l-.293-.324-.074-.08-.003-.004-.035-.03-.15-.132c-.778-.735-1.718-1.31-2.724-1.754a14.02 14.02 0 0 0-3.166-.959c-.276-.05-.575-.084-.862-.127l-.218-.03-.053-.008c.023.003-.024-.001-.033-.001l-.106-.006-.426-.025c-.566-.025-1.13-.093-1.703-.09l-1.723.03-1.728.12c-.574.034-1.162.108-1.743.162l-.866.088c-.258.05-.484.02-.78.126-.538.077-.882.398-1.264.784-.38.393-.707.887-1.038 1.354l-2.006 2.833c-.712.92-1.25 1.957-1.834 2.964l-1.762 3.02 1.51-3.15c.515-1.043.992-2.105 1.65-3.077zm13.694-91.46l-.102 1.193s-.112-.423-.276-1.167c-.074-.374-.193-.822-.263-1.35l-.243-1.775c-.057-.66-.072-1.403-.082-2.184.01-.773.12-1.527.21-2.335.08-.514.2-.86.303-1.307l.163-.642.234-.618c.294-.84.665-1.645 1.04-2.447.807-1.566 1.67-3.065 2.47-4.442.367-.703.753-1.32 1.078-1.993l.47-.974c.15-.268.273-.607.404-.9.247-.583.5-1.147.734-1.624.263-.49.498-.9.708-1.227l.765-.927s-.15.413-.44 1.117c-.117.36-.208.8-.35 1.278l-.384 1.722c-.085.325-.134.64-.257 1.013l-.334 1.028c-.233.698-.562 1.477-.903 2.225-.358.737-.704 1.513-1.104 2.255a89.43 89.43 0 0 0-1.15 2.269c-.37.752-.743 1.503-1.028 2.26a10.6 10.6 0 0 0-.419 1.123c-.112.354-.278.785-.344 1.065-.135.788-.363 1.565-.458 2.266l-.233 1.98-.208 3.108zm1.82 20.627c.398-1.202.915-2.2 1.25-3.04.38-.824.748-1.435.968-1.87l.35-.657-.98 2.67c-.246.87-.645 1.878-.915 3.104-.327 1.206-.59 2.6-.89 4.09l-.355 2.363-.29 2.538-.205 2.693-.126 2.82c-.105 3.834-.042 7.938.06 12.06l.07 6.167-.001 1.524-.005.38-.01.4-.033.748-.128 2.943c-.058.968-.048 1.913-.16 2.85l-.285 2.74-.275 2.59c-.105.834-.26 1.63-.38 2.4l-.734 4.178-.74 3.186-.684 2.76s.1-1.032.32-2.825l.406-3.226.35-4.2c.06-.768.157-1.566.2-2.394l.124-2.56c.094-1.755.196-3.6.188-5.543l.04-3.694v-.353l-.008-.376-.016-1.51-.133-6.146-.04-6.175c-.002-2.04.103-4.054.213-6.002l.238-2.866.356-2.736.448-2.574.54-2.383.615-2.162c.205-.682.46-1.313.667-1.913zm54.993-100.7l.05.53c.026.35.104.865.094 1.55.034 1.364-.084 3.386-.688 5.875-.564 2.497-1.605 5.43-2.715 8.77-.546 1.673-1.1 3.457-1.51 5.356l-.147.686-.11.75-.233 1.524c-.2 1.038-.184 2.056-.276 3.112-.12 2.11-.07 4.363.036 6.68l.494 7.214 1.444 15.575c.28 2.703.414 5.485.605 8.29l.17 2.643.016.55.028 1.057c.036 1.413.072 2.828.034 4.288-.06 5.793-.555 11.676-1.84 17.467-.17.722-.3 1.45-.51 2.163l-.63 2.135c-.378 1.435-.936 2.814-1.46 4.2l-.393 1.04-.1.26c-.02.045.01-.01-.05.12l-.03.06-.058.122-.235.488-.936 1.948c-.622 1.296-1.218 2.593-1.967 3.86l-2.127 3.792-2.142 3.637c-.73 1.203-1.348 2.415-2.02 3.6l-1.204 2.194-.642 1.395c-1.128 2.473-2.306 4.897-3.222 7.303l-2.79 7.084-5.026 13.126-4.08 11.137-3.1 8.602c-.765 2.405-1.18 4.35-1.296 5.7-.088.673-.08 1.193-.09 1.544l-.01.532-.03-.53c-.017-.35-.064-.873-.026-1.555.028-1.36.26-3.373.917-5.84.64-2.476 1.595-5.398 2.626-8.788l3.547-11.35 4.563-13.29c.793-2.35 1.694-4.798 2.628-7.27.867-2.52 2.02-4.92 3.097-7.422l.618-1.406.26-.503.974-1.85c.66-1.23 1.287-2.51 1.993-3.715l2.085-3.685 2.03-3.666c.705-1.198 1.3-2.513 1.916-3.813l.925-1.953.23-.49.057-.123.03-.06c-.038.087 0-.008 0-.008l.092-.248.368-.988c.488-1.32 1.014-2.63 1.365-4.003l.59-2.038c.197-.68.312-1.382.477-2.07 1.263-5.525 1.78-11.253 1.872-16.86.05-1.39.013-2.817-.004-4.23l-.01-1.058-.006-.508-.024-.523-.1-2.087-.458-8.22-1.063-15.654-.275-7.275c-.014-2.366.025-4.646.24-6.87.138-1.104.182-2.226.42-3.228l.293-1.515.146-.742c.072-.312.137-.5.205-.768.538-1.95 1.202-3.733 1.844-5.387 1.303-3.302 2.486-6.133 3.176-8.558.7-2.416 1.015-4.388 1.07-5.737.06-.674.02-1.198.02-1.548l-.01-.532z" stroke="#171716" stroke-width="2" class="C"/><path d="M377.88 249.113l-3.3 5.702c-1.106 1.85-3.504 2.535-5.425 1.605-2.467-1.192-3.542-3.385-2.83-5.87.158-.554.438-1.083.723-1.6l2.636-4.58 8.196 4.732zm-10.528 21.44c3.8 6.635 1.54 15.118-5.026 18.95s-14.967 1.558-18.758-5.077-1.542-15.12 5.026-18.95 14.965-1.557 18.758 5.078z" class="B D"/><path d="M386.946 261.388c2.143 2.894 2.773 6.086 1.103 9.465-1.023 2.07-2.465 3.868-4.25 5.343l-4.227 3.324c-3.883 3.592-6.143 8.075-6.898 13.298-.463 3.206-1.44 6.223-3.077 9.03-2.27 3.888-7.514 5.318-11.395 3.115-2.45-1.39-4.522-3.196-6.26-5.416-3.292-4.21-7.622-6.69-12.883-7.495-2.927-.45-5.667-1.342-8.197-2.88-3.372-2.05-4.854-6.902-3.154-10.513 1.443-3.067 3.634-5.55 6.264-7.626 3.026-2.39 5.447-5.24 7.053-8.76.928-2.03 1.542-4.16 1.844-6.37.406-2.97 1.366-5.755 2.73-8.425 1.802-3.53 5.93-5.072 8.864-4.69 3.27.427 6.472 1.143 9.58 2.245a49.02 49.02 0 0 1 2.624 1.016c.402.17.6.087.838-.293 1.574-2.625 1.99-5.404 1.24-8.354-.126-.496-.306-.985-.37-1.5-.036-.28.03-.68.213-.85.133-.125.578-.05.803.08l9.348 5.38 7.162 4.154c.275.163.435.522.65.8-.278.208-.53.525-.84.606-1.932.5-3.8 1.13-5.346 2.474-.203.175-.297.48-.443.724-.077.13-.126.307-.24.385-1.196.814-1.52 1.196-2.083 2.543 3.547 2.652 6.728 5.65 9.35 9.2zM378.532 248c.16.09.492.107.61.003 1.472-1.308 3.15-2.23 5.164-2.788l-14.412-8.32c.478 2.015.534 3.928.128 5.855-.03.15.157.427.316.52l8.195 4.73zm-.623 1.15l-8.21-4.74-2.636 4.58c-.284.506-.564 1.035-.722 1.588-.71 2.485.368 4.68 2.84 5.874 1.924.932 4.325.247 5.43-1.6 1.117-1.865 2.18-3.762 3.3-5.7zm-.623 4.353c-.512.774-.95 1.52-1.47 2.204-1.75 2.305-5.326 3.035-7.8 1.626-2.48-1.406-3.758-4.877-2.725-7.512.337-.863.8-1.678 1.22-2.546l-1.606-.632c-2.114 2.674-2.51 6.255-1.024 9.014 1.64 3.043 4.735 4.71 8.17 4.277 3.222-.405 5.493-2.54 6.603-5.37l-1.357-1.062zm2.524 1.885c-1.286 2.408-2.924 4.203-5.334 5.135-2.42.938-4.853.996-7.232-.054-2.08-.917-3.643-2.423-4.58-4.52-1.508-3.38-1.116-6.642.91-9.726-.193-.11-.266-.173-.35-.2-2.865-.94-5.8-1.565-8.784-2.02-2.313-.352-6.15.95-7.68 3.855-1.343 2.55-2.282 5.22-2.677 8.072-.345 2.493-1.03 4.89-2.117 7.16-1.707 3.566-4.18 6.508-7.3 8.93a21.53 21.53 0 0 0-5.584 6.499c-1.9 3.37-.862 7.54 2.364 9.576 2.345 1.48 4.915 2.323 7.66 2.737 5.706.86 10.367 3.55 13.916 8.12 1.69 2.177 3.75 3.903 6.2 5.165 3.194 1.652 7.27.48 9.175-2.62 1.55-2.524 2.567-5.246 2.973-8.178.573-4.146 1.94-7.977 4.44-11.372 1.394-1.893 2.94-3.676 4.902-4.958 2.128-1.4 3.922-3.06 5.38-5.138 1.96-2.798 2.304-5.696.556-8.66-.665-1.13-1.495-2.18-2.37-3.158-1.4-1.562-2.9-3.03-4.458-4.644zm-1.736 19.636c-.096-.182-.15-.388-.204-.6l-2.577-9.81c-.046-.178-.142-.384-.094-.54.073-.234.223-.582.392-.617.233-.048.552.1.76.262.138.104.155.376.208.578l2.57 9.81c.077.298.07.618.087.783-.364.595-.9.585-1.143.125zm-6.534 8.563c-.687.185-.795-.363-.92-.842l-2.893-11.016-1.84-7.03c-.097-.37-.283-.797.205-1.044.18-.09.415-.075.7-.12.133.33.27.587.344.864l4.742 18.044c.113.446.326.963-.346 1.145zm-5.32 15.9c-.73.17-.752-.52-.877-.992l-13.277-50.578c-.064-.245-.14-.502-.126-.75.03-.484.498-.71 1.074-.373.056.15.188.435.267.733l13.298 50.643c.13.504.43 1.135-.36 1.318zm-9.33-2.27c-.05.226-.138.5-.306.632-.14.1-.414.045-.718.063-.116-.318-.237-.582-.3-.858l-9.005-34.294c-.1-.384-.185-.773-.307-1.148-.156-.485-.205-1 .352-1.177.63-.212.75.335.87.796l9.32 35.513c.04.158.138.33.106.473zm-12.092-7.957c-.535.162-.748-.16-.868-.62l-4.234-16.223c-.065-.253.086-.616.245-.854.076-.113.4-.053.668-.074.118.255.242.448.298.66l4.248 16.146c.108.413.163.808-.357.966zm-10.67-2.808c-.232-.496-.357-.69-.414-.906l-1.422-5.396c-.113-.427-.01-.828.4-.868.253-.024.707.28.78.525.53 1.806.996 3.632 1.45 5.46.055.224-.033.543-.168.74s-.412.297-.634.445z" stroke="#171716" class="C"/><path d="M91.98 286.755l-17.486 11.493c-.77.507-1.176.414-1.695-.39l-4.763-7.38L87.52 277.67l.31.433 4.5 6.972c.49.762.402 1.184-.352 1.68zM72 292.466c-.195.395-.074.92.328 1.113l3.238 1.406c.235.087.664-.125.89-.33.297-.268.254-.67.001-1.055-.046-.05-.103-.16-.192-.2l-3.285-1.43c-.427-.17-.78.092-.98.495zm3.73-2.416c-.157.42-.077.855.35 1.06l3.233 1.428c.34.14.74.037.896-.338.127-.31.125-.675.18-1.015a5.82 5.82 0 0 0-.141-.034c-.063-.06-.12-.143-.193-.176l-3.38-1.478c-.413-.16-.8.133-.946.554zm7.773-1.715L80.69 287.1c-.263-.105-.587-.044-.734-.05-.75.51-.665 1.365.028 1.7l2.798 1.24c.582.252 1.06.094 1.28-.406.21-.48-.012-.994-.57-1.247zM53.214 267.44l19.452-12.786 3.92 6.074-19.452 12.786-3.92-6.074zm5.926-.673c.277.443.837.535 1.34.206l5.796-3.81c.517-.343.66-.863.373-1.314s-.834-.554-1.344-.22l-5.796 3.81c-.508.336-.648.885-.37 1.33zm-1.73 2.227l.66-.43c.472-.326.612-.856.342-1.288s-.82-.545-1.303-.258a7.59 7.59 0 0 0-.701.464c-.418.316-.523.87-.255 1.274.276.416.795.515 1.257.24z" class="B D"/></g><path d="M93.818 284.085c1.05 1.627.74 3.152-.856 4.2l-17.526 11.52c-1.534 1.01-3.068.673-4.08-.893l-19.65-30.443c-1.192.505-1.963.26-2.653-.8l-5.626-8.716c-1.053-1.635-.74-3.144.86-4.197l20.513-13.482c1.54-1.013 3.065-.683 4.078.883l5.655 8.76c.69 1.072.602 1.884-.336 2.78l.307.475 19.312 29.923zm-21.015 13.773c.518.802.923.895 1.694.39l17.483-11.49c.754-.496.843-.918.353-1.68l-4.496-6.964-.308-.433-19.483 12.806 4.758 7.372zm-5.756-8.967l19.442-12.78-8.877-13.755-19.442 12.78 8.877 13.754zm5.86-37.214l-5.51-8.537c-.47-.728-.898-.817-1.625-.34l-20.555 13.51c-.69.453-.777.896-.32 1.604l5.51 8.536.3.42 13.486-8.865-.362-.56-1.615-2.522c-.268-.43-.156-.826.185-1.15.3-.294.805-.272 1.15.045.14.13.257.293.363.455l1.778 2.75 1.503-.988-.33-.5-3.07-4.766c-.372-.582-.206-1.166.377-1.402.408-.165.845.012 1.158.493l3.357 5.197 1.5-.986-4.886-7.577c-.312-.488-.22-1.038.195-1.316s.956-.14 1.288.324l.205.314 4.7 7.285 1.498-.985-.28-.43zm-.217 3.012L53.24 267.472l3.916 6.068 19.448-12.784-3.916-6.067zm-6.39 8.506l-5.795 3.81c-.504.328-1.064.236-1.34-.206s-.137-.992.37-1.328l5.795-3.808c.51-.334 1.057-.23 1.343.22s.144.97-.373 1.314zm-8.207 5.397l-.307.202-.352.23c-.462.277-.98.178-1.255-.237-.268-.404-.164-.958.255-1.274a7.8 7.8 0 0 1 .701-.464c.483-.287 1.033-.173 1.302.258s.13.96-.343 1.286zm20.21-.158l-1.454.962 3.436 5.33c.287.476.203.994-.2 1.275-.4.275-.94.173-1.26-.257-.213-.285-.393-.596-.586-.895l-2.887-4.473-1.456.953c-.356.22-.743.25-1.08-.04-.3-.26-.453-.615-.286-1.007.08-.182.228-.364.39-.474l4.39-2.9c.5-.323 1.02-.22 1.298.215s.167.96-.31 1.302zm-3.453 9.417l.267.462c.2.455.088.84-.28 1.133-.35.277-.88.2-1.177-.18-.356-.466-.66-.97-.98-1.464l-2.958-4.577c-.276-.425-.385-.854-.02-1.268.432-.49 1.077-.394 1.497.24l3.652 5.654zm-5.285 5.016c-.25.152-.768.157-1.003-.013l-6.286-4.69c-.42-.32-.457-.875-.15-1.284.293-.4.806-.454 1.265-.116l4.27 3.186-1.153-5.18c-.137-.627.124-1.074.656-1.173.502-.095.934.168 1.062.724l1.69 7.647c.058.278-.127.76-.35.898zM82.785 290l-2.796-1.236c-.693-.325-.778-1.18-.028-1.69.146.007.47-.054.734.05l2.802 1.222c.558.254.78.766.568 1.245-.22.5-.698.66-1.28.407zm-2.542 1.162l.14.034c-.056.34-.054.705-.182 1.014-.155.375-.554.476-.896.338a61.06 61.06 0 0 1-3.23-1.425c-.427-.204-.506-.637-.35-1.057s.533-.715.946-.555l3.378 1.475c.075.034.13.116.193.176zm-3.79 2.45c.252.385.295.785-.001 1.054-.225.204-.655.417-.9.33-1.1-.408-2.174-.896-3.236-1.403-.402-.192-.522-.718-.328-1.113.198-.403.553-.663.98-.494l3.283 1.428c.088.04.146.15.192.2z" class="C"/><path d="M70.52 127.207c-1.623 2.946-3.703 5.507-6.418 7.55-1.49 1.122-3.062 2.1-4.813 2.77-2.166.83-4.358.724-6.466-.167-2.52-1.066-4.788-2.61-7.165-3.946l-12.784-7.288c-3.066-1.767-4.76-4.36-4.875-7.915-.114-3.55.486-6.944 1.976-10.18 1.023-2.224 2.353-4.243 3.972-6.084.237-.27.428-.287.72-.09 1.1.737 1.742 1.773 2.098 3.007.348 1.206.998 2.23 1.92 3.094 1.506 1.414 3.29 2.138 5.363 2.16l.514.007c.013 0 .025.026.05.056-.002.226-.17.392-.28.58l-6.035 10.31c-.246.416-.233.604.222.862l13.53 7.715c.43.248.614.222.87-.22l5.838-10.032c.19-.33.388-.494.794-.47.79.048 1.546-.196 2.317-.315 2.56-.4 4.823.936 5.64 3.38.372 1.116.827 2.176 1.55 3.112.335.433.755.8 1.215 1.087.468.29.496.57.25 1.017zm-18.396-.698c-.235.408-.396.52-.86.253l-9.84-5.62c-.376-.212-.468-.368-.228-.767l3.037-5.173 2.933-5.038c.218-.386.46-.468.864-.397 2.062.362 3.444 1.555 4.035 3.488.695 2.27 2.033 3.936 4.195 4.947.483.227.482.414.234.83l-4.37 7.476zm-4.676-12.656c-.476-.298-1.147-.132-1.445.357-.307.507-.165 1.14.324 1.44s1.14.136 1.45-.36c.305-.49.157-1.133-.33-1.438zm.205 3.735c-.504-.288-1.15-.127-1.433.358s-.108 1.138.4 1.415c.51.284 1.1.117 1.4-.397.33-.566.203-1.055-.357-1.376zm.26 3.69c-.5-.275-1.18-.095-1.45.385-.274.487-.078 1.14.426 1.42.498.276 1.185.095 1.447-.382.274-.498.08-1.147-.422-1.423zm3.15-5.372c-.457-.263-1.2-.07-1.462.374-.278.476-.067 1.217.422 1.48.468.25 1.2.04 1.45-.416s.048-1.175-.41-1.437zm.2 3.745c-.497-.273-1.185-.116-1.468.333-.264.42-.01 1.205.475 1.468.51.275 1.14.096 1.423-.406s.094-1.108-.43-1.395zm3.44-1.66a1.08 1.08 0 0 0-1.449.381c-.3.49-.138 1.138.357 1.434a1.05 1.05 0 0 0 1.436-.381c.294-.495.132-1.165-.344-1.434z" class="B D E"/><path d="M85.087 121.63c-1.766 4.722-7.09 7.463-12.054 6.33-.477-.108-.63.006-.838.415-1.068 2.115-2.502 3.98-4.162 5.674-2.132 2.174-4.568 3.943-7.367 5.19-2.816 1.254-5.702 1.185-8.568.163-2.482-.885-4.632-2.4-6.907-3.687l-13.238-7.546c-2.57-1.478-4.46-3.55-5.535-6.315-.61-1.566-.698-3.2-.67-4.84a25 25 0 0 1 2.012-9.442c1.614-3.802 4.08-6.966 7.217-9.638 2.582-2.2 3.413-4.873 2.406-8.108-.463-1.486.016-2.914 1.252-3.886 1.172-.92 2.643-1.013 4.023-.266 1.163.63 1.94 1.56 2.336 2.8l.97 2.963c.117.398.28.424.644.326 3.47-.94 6.987-1.162 10.552-.59 1.198.193 2.367.506 3.54.875-.333-3.314 1.767-4.854 3.852-5.24 2.265-.42 4.338.74 5.12 2.855.726 1.96.494 4.6-2.612 5.986 1.407 1.233 2.66 2.577 3.722 4.092 1.538 2.194 2.66 4.58 3.4 7.13.158.538.332.704.932.7 7.843-.05 12.395 7.554 9.965 14.048zm-50.5-19.77c-.29-.196-.484-.18-.72.09-1.62 1.845-2.953 3.866-3.978 6.094-1.494 3.243-2.097 6.642-1.984 10.196.113 3.56 1.806 6.155 4.873 7.922l12.787 7.3c2.377 1.336 4.644 2.88 7.166 3.947 2.11.89 4.302.995 6.47.163 1.752-.672 3.327-1.65 4.818-2.775 2.718-2.05 4.8-4.615 6.427-7.565.247-.447.22-.728-.25-1.02-.46-.286-.88-.654-1.215-1.087-.725-.937-1.178-2-1.55-3.117-.816-2.447-3.08-3.783-5.64-3.38-.772.12-1.53.365-2.32.317-.406-.025-.604.14-.795.47l-5.848 10.048c-.255.442-.438.468-.87.22l-13.532-7.717c-.455-.258-.468-.445-.222-.862l6.045-10.328c.11-.186.28-.353.28-.58-.025-.03-.037-.056-.05-.056l-.513-.007c-2.076-.02-3.86-.745-5.365-2.16-.92-.866-1.57-1.888-1.918-3.096-.355-1.236-.998-2.272-2.097-3.01zm14.35 6.123c.513.13 1.02.33 1.486.58 1.86 1 3.15 2.48 3.736 4.51.455 1.576 1.404 2.738 2.918 3.442.422.197.71.242.994-.27 1.03-1.85 2.122-3.665 3.2-5.492l3.264-5.58c.153-.262.28-.447-.112-.67l-10.15-5.784c-.288-.165-.426-.117-.578.158-.346.63-.718 1.243-1.08 1.864l-3.9 6.654c-.206.347-.2.474.233.586zm-.984 1.8c-.403-.07-.646.01-.865.4l-2.935 5.047-3.044 5.182c-.24.398-.15.554.227.767l9.843 5.62c.463.27.625.156.86-.252l4.377-7.49c.248-.418.25-.606-.234-.832-2.16-1.012-3.5-2.68-4.193-4.95-.6-1.935-1.973-3.13-4.036-3.49zM61.61 94.68c-1.72-.8-3.526-1.317-5.406-1.578-3.433-.474-6.775-.04-10.062.958-.893.27-1.535-.08-1.827-.95l-1.42-4.247c-.16-.475-.416-.9-.804-1.216-.55-.462-1.72-.534-2.332-.15-.5.32-.61.8-.356 1.728l.108.382c.673 2.54.375 4.95-.913 7.252-.658 1.175-1.6 2.096-2.596 2.966-.13.113-.438.2-.105.448 1.54 1.15 2.392 2.71 3 4.502.622 1.864 2.038 2.95 4.025 3.265.928.147 1.818-.083 2.72-.245.3-.053.467-.167.612-.418l6.54-11.216c.22-.384.385-.44.78-.208l5.462 3.135c.293.17.437.172.617-.146l2.145-3.67c.18-.3.152-.437-.174-.6zm5.987-2.058c.79-1.357.413-2.754-.95-3.528s-2.765-.4-3.562.966c-.792 1.358-.42 2.744.948 3.523s2.775.396 3.565-.96zm3.162 10.97c-1.477-2.992-3.62-5.468-6.423-7.37-.39-.264-.52-.162-.716.187-.668 1.185-1.347 2.364-2.06 3.523-.23.37-.162.518.205.722l5.432 3.074c.407.225.42.397.198.77l-3.356 5.722-3.836 6.563c.355-.084.573-.154.796-.186 4.13-.618 7.722 1.913 8.637 5.35a4.79 4.79 0 0 0 1.224 2.145c.66.676.695.68 1-.206 2.37-6.9 2.16-13.688-1.1-20.295zm8.725 7.165c-1.092-.624-2.23-.984-3.343-1.098-.43-.043-.61-.028-.54.523.67 5.26-.078 10.344-2.024 15.257-.2.505-.05.547.373.62 3.795.656 7.372-1.275 8.99-4.714 1.81-3.85.446-8.395-3.455-10.588zm-28.51 5.162c.457.263.66.977.408 1.44-.248.457-.982.668-1.45.416-.49-.262-.7-1.002-.42-1.48.26-.447 1.006-.64 1.463-.377zm-4.182 7.19c-.504-.28-.7-.933-.425-1.42.27-.48.95-.662 1.452-.388s.695.926.42 1.425c-.262.478-.95.66-1.448.383zm-.275-3.727a1.04 1.04 0 0 1-.389-1.417c.284-.485.93-.647 1.434-.36.56.32.688.812.356 1.38a1.01 1.01 0 0 1-1.401.398zm-.28-3.715c-.49-.3-.63-.934-.323-1.442.298-.5.97-.658 1.445-.36a1.05 1.05 0 0 1 .328 1.441c-.31.495-.964.658-1.45.36zm4.945 4.003c.525.287.712.896.43 1.396s-.915.684-1.425.408c-.484-.26-.738-1.05-.474-1.47.283-.45.97-.606 1.47-.334zm3.442-1.663c.478.27.64.94.344 1.435-.3.506-.942.677-1.437.382s-.657-.942-.356-1.435.944-.667 1.45-.382z" class="C"/><path d="M396.058 137.374c-.295.208-.623.37-.937.55l-17.3 9.98c-.165.095-.325.203-.5.275-.5.208-1.016.013-1.25-.456a.91.91 0 0 1 .361-1.228l18.4-10.6c.21-.12.448-.236.68-.255a.85.85 0 0 1 .928.593c.16.453.032.866-.37 1.15zm-6.936-25.713l.286-.678c.444-1.146.94-1.404 2.142-1.056.35.1.672.292 1.144.503l-4.04 2.33.467-1.1zm-10.106 3.07l-2.945-4.12c-.13-.188-.177-.533-.098-.75.706-1.952 3.073-2.73 4.894-1.647l-.88 7.802-.972-1.286zm-3.738 22.414l-.198.115c-5.05 2.402-9.882 2.182-14.465-.992-.586-.405-.71-.977-.363-1.45.353-.48.915-.52 1.51-.11 3.39 2.36 7.066 2.866 11.016 1.48.535-.188 1.048-.454 1.555-.717.673-.35 1.255-.276 1.542.233s.062 1.06-.596 1.44zm-14.972-20.054l3.972 1.064a.56.56 0 0 1 .319.275l1.744 3.913-7.284-.746 1.25-4.506z" class="B D E"/><path d="M395.24 130.663c-.965.85-2.096 1.514-3.156 2.254-.265.184-.557.326-.947.55l1.665 1.06c.116.065.354-.028.512-.1.516-.24.997-.586 1.535-.74 1.382-.397 2.838.326 3.374 1.593a2.92 2.92 0 0 1-1.209 3.649l-18.643 10.753a2.87 2.87 0 0 1-3.942-1.054c-.796-1.38-.365-3.17 1.096-3.896.98-.488 1.36-1.08 1.096-2.1-.046-.18-.027-.374-.043-.56-.003-.034-.028-.066-.05-.116l-2.52 1.164c-4.24 1.75-8.535 1.892-12.854.512-3.374-1.08-6.176-3.006-8.4-5.715-.582-.707-1.086-1.48-1.584-2.25-.415-.642-.255-1.172.415-1.564l2.72-1.586c.138-.085.293-.376.247-.493-.784-1.977-1.664-3.93-3.25-5.395-1.108-1.024-2.4-1.853-3.618-2.758l-3.494-2.562c-.373-.27-.64-.595-.538-1.085s.45-.694.922-.807l6.912-1.704c.506-.128.902-.03 1.325.258 1.344.917 2.715 1.796 4.078 2.686.075.05.17.067.32.123l1.327-4.753c.304-1.087.65-1.292 1.723-1.01l3.26.854c-.224-.537-.386-.98-.588-1.4-1.424-2.94-.268-6.545 2.474-8.288 2.528-1.607 6.04-1.223 8.214 1.043.322.336.595.72.905 1.1 1.73-2.388 3.985-3.16 6.826-2.2l.352-1.822c.334-1.69 1.255-2.617 2.98-2.924.574-.102 1.167-.1 1.9-.14-.035-.25-.014-.558-.13-.804-.228-.49-.532-.947-.803-1.42-.394-.688-.338-1.22.157-1.547.532-.352.964-.22 1.463.44.018.023.06.028.126.057.215-.494.383-.95.004-1.46-.3-.405-.52-.867-.768-1.3-.347-.624-.273-1.13.2-1.447.525-.352.964-.233 1.433.382.03.04.077.067.224.194.122-.505.2-.942.335-1.368.17-.577.637-.866 1.16-.746.544.126.85.62.7 1.214-.1.434-.285.852-.43 1.277l.155.08.277-.132c.518-.23 1.02-.085 1.275.364s.135.98-.33 1.3c-.396.263-.8.548-1.24.7-.973.357-1.04 1.175-1.214 2.057l1.455-.482c.633-.205 1.127.024 1.316.6.17.513-.123 1.018-.72 1.224-.773.266-1.555.506-2.32.795-.22.084-.388.298-.662.52 1.297.607 2.26 1.302 2.802 2.482.582 1.266-.042 2.38-.446 3.585 1.515-.016 2.777.486 3.837 1.588l3.098-1.786c.963-.556 1.4-.434 1.913.528 4.047 7.594 2.358 16.77-4.198 22.54zm-18.785 15.712a.91.91 0 0 0-.362 1.228c.233.468.747.66 1.25.455.174-.073.336-.18.5-.275l17.295-9.977c.314-.182.642-.343.936-.552.403-.285.53-.698.372-1.15-.146-.413-.49-.628-.928-.593-.23.02-.47.135-.68.256l-9.07 5.226-7.43 4.295-1.883 1.086zm14.54-10.673c-.51-.336-.947-.658-1.42-.913-.17-.09-.48-.106-.645-.013l-10.16 5.855c-.134.078-.284.274-.284.414.001.577.057 1.154.098 1.815l12.412-7.158zm-44.097-14.8l4.467 3.272.577-.782c-1.07-.784-2.106-1.49-3.076-2.276-.602-.487-1.175-.675-1.968-.214zm5.325-.926c-.508-.372-.973-.36-1.57.06l2.466 1.805.58-.773-1.475-1.092zm3.463 2.29c-.12-.057-.393-.017-.464.076-.8 1.01-1.553 2.043-2.348 3.102 1.626 1.726 2.618 3.75 3.5 5.87l10.9-6.287c-.193-.125-.34-.232-.496-.32-1.007-.567-2.1-.826-3.26-.845-2.72-.044-5.362-.424-7.834-1.595zm4.665-5.247l-1.252 4.503 7.28.743-1.74-3.91c-.054-.117-.194-.24-.32-.274l-3.97-1.06zm14.935-3.224l-2.183 1.255c-.447.25-.882.224-1.248-.146-.338-.34-.346-.752-.103-1.136.122-.194.352-.338.56-.46l2.38-1.38c-.807-1.1-1.52-2.157-2.322-3.142-1.394-1.712-3.654-2.143-5.633-1.14-2.07 1.047-3.085 3.67-2.146 5.68l2.17-1.248c.607-.334 1.222-.102 1.425.507.148.447-.068.905-.598 1.217l-2.264 1.31 2.36 5.285 2.917-1.677c.522-.294 1.044-.156 1.326.315s.144.998-.347 1.322c-.175.115-.363.21-.545.317l-2.57 1.482.785 1.713 9.942-5.735-1.687-2.298-1.7-2.344-.53.305zm.726-4.003c-.077.215-.032.56.1.748.96 1.385 1.953 2.748 2.942 4.115.3.413.615.814.97 1.283l.883-7.795c-1.82-1.08-4.187-.302-4.894 1.65zm13-5.186c-.84-1.034-2.038-1.353-3.28-1.377-1.794-.032-2.206.663-2.205 2.355.493.11 1.015.204 1.526.34.68.18.997.676.824 1.236-.166.534-.684.783-1.34.62-.472-.118-.934-.267-1.556-.446l-1.068 9.12.164.064 3.294-1.915c.254-.155.51-.414.62-.682l3.23-8c.2-.493.113-.92-.21-1.313zm2.57 5.242c-1.203-.346-1.698-.09-2.142 1.056-.09.23-.2.452-.285.678l-.468 1.098 4.04-2.33c-.47-.21-.794-.402-1.144-.503zm7.557 2.822c-.24-1.056-.713-2.057-1.092-3.123l-44.726 25.798c.143.248.24.498.406.69.676.775 1.32 1.587 2.072 2.283 5.3 4.918 13.158 5.703 19.668 1.983l6.67-3.9 6.44-3.725c1.67-1 3.473-1.842 4.934-3.082 5.318-4.516 7.152-10.23 5.628-16.924zm-27.816-10.485c-1.038-.368-1.818-1.035-2.403-2.05-.485-.883-.657-1.893-.438-2.973.327-1.616-.202-2.603-1.708-3.212-.574-.23-.82-.735-.614-1.255s.707-.73 1.324-.543c2.145.65 3.402 2.843 2.937 5.17-.135.673-.118 1.3.223 1.906.318.565.78.94 1.39 1.165.672.247.938.743.725 1.296-.206.534-.77.732-1.435.498zm-7.523 2.3c-1.1-.343-1.964-1.008-2.526-2-.582-1-.727-2.037-.502-3.156.31-1.542-.236-2.543-1.682-3.124-.612-.246-.846-.684-.655-1.23.195-.553.718-.775 1.353-.57a4.42 4.42 0 0 1 2.957 4.962c-.333 1.785.1 2.6 1.753 3.336.497.223.726.716.556 1.197-.174.492-.712.763-1.254.595zm-5.103 3.766c.506.224.732.7.564 1.19s-.715.774-1.25.61c-1.108-.343-1.966-1.004-2.5-1.968-.627-1.046-.758-2.116-.526-3.25.298-1.46-.267-2.5-1.635-3.05-.683-.273-.924-.73-.69-1.305.22-.543.7-.723 1.377-.503 2.034.67 3.312 2.837 2.913 4.936-.34 1.782.092 2.606 1.75 3.34z" class="C"/></g></svg>