<svg xmlns="http://www.w3.org/2000/svg" width="425" height="410" fill="none" xmlns:v="https://vecta.io/nano"><path d="M348.675 114.883c-21.24-38.387-55.8-66.28-98.016-78.31C163.903 11.238 72.797 61.397 47.46 148.152c-25.08 86.754 25.08 177.86 111.836 203.194 15.1 4.35 30.454 6.654 45.81 6.654 27.383 0 54.254-6.9 78.822-20.473 38.388-21.24 66.283-55.79 78.31-98.015 12.54-41.97 7.42-86.242-13.564-124.63zm-1.28 120.79c-142.802-24.568-225.72 23.544-258.732 50.16l-6.142-8.2c26.36-22.52 118.49-89.057 270.504-74.214-.768 10.748-2.56 21.24-5.63 31.733v.512zm-248.24 61.93c31.22-24.056 109.788-69.097 243.12-47.088-4.094 9.98-9.213 19.193-15.1 27.894-116.954-24.823-186.05 3.583-220.088 26.615-2.815-2.303-5.63-4.862-7.933-7.42zm159.18-109.02c32.5-33.27 73.96-38.643 88.29-39.41 4.094 12.54 6.142 25.59 6.9 38.643-35.06-3.327-66.795-2.56-95.2.768zM205.106 45.53c13.564 0 27.383 1.79 41.203 5.886 38.13 11.004 69.61 36.34 88.547 70.887 2.047 3.84 3.838 7.678 5.63 11.516-22.01 2.048-71.145 11.517-105.694 58.093-30.454 5.374-56.813 13.82-79.334 23.288 4.095-13.82 9.725-26.103 15.61-36.084 4.607.768 9.47 1.024 14.075 1.024 22.52 0 43.25-8.7 57.838-24.824 19.193-20.985 24.824-50.927 15.355-80.1L256.8 70.6l-4.862-1.024c-29.943-6.9-59.373 1.535-78.567 22.264-18.937 20.73-24.824 50.16-15.61 79.333-8.19 14.075-15.866 31.477-20.473 52.206-30.7 14.843-51.695 30.71-63.467 40.7l-3.84-7.42c84.197-65.514 63.723-159.178 55.022-187.584 23.544-15.1 51.44-23.544 80.102-23.544zm-7.422 88.29l-4.862-5.886c-.768.768-9.98 8.446-20.985 22.777-1.792-17.914 3.583-34.804 15.1-47.344 13.82-15.1 34.805-21.753 56.813-18.17 5.375 21.753.768 43.25-13.05 58.348-12.028 13.308-29.687 19.96-48.625 18.938 11.005-14.843 20.218-22.777 20.474-23.032l-4.863-5.63zM111.696 78.8c8.2 29.43 20.986 106.46-47.088 162.505l-3.07-10.237c38.388-47.344 38.9-98.526 32-134.866a117 117 0 0 1 18.17-17.402zM62.56 152.502c4.095-14.33 10.237-27.383 17.914-39.155 3.07 28.15-.256 62.955-22.777 96.735-2.303-18.68-.768-38.386 4.862-57.58zm101.088 184c-4.095-1.28-8.2-2.56-12.284-4.094 26.615-9.213 65.258-14.587 119.513-5.374-33.27 16.378-71.145 19.705-107.23 9.468zm127.446-21.752c-77.287-16.635-127.702-6.398-159.18 8.19-4.095-2.303-8.19-4.862-11.772-7.422 8.7-5.63 19.705-11.26 33.27-16.378 32.757-12.284 86.244-22.008 163.02-6.9-7.678 8.446-16.123 15.867-25.336 22.52z" fill="#fafafa"/><g fill-rule="evenodd"><path d="M423.268 181.906c-1.652.958-3.772.386-4.725-1.276s-.384-3.794 1.27-4.752a3.44 3.44 0 0 1 1.788-.466.62.62 0 1 1-.022 1.244 2.21 2.21 0 0 0-1.148.299c-1.062.616-1.428 1.986-.816 3.054a2.22 2.22 0 0 0 3.036.82c1.062-.616 1.428-1.986.816-3.054-.17-.298-.07-.677.227-.85s.674-.07.845.23c.953 1.662.383 3.794-1.27 4.752zm-12.146 166.512l-2.308-2.32c-.274-.276-.41-.638-.41-1a1.41 1.41 0 0 1 .411-.998 1.4 1.4 0 0 1 1.987 0l2.307 2.32a1.42 1.42 0 0 1 0 1.999 1.4 1.4 0 0 1-1.986 0zm-.32-6.858a1.4 1.4 0 0 1-1.987 0c-.274-.276-.41-.638-.41-1a1.41 1.41 0 0 1 .411-.998l2.308-2.322a1.4 1.4 0 0 1 1.986 0 1.42 1.42 0 0 1 0 1.999l-2.307 2.32zm-6.82 6.858a1.4 1.4 0 0 1-1.987 0c-.274-.276-.41-.637-.41-1s.137-.724.41-1l2.308-2.32a1.4 1.4 0 0 1 1.987 0 1.42 1.42 0 0 1 0 1.998l-2.308 2.32zm.32-6.858l-2.308-2.32c-.274-.276-.41-.637-.41-1s.137-.724.41-1a1.4 1.4 0 0 1 1.987 0l2.308 2.322a1.42 1.42 0 0 1 0 1.998 1.4 1.4 0 0 1-1.987 0zM348.57 209.768h-2.168c-.516 0-.934-.42-.934-.94s.418-.938.934-.938h2.168c.516 0 .934.42.934.938s-.418.94-.934.94zm-2.51-2.727a.93.93 0 0 1-.66.274c-.238 0-.477-.092-.66-.274-.364-.367-.364-.962 0-1.33l1.534-1.54a.93.93 0 0 1 1.32 0c.364.367.364.96 0 1.327l-1.534 1.543zm-.013 3.572l1.533 1.542a.94.94 0 0 1 0 1.327c-.182.184-.42.276-.66.276s-.477-.092-.66-.276l-1.533-1.542c-.364-.365-.364-.96 0-1.327a.93.93 0 0 1 1.32 0zm-3.08-4.32c-.515 0-.933-.42-.933-.94v-2.18c0-.518.418-.94.933-.94s.933.42.933.94v2.18c0 .52-.417.94-.933.94zm-.02 5.052c.516 0 .933.42.933.94v2.18c0 .518-.417.94-.933.94s-.933-.42-.933-.94v-2.18c0-.518.418-.94.933-.94zm-2.42-4.044a.93.93 0 0 1-.66-.275l-1.533-1.542a.94.94 0 0 1 0-1.327.93.93 0 0 1 1.32 0l1.533 1.54a.94.94 0 0 1 0 1.328.93.93 0 0 1-.66.275zm-.082 1.51c0 .518-.418.938-.934.938h-2.168c-.515 0-.933-.42-.933-.938s.418-.94.933-.94h2.168c.516 0 .934.42.934.94zm-12.2-166.623a2.05 2.05 0 0 1-2.042-2.054c0-1.135.914-2.054 2.042-2.054s2.042.92 2.042 2.054a2.05 2.05 0 0 1-2.042 2.054zM95.002 216.984h-4.165c-.495 0-.944-.203-1.268-.53s-.525-.777-.525-1.275c0-.996.802-1.803 1.793-1.803h4.165a1.8 1.8 0 0 1 0 3.607zm-8.236 8.283a1.78 1.78 0 0 1-1.268-.529 1.8 1.8 0 0 1-.525-1.275v-4.19a1.8 1.8 0 0 1 1.793-1.803 1.8 1.8 0 0 1 1.793 1.803v4.19a1.8 1.8 0 0 1-1.793 1.804zm0-12.377a1.79 1.79 0 0 1-1.268-.529c-.324-.326-.525-.777-.525-1.275v-4.19a1.8 1.8 0 0 1 1.793-1.803 1.8 1.8 0 0 1 1.793 1.803v4.19a1.8 1.8 0 0 1-1.793 1.804zm-4.07 4.094H78.53c-.495 0-.943-.203-1.268-.53s-.525-.777-.525-1.275a1.8 1.8 0 0 1 1.793-1.803h4.165a1.8 1.8 0 0 1 0 3.607zM14.272 335.5h-2.84v2.856c0 .44-.354.795-.8.795s-.8-.356-.8-.795V335.5h-2.84c-.437 0-.79-.356-.79-.794s.354-.795.79-.795h2.84v-2.856a.79.79 0 1 1 1.58 0v2.856h2.84c.436 0 .8.356.8.795s-.354.794-.8.794zM2.146 182.672c-1.185 0-2.146-.966-2.146-2.158s.96-2.157 2.146-2.157 2.145.966 2.145 2.157-.96 2.158-2.145 2.158zM339.854 210.6a.93.93 0 0 1 1.32 0c.364.367.364.962 0 1.328l-1.534 1.542c-.182.184-.42.275-.66.275s-.477-.09-.66-.275c-.364-.367-.364-.96 0-1.327l1.534-1.543z" fill="#ec7e3b"/><path d="M253.942 367.113c-.17.048-.338.07-.505.07-.804 0-1.544-.532-1.774-1.346a1.85 1.85 0 0 1 1.272-2.284l6.32-1.928c.97-.317 2.01.216 2.326 1.188l-7.64 4.3zm17.04-5.935c-.732 0-1.424-.44-1.713-1.16a1.85 1.85 0 0 1 1.024-2.405l6.067-2.578c.932-.416 2.022.003 2.437.937a1.85 1.85 0 0 1-.933 2.442l-6.195 2.63c-.226.09-.46.134-.687.134zm16.79-7.808c-.662 0-1.302-.357-1.633-.984a1.85 1.85 0 0 1 .768-2.5l5.77-3.203c.88-.512 2-.21 2.52.675s.21 2.016-.673 2.527l-5.892 3.27a1.83 1.83 0 0 1-.861.215zm15.892-9.532a1.84 1.84 0 0 1-1.534-.819c-.568-.848-.343-1.996.503-2.567l5.41-3.79c.824-.6 1.98-.42 2.578.407s.418 1.983-.406 2.584l-5.523 3.872c-.316.212-.673.314-1.027.314zm14.82-11.146a1.84 1.84 0 0 1-1.418-.664c-.653-.785-.548-1.95.234-2.605l5-4.34c.757-.683 1.924-.622 2.606.137s.62 1.928-.136 2.612l-5.094 4.43a1.84 1.84 0 0 1-1.182.429zM51.61 285.2c-.637 0-1.257-.33-1.6-.922l-3.265-5.904c-.477-.904-.134-2.022.766-2.5s2.018-.135 2.495.767l3.198 5.783c.51.884.2 2.016-.672 2.53a1.84 1.84 0 0 1-.923.248zm-8.43-16.524c-.705 0-1.38-.408-1.685-1.095l-2.628-6.2a1.85 1.85 0 0 1 1.024-2.406c.946-.38 2.02.078 2.4 1.026l2.573 6.08a1.85 1.85 0 0 1-.932 2.444 1.84 1.84 0 0 1-.752.161zm-6.655-17.325c-.777 0-1.5-.497-1.754-1.28l-1.967-6.47c-.278-.982.29-2.006 1.27-2.285s2 .292 2.28 1.274l1.925 6.335a1.85 1.85 0 0 1-1.183 2.332 1.87 1.87 0 0 1-.572.092zm-4.803-17.95a1.85 1.85 0 0 1-1.804-1.465l-1.276-6.64a1.85 1.85 0 0 1 1.503-2.139c1.003-.175 1.96.5 2.133 1.507l1.25 6.503a1.85 1.85 0 0 1-1.422 2.194 1.88 1.88 0 0 1-.385.04zm348.67-11.882c-.087 0-.174-.006-.262-.018a1.85 1.85 0 0 1-1.567-2.092l.805-6.574c.106-1.016 1.013-1.757 2.027-1.648s1.75 1.014 1.644 2.03l-.822 6.71a1.85 1.85 0 0 1-1.825 1.59zM28.83 215.046a1.85 1.85 0 0 1-1.834-1.657l-.577-6.736a1.85 1.85 0 0 1 1.718-1.97c1.017-.07 1.897.703 1.965 1.722l.565 6.598a1.85 1.85 0 0 1-1.643 2.033c-.065.007-.13.01-.194.01zm353.21-12.037c-.023 0-.046 0-.07-.001a1.85 1.85 0 0 1-1.776-1.917l.122-6.622v-.335c-.002-1.022.823-1.852 1.842-1.853a1.85 1.85 0 0 1 1.849 1.847v.34l-.125 6.76a1.85 1.85 0 0 1-1.843 1.781zm-354.18-6.522c-1.02 0-1.845-.828-1.845-1.85v-.17l.118-6.59c.037-1.022.894-1.827 1.91-1.783a1.85 1.85 0 0 1 1.778 1.916l-.116 6.456v.17a1.85 1.85 0 0 1-1.846 1.849zm353.888-12.396c-.962 0-1.773-.748-1.84-1.726l-.57-6.598c-.108-1.015.627-1.926 1.64-2.033s1.922.63 2.03 1.645l.583 6.736a1.85 1.85 0 0 1-1.716 1.971l-.127.005zm-352.947-6.16a2.05 2.05 0 0 1-.191-.009 1.85 1.85 0 0 1-1.647-2.03l.816-6.712a1.85 1.85 0 0 1 2.085-1.574 1.85 1.85 0 0 1 1.57 2.09l-.8 6.575a1.85 1.85 0 0 1-1.833 1.66zm350.727-12.287a1.85 1.85 0 0 1-1.816-1.534l-1.256-6.5a1.85 1.85 0 0 1 1.419-2.196c.997-.214 1.977.424 2.2 1.424l1.283 6.64a1.85 1.85 0 0 1-1.501 2.14 1.93 1.93 0 0 1-.319.028zm-4.135-18.115c-.804 0-1.543-.53-1.774-1.343l-1.932-6.333a1.85 1.85 0 0 1 1.181-2.333c.968-.317 2.01.213 2.327 1.184l1.973 6.468a1.85 1.85 0 0 1-1.268 2.286c-.17.048-.34.07-.507.07zm-6.015-17.577c-.73 0-1.422-.438-1.712-1.16l-2.58-6.077a1.85 1.85 0 0 1 .93-2.444c.93-.418 2.022-.001 2.438.93l2.634 6.207a1.85 1.85 0 0 1-1.022 2.407 1.82 1.82 0 0 1-.689.135zm-7.812-16.818c-.66 0-1.3-.357-1.632-.983l-3.203-5.78c-.51-.883-.21-2.015.67-2.528s2-.212 2.522.672l3.27 5.9a1.85 1.85 0 0 1-.764 2.501c-.276.147-.572.218-.864.218zm-9.532-15.918a1.84 1.84 0 0 1-1.531-.816l-3.79-5.417c-.6-.826-.42-1.983.403-2.585s1.977-.42 2.578.404l3.87 5.53c.57.847.346 1.997-.5 2.568-.316.213-.675.316-1.03.316zm-290.434-5.17c-.377 0-.756-.115-1.084-.354-.824-.6-1.007-1.757-.408-2.583l4.07-5.4a1.84 1.84 0 0 1 2.591-.312c.802.63.94 1.793.312 2.597l-3.987 5.288a1.84 1.84 0 0 1-1.494.763zm279.293-9.67a1.84 1.84 0 0 1-1.415-.663l-4.334-4.995c-.683-.76-.624-1.93.132-2.613s1.923-.626 2.607.133l4.424 5.1a1.85 1.85 0 0 1-.23 2.605 1.83 1.83 0 0 1-1.184.432zm-267.624-4.78c-.44 0-.88-.156-1.233-.474-.758-.684-.82-1.853-.138-2.612l4.606-4.943a1.84 1.84 0 0 1 2.609-.04 1.85 1.85 0 0 1 .04 2.615l-4.51 4.842a1.84 1.84 0 0 1-1.373.612zm255-8.826c-.463 0-.926-.174-1.284-.52l-4.832-4.52c-.758-.683-.82-1.852-.14-2.612a1.84 1.84 0 0 1 2.606-.139l4.933 4.614c.732.71.75 1.883.04 2.616a1.84 1.84 0 0 1-1.325.562zM86.368 64.44c-.505 0-1.007-.206-1.37-.6-.683-.76-.623-1.93.134-2.613l5.09-4.434c.782-.656 1.946-.55 2.6.233s.55 1.95-.23 2.605l-4.986 4.343c-.353.32-.795.476-1.235.476zm227.925-7.897c-.4 0-.8-.128-1.14-.395l-5.277-3.994a1.85 1.85 0 0 1-.409-2.583c.6-.827 1.753-1 2.577-.41l5.388 4.078c.802.63.942 1.793.313 2.597a1.84 1.84 0 0 1-1.453.708zM100.755 52.73a1.84 1.84 0 0 1-1.492-.76 1.85 1.85 0 0 1 .404-2.584l5.52-3.877c.845-.57 1.99-.346 2.56.502s.345 1.997-.5 2.567l-5.405 3.797c-.328.24-.71.355-1.086.355zm198.367-6.887c-.336 0-.675-.092-.98-.284l-5.668-3.422a1.85 1.85 0 0 1-.676-2.526c.51-.885 1.637-1.19 2.52-.68l5.787 3.493c.863.544 1.123 1.686.58 2.55-.35.56-.95.866-1.564.866zm-182.85-3.255c-.636 0-1.256-.33-1.598-.922-.51-.884-.21-2.016.67-2.528l5.887-3.276c.9-.478 2.017-.135 2.495.767s.135 2.023-.765 2.5l-5.766 3.21a1.83 1.83 0 0 1-.924.25zm166.64-5.803c-.273 0-.55-.06-.81-.19l-6-2.81a1.85 1.85 0 0 1-.937-2.441c.414-.934 1.504-1.355 2.436-.94l6.124 2.868c.916.45 1.294 1.56.845 2.476-.32.655-.976 1.035-1.658 1.035zm-150.16-2.652c-.705 0-1.38-.408-1.685-1.096-.416-.932.001-2.027.93-2.444l6.192-2.637c.946-.382 2.02.078 2.402 1.025s-.078 2.025-1.023 2.407l-6.064 2.582a1.83 1.83 0 0 1-.753.162zm133.082-4.652c-.2 0-.424-.036-.633-.112l-6.266-2.16a1.85 1.85 0 0 1-1.189-2.329c.314-.972 1.354-1.506 2.323-1.192l6.4 2.206a1.85 1.85 0 0 1 1.099 2.373c-.273.75-.98 1.215-1.733 1.215zm-115.802-2.026c-.778 0-1.5-.496-1.754-1.277a1.85 1.85 0 0 1 1.182-2.333l6.452-1.974c.98-.28 2 .3 2.28 1.272a1.85 1.85 0 0 1-1.27 2.285l-6.32 1.934a1.84 1.84 0 0 1-.572.092zm98.062-3.43c-.148 0-.3-.018-.45-.056l-6.44-1.483a1.85 1.85 0 0 1-1.426-2.19c.21-1 1.187-1.64 2.185-1.43l6.575 1.515a1.85 1.85 0 0 1-.446 3.645z" fill="#f0f0f0"/><path d="M263.663 84.067c-2.53 0-4.582-2.028-4.582-4.53s2.05-4.533 4.582-4.533 4.582 2.03 4.582 4.533-2.052 4.53-4.582 4.53zm-9.854-3.103c-1.456 0-2.637-1.168-2.637-2.608s1.18-2.607 2.637-2.607 2.636 1.167 2.636 2.607-1.18 2.608-2.636 2.608zm2.634 6.78c0 3.293-2.698 5.963-6.027 5.963s-6.028-2.67-6.028-5.963 2.7-5.96 6.028-5.96 6.027 2.67 6.027 5.96zm-29.567 15.753c-4.905 0-8.882-3.933-8.882-8.786s3.977-8.786 8.882-8.786 8.884 3.933 8.884 8.786-3.978 8.786-8.884 8.786zm25.468 127.312c0 31.036-25.435 56.195-56.81 56.195s-56.812-25.16-56.812-56.195 56.812-111.748 56.812-111.748 56.81 80.714 56.81 111.748z" fill="#ec7e3b"/><path d="M349.383 179.996c-.714.766-17.858 18.828-48.475 25.545-20.682 4.537-39.632 5.262-49.627 5.262-4.62 0-7.326-.155-7.41-.16a2.29 2.29 0 0 1-2.141-2.423c.077-1.26 1.18-2.216 2.417-2.146.257.016 26.193 1.487 55.783-5.004 25.31-5.552 41.228-19.487 45.163-23.252-2.243-6.523-12.348-35.383-22.818-56.852C310.51 96.84 298 81.457 297.874 81.305c-.8-.977-.66-2.42.316-3.222s2.414-.66 3.215.317c.524.64 12.976 15.954 24.974 40.556 11.948 24.496 23.387 58.407 23.5 58.746a2.29 2.29 0 0 1-.497 2.294zM302.645 72.16c-1.37 1.27-33.278 22.42-41.54 22.42-.34 0-.64-.035-.898-.11-1.04-.303-1.79-1.056-2.054-2.066-.233-.9-1.828-2.29-4.322-3.135-3.096-1.044-6.237-.83-8 .547a2.28 2.28 0 0 1-3.205-.395c-.776-.996-.598-2.435.396-3.212 3.028-2.373 7.614-2.853 12.27-1.276 3.23 1.092 5.663 2.92 6.78 5.033 6.186-1.3 33.582-17.81 37.328-21.033.54-1.888-1.89-9.97-6-14.827-1.643-1.94-3.22-2.912-4.338-2.662-6.888 1.545-14.678 6.57-14.755 6.622-1.06.685-2.47.385-3.16-.677-.684-1.06-.382-2.477.675-3.164.347-.225 8.565-5.524 16.243-7.248 4.173-.926 8.68 2.534 12.342 9.522.255.488 6.2 11.98 2.243 15.662zm-37.966-2.52a5.69 5.69 0 0 1-.184.003c-2.353 0-4.233-1.423-4.816-3.667a2.27 2.27 0 0 1-.075-.619l.135-7.53c.023-1.25 1.04-2.248 2.283-2.248h.04c1.26.023 2.264 1.066 2.24 2.33l-.125 7.08c.057.052.137.087.358.075.432-.013 1.092-.3 1.208-.892a2.29 2.29 0 0 1 2.68-1.808 2.29 2.29 0 0 1 1.803 2.685c-.503 2.575-2.835 4.504-5.55 4.6zm-10.87.2a2.28 2.28 0 0 1 3.119.834c.632 1.094.26 2.495-.832 3.128-.934.542-1.976.818-2.992.818-.705 0-1.4-.133-2.04-.402-1.403-.587-2.394-1.748-2.8-3.27a2.29 2.29 0 0 1-.07-.7l.627-11.61c.07-1.26 1.158-2.208 2.402-2.16 1.26.068 2.226 1.146 2.156 2.41l-.597 11.094c.01.006.02.01.03.015.202.083.616.058.986-.156zm11.63-20.262c-4.43.038-22.56 6.5-28.03 14.277-1.244 1.767-1.607 3.33-1.106 4.782.4 1.194-.222 2.497-1.413 2.9a2.29 2.29 0 0 1-.746.126c-.947 0-1.833-.594-2.16-1.542-.686-1.994-.952-5.16 1.693-8.916C239.965 52.29 259.644 45.05 265.402 45a2.29 2.29 0 0 1 2.302 2.269c.012 1.264-1.002 2.297-2.264 2.308zm-29.453 24.81a2.29 2.29 0 0 1-1.279 2.971c-5.387 2.146-11.09 7.163-9.434 14.245.288 1.23-.473 2.462-1.702 2.75a2.29 2.29 0 0 1-.522.061c-.798 0-1.53-.427-1.94-1.102-1.635.737-3.185 1.805-3.663 2.82a1.08 1.08 0 0 0-.015.99 2.29 2.29 0 0 1-1.2 3.005c-.293.126-.597.185-.897.185a2.28 2.28 0 0 1-2.099-1.386c-.67-1.566-.642-3.206.08-4.744 1.234-2.63 4.402-4.537 7.122-5.534.208-6.594 4.8-12.448 12.582-15.544 1.178-.463 2.5.108 2.966 1.283zm-19.63 32.183a2.29 2.29 0 0 1 .108 3.235c-.563.604-.064 2.003.825 4.238 1.526 3.84 3.835 9.647-2.756 14.46-.405.297-.877.44-1.342.44-.704 0-1.4-.326-1.846-.94a2.29 2.29 0 0 1 .5-3.198c3.55-2.594 2.812-5.013 1.2-9.068-1.114-2.8-2.5-6.288.084-9.057a2.28 2.28 0 0 1 3.226-.109zm-5.75-3.408c-.568.072-1.126.108-1.674.108-2.523 0-4.897-.764-7.654-2.423a2.23 2.23 0 0 1-.44-.344c-.283-.283-1.205-1.316-1.205-2.694 0-.126.01-.252.03-.376.166-.997.505-1.978.832-2.926.284-.82.81-2.346.67-2.782l-.001.001c-.018 0-.225-.156-.817-.288-1.956-.325-4.237-.16-6.65.014-2.967.215-6.192.42-9.233-.426-2.62 7.865-9.082 8.127-9.376 8.135h-.055c-1.236 0-2.252-.99-2.282-2.234-.03-1.253.95-2.295 2.197-2.34.435-.026 3.895-.414 5.366-5.6-.07-.054-.146-.1-.216-.146-2.464-1.92-4.65-4.23-6.765-6.465-2.184-2.307-4.246-4.486-6.54-6.2a2.29 2.29 0 0 1-.469-3.202c.753-1.013 2.184-1.222 3.195-.47 2.612 1.948 4.908 4.374 7.128 6.72 1.998 2.11 4.065 4.294 6.28 6.02 2.738 2.194 6.31 1.938 10.444 1.64 2.575-.186 5.236-.377 7.85.06 1.944.43 3.23 1.282 3.94 2.557 1.172 2.102.367 4.44-.346 6.5-.162.47-.32.926-.442 1.346 2.107 1.154 3.762 1.5 5.672 1.272 1.245-.162 2.393.732 2.548 1.987s-.73 2.398-1.983 2.554zm-49.933 17.434c-1.154-.354-4.593-.958-6.6.454-1.158.818-1.772 2.27-1.875 4.435-.105 2.182.704 3.728 2.546 4.867 4.187 2.586 12.056 1.867 15.114.138a2.28 2.28 0 0 1 3.111.868 2.29 2.29 0 0 1-.868 3.117c-2.256 1.277-6.034 2.176-9.973 2.176-3.44 0-7-.685-9.782-2.404-3.266-2.018-4.895-5.124-4.71-8.98.173-3.63 1.46-6.313 3.83-7.974 4.184-2.932 9.908-1.266 10.548-1.068a2.29 2.29 0 0 1 1.501 2.866c-.374 1.205-1.65 1.875-2.853 1.506zm-.007-46.188c-.84-.195-20.28-4.434-34.896 16.64-14.712 21.215-7.684 36.364-7.38 36.998.548 1.134.08 2.503-1.05 3.057-.324.16-.667.235-1.005.235-.84 0-1.645-.466-2.043-1.27-.358-.727-8.608-18.076 7.727-41.632 16.454-23.725 38.76-18.706 39.7-18.48 1.227.293 1.984 1.528 1.7 2.758s-1.524 1.986-2.745 1.695zm-45.286 57.855c.892.892.895 2.34.008 3.234-.12.124-12.3 12.708-16.755 38.638-4.39 25.48 7.934 36.27 8.058 36.377a2.29 2.29 0 0 1 .268 3.225 2.28 2.28 0 0 1-1.743.81 2.27 2.27 0 0 1-1.475-.542c-.592-.5-14.437-12.615-9.61-40.648 4.73-27.464 17.48-40.544 18.018-41.087.89-.895 2.338-.896 3.23-.007zm22.388 13.596c-.157 0-.314-.016-.473-.05-12.454-2.62-16.3-11.44-16.448-11.815a2.29 2.29 0 0 1 1.219-2.996c1.154-.49 2.5.05 2.985 1.207.132.302 3.183 7.02 13.183 9.125a2.29 2.29 0 0 1 1.765 2.71c-.226 1.078-1.175 1.818-2.23 1.818zm3.162 36.374c8.502-6.01 15.794-8.13 21.548-6.224 5.902 1.957 7.756 7.416 7.833 7.648a2.29 2.29 0 0 1-1.455 2.889c-1.2.4-2.48-.253-2.878-1.444-.067-.2-1.302-3.576-4.995-4.767-4.236-1.372-10.3.61-17.554 5.726-22.884 13.914-70.67 90.543-73.812 106.473-.204 1.036-.085 4.326 5.43 12.45 17.303 25.488 67.524 69.228 82.672 72.002 10.76 1.97 15.033-2.336 19.16-6.505 3.245-3.277 6.6-6.662 12.444-6.058 5.965.62 10 7.247 10.168 7.53.65 1.084.297 2.5-.784 3.14a2.28 2.28 0 0 1-3.133-.785c-.83-1.373-3.662-5.014-6.72-5.332-3.503-.35-5.5 1.467-8.732 4.73-3.755 3.792-8.278 8.36-17.317 8.36-1.784 0-3.742-.178-5.907-.574-17.86-3.272-68.467-48.655-85.625-73.93-4.834-7.123-6.842-12.328-6.135-15.914 3.312-16.79 51.618-94.72 75.793-109.412zm-4.658 195.75c.853-.93 2.3-.987 3.226-.128a2.29 2.29 0 0 1 .128 3.232c-.144.16-7.792 8.698-10.92 23.596-.227 1.077-1.176 1.817-2.232 1.817a2.31 2.31 0 0 1-.473-.05 2.29 2.29 0 0 1-1.764-2.711c3.418-16.27 11.686-25.377 12.036-25.756zm41.375 2.184c.23.135 23.508 13.225 54.935 7.764a2.28 2.28 0 0 1 2.64 1.865 2.29 2.29 0 0 1-1.861 2.645c-5.8 1.007-11.32 1.425-16.482 1.425-24.307 0-40.684-9.255-41.508-9.73-1.092-.63-1.467-2.027-.84-3.123s2.022-1.47 3.117-.846zm57.37 12.624c1.238-.23 2.432.593 2.66 1.834.05.265 1.195 6.556 1.534 12.966a2.29 2.29 0 0 1-2.161 2.407c-.04.002-.083.002-.122.002-1.206 0-2.214-.946-2.28-2.167-.32-6.118-1.45-12.315-1.462-12.378-.23-1.243.59-2.436 1.83-2.664zm-4.408-5.778c-.132.023-.264.035-.393.035a2.29 2.29 0 0 1-2.247-1.899c-.064-.366-1.524-9.042.002-17.616 1.476-8.278 4.673-20.04 4.807-20.537a2.29 2.29 0 0 1 2.806-1.605c1.216.334 1.932 1.593 1.6 2.812-.032.12-3.28 12.06-4.717 20.136-1.39 7.8-.012 15.947.002 16.03a2.29 2.29 0 0 1-1.861 2.645zm4.7-174.34c.168 1.253-.7 2.405-1.962 2.57-.1.014-.204.02-.305.02-1.126 0-2.107-.835-2.26-1.985-3.306-24.773-25.783-40.49-26.01-40.648-1.04-.714-1.304-2.138-.592-3.18a2.28 2.28 0 0 1 3.171-.596c.994.68 24.375 16.987 27.957 43.817zm-27.296-82.074a2.28 2.28 0 0 1 3.176.583 2.29 2.29 0 0 1-.568 3.173c-.18.132-12.285 9.227-9.958 37.852a2.29 2.29 0 0 1-2.091 2.467 2.36 2.36 0 0 1-.188.007c-1.177 0-2.176-.905-2.273-2.102-2.567-31.58 11.3-41.57 11.902-41.98zm-25.184-.684c.33.233 7.515 5.167 16.71-.386 1.08-.65 2.484-.303 3.134.78a2.29 2.29 0 0 1-.778 3.141c-4.104 2.48-7.923 3.3-11.178 3.3-6.156 0-10.3-2.934-10.56-3.123a2.29 2.29 0 0 1-.508-3.196c.74-1.02 2.16-1.247 3.18-.515zm14.352 141.433c-10.522-2.965-15.49-13.642-15.695-14.095a2.29 2.29 0 0 1 1.129-3.031c1.148-.524 2.5-.017 3.024 1.127.06.13 4.353 9.238 12.81 11.602 5.346 1.497 11.35.02 17.85-4.38 1.044-.71 2.466-.433 3.17.613s.434 2.47-.613 3.177c-5.638 3.82-11.07 5.74-16.214 5.74a20 20 0 0 1-5.458-.753zm-16.857 65.324c.054-1.264 1.13-2.266 2.38-2.188.517.023 12.715.557 18.702 1.428 6.55.957 13.23 6.914 13.512 7.166.345.312.587.718.694 1.17l1.296 5.413a2.29 2.29 0 0 1-1.686 2.76c-.18.043-.36.064-.535.064-1.033 0-1.968-.706-2.22-1.755l-1.122-4.688c-1.558-1.3-6.32-4.976-10.597-5.598-5.757-.84-18.116-1.382-18.24-1.387-1.26-.053-2.238-1.122-2.183-2.384zm16.764 8.808c-1.04-.712-1.31-2.137-.598-3.18s2.132-1.312 3.173-.6c2.826 1.933 12.102 8.6 12.85 13.218.67 4.14.677 9.45.677 9.675 0 1.264-1.02 2.288-2.283 2.288s-2.282-1.024-2.282-2.288c0-.05-.01-5.172-.62-8.943-.3-1.786-5.984-6.794-10.916-10.17zm9.957 29.6c-.378.238-.8.352-1.215.352a2.28 2.28 0 0 1-1.934-1.07c-5.096-8.105-8.245-19.944-8.376-20.446-.32-1.22.406-2.472 1.626-2.794 1.21-.323 2.47.406 2.8 1.627.03.116 3.106 11.67 7.825 19.175.67 1.068.352 2.48-.716 3.156zm-34.824-183.448a2.29 2.29 0 0 1 1.138-3.028c1.148-.52 2.502-.01 3.022 1.14.848 1.877 20.493 46.154-4.04 61.923-7.405 4.76-13.97 7.154-19.587 7.154-1.725 0-3.362-.227-4.907-.678-6.152-1.804-8.42-6.603-8.513-6.805-.526-1.148-.026-2.507 1.12-3.036 1.136-.53 2.487-.03 3.02 1.103.082.168 1.618 3.208 5.763 4.375 5.168 1.464 12.3-.606 20.638-5.966 21.247-13.656 2.538-55.758 2.347-56.182zm-7.93 30.45c1.227-.28 2.452.5 2.728 1.732s-.496 2.457-1.728 2.734c-24.172 5.445-56.937 61.952-57.265 62.523a2.28 2.28 0 0 1-1.979 1.147c-.388 0-.78-.1-1.14-.308a2.29 2.29 0 0 1-.838-3.125c1.382-2.4 34.114-58.82 60.22-64.703zm9.376 116.767a2.28 2.28 0 0 1 3.198.452 2.29 2.29 0 0 1-.451 3.204c-4.467 3.372-14.508 10.405-20.5 10.405-.9 0-1.728-.163-2.42-.524-12.295-6.428-47.738-52.222-49.24-54.167-.773-1-.6-2.437.408-3.212 1-.77 2.433-.59 3.203.41 8.19 10.606 28.377 35.7 40.724 47.346 1.21-2.352 4.846-8.775 9.21-10.268.732-.255 1.503-.107 2.084.32-1.416-36.985-24.677-72.27-24.928-72.647-.7-1.05-.42-2.472.628-3.174s2.47-.42 3.168.63c1.128 1.69 27.625 41.897 25.668 82.976-.058 1.226-1.068 2.178-2.28 2.178-.037 0-.074 0-.11-.002-1.26-.06-2.232-1.132-2.172-2.394.063-1.312.1-2.623.092-3.935-.2.158-.422.292-.675.38-2.324.796-5.466 5.562-6.953 8.69-.062.13-.15.236-.233.348 1.343 1.1 2.536 1.95 3.52 2.464 1.797.813 10.406-3.697 18.07-9.48zm37.364-139.122a2.28 2.28 0 0 1 3.084.961c.585 1.12.155 2.503-.96 3.09-2.24 1.18-4.572 1.703-6.943 1.703-18.455 0-39.458-31.68-40.454-33.198-.692-1.056-.4-2.475.655-3.17a2.28 2.28 0 0 1 3.161.656c7.023 10.704 28.162 36.953 41.458 29.956zm-45.953-61.073c1.123-.57 2.49-.126 3.063.998.103.205 10.173 20.674-13.318 35.022a2.26 2.26 0 0 1-1.185.335 2.28 2.28 0 0 1-1.952-1.098 2.29 2.29 0 0 1 .762-3.145c19.803-12.096 11.964-28.354 11.622-29.04-.564-1.126-.115-2.502 1.008-3.07zm80.774 38.83c-.503 0-1.01-.167-1.432-.51-12.038-9.742-27.662-5.663-27.815-5.62a2.28 2.28 0 0 1-2.801-1.613 2.29 2.29 0 0 1 1.61-2.806c.73-.198 18.05-4.712 31.873 6.48a2.29 2.29 0 0 1 .342 3.218c-.45.56-1.11.85-1.777.85zm-8.973-101.56a2.29 2.29 0 0 1 1.632-2.793c1.214-.314 2.467.413 2.784 1.636.038.145.088.25.44.247.432-.014 1.095-.3 1.2-.894.243-1.238 1.44-2.052 2.68-1.806A2.29 2.29 0 0 1 247.421 75c-.504 2.574-2.838 4.503-5.553 4.588a5.48 5.48 0 0 1-.182.003c-2.35 0-4.233-1.423-4.815-3.667zm10.16 25.875c-3.42 1.77-7.55 3.056-11.546 3.056-2.275 0-4.506-.422-6.543-1.402-.125.137-.263.265-.425.37-2.9 1.897-5.372 2.847-7.393 2.847-1.45 0-2.67-.5-3.65-1.472-.89-.894-.89-2.343 0-3.236.894-.892 2.34-.893 3.23.001.217.218 1.497.334 4.477-1.457a2.29 2.29 0 0 1 .411-2.527c.867-.92 2.312-.957 3.226-.094 4.13 3.91 11.264 2.36 16.114-.153 1.122-.58 2.497-.142 3.08.983a2.29 2.29 0 0 1-.981 3.083zm62.414 63.378c1.26.03 2.258 1.077 2.23 2.34s-1.1 2.217-2.336 2.235c-21.342-.483-56.803 4.135-57.16 4.18-.1.014-.2.02-.3.02-1.128 0-2.11-.838-2.26-2-.164-1.253.715-2.403 1.967-2.567.356-.047 36.12-4.732 57.86-4.22zm-63.672-70.793a2.29 2.29 0 0 1 .459-3.202c1.005-.757 2.438-.55 3.196.458 2.487 3.32 7.18 8.078 9.84 8.255 4.08.268 16.62-5.65 18.605-7.924.65-.745 1.626-1.094 2.584-.938 2.45.397 5.578 3.345 19.093 35.54 8.672 20.652 10.43 33.827 10.5 34.378.162 1.253-.722 2.398-1.974 2.56-.098.013-.196.02-.295.02-1.13 0-2.11-.842-2.26-1.995-.018-.13-1.776-13.17-10.182-33.187-9.68-23.06-13.71-30.09-15.34-32.192-4.463 3.395-16.086 8.622-21.037 8.307-5.673-.38-11.984-8.46-13.19-10.077zm-25.015 250.65c-1.245 0-2.263-1-2.282-2.253-.02-1.262.986-2.303 2.248-2.323 15.468-.238 20.132-3.13 21.428-4.38-1.8-3.18-4.433-11.59-5.31-33.765-.896-22.69 3.58-28.89 9.243-36.742 2.198-3.047 4.473-6.198 6.73-10.77 6.528-13.206-.25-20.716-8.83-30.225l-3.58-4.023a2.29 2.29 0 0 1 .226-3.228 2.28 2.28 0 0 1 3.221.228l3.52 3.953c8.97 9.94 17.443 19.33 9.535 35.327-2.43 4.913-4.923 8.37-7.123 11.42-5.35 7.414-9.215 12.77-8.38 33.88 1.054 26.655 4.568 31.616 4.933 32.06.534.46.83 1.146.8 1.86-.11 2.015-2.34 8.612-26.335 8.98h-.035z" fill="#171716"/><path d="M66.825 143.844L45.54 156.116c-2.357 1.358-2.664 1.232-3.622-1.58l7.624-4.397c.432-.25.976-.415 1.26-.782.3-.39.59-1.047.46-1.453-.235-.732-.93-.728-1.56-.37l-9.014 5.19-1.2-2.075c-.412-.814.228-1.108.775-1.423l22.904-13.208c1.594-.92 1.644-.906 2.562.708l.616 1.196-2.42 1.393c-.67.38-1.093.987-.552 1.607.282.322 1.13.415 1.596.25.84-.295 1.586-.86 2.304-1.274.2.1.296.13.336.2 1.643 2.358 1.64 2.352-.796 3.755zm-7.856-1.604c-.77.254-1.452.784-2.17 1.197s-1.526.73-2.122 1.28c-.357.327-.384 1.015-.56 1.54.516.112 1.154.473 1.525.29 1.524-.746 3.005-1.6 4.4-2.55.335-.227.314-.978.456-1.49-.518-.105-1.104-.415-1.54-.27zm.373-11.347l-21.176 12.21c-2.525 1.456-2.62 1.42-3.792-1.56.842-.485 1.71-.85 2.39-1.433.366-.313.67-1.084.54-1.506-.228-.735-.958-.674-1.573-.336l-2.563 1.473-1.077-1.858c-.38-.628-.258-1.072.394-1.426l3.03-1.737 19.985-11.53c1.85-1.067 1.852-1.067 2.88.802.138.25.25.517.453.942l-8.512 4.914c-.693.403-1.508.827-.896 1.82.556.904 1.274.465 1.946.077l8.486-4.894c1.995 2.427 1.963 2.612-.515 4.04zm-12.804 2.433c-.273-.787-1.032-.678-1.68-.322l-2.05 1.177c-.716.418-1.515.742-2.12 1.282-.346.308-.378.97-.55 1.473.546.113 1.215.486 1.616.296 1.457-.69 2.867-1.508 4.2-2.416.38-.26.723-1.092.585-1.5zM21.652 102.83c-.858-1.464-.795-1.718.643-2.552L29.53 96.1c2.255-1.302 2.695-1.126 3.625 1.497l-10.838 6.25-.665-1.016z" fill="#ec7e3b"/><path d="M69.44 144.937l-24.183 13.948c-1.63.936-3.164.49-4.137-1.162l-3.334-5.75c-.63-1.066-.68-2.1-.084-3.192.5-.914-.35-2.368-1.394-2.397-1.246-.035-2.115-.597-2.723-1.677l-3.264-5.645c-.657-1.102-.743-2.165-.1-3.302.47-.83-.378-2.34-1.335-2.356-1.357-.022-2.248-.656-2.893-1.824l-3.197-5.54c-.63-1.064-.686-2.09-.126-3.2.174-.347.228-.9.084-1.24-.63-1.532-.68-3.072-.352-4.66l1.422-7.233c.175-1.14-.02-2.34-.05-3.72-2.222.896-2.253.885-3.246-.832l-1.063-1.85c-.863-1.626-.426-3.413 1.142-4.34l9.176-5.294c1.6-.895 3.364-.397 4.345 1.152l1.135 1.95c.92 1.6.898 1.712-.665 2.888.537 1.054 1.455 1.658 2.52 2.034l7.105 2.417c1.666.543 3.116 1.353 4.183 2.805.198.27.673.452 1.028.468 1.24.054 2.122.6 2.733 1.677l3.326 5.754c.605 1.026.635 2.03.102 3.087-.55 1.092.274 2.43 1.524 2.484 1.096.05 1.9.56 2.444 1.5l3.516 6.078c.544.946.535 1.9.056 2.867-.553 1.118.197 2.468 1.414 2.532 1.13.06 1.98.56 2.548 1.547l3.445 5.976c.89 1.588.475 3.146-1.1 4.057zm-39.856-48.69l-7.23 4.176c-1.438.834-1.5 1.088-.643 2.55l.664 1.017 10.832-6.247c-.93-2.62-1.37-2.796-3.623-1.496zm14.368 10.05c-2.09-.83-4.242-1.504-6.39-2.17-1.97-.6-3.66-1.59-4.9-3.36l-7.328 4.226c.966 1.992.913 3.99.45 6.034l-1.29 6.49c-.165 1.137.03 2.328.07 3.736l22.6-13.027c-1.193-.737-2.125-1.507-3.192-1.93zm8.424 7.667l-1.233.7c-.432.248-.844.64-1.303.703-.475.064-.995-.19-1.495-.308.163-.485.25-1.02.517-1.438.18-.28.62-.392.943-.58 1.718-.99 1.683-.97.7-2.654-.493-.844-.964-.955-1.796-.45l-6.465 3.75-16.942 9.773c-.5.282-1.168.5-.78 1.284.36.724.8 1.406 1.24 2.165l8.29-4.765c.694-.4 1.524-1.316 2.235-.148s-.452 1.48-1.155 1.893l-8.285 4.787.517 1.05c1.012 1.817 1.015 1.818 2.794.794l21.69-12.508c2.49-1.436 2.516-1.587.53-4.057zm.968 5.77l-21.922 12.642.988 1.7 21.923-12.64-.99-1.71zm6.548 7.247l-8.48 4.89c-.672.39-1.4.828-1.946-.075-.61-.994.203-1.42.896-1.82l6.585-3.802 1.922-1.108-.453-.942c-1.026-1.867-1.028-1.867-2.877-.802l-19.973 11.524-3.028 1.735c-.652.355-.773.8-.394 1.427l1.076 1.856 2.562-1.472c.614-.338 1.343-.398 1.57.335.13.422-.174 1.192-.54 1.505-.68.583-1.548.947-2.4 1.434 1.17 2.975 1.266 3.012 3.8 1.556l21.163-12.203c2.477-1.428 2.51-1.613.516-4.038zm.964 5.67L38.92 145.3l1.02 1.768 21.938-12.652-1.02-1.767zm6.795 7.556c-.04-.058-.136-.08-.337-.2-.717.414-1.462.98-2.302 1.274-.465.163-1.314.072-1.595-.25-.54-.62-.12-1.227.552-1.607l2.417-1.39-.615-1.195c-.918-1.614-.968-1.627-2.56-.71l-10.474 6.04-12.416 7.16c-.547.316-1.187.61-.775 1.422.35.7.767 1.345 1.19 2.074l9.01-5.19c.628-.36 1.323-.362 1.557.37.13.406-.16 1.063-.46 1.45-.283.367-.827.533-1.258.782l-7.62 4.395c.957 2.81 1.264 2.938 3.62 1.58l21.272-12.266c2.434-1.4 2.438-1.395.797-3.752zm-11.973 6.457c-.37.18-1.01-.18-1.524-.29.175-.526.202-1.214.558-1.54.597-.547 1.403-.865 2.122-1.278s1.398-.943 2.17-1.198c.434-.142 1.02.167 1.538.272-.143.5-.122 1.262-.456 1.487-1.404.95-2.885 1.803-4.408 2.55zm-9.683-11.726c-1.33.908-2.74 1.724-4.196 2.415-.4.2-1.07-.182-1.616-.296.173-.502.205-1.163.55-1.47.607-.54 1.405-.863 2.123-1.277l2.046-1.182c.647-.356 1.406-.464 1.678.323.138.398-.204 1.228-.585 1.488zm-3.264-15.418c-.68.393-1.324.897-2.055 1.136-.433.14-1.005-.136-1.514-.227.144-.495.132-1.226.46-1.445 1.442-.96 2.957-1.826 4.508-2.6.336-.168.93.178 1.403.287-.146.495-.14 1.17-.47 1.448-.683.577-1.544.946-2.332 1.4z" fill="#171716"/><path d="M381.785 297.477c-.33.234-.698.415-1.05.62l-19.396 11.21c-.185.107-.366.227-.562.308a1.06 1.06 0 0 1-1.402-.512c-.25-.504-.106-1.066.405-1.38l20.618-11.917c.234-.134.502-.265.762-.286.492-.04.878.202 1.04.667.18.507.036.97-.416 1.292zm-7.777-28.88l.32-.76c.498-1.287 1.053-1.576 2.402-1.186.392.113.754.328 1.283.565l-4.53 2.616.523-1.234zm-11.33 3.45l-3.302-4.628c-.146-.21-.198-.6-.1-.84.79-2.194 3.445-3.066 5.488-1.852l-.986 8.765-1.1-1.444zm-4.19 25.174l-.222.13c-5.662 2.698-11.08 2.45-16.218-1.113-.657-.456-.796-1.1-.407-1.628.395-.54 1.026-.585 1.69-.122 3.803 2.65 7.923 3.22 12.35 1.66.602-.21 1.176-.5 1.744-.805.755-.394 1.407-.31 1.73.263s.07 1.2-.67 1.615zM341.7 274.695l4.452 1.195c.14.04.298.176.358.31l1.956 4.396-8.168-.838 1.402-5.062z" fill="#ec7e3b" stroke="#ec7e3b" stroke-linejoin="round"/><path d="M380.868 289.94c-1.082.953-2.35 1.7-3.54 2.53-.295.206-.624.366-1.06.618l1.867 1.2c.13.073.397-.03.573-.113.58-.27 1.12-.66 1.72-.83 1.55-.445 3.182.366 3.783 1.79.63 1.495.067 3.273-1.356 4.098l-20.9 12.078c-1.578.908-3.532.362-4.42-1.184s-.41-3.56 1.23-4.375c1.1-.55 1.524-1.212 1.228-2.36-.052-.2-.03-.42-.05-.63-.003-.038-.03-.073-.056-.13l-2.825 1.308c-4.754 1.967-9.57 2.124-14.41.575-3.784-1.21-6.925-3.375-9.43-6.42-.653-.793-1.218-1.662-1.776-2.527-.466-.722-.287-1.317.465-1.757l3.048-1.78c.155-.096.33-.422.277-.554-.88-2.22-1.865-4.414-3.644-6.06-1.242-1.15-2.69-2.08-4.056-3.098l-3.918-2.878c-.417-.304-.717-.667-.602-1.22.114-.544.504-.778 1.033-.905l7.75-1.915c.567-.144 1.01-.034 1.485.3 1.507 1.03 3.045 2.017 4.573 3.017.084.056.192.076.358.14l1.488-5.338c.34-1.223.73-1.453 1.932-1.136l3.656.96c-.252-.605-.432-1.1-.66-1.572-1.596-3.3-.3-7.35 2.775-9.3 2.834-1.804 6.772-1.374 9.21 1.172.362.377.667.808 1.014 1.233 1.94-2.68 4.468-3.546 7.654-2.47l.394-2.047c.375-1.898 1.407-2.94 3.34-3.284.643-.115 1.308-.1 2.13-.157-.04-.28-.017-.627-.145-.902-.256-.553-.597-1.064-.9-1.594-.44-.773-.38-1.37.177-1.737.595-.395 1.08-.248 1.64.495.02.026.067.03.14.064.24-.555.43-1.07.005-1.642-.335-.454-.585-.973-.86-1.47-.39-.702-.306-1.27.226-1.627.588-.394 1.08-.26 1.606.43.034.045.086.076.25.217.137-.566.235-1.056.375-1.535.2-.65.714-.973 1.3-.838.6.14.954.697.786 1.363-.123.487-.32.957-.482 1.435l.173.09c.103-.05.205-.1.3-.147.58-.258 1.142-.096 1.43.41s.152 1.102-.372 1.45c-.444.295-.895.615-1.39.796-1.092.4-1.168 1.32-1.363 2.31l1.633-.54c.7-.23 1.264.027 1.476.674.19.578-.138 1.144-.807 1.375-.867.3-1.744.57-2.6.895-.245.093-.435.335-.742.582 1.453.683 2.53 1.463 3.14 2.788.653 1.423-.047 2.673-.5 4.027 1.698-.017 3.113.546 4.3 1.784l3.473-2.007c1.08-.623 1.57-.488 2.144.594 4.54 8.53 2.645 18.837-4.706 25.316zm-21.06 17.647a1.02 1.02 0 0 0-.406 1.378 1.06 1.06 0 0 0 1.401.512c.196-.082.377-.203.562-.31l19.4-11.206c.352-.204.72-.385 1.05-.62.452-.32.595-.783.417-1.29-.164-.463-.55-.704-1.04-.664-.26.02-.528.15-.762.285l-10.17 5.87-10.442 6.044zm16.3-11.988c-.573-.377-1.06-.74-1.592-1.025-.19-.104-.54-.12-.723-.014l-11.39 6.576c-.15.087-.32.307-.32.464.001.648.064 1.296.1 2.04l13.915-8.04zm-49.44-16.635l5.008 3.676.645-.878c-1.198-.88-2.36-1.675-3.448-2.558-.674-.547-1.318-.757-2.205-.24zm5.97-1.038c-.57-.42-1.09-.405-1.76.066l2.764 2.027.65-.868-1.654-1.225zm3.883 2.57c-.134-.064-.44-.02-.52.085l-2.632 3.484c1.823 1.94 2.936 4.214 3.924 6.592l12.223-7.062c-.216-.14-.38-.26-.557-.36-1.128-.636-2.355-.928-3.653-.95-3.05-.05-6.012-.477-8.784-1.79zm5.23-5.893l-1.403 5.057 8.163.834-1.952-4.392c-.06-.132-.218-.268-.358-.308l-4.45-1.19zm16.745-3.62l-2.447 1.408c-.5.28-.99.253-1.4-.163-.378-.383-.388-.845-.115-1.276.138-.218.395-.38.627-.517l2.67-1.55c-.905-1.235-1.704-2.423-2.603-3.53-1.564-1.923-4.097-2.406-6.316-1.28-2.32 1.176-3.458 4.122-2.406 6.38l2.434-1.402c.68-.375 1.37-.115 1.596.57.167.502-.075 1.016-.67 1.368l-2.54 1.47 2.647 5.937 3.27-1.885c.586-.33 1.17-.175 1.488.354s.162 1.12-.4 1.485c-.196.13-.406.237-.6.355l-2.883 1.667.88 1.922 11.147-6.44-1.892-2.582-1.893-2.633-.595.344zm.815-4.498a1.06 1.06 0 0 0 .11.841c1.076 1.556 2.2 3.086 3.3 4.62.335.464.69.915 1.088 1.443l.99-8.756c-2.04-1.212-4.694-.34-5.486 1.85zm14.575-5.824c-.943-1.16-2.285-1.52-3.68-1.546-2.01-.037-2.47.744-2.47 2.645.552.12 1.137.23 1.7.38.762.2 1.118.758.924 1.387-.185.6-.766.88-1.5.696-.528-.133-1.047-.3-1.745-.502l-1.197 10.245.185.07 3.692-2.15c.285-.174.57-.466.695-.768l3.62-8.983c.223-.554.127-1.033-.233-1.476zm2.88 5.888c-1.35-.39-1.904-.1-2.402 1.186-.1.257-.213.507-.32.76l-.523 1.233 4.527-2.615c-.528-.237-.89-.452-1.28-.565zm8.472 3.17c-.27-1.186-.8-2.3-1.224-3.508l-50.146 28.976c.16.28.27.56.456.773.758.87 1.48 1.783 2.323 2.565 5.954 5.524 14.753 6.406 22.05 2.227l7.477-4.38 7.222-4.184c1.872-1.11 3.893-2.068 5.53-3.462 5.963-5.072 8.02-11.488 6.3-19.008zm-31.186-11.778c-1.164-.413-2.038-1.162-2.694-2.302-.543-.992-.736-2.127-.49-3.34.366-1.815-.226-2.924-1.915-3.608-.644-.26-.92-.826-.69-1.4.234-.6.793-.82 1.485-.6 2.405.728 3.815 3.193 3.292 5.805-.15.756-.132 1.46.25 2.14.356.635.875 1.056 1.558 1.31.752.277 1.05.834.812 1.455-.23.6-.865.823-1.61.56zm-8.435 2.585c-1.244-.385-2.202-1.133-2.83-2.26-.654-1.11-.815-2.287-.563-3.543.346-1.732-.265-2.856-1.886-3.51-.687-.275-.95-.77-.735-1.38.218-.622.804-.87 1.517-.643 2.312.74 3.76 3.177 3.315 5.574-.374 2.005.102 2.9 1.967 3.748.556.25.813.804.623 1.344-.196.552-.798.857-1.407.67zm-5.72 4.23c.567.25.82.79.63 1.338s-.8.87-1.402.683c-1.242-.383-2.205-1.128-2.803-2.2-.704-1.175-.85-2.376-.6-3.65.334-1.638-.3-2.81-1.834-3.425-.764-.306-1.035-.82-.775-1.465.246-.61.798-.812 1.546-.566 2.28.754 3.712 3.187 3.264 5.545-.38 2.002.104 2.927 1.963 3.75z" fill="#171716"/><path d="M220.654 32.06l-3.002-11.608c2.814-.503 5.842 1.6 6.536 4.593.8 3.477-1.538 6.375-3.534 7.015zM183.94 1.928c2.97-.913 6.344.623 7.336 3.364L179.68 8.4c-.448-2.185 1.065-5.5 4.26-6.472zM197.433 25c3.115 1.793 4.085 5.932 2.17 9.243s-5.996 4.542-9.1 2.75-4.085-5.932-2.168-9.243 5.995-4.542 9.1-2.75z" fill="#ec7e3b" stroke="#ec7e3b" stroke-width="3"/><path d="M224.856 30.602c-1.034 1.68-2.505 2.832-4.387 3.43-.766.245-1.14.04-1.345-.74l-3.422-13.03c-.187-.714.04-1.11.747-1.278 2.113-.507 4.1-.173 5.84.87 3.75 2.492 4.822 7.086 2.568 10.748zm-.697-5.505c-.695-2.98-3.722-5.093-6.534-4.6l3.005 11.597c1.994-.638 4.34-3.532 3.53-7.007zm-8.727 9.943c-1.696 8.858-8.86 15.892-17.824 17.476-.442.078-.628.214-.702.684l-1.045 5.956c-.045.248-.133.518-.285.712-.24.303-.592.35-.944.188-.396-.182-.553-.5-.48-.936l1.098-6.227c-9.423.135-16.37-3.863-20.95-12.067l-.734.596-4.04 3.388c-.536.446-1.137.366-1.412-.163-.205-.395-.084-.79.373-1.174l4.692-3.9c.346-.283.43-.513.272-.955-1.915-5.388-1.842-10.776.418-16.07 4.737-11.095 16.725-15.77 26.835-12.5 10.668 3.45 16.84 13.975 14.728 25.004zm-11.296-21.644c-9.582-5.53-21.953-2.172-27.57 7.486-5.603 9.636-2.384 22.044 7.147 27.55 9.69 5.6 22.045 2.26 27.676-7.48 5.597-9.68 2.35-22.014-7.254-27.558zM185.013 46.36c-8.44-4.964-11.29-15.864-6.34-24.234 5.096-8.615 15.934-11.487 24.44-6.476 8.37 4.932 11.07 15.846 6.028 24.347-4.94 8.325-15.885 11.212-24.127 6.363zm17.024-29.37c-7.663-4.39-17.496-1.69-21.926 6.025s-1.832 17.517 5.797 21.886c7.66 4.388 17.485 1.698 21.934-6.004 4.425-7.66 1.806-17.545-5.805-21.907zm1.515 21.07c-.665-.38-.874-1.22-.472-1.896.388-.652 1.204-.872 1.853-.5.665.38.874 1.22.472 1.897a1.36 1.36 0 0 1-1.853.5zm-4.287-16.3c-.648-.383-.856-1.19-.475-1.845.393-.677 1.216-.894 1.886-.5.64.378.852 1.2.476 1.85a1.35 1.35 0 0 1-1.887.494zm-3.666 7.035c-.11.313-.13.542.108.84.682.853.588 2.065-.22 2.835-.287.274-.322.513-.258.864l1.538 8.5c.037.206.08.41.104.615.06.522-.214.927-.677 1.018-.45.088-.876-.2-.978-.71-.183-.918-.336-1.842-.502-2.765l-1.137-6.35c-.064-.368-.126-.693-.497-.718-.92-.482-1.366-1.3-1.26-2.2.11-.923.72-1.642 1.648-1.875.29-.073.42-.197.518-.482l2.208-6.3c.27-.765.66-1.08 1.16-.915.448.148.786.56.444 1.46-.777 2.05-1.466 4.13-2.2 6.194zM187.296 42.5c-.644-.372-.862-1.19-.492-1.852.382-.685 1.217-.924 1.88-.54.638.37.862 1.204.498 1.856-.376.674-1.23.916-1.887.536zM183 26.224a1.4 1.4 0 0 1-.499-1.863c.37-.656 1.254-.898 1.902-.522.627.365.857 1.226.498 1.864-.372.66-1.25.902-1.9.52zm9.433-19.367L179.36 10.42c-.747.203-1.107-.022-1.26-.793-.596-3.006.204-5.6 2.512-7.635 2.325-2.042 5.018-2.48 7.924-1.47.097.034.2.08.284.126l.742.36c1.822 1.096 3.005 2.57 3.588 4.515.224.75.02 1.133-.718 1.334zm-8.507-4.87c-3.194.98-4.705 4.28-4.256 6.464l11.59-3.1c-.992-2.74-4.365-4.275-7.333-3.363z" fill="#171716"/></g></svg>